<?xml version="1.0" encoding="utf-8"?>
<!-- Generator: Adobe Illustrator 16.0.0, SVG Export Plug-In . SVG Version: 6.00 Build 0)  -->
<!DOCTYPE svg PUBLIC "-//W3C//DTD SVG 1.1//EN" "http://www.w3.org/Graphics/SVG/1.1/DTD/svg11.dtd">
<svg version="1.1" id="Layer_1" xmlns="http://www.w3.org/2000/svg" xmlns:xlink="http://www.w3.org/1999/xlink" x="0px" y="0px"
	 width="612px" height="792px" viewBox="0 0 612 792" enable-background="new 0 0 612 792" xml:space="preserve">
<path fill="#FFFFFF" stroke="#000000" stroke-miterlimit="10" d="M403.5,345.5c-46,20-56,70.5-71,68.5s-15-91.5-2.5-122
	S449.5,325.5,403.5,345.5z"/>
<circle fill="#FF0000" cx="333.426" cy="414.058" r="0.7"/>
<circle fill="#FF0000" cx="338.059" cy="412.391" r="0.7"/>
<circle fill="#FF0000" cx="341.73" cy="409.013" r="0.7"/>
<circle fill="#FF0000" cx="344.855" cy="405.112" r="0.7"/>
<circle fill="#FF0000" cx="347.729" cy="401.021" r="0.7"/>
<circle fill="#FF0000" cx="350.497" cy="396.857" r="0.7"/>
<circle fill="#FF0000" cx="353.244" cy="392.679" r="0.7"/>
<circle fill="#FF0000" cx="356.021" cy="388.521" r="0.7"/>
<circle fill="#FF0000" cx="358.864" cy="384.408" r="0.7"/>
<circle fill="#FF0000" cx="361.8" cy="380.361" r="0.7"/>
<circle fill="#FF0000" cx="364.849" cy="376.398" r="0.7"/>
<circle fill="#FF0000" cx="368.027" cy="372.539" r="0.7"/>
<circle fill="#FF0000" cx="371.349" cy="368.802" r="0.7"/>
<circle fill="#FF0000" cx="374.821" cy="365.206" r="0.7"/>
<circle fill="#FF0000" cx="378.453" cy="361.77" r="0.7"/>
<circle fill="#FF0000" cx="382.246" cy="358.513" r="0.7"/>
<circle fill="#FF0000" cx="386.2" cy="355.454" r="0.7"/>
<circle fill="#FF0000" cx="390.312" cy="352.609" r="0.7"/>
<circle fill="#FF0000" cx="394.572" cy="349.994" r="0.7"/>
<circle fill="#FF0000" cx="398.973" cy="347.621" r="0.7"/>
<circle fill="#FF0000" cx="403.5" cy="345.5" r="0.7"/>
<circle fill="#FF0000" cx="407.049" cy="343.696" r="0.7"/>
<circle fill="#FF0000" cx="411.02" cy="340.677" r="0.7"/>
<circle fill="#FF0000" cx="413.888" cy="336.617" r="0.7"/>
<circle fill="#FF0000" cx="414.919" cy="331.762" r="0.7"/>
<circle fill="#FF0000" cx="414.117" cy="326.847" r="0.7"/>
<circle fill="#FF0000" cx="412.103" cy="322.281" r="0.7"/>
<circle fill="#FF0000" cx="409.365" cy="318.101" r="0.7"/>
<circle fill="#FF0000" cx="406.172" cy="314.255" r="0.7"/>
<circle fill="#FF0000" cx="402.668" cy="310.69" r="0.7"/>
<circle fill="#FF0000" cx="398.935" cy="307.365" r="0.7"/>
<circle fill="#FF0000" cx="395.022" cy="304.252" r="0.7"/>
<circle fill="#FF0000" cx="390.964" cy="301.333" r="0.7"/>
<circle fill="#FF0000" cx="386.78" cy="298.596" r="0.7"/>
<circle fill="#FF0000" cx="382.484" cy="296.038" r="0.7"/>
<circle fill="#FF0000" cx="378.088" cy="293.658" r="0.7"/>
<circle fill="#FF0000" cx="373.596" cy="291.464" r="0.7"/>
<circle fill="#FF0000" cx="369.011" cy="289.469" r="0.7"/>
<circle fill="#FF0000" cx="364.337" cy="287.695" r="0.7"/>
<circle fill="#FF0000" cx="359.573" cy="286.178" r="0.7"/>
<circle fill="#FF0000" cx="354.722" cy="284.973" r="0.7"/>
<circle fill="#FF0000" cx="349.789" cy="284.166" r="0.7"/>
<circle fill="#FF0000" cx="344.8" cy="283.901" r="0.7"/>
<circle fill="#0000FF" cx="333.426" cy="414.058" r="0.7"/>
<circle fill="#0000FF" cx="329.146" cy="411.865" r="0.7"/>
<circle fill="#0000FF" cx="326.688" cy="407.531" r="0.7"/>
<circle fill="#0000FF" cx="325.088" cy="402.797" r="0.7"/>
<circle fill="#0000FF" cx="323.931" cy="397.934" r="0.7"/>
<circle fill="#0000FF" cx="323.056" cy="393.012" r="0.7"/>
<circle fill="#0000FF" cx="322.384" cy="388.058" r="0.7"/>
<circle fill="#0000FF" cx="321.867" cy="383.084" r="0.7"/>
<circle fill="#0000FF" cx="321.48" cy="378.099" r="0.7"/>
<circle fill="#0000FF" cx="321.203" cy="373.107" r="0.7"/>
<circle fill="#0000FF" cx="321.022" cy="368.111" r="0.7"/>
<circle fill="#0000FF" cx="320.932" cy="363.112" r="0.7"/>
<circle fill="#0000FF" cx="320.922" cy="358.112" r="0.7"/>
<circle fill="#0000FF" cx="320.992" cy="353.112" r="0.7"/>
<circle fill="#0000FF" cx="321.139" cy="348.114" r="0.7"/>
<circle fill="#0000FF" cx="321.361" cy="343.119" r="0.7"/>
<circle fill="#0000FF" cx="321.662" cy="338.128" r="0.7"/>
<circle fill="#0000FF" cx="322.042" cy="333.143" r="0.7"/>
<circle fill="#0000FF" cx="322.507" cy="328.165" r="0.7"/>
<circle fill="#0000FF" cx="323.062" cy="323.196" r="0.7"/>
<circle fill="#0000FF" cx="323.719" cy="318.239" r="0.7"/>
<circle fill="#0000FF" cx="324.488" cy="313.299" r="0.7"/>
<circle fill="#0000FF" cx="325.391" cy="308.381" r="0.7"/>
<circle fill="#0000FF" cx="326.453" cy="303.496" r="0.7"/>
<circle fill="#0000FF" cx="327.721" cy="298.659" r="0.7"/>
<circle fill="#0000FF" cx="329.264" cy="293.904" r="0.7"/>
<circle fill="#0000FF" cx="331.435" cy="289.422" r="0.7"/>
<circle fill="#0000FF" cx="335.159" cy="286.142" r="0.7"/>
<circle fill="#0000FF" cx="339.835" cy="284.427" r="0.7"/>
<circle fill="#0000FF" cx="344.8" cy="283.901" r="0.7"/>
<path fill="none" stroke="#000000" stroke-miterlimit="10" d="M411.75,348.75c-1.315,0.116-3.528-0.824-4.763-0.212
	c-3.955,1.962,2.603,5.888,3.759,7.507c0.93,1.301,2.053,1.56,0.222,3.217c-2.273,2.057-6.809,0.512-8.968-0.761"/>
<path fill="none" stroke="#000000" stroke-miterlimit="10" d="M374.5,388c-2.521,0.008-7.729,1.961-9.977,0.557
	c-2.113-1.321-1.023-6.574-1.023-9.057"/>
<path fill="none" stroke="#000000" stroke-miterlimit="10" d="M394,363.5c-5.752,1.154-9.707,5.554-14.881,8.205
	c-3.666,1.878-5.95,4.19-8.568,7.496c-1.62,2.046-2.944,4.252-4.42,6.287c-0.728,1.003-1.692,1.578-1.881,2.762"/>
<path fill="none" stroke="#000000" stroke-miterlimit="10" d="M329.75,275.75c-1.337,0.597-3.236,0.189-4.729,0.311
	c-0.061,1.881-0.028,3.784-0.022,5.667c2.089,0.067,5.555-0.584,7.251,0.271"/>
<path fill="none" stroke="#000000" stroke-miterlimit="10" d="M329.389,278.625c-1.217,0.483-2.74,0.192-4,0.5"/>
<path fill="#FFFFFF" stroke="#000000" stroke-miterlimit="10" d="M504.5,345.5c-46,20-56,70.5-71,68.5s-15-91.5-2.5-122
	S550.5,325.5,504.5,345.5z"/>
<circle fill="#FF0000" cx="434.426" cy="414.058" r="0.7"/>
<circle fill="#FF0000" cx="439.059" cy="412.391" r="0.7"/>
<circle fill="#FF0000" cx="442.73" cy="409.013" r="0.7"/>
<circle fill="#FF0000" cx="445.855" cy="405.112" r="0.7"/>
<circle fill="#FF0000" cx="448.729" cy="401.021" r="0.7"/>
<circle fill="#FF0000" cx="451.497" cy="396.857" r="0.7"/>
<circle fill="#FF0000" cx="454.244" cy="392.679" r="0.7"/>
<circle fill="#FF0000" cx="457.021" cy="388.521" r="0.7"/>
<circle fill="#FF0000" cx="459.864" cy="384.408" r="0.7"/>
<circle fill="#FF0000" cx="462.8" cy="380.361" r="0.7"/>
<circle fill="#FF0000" cx="465.849" cy="376.398" r="0.7"/>
<circle fill="#FF0000" cx="469.027" cy="372.539" r="0.7"/>
<circle fill="#FF0000" cx="472.349" cy="368.802" r="0.7"/>
<circle fill="#FF0000" cx="475.821" cy="365.206" r="0.7"/>
<circle fill="#FF0000" cx="479.453" cy="361.77" r="0.7"/>
<circle fill="#FF0000" cx="483.246" cy="358.513" r="0.7"/>
<circle fill="#FF0000" cx="487.2" cy="355.454" r="0.7"/>
<circle fill="#FF0000" cx="491.312" cy="352.609" r="0.7"/>
<circle fill="#FF0000" cx="495.572" cy="349.994" r="0.7"/>
<circle fill="#FF0000" cx="499.973" cy="347.621" r="0.7"/>
<circle fill="#FF0000" cx="504.5" cy="345.5" r="0.7"/>
<circle fill="#FF0000" cx="508.049" cy="343.696" r="0.7"/>
<circle fill="#FF0000" cx="512.02" cy="340.677" r="0.7"/>
<circle fill="#FF0000" cx="514.888" cy="336.617" r="0.7"/>
<circle fill="#FF0000" cx="515.919" cy="331.762" r="0.7"/>
<circle fill="#FF0000" cx="515.117" cy="326.847" r="0.7"/>
<circle fill="#FF0000" cx="513.103" cy="322.281" r="0.7"/>
<circle fill="#FF0000" cx="510.365" cy="318.101" r="0.7"/>
<circle fill="#FF0000" cx="507.172" cy="314.255" r="0.7"/>
<circle fill="#FF0000" cx="503.668" cy="310.69" r="0.7"/>
<circle fill="#FF0000" cx="499.935" cy="307.365" r="0.7"/>
<circle fill="#FF0000" cx="496.022" cy="304.252" r="0.7"/>
<circle fill="#FF0000" cx="491.964" cy="301.333" r="0.7"/>
<circle fill="#FF0000" cx="487.78" cy="298.596" r="0.7"/>
<circle fill="#FF0000" cx="483.484" cy="296.038" r="0.7"/>
<circle fill="#FF0000" cx="479.088" cy="293.658" r="0.7"/>
<circle fill="#FF0000" cx="474.596" cy="291.464" r="0.7"/>
<circle fill="#FF0000" cx="470.011" cy="289.469" r="0.7"/>
<circle fill="#FF0000" cx="465.337" cy="287.695" r="0.7"/>
<circle fill="#FF0000" cx="460.573" cy="286.178" r="0.7"/>
<circle fill="#FF0000" cx="455.722" cy="284.973" r="0.7"/>
<circle fill="#FF0000" cx="450.789" cy="284.166" r="0.7"/>
<circle fill="#FF0000" cx="445.8" cy="283.901" r="0.7"/>
<circle fill="#0000FF" cx="434.426" cy="414.058" r="0.7"/>
<circle fill="#0000FF" cx="430.146" cy="411.865" r="0.7"/>
<circle fill="#0000FF" cx="427.688" cy="407.531" r="0.7"/>
<circle fill="#0000FF" cx="426.088" cy="402.797" r="0.7"/>
<circle fill="#0000FF" cx="424.931" cy="397.934" r="0.7"/>
<circle fill="#0000FF" cx="424.056" cy="393.012" r="0.7"/>
<circle fill="#0000FF" cx="423.384" cy="388.058" r="0.7"/>
<circle fill="#0000FF" cx="422.867" cy="383.084" r="0.7"/>
<circle fill="#0000FF" cx="422.48" cy="378.099" r="0.7"/>
<circle fill="#0000FF" cx="422.203" cy="373.107" r="0.7"/>
<circle fill="#0000FF" cx="422.022" cy="368.111" r="0.7"/>
<circle fill="#0000FF" cx="421.932" cy="363.112" r="0.7"/>
<circle fill="#0000FF" cx="421.922" cy="358.112" r="0.7"/>
<circle fill="#0000FF" cx="421.992" cy="353.112" r="0.7"/>
<circle fill="#0000FF" cx="422.139" cy="348.114" r="0.7"/>
<circle fill="#0000FF" cx="422.361" cy="343.119" r="0.7"/>
<circle fill="#0000FF" cx="422.662" cy="338.128" r="0.7"/>
<circle fill="#0000FF" cx="423.042" cy="333.143" r="0.7"/>
<circle fill="#0000FF" cx="423.507" cy="328.165" r="0.7"/>
<circle fill="#0000FF" cx="424.062" cy="323.196" r="0.7"/>
<circle fill="#0000FF" cx="424.719" cy="318.239" r="0.7"/>
<circle fill="#0000FF" cx="425.488" cy="313.299" r="0.7"/>
<circle fill="#0000FF" cx="426.391" cy="308.381" r="0.7"/>
<circle fill="#0000FF" cx="427.453" cy="303.496" r="0.7"/>
<circle fill="#0000FF" cx="428.721" cy="298.659" r="0.7"/>
<circle fill="#0000FF" cx="430.264" cy="293.904" r="0.7"/>
<circle fill="#0000FF" cx="432.435" cy="289.422" r="0.7"/>
<circle fill="#0000FF" cx="436.159" cy="286.142" r="0.7"/>
<circle fill="#0000FF" cx="440.835" cy="284.427" r="0.7"/>
<circle fill="#0000FF" cx="445.8" cy="283.901" r="0.7"/>
<path fill="none" stroke="#000000" stroke-miterlimit="10" d="M512.75,348.75c-1.315,0.116-3.528-0.824-4.763-0.212
	c-3.955,1.962,2.603,5.888,3.759,7.507c0.93,1.301,2.053,1.56,0.222,3.217c-2.273,2.057-6.809,0.512-8.968-0.761"/>
<path fill="none" stroke="#000000" stroke-miterlimit="10" d="M430.75,275.75c-1.337,0.597-3.236,0.189-4.729,0.311
	c-0.061,1.881-0.028,3.784-0.022,5.667c2.089,0.067,5.555-0.584,7.251,0.271"/>
<path fill="none" stroke="#000000" stroke-miterlimit="10" d="M430.389,278.625c-1.217,0.483-2.74,0.192-4,0.5"/>
<path fill="none" stroke="#000000" stroke-miterlimit="10" d="M506.5,306.5c0.002-1.241-0.006-2.485-0.006-3.723
	c2.853-0.864,9.408-2.119,12.006-0.277"/>
<path fill="none" stroke="#000000" stroke-miterlimit="10" d="M514.25,345c1.203-1.147,1.812-2.987,2.943-4.256
	c0.995-1.117,2.162-1.897,3-3.299c1.987-3.326,0.279-6.236,0.79-9.684c0.28-1.898,1.238-3.987,0.484-5.83
	c-0.52-1.272-2.217-2.69-2.967-3.943c-1.95-3.26-4.287-6.27-6.25-9.293c-1.521-2.344-2.846-4.579-5.251-6.194"/>
<text transform="matrix(1 0 0 1 442.25 255.75)" font-family="'MyriadPro-Regular'" font-size="12">T&lt;B</text>
<text transform="matrix(1 0 0 1 341.25 257.75)" font-family="'MyriadPro-Regular'" font-size="12">B&lt;T</text>
<path fill="#FFFFFF" stroke="#000000" stroke-miterlimit="10" d="M403.254,546.514c-46,20-56,70.5-71,68.5s-15-91.5-2.5-122
	S449.254,526.514,403.254,546.514z"/>
<circle fill="#FF0000" cx="337.812" cy="613.405" r="0.7"/>
<circle fill="#FF0000" cx="341.484" cy="610.027" r="0.699"/>
<circle fill="#FF0000" cx="344.609" cy="606.126" r="0.7"/>
<circle fill="#FF0000" cx="347.482" cy="602.034" r="0.7"/>
<circle fill="#FF0000" cx="350.251" cy="597.871" r="0.699"/>
<circle fill="#FF0000" cx="352.998" cy="593.693" r="0.699"/>
<circle fill="#FF0000" cx="355.774" cy="589.535" r="0.699"/>
<circle fill="#FF0000" cx="358.618" cy="585.423" r="0.7"/>
<circle fill="#FF0000" cx="361.554" cy="581.375" r="0.7"/>
<circle fill="#FF0000" cx="364.603" cy="577.413" r="0.7"/>
<circle fill="#FF0000" cx="367.781" cy="573.554" r="0.7"/>
<circle fill="#FF0000" cx="371.103" cy="569.816" r="0.7"/>
<circle fill="#FF0000" cx="374.575" cy="566.22" r="0.7"/>
<circle fill="#FF0000" cx="378.207" cy="562.784" r="0.7"/>
<circle fill="#FF0000" cx="382" cy="559.527" r="0.7"/>
<circle fill="#FF0000" cx="385.954" cy="556.468" r="0.7"/>
<circle fill="#FF0000" cx="390.065" cy="553.624" r="0.7"/>
<circle fill="#FF0000" cx="394.326" cy="551.009" r="0.7"/>
<circle fill="#FF0000" cx="398.727" cy="548.636" r="0.7"/>
<circle fill="#FF0000" cx="403.254" cy="546.515" r="0.7"/>
<circle fill="#FF0000" cx="406.803" cy="544.71" r="0.7"/>
<circle fill="#FF0000" cx="410.773" cy="541.692" r="0.7"/>
<circle fill="#FF0000" cx="413.642" cy="537.632" r="0.7"/>
<circle fill="#FF0000" cx="414.673" cy="532.776" r="0.7"/>
<circle fill="#FF0000" cx="413.871" cy="527.862" r="0.7"/>
<circle fill="#FF0000" cx="411.856" cy="523.294" r="0.7"/>
<circle fill="#FF0000" cx="409.119" cy="519.115" r="0.7"/>
<circle fill="#FF0000" cx="405.926" cy="515.269" r="0.7"/>
<circle fill="#FF0000" cx="402.422" cy="511.704" r="0.7"/>
<circle fill="#FF0000" cx="398.688" cy="508.379" r="0.7"/>
<circle fill="#FF0000" cx="394.776" cy="505.267" r="0.7"/>
<circle fill="#FF0000" cx="390.718" cy="502.347" r="0.7"/>
<circle fill="#FF0000" cx="386.534" cy="499.61" r="0.7"/>
<circle fill="#FF0000" cx="382.238" cy="497.052" r="0.7"/>
<circle fill="#FF0000" cx="377.842" cy="494.672" r="0.7"/>
<circle fill="#FF0000" cx="373.35" cy="492.478" r="0.7"/>
<circle fill="#FF0000" cx="368.765" cy="490.483" r="0.7"/>
<circle fill="#FF0000" cx="364.091" cy="488.709" r="0.7"/>
<circle fill="#FF0000" cx="359.327" cy="487.192" r="0.7"/>
<circle fill="#FF0000" cx="354.476" cy="485.987" r="0.7"/>
<circle fill="#FF0000" cx="349.543" cy="485.181" r="0.7"/>
<circle fill="#FF0000" cx="344.554" cy="484.915" r="0.7"/>
<circle fill="#0000FF" cx="328.899" cy="612.88" r="0.7"/>
<circle fill="#0000FF" cx="326.442" cy="608.546" r="0.7"/>
<circle fill="#0000FF" cx="324.842" cy="603.812" r="0.7"/>
<circle fill="#0000FF" cx="323.685" cy="598.948" r="0.7"/>
<circle fill="#0000FF" cx="322.81" cy="594.026" r="0.7"/>
<circle fill="#0000FF" cx="322.138" cy="589.071" r="0.7"/>
<circle fill="#0000FF" cx="321.621" cy="584.099" r="0.7"/>
<circle fill="#0000FF" cx="321.234" cy="579.114" r="0.7"/>
<circle fill="#0000FF" cx="320.957" cy="574.122" r="0.7"/>
<circle fill="#0000FF" cx="320.776" cy="569.125" r="0.7"/>
<circle fill="#0000FF" cx="320.686" cy="564.126" r="0.7"/>
<circle fill="#0000FF" cx="320.676" cy="559.126" r="0.7"/>
<circle fill="#0000FF" cx="320.746" cy="554.126" r="0.7"/>
<circle fill="#0000FF" cx="320.893" cy="549.128" r="0.7"/>
<circle fill="#0000FF" cx="321.115" cy="544.134" r="0.7"/>
<circle fill="#0000FF" cx="321.416" cy="539.143" r="0.7"/>
<circle fill="#0000FF" cx="321.796" cy="534.157" r="0.7"/>
<circle fill="#0000FF" cx="322.261" cy="529.179" r="0.7"/>
<circle fill="#0000FF" cx="322.816" cy="524.21" r="0.7"/>
<circle fill="#0000FF" cx="323.473" cy="519.253" r="0.7"/>
<circle fill="#0000FF" cx="324.242" cy="514.313" r="0.7"/>
<circle fill="#0000FF" cx="325.145" cy="509.396" r="0.7"/>
<circle fill="#0000FF" cx="326.207" cy="504.51" r="0.7"/>
<circle fill="#0000FF" cx="327.475" cy="499.673" r="0.7"/>
<circle fill="#0000FF" cx="329.018" cy="494.919" r="0.7"/>
<circle fill="#0000FF" cx="331.188" cy="490.436" r="0.7"/>
<circle fill="#0000FF" cx="334.913" cy="487.157" r="0.7"/>
<circle fill="#0000FF" cx="339.589" cy="485.44" r="0.7"/>
<circle fill="#0000FF" cx="344.554" cy="484.915" r="0.7"/>
<path fill="none" stroke="#000000" stroke-miterlimit="10" d="M315.75,542.882c-1.315,0.117-3.528-0.824-4.763-0.212
	c-3.955,1.962,2.603,5.888,3.759,7.507c0.93,1.301,2.053,1.561,0.222,3.217c-2.273,2.057-6.809,0.512-8.968-0.762"/>
<path fill="none" stroke="#000000" stroke-miterlimit="10" d="M433.837,548.776c-1.315,0.117-3.528-0.824-4.763-0.212
	c-3.955,1.962,2.603,5.888,3.759,7.507c0.93,1.301,2.053,1.561,0.222,3.217c-2.273,2.057-6.809,0.512-8.968-0.762"/>
<path fill="#FFFFFF" stroke="#000000" stroke-miterlimit="10" d="M519.254,546.514c-46,20-56,70.5-71,68.5s-15-91.5-2.5-122
	S565.254,526.514,519.254,546.514z"/>
<circle fill="#FF0000" cx="453.812" cy="613.405" r="0.7"/>
<circle fill="#FF0000" cx="457.484" cy="610.027" r="0.699"/>
<circle fill="#FF0000" cx="460.609" cy="606.126" r="0.7"/>
<circle fill="#FF0000" cx="463.482" cy="602.034" r="0.7"/>
<circle fill="#FF0000" cx="466.251" cy="597.871" r="0.699"/>
<circle fill="#FF0000" cx="468.998" cy="593.693" r="0.699"/>
<circle fill="#FF0000" cx="471.774" cy="589.535" r="0.699"/>
<circle fill="#FF0000" cx="474.618" cy="585.423" r="0.7"/>
<circle fill="#FF0000" cx="477.554" cy="581.375" r="0.7"/>
<circle fill="#FF0000" cx="480.603" cy="577.413" r="0.7"/>
<circle fill="#FF0000" cx="483.781" cy="573.554" r="0.7"/>
<circle fill="#FF0000" cx="487.103" cy="569.816" r="0.7"/>
<circle fill="#FF0000" cx="490.575" cy="566.22" r="0.7"/>
<circle fill="#FF0000" cx="494.207" cy="562.784" r="0.7"/>
<circle fill="#FF0000" cx="498" cy="559.527" r="0.7"/>
<circle fill="#FF0000" cx="501.954" cy="556.468" r="0.7"/>
<circle fill="#FF0000" cx="506.065" cy="553.624" r="0.7"/>
<circle fill="#FF0000" cx="510.326" cy="551.009" r="0.7"/>
<circle fill="#FF0000" cx="514.727" cy="548.636" r="0.7"/>
<circle fill="#FF0000" cx="519.254" cy="546.515" r="0.7"/>
<circle fill="#FF0000" cx="522.803" cy="544.71" r="0.7"/>
<circle fill="#FF0000" cx="526.773" cy="541.692" r="0.7"/>
<circle fill="#FF0000" cx="529.642" cy="537.632" r="0.7"/>
<circle fill="#FF0000" cx="530.673" cy="532.776" r="0.7"/>
<circle fill="#FF0000" cx="529.871" cy="527.862" r="0.7"/>
<circle fill="#FF0000" cx="527.856" cy="523.294" r="0.7"/>
<circle fill="#FF0000" cx="525.119" cy="519.115" r="0.7"/>
<circle fill="#FF0000" cx="521.926" cy="515.269" r="0.7"/>
<circle fill="#FF0000" cx="518.422" cy="511.704" r="0.7"/>
<circle fill="#FF0000" cx="514.688" cy="508.379" r="0.7"/>
<circle fill="#FF0000" cx="510.776" cy="505.267" r="0.7"/>
<circle fill="#FF0000" cx="506.718" cy="502.347" r="0.7"/>
<circle fill="#FF0000" cx="502.534" cy="499.61" r="0.7"/>
<circle fill="#FF0000" cx="498.238" cy="497.052" r="0.7"/>
<circle fill="#FF0000" cx="493.842" cy="494.672" r="0.7"/>
<circle fill="#FF0000" cx="489.35" cy="492.478" r="0.7"/>
<circle fill="#FF0000" cx="484.765" cy="490.483" r="0.7"/>
<circle fill="#FF0000" cx="480.091" cy="488.709" r="0.7"/>
<circle fill="#FF0000" cx="475.327" cy="487.192" r="0.7"/>
<circle fill="#FF0000" cx="470.476" cy="485.987" r="0.7"/>
<circle fill="#FF0000" cx="465.543" cy="485.181" r="0.7"/>
<circle fill="#FF0000" cx="460.554" cy="484.915" r="0.7"/>
<circle fill="#0000FF" cx="444.899" cy="612.88" r="0.7"/>
<circle fill="#0000FF" cx="442.442" cy="608.546" r="0.7"/>
<circle fill="#0000FF" cx="440.842" cy="603.812" r="0.7"/>
<circle fill="#0000FF" cx="439.685" cy="598.948" r="0.7"/>
<circle fill="#0000FF" cx="438.81" cy="594.026" r="0.7"/>
<circle fill="#0000FF" cx="438.138" cy="589.071" r="0.7"/>
<circle fill="#0000FF" cx="437.621" cy="584.099" r="0.7"/>
<circle fill="#0000FF" cx="437.234" cy="579.114" r="0.7"/>
<circle fill="#0000FF" cx="436.957" cy="574.122" r="0.7"/>
<circle fill="#0000FF" cx="436.776" cy="569.125" r="0.7"/>
<circle fill="#0000FF" cx="436.686" cy="564.126" r="0.7"/>
<circle fill="#0000FF" cx="436.676" cy="559.126" r="0.7"/>
<circle fill="#0000FF" cx="436.746" cy="554.126" r="0.7"/>
<circle fill="#0000FF" cx="436.893" cy="549.128" r="0.7"/>
<circle fill="#0000FF" cx="437.115" cy="544.134" r="0.7"/>
<circle fill="#0000FF" cx="437.416" cy="539.143" r="0.7"/>
<circle fill="#0000FF" cx="437.796" cy="534.157" r="0.7"/>
<circle fill="#0000FF" cx="438.261" cy="529.179" r="0.7"/>
<circle fill="#0000FF" cx="438.816" cy="524.21" r="0.7"/>
<circle fill="#0000FF" cx="439.473" cy="519.253" r="0.7"/>
<circle fill="#0000FF" cx="440.242" cy="514.313" r="0.7"/>
<circle fill="#0000FF" cx="441.145" cy="509.396" r="0.7"/>
<circle fill="#0000FF" cx="442.207" cy="504.51" r="0.7"/>
<circle fill="#0000FF" cx="443.475" cy="499.673" r="0.7"/>
<circle fill="#0000FF" cx="445.018" cy="494.919" r="0.7"/>
<circle fill="#0000FF" cx="447.188" cy="490.436" r="0.7"/>
<circle fill="#0000FF" cx="450.913" cy="487.157" r="0.7"/>
<circle fill="#0000FF" cx="455.589" cy="485.44" r="0.7"/>
<circle fill="#0000FF" cx="460.554" cy="484.915" r="0.7"/>
<text transform="matrix(1 0 0 1 442.0039 456.7637)" font-family="'MyriadPro-Regular'" font-size="12">B&lt;T</text>
<text transform="matrix(1 0 0 1 341.0039 458.7637)" font-family="'MyriadPro-Regular'" font-size="12">T&lt;B</text>
<path fill="none" stroke="#000000" stroke-miterlimit="10" d="M311.167,534.5c5.354-13.348-1.948-29.311,5.5-43.514
	c5.599-10.676,26.048-21.783,37.833-13.153"/>
<path fill="none" stroke="#000000" stroke-miterlimit="10" d="M347.833,482.833c2.614-2.208,5.47-4.196,8.613-5.503
	c-1.049-1.244-2.899-2.626-4.613-3.163"/>
<path fill="none" stroke="#000000" stroke-miterlimit="10" d="M430.5,568.5c0,16.139,1.008,37.422,13.333,49.333
	c10.847,10.481,26.529,4.28,31.334-8.666"/>
<path fill="none" stroke="#000000" stroke-miterlimit="10" d="M463.167,610.5c3.515,0,7.089-0.102,10.565,0.101
	c0.07,3.251-0.348,6.481,1.435,9.232"/>
<path fill="none" stroke="#000000" stroke-miterlimit="10" d="M194.5,553.623c25.36-45.244,25.36-45.244,64.667,73.543"/>
</svg>
