<?xml version="1.0" encoding="iso-8859-1"?>
<!-- Generator: Adobe Illustrator 16.0.0, SVG Export Plug-In . SVG Version: 6.00 Build 0)  -->
<!DOCTYPE svg PUBLIC "-//W3C//DTD SVG 1.1//EN" "http://www.w3.org/Graphics/SVG/1.1/DTD/svg11.dtd">
<svg version="1.1" id="Layer_1" xmlns="http://www.w3.org/2000/svg" xmlns:xlink="http://www.w3.org/1999/xlink" x="0px" y="0px"
	 width="612px" height="792px" viewBox="0 0 612 792" style="enable-background:new 0 0 612 792;" xml:space="preserve">
<path style="fill:#080808;stroke:#000000;" d="M220.589,400.551c0,0,3.61-0.773,8.771,1.548c0,0,9.803,4.643,18.316,5.159
	c0,0,15.479,0.516,19.091-0.258c0,0,2.322,0.258,7.224-4.644c0,0,2.58-1.549,4.901-5.418c0,0,1.29-1.805,2.838-4.127
	s2.372-2.885,3.234-3.459c0,0,1.005-2.154,1.724-4.021c0,0,2.44-4.597,6.463-7.325c0,0,3.734-3.734,5.458-6.032
	c0,0,7.469-11.635,10.916-16.661c0,0,18.097-28.869,22.118-35.188c0,0,15.944-30.162,18.816-35.763c0,0,11.489-20.97,12.352-21.975
	l-0.718,7.325l10.915-1.005c0,0-14.793,31.454-17.091,35.476c0,0-18.635,36.285-23.949,46.77l-38.495,72.817
	c0,0-1.005,2.154-4.309,2.298h-68.51v-25.854"/>
</svg>
