<?xml version="1.0" encoding="iso-8859-1"?>
<!-- Generator: Adobe Illustrator 16.0.0, SVG Export Plug-In . SVG Version: 6.00 Build 0)  -->
<!DOCTYPE svg PUBLIC "-//W3C//DTD SVG 1.1//EN" "http://www.w3.org/Graphics/SVG/1.1/DTD/svg11.dtd">
<svg version="1.1" id="Layer_1" xmlns="http://www.w3.org/2000/svg" xmlns:xlink="http://www.w3.org/1999/xlink" x="0px" y="0px"
	 width="612px" height="792px" viewBox="0 0 612 792" style="enable-background:new 0 0 612 792;" xml:space="preserve">
<path style="stroke:#000000;" d="M215.676,410.732c0,0-18.807-17.215-21.248-22.386c0,0-4.597-8.618-1.149-17.379
	c0,0,7.612-22.981,18.385-37.056c0,0,13.644-23.984,27.863-29.155c0,0,11.635-4.166,16.661,1.292c0,0,1.58,1.005,1.867,4.021
	c0,0,0.144,4.309-4.021,5.314c0,0-5.459,0.718-12.64,8.33c0,0-8.904,8.331-10.484,12.208c0,0-8.474,14.219-8.474,20.682
	c0,0-1.723,18.527,5.027,25.421c0,0,9.05,10.916,10.772,12.208l-28.008-3.591L215.676,410.732z"/>
</svg>
