<?xml version="1.0" encoding="iso-8859-1"?>
<!-- Generator: Adobe Illustrator 16.0.0, SVG Export Plug-In . SVG Version: 6.00 Build 0)  -->
<!DOCTYPE svg PUBLIC "-//W3C//DTD SVG 1.1//EN" "http://www.w3.org/Graphics/SVG/1.1/DTD/svg11.dtd">
<svg version="1.1" id="Layer_1" xmlns="http://www.w3.org/2000/svg" xmlns:xlink="http://www.w3.org/1999/xlink" x="0px" y="0px"
	 width="612px" height="792px" viewBox="0 0 612 792" style="enable-background:new 0 0 612 792;" xml:space="preserve">
<path style="fill:#1F1F20;stroke:#000000;" d="M260.935,423.633c0,0,1.813-13.896,17.039-37.945c0,0,13.776-21.631,24.29-25.74
	c0,0,2.658-1.45,3.746-1.692c0,0,8.701-0.726,8.701-8.459c0,0,1.162-3.599-3.308-7.607c-0.052-0.046-0.104-0.093-0.158-0.14
	c-4.655-4.064-15.149-1.035-18.4,0.517c0,0-7.906,2.809-15.739,13.154c0,0-17.734,26.011-22.315,38.574
	c0,0-9.089,20.617-9.015,28.967l8.941-14.04L260.935,423.633z"/>
</svg>
