<?xml version="1.0" encoding="iso-8859-1"?>
<!-- Generator: Adobe Illustrator 16.0.0, SVG Export Plug-In . SVG Version: 6.00 Build 0)  -->
<!DOCTYPE svg PUBLIC "-//W3C//DTD SVG 1.1//EN" "http://www.w3.org/Graphics/SVG/1.1/DTD/svg11.dtd">
<svg version="1.1" id="Layer_1" xmlns="http://www.w3.org/2000/svg" xmlns:xlink="http://www.w3.org/1999/xlink" x="0px" y="0px"
	 width="612px" height="792px" viewBox="0 0 612 792" style="enable-background:new 0 0 612 792;" xml:space="preserve">
<path style="fill:#363639;stroke:#000000;" d="M231.507,411.303c0,0,46.286-50.636,48.461-82.943c0,0,0.764-20.977,0.673-29.228
	c0,0,0-0.966,2.151-3.415c0.046-0.053,0.093-0.106,0.141-0.16c2.292-2.567,3.485-7.518,1.468-9.901c0,0-3.483-4.401-11.46-1.834
	c0,0-9.169,3.484-9.169,15.494c0,0,0.368,23.012-2.107,30.255c0,0-1.554,6.511-3.664,10.82c0,0-13.754,25.854-16.963,30.805
	c0,0-9.719,16.685-22.462,30.163l9.627-3.942L231.507,411.303z"/>
</svg>
