<?xml version="1.0" encoding="iso-8859-1"?>
<!-- Generator: Adobe Illustrator 16.0.0, SVG Export Plug-In . SVG Version: 6.00 Build 0)  -->
<!DOCTYPE svg PUBLIC "-//W3C//DTD SVG 1.1//EN" "http://www.w3.org/Graphics/SVG/1.1/DTD/svg11.dtd">
<svg version="1.1" id="Layer_1" xmlns="http://www.w3.org/2000/svg" xmlns:xlink="http://www.w3.org/1999/xlink" x="0px" y="0px"
	 width="612px" height="792px" viewBox="0 0 612 792" style="enable-background:new 0 0 612 792;" xml:space="preserve">
<path style="fill:#363639;stroke:#000000;" d="M239.26,467.316h35.218c0,0,1.021,1.26,3.344-3.126c0,0,5.676-1.806,10.062,1.032
	c0,0,13.672,10.062,19.348,9.287c0,0,10.062-1.032,6.708-5.934c0,0-7.482-7.48-11.352-9.545c0,0-14.446-11.61-12.641-15.737
	c0,0,11.867-21.927,19.864-33.021c0,0,19.09-33.796,20.122-40.245l-8.513,5.934l-1.806-11.867c0,0-21.929,37.922-33.021,53.401
	c0,0-16.511,23.992-20.896,25.282c0,0-18.058,3.612-26.571,2.838L239.26,467.316z"/>
</svg>
