<?xml version="1.0" encoding="iso-8859-1"?>
<!-- Generator: Adobe Illustrator 16.0.0, SVG Export Plug-In . SVG Version: 6.00 Build 0)  -->
<!DOCTYPE svg PUBLIC "-//W3C//DTD SVG 1.1//EN" "http://www.w3.org/Graphics/SVG/1.1/DTD/svg11.dtd">
<svg version="1.1" id="Layer_1" xmlns="http://www.w3.org/2000/svg" xmlns:xlink="http://www.w3.org/1999/xlink" x="0px" y="0px"
	 width="612px" height="792px" viewBox="0 0 612 792" style="enable-background:new 0 0 612 792;" xml:space="preserve">
<path style="fill:#363639;stroke:#000000;" d="M288.149,456.739c0,0-18.963-42.358-19.672-51.751c0,0-1.95-10.279,0.886-21.089
	l2.659-8.33c0,0,1.949-13.292,9.393-15.418c0,0,9.039-4.077,12.406,1.772c0,0,3.899,5.494,3.722,8.684c0,0-1.063,2.835-6.734,7.975
	c0,0-4.077,4.431-7.09,10.634c0,0-8.684,14.71-0.886,31.369c0,0,12.76,27.47,14.887,34.204l-8.684-7.088L288.149,456.739z"/>
</svg>
