<?xml version="1.0" encoding="iso-8859-1"?>
<!-- Generator: Adobe Illustrator 16.0.0, SVG Export Plug-In . SVG Version: 6.00 Build 0)  -->
<!DOCTYPE svg PUBLIC "-//W3C//DTD SVG 1.1//EN" "http://www.w3.org/Graphics/SVG/1.1/DTD/svg11.dtd">
<svg version="1.1" id="Layer_1" xmlns="http://www.w3.org/2000/svg" xmlns:xlink="http://www.w3.org/1999/xlink" x="0px" y="0px"
	 width="612px" height="792px" viewBox="0 0 612 792" style="enable-background:new 0 0 612 792;" xml:space="preserve">
<path style="fill:#363639;stroke:#000000;" d="M299.945,399.476c0,0,8.158,0.365,11.826,0.916c0,0,5.959,2.201,10.727-0.366
	c0,0,2.658-0.276,6.968,1.833c0,0,4.585,2.293,7.793,4.127c0,0,21.27,9.442,25.028,5.317c0,0,3.667-2.934,3.025-5.867
	c0,0,0.184-3.026-3.942-4.859l-15.494-7.15c0,0-18.244-7.611-7.609-26.772c0,0,2.018-5.226,9.719-15.035
	c0,0,12.284-16.688,16.868-23.93l-12.651,6.51l-3.209-16.136c0,0-6.417,11.002-16.777,28.421c0,0-11.094,19.804-18.153,26.954
	c0,0-4.217,5.592-14.302,5.684v20.446"/>
</svg>
