<?xml version="1.0" encoding="iso-8859-1"?>
<!-- Generator: Adobe Illustrator 16.0.0, SVG Export Plug-In . SVG Version: 6.00 Build 0)  -->
<!DOCTYPE svg PUBLIC "-//W3C//DTD SVG 1.1//EN" "http://www.w3.org/Graphics/SVG/1.1/DTD/svg11.dtd">
<svg version="1.1" id="Layer_1" xmlns="http://www.w3.org/2000/svg" xmlns:xlink="http://www.w3.org/1999/xlink" x="0px" y="0px"
	 width="612px" height="792px" viewBox="0 0 612 792" style="enable-background:new 0 0 612 792;" xml:space="preserve">
<path style="fill:#363639;stroke:#000000;" d="M171.159,483.477c0,0,57.785-69.203,60.554-97.231c0,0,1.385-6.138,4.769-9.16
	c0,0,8.581-6.164,5.076-18.973c0,0-1.813-6.042-7.372-5.8c0,0-4.471-0.726-4.713,6.284c0,0-0.726,9.668-6.284,16.314
	c0,0-2.9,1.813-3.384,11.601c0,0-2.417,15.104-31.42,52.93c0,0-20.062,28.883-29.487,37.101l6.646-2.055L171.159,483.477z"/>
</svg>
