<?xml version="1.0" encoding="iso-8859-1"?>
<!-- Generator: Adobe Illustrator 16.0.0, SVG Export Plug-In . SVG Version: 6.00 Build 0)  -->
<!DOCTYPE svg PUBLIC "-//W3C//DTD SVG 1.1//EN" "http://www.w3.org/Graphics/SVG/1.1/DTD/svg11.dtd">
<svg version="1.1" id="Layer_1" xmlns="http://www.w3.org/2000/svg" xmlns:xlink="http://www.w3.org/1999/xlink" x="0px" y="0px"
	 width="612px" height="792px" viewBox="0 0 612 792" style="enable-background:new 0 0 612 792;" xml:space="preserve">
<path style="fill:#363639;stroke:#000000;" d="M264.524,468.234c0,0-12.126-29.531-13.993-57.396c0,0,0.701-6.831,0.719-14.793
	c0.001-0.431,5.172-36.912,6.896-43.519c0,0,8.904-20.395,12.208-21.256c0,0,11.921-4.883,15.655-1.58c0,0,3.734,2.585-2.154,8.905
	c0,0-13.932,17.523-14.649,33.609c0,0-2.299,28.294,2.441,44.956c0,0,12.928,42.369,10.343,50.844l-12.782-14.363L264.524,468.234z"
	/>
</svg>
