<?xml version="1.0" encoding="iso-8859-1"?>
<!-- Generator: Adobe Illustrator 16.0.0, SVG Export Plug-In . SVG Version: 6.00 Build 0)  -->
<!DOCTYPE svg PUBLIC "-//W3C//DTD SVG 1.1//EN" "http://www.w3.org/Graphics/SVG/1.1/DTD/svg11.dtd">
<svg version="1.1" id="Layer_1" xmlns="http://www.w3.org/2000/svg" xmlns:xlink="http://www.w3.org/1999/xlink" x="0px" y="0px"
	 width="612px" height="792px" viewBox="0 0 612 792" style="enable-background:new 0 0 612 792;" xml:space="preserve">
<path style="fill:#0F0F0F;stroke:#000000;" d="M262.887,441.617c0,0-3.878-18.959,3.159-38.922c0,0,9.479-27.146,14.649-33.753
	c0,0,12.354-19.246,23.844-17.81c0,0,7.469,1.005,10.054,6.75c0,0,7.182,16.086-3.591,17.81c0,0-10.341,1.868-12.064,23.124
	c0,0-2.01,8.475-0.287,25.135c0,0,0.286,8.187-0.288,13.932c0,0,4.884,10.054,5.027,12.783l-24.99-25.856l-16.395,17.175"/>
</svg>
