<?xml version="1.0" encoding="iso-8859-1"?>
<!-- Generator: Adobe Illustrator 16.0.0, SVG Export Plug-In . SVG Version: 6.00 Build 0)  -->
<!DOCTYPE svg PUBLIC "-//W3C//DTD SVG 1.1//EN" "http://www.w3.org/Graphics/SVG/1.1/DTD/svg11.dtd">
<svg version="1.1" id="Layer_1" xmlns="http://www.w3.org/2000/svg" xmlns:xlink="http://www.w3.org/1999/xlink" x="0px" y="0px"
	 width="612px" height="792px" viewBox="0 0 612 792" style="enable-background:new 0 0 612 792;" xml:space="preserve">
<path style="fill:#363639;stroke:#000000;" d="M333.52,484.107c0,0,11.805-26.094-0.621-63.371c0,0-3.945-7.082-3.417-17.086
	c0.027-0.518-1.434-9.384-2.789-11.992c0,0-7.509-24.407-2.92-41.825c0,0,3.65-8.865,8.031-11.369c0,0,4.38-3.65,6.675-0.313
	c0,0,4.799,4.484,0.313,10.534c0,0-5.32,3.337-3.025,10.222c0,0,5.632,20.965,8.136,31.604c0,0,1.147,6.153,1.252,7.717
	c0,0,2.19,13.769,3.338,15.959s9.072,54.029,0.833,73.638l-6.676-8.554L333.52,484.107z"/>
</svg>
