<?xml version="1.0" encoding="iso-8859-1"?>
<!-- Generator: Adobe Illustrator 16.0.0, SVG Export Plug-In . SVG Version: 6.00 Build 0)  -->
<!DOCTYPE svg PUBLIC "-//W3C//DTD SVG 1.1//EN" "http://www.w3.org/Graphics/SVG/1.1/DTD/svg11.dtd">
<svg version="1.1" id="Layer_1" xmlns="http://www.w3.org/2000/svg" xmlns:xlink="http://www.w3.org/1999/xlink" x="0px" y="0px"
	 width="612px" height="792px" viewBox="0 0 612 792" style="enable-background:new 0 0 612 792;" xml:space="preserve">
<path style="fill:#1A191A;stroke:#000000;" d="M334.656,528.2c0,0-38.299-68.086-42.554-77.251c0,0-19.967-47.791-21.276-77.578
	c0,0-2.62-34.37,6.219-49.754c0,0,10.627-30.913,34.752-23.434c0.199,0.062,0.399,0.126,0.601,0.193
	c24.55,8.184,19.64,28.151,19.64,30.115c0,0-3.601,15.385-15.385,26.841c0,0-18.657,20.294-6.219,44.189
	c0,0,11.784,25.533,36.988,55.975c0,0,37.643,46.48,42.226,53.027l-41.244-2.618L334.656,528.2z"/>
</svg>
