<?xml version="1.0" encoding="iso-8859-1"?>
<!-- Generator: Adobe Illustrator 16.0.0, SVG Export Plug-In . SVG Version: 6.00 Build 0)  -->
<!DOCTYPE svg PUBLIC "-//W3C//DTD SVG 1.1//EN" "http://www.w3.org/Graphics/SVG/1.1/DTD/svg11.dtd">
<svg version="1.1" id="Layer_1" xmlns="http://www.w3.org/2000/svg" xmlns:xlink="http://www.w3.org/1999/xlink" x="0px" y="0px"
	 width="612px" height="792px" viewBox="0 0 612 792" style="enable-background:new 0 0 612 792;" xml:space="preserve">
<path style="stroke:#000000;" d="M355.309,482.15c0,0-10.429-20.574-22.266-49.886c0,0-5.636-12.118-8.736-20.856
	c0,0-2.537-7.891-6.765-18.601c0,0-7.621-22.126-9.455-27.352c0,0-9.063-27.291-9.076-27.321c0,0-0.551-3.117-1.467-4.95
	c0,0-1.192-8.802,0.825-11.735c0,0,8.252-8.618,7.977-13.293c0,0,0.916-6.602-5.043-10.085c0,0-10.177-1.375-13.568,6.234
	c0,0-7.885,9.076-4.034,33.738c0,0,3.943,22.003,9.536,46.758c5.568,24.646,10.59,44.564,12.897,48.539
	c0.01,0.018,0.02,0.035,0.029,0.053c2.292,3.85,18.427,37.128,33.188,57.664l-0.642-14.576L355.309,482.15z"/>
</svg>
