<?xml version="1.0" encoding="iso-8859-1"?>
<!-- Generator: Adobe Illustrator 16.0.0, SVG Export Plug-In . SVG Version: 6.00 Build 0)  -->
<!DOCTYPE svg PUBLIC "-//W3C//DTD SVG 1.1//EN" "http://www.w3.org/Graphics/SVG/1.1/DTD/svg11.dtd">
<svg version="1.1" id="Layer_1" xmlns="http://www.w3.org/2000/svg" xmlns:xlink="http://www.w3.org/1999/xlink" x="0px" y="0px"
	 width="612px" height="792px" viewBox="0 0 612 792" style="enable-background:new 0 0 612 792;" xml:space="preserve">
<path style="fill:#363639;stroke:#000000;" d="M244.094,454.11c0,0,47.589-56.751,71.827-123.85c0,0,14.837-38.861,11.453-42.486
	c0,0-5.438-11.239-15.71-12.206c0,0-11.118-1.812-6.284,9.668c0,0,1.571,9.426-0.362,14.985c0,0-8.458,21.994-16.313,38.066
	c0,0-11.118,24.17-16.436,31.058c0,0-9.184,13.051-12.084,15.709c0,0-2.657,2.296-4.954,5.68c0,0-24.169,35.408-31.42,45.801
	l11.239-2.054L244.094,454.11z"/>
</svg>
