<?xml version="1.0" encoding="iso-8859-1"?>
<!-- Generator: Adobe Illustrator 16.0.0, SVG Export Plug-In . SVG Version: 6.00 Build 0)  -->
<!DOCTYPE svg PUBLIC "-//W3C//DTD SVG 1.1//EN" "http://www.w3.org/Graphics/SVG/1.1/DTD/svg11.dtd">
<svg version="1.1" id="Layer_1" xmlns="http://www.w3.org/2000/svg" xmlns:xlink="http://www.w3.org/1999/xlink" x="0px" y="0px"
	 width="612px" height="792px" viewBox="0 0 612 792" style="enable-background:new 0 0 612 792;" xml:space="preserve">
<path style="fill:#363639;stroke:#000000;" d="M200.279,569.669c0,0,15.788,1.73,25.729-11.938c0,0,41.006-64.304,48.15-72.07
	c0,0,7.401-11.084,9.883-15.515c0,0,38.636-74.612,39.876-79.043c0,0-10.634,11.521-11.166,11.521s-2.659-14.887-2.659-14.887
	s-33.142,57.774-43.952,73.371c0,0-27.822,41.471-58.837,70.359c0,0-23.217,20.735-57.953,23.217l9.422,3.857l-9.493,11.129
	L200.279,569.669z"/>
</svg>
