<?xml version="1.0" encoding="iso-8859-1"?>
<!-- Generator: Adobe Illustrator 16.0.0, SVG Export Plug-In . SVG Version: 6.00 Build 0)  -->
<!DOCTYPE svg PUBLIC "-//W3C//DTD SVG 1.1//EN" "http://www.w3.org/Graphics/SVG/1.1/DTD/svg11.dtd">
<svg version="1.1" id="Layer_1" xmlns="http://www.w3.org/2000/svg" xmlns:xlink="http://www.w3.org/1999/xlink" x="0px" y="0px"
	 width="612px" height="792px" viewBox="0 0 612 792" style="enable-background:new 0 0 612 792;" xml:space="preserve">
<path style="fill:#363639;stroke:#000000;" d="M242.57,391.226c0,0,20.76-21.107,32.525-39.1c0,0,18.311-28.336,26.393-40.458
	c0,0,17.78-23.975,18.857-36.097c0,0,2.692-10.505-4.85-15.624c0,0-3.771-1.347-5.656-3.233c0,0-7.812-5.927-15.624,10.506
	s0-0.808,0-0.808s-13.2,25.861-16.433,39.061c0,0-21.82,52.529-43.102,72.194l13.47-7.004L242.57,391.226z"/>
</svg>
