<?xml version="1.0" encoding="iso-8859-1"?>
<!-- Generator: Adobe Illustrator 16.0.0, SVG Export Plug-In . SVG Version: 6.00 Build 0)  -->
<!DOCTYPE svg PUBLIC "-//W3C//DTD SVG 1.1//EN" "http://www.w3.org/Graphics/SVG/1.1/DTD/svg11.dtd">
<svg version="1.1" id="Layer_1" xmlns="http://www.w3.org/2000/svg" xmlns:xlink="http://www.w3.org/1999/xlink" x="0px" y="0px"
	 width="612px" height="792px" viewBox="0 0 612 792" style="enable-background:new 0 0 612 792;" xml:space="preserve">
<path style="fill:#363639;stroke:#000000;" d="M296.174,413.734c0,0-4.041-33.673-13.738-63.575c0,0-5.872-13.612,6.295-32.069
	c0.057-0.085,0.113-0.171,0.17-0.256c0,0,8.141-14.344,10.8-15.432c0,0,3.988-2.417,6.768,4.23l5.922,14.864
	c0,0,0.846,5.68-4.351,9.789c0,0-7.977,6.767-4.472,26.103c0,0,8.34,48.339,7.735,55.47l-10.997-12.206L296.174,413.734z"/>
</svg>
