<?xml version="1.0" encoding="iso-8859-1"?>
<!-- Generator: Adobe Illustrator 16.0.0, SVG Export Plug-In . SVG Version: 6.00 Build 0)  -->
<!DOCTYPE svg PUBLIC "-//W3C//DTD SVG 1.1//EN" "http://www.w3.org/Graphics/SVG/1.1/DTD/svg11.dtd">
<svg version="1.1" id="Layer_1" xmlns="http://www.w3.org/2000/svg" xmlns:xlink="http://www.w3.org/1999/xlink" x="0px" y="0px"
	 width="612px" height="792px" viewBox="0 0 612 792" style="enable-background:new 0 0 612 792;" xml:space="preserve">
<path style="fill:#363639;stroke:#000000;" d="M428.122,579.563c0,0-49.361-109.367-59.412-125.329
	c0,0-50.842-74.783-81.878-131.832c0,0-16.552-28.082-21.577-33.106c0,0-17.145-18.917-17.145-32.219c0,0,0.001-5.616,10.051-11.232
	c0,0,13.596-8.572,20.69,0l15.666,19.213c0,0,3.547,4.139,2.66,11.824c0,0,2.955,9.459,8.276,11.232c0,0,5.912,3.843,6.799,9.754
	c0,0,1.182,5.025,5.32,5.32c0,0,7.39,4.139,5.912,10.346c0,0-0.576,1.408,1.728,3.535c0,0,4.607,7.444,10.102,10.811
	c0,0,8.684,5.317,8.507,11.874c0,0,4.785,7.443,7.621,10.811c2.829,3.36,29.471,44.116,39.45,64.544
	c0.023,0.048,0.047,0.096,0.07,0.143c9.925,20.381,57.066,116.085,61.674,127.427c0,0,3.724,6.737,5.142,32.258l-20.026-8.152
	L428.122,579.563z"/>
</svg>
