<?xml version="1.0" encoding="iso-8859-1"?>
<!-- Generator: Adobe Illustrator 16.0.0, SVG Export Plug-In . SVG Version: 6.00 Build 0)  -->
<!DOCTYPE svg PUBLIC "-//W3C//DTD SVG 1.1//EN" "http://www.w3.org/Graphics/SVG/1.1/DTD/svg11.dtd">
<svg version="1.1" id="Layer_1" xmlns="http://www.w3.org/2000/svg" xmlns:xlink="http://www.w3.org/1999/xlink" x="0px" y="0px"
	 width="612px" height="792px" viewBox="0 0 612 792" style="enable-background:new 0 0 612 792;" xml:space="preserve">
<path style="fill:#363639;stroke:#000000;" d="M375.491,454.66c0,0-44.637-36.332-82.007-62.284c0,0-45.674-28.028-38.062-63.322
	c0,0,1.038-26.643,25.951-57.093c0,0,15.225-20.416,30.796-20.416c0,0,24.222,0,16.955,24.222c0,0-6.229,25.952-17.993,10.035
	c0,0-8.65-7.613-19.031,7.612c0,0-11.764,16.955-15.225,26.99c0,0-2.768,14.878,5.19,22.145l22.145,21.107
	c0,0,3.807,4.152,6.921,6.92c0,0,2.076,2.422,4.152,4.844c0,0,11.072,8.997,14.187,13.149c0,0,6.229,6.229,10.381,7.958
	c0,0,49.134,42.214,50.519,46.02l-18.685-3.459L375.491,454.66z"/>
</svg>
