<?xml version="1.0" encoding="iso-8859-1"?>
<!-- Generator: Adobe Illustrator 16.0.0, SVG Export Plug-In . SVG Version: 6.00 Build 0)  -->
<!DOCTYPE svg PUBLIC "-//W3C//DTD SVG 1.1//EN" "http://www.w3.org/Graphics/SVG/1.1/DTD/svg11.dtd">
<svg version="1.1" id="Layer_1" xmlns="http://www.w3.org/2000/svg" xmlns:xlink="http://www.w3.org/1999/xlink" x="0px" y="0px"
	 width="612px" height="792px" viewBox="0 0 612 792" style="enable-background:new 0 0 612 792;" xml:space="preserve">
<path style="fill:#363639;stroke:#000000;" d="M411.812,428.749c-4.619-4.387-12.471-13.163-12.471-13.163
	c-4.619-6.006-9.7-9.008-9.7-9.008c-1.212-1.291-9.611-7.536-13.988-10.762c-1.583-1.167-2.64-1.939-2.64-1.939
	c-3.695-4.157-30.023-19.4-30.023-19.4c-2.541-2.31-31.87-22.171-31.87-22.171c-4.388-2.541-10.622-5.312-10.622-5.312
	c-1.386-1.154-35.335-22.402-35.335-22.402c-5.08-3.002-19.862-16.397-19.862-16.397c-9.469-9.931-10.094-38.669-10.094-38.669
	c-2.155-18.856,6.734-44.448,6.734-44.448c1.616-2.963,4.311-12.122,4.311-12.122c8.89-22.359,16.971-23.436,16.971-23.436
	c7.004-1.885,8.634-3.502,8.634-3.502c5.656-2.424-0.014-13.739-0.014-13.739c-5.657-6.196-11.313-5.926-11.313-5.926
	c-3.502-0.27-14.277,14.008-14.277,14.008c-15.354,23.167-25.193,64.047-25.193,64.047c-10.149,48.792,3.123,75.725,3.123,75.725
	c10.148,14.833,57.77,42.156,57.77,42.156c57.77,30.056,110.074,79.628,110.074,79.628l-0.415-11.163L411.812,428.749z"/>
</svg>
