<?xml version="1.0" encoding="iso-8859-1"?>
<!-- Generator: Adobe Illustrator 16.0.0, SVG Export Plug-In . SVG Version: 6.00 Build 0)  -->
<!DOCTYPE svg PUBLIC "-//W3C//DTD SVG 1.1//EN" "http://www.w3.org/Graphics/SVG/1.1/DTD/svg11.dtd">
<svg version="1.1" id="Layer_1" xmlns="http://www.w3.org/2000/svg" xmlns:xlink="http://www.w3.org/1999/xlink" x="0px" y="0px"
	 width="612px" height="792px" viewBox="0 0 612 792" style="enable-background:new 0 0 612 792;" xml:space="preserve">
<path style="stroke:#000000;" d="M226.483,439.193c0,0,4.729,1.773,48.476-27.195c0,0,27.194-17.735,43.156-35.174
	c0,0,24.829-22.76,41.382-74.487c0,0,1.182-4.434,5.32-13.302c0,0,4.434-2.956,5.616-4.434c0,0,5.32-2.956-5.616-12.119
	c0,0-2.364-3.547-8.867,3.843l-9.163,10.346c0,0-3.252,4.729-3.252,12.414c0,0-1.479,16.85-33.697,60.597
	c0,0-29.854,33.105-95.179,62.368l21.577,4.139L226.483,439.193z"/>
</svg>
