<?xml version="1.0" encoding="iso-8859-1"?>
<!-- Generator: Adobe Illustrator 16.0.0, SVG Export Plug-In . SVG Version: 6.00 Build 0)  -->
<!DOCTYPE svg PUBLIC "-//W3C//DTD SVG 1.1//EN" "http://www.w3.org/Graphics/SVG/1.1/DTD/svg11.dtd">
<svg version="1.1" id="Layer_1" xmlns="http://www.w3.org/2000/svg" xmlns:xlink="http://www.w3.org/1999/xlink" x="0px" y="0px"
	 width="612px" height="792px" viewBox="0 0 612 792" style="enable-background:new 0 0 612 792;" xml:space="preserve">
<path style="fill:#363639;stroke:#000000;" d="M334.532,451.451c0,0,25.188-39.268,51.399-165.813c0,0,5.074-31.287,2.537-35.796
	c0,0-2.538-7.328-11.274-3.1c0,0-18.038,7.892-19.165,12.683c0,0-2.254,5.636,0.282,10.428c0,0,9.582,13.247,5.354,25.366
	c0,0-13.579,38.538-14.118,46.619c0,0-0.27,3.502-2.425,7.812c0,0-2.137,4.682-3.598,9.063c0,0-2.296,6.676-2.504,9.596
	c0,0-1.46,8.761-6.258,15.645c0,0-20.444,46.205-25.659,55.905l11.995-5.945L334.532,451.451z"/>
</svg>
