<?xml version="1.0" encoding="iso-8859-1"?>
<!-- Generator: Adobe Illustrator 16.0.0, SVG Export Plug-In . SVG Version: 6.00 Build 0)  -->
<!DOCTYPE svg PUBLIC "-//W3C//DTD SVG 1.1//EN" "http://www.w3.org/Graphics/SVG/1.1/DTD/svg11.dtd">
<svg version="1.1" id="Layer_1" xmlns="http://www.w3.org/2000/svg" xmlns:xlink="http://www.w3.org/1999/xlink" x="0px" y="0px"
	 width="612px" height="792px" viewBox="0 0 612 792" style="enable-background:new 0 0 612 792;" xml:space="preserve">
<path style="fill:#0F0F0F;stroke:#000000;" d="M192.989,245.945c0,0,42.022,80.366,67.234,128.69c0,0,54.105,104.608,69.938,118.85
	c0.152,0.137,0.301,0.266,0.446,0.386c15.233,12.606,20.686,19.209,32.18,22.005c0,0,22.367,5.903,26.095,0.622
	c0,0,11.979-9.631-4.883-19.882c0,0-21.521-10.251-26.182-25.162c0,0-12.116-37.899-31.376-83.875c0,0-44.42-103.446-71.136-166.816
	l-10.563,23.3L192.989,245.945z"/>
</svg>
