<?xml version="1.0" encoding="iso-8859-1"?>
<!-- Generator: Adobe Illustrator 16.0.0, SVG Export Plug-In . SVG Version: 6.00 Build 0)  -->
<!DOCTYPE svg PUBLIC "-//W3C//DTD SVG 1.1//EN" "http://www.w3.org/Graphics/SVG/1.1/DTD/svg11.dtd">
<svg version="1.1" id="Layer_1" xmlns="http://www.w3.org/2000/svg" xmlns:xlink="http://www.w3.org/1999/xlink" x="0px" y="0px"
	 width="612px" height="792px" viewBox="0 0 612 792" style="enable-background:new 0 0 612 792;" xml:space="preserve">
<path style="fill:#363639;stroke:#000000;" d="M293.75,448.369c0,0-47.838-32.928-48.771-58.401c0,0-0.622-38.521,38.52-82.321
	c0,0,31.065-34.792,41.316-34.481c0,0,8.076-2.795,14.289-6.213c0,0,9.32-4.66,13.048,4.349c0,0,3.416,3.417-3.729,12.737
	c0,0-20.813,23.92-32.307,35.414c0,0-54.053,57.78-44.423,71.759c0,0,6.523,13.047,18.018,16.775c0,0,7.145,3.417,9.319,7.456
	c0,0,5.902,4.348,11.184,5.901l-19.26,10.563L293.75,448.369z"/>
</svg>
