<?xml version="1.0" encoding="iso-8859-1"?>
<!-- Generator: Adobe Illustrator 16.0.0, SVG Export Plug-In . SVG Version: 6.00 Build 0)  -->
<!DOCTYPE svg PUBLIC "-//W3C//DTD SVG 1.1//EN" "http://www.w3.org/Graphics/SVG/1.1/DTD/svg11.dtd">
<svg version="1.1" id="Layer_1" xmlns="http://www.w3.org/2000/svg" xmlns:xlink="http://www.w3.org/1999/xlink" x="0px" y="0px"
	 width="612px" height="792px" viewBox="0 0 612 792" style="enable-background:new 0 0 612 792;" xml:space="preserve">
<path style="stroke:#000000;" d="M255.909,405.018c0,0-25.783-29.821-10.562-79.524c0,0,9.63-24.542,27.647-38.831l3.728-2.174
	c0,0,3.028-0.26,3.383-5.222c0,0-0.177-4.253,0.354-6.026l0.177-6.026c0,0-1.241-1.241-5.849,0.354c0,0-24.456,10.456-35.799,28.533
	c0,0-15.244,21.268-17.902,40.408c0,0-7.088,51.396,12.761,75.499l1.949-12.229L255.909,405.018z"/>
</svg>
