<?xml version="1.0" encoding="iso-8859-1"?>
<!-- Generator: Adobe Illustrator 16.0.0, SVG Export Plug-In . SVG Version: 6.00 Build 0)  -->
<!DOCTYPE svg PUBLIC "-//W3C//DTD SVG 1.1//EN" "http://www.w3.org/Graphics/SVG/1.1/DTD/svg11.dtd">
<svg version="1.1" id="Layer_1" xmlns="http://www.w3.org/2000/svg" xmlns:xlink="http://www.w3.org/1999/xlink" x="0px" y="0px"
	 width="612px" height="792px" viewBox="0 0 612 792" style="enable-background:new 0 0 612 792;" xml:space="preserve">
<path style="fill:#0F0F0F;stroke:#000000;" d="M351,394.339c0,0-0.621-6.765-19.223-12.684c0,0-6.764-1.973-21.42-8.737
	c0,0-13.528-7.328-20.011-10.428s-0.564-0.564-0.564-0.564s-49.604-19.447-64.26-26.211c0,0-12.119-5.637-15.501-7.892l10.71,21.138
	l-16.629,15.783c0,0,25.366,5.074,38.331,14.656l5.425,3.896l28.237,11.46c0,0,5.226,2.292,6.692,2.384
	c0,0,12.102,2.842,15.219,4.309s16.504,4.493,31.355,5.135C329.362,406.583,351,408.683,351,394.339z"/>
</svg>
