<?xml version="1.0" encoding="iso-8859-1"?>
<!-- Generator: Adobe Illustrator 16.0.0, SVG Export Plug-In . SVG Version: 6.00 Build 0)  -->
<!DOCTYPE svg PUBLIC "-//W3C//DTD SVG 1.1//EN" "http://www.w3.org/Graphics/SVG/1.1/DTD/svg11.dtd">
<svg version="1.1" id="Layer_1" xmlns="http://www.w3.org/2000/svg" xmlns:xlink="http://www.w3.org/1999/xlink" x="0px" y="0px"
	 width="612px" height="792px" viewBox="0 0 612 792" style="enable-background:new 0 0 612 792;" xml:space="preserve">
<path style="fill:#363639;stroke:#000000;" d="M198.454,479.951c0,0,66.975-8.314,78.753-21.709c0,0,18.707-17.553,18.707-33.025
	c0,0,0.578-16.922-0.048-20.365c0,0-1.042-19.191,3.546-28.682c0,0,5.215-10.847,7.301-22.112c0,0,1.564-5.945,2.19-8.344
	c0,0,4.798-15.958,3.65-19.817c0,0-1.042-4.485-5.632-3.546c0,0-3.547-0.521-9.805,8.657c0,0-5.318,8.031-6.258,15.124
	c0,0-1.148,4.589-4.59,8.344c0,0-2.398,1.876-5.736,11.055c0,0-6.885,15.646-7.197,28.579c0,0,1.454,31.292-7.933,45.581
	c0,0-14.288,15.957-40.364,21.59c0,0-18.044,3.754-27.327,3.754l5.841,4.381L198.454,479.951z"/>
</svg>
