<?xml version="1.0" encoding="iso-8859-1"?>
<!-- Generator: Adobe Illustrator 16.0.0, SVG Export Plug-In . SVG Version: 6.00 Build 0)  -->
<!DOCTYPE svg PUBLIC "-//W3C//DTD SVG 1.1//EN" "http://www.w3.org/Graphics/SVG/1.1/DTD/svg11.dtd">
<svg version="1.1" id="Layer_1" xmlns="http://www.w3.org/2000/svg" xmlns:xlink="http://www.w3.org/1999/xlink" x="0px" y="0px"
	 width="612px" height="792px" viewBox="0 0 612 792" style="enable-background:new 0 0 612 792;" xml:space="preserve">
<path style="fill:#0F0F0F;stroke:#000000;" d="M233.122,482.601c0,0,17.439,1.479,22.464-2.66c0,0,11.233-9.755,21.874-30.15
	c0,0,28.967-52.318,31.036-55.274l2.069,5.616l8.572-1.773c0,0-33.196,58.6-39.685,72.816c-0.077,0.17-0.15,0.333-0.22,0.489
	c-5.912,13.301-1.478,25.715,1.183,28.08c0,0,3.843,5.913,12.119,6.208c0,0,7.391,2.068,5.616,6.798c0,0-0.417,8.776-15.891,7.159
	c0,0-9.931-0.231-17.552-5.081c0,0-8.545-6.235-10.393-8.545c0,0-2.08-0.925-5.774-0.231l-15.704-0.23v-23.326"/>
</svg>
