<?xml version="1.0" encoding="iso-8859-1"?>
<!-- Generator: Adobe Illustrator 16.0.0, SVG Export Plug-In . SVG Version: 6.00 Build 0)  -->
<!DOCTYPE svg PUBLIC "-//W3C//DTD SVG 1.1//EN" "http://www.w3.org/Graphics/SVG/1.1/DTD/svg11.dtd">
<svg version="1.1" id="Layer_1" xmlns="http://www.w3.org/2000/svg" xmlns:xlink="http://www.w3.org/1999/xlink" x="0px" y="0px"
	 width="612px" height="792px" viewBox="0 0 612 792" style="enable-background:new 0 0 612 792;" xml:space="preserve">
<path style="fill:none;stroke:#000000;" d="M262.381,522.657c0,0,2.291-53.684,4.255-75.287c0,0,2.618-51.063,0-59.247
	c0,0-1.638-20.623-2.946-25.532c0,0-1.213-18.495-3.054-27.471c-0.072-0.351-0.146-0.687-0.22-1.006
	c-1.964-8.511,0.983-25.205-1.309-32.406l-0.969-18.817l1.354-3.19c0,0-0.483-14.698-1.644-17.309c0,0-0.677-8.025-1.74-10.443
	l-0.097-9.283c0,0-0.194-0.87-2.225-0.87c0,0-2.998-0.375-6.136-2.047c-0.05-0.026-0.1-0.053-0.149-0.081
	c-3.19-1.74-6.285-2.127-9.089-2.514c0,0-5.897-0.967-9.669-2.901c0,0-4.544-1.451-6.479-1.644c0,0-4.158-2.321-5.802-3.964
	l-3.48-2.997l-4.255,5.705c0,0-2.418,2.417-2.901,2.514c0,0-4.35-0.967-6.284-2.127c0,0-4.448-1.74-9.283,1.547
	c0,0-8.219,5.318-8.992,8.799s-0.389,31.232-5.899,52.215c0,0-0.192,18.177-1.547,24.946l0,0
	c-1.354,6.769-4.834,19.822-4.931,38.968c0,0-2.32,5.705-2.03,9.959c0,0,0.387,20.691-1.16,22.528c0,0-6.381,4.835-9.669,9.959
	c0,0-4.738,8.22-5.802,9.09c0,0-2.418,3.578,2.32,10.927c0,0,5.994,13.827,11.022,18.759c0,0,1.547,5.803,0.677,11.313
	c0,0-1.741,9.863,1.837,31.618v14.986c0,0,2.419,18.132,2.419,21.853c0,0.29-1.258,4.738,4.641,4.255c0,0,13.731,0.279,18.425,1.667
	c0.082,0.024,0.161,0.049,0.237,0.073c4.448,1.451,6.479,0.677,10.153-0.87s10.055-1.934,11.119-1.16s2.224,0.58,7.059,0.677
	c0,0,23.593,1.645,26.494,2.321c0,0,2.03,0.484,4.738-0.967c0,0,0.291-0.29,3.095,1.063
	C254.467,526.268,260.143,526.976,262.381,522.657z"/>
</svg>
