<?xml version="1.0" encoding="iso-8859-1"?>
<!-- Generator: Adobe Illustrator 16.0.0, SVG Export Plug-In . SVG Version: 6.00 Build 0)  -->
<!DOCTYPE svg PUBLIC "-//W3C//DTD SVG 1.1//EN" "http://www.w3.org/Graphics/SVG/1.1/DTD/svg11.dtd">
<svg version="1.1" id="Layer_1" xmlns="http://www.w3.org/2000/svg" xmlns:xlink="http://www.w3.org/1999/xlink" x="0px" y="0px"
	 width="612px" height="792px" viewBox="0 0 612 792" style="enable-background:new 0 0 612 792;" xml:space="preserve">
<path style="fill:#363639;stroke:#000000;" d="M360.997,433.531c0,0-12.491-8.978-30.446-17.564c0,0-20.297-10.539-39.033-27.324
	c0,0-29.275-24.981-18.736-48.011c0,0,11.913-20.876,13.04-24.541c0,0,3.664-12.119-8.737-7.609c0,0-22.829,5.073-32.13,31.002
	c0,0-5.637,29.594,5.637,47.914c0,0,9.865,22.265,33.821,39.458c0,0,36.076,26.775,49.886,32.412l-10.43-24.238L360.997,433.531z"/>
</svg>
