<?xml version="1.0" encoding="iso-8859-1"?>
<!-- Generator: Adobe Illustrator 16.0.0, SVG Export Plug-In . SVG Version: 6.00 Build 0)  -->
<!DOCTYPE svg PUBLIC "-//W3C//DTD SVG 1.1//EN" "http://www.w3.org/Graphics/SVG/1.1/DTD/svg11.dtd">
<svg version="1.1" id="Layer_1" xmlns="http://www.w3.org/2000/svg" xmlns:xlink="http://www.w3.org/1999/xlink" x="0px" y="0px"
	 width="612px" height="792px" viewBox="0 0 612 792" style="enable-background:new 0 0 612 792;" xml:space="preserve">
<path style="fill:#0F0F0F;stroke:#000000;" d="M250.019,417.849c0,0-27.336-39.446-23.529-64.36c0,0,3.273-9.821,9.185-11.313
	c0.166-0.042,0.334-0.077,0.504-0.105c6.229-1.038,17.993-5.882,15.571-16.263c0,0-2.168-16.157-11.073-23.338
	c0,0-6.032-6.176-17.81-0.287c0,0-10.628,3.734-17.379,18.958c0,0-4.022,5.458-4.597,22.98c0,0-0.43,11.49,0.288,19.246
	c0,0,4.021,23.411,9.335,36.481c0,0,12.208,28.15,15.799,31.31l1.867-11.921L250.019,417.849z"/>
</svg>
