<?xml version="1.0" encoding="iso-8859-1"?>
<!-- Generator: Adobe Illustrator 16.0.0, SVG Export Plug-In . SVG Version: 6.00 Build 0)  -->
<!DOCTYPE svg PUBLIC "-//W3C//DTD SVG 1.1//EN" "http://www.w3.org/Graphics/SVG/1.1/DTD/svg11.dtd">
<svg version="1.1" id="Layer_1" xmlns="http://www.w3.org/2000/svg" xmlns:xlink="http://www.w3.org/1999/xlink" x="0px" y="0px"
	 width="612px" height="792px" viewBox="0 0 612 792" style="enable-background:new 0 0 612 792;" xml:space="preserve">
<path style="fill:#363639;stroke:#000000;" d="M403.304,470.061c0,0-39.412-49.266-52.4-65.389c0,0-28.215-36.278-30.007-53.296
	c0,0-1.897-21.739,4.508-29.111c0,0,17.885-18.852,19.094-27.312c0,0,6.163-25.982-15.105-33.354c0,0-18.127-9.426-29.124,6.163
	c0,0-23.082,23.925-15.59,66.828c0,0,6.337,41.393,15.346,62.517c0,0,37.897,76.107,48.46,90.396l7.456-20.502L403.304,470.061z"/>
</svg>
