<?xml version="1.0" encoding="iso-8859-1"?>
<!-- Generator: Adobe Illustrator 16.0.0, SVG Export Plug-In . SVG Version: 6.00 Build 0)  -->
<!DOCTYPE svg PUBLIC "-//W3C//DTD SVG 1.1//EN" "http://www.w3.org/Graphics/SVG/1.1/DTD/svg11.dtd">
<svg version="1.1" id="Layer_1" xmlns="http://www.w3.org/2000/svg" xmlns:xlink="http://www.w3.org/1999/xlink" x="0px" y="0px"
	 width="612px" height="792px" viewBox="0 0 612 792" style="enable-background:new 0 0 612 792;" xml:space="preserve">
<path style="fill:#363639;stroke:#000000;" d="M215.459,340.77c0,0,28.184-30.157,40.303-46.504c0,0,13.248-19.166,16.911-24.521
	l-9.301,5.355l-1.409-13.811c0,0-4.792,10.147-12.401,18.884c0,0-18.32,22.829-23.675,27.62c0,0-12.965,10.71-23.393,12.119
	l6.2,6.765l-6.764,12.964c0,0,5.072-0.845,7.327-2.536c0,0,1.207-0.495,2.787,1.085s3.447,2.585,3.591,2.872"/>
</svg>
