<?xml version="1.0" encoding="iso-8859-1"?>
<!-- Generator: Adobe Illustrator 16.0.0, SVG Export Plug-In . SVG Version: 6.00 Build 0)  -->
<!DOCTYPE svg PUBLIC "-//W3C//DTD SVG 1.1//EN" "http://www.w3.org/Graphics/SVG/1.1/DTD/svg11.dtd">
<svg version="1.1" id="Layer_1" xmlns="http://www.w3.org/2000/svg" xmlns:xlink="http://www.w3.org/1999/xlink" x="0px" y="0px"
	 width="612px" height="792px" viewBox="0 0 612 792" style="enable-background:new 0 0 612 792;" xml:space="preserve">
<path style="fill:#363639;stroke:#000000;" d="M271.016,427.652c0,0-5.025-45.816,10.641-73.01c0,0,3.843-8.867,19.805-31.627
	l20.396-24.83c0,0,5.453-3.544,11.384,1.149c0.244,0.194,0.489,0.401,0.735,0.624c6.207,5.616,9.458,8.868,7.98,14.188
	c0,0-1.182,5.616-7.094,7.094l-6.523,1.418l-14.019,14.743c0,0-21.995,29.607-26.104,49.426c0,0-3.021,15.468-1.934,42.659
	l-9.426-11.237L271.016,427.652z"/>
</svg>
