<?xml version="1.0" encoding="iso-8859-1"?>
<!-- Generator: Adobe Illustrator 16.0.0, SVG Export Plug-In . SVG Version: 6.00 Build 0)  -->
<!DOCTYPE svg PUBLIC "-//W3C//DTD SVG 1.1//EN" "http://www.w3.org/Graphics/SVG/1.1/DTD/svg11.dtd">
<svg version="1.1" id="Layer_1" xmlns="http://www.w3.org/2000/svg" xmlns:xlink="http://www.w3.org/1999/xlink" x="0px" y="0px"
	 width="612px" height="792px" viewBox="0 0 612 792" style="enable-background:new 0 0 612 792;" xml:space="preserve">
<path style="fill:none;stroke:#000000;" d="M220.731,438.016c0,0,1.773-10.05,1.773-16.258l-1.773-23.352c0,0,0-6.797,1.773-18.621
	c0,0-0.887-7.98-0.887-10.641c0,0,1.773-5.616,0-8.276c0,0-2.365-14.188-2.069-21.578c0,0-0.001-8.277,7.094-7.981
	c0,0,2.956,0.591,5.616-0.295c0,0,3.253,0,5.321,0.591c0,0,4.138,0.887,7.094,0.887c0,0,7.686,2.66,10.346,3.842
	c0,0,15.075,3.843,19.509,4.729c0,0,13.598,3.842,17.735,8.276l26.603,11.528c0,0,7.686,3.842,13.006,9.458
	c0,0,10.937,7.685,12.71,10.05c0,0,2.661-0.295-3.251,14.188c0,0-5.203,12.71-7.331,18.326c0,0-11.883,23.646-16.612,29.264
	c0,0-5.912,6.503-9.163,16.848l-1.773,3.547c0,0-12.118-3.547-15.37-2.955c0,0-9.163-1.183-10.05-2.069
	c0,0-11.823-3.548-15.666-4.729c0,0-13.598-2.66-17.145-5.32c0,0-4.138,0.591-9.754-1.183c0,0-18.623-6.207-18.327-8.276"/>
</svg>
