<?xml version="1.0" encoding="iso-8859-1"?>
<!-- Generator: Adobe Illustrator 16.0.0, SVG Export Plug-In . SVG Version: 6.00 Build 0)  -->
<!DOCTYPE svg PUBLIC "-//W3C//DTD SVG 1.1//EN" "http://www.w3.org/Graphics/SVG/1.1/DTD/svg11.dtd">
<svg version="1.1" id="Layer_1" xmlns="http://www.w3.org/2000/svg" xmlns:xlink="http://www.w3.org/1999/xlink" x="0px" y="0px"
	 width="612px" height="792px" viewBox="0 0 612 792" style="enable-background:new 0 0 612 792;" xml:space="preserve">
<path style="fill:#363639;stroke:#000000;" d="M401.604,505.313c0,0-64.484-37.971-100.818-54.338c0,0-60.23-27.495-73.65-36.006
	c0,0-49.427-29.133-37.315-61.539c0,0,19.967-38.298,30.441-47.463c0,0,25.86-28.805,40.59-36.006c0,0,9.14-4.498,9.965-4.314
	c0,0,17.42,4.768,20.17,17.694c0,0,0.458,3.851-5.776,3.759c0,0-7.609,1.1-16.136,5.776c0,0-26.221,14.394-39.789,31.446
	c0,0-16.502,20.352-17.052,29.795c0,0-2.476,20.995,13.11,31.905c0,0,20.722,14.486,45.475,27.413c0,0,32.088,16.226,37.956,18.886
	c0,0,32.272,16.502,35.022,18.244s36.121,21.82,40.889,26.588c0,0,20.994,16.41,27.137,19.161l-10.359,2.75L401.604,505.313z"/>
</svg>
