<?xml version="1.0" encoding="iso-8859-1"?>
<!-- Generator: Adobe Illustrator 16.0.0, SVG Export Plug-In . SVG Version: 6.00 Build 0)  -->
<!DOCTYPE svg PUBLIC "-//W3C//DTD SVG 1.1//EN" "http://www.w3.org/Graphics/SVG/1.1/DTD/svg11.dtd">
<svg version="1.1" id="Layer_1" xmlns="http://www.w3.org/2000/svg" xmlns:xlink="http://www.w3.org/1999/xlink" x="0px" y="0px"
	 width="612px" height="792px" viewBox="0 0 612 792" style="enable-background:new 0 0 612 792;" xml:space="preserve">
<path style="fill:#363639;stroke:#000000;" d="M264.879,552.526c0,0,79.239-53.927,65.666-123.262c0,0-6.971-37.786-60.164-77.039
	c0,0-14.077-11.547-14.587-19.401c-0.001-0.008-0.001-0.016-0.001-0.023c-0.483-7.855-1.813-21.147,1.934-30.815
	c0,0,6.284-23.927,43.746-25.74l-8.097-3.627l9.547-7.734c0,0-28.037-1.811-41.209,8.34s-24.411,21.632-26.586,41.692
	c0,0-2.416,17.643,4.472,31.782c0,0,7.734,16.919,24.29,29.849c0,0,20.786,14.864,31.179,34.562c0,0,12.446,21.39,12.688,33.717
	c0,0,1.45,17.041-3.384,29.609c0,0-10.756,36.133-52.447,70.332l16.677-7.493L264.879,552.526z"/>
</svg>
