<?xml version="1.0" encoding="iso-8859-1"?>
<!-- Generator: Adobe Illustrator 16.0.0, SVG Export Plug-In . SVG Version: 6.00 Build 0)  -->
<!DOCTYPE svg PUBLIC "-//W3C//DTD SVG 1.1//EN" "http://www.w3.org/Graphics/SVG/1.1/DTD/svg11.dtd">
<svg version="1.1" id="Layer_1" xmlns="http://www.w3.org/2000/svg" xmlns:xlink="http://www.w3.org/1999/xlink" x="0px" y="0px"
	 width="612px" height="792px" viewBox="0 0 612 792" style="enable-background:new 0 0 612 792;" xml:space="preserve">
<path style="fill:#363639;stroke:#000000;" d="M307.574,384.957c0,0,43.802-40.384,12.115-78.593c0,0-2.233-1.104-0.478-5.155
	c0.02-0.046,0.04-0.092,0.061-0.139c1.867-4.165-1.438-5.602-2.442-6.032c0,0-7.898-0.861-9.335,3.591c0,0-3.591,5.746,0.144,12.352
	c0,0,9.479,14.076,10.628,22.549c0,0,4.884,14.219-4.452,25.996c0,0-7.038,9.767-15.368,14.938l12.064-3.878L307.574,384.957z"/>
</svg>
