<?xml version="1.0" encoding="iso-8859-1"?>
<!-- Generator: Adobe Illustrator 16.0.0, SVG Export Plug-In . SVG Version: 6.00 Build 0)  -->
<!DOCTYPE svg PUBLIC "-//W3C//DTD SVG 1.1//EN" "http://www.w3.org/Graphics/SVG/1.1/DTD/svg11.dtd">
<svg version="1.1" id="Layer_1" xmlns="http://www.w3.org/2000/svg" xmlns:xlink="http://www.w3.org/1999/xlink" x="0px" y="0px"
	 width="612px" height="792px" viewBox="0 0 612 792" style="enable-background:new 0 0 612 792;" xml:space="preserve">
<path style="fill:#363639;stroke:#000000;" d="M259.505,458.624c0,0,31.55,1.468,40.721-9.538c0,0,36.23-51.606,39.965-57.639
	l34.759-54.29l1.29,7.037l8.474-2.441c0,0-18.24,32.604-28.007,46.392c0,0-22.979,37.053-33.752,54.865l-17.379,26.286
	c0,0-2.585,2.585-7.899,2.154c0,0-4.164,0.431-5.026-2.011l-5.602-0.287c0,0,0.287,2.011-3.017,2.154s-24.416,0-24.416,0l5.17-8.617
	L259.505,458.624z"/>
</svg>
