<?xml version="1.0" encoding="iso-8859-1"?>
<!-- Generator: Adobe Illustrator 16.0.0, SVG Export Plug-In . SVG Version: 6.00 Build 0)  -->
<!DOCTYPE svg PUBLIC "-//W3C//DTD SVG 1.1//EN" "http://www.w3.org/Graphics/SVG/1.1/DTD/svg11.dtd">
<svg version="1.1" id="Layer_1" xmlns="http://www.w3.org/2000/svg" xmlns:xlink="http://www.w3.org/1999/xlink" x="0px" y="0px"
	 width="612px" height="792px" viewBox="0 0 612 792" style="enable-background:new 0 0 612 792;" xml:space="preserve">
<path style="stroke:#000000;" d="M318.189,378.648c0,0,10.44-31.167,14.605-34.47c0,0,6.751-6.033,9.767-7.612
	c0,0,14.363-8.33,15.655-7.325c0,0,10.771,5.17,14.075-0.431c0,0,3.447-3.591,3.447-14.793c0,0-0.431-12.495-11.49-5.745
	c0,0-4.166,3.59-5.314,4.021c0,0-11.346,0.575-14.649,2.442c0,0-23.556,9.479-29.588,20.969c0,0-12.351,21.113-14.361,42.513
	l7.612-7.612l9.91,7.756"/>
</svg>
