<?xml version="1.0" encoding="iso-8859-1"?>
<!-- Generator: Adobe Illustrator 16.0.0, SVG Export Plug-In . SVG Version: 6.00 Build 0)  -->
<!DOCTYPE svg PUBLIC "-//W3C//DTD SVG 1.1//EN" "http://www.w3.org/Graphics/SVG/1.1/DTD/svg11.dtd">
<svg version="1.1" id="Layer_1" xmlns="http://www.w3.org/2000/svg" xmlns:xlink="http://www.w3.org/1999/xlink" x="0px" y="0px"
	 width="612px" height="792px" viewBox="0 0 612 792" style="enable-background:new 0 0 612 792;" xml:space="preserve">
<path style="fill:#363639;stroke:#000000;" d="M275.413,467.121c0,0,5.16-29.41,1.032-62.947c0,0-0.259-17.025,5.417-11.092
	c0,0,9.545,10.834,4.128,22.444l-1.19,2.666c0,0-0.549,0.918,0.459,2.293c0,0,1.282,2.383,0.183,3.3c0,0-0.824,1.009,0.367,1.65
	c0,0,1.192,1.468-0.642,3.117c0,0-1.925,2.017,0.092,3.942c0,0,1.191,1.742-0.459,4.033c0,0-1.099,1.467,0.459,2.842
	c0,0,1.834,2.659-0.184,4.951c0,0-1.1,2.109,0.184,3.576c0,0,1.466,2.384-0.643,5.134c0,0-2.291,3.301-0.274,4.95
	c0,0,1.284,1.375-0.733,4.4c0,0-1.009,2.201-0.825,4.401l-4.126-3.392L275.413,467.121z"/>
</svg>
