<?xml version="1.0" encoding="iso-8859-1"?>
<!-- Generator: Adobe Illustrator 16.0.0, SVG Export Plug-In . SVG Version: 6.00 Build 0)  -->
<!DOCTYPE svg PUBLIC "-//W3C//DTD SVG 1.1//EN" "http://www.w3.org/Graphics/SVG/1.1/DTD/svg11.dtd">
<svg version="1.1" id="Layer_1" xmlns="http://www.w3.org/2000/svg" xmlns:xlink="http://www.w3.org/1999/xlink" x="0px" y="0px"
	 width="612px" height="792px" viewBox="0 0 612 792" style="enable-background:new 0 0 612 792;" xml:space="preserve">
<path style="stroke:#000000;" d="M237.823,394.771c0,0-1.834-13.94,9.538-41.821c0,0,11.03-26.86,14.726-29.4
	c0,0,2.772-1.847,5.313-7.159c0,0,2.426-3.531,5.763-6.347c0,0,10.272-7.911,4.718-16.187c-0.042-0.063-0.085-0.126-0.129-0.189
	c-5.841-8.343-15.123-8.134-19.191-7.091c0,0-15.229,1.564-24.303,25.658s-17.107,49.856-18.358,60.808
	c0,0-1.877,18.67-1.877,20.861l8.345-20.756L237.823,394.771z"/>
</svg>
