<?xml version="1.0" encoding="iso-8859-1"?>
<!-- Generator: Adobe Illustrator 16.0.0, SVG Export Plug-In . SVG Version: 6.00 Build 0)  -->
<!DOCTYPE svg PUBLIC "-//W3C//DTD SVG 1.1//EN" "http://www.w3.org/Graphics/SVG/1.1/DTD/svg11.dtd">
<svg version="1.1" id="Layer_1" xmlns="http://www.w3.org/2000/svg" xmlns:xlink="http://www.w3.org/1999/xlink" x="0px" y="0px"
	 width="612px" height="792px" viewBox="0 0 612 792" style="enable-background:new 0 0 612 792;" xml:space="preserve">
<path style="fill:#363639;stroke:#000000;" d="M248.763,500.826c0,0,34.948-39.793,25.26-92.388c0,0-9.462-50.061-8.688-60.896
	c0,0,0.517-3.87,1.548-4.644c0,0,3.87-7.739-1.806-11.093c0,0-6.708-3.096-11.609,8.513c0,0-3.354,17.543,3.354,36.375
	c0,0,7.981,41.97,6.455,55.17c-0.002,0.013-0.004,0.025-0.006,0.038c-1.548,13.156-4.385,40.503-25.281,63.979l11.867-9.029
	L248.763,500.826z"/>
</svg>
