<?xml version="1.0" encoding="iso-8859-1"?>
<!-- Generator: Adobe Illustrator 16.0.0, SVG Export Plug-In . SVG Version: 6.00 Build 0)  -->
<!DOCTYPE svg PUBLIC "-//W3C//DTD SVG 1.1//EN" "http://www.w3.org/Graphics/SVG/1.1/DTD/svg11.dtd">
<svg version="1.1" id="Layer_1" xmlns="http://www.w3.org/2000/svg" xmlns:xlink="http://www.w3.org/1999/xlink" x="0px" y="0px"
	 width="612px" height="792px" viewBox="0 0 612 792" style="enable-background:new 0 0 612 792;" xml:space="preserve">
<path style="stroke:#000000;" d="M293.907,559.075c0,0,0.733-59.063,11.006-89.512c0,0,10.214-32.512,21.202-48.285
	c0,0,11.697-17.9,17.368-20.382c0,0,3.544-1.949,6.025-1.949c0,0,8.152,0.178,9.216-8.329c0,0,2.482-11.165-4.253-20.913
	c0,0-4.253-8.685-17.368-1.418c0,0-9.217,3.899-20.027,17.723c0,0-21.09,26.761-27.47,42.357c0,0-10.632,26.229-14.886,47.319
	c0,0-6.735,48.915-5.672,75.321l9.394-9.57L293.907,559.075z"/>
</svg>
