<?xml version="1.0" encoding="iso-8859-1"?>
<!-- Generator: Adobe Illustrator 16.0.0, SVG Export Plug-In . SVG Version: 6.00 Build 0)  -->
<!DOCTYPE svg PUBLIC "-//W3C//DTD SVG 1.1//EN" "http://www.w3.org/Graphics/SVG/1.1/DTD/svg11.dtd">
<svg version="1.1" id="Layer_1" xmlns="http://www.w3.org/2000/svg" xmlns:xlink="http://www.w3.org/1999/xlink" x="0px" y="0px"
	 width="612px" height="792px" viewBox="0 0 612 792" style="enable-background:new 0 0 612 792;" xml:space="preserve">
<path style="stroke:#000000;" d="M310.892,487.056c0,0,0.008-0.108,0.021-0.313c0.132-2.191,0.811-15.395-1.404-24.254
	c0,0-1.099-1.932,0.649-8.048c0,0,0.498-1.872-2.122-8.862c0,0-1.622-2.121-1.123-8.736c0,0,0-6.74-3.245-12.481
	c0,0-1.104-0.489-4.402-14.224c-0.03-0.125-0.061-0.252-0.091-0.379c-3.37-14.105-7.738-26.337-9.111-32.828
	s-14.729-37.318-17.599-44.308c0,0-3.869-12.855-6.115-18.846c0,0-5.492-10.109,0-13.23c0,0,5.616-5.242,12.356,5.117
	c0,0,9.735,15.727,11.607,18.223s17.599,33.324,20.47,43.185c0,0,8.236,23.715,10.233,34.824c0,0,10.733,50.299,11.357,54.168
	c0,0,1.248,28.082,1.373,28.832l-14.354-14.354L310.892,487.056z"/>
</svg>
