<?xml version="1.0" encoding="iso-8859-1"?>
<!-- Generator: Adobe Illustrator 16.0.0, SVG Export Plug-In . SVG Version: 6.00 Build 0)  -->
<!DOCTYPE svg PUBLIC "-//W3C//DTD SVG 1.1//EN" "http://www.w3.org/Graphics/SVG/1.1/DTD/svg11.dtd">
<svg version="1.1" id="Layer_1" xmlns="http://www.w3.org/2000/svg" xmlns:xlink="http://www.w3.org/1999/xlink" x="0px" y="0px"
	 width="612px" height="792px" viewBox="0 0 612 792" style="enable-background:new 0 0 612 792;" xml:space="preserve">
<path style="stroke:#000000;" d="M274.54,432.104c0,0,11.342-19.849,16.659-29.951c0,0,9.748-19.318,14.71-22.862
	c0,0,3.722-3.544,10.811-3.19c0,0,16.127,3.722,16.659-8.507c0,0-0.178-12.229-10.634-17.369c0,0-23.571-16.482-34.736,3.19
	l-5.14,7.976c0,0-7.798,12.229-11.52,21.267c0,0-0.354,5.495-16.128,28.002l14.532-7.976L274.54,432.104z"/>
</svg>
