<?xml version="1.0" encoding="iso-8859-1"?>
<!-- Generator: Adobe Illustrator 16.0.0, SVG Export Plug-In . SVG Version: 6.00 Build 0)  -->
<!DOCTYPE svg PUBLIC "-//W3C//DTD SVG 1.1//EN" "http://www.w3.org/Graphics/SVG/1.1/DTD/svg11.dtd">
<svg version="1.1" id="Layer_1" xmlns="http://www.w3.org/2000/svg" xmlns:xlink="http://www.w3.org/1999/xlink" x="0px" y="0px"
	 width="612px" height="792px" viewBox="0 0 612 792" style="enable-background:new 0 0 612 792;" xml:space="preserve">
<path style="stroke:#000000;" d="M395.603,442.797c0,0-31.501-64.03-70.49-106.742c0,0-6.911-7.976-21.976-21.799
	c0,0-18.964-16.481-3.19-40.407c0,0,11.595-15.241,12.206-20.737c0.021-0.189,0.028-0.366,0.022-0.531
	c-0.177-4.962,0.887-13.646-20.381,3.19l-12.938,10.633c0,0-14.179,10.103-5.494,34.737c0,0,18.434,33.673,28.89,47.497
	c0,0,63.093,87.726,71.422,104.03l-2.127-20.734L395.603,442.797z"/>
</svg>
