<?xml version="1.0" encoding="iso-8859-1"?>
<!-- Generator: Adobe Illustrator 16.0.0, SVG Export Plug-In . SVG Version: 6.00 Build 0)  -->
<!DOCTYPE svg PUBLIC "-//W3C//DTD SVG 1.1//EN" "http://www.w3.org/Graphics/SVG/1.1/DTD/svg11.dtd">
<svg version="1.1" id="Layer_1" xmlns="http://www.w3.org/2000/svg" xmlns:xlink="http://www.w3.org/1999/xlink" x="0px" y="0px"
	 width="612px" height="792px" viewBox="0 0 612 792" style="enable-background:new 0 0 612 792;" xml:space="preserve">
<path style="fill:#363639;stroke:#000000;" d="M426.696,525.237c0,0-39.607-34.37-75.941-53.683c0,0-59.278-30.148-95.653-45.111
	c0,0-28.378-13.158-21.412-68.365c0,0,1.549-11.352,17.027-33.795c0,0,15.478-20.896,19.605-23.218c0,0,4.644-3.611,10.319,3.096
	l13.415,13.157c0,0,6.965,9.804-6.966,15.737c0,0-31.731,21.154-27.346,47.984c0,0-0.774,12.641,37.923,29.667
	c0,0,108.607,57.787,144.982,93.389l-24.508,0.258L426.696,525.237z"/>
</svg>
