<?xml version="1.0" encoding="iso-8859-1"?>
<!-- Generator: Adobe Illustrator 16.0.0, SVG Export Plug-In . SVG Version: 6.00 Build 0)  -->
<!DOCTYPE svg PUBLIC "-//W3C//DTD SVG 1.1//EN" "http://www.w3.org/Graphics/SVG/1.1/DTD/svg11.dtd">
<svg version="1.1" id="Layer_1" xmlns="http://www.w3.org/2000/svg" xmlns:xlink="http://www.w3.org/1999/xlink" x="0px" y="0px"
	 width="612px" height="792px" viewBox="0 0 612 792" style="enable-background:new 0 0 612 792;" xml:space="preserve">
<path style="fill:#363639;stroke:#000000;" d="M272.758,390.426c0,0-33.564-51.558-52.596-71.973c0,0-68.167-70.934-66.437-121.453
	c0,0,0.692-22.145,14.533-21.799c0,0,13.494-0.692,17.301,3.46c0,0,18.339,17.993,21.107,24.914c0,0,2.769,0,2.769,12.803
	c0,0-1.729,25.26,6.229,37.716c0,0,31.489,49.135,55.711,83.737c0,0,20.069,29.412,25.605,38.063l-23.875-2.768L272.758,390.426z"/>
</svg>
