<?xml version="1.0" encoding="iso-8859-1"?>
<!-- Generator: Adobe Illustrator 16.0.0, SVG Export Plug-In . SVG Version: 6.00 Build 0)  -->
<!DOCTYPE svg PUBLIC "-//W3C//DTD SVG 1.1//EN" "http://www.w3.org/Graphics/SVG/1.1/DTD/svg11.dtd">
<svg version="1.1" id="Layer_1" xmlns="http://www.w3.org/2000/svg" xmlns:xlink="http://www.w3.org/1999/xlink" x="0px" y="0px"
	 width="612px" height="792px" viewBox="0 0 612 792" style="enable-background:new 0 0 612 792;" xml:space="preserve">
<path style="fill:#363639;stroke:#000000;" d="M367.522,444.953c0,0-4.791-4.229-7.609-9.02s-13.811-19.165-14.938-21.42
	c-1.127-2.254-10.992-16.91-12.401-19.446c0,0-10.428-16.628-9.582-31.284c0,0,0.282-9.864,6.482-24.802c0,0,1.409-4.51,3.382-7.328
	c0,0-0.282-1.973,1.973-4.791c0,0,3.382-5.073,4.228-7.892s5.356-7.609,7.047-10.992s13.527-16.347,13.81-20.856
	s1.127-8.737-2.255-11.273s-8.736-8.737-11.837-9.865s-7.046-5.073-15.783,0.282c0,0-17.475,15.502-29.594,36.077
	c0,0-20.855,23.395-12.683,74.126c0,0,2.255,17.755,21.983,45.095c19.729,27.338,21.702,29.312,30.721,44.813l3.664-21.709
	L367.522,444.953z"/>
</svg>
