<?xml version="1.0" encoding="iso-8859-1"?>
<!-- Generator: Adobe Illustrator 16.0.0, SVG Export Plug-In . SVG Version: 6.00 Build 0)  -->
<!DOCTYPE svg PUBLIC "-//W3C//DTD SVG 1.1//EN" "http://www.w3.org/Graphics/SVG/1.1/DTD/svg11.dtd">
<svg version="1.1" id="Layer_1" xmlns="http://www.w3.org/2000/svg" xmlns:xlink="http://www.w3.org/1999/xlink" x="0px" y="0px"
	 width="612px" height="792px" viewBox="0 0 612 792" style="enable-background:new 0 0 612 792;" xml:space="preserve">
<path style="fill:#363639;stroke:#000000;" d="M121.216,312.626c0,0,38.955,48.758,97,72.75c0,0,17.285,3.612,27.346,1.032
	c0,0,19.348-6.45,11.351-20.381c0,0-6.965-8.514-22.186-13.673c0,0-4.129-1.807-6.708-5.934c0,0-2.32-4.386-7.223-4.644
	c0,0-4.127-2.321-9.029-9.545c0,0,0.259-1.29-6.191-3.096c0,0-5.934-2.321-8.771-9.545c0,0-2.323-5.418-7.998-7.481
	c0,0-3.096-3.096-5.159-7.739c0,0-4.128-4.386-7.481-6.191c0,0-3.095-2.323-5.417-7.998c0,0-2.581-4.127-13.932-10.061
	l-4.644,21.412L121.216,312.626z"/>
</svg>
