<?xml version="1.0" encoding="iso-8859-1"?>
<!-- Generator: Adobe Illustrator 16.0.0, SVG Export Plug-In . SVG Version: 6.00 Build 0)  -->
<!DOCTYPE svg PUBLIC "-//W3C//DTD SVG 1.1//EN" "http://www.w3.org/Graphics/SVG/1.1/DTD/svg11.dtd">
<svg version="1.1" id="Layer_1" xmlns="http://www.w3.org/2000/svg" xmlns:xlink="http://www.w3.org/1999/xlink" x="0px" y="0px"
	 width="612px" height="792px" viewBox="0 0 612 792" style="enable-background:new 0 0 612 792;" xml:space="preserve">
<path style="stroke:#000000;" d="M282.806,431.313c0,0-6.81-14.1,7.048-51.282c0,0,10.394-20.092,27.021-35.566
	c0,0,3.694-0.462,5.542,0.924c0,0,2.538,3.002,9.008-2.079c0,0,4.153-1.848,2.54-6.928c0,0-0.692-1.848,0-6.236
	c0,0,1.848-10.393-10.393-11.778c0,0-33.49-3.233-70.903,57.737c0,0-15.705,21.939-16.397,58.66l16.397-22.633L282.806,431.313z"/>
</svg>
