<?xml version="1.0" encoding="iso-8859-1"?>
<!-- Generator: Adobe Illustrator 16.0.0, SVG Export Plug-In . SVG Version: 6.00 Build 0)  -->
<!DOCTYPE svg PUBLIC "-//W3C//DTD SVG 1.1//EN" "http://www.w3.org/Graphics/SVG/1.1/DTD/svg11.dtd">
<svg version="1.1" id="Layer_1" xmlns="http://www.w3.org/2000/svg" xmlns:xlink="http://www.w3.org/1999/xlink" x="0px" y="0px"
	 width="612px" height="792px" viewBox="0 0 612 792" style="enable-background:new 0 0 612 792;" xml:space="preserve">
<path style="fill:#363639;stroke:#000000;" d="M237.803,503.619c0,0,18.325-8.275,30.74-24.238l23.942-33.696
	c0,0,33.992-52.91,36.357-63.551c0,0,9.797-29.998-0.958-37.369c0,0-1.57-2.296-9.426,13.776c0,0-18.739,37.238-28.104,55.373
	c-0.059,0.114-0.117,0.227-0.175,0.339c-9.305,18.006-29.124,49.909-39.758,58.248c0,0-22.912,17.014-22.96,17.039l17.402-4.832
	L237.803,503.619z"/>
</svg>
