<?xml version="1.0" encoding="utf-8"?>
<!-- Generator: Adobe Illustrator 16.0.0, SVG Export Plug-In . SVG Version: 6.00 Build 0)  -->
<!DOCTYPE svg PUBLIC "-//W3C//DTD SVG 1.1//EN" "http://www.w3.org/Graphics/SVG/1.1/DTD/svg11.dtd">
<svg version="1.1" id="Layer_1" xmlns="http://www.w3.org/2000/svg" xmlns:xlink="http://www.w3.org/1999/xlink" x="0px" y="0px"
	 width="612px" height="792px" viewBox="0 0 612 792" enable-background="new 0 0 612 792" xml:space="preserve">
<path fill="#363639" stroke="#000000" d="M411.812,428.749c-4.619-4.387-12.472-13.163-12.472-13.163
	c-4.619-6.006-9.7-9.008-9.7-9.008c-1.212-1.291-9.61-7.536-13.987-10.762c-1.583-1.167-2.641-1.939-2.641-1.939
	c-3.694-4.157-30.022-19.4-30.022-19.4c-2.541-2.31-31.87-22.171-31.87-22.171c-4.388-2.541-10.622-5.312-10.622-5.312
	c-1.386-1.154-35.335-22.402-35.335-22.402c-5.08-3.002-19.862-16.397-19.862-16.397c-9.469-9.931-10.094-38.669-10.094-38.669
	c-2.155-18.856,6.734-44.448,6.734-44.448c1.616-2.963,4.311-12.122,4.311-12.122c8.89-22.359,16.971-23.436,16.971-23.436
	c7.004-1.885,8.634-3.502,8.634-3.502c5.656-2.424-0.014-13.739-0.014-13.739c-5.657-6.196-11.313-5.926-11.313-5.926
	c-3.502-0.27-14.277,14.008-14.277,14.008c-15.354,23.167-25.193,64.047-25.193,64.047c-10.149,48.792,3.123,75.725,3.123,75.725
	c10.148,14.833,57.77,42.156,57.77,42.156c57.77,30.056,110.074,79.628,110.074,79.628l-0.415-11.163L411.812,428.749z"/>
<circle fill="#0000FF" cx="215.324" cy="170.99" r="0.7"/>
<circle fill="#0000FF" cx="216.591" cy="175.816" r="0.7"/>
<circle fill="#0000FF" cx="215.866" cy="180.656" r="0.7"/>
<circle fill="#FF0000" cx="263.049" cy="166.695" r="0.7"/>
<circle fill="#FF0000" cx="258.3" cy="167.267" r="0.7"/>
<circle fill="#FF0000" cx="254.562" cy="170.577" r="0.7"/>
<circle fill="#FF0000" cx="251.192" cy="174.27" r="0.7"/>
<circle fill="#FF0000" cx="248.002" cy="178.12" r="0.7"/>
<circle fill="#FF0000" cx="245.084" cy="182.174" r="0.7"/>
<circle fill="#FF0000" cx="242.538" cy="186.477" r="0.7"/>
<circle fill="#FF0000" cx="240.184" cy="190.887" r="0.7"/>
<circle fill="#FF0000" cx="237.989" cy="195.379" r="0.7"/>
<circle fill="#FF0000" cx="235.929" cy="199.935" r="0.7"/>
<circle fill="#FF0000" cx="233.987" cy="204.542" r="0.7"/>
<circle fill="#FF0000" cx="232.148" cy="209.192" r="0.7"/>
<circle fill="#FF0000" cx="230.401" cy="213.877" r="0.7"/>
<circle fill="#FF0000" cx="228.738" cy="218.592" r="0.7"/>
<circle fill="#FF0000" cx="227.153" cy="223.334" r="0.7"/>
<circle fill="#FF0000" cx="225.641" cy="228.1" r="0.7"/>
<circle fill="#FF0000" cx="224.198" cy="232.887" r="0.7"/>
<circle fill="#FF0000" cx="222.827" cy="237.696" r="0.7"/>
<circle fill="#FF0000" cx="221.534" cy="242.525" r="0.7"/>
<circle fill="#FF0000" cx="220.46" cy="247.407" r="0.7"/>
<circle fill="#FF0000" cx="219.581" cy="252.329" r="0.7"/>
<circle fill="#FF0000" cx="218.831" cy="257.272" r="0.7"/>
<circle fill="#FF0000" cx="218.218" cy="262.234" r="0.7"/>
<circle fill="#FF0000" cx="217.747" cy="267.212" r="0.7"/>
<circle fill="#FF0000" cx="217.425" cy="272.201" r="0.7"/>
<circle fill="#FF0000" cx="217.26" cy="277.198" r="0.7"/>
<circle fill="#FF0000" cx="217.257" cy="282.198" r="0.7"/>
<circle fill="#FF0000" cx="217.427" cy="287.195" r="0.7"/>
<circle fill="#FF0000" cx="217.779" cy="292.182" r="0.7"/>
<circle fill="#FF0000" cx="218.322" cy="297.153" r="0.7"/>
<circle fill="#FF0000" cx="219.07" cy="302.096" r="0.7"/>
<circle fill="#FF0000" cx="220.041" cy="307" r="0.7"/>
<circle fill="#FF0000" cx="221.258" cy="311.849" r="0.7"/>
<circle fill="#FF0000" cx="222.767" cy="316.615" r="0.7"/>
<circle fill="#FF0000" cx="224.891" cy="321.11" r="0.7"/>
<circle fill="#FF0000" cx="228.202" cy="324.852" r="0.7"/>
<circle fill="#FF0000" cx="231.842" cy="328.279" r="0.7"/>
<circle fill="#FF0000" cx="235.657" cy="331.509" r="0.7"/>
<circle fill="#FF0000" cx="239.584" cy="334.604" r="0.7"/>
<circle fill="#FF0000" cx="243.59" cy="337.596" r="0.7"/>
<circle fill="#FF0000" cx="247.655" cy="340.507" r="0.7"/>
<circle fill="#FF0000" cx="251.767" cy="343.352" r="0.7"/>
<circle fill="#FF0000" cx="255.917" cy="346.141" r="0.7"/>
<circle fill="#FF0000" cx="260.1" cy="348.881" r="0.7"/>
<circle fill="#FF0000" cx="264.311" cy="351.576" r="0.7"/>
<circle fill="#FF0000" cx="268.547" cy="354.232" r="0.7"/>
<circle fill="#FF0000" cx="272.807" cy="356.85" r="0.7"/>
<circle fill="#FF0000" cx="277.089" cy="359.43" r="0.7"/>
<circle fill="#FF0000" cx="281.397" cy="361.968" r="0.7"/>
<circle fill="#FF0000" cx="285.806" cy="364.326" r="0.7"/>
<circle fill="#FF0000" cx="290.193" cy="366.724" r="0.7"/>
<circle fill="#FF0000" cx="294.546" cy="369.184" r="0.7"/>
<circle fill="#FF0000" cx="298.867" cy="371.7" r="0.7"/>
<circle fill="#FF0000" cx="303.156" cy="374.271" r="0.7"/>
<circle fill="#FF0000" cx="307.413" cy="376.893" r="0.7"/>
<circle fill="#FF0000" cx="311.641" cy="379.562" r="0.7"/>
<circle fill="#FF0000" cx="315.839" cy="382.278" r="0.7"/>
<circle fill="#FF0000" cx="320.009" cy="385.037" r="0.7"/>
<circle fill="#FF0000" cx="324.15" cy="387.838" r="0.7"/>
<circle fill="#FF0000" cx="328.265" cy="390.679" r="0.7"/>
<circle fill="#FF0000" cx="332.354" cy="393.557" r="0.7"/>
<circle fill="#FF0000" cx="336.416" cy="396.472" r="0.7"/>
<circle fill="#FF0000" cx="340.453" cy="399.422" r="0.7"/>
<circle fill="#FF0000" cx="344.465" cy="402.406" r="0.7"/>
<circle fill="#FF0000" cx="348.452" cy="405.423" r="0.7"/>
<circle fill="#FF0000" cx="352.415" cy="408.472" r="0.7"/>
<circle fill="#FF0000" cx="356.354" cy="411.552" r="0.7"/>
<circle fill="#FF0000" cx="360.268" cy="414.663" r="0.7"/>
<circle fill="#FF0000" cx="364.158" cy="417.803" r="0.7"/>
<circle fill="#FF0000" cx="368.025" cy="420.974" r="0.7"/>
<circle fill="#FF0000" cx="371.867" cy="424.173" r="0.7"/>
<circle fill="#FF0000" cx="375.685" cy="427.403" r="0.7"/>
<circle fill="#FF0000" cx="379.476" cy="430.663" r="0.7"/>
<circle fill="#FF0000" cx="383.238" cy="433.955" r="0.7"/>
<circle fill="#FF0000" cx="386.972" cy="437.281" r="0.7"/>
<circle fill="#FF0000" cx="390.667" cy="440.649" r="0.7"/>
<circle fill="#0000FF" cx="263.049" cy="166.695" r="0.7"/>
<circle fill="#0000FF" cx="267.612" cy="168.69" r="0.7"/>
<circle fill="#0000FF" cx="271.457" cy="171.866" r="0.7"/>
<circle fill="#0000FF" cx="273.472" cy="176.4" r="0.7"/>
<circle fill="#0000FF" cx="274.367" cy="181.302" r="0.7"/>
<circle fill="#0000FF" cx="272.474" cy="185.691" r="0.7"/>
<circle fill="#0000FF" cx="268.049" cy="187.981" r="0.7"/>
<circle fill="#0000FF" cx="263.289" cy="189.502" r="0.7"/>
<circle fill="#0000FF" cx="259.007" cy="191.989" r="0.7"/>
<circle fill="#0000FF" cx="255.594" cy="195.633" r="0.7"/>
<circle fill="#0000FF" cx="252.735" cy="199.731" r="0.7"/>
<circle fill="#0000FF" cx="250.269" cy="204.079" r="0.7"/>
<circle fill="#0000FF" cx="248.097" cy="208.583" r="0.7"/>
<circle fill="#0000FF" cx="246.18" cy="213.198" r="0.7"/>
<circle fill="#0000FF" cx="244.682" cy="217.969" r="0.7"/>
<circle fill="#0000FF" cx="243.01" cy="222.68" r="0.7"/>
<circle fill="#0000FF" cx="241.207" cy="227.335" r="0.7"/>
<circle fill="#0000FF" cx="239.794" cy="232.131" r="0.7"/>
<circle fill="#0000FF" cx="238.53" cy="236.968" r="0.7"/>
<circle fill="#0000FF" cx="237.416" cy="241.842" r="0.7"/>
<circle fill="#0000FF" cx="236.464" cy="246.75" r="0.7"/>
<circle fill="#0000FF" cx="235.7" cy="251.691" r="0.7"/>
<circle fill="#0000FF" cx="235.158" cy="256.661" r="0.7"/>
<circle fill="#0000FF" cx="234.888" cy="261.653" r="0.7"/>
<circle fill="#0000FF" cx="234.964" cy="266.651" r="0.7"/>
<circle fill="#0000FF" cx="235.294" cy="271.639" r="0.7"/>
<circle fill="#0000FF" cx="235.653" cy="276.626" r="0.7"/>
<circle fill="#0000FF" cx="236.195" cy="281.596" r="0.7"/>
<circle fill="#0000FF" cx="236.936" cy="286.54" r="0.7"/>
<circle fill="#0000FF" cx="237.911" cy="291.444" r="0.7"/>
<circle fill="#0000FF" cx="239.187" cy="296.277" r="0.7"/>
<circle fill="#0000FF" cx="240.872" cy="300.982" r="0.7"/>
<circle fill="#0000FF" cx="243.16" cy="305.422" r="0.7"/>
<circle fill="#0000FF" cx="246.409" cy="309.192" r="0.7"/>
<circle fill="#0000FF" cx="250.151" cy="312.509" r="0.7"/>
<circle fill="#0000FF" cx="253.929" cy="315.784" r="0.7"/>
<circle fill="#0000FF" cx="257.753" cy="319.005" r="0.7"/>
<circle fill="#0000FF" cx="261.657" cy="322.128" r="0.7"/>
<circle fill="#0000FF" cx="265.767" cy="324.97" r="0.7"/>
<circle fill="#0000FF" cx="270.004" cy="327.626" r="0.7"/>
<circle fill="#0000FF" cx="274.239" cy="330.283" r="0.7"/>
<circle fill="#0000FF" cx="278.472" cy="332.944" r="0.7"/>
<circle fill="#0000FF" cx="282.704" cy="335.608" r="0.7"/>
<circle fill="#0000FF" cx="286.932" cy="338.276" r="0.7"/>
<circle fill="#0000FF" cx="291.157" cy="340.95" r="0.7"/>
<circle fill="#0000FF" cx="295.375" cy="343.635" r="0.7"/>
<circle fill="#0000FF" cx="299.573" cy="346.351" r="0.7"/>
<circle fill="#0000FF" cx="304.011" cy="348.624" r="0.7"/>
<circle fill="#0000FF" cx="308.484" cy="350.858" r="0.7"/>
<circle fill="#0000FF" cx="312.769" cy="353.424" r="0.7"/>
<circle fill="#0000FF" cx="316.903" cy="356.236" r="0.7"/>
<circle fill="#0000FF" cx="321.034" cy="359.053" r="0.7"/>
<circle fill="#0000FF" cx="325.159" cy="361.878" r="0.7"/>
<circle fill="#0000FF" cx="329.279" cy="364.712" r="0.7"/>
<circle fill="#0000FF" cx="333.391" cy="367.558" r="0.7"/>
<circle fill="#0000FF" cx="337.486" cy="370.425" r="0.7"/>
<circle fill="#0000FF" cx="341.546" cy="373.344" r="0.7"/>
<circle fill="#0000FF" cx="345.721" cy="376.074" r="0.7"/>
<circle fill="#0000FF" cx="350.021" cy="378.624" r="0.7"/>
<circle fill="#0000FF" cx="354.305" cy="381.205" r="0.7"/>
<circle fill="#0000FF" cx="358.564" cy="383.823" r="0.7"/>
<circle fill="#0000FF" cx="362.794" cy="386.489" r="0.7"/>
<circle fill="#0000FF" cx="366.974" cy="389.234" r="0.7"/>
<circle fill="#0000FF" cx="371.041" cy="392.14" r="0.7"/>
<circle fill="#0000FF" cx="374.923" cy="395.278" r="0.7"/>
<circle fill="#0000FF" cx="378.943" cy="398.251" r="0.7"/>
<circle fill="#0000FF" cx="382.944" cy="401.249" r="0.7"/>
<circle fill="#0000FF" cx="386.911" cy="404.293" r="0.7"/>
<circle fill="#0000FF" cx="390.84" cy="407.372" r="0.7"/>
<circle fill="#0000FF" cx="394.715" cy="410.527" r="0.7"/>
<circle fill="#0000FF" cx="398.17" cy="414.136" r="0.7"/>
<circle fill="#0000FF" cx="401.445" cy="417.911" r="0.7"/>
<circle fill="#0000FF" cx="404.835" cy="421.587" r="0.7"/>
<circle fill="#0000FF" cx="408.275" cy="425.215" r="0.7"/>
<circle fill="#0000FF" cx="411.812" cy="428.749" r="0.7"/>
<circle fill="#0000FF" cx="408.499" cy="429.078" r="0.7"/>
<circle fill="#0000FF" cx="403.523" cy="429.572" r="0.7"/>
<circle fill="#0000FF" cx="398.548" cy="430.065" r="0.7"/>
<circle fill="#0000FF" cx="393.572" cy="430.56" r="0.7"/>
<circle fill="#0000FF" cx="391.725" cy="433.782" r="0.7"/>
<circle fill="#0000FF" cx="391.91" cy="438.778" r="0.7"/>
<circle fill="#0000FF" cx="390.667" cy="440.649" r="0.7"/>
</svg>
