<?xml version="1.0" encoding="iso-8859-1"?>
<!-- Generator: Adobe Illustrator 16.0.0, SVG Export Plug-In . SVG Version: 6.00 Build 0)  -->
<!DOCTYPE svg PUBLIC "-//W3C//DTD SVG 1.1//EN" "http://www.w3.org/Graphics/SVG/1.1/DTD/svg11.dtd">
<svg version="1.1" id="Layer_1" xmlns="http://www.w3.org/2000/svg" xmlns:xlink="http://www.w3.org/1999/xlink" x="0px" y="0px"
	 width="612px" height="792px" viewBox="0 0 612 792" style="enable-background:new 0 0 612 792;" xml:space="preserve">
<path style="fill:#363639;stroke:#000000;" d="M260.954,398.954c0,0,8.344-25.449-12.934-60.912c0,0-14.854-26.549-13.968-41.082
	c0,0-0.532-5.849,3.722-10.102c0,0,2.481-2.481,4.431-2.481c0,0,3.19-0.886,6.558,4.253l9.216,15.241c0,0,1.112,2.067-1.181,4.847
	c-0.128,0.155-0.266,0.312-0.415,0.47c-2.835,3.013-3.367,1.772-1.24,6.557c0,0,19.784,36.332,21.856,49.978
	s3.136,19.141-1.649,35.268l-7.621-6.734L260.954,398.954z"/>
</svg>
