<?xml version="1.0" encoding="iso-8859-1"?>
<!-- Generator: Adobe Illustrator 16.0.0, SVG Export Plug-In . SVG Version: 6.00 Build 0)  -->
<!DOCTYPE svg PUBLIC "-//W3C//DTD SVG 1.1//EN" "http://www.w3.org/Graphics/SVG/1.1/DTD/svg11.dtd">
<svg version="1.1" id="Layer_1" xmlns="http://www.w3.org/2000/svg" xmlns:xlink="http://www.w3.org/1999/xlink" x="0px" y="0px"
	 width="612px" height="792px" viewBox="0 0 612 792" style="enable-background:new 0 0 612 792;" xml:space="preserve">
<path style="fill:#363639;stroke:#000000;" d="M225.945,389.052c0,0,26.13-8.62,51.99-26.938c0,0,21.819-14.546,34.75-28.016
	c0,0,14.278-16.163,18.588-23.167c0,0,3.907-5.567,4.429-9.01c0,0,2.294-1.773,0.417-3.651c0,0-0.834-1.356,2.19-3.546
	c0,0,1.565-0.104,2.295-5.423c0,0,1.773-5.946,5.319-9.909c0,0,6.363-4.067,2.816-10.326c0,0-5.528-5.528-10.326-5.528
	c0,0-4.173-1.042-6.676-2.503c0,0-6.883-3.338-8.239,1.251c0,0,0,5.737,3.546,8.449c0,0,1.565,0-0.313,10.117
	c0,0-4.382,16.481-18.671,33.898c0,0-15.232,15.853-45.061,34.21c0,0-31.08,16.583-43.805,20.963l18.983-1.147l-11.995,20.026"/>
</svg>
