<?xml version="1.0" encoding="iso-8859-1"?>
<!-- Generator: Adobe Illustrator 16.0.0, SVG Export Plug-In . SVG Version: 6.00 Build 0)  -->
<!DOCTYPE svg PUBLIC "-//W3C//DTD SVG 1.1//EN" "http://www.w3.org/Graphics/SVG/1.1/DTD/svg11.dtd">
<svg version="1.1" id="Layer_1" xmlns="http://www.w3.org/2000/svg" xmlns:xlink="http://www.w3.org/1999/xlink" x="0px" y="0px"
	 width="612px" height="792px" viewBox="0 0 612 792" style="enable-background:new 0 0 612 792;" xml:space="preserve">
<path style="stroke:#000000;" d="M289.403,541.883c0,0-21.453-86.506-19.031-166.09c0,0,1.711-22.424,1.356-24.02
	c0,0,1.063-13.115,12.583-21.976c0,0,15.773-11.165,7.621-21.09c0,0-7.976-12.406-23.571-0.354c0,0-3.189,2.304-5.671,8.152
	c0,0-13.646,33.141-14.71,58.839c0,0-2.833,35.5-0.764,64.764c0,0,11.529,86.608,18.327,104.343l5.615-13.006L289.403,541.883z"/>
</svg>
