<?xml version="1.0" encoding="iso-8859-1"?>
<!-- Generator: Adobe Illustrator 16.0.0, SVG Export Plug-In . SVG Version: 6.00 Build 0)  -->
<!DOCTYPE svg PUBLIC "-//W3C//DTD SVG 1.1//EN" "http://www.w3.org/Graphics/SVG/1.1/DTD/svg11.dtd">
<svg version="1.1" id="Layer_1" xmlns="http://www.w3.org/2000/svg" xmlns:xlink="http://www.w3.org/1999/xlink" x="0px" y="0px"
	 width="612px" height="792px" viewBox="0 0 612 792" style="enable-background:new 0 0 612 792;" xml:space="preserve">
<path style="fill:#1F1F20;stroke:#000000;" d="M318.955,431.587c0,0,17.176-27.714-1.561-72.993c0,0-14.834-34.349-12.882-48.792
	c0,0,2.272-15.994,13.615-31.235c0,0,5.494-8.684,9.925,1.063c0,0,6.38,13.115,5.494,16.836c0,0-4.075,7.266-5.316,9.039
	c0,0-6.203,9.394-0.532,24.28c0,0,18.254,43.774,16.481,66.459l-0.177,14.887c0,0-2.836,17.9-4.963,21.268l-7.798-14.179
	L318.955,431.587z"/>
</svg>
