<?xml version="1.0" encoding="iso-8859-1"?>
<!-- Generator: Adobe Illustrator 16.0.0, SVG Export Plug-In . SVG Version: 6.00 Build 0)  -->
<!DOCTYPE svg PUBLIC "-//W3C//DTD SVG 1.1//EN" "http://www.w3.org/Graphics/SVG/1.1/DTD/svg11.dtd">
<svg version="1.1" id="Layer_1" xmlns="http://www.w3.org/2000/svg" xmlns:xlink="http://www.w3.org/1999/xlink" x="0px" y="0px"
	 width="612px" height="792px" viewBox="0 0 612 792" style="enable-background:new 0 0 612 792;" xml:space="preserve">
<path style="fill:#363639;stroke:#000000;" d="M388.574,544.966c0,0-45.328-45.675-98.27-94.118c0,0-37.024-32.871-51.558-46.713
	c0,0-24.567-23.183-21.107-40.484c0,0-0.691-11.419,13.495-21.454c0,0,11.073-7.958,16.609-8.304h23.529c0,0,7.957,0,8.304,6.574
	c0,0-0.346,12.111-5.882,14.187c0,0-5.191,4.152-10.035-1.038c0,0-6.229-3.806-8.65,3.806c0,0-10.035,22.146,5.19,36.678
	c0,0,29.759,28.72,50.52,43.599c0,0,80.623,60.207,98.962,88.235l-22.838,2.423L388.574,544.966z"/>
</svg>
