<?xml version="1.0" encoding="iso-8859-1"?>
<!-- Generator: Adobe Illustrator 16.0.0, SVG Export Plug-In . SVG Version: 6.00 Build 0)  -->
<!DOCTYPE svg PUBLIC "-//W3C//DTD SVG 1.1//EN" "http://www.w3.org/Graphics/SVG/1.1/DTD/svg11.dtd">
<svg version="1.1" id="Layer_1" xmlns="http://www.w3.org/2000/svg" xmlns:xlink="http://www.w3.org/1999/xlink" x="0px" y="0px"
	 width="612px" height="792px" viewBox="0 0 612 792" style="enable-background:new 0 0 612 792;" xml:space="preserve">
<path style="fill:#363639;stroke:#000000;" d="M283.182,432.802c2.836-22.153-5.849-33.673-5.849-33.673
	c-1.063-1.24-1.063-1.949-1.063-1.949c-3.19-13.469-22.508-38.458-27.115-43.243c-0.112-0.117-0.227-0.237-0.343-0.359
	c-4.649-4.904-12.24-14.351-12.24-14.351c-5.849-7.266,0.886-12.76,0.886-12.76c4.076,0,3.722-3.013,3.722-3.013
	c-0.532-4.785-8.684-5.316-8.684-5.316c-4.076,0.177-9.394,1.417-11.697,7.975c-0.075,0.213-0.14,0.432-0.195,0.656
	c-1.651,6.677,5.107,18.114,8.88,22.915c3.899,4.962-10.809-15.024,17.979,25.027s19.609,57.157,19.609,57.157l6.541-10.053
	L283.182,432.802z"/>
</svg>
