<?xml version="1.0" encoding="iso-8859-1"?>
<!-- Generator: Adobe Illustrator 16.0.0, SVG Export Plug-In . SVG Version: 6.00 Build 0)  -->
<!DOCTYPE svg PUBLIC "-//W3C//DTD SVG 1.1//EN" "http://www.w3.org/Graphics/SVG/1.1/DTD/svg11.dtd">
<svg version="1.1" id="Layer_1" xmlns="http://www.w3.org/2000/svg" xmlns:xlink="http://www.w3.org/1999/xlink" x="0px" y="0px"
	 width="612px" height="792px" viewBox="0 0 612 792" style="enable-background:new 0 0 612 792;" xml:space="preserve">
<path style="fill:#363639;stroke:#000000;" d="M273.323,514.189v-31.997c34.793-7.767,45.043-23.92,50.945-31.997
	c0.105-0.144,0.213-0.289,0.321-0.438c5.987-8.176,17.075-22.86,17.075-22.86c13.047-15.532,18.639-26.095,18.639-26.095
	c8.076-12.425,11.184-29.2,11.184-29.2l4.038,5.902l3.417-5.591c1.242,9.63-7.145,24.23-7.145,24.23
	c-6.213,14.911-12.736,23.919-12.736,23.919c-2.174,4.35-23.92,36.656-23.92,36.656c-4.038,5.592-13.979,25.784-13.979,25.784
	c-1.554,4.97,0.933,11.805,0.933,11.805c1.864,6.213,14.289,14.601,14.289,14.601c5.28,4.349,1.243,7.766,1.243,7.766
	s-0.621,2.174-9.009,0S277.673,511.082,273.323,514.189z"/>
</svg>
