<?xml version="1.0" encoding="iso-8859-1"?>
<!-- Generator: Adobe Illustrator 16.0.0, SVG Export Plug-In . SVG Version: 6.00 Build 0)  -->
<!DOCTYPE svg PUBLIC "-//W3C//DTD SVG 1.1//EN" "http://www.w3.org/Graphics/SVG/1.1/DTD/svg11.dtd">
<svg version="1.1" id="Layer_1" xmlns="http://www.w3.org/2000/svg" xmlns:xlink="http://www.w3.org/1999/xlink" x="0px" y="0px"
	 width="612px" height="792px" viewBox="0 0 612 792" style="enable-background:new 0 0 612 792;" xml:space="preserve">
<path style="stroke:#000000;" d="M292.879,389.417c0,0.26-0.521-1.823,1.822-3.646c0,0,4.687-7.03,8.593-10.936
	c0,0,3.385-5.208,5.729-8.072c0,0,10.416-13.279,11.718-14.061c0,0,0.001-8.072,2.864-10.416c0,0,2.864-4.687,9.113-4.947
	c0,0,6.77-2.343,8.853-10.155c0,0-0.521-2.604,2.344-4.947c0,0,3.906-7.551,14.321-9.113c0,0,8.331-5.468,3.645-18.487
	c0,0-9.113-11.196-28.121-2.864c0,0-18.486,12.238-29.423,27.861c0,0-32.548,42.963-32.548,46.088l16.404-6.77L292.879,389.417z"/>
</svg>
