<?xml version="1.0" encoding="iso-8859-1"?>
<!-- Generator: Adobe Illustrator 16.0.0, SVG Export Plug-In . SVG Version: 6.00 Build 0)  -->
<!DOCTYPE svg PUBLIC "-//W3C//DTD SVG 1.1//EN" "http://www.w3.org/Graphics/SVG/1.1/DTD/svg11.dtd">
<svg version="1.1" id="Layer_1" xmlns="http://www.w3.org/2000/svg" xmlns:xlink="http://www.w3.org/1999/xlink" x="0px" y="0px" width="612px" height="792px" viewBox="0 0 612 792" style="enable-background:new 0 0 612 792;" xml:space="preserve">
<path style="stroke:#000000;" d="M374.859,443.274c0,0-36.333-50.41-49.427-66.776c0,0-11.838-12.507-7.972-20.967
	c0,0,7.251-11.966,9.547-13.416c0,0,6.405-5.68,10.03-8.701c0,0,9.546-5.8,12.084-5.559c0,0,9.789-0.242,10.635-10.393
	c0,0-0.846-10.271-16.193-5.075c0,0-9.547,2.659-36.616,20.906c0,0-13.661,9.858-19.193,18.624
	c-0.048,0.076-0.096,0.152-0.143,0.228c-5.438,8.822,0.122,14.501,5.197,21.631c0,0,39.033,46.283,67.915,74.562l-1.088-16.313
	L374.859,443.274z"/>
</svg>
