<?xml version="1.0" encoding="iso-8859-1"?>
<!-- Generator: Adobe Illustrator 16.0.0, SVG Export Plug-In . SVG Version: 6.00 Build 0)  -->
<!DOCTYPE svg PUBLIC "-//W3C//DTD SVG 1.1//EN" "http://www.w3.org/Graphics/SVG/1.1/DTD/svg11.dtd">
<svg version="1.1" id="Layer_1" xmlns="http://www.w3.org/2000/svg" xmlns:xlink="http://www.w3.org/1999/xlink" x="0px" y="0px"
	 width="612px" height="792px" viewBox="0 0 612 792" style="enable-background:new 0 0 612 792;" xml:space="preserve">
<path style="stroke:#000000;" d="M311.065,432.788c0,0,15.843-50.635,18.328-73.312c0,0,5.903-46.597,0.933-54.984
	c0,0-4.351-8.387-9.941,7.456c0,0-8.386,21.745-8.697,28.579c0,0-5.688,17.706-5.688,20.191c0,0-7.05,23.61-7.05,26.406
	c0,0-4.036,11.472-6.346,15.167c0,0-1.617,5.08-1.848,6.697c0,0-3.465,5.773-3.695,6.928c-0.23,1.155,15.012-6.234,15.012-6.234
	L311.065,432.788z"/>
</svg>
