<?xml version="1.0" encoding="iso-8859-1"?>
<!-- Generator: Adobe Illustrator 16.0.0, SVG Export Plug-In . SVG Version: 6.00 Build 0)  -->
<!DOCTYPE svg PUBLIC "-//W3C//DTD SVG 1.1//EN" "http://www.w3.org/Graphics/SVG/1.1/DTD/svg11.dtd">
<svg version="1.1" id="Layer_1" xmlns="http://www.w3.org/2000/svg" xmlns:xlink="http://www.w3.org/1999/xlink" x="0px" y="0px"
	 width="612px" height="792px" viewBox="0 0 612 792" style="enable-background:new 0 0 612 792;" xml:space="preserve">
<path style="fill:#363639;stroke:#000000;" d="M293.796,347.963c0.005-0.008,0.01-0.017,0.014-0.025
	c2.243-4.255,2.805-17.449,2.805-17.449c-1.128-4.51-0.281-8.173-0.281-8.173c1.128-10.71,7.046-13.81,7.046-13.81
	c9.019-7.61,13.246-1.691,13.246-1.691c2.536,0.846,1.974,9.301,1.974,9.301c0.846,3.946-1.409,9.583-1.409,9.583
	c-1.69,2.255-0.282,7.046-0.282,7.046c0.282-0.845,7.609,12.119-4.51,25.366l-8.173-13.247L293.796,347.963z"/>
</svg>
