<?xml version="1.0" encoding="iso-8859-1"?>
<!-- Generator: Adobe Illustrator 16.0.0, SVG Export Plug-In . SVG Version: 6.00 Build 0)  -->
<!DOCTYPE svg PUBLIC "-//W3C//DTD SVG 1.1//EN" "http://www.w3.org/Graphics/SVG/1.1/DTD/svg11.dtd">
<svg version="1.1" id="Layer_1" xmlns="http://www.w3.org/2000/svg" xmlns:xlink="http://www.w3.org/1999/xlink" x="0px" y="0px"
	 width="612px" height="792px" viewBox="0 0 612 792" style="enable-background:new 0 0 612 792;" xml:space="preserve">
<path style="fill:#363639;stroke:#000000;" d="M288.397,402.489c0,0,0.692-7.267,6.574-30.796c0,0,6.229-32.18,8.65-45.675
	c0,0,7.266-30.796,8.996-44.637c0,0,2.769-15.917,5.883-24.567c0,0,2.424-5.537,5.537-7.958c0,0,4.497-2.076,11.418,6.229
	c0,0,8.65,7.958,10.381,15.571c0,0,5.19,10.727-8.65,10.381c0,0-4.844,0.345-5.536,5.19c0,0-17.993,56.748-17.647,60.9
	c0,0-12.11,53.288-9.688,56.747l-8.996-9.342L288.397,402.489z"/>
</svg>
