<?xml version="1.0" encoding="iso-8859-1"?>
<!-- Generator: Adobe Illustrator 16.0.0, SVG Export Plug-In . SVG Version: 6.00 Build 0)  -->
<!DOCTYPE svg PUBLIC "-//W3C//DTD SVG 1.1//EN" "http://www.w3.org/Graphics/SVG/1.1/DTD/svg11.dtd">
<svg version="1.1" id="Layer_1" xmlns="http://www.w3.org/2000/svg" xmlns:xlink="http://www.w3.org/1999/xlink" x="0px" y="0px"
	 width="612px" height="792px" viewBox="0 0 612 792" style="enable-background:new 0 0 612 792;" xml:space="preserve">
<path style="fill:#363639;stroke:#000000;" d="M297.762,357.517c0.289,0.035,0.569,0.065,0.842,0.091
	c3.893,0.367,5.995-0.138,5.995-0.138c3.898-3.013,9.039-3.19,9.039-3.19c18.786-8.684,25.697-31.724,25.697-31.724
	c2.127,4.785,2.304,4.608,2.304,4.608c2.835-2.126,2.754-2.052,2.754-2.052c-5.395,24.459-20.913,38.131-20.913,38.131
	c-2.513,2.144-2.29,3.029-2.29,3.029c2.291,8.128-12.637,1.7-12.637,1.7c-1.33,4.877-8.941,3.029-8.941,3.029l4.448-3.501
	l-6.203-10.456"/>
</svg>
