<?xml version="1.0" encoding="iso-8859-1"?>
<!-- Generator: Adobe Illustrator 16.0.0, SVG Export Plug-In . SVG Version: 6.00 Build 0)  -->
<!DOCTYPE svg PUBLIC "-//W3C//DTD SVG 1.1//EN" "http://www.w3.org/Graphics/SVG/1.1/DTD/svg11.dtd">
<svg version="1.1" id="Layer_1" xmlns="http://www.w3.org/2000/svg" xmlns:xlink="http://www.w3.org/1999/xlink" x="0px" y="0px"
	 width="612px" height="792px" viewBox="0 0 612 792" style="enable-background:new 0 0 612 792;" xml:space="preserve">
<path style="fill:#020202;stroke:#000000;" d="M374.109,496.104c0,0-60.206-55.363-73.01-63.322c0,0-55.71-35.293-74.049-46.712
	c0,0-27.335-15.917-28.027-24.568c0,0-1.385-5.537,8.304-19.723c0,0,12.11-19.376,16.955-21.107c0,0,18.687-2.768,16.264-14.879
	c0,0-10.035-19.377-24.222-5.882c0,0-44.983,42.907-39.793,79.239c0,0,0.692,14.878,13.495,20.415
	c0,0,146.021,74.741,174.049,105.883l-1.385-7.959L374.109,496.104z"/>
</svg>
