<?xml version="1.0" encoding="iso-8859-1"?>
<!-- Generator: Adobe Illustrator 16.0.0, SVG Export Plug-In . SVG Version: 6.00 Build 0)  -->
<!DOCTYPE svg PUBLIC "-//W3C//DTD SVG 1.1//EN" "http://www.w3.org/Graphics/SVG/1.1/DTD/svg11.dtd">
<svg version="1.1" id="Layer_1" xmlns="http://www.w3.org/2000/svg" xmlns:xlink="http://www.w3.org/1999/xlink" x="0px" y="0px"
	 width="612px" height="792px" viewBox="0 0 612 792" style="enable-background:new 0 0 612 792;" xml:space="preserve">
<path style="fill:#363639;stroke:#000000;" d="M222.951,485.77c0,0-2.731-52.695,63.625-93.681c0,0,77.676-45.279,106.951-58.55
	l-19.517-2.342l7.807-15.223c0,0-21.079,9.758-23.812,9.758s-6.635,1.171-8.978,4.684s-1.171,0.781-1.171,0.781
	s-39.425,17.174-44.499,19.517c0,0-10.539,1.952-16.784,6.636c0,0-16.395,10.148-28.885,14.442c0,0-60.111,35.13-125.688,32.789
	l-0.39,21.469c0,0,41.766-0.779,47.23,7.027c0,0,11.711,10.93,5.465,52.305l15.613-16.784l23.42,17.955"/>
</svg>
