<?xml version="1.0" encoding="iso-8859-1"?>
<!-- Generator: Adobe Illustrator 16.0.0, SVG Export Plug-In . SVG Version: 6.00 Build 0)  -->
<!DOCTYPE svg PUBLIC "-//W3C//DTD SVG 1.1//EN" "http://www.w3.org/Graphics/SVG/1.1/DTD/svg11.dtd">
<svg version="1.1" id="Layer_1" xmlns="http://www.w3.org/2000/svg" xmlns:xlink="http://www.w3.org/1999/xlink" x="0px" y="0px"
	 width="612px" height="792px" viewBox="0 0 612 792" style="enable-background:new 0 0 612 792;" xml:space="preserve">
<path style="fill:#363639;stroke:#000000;" d="M251.945,376.823c-1.031-1.032-0.258-2.838-0.258-2.838
	c1.032-0.774,1.806-4.385,1.806-4.385c-1.29-0.774-1.29-2.58-1.29-2.58c1.806-2.58,1.548-4.386,1.548-4.386
	c-1.806-1.032-1.548-3.354-1.548-3.354c3.354-3.87,0.517-4.644,0.517-4.644s1.547,0,0.773,0s-3.354-6.191-0.517-8.255
	c0.166-0.121,0.314-0.237,0.447-0.347c2.126-1.775,0.069-2.232,0.069-2.232c-2.58-0.258-2.064-1.806-2.064-1.806
	c1.289-1.032,1.032-2.837,1.032-2.837c-1.548-1.032-1.806-2.838-1.806-2.838c2.063-0.774,1.29-3.612,1.29-3.612
	c-1.548-0.258-1.29-3.096-1.29-3.096c0.774-0.258,1.032-2.838,1.032-2.838c-1.806-1.032-1.807-3.354-1.807-3.354
	c0.773-1.29,1.032-2.838,1.032-2.838c-1.29,0-3.354-2.322-2.321-4.644s0-2.064,0-2.064c-3.354-1.032-2.322-2.322-2.322-2.322
	c2.58-0.774,0.774-4.385,0.774-4.385c-1.806-0.774-1.548-3.096-1.548-3.096c1.548-2.063,1.548-3.612,1.548-3.612
	c-2.063-1.29-1.29-3.354-1.29-3.354c2.838-0.774-0.258-4.644-0.258-4.644c0.774-1.032,0.773-2.837,0.773-2.837
	s-2.063-1.29-1.032-3.87c0.055-0.136,0.104-0.266,0.149-0.389c0.803-2.217,0.109-2.448,0.109-2.448
	c-2.063-1.806-0.517-4.902-0.517-4.902c-4.128-5.16,1.806-3.611-0.516-5.675s-1.29-3.096-1.29-3.096c2.063-1.29,0-3.87,0-3.87
	c-1.29-1.548,0-2.064,0-2.064c1.29,0.258-1.032-4.644-1.032-4.644c-2.58-4.644,0-8.513,0-8.513
	c8.255-16.252,0.517-20.896,0.517-20.896c-3.869-0.774-5.676,4.128-5.676,4.128c-7.224,8.513-0.516,46.436-0.516,46.436
	c9.546,60.625,5.417,96.483,5.417,96.483l3.87-4.901L251.945,376.823z"/>
</svg>
