<?xml version="1.0" encoding="iso-8859-1"?>
<!-- Generator: Adobe Illustrator 16.0.0, SVG Export Plug-In . SVG Version: 6.00 Build 0)  -->
<!DOCTYPE svg PUBLIC "-//W3C//DTD SVG 1.1//EN" "http://www.w3.org/Graphics/SVG/1.1/DTD/svg11.dtd">
<svg version="1.1" id="Layer_1" xmlns="http://www.w3.org/2000/svg" xmlns:xlink="http://www.w3.org/1999/xlink" x="0px" y="0px"
	 width="612px" height="792px" viewBox="0 0 612 792" style="enable-background:new 0 0 612 792;" xml:space="preserve">
<path style="stroke:#000000;" d="M225.805,452.374c0,0,70.704-37.97,91.653-59.247c0,0,30.113-31.096,36.333-38.298
	c0,0,14.731-16.04,21.277-15.385c0,0,6.516,0,9.24,2.412c0.39,0.345,0.702,0.738,0.906,1.188c1.637,3.601,13.094,6.547,14.73,6.874
	c0,0,9.493,0.654,9.82-11.784c0,0-2.945-10.475-22.586-16.694c0,0-20.294-6.874-36.334,7.856c0,0-15.713,15.384-23.568,23.568
	c0,0-11.129,12.767-24.877,22.914c0,0-59.574,43.535-90.671,56.628l14.729,1.31L225.805,452.374z"/>
</svg>
