<?xml version="1.0" encoding="iso-8859-1"?>
<!-- Generator: Adobe Illustrator 16.0.0, SVG Export Plug-In . SVG Version: 6.00 Build 0)  -->
<!DOCTYPE svg PUBLIC "-//W3C//DTD SVG 1.1//EN" "http://www.w3.org/Graphics/SVG/1.1/DTD/svg11.dtd">
<svg version="1.1" id="Layer_1" xmlns="http://www.w3.org/2000/svg" xmlns:xlink="http://www.w3.org/1999/xlink" x="0px" y="0px"
	 width="612px" height="792px" viewBox="0 0 612 792" style="enable-background:new 0 0 612 792;" xml:space="preserve">
<path style="stroke:#000000;" d="M280.735,490.037c0,0,36.488-33.488,55.889-71.132c0,0,21.018-40.877,15.705-47.344
	c0,0-4.618-3.926-10.393,1.155c0,0-8.314,8.083-10.624,22.633c0,0,1.154,1.386-5.543,11.547l-13.625,20.555
	c0,0-3.234,2.771-4.851,4.85c0,0-3.694,4.157-6.004,8.314c0,0-18.014,27.251-33.487,37.182l9.931-1.154L280.735,490.037z"/>
</svg>
