<?xml version="1.0" encoding="iso-8859-1"?>
<!-- Generator: Adobe Illustrator 16.0.0, SVG Export Plug-In . SVG Version: 6.00 Build 0)  -->
<!DOCTYPE svg PUBLIC "-//W3C//DTD SVG 1.1//EN" "http://www.w3.org/Graphics/SVG/1.1/DTD/svg11.dtd">
<svg version="1.1" id="Layer_1" xmlns="http://www.w3.org/2000/svg" xmlns:xlink="http://www.w3.org/1999/xlink" x="0px" y="0px"
	 width="612px" height="792px" viewBox="0 0 612 792" style="enable-background:new 0 0 612 792;" xml:space="preserve">
<path style="stroke:#000000;" d="M170.808,426.684c0,0,49.082-49.704,60.266-59.334c0,0,67.721-57.159,73.313-60.887
	c0,0,38.521-32.617,44.733-31.996c0,0,10.473,0.598,13.211,12.074c0.052,0.217,0.101,0.438,0.146,0.662
	c2.485,12.115-1.554,27.026-5.281,30.754c0,0-2.795,4.971-11.183,2.485c0,0-7.145,0.622-15.222,6.213
	c0,0-93.815,63.371-146.314,116.181l0.311-16.773L170.808,426.684z"/>
</svg>
