<?xml version="1.0" encoding="iso-8859-1"?>
<!-- Generator: Adobe Illustrator 16.0.0, SVG Export Plug-In . SVG Version: 6.00 Build 0)  -->
<!DOCTYPE svg PUBLIC "-//W3C//DTD SVG 1.1//EN" "http://www.w3.org/Graphics/SVG/1.1/DTD/svg11.dtd">
<svg version="1.1" id="Layer_1" xmlns="http://www.w3.org/2000/svg" xmlns:xlink="http://www.w3.org/1999/xlink" x="0px" y="0px"
	 width="612px" height="792px" viewBox="0 0 612 792" style="enable-background:new 0 0 612 792;" xml:space="preserve">
<path style="stroke:#000000;" d="M354.041,429.165c0,0-1.183-4.434-7.39-15.075c0,0-18.031-33.106-28.081-65.62
	c0,0-8.275-21.578-7.98-33.697c0,0,4.433-22.169-7.981-31.923c0,0-11.824-13.893-35.175-12.415c0,0-25.124-0.296-25.42,20.1
	c0,0-2.364,30.445,19.509,57.048c0,0,4.137,4.729,8.571,13.893l38.723,80.399l7.094-17.439L354.041,429.165z"/>
</svg>
