<?xml version="1.0" encoding="iso-8859-1"?>
<!-- Generator: Adobe Illustrator 16.0.0, SVG Export Plug-In . SVG Version: 6.00 Build 0)  -->
<!DOCTYPE svg PUBLIC "-//W3C//DTD SVG 1.1//EN" "http://www.w3.org/Graphics/SVG/1.1/DTD/svg11.dtd">
<svg version="1.1" id="Layer_1" xmlns="http://www.w3.org/2000/svg" xmlns:xlink="http://www.w3.org/1999/xlink" x="0px" y="0px"
	 width="612px" height="792px" viewBox="0 0 612 792" style="enable-background:new 0 0 612 792;" xml:space="preserve">
<path style="stroke:#000000;" d="M337.032,458.537c0,0-24.223-16.367-21.276-50.41c0,0,0.981-10.147,7.201-20.294
	c0,0,12.112-18.985,18.331-25.532c0,0,3.6-2.619,6.546-2.619c0,0,2.291,1.636,6.874-5.892c0,0,7.202-10.475,0.655-15.712
	c0,0-11.129-11.457-18.985-5.237c0,0-44.518,32.079-47.791,66.121c0,0-7.202,48.772,29.787,77.905l-1.964-17.021L337.032,458.537z"
	/>
</svg>
