<?xml version="1.0" encoding="iso-8859-1"?>
<!-- Generator: Adobe Illustrator 16.0.0, SVG Export Plug-In . SVG Version: 6.00 Build 0)  -->
<!DOCTYPE svg PUBLIC "-//W3C//DTD SVG 1.1//EN" "http://www.w3.org/Graphics/SVG/1.1/DTD/svg11.dtd">
<svg version="1.1" id="Layer_1" xmlns="http://www.w3.org/2000/svg" xmlns:xlink="http://www.w3.org/1999/xlink" x="0px" y="0px"
	 width="612px" height="792px" viewBox="0 0 612 792" style="enable-background:new 0 0 612 792;" xml:space="preserve">
<path style="fill:#020202;stroke:#000000;" d="M240.001,520.589c0,0,13.796-28.741,24.717-71.276c0,0,21.268-81.624,28.74-113.239
	c0,0,20.694-90.245,3.449-126.458c0,0-5.748-15.52-14.945-15.52c0,0-10.894,0.202-17.814,13.697c0,0-7.612,9.689-8.305,45.675
	c0,0-4.499,73.01-12.457,110.034c0,0-12.11,64.706-12.803,81.314c0,0-4.844,52.595-15.225,67.474l11.418-6.92L240.001,520.589z"/>
</svg>
