<?xml version="1.0" encoding="iso-8859-1"?>
<!-- Generator: Adobe Illustrator 16.0.0, SVG Export Plug-In . SVG Version: 6.00 Build 0)  -->
<!DOCTYPE svg PUBLIC "-//W3C//DTD SVG 1.1//EN" "http://www.w3.org/Graphics/SVG/1.1/DTD/svg11.dtd">
<svg version="1.1" id="Layer_1" xmlns="http://www.w3.org/2000/svg" xmlns:xlink="http://www.w3.org/1999/xlink" x="0px" y="0px"
	 width="612px" height="792px" viewBox="0 0 612 792" style="enable-background:new 0 0 612 792;" xml:space="preserve">
<path style="stroke:#000000;" d="M355.525,444.626c0,0-64.772-25.618-76.856-50.271c0,0-23.685-43.987-25.618-90.874
	c0,0,2.417-57.522,15.468-77.823c0,0,12.635-23.575,19.1-19.265c0,0,1.885,1.077,4.04,0.539c0,0,4.579-0.27,5.388,1.078
	c0,0,0.808,1.077,3.502,0.808c0,0,5.389,1.078,4.58,6.465c0,0-0.539,7.812-12.661,7.542c0,0-16.975,8.891-17.783,70.04
	c0,0,3.231,50.913,13.737,67.076c0,0,23.166,34.75,38.791,46.064c0,0,28.556,22.089,36.367,25.86l-11.045,4.311L355.525,444.626z"/>
</svg>
