<?xml version="1.0" encoding="iso-8859-1"?>
<!-- Generator: Adobe Illustrator 16.0.0, SVG Export Plug-In . SVG Version: 6.00 Build 0)  -->
<!DOCTYPE svg PUBLIC "-//W3C//DTD SVG 1.1//EN" "http://www.w3.org/Graphics/SVG/1.1/DTD/svg11.dtd">
<svg version="1.1" id="Layer_1" xmlns="http://www.w3.org/2000/svg" xmlns:xlink="http://www.w3.org/1999/xlink" x="0px" y="0px"
	 width="612px" height="792px" viewBox="0 0 612 792" style="enable-background:new 0 0 612 792;" xml:space="preserve">
<path style="stroke:#000000;" d="M288.804,464.197c0,0,24.914-42.906,14.188-104.498c0,0-5.884-27.335,2.768-35.64
	c0,0,3.838-3.795,5.65-4.641c0,0,7.251-6.525,1.813-10.393c0,0-11.964-10.03-22.478-1.692c0,0-9.306,8.338-9.547,12.688
	c0,0-0.482,18.489,1.209,26.707c0,0,4.955,34.199,5.56,52.083c0,0-0.727,43.866-13.174,59.697l7.854-3.504L288.804,464.197z"/>
</svg>
