<?xml version="1.0" encoding="iso-8859-1"?>
<!-- Generator: Adobe Illustrator 16.0.0, SVG Export Plug-In . SVG Version: 6.00 Build 0)  -->
<!DOCTYPE svg PUBLIC "-//W3C//DTD SVG 1.1//EN" "http://www.w3.org/Graphics/SVG/1.1/DTD/svg11.dtd">
<svg version="1.1" id="Layer_1" xmlns="http://www.w3.org/2000/svg" xmlns:xlink="http://www.w3.org/1999/xlink" x="0px" y="0px"
	 width="612px" height="792px" viewBox="0 0 612 792" style="enable-background:new 0 0 612 792;" xml:space="preserve">
<path style="stroke:#000000;" d="M367.985,472.075c0,0-16.848-24.829-35.766-38.131c0,0-65.917-44.929-81.878-54.092
	c0,0-31.037-13.006-15.666-43.747c0,0,14.484-26.898,22.761-34.288c0,0,3.547-2.069,5.32-6.207c0,0,11.233-10.937,17.145-14.484
	c0,0,10.051-5.025,14.188-5.912c0,0,10.642-4.434,6.503-13.893c0,0-4.434-7.981-30.741,5.32c0,0-19.213,10.642-39.018,39.609
	c0,0-31.924,44.929-16.849,68.28c0,0,8.277,10.642,43.156,29.854c0,0,89.858,58.822,96.361,74.192l1.182-7.981L367.985,472.075z"/>
</svg>
