<?xml version="1.0" encoding="iso-8859-1"?>
<!-- Generator: Adobe Illustrator 16.0.0, SVG Export Plug-In . SVG Version: 6.00 Build 0)  -->
<!DOCTYPE svg PUBLIC "-//W3C//DTD SVG 1.1//EN" "http://www.w3.org/Graphics/SVG/1.1/DTD/svg11.dtd">
<svg version="1.1" id="Layer_1" xmlns="http://www.w3.org/2000/svg" xmlns:xlink="http://www.w3.org/1999/xlink" x="0px" y="0px"
	 width="612px" height="792px" viewBox="0 0 612 792" style="enable-background:new 0 0 612 792;" xml:space="preserve">
<path style="stroke:#000000;" d="M345.55,498.118c0,0-42.214-38.409-47.059-53.979c0,0-8.651-29.758-2.769-48.097
	c0,0,8.621-24.968,13.36-33.585c0,0,3.159-5.745,4.309-6.319c0,0,2.155-1.005,4.453-4.596c0,0,5.602-5.458,8.617-5.027
	c0,0,14.456,1.543,14.926-6.745c0.006-0.096,0.01-0.194,0.012-0.293c0.144-8.617-11.347-7.469-12.64-7.038
	c0,0-2.872,1.149-6.463-0.574c0,0-5.171-1.724-9.049,2.298c0,0-24.416,28.869-32.315,61.759c0,0-9.625,36.913,3.589,58.458
	c0,0,12.928,28.15,52.855,56.157l-0.718-9.336L345.55,498.118z"/>
</svg>
