<?xml version="1.0" encoding="iso-8859-1"?>
<!-- Generator: Adobe Illustrator 16.0.0, SVG Export Plug-In . SVG Version: 6.00 Build 0)  -->
<!DOCTYPE svg PUBLIC "-//W3C//DTD SVG 1.1//EN" "http://www.w3.org/Graphics/SVG/1.1/DTD/svg11.dtd">
<svg version="1.1" id="Layer_1" xmlns="http://www.w3.org/2000/svg" xmlns:xlink="http://www.w3.org/1999/xlink" x="0px" y="0px"
	 width="612px" height="792px" viewBox="0 0 612 792" style="enable-background:new 0 0 612 792;" xml:space="preserve">
<path style="fill:#363639;stroke:#000000;" d="M211.675,349.538c0,0,21.579-19.213,53.206,5.321c0,0,46.997,54.389,49.362,58.526
	s0.592,0.591,0.592,0.591l0.295-11.823l12.711,2.66c0,0-18.623-24.534-20.101-28.672c0,0-22.76-28.672-31.036-34.288
	c0,0-12.415-13.006-18.918-23.647c0,0-12.415-22.464-19.805-25.716c0,0-8.571-6.798-18.03,13.893c0,0-17.439,24.866-17.439,25.125
	c0,0.591,12.119,1.182,12.119,1.182l-2.66,15.962"/>
</svg>
