<?xml version="1.0" encoding="iso-8859-1"?>
<!-- Generator: Adobe Illustrator 16.0.0, SVG Export Plug-In . SVG Version: 6.00 Build 0)  -->
<!DOCTYPE svg PUBLIC "-//W3C//DTD SVG 1.1//EN" "http://www.w3.org/Graphics/SVG/1.1/DTD/svg11.dtd">
<svg version="1.1" id="Layer_1" xmlns="http://www.w3.org/2000/svg" xmlns:xlink="http://www.w3.org/1999/xlink" x="0px" y="0px"
	 width="612px" height="792px" viewBox="0 0 612 792" style="enable-background:new 0 0 612 792;" xml:space="preserve">
<path style="stroke:#000000;" d="M241.406,386.012h42.547c0,0,0.592,1.522,4.899-6.477c0,0,3.691-6.974,19.896-28.921
	c0,0,11.692-16.203,13.743-18.05c0,0-0.409,1.025,3.077-2.872c0,0,15.999-20.716,17.024-23.383l-5.128,1.23l1.436-9.641
	c0,0-7.795,7.795-14.769,14.153c0,0-19.28,23.588-23.178,27.485c0,0-19.485,23.588-22.768,27.485c0,0-10.052,10.256-17.846,6.153
	c0,0-7.59-1.23-11.486-0.41c0,0-3.691-0.615-7.384-0.205L241.406,386.012z"/>
</svg>
