<?xml version="1.0" encoding="iso-8859-1"?>
<!-- Generator: Adobe Illustrator 16.0.0, SVG Export Plug-In . SVG Version: 6.00 Build 0)  -->
<!DOCTYPE svg PUBLIC "-//W3C//DTD SVG 1.1//EN" "http://www.w3.org/Graphics/SVG/1.1/DTD/svg11.dtd">
<svg version="1.1" id="Layer_1" xmlns="http://www.w3.org/2000/svg" xmlns:xlink="http://www.w3.org/1999/xlink" x="0px" y="0px"
	 width="612px" height="792px" viewBox="0 0 612 792" style="enable-background:new 0 0 612 792;" xml:space="preserve">
<path style="fill:#363639;stroke:#000000;" d="M314.001,435.596c0,0,22.214-55.523,22.214-85.68c0,0,0.846-16.064-13.528-41.148
	c0,0-5.621-11.128-11.301-17.533c0,0-1.648-1.692,0.483-3.142c0,0,3.867-4.713-1.813-8.943c0,0-5.196-6.042-10.03-1.45
	c0,0-6.646,4.956-2.658,14.26c0,0,4.713,11.964,8.942,19.214c0,0,7.129,15.831,9.305,23.565c0,0,9.185,25.62,1.329,50.151
	c0,0-4.591,20.544-16.313,43.987l10.271-11.602L314.001,435.596z"/>
</svg>
