<?xml version="1.0" encoding="iso-8859-1"?>
<!-- Generator: Adobe Illustrator 16.0.0, SVG Export Plug-In . SVG Version: 6.00 Build 0)  -->
<!DOCTYPE svg PUBLIC "-//W3C//DTD SVG 1.1//EN" "http://www.w3.org/Graphics/SVG/1.1/DTD/svg11.dtd">
<svg version="1.1" id="Layer_1" xmlns="http://www.w3.org/2000/svg" xmlns:xlink="http://www.w3.org/1999/xlink" x="0px" y="0px"
	 width="612px" height="792px" viewBox="0 0 612 792" style="enable-background:new 0 0 612 792;" xml:space="preserve">
<path style="stroke:#000000;" d="M321.141,434.734c0,0-26.474-36.297-35.658-54.423c0,0-5.922-12.931-6.526-13.656
	s-4.593-12.326-3.988-24.29c0,0,2.056-11.48,9.427-11.359c0,0,4.351-0.241,5.68,1.692c0,0,1.209,1.33,3.263,5.68
	c0,0,4.472,11.118,9.547,18.61s8.578,15.106,12.688,20.786c0,0,17.038,26.948,19.818,31.661c0,0,8.822,11.119,10.756,13.293
	l-23.082-3.625L321.141,434.734z"/>
</svg>
