<?xml version="1.0" encoding="iso-8859-1"?>
<!-- Generator: Adobe Illustrator 16.0.0, SVG Export Plug-In . SVG Version: 6.00 Build 0)  -->
<!DOCTYPE svg PUBLIC "-//W3C//DTD SVG 1.1//EN" "http://www.w3.org/Graphics/SVG/1.1/DTD/svg11.dtd">
<svg version="1.1" id="Layer_1" xmlns="http://www.w3.org/2000/svg" xmlns:xlink="http://www.w3.org/1999/xlink" x="0px" y="0px"
	 width="612px" height="792px" viewBox="0 0 612 792" style="enable-background:new 0 0 612 792;" xml:space="preserve">
<path style="fill:#0F0F0F;stroke:#000000;" d="M295.022,422.678c0,0-14.816-9.697-9.159-23.975c0,0,4.58-11.583,11.045-17.24
	c0,0,12.391-10.506,18.587-13.469c0,0,8.082-3.233,10.775-6.735c0,0,10.236-8.081,5.388-14.277c0,0-7.272-7.813-15.085,2.155
	c0,0-0.808,3.771-6.465,4.58c0,0-21.821,8.351-38.253,33.673c0,0-12.66,26.4,6.466,46.603v-15.086L295.022,422.678z"/>
</svg>
