<?xml version="1.0" encoding="iso-8859-1"?>
<!-- Generator: Adobe Illustrator 16.0.0, SVG Export Plug-In . SVG Version: 6.00 Build 0)  -->
<!DOCTYPE svg PUBLIC "-//W3C//DTD SVG 1.1//EN" "http://www.w3.org/Graphics/SVG/1.1/DTD/svg11.dtd">
<svg version="1.1" id="Layer_1" xmlns="http://www.w3.org/2000/svg" xmlns:xlink="http://www.w3.org/1999/xlink" x="0px" y="0px"
	 width="612px" height="792px" viewBox="0 0 612 792" style="enable-background:new 0 0 612 792;" xml:space="preserve">
<path style="fill:#363639;stroke:#000000;" d="M282.6,361.132c0,0,12.463-6.69,14.33-15.883c0,0,4.658-17.362,3.06-28.296
	c-0.014-0.096-0.028-0.191-0.043-0.286c-1.724-10.916-3.303-25.996-8.761-35.763c0,0-1.436-3.591-4.452-2.873
	c0,0-1.436,1.58-0.431,4.74c0,0,4.452,13.645,4.596,23.268c0,0,0.718,24.847-0.862,29.443c0,0-3.017,9.048-5.458,12.496
	s-3.304,4.739-8.762,8.043l7.469-1.723L282.6,361.132z"/>
</svg>
