<?xml version="1.0" encoding="iso-8859-1"?>
<!-- Generator: Adobe Illustrator 16.0.0, SVG Export Plug-In . SVG Version: 6.00 Build 0)  -->
<!DOCTYPE svg PUBLIC "-//W3C//DTD SVG 1.1//EN" "http://www.w3.org/Graphics/SVG/1.1/DTD/svg11.dtd">
<svg version="1.1" id="Layer_1" xmlns="http://www.w3.org/2000/svg" xmlns:xlink="http://www.w3.org/1999/xlink" x="0px" y="0px"
	 width="612px" height="792px" viewBox="0 0 612 792" style="enable-background:new 0 0 612 792;" xml:space="preserve">
<path style="stroke:#000000;" d="M260.604,358.709c0,0-17.285-11.093-23.219-38.698c0,0-8.255-25.798-3.869-39.729
	c0,0,4.128-23.477,26.572-38.698c0,0,9.288-5.934,15.479,0c0,0,3.611,3.869,12.125,1.806c0,0,8.771-3.354,10.577-10.577
	c0,0,4.386-16.253-19.349-20.381c0,0-18.06-2.067-40.505,23.99c0,0-20.639,20.381-22.961,48.759c0,0-0.517,25.799,5.159,37.924
	c0,0,9.031,29.926,23.22,43.6l0.516-11.867L260.604,358.709z"/>
</svg>
