<?xml version="1.0" encoding="iso-8859-1"?>
<!-- Generator: Adobe Illustrator 16.0.0, SVG Export Plug-In . SVG Version: 6.00 Build 0)  -->
<!DOCTYPE svg PUBLIC "-//W3C//DTD SVG 1.1//EN" "http://www.w3.org/Graphics/SVG/1.1/DTD/svg11.dtd">
<svg version="1.1" id="Layer_1" xmlns="http://www.w3.org/2000/svg" xmlns:xlink="http://www.w3.org/1999/xlink" x="0px" y="0px"
	 width="612px" height="792px" viewBox="0 0 612 792" style="enable-background:new 0 0 612 792;" xml:space="preserve">
<path style="fill:#020202;stroke:#000000;" d="M163.041,448.758c0,0,9.537,0.367,23.845-0.367c0,0,18.71,0.734,30.449-9.538
	c0,0,13.94-7.337,37.052-33.017c0,0,22.377-25.313,42.188-56.862c0,0,6.237-13.573,9.172-22.745c0,0,2.567-13.574,2.567-18.709
	c0,0,0.985-5.449-0.468-5.994c0,0-6.177-2.18-10.719,0.727c0,0-5.631,2.361-2.18,18.53c0,0-3.997,22.893-48.507,72.488
	c0,0-29.249,25.614-33.246,28.158c0,0-2.181,1.816-4.36,3.089c0,0-7.812,3.633-12.172,4.541c0,0-27.795,4.361-29.612,2.726
	l9.992,6.722L163.041,448.758z"/>
</svg>
