<?xml version="1.0" encoding="iso-8859-1"?>
<!-- Generator: Adobe Illustrator 16.0.0, SVG Export Plug-In . SVG Version: 6.00 Build 0)  -->
<!DOCTYPE svg PUBLIC "-//W3C//DTD SVG 1.1//EN" "http://www.w3.org/Graphics/SVG/1.1/DTD/svg11.dtd">
<svg version="1.1" id="Layer_1" xmlns="http://www.w3.org/2000/svg" xmlns:xlink="http://www.w3.org/1999/xlink" x="0px" y="0px"
	 width="612px" height="792px" viewBox="0 0 612 792" style="enable-background:new 0 0 612 792;" xml:space="preserve">
<path style="stroke:#000000;" d="M295.399,440.99c0,0,14.443-9.368,3.123-30.446c0,0-12.563-27.317-14.11-29.123
	c0,0-11.867-19.606-7.481-34.054c0,0,2.322-6.708,7.224-6.192c0,0,3.354,0.258,4.128,1.806c0,0,2.838,5.418-2.58,8.771
	c0,0-0.773,1.806-1.806,2.322v2.838c0,0,2.838,9.288,7.481,18.833c0,0,18.574,39.471,19.606,41.02c0,0,6.192,11.867-7.739,27.346
	v-6.449L295.399,440.99z"/>
</svg>
