<?xml version="1.0" encoding="iso-8859-1"?>
<!-- Generator: Adobe Illustrator 16.0.0, SVG Export Plug-In . SVG Version: 6.00 Build 0)  -->
<!DOCTYPE svg PUBLIC "-//W3C//DTD SVG 1.1//EN" "http://www.w3.org/Graphics/SVG/1.1/DTD/svg11.dtd">
<svg version="1.1" id="Layer_1" xmlns="http://www.w3.org/2000/svg" xmlns:xlink="http://www.w3.org/1999/xlink" x="0px" y="0px"
	 width="612px" height="792px" viewBox="0 0 612 792" style="enable-background:new 0 0 612 792;" xml:space="preserve">
<path style="stroke:#000000;" d="M421.562,489.842c0,0-83.023-56.741-103.05-74.682c0,0-32.124-26.284-30.873-76.765
	c0,0,2.086-38.382,36.297-83.857c0,0,22.113-25.449,31.291-20.443c0,0,20.024,15.02,18.773-8.761c0,0-4.172-20.026-12.099-17.105
	c0,0-69.673,15.019-94.288,117.652c0,0-16.688,74.264,47.979,120.991c0,0,87.195,54.236,94.288,57.574l-3.338-9.596L421.562,489.842
	z"/>
</svg>
