<?xml version="1.0" encoding="iso-8859-1"?>
<!-- Generator: Adobe Illustrator 16.0.0, SVG Export Plug-In . SVG Version: 6.00 Build 0)  -->
<!DOCTYPE svg PUBLIC "-//W3C//DTD SVG 1.1//EN" "http://www.w3.org/Graphics/SVG/1.1/DTD/svg11.dtd">
<svg version="1.1" id="Layer_1" xmlns="http://www.w3.org/2000/svg" xmlns:xlink="http://www.w3.org/1999/xlink" x="0px" y="0px"
	 width="612px" height="792px" viewBox="0 0 612 792" style="enable-background:new 0 0 612 792;" xml:space="preserve">
<path style="stroke:#000000;" d="M393.923,398.14c0,0-5.354-12.4,5.919-35.512c0,0,8.455-20.856,21.138-25.93
	c0,0,5.918-2.255,10.428-2.537c0,0,11.556,0.564,14.374-6.2c0,0,3.664-3.946,1.691-10.992c0,0-0.282-7.046-18.602,3.946
	c0,0-1.408,1.41-7.609,1.691c0,0-17.192,0.563-32.412,23.674c0,0-14.938,20.856-16.065,40.021l7.328-7.328L393.923,398.14z"/>
</svg>
