<?xml version="1.0" encoding="iso-8859-1"?>
<!-- Generator: Adobe Illustrator 16.0.0, SVG Export Plug-In . SVG Version: 6.00 Build 0)  -->
<!DOCTYPE svg PUBLIC "-//W3C//DTD SVG 1.1//EN" "http://www.w3.org/Graphics/SVG/1.1/DTD/svg11.dtd">
<svg version="1.1" id="Layer_1" xmlns="http://www.w3.org/2000/svg" xmlns:xlink="http://www.w3.org/1999/xlink" x="0px" y="0px"
	 width="612px" height="792px" viewBox="0 0 612 792" style="enable-background:new 0 0 612 792;" xml:space="preserve">
<path style="stroke:#000000;" d="M221.202,523.076c0,0,45.354-40.695,69.585-84.186c0,0,28.89-46.286,34.481-74.555
	c0,0,9.94-38.521,10.251-52.189c0,0,5.745-24.306-9.498-37.701c0,0-2.54-2.31-4.157-2.31c0,0-6.004,3.233-7.621,4.157
	c0,0-5.774,3.695-6.929,12.24c0,0,0.001,2.079,5.081,9.007c0,0,2.311,2.771,2.541,7.39c0,0-0.924,25.635-16.859,57.044
	c0,0-13.627,32.102-22.402,44.342c0,0-43.187,73.9-76.212,101.154l19.861-9.466L221.202,523.076z"/>
</svg>
