<?xml version="1.0" encoding="iso-8859-1"?>
<!-- Generator: Adobe Illustrator 16.0.0, SVG Export Plug-In . SVG Version: 6.00 Build 0)  -->
<!DOCTYPE svg PUBLIC "-//W3C//DTD SVG 1.1//EN" "http://www.w3.org/Graphics/SVG/1.1/DTD/svg11.dtd">
<svg version="1.1" id="Layer_1" xmlns="http://www.w3.org/2000/svg" xmlns:xlink="http://www.w3.org/1999/xlink" x="0px" y="0px"
	 width="612px" height="792px" viewBox="0 0 612 792" style="enable-background:new 0 0 612 792;" xml:space="preserve">
<path style="fill:#363639;stroke:#000000;" d="M256.941,459.336c0,0-37.083-67.528,1.951-103.439c0,0,16.004-14.442,34.74-14.052
	c0,0,10.276-1.352,15.238,5.737c0,0,4.608,5.494,0.354,12.938c0,0-2.658,8.153-11.874,3.013c0,0-10.455-3.722-17.899,3.19
	c0,0-17.724,14.887-18.255,22.508c0,0-1.064,6.027,0.531,10.635c0,0,8.507,29.42,10.279,34.027c0,0,2.126,6.381,7.089,12.406
	l-20.381-2.836l-1.772,16.482"/>
</svg>
