<?xml version="1.0" encoding="iso-8859-1"?>
<!-- Generator: Adobe Illustrator 16.0.0, SVG Export Plug-In . SVG Version: 6.00 Build 0)  -->
<!DOCTYPE svg PUBLIC "-//W3C//DTD SVG 1.1//EN" "http://www.w3.org/Graphics/SVG/1.1/DTD/svg11.dtd">
<svg version="1.1" id="Layer_1" xmlns="http://www.w3.org/2000/svg" xmlns:xlink="http://www.w3.org/1999/xlink" x="0px" y="0px"
	 width="612px" height="792px" viewBox="0 0 612 792" style="enable-background:new 0 0 612 792;" xml:space="preserve">
<path style="fill:#0F0F0F;stroke:#000000;" d="M148.844,431.934c0,0,21.272-13.48,49.854-40.051c0,0,27.863-23.553,41.077-37.629
	c0,0,22.118-23.411,33.608-37.056c0,0,20.11-20.395,23.27-42.8c0,0,2.873-6.895-0.287-38.779c0,0-0.289-8.474-4.022-14.219
	c0,0-1.292-2.729-5.17,0l-4.309,2.873l-1.149,1.005c0,0-0.862-1.005-1.58,9.192c0,0,0.145,16.661-12.926,34.901
	c0,0-10.198,17.092-30.88,36.194c0,0-14.361,13.788-18.814,18.097c0,0-10.628,11.49-13.501,13.932s-11.348,11.491-14.507,15.656
	c0,0-17.094,19.965-30.02,31.599c0,0-24.846,24.416-33.033,31.454l25.996-11.778L148.844,431.934z"/>
</svg>
