<?xml version="1.0" encoding="iso-8859-1"?>
<!-- Generator: Adobe Illustrator 16.0.0, SVG Export Plug-In . SVG Version: 6.00 Build 0)  -->
<!DOCTYPE svg PUBLIC "-//W3C//DTD SVG 1.1//EN" "http://www.w3.org/Graphics/SVG/1.1/DTD/svg11.dtd">
<svg version="1.1" id="Layer_1" xmlns="http://www.w3.org/2000/svg" xmlns:xlink="http://www.w3.org/1999/xlink" x="0px" y="0px"
	 width="612px" height="792px" viewBox="0 0 612 792" style="enable-background:new 0 0 612 792;" xml:space="preserve">
<path style="stroke:#000000;" d="M115.331,618.045c0,0,70.91-59.357,124.487-128.691c0,0,49.9-69.334,58.305-83.516
	c0,0,31.517-58.831,37.819-99.276c0,0,4.755-8.387,2.677-31.481c0,0-5.538-24.25-7.619-25.635c0,0,0.923-2.078-6.237-1.616
	s-11.778,2.771-11.778,2.771s-4.85,2.309-3.233,12.702c0,0,2.54,12.471-1.155,22.402c0,0-5.314,24.481-11.781,40.647
	c0,0-26.329,66.513-35.798,78.984c0,0-43.418,72.748-50.346,78.291c0,0-46.422,55.196-60.048,68.361c0,0-39.954,41.57-48.037,51.038
	l18.245-7.851l-5.543,22.4"/>
</svg>
