<?xml version="1.0" encoding="iso-8859-1"?>
<!-- Generator: Adobe Illustrator 16.0.0, SVG Export Plug-In . SVG Version: 6.00 Build 0)  -->
<!DOCTYPE svg PUBLIC "-//W3C//DTD SVG 1.1//EN" "http://www.w3.org/Graphics/SVG/1.1/DTD/svg11.dtd">
<svg version="1.1" id="Layer_1" xmlns="http://www.w3.org/2000/svg" xmlns:xlink="http://www.w3.org/1999/xlink" x="0px" y="0px"
	 width="612px" height="792px" viewBox="0 0 612 792" style="enable-background:new 0 0 612 792;" xml:space="preserve">
<path style="fill:#363639;stroke:#000000;" d="M294.378,432.041l-31.488-30.449c0,0-13.332-13.675-5.339-31.849
	c0.049-0.11,0.099-0.221,0.148-0.332c8.305-18.339,8.998-22.837,16.264-30.796c0,0,3.46-4.844,6.574-10.034
	c0,0,8.65-9.688,8.65-9.689c0,0,3.46-5.19,10.034,5.882c0,0,5.19,2.768-3.46,14.879c0,0-11.418,15.225-14.187,23.875
	c0,0-5.883,8.997,3.806,22.492c0,0,12.803,18.339,24.567,28.374l-19.031,3.113L294.378,432.041z"/>
</svg>
