<?xml version="1.0" encoding="iso-8859-1"?>
<!-- Generator: Adobe Illustrator 16.0.0, SVG Export Plug-In . SVG Version: 6.00 Build 0)  -->
<!DOCTYPE svg PUBLIC "-//W3C//DTD SVG 1.1//EN" "http://www.w3.org/Graphics/SVG/1.1/DTD/svg11.dtd">
<svg version="1.1" id="Layer_1" xmlns="http://www.w3.org/2000/svg" xmlns:xlink="http://www.w3.org/1999/xlink" x="0px" y="0px"
	 width="612px" height="792px" viewBox="0 0 612 792" style="enable-background:new 0 0 612 792;" xml:space="preserve">
<path style="fill:#363639;stroke:#000000;" d="M268.818,409.537c0,0,83.875-54.675,100.339-78.905c0,0,14.289-18.328,11.183-27.336
	c0,0-1.864-7.767-6.523-9.941c0,0-6.523-2.796-9.94,0s0.311,0.622,0.311,0.622s-5.281,2.174-4.971,8.387
	c0,0,0.311,4.038,2.175,5.281c0,0,0.311,3.107-2.796,6.213c0,0-18.158,19.648-31.165,30.384c-0.279,0.231-0.557,0.458-0.831,0.68
	c-13.048,10.562-40.694,34.171-70.827,48.771l14.91-1.553L268.818,409.537z"/>
</svg>
