<?xml version="1.0" encoding="iso-8859-1"?>
<!-- Generator: Adobe Illustrator 16.0.0, SVG Export Plug-In . SVG Version: 6.00 Build 0)  -->
<!DOCTYPE svg PUBLIC "-//W3C//DTD SVG 1.1//EN" "http://www.w3.org/Graphics/SVG/1.1/DTD/svg11.dtd">
<svg version="1.1" id="Layer_1" xmlns="http://www.w3.org/2000/svg" xmlns:xlink="http://www.w3.org/1999/xlink" x="0px" y="0px"
	 width="612px" height="792px" viewBox="0 0 612 792" style="enable-background:new 0 0 612 792;" xml:space="preserve">
<path style="fill:#363639;stroke:#000000;" d="M261.407,418.457c0,0,40.721-28.614,45.856-33.016c0,0,11.372-8.438,12.473-19.81
	c0,0,1.33-9.048,3.456-13.833c0,0,4.075-8.33-2.659-11.875l-9.038-4.431c0,0-8.507-3.367-10.988,8.507
	c0,0-1.063,10.278-10.456,18.254c0,0-21.8,19.319-34.205,26.408c0,0-6.381,4.253-14.355,10.102l20.027-1.596L261.407,418.457z"/>
</svg>
