<?xml version="1.0" encoding="iso-8859-1"?>
<!-- Generator: Adobe Illustrator 16.0.0, SVG Export Plug-In . SVG Version: 6.00 Build 0)  -->
<!DOCTYPE svg PUBLIC "-//W3C//DTD SVG 1.1//EN" "http://www.w3.org/Graphics/SVG/1.1/DTD/svg11.dtd">
<svg version="1.1" id="Layer_1" xmlns="http://www.w3.org/2000/svg" xmlns:xlink="http://www.w3.org/1999/xlink" x="0px" y="0px"
	 width="612px" height="792px" viewBox="0 0 612 792" style="enable-background:new 0 0 612 792;" xml:space="preserve">
<path style="fill:#363639;stroke:#000000;" d="M316.452,389.312c0,0,6.798-30.149,0-52.614c0,0-2.364-5.32-6.798-24.829
	c0,0-5.026-12.415-7.095-16.257c0,0-2.068-2.956-0.295-7.094c0,0,4.729-9.459-3.252-10.641c0,0-6.503,1.182-7.98,10.641
	c0,0-1.478,13.006,6.503,27.49c0,0,13.005,21.578,13.597,44.338c0,0,1.478,9.754-0.887,18.622c0,0-2.068,7.98-1.478,10.345
	l3.843-6.503L316.452,389.312z"/>
</svg>
