<?xml version="1.0" encoding="iso-8859-1"?>
<!-- Generator: Adobe Illustrator 16.0.0, SVG Export Plug-In . SVG Version: 6.00 Build 0)  -->
<!DOCTYPE svg PUBLIC "-//W3C//DTD SVG 1.1//EN" "http://www.w3.org/Graphics/SVG/1.1/DTD/svg11.dtd">
<svg version="1.1" id="Layer_1" xmlns="http://www.w3.org/2000/svg" xmlns:xlink="http://www.w3.org/1999/xlink" x="0px" y="0px"
	 width="612px" height="792px" viewBox="0 0 612 792" style="enable-background:new 0 0 612 792;" xml:space="preserve">
<path style="fill:#363639;stroke:#000000;" d="M276.182,452.807c0,0,29.263-49.953,39.904-104.342c0,0,8.572-34.288,1.773-41.382
	c0,0-15.074-7.981-18.326-6.503c0,0-4.105,0.247-3.696,5.402c0,0,2.864,24.714,0.245,29.952c0,0-1.31,2.78-2.864,5.563
	c0,0-4.419,7.693-5.237,10.802c0,0-3.928,13.83-6.22,19.886c0,0-7.611,19.639-7.938,20.622c0,0-1.718,7.366-5.4,14.485
	c0,0-2.374,5.401-2.701,6.383c0,0-0.408,3.355-4.173,6.383c0,0-0.546,1.498-0.703,1.887c-0.016,0.037-0.027,0.063-0.034,0.078
	c-0.081,0.164,15.876-7.611,15.876-7.611L276.182,452.807z"/>
</svg>
