<?xml version="1.0" encoding="iso-8859-1"?>
<!-- Generator: Adobe Illustrator 16.0.0, SVG Export Plug-In . SVG Version: 6.00 Build 0)  -->
<!DOCTYPE svg PUBLIC "-//W3C//DTD SVG 1.1//EN" "http://www.w3.org/Graphics/SVG/1.1/DTD/svg11.dtd">
<svg version="1.1" id="Layer_1" xmlns="http://www.w3.org/2000/svg" xmlns:xlink="http://www.w3.org/1999/xlink" x="0px" y="0px"
	 width="612px" height="792px" viewBox="0 0 612 792" style="enable-background:new 0 0 612 792;" xml:space="preserve">
<path style="stroke:#000000;" d="M366.087,440.387c0,0-12.541-20.602,8.957-47.026c0,0,1.013-2.307,5.896-2.881
	c0,0,2.873,1.867,9.623-10.916c0,0,5.313-17.81-1.006-19.533c0,0-6.463-4.453-10.197,6.032c0,0,0.43,1.292-2.729,2.011
	c0,0-7.613-0.575-19.534,12.782c0,0-18.815,15.512-19.677,46.966c0,0-1.723,10.484,8.188,38.778l1.723-20.826L366.087,440.387z"/>
</svg>
