<?xml version="1.0" encoding="iso-8859-1"?>
<!-- Generator: Adobe Illustrator 16.0.0, SVG Export Plug-In . SVG Version: 6.00 Build 0)  -->
<!DOCTYPE svg PUBLIC "-//W3C//DTD SVG 1.1//EN" "http://www.w3.org/Graphics/SVG/1.1/DTD/svg11.dtd">
<svg version="1.1" id="Layer_1" xmlns="http://www.w3.org/2000/svg" xmlns:xlink="http://www.w3.org/1999/xlink" x="0px" y="0px"
	 width="612px" height="792px" viewBox="0 0 612 792" style="enable-background:new 0 0 612 792;" xml:space="preserve">
<path style="stroke:#000000;" d="M170.125,464.441c0,0,5.591,0.932,11.183-1.863c0,0,46.735,3.713,82.436-43.232
	c0.065-0.086,0.131-0.172,0.196-0.259c35.101-46.394,36.313-74.794,39.291-92.862c0.053-0.321,0.106-0.639,0.161-0.953
	c3.106-18.018,7.454-56.849-1.554-59.334c0,0-23.609-6.834-27.958,23.92c0,0-1.864,3.417,3.417,6.523
	c0,0,12.428,40.073-12.114,83.563c0,0-33.241,59.955-96.613,64.303l11.805,5.902L170.125,464.441z"/>
</svg>
