<?xml version="1.0" encoding="utf-8"?>
<!-- Generator: Adobe Illustrator 16.0.0, SVG Export Plug-In . SVG Version: 6.00 Build 0)  -->
<!DOCTYPE svg PUBLIC "-//W3C//DTD SVG 1.1//EN" "http://www.w3.org/Graphics/SVG/1.1/DTD/svg11.dtd">
<svg version="1.1" id="Layer_1" xmlns="http://www.w3.org/2000/svg" xmlns:xlink="http://www.w3.org/1999/xlink" x="0px" y="0px"
	 width="612px" height="792px" viewBox="0 0 612 792" enable-background="new 0 0 612 792" xml:space="preserve">
<path fill="#363639" stroke="#000000" d="M166.301,274.195c-9.469-9.931-10.094-38.669-10.094-38.669
	c-2.155-18.856,6.734-44.448,6.734-44.448c1.616-2.963,4.311-12.122,4.311-12.122c8.89-22.359,16.971-23.436,16.971-23.436
	c7.004-1.885,8.634-3.502,8.634-3.502c5.656-2.424-0.014-13.739-0.014-13.739c-5.657-6.196-11.313-5.926-11.313-5.926
	c-3.502-0.27-14.277,14.008-14.277,14.008c-15.354,23.167-25.193,64.047-25.193,64.047c-10.149,48.792,3.123,75.725,3.123,75.725
	L166.301,274.195z"/>
</svg>
