<?xml version="1.0" encoding="utf-8" ?>
<svg baseProfile="full" height="100%" version="1.1" width="100%" xmlns="http://www.w3.org/2000/svg" xmlns:ev="http://www.w3.org/2001/xml-events" xmlns:xlink="http://www.w3.org/1999/xlink"><defs /><circle cx="249.872127161" cy="333.893" fill="rgb(100%,0%,0%)" r="0.7" /><circle cx="246.879060657" cy="333.999001457" fill="rgb(100%,0%,0%)" r="0.7" /><circle cx="244.005420521" cy="334.844658115" fill="rgb(100%,0%,0%)" r="0.7" /><circle cx="241.262719743" cy="336.057804177" fill="rgb(100%,0%,0%)" r="0.7" /><circle cx="238.610028394" cy="337.458171195" fill="rgb(100%,0%,0%)" r="0.7" /><circle cx="236.024061121" cy="338.97857907" fill="rgb(100%,0%,0%)" r="0.7" /><circle cx="233.492808618" cy="340.588551708" fill="rgb(100%,0%,0%)" r="0.7" /><circle cx="231.015883184" cy="342.280830644" fill="rgb(100%,0%,0%)" r="0.7" /><circle cx="228.632416691" cy="344.101702759" fill="rgb(100%,0%,0%)" r="0.7" /><circle cx="226.386883102" cy="346.089968713" fill="rgb(100%,0%,0%)" r="0.7" /><circle cx="224.308818442" cy="348.252429238" fill="rgb(100%,0%,0%)" r="0.7" /><circle cx="222.432375508" cy="350.591727014" fill="rgb(100%,0%,0%)" r="0.7" /><circle cx="220.795882109" cy="353.104468372" fill="rgb(100%,0%,0%)" r="0.7" /><circle cx="219.441291072" cy="355.779429236" fill="rgb(100%,0%,0%)" r="0.7" /><circle cx="218.41503398" cy="358.596334912" fill="rgb(100%,0%,0%)" r="0.7" /><circle cx="217.777339129" cy="361.525015879" fill="rgb(100%,0%,0%)" r="0.7" /><circle cx="217.4913815" cy="364.50524613" fill="rgb(100%,0%,0%)" r="0.7" /><circle cx="217.308370486" cy="367.496310684" fill="rgb(100%,0%,0%)" r="0.7" /><circle cx="217.57141338" cy="370.482487238" fill="rgb(100%,0%,0%)" r="0.7" /><circle cx="218.193442673" cy="373.415791627" fill="rgb(100%,0%,0%)" r="0.7" /><circle cx="219.098136585" cy="376.275128405" fill="rgb(100%,0%,0%)" r="0.7" /><circle cx="220.225692536" cy="379.054486525" fill="rgb(100%,0%,0%)" r="0.7" /><circle cx="221.531191749" cy="381.755051625" fill="rgb(100%,0%,0%)" r="0.7" /><circle cx="222.98124759" cy="384.380977603" fill="rgb(100%,0%,0%)" r="0.7" /><circle cx="224.550947215" cy="386.937278664" fill="rgb(100%,0%,0%)" r="0.7" /><circle cx="226.221554731" cy="389.428871363" fill="rgb(100%,0%,0%)" r="0.7" /><circle cx="227.978878765" cy="391.860120058" fill="rgb(100%,0%,0%)" r="0.7" /><circle cx="229.812188243" cy="394.234639163" fill="rgb(100%,0%,0%)" r="0.7" /><circle cx="231.713493161" cy="396.555084266" fill="rgb(100%,0%,0%)" r="0.7" /><circle cx="233.677265215" cy="398.822912" fill="rgb(100%,0%,0%)" r="0.7" /><circle cx="235.70071776" cy="401.037669141" fill="rgb(100%,0%,0%)" r="0.7" /><circle cx="237.786059588" cy="403.19420188" fill="rgb(100%,0%,0%)" r="0.7" /><circle cx="239.947517955" cy="405.274365744" fill="rgb(100%,0%,0%)" r="0.7" /><circle cx="242.134362786" cy="407.328071049" fill="rgb(100%,0%,0%)" r="0.7" /><circle cx="244.330458834" cy="409.371890035" fill="rgb(100%,0%,0%)" r="0.7" /><circle cx="246.53328078" cy="411.408445978" fill="rgb(100%,0%,0%)" r="0.7" /><circle cx="248.74130133" cy="413.439372481" fill="rgb(100%,0%,0%)" r="0.7" /><circle cx="250.953493235" cy="415.465748244" fill="rgb(100%,0%,0%)" r="0.7" /><circle cx="253.169145515" cy="417.488346002" fill="rgb(100%,0%,0%)" r="0.7" /><circle cx="255.387727539" cy="419.507726955" fill="rgb(100%,0%,0%)" r="0.7" /><circle cx="257.608844242" cy="421.524324668" fill="rgb(100%,0%,0%)" r="0.7" /><circle cx="259.83217915" cy="423.538468958" fill="rgb(100%,0%,0%)" r="0.7" /><circle cx="262.057491564" cy="425.550431647" fill="rgb(100%,0%,0%)" r="0.7" /><circle cx="264.284581264" cy="427.560426607" fill="rgb(100%,0%,0%)" r="0.7" /><circle cx="266.513285987" cy="429.568629419" fill="rgb(100%,0%,0%)" r="0.7" /><circle cx="268.74347245" cy="431.575184542" fill="rgb(100%,0%,0%)" r="0.7" /><circle cx="270.975037215" cy="433.580216847" fill="rgb(100%,0%,0%)" r="0.7" /><circle cx="273.207875585" cy="435.58381117" fill="rgb(100%,0%,0%)" r="0.7" /><circle cx="275.44193764" cy="437.586067547" fill="rgb(100%,0%,0%)" r="0.7" /><circle cx="277.677141133" cy="439.587025697" fill="rgb(100%,0%,0%)" r="0.7" /><circle cx="279.91346723" cy="441.586750878" fill="rgb(100%,0%,0%)" r="0.7" /><circle cx="282.150862693" cy="443.585242665" fill="rgb(100%,0%,0%)" r="0.7" /><circle cx="284.389372275" cy="445.582542482" fill="rgb(100%,0%,0%)" r="0.7" /><circle cx="286.628980366" cy="447.578563139" fill="rgb(100%,0%,0%)" r="0.7" /><circle cx="288.869848003" cy="449.573199992" fill="rgb(100%,0%,0%)" r="0.7" /><circle cx="291.101468138" cy="451.578016437" fill="rgb(100%,0%,0%)" r="0.7" /><circle cx="293.312666139" cy="453.605478646" fill="rgb(100%,0%,0%)" r="0.7" /><circle cx="295.521484634" cy="455.635532676" fill="rgb(100%,0%,0%)" r="0.7" /><circle cx="297.727964336" cy="457.668129636" fill="rgb(100%,0%,0%)" r="0.7" /><circle cx="299.932144752" cy="459.703223352" fill="rgb(100%,0%,0%)" r="0.7" /><circle cx="302.134060979" cy="461.740767266" fill="rgb(100%,0%,0%)" r="0.7" /><circle cx="304.33374614" cy="463.780716526" fill="rgb(100%,0%,0%)" r="0.7" /><circle cx="306.531230245" cy="465.823026792" fill="rgb(100%,0%,0%)" r="0.7" /><circle cx="308.726557339" cy="467.867670104" fill="rgb(100%,0%,0%)" r="0.7" /><circle cx="310.919746648" cy="469.914598623" fill="rgb(100%,0%,0%)" r="0.7" /><circle cx="313.110833257" cy="471.963782399" fill="rgb(100%,0%,0%)" r="0.7" /><circle cx="315.299833124" cy="474.015176636" fill="rgb(100%,0%,0%)" r="0.7" /><circle cx="317.486794858" cy="476.068770125" fill="rgb(100%,0%,0%)" r="0.7" /><circle cx="319.671726365" cy="478.12451642" fill="rgb(100%,0%,0%)" r="0.7" /><circle cx="321.854652388" cy="480.182387719" fill="rgb(100%,0%,0%)" r="0.7" /><circle cx="324.035593824" cy="482.242355449" fill="rgb(100%,0%,0%)" r="0.7" /><circle cx="326.214578057" cy="484.304400004" fill="rgb(100%,0%,0%)" r="0.7" /><circle cx="328.391626972" cy="486.368499432" fill="rgb(100%,0%,0%)" r="0.7" /><circle cx="330.566742985" cy="488.434616123" fill="rgb(100%,0%,0%)" r="0.7" /><circle cx="332.739949777" cy="490.502735469" fill="rgb(100%,0%,0%)" r="0.7" /><circle cx="334.911273242" cy="492.572847917" fill="rgb(100%,0%,0%)" r="0.7" /><circle cx="337.080721257" cy="494.644929725" fill="rgb(100%,0%,0%)" r="0.7" /><circle cx="339.248309028" cy="496.718967167" fill="rgb(100%,0%,0%)" r="0.7" /><circle cx="341.414027738" cy="498.794926637" fill="rgb(100%,0%,0%)" r="0.7" /><circle cx="343.577902888" cy="500.872810663" fill="rgb(100%,0%,0%)" r="0.7" /><circle cx="345.739953598" cy="502.952619201" fill="rgb(100%,0%,0%)" r="0.7" /><circle cx="347.900167395" cy="505.034325495" fill="rgb(100%,0%,0%)" r="0.7" /><circle cx="350.058553097" cy="507.117927183" fill="rgb(100%,0%,0%)" r="0.7" /><circle cx="352.215107596" cy="509.203414679" fill="rgb(100%,0%,0%)" r="0.7" /><circle cx="354.36983507" cy="511.290790129" fill="rgb(100%,0%,0%)" r="0.7" /><circle cx="356.522734679" cy="513.380056059" fill="rgb(100%,0%,0%)" r="0.7" /><circle cx="358.673794441" cy="515.471210045" fill="rgb(100%,0%,0%)" r="0.7" /><circle cx="360.823006896" cy="517.564260742" fill="rgb(100%,0%,0%)" r="0.7" /><circle cx="362.970372598" cy="519.659232415" fill="rgb(100%,0%,0%)" r="0.7" /><circle cx="365.115834995" cy="521.75610273" fill="rgb(100%,0%,0%)" r="0.7" /><circle cx="367.259415603" cy="523.854936602" fill="rgb(100%,0%,0%)" r="0.7" /><circle cx="369.401066905" cy="525.955745006" fill="rgb(100%,0%,0%)" r="0.7" /><circle cx="371.540743584" cy="528.058557961" fill="rgb(100%,0%,0%)" r="0.7" /><circle cx="373.678382711" cy="530.163410104" fill="rgb(100%,0%,0%)" r="0.7" /><circle cx="375.813958321" cy="532.270402018" fill="rgb(100%,0%,0%)" r="0.7" /><circle cx="377.947347564" cy="534.37958014" fill="rgb(100%,0%,0%)" r="0.7" /><circle cx="380.078444983" cy="536.491069406" fill="rgb(100%,0%,0%)" r="0.7" /><circle cx="382.207090254" cy="538.605039398" fill="rgb(100%,0%,0%)" r="0.7" /><circle cx="384.333007826" cy="540.721725159" fill="rgb(100%,0%,0%)" r="0.7" /><circle cx="386.455766468" cy="542.841612553" fill="rgb(100%,0%,0%)" r="0.7" /><circle cx="388.574" cy="544.966" fill="rgb(100%,0%,0%)" r="0.7" /><circle cx="249.872127161" cy="333.893" fill="rgb(0%,0%,100%)" r="0.7" /><circle cx="252.872127161" cy="333.893" fill="rgb(0%,0%,100%)" r="0.7" /><circle cx="255.872127161" cy="333.893" fill="rgb(0%,0%,100%)" r="0.7" /><circle cx="258.872127161" cy="333.893" fill="rgb(0%,0%,100%)" r="0.7" /><circle cx="261.872127161" cy="333.893" fill="rgb(0%,0%,100%)" r="0.7" /><circle cx="264.872127161" cy="333.893" fill="rgb(0%,0%,100%)" r="0.7" /><circle cx="267.872127161" cy="333.893" fill="rgb(0%,0%,100%)" r="0.7" /><circle cx="270.872127161" cy="333.893" fill="rgb(0%,0%,100%)" r="0.7" /><circle cx="273.842644805" cy="334.248220552" fill="rgb(0%,0%,100%)" r="0.7" /><circle cx="276.608802079" cy="335.377576502" fill="rgb(0%,0%,100%)" r="0.7" /><circle cx="278.714074078" cy="337.474241644" fill="rgb(0%,0%,100%)" r="0.7" /><circle cx="279.567017909" cy="340.32164302" fill="rgb(0%,0%,100%)" r="0.7" /><circle cx="279.330539411" cy="343.30992318" fill="rgb(0%,0%,100%)" r="0.7" /><circle cx="278.828031689" cy="346.266564033" fill="rgb(0%,0%,100%)" r="0.7" /><circle cx="278.02284583" cy="349.15450214" fill="rgb(0%,0%,100%)" r="0.7" /><circle cx="276.76529492" cy="351.87214942" fill="rgb(0%,0%,100%)" r="0.7" /><circle cx="274.771674614" cy="354.085258565" fill="rgb(0%,0%,100%)" r="0.7" /><circle cx="272.158183819" cy="355.54293733" fill="rgb(0%,0%,100%)" r="0.7" /><circle cx="269.256293597" cy="356.224211908" fill="rgb(0%,0%,100%)" r="0.7" /><circle cx="266.344482386" cy="355.621090861" fill="rgb(0%,0%,100%)" r="0.7" /><circle cx="263.91783787" cy="353.884211825" fill="rgb(0%,0%,100%)" r="0.7" /><circle cx="261.195086125" cy="352.743540753" fill="rgb(0%,0%,100%)" r="0.7" /><circle cx="258.259084959" cy="353.082989639" fill="rgb(0%,0%,100%)" r="0.7" /><circle cx="256.073021751" cy="355.077258563" fill="rgb(0%,0%,100%)" r="0.7" /><circle cx="254.845025713" cy="357.806186308" fill="rgb(0%,0%,100%)" r="0.7" /><circle cx="253.828846547" cy="360.62796626" fill="rgb(0%,0%,100%)" r="0.7" /><circle cx="253.016676854" cy="363.51536605" fill="rgb(0%,0%,100%)" r="0.7" /><circle cx="252.396560663" cy="366.450014947" fill="rgb(0%,0%,100%)" r="0.7" /><circle cx="251.978037588" cy="369.420055863" fill="rgb(0%,0%,100%)" r="0.7" /><circle cx="251.778430529" cy="372.412674257" fill="rgb(0%,0%,100%)" r="0.7" /><circle cx="251.819509684" cy="375.41150694" fill="rgb(0%,0%,100%)" r="0.7" /><circle cx="252.125080029" cy="378.394824729" fill="rgb(0%,0%,100%)" r="0.7" /><circle cx="252.717914257" cy="381.334363823" fill="rgb(0%,0%,100%)" r="0.7" /><circle cx="253.615611522" cy="384.195356245" fill="rgb(0%,0%,100%)" r="0.7" /><circle cx="254.825889139" cy="386.938623172" fill="rgb(0%,0%,100%)" r="0.7" /><circle cx="256.342787523" cy="389.524933505" fill="rgb(0%,0%,100%)" r="0.7" /><circle cx="258.145709507" cy="391.920731344" fill="rgb(0%,0%,100%)" r="0.7" /><circle cx="260.202140665" cy="394.103029932" fill="rgb(0%,0%,100%)" r="0.7" /><circle cx="262.371677499" cy="396.17498201" fill="rgb(0%,0%,100%)" r="0.7" /><circle cx="264.55187228" cy="398.235748875" fill="rgb(0%,0%,100%)" r="0.7" /><circle cx="266.740282886" cy="400.287794462" fill="rgb(0%,0%,100%)" r="0.7" /><circle cx="268.936236506" cy="402.33174981" fill="rgb(0%,0%,100%)" r="0.7" /><circle cx="271.139517468" cy="404.367830037" fill="rgb(0%,0%,100%)" r="0.7" /><circle cx="273.350063316" cy="406.395986352" fill="rgb(0%,0%,100%)" r="0.7" /><circle cx="275.567998842" cy="408.416084718" fill="rgb(0%,0%,100%)" r="0.7" /><circle cx="277.793492785" cy="410.427834646" fill="rgb(0%,0%,100%)" r="0.7" /><circle cx="280.026834167" cy="412.430883096" fill="rgb(0%,0%,100%)" r="0.7" /><circle cx="282.26836397" cy="414.424757682" fill="rgb(0%,0%,100%)" r="0.7" /><circle cx="284.518516005" cy="416.408896325" fill="rgb(0%,0%,100%)" r="0.7" /><circle cx="286.777808215" cy="418.382622016" fill="rgb(0%,0%,100%)" r="0.7" /><circle cx="289.046852282" cy="420.345124155" fill="rgb(0%,0%,100%)" r="0.7" /><circle cx="291.32637939" cy="422.295442413" fill="rgb(0%,0%,100%)" r="0.7" /><circle cx="293.617249889" cy="424.232422275" fill="rgb(0%,0%,100%)" r="0.7" /><circle cx="295.920490373" cy="426.15467506" fill="rgb(0%,0%,100%)" r="0.7" /><circle cx="298.23732991" cy="428.060510309" fill="rgb(0%,0%,100%)" r="0.7" /><circle cx="300.569262408" cy="429.947851254" fill="rgb(0%,0%,100%)" r="0.7" /><circle cx="302.918105745" cy="431.814090033" fill="rgb(0%,0%,100%)" r="0.7" /><circle cx="305.286144578" cy="433.655920696" fill="rgb(0%,0%,100%)" r="0.7" /><circle cx="307.676244011" cy="435.469004562" fill="rgb(0%,0%,100%)" r="0.7" /><circle cx="310.092151956" cy="437.247537939" fill="rgb(0%,0%,100%)" r="0.7" /><circle cx="312.499042481" cy="439.038090731" fill="rgb(0%,0%,100%)" r="0.7" /><circle cx="314.889718787" cy="440.850410952" fill="rgb(0%,0%,100%)" r="0.7" /><circle cx="317.274879929" cy="442.669996144" fill="rgb(0%,0%,100%)" r="0.7" /><circle cx="319.655262489" cy="444.495894992" fill="rgb(0%,0%,100%)" r="0.7" /><circle cx="322.0311342" cy="446.32760016" fill="rgb(0%,0%,100%)" r="0.7" /><circle cx="324.402723889" cy="448.164905101" fill="rgb(0%,0%,100%)" r="0.7" /><circle cx="326.770079391" cy="450.007642706" fill="rgb(0%,0%,100%)" r="0.7" /><circle cx="329.133215073" cy="451.855732708" fill="rgb(0%,0%,100%)" r="0.7" /><circle cx="331.492185241" cy="453.709205982" fill="rgb(0%,0%,100%)" r="0.7" /><circle cx="333.846895465" cy="455.568037717" fill="rgb(0%,0%,100%)" r="0.7" /><circle cx="336.19732404" cy="457.432310059" fill="rgb(0%,0%,100%)" r="0.7" /><circle cx="338.543372202" cy="459.302087536" fill="rgb(0%,0%,100%)" r="0.7" /><circle cx="340.884937854" cy="461.177471213" fill="rgb(0%,0%,100%)" r="0.7" /><circle cx="343.221914943" cy="463.058596411" fill="rgb(0%,0%,100%)" r="0.7" /><circle cx="345.554141379" cy="464.945590024" fill="rgb(0%,0%,100%)" r="0.7" /><circle cx="347.881454243" cy="466.83861508" fill="rgb(0%,0%,100%)" r="0.7" /><circle cx="350.203696815" cy="468.737878088" fill="rgb(0%,0%,100%)" r="0.7" /><circle cx="352.520653883" cy="470.643578328" fill="rgb(0%,0%,100%)" r="0.7" /><circle cx="354.832108373" cy="472.555956803" fill="rgb(0%,0%,100%)" r="0.7" /><circle cx="357.137805397" cy="474.475270416" fill="rgb(0%,0%,100%)" r="0.7" /><circle cx="359.437467937" cy="476.40180941" fill="rgb(0%,0%,100%)" r="0.7" /><circle cx="361.730788058" cy="478.335895713" fill="rgb(0%,0%,100%)" r="0.7" /><circle cx="364.017420735" cy="480.277884514" fill="rgb(0%,0%,100%)" r="0.7" /><circle cx="366.296979029" cy="482.228168329" fill="rgb(0%,0%,100%)" r="0.7" /><circle cx="368.569035715" cy="484.187188348" fill="rgb(0%,0%,100%)" r="0.7" /><circle cx="370.833105683" cy="486.155431404" fill="rgb(0%,0%,100%)" r="0.7" /><circle cx="373.088642848" cy="488.133441884" fill="rgb(0%,0%,100%)" r="0.7" /><circle cx="375.335035331" cy="490.121835627" fill="rgb(0%,0%,100%)" r="0.7" /><circle cx="377.571579727" cy="492.121299564" fill="rgb(0%,0%,100%)" r="0.7" /><circle cx="379.797471745" cy="494.132610979" fill="rgb(0%,0%,100%)" r="0.7" /><circle cx="382.01179852" cy="496.156665845" fill="rgb(0%,0%,100%)" r="0.7" /><circle cx="384.21346734" cy="498.194458345" fill="rgb(0%,0%,100%)" r="0.7" /><circle cx="386.401245464" cy="500.247174904" fill="rgb(0%,0%,100%)" r="0.7" /><circle cx="388.573636546" cy="502.316155011" fill="rgb(0%,0%,100%)" r="0.7" /><circle cx="390.72886608" cy="504.402976519" fill="rgb(0%,0%,100%)" r="0.7" /><circle cx="392.864834784" cy="506.509548832" fill="rgb(0%,0%,100%)" r="0.7" /><circle cx="394.978889925" cy="508.638078193" fill="rgb(0%,0%,100%)" r="0.7" /><circle cx="397.067793594" cy="510.791302809" fill="rgb(0%,0%,100%)" r="0.7" /><circle cx="399.127411976" cy="512.972572833" fill="rgb(0%,0%,100%)" r="0.7" /><circle cx="401.152335125" cy="515.186045931" fill="rgb(0%,0%,100%)" r="0.7" /><circle cx="403.135367279" cy="517.437077182" fill="rgb(0%,0%,100%)" r="0.7" /><circle cx="405.066588806" cy="519.73274114" fill="rgb(0%,0%,100%)" r="0.7" /><circle cx="406.931534044" cy="522.082466345" fill="rgb(0%,0%,100%)" r="0.7" /><circle cx="408.708139512" cy="524.499550694" fill="rgb(0%,0%,100%)" r="0.7" /><circle cx="408.421412948" cy="526.06763602" fill="rgb(0%,0%,100%)" r="0.7" /><circle cx="405.438155989" cy="526.384144979" fill="rgb(0%,0%,100%)" r="0.7" /><circle cx="402.454899031" cy="526.700653938" fill="rgb(0%,0%,100%)" r="0.7" /><circle cx="399.471642073" cy="527.017162898" fill="rgb(0%,0%,100%)" r="0.7" /><circle cx="396.488385115" cy="527.333671857" fill="rgb(0%,0%,100%)" r="0.7" /><circle cx="393.505128157" cy="527.650180816" fill="rgb(0%,0%,100%)" r="0.7" /><circle cx="390.521871198" cy="527.966689775" fill="rgb(0%,0%,100%)" r="0.7" /><circle cx="387.53861424" cy="528.283198734" fill="rgb(0%,0%,100%)" r="0.7" /><circle cx="387.081465992" cy="530.645088766" fill="rgb(0%,0%,100%)" r="0.7" /><circle cx="387.392443455" cy="533.628927404" fill="rgb(0%,0%,100%)" r="0.7" /><circle cx="387.703420917" cy="536.612766042" fill="rgb(0%,0%,100%)" r="0.7" /><circle cx="388.01439838" cy="539.59660468" fill="rgb(0%,0%,100%)" r="0.7" /><circle cx="388.325375843" cy="542.580443318" fill="rgb(0%,0%,100%)" r="0.7" /><circle cx="388.574" cy="544.966" fill="rgb(0%,0%,100%)" r="0.7" /></svg>