<?xml version="1.0" encoding="utf-8" ?>
<svg baseProfile="full" height="100%" version="1.1" width="100%" xmlns="http://www.w3.org/2000/svg" xmlns:ev="http://www.w3.org/2001/xml-events" xmlns:xlink="http://www.w3.org/1999/xlink"><defs /><circle cx="283.132631714" cy="194.180129606" fill="rgb(100%,0%,0%)" r="0.7" /><circle cx="280.154588736" cy="194.337831863" fill="rgb(100%,0%,0%)" r="0.7" /><circle cx="277.278741948" cy="195.180274495" fill="rgb(100%,0%,0%)" r="0.7" /><circle cx="274.563352059" cy="196.449518973" fill="rgb(100%,0%,0%)" r="0.7" /><circle cx="272.051206063" cy="198.08518179" fill="rgb(100%,0%,0%)" r="0.7" /><circle cx="269.773348019" cy="200.034408352" fill="rgb(100%,0%,0%)" r="0.7" /><circle cx="267.745968163" cy="202.243444563" fill="rgb(100%,0%,0%)" r="0.7" /><circle cx="265.970856429" cy="204.660263356" fill="rgb(100%,0%,0%)" r="0.7" /><circle cx="264.438649729" cy="207.238260492" fill="rgb(100%,0%,0%)" r="0.7" /><circle cx="262.959837692" cy="209.84477806" fill="rgb(100%,0%,0%)" r="0.7" /><circle cx="261.764785512" cy="212.595399481" fill="rgb(100%,0%,0%)" r="0.7" /><circle cx="260.772811334" cy="215.426172114" fill="rgb(100%,0%,0%)" r="0.7" /><circle cx="259.930271767" cy="218.30514726" fill="rgb(100%,0%,0%)" r="0.7" /><circle cx="259.207291816" cy="221.216547725" fill="rgb(100%,0%,0%)" r="0.7" /><circle cx="258.584196383" cy="224.151010322" fill="rgb(100%,0%,0%)" r="0.7" /><circle cx="258.046865263" cy="227.10239225" fill="rgb(100%,0%,0%)" r="0.7" /><circle cx="257.584587688" cy="230.066500948" fill="rgb(100%,0%,0%)" r="0.7" /><circle cx="257.188951897" cy="233.040246391" fill="rgb(100%,0%,0%)" r="0.7" /><circle cx="256.853155102" cy="236.021333276" fill="rgb(100%,0%,0%)" r="0.7" /><circle cx="256.571575448" cy="239.008051499" fill="rgb(100%,0%,0%)" r="0.7" /><circle cx="256.339496071" cy="241.999029415" fill="rgb(100%,0%,0%)" r="0.7" /><circle cx="256.152898042" cy="244.993191707" fill="rgb(100%,0%,0%)" r="0.7" /><circle cx="256.008317465" cy="247.989685249" fill="rgb(100%,0%,0%)" r="0.7" /><circle cx="255.902739978" cy="250.987805484" fill="rgb(100%,0%,0%)" r="0.7" /><circle cx="255.810399955" cy="253.986037622" fill="rgb(100%,0%,0%)" r="0.7" /><circle cx="255.613860187" cy="256.979597317" fill="rgb(100%,0%,0%)" r="0.7" /><circle cx="255.408718945" cy="259.972559842" fill="rgb(100%,0%,0%)" r="0.7" /><circle cx="255.196750903" cy="262.965064539" fill="rgb(100%,0%,0%)" r="0.7" /><circle cx="254.978612018" cy="265.957129035" fill="rgb(100%,0%,0%)" r="0.7" /><circle cx="254.754626889" cy="268.948772329" fill="rgb(100%,0%,0%)" r="0.7" /><circle cx="254.524965061" cy="271.939975338" fill="rgb(100%,0%,0%)" r="0.7" /><circle cx="254.28970365" cy="274.930715687" fill="rgb(100%,0%,0%)" r="0.7" /><circle cx="254.048852429" cy="277.921033619" fill="rgb(100%,0%,0%)" r="0.7" /><circle cx="253.802380865" cy="280.91089326" fill="rgb(100%,0%,0%)" r="0.7" /><circle cx="253.550219711" cy="283.900278701" fill="rgb(100%,0%,0%)" r="0.7" /><circle cx="253.292267216" cy="286.889180592" fill="rgb(100%,0%,0%)" r="0.7" /><circle cx="253.028396602" cy="289.877544274" fill="rgb(100%,0%,0%)" r="0.7" /><circle cx="252.75844783" cy="292.865380384" fill="rgb(100%,0%,0%)" r="0.7" /><circle cx="252.482239449" cy="295.852634075" fill="rgb(100%,0%,0%)" r="0.7" /><circle cx="252.199557921" cy="298.839298221" fill="rgb(100%,0%,0%)" r="0.7" /><circle cx="251.910166537" cy="301.825303962" fill="rgb(100%,0%,0%)" r="0.7" /><circle cx="251.613793127" cy="304.810630524" fill="rgb(100%,0%,0%)" r="0.7" /><circle cx="251.310135894" cy="307.795217121" fill="rgb(100%,0%,0%)" r="0.7" /><circle cx="250.998853781" cy="310.779026513" fill="rgb(100%,0%,0%)" r="0.7" /><circle cx="250.679568282" cy="313.761986135" fill="rgb(100%,0%,0%)" r="0.7" /><circle cx="250.351853509" cy="316.744034498" fill="rgb(100%,0%,0%)" r="0.7" /><circle cx="250.015233343" cy="319.725088571" fill="rgb(100%,0%,0%)" r="0.7" /><circle cx="249.669171705" cy="322.705062286" fill="rgb(100%,0%,0%)" r="0.7" /><circle cx="249.313064884" cy="325.68385039" fill="rgb(100%,0%,0%)" r="0.7" /><circle cx="248.946228667" cy="328.661338364" fill="rgb(100%,0%,0%)" r="0.7" /><circle cx="248.567886025" cy="331.637383735" fill="rgb(100%,0%,0%)" r="0.7" /><circle cx="248.177147032" cy="334.61183057" fill="rgb(100%,0%,0%)" r="0.7" /><circle cx="247.772989403" cy="337.584480388" fill="rgb(100%,0%,0%)" r="0.7" /><circle cx="247.354226612" cy="340.555108473" fill="rgb(100%,0%,0%)" r="0.7" /><circle cx="246.919474403" cy="343.523425846" fill="rgb(100%,0%,0%)" r="0.7" /><circle cx="246.467092639" cy="346.489125633" fill="rgb(100%,0%,0%)" r="0.7" /><circle cx="245.995135847" cy="349.451752081" fill="rgb(100%,0%,0%)" r="0.7" /><circle cx="245.501239295" cy="352.410823448" fill="rgb(100%,0%,0%)" r="0.7" /><circle cx="244.982518911" cy="355.365622181" fill="rgb(100%,0%,0%)" r="0.7" /><circle cx="244.435360897" cy="358.315296388" fill="rgb(100%,0%,0%)" r="0.7" /><circle cx="243.855169926" cy="361.258639744" fill="rgb(100%,0%,0%)" r="0.7" /><circle cx="243.256273515" cy="364.198078107" fill="rgb(100%,0%,0%)" r="0.7" /><circle cx="242.710705647" cy="367.148066172" fill="rgb(100%,0%,0%)" r="0.7" /><circle cx="242.169514703" cy="370.098818422" fill="rgb(100%,0%,0%)" r="0.7" /><circle cx="241.631973097" cy="373.050276489" fill="rgb(100%,0%,0%)" r="0.7" /><circle cx="241.097863703" cy="376.002350582" fill="rgb(100%,0%,0%)" r="0.7" /><circle cx="240.56711859" cy="378.955024618" fill="rgb(100%,0%,0%)" r="0.7" /><circle cx="240.039747135" cy="381.908326005" fill="rgb(100%,0%,0%)" r="0.7" /><circle cx="239.51582784" cy="384.862213707" fill="rgb(100%,0%,0%)" r="0.7" /><circle cx="238.995467523" cy="387.81674125" fill="rgb(100%,0%,0%)" r="0.7" /><circle cx="238.478820306" cy="390.771925487" fill="rgb(100%,0%,0%)" r="0.7" /><circle cx="237.966080915" cy="393.727781581" fill="rgb(100%,0%,0%)" r="0.7" /><circle cx="237.457480851" cy="396.684359279" fill="rgb(100%,0%,0%)" r="0.7" /><circle cx="236.95330229" cy="399.641691073" fill="rgb(100%,0%,0%)" r="0.7" /><circle cx="236.453879447" cy="402.59982722" fill="rgb(100%,0%,0%)" r="0.7" /><circle cx="235.959609861" cy="405.558831282" fill="rgb(100%,0%,0%)" r="0.7" /><circle cx="235.470970569" cy="408.518769469" fill="rgb(100%,0%,0%)" r="0.7" /><circle cx="234.988534989" cy="411.479727704" fill="rgb(100%,0%,0%)" r="0.7" /><circle cx="234.513002048" cy="414.441801022" fill="rgb(100%,0%,0%)" r="0.7" /><circle cx="234.045232452" cy="417.405108199" fill="rgb(100%,0%,0%)" r="0.7" /><circle cx="233.586303326" cy="420.369800633" fill="rgb(100%,0%,0%)" r="0.7" /><circle cx="233.137594379" cy="423.336045861" fill="rgb(100%,0%,0%)" r="0.7" /><circle cx="232.700907229" cy="426.304097337" fill="rgb(100%,0%,0%)" r="0.7" /><circle cx="232.278685867" cy="429.274236973" fill="rgb(100%,0%,0%)" r="0.7" /><circle cx="231.874370662" cy="432.246860961" fill="rgb(100%,0%,0%)" r="0.7" /><circle cx="231.493082224" cy="435.222511736" fill="rgb(100%,0%,0%)" r="0.7" /><circle cx="231.143043992" cy="438.202008951" fill="rgb(100%,0%,0%)" r="0.7" /><circle cx="230.839101271" cy="441.186527869" fill="rgb(100%,0%,0%)" r="0.7" /><circle cx="230.613907727" cy="444.177920128" fill="rgb(100%,0%,0%)" r="0.7" /><circle cx="230.348291324" cy="447.165399828" fill="rgb(100%,0%,0%)" r="0.7" /><circle cx="230.025078419" cy="450.147946577" fill="rgb(100%,0%,0%)" r="0.7" /><circle cx="229.680419155" cy="453.128067882" fill="rgb(100%,0%,0%)" r="0.7" /><circle cx="229.316019954" cy="456.105867492" fill="rgb(100%,0%,0%)" r="0.7" /><circle cx="228.932301948" cy="459.081223107" fill="rgb(100%,0%,0%)" r="0.7" /><circle cx="228.529077843" cy="462.053986674" fill="rgb(100%,0%,0%)" r="0.7" /><circle cx="228.105765697" cy="465.023964566" fill="rgb(100%,0%,0%)" r="0.7" /><circle cx="227.661469448" cy="467.990880254" fill="rgb(100%,0%,0%)" r="0.7" /><circle cx="227.194994992" cy="470.954391112" fill="rgb(100%,0%,0%)" r="0.7" /><circle cx="226.704838633" cy="473.914068578" fill="rgb(100%,0%,0%)" r="0.7" /><circle cx="226.189146245" cy="476.869401638" fill="rgb(100%,0%,0%)" r="0.7" /><circle cx="225.645654907" cy="479.819749935" fill="rgb(100%,0%,0%)" r="0.7" /><circle cx="225.071603236" cy="482.764302191" fill="rgb(100%,0%,0%)" r="0.7" /><circle cx="224.463600959" cy="485.702028011" fill="rgb(100%,0%,0%)" r="0.7" /><circle cx="223.817445718" cy="488.631588637" fill="rgb(100%,0%,0%)" r="0.7" /><circle cx="223.127851407" cy="491.551227854" fill="rgb(100%,0%,0%)" r="0.7" /><circle cx="222.388057023" cy="494.458540509" fill="rgb(100%,0%,0%)" r="0.7" /><circle cx="221.589211297" cy="497.35016025" fill="rgb(100%,0%,0%)" r="0.7" /><circle cx="220.719388021" cy="500.221203074" fill="rgb(100%,0%,0%)" r="0.7" /><circle cx="219.761951219" cy="503.064159686" fill="rgb(100%,0%,0%)" r="0.7" /><circle cx="218.692588671" cy="505.866820239" fill="rgb(100%,0%,0%)" r="0.7" /><circle cx="217.473641329" cy="508.607472491" fill="rgb(100%,0%,0%)" r="0.7" /><circle cx="216.042230057" cy="511.242597746" fill="rgb(100%,0%,0%)" r="0.7" /><circle cx="216.853500779" cy="511.383635892" fill="rgb(100%,0%,0%)" r="0.7" /><circle cx="219.419094273" cy="509.828730743" fill="rgb(100%,0%,0%)" r="0.7" /><circle cx="221.984687768" cy="508.273825595" fill="rgb(100%,0%,0%)" r="0.7" /><circle cx="224.550281263" cy="506.718920447" fill="rgb(100%,0%,0%)" r="0.7" /><circle cx="227.036680051" cy="505.669984098" fill="rgb(100%,0%,0%)" r="0.7" /><circle cx="229.004460912" cy="507.934457212" fill="rgb(100%,0%,0%)" r="0.7" /><circle cx="230.972241773" cy="510.198930325" fill="rgb(100%,0%,0%)" r="0.7" /><circle cx="232.940022635" cy="512.463403439" fill="rgb(100%,0%,0%)" r="0.7" /><circle cx="234.907803496" cy="514.727876552" fill="rgb(100%,0%,0%)" r="0.7" /><circle cx="236.875584357" cy="516.992349666" fill="rgb(100%,0%,0%)" r="0.7" /><circle cx="238.843365218" cy="519.256822779" fill="rgb(100%,0%,0%)" r="0.7" /><circle cx="240.001" cy="520.589" fill="rgb(100%,0%,0%)" r="0.7" /><circle cx="283.132631714" cy="194.180129606" fill="rgb(0%,0%,100%)" r="0.7" /><circle cx="285.975617616" cy="195.096076257" fill="rgb(0%,0%,100%)" r="0.7" /><circle cx="288.466413451" cy="196.756424192" fill="rgb(0%,0%,100%)" r="0.7" /><circle cx="290.60295736" cy="198.858156176" fill="rgb(0%,0%,100%)" r="0.7" /><circle cx="292.449263349" cy="201.220819887" fill="rgb(0%,0%,100%)" r="0.7" /><circle cx="294.062651094" cy="203.749020434" fill="rgb(0%,0%,100%)" r="0.7" /><circle cx="295.480695986" cy="206.392036102" fill="rgb(0%,0%,100%)" r="0.7" /><circle cx="296.714406692" cy="209.125930512" fill="rgb(0%,0%,100%)" r="0.7" /><circle cx="297.907076402" cy="211.877867477" fill="rgb(0%,0%,100%)" r="0.7" /><circle cx="298.963695432" cy="214.685199612" fill="rgb(0%,0%,100%)" r="0.7" /><circle cx="299.869972703" cy="217.544711106" fill="rgb(0%,0%,100%)" r="0.7" /><circle cx="300.645186896" cy="220.442593897" fill="rgb(0%,0%,100%)" r="0.7" /><circle cx="301.30558386" cy="223.36884012" fill="rgb(0%,0%,100%)" r="0.7" /><circle cx="301.864799343" cy="226.316132815" fill="rgb(0%,0%,100%)" r="0.7" /><circle cx="302.334285211" cy="229.279054754" fill="rgb(0%,0%,100%)" r="0.7" /><circle cx="302.723699853" cy="232.253600253" fill="rgb(0%,0%,100%)" r="0.7" /><circle cx="303.041214089" cy="235.236674461" fill="rgb(0%,0%,100%)" r="0.7" /><circle cx="303.29379595" cy="238.225972662" fill="rgb(0%,0%,100%)" r="0.7" /><circle cx="303.487411498" cy="241.219673567" fill="rgb(0%,0%,100%)" r="0.7" /><circle cx="303.627205869" cy="244.216389296" fill="rgb(0%,0%,100%)" r="0.7" /><circle cx="303.717637632" cy="247.214987246" fill="rgb(0%,0%,100%)" r="0.7" /><circle cx="303.762595474" cy="250.214625474" fill="rgb(0%,0%,100%)" r="0.7" /><circle cx="303.765485223" cy="253.214603102" fill="rgb(0%,0%,100%)" r="0.7" /><circle cx="303.729305523" cy="256.214366889" fill="rgb(0%,0%,100%)" r="0.7" /><circle cx="303.656707844" cy="259.213474065" fill="rgb(0%,0%,100%)" r="0.7" /><circle cx="303.550046186" cy="262.211565264" fill="rgb(0%,0%,100%)" r="0.7" /><circle cx="303.411418204" cy="265.208346834" fill="rgb(0%,0%,100%)" r="0.7" /><circle cx="303.242698635" cy="268.203588486" fill="rgb(0%,0%,100%)" r="0.7" /><circle cx="303.045568545" cy="271.197093397" fill="rgb(0%,0%,100%)" r="0.7" /><circle cx="302.821537853" cy="274.188710541" fill="rgb(0%,0%,100%)" r="0.7" /><circle cx="302.571966647" cy="277.178305938" fill="rgb(0%,0%,100%)" r="0.7" /><circle cx="302.298080952" cy="280.16577163" fill="rgb(0%,0%,100%)" r="0.7" /><circle cx="302.000986776" cy="283.151019339" fill="rgb(0%,0%,100%)" r="0.7" /><circle cx="301.681682347" cy="286.133971416" fill="rgb(0%,0%,100%)" r="0.7" /><circle cx="301.341067424" cy="289.114562376" fill="rgb(0%,0%,100%)" r="0.7" /><circle cx="300.979949818" cy="292.092747345" fill="rgb(0%,0%,100%)" r="0.7" /><circle cx="300.59905565" cy="295.068466662" fill="rgb(0%,0%,100%)" r="0.7" /><circle cx="300.199032073" cy="298.041663686" fill="rgb(0%,0%,100%)" r="0.7" /><circle cx="299.780444767" cy="301.012322373" fill="rgb(0%,0%,100%)" r="0.7" /><circle cx="299.343794419" cy="303.980357453" fill="rgb(0%,0%,100%)" r="0.7" /><circle cx="298.889493818" cy="306.945769389" fill="rgb(0%,0%,100%)" r="0.7" /><circle cx="298.417889127" cy="309.908476053" fill="rgb(0%,0%,100%)" r="0.7" /><circle cx="297.929239237" cy="312.868408656" fill="rgb(0%,0%,100%)" r="0.7" /><circle cx="297.423707104" cy="315.825488972" fill="rgb(0%,0%,100%)" r="0.7" /><circle cx="296.901333044" cy="318.779665347" fill="rgb(0%,0%,100%)" r="0.7" /><circle cx="296.362021018" cy="321.730795124" fill="rgb(0%,0%,100%)" r="0.7" /><circle cx="295.805471428" cy="324.678687218" fill="rgb(0%,0%,100%)" r="0.7" /><circle cx="295.231048142" cy="327.623177631" fill="rgb(0%,0%,100%)" r="0.7" /><circle cx="294.637551484" cy="330.563926014" fill="rgb(0%,0%,100%)" r="0.7" /><circle cx="294.022489809" cy="333.500161476" fill="rgb(0%,0%,100%)" r="0.7" /><circle cx="293.373989286" cy="336.42911343" fill="rgb(0%,0%,100%)" r="0.7" /><circle cx="292.678116052" cy="339.347300453" fill="rgb(0%,0%,100%)" r="0.7" /><circle cx="291.974693671" cy="342.263669002" fill="rgb(0%,0%,100%)" r="0.7" /><circle cx="291.265452593" cy="345.178622033" fill="rgb(0%,0%,100%)" r="0.7" /><circle cx="290.551543584" cy="348.092434756" fill="rgb(0%,0%,100%)" r="0.7" /><circle cx="289.833776749" cy="351.005309008" fill="rgb(0%,0%,100%)" r="0.7" /><circle cx="289.112749304" cy="353.91739176" fill="rgb(0%,0%,100%)" r="0.7" /><circle cx="288.38892639" cy="356.828754029" fill="rgb(0%,0%,100%)" r="0.7" /><circle cx="287.662652999" cy="359.73952761" fill="rgb(0%,0%,100%)" r="0.7" /><circle cx="286.934225227" cy="362.649736662" fill="rgb(0%,0%,100%)" r="0.7" /><circle cx="286.203863458" cy="365.559483685" fill="rgb(0%,0%,100%)" r="0.7" /><circle cx="285.471767177" cy="368.468784379" fill="rgb(0%,0%,100%)" r="0.7" /><circle cx="284.738094259" cy="371.377688566" fill="rgb(0%,0%,100%)" r="0.7" /><circle cx="284.002981637" cy="374.286225599" fill="rgb(0%,0%,100%)" r="0.7" /><circle cx="283.266542638" cy="377.194435439" fill="rgb(0%,0%,100%)" r="0.7" /><circle cx="282.528879969" cy="380.102332805" fill="rgb(0%,0%,100%)" r="0.7" /><circle cx="281.790080727" cy="383.009938812" fill="rgb(0%,0%,100%)" r="0.7" /><circle cx="281.050219764" cy="385.917276866" fill="rgb(0%,0%,100%)" r="0.7" /><circle cx="280.309364226" cy="388.824362097" fill="rgb(0%,0%,100%)" r="0.7" /><circle cx="279.567573273" cy="391.731208245" fill="rgb(0%,0%,100%)" r="0.7" /><circle cx="278.824899642" cy="394.637826179" fill="rgb(0%,0%,100%)" r="0.7" /><circle cx="278.081387686" cy="397.544235283" fill="rgb(0%,0%,100%)" r="0.7" /><circle cx="277.337080433" cy="400.450438889" fill="rgb(0%,0%,100%)" r="0.7" /><circle cx="276.592013939" cy="403.356448814" fill="rgb(0%,0%,100%)" r="0.7" /><circle cx="275.846221933" cy="406.262269209" fill="rgb(0%,0%,100%)" r="0.7" /><circle cx="275.09973131" cy="409.167915683" fill="rgb(0%,0%,100%)" r="0.7" /><circle cx="274.35257336" cy="412.073372833" fill="rgb(0%,0%,100%)" r="0.7" /><circle cx="273.604762205" cy="414.978679011" fill="rgb(0%,0%,100%)" r="0.7" /><circle cx="272.856319419" cy="417.883831119" fill="rgb(0%,0%,100%)" r="0.7" /><circle cx="272.107265989" cy="420.788816168" fill="rgb(0%,0%,100%)" r="0.7" /><circle cx="271.357616185" cy="423.69363489" fill="rgb(0%,0%,100%)" r="0.7" /><circle cx="270.607374295" cy="426.598313588" fill="rgb(0%,0%,100%)" r="0.7" /><circle cx="269.856547859" cy="429.502851384" fill="rgb(0%,0%,100%)" r="0.7" /><circle cx="269.105145965" cy="432.407224327" fill="rgb(0%,0%,100%)" r="0.7" /><circle cx="268.353160259" cy="435.311454187" fill="rgb(0%,0%,100%)" r="0.7" /><circle cx="267.600592292" cy="438.215494459" fill="rgb(0%,0%,100%)" r="0.7" /><circle cx="266.847402499" cy="441.11941094" fill="rgb(0%,0%,100%)" r="0.7" /><circle cx="266.093551551" cy="444.023184827" fill="rgb(0%,0%,100%)" r="0.7" /><circle cx="265.338962459" cy="446.926746615" fill="rgb(0%,0%,100%)" r="0.7" /><circle cx="264.584848264" cy="449.830365654" fill="rgb(0%,0%,100%)" r="0.7" /><circle cx="263.826126731" cy="452.732830406" fill="rgb(0%,0%,100%)" r="0.7" /><circle cx="263.048837707" cy="455.630387807" fill="rgb(0%,0%,100%)" r="0.7" /><circle cx="262.253113745" cy="458.522923046" fill="rgb(0%,0%,100%)" r="0.7" /><circle cx="261.439063307" cy="461.410359759" fill="rgb(0%,0%,100%)" r="0.7" /><circle cx="260.606784872" cy="464.29260312" fill="rgb(0%,0%,100%)" r="0.7" /><circle cx="259.756367202" cy="467.169536286" fill="rgb(0%,0%,100%)" r="0.7" /><circle cx="258.887872797" cy="470.041071289" fill="rgb(0%,0%,100%)" r="0.7" /><circle cx="258.001353751" cy="472.907088519" fill="rgb(0%,0%,100%)" r="0.7" /><circle cx="257.096839194" cy="475.767471445" fill="rgb(0%,0%,100%)" r="0.7" /><circle cx="256.174332601" cy="478.622104986" fill="rgb(0%,0%,100%)" r="0.7" /><circle cx="255.233811314" cy="481.47086516" fill="rgb(0%,0%,100%)" r="0.7" /><circle cx="254.275230918" cy="484.31359285" fill="rgb(0%,0%,100%)" r="0.7" /><circle cx="253.298506321" cy="487.150133933" fill="rgb(0%,0%,100%)" r="0.7" /><circle cx="252.303509897" cy="489.980321402" fill="rgb(0%,0%,100%)" r="0.7" /><circle cx="251.290070954" cy="492.803948883" fill="rgb(0%,0%,100%)" r="0.7" /><circle cx="250.257948985" cy="495.620808169" fill="rgb(0%,0%,100%)" r="0.7" /><circle cx="249.206831134" cy="498.430643584" fill="rgb(0%,0%,100%)" r="0.7" /><circle cx="248.136316645" cy="501.233123228" fill="rgb(0%,0%,100%)" r="0.7" /><circle cx="247.045845646" cy="504.027919519" fill="rgb(0%,0%,100%)" r="0.7" /><circle cx="245.934694691" cy="506.814553358" fill="rgb(0%,0%,100%)" r="0.7" /><circle cx="244.801855104" cy="509.592430431" fill="rgb(0%,0%,100%)" r="0.7" /><circle cx="243.645861223" cy="512.360761183" fill="rgb(0%,0%,100%)" r="0.7" /><circle cx="242.464445148" cy="515.118330568" fill="rgb(0%,0%,100%)" r="0.7" /><circle cx="241.253493662" cy="517.863052336" fill="rgb(0%,0%,100%)" r="0.7" /><circle cx="240.001" cy="520.589" fill="rgb(0%,0%,100%)" r="0.7" /></svg>