<?xml version="1.0" encoding="utf-8" ?>
<svg baseProfile="full" height="100%" version="1.1" width="100%" xmlns="http://www.w3.org/2000/svg" xmlns:ev="http://www.w3.org/2001/xml-events" xmlns:xlink="http://www.w3.org/1999/xlink"><defs /><circle cx="280.486869275" cy="342.702679327" fill="rgb(100%,0%,0%)" r="0.7" /><circle cx="277.699194302" cy="343.317011541" fill="rgb(100%,0%,0%)" r="0.7" /><circle cx="275.831813391" cy="345.645113301" fill="rgb(100%,0%,0%)" r="0.7" /><circle cx="274.533668392" cy="348.346734187" fill="rgb(100%,0%,0%)" r="0.7" /><circle cx="273.542723945" cy="351.177402945" fill="rgb(100%,0%,0%)" r="0.7" /><circle cx="272.749571666" cy="354.070242725" fill="rgb(100%,0%,0%)" r="0.7" /><circle cx="272.097425199" cy="356.998273529" fill="rgb(100%,0%,0%)" r="0.7" /><circle cx="271.552473059" cy="359.948234269" fill="rgb(100%,0%,0%)" r="0.7" /><circle cx="271.092687189" cy="362.912711449" fill="rgb(100%,0%,0%)" r="0.7" /><circle cx="270.702767261" cy="365.887197116" fill="rgb(100%,0%,0%)" r="0.7" /><circle cx="270.371565327" cy="368.868816694" fill="rgb(100%,0%,0%)" r="0.7" /><circle cx="270.090663193" cy="371.85560907" fill="rgb(100%,0%,0%)" r="0.7" /><circle cx="269.937254598" cy="374.85090472" fill="rgb(100%,0%,0%)" r="0.7" /><circle cx="269.815961273" cy="377.84845336" fill="rgb(100%,0%,0%)" r="0.7" /><circle cx="269.68060506" cy="380.845399415" fill="rgb(100%,0%,0%)" r="0.7" /><circle cx="269.531891681" cy="383.841713093" fill="rgb(100%,0%,0%)" r="0.7" /><circle cx="269.369586368" cy="386.837320479" fill="rgb(100%,0%,0%)" r="0.7" /><circle cx="269.192949043" cy="389.832112143" fill="rgb(100%,0%,0%)" r="0.7" /><circle cx="269.000820039" cy="392.825954317" fill="rgb(100%,0%,0%)" r="0.7" /><circle cx="268.791598649" cy="395.818645014" fill="rgb(100%,0%,0%)" r="0.7" /><circle cx="268.563146186" cy="398.809930411" fill="rgb(100%,0%,0%)" r="0.7" /><circle cx="268.312613808" cy="401.799443985" fill="rgb(100%,0%,0%)" r="0.7" /><circle cx="268.036147971" cy="404.786666471" fill="rgb(100%,0%,0%)" r="0.7" /><circle cx="267.728388348" cy="407.770825031" fill="rgb(100%,0%,0%)" r="0.7" /><circle cx="267.381563586" cy="410.750679036" fill="rgb(100%,0%,0%)" r="0.7" /><circle cx="266.98370562" cy="413.724141271" fill="rgb(100%,0%,0%)" r="0.7" /><circle cx="266.514702462" cy="416.687147942" fill="rgb(100%,0%,0%)" r="0.7" /><circle cx="265.935683647" cy="419.630441046" fill="rgb(100%,0%,0%)" r="0.7" /><circle cx="265.149607044" cy="422.524209005" fill="rgb(100%,0%,0%)" r="0.7" /><circle cx="267.354909431" cy="421.528831026" fill="rgb(100%,0%,0%)" r="0.7" /><circle cx="269.964853431" cy="420.049577051" fill="rgb(100%,0%,0%)" r="0.7" /><circle cx="272.57479743" cy="418.570323077" fill="rgb(100%,0%,0%)" r="0.7" /><circle cx="275.184741429" cy="417.091069102" fill="rgb(100%,0%,0%)" r="0.7" /><circle cx="276.871230373" cy="418.498897989" fill="rgb(100%,0%,0%)" r="0.7" /><circle cx="278.13822817" cy="421.218220806" fill="rgb(100%,0%,0%)" r="0.7" /><circle cx="279.405225967" cy="423.937543623" fill="rgb(100%,0%,0%)" r="0.7" /><circle cx="280.672223764" cy="426.656866439" fill="rgb(100%,0%,0%)" r="0.7" /><circle cx="281.93922156" cy="429.376189256" fill="rgb(100%,0%,0%)" r="0.7" /><circle cx="283.206219357" cy="432.095512073" fill="rgb(100%,0%,0%)" r="0.7" /><circle cx="284.473217154" cy="434.81483489" fill="rgb(100%,0%,0%)" r="0.7" /><circle cx="285.740214951" cy="437.534157707" fill="rgb(100%,0%,0%)" r="0.7" /><circle cx="287.0" cy="440.238" fill="rgb(100%,0%,0%)" r="0.7" /><circle cx="280.486869275" cy="342.702679327" fill="rgb(0%,0%,100%)" r="0.7" /><circle cx="282.406096408" cy="344.946341527" fill="rgb(0%,0%,100%)" r="0.7" /><circle cx="283.547348349" cy="347.717591143" fill="rgb(0%,0%,100%)" r="0.7" /><circle cx="284.388580034" cy="350.59653902" fill="rgb(0%,0%,100%)" r="0.7" /><circle cx="285.063365605" cy="353.519406671" fill="rgb(0%,0%,100%)" r="0.7" /><circle cx="285.62724422" cy="356.465809643" fill="rgb(0%,0%,100%)" r="0.7" /><circle cx="286.108484496" cy="359.426886533" fill="rgb(0%,0%,100%)" r="0.7" /><circle cx="286.522380565" cy="362.398141166" fill="rgb(0%,0%,100%)" r="0.7" /><circle cx="286.874807496" cy="365.377308793" fill="rgb(0%,0%,100%)" r="0.7" /><circle cx="287.193138583" cy="368.360326732" fill="rgb(0%,0%,100%)" r="0.7" /><circle cx="287.495936483" cy="371.344990864" fill="rgb(0%,0%,100%)" r="0.7" /><circle cx="287.765672966" cy="374.332824839" fill="rgb(0%,0%,100%)" r="0.7" /><circle cx="288.003656306" cy="377.323357422" fill="rgb(0%,0%,100%)" r="0.7" /><circle cx="288.211090413" cy="380.316166726" fill="rgb(0%,0%,100%)" r="0.7" /><circle cx="288.38908188" cy="383.310869371" fill="rgb(0%,0%,100%)" r="0.7" /><circle cx="288.538647155" cy="386.307130395" fill="rgb(0%,0%,100%)" r="0.7" /><circle cx="288.660716519" cy="389.304636329" fill="rgb(0%,0%,100%)" r="0.7" /><circle cx="288.756139248" cy="392.303103272" fill="rgb(0%,0%,100%)" r="0.7" /><circle cx="288.825687229" cy="395.302291499" fill="rgb(0%,0%,100%)" r="0.7" /><circle cx="288.870055943" cy="398.301956227" fill="rgb(0%,0%,100%)" r="0.7" /><circle cx="288.889866787" cy="401.301882548" fill="rgb(0%,0%,100%)" r="0.7" /><circle cx="288.885666448" cy="404.301871288" fill="rgb(0%,0%,100%)" r="0.7" /><circle cx="288.857924976" cy="407.301739939" fill="rgb(0%,0%,100%)" r="0.7" /><circle cx="288.807032069" cy="410.301300072" fill="rgb(0%,0%,100%)" r="0.7" /><circle cx="288.733289836" cy="413.300388422" fill="rgb(0%,0%,100%)" r="0.7" /><circle cx="288.636902257" cy="416.29883094" fill="rgb(0%,0%,100%)" r="0.7" /><circle cx="288.517957248" cy="419.296465772" fill="rgb(0%,0%,100%)" r="0.7" /><circle cx="288.376399565" cy="422.293121995" fill="rgb(0%,0%,100%)" r="0.7" /><circle cx="288.211986394" cy="425.28860532" fill="rgb(0%,0%,100%)" r="0.7" /><circle cx="288.024207729" cy="428.282718336" fill="rgb(0%,0%,100%)" r="0.7" /><circle cx="287.81214051" cy="431.275205668" fill="rgb(0%,0%,100%)" r="0.7" /><circle cx="287.574124874" cy="434.265738748" fill="rgb(0%,0%,100%)" r="0.7" /><circle cx="287.306861103" cy="437.253779887" fill="rgb(0%,0%,100%)" r="0.7" /><circle cx="287.0" cy="440.238" fill="rgb(0%,0%,100%)" r="0.7" /></svg>