<?xml version="1.0" encoding="utf-8" ?>
<svg baseProfile="full" height="100%" version="1.1" width="100%" xmlns="http://www.w3.org/2000/svg" xmlns:ev="http://www.w3.org/2001/xml-events" xmlns:xlink="http://www.w3.org/1999/xlink"><defs /><circle cx="317.855108416" cy="270.646460462" fill="rgb(100%,0%,0%)" r="0.7" /><circle cx="314.870540108" cy="270.933383425" fill="rgb(100%,0%,0%)" r="0.7" /><circle cx="311.935691065" cy="271.548479866" fill="rgb(100%,0%,0%)" r="0.7" /><circle cx="309.07616257" cy="272.452048685" fill="rgb(100%,0%,0%)" r="0.7" /><circle cx="306.306712126" cy="273.603199082" fill="rgb(100%,0%,0%)" r="0.7" /><circle cx="303.633795354" cy="274.963916092" fill="rgb(100%,0%,0%)" r="0.7" /><circle cx="301.058079567" cy="276.501034388" fill="rgb(100%,0%,0%)" r="0.7" /><circle cx="298.57681285" cy="278.186581501" fill="rgb(100%,0%,0%)" r="0.7" /><circle cx="296.185342978" cy="279.997437341" fill="rgb(100%,0%,0%)" r="0.7" /><circle cx="293.886063191" cy="281.923181333" fill="rgb(100%,0%,0%)" r="0.7" /><circle cx="291.763486594" cy="284.04213473" fill="rgb(100%,0%,0%)" r="0.7" /><circle cx="289.802857466" cy="286.311993456" fill="rgb(100%,0%,0%)" r="0.7" /><circle cx="288.002263023" cy="288.710842486" fill="rgb(100%,0%,0%)" r="0.7" /><circle cx="286.36747302" cy="291.225600141" fill="rgb(100%,0%,0%)" r="0.7" /><circle cx="284.906846847" cy="293.845350864" fill="rgb(100%,0%,0%)" r="0.7" /><circle cx="283.62947106" cy="296.559152598" fill="rgb(100%,0%,0%)" r="0.7" /><circle cx="282.543926251" cy="299.355213138" fill="rgb(100%,0%,0%)" r="0.7" /><circle cx="281.657355789" cy="302.220569213" fill="rgb(100%,0%,0%)" r="0.7" /><circle cx="280.974686475" cy="305.141224374" fill="rgb(100%,0%,0%)" r="0.7" /><circle cx="280.498093344" cy="308.102510138" fill="rgb(100%,0%,0%)" r="0.7" /><circle cx="280.226729917" cy="311.08962722" fill="rgb(100%,0%,0%)" r="0.7" /><circle cx="280.15675033" cy="314.088262396" fill="rgb(100%,0%,0%)" r="0.7" /><circle cx="280.281603212" cy="317.085165841" fill="rgb(100%,0%,0%)" r="0.7" /><circle cx="280.592520539" cy="320.068540827" fill="rgb(100%,0%,0%)" r="0.7" /><circle cx="281.079121626" cy="323.028404462" fill="rgb(100%,0%,0%)" r="0.7" /><circle cx="281.719943413" cy="325.958694078" fill="rgb(100%,0%,0%)" r="0.7" /><circle cx="282.143323491" cy="328.928386855" fill="rgb(100%,0%,0%)" r="0.7" /><circle cx="282.457689608" cy="331.911747581" fill="rgb(100%,0%,0%)" r="0.7" /><circle cx="282.691613551" cy="334.902540917" fill="rgb(100%,0%,0%)" r="0.7" /><circle cx="282.855532133" cy="337.898000606" fill="rgb(100%,0%,0%)" r="0.7" /><circle cx="282.955306343" cy="340.89629749" fill="rgb(100%,0%,0%)" r="0.7" /><circle cx="282.994751405" cy="343.895971274" fill="rgb(100%,0%,0%)" r="0.7" /><circle cx="282.976563358" cy="346.895872476" fill="rgb(100%,0%,0%)" r="0.7" /><circle cx="282.902748426" cy="349.894923923" fill="rgb(100%,0%,0%)" r="0.7" /><circle cx="282.774857488" cy="352.89217265" fill="rgb(100%,0%,0%)" r="0.7" /><circle cx="282.594127725" cy="355.886677712" fill="rgb(100%,0%,0%)" r="0.7" /><circle cx="282.361565134" cy="358.877613725" fill="rgb(100%,0%,0%)" r="0.7" /><circle cx="282.078009602" cy="361.864147381" fill="rgb(100%,0%,0%)" r="0.7" /><circle cx="281.744174769" cy="364.845475427" fill="rgb(100%,0%,0%)" r="0.7" /><circle cx="281.360676811" cy="367.820828128" fill="rgb(100%,0%,0%)" r="0.7" /><circle cx="280.928060347" cy="370.789437372" fill="rgb(100%,0%,0%)" r="0.7" /><circle cx="280.446814019" cy="373.750551864" fill="rgb(100%,0%,0%)" r="0.7" /><circle cx="279.917382957" cy="376.703439826" fill="rgb(100%,0%,0%)" r="0.7" /><circle cx="279.340185717" cy="379.647354556" fill="rgb(100%,0%,0%)" r="0.7" /><circle cx="278.715613588" cy="382.581585855" fill="rgb(100%,0%,0%)" r="0.7" /><circle cx="278.044045077" cy="385.505419185" fill="rgb(100%,0%,0%)" r="0.7" /><circle cx="277.325847926" cy="388.418155149" fill="rgb(100%,0%,0%)" r="0.7" /><circle cx="276.561388158" cy="391.319092368" fill="rgb(100%,0%,0%)" r="0.7" /><circle cx="275.751031516" cy="394.207540139" fill="rgb(100%,0%,0%)" r="0.7" /><circle cx="274.895147772" cy="397.082815591" fill="rgb(100%,0%,0%)" r="0.7" /><circle cx="273.994104447" cy="399.944273" fill="rgb(100%,0%,0%)" r="0.7" /><circle cx="273.048287525" cy="402.791243848" fill="rgb(100%,0%,0%)" r="0.7" /><circle cx="272.058084831" cy="405.623097597" fill="rgb(100%,0%,0%)" r="0.7" /><circle cx="271.02391421" cy="408.439165704" fill="rgb(100%,0%,0%)" r="0.7" /><circle cx="269.946181492" cy="411.238863813" fill="rgb(100%,0%,0%)" r="0.7" /><circle cx="268.825319867" cy="414.021584127" fill="rgb(100%,0%,0%)" r="0.7" /><circle cx="267.661783869" cy="416.786719832" fill="rgb(100%,0%,0%)" r="0.7" /><circle cx="266.456023954" cy="419.533726722" fill="rgb(100%,0%,0%)" r="0.7" /><circle cx="265.208531221" cy="422.262019714" fill="rgb(100%,0%,0%)" r="0.7" /><circle cx="265.590643747" cy="423.396182734" fill="rgb(100%,0%,0%)" r="0.7" /><circle cx="268.366071101" cy="422.257322338" fill="rgb(100%,0%,0%)" r="0.7" /><circle cx="271.141498456" cy="421.118461942" fill="rgb(100%,0%,0%)" r="0.7" /><circle cx="273.91692581" cy="419.979601545" fill="rgb(100%,0%,0%)" r="0.7" /><circle cx="275.989571178" cy="421.116712558" fill="rgb(100%,0%,0%)" r="0.7" /><circle cx="277.639711207" cy="423.6221143" fill="rgb(100%,0%,0%)" r="0.7" /><circle cx="279.289851235" cy="426.127516041" fill="rgb(100%,0%,0%)" r="0.7" /><circle cx="280.939991264" cy="428.632917783" fill="rgb(100%,0%,0%)" r="0.7" /><circle cx="282.590131292" cy="431.138319524" fill="rgb(100%,0%,0%)" r="0.7" /><circle cx="284.240271321" cy="433.643721266" fill="rgb(100%,0%,0%)" r="0.7" /><circle cx="285.890411349" cy="436.149123007" fill="rgb(100%,0%,0%)" r="0.7" /><circle cx="286.3" cy="436.771" fill="rgb(100%,0%,0%)" r="0.7" /><circle cx="317.855108416" cy="270.646460462" fill="rgb(0%,0%,100%)" r="0.7" /><circle cx="320.852274387" cy="270.719821216" fill="rgb(0%,0%,100%)" r="0.7" /><circle cx="323.81608947" cy="271.170917407" fill="rgb(0%,0%,100%)" r="0.7" /><circle cx="326.697705979" cy="271.997972251" fill="rgb(0%,0%,100%)" r="0.7" /><circle cx="329.452633028" cy="273.180728142" fill="rgb(0%,0%,100%)" r="0.7" /><circle cx="332.045383157" cy="274.686486355" fill="rgb(0%,0%,100%)" r="0.7" /><circle cx="334.449110513" cy="276.478886753" fill="rgb(0%,0%,100%)" r="0.7" /><circle cx="336.637954318" cy="278.528131046" fill="rgb(0%,0%,100%)" r="0.7" /><circle cx="338.422704964" cy="280.907951626" fill="rgb(0%,0%,100%)" r="0.7" /><circle cx="339.274296119" cy="283.780549353" fill="rgb(0%,0%,100%)" r="0.7" /><circle cx="339.538181971" cy="286.762602402" fill="rgb(0%,0%,100%)" r="0.7" /><circle cx="339.078278058" cy="289.718837574" fill="rgb(0%,0%,100%)" r="0.7" /><circle cx="337.890016877" cy="292.465258282" fill="rgb(0%,0%,100%)" r="0.7" /><circle cx="336.116851879" cy="294.878787606" fill="rgb(0%,0%,100%)" r="0.7" /><circle cx="333.941657554" cy="296.940438003" fill="rgb(0%,0%,100%)" r="0.7" /><circle cx="331.505714523" cy="298.688482235" fill="rgb(0%,0%,100%)" r="0.7" /><circle cx="328.899597164" cy="300.172306055" fill="rgb(0%,0%,100%)" r="0.7" /><circle cx="326.178504539" cy="301.433806821" fill="rgb(0%,0%,100%)" r="0.7" /><circle cx="323.375977301" cy="302.502791491" fill="rgb(0%,0%,100%)" r="0.7" /><circle cx="320.511895126" cy="303.393961515" fill="rgb(0%,0%,100%)" r="0.7" /><circle cx="317.610583117" cy="304.153477502" fill="rgb(0%,0%,100%)" r="0.7" /><circle cx="314.827726542" cy="305.26603342" fill="rgb(0%,0%,100%)" r="0.7" /><circle cx="312.271896263" cy="306.829044335" fill="rgb(0%,0%,100%)" r="0.7" /><circle cx="310.059081423" cy="308.847521222" fill="rgb(0%,0%,100%)" r="0.7" /><circle cx="308.284066201" cy="311.26022502" fill="rgb(0%,0%,100%)" r="0.7" /><circle cx="306.982391071" cy="313.958910933" fill="rgb(0%,0%,100%)" r="0.7" /><circle cx="306.130548548" cy="316.832569161" fill="rgb(0%,0%,100%)" r="0.7" /><circle cx="305.675898656" cy="319.795959847" fill="rgb(0%,0%,100%)" r="0.7" /><circle cx="305.56540102" cy="322.792484241" fill="rgb(0%,0%,100%)" r="0.7" /><circle cx="305.765867137" cy="325.784463845" fill="rgb(0%,0%,100%)" r="0.7" /><circle cx="306.275492744" cy="328.739879855" fill="rgb(0%,0%,100%)" r="0.7" /><circle cx="306.748787863" cy="331.702090856" fill="rgb(0%,0%,100%)" r="0.7" /><circle cx="307.102588317" cy="334.680974362" fill="rgb(0%,0%,100%)" r="0.7" /><circle cx="307.348763376" cy="337.670702267" fill="rgb(0%,0%,100%)" r="0.7" /><circle cx="307.497737397" cy="340.666885843" fill="rgb(0%,0%,100%)" r="0.7" /><circle cx="307.558632458" cy="343.666167599" fill="rgb(0%,0%,100%)" r="0.7" /><circle cx="307.539427988" cy="346.666035905" fill="rgb(0%,0%,100%)" r="0.7" /><circle cx="307.447108546" cy="349.664541693" fill="rgb(0%,0%,100%)" r="0.7" /><circle cx="307.287798072" cy="352.660253185" fill="rgb(0%,0%,100%)" r="0.7" /><circle cx="307.066880035" cy="355.652061573" fill="rgb(0%,0%,100%)" r="0.7" /><circle cx="306.789100356" cy="358.639127986" fill="rgb(0%,0%,100%)" r="0.7" /><circle cx="306.458652772" cy="361.620841792" fill="rgb(0%,0%,100%)" r="0.7" /><circle cx="306.079258792" cy="364.596721847" fill="rgb(0%,0%,100%)" r="0.7" /><circle cx="305.654225494" cy="367.566433365" fill="rgb(0%,0%,100%)" r="0.7" /><circle cx="305.186503108" cy="370.529725363" fill="rgb(0%,0%,100%)" r="0.7" /><circle cx="304.678729457" cy="373.486419255" fill="rgb(0%,0%,100%)" r="0.7" /><circle cx="304.133267567" cy="376.436396792" fill="rgb(0%,0%,100%)" r="0.7" /><circle cx="303.552239795" cy="379.379578068" fill="rgb(0%,0%,100%)" r="0.7" /><circle cx="302.937555648" cy="382.315911492" fill="rgb(0%,0%,100%)" r="0.7" /><circle cx="302.290930547" cy="385.245386909" fill="rgb(0%,0%,100%)" r="0.7" /><circle cx="301.613915936" cy="388.1679811" fill="rgb(0%,0%,100%)" r="0.7" /><circle cx="300.907903911" cy="391.083707203" fill="rgb(0%,0%,100%)" r="0.7" /><circle cx="300.17414621" cy="393.992584889" fill="rgb(0%,0%,100%)" r="0.7" /><circle cx="299.413770215" cy="396.89461888" fill="rgb(0%,0%,100%)" r="0.7" /><circle cx="298.627782247" cy="399.789818832" fill="rgb(0%,0%,100%)" r="0.7" /><circle cx="297.817075529" cy="402.678190259" fill="rgb(0%,0%,100%)" r="0.7" /><circle cx="296.982430626" cy="405.559743929" fill="rgb(0%,0%,100%)" r="0.7" /><circle cx="296.12453265" cy="408.434438603" fill="rgb(0%,0%,100%)" r="0.7" /><circle cx="295.243937177" cy="411.30228649" fill="rgb(0%,0%,100%)" r="0.7" /><circle cx="294.341104989" cy="414.163211475" fill="rgb(0%,0%,100%)" r="0.7" /><circle cx="293.416363355" cy="417.017132166" fill="rgb(0%,0%,100%)" r="0.7" /><circle cx="292.469902065" cy="419.863897009" fill="rgb(0%,0%,100%)" r="0.7" /><circle cx="291.50169917" cy="422.70337963" fill="rgb(0%,0%,100%)" r="0.7" /><circle cx="290.511520535" cy="425.535255403" fill="rgb(0%,0%,100%)" r="0.7" /><circle cx="289.49874643" cy="428.359089476" fill="rgb(0%,0%,100%)" r="0.7" /><circle cx="288.462068184" cy="431.174281475" fill="rgb(0%,0%,100%)" r="0.7" /><circle cx="287.398776537" cy="433.979527926" fill="rgb(0%,0%,100%)" r="0.7" /><circle cx="286.3" cy="436.771" fill="rgb(0%,0%,100%)" r="0.7" /></svg>