<?xml version="1.0" encoding="utf-8" ?>
<svg baseProfile="full" height="100%" version="1.1" width="100%" xmlns="http://www.w3.org/2000/svg" xmlns:ev="http://www.w3.org/2001/xml-events" xmlns:xlink="http://www.w3.org/1999/xlink"><defs /><circle cx="360.009880363" cy="296.334870299" fill="rgb(100%,0%,0%)" r="0.7" /><circle cx="357.048655846" cy="296.616140623" fill="rgb(100%,0%,0%)" r="0.7" /><circle cx="354.420660125" cy="298.021935701" fill="rgb(100%,0%,0%)" r="0.7" /><circle cx="352.147324843" cy="299.979439041" fill="rgb(100%,0%,0%)" r="0.7" /><circle cx="349.847595667" cy="301.905862158" fill="rgb(100%,0%,0%)" r="0.7" /><circle cx="347.526390104" cy="303.806380544" fill="rgb(100%,0%,0%)" r="0.7" /><circle cx="345.185196977" cy="305.682210167" fill="rgb(100%,0%,0%)" r="0.7" /><circle cx="342.824486653" cy="307.533404539" fill="rgb(100%,0%,0%)" r="0.7" /><circle cx="340.444214018" cy="309.359389058" fill="rgb(100%,0%,0%)" r="0.7" /><circle cx="338.044024331" cy="311.159115453" fill="rgb(100%,0%,0%)" r="0.7" /><circle cx="335.623310901" cy="312.931133712" fill="rgb(100%,0%,0%)" r="0.7" /><circle cx="333.181240692" cy="314.673598832" fill="rgb(100%,0%,0%)" r="0.7" /><circle cx="330.716772721" cy="316.384231224" fill="rgb(100%,0%,0%)" r="0.7" /><circle cx="328.228646441" cy="318.060259038" fill="rgb(100%,0%,0%)" r="0.7" /><circle cx="325.715369246" cy="319.698322087" fill="rgb(100%,0%,0%)" r="0.7" /><circle cx="323.175191637" cy="321.294339823" fill="rgb(100%,0%,0%)" r="0.7" /><circle cx="320.606075943" cy="322.843327121" fill="rgb(100%,0%,0%)" r="0.7" /><circle cx="318.005654552" cy="324.339140561" fill="rgb(100%,0%,0%)" r="0.7" /><circle cx="315.365795606" cy="325.763920428" fill="rgb(100%,0%,0%)" r="0.7" /><circle cx="312.708671568" cy="327.156655494" fill="rgb(100%,0%,0%)" r="0.7" /><circle cx="310.046818519" cy="328.540328941" fill="rgb(100%,0%,0%)" r="0.7" /><circle cx="307.380918446" cy="329.916198327" fill="rgb(100%,0%,0%)" r="0.7" /><circle cx="304.711276883" cy="331.28478811" fill="rgb(100%,0%,0%)" r="0.7" /><circle cx="302.038031352" cy="332.646353619" fill="rgb(100%,0%,0%)" r="0.7" /><circle cx="299.361301197" cy="334.000971081" fill="rgb(100%,0%,0%)" r="0.7" /><circle cx="296.681053893" cy="335.348674135" fill="rgb(100%,0%,0%)" r="0.7" /><circle cx="293.997290469" cy="336.68939323" fill="rgb(100%,0%,0%)" r="0.7" /><circle cx="291.310013305" cy="338.022990357" fill="rgb(100%,0%,0%)" r="0.7" /><circle cx="288.619126959" cy="339.349317823" fill="rgb(100%,0%,0%)" r="0.7" /><circle cx="285.924571418" cy="340.668156837" fill="rgb(100%,0%,0%)" r="0.7" /><circle cx="283.226234369" cy="341.979262754" fill="rgb(100%,0%,0%)" r="0.7" /><circle cx="280.524015167" cy="343.282333357" fill="rgb(100%,0%,0%)" r="0.7" /><circle cx="277.817767921" cy="344.577034383" fill="rgb(100%,0%,0%)" r="0.7" /><circle cx="275.107352617" cy="345.862971106" fill="rgb(100%,0%,0%)" r="0.7" /><circle cx="272.392588456" cy="347.139705385" fill="rgb(100%,0%,0%)" r="0.7" /><circle cx="269.673278" cy="348.406737045" fill="rgb(100%,0%,0%)" r="0.7" /><circle cx="266.949209804" cy="349.663493872" fill="rgb(100%,0%,0%)" r="0.7" /><circle cx="264.22012944" cy="350.909333854" fill="rgb(100%,0%,0%)" r="0.7" /><circle cx="261.485760721" cy="352.143521319" fill="rgb(100%,0%,0%)" r="0.7" /><circle cx="258.745787019" cy="353.365218012" fill="rgb(100%,0%,0%)" r="0.7" /><circle cx="255.999855124" cy="354.57345938" fill="rgb(100%,0%,0%)" r="0.7" /><circle cx="253.24755999" cy="355.76713356" fill="rgb(100%,0%,0%)" r="0.7" /><circle cx="250.488447273" cy="356.944944764" fill="rgb(100%,0%,0%)" r="0.7" /><circle cx="247.721975621" cy="358.10538339" fill="rgb(100%,0%,0%)" r="0.7" /><circle cx="244.947542056" cy="359.246654748" fill="rgb(100%,0%,0%)" r="0.7" /><circle cx="242.1644379" cy="360.366617106" fill="rgb(100%,0%,0%)" r="0.7" /><circle cx="239.371840049" cy="361.462675555" fill="rgb(100%,0%,0%)" r="0.7" /><circle cx="236.568765274" cy="362.531647676" fill="rgb(100%,0%,0%)" r="0.7" /><circle cx="233.754040459" cy="363.569557047" fill="rgb(100%,0%,0%)" r="0.7" /><circle cx="230.926264646" cy="364.571327532" fill="rgb(100%,0%,0%)" r="0.7" /><circle cx="228.08371483" cy="365.530329165" fill="rgb(100%,0%,0%)" r="0.7" /><circle cx="225.224252273" cy="366.437631384" fill="rgb(100%,0%,0%)" r="0.7" /><circle cx="222.345236797" cy="367.280722755" fill="rgb(100%,0%,0%)" r="0.7" /><circle cx="219.443363859" cy="368.041207509" fill="rgb(100%,0%,0%)" r="0.7" /><circle cx="216.514651342" cy="368.690182441" fill="rgb(100%,0%,0%)" r="0.7" /><circle cx="219.206196276" cy="368.683010453" fill="rgb(100%,0%,0%)" r="0.7" /><circle cx="222.205942602" cy="368.643997935" fill="rgb(100%,0%,0%)" r="0.7" /><circle cx="225.205688929" cy="368.604985416" fill="rgb(100%,0%,0%)" r="0.7" /><circle cx="228.205435255" cy="368.565972898" fill="rgb(100%,0%,0%)" r="0.7" /><circle cx="231.205181582" cy="368.52696038" fill="rgb(100%,0%,0%)" r="0.7" /><circle cx="234.204927908" cy="368.487947862" fill="rgb(100%,0%,0%)" r="0.7" /><circle cx="237.204674235" cy="368.448935344" fill="rgb(100%,0%,0%)" r="0.7" /><circle cx="238.717706747" cy="369.428180962" fill="rgb(100%,0%,0%)" r="0.7" /><circle cx="237.597276071" cy="372.211099412" fill="rgb(100%,0%,0%)" r="0.7" /><circle cx="236.476845394" cy="374.994017862" fill="rgb(100%,0%,0%)" r="0.7" /><circle cx="235.356414718" cy="377.776936312" fill="rgb(100%,0%,0%)" r="0.7" /><circle cx="234.235984042" cy="380.559854762" fill="rgb(100%,0%,0%)" r="0.7" /><circle cx="233.115553366" cy="383.342773212" fill="rgb(100%,0%,0%)" r="0.7" /><circle cx="231.99512269" cy="386.125691662" fill="rgb(100%,0%,0%)" r="0.7" /><circle cx="230.874692014" cy="388.908610112" fill="rgb(100%,0%,0%)" r="0.7" /><circle cx="229.959" cy="391.183" fill="rgb(100%,0%,0%)" r="0.7" /><circle cx="360.009880363" cy="296.334870299" fill="rgb(0%,0%,100%)" r="0.7" /><circle cx="362.77678377" cy="297.422614361" fill="rgb(0%,0%,100%)" r="0.7" /><circle cx="364.972073058" cy="299.461251904" fill="rgb(0%,0%,100%)" r="0.7" /><circle cx="367.065896988" cy="301.609598546" fill="rgb(0%,0%,100%)" r="0.7" /><circle cx="369.09911468" cy="303.815347718" fill="rgb(0%,0%,100%)" r="0.7" /><circle cx="371.058471011" cy="306.08690226" fill="rgb(0%,0%,100%)" r="0.7" /><circle cx="372.923449371" cy="308.436424709" fill="rgb(0%,0%,100%)" r="0.7" /><circle cx="374.65654018" cy="310.884510476" fill="rgb(0%,0%,100%)" r="0.7" /><circle cx="375.989657482" cy="313.524991628" fill="rgb(0%,0%,100%)" r="0.7" /><circle cx="375.215841173" cy="316.396552213" fill="rgb(0%,0%,100%)" r="0.7" /><circle cx="373.543069978" cy="318.878898517" fill="rgb(0%,0%,100%)" r="0.7" /><circle cx="371.442241082" cy="321.016440195" fill="rgb(0%,0%,100%)" r="0.7" /><circle cx="369.281021" cy="323.094025613" fill="rgb(0%,0%,100%)" r="0.7" /><circle cx="367.077780322" cy="325.129858987" fill="rgb(0%,0%,100%)" r="0.7" /><circle cx="364.80437231" cy="327.087117361" fill="rgb(0%,0%,100%)" r="0.7" /><circle cx="362.475058456" cy="328.977561389" fill="rgb(0%,0%,100%)" r="0.7" /><circle cx="360.100044658" cy="330.810303341" fill="rgb(0%,0%,100%)" r="0.7" /><circle cx="357.686874291" cy="332.592525773" fill="rgb(0%,0%,100%)" r="0.7" /><circle cx="355.241262486" cy="334.32998576" fill="rgb(0%,0%,100%)" r="0.7" /><circle cx="352.7676453" cy="336.027351222" fill="rgb(0%,0%,100%)" r="0.7" /><circle cx="350.269524226" cy="337.688452093" fill="rgb(0%,0%,100%)" r="0.7" /><circle cx="347.749704507" cy="339.316456747" fill="rgb(0%,0%,100%)" r="0.7" /><circle cx="345.210461128" cy="340.913999803" fill="rgb(0%,0%,100%)" r="0.7" /><circle cx="342.653649403" cy="342.483279387" fill="rgb(0%,0%,100%)" r="0.7" /><circle cx="340.080793941" cy="344.026120585" fill="rgb(0%,0%,100%)" r="0.7" /><circle cx="337.493146815" cy="345.544022035" fill="rgb(0%,0%,100%)" r="0.7" /><circle cx="334.891724104" cy="347.038184841" fill="rgb(0%,0%,100%)" r="0.7" /><circle cx="332.277315356" cy="348.509526356" fill="rgb(0%,0%,100%)" r="0.7" /><circle cx="329.65052674" cy="349.958636611" fill="rgb(0%,0%,100%)" r="0.7" /><circle cx="327.011706505" cy="351.38573677" fill="rgb(0%,0%,100%)" r="0.7" /><circle cx="324.360929926" cy="352.790463207" fill="rgb(0%,0%,100%)" r="0.7" /><circle cx="321.697652847" cy="354.171399677" fill="rgb(0%,0%,100%)" r="0.7" /><circle cx="319.019625664" cy="355.523453219" fill="rgb(0%,0%,100%)" r="0.7" /><circle cx="316.376651833" cy="356.941854156" fill="rgb(0%,0%,100%)" r="0.7" /><circle cx="313.699891439" cy="358.296243985" fill="rgb(0%,0%,100%)" r="0.7" /><circle cx="310.995072992" cy="359.593842022" fill="rgb(0%,0%,100%)" r="0.7" /><circle cx="308.271129347" cy="360.850839381" fill="rgb(0%,0%,100%)" r="0.7" /><circle cx="305.533109606" cy="362.076910823" fill="rgb(0%,0%,100%)" r="0.7" /><circle cx="302.78422131" cy="363.278362317" fill="rgb(0%,0%,100%)" r="0.7" /><circle cx="300.026559107" cy="364.459611106" fill="rgb(0%,0%,100%)" r="0.7" /><circle cx="297.261691242" cy="365.623840333" fill="rgb(0%,0%,100%)" r="0.7" /><circle cx="294.490710235" cy="366.77348158" fill="rgb(0%,0%,100%)" r="0.7" /><circle cx="291.714491425" cy="367.910404496" fill="rgb(0%,0%,100%)" r="0.7" /><circle cx="288.933699199" cy="369.0361022" fill="rgb(0%,0%,100%)" r="0.7" /><circle cx="286.148866227" cy="370.151781512" fill="rgb(0%,0%,100%)" r="0.7" /><circle cx="283.360441644" cy="371.25842724" fill="rgb(0%,0%,100%)" r="0.7" /><circle cx="280.568769682" cy="372.35686917" fill="rgb(0%,0%,100%)" r="0.7" /><circle cx="277.774153387" cy="373.447798738" fill="rgb(0%,0%,100%)" r="0.7" /><circle cx="274.976844745" cy="374.531803891" fill="rgb(0%,0%,100%)" r="0.7" /><circle cx="272.177057708" cy="375.609387003" fill="rgb(0%,0%,100%)" r="0.7" /><circle cx="269.37496709" cy="376.680982667" fill="rgb(0%,0%,100%)" r="0.7" /><circle cx="266.57074206" cy="377.746958183" fill="rgb(0%,0%,100%)" r="0.7" /><circle cx="263.764502433" cy="378.807640415" fill="rgb(0%,0%,100%)" r="0.7" /><circle cx="260.956383091" cy="379.863299084" fill="rgb(0%,0%,100%)" r="0.7" /><circle cx="258.146453176" cy="380.914182991" fill="rgb(0%,0%,100%)" r="0.7" /><circle cx="255.334824961" cy="381.960483144" fill="rgb(0%,0%,100%)" r="0.7" /><circle cx="252.521549989" cy="383.002373994" fill="rgb(0%,0%,100%)" r="0.7" /><circle cx="249.706704303" cy="384.039982192" fill="rgb(0%,0%,100%)" r="0.7" /><circle cx="246.890314203" cy="385.073412291" fill="rgb(0%,0%,100%)" r="0.7" /><circle cx="244.072421929" cy="386.102717272" fill="rgb(0%,0%,100%)" r="0.7" /><circle cx="241.253018771" cy="387.127911865" fill="rgb(0%,0%,100%)" r="0.7" /><circle cx="238.432118144" cy="388.148922574" fill="rgb(0%,0%,100%)" r="0.7" /><circle cx="235.609621839" cy="389.165582983" fill="rgb(0%,0%,100%)" r="0.7" /><circle cx="232.785412105" cy="390.177447871" fill="rgb(0%,0%,100%)" r="0.7" /><circle cx="229.959" cy="391.183" fill="rgb(0%,0%,100%)" r="0.7" /></svg>