<?xml version="1.0" encoding="utf-8" ?>
<svg baseProfile="full" height="100%" version="1.1" width="100%" xmlns="http://www.w3.org/2000/svg" xmlns:ev="http://www.w3.org/2001/xml-events" xmlns:xlink="http://www.w3.org/1999/xlink"><defs /><circle cx="335.602371005" cy="277.817346015" fill="rgb(100%,0%,0%)" r="0.7" /><circle cx="333.287815177" cy="279.694521372" fill="rgb(100%,0%,0%)" r="0.7" /><circle cx="331.516426536" cy="282.1115134" fill="rgb(100%,0%,0%)" r="0.7" /><circle cx="330.103393289" cy="284.754909131" fill="rgb(100%,0%,0%)" r="0.7" /><circle cx="329.390310278" cy="287.664042391" fill="rgb(100%,0%,0%)" r="0.7" /><circle cx="328.724946459" cy="290.589317459" fill="rgb(100%,0%,0%)" r="0.7" /><circle cx="328.086643999" cy="293.520621514" fill="rgb(100%,0%,0%)" r="0.7" /><circle cx="327.475431253" cy="296.457684454" fill="rgb(100%,0%,0%)" r="0.7" /><circle cx="326.892962213" cy="299.400584192" fill="rgb(100%,0%,0%)" r="0.7" /><circle cx="326.342097735" cy="302.349560107" fill="rgb(100%,0%,0%)" r="0.7" /><circle cx="325.826987458" cy="305.304985568" fill="rgb(100%,0%,0%)" r="0.7" /><circle cx="325.35344497" cy="308.267347547" fill="rgb(100%,0%,0%)" r="0.7" /><circle cx="324.929677134" cy="311.237224686" fill="rgb(100%,0%,0%)" r="0.7" /><circle cx="324.567630733" cy="314.215229657" fill="rgb(100%,0%,0%)" r="0.7" /><circle cx="324.19807138" cy="317.192316005" fill="rgb(100%,0%,0%)" r="0.7" /><circle cx="323.820983054" cy="320.168522381" fill="rgb(100%,0%,0%)" r="0.7" /><circle cx="323.443894728" cy="323.144728758" fill="rgb(100%,0%,0%)" r="0.7" /><circle cx="323.066806401" cy="326.120935134" fill="rgb(100%,0%,0%)" r="0.7" /><circle cx="322.689718075" cy="329.09714151" fill="rgb(100%,0%,0%)" r="0.7" /><circle cx="322.312629749" cy="332.073347887" fill="rgb(100%,0%,0%)" r="0.7" /><circle cx="321.935541423" cy="335.049554263" fill="rgb(100%,0%,0%)" r="0.7" /><circle cx="321.558453097" cy="338.025760639" fill="rgb(100%,0%,0%)" r="0.7" /><circle cx="321.18136477" cy="341.001967015" fill="rgb(100%,0%,0%)" r="0.7" /><circle cx="320.804276444" cy="343.978173392" fill="rgb(100%,0%,0%)" r="0.7" /><circle cx="320.427188118" cy="346.954379768" fill="rgb(100%,0%,0%)" r="0.7" /><circle cx="320.050099792" cy="349.930586144" fill="rgb(100%,0%,0%)" r="0.7" /><circle cx="319.673011466" cy="352.906792521" fill="rgb(100%,0%,0%)" r="0.7" /><circle cx="319.295923139" cy="355.882998897" fill="rgb(100%,0%,0%)" r="0.7" /><circle cx="318.918834813" cy="358.859205273" fill="rgb(100%,0%,0%)" r="0.7" /><circle cx="318.541746487" cy="361.835411649" fill="rgb(100%,0%,0%)" r="0.7" /><circle cx="318.104327836" cy="364.803196319" fill="rgb(100%,0%,0%)" r="0.7" /><circle cx="317.640052303" cy="367.76705952" fill="rgb(100%,0%,0%)" r="0.7" /><circle cx="317.16277531" cy="370.728850723" fill="rgb(100%,0%,0%)" r="0.7" /><circle cx="316.671752428" cy="373.688389353" fill="rgb(100%,0%,0%)" r="0.7" /><circle cx="316.165110876" cy="376.645296178" fill="rgb(100%,0%,0%)" r="0.7" /><circle cx="315.639766986" cy="379.598935962" fill="rgb(100%,0%,0%)" r="0.7" /><circle cx="315.090795273" cy="382.548269792" fill="rgb(100%,0%,0%)" r="0.7" /><circle cx="314.509900983" cy="385.491474918" fill="rgb(100%,0%,0%)" r="0.7" /><circle cx="313.881391447" cy="388.424845985" fill="rgb(100%,0%,0%)" r="0.7" /><circle cx="313.167969039" cy="391.338570694" fill="rgb(100%,0%,0%)" r="0.7" /><circle cx="312.217601423" cy="394.1800426" fill="rgb(100%,0%,0%)" r="0.7" /><circle cx="311.149446039" cy="396.981055377" fill="rgb(100%,0%,0%)" r="0.7" /><circle cx="309.834111888" cy="399.67674795" fill="rgb(100%,0%,0%)" r="0.7" /><circle cx="308.372545695" cy="402.296311975" fill="rgb(100%,0%,0%)" r="0.7" /><circle cx="306.802259371" cy="404.852312638" fill="rgb(100%,0%,0%)" r="0.7" /><circle cx="305.144875554" cy="407.35277939" fill="rgb(100%,0%,0%)" r="0.7" /><circle cx="303.414816499" cy="409.803561096" fill="rgb(100%,0%,0%)" r="0.7" /><circle cx="301.622499395" cy="412.209217435" fill="rgb(100%,0%,0%)" r="0.7" /><circle cx="299.775856347" cy="414.573437077" fill="rgb(100%,0%,0%)" r="0.7" /><circle cx="297.881126361" cy="416.899319504" fill="rgb(100%,0%,0%)" r="0.7" /><circle cx="295.943371529" cy="419.18949325" fill="rgb(100%,0%,0%)" r="0.7" /><circle cx="293.96678357" cy="421.446227701" fill="rgb(100%,0%,0%)" r="0.7" /><circle cx="292.675926741" cy="423.219492456" fill="rgb(100%,0%,0%)" r="0.7" /><circle cx="295.550097623" cy="422.35975893" fill="rgb(100%,0%,0%)" r="0.7" /><circle cx="298.424268506" cy="421.500025403" fill="rgb(100%,0%,0%)" r="0.7" /><circle cx="301.298439389" cy="420.640291876" fill="rgb(100%,0%,0%)" r="0.7" /><circle cx="303.967494056" cy="420.141905424" fill="rgb(100%,0%,0%)" r="0.7" /><circle cx="304.702633433" cy="423.050439436" fill="rgb(100%,0%,0%)" r="0.7" /><circle cx="305.43777281" cy="425.958973447" fill="rgb(100%,0%,0%)" r="0.7" /><circle cx="306.172912187" cy="428.867507459" fill="rgb(100%,0%,0%)" r="0.7" /><circle cx="306.908051564" cy="431.77604147" fill="rgb(100%,0%,0%)" r="0.7" /><circle cx="307.57" cy="434.395" fill="rgb(100%,0%,0%)" r="0.7" /><circle cx="335.602371005" cy="277.817346015" fill="rgb(0%,0%,100%)" r="0.7" /><circle cx="338.453820933" cy="277.97147521" fill="rgb(0%,0%,100%)" r="0.7" /><circle cx="340.328645406" cy="280.275645748" fill="rgb(0%,0%,100%)" r="0.7" /><circle cx="341.281116332" cy="283.105431438" fill="rgb(0%,0%,100%)" r="0.7" /><circle cx="341.667261514" cy="286.079293622" fill="rgb(0%,0%,100%)" r="0.7" /><circle cx="341.85445747" cy="289.073193041" fill="rgb(0%,0%,100%)" r="0.7" /><circle cx="341.934946657" cy="292.072000013" fill="rgb(0%,0%,100%)" r="0.7" /><circle cx="341.946330859" cy="295.07195503" fill="rgb(0%,0%,100%)" r="0.7" /><circle cx="341.90824561" cy="298.071688154" fill="rgb(0%,0%,100%)" r="0.7" /><circle cx="341.832452414" cy="301.070698926" fill="rgb(0%,0%,100%)" r="0.7" /><circle cx="341.726642716" cy="304.068823697" fill="rgb(0%,0%,100%)" r="0.7" /><circle cx="341.596167908" cy="307.065980219" fill="rgb(0%,0%,100%)" r="0.7" /><circle cx="341.444923319" cy="310.062169974" fill="rgb(0%,0%,100%)" r="0.7" /><circle cx="341.275846907" cy="313.057395027" fill="rgb(0%,0%,100%)" r="0.7" /><circle cx="341.091213325" cy="316.051709618" fill="rgb(0%,0%,100%)" r="0.7" /><circle cx="340.892825927" cy="319.045140352" fill="rgb(0%,0%,100%)" r="0.7" /><circle cx="340.68213777" cy="322.037733132" fill="rgb(0%,0%,100%)" r="0.7" /><circle cx="340.460337905" cy="325.029522839" fill="rgb(0%,0%,100%)" r="0.7" /><circle cx="340.228409875" cy="328.020544289" fill="rgb(0%,0%,100%)" r="0.7" /><circle cx="339.987174133" cy="331.010831712" fill="rgb(0%,0%,100%)" r="0.7" /><circle cx="339.737319614" cy="334.000409916" fill="rgb(0%,0%,100%)" r="0.7" /><circle cx="339.479425216" cy="336.989307948" fill="rgb(0%,0%,100%)" r="0.7" /><circle cx="339.213978535" cy="339.977532176" fill="rgb(0%,0%,100%)" r="0.7" /><circle cx="338.941382436" cy="342.965121819" fill="rgb(0%,0%,100%)" r="0.7" /><circle cx="338.661967598" cy="345.952087397" fill="rgb(0%,0%,100%)" r="0.7" /><circle cx="338.375992887" cy="348.938437857" fill="rgb(0%,0%,100%)" r="0.7" /><circle cx="338.083644506" cy="351.924160785" fill="rgb(0%,0%,100%)" r="0.7" /><circle cx="337.78502297" cy="354.909241387" fill="rgb(0%,0%,100%)" r="0.7" /><circle cx="337.480111124" cy="357.893704297" fill="rgb(0%,0%,100%)" r="0.7" /><circle cx="337.168714926" cy="360.877532065" fill="rgb(0%,0%,100%)" r="0.7" /><circle cx="336.850271902" cy="363.860583535" fill="rgb(0%,0%,100%)" r="0.7" /><circle cx="336.524244482" cy="366.842770225" fill="rgb(0%,0%,100%)" r="0.7" /><circle cx="336.195721187" cy="369.824684615" fill="rgb(0%,0%,100%)" r="0.7" /><circle cx="335.808037706" cy="372.799485013" fill="rgb(0%,0%,100%)" r="0.7" /><circle cx="335.359877878" cy="375.765760689" fill="rgb(0%,0%,100%)" r="0.7" /><circle cx="334.84992808" cy="378.722055744" fill="rgb(0%,0%,100%)" r="0.7" /><circle cx="334.276899513" cy="381.666752099" fill="rgb(0%,0%,100%)" r="0.7" /><circle cx="333.639508603" cy="384.598201302" fill="rgb(0%,0%,100%)" r="0.7" /><circle cx="332.936502791" cy="387.514601582" fill="rgb(0%,0%,100%)" r="0.7" /><circle cx="332.16664727" cy="390.414074086" fill="rgb(0%,0%,100%)" r="0.7" /><circle cx="331.328738564" cy="393.294608745" fill="rgb(0%,0%,100%)" r="0.7" /><circle cx="330.421599147" cy="396.154085882" fill="rgb(0%,0%,100%)" r="0.7" /><circle cx="329.444072796" cy="398.990277979" fill="rgb(0%,0%,100%)" r="0.7" /><circle cx="328.395034269" cy="401.800802477" fill="rgb(0%,0%,100%)" r="0.7" /><circle cx="327.2733816" cy="404.583121685" fill="rgb(0%,0%,100%)" r="0.7" /><circle cx="326.077999216" cy="407.334589515" fill="rgb(0%,0%,100%)" r="0.7" /><circle cx="324.807792855" cy="410.052305274" fill="rgb(0%,0%,100%)" r="0.7" /><circle cx="323.461611781" cy="412.733205888" fill="rgb(0%,0%,100%)" r="0.7" /><circle cx="322.038254994" cy="415.37392281" fill="rgb(0%,0%,100%)" r="0.7" /><circle cx="320.536383429" cy="417.970775322" fill="rgb(0%,0%,100%)" r="0.7" /><circle cx="318.954441624" cy="420.519637078" fill="rgb(0%,0%,100%)" r="0.7" /><circle cx="317.290522077" cy="423.01574606" fill="rgb(0%,0%,100%)" r="0.7" /><circle cx="315.542119831" cy="425.453399032" fill="rgb(0%,0%,100%)" r="0.7" /><circle cx="313.705652274" cy="427.825394082" fill="rgb(0%,0%,100%)" r="0.7" /><circle cx="311.775490342" cy="430.121716756" fill="rgb(0%,0%,100%)" r="0.7" /><circle cx="309.741087072" cy="432.326067694" fill="rgb(0%,0%,100%)" r="0.7" /><circle cx="307.57" cy="434.395" fill="rgb(0%,0%,100%)" r="0.7" /></svg>