<?xml version="1.0" encoding="utf-8" ?>
<svg baseProfile="full" height="100%" version="1.1" width="100%" xmlns="http://www.w3.org/2000/svg" xmlns:ev="http://www.w3.org/2001/xml-events" xmlns:xlink="http://www.w3.org/1999/xlink"><defs /><circle cx="346.25301449" cy="365.390717755" fill="rgb(100%,0%,0%)" r="0.7" /><circle cx="343.284537742" cy="365.785038515" fill="rgb(100%,0%,0%)" r="0.7" /><circle cx="340.428992196" cy="366.695804585" fill="rgb(100%,0%,0%)" r="0.7" /><circle cx="337.709444757" cy="367.958924003" fill="rgb(100%,0%,0%)" r="0.7" /><circle cx="335.0589183" cy="369.361747927" fill="rgb(100%,0%,0%)" r="0.7" /><circle cx="332.530083688" cy="370.974490504" fill="rgb(100%,0%,0%)" r="0.7" /><circle cx="330.110491393" cy="372.747366182" fill="rgb(100%,0%,0%)" r="0.7" /><circle cx="327.78866989" cy="374.646653245" fill="rgb(100%,0%,0%)" r="0.7" /><circle cx="325.558253454" cy="376.652583058" fill="rgb(100%,0%,0%)" r="0.7" /><circle cx="323.414794875" cy="378.751237154" fill="rgb(100%,0%,0%)" r="0.7" /><circle cx="321.354762349" cy="380.931886765" fill="rgb(100%,0%,0%)" r="0.7" /><circle cx="319.37513142" cy="383.185798277" fill="rgb(100%,0%,0%)" r="0.7" /><circle cx="317.47315609" cy="385.505643476" fill="rgb(100%,0%,0%)" r="0.7" /><circle cx="315.630980773" cy="387.873381521" fill="rgb(100%,0%,0%)" r="0.7" /><circle cx="313.813227225" cy="390.25995054" fill="rgb(100%,0%,0%)" r="0.7" /><circle cx="312.013853002" cy="392.660415198" fill="rgb(100%,0%,0%)" r="0.7" /><circle cx="310.231959999" cy="395.073882697" fill="rgb(100%,0%,0%)" r="0.7" /><circle cx="308.467747732" cy="397.500305214" fill="rgb(100%,0%,0%)" r="0.7" /><circle cx="306.722006943" cy="399.940053994" fill="rgb(100%,0%,0%)" r="0.7" /><circle cx="304.996001451" cy="402.393795385" fill="rgb(100%,0%,0%)" r="0.7" /><circle cx="303.291448174" cy="404.86248849" fill="rgb(100%,0%,0%)" r="0.7" /><circle cx="301.610598278" cy="407.347378509" fill="rgb(100%,0%,0%)" r="0.7" /><circle cx="299.956356016" cy="409.850056145" fill="rgb(100%,0%,0%)" r="0.7" /><circle cx="298.332484651" cy="412.372539361" fill="rgb(100%,0%,0%)" r="0.7" /><circle cx="296.743929246" cy="414.917402944" fill="rgb(100%,0%,0%)" r="0.7" /><circle cx="295.197337679" cy="417.487973152" fill="rgb(100%,0%,0%)" r="0.7" /><circle cx="293.701932934" cy="420.088629949" fill="rgb(100%,0%,0%)" r="0.7" /><circle cx="292.271057172" cy="422.725299952" fill="rgb(100%,0%,0%)" r="0.7" /><circle cx="290.925152022" cy="425.406255049" fill="rgb(100%,0%,0%)" r="0.7" /><circle cx="289.698126907" cy="428.143475315" fill="rgb(100%,0%,0%)" r="0.7" /><circle cx="288.594306694" cy="430.932949026" fill="rgb(100%,0%,0%)" r="0.7" /><circle cx="287.521443738" cy="433.734543014" fill="rgb(100%,0%,0%)" r="0.7" /><circle cx="286.471097991" cy="436.544667357" fill="rgb(100%,0%,0%)" r="0.7" /><circle cx="285.441828028" cy="439.362563445" fill="rgb(100%,0%,0%)" r="0.7" /><circle cx="284.433386517" cy="442.187984171" fill="rgb(100%,0%,0%)" r="0.7" /><circle cx="283.44613849" cy="445.020879463" fill="rgb(100%,0%,0%)" r="0.7" /><circle cx="282.480861431" cy="447.861342514" fill="rgb(100%,0%,0%)" r="0.7" /><circle cx="281.538692864" cy="450.709541596" fill="rgb(100%,0%,0%)" r="0.7" /><circle cx="280.621103849" cy="453.565758934" fill="rgb(100%,0%,0%)" r="0.7" /><circle cx="279.72994296" cy="456.430330381" fill="rgb(100%,0%,0%)" r="0.7" /><circle cx="278.867481486" cy="459.30367158" fill="rgb(100%,0%,0%)" r="0.7" /><circle cx="278.036501283" cy="462.186270608" fill="rgb(100%,0%,0%)" r="0.7" /><circle cx="277.240416465" cy="465.078696997" fill="rgb(100%,0%,0%)" r="0.7" /><circle cx="276.483451268" cy="467.981600595" fill="rgb(100%,0%,0%)" r="0.7" /><circle cx="275.770893132" cy="470.895717659" fill="rgb(100%,0%,0%)" r="0.7" /><circle cx="275.109469947" cy="473.821850562" fill="rgb(100%,0%,0%)" r="0.7" /><circle cx="274.573698515" cy="476.771750943" fill="rgb(100%,0%,0%)" r="0.7" /><circle cx="274.185609237" cy="479.746534322" fill="rgb(100%,0%,0%)" r="0.7" /><circle cx="273.810180768" cy="482.722951647" fill="rgb(100%,0%,0%)" r="0.7" /><circle cx="273.445561151" cy="485.700723223" fill="rgb(100%,0%,0%)" r="0.7" /><circle cx="273.091113389" cy="488.679711485" fill="rgb(100%,0%,0%)" r="0.7" /><circle cx="272.746624812" cy="491.659855791" fill="rgb(100%,0%,0%)" r="0.7" /><circle cx="272.41210761" cy="494.641152432" fill="rgb(100%,0%,0%)" r="0.7" /><circle cx="272.087732053" cy="497.623565412" fill="rgb(100%,0%,0%)" r="0.7" /><circle cx="271.77378579" cy="500.607086938" fill="rgb(100%,0%,0%)" r="0.7" /><circle cx="271.470659695" cy="503.591739283" fill="rgb(100%,0%,0%)" r="0.7" /><circle cx="271.178851093" cy="506.577507192" fill="rgb(100%,0%,0%)" r="0.7" /><circle cx="270.898958618" cy="509.564420975" fill="rgb(100%,0%,0%)" r="0.7" /><circle cx="270.631697303" cy="512.552496308" fill="rgb(100%,0%,0%)" r="0.7" /><circle cx="270.377912257" cy="515.541738931" fill="rgb(100%,0%,0%)" r="0.7" /><circle cx="270.138596407" cy="518.532175831" fill="rgb(100%,0%,0%)" r="0.7" /><circle cx="269.914921154" cy="521.523822485" fill="rgb(100%,0%,0%)" r="0.7" /><circle cx="269.708272623" cy="524.516693959" fill="rgb(100%,0%,0%)" r="0.7" /><circle cx="269.520302392" cy="527.510795372" fill="rgb(100%,0%,0%)" r="0.7" /><circle cx="269.352995394" cy="530.506121714" fill="rgb(100%,0%,0%)" r="0.7" /><circle cx="269.208764644" cy="533.502639402" fill="rgb(100%,0%,0%)" r="0.7" /><circle cx="269.090582707" cy="536.500300526" fill="rgb(100%,0%,0%)" r="0.7" /><circle cx="269.002175439" cy="539.498990852" fill="rgb(100%,0%,0%)" r="0.7" /><circle cx="268.948308311" cy="542.498489323" fill="rgb(100%,0%,0%)" r="0.7" /><circle cx="268.935230269" cy="545.498424232" fill="rgb(100%,0%,0%)" r="0.7" /><circle cx="268.971397492" cy="548.498172211" fill="rgb(100%,0%,0%)" r="0.7" /><circle cx="269.391222964" cy="550.657346629" fill="rgb(100%,0%,0%)" r="0.7" /><circle cx="271.492765377" cy="548.516431057" fill="rgb(100%,0%,0%)" r="0.7" /><circle cx="273.594307789" cy="546.375515484" fill="rgb(100%,0%,0%)" r="0.7" /><circle cx="275.695850202" cy="544.234599912" fill="rgb(100%,0%,0%)" r="0.7" /><circle cx="277.797392614" cy="542.093684339" fill="rgb(100%,0%,0%)" r="0.7" /><circle cx="279.813156899" cy="543.000819294" fill="rgb(100%,0%,0%)" r="0.7" /><circle cx="281.790969447" cy="545.256535926" fill="rgb(100%,0%,0%)" r="0.7" /><circle cx="283.768781995" cy="547.512252559" fill="rgb(100%,0%,0%)" r="0.7" /><circle cx="285.746594543" cy="549.767969191" fill="rgb(100%,0%,0%)" r="0.7" /><circle cx="287.72440709" cy="552.023685824" fill="rgb(100%,0%,0%)" r="0.7" /><circle cx="289.702219638" cy="554.279402456" fill="rgb(100%,0%,0%)" r="0.7" /><circle cx="291.680032186" cy="556.535119088" fill="rgb(100%,0%,0%)" r="0.7" /><circle cx="293.657844734" cy="558.790835721" fill="rgb(100%,0%,0%)" r="0.7" /><circle cx="293.907" cy="559.075" fill="rgb(100%,0%,0%)" r="0.7" /><circle cx="346.25301449" cy="365.390717755" fill="rgb(0%,0%,100%)" r="0.7" /><circle cx="349.22336655" cy="365.731764196" fill="rgb(0%,0%,100%)" r="0.7" /><circle cx="351.938145203" cy="366.974445359" fill="rgb(0%,0%,100%)" r="0.7" /><circle cx="354.071561101" cy="369.061638279" fill="rgb(0%,0%,100%)" r="0.7" /><circle cx="355.661499071" cy="371.604085813" fill="rgb(0%,0%,100%)" r="0.7" /><circle cx="356.983004433" cy="374.295423991" fill="rgb(0%,0%,100%)" r="0.7" /><circle cx="357.987339443" cy="377.120645324" fill="rgb(0%,0%,100%)" r="0.7" /><circle cx="358.678641203" cy="380.038478344" fill="rgb(0%,0%,100%)" r="0.7" /><circle cx="359.06821524" cy="383.01183527" fill="rgb(0%,0%,100%)" r="0.7" /><circle cx="359.167479889" cy="386.009049356" fill="rgb(0%,0%,100%)" r="0.7" /><circle cx="358.975270025" cy="389.001606767" fill="rgb(0%,0%,100%)" r="0.7" /><circle cx="358.483032777" cy="391.959524955" fill="rgb(0%,0%,100%)" r="0.7" /><circle cx="357.368616793" cy="394.73175632" fill="rgb(0%,0%,100%)" r="0.7" /><circle cx="355.383591079" cy="396.958544091" fill="rgb(0%,0%,100%)" r="0.7" /><circle cx="352.748941431" cy="398.36533897" fill="rgb(0%,0%,100%)" r="0.7" /><circle cx="349.814492704" cy="398.940295667" fill="rgb(0%,0%,100%)" r="0.7" /><circle cx="346.871196308" cy="399.443300155" fill="rgb(0%,0%,100%)" r="0.7" /><circle cx="344.097827881" cy="400.580495653" fill="rgb(0%,0%,100%)" r="0.7" /><circle cx="341.53980954" cy="402.131798495" fill="rgb(0%,0%,100%)" r="0.7" /><circle cx="339.320223222" cy="404.147517677" fill="rgb(0%,0%,100%)" r="0.7" /><circle cx="337.27548654" cy="406.342156388" fill="rgb(0%,0%,100%)" r="0.7" /><circle cx="335.335763073" cy="408.630483171" fill="rgb(0%,0%,100%)" r="0.7" /><circle cx="333.468946133" cy="410.978775476" fill="rgb(0%,0%,100%)" r="0.7" /><circle cx="331.657597369" cy="413.370154019" fill="rgb(0%,0%,100%)" r="0.7" /><circle cx="329.89152516" cy="415.79518933" fill="rgb(0%,0%,100%)" r="0.7" /><circle cx="328.165154488" cy="418.2486431" fill="rgb(0%,0%,100%)" r="0.7" /><circle cx="326.478151512" cy="420.729343046" fill="rgb(0%,0%,100%)" r="0.7" /><circle cx="324.814915308" cy="423.225865332" fill="rgb(0%,0%,100%)" r="0.7" /><circle cx="323.246895303" cy="425.783250049" fill="rgb(0%,0%,100%)" r="0.7" /><circle cx="321.767223053" cy="428.392826304" fill="rgb(0%,0%,100%)" r="0.7" /><circle cx="320.35976749" cy="431.042093155" fill="rgb(0%,0%,100%)" r="0.7" /><circle cx="319.012844574" cy="433.72266896" fill="rgb(0%,0%,100%)" r="0.7" /><circle cx="317.71772245" cy="436.428666818" fill="rgb(0%,0%,100%)" r="0.7" /><circle cx="316.46770757" cy="439.155806259" fill="rgb(0%,0%,100%)" r="0.7" /><circle cx="315.257571337" cy="441.900879996" fill="rgb(0%,0%,100%)" r="0.7" /><circle cx="314.083169244" cy="444.661436214" fill="rgb(0%,0%,100%)" r="0.7" /><circle cx="312.941188998" cy="447.435568605" fill="rgb(0%,0%,100%)" r="0.7" /><circle cx="311.828983741" cy="450.221770709" fill="rgb(0%,0%,100%)" r="0.7" /><circle cx="310.744452499" cy="453.018865722" fill="rgb(0%,0%,100%)" r="0.7" /><circle cx="309.685986676" cy="455.825924495" fill="rgb(0%,0%,100%)" r="0.7" /><circle cx="308.652447114" cy="458.642259096" fill="rgb(0%,0%,100%)" r="0.7" /><circle cx="307.643229862" cy="461.4674045" fill="rgb(0%,0%,100%)" r="0.7" /><circle cx="306.658483277" cy="464.301164494" fill="rgb(0%,0%,100%)" r="0.7" /><circle cx="305.699833075" cy="467.143870388" fill="rgb(0%,0%,100%)" r="0.7" /><circle cx="304.768347594" cy="469.995528363" fill="rgb(0%,0%,100%)" r="0.7" /><circle cx="303.870132258" cy="472.857790908" fill="rgb(0%,0%,100%)" r="0.7" /><circle cx="303.053713048" cy="475.744480727" fill="rgb(0%,0%,100%)" r="0.7" /><circle cx="302.30695171" cy="478.649982232" fill="rgb(0%,0%,100%)" r="0.7" /><circle cx="301.620395198" cy="481.57031296" fill="rgb(0%,0%,100%)" r="0.7" /><circle cx="300.986539743" cy="484.502553868" fill="rgb(0%,0%,100%)" r="0.7" /><circle cx="300.399330025" cy="487.444494237" fill="rgb(0%,0%,100%)" r="0.7" /><circle cx="299.853799843" cy="490.394456508" fill="rgb(0%,0%,100%)" r="0.7" /><circle cx="299.345829096" cy="493.351122498" fill="rgb(0%,0%,100%)" r="0.7" /><circle cx="298.871959786" cy="496.313448037" fill="rgb(0%,0%,100%)" r="0.7" /><circle cx="298.429262197" cy="499.280591738" fill="rgb(0%,0%,100%)" r="0.7" /><circle cx="298.015232588" cy="502.251874313" fill="rgb(0%,0%,100%)" r="0.7" /><circle cx="297.627717606" cy="505.226732113" fill="rgb(0%,0%,100%)" r="0.7" /><circle cx="297.264853398" cy="508.2046987" fill="rgb(0%,0%,100%)" r="0.7" /><circle cx="296.925019428" cy="511.185381864" fill="rgb(0%,0%,100%)" r="0.7" /><circle cx="296.606801347" cy="514.168452284" fill="rgb(0%,0%,100%)" r="0.7" /><circle cx="296.308962262" cy="517.153630137" fill="rgb(0%,0%,100%)" r="0.7" /><circle cx="296.030420824" cy="520.140665403" fill="rgb(0%,0%,100%)" r="0.7" /><circle cx="295.770230593" cy="523.129359495" fill="rgb(0%,0%,100%)" r="0.7" /><circle cx="295.527570097" cy="526.119519268" fill="rgb(0%,0%,100%)" r="0.7" /><circle cx="295.301728396" cy="529.111006702" fill="rgb(0%,0%,100%)" r="0.7" /><circle cx="295.092104142" cy="532.103671044" fill="rgb(0%,0%,100%)" r="0.7" /><circle cx="294.898199637" cy="535.097392742" fill="rgb(0%,0%,100%)" r="0.7" /><circle cx="294.719624113" cy="538.092078119" fill="rgb(0%,0%,100%)" r="0.7" /><circle cx="294.556106064" cy="541.087608691" fill="rgb(0%,0%,100%)" r="0.7" /><circle cx="294.407507867" cy="544.083938959" fill="rgb(0%,0%,100%)" r="0.7" /><circle cx="294.273873324" cy="547.080941042" fill="rgb(0%,0%,100%)" r="0.7" /><circle cx="294.155496899" cy="550.078613787" fill="rgb(0%,0%,100%)" r="0.7" /><circle cx="294.053111613" cy="553.076869625" fill="rgb(0%,0%,100%)" r="0.7" /><circle cx="293.968390134" cy="556.075677353" fill="rgb(0%,0%,100%)" r="0.7" /><circle cx="293.907" cy="559.075" fill="rgb(0%,0%,100%)" r="0.7" /></svg>