<?xml version="1.0" encoding="utf-8" ?>
<svg baseProfile="full" height="100%" version="1.1" width="100%" xmlns="http://www.w3.org/2000/svg" xmlns:ev="http://www.w3.org/2001/xml-events" xmlns:xlink="http://www.w3.org/1999/xlink"><defs /><circle cx="305.920635383" cy="306.342593635" fill="rgb(100%,0%,0%)" r="0.7" /><circle cx="303.090560026" cy="307.043812724" fill="rgb(100%,0%,0%)" r="0.7" /><circle cx="301.268054168" cy="309.394079722" fill="rgb(100%,0%,0%)" r="0.7" /><circle cx="300.221135414" cy="312.200540942" fill="rgb(100%,0%,0%)" r="0.7" /><circle cx="299.355178751" cy="315.072302892" fill="rgb(100%,0%,0%)" r="0.7" /><circle cx="298.594086276" cy="317.974083409" fill="rgb(100%,0%,0%)" r="0.7" /><circle cx="297.885916764" cy="320.889274791" fill="rgb(100%,0%,0%)" r="0.7" /><circle cx="297.214494913" cy="323.813154531" fill="rgb(100%,0%,0%)" r="0.7" /><circle cx="296.571329656" cy="326.743389801" fill="rgb(100%,0%,0%)" r="0.7" /><circle cx="295.951121704" cy="329.678574399" fill="rgb(100%,0%,0%)" r="0.7" /><circle cx="295.350228769" cy="332.61777958" fill="rgb(100%,0%,0%)" r="0.7" /><circle cx="294.765988801" cy="335.560344633" fill="rgb(100%,0%,0%)" r="0.7" /><circle cx="294.196371017" cy="338.505768077" fill="rgb(100%,0%,0%)" r="0.7" /><circle cx="293.639772935" cy="341.453664987" fill="rgb(100%,0%,0%)" r="0.7" /><circle cx="293.094891782" cy="344.403763993" fill="rgb(100%,0%,0%)" r="0.7" /><circle cx="292.560658257" cy="347.355812704" fill="rgb(100%,0%,0%)" r="0.7" /><circle cx="292.036172212" cy="350.309616337" fill="rgb(100%,0%,0%)" r="0.7" /><circle cx="291.520670937" cy="353.264991951" fill="rgb(100%,0%,0%)" r="0.7" /><circle cx="290.94037386" cy="356.206862374" fill="rgb(100%,0%,0%)" r="0.7" /><circle cx="290.210025438" cy="359.116583094" fill="rgb(100%,0%,0%)" r="0.7" /><circle cx="289.443739241" cy="362.017044465" fill="rgb(100%,0%,0%)" r="0.7" /><circle cx="288.645817311" cy="364.908979061" fill="rgb(100%,0%,0%)" r="0.7" /><circle cx="287.817343385" cy="367.792300863" fill="rgb(100%,0%,0%)" r="0.7" /><circle cx="286.958172317" cy="370.666627106" fill="rgb(100%,0%,0%)" r="0.7" /><circle cx="286.067439973" cy="373.531322742" fill="rgb(100%,0%,0%)" r="0.7" /><circle cx="285.143718119" cy="376.385559299" fill="rgb(100%,0%,0%)" r="0.7" /><circle cx="284.185077621" cy="379.228247488" fill="rgb(100%,0%,0%)" r="0.7" /><circle cx="283.189054603" cy="382.058055471" fill="rgb(100%,0%,0%)" r="0.7" /><circle cx="282.152605409" cy="384.873301779" fill="rgb(100%,0%,0%)" r="0.7" /><circle cx="281.071996196" cy="387.671888863" fill="rgb(100%,0%,0%)" r="0.7" /><circle cx="279.942656296" cy="390.451158951" fill="rgb(100%,0%,0%)" r="0.7" /><circle cx="278.758961758" cy="393.207705859" fill="rgb(100%,0%,0%)" r="0.7" /><circle cx="277.513934598" cy="395.937080552" fill="rgb(100%,0%,0%)" r="0.7" /><circle cx="276.198810014" cy="398.633351235" fill="rgb(100%,0%,0%)" r="0.7" /><circle cx="274.802416438" cy="401.288394962" fill="rgb(100%,0%,0%)" r="0.7" /><circle cx="273.310256707" cy="403.890751574" fill="rgb(100%,0%,0%)" r="0.7" /><circle cx="271.703166141" cy="406.423611698" fill="rgb(100%,0%,0%)" r="0.7" /><circle cx="269.955316863" cy="408.861223979" fill="rgb(100%,0%,0%)" r="0.7" /><circle cx="268.031512947" cy="411.16198038" fill="rgb(100%,0%,0%)" r="0.7" /><circle cx="269.59995896" cy="410.364586878" fill="rgb(100%,0%,0%)" r="0.7" /><circle cx="272.138702968" cy="408.766219316" fill="rgb(100%,0%,0%)" r="0.7" /><circle cx="274.677446976" cy="407.167851755" fill="rgb(100%,0%,0%)" r="0.7" /><circle cx="276.125872864" cy="407.790955485" fill="rgb(100%,0%,0%)" r="0.7" /><circle cx="276.414528366" cy="410.777036194" fill="rgb(100%,0%,0%)" r="0.7" /><circle cx="276.703183868" cy="413.763116903" fill="rgb(100%,0%,0%)" r="0.7" /><circle cx="276.917" cy="415.975" fill="rgb(100%,0%,0%)" r="0.7" /><circle cx="305.920635383" cy="306.342593635" fill="rgb(0%,0%,100%)" r="0.7" /><circle cx="308.646978309" cy="307.533370022" fill="rgb(0%,0%,100%)" r="0.7" /><circle cx="310.970570036" cy="309.401596428" fill="rgb(0%,0%,100%)" r="0.7" /><circle cx="312.007711974" cy="312.159868273" fill="rgb(0%,0%,100%)" r="0.7" /><circle cx="312.167807001" cy="315.15329857" fill="rgb(0%,0%,100%)" r="0.7" /><circle cx="312.050766339" cy="318.150525209" fill="rgb(0%,0%,100%)" r="0.7" /><circle cx="311.787902155" cy="321.138808103" fill="rgb(0%,0%,100%)" r="0.7" /><circle cx="311.431303841" cy="324.117457145" fill="rgb(0%,0%,100%)" r="0.7" /><circle cx="311.007577001" cy="327.087337477" fill="rgb(0%,0%,100%)" r="0.7" /><circle cx="310.532309693" cy="330.049422702" fill="rgb(0%,0%,100%)" r="0.7" /><circle cx="310.015417467" cy="333.004537368" fill="rgb(0%,0%,100%)" r="0.7" /><circle cx="309.463500675" cy="335.953321647" fill="rgb(0%,0%,100%)" r="0.7" /><circle cx="308.880977671" cy="338.896214023" fill="rgb(0%,0%,100%)" r="0.7" /><circle cx="308.27055617" cy="341.833447428" fill="rgb(0%,0%,100%)" r="0.7" /><circle cx="307.633034124" cy="344.764903913" fill="rgb(0%,0%,100%)" r="0.7" /><circle cx="306.937482089" cy="347.682096289" fill="rgb(0%,0%,100%)" r="0.7" /><circle cx="306.035527804" cy="350.543326438" fill="rgb(0%,0%,100%)" r="0.7" /><circle cx="305.120364822" cy="353.400328289" fill="rgb(0%,0%,100%)" r="0.7" /><circle cx="304.191375319" cy="356.252833579" fill="rgb(0%,0%,100%)" r="0.7" /><circle cx="303.2478666" cy="359.100605056" fill="rgb(0%,0%,100%)" r="0.7" /><circle cx="302.289108347" cy="361.943295269" fill="rgb(0%,0%,100%)" r="0.7" /><circle cx="301.314305336" cy="364.780500833" fill="rgb(0%,0%,100%)" r="0.7" /><circle cx="300.322563691" cy="367.611823027" fill="rgb(0%,0%,100%)" r="0.7" /><circle cx="299.312896924" cy="370.436802731" fill="rgb(0%,0%,100%)" r="0.7" /><circle cx="298.284214415" cy="373.25489968" fill="rgb(0%,0%,100%)" r="0.7" /><circle cx="297.235276042" cy="376.06555073" fill="rgb(0%,0%,100%)" r="0.7" /><circle cx="296.164714173" cy="378.868028438" fill="rgb(0%,0%,100%)" r="0.7" /><circle cx="295.070960651" cy="381.661535856" fill="rgb(0%,0%,100%)" r="0.7" /><circle cx="293.952229374" cy="384.445120945" fill="rgb(0%,0%,100%)" r="0.7" /><circle cx="292.806445847" cy="387.217688357" fill="rgb(0%,0%,100%)" r="0.7" /><circle cx="291.631204982" cy="389.977885385" fill="rgb(0%,0%,100%)" r="0.7" /><circle cx="290.423652315" cy="392.724095367" fill="rgb(0%,0%,100%)" r="0.7" /><circle cx="289.180369054" cy="395.454300492" fill="rgb(0%,0%,100%)" r="0.7" /><circle cx="287.897158851" cy="398.165985374" fill="rgb(0%,0%,100%)" r="0.7" /><circle cx="286.568801826" cy="400.855819566" fill="rgb(0%,0%,100%)" r="0.7" /><circle cx="285.188552016" cy="403.519378479" fill="rgb(0%,0%,100%)" r="0.7" /><circle cx="283.74736155" cy="406.150462413" fill="rgb(0%,0%,100%)" r="0.7" /><circle cx="282.232460446" cy="408.739717649" fill="rgb(0%,0%,100%)" r="0.7" /><circle cx="280.62407416" cy="411.271874973" fill="rgb(0%,0%,100%)" r="0.7" /><circle cx="278.886660542" cy="413.716913496" fill="rgb(0%,0%,100%)" r="0.7" /><circle cx="276.917" cy="415.975" fill="rgb(0%,0%,100%)" r="0.7" /></svg>