<?xml version="1.0" encoding="utf-8" ?>
<svg baseProfile="full" height="100%" version="1.1" width="100%" xmlns="http://www.w3.org/2000/svg" xmlns:ev="http://www.w3.org/2001/xml-events" xmlns:xlink="http://www.w3.org/1999/xlink"><defs /><circle cx="318.561816836" cy="327.201604851" fill="rgb(100%,0%,0%)" r="0.7" /><circle cx="316.45755288" cy="329.33985872" fill="rgb(100%,0%,0%)" r="0.7" /><circle cx="314.355075897" cy="331.479857172" fill="rgb(100%,0%,0%)" r="0.7" /><circle cx="312.254283497" cy="333.621516188" fill="rgb(100%,0%,0%)" r="0.7" /><circle cx="310.155260939" cy="335.76490336" fill="rgb(100%,0%,0%)" r="0.7" /><circle cx="308.05817623" cy="337.910189203" fill="rgb(100%,0%,0%)" r="0.7" /><circle cx="305.963296491" cy="340.05762817" fill="rgb(100%,0%,0%)" r="0.7" /><circle cx="303.871007983" cy="342.207591535" fill="rgb(100%,0%,0%)" r="0.7" /><circle cx="301.781875586" cy="344.360622362" fill="rgb(100%,0%,0%)" r="0.7" /><circle cx="299.696763727" cy="346.517542854" fill="rgb(100%,0%,0%)" r="0.7" /><circle cx="297.617083683" cy="348.679698991" fill="rgb(100%,0%,0%)" r="0.7" /><circle cx="295.545440598" cy="350.849551641" fill="rgb(100%,0%,0%)" r="0.7" /><circle cx="293.487759999" cy="353.032665896" fill="rgb(100%,0%,0%)" r="0.7" /><circle cx="291.46726869" cy="355.250053991" fill="rgb(100%,0%,0%)" r="0.7" /><circle cx="290.49052988" cy="357.056288774" fill="rgb(100%,0%,0%)" r="0.7" /><circle cx="289.157824408" cy="358.443937032" fill="rgb(100%,0%,0%)" r="0.7" /><circle cx="287.014719389" cy="360.543188749" fill="rgb(100%,0%,0%)" r="0.7" /><circle cx="284.83553777" cy="362.604979068" fill="rgb(100%,0%,0%)" r="0.7" /><circle cx="282.62047956" cy="364.628160426" fill="rgb(100%,0%,0%)" r="0.7" /><circle cx="280.367419053" cy="366.608926715" fill="rgb(100%,0%,0%)" r="0.7" /><circle cx="278.072611097" cy="368.541144788" fill="rgb(100%,0%,0%)" r="0.7" /><circle cx="275.730594649" cy="370.415822742" fill="rgb(100%,0%,0%)" r="0.7" /><circle cx="273.333753259" cy="372.219801451" fill="rgb(100%,0%,0%)" r="0.7" /><circle cx="270.871467673" cy="373.933229785" fill="rgb(100%,0%,0%)" r="0.7" /><circle cx="268.32872867" cy="375.524476256" fill="rgb(100%,0%,0%)" r="0.7" /><circle cx="265.684050154" cy="376.938936851" fill="rgb(100%,0%,0%)" r="0.7" /><circle cx="263.098040095" cy="378.160272329" fill="rgb(100%,0%,0%)" r="0.7" /><circle cx="260.104744028" cy="378.31889017" fill="rgb(100%,0%,0%)" r="0.7" /><circle cx="257.107705159" cy="378.196848448" fill="rgb(100%,0%,0%)" r="0.7" /><circle cx="254.119648329" cy="377.931368283" fill="rgb(100%,0%,0%)" r="0.7" /><circle cx="251.141083499" cy="377.574030591" fill="rgb(100%,0%,0%)" r="0.7" /><circle cx="248.1704962" cy="377.155048698" fill="rgb(100%,0%,0%)" r="0.7" /><circle cx="245.206864697" cy="376.689638358" fill="rgb(100%,0%,0%)" r="0.7" /><circle cx="242.255505901" cy="376.152280559" fill="rgb(100%,0%,0%)" r="0.7" /><circle cx="239.315239824" cy="375.557141173" fill="rgb(100%,0%,0%)" r="0.7" /><circle cx="236.33482535" cy="375.230115739" fill="rgb(100%,0%,0%)" r="0.7" /><circle cx="233.337752817" cy="375.10039171" fill="rgb(100%,0%,0%)" r="0.7" /><circle cx="230.338782099" cy="375.021808127" fill="rgb(100%,0%,0%)" r="0.7" /><circle cx="227.339422595" cy="374.960650547" fill="rgb(100%,0%,0%)" r="0.7" /><circle cx="224.339910433" cy="374.906744998" fill="rgb(100%,0%,0%)" r="0.7" /><circle cx="222.822" cy="388.354" fill="rgb(100%,0%,0%)" r="0.7" /><circle cx="225.817278138" cy="388.521987739" fill="rgb(100%,0%,0%)" r="0.7" /><circle cx="228.811800551" cy="388.703154104" fill="rgb(100%,0%,0%)" r="0.7" /><circle cx="231.805634826" cy="388.895494446" fill="rgb(100%,0%,0%)" r="0.7" /><circle cx="234.798720866" cy="389.099022054" fill="rgb(100%,0%,0%)" r="0.7" /><circle cx="237.790978961" cy="389.314383737" fill="rgb(100%,0%,0%)" r="0.7" /><circle cx="240.782276643" cy="389.542696139" fill="rgb(100%,0%,0%)" r="0.7" /><circle cx="243.772427749" cy="389.785575868" fill="rgb(100%,0%,0%)" r="0.7" /><circle cx="246.761161625" cy="390.045277477" fill="rgb(100%,0%,0%)" r="0.7" /><circle cx="249.748089303" cy="390.324964906" fill="rgb(100%,0%,0%)" r="0.7" /><circle cx="252.732615061" cy="390.629209868" fill="rgb(100%,0%,0%)" r="0.7" /><circle cx="255.713750672" cy="390.964957962" fill="rgb(100%,0%,0%)" r="0.7" /><circle cx="258.689720532" cy="391.343615291" fill="rgb(100%,0%,0%)" r="0.7" /><circle cx="261.656771669" cy="391.78636316" fill="rgb(100%,0%,0%)" r="0.7" /><circle cx="264.638958353" cy="391.994" fill="rgb(100%,0%,0%)" r="0.7" /><circle cx="318.561816836" cy="327.201604851" fill="rgb(0%,0%,100%)" r="0.7" /><circle cx="319.844219164" cy="328.382931027" fill="rgb(0%,0%,100%)" r="0.7" /><circle cx="320.706733604" cy="331.256268605" fill="rgb(0%,0%,100%)" r="0.7" /><circle cx="321.830822665" cy="333.65542234" fill="rgb(0%,0%,100%)" r="0.7" /><circle cx="324.721344784" cy="332.852376964" fill="rgb(0%,0%,100%)" r="0.7" /><circle cx="327.611866904" cy="332.049331588" fill="rgb(0%,0%,100%)" r="0.7" /><circle cx="326.225878761" cy="333.814464613" fill="rgb(0%,0%,100%)" r="0.7" /><circle cx="324.159889984" cy="335.989728524" fill="rgb(0%,0%,100%)" r="0.7" /><circle cx="322.095180197" cy="338.166180961" fill="rgb(0%,0%,100%)" r="0.7" /><circle cx="320.031775689" cy="340.343887021" fill="rgb(0%,0%,100%)" r="0.7" /><circle cx="317.969742777" cy="342.522876624" fill="rgb(0%,0%,100%)" r="0.7" /><circle cx="315.909121742" cy="344.70321507" fill="rgb(0%,0%,100%)" r="0.7" /><circle cx="313.849981562" cy="346.88494621" fill="rgb(0%,0%,100%)" r="0.7" /><circle cx="311.792400624" cy="349.068113924" fill="rgb(0%,0%,100%)" r="0.7" /><circle cx="309.736411181" cy="351.252822544" fill="rgb(0%,0%,100%)" r="0.7" /><circle cx="307.682115964" cy="353.43911474" fill="rgb(0%,0%,100%)" r="0.7" /><circle cx="305.629588319" cy="355.627079557" fill="rgb(0%,0%,100%)" r="0.7" /><circle cx="303.578932591" cy="357.816790663" fill="rgb(0%,0%,100%)" r="0.7" /><circle cx="301.530252521" cy="360.00834304" fill="rgb(0%,0%,100%)" r="0.7" /><circle cx="299.483661013" cy="362.201846423" fill="rgb(0%,0%,100%)" r="0.7" /><circle cx="297.439291643" cy="364.39741781" fill="rgb(0%,0%,100%)" r="0.7" /><circle cx="295.397304398" cy="366.595181472" fill="rgb(0%,0%,100%)" r="0.7" /><circle cx="293.357831067" cy="368.795336048" fill="rgb(0%,0%,100%)" r="0.7" /><circle cx="291.32112283" cy="370.998006473" fill="rgb(0%,0%,100%)" r="0.7" /><circle cx="289.287389112" cy="373.20343294" fill="rgb(0%,0%,100%)" r="0.7" /><circle cx="287.256916683" cy="375.411864065" fill="rgb(0%,0%,100%)" r="0.7" /><circle cx="285.230054727" cy="377.623604901" fill="rgb(0%,0%,100%)" r="0.7" /><circle cx="283.20722762" cy="379.839052867" fill="rgb(0%,0%,100%)" r="0.7" /><circle cx="281.18900591" cy="382.058702393" fill="rgb(0%,0%,100%)" r="0.7" /><circle cx="279.176180612" cy="384.283210737" fill="rgb(0%,0%,100%)" r="0.7" /><circle cx="277.169855272" cy="386.513596634" fill="rgb(0%,0%,100%)" r="0.7" /><circle cx="275.171885265" cy="388.751495443" fill="rgb(0%,0%,100%)" r="0.7" /><circle cx="273.186283068" cy="391.000338132" fill="rgb(0%,0%,100%)" r="0.7" /><circle cx="270.638958353" cy="391.994" fill="rgb(0%,0%,100%)" r="0.7" /><circle cx="267.638958353" cy="391.994" fill="rgb(0%,0%,100%)" r="0.7" /><circle cx="264.638958353" cy="391.994" fill="rgb(0%,0%,100%)" r="0.7" /></svg>