<?xml version="1.0" encoding="utf-8" ?>
<svg baseProfile="full" height="100%" version="1.1" width="100%" xmlns="http://www.w3.org/2000/svg" xmlns:ev="http://www.w3.org/2001/xml-events" xmlns:xlink="http://www.w3.org/1999/xlink"><defs /><circle cx="320.059652919" cy="296.824723131" fill="rgb(100%,0%,0%)" r="0.7" /><circle cx="317.764110828" cy="298.72583242" fill="rgb(100%,0%,0%)" r="0.7" /><circle cx="316.025728074" cy="301.166455717" fill="rgb(100%,0%,0%)" r="0.7" /><circle cx="314.613259965" cy="303.81179876" fill="rgb(100%,0%,0%)" r="0.7" /><circle cx="313.414958207" cy="306.56151393" fill="rgb(100%,0%,0%)" r="0.7" /><circle cx="312.370412224" cy="309.37349036" fill="rgb(100%,0%,0%)" r="0.7" /><circle cx="311.443063904" cy="312.226383321" fill="rgb(100%,0%,0%)" r="0.7" /><circle cx="310.608909225" cy="315.107973165" fill="rgb(100%,0%,0%)" r="0.7" /><circle cx="309.851212605" cy="318.010646923" fill="rgb(100%,0%,0%)" r="0.7" /><circle cx="309.157764536" cy="320.929349062" fill="rgb(100%,0%,0%)" r="0.7" /><circle cx="308.519329538" cy="323.860580489" fill="rgb(100%,0%,0%)" r="0.7" /><circle cx="307.928720033" cy="326.801833768" fill="rgb(100%,0%,0%)" r="0.7" /><circle cx="307.426822078" cy="329.758954378" fill="rgb(100%,0%,0%)" r="0.7" /><circle cx="306.996402552" cy="332.727930063" fill="rgb(100%,0%,0%)" r="0.7" /><circle cx="306.576384372" cy="335.698375635" fill="rgb(100%,0%,0%)" r="0.7" /><circle cx="306.166113068" cy="338.670187479" fill="rgb(100%,0%,0%)" r="0.7" /><circle cx="305.765776282" cy="341.643359941" fill="rgb(100%,0%,0%)" r="0.7" /><circle cx="305.37598479" cy="344.617927556" fill="rgb(100%,0%,0%)" r="0.7" /><circle cx="304.997698531" cy="347.593985304" fill="rgb(100%,0%,0%)" r="0.7" /><circle cx="304.632264404" cy="350.571641581" fill="rgb(100%,0%,0%)" r="0.7" /><circle cx="304.281512086" cy="353.551064237" fill="rgb(100%,0%,0%)" r="0.7" /><circle cx="303.947944658" cy="356.532457988" fill="rgb(100%,0%,0%)" r="0.7" /><circle cx="303.63506443" cy="359.51609425" fill="rgb(100%,0%,0%)" r="0.7" /><circle cx="303.347972903" cy="362.502311959" fill="rgb(100%,0%,0%)" r="0.7" /><circle cx="303.094550655" cy="365.491572186" fill="rgb(100%,0%,0%)" r="0.7" /><circle cx="302.888111447" cy="368.484416675" fill="rgb(100%,0%,0%)" r="0.7" /><circle cx="302.754602263" cy="371.481315148" fill="rgb(100%,0%,0%)" r="0.7" /><circle cx="302.760322292" cy="374.480733576" fill="rgb(100%,0%,0%)" r="0.7" /><circle cx="302.444212792" cy="377.454751725" fill="rgb(100%,0%,0%)" r="0.7" /><circle cx="302.014333854" cy="380.42378687" fill="rgb(100%,0%,0%)" r="0.7" /><circle cx="301.584814672" cy="383.392878861" fill="rgb(100%,0%,0%)" r="0.7" /><circle cx="301.15564263" cy="386.362025266" fill="rgb(100%,0%,0%)" r="0.7" /><circle cx="300.726826869" cy="389.331226995" fill="rgb(100%,0%,0%)" r="0.7" /><circle cx="300.298390755" cy="392.300477055" fill="rgb(100%,0%,0%)" r="0.7" /><circle cx="299.870366387" cy="395.269787589" fill="rgb(100%,0%,0%)" r="0.7" /><circle cx="299.442799219" cy="398.239165789" fill="rgb(100%,0%,0%)" r="0.7" /><circle cx="299.015750879" cy="401.208616275" fill="rgb(100%,0%,0%)" r="0.7" /><circle cx="298.589302996" cy="404.178153884" fill="rgb(100%,0%,0%)" r="0.7" /><circle cx="298.163568527" cy="407.147792111" fill="rgb(100%,0%,0%)" r="0.7" /><circle cx="297.738706392" cy="410.117559679" fill="rgb(100%,0%,0%)" r="0.7" /><circle cx="297.3149556" cy="413.087486037" fill="rgb(100%,0%,0%)" r="0.7" /><circle cx="296.892699527" cy="416.057620487" fill="rgb(100%,0%,0%)" r="0.7" /><circle cx="296.472626634" cy="419.028054112" fill="rgb(100%,0%,0%)" r="0.7" /><circle cx="296.056233281" cy="421.999033101" fill="rgb(100%,0%,0%)" r="0.7" /><circle cx="295.648671198" cy="424.971219739" fill="rgb(100%,0%,0%)" r="0.7" /><circle cx="294.896517224" cy="427.864063037" fill="rgb(100%,0%,0%)" r="0.7" /><circle cx="293.914562815" cy="430.698737018" fill="rgb(100%,0%,0%)" r="0.7" /><circle cx="292.868883522" cy="433.510525916" fill="rgb(100%,0%,0%)" r="0.7" /><circle cx="291.752577073" cy="436.29500133" fill="rgb(100%,0%,0%)" r="0.7" /><circle cx="290.550536793" cy="439.043489625" fill="rgb(100%,0%,0%)" r="0.7" /><circle cx="289.236197059" cy="441.739919776" fill="rgb(100%,0%,0%)" r="0.7" /><circle cx="287.760663344" cy="444.351145561" fill="rgb(100%,0%,0%)" r="0.7" /><circle cx="286.020280054" cy="446.791503488" fill="rgb(100%,0%,0%)" r="0.7" /><circle cx="286.593690626" cy="446.784448016" fill="rgb(100%,0%,0%)" r="0.7" /><circle cx="289.114649639" cy="445.158174466" fill="rgb(100%,0%,0%)" r="0.7" /><circle cx="291.635608651" cy="443.531900917" fill="rgb(100%,0%,0%)" r="0.7" /><circle cx="294.156567664" cy="441.905627367" fill="rgb(100%,0%,0%)" r="0.7" /><circle cx="296.1554233" cy="441.714738289" fill="rgb(100%,0%,0%)" r="0.7" /><circle cx="297.042418783" cy="444.580613201" fill="rgb(100%,0%,0%)" r="0.7" /><circle cx="297.929414266" cy="447.446488113" fill="rgb(100%,0%,0%)" r="0.7" /><circle cx="298.816409749" cy="450.312363026" fill="rgb(100%,0%,0%)" r="0.7" /><circle cx="299.703405233" cy="453.178237938" fill="rgb(100%,0%,0%)" r="0.7" /><circle cx="300.37" cy="455.332" fill="rgb(100%,0%,0%)" r="0.7" /><circle cx="320.059652919" cy="296.824723131" fill="rgb(0%,0%,100%)" r="0.7" /><circle cx="322.399961201" cy="297.714010773" fill="rgb(0%,0%,100%)" r="0.7" /><circle cx="323.454364861" cy="300.516210437" fill="rgb(0%,0%,100%)" r="0.7" /><circle cx="324.115432345" cy="303.441535685" fill="rgb(0%,0%,100%)" r="0.7" /><circle cx="324.586956713" cy="306.403951466" fill="rgb(0%,0%,100%)" r="0.7" /><circle cx="324.940376802" cy="309.382928918" fill="rgb(0%,0%,100%)" r="0.7" /><circle cx="325.209471369" cy="312.370761858" fill="rgb(0%,0%,100%)" r="0.7" /><circle cx="325.412301427" cy="315.36384986" fill="rgb(0%,0%,100%)" r="0.7" /><circle cx="325.557773375" cy="318.360273669" fill="rgb(0%,0%,100%)" r="0.7" /><circle cx="325.667878722" cy="321.357949195" fill="rgb(0%,0%,100%)" r="0.7" /><circle cx="325.740464552" cy="324.356801489" fill="rgb(0%,0%,100%)" r="0.7" /><circle cx="325.712738717" cy="327.356602016" fill="rgb(0%,0%,100%)" r="0.7" /><circle cx="325.629075398" cy="330.355411775" fill="rgb(0%,0%,100%)" r="0.7" /><circle cx="325.508387616" cy="333.352975012" fill="rgb(0%,0%,100%)" r="0.7" /><circle cx="325.360812622" cy="336.349340635" fill="rgb(0%,0%,100%)" r="0.7" /><circle cx="325.19252835" cy="339.344610002" fill="rgb(0%,0%,100%)" r="0.7" /><circle cx="325.007624543" cy="342.338913704" fill="rgb(0%,0%,100%)" r="0.7" /><circle cx="324.808975064" cy="345.332323787" fill="rgb(0%,0%,100%)" r="0.7" /><circle cx="324.598684496" cy="348.324943916" fill="rgb(0%,0%,100%)" r="0.7" /><circle cx="324.378348804" cy="351.316845381" fill="rgb(0%,0%,100%)" r="0.7" /><circle cx="324.149210085" cy="354.308080814" fill="rgb(0%,0%,100%)" r="0.7" /><circle cx="323.912253681" cy="357.298709101" fill="rgb(0%,0%,100%)" r="0.7" /><circle cx="323.668275587" cy="360.288771864" fill="rgb(0%,0%,100%)" r="0.7" /><circle cx="323.417926299" cy="363.278307665" fill="rgb(0%,0%,100%)" r="0.7" /><circle cx="323.161742189" cy="366.267353194" fill="rgb(0%,0%,100%)" r="0.7" /><circle cx="322.900169441" cy="369.255926022" fill="rgb(0%,0%,100%)" r="0.7" /><circle cx="322.633577346" cy="372.244056582" fill="rgb(0%,0%,100%)" r="0.7" /><circle cx="322.362271835" cy="375.231761853" fill="rgb(0%,0%,100%)" r="0.7" /><circle cx="322.086501587" cy="378.219059874" fill="rgb(0%,0%,100%)" r="0.7" /><circle cx="321.806460989" cy="381.205977535" fill="rgb(0%,0%,100%)" r="0.7" /><circle cx="321.522295513" cy="384.192489096" fill="rgb(0%,0%,100%)" r="0.7" /><circle cx="321.234085649" cy="387.178617649" fill="rgb(0%,0%,100%)" r="0.7" /><circle cx="320.941836534" cy="390.164353015" fill="rgb(0%,0%,100%)" r="0.7" /><circle cx="320.645430635" cy="393.149660881" fill="rgb(0%,0%,100%)" r="0.7" /><circle cx="320.344475985" cy="396.134523169" fill="rgb(0%,0%,100%)" r="0.7" /><circle cx="320.046091668" cy="399.119584527" fill="rgb(0%,0%,100%)" r="0.7" /><circle cx="319.723326483" cy="402.102025254" fill="rgb(0%,0%,100%)" r="0.7" /><circle cx="319.302594148" cy="405.072249507" fill="rgb(0%,0%,100%)" r="0.7" /><circle cx="318.790968188" cy="408.028189715" fill="rgb(0%,0%,100%)" r="0.7" /><circle cx="318.194874595" cy="410.968273923" fill="rgb(0%,0%,100%)" r="0.7" /><circle cx="317.520122238" cy="413.891321489" fill="rgb(0%,0%,100%)" r="0.7" /><circle cx="316.771941649" cy="416.796453378" fill="rgb(0%,0%,100%)" r="0.7" /><circle cx="315.955027016" cy="419.683016715" fill="rgb(0%,0%,100%)" r="0.7" /><circle cx="315.073571754" cy="422.550540544" fill="rgb(0%,0%,100%)" r="0.7" /><circle cx="314.131310516" cy="425.398666362" fill="rgb(0%,0%,100%)" r="0.7" /><circle cx="313.131545707" cy="428.227121672" fill="rgb(0%,0%,100%)" r="0.7" /><circle cx="312.077168275" cy="431.035689459" fill="rgb(0%,0%,100%)" r="0.7" /><circle cx="310.970685208" cy="433.824138994" fill="rgb(0%,0%,100%)" r="0.7" /><circle cx="309.814208961" cy="436.592225832" fill="rgb(0%,0%,100%)" r="0.7" /><circle cx="308.609441123" cy="439.339648888" fill="rgb(0%,0%,100%)" r="0.7" /><circle cx="307.35764203" cy="442.065963391" fill="rgb(0%,0%,100%)" r="0.7" /><circle cx="306.059525065" cy="444.770521716" fill="rgb(0%,0%,100%)" r="0.7" /><circle cx="304.715042846" cy="447.452348022" fill="rgb(0%,0%,100%)" r="0.7" /><circle cx="303.32295534" cy="450.109759341" fill="rgb(0%,0%,100%)" r="0.7" /><circle cx="301.879449157" cy="452.73958072" fill="rgb(0%,0%,100%)" r="0.7" /><circle cx="300.37" cy="455.332" fill="rgb(0%,0%,100%)" r="0.7" /></svg>