<?xml version="1.0" encoding="utf-8" ?>
<svg baseProfile="full" height="100%" version="1.1" width="100%" xmlns="http://www.w3.org/2000/svg" xmlns:ev="http://www.w3.org/2001/xml-events" xmlns:xlink="http://www.w3.org/1999/xlink"><defs /><circle cx="323.81980326" cy="274.266800269" fill="rgb(100%,0%,0%)" r="0.7" /><circle cx="321.86842127" cy="276.510874344" fill="rgb(100%,0%,0%)" r="0.7" /><circle cx="320.531721357" cy="279.194132593" fill="rgb(100%,0%,0%)" r="0.7" /><circle cx="319.532710093" cy="282.022199597" fill="rgb(100%,0%,0%)" r="0.7" /><circle cx="318.571309046" cy="284.863970214" fill="rgb(100%,0%,0%)" r="0.7" /><circle cx="317.624044314" cy="287.71049788" fill="rgb(100%,0%,0%)" r="0.7" /><circle cx="316.690001213" cy="290.561384062" fill="rgb(100%,0%,0%)" r="0.7" /><circle cx="315.76903557" cy="293.416521109" fill="rgb(100%,0%,0%)" r="0.7" /><circle cx="314.861395082" cy="296.275917486" fill="rgb(100%,0%,0%)" r="0.7" /><circle cx="313.967593203" cy="299.139674231" fill="rgb(100%,0%,0%)" r="0.7" /><circle cx="313.088378293" cy="302.007944809" fill="rgb(100%,0%,0%)" r="0.7" /><circle cx="312.224729211" cy="304.880937392" fill="rgb(100%,0%,0%)" r="0.7" /><circle cx="311.377873842" cy="307.758925164" fill="rgb(100%,0%,0%)" r="0.7" /><circle cx="310.549335275" cy="310.642237324" fill="rgb(100%,0%,0%)" r="0.7" /><circle cx="309.740994515" cy="313.531276522" fill="rgb(100%,0%,0%)" r="0.7" /><circle cx="308.994367244" cy="316.436820223" fill="rgb(100%,0%,0%)" r="0.7" /><circle cx="308.271488895" cy="319.348416475" fill="rgb(100%,0%,0%)" r="0.7" /><circle cx="307.564135883" cy="322.263835927" fill="rgb(100%,0%,0%)" r="0.7" /><circle cx="306.87202089" cy="325.182901237" fill="rgb(100%,0%,0%)" r="0.7" /><circle cx="306.195747955" cy="328.105679593" fill="rgb(100%,0%,0%)" r="0.7" /><circle cx="305.536509313" cy="331.032345562" fill="rgb(100%,0%,0%)" r="0.7" /><circle cx="304.89605363" cy="333.963179788" fill="rgb(100%,0%,0%)" r="0.7" /><circle cx="304.276783902" cy="336.898561882" fill="rgb(100%,0%,0%)" r="0.7" /><circle cx="303.68196346" cy="339.83899269" fill="rgb(100%,0%,0%)" r="0.7" /><circle cx="303.116082381" cy="342.785125059" fill="rgb(100%,0%,0%)" r="0.7" /><circle cx="302.585503777" cy="345.737812317" fill="rgb(100%,0%,0%)" r="0.7" /><circle cx="302.055100734" cy="348.690431714" fill="rgb(100%,0%,0%)" r="0.7" /><circle cx="301.500869684" cy="351.638787061" fill="rgb(100%,0%,0%)" r="0.7" /><circle cx="300.944494741" cy="354.586749538" fill="rgb(100%,0%,0%)" r="0.7" /><circle cx="300.386002701" cy="357.534300323" fill="rgb(100%,0%,0%)" r="0.7" /><circle cx="299.8252413" cy="360.481425869" fill="rgb(100%,0%,0%)" r="0.7" /><circle cx="299.261940368" cy="363.428070665" fill="rgb(100%,0%,0%)" r="0.7" /><circle cx="298.695692932" cy="366.374147366" fill="rgb(100%,0%,0%)" r="0.7" /><circle cx="298.125895838" cy="369.319541192" fill="rgb(100%,0%,0%)" r="0.7" /><circle cx="297.551636619" cy="372.264064572" fill="rgb(100%,0%,0%)" r="0.7" /><circle cx="296.971438658" cy="375.207430336" fill="rgb(100%,0%,0%)" r="0.7" /><circle cx="296.38265936" cy="378.149081084" fill="rgb(100%,0%,0%)" r="0.7" /><circle cx="295.77957069" cy="381.087838478" fill="rgb(100%,0%,0%)" r="0.7" /><circle cx="295.143174021" cy="384.01950631" fill="rgb(100%,0%,0%)" r="0.7" /><circle cx="294.480887946" cy="386.945439594" fill="rgb(100%,0%,0%)" r="0.7" /><circle cx="293.826207395" cy="389.873133802" fill="rgb(100%,0%,0%)" r="0.7" /><circle cx="293.171526843" cy="392.80082801" fill="rgb(100%,0%,0%)" r="0.7" /><circle cx="292.516846292" cy="395.728522218" fill="rgb(100%,0%,0%)" r="0.7" /><circle cx="291.862165741" cy="398.656216426" fill="rgb(100%,0%,0%)" r="0.7" /><circle cx="291.207485189" cy="401.583910634" fill="rgb(100%,0%,0%)" r="0.7" /><circle cx="292.315162878" cy="401.943098352" fill="rgb(100%,0%,0%)" r="0.7" /><circle cx="294.811209463" cy="400.278841327" fill="rgb(100%,0%,0%)" r="0.7" /><circle cx="297.307256048" cy="398.614584302" fill="rgb(100%,0%,0%)" r="0.7" /><circle cx="299.651947438" cy="399.174303846" fill="rgb(100%,0%,0%)" r="0.7" /><circle cx="301.899497697" cy="401.161391623" fill="rgb(100%,0%,0%)" r="0.7" /><circle cx="304.147047955" cy="403.1484794" fill="rgb(100%,0%,0%)" r="0.7" /><circle cx="306.394598214" cy="405.135567177" fill="rgb(100%,0%,0%)" r="0.7" /><circle cx="308.077" cy="406.623" fill="rgb(100%,0%,0%)" r="0.7" /><circle cx="323.81980326" cy="274.266800269" fill="rgb(0%,0%,100%)" r="0.7" /><circle cx="326.611564885" cy="274.507590111" fill="rgb(0%,0%,100%)" r="0.7" /><circle cx="328.653433439" cy="276.671018877" fill="rgb(0%,0%,100%)" r="0.7" /><circle cx="329.471572582" cy="279.541471499" fill="rgb(0%,0%,100%)" r="0.7" /><circle cx="329.576171353" cy="282.535723887" fill="rgb(0%,0%,100%)" r="0.7" /><circle cx="329.474526848" cy="285.532717032" fill="rgb(0%,0%,100%)" r="0.7" /><circle cx="329.210301381" cy="288.520906715" fill="rgb(0%,0%,100%)" r="0.7" /><circle cx="328.869317049" cy="291.501452977" fill="rgb(0%,0%,100%)" r="0.7" /><circle cx="328.484094052" cy="294.476577306" fill="rgb(0%,0%,100%)" r="0.7" /><circle cx="328.069125913" cy="297.447741202" fill="rgb(0%,0%,100%)" r="0.7" /><circle cx="327.632377932" cy="300.415796167" fill="rgb(0%,0%,100%)" r="0.7" /><circle cx="327.178783259" cy="303.381296107" fill="rgb(0%,0%,100%)" r="0.7" /><circle cx="326.711635833" cy="306.344699029" fill="rgb(0%,0%,100%)" r="0.7" /><circle cx="326.233274157" cy="309.306306856" fill="rgb(0%,0%,100%)" r="0.7" /><circle cx="325.745418224" cy="312.266397261" fill="rgb(0%,0%,100%)" r="0.7" /><circle cx="325.249395084" cy="315.225101859" fill="rgb(0%,0%,100%)" r="0.7" /><circle cx="324.74623364" cy="318.182594577" fill="rgb(0%,0%,100%)" r="0.7" /><circle cx="324.236757353" cy="321.13901765" fill="rgb(0%,0%,100%)" r="0.7" /><circle cx="323.721640354" cy="324.0944708" fill="rgb(0%,0%,100%)" r="0.7" /><circle cx="323.201442683" cy="327.049024842" fill="rgb(0%,0%,100%)" r="0.7" /><circle cx="322.676627429" cy="330.002775412" fill="rgb(0%,0%,100%)" r="0.7" /><circle cx="322.147595281" cy="332.955757185" fill="rgb(0%,0%,100%)" r="0.7" /><circle cx="321.614680789" cy="335.908046194" fill="rgb(0%,0%,100%)" r="0.7" /><circle cx="321.07817661" cy="338.859685055" fill="rgb(0%,0%,100%)" r="0.7" /><circle cx="320.538336551" cy="341.810713172" fill="rgb(0%,0%,100%)" r="0.7" /><circle cx="319.99538105" cy="344.761172489" fill="rgb(0%,0%,100%)" r="0.7" /><circle cx="319.449504924" cy="347.711093406" fill="rgb(0%,0%,100%)" r="0.7" /><circle cx="318.900880036" cy="350.660502821" fill="rgb(0%,0%,100%)" r="0.7" /><circle cx="318.349658088" cy="353.609426845" fill="rgb(0%,0%,100%)" r="0.7" /><circle cx="317.795973149" cy="356.557891516" fill="rgb(0%,0%,100%)" r="0.7" /><circle cx="317.239944405" cy="359.505919617" fill="rgb(0%,0%,100%)" r="0.7" /><circle cx="316.68167973" cy="362.453521062" fill="rgb(0%,0%,100%)" r="0.7" /><circle cx="316.121272986" cy="365.400714614" fill="rgb(0%,0%,100%)" r="0.7" /><circle cx="315.558808246" cy="368.347511304" fill="rgb(0%,0%,100%)" r="0.7" /><circle cx="314.99435501" cy="371.293943739" fill="rgb(0%,0%,100%)" r="0.7" /><circle cx="314.427986125" cy="374.239975585" fill="rgb(0%,0%,100%)" r="0.7" /><circle cx="313.859743351" cy="377.18568239" fill="rgb(0%,0%,100%)" r="0.7" /><circle cx="313.289683122" cy="380.131013564" fill="rgb(0%,0%,100%)" r="0.7" /><circle cx="312.717829455" cy="383.076034474" fill="rgb(0%,0%,100%)" r="0.7" /><circle cx="312.144222102" cy="386.020672973" fill="rgb(0%,0%,100%)" r="0.7" /><circle cx="311.568860094" cy="388.965001112" fill="rgb(0%,0%,100%)" r="0.7" /><circle cx="310.991749555" cy="391.908973553" fill="rgb(0%,0%,100%)" r="0.7" /><circle cx="310.412864976" cy="394.852597638" fill="rgb(0%,0%,100%)" r="0.7" /><circle cx="309.83215301" cy="397.795858547" fill="rgb(0%,0%,100%)" r="0.7" /><circle cx="309.249510931" cy="400.738707816" fill="rgb(0%,0%,100%)" r="0.7" /><circle cx="308.664694231" cy="403.681189239" fill="rgb(0%,0%,100%)" r="0.7" /><circle cx="308.077" cy="406.623" fill="rgb(0%,0%,100%)" r="0.7" /></svg>