<?xml version="1.0" encoding="utf-8" ?>
<svg baseProfile="full" height="100%" version="1.1" width="100%" xmlns="http://www.w3.org/2000/svg" xmlns:ev="http://www.w3.org/2001/xml-events" xmlns:xlink="http://www.w3.org/1999/xlink"><defs /><circle cx="242.088344031" cy="329.015936253" fill="rgb(100%,0%,0%)" r="0.7" /><circle cx="239.156028575" cy="329.595383966" fill="rgb(100%,0%,0%)" r="0.7" /><circle cx="236.822205423" cy="331.392948908" fill="rgb(100%,0%,0%)" r="0.7" /><circle cx="236.083761059" cy="334.272874487" fill="rgb(100%,0%,0%)" r="0.7" /><circle cx="235.659972287" cy="337.242779347" fill="rgb(100%,0%,0%)" r="0.7" /><circle cx="235.253161701" cy="340.215070087" fill="rgb(100%,0%,0%)" r="0.7" /><circle cx="234.863068544" cy="343.189595245" fill="rgb(100%,0%,0%)" r="0.7" /><circle cx="234.490786804" cy="346.166403591" fill="rgb(100%,0%,0%)" r="0.7" /><circle cx="234.138336671" cy="349.145623461" fill="rgb(100%,0%,0%)" r="0.7" /><circle cx="233.808756368" cy="352.127457829" fill="rgb(100%,0%,0%)" r="0.7" /><circle cx="233.506481759" cy="355.112178154" fill="rgb(100%,0%,0%)" r="0.7" /><circle cx="233.23812639" cy="358.100133423" fill="rgb(100%,0%,0%)" r="0.7" /><circle cx="233.014087365" cy="361.091720406" fill="rgb(100%,0%,0%)" r="0.7" /><circle cx="232.852222642" cy="364.087272721" fill="rgb(100%,0%,0%)" r="0.7" /><circle cx="232.784427928" cy="367.086286461" fill="rgb(100%,0%,0%)" r="0.7" /><circle cx="232.689059552" cy="370.084756989" fill="rgb(100%,0%,0%)" r="0.7" /><circle cx="232.594665097" cy="373.083278408" fill="rgb(100%,0%,0%)" r="0.7" /><circle cx="232.501050268" cy="376.081815957" fill="rgb(100%,0%,0%)" r="0.7" /><circle cx="232.408165463" cy="379.080381455" fill="rgb(100%,0%,0%)" r="0.7" /><circle cx="232.315999868" cy="382.07897996" fill="rgb(100%,0%,0%)" r="0.7" /><circle cx="232.224563145" cy="385.077591114" fill="rgb(100%,0%,0%)" r="0.7" /><circle cx="232.133877885" cy="388.076212182" fill="rgb(100%,0%,0%)" r="0.7" /><circle cx="232.043977005" cy="391.074869963" fill="rgb(100%,0%,0%)" r="0.7" /><circle cx="231.954905412" cy="394.073549503" fill="rgb(100%,0%,0%)" r="0.7" /><circle cx="231.866718916" cy="397.07224863" fill="rgb(100%,0%,0%)" r="0.7" /><circle cx="231.779485509" cy="400.070983747" fill="rgb(100%,0%,0%)" r="0.7" /><circle cx="231.693288972" cy="403.069745539" fill="rgb(100%,0%,0%)" r="0.7" /><circle cx="231.608231016" cy="406.068541173" fill="rgb(100%,0%,0%)" r="0.7" /><circle cx="231.524436748" cy="409.067373417" fill="rgb(100%,0%,0%)" r="0.7" /><circle cx="231.442061532" cy="412.066244336" fill="rgb(100%,0%,0%)" r="0.7" /><circle cx="231.361301087" cy="415.065160016" fill="rgb(100%,0%,0%)" r="0.7" /><circle cx="231.282407142" cy="418.064122357" fill="rgb(100%,0%,0%)" r="0.7" /><circle cx="231.205711376" cy="421.063139095" fill="rgb(100%,0%,0%)" r="0.7" /><circle cx="231.13166511" cy="424.062233019" fill="rgb(100%,0%,0%)" r="0.7" /><circle cx="231.06091059" cy="427.061393307" fill="rgb(100%,0%,0%)" r="0.7" /><circle cx="230.994412839" cy="430.060660577" fill="rgb(100%,0%,0%)" r="0.7" /><circle cx="230.933748945" cy="433.060051122" fill="rgb(100%,0%,0%)" r="0.7" /><circle cx="230.881840778" cy="436.05959668" fill="rgb(100%,0%,0%)" r="0.7" /><circle cx="230.845470598" cy="439.059386927" fill="rgb(100%,0%,0%)" r="0.7" /><circle cx="230.799887976" cy="442.058815755" fill="rgb(100%,0%,0%)" r="0.7" /><circle cx="230.724621594" cy="445.057894611" fill="rgb(100%,0%,0%)" r="0.7" /><circle cx="230.650499551" cy="448.056971166" fill="rgb(100%,0%,0%)" r="0.7" /><circle cx="230.577469573" cy="451.05607875" fill="rgb(100%,0%,0%)" r="0.7" /><circle cx="230.505571007" cy="454.055224591" fill="rgb(100%,0%,0%)" r="0.7" /><circle cx="230.434894807" cy="457.054394025" fill="rgb(100%,0%,0%)" r="0.7" /><circle cx="230.365578994" cy="460.05359484" fill="rgb(100%,0%,0%)" r="0.7" /><circle cx="230.297818722" cy="463.052829532" fill="rgb(100%,0%,0%)" r="0.7" /><circle cx="230.231887224" cy="466.052107414" fill="rgb(100%,0%,0%)" r="0.7" /><circle cx="230.168175635" cy="469.051433159" fill="rgb(100%,0%,0%)" r="0.7" /><circle cx="230.107268141" cy="472.050816468" fill="rgb(100%,0%,0%)" r="0.7" /><circle cx="230.050098772" cy="475.050274583" fill="rgb(100%,0%,0%)" r="0.7" /><circle cx="229.998329649" cy="478.049825326" fill="rgb(100%,0%,0%)" r="0.7" /><circle cx="229.955515433" cy="481.049523746" fill="rgb(100%,0%,0%)" r="0.7" /><circle cx="229.933117443" cy="484.049420725" fill="rgb(100%,0%,0%)" r="0.7" /><circle cx="230.954281585" cy="484.410823624" fill="rgb(100%,0%,0%)" r="0.7" /><circle cx="232.944672432" cy="482.16619798" fill="rgb(100%,0%,0%)" r="0.7" /><circle cx="234.935063278" cy="479.921572337" fill="rgb(100%,0%,0%)" r="0.7" /><circle cx="236.925454124" cy="477.676946693" fill="rgb(100%,0%,0%)" r="0.7" /><circle cx="239.13233549" cy="476.580119368" fill="rgb(100%,0%,0%)" r="0.7" /><circle cx="241.803620975" cy="477.945488862" fill="rgb(100%,0%,0%)" r="0.7" /><circle cx="244.474906461" cy="479.310858356" fill="rgb(100%,0%,0%)" r="0.7" /><circle cx="247.146191946" cy="480.67622785" fill="rgb(100%,0%,0%)" r="0.7" /><circle cx="249.817477432" cy="482.041597344" fill="rgb(100%,0%,0%)" r="0.7" /><circle cx="252.488762918" cy="483.406966838" fill="rgb(100%,0%,0%)" r="0.7" /><circle cx="255.132" cy="484.758" fill="rgb(100%,0%,0%)" r="0.7" /><circle cx="242.088344031" cy="329.015936253" fill="rgb(0%,0%,100%)" r="0.7" /><circle cx="245.084609684" cy="329.077734672" fill="rgb(0%,0%,100%)" r="0.7" /><circle cx="247.943811942" cy="329.776011341" fill="rgb(0%,0%,100%)" r="0.7" /><circle cx="249.280520607" cy="332.439749603" fill="rgb(0%,0%,100%)" r="0.7" /><circle cx="250.0990476" cy="335.32492971" fill="rgb(0%,0%,100%)" r="0.7" /><circle cx="250.740116799" cy="338.255408296" fill="rgb(0%,0%,100%)" r="0.7" /><circle cx="251.283210187" cy="341.205755398" fill="rgb(0%,0%,100%)" r="0.7" /><circle cx="251.761678233" cy="344.167322386" fill="rgb(0%,0%,100%)" r="0.7" /><circle cx="252.193178833" cy="347.136099706" fill="rgb(0%,0%,100%)" r="0.7" /><circle cx="252.58836042" cy="350.109946036" fill="rgb(0%,0%,100%)" r="0.7" /><circle cx="252.954185122" cy="353.087550371" fill="rgb(0%,0%,100%)" r="0.7" /><circle cx="253.295462647" cy="356.068070233" fill="rgb(0%,0%,100%)" r="0.7" /><circle cx="253.6156331" cy="359.0509326" fill="rgb(0%,0%,100%)" r="0.7" /><circle cx="253.917197885" cy="362.03573392" fill="rgb(0%,0%,100%)" r="0.7" /><circle cx="254.201959261" cy="365.022191855" fill="rgb(0%,0%,100%)" r="0.7" /><circle cx="254.471127021" cy="368.010083733" fill="rgb(0%,0%,100%)" r="0.7" /><circle cx="254.725294843" cy="370.999304167" fill="rgb(0%,0%,100%)" r="0.7" /><circle cx="254.964058963" cy="373.989785167" fill="rgb(0%,0%,100%)" r="0.7" /><circle cx="255.137899259" cy="376.983507061" fill="rgb(0%,0%,100%)" r="0.7" /><circle cx="255.243249283" cy="379.981510138" fill="rgb(0%,0%,100%)" r="0.7" /><circle cx="255.422446644" cy="382.976114616" fill="rgb(0%,0%,100%)" r="0.7" /><circle cx="255.6453235" cy="385.967805872" fill="rgb(0%,0%,100%)" r="0.7" /><circle cx="255.901269045" cy="388.956857761" fill="rgb(0%,0%,100%)" r="0.7" /><circle cx="256.466932624" cy="391.896849673" fill="rgb(0%,0%,100%)" r="0.7" /><circle cx="256.925713292" cy="394.861075061" fill="rgb(0%,0%,100%)" r="0.7" /><circle cx="257.242928989" cy="397.844099359" fill="rgb(0%,0%,100%)" r="0.7" /><circle cx="257.470698237" cy="400.835343721" fill="rgb(0%,0%,100%)" r="0.7" /><circle cx="257.635429738" cy="403.83078427" fill="rgb(0%,0%,100%)" r="0.7" /><circle cx="257.75263231" cy="406.828485098" fill="rgb(0%,0%,100%)" r="0.7" /><circle cx="257.832315575" cy="409.827415699" fill="rgb(0%,0%,100%)" r="0.7" /><circle cx="257.881375961" cy="412.826997165" fill="rgb(0%,0%,100%)" r="0.7" /><circle cx="257.904798174" cy="415.826902468" fill="rgb(0%,0%,100%)" r="0.7" /><circle cx="257.906319533" cy="418.826886151" fill="rgb(0%,0%,100%)" r="0.7" /><circle cx="257.888825054" cy="421.826834823" fill="rgb(0%,0%,100%)" r="0.7" /><circle cx="257.854594303" cy="424.826638306" fill="rgb(0%,0%,100%)" r="0.7" /><circle cx="257.805463217" cy="427.826238607" fill="rgb(0%,0%,100%)" r="0.7" /><circle cx="257.742934228" cy="430.825584902" fill="rgb(0%,0%,100%)" r="0.7" /><circle cx="257.668252715" cy="433.824653158" fill="rgb(0%,0%,100%)" r="0.7" /><circle cx="257.582462374" cy="436.823426402" fill="rgb(0%,0%,100%)" r="0.7" /><circle cx="257.486445708" cy="439.821890584" fill="rgb(0%,0%,100%)" r="0.7" /><circle cx="257.380954043" cy="442.820036373" fill="rgb(0%,0%,100%)" r="0.7" /><circle cx="257.266630167" cy="445.817858733" fill="rgb(0%,0%,100%)" r="0.7" /><circle cx="257.14402598" cy="448.815345432" fill="rgb(0%,0%,100%)" r="0.7" /><circle cx="257.013613838" cy="451.812517237" fill="rgb(0%,0%,100%)" r="0.7" /><circle cx="256.87580001" cy="454.809340486" fill="rgb(0%,0%,100%)" r="0.7" /><circle cx="256.730926304" cy="457.805847813" fill="rgb(0%,0%,100%)" r="0.7" /><circle cx="256.579279619" cy="460.802023236" fill="rgb(0%,0%,100%)" r="0.7" /><circle cx="256.421092171" cy="463.797839783" fill="rgb(0%,0%,100%)" r="0.7" /><circle cx="256.256536746" cy="466.793318476" fill="rgb(0%,0%,100%)" r="0.7" /><circle cx="256.085723386" cy="469.788468954" fill="rgb(0%,0%,100%)" r="0.7" /><circle cx="255.908687928" cy="472.783245701" fill="rgb(0%,0%,100%)" r="0.7" /><circle cx="255.72535804" cy="475.777615933" fill="rgb(0%,0%,100%)" r="0.7" /><circle cx="255.535478756" cy="478.771630718" fill="rgb(0%,0%,100%)" r="0.7" /><circle cx="255.33843064" cy="481.76512734" fill="rgb(0%,0%,100%)" r="0.7" /><circle cx="255.132" cy="484.758" fill="rgb(0%,0%,100%)" r="0.7" /></svg>