<?xml version="1.0" encoding="utf-8" ?>
<svg baseProfile="full" height="100%" version="1.1" width="100%" xmlns="http://www.w3.org/2000/svg" xmlns:ev="http://www.w3.org/2001/xml-events" xmlns:xlink="http://www.w3.org/1999/xlink"><defs /><circle cx="308.682194143" cy="245.885250597" fill="rgb(100%,0%,0%)" r="0.7" /><circle cx="305.786635767" cy="246.619835994" fill="rgb(100%,0%,0%)" r="0.7" /><circle cx="303.084081417" cy="247.917968418" fill="rgb(100%,0%,0%)" r="0.7" /><circle cx="300.50646436" cy="249.451823005" fill="rgb(100%,0%,0%)" r="0.7" /><circle cx="298.011653878" cy="251.117542812" fill="rgb(100%,0%,0%)" r="0.7" /><circle cx="295.576083248" cy="252.86893264" fill="rgb(100%,0%,0%)" r="0.7" /><circle cx="293.185385715" cy="254.681171511" fill="rgb(100%,0%,0%)" r="0.7" /><circle cx="290.841716492" cy="256.553627187" fill="rgb(100%,0%,0%)" r="0.7" /><circle cx="288.524008501" cy="258.458418427" fill="rgb(100%,0%,0%)" r="0.7" /><circle cx="286.20630051" cy="260.363209667" fill="rgb(100%,0%,0%)" r="0.7" /><circle cx="283.888592519" cy="262.268000907" fill="rgb(100%,0%,0%)" r="0.7" /><circle cx="281.570884529" cy="264.172792148" fill="rgb(100%,0%,0%)" r="0.7" /><circle cx="279.253176538" cy="266.077583388" fill="rgb(100%,0%,0%)" r="0.7" /><circle cx="277.031546312" cy="268.087964139" fill="rgb(100%,0%,0%)" r="0.7" /><circle cx="275.151777469" cy="270.422882803" fill="rgb(100%,0%,0%)" r="0.7" /><circle cx="273.596384827" cy="272.985839753" fill="rgb(100%,0%,0%)" r="0.7" /><circle cx="272.367193692" cy="275.720495049" fill="rgb(100%,0%,0%)" r="0.7" /><circle cx="271.46333863" cy="278.579434036" fill="rgb(100%,0%,0%)" r="0.7" /><circle cx="270.875610929" cy="281.519896179" fill="rgb(100%,0%,0%)" r="0.7" /><circle cx="270.586457806" cy="284.504758891" fill="rgb(100%,0%,0%)" r="0.7" /><circle cx="270.572330626" cy="287.503772981" fill="rgb(100%,0%,0%)" r="0.7" /><circle cx="270.806649137" cy="290.493830865" fill="rgb(100%,0%,0%)" r="0.7" /><circle cx="271.262362701" cy="293.458402505" fill="rgb(100%,0%,0%)" r="0.7" /><circle cx="271.91369881" cy="296.386337748" fill="rgb(100%,0%,0%)" r="0.7" /><circle cx="272.737145254" cy="299.270700032" fill="rgb(100%,0%,0%)" r="0.7" /><circle cx="273.857658493" cy="302.041602439" fill="rgb(100%,0%,0%)" r="0.7" /><circle cx="275.313280765" cy="304.664798559" fill="rgb(100%,0%,0%)" r="0.7" /><circle cx="276.778552437" cy="307.282615721" fill="rgb(100%,0%,0%)" r="0.7" /><circle cx="278.252344253" cy="309.89565635" fill="rgb(100%,0%,0%)" r="0.7" /><circle cx="279.734415227" cy="312.503994323" fill="rgb(100%,0%,0%)" r="0.7" /><circle cx="281.224888288" cy="315.107545036" fill="rgb(100%,0%,0%)" r="0.7" /><circle cx="282.724091656" cy="317.706083228" fill="rgb(100%,0%,0%)" r="0.7" /><circle cx="284.232526956" cy="320.299271834" fill="rgb(100%,0%,0%)" r="0.7" /><circle cx="285.750873079" cy="322.886670152" fill="rgb(100%,0%,0%)" r="0.7" /><circle cx="287.27999951" cy="325.467708292" fill="rgb(100%,0%,0%)" r="0.7" /><circle cx="288.821010444" cy="328.041668688" fill="rgb(100%,0%,0%)" r="0.7" /><circle cx="290.375300583" cy="330.607632071" fill="rgb(100%,0%,0%)" r="0.7" /><circle cx="291.94465077" cy="333.164411696" fill="rgb(100%,0%,0%)" r="0.7" /><circle cx="293.531372323" cy="335.710444951" fill="rgb(100%,0%,0%)" r="0.7" /><circle cx="295.138536954" cy="338.2436184" fill="rgb(100%,0%,0%)" r="0.7" /><circle cx="296.770361888" cy="340.760972076" fill="rgb(100%,0%,0%)" r="0.7" /><circle cx="298.432883338" cy="343.258141593" fill="rgb(100%,0%,0%)" r="0.7" /><circle cx="300.135291841" cy="345.728283682" fill="rgb(100%,0%,0%)" r="0.7" /><circle cx="301.892767395" cy="348.159483793" fill="rgb(100%,0%,0%)" r="0.7" /><circle cx="303.652674014" cy="350.588803758" fill="rgb(100%,0%,0%)" r="0.7" /><circle cx="305.400389389" cy="353.027150878" fill="rgb(100%,0%,0%)" r="0.7" /><circle cx="307.146511335" cy="355.466674827" fill="rgb(100%,0%,0%)" r="0.7" /><circle cx="308.89120634" cy="357.907195288" fill="rgb(100%,0%,0%)" r="0.7" /><circle cx="310.634557621" cy="360.348637611" fill="rgb(100%,0%,0%)" r="0.7" /><circle cx="312.376623996" cy="362.790987068" fill="rgb(100%,0%,0%)" r="0.7" /><circle cx="314.117450468" cy="365.234261696" fill="rgb(100%,0%,0%)" r="0.7" /><circle cx="315.857013981" cy="367.678417669" fill="rgb(100%,0%,0%)" r="0.7" /><circle cx="317.595318812" cy="370.123473781" fill="rgb(100%,0%,0%)" r="0.7" /><circle cx="319.332352151" cy="372.56944401" fill="rgb(100%,0%,0%)" r="0.7" /><circle cx="321.068081674" cy="375.01633111" fill="rgb(100%,0%,0%)" r="0.7" /><circle cx="322.802481855" cy="377.464162047" fill="rgb(100%,0%,0%)" r="0.7" /><circle cx="324.535514102" cy="379.912959236" fill="rgb(100%,0%,0%)" r="0.7" /><circle cx="326.267141648" cy="382.362761377" fill="rgb(100%,0%,0%)" r="0.7" /><circle cx="327.997299366" cy="384.813581006" fill="rgb(100%,0%,0%)" r="0.7" /><circle cx="329.725942623" cy="387.265474294" fill="rgb(100%,0%,0%)" r="0.7" /><circle cx="331.453008833" cy="389.718487687" fill="rgb(100%,0%,0%)" r="0.7" /><circle cx="333.17842257" cy="392.172666487" fill="rgb(100%,0%,0%)" r="0.7" /><circle cx="334.902095195" cy="394.628056074" fill="rgb(100%,0%,0%)" r="0.7" /><circle cx="336.623942787" cy="397.084729729" fill="rgb(100%,0%,0%)" r="0.7" /><circle cx="338.343860775" cy="399.542755334" fill="rgb(100%,0%,0%)" r="0.7" /><circle cx="340.061732343" cy="402.00221078" fill="rgb(100%,0%,0%)" r="0.7" /><circle cx="341.777426118" cy="404.463184943" fill="rgb(100%,0%,0%)" r="0.7" /><circle cx="343.490793673" cy="406.925779441" fill="rgb(100%,0%,0%)" r="0.7" /><circle cx="345.201666039" cy="409.390110255" fill="rgb(100%,0%,0%)" r="0.7" /><circle cx="346.909849929" cy="411.856310673" fill="rgb(100%,0%,0%)" r="0.7" /><circle cx="348.61511723" cy="414.324526744" fill="rgb(100%,0%,0%)" r="0.7" /><circle cx="350.31720154" cy="416.794925924" fill="rgb(100%,0%,0%)" r="0.7" /><circle cx="352.015805801" cy="419.267726143" fill="rgb(100%,0%,0%)" r="0.7" /><circle cx="353.710562121" cy="421.743161309" fill="rgb(100%,0%,0%)" r="0.7" /><circle cx="355.401049899" cy="424.221539982" fill="rgb(100%,0%,0%)" r="0.7" /><circle cx="357.086714855" cy="426.703171416" fill="rgb(100%,0%,0%)" r="0.7" /><circle cx="358.7669304" cy="429.188518967" fill="rgb(100%,0%,0%)" r="0.7" /><circle cx="360.440860469" cy="431.6780908" fill="rgb(100%,0%,0%)" r="0.7" /><circle cx="362.107445884" cy="434.172559239" fill="rgb(100%,0%,0%)" r="0.7" /><circle cx="363.765326755" cy="436.672868081" fill="rgb(100%,0%,0%)" r="0.7" /><circle cx="365.412563023" cy="439.180183141" fill="rgb(100%,0%,0%)" r="0.7" /><circle cx="367.046423934" cy="441.696233115" fill="rgb(100%,0%,0%)" r="0.7" /><circle cx="368.6627253" cy="444.223587384" fill="rgb(100%,0%,0%)" r="0.7" /><circle cx="370.254505409" cy="446.766456955" fill="rgb(100%,0%,0%)" r="0.7" /><circle cx="371.808407114" cy="449.332598257" fill="rgb(100%,0%,0%)" r="0.7" /><circle cx="373.291463005" cy="451.940110508" fill="rgb(100%,0%,0%)" r="0.7" /><circle cx="308.682194143" cy="245.885250597" fill="rgb(0%,0%,100%)" r="0.7" /><circle cx="311.296447422" cy="247.029163232" fill="rgb(0%,0%,100%)" r="0.7" /><circle cx="312.078271324" cy="249.89326379" fill="rgb(0%,0%,100%)" r="0.7" /><circle cx="312.171539056" cy="252.891049035" fill="rgb(0%,0%,100%)" r="0.7" /><circle cx="311.376333607" cy="255.770843038" fill="rgb(0%,0%,100%)" r="0.7" /><circle cx="310.089375338" cy="258.479542252" fill="rgb(0%,0%,100%)" r="0.7" /><circle cx="308.620182144" cy="261.094819429" fill="rgb(0%,0%,100%)" r="0.7" /><circle cx="307.048583819" cy="263.650073586" fill="rgb(0%,0%,100%)" r="0.7" /><circle cx="305.408174433" cy="266.161779166" fill="rgb(0%,0%,100%)" r="0.7" /><circle cx="303.716112906" cy="268.639011322" fill="rgb(0%,0%,100%)" r="0.7" /><circle cx="301.981458821" cy="271.08662164" fill="rgb(0%,0%,100%)" r="0.7" /><circle cx="300.206232604" cy="273.504951969" fill="rgb(0%,0%,100%)" r="0.7" /><circle cx="298.591084339" cy="276.030924934" fill="rgb(0%,0%,100%)" r="0.7" /><circle cx="297.170150264" cy="278.672360279" fill="rgb(0%,0%,100%)" r="0.7" /><circle cx="295.950838516" cy="281.412535075" fill="rgb(0%,0%,100%)" r="0.7" /><circle cx="294.963358531" cy="284.244353639" fill="rgb(0%,0%,100%)" r="0.7" /><circle cx="294.238233052" cy="287.154232475" fill="rgb(0%,0%,100%)" r="0.7" /><circle cx="293.803226288" cy="290.121214754" fill="rgb(0%,0%,100%)" r="0.7" /><circle cx="293.679568787" cy="293.117246457" fill="rgb(0%,0%,100%)" r="0.7" /><circle cx="293.878451407" cy="296.109174077" fill="rgb(0%,0%,100%)" r="0.7" /><circle cx="294.399145365" cy="299.062169799" fill="rgb(0%,0%,100%)" r="0.7" /><circle cx="295.229646834" cy="301.94350951" fill="rgb(0%,0%,100%)" r="0.7" /><circle cx="296.349660739" cy="304.725253654" fill="rgb(0%,0%,100%)" r="0.7" /><circle cx="297.734936014" cy="307.384999355" fill="rgb(0%,0%,100%)" r="0.7" /><circle cx="299.362030563" cy="309.904165017" fill="rgb(0%,0%,100%)" r="0.7" /><circle cx="301.214438812" cy="312.262561486" fill="rgb(0%,0%,100%)" r="0.7" /><circle cx="303.305559993" cy="314.410731769" fill="rgb(0%,0%,100%)" r="0.7" /><circle cx="305.509171799" cy="316.446422215" fill="rgb(0%,0%,100%)" r="0.7" /><circle cx="307.700389145" cy="318.495456902" fill="rgb(0%,0%,100%)" r="0.7" /><circle cx="309.87843912" cy="320.558488473" fill="rgb(0%,0%,100%)" r="0.7" /><circle cx="312.04239022" cy="322.636294851" fill="rgb(0%,0%,100%)" r="0.7" /><circle cx="314.191107041" cy="324.729843901" fill="rgb(0%,0%,100%)" r="0.7" /><circle cx="316.32315209" cy="326.840378697" fill="rgb(0%,0%,100%)" r="0.7" /><circle cx="318.436582282" cy="328.969544773" fill="rgb(0%,0%,100%)" r="0.7" /><circle cx="320.52861364" cy="331.119734978" fill="rgb(0%,0%,100%)" r="0.7" /><circle cx="322.594670958" cy="333.29488372" fill="rgb(0%,0%,100%)" r="0.7" /><circle cx="324.624450577" cy="335.503878914" fill="rgb(0%,0%,100%)" r="0.7" /><circle cx="326.631591466" cy="337.73347342" fill="rgb(0%,0%,100%)" r="0.7" /><circle cx="328.62197222" cy="339.978083019" fill="rgb(0%,0%,100%)" r="0.7" /><circle cx="330.587850657" cy="342.244188843" fill="rgb(0%,0%,100%)" r="0.7" /><circle cx="332.530198306" cy="344.530498984" fill="rgb(0%,0%,100%)" r="0.7" /><circle cx="334.4499245" cy="346.835838504" fill="rgb(0%,0%,100%)" r="0.7" /><circle cx="336.347880149" cy="349.159135846" fill="rgb(0%,0%,100%)" r="0.7" /><circle cx="338.22486025" cy="351.49940966" fill="rgb(0%,0%,100%)" r="0.7" /><circle cx="340.081613331" cy="353.855766121" fill="rgb(0%,0%,100%)" r="0.7" /><circle cx="341.918838075" cy="356.227381924" fill="rgb(0%,0%,100%)" r="0.7" /><circle cx="343.737189056" cy="358.613499883" fill="rgb(0%,0%,100%)" r="0.7" /><circle cx="345.537279903" cy="361.013422678" fill="rgb(0%,0%,100%)" r="0.7" /><circle cx="347.319687722" cy="363.426509485" fill="rgb(0%,0%,100%)" r="0.7" /><circle cx="349.084952525" cy="365.852166932" fill="rgb(0%,0%,100%)" r="0.7" /><circle cx="350.833580087" cy="368.289845408" fill="rgb(0%,0%,100%)" r="0.7" /><circle cx="352.566045252" cy="370.739036912" fill="rgb(0%,0%,100%)" r="0.7" /><circle cx="354.282792982" cy="373.199270551" fill="rgb(0%,0%,100%)" r="0.7" /><circle cx="355.984239418" cy="375.670108637" fill="rgb(0%,0%,100%)" r="0.7" /><circle cx="357.670777179" cy="378.151149636" fill="rgb(0%,0%,100%)" r="0.7" /><circle cx="359.342773387" cy="380.642021194" fill="rgb(0%,0%,100%)" r="0.7" /><circle cx="361.000556619" cy="383.142356575" fill="rgb(0%,0%,100%)" r="0.7" /><circle cx="362.644462309" cy="385.651859797" fill="rgb(0%,0%,100%)" r="0.7" /><circle cx="364.27477132" cy="388.170210167" fill="rgb(0%,0%,100%)" r="0.7" /><circle cx="365.891757825" cy="390.697132334" fill="rgb(0%,0%,100%)" r="0.7" /><circle cx="367.49566832" cy="393.232362523" fill="rgb(0%,0%,100%)" r="0.7" /><circle cx="369.086749488" cy="395.775691494" fill="rgb(0%,0%,100%)" r="0.7" /><circle cx="370.665188953" cy="398.326869488" fill="rgb(0%,0%,100%)" r="0.7" /><circle cx="372.231180825" cy="400.885710502" fill="rgb(0%,0%,100%)" r="0.7" /><circle cx="373.784878668" cy="403.452017388" fill="rgb(0%,0%,100%)" r="0.7" /><circle cx="375.326435039" cy="406.025648212" fill="rgb(0%,0%,100%)" r="0.7" /><circle cx="376.855969024" cy="408.606465905" fill="rgb(0%,0%,100%)" r="0.7" /><circle cx="378.373548554" cy="411.194311413" fill="rgb(0%,0%,100%)" r="0.7" /><circle cx="379.879230778" cy="413.789077626" fill="rgb(0%,0%,100%)" r="0.7" /><circle cx="381.373063424" cy="416.390722405" fill="rgb(0%,0%,100%)" r="0.7" /><circle cx="382.855003579" cy="418.999139973" fill="rgb(0%,0%,100%)" r="0.7" /><circle cx="384.324989356" cy="421.614302991" fill="rgb(0%,0%,100%)" r="0.7" /><circle cx="385.782903453" cy="424.236227137" fill="rgb(0%,0%,100%)" r="0.7" /><circle cx="387.228531137" cy="426.86493742" fill="rgb(0%,0%,100%)" r="0.7" /><circle cx="388.66155637" cy="429.500527828" fill="rgb(0%,0%,100%)" r="0.7" /><circle cx="390.081532579" cy="432.143225685" fill="rgb(0%,0%,100%)" r="0.7" /><circle cx="391.487694193" cy="434.793261895" fill="rgb(0%,0%,100%)" r="0.7" /><circle cx="392.878874491" cy="437.451196519" fill="rgb(0%,0%,100%)" r="0.7" /><circle cx="394.252856396" cy="440.118050437" fill="rgb(0%,0%,100%)" r="0.7" /><circle cx="395.603" cy="442.797" fill="rgb(0%,0%,100%)" r="0.7" /><circle cx="395.548208302" cy="442.77225764" fill="rgb(0%,0%,100%)" r="0.7" /><circle cx="392.814053871" cy="441.537591877" fill="rgb(0%,0%,100%)" r="0.7" /><circle cx="390.07989944" cy="440.302926115" fill="rgb(0%,0%,100%)" r="0.7" /><circle cx="387.345745008" cy="439.068260352" fill="rgb(0%,0%,100%)" r="0.7" /><circle cx="384.611590577" cy="437.833594589" fill="rgb(0%,0%,100%)" r="0.7" /><circle cx="381.877436146" cy="436.598928826" fill="rgb(0%,0%,100%)" r="0.7" /><circle cx="379.143281714" cy="435.364263064" fill="rgb(0%,0%,100%)" r="0.7" /><circle cx="376.409127283" cy="434.129597301" fill="rgb(0%,0%,100%)" r="0.7" /><circle cx="373.674972852" cy="432.894931538" fill="rgb(0%,0%,100%)" r="0.7" /><circle cx="371.614875351" cy="432.595649053" fill="rgb(0%,0%,100%)" r="0.7" /><circle cx="371.921024035" cy="435.579987001" fill="rgb(0%,0%,100%)" r="0.7" /><circle cx="372.227172719" cy="438.564324948" fill="rgb(0%,0%,100%)" r="0.7" /><circle cx="372.533321403" cy="441.548662895" fill="rgb(0%,0%,100%)" r="0.7" /><circle cx="372.839470087" cy="444.533000842" fill="rgb(0%,0%,100%)" r="0.7" /><circle cx="373.145618771" cy="447.51733879" fill="rgb(0%,0%,100%)" r="0.7" /><circle cx="373.451767455" cy="450.501676737" fill="rgb(0%,0%,100%)" r="0.7" /><circle cx="373.291463005" cy="451.940110508" fill="rgb(0%,0%,100%)" r="0.7" /></svg>