<?xml version="1.0" encoding="utf-8" ?>
<svg baseProfile="full" height="100%" version="1.1" width="100%" xmlns="http://www.w3.org/2000/svg" xmlns:ev="http://www.w3.org/2001/xml-events" xmlns:xlink="http://www.w3.org/1999/xlink"><defs /><circle cx="311.225330388" cy="304.624453081" fill="rgb(100%,0%,0%)" r="0.7" /><circle cx="308.295503864" cy="304.953453684" fill="rgb(100%,0%,0%)" r="0.7" /><circle cx="306.20641211" cy="307.058745763" fill="rgb(100%,0%,0%)" r="0.7" /><circle cx="304.946370738" cy="309.774575267" fill="rgb(100%,0%,0%)" r="0.7" /><circle cx="304.143252794" cy="312.663227386" fill="rgb(100%,0%,0%)" r="0.7" /><circle cx="303.618664141" cy="315.616277258" fill="rgb(100%,0%,0%)" r="0.7" /><circle cx="303.283276434" cy="318.59709502" fill="rgb(100%,0%,0%)" r="0.7" /><circle cx="303.08636102" cy="321.590425487" fill="rgb(100%,0%,0%)" r="0.7" /><circle cx="302.996206175" cy="324.588941171" fill="rgb(100%,0%,0%)" r="0.7" /><circle cx="302.991530689" cy="327.588872465" fill="rgb(100%,0%,0%)" r="0.7" /><circle cx="303.057275691" cy="330.588080474" fill="rgb(100%,0%,0%)" r="0.7" /><circle cx="303.182339423" cy="333.58543072" fill="rgb(100%,0%,0%)" r="0.7" /><circle cx="303.352764558" cy="336.580592011" fill="rgb(100%,0%,0%)" r="0.7" /><circle cx="303.540957709" cy="339.574681001" fill="rgb(100%,0%,0%)" r="0.7" /><circle cx="303.741308455" cy="342.567982166" fill="rgb(100%,0%,0%)" r="0.7" /><circle cx="303.950652747" cy="345.560668442" fill="rgb(100%,0%,0%)" r="0.7" /><circle cx="304.165837467" cy="348.552940799" fill="rgb(100%,0%,0%)" r="0.7" /><circle cx="304.383698744" cy="351.545020455" fill="rgb(100%,0%,0%)" r="0.7" /><circle cx="304.60103911" cy="354.5371374" fill="rgb(100%,0%,0%)" r="0.7" /><circle cx="304.814604021" cy="357.529525647" fill="rgb(100%,0%,0%)" r="0.7" /><circle cx="305.021056575" cy="360.522412676" fill="rgb(100%,0%,0%)" r="0.7" /><circle cx="305.21695056" cy="363.516008612" fill="rgb(100%,0%,0%)" r="0.7" /><circle cx="305.398701422" cy="366.510493506" fill="rgb(100%,0%,0%)" r="0.7" /><circle cx="305.562555314" cy="369.506011375" fill="rgb(100%,0%,0%)" r="0.7" /><circle cx="305.704554113" cy="372.502640405" fill="rgb(100%,0%,0%)" r="0.7" /><circle cx="305.82049892" cy="375.500388554" fill="rgb(100%,0%,0%)" r="0.7" /><circle cx="305.905908684" cy="378.499157729" fill="rgb(100%,0%,0%)" r="0.7" /><circle cx="305.955976097" cy="381.498720369" fill="rgb(100%,0%,0%)" r="0.7" /><circle cx="305.965519478" cy="384.498679532" fill="rgb(100%,0%,0%)" r="0.7" /><circle cx="305.928931584" cy="387.498421812" fill="rgb(100%,0%,0%)" r="0.7" /><circle cx="305.840125926" cy="390.4970658" fill="rgb(100%,0%,0%)" r="0.7" /><circle cx="305.69248316" cy="393.493374203" fill="rgb(100%,0%,0%)" r="0.7" /><circle cx="305.478798809" cy="396.485688545" fill="rgb(100%,0%,0%)" r="0.7" /><circle cx="305.191241464" cy="399.471787697" fill="rgb(100%,0%,0%)" r="0.7" /><circle cx="304.821322462" cy="402.448788556" fill="rgb(100%,0%,0%)" r="0.7" /><circle cx="304.359898502" cy="405.412954766" fill="rgb(100%,0%,0%)" r="0.7" /><circle cx="303.797210251" cy="408.359548601" fill="rgb(100%,0%,0%)" r="0.7" /><circle cx="303.122995003" cy="411.282600346" fill="rgb(100%,0%,0%)" r="0.7" /><circle cx="302.326681287" cy="414.174732033" fill="rgb(100%,0%,0%)" r="0.7" /><circle cx="301.397708192" cy="417.026971044" fill="rgb(100%,0%,0%)" r="0.7" /><circle cx="300.325987315" cy="419.828637218" fill="rgb(100%,0%,0%)" r="0.7" /><circle cx="299.10250807" cy="422.567371514" fill="rgb(100%,0%,0%)" r="0.7" /><circle cx="300.850819373" cy="421.38017903" fill="rgb(100%,0%,0%)" r="0.7" /><circle cx="303.166730334" cy="419.473203303" fill="rgb(100%,0%,0%)" r="0.7" /><circle cx="305.482641294" cy="417.566227576" fill="rgb(100%,0%,0%)" r="0.7" /><circle cx="307.798552255" cy="415.65925185" fill="rgb(100%,0%,0%)" r="0.7" /><circle cx="309.556340695" cy="415.1354801" fill="rgb(100%,0%,0%)" r="0.7" /><circle cx="309.900269046" cy="418.115700443" fill="rgb(100%,0%,0%)" r="0.7" /><circle cx="310.244197396" cy="421.095920785" fill="rgb(100%,0%,0%)" r="0.7" /><circle cx="310.588125747" cy="424.076141128" fill="rgb(100%,0%,0%)" r="0.7" /><circle cx="310.932054097" cy="427.05636147" fill="rgb(100%,0%,0%)" r="0.7" /><circle cx="311.275982448" cy="430.036581813" fill="rgb(100%,0%,0%)" r="0.7" /><circle cx="311.011" cy="431.683" fill="rgb(100%,0%,0%)" r="0.7" /><circle cx="311.225330388" cy="304.624453081" fill="rgb(0%,0%,100%)" r="0.7" /><circle cx="313.732646418" cy="306.165152737" fill="rgb(0%,0%,100%)" r="0.7" /><circle cx="315.369549537" cy="308.668852128" fill="rgb(0%,0%,100%)" r="0.7" /><circle cx="316.512444809" cy="311.440211367" fill="rgb(0%,0%,100%)" r="0.7" /><circle cx="317.344088485" cy="314.321475017" fill="rgb(0%,0%,100%)" r="0.7" /><circle cx="318.038639086" cy="317.239692486" fill="rgb(0%,0%,100%)" r="0.7" /><circle cx="318.713230227" cy="320.162831322" fill="rgb(0%,0%,100%)" r="0.7" /><circle cx="319.340243909" cy="323.096538831" fill="rgb(0%,0%,100%)" r="0.7" /><circle cx="319.921025604" cy="326.03975573" fill="rgb(0%,0%,100%)" r="0.7" /><circle cx="320.456844188" cy="328.991486757" fill="rgb(0%,0%,100%)" r="0.7" /><circle cx="320.948899017" cy="331.950837739" fill="rgb(0%,0%,100%)" r="0.7" /><circle cx="321.398309516" cy="334.916959776" fill="rgb(0%,0%,100%)" r="0.7" /><circle cx="321.806121103" cy="337.889088033" fill="rgb(0%,0%,100%)" r="0.7" /><circle cx="322.173298791" cy="340.866512082" fill="rgb(0%,0%,100%)" r="0.7" /><circle cx="322.500723857" cy="343.848563838" fill="rgb(0%,0%,100%)" r="0.7" /><circle cx="322.789193014" cy="346.834640003" fill="rgb(0%,0%,100%)" r="0.7" /><circle cx="323.039409843" cy="349.82417229" fill="rgb(0%,0%,100%)" r="0.7" /><circle cx="323.251977179" cy="352.816616326" fill="rgb(0%,0%,100%)" r="0.7" /><circle cx="323.427387946" cy="355.811462179" fill="rgb(0%,0%,100%)" r="0.7" /><circle cx="323.566010007" cy="358.808238858" fill="rgb(0%,0%,100%)" r="0.7" /><circle cx="323.668062535" cy="361.806488064" fill="rgb(0%,0%,100%)" r="0.7" /><circle cx="323.733583124" cy="364.805747032" fill="rgb(0%,0%,100%)" r="0.7" /><circle cx="323.762377771" cy="367.805599346" fill="rgb(0%,0%,100%)" r="0.7" /><circle cx="323.753935741" cy="370.805561376" fill="rgb(0%,0%,100%)" r="0.7" /><circle cx="323.707284971" cy="373.805182711" fill="rgb(0%,0%,100%)" r="0.7" /><circle cx="323.620709575" cy="376.803914621" fill="rgb(0%,0%,100%)" r="0.7" /><circle cx="323.491108683" cy="379.801070985" fill="rgb(0%,0%,100%)" r="0.7" /><circle cx="323.312016278" cy="382.795690655" fill="rgb(0%,0%,100%)" r="0.7" /><circle cx="323.079294251" cy="385.78656361" fill="rgb(0%,0%,100%)" r="0.7" /><circle cx="322.844512879" cy="388.777336433" fill="rgb(0%,0%,100%)" r="0.7" /><circle cx="322.566349332" cy="391.764371654" fill="rgb(0%,0%,100%)" r="0.7" /><circle cx="322.24189442" cy="394.746749044" fill="rgb(0%,0%,100%)" r="0.7" /><circle cx="321.867882187" cy="397.723298719" fill="rgb(0%,0%,100%)" r="0.7" /><circle cx="321.440605838" cy="400.692669999" fill="rgb(0%,0%,100%)" r="0.7" /><circle cx="320.955831842" cy="403.653200036" fill="rgb(0%,0%,100%)" r="0.7" /><circle cx="320.408680741" cy="406.602817756" fill="rgb(0%,0%,100%)" r="0.7" /><circle cx="319.793449771" cy="409.538988353" fill="rgb(0%,0%,100%)" r="0.7" /><circle cx="319.103397819" cy="412.458451604" fill="rgb(0%,0%,100%)" r="0.7" /><circle cx="318.330395737" cy="415.357029486" fill="rgb(0%,0%,100%)" r="0.7" /><circle cx="317.46442087" cy="418.229173684" fill="rgb(0%,0%,100%)" r="0.7" /><circle cx="316.492730039" cy="421.067236989" fill="rgb(0%,0%,100%)" r="0.7" /><circle cx="315.398349428" cy="423.860203875" fill="rgb(0%,0%,100%)" r="0.7" /><circle cx="314.156989726" cy="426.590836479" fill="rgb(0%,0%,100%)" r="0.7" /><circle cx="312.728721962" cy="429.228064665" fill="rgb(0%,0%,100%)" r="0.7" /><circle cx="311.011" cy="431.683" fill="rgb(0%,0%,100%)" r="0.7" /></svg>