<?xml version="1.0" encoding="utf-8" ?>
<svg baseProfile="full" height="100%" version="1.1" width="100%" xmlns="http://www.w3.org/2000/svg" xmlns:ev="http://www.w3.org/2001/xml-events" xmlns:xlink="http://www.w3.org/1999/xlink"><defs /><circle cx="286.240825723" cy="326.484227418" fill="rgb(100%,0%,0%)" r="0.7" /><circle cx="283.329015215" cy="326.809121726" fill="rgb(100%,0%,0%)" r="0.7" /><circle cx="281.034161443" cy="328.709659087" fill="rgb(100%,0%,0%)" r="0.7" /><circle cx="279.84669344" cy="331.433431142" fill="rgb(100%,0%,0%)" r="0.7" /><circle cx="279.572317597" cy="334.415352213" fill="rgb(100%,0%,0%)" r="0.7" /><circle cx="279.891452983" cy="337.388211435" fill="rgb(100%,0%,0%)" r="0.7" /><circle cx="280.022665405" cy="340.384373159" fill="rgb(100%,0%,0%)" r="0.7" /><circle cx="280.034856921" cy="343.384283058" fill="rgb(100%,0%,0%)" r="0.7" /><circle cx="280.120124068" cy="346.382987278" fill="rgb(100%,0%,0%)" r="0.7" /><circle cx="280.285954744" cy="349.378306265" fill="rgb(100%,0%,0%)" r="0.7" /><circle cx="280.535819766" cy="352.367779364" fill="rgb(100%,0%,0%)" r="0.7" /><circle cx="280.873428216" cy="355.348607004" fill="rgb(100%,0%,0%)" r="0.7" /><circle cx="281.302772947" cy="358.317596625" fill="rgb(100%,0%,0%)" r="0.7" /><circle cx="281.828187091" cy="361.271090065" fill="rgb(100%,0%,0%)" r="0.7" /><circle cx="282.454391658" cy="364.204842974" fill="rgb(100%,0%,0%)" r="0.7" /><circle cx="283.186479973" cy="367.113973138" fill="rgb(100%,0%,0%)" r="0.7" /><circle cx="284.02940033" cy="369.992916978" fill="rgb(100%,0%,0%)" r="0.7" /><circle cx="284.984086022" cy="372.836774024" fill="rgb(100%,0%,0%)" r="0.7" /><circle cx="285.94" cy="375.676" fill="rgb(100%,0%,0%)" r="0.7" /><circle cx="286.240825723" cy="326.484227418" fill="rgb(0%,0%,100%)" r="0.7" /><circle cx="288.553105042" cy="328.250943484" fill="rgb(0%,0%,100%)" r="0.7" /><circle cx="289.227764525" cy="331.133099445" fill="rgb(0%,0%,100%)" r="0.7" /><circle cx="288.222284127" cy="333.921503078" fill="rgb(0%,0%,100%)" r="0.7" /><circle cx="287.722916627" cy="336.864749974" fill="rgb(0%,0%,100%)" r="0.7" /><circle cx="287.87631814" cy="339.857974113" fill="rgb(0%,0%,100%)" r="0.7" /><circle cx="288.39607623" cy="342.811321549" fill="rgb(0%,0%,100%)" r="0.7" /><circle cx="289.169383067" cy="345.709225545" fill="rgb(0%,0%,100%)" r="0.7" /><circle cx="290.048235293" cy="348.577576457" fill="rgb(0%,0%,100%)" r="0.7" /><circle cx="290.888248062" cy="351.457553776" fill="rgb(0%,0%,100%)" r="0.7" /><circle cx="291.692420901" cy="354.34774338" fill="rgb(0%,0%,100%)" r="0.7" /><circle cx="292.460046604" cy="357.247850897" fill="rgb(0%,0%,100%)" r="0.7" /><circle cx="293.186762783" cy="360.158471762" fill="rgb(0%,0%,100%)" r="0.7" /><circle cx="293.863411172" cy="363.081119304" fill="rgb(0%,0%,100%)" r="0.7" /><circle cx="294.472060223" cy="366.01863051" fill="rgb(0%,0%,100%)" r="0.7" /><circle cx="294.973198525" cy="368.976189143" fill="rgb(0%,0%,100%)" r="0.7" /><circle cx="295.243130538" cy="371.962037948" fill="rgb(0%,0%,100%)" r="0.7" /><circle cx="293.673247956" cy="371.340049878" fill="rgb(0%,0%,100%)" r="0.7" /><circle cx="291.514499303" cy="369.256830194" fill="rgb(0%,0%,100%)" r="0.7" /><circle cx="289.35575065" cy="367.173610509" fill="rgb(0%,0%,100%)" r="0.7" /><circle cx="288.275403559" cy="369.786244269" fill="rgb(0%,0%,100%)" r="0.7" /><circle cx="287.241836234" cy="372.602578515" fill="rgb(0%,0%,100%)" r="0.7" /><circle cx="285.94" cy="375.676" fill="rgb(0%,0%,100%)" r="0.7" /></svg>