<?xml version="1.0" encoding="utf-8" ?>
<svg baseProfile="full" height="100%" version="1.1" width="100%" xmlns="http://www.w3.org/2000/svg" xmlns:ev="http://www.w3.org/2001/xml-events" xmlns:xlink="http://www.w3.org/1999/xlink"><defs /><circle cx="342.746100422" cy="331.043695021" fill="rgb(100%,0%,0%)" r="0.7" /><circle cx="339.763417303" cy="331.202892687" fill="rgb(100%,0%,0%)" r="0.7" /><circle cx="337.020167955" cy="332.375953351" fill="rgb(100%,0%,0%)" r="0.7" /><circle cx="334.613695646" cy="334.166565769" fill="rgb(100%,0%,0%)" r="0.7" /><circle cx="332.254977117" cy="336.020277762" fill="rgb(100%,0%,0%)" r="0.7" /><circle cx="329.931296712" cy="337.917700954" fill="rgb(100%,0%,0%)" r="0.7" /><circle cx="327.639735871" cy="339.853822555" fill="rgb(100%,0%,0%)" r="0.7" /><circle cx="325.379545599" cy="341.826498808" fill="rgb(100%,0%,0%)" r="0.7" /><circle cx="323.150948735" cy="343.834757196" fill="rgb(100%,0%,0%)" r="0.7" /><circle cx="320.954681279" cy="345.878338986" fill="rgb(100%,0%,0%)" r="0.7" /><circle cx="318.791946792" cy="347.957377113" fill="rgb(100%,0%,0%)" r="0.7" /><circle cx="316.664313598" cy="350.072314032" fill="rgb(100%,0%,0%)" r="0.7" /><circle cx="314.573683531" cy="352.223847291" fill="rgb(100%,0%,0%)" r="0.7" /><circle cx="312.522342053" cy="354.412841339" fill="rgb(100%,0%,0%)" r="0.7" /><circle cx="310.512908253" cy="356.640373628" fill="rgb(100%,0%,0%)" r="0.7" /><circle cx="308.548430534" cy="358.907649846" fill="rgb(100%,0%,0%)" r="0.7" /><circle cx="306.63241191" cy="361.216006335" fill="rgb(100%,0%,0%)" r="0.7" /><circle cx="304.768851905" cy="363.566911233" fill="rgb(100%,0%,0%)" r="0.7" /><circle cx="302.962339379" cy="365.961915359" fill="rgb(100%,0%,0%)" r="0.7" /><circle cx="301.218117699" cy="368.402645385" fill="rgb(100%,0%,0%)" r="0.7" /><circle cx="299.542192622" cy="370.89074919" fill="rgb(100%,0%,0%)" r="0.7" /><circle cx="297.94143703" cy="373.427846237" fill="rgb(100%,0%,0%)" r="0.7" /><circle cx="296.423714906" cy="376.015445435" fill="rgb(100%,0%,0%)" r="0.7" /><circle cx="294.998011926" cy="378.654833691" fill="rgb(100%,0%,0%)" r="0.7" /><circle cx="293.674570235" cy="381.346914941" fill="rgb(100%,0%,0%)" r="0.7" /><circle cx="292.465003563" cy="384.092004521" fill="rgb(100%,0%,0%)" r="0.7" /><circle cx="291.382381182" cy="386.889541795" fill="rgb(100%,0%,0%)" r="0.7" /><circle cx="290.441232748" cy="389.737728554" fill="rgb(100%,0%,0%)" r="0.7" /><circle cx="289.657418544" cy="392.633102816" fill="rgb(100%,0%,0%)" r="0.7" /><circle cx="289.047809388" cy="395.570018382" fill="rgb(100%,0%,0%)" r="0.7" /><circle cx="288.629673894" cy="398.540162717" fill="rgb(100%,0%,0%)" r="0.7" /><circle cx="288.314385866" cy="401.523210422" fill="rgb(100%,0%,0%)" r="0.7" /><circle cx="288.121982363" cy="404.516869715" fill="rgb(100%,0%,0%)" r="0.7" /><circle cx="288.031576779" cy="407.515379034" fill="rgb(100%,0%,0%)" r="0.7" /><circle cx="288.033387595" cy="410.515287711" fill="rgb(100%,0%,0%)" r="0.7" /><circle cx="288.123303358" cy="413.513833351" fill="rgb(100%,0%,0%)" r="0.7" /><circle cx="288.299620075" cy="416.508534242" fill="rgb(100%,0%,0%)" r="0.7" /><circle cx="288.561938134" cy="419.496943652" fill="rgb(100%,0%,0%)" r="0.7" /><circle cx="288.910653457" cy="422.476504534" fill="rgb(100%,0%,0%)" r="0.7" /><circle cx="289.346685307" cy="425.444537912" fill="rgb(100%,0%,0%)" r="0.7" /><circle cx="289.871304582" cy="428.398192412" fill="rgb(100%,0%,0%)" r="0.7" /><circle cx="290.486013397" cy="431.334415179" fill="rgb(100%,0%,0%)" r="0.7" /><circle cx="291.192448992" cy="434.249924126" fill="rgb(100%,0%,0%)" r="0.7" /><circle cx="291.992302683" cy="437.141198238" fill="rgb(100%,0%,0%)" r="0.7" /><circle cx="292.887240311" cy="440.004458583" fill="rgb(100%,0%,0%)" r="0.7" /><circle cx="293.878831267" cy="442.835681995" fill="rgb(100%,0%,0%)" r="0.7" /><circle cx="294.968483054" cy="445.630629708" fill="rgb(100%,0%,0%)" r="0.7" /><circle cx="296.157354299" cy="448.384828271" fill="rgb(100%,0%,0%)" r="0.7" /><circle cx="297.446292395" cy="451.093629866" fill="rgb(100%,0%,0%)" r="0.7" /><circle cx="298.835766192" cy="453.752257422" fill="rgb(100%,0%,0%)" r="0.7" /><circle cx="300.325795987" cy="456.355847848" fill="rgb(100%,0%,0%)" r="0.7" /><circle cx="301.915914435" cy="458.899547436" fill="rgb(100%,0%,0%)" r="0.7" /><circle cx="303.605098166" cy="461.37854634" fill="rgb(100%,0%,0%)" r="0.7" /><circle cx="305.391781815" cy="463.788226594" fill="rgb(100%,0%,0%)" r="0.7" /><circle cx="307.273818327" cy="466.124199959" fill="rgb(100%,0%,0%)" r="0.7" /><circle cx="309.248487073" cy="468.382396282" fill="rgb(100%,0%,0%)" r="0.7" /><circle cx="311.312557041" cy="470.559181456" fill="rgb(100%,0%,0%)" r="0.7" /><circle cx="313.462309321" cy="472.651392571" fill="rgb(100%,0%,0%)" r="0.7" /><circle cx="315.693619671" cy="474.656410006" fill="rgb(100%,0%,0%)" r="0.7" /><circle cx="318.002011294" cy="476.572170888" fill="rgb(100%,0%,0%)" r="0.7" /><circle cx="342.746100422" cy="331.043695021" fill="rgb(0%,0%,100%)" r="0.7" /><circle cx="345.665645477" cy="331.704767899" fill="rgb(0%,0%,100%)" r="0.7" /><circle cx="348.410781404" cy="332.907232107" fill="rgb(0%,0%,100%)" r="0.7" /><circle cx="350.973322046" cy="334.464071315" fill="rgb(0%,0%,100%)" r="0.7" /><circle cx="353.365915316" cy="336.272171179" fill="rgb(0%,0%,100%)" r="0.7" /><circle cx="355.598754737" cy="338.273914389" fill="rgb(0%,0%,100%)" r="0.7" /><circle cx="357.407722622" cy="340.638844506" fill="rgb(0%,0%,100%)" r="0.7" /><circle cx="358.099310556" cy="343.53883579" fill="rgb(0%,0%,100%)" r="0.7" /><circle cx="357.841702051" cy="346.519561203" fill="rgb(0%,0%,100%)" r="0.7" /><circle cx="356.975846802" cy="349.38829219" fill="rgb(0%,0%,100%)" r="0.7" /><circle cx="355.711880808" cy="352.106919327" fill="rgb(0%,0%,100%)" r="0.7" /><circle cx="354.155709226" cy="354.670691136" fill="rgb(0%,0%,100%)" r="0.7" /><circle cx="352.396918528" cy="357.098935474" fill="rgb(0%,0%,100%)" r="0.7" /><circle cx="350.235936413" cy="359.166118772" fill="rgb(0%,0%,100%)" r="0.7" /><circle cx="347.41022776" cy="359.699165704" fill="rgb(0%,0%,100%)" r="0.7" /><circle cx="344.528197294" cy="360.484865302" fill="rgb(0%,0%,100%)" r="0.7" /><circle cx="341.885950461" cy="361.898559912" fill="rgb(0%,0%,100%)" r="0.7" /><circle cx="339.770808762" cy="364.001394519" fill="rgb(0%,0%,100%)" r="0.7" /><circle cx="337.878016895" cy="366.328680694" fill="rgb(0%,0%,100%)" r="0.7" /><circle cx="336.054877812" cy="368.71106862" fill="rgb(0%,0%,100%)" r="0.7" /><circle cx="334.27768074" cy="371.127964149" fill="rgb(0%,0%,100%)" r="0.7" /><circle cx="332.534090183" cy="373.56923297" fill="rgb(0%,0%,100%)" r="0.7" /><circle cx="330.816803834" cy="376.029084308" fill="rgb(0%,0%,100%)" r="0.7" /><circle cx="329.121183464" cy="378.503922714" fill="rgb(0%,0%,100%)" r="0.7" /><circle cx="327.44422301" cy="380.991442897" fill="rgb(0%,0%,100%)" r="0.7" /><circle cx="325.784119573" cy="383.490254139" fill="rgb(0%,0%,100%)" r="0.7" /><circle cx="324.140407924" cy="385.999877522" fill="rgb(0%,0%,100%)" r="0.7" /><circle cx="322.535458845" cy="388.534076998" fill="rgb(0%,0%,100%)" r="0.7" /><circle cx="321.091395798" cy="391.163133824" fill="rgb(0%,0%,100%)" r="0.7" /><circle cx="319.805121289" cy="393.872930469" fill="rgb(0%,0%,100%)" r="0.7" /><circle cx="318.673698369" cy="396.650987439" fill="rgb(0%,0%,100%)" r="0.7" /><circle cx="317.695141469" cy="399.486523694" fill="rgb(0%,0%,100%)" r="0.7" /><circle cx="316.870113934" cy="402.370472039" fill="rgb(0%,0%,100%)" r="0.7" /><circle cx="316.206024922" cy="405.295620001" fill="rgb(0%,0%,100%)" r="0.7" /><circle cx="315.744719487" cy="408.258789973" fill="rgb(0%,0%,100%)" r="0.7" /><circle cx="315.558305686" cy="411.25273335" fill="rgb(0%,0%,100%)" r="0.7" /><circle cx="315.508910075" cy="414.252055806" fill="rgb(0%,0%,100%)" r="0.7" /><circle cx="315.601964432" cy="417.250323408" fill="rgb(0%,0%,100%)" r="0.7" /><circle cx="315.842131087" cy="420.240381845" fill="rgb(0%,0%,100%)" r="0.7" /><circle cx="316.233111432" cy="423.214458035" fill="rgb(0%,0%,100%)" r="0.7" /><circle cx="316.77748398" cy="426.164316704" fill="rgb(0%,0%,100%)" r="0.7" /><circle cx="317.476566478" cy="429.081356067" fill="rgb(0%,0%,100%)" r="0.7" /><circle cx="318.330373988" cy="431.956917186" fill="rgb(0%,0%,100%)" r="0.7" /><circle cx="319.337611323" cy="434.782398209" fill="rgb(0%,0%,100%)" r="0.7" /><circle cx="320.495752998" cy="437.549441004" fill="rgb(0%,0%,100%)" r="0.7" /><circle cx="321.801214275" cy="440.250104777" fill="rgb(0%,0%,100%)" r="0.7" /><circle cx="323.249565515" cy="442.876909553" fill="rgb(0%,0%,100%)" r="0.7" /><circle cx="324.835820951" cy="445.422830531" fill="rgb(0%,0%,100%)" r="0.7" /><circle cx="326.55475449" cy="447.881120951" fill="rgb(0%,0%,100%)" r="0.7" /><circle cx="328.401333725" cy="450.245023502" fill="rgb(0%,0%,100%)" r="0.7" /><circle cx="330.371294625" cy="452.507124564" fill="rgb(0%,0%,100%)" r="0.7" /><circle cx="332.462118907" cy="454.657958528" fill="rgb(0%,0%,100%)" r="0.7" /><circle cx="334.6755396" cy="456.682280617" fill="rgb(0%,0%,100%)" r="0.7" /><circle cx="337.032" cy="458.537" fill="rgb(0%,0%,100%)" r="0.7" /><circle cx="334.764482334" cy="458.680932724" fill="rgb(0%,0%,100%)" r="0.7" /><circle cx="331.770507916" cy="458.870977943" fill="rgb(0%,0%,100%)" r="0.7" /><circle cx="328.776533498" cy="459.061023162" fill="rgb(0%,0%,100%)" r="0.7" /><circle cx="325.78255908" cy="459.251068382" fill="rgb(0%,0%,100%)" r="0.7" /><circle cx="322.788584663" cy="459.441113601" fill="rgb(0%,0%,100%)" r="0.7" /><circle cx="319.794610245" cy="459.63115882" fill="rgb(0%,0%,100%)" r="0.7" /><circle cx="316.800635827" cy="459.82120404" fill="rgb(0%,0%,100%)" r="0.7" /><circle cx="316.709011704" cy="462.43738402" fill="rgb(0%,0%,100%)" r="0.7" /><circle cx="317.052890674" cy="465.41761006" fill="rgb(0%,0%,100%)" r="0.7" /><circle cx="317.396769644" cy="468.397836101" fill="rgb(0%,0%,100%)" r="0.7" /><circle cx="317.740648613" cy="471.378062142" fill="rgb(0%,0%,100%)" r="0.7" /><circle cx="318.084527583" cy="474.358288183" fill="rgb(0%,0%,100%)" r="0.7" /><circle cx="318.002011294" cy="476.572170888" fill="rgb(0%,0%,100%)" r="0.7" /></svg>