<?xml version="1.0" encoding="utf-8" ?>
<svg baseProfile="full" height="100%" version="1.1" width="100%" xmlns="http://www.w3.org/2000/svg" xmlns:ev="http://www.w3.org/2001/xml-events" xmlns:xlink="http://www.w3.org/1999/xlink"><defs /><circle cx="283.068490778" cy="328.59753228" fill="rgb(100%,0%,0%)" r="0.7" /><circle cx="280.074549373" cy="328.654616111" fill="rgb(100%,0%,0%)" r="0.7" /><circle cx="277.119572121" cy="329.163781632" fill="rgb(100%,0%,0%)" r="0.7" /><circle cx="274.219742168" cy="329.930049185" fill="rgb(100%,0%,0%)" r="0.7" /><circle cx="271.37434788" cy="330.879333082" fill="rgb(100%,0%,0%)" r="0.7" /><circle cx="268.875185052" cy="332.437004099" fill="rgb(100%,0%,0%)" r="0.7" /><circle cx="267.112335633" cy="334.861342336" fill="rgb(100%,0%,0%)" r="0.7" /><circle cx="265.56690798" cy="337.432232396" fill="rgb(100%,0%,0%)" r="0.7" /><circle cx="264.126878422" cy="340.063891548" fill="rgb(100%,0%,0%)" r="0.7" /><circle cx="262.753538155" cy="342.731029357" fill="rgb(100%,0%,0%)" r="0.7" /><circle cx="261.428508087" cy="345.422519935" fill="rgb(100%,0%,0%)" r="0.7" /><circle cx="260.142022857" cy="348.132658339" fill="rgb(100%,0%,0%)" r="0.7" /><circle cx="258.889691209" cy="350.858747261" fill="rgb(100%,0%,0%)" r="0.7" /><circle cx="257.876541407" cy="353.668958236" fill="rgb(100%,0%,0%)" r="0.7" /><circle cx="257.291959801" cy="356.611336485" fill="rgb(100%,0%,0%)" r="0.7" /><circle cx="256.763983603" cy="359.564500615" fill="rgb(100%,0%,0%)" r="0.7" /><circle cx="256.263113941" cy="362.52238511" fill="rgb(100%,0%,0%)" r="0.7" /><circle cx="255.779193695" cy="365.483097091" fill="rgb(100%,0%,0%)" r="0.7" /><circle cx="255.307296683" cy="368.445752594" fill="rgb(100%,0%,0%)" r="0.7" /><circle cx="254.844612918" cy="371.409858419" fill="rgb(100%,0%,0%)" r="0.7" /><circle cx="254.389384388" cy="374.375120238" fill="rgb(100%,0%,0%)" r="0.7" /><circle cx="253.940457911" cy="377.341341471" fill="rgb(100%,0%,0%)" r="0.7" /><circle cx="253.497070571" cy="380.308395111" fill="rgb(100%,0%,0%)" r="0.7" /><circle cx="253.058750916" cy="383.27620679" fill="rgb(100%,0%,0%)" r="0.7" /><circle cx="252.625302301" cy="386.244721457" fill="rgb(100%,0%,0%)" r="0.7" /><circle cx="252.196874874" cy="389.213985042" fill="rgb(100%,0%,0%)" r="0.7" /><circle cx="251.774371097" cy="392.184087075" fill="rgb(100%,0%,0%)" r="0.7" /><circle cx="251.362212606" cy="395.155619045" fill="rgb(100%,0%,0%)" r="0.7" /><circle cx="251.229798978" cy="398.148378688" fill="rgb(100%,0%,0%)" r="0.7" /><circle cx="251.15113985" cy="401.147303568" fill="rgb(100%,0%,0%)" r="0.7" /><circle cx="251.018838524" cy="404.144349183" fill="rgb(100%,0%,0%)" r="0.7" /><circle cx="250.835562442" cy="407.138708501" fill="rgb(100%,0%,0%)" r="0.7" /><circle cx="250.598154083" cy="410.129248827" fill="rgb(100%,0%,0%)" r="0.7" /><circle cx="250.706052683" cy="413.119328332" fill="rgb(100%,0%,0%)" r="0.7" /><circle cx="250.999144398" cy="416.104909377" fill="rgb(100%,0%,0%)" r="0.7" /><circle cx="251.358913991" cy="419.083201448" fill="rgb(100%,0%,0%)" r="0.7" /><circle cx="251.780156281" cy="422.053430417" fill="rgb(100%,0%,0%)" r="0.7" /><circle cx="252.25832544" cy="425.015035615" fill="rgb(100%,0%,0%)" r="0.7" /><circle cx="252.789444673" cy="427.967609476" fill="rgb(100%,0%,0%)" r="0.7" /><circle cx="253.370032742" cy="430.910859819" fill="rgb(100%,0%,0%)" r="0.7" /><circle cx="253.997042988" cy="433.844575463" fill="rgb(100%,0%,0%)" r="0.7" /><circle cx="254.667813928" cy="436.768598515" fill="rgb(100%,0%,0%)" r="0.7" /><circle cx="255.380031332" cy="439.682805243" fill="rgb(100%,0%,0%)" r="0.7" /><circle cx="256.131700102" cy="442.58708789" fill="rgb(100%,0%,0%)" r="0.7" /><circle cx="256.92112689" cy="445.481338879" fill="rgb(100%,0%,0%)" r="0.7" /><circle cx="257.746911715" cy="448.365424095" fill="rgb(100%,0%,0%)" r="0.7" /><circle cx="258.607962989" cy="451.239181065" fill="rgb(100%,0%,0%)" r="0.7" /><circle cx="259.503528421" cy="454.102381542" fill="rgb(100%,0%,0%)" r="0.7" /><circle cx="260.43325939" cy="456.954659015" fill="rgb(100%,0%,0%)" r="0.7" /><circle cx="261.397386721" cy="459.795491271" fill="rgb(100%,0%,0%)" r="0.7" /><circle cx="262.397071465" cy="462.624001301" fill="rgb(100%,0%,0%)" r="0.7" /><circle cx="263.435463516" cy="465.438549328" fill="rgb(100%,0%,0%)" r="0.7" /><circle cx="264.524" cy="468.234" fill="rgb(100%,0%,0%)" r="0.7" /><circle cx="283.068490778" cy="328.59753228" fill="rgb(0%,0%,100%)" r="0.7" /><circle cx="285.864953625" cy="329.569773505" fill="rgb(0%,0%,100%)" r="0.7" /><circle cx="287.173341214" cy="332.154833601" fill="rgb(0%,0%,100%)" r="0.7" /><circle cx="286.446926747" cy="335.033645888" fill="rgb(0%,0%,100%)" r="0.7" /><circle cx="284.78971708" cy="337.527033801" fill="rgb(0%,0%,100%)" r="0.7" /><circle cx="282.901742915" cy="339.855585599" fill="rgb(0%,0%,100%)" r="0.7" /><circle cx="281.170524776" cy="342.305482995" fill="rgb(0%,0%,100%)" r="0.7" /><circle cx="279.521022083" cy="344.811158439" fill="rgb(0%,0%,100%)" r="0.7" /><circle cx="277.950927509" cy="347.367331766" fill="rgb(0%,0%,100%)" r="0.7" /><circle cx="276.464011349" cy="349.972765612" fill="rgb(0%,0%,100%)" r="0.7" /><circle cx="275.067458303" cy="352.627699262" fill="rgb(0%,0%,100%)" r="0.7" /><circle cx="273.771445282" cy="355.333100154" fill="rgb(0%,0%,100%)" r="0.7" /><circle cx="272.589424138" cy="358.090157669" fill="rgb(0%,0%,100%)" r="0.7" /><circle cx="271.538745945" cy="360.899816387" fill="rgb(0%,0%,100%)" r="0.7" /><circle cx="270.64159436" cy="363.762086006" fill="rgb(0%,0%,100%)" r="0.7" /><circle cx="269.926161753" cy="366.674935683" fill="rgb(0%,0%,100%)" r="0.7" /><circle cx="269.427903116" cy="369.632452341" fill="rgb(0%,0%,100%)" r="0.7" /><circle cx="269.174327471" cy="372.620974076" fill="rgb(0%,0%,100%)" r="0.7" /><circle cx="268.986273247" cy="375.615045746" fill="rgb(0%,0%,100%)" r="0.7" /><circle cx="268.843639184" cy="378.611625341" fill="rgb(0%,0%,100%)" r="0.7" /><circle cx="268.740129143" cy="381.60981457" fill="rgb(0%,0%,100%)" r="0.7" /><circle cx="268.674912724" cy="384.609088108" fill="rgb(0%,0%,100%)" r="0.7" /><circle cx="268.648982876" cy="387.608954329" fill="rgb(0%,0%,100%)" r="0.7" /><circle cx="268.664483679" cy="390.608890298" fill="rgb(0%,0%,100%)" r="0.7" /><circle cx="268.724559316" cy="393.608260273" fill="rgb(0%,0%,100%)" r="0.7" /><circle cx="268.833403252" cy="396.606251576" fill="rgb(0%,0%,100%)" r="0.7" /><circle cx="268.996440199" cy="399.601772644" fill="rgb(0%,0%,100%)" r="0.7" /><circle cx="269.220645262" cy="402.593323879" fill="rgb(0%,0%,100%)" r="0.7" /><circle cx="269.51504332" cy="405.578764869" fill="rgb(0%,0%,100%)" r="0.7" /><circle cx="269.891481554" cy="408.55494138" fill="rgb(0%,0%,100%)" r="0.7" /><circle cx="270.36584466" cy="411.51703283" fill="rgb(0%,0%,100%)" r="0.7" /><circle cx="270.960025233" cy="414.457342439" fill="rgb(0%,0%,100%)" r="0.7" /><circle cx="271.708277032" cy="417.361936857" fill="rgb(0%,0%,100%)" r="0.7" /><circle cx="272.563285547" cy="420.237515649" fill="rgb(0%,0%,100%)" r="0.7" /><circle cx="273.399339324" cy="423.118664599" fill="rgb(0%,0%,100%)" r="0.7" /><circle cx="274.219231999" cy="426.004463048" fill="rgb(0%,0%,100%)" r="0.7" /><circle cx="275.023203808" cy="428.894713904" fill="rgb(0%,0%,100%)" r="0.7" /><circle cx="275.810698419" cy="431.789511829" fill="rgb(0%,0%,100%)" r="0.7" /><circle cx="276.580605359" cy="434.689035145" fill="rgb(0%,0%,100%)" r="0.7" /><circle cx="277.331313516" cy="437.593581134" fill="rgb(0%,0%,100%)" r="0.7" /><circle cx="278.06064672" cy="440.503572128" fill="rgb(0%,0%,100%)" r="0.7" /><circle cx="278.765704308" cy="443.419535816" fill="rgb(0%,0%,100%)" r="0.7" /><circle cx="279.442607039" cy="446.34215837" fill="rgb(0%,0%,100%)" r="0.7" /><circle cx="280.08605732" cy="449.272321272" fill="rgb(0%,0%,100%)" r="0.7" /><circle cx="280.688578629" cy="452.211165616" fill="rgb(0%,0%,100%)" r="0.7" /><circle cx="281.23910471" cy="455.160171814" fill="rgb(0%,0%,100%)" r="0.7" /><circle cx="281.720109921" cy="458.121264826" fill="rgb(0%,0%,100%)" r="0.7" /><circle cx="282.100892474" cy="461.096788967" fill="rgb(0%,0%,100%)" r="0.7" /><circle cx="282.318099194" cy="464.088264128" fill="rgb(0%,0%,100%)" r="0.7" /><circle cx="282.192528347" cy="467.081638569" fill="rgb(0%,0%,100%)" r="0.7" /><circle cx="280.623949798" cy="466.468983644" fill="rgb(0%,0%,100%)" r="0.7" /><circle cx="278.629560867" cy="464.227909618" fill="rgb(0%,0%,100%)" r="0.7" /><circle cx="276.635171936" cy="461.986835591" fill="rgb(0%,0%,100%)" r="0.7" /><circle cx="274.640783006" cy="459.745761564" fill="rgb(0%,0%,100%)" r="0.7" /><circle cx="272.646394075" cy="457.504687537" fill="rgb(0%,0%,100%)" r="0.7" /><circle cx="270.652005145" cy="455.263613511" fill="rgb(0%,0%,100%)" r="0.7" /><circle cx="268.954979002" cy="454.429286811" fill="rgb(0%,0%,100%)" r="0.7" /><circle cx="268.038123727" cy="457.285749029" fill="rgb(0%,0%,100%)" r="0.7" /><circle cx="267.121268452" cy="460.142211248" fill="rgb(0%,0%,100%)" r="0.7" /><circle cx="266.204413177" cy="462.998673466" fill="rgb(0%,0%,100%)" r="0.7" /><circle cx="265.287557901" cy="465.855135684" fill="rgb(0%,0%,100%)" r="0.7" /><circle cx="264.524" cy="468.234" fill="rgb(0%,0%,100%)" r="0.7" /></svg>