<?xml version="1.0" encoding="utf-8" ?>
<svg baseProfile="full" height="100%" version="1.1" width="100%" xmlns="http://www.w3.org/2000/svg" xmlns:ev="http://www.w3.org/2001/xml-events" xmlns:xlink="http://www.w3.org/1999/xlink"><defs /><circle cx="362.92188177" cy="207.973516794" fill="rgb(100%,0%,0%)" r="0.7" /><circle cx="360.020090933" cy="208.724684254" fill="rgb(100%,0%,0%)" r="0.7" /><circle cx="357.160726543" cy="209.631536157" fill="rgb(100%,0%,0%)" r="0.7" /><circle cx="354.341527747" cy="210.656755673" fill="rgb(100%,0%,0%)" r="0.7" /><circle cx="351.559967676" cy="211.780201875" fill="rgb(100%,0%,0%)" r="0.7" /><circle cx="348.815405754" cy="212.991335407" fill="rgb(100%,0%,0%)" r="0.7" /><circle cx="346.107986036" cy="214.283268959" fill="rgb(100%,0%,0%)" r="0.7" /><circle cx="343.43802021" cy="215.65106335" fill="rgb(100%,0%,0%)" r="0.7" /><circle cx="340.806183364" cy="217.090773311" fill="rgb(100%,0%,0%)" r="0.7" /><circle cx="338.21308631" cy="218.599221409" fill="rgb(100%,0%,0%)" r="0.7" /><circle cx="335.659499352" cy="220.17362495" fill="rgb(100%,0%,0%)" r="0.7" /><circle cx="333.146170952" cy="221.811536756" fill="rgb(100%,0%,0%)" r="0.7" /><circle cx="330.67386119" cy="223.510722464" fill="rgb(100%,0%,0%)" r="0.7" /><circle cx="328.243316799" cy="225.269103606" fill="rgb(100%,0%,0%)" r="0.7" /><circle cx="325.855210741" cy="227.084752216" fill="rgb(100%,0%,0%)" r="0.7" /><circle cx="323.510249895" cy="228.955773909" fill="rgb(100%,0%,0%)" r="0.7" /><circle cx="321.209033413" cy="230.88038806" fill="rgb(100%,0%,0%)" r="0.7" /><circle cx="318.952175644" cy="232.856809715" fill="rgb(100%,0%,0%)" r="0.7" /><circle cx="316.740215347" cy="234.883306703" fill="rgb(100%,0%,0%)" r="0.7" /><circle cx="314.573573557" cy="236.958234208" fill="rgb(100%,0%,0%)" r="0.7" /><circle cx="312.452688029" cy="239.079902673" fill="rgb(100%,0%,0%)" r="0.7" /><circle cx="310.377896251" cy="241.246681154" fill="rgb(100%,0%,0%)" r="0.7" /><circle cx="308.349493251" cy="243.45693869" fill="rgb(100%,0%,0%)" r="0.7" /><circle cx="306.367694853" cy="245.709081268" fill="rgb(100%,0%,0%)" r="0.7" /><circle cx="304.432660517" cy="248.00152847" fill="rgb(100%,0%,0%)" r="0.7" /><circle cx="302.544483707" cy="250.332725804" fill="rgb(100%,0%,0%)" r="0.7" /><circle cx="300.703197152" cy="252.701141596" fill="rgb(100%,0%,0%)" r="0.7" /><circle cx="298.90878098" cy="255.1052596" fill="rgb(100%,0%,0%)" r="0.7" /><circle cx="297.161143577" cy="257.543608879" fill="rgb(100%,0%,0%)" r="0.7" /><circle cx="295.460164118" cy="260.014710025" fill="rgb(100%,0%,0%)" r="0.7" /><circle cx="293.805635009" cy="262.517162008" fill="rgb(100%,0%,0%)" r="0.7" /><circle cx="292.197319022" cy="265.049566943" fill="rgb(100%,0%,0%)" r="0.7" /><circle cx="290.634924169" cy="267.61057239" fill="rgb(100%,0%,0%)" r="0.7" /><circle cx="289.11813396" cy="270.198828055" fill="rgb(100%,0%,0%)" r="0.7" /><circle cx="287.646566481" cy="272.813060152" fill="rgb(100%,0%,0%)" r="0.7" /><circle cx="286.219793776" cy="275.452050687" fill="rgb(100%,0%,0%)" r="0.7" /><circle cx="284.837408879" cy="278.114516508" fill="rgb(100%,0%,0%)" r="0.7" /><circle cx="283.49891378" cy="280.799323881" fill="rgb(100%,0%,0%)" r="0.7" /><circle cx="282.203800402" cy="283.505347156" fill="rgb(100%,0%,0%)" r="0.7" /><circle cx="280.951555067" cy="286.231458713" fill="rgb(100%,0%,0%)" r="0.7" /><circle cx="279.741626932" cy="288.976600097" fill="rgb(100%,0%,0%)" r="0.7" /><circle cx="278.573434638" cy="291.739779537" fill="rgb(100%,0%,0%)" r="0.7" /><circle cx="277.446394347" cy="294.520013771" fill="rgb(100%,0%,0%)" r="0.7" /><circle cx="276.35991756" cy="297.316333107" fill="rgb(100%,0%,0%)" r="0.7" /><circle cx="275.313392025" cy="300.127834501" fill="rgb(100%,0%,0%)" r="0.7" /><circle cx="274.306186086" cy="302.953681755" fill="rgb(100%,0%,0%)" r="0.7" /><circle cx="273.337676773" cy="305.793033582" fill="rgb(100%,0%,0%)" r="0.7" /><circle cx="272.407236891" cy="308.645079422" fill="rgb(100%,0%,0%)" r="0.7" /><circle cx="271.514234478" cy="311.509045292" fill="rgb(100%,0%,0%)" r="0.7" /><circle cx="270.658020272" cy="314.384242292" fill="rgb(100%,0%,0%)" r="0.7" /><circle cx="269.837960403" cy="317.269965908" fill="rgb(100%,0%,0%)" r="0.7" /><circle cx="269.053415351" cy="320.165567288" fill="rgb(100%,0%,0%)" r="0.7" /><circle cx="268.303763328" cy="323.070370505" fill="rgb(100%,0%,0%)" r="0.7" /><circle cx="267.590551891" cy="325.984286461" fill="rgb(100%,0%,0%)" r="0.7" /><circle cx="267.057850769" cy="328.936310102" fill="rgb(100%,0%,0%)" r="0.7" /><circle cx="266.636797247" cy="331.90651811" fill="rgb(100%,0%,0%)" r="0.7" /><circle cx="266.300731741" cy="334.887529757" fill="rgb(100%,0%,0%)" r="0.7" /><circle cx="266.040774402" cy="337.876196255" fill="rgb(100%,0%,0%)" r="0.7" /><circle cx="265.852441452" cy="340.870189967" fill="rgb(100%,0%,0%)" r="0.7" /><circle cx="265.73318663" cy="343.867772924" fill="rgb(100%,0%,0%)" r="0.7" /><circle cx="265.681543352" cy="346.867273871" fill="rgb(100%,0%,0%)" r="0.7" /><circle cx="265.696701382" cy="349.867147666" fill="rgb(100%,0%,0%)" r="0.7" /><circle cx="265.778289736" cy="352.865988238" fill="rgb(100%,0%,0%)" r="0.7" /><circle cx="265.926240314" cy="355.862282106" fill="rgb(100%,0%,0%)" r="0.7" /><circle cx="266.140699611" cy="358.854533569" fill="rgb(100%,0%,0%)" r="0.7" /><circle cx="266.421971677" cy="361.841255698" fill="rgb(100%,0%,0%)" r="0.7" /><circle cx="266.770467141" cy="364.820882437" fill="rgb(100%,0%,0%)" r="0.7" /><circle cx="267.186670934" cy="367.791811705" fill="rgb(100%,0%,0%)" r="0.7" /><circle cx="267.671108847" cy="370.752368103" fill="rgb(100%,0%,0%)" r="0.7" /><circle cx="268.224332468" cy="373.700861572" fill="rgb(100%,0%,0%)" r="0.7" /><circle cx="268.846876669" cy="376.635472743" fill="rgb(100%,0%,0%)" r="0.7" /><circle cx="269.539268681" cy="379.554405951" fill="rgb(100%,0%,0%)" r="0.7" /><circle cx="270.301985746" cy="382.455768291" fill="rgb(100%,0%,0%)" r="0.7" /><circle cx="271.13543466" cy="385.33758117" fill="rgb(100%,0%,0%)" r="0.7" /><circle cx="272.03996473" cy="388.197888906" fill="rgb(100%,0%,0%)" r="0.7" /><circle cx="273.01582608" cy="391.034665855" fill="rgb(100%,0%,0%)" r="0.7" /><circle cx="274.063145541" cy="393.845810357" fill="rgb(100%,0%,0%)" r="0.7" /><circle cx="275.181964116" cy="396.629292011" fill="rgb(100%,0%,0%)" r="0.7" /><circle cx="276.372166589" cy="399.383001091" fill="rgb(100%,0%,0%)" r="0.7" /><circle cx="277.633506621" cy="402.104856543" fill="rgb(100%,0%,0%)" r="0.7" /><circle cx="278.965599222" cy="404.792813179" fill="rgb(100%,0%,0%)" r="0.7" /><circle cx="280.367875386" cy="407.444798319" fill="rgb(100%,0%,0%)" r="0.7" /><circle cx="281.839648454" cy="410.058865014" fill="rgb(100%,0%,0%)" r="0.7" /><circle cx="283.380055507" cy="412.633092203" fill="rgb(100%,0%,0%)" r="0.7" /><circle cx="284.988076128" cy="415.165636463" fill="rgb(100%,0%,0%)" r="0.7" /><circle cx="286.662529272" cy="417.65473676" fill="rgb(100%,0%,0%)" r="0.7" /><circle cx="288.402111075" cy="420.098774183" fill="rgb(100%,0%,0%)" r="0.7" /><circle cx="290.205363535" cy="422.496223634" fill="rgb(100%,0%,0%)" r="0.7" /><circle cx="292.070701841" cy="424.84569148" fill="rgb(100%,0%,0%)" r="0.7" /><circle cx="293.996442053" cy="427.145942117" fill="rgb(100%,0%,0%)" r="0.7" /><circle cx="295.980738964" cy="429.395816392" fill="rgb(100%,0%,0%)" r="0.7" /><circle cx="298.021747801" cy="431.594407722" fill="rgb(100%,0%,0%)" r="0.7" /><circle cx="300.117489662" cy="433.740890982" fill="rgb(100%,0%,0%)" r="0.7" /><circle cx="302.265945208" cy="435.834613762" fill="rgb(100%,0%,0%)" r="0.7" /><circle cx="304.465072602" cy="437.875092905" fill="rgb(100%,0%,0%)" r="0.7" /><circle cx="306.712721896" cy="439.861920285" fill="rgb(100%,0%,0%)" r="0.7" /><circle cx="309.006847059" cy="441.794937327" fill="rgb(100%,0%,0%)" r="0.7" /><circle cx="311.345330554" cy="443.674056925" fill="rgb(100%,0%,0%)" r="0.7" /><circle cx="313.726087351" cy="445.499338772" fill="rgb(100%,0%,0%)" r="0.7" /><circle cx="316.172463765" cy="447.232935576" fill="rgb(100%,0%,0%)" r="0.7" /><circle cx="318.720518508" cy="448.816391184" fill="rgb(100%,0%,0%)" r="0.7" /><circle cx="321.269067144" cy="450.399165535" fill="rgb(100%,0%,0%)" r="0.7" /><circle cx="323.817941974" cy="451.98133656" fill="rgb(100%,0%,0%)" r="0.7" /><circle cx="326.3671168" cy="453.562953832" fill="rgb(100%,0%,0%)" r="0.7" /><circle cx="328.916639564" cy="455.1440767" fill="rgb(100%,0%,0%)" r="0.7" /><circle cx="331.466477902" cy="456.724696817" fill="rgb(100%,0%,0%)" r="0.7" /><circle cx="334.016627789" cy="458.304812491" fill="rgb(100%,0%,0%)" r="0.7" /><circle cx="336.567098709" cy="459.884422653" fill="rgb(100%,0%,0%)" r="0.7" /><circle cx="339.117871826" cy="461.463502577" fill="rgb(100%,0%,0%)" r="0.7" /><circle cx="341.668985729" cy="463.0420578" fill="rgb(100%,0%,0%)" r="0.7" /><circle cx="344.220450316" cy="464.620071167" fill="rgb(100%,0%,0%)" r="0.7" /><circle cx="346.772252042" cy="466.19750621" fill="rgb(100%,0%,0%)" r="0.7" /><circle cx="349.32441603" cy="467.77434542" fill="rgb(100%,0%,0%)" r="0.7" /><circle cx="351.876973849" cy="469.350569984" fill="rgb(100%,0%,0%)" r="0.7" /><circle cx="354.429932961" cy="470.926140437" fill="rgb(100%,0%,0%)" r="0.7" /><circle cx="356.983314582" cy="472.501019381" fill="rgb(100%,0%,0%)" r="0.7" /><circle cx="359.537148241" cy="474.075167238" fill="rgb(100%,0%,0%)" r="0.7" /><circle cx="362.091463747" cy="475.64853616" fill="rgb(100%,0%,0%)" r="0.7" /><circle cx="364.646291458" cy="477.221068757" fill="rgb(100%,0%,0%)" r="0.7" /><circle cx="367.201674747" cy="478.792703935" fill="rgb(100%,0%,0%)" r="0.7" /><circle cx="369.757656486" cy="480.363366196" fill="rgb(100%,0%,0%)" r="0.7" /><circle cx="372.314288301" cy="481.932968263" fill="rgb(100%,0%,0%)" r="0.7" /><circle cx="374.87163012" cy="483.501406746" fill="rgb(100%,0%,0%)" r="0.7" /><circle cx="377.42975965" cy="485.06856253" fill="rgb(100%,0%,0%)" r="0.7" /><circle cx="379.988758008" cy="486.634284583" fill="rgb(100%,0%,0%)" r="0.7" /><circle cx="382.548750804" cy="488.198404796" fill="rgb(100%,0%,0%)" r="0.7" /><circle cx="385.109862695" cy="489.760695435" fill="rgb(100%,0%,0%)" r="0.7" /><circle cx="387.67224684" cy="491.320865465" fill="rgb(100%,0%,0%)" r="0.7" /><circle cx="390.236150991" cy="492.878567409" fill="rgb(100%,0%,0%)" r="0.7" /><circle cx="392.801851476" cy="494.433303643" fill="rgb(100%,0%,0%)" r="0.7" /><circle cx="395.369768226" cy="495.984405365" fill="rgb(100%,0%,0%)" r="0.7" /><circle cx="397.940460137" cy="497.530863482" fill="rgb(100%,0%,0%)" r="0.7" /><circle cx="400.514871811" cy="499.071141261" fill="rgb(100%,0%,0%)" r="0.7" /><circle cx="403.094550347" cy="500.602521282" fill="rgb(100%,0%,0%)" r="0.7" /><circle cx="405.682770882" cy="502.119492516" fill="rgb(100%,0%,0%)" r="0.7" /><circle cx="408.288633387" cy="503.605837003" fill="rgb(100%,0%,0%)" r="0.7" /><circle cx="362.92188177" cy="207.973516794" fill="rgb(0%,0%,100%)" r="0.7" /><circle cx="365.792701789" cy="208.618641526" fill="rgb(0%,0%,100%)" r="0.7" /><circle cx="368.002010403" cy="210.625399415" fill="rgb(0%,0%,100%)" r="0.7" /><circle cx="369.659491064" cy="213.12163273" fill="rgb(0%,0%,100%)" r="0.7" /><circle cx="370.979065741" cy="215.814447913" fill="rgb(0%,0%,100%)" r="0.7" /><circle cx="372.072441206" cy="218.607482322" fill="rgb(0%,0%,100%)" r="0.7" /><circle cx="372.996663161" cy="221.461200749" fill="rgb(0%,0%,100%)" r="0.7" /><circle cx="373.776079143" cy="224.357863605" fill="rgb(0%,0%,100%)" r="0.7" /><circle cx="374.056218683" cy="227.331496309" fill="rgb(0%,0%,100%)" r="0.7" /><circle cx="373.912630887" cy="230.326616964" fill="rgb(0%,0%,100%)" r="0.7" /><circle cx="373.364040985" cy="233.272250823" fill="rgb(0%,0%,100%)" r="0.7" /><circle cx="372.152919439" cy="236.004025018" fill="rgb(0%,0%,100%)" r="0.7" /><circle cx="369.980525279" cy="238.028362079" fill="rgb(0%,0%,100%)" r="0.7" /><circle cx="367.09997994" cy="238.76757098" fill="rgb(0%,0%,100%)" r="0.7" /><circle cx="364.126870436" cy="238.441740366" fill="rgb(0%,0%,100%)" r="0.7" /><circle cx="361.280160758" cy="237.505142342" fill="rgb(0%,0%,100%)" r="0.7" /><circle cx="358.578550928" cy="236.20415509" fill="rgb(0%,0%,100%)" r="0.7" /><circle cx="356.015342565" cy="234.647279075" fill="rgb(0%,0%,100%)" r="0.7" /><circle cx="353.294136184" cy="233.490842925" fill="rgb(0%,0%,100%)" r="0.7" /><circle cx="350.31803855" cy="233.714989744" fill="rgb(0%,0%,100%)" r="0.7" /><circle cx="347.487207779" cy="234.695373913" fill="rgb(0%,0%,100%)" r="0.7" /><circle cx="344.820960862" cy="236.06735878" fill="rgb(0%,0%,100%)" r="0.7" /><circle cx="342.285857064" cy="237.670277594" fill="rgb(0%,0%,100%)" r="0.7" /><circle cx="339.853445853" cy="239.425654838" fill="rgb(0%,0%,100%)" r="0.7" /><circle cx="337.503529572" cy="241.290244939" fill="rgb(0%,0%,100%)" r="0.7" /><circle cx="335.221944571" cy="243.23796327" fill="rgb(0%,0%,100%)" r="0.7" /><circle cx="332.99868935" cy="245.252065011" fill="rgb(0%,0%,100%)" r="0.7" /><circle cx="330.826747959" cy="247.321430762" fill="rgb(0%,0%,100%)" r="0.7" /><circle cx="328.701508456" cy="249.438738525" fill="rgb(0%,0%,100%)" r="0.7" /><circle cx="326.620805186" cy="251.59985325" fill="rgb(0%,0%,100%)" r="0.7" /><circle cx="324.587051256" cy="253.805175741" fill="rgb(0%,0%,100%)" r="0.7" /><circle cx="322.729001546" cy="256.157393077" fill="rgb(0%,0%,100%)" r="0.7" /><circle cx="320.963143017" cy="258.582603035" fill="rgb(0%,0%,100%)" r="0.7" /><circle cx="319.230118953" cy="261.031365416" fill="rgb(0%,0%,100%)" r="0.7" /><circle cx="317.530595017" cy="263.503521774" fill="rgb(0%,0%,100%)" r="0.7" /><circle cx="315.865290538" cy="265.998833621" fill="rgb(0%,0%,100%)" r="0.7" /><circle cx="314.234894925" cy="268.517104717" fill="rgb(0%,0%,100%)" r="0.7" /><circle cx="312.640135616" cy="271.058082136" fill="rgb(0%,0%,100%)" r="0.7" /><circle cx="311.081732353" cy="273.621528212" fill="rgb(0%,0%,100%)" r="0.7" /><circle cx="309.560440528" cy="276.207153791" fill="rgb(0%,0%,100%)" r="0.7" /><circle cx="308.07700234" cy="278.814703076" fill="rgb(0%,0%,100%)" r="0.7" /><circle cx="306.632210804" cy="281.443848644" fill="rgb(0%,0%,100%)" r="0.7" /><circle cx="305.226861316" cy="284.094280127" fill="rgb(0%,0%,100%)" r="0.7" /><circle cx="303.861771271" cy="286.765679092" fill="rgb(0%,0%,100%)" r="0.7" /><circle cx="302.537801936" cy="289.457685001" fill="rgb(0%,0%,100%)" r="0.7" /><circle cx="301.255838175" cy="292.169946116" fill="rgb(0%,0%,100%)" r="0.7" /><circle cx="300.016809526" cy="294.902093609" fill="rgb(0%,0%,100%)" r="0.7" /><circle cx="298.821697611" cy="297.653745102" fill="rgb(0%,0%,100%)" r="0.7" /><circle cx="297.671559446" cy="300.42447587" fill="rgb(0%,0%,100%)" r="0.7" /><circle cx="296.567513261" cy="303.213886773" fill="rgb(0%,0%,100%)" r="0.7" /><circle cx="295.510772941" cy="306.021572975" fill="rgb(0%,0%,100%)" r="0.7" /><circle cx="294.502683161" cy="308.847097886" fill="rgb(0%,0%,100%)" r="0.7" /><circle cx="293.544750251" cy="311.689997665" fill="rgb(0%,0%,100%)" r="0.7" /><circle cx="292.63866633" cy="314.549851918" fill="rgb(0%,0%,100%)" r="0.7" /><circle cx="291.786404087" cy="317.426208631" fill="rgb(0%,0%,100%)" r="0.7" /><circle cx="290.990310788" cy="320.318601569" fill="rgb(0%,0%,100%)" r="0.7" /><circle cx="290.253257701" cy="323.226582038" fill="rgb(0%,0%,100%)" r="0.7" /><circle cx="289.578901325" cy="326.149743137" fill="rgb(0%,0%,100%)" r="0.7" /><circle cx="288.972179825" cy="329.087685308" fill="rgb(0%,0%,100%)" r="0.7" /><circle cx="288.440324861" cy="332.040068781" fill="rgb(0%,0%,100%)" r="0.7" /><circle cx="287.995555313" cy="335.006794458" fill="rgb(0%,0%,100%)" r="0.7" /><circle cx="287.667914527" cy="337.988520437" fill="rgb(0%,0%,100%)" r="0.7" /><circle cx="287.603714619" cy="340.987190815" fill="rgb(0%,0%,100%)" r="0.7" /><circle cx="287.635968117" cy="343.986934801" fill="rgb(0%,0%,100%)" r="0.7" /><circle cx="287.747929389" cy="346.984752099" fill="rgb(0%,0%,100%)" r="0.7" /><circle cx="287.940820416" cy="349.978454055" fill="rgb(0%,0%,100%)" r="0.7" /><circle cx="288.215705755" cy="352.965723647" fill="rgb(0%,0%,100%)" r="0.7" /><circle cx="288.573487531" cy="355.944215915" fill="rgb(0%,0%,100%)" r="0.7" /><circle cx="289.014887824" cy="358.911477008" fill="rgb(0%,0%,100%)" r="0.7" /><circle cx="289.540439855" cy="361.864980511" fill="rgb(0%,0%,100%)" r="0.7" /><circle cx="290.150489082" cy="364.80217934" fill="rgb(0%,0%,100%)" r="0.7" /><circle cx="290.845196528" cy="367.720527375" fill="rgb(0%,0%,100%)" r="0.7" /><circle cx="291.624528521" cy="370.617435648" fill="rgb(0%,0%,100%)" r="0.7" /><circle cx="292.488260426" cy="373.4902945" fill="rgb(0%,0%,100%)" r="0.7" /><circle cx="293.43600283" cy="376.336543446" fill="rgb(0%,0%,100%)" r="0.7" /><circle cx="294.467200598" cy="379.15362784" fill="rgb(0%,0%,100%)" r="0.7" /><circle cx="295.581154914" cy="381.939022918" fill="rgb(0%,0%,100%)" r="0.7" /><circle cx="296.777047566" cy="384.69024175" fill="rgb(0%,0%,100%)" r="0.7" /><circle cx="298.053956422" cy="387.404808367" fill="rgb(0%,0%,100%)" r="0.7" /><circle cx="299.410890954" cy="390.08026293" fill="rgb(0%,0%,100%)" r="0.7" /><circle cx="300.846833939" cy="392.714153095" fill="rgb(0%,0%,100%)" r="0.7" /><circle cx="302.36078523" cy="395.304000469" fill="rgb(0%,0%,100%)" r="0.7" /><circle cx="303.951794149" cy="397.847216798" fill="rgb(0%,0%,100%)" r="0.7" /><circle cx="305.619082871" cy="400.341115954" fill="rgb(0%,0%,100%)" r="0.7" /><circle cx="307.362067904" cy="402.782678118" fill="rgb(0%,0%,100%)" r="0.7" /><circle cx="309.180611195" cy="405.168512374" fill="rgb(0%,0%,100%)" r="0.7" /><circle cx="311.07518486" cy="407.494402406" fill="rgb(0%,0%,100%)" r="0.7" /><circle cx="313.047447555" cy="409.754780539" fill="rgb(0%,0%,100%)" r="0.7" /><circle cx="315.101361966" cy="411.94117209" fill="rgb(0%,0%,100%)" r="0.7" /><circle cx="317.247233785" cy="414.037235336" fill="rgb(0%,0%,100%)" r="0.7" /><circle cx="319.492899312" cy="416.026033249" fill="rgb(0%,0%,100%)" r="0.7" /><circle cx="321.777796684" cy="417.969976247" fill="rgb(0%,0%,100%)" r="0.7" /><circle cx="324.096513186" cy="419.873534071" fill="rgb(0%,0%,100%)" r="0.7" /><circle cx="326.438068718" cy="421.748904482" fill="rgb(0%,0%,100%)" r="0.7" /><circle cx="328.796412023" cy="423.60316937" fill="rgb(0%,0%,100%)" r="0.7" /><circle cx="331.167699862" cy="425.440795217" fill="rgb(0%,0%,100%)" r="0.7" /><circle cx="333.549419754" cy="427.264897126" fill="rgb(0%,0%,100%)" r="0.7" /><circle cx="335.939764518" cy="429.077700043" fill="rgb(0%,0%,100%)" r="0.7" /><circle cx="338.337391943" cy="430.880865454" fill="rgb(0%,0%,100%)" r="0.7" /><circle cx="340.741277799" cy="432.675676238" fill="rgb(0%,0%,100%)" r="0.7" /><circle cx="343.150620494" cy="434.463147685" fill="rgb(0%,0%,100%)" r="0.7" /><circle cx="345.564793579" cy="436.244110118" fill="rgb(0%,0%,100%)" r="0.7" /><circle cx="347.983253109" cy="438.01921995" fill="rgb(0%,0%,100%)" r="0.7" /><circle cx="350.405589009" cy="439.789052807" fill="rgb(0%,0%,100%)" r="0.7" /><circle cx="352.831430016" cy="441.554073116" fill="rgb(0%,0%,100%)" r="0.7" /><circle cx="355.260477288" cy="443.314687652" fill="rgb(0%,0%,100%)" r="0.7" /><circle cx="357.692460087" cy="445.071234814" fill="rgb(0%,0%,100%)" r="0.7" /><circle cx="360.127161445" cy="446.824019566" fill="rgb(0%,0%,100%)" r="0.7" /><circle cx="362.56437722" cy="448.573296462" fill="rgb(0%,0%,100%)" r="0.7" /><circle cx="365.003943963" cy="450.319299575" fill="rgb(0%,0%,100%)" r="0.7" /><circle cx="367.445707638" cy="452.062227803" fill="rgb(0%,0%,100%)" r="0.7" /><circle cx="369.889535695" cy="453.802259781" fill="rgb(0%,0%,100%)" r="0.7" /><circle cx="372.33531245" cy="455.539555569" fill="rgb(0%,0%,100%)" r="0.7" /><circle cx="374.782928255" cy="457.274253028" fill="rgb(0%,0%,100%)" r="0.7" /><circle cx="377.232294727" cy="459.006481949" fill="rgb(0%,0%,100%)" r="0.7" /><circle cx="379.683323746" cy="460.736351871" fill="rgb(0%,0%,100%)" r="0.7" /><circle cx="382.135950294" cy="462.463970427" fill="rgb(0%,0%,100%)" r="0.7" /><circle cx="384.590097045" cy="464.189420164" fill="rgb(0%,0%,100%)" r="0.7" /><circle cx="387.045700543" cy="465.912778448" fill="rgb(0%,0%,100%)" r="0.7" /><circle cx="389.502734124" cy="467.634134568" fill="rgb(0%,0%,100%)" r="0.7" /><circle cx="391.961124662" cy="469.353532157" fill="rgb(0%,0%,100%)" r="0.7" /><circle cx="394.420831846" cy="471.071025292" fill="rgb(0%,0%,100%)" r="0.7" /><circle cx="396.881842647" cy="472.786674614" fill="rgb(0%,0%,100%)" r="0.7" /><circle cx="399.344123882" cy="474.50051395" fill="rgb(0%,0%,100%)" r="0.7" /><circle cx="401.807629307" cy="476.212554577" fill="rgb(0%,0%,100%)" r="0.7" /><circle cx="404.272371059" cy="477.92283331" fill="rgb(0%,0%,100%)" r="0.7" /><circle cx="406.738338876" cy="479.631353581" fill="rgb(0%,0%,100%)" r="0.7" /><circle cx="409.205512021" cy="481.338089158" fill="rgb(0%,0%,100%)" r="0.7" /><circle cx="411.673963277" cy="483.043047689" fill="rgb(0%,0%,100%)" r="0.7" /><circle cx="414.143695745" cy="484.746141774" fill="rgb(0%,0%,100%)" r="0.7" /><circle cx="416.614774104" cy="486.447244546" fill="rgb(0%,0%,100%)" r="0.7" /><circle cx="419.08738364" cy="488.146130838" fill="rgb(0%,0%,100%)" r="0.7" /><circle cx="421.562" cy="489.842" fill="rgb(0%,0%,100%)" r="0.7" /><circle cx="420.809963128" cy="490.092745716" fill="rgb(0%,0%,100%)" r="0.7" /><circle cx="417.963989035" cy="491.041656386" fill="rgb(0%,0%,100%)" r="0.7" /><circle cx="415.118014941" cy="491.990567056" fill="rgb(0%,0%,100%)" r="0.7" /><circle cx="412.272040848" cy="492.939477725" fill="rgb(0%,0%,100%)" r="0.7" /><circle cx="409.426066754" cy="493.888388395" fill="rgb(0%,0%,100%)" r="0.7" /><circle cx="406.580092661" cy="494.837299065" fill="rgb(0%,0%,100%)" r="0.7" /><circle cx="407.514438167" cy="497.645541239" fill="rgb(0%,0%,100%)" r="0.7" /><circle cx="408.500068757" cy="500.479007727" fill="rgb(0%,0%,100%)" r="0.7" /><circle cx="409.485699347" cy="503.312474216" fill="rgb(0%,0%,100%)" r="0.7" /><circle cx="408.288633387" cy="503.605837003" fill="rgb(0%,0%,100%)" r="0.7" /></svg>