<?xml version="1.0" encoding="utf-8" ?>
<svg baseProfile="full" height="100%" version="1.1" width="100%" xmlns="http://www.w3.org/2000/svg" xmlns:ev="http://www.w3.org/2001/xml-events" xmlns:xlink="http://www.w3.org/1999/xlink"><defs /><circle cx="321.742789947" cy="272.200300199" fill="rgb(100%,0%,0%)" r="0.7" /><circle cx="319.103491387" cy="273.62651712" fill="rgb(100%,0%,0%)" r="0.7" /><circle cx="316.468087738" cy="275.059921149" fill="rgb(100%,0%,0%)" r="0.7" /><circle cx="313.871905389" cy="276.557774625" fill="rgb(100%,0%,0%)" r="0.7" /><circle cx="311.700717482" cy="278.620860922" fill="rgb(100%,0%,0%)" r="0.7" /><circle cx="309.930849697" cy="281.038782961" fill="rgb(100%,0%,0%)" r="0.7" /><circle cx="308.582584603" cy="283.715050946" fill="rgb(100%,0%,0%)" r="0.7" /><circle cx="307.675120753" cy="286.571358448" fill="rgb(100%,0%,0%)" r="0.7" /><circle cx="307.563367576" cy="289.503296548" fill="rgb(100%,0%,0%)" r="0.7" /><circle cx="308.864144203" cy="292.202863634" fill="rgb(100%,0%,0%)" r="0.7" /><circle cx="310.443571319" cy="294.752742361" fill="rgb(100%,0%,0%)" r="0.7" /><circle cx="312.158038073" cy="297.21429719" fill="rgb(100%,0%,0%)" r="0.7" /><circle cx="313.70594053" cy="299.775030526" fill="rgb(100%,0%,0%)" r="0.7" /><circle cx="314.63550082" cy="302.621436397" fill="rgb(100%,0%,0%)" r="0.7" /><circle cx="314.899395301" cy="305.59842809" fill="rgb(100%,0%,0%)" r="0.7" /><circle cx="314.636219245" cy="308.586647321" fill="rgb(100%,0%,0%)" r="0.7" /><circle cx="314.272349077" cy="311.564400678" fill="rgb(100%,0%,0%)" r="0.7" /><circle cx="313.830036502" cy="314.531538045" fill="rgb(100%,0%,0%)" r="0.7" /><circle cx="313.318602125" cy="317.487566655" fill="rgb(100%,0%,0%)" r="0.7" /><circle cx="312.743460474" cy="320.431859144" fill="rgb(100%,0%,0%)" r="0.7" /><circle cx="312.108191336" cy="323.363775226" fill="rgb(100%,0%,0%)" r="0.7" /><circle cx="311.415352087" cy="326.28263084" fill="rgb(100%,0%,0%)" r="0.7" /><circle cx="310.666866919" cy="329.187705256" fill="rgb(100%,0%,0%)" r="0.7" /><circle cx="309.864225874" cy="332.078300872" fill="rgb(100%,0%,0%)" r="0.7" /><circle cx="309.008636203" cy="334.953659828" fill="rgb(100%,0%,0%)" r="0.7" /><circle cx="308.101082776" cy="337.813049661" fill="rgb(100%,0%,0%)" r="0.7" /><circle cx="307.142401804" cy="340.655704918" fill="rgb(100%,0%,0%)" r="0.7" /><circle cx="306.133311198" cy="343.480861438" fill="rgb(100%,0%,0%)" r="0.7" /><circle cx="305.074443886" cy="346.287745217" fill="rgb(100%,0%,0%)" r="0.7" /><circle cx="303.966371911" cy="349.07556995" fill="rgb(100%,0%,0%)" r="0.7" /><circle cx="302.809621891" cy="351.843544175" fill="rgb(100%,0%,0%)" r="0.7" /><circle cx="301.604684705" cy="354.590881758" fill="rgb(100%,0%,0%)" r="0.7" /><circle cx="300.352025882" cy="357.316802864" fill="rgb(100%,0%,0%)" r="0.7" /><circle cx="299.052110619" cy="360.020501231" fill="rgb(100%,0%,0%)" r="0.7" /><circle cx="297.755307692" cy="362.724564608" fill="rgb(100%,0%,0%)" r="0.7" /><circle cx="296.560348295" cy="365.476313422" fill="rgb(100%,0%,0%)" r="0.7" /><circle cx="295.349418458" cy="368.221059293" fill="rgb(100%,0%,0%)" r="0.7" /><circle cx="294.12433921" cy="370.959514801" fill="rgb(100%,0%,0%)" r="0.7" /><circle cx="292.88531752" cy="373.691697099" fill="rgb(100%,0%,0%)" r="0.7" /><circle cx="291.631951207" cy="376.417328961" fill="rgb(100%,0%,0%)" r="0.7" /><circle cx="290.363424403" cy="379.135937605" fill="rgb(100%,0%,0%)" r="0.7" /><circle cx="289.078548825" cy="381.846857496" fill="rgb(100%,0%,0%)" r="0.7" /><circle cx="287.775735701" cy="384.549195985" fill="rgb(100%,0%,0%)" r="0.7" /><circle cx="286.452902833" cy="387.24179236" fill="rgb(100%,0%,0%)" r="0.7" /><circle cx="285.107338561" cy="389.923098301" fill="rgb(100%,0%,0%)" r="0.7" /><circle cx="283.735458028" cy="392.591031013" fill="rgb(100%,0%,0%)" r="0.7" /><circle cx="282.332414896" cy="395.24270237" fill="rgb(100%,0%,0%)" r="0.7" /><circle cx="280.891437371" cy="397.873938391" fill="rgb(100%,0%,0%)" r="0.7" /><circle cx="279.402607704" cy="400.478370435" fill="rgb(100%,0%,0%)" r="0.7" /><circle cx="277.85041437" cy="403.045488323" fill="rgb(100%,0%,0%)" r="0.7" /><circle cx="276.208151213" cy="405.555763031" fill="rgb(100%,0%,0%)" r="0.7" /><circle cx="274.619527675" cy="408.098289521" fill="rgb(100%,0%,0%)" r="0.7" /><circle cx="273.076148734" cy="410.670834345" fill="rgb(100%,0%,0%)" r="0.7" /><circle cx="271.51992306" cy="413.235602913" fill="rgb(100%,0%,0%)" r="0.7" /><circle cx="269.952643542" cy="415.793657278" fill="rgb(100%,0%,0%)" r="0.7" /><circle cx="268.375188995" cy="418.345430539" fill="rgb(100%,0%,0%)" r="0.7" /><circle cx="266.788003246" cy="420.89121331" fill="rgb(100%,0%,0%)" r="0.7" /><circle cx="265.191401558" cy="423.431053649" fill="rgb(100%,0%,0%)" r="0.7" /><circle cx="263.585500433" cy="425.965038731" fill="rgb(100%,0%,0%)" r="0.7" /><circle cx="261.970369229" cy="428.493137819" fill="rgb(100%,0%,0%)" r="0.7" /><circle cx="260.345988921" cy="431.015315358" fill="rgb(100%,0%,0%)" r="0.7" /><circle cx="258.712293721" cy="433.531493321" fill="rgb(100%,0%,0%)" r="0.7" /><circle cx="257.069203382" cy="436.04151924" fill="rgb(100%,0%,0%)" r="0.7" /><circle cx="255.416564809" cy="438.545266375" fill="rgb(100%,0%,0%)" r="0.7" /><circle cx="253.754190405" cy="441.042580113" fill="rgb(100%,0%,0%)" r="0.7" /><circle cx="252.081895487" cy="443.533225425" fill="rgb(100%,0%,0%)" r="0.7" /><circle cx="250.399409572" cy="446.017020293" fill="rgb(100%,0%,0%)" r="0.7" /><circle cx="248.70646535" cy="448.493701491" fill="rgb(100%,0%,0%)" r="0.7" /><circle cx="247.002753153" cy="450.962990002" fill="rgb(100%,0%,0%)" r="0.7" /><circle cx="245.287933009" cy="453.424569106" fill="rgb(100%,0%,0%)" r="0.7" /><circle cx="243.561619639" cy="455.878100505" fill="rgb(100%,0%,0%)" r="0.7" /><circle cx="241.823389478" cy="458.323207031" fill="rgb(100%,0%,0%)" r="0.7" /><circle cx="240.072779562" cy="460.759465927" fill="rgb(100%,0%,0%)" r="0.7" /><circle cx="238.309279136" cy="463.186410585" fill="rgb(100%,0%,0%)" r="0.7" /><circle cx="236.532327114" cy="465.603521998" fill="rgb(100%,0%,0%)" r="0.7" /><circle cx="234.741305231" cy="468.010223941" fill="rgb(100%,0%,0%)" r="0.7" /><circle cx="232.93552975" cy="470.405877257" fill="rgb(100%,0%,0%)" r="0.7" /><circle cx="231.114249454" cy="472.78976263" fill="rgb(100%,0%,0%)" r="0.7" /><circle cx="229.276632662" cy="475.161074225" fill="rgb(100%,0%,0%)" r="0.7" /><circle cx="227.421753329" cy="477.518909433" fill="rgb(100%,0%,0%)" r="0.7" /><circle cx="225.54858638" cy="479.862241071" fill="rgb(100%,0%,0%)" r="0.7" /><circle cx="223.655988403" cy="482.189901376" fill="rgb(100%,0%,0%)" r="0.7" /><circle cx="221.742667275" cy="484.500569904" fill="rgb(100%,0%,0%)" r="0.7" /><circle cx="219.807191488" cy="486.792701988" fill="rgb(100%,0%,0%)" r="0.7" /><circle cx="217.847926196" cy="489.064531475" fill="rgb(100%,0%,0%)" r="0.7" /><circle cx="215.863023775" cy="491.313988358" fill="rgb(100%,0%,0%)" r="0.7" /><circle cx="213.850366487" cy="493.538648055" fill="rgb(100%,0%,0%)" r="0.7" /><circle cx="211.807542541" cy="495.735610216" fill="rgb(100%,0%,0%)" r="0.7" /><circle cx="209.731729099" cy="497.901434706" fill="rgb(100%,0%,0%)" r="0.7" /><circle cx="207.6196531" cy="500.031930291" fill="rgb(100%,0%,0%)" r="0.7" /><circle cx="205.467513387" cy="502.121905628" fill="rgb(100%,0%,0%)" r="0.7" /><circle cx="203.270789695" cy="504.164912198" fill="rgb(100%,0%,0%)" r="0.7" /><circle cx="201.024043751" cy="506.15280896" fill="rgb(100%,0%,0%)" r="0.7" /><circle cx="200.327865022" cy="507.056794557" fill="rgb(100%,0%,0%)" r="0.7" /><circle cx="203.036002825" cy="505.766062346" fill="rgb(100%,0%,0%)" r="0.7" /><circle cx="205.744140628" cy="504.475330135" fill="rgb(100%,0%,0%)" r="0.7" /><circle cx="208.452278431" cy="503.184597924" fill="rgb(100%,0%,0%)" r="0.7" /><circle cx="211.160416234" cy="501.893865713" fill="rgb(100%,0%,0%)" r="0.7" /><circle cx="213.868554037" cy="500.603133502" fill="rgb(100%,0%,0%)" r="0.7" /><circle cx="216.57669184" cy="499.312401291" fill="rgb(100%,0%,0%)" r="0.7" /><circle cx="219.284829643" cy="498.02166908" fill="rgb(100%,0%,0%)" r="0.7" /><circle cx="219.544835162" cy="500.951349312" fill="rgb(100%,0%,0%)" r="0.7" /><circle cx="219.768911349" cy="503.942969251" fill="rgb(100%,0%,0%)" r="0.7" /><circle cx="219.992987536" cy="506.934589191" fill="rgb(100%,0%,0%)" r="0.7" /><circle cx="220.217063724" cy="509.92620913" fill="rgb(100%,0%,0%)" r="0.7" /><circle cx="220.441139911" cy="512.91782907" fill="rgb(100%,0%,0%)" r="0.7" /><circle cx="220.665216099" cy="515.909449009" fill="rgb(100%,0%,0%)" r="0.7" /><circle cx="220.889292286" cy="518.901068949" fill="rgb(100%,0%,0%)" r="0.7" /><circle cx="221.113368473" cy="521.892688888" fill="rgb(100%,0%,0%)" r="0.7" /><circle cx="221.202" cy="523.076" fill="rgb(100%,0%,0%)" r="0.7" /><circle cx="321.742789947" cy="272.200300199" fill="rgb(0%,0%,100%)" r="0.7" /><circle cx="324.467511385" cy="273.234312166" fill="rgb(0%,0%,100%)" r="0.7" /><circle cx="326.781373254" cy="275.138421184" fill="rgb(0%,0%,100%)" r="0.7" /><circle cx="328.844699083" cy="277.314179759" fill="rgb(0%,0%,100%)" r="0.7" /><circle cx="330.662492108" cy="279.698949445" fill="rgb(0%,0%,100%)" r="0.7" /><circle cx="332.221912862" cy="282.26027928" fill="rgb(0%,0%,100%)" r="0.7" /><circle cx="333.521409996" cy="284.962963846" fill="rgb(0%,0%,100%)" r="0.7" /><circle cx="334.568744009" cy="287.773186273" fill="rgb(0%,0%,100%)" r="0.7" /><circle cx="335.377851844" cy="290.661194034" fill="rgb(0%,0%,100%)" r="0.7" /><circle cx="335.965704747" cy="293.602371497" fill="rgb(0%,0%,100%)" r="0.7" /><circle cx="336.349799219" cy="296.577139706" fill="rgb(0%,0%,100%)" r="0.7" /><circle cx="336.546388772" cy="299.570238724" fill="rgb(0%,0%,100%)" r="0.7" /><circle cx="336.569213867" cy="302.569762827" fill="rgb(0%,0%,100%)" r="0.7" /><circle cx="336.428235433" cy="305.566084671" fill="rgb(0%,0%,100%)" r="0.7" /><circle cx="336.127159791" cy="308.550579557" fill="rgb(0%,0%,100%)" r="0.7" /><circle cx="335.65277524" cy="311.51229239" fill="rgb(0%,0%,100%)" r="0.7" /><circle cx="335.393263859" cy="314.494605255" fill="rgb(0%,0%,100%)" r="0.7" /><circle cx="335.092283139" cy="317.479282779" fill="rgb(0%,0%,100%)" r="0.7" /><circle cx="334.696284688" cy="320.45294067" fill="rgb(0%,0%,100%)" r="0.7" /><circle cx="334.237004663" cy="323.417541963" fill="rgb(0%,0%,100%)" r="0.7" /><circle cx="333.731586916" cy="326.374635982" fill="rgb(0%,0%,100%)" r="0.7" /><circle cx="333.190493517" cy="329.325426372" fill="rgb(0%,0%,100%)" r="0.7" /><circle cx="332.620648077" cy="332.270796913" fill="rgb(0%,0%,100%)" r="0.7" /><circle cx="332.026888433" cy="335.211446526" fill="rgb(0%,0%,100%)" r="0.7" /><circle cx="331.412738264" cy="338.147906567" fill="rgb(0%,0%,100%)" r="0.7" /><circle cx="330.780836042" cy="341.080599094" fill="rgb(0%,0%,100%)" r="0.7" /><circle cx="330.133196212" cy="344.009853382" fill="rgb(0%,0%,100%)" r="0.7" /><circle cx="329.47136612" cy="346.93593872" fill="rgb(0%,0%,100%)" r="0.7" /><circle cx="328.796528598" cy="349.859056096" fill="rgb(0%,0%,100%)" r="0.7" /><circle cx="328.109555399" cy="352.779342807" fill="rgb(0%,0%,100%)" r="0.7" /><circle cx="327.411013342" cy="355.696881974" fill="rgb(0%,0%,100%)" r="0.7" /><circle cx="326.701104213" cy="358.611680746" fill="rgb(0%,0%,100%)" r="0.7" /><circle cx="325.979412905" cy="361.523579112" fill="rgb(0%,0%,100%)" r="0.7" /><circle cx="325.248534802" cy="364.433020174" fill="rgb(0%,0%,100%)" r="0.7" /><circle cx="324.598798554" cy="367.361598729" fill="rgb(0%,0%,100%)" r="0.7" /><circle cx="323.839598924" cy="370.263793401" fill="rgb(0%,0%,100%)" r="0.7" /><circle cx="322.990786582" cy="373.141102227" fill="rgb(0%,0%,100%)" r="0.7" /><circle cx="322.067057506" cy="375.995272191" fill="rgb(0%,0%,100%)" r="0.7" /><circle cx="321.079584316" cy="378.828045167" fill="rgb(0%,0%,100%)" r="0.7" /><circle cx="320.037063997" cy="381.641031052" fill="rgb(0%,0%,100%)" r="0.7" /><circle cx="318.94638689" cy="384.43571452" fill="rgb(0%,0%,100%)" r="0.7" /><circle cx="317.813118418" cy="387.21340128" fill="rgb(0%,0%,100%)" r="0.7" /><circle cx="316.641806212" cy="389.975266965" fill="rgb(0%,0%,100%)" r="0.7" /><circle cx="315.436217576" cy="392.722349862" fill="rgb(0%,0%,100%)" r="0.7" /><circle cx="314.199506904" cy="395.455564577" fill="rgb(0%,0%,100%)" r="0.7" /><circle cx="312.934334799" cy="398.175725111" fill="rgb(0%,0%,100%)" r="0.7" /><circle cx="311.642965317" cy="400.883546534" fill="rgb(0%,0%,100%)" r="0.7" /><circle cx="310.327330696" cy="403.579667163" fill="rgb(0%,0%,100%)" r="0.7" /><circle cx="308.989093065" cy="406.264640692" fill="rgb(0%,0%,100%)" r="0.7" /><circle cx="307.629682664" cy="408.938949962" fill="rgb(0%,0%,100%)" r="0.7" /><circle cx="306.250317787" cy="411.603034352" fill="rgb(0%,0%,100%)" r="0.7" /><circle cx="304.852052667" cy="414.257245403" fill="rgb(0%,0%,100%)" r="0.7" /><circle cx="303.43577309" cy="416.901888984" fill="rgb(0%,0%,100%)" r="0.7" /><circle cx="302.002222712" cy="419.537192607" fill="rgb(0%,0%,100%)" r="0.7" /><circle cx="300.551967604" cy="422.163369691" fill="rgb(0%,0%,100%)" r="0.7" /><circle cx="299.085452857" cy="424.780492095" fill="rgb(0%,0%,100%)" r="0.7" /><circle cx="297.602924947" cy="427.388571389" fill="rgb(0%,0%,100%)" r="0.7" /><circle cx="296.104392818" cy="429.987498888" fill="rgb(0%,0%,100%)" r="0.7" /><circle cx="294.589543054" cy="432.576919431" fill="rgb(0%,0%,100%)" r="0.7" /><circle cx="293.0573746" cy="435.156168977" fill="rgb(0%,0%,100%)" r="0.7" /><circle cx="291.505214216" cy="437.723421999" fill="rgb(0%,0%,100%)" r="0.7" /><circle cx="289.987548434" cy="440.310503234" fill="rgb(0%,0%,100%)" r="0.7" /><circle cx="288.485320197" cy="442.907258576" fill="rgb(0%,0%,100%)" r="0.7" /><circle cx="286.945249556" cy="445.481753942" fill="rgb(0%,0%,100%)" r="0.7" /><circle cx="285.369664679" cy="448.034673587" fill="rgb(0%,0%,100%)" r="0.7" /><circle cx="283.760679425" cy="450.56667983" fill="rgb(0%,0%,100%)" r="0.7" /><circle cx="282.120218354" cy="453.078407883" fill="rgb(0%,0%,100%)" r="0.7" /><circle cx="280.450032411" cy="455.570471444" fill="rgb(0%,0%,100%)" r="0.7" /><circle cx="278.751720824" cy="458.043455353" fill="rgb(0%,0%,100%)" r="0.7" /><circle cx="277.026745462" cy="460.497917154" fill="rgb(0%,0%,100%)" r="0.7" /><circle cx="275.276445565" cy="462.934385593" fill="rgb(0%,0%,100%)" r="0.7" /><circle cx="273.502050021" cy="465.353360573" fill="rgb(0%,0%,100%)" r="0.7" /><circle cx="271.704681914" cy="467.755321587" fill="rgb(0%,0%,100%)" r="0.7" /><circle cx="269.885379378" cy="470.140712477" fill="rgb(0%,0%,100%)" r="0.7" /><circle cx="268.045095062" cy="472.509953788" fill="rgb(0%,0%,100%)" r="0.7" /><circle cx="266.184705377" cy="474.863440326" fill="rgb(0%,0%,100%)" r="0.7" /><circle cx="264.305019007" cy="477.201538779" fill="rgb(0%,0%,100%)" r="0.7" /><circle cx="262.406768137" cy="479.524605526" fill="rgb(0%,0%,100%)" r="0.7" /><circle cx="260.490651654" cy="481.832939716" fill="rgb(0%,0%,100%)" r="0.7" /><circle cx="258.557279671" cy="484.126855867" fill="rgb(0%,0%,100%)" r="0.7" /><circle cx="256.607236148" cy="486.406612071" fill="rgb(0%,0%,100%)" r="0.7" /><circle cx="254.641036645" cy="488.672463433" fill="rgb(0%,0%,100%)" r="0.7" /><circle cx="252.659171351" cy="490.92461374" fill="rgb(0%,0%,100%)" r="0.7" /><circle cx="250.662067541" cy="493.163259644" fill="rgb(0%,0%,100%)" r="0.7" /><circle cx="248.650106864" cy="495.38856971" fill="rgb(0%,0%,100%)" r="0.7" /><circle cx="246.623640275" cy="497.600666023" fill="rgb(0%,0%,100%)" r="0.7" /><circle cx="244.582952038" cy="499.799659609" fill="rgb(0%,0%,100%)" r="0.7" /><circle cx="242.528290422" cy="501.985609888" fill="rgb(0%,0%,100%)" r="0.7" /><circle cx="240.45986605" cy="504.158517029" fill="rgb(0%,0%,100%)" r="0.7" /><circle cx="238.377792174" cy="506.318369153" fill="rgb(0%,0%,100%)" r="0.7" /><circle cx="236.28214745" cy="508.465052805" fill="rgb(0%,0%,100%)" r="0.7" /><circle cx="234.172904657" cy="510.598391182" fill="rgb(0%,0%,100%)" r="0.7" /><circle cx="232.04995948" cy="512.71805694" fill="rgb(0%,0%,100%)" r="0.7" /><circle cx="229.912982064" cy="514.823621877" fill="rgb(0%,0%,100%)" r="0.7" /><circle cx="227.761495397" cy="516.914293482" fill="rgb(0%,0%,100%)" r="0.7" /><circle cx="225.594458495" cy="518.988922107" fill="rgb(0%,0%,100%)" r="0.7" /><circle cx="223.409991065" cy="521.045147993" fill="rgb(0%,0%,100%)" r="0.7" /><circle cx="221.202" cy="523.076" fill="rgb(0%,0%,100%)" r="0.7" /></svg>