<?xml version="1.0" encoding="utf-8" ?>
<svg baseProfile="full" height="100%" version="1.1" width="100%" xmlns="http://www.w3.org/2000/svg" xmlns:ev="http://www.w3.org/2001/xml-events" xmlns:xlink="http://www.w3.org/1999/xlink"><defs /><circle cx="318.427395413" cy="301.03941085" fill="rgb(100%,0%,0%)" r="0.7" /><circle cx="315.523267753" cy="301.647909106" fill="rgb(100%,0%,0%)" r="0.7" /><circle cx="313.139015576" cy="303.443533869" fill="rgb(100%,0%,0%)" r="0.7" /><circle cx="311.238991516" cy="305.763405479" fill="rgb(100%,0%,0%)" r="0.7" /><circle cx="309.453409122" cy="308.173965952" fill="rgb(100%,0%,0%)" r="0.7" /><circle cx="307.736161255" cy="310.633758967" fill="rgb(100%,0%,0%)" r="0.7" /><circle cx="306.078275927" cy="313.133965711" fill="rgb(100%,0%,0%)" r="0.7" /><circle cx="304.475137453" cy="315.669636522" fill="rgb(100%,0%,0%)" r="0.7" /><circle cx="302.923945933" cy="318.237426894" fill="rgb(100%,0%,0%)" r="0.7" /><circle cx="301.422871013" cy="320.834826678" fill="rgb(100%,0%,0%)" r="0.7" /><circle cx="299.970647624" cy="323.459857756" fill="rgb(100%,0%,0%)" r="0.7" /><circle cx="298.566389571" cy="326.110872624" fill="rgb(100%,0%,0%)" r="0.7" /><circle cx="297.209483058" cy="328.786427903" fill="rgb(100%,0%,0%)" r="0.7" /><circle cx="295.899493194" cy="331.485254781" fill="rgb(100%,0%,0%)" r="0.7" /><circle cx="294.636115527" cy="334.206216815" fill="rgb(100%,0%,0%)" r="0.7" /><circle cx="293.41915237" cy="336.94825816" fill="rgb(100%,0%,0%)" r="0.7" /><circle cx="292.24848235" cy="339.71039312" fill="rgb(100%,0%,0%)" r="0.7" /><circle cx="291.124058276" cy="342.491648851" fill="rgb(100%,0%,0%)" r="0.7" /><circle cx="290.045848574" cy="345.291161131" fill="rgb(100%,0%,0%)" r="0.7" /><circle cx="289.013875019" cy="348.108045954" fill="rgb(100%,0%,0%)" r="0.7" /><circle cx="288.028178819" cy="350.94145153" fill="rgb(100%,0%,0%)" r="0.7" /><circle cx="287.088810321" cy="353.7905639" fill="rgb(100%,0%,0%)" r="0.7" /><circle cx="286.19584211" cy="356.654544415" fill="rgb(100%,0%,0%)" r="0.7" /><circle cx="285.349337148" cy="359.532607334" fill="rgb(100%,0%,0%)" r="0.7" /><circle cx="284.549367136" cy="362.42394552" fill="rgb(100%,0%,0%)" r="0.7" /><circle cx="283.795990812" cy="365.327788984" fill="rgb(100%,0%,0%)" r="0.7" /><circle cx="283.089274608" cy="368.243311698" fill="rgb(100%,0%,0%)" r="0.7" /><circle cx="282.429253446" cy="371.169773561" fill="rgb(100%,0%,0%)" r="0.7" /><circle cx="281.815961163" cy="374.106389204" fill="rgb(100%,0%,0%)" r="0.7" /><circle cx="281.249415613" cy="377.052373991" fill="rgb(100%,0%,0%)" r="0.7" /><circle cx="280.729611403" cy="380.006974185" fill="rgb(100%,0%,0%)" r="0.7" /><circle cx="280.256530094" cy="382.969403303" fill="rgb(100%,0%,0%)" r="0.7" /><circle cx="279.830126996" cy="385.938907445" fill="rgb(100%,0%,0%)" r="0.7" /><circle cx="279.450334045" cy="388.914750661" fill="rgb(100%,0%,0%)" r="0.7" /><circle cx="279.11706657" cy="391.896150929" fill="rgb(100%,0%,0%)" r="0.7" /><circle cx="278.830209957" cy="394.882377088" fill="rgb(100%,0%,0%)" r="0.7" /><circle cx="278.5896278" cy="397.872677849" fill="rgb(100%,0%,0%)" r="0.7" /><circle cx="279.35020302" cy="398.525304208" fill="rgb(100%,0%,0%)" r="0.7" /><circle cx="281.314994635" cy="396.258236959" fill="rgb(100%,0%,0%)" r="0.7" /><circle cx="283.885321383" cy="396.486128553" fill="rgb(100%,0%,0%)" r="0.7" /><circle cx="286.670751456" cy="397.600300582" fill="rgb(100%,0%,0%)" r="0.7" /><circle cx="289.456181529" cy="398.714472611" fill="rgb(100%,0%,0%)" r="0.7" /><circle cx="289.57" cy="398.76" fill="rgb(100%,0%,0%)" r="0.7" /><circle cx="318.427395413" cy="301.03941085" fill="rgb(0%,0%,100%)" r="0.7" /><circle cx="321.288287136" cy="301.863740601" fill="rgb(0%,0%,100%)" r="0.7" /><circle cx="323.716658497" cy="303.609519158" fill="rgb(0%,0%,100%)" r="0.7" /><circle cx="325.773044367" cy="305.791318086" fill="rgb(0%,0%,100%)" r="0.7" /><circle cx="327.115976345" cy="308.430204009" fill="rgb(0%,0%,100%)" r="0.7" /><circle cx="325.772041353" cy="310.922775524" fill="rgb(0%,0%,100%)" r="0.7" /><circle cx="322.979160186" cy="311.971025323" fill="rgb(0%,0%,100%)" r="0.7" /><circle cx="320.051968655" cy="312.551654948" fill="rgb(0%,0%,100%)" r="0.7" /><circle cx="317.542123161" cy="314.170522563" fill="rgb(0%,0%,100%)" r="0.7" /><circle cx="315.502105274" cy="316.364292518" fill="rgb(0%,0%,100%)" r="0.7" /><circle cx="313.807201204" cy="318.837497987" fill="rgb(0%,0%,100%)" r="0.7" /><circle cx="312.373633419" cy="321.471658177" fill="rgb(0%,0%,100%)" r="0.7" /><circle cx="311.142854308" cy="324.20702121" fill="rgb(0%,0%,100%)" r="0.7" /><circle cx="309.911166689" cy="326.942504728" fill="rgb(0%,0%,100%)" r="0.7" /><circle cx="308.703874541" cy="329.688848067" fill="rgb(0%,0%,100%)" r="0.7" /><circle cx="307.521558871" cy="332.446013041" fill="rgb(0%,0%,100%)" r="0.7" /><circle cx="306.364803058" cy="335.21401887" fill="rgb(0%,0%,100%)" r="0.7" /><circle cx="305.234239172" cy="337.992842413" fill="rgb(0%,0%,100%)" r="0.7" /><circle cx="304.130545367" cy="340.782428145" fill="rgb(0%,0%,100%)" r="0.7" /><circle cx="303.054424765" cy="343.582750245" fill="rgb(0%,0%,100%)" r="0.7" /><circle cx="302.006613008" cy="346.393810223" fill="rgb(0%,0%,100%)" r="0.7" /><circle cx="300.987922296" cy="349.215534206" fill="rgb(0%,0%,100%)" r="0.7" /><circle cx="299.999192564" cy="352.047923096" fill="rgb(0%,0%,100%)" r="0.7" /><circle cx="299.041358986" cy="354.890888351" fill="rgb(0%,0%,100%)" r="0.7" /><circle cx="298.115410904" cy="357.744397238" fill="rgb(0%,0%,100%)" r="0.7" /><circle cx="297.222431955" cy="360.608396215" fill="rgb(0%,0%,100%)" r="0.7" /><circle cx="296.363612519" cy="363.482821164" fill="rgb(0%,0%,100%)" r="0.7" /><circle cx="295.540269862" cy="366.367599839" fill="rgb(0%,0%,100%)" r="0.7" /><circle cx="294.753868045" cy="369.262681134" fill="rgb(0%,0%,100%)" r="0.7" /><circle cx="294.00607528" cy="372.167963299" fill="rgb(0%,0%,100%)" r="0.7" /><circle cx="293.298797137" cy="375.083359429" fill="rgb(0%,0%,100%)" r="0.7" /><circle cx="292.634251038" cy="378.008802895" fill="rgb(0%,0%,100%)" r="0.7" /><circle cx="292.01509016" cy="380.944192359" fill="rgb(0%,0%,100%)" r="0.7" /><circle cx="291.444574837" cy="383.889392442" fill="rgb(0%,0%,100%)" r="0.7" /><circle cx="290.926844807" cy="386.844342346" fill="rgb(0%,0%,100%)" r="0.7" /><circle cx="290.467491203" cy="389.808916611" fill="rgb(0%,0%,100%)" r="0.7" /><circle cx="290.074709906" cy="392.783007848" fill="rgb(0%,0%,100%)" r="0.7" /><circle cx="289.762540333" cy="395.766619403" fill="rgb(0%,0%,100%)" r="0.7" /><circle cx="289.57" cy="398.76" fill="rgb(0%,0%,100%)" r="0.7" /></svg>