<?xml version="1.0" encoding="utf-8" ?>
<svg baseProfile="full" height="100%" version="1.1" width="100%" xmlns="http://www.w3.org/2000/svg" xmlns:ev="http://www.w3.org/2001/xml-events" xmlns:xlink="http://www.w3.org/1999/xlink"><defs /><circle cx="305.570340939" cy="331.881411852" fill="rgb(100%,0%,0%)" r="0.7" /><circle cx="302.631292407" cy="332.05847932" fill="rgb(100%,0%,0%)" r="0.7" /><circle cx="300.090013468" cy="333.625626441" fill="rgb(100%,0%,0%)" r="0.7" /><circle cx="298.385077949" cy="336.036876038" fill="rgb(100%,0%,0%)" r="0.7" /><circle cx="297.32361288" cy="338.841294879" fill="rgb(100%,0%,0%)" r="0.7" /><circle cx="296.531122224" cy="341.733829208" fill="rgb(100%,0%,0%)" r="0.7" /><circle cx="295.956075809" cy="344.677638123" fill="rgb(100%,0%,0%)" r="0.7" /><circle cx="295.558840335" cy="347.650852583" fill="rgb(100%,0%,0%)" r="0.7" /><circle cx="295.309355308" cy="350.640205772" fill="rgb(100%,0%,0%)" r="0.7" /><circle cx="295.184756318" cy="353.637433289" fill="rgb(100%,0%,0%)" r="0.7" /><circle cx="295.167509379" cy="356.637246455" fill="rgb(100%,0%,0%)" r="0.7" /><circle cx="295.244063036" cy="359.636162734" fill="rgb(100%,0%,0%)" r="0.7" /><circle cx="295.403910281" cy="362.631815727" fill="rgb(100%,0%,0%)" r="0.7" /><circle cx="295.638962719" cy="365.622523601" fill="rgb(100%,0%,0%)" r="0.7" /><circle cx="295.94318073" cy="368.606994591" fill="rgb(100%,0%,0%)" r="0.7" /><circle cx="296.31247692" cy="371.584125976" fill="rgb(100%,0%,0%)" r="0.7" /><circle cx="296.745064251" cy="374.552716818" fill="rgb(100%,0%,0%)" r="0.7" /><circle cx="297.243225875" cy="377.51100002" fill="rgb(100%,0%,0%)" r="0.7" /><circle cx="297.895561666" cy="380.435467094" fill="rgb(100%,0%,0%)" r="0.7" /><circle cx="298.642989982" cy="383.339932632" fill="rgb(100%,0%,0%)" r="0.7" /><circle cx="299.118457489" cy="386.300728432" fill="rgb(100%,0%,0%)" r="0.7" /><circle cx="299.266056614" cy="389.295310589" fill="rgb(100%,0%,0%)" r="0.7" /><circle cx="299.026727762" cy="392.283325709" fill="rgb(100%,0%,0%)" r="0.7" /><circle cx="298.349250944" cy="395.20267712" fill="rgb(100%,0%,0%)" r="0.7" /><circle cx="297.206123119" cy="397.972484143" fill="rgb(100%,0%,0%)" r="0.7" /><circle cx="295.605528702" cy="400.505333921" fill="rgb(100%,0%,0%)" r="0.7" /><circle cx="293.587012482" cy="402.719377849" fill="rgb(100%,0%,0%)" r="0.7" /><circle cx="291.185" cy="404.506" fill="rgb(100%,0%,0%)" r="0.7" /><circle cx="291.788803138" cy="404.355125724" fill="rgb(100%,0%,0%)" r="0.7" /><circle cx="294.699317393" cy="403.627865953" fill="rgb(100%,0%,0%)" r="0.7" /><circle cx="297.609831647" cy="402.900606182" fill="rgb(100%,0%,0%)" r="0.7" /><circle cx="298.886485539" cy="404.009473701" fill="rgb(100%,0%,0%)" r="0.7" /><circle cx="298.502312171" cy="406.984773824" fill="rgb(100%,0%,0%)" r="0.7" /><circle cx="298.118138803" cy="409.960073948" fill="rgb(100%,0%,0%)" r="0.7" /><circle cx="299.23101034" cy="410.185765604" fill="rgb(100%,0%,0%)" r="0.7" /><circle cx="305.570340939" cy="331.881411852" fill="rgb(0%,0%,100%)" r="0.7" /><circle cx="307.970260231" cy="333.60772476" fill="rgb(0%,0%,100%)" r="0.7" /><circle cx="307.193302349" cy="336.39721983" fill="rgb(0%,0%,100%)" r="0.7" /><circle cx="305.267084004" cy="338.672027024" fill="rgb(0%,0%,100%)" r="0.7" /><circle cx="303.975969992" cy="341.372460823" fill="rgb(0%,0%,100%)" r="0.7" /><circle cx="303.169614904" cy="344.259734626" fill="rgb(0%,0%,100%)" r="0.7" /><circle cx="302.696837285" cy="347.221046651" fill="rgb(0%,0%,100%)" r="0.7" /><circle cx="302.480653887" cy="350.212521787" fill="rgb(0%,0%,100%)" r="0.7" /><circle cx="302.470653188" cy="353.212019876" fill="rgb(0%,0%,100%)" r="0.7" /><circle cx="302.63091251" cy="356.207400378" fill="rgb(0%,0%,100%)" r="0.7" /><circle cx="303.002151096" cy="359.182965048" fill="rgb(0%,0%,100%)" r="0.7" /><circle cx="303.449019077" cy="362.149493131" fill="rgb(0%,0%,100%)" r="0.7" /><circle cx="303.896896098" cy="365.115875591" fill="rgb(0%,0%,100%)" r="0.7" /><circle cx="304.345851964" cy="368.082093649" fill="rgb(0%,0%,100%)" r="0.7" /><circle cx="304.796073247" cy="371.048120224" fill="rgb(0%,0%,100%)" r="0.7" /><circle cx="305.247883537" cy="374.01390513" fill="rgb(0%,0%,100%)" r="0.7" /><circle cx="305.701848572" cy="376.979360371" fill="rgb(0%,0%,100%)" r="0.7" /><circle cx="306.159077034" cy="379.94431136" fill="rgb(0%,0%,100%)" r="0.7" /><circle cx="306.622374501" cy="382.908325917" fill="rgb(0%,0%,100%)" r="0.7" /><circle cx="307.207688752" cy="385.844923038" fill="rgb(0%,0%,100%)" r="0.7" /><circle cx="307.76950469" cy="388.789336975" fill="rgb(0%,0%,100%)" r="0.7" /><circle cx="307.944649388" cy="391.782273906" fill="rgb(0%,0%,100%)" r="0.7" /><circle cx="307.745682901" cy="394.773689499" fill="rgb(0%,0%,100%)" r="0.7" /><circle cx="307.168846701" cy="397.715607913" fill="rgb(0%,0%,100%)" r="0.7" /><circle cx="306.217571219" cy="400.558577283" fill="rgb(0%,0%,100%)" r="0.7" /><circle cx="304.910112065" cy="403.25645103" fill="rgb(0%,0%,100%)" r="0.7" /><circle cx="303.280006224" cy="405.772795051" fill="rgb(0%,0%,100%)" r="0.7" /><circle cx="301.371192361" cy="408.085223977" fill="rgb(0%,0%,100%)" r="0.7" /><circle cx="299.23101034" cy="410.185765604" fill="rgb(0%,0%,100%)" r="0.7" /></svg>