<?xml version="1.0" encoding="utf-8" ?>
<svg baseProfile="full" height="100%" version="1.1" width="100%" xmlns="http://www.w3.org/2000/svg" xmlns:ev="http://www.w3.org/2001/xml-events" xmlns:xlink="http://www.w3.org/1999/xlink"><defs /><circle cx="362.226563115" cy="271.698704151" fill="rgb(100%,0%,0%)" r="0.7" /><circle cx="359.533274382" cy="272.969712981" fill="rgb(100%,0%,0%)" r="0.7" /><circle cx="357.261113888" cy="274.923191713" fill="rgb(100%,0%,0%)" r="0.7" /><circle cx="355.233763126" cy="277.133707487" fill="rgb(100%,0%,0%)" r="0.7" /><circle cx="353.244730377" cy="279.379536671" fill="rgb(100%,0%,0%)" r="0.7" /><circle cx="351.255697629" cy="281.625365855" fill="rgb(100%,0%,0%)" r="0.7" /><circle cx="349.26666488" cy="283.87119504" fill="rgb(100%,0%,0%)" r="0.7" /><circle cx="347.277632132" cy="286.117024224" fill="rgb(100%,0%,0%)" r="0.7" /><circle cx="345.717955307" cy="288.659807066" fill="rgb(100%,0%,0%)" r="0.7" /><circle cx="344.658468006" cy="291.464229818" fill="rgb(100%,0%,0%)" r="0.7" /><circle cx="343.952741121" cy="294.378222352" fill="rgb(100%,0%,0%)" r="0.7" /><circle cx="343.590422053" cy="297.354615412" fill="rgb(100%,0%,0%)" r="0.7" /><circle cx="343.319936616" cy="300.334542573" fill="rgb(100%,0%,0%)" r="0.7" /><circle cx="342.555241885" cy="303.234512705" fill="rgb(100%,0%,0%)" r="0.7" /><circle cx="341.60406866" cy="306.079409139" fill="rgb(100%,0%,0%)" r="0.7" /><circle cx="340.530441006" cy="308.880512015" fill="rgb(100%,0%,0%)" r="0.7" /><circle cx="339.36414237" cy="311.644414572" fill="rgb(100%,0%,0%)" r="0.7" /><circle cx="338.123143779" cy="314.375613767" fill="rgb(100%,0%,0%)" r="0.7" /><circle cx="336.819601949" cy="317.07754589" fill="rgb(100%,0%,0%)" r="0.7" /><circle cx="335.462360635" cy="319.75290486" fill="rgb(100%,0%,0%)" r="0.7" /><circle cx="334.058129288" cy="322.40394374" fill="rgb(100%,0%,0%)" r="0.7" /><circle cx="332.612232598" cy="325.032474674" fill="rgb(100%,0%,0%)" r="0.7" /><circle cx="331.128947764" cy="327.640099585" fill="rgb(100%,0%,0%)" r="0.7" /><circle cx="329.611817635" cy="330.228180516" fill="rgb(100%,0%,0%)" r="0.7" /><circle cx="328.063808038" cy="332.797922784" fill="rgb(100%,0%,0%)" r="0.7" /><circle cx="326.487448146" cy="335.350381897" fill="rgb(100%,0%,0%)" r="0.7" /><circle cx="324.884918362" cy="337.886493952" fill="rgb(100%,0%,0%)" r="0.7" /><circle cx="323.258123223" cy="340.40708657" fill="rgb(100%,0%,0%)" r="0.7" /><circle cx="321.608706055" cy="342.912949767" fill="rgb(100%,0%,0%)" r="0.7" /><circle cx="319.938126749" cy="345.404787267" fill="rgb(100%,0%,0%)" r="0.7" /><circle cx="318.247731916" cy="347.883170839" fill="rgb(100%,0%,0%)" r="0.7" /><circle cx="316.538654323" cy="350.348733188" fill="rgb(100%,0%,0%)" r="0.7" /><circle cx="314.811949358" cy="352.802001429" fill="rgb(100%,0%,0%)" r="0.7" /><circle cx="313.068592094" cy="355.243433754" fill="rgb(100%,0%,0%)" r="0.7" /><circle cx="311.309424838" cy="357.673516255" fill="rgb(100%,0%,0%)" r="0.7" /><circle cx="309.491194713" cy="360.056228143" fill="rgb(100%,0%,0%)" r="0.7" /><circle cx="307.393647504" cy="362.200835837" fill="rgb(100%,0%,0%)" r="0.7" /><circle cx="305.239836295" cy="364.289073406" fill="rgb(100%,0%,0%)" r="0.7" /><circle cx="303.045684712" cy="366.334915677" fill="rgb(100%,0%,0%)" r="0.7" /><circle cx="300.817943584" cy="368.344163458" fill="rgb(100%,0%,0%)" r="0.7" /><circle cx="298.560729717" cy="370.320197847" fill="rgb(100%,0%,0%)" r="0.7" /><circle cx="296.276819413" cy="372.265371996" fill="rgb(100%,0%,0%)" r="0.7" /><circle cx="293.968369169" cy="374.181340953" fill="rgb(100%,0%,0%)" r="0.7" /><circle cx="291.637044198" cy="376.069408481" fill="rgb(100%,0%,0%)" r="0.7" /><circle cx="289.284215592" cy="377.930607002" fill="rgb(100%,0%,0%)" r="0.7" /><circle cx="286.911024801" cy="379.765791091" fill="rgb(100%,0%,0%)" r="0.7" /><circle cx="284.518476527" cy="381.575657121" fill="rgb(100%,0%,0%)" r="0.7" /><circle cx="282.107431446" cy="383.360810961" fill="rgb(100%,0%,0%)" r="0.7" /><circle cx="279.67865646" cy="385.121772349" fill="rgb(100%,0%,0%)" r="0.7" /><circle cx="277.232833797" cy="386.858999051" fill="rgb(100%,0%,0%)" r="0.7" /><circle cx="274.770618076" cy="388.572869477" fill="rgb(100%,0%,0%)" r="0.7" /><circle cx="272.29254721" cy="390.263762302" fill="rgb(100%,0%,0%)" r="0.7" /><circle cx="269.799163468" cy="391.931985022" fill="rgb(100%,0%,0%)" r="0.7" /><circle cx="267.290950206" cy="393.577828571" fill="rgb(100%,0%,0%)" r="0.7" /><circle cx="264.768357439" cy="395.201557809" fill="rgb(100%,0%,0%)" r="0.7" /><circle cx="262.231823257" cy="396.803404677" fill="rgb(100%,0%,0%)" r="0.7" /><circle cx="259.681717785" cy="398.383608931" fill="rgb(100%,0%,0%)" r="0.7" /><circle cx="257.118465322" cy="399.942346462" fill="rgb(100%,0%,0%)" r="0.7" /><circle cx="254.542411859" cy="401.479815624" fill="rgb(100%,0%,0%)" r="0.7" /><circle cx="251.953865839" cy="402.996213313" fill="rgb(100%,0%,0%)" r="0.7" /><circle cx="249.353190282" cy="404.491684029" fill="rgb(100%,0%,0%)" r="0.7" /><circle cx="246.740692518" cy="405.966387473" fill="rgb(100%,0%,0%)" r="0.7" /><circle cx="244.116655403" cy="407.420481081" fill="rgb(100%,0%,0%)" r="0.7" /><circle cx="241.481382359" cy="408.854096779" fill="rgb(100%,0%,0%)" r="0.7" /><circle cx="238.835135847" cy="410.267376543" fill="rgb(100%,0%,0%)" r="0.7" /><circle cx="236.17818857" cy="411.660445518" fill="rgb(100%,0%,0%)" r="0.7" /><circle cx="233.510821858" cy="413.033414861" fill="rgb(100%,0%,0%)" r="0.7" /><circle cx="230.833261734" cy="414.386415486" fill="rgb(100%,0%,0%)" r="0.7" /><circle cx="228.145755736" cy="415.719558916" fill="rgb(100%,0%,0%)" r="0.7" /><circle cx="225.448538323" cy="417.032956046" fill="rgb(100%,0%,0%)" r="0.7" /><circle cx="222.741845161" cy="418.326710728" fill="rgb(100%,0%,0%)" r="0.7" /><circle cx="220.025906328" cy="419.600923834" fill="rgb(100%,0%,0%)" r="0.7" /><circle cx="217.300936079" cy="420.855698438" fill="rgb(100%,0%,0%)" r="0.7" /><circle cx="214.757872756" cy="422.06896623" fill="rgb(100%,0%,0%)" r="0.7" /><circle cx="217.704155717" cy="422.634135863" fill="rgb(100%,0%,0%)" r="0.7" /><circle cx="220.650438678" cy="423.199305496" fill="rgb(100%,0%,0%)" r="0.7" /><circle cx="223.596721639" cy="423.764475129" fill="rgb(100%,0%,0%)" r="0.7" /><circle cx="226.543004599" cy="424.329644762" fill="rgb(100%,0%,0%)" r="0.7" /><circle cx="229.48928756" cy="424.894814396" fill="rgb(100%,0%,0%)" r="0.7" /><circle cx="232.435570521" cy="425.459984029" fill="rgb(100%,0%,0%)" r="0.7" /><circle cx="235.381853482" cy="426.025153662" fill="rgb(100%,0%,0%)" r="0.7" /><circle cx="234.957831661" cy="427.893224452" fill="rgb(100%,0%,0%)" r="0.7" /><circle cx="233.157831661" cy="430.293224452" fill="rgb(100%,0%,0%)" r="0.7" /><circle cx="231.357831661" cy="432.693224452" fill="rgb(100%,0%,0%)" r="0.7" /><circle cx="229.557831661" cy="435.093224452" fill="rgb(100%,0%,0%)" r="0.7" /><circle cx="227.757831661" cy="437.493224452" fill="rgb(100%,0%,0%)" r="0.7" /><circle cx="226.483" cy="439.193" fill="rgb(100%,0%,0%)" r="0.7" /><circle cx="362.226563115" cy="271.698704151" fill="rgb(0%,0%,100%)" r="0.7" /><circle cx="364.931191687" cy="272.577949969" fill="rgb(0%,0%,100%)" r="0.7" /><circle cx="367.161318358" cy="274.583681417" fill="rgb(0%,0%,100%)" r="0.7" /><circle cx="369.2090764" cy="276.774085756" fill="rgb(0%,0%,100%)" r="0.7" /><circle cx="370.906942589" cy="279.241164353" fill="rgb(0%,0%,100%)" r="0.7" /><circle cx="371.726541442" cy="282.095397598" fill="rgb(0%,0%,100%)" r="0.7" /><circle cx="370.395327328" cy="284.647283454" fill="rgb(0%,0%,100%)" r="0.7" /><circle cx="368.157134764" cy="286.637600364" fill="rgb(0%,0%,100%)" r="0.7" /><circle cx="365.734697339" cy="288.406779463" fill="rgb(0%,0%,100%)" r="0.7" /><circle cx="364.028017927" cy="290.750075161" fill="rgb(0%,0%,100%)" r="0.7" /><circle cx="362.815809416" cy="293.494206986" fill="rgb(0%,0%,100%)" r="0.7" /><circle cx="361.663214384" cy="296.263878251" fill="rgb(0%,0%,100%)" r="0.7" /><circle cx="360.586123352" cy="299.063729313" fill="rgb(0%,0%,100%)" r="0.7" /><circle cx="359.622715099" cy="301.904433234" fill="rgb(0%,0%,100%)" r="0.7" /><circle cx="358.708222549" cy="304.761438747" fill="rgb(0%,0%,100%)" r="0.7" /><circle cx="357.749848455" cy="307.604226736" fill="rgb(0%,0%,100%)" r="0.7" /><circle cx="356.758463765" cy="310.435662425" fill="rgb(0%,0%,100%)" r="0.7" /><circle cx="355.733711881" cy="313.25519856" fill="rgb(0%,0%,100%)" r="0.7" /><circle cx="354.675237923" cy="316.062243819" fill="rgb(0%,0%,100%)" r="0.7" /><circle cx="353.582671185" cy="318.856206342" fill="rgb(0%,0%,100%)" r="0.7" /><circle cx="352.455645781" cy="321.636434639" fill="rgb(0%,0%,100%)" r="0.7" /><circle cx="351.293770022" cy="324.402289111" fill="rgb(0%,0%,100%)" r="0.7" /><circle cx="350.096657245" cy="327.153058866" fill="rgb(0%,0%,100%)" r="0.7" /><circle cx="348.863883652" cy="329.888052369" fill="rgb(0%,0%,100%)" r="0.7" /><circle cx="347.595037153" cy="332.606476173" fill="rgb(0%,0%,100%)" r="0.7" /><circle cx="346.289650654" cy="335.307569891" fill="rgb(0%,0%,100%)" r="0.7" /><circle cx="344.947266761" cy="337.99045304" fill="rgb(0%,0%,100%)" r="0.7" /><circle cx="343.567379722" cy="340.654230619" fill="rgb(0%,0%,100%)" r="0.7" /><circle cx="342.149437183" cy="343.29796331" fill="rgb(0%,0%,100%)" r="0.7" /><circle cx="340.692869146" cy="345.92058807" fill="rgb(0%,0%,100%)" r="0.7" /><circle cx="339.197007312" cy="348.52103298" fill="rgb(0%,0%,100%)" r="0.7" /><circle cx="337.66116129" cy="351.098038472" fill="rgb(0%,0%,100%)" r="0.7" /><circle cx="336.084508114" cy="353.650294965" fill="rgb(0%,0%,100%)" r="0.7" /><circle cx="334.466136588" cy="356.176292325" fill="rgb(0%,0%,100%)" r="0.7" /><circle cx="332.804967954" cy="358.674349037" fill="rgb(0%,0%,100%)" r="0.7" /><circle cx="331.099724733" cy="361.142516228" fill="rgb(0%,0%,100%)" r="0.7" /><circle cx="329.348824512" cy="363.578523532" fill="rgb(0%,0%,100%)" r="0.7" /><circle cx="327.550302803" cy="365.979560893" fill="rgb(0%,0%,100%)" r="0.7" /><circle cx="325.701525582" cy="368.34212021" fill="rgb(0%,0%,100%)" r="0.7" /><circle cx="323.798823971" cy="370.661439847" fill="rgb(0%,0%,100%)" r="0.7" /><circle cx="321.836495163" cy="372.930498238" fill="rgb(0%,0%,100%)" r="0.7" /><circle cx="319.803930353" cy="375.136793457" fill="rgb(0%,0%,100%)" r="0.7" /><circle cx="317.700198091" cy="377.274536108" fill="rgb(0%,0%,100%)" r="0.7" /><circle cx="315.632882755" cy="379.448410073" fill="rgb(0%,0%,100%)" r="0.7" /><circle cx="313.513979954" cy="381.572056855" fill="rgb(0%,0%,100%)" r="0.7" /><circle cx="311.351267231" cy="383.651094063" fill="rgb(0%,0%,100%)" r="0.7" /><circle cx="309.15077765" cy="385.69011892" fill="rgb(0%,0%,100%)" r="0.7" /><circle cx="306.917271152" cy="387.692936124" fill="rgb(0%,0%,100%)" r="0.7" /><circle cx="304.65456605" cy="389.662714256" fill="rgb(0%,0%,100%)" r="0.7" /><circle cx="302.365762052" cy="391.602109329" fill="rgb(0%,0%,100%)" r="0.7" /><circle cx="300.053396994" cy="393.513357673" fill="rgb(0%,0%,100%)" r="0.7" /><circle cx="297.719566912" cy="395.398338667" fill="rgb(0%,0%,100%)" r="0.7" /><circle cx="295.366003324" cy="397.258628297" fill="rgb(0%,0%,100%)" r="0.7" /><circle cx="292.994142133" cy="399.095524956" fill="rgb(0%,0%,100%)" r="0.7" /><circle cx="290.605139253" cy="400.910087332" fill="rgb(0%,0%,100%)" r="0.7" /><circle cx="288.199938135" cy="402.703102726" fill="rgb(0%,0%,100%)" r="0.7" /><circle cx="285.779202752" cy="404.475120073" fill="rgb(0%,0%,100%)" r="0.7" /><circle cx="283.343379602" cy="406.226326121" fill="rgb(0%,0%,100%)" r="0.7" /><circle cx="280.892553255" cy="407.956448906" fill="rgb(0%,0%,100%)" r="0.7" /><circle cx="278.42618673" cy="409.66438862" fill="rgb(0%,0%,100%)" r="0.7" /><circle cx="275.942262698" cy="411.346655052" fill="rgb(0%,0%,100%)" r="0.7" /><circle cx="273.440125228" cy="413.001758417" fill="rgb(0%,0%,100%)" r="0.7" /><circle cx="270.933125799" cy="414.649475312" fill="rgb(0%,0%,100%)" r="0.7" /><circle cx="268.420649845" cy="416.288790552" fill="rgb(0%,0%,100%)" r="0.7" /><circle cx="265.902238373" cy="417.919023114" fill="rgb(0%,0%,100%)" r="0.7" /><circle cx="263.377452964" cy="419.539328067" fill="rgb(0%,0%,100%)" r="0.7" /><circle cx="260.845713889" cy="421.148766034" fill="rgb(0%,0%,100%)" r="0.7" /><circle cx="258.30637981" cy="422.74620436" fill="rgb(0%,0%,100%)" r="0.7" /><circle cx="255.758718498" cy="424.330272664" fill="rgb(0%,0%,100%)" r="0.7" /><circle cx="253.201771574" cy="425.899358182" fill="rgb(0%,0%,100%)" r="0.7" /><circle cx="250.634452989" cy="427.451417484" fill="rgb(0%,0%,100%)" r="0.7" /><circle cx="248.055413965" cy="428.983873587" fill="rgb(0%,0%,100%)" r="0.7" /><circle cx="245.462887316" cy="430.49342111" fill="rgb(0%,0%,100%)" r="0.7" /><circle cx="242.854607387" cy="431.97560838" fill="rgb(0%,0%,100%)" r="0.7" /><circle cx="240.227547838" cy="433.424192793" fill="rgb(0%,0%,100%)" r="0.7" /><circle cx="237.577363755" cy="434.829963231" fill="rgb(0%,0%,100%)" r="0.7" /><circle cx="234.89743579" cy="436.178124042" fill="rgb(0%,0%,100%)" r="0.7" /><circle cx="232.176678254" cy="437.441592294" fill="rgb(0%,0%,100%)" r="0.7" /><circle cx="229.392715294" cy="438.557543916" fill="rgb(0%,0%,100%)" r="0.7" /><circle cx="226.483" cy="439.193" fill="rgb(0%,0%,100%)" r="0.7" /></svg>