<?xml version="1.0" encoding="utf-8" ?>
<svg baseProfile="full" height="100%" version="1.1" width="100%" xmlns="http://www.w3.org/2000/svg" xmlns:ev="http://www.w3.org/2001/xml-events" xmlns:xlink="http://www.w3.org/1999/xlink"><defs /><circle cx="332.294848099" cy="318.683678278" fill="rgb(100%,0%,0%)" r="0.7" /><circle cx="329.306290417" cy="318.816394948" fill="rgb(100%,0%,0%)" r="0.7" /><circle cx="326.406730095" cy="319.571169104" fill="rgb(100%,0%,0%)" r="0.7" /><circle cx="323.65613294" cy="320.762918192" fill="rgb(100%,0%,0%)" r="0.7" /><circle cx="321.070722299" cy="322.28167877" fill="rgb(100%,0%,0%)" r="0.7" /><circle cx="318.648273165" cy="324.049655219" fill="rgb(100%,0%,0%)" r="0.7" /><circle cx="316.378596621" cy="326.010349615" fill="rgb(100%,0%,0%)" r="0.7" /><circle cx="314.248693391" cy="328.122358843" fill="rgb(100%,0%,0%)" r="0.7" /><circle cx="312.245352276" cy="330.35494033" fill="rgb(100%,0%,0%)" r="0.7" /><circle cx="310.356155064" cy="332.685025908" fill="rgb(100%,0%,0%)" r="0.7" /><circle cx="308.569920626" cy="335.095024736" fill="rgb(100%,0%,0%)" r="0.7" /><circle cx="306.87674746" cy="337.571351294" fill="rgb(100%,0%,0%)" r="0.7" /><circle cx="305.267954583" cy="340.10335198" fill="rgb(100%,0%,0%)" r="0.7" /><circle cx="303.735947453" cy="342.682567796" fill="rgb(100%,0%,0%)" r="0.7" /><circle cx="302.27408308" cy="345.30219481" fill="rgb(100%,0%,0%)" r="0.7" /><circle cx="300.87653334" cy="347.956707084" fill="rgb(100%,0%,0%)" r="0.7" /><circle cx="299.538165044" cy="350.641580823" fill="rgb(100%,0%,0%)" r="0.7" /><circle cx="298.119784737" cy="353.284044941" fill="rgb(100%,0%,0%)" r="0.7" /><circle cx="296.781806323" cy="355.96896914" fill="rgb(100%,0%,0%)" r="0.7" /><circle cx="295.539676836" cy="358.699578108" fill="rgb(100%,0%,0%)" r="0.7" /><circle cx="294.388328263" cy="361.469707714" fill="rgb(100%,0%,0%)" r="0.7" /><circle cx="293.327914508" cy="364.275911641" fill="rgb(100%,0%,0%)" r="0.7" /><circle cx="292.3610623" cy="367.115694155" fill="rgb(100%,0%,0%)" r="0.7" /><circle cx="291.492000798" cy="369.986891964" fill="rgb(100%,0%,0%)" r="0.7" /><circle cx="290.726208224" cy="372.887333526" fill="rgb(100%,0%,0%)" r="0.7" /><circle cx="290.070252202" cy="375.814550234" fill="rgb(100%,0%,0%)" r="0.7" /><circle cx="289.531675108" cy="378.765599994" fill="rgb(100%,0%,0%)" r="0.7" /><circle cx="289.118910118" cy="381.736827029" fill="rgb(100%,0%,0%)" r="0.7" /><circle cx="288.841162908" cy="384.723665054" fill="rgb(100%,0%,0%)" r="0.7" /><circle cx="288.70824579" cy="387.720408388" fill="rgb(100%,0%,0%)" r="0.7" /><circle cx="288.730327243" cy="390.719969624" fill="rgb(100%,0%,0%)" r="0.7" /><circle cx="288.91756974" cy="393.713717429" fill="rgb(100%,0%,0%)" r="0.7" /><circle cx="289.279643134" cy="396.691329341" fill="rgb(100%,0%,0%)" r="0.7" /><circle cx="289.825115972" cy="399.640811408" fill="rgb(100%,0%,0%)" r="0.7" /><circle cx="290.560753597" cy="402.548651114" fill="rgb(100%,0%,0%)" r="0.7" /><circle cx="291.490805184" cy="405.400225856" fill="rgb(100%,0%,0%)" r="0.7" /><circle cx="292.616377146" cy="408.180404746" fill="rgb(100%,0%,0%)" r="0.7" /><circle cx="293.935032533" cy="410.874358245" fill="rgb(100%,0%,0%)" r="0.7" /><circle cx="295.440709858" cy="413.468428987" fill="rgb(100%,0%,0%)" r="0.7" /><circle cx="332.294848099" cy="318.683678278" fill="rgb(0%,0%,100%)" r="0.7" /><circle cx="335.166620507" cy="319.527640328" fill="rgb(0%,0%,100%)" r="0.7" /><circle cx="337.893262879" cy="320.772312502" fill="rgb(0%,0%,100%)" r="0.7" /><circle cx="340.345689192" cy="322.489331443" fill="rgb(0%,0%,100%)" r="0.7" /><circle cx="342.233292965" cy="324.803511344" fill="rgb(0%,0%,100%)" r="0.7" /><circle cx="343.161309423" cy="327.636370007" fill="rgb(0%,0%,100%)" r="0.7" /><circle cx="343.012343907" cy="330.619005153" fill="rgb(0%,0%,100%)" r="0.7" /><circle cx="342.018035468" cy="333.440843125" fill="rgb(0%,0%,100%)" r="0.7" /><circle cx="340.123343405" cy="335.735648796" fill="rgb(0%,0%,100%)" r="0.7" /><circle cx="337.630617887" cy="337.384944923" fill="rgb(0%,0%,100%)" r="0.7" /><circle cx="334.725320272" cy="337.792576767" fill="rgb(0%,0%,100%)" r="0.7" /><circle cx="331.739382231" cy="337.877140996" fill="rgb(0%,0%,100%)" r="0.7" /><circle cx="329.113952451" cy="339.236377159" fill="rgb(0%,0%,100%)" r="0.7" /><circle cx="327.428798541" cy="341.704539863" fill="rgb(0%,0%,100%)" r="0.7" /><circle cx="325.717456494" cy="344.168507812" fill="rgb(0%,0%,100%)" r="0.7" /><circle cx="324.042707314" cy="346.657456046" fill="rgb(0%,0%,100%)" r="0.7" /><circle cx="322.408052788" cy="349.172985191" fill="rgb(0%,0%,100%)" r="0.7" /><circle cx="320.817673992" cy="351.716670695" fill="rgb(0%,0%,100%)" r="0.7" /><circle cx="319.276348966" cy="354.290399285" fill="rgb(0%,0%,100%)" r="0.7" /><circle cx="317.789783945" cy="356.89612168" fill="rgb(0%,0%,100%)" r="0.7" /><circle cx="316.364756362" cy="359.535974854" fill="rgb(0%,0%,100%)" r="0.7" /><circle cx="315.009423135" cy="362.21224529" fill="rgb(0%,0%,100%)" r="0.7" /><circle cx="313.733701576" cy="364.927360667" fill="rgb(0%,0%,100%)" r="0.7" /><circle cx="312.549857891" cy="367.683696291" fill="rgb(0%,0%,100%)" r="0.7" /><circle cx="311.473158256" cy="370.48361141" fill="rgb(0%,0%,100%)" r="0.7" /><circle cx="310.523014304" cy="373.328872622" fill="rgb(0%,0%,100%)" r="0.7" /><circle cx="309.724375177" cy="376.220182688" fill="rgb(0%,0%,100%)" r="0.7" /><circle cx="309.109800162" cy="379.155936976" fill="rgb(0%,0%,100%)" r="0.7" /><circle cx="308.722283001" cy="382.129894755" fill="rgb(0%,0%,100%)" r="0.7" /><circle cx="308.618851823" cy="385.126706115" fill="rgb(0%,0%,100%)" r="0.7" /><circle cx="308.874273407" cy="388.113527521" fill="rgb(0%,0%,100%)" r="0.7" /><circle cx="309.582382903" cy="391.024891337" fill="rgb(0%,0%,100%)" r="0.7" /><circle cx="310.850324185" cy="393.736668813" fill="rgb(0%,0%,100%)" r="0.7" /><circle cx="312.808" cy="395.988" fill="rgb(0%,0%,100%)" r="0.7" /><circle cx="310.488998041" cy="396.27294926" fill="rgb(0%,0%,100%)" r="0.7" /><circle cx="307.511392466" cy="396.638824978" fill="rgb(0%,0%,100%)" r="0.7" /><circle cx="304.533786891" cy="397.004700696" fill="rgb(0%,0%,100%)" r="0.7" /><circle cx="301.556181316" cy="397.370576413" fill="rgb(0%,0%,100%)" r="0.7" /><circle cx="298.578575742" cy="397.736452131" fill="rgb(0%,0%,100%)" r="0.7" /><circle cx="296.66104763" cy="399.109696761" fill="rgb(0%,0%,100%)" r="0.7" /><circle cx="296.447373849" cy="402.102077671" fill="rgb(0%,0%,100%)" r="0.7" /><circle cx="296.233700068" cy="405.094458582" fill="rgb(0%,0%,100%)" r="0.7" /><circle cx="296.020026287" cy="408.086839493" fill="rgb(0%,0%,100%)" r="0.7" /><circle cx="295.806352506" cy="411.079220404" fill="rgb(0%,0%,100%)" r="0.7" /><circle cx="295.440709858" cy="413.468428987" fill="rgb(0%,0%,100%)" r="0.7" /></svg>