<?xml version="1.0" encoding="utf-8" ?>
<svg baseProfile="full" height="100%" version="1.1" width="100%" xmlns="http://www.w3.org/2000/svg" xmlns:ev="http://www.w3.org/2001/xml-events" xmlns:xlink="http://www.w3.org/1999/xlink"><defs /><circle cx="310.590408727" cy="275.47305069" fill="rgb(100%,0%,0%)" r="0.7" /><circle cx="307.617017058" cy="275.772529515" fill="rgb(100%,0%,0%)" r="0.7" /><circle cx="305.094882746" cy="277.305220322" fill="rgb(100%,0%,0%)" r="0.7" /><circle cx="304.16438064" cy="280.099359412" fill="rgb(100%,0%,0%)" r="0.7" /><circle cx="304.60156507" cy="283.055959187" fill="rgb(100%,0%,0%)" r="0.7" /><circle cx="305.480812417" cy="285.912269059" fill="rgb(100%,0%,0%)" r="0.7" /><circle cx="305.807985262" cy="288.893996274" fill="rgb(100%,0%,0%)" r="0.7" /><circle cx="305.969737788" cy="291.889207537" fill="rgb(100%,0%,0%)" r="0.7" /><circle cx="305.931463884" cy="294.888220901" fill="rgb(100%,0%,0%)" r="0.7" /><circle cx="305.608349105" cy="297.869025765" fill="rgb(100%,0%,0%)" r="0.7" /><circle cx="304.811417589" cy="300.754830082" fill="rgb(100%,0%,0%)" r="0.7" /><circle cx="303.716420318" cy="303.547851011" fill="rgb(100%,0%,0%)" r="0.7" /><circle cx="302.607552607" cy="306.335398182" fill="rgb(100%,0%,0%)" r="0.7" /><circle cx="301.486751993" cy="309.118168863" fill="rgb(100%,0%,0%)" r="0.7" /><circle cx="300.354383792" cy="311.896247048" fill="rgb(100%,0%,0%)" r="0.7" /><circle cx="299.210272663" cy="314.669518985" fill="rgb(100%,0%,0%)" r="0.7" /><circle cx="298.053930571" cy="317.437705472" fill="rgb(100%,0%,0%)" r="0.7" /><circle cx="296.88459458" cy="320.200425831" fill="rgb(100%,0%,0%)" r="0.7" /><circle cx="295.701234717" cy="322.957172022" fill="rgb(100%,0%,0%)" r="0.7" /><circle cx="294.502524087" cy="325.707275426" fill="rgb(100%,0%,0%)" r="0.7" /><circle cx="293.286765115" cy="328.449883735" fill="rgb(100%,0%,0%)" r="0.7" /><circle cx="292.051785822" cy="331.183890095" fill="rgb(100%,0%,0%)" r="0.7" /><circle cx="290.794773421" cy="333.907833359" fill="rgb(100%,0%,0%)" r="0.7" /><circle cx="289.512009772" cy="336.61973986" fill="rgb(100%,0%,0%)" r="0.7" /><circle cx="288.221977895" cy="339.328087197" fill="rgb(100%,0%,0%)" r="0.7" /><circle cx="286.945492957" cy="342.042966434" fill="rgb(100%,0%,0%)" r="0.7" /><circle cx="285.653441052" cy="344.750471113" fill="rgb(100%,0%,0%)" r="0.7" /><circle cx="284.346303128" cy="347.450727812" fill="rgb(100%,0%,0%)" r="0.7" /><circle cx="283.023083254" cy="350.143140071" fill="rgb(100%,0%,0%)" r="0.7" /><circle cx="281.681852317" cy="352.826617666" fill="rgb(100%,0%,0%)" r="0.7" /><circle cx="280.319636262" cy="355.49950445" fill="rgb(100%,0%,0%)" r="0.7" /><circle cx="278.931996123" cy="358.159275134" fill="rgb(100%,0%,0%)" r="0.7" /><circle cx="277.512094302" cy="360.801952502" fill="rgb(100%,0%,0%)" r="0.7" /><circle cx="276.048663859" cy="363.420746297" fill="rgb(100%,0%,0%)" r="0.7" /><circle cx="274.520827175" cy="366.002411412" fill="rgb(100%,0%,0%)" r="0.7" /><circle cx="272.880683758" cy="368.513789925" fill="rgb(100%,0%,0%)" r="0.7" /><circle cx="271.129469273" cy="370.94938552" fill="rgb(100%,0%,0%)" r="0.7" /><circle cx="269.377171114" cy="373.384426019" fill="rgb(100%,0%,0%)" r="0.7" /><circle cx="267.607037916" cy="375.806532286" fill="rgb(100%,0%,0%)" r="0.7" /><circle cx="265.814909825" cy="378.212399708" fill="rgb(100%,0%,0%)" r="0.7" /><circle cx="263.991519355" cy="380.594639233" fill="rgb(100%,0%,0%)" r="0.7" /><circle cx="262.114401362" cy="382.934655671" fill="rgb(100%,0%,0%)" r="0.7" /><circle cx="260.086042489" cy="385.141579955" fill="rgb(100%,0%,0%)" r="0.7" /><circle cx="257.971480926" cy="387.267930863" fill="rgb(100%,0%,0%)" r="0.7" /><circle cx="256.058621433" cy="389.57764604" fill="rgb(100%,0%,0%)" r="0.7" /><circle cx="254.341309893" cy="392.037065794" fill="rgb(100%,0%,0%)" r="0.7" /><circle cx="252.649294324" cy="394.514392818" fill="rgb(100%,0%,0%)" r="0.7" /><circle cx="250.956889439" cy="396.991454086" fill="rgb(100%,0%,0%)" r="0.7" /><circle cx="249.264139364" cy="399.468253331" fill="rgb(100%,0%,0%)" r="0.7" /><circle cx="247.571027053" cy="401.944820063" fill="rgb(100%,0%,0%)" r="0.7" /><circle cx="245.877548225" cy="404.421136315" fill="rgb(100%,0%,0%)" r="0.7" /><circle cx="244.183680925" cy="406.897189513" fill="rgb(100%,0%,0%)" r="0.7" /><circle cx="242.489399066" cy="409.372954202" fill="rgb(100%,0%,0%)" r="0.7" /><circle cx="240.794659256" cy="411.848409612" fill="rgb(100%,0%,0%)" r="0.7" /><circle cx="239.099414407" cy="414.323515572" fill="rgb(100%,0%,0%)" r="0.7" /><circle cx="237.403596523" cy="416.798230496" fill="rgb(100%,0%,0%)" r="0.7" /><circle cx="235.70712049" cy="419.272494441" fill="rgb(100%,0%,0%)" r="0.7" /><circle cx="234.00987402" cy="421.746225404" fill="rgb(100%,0%,0%)" r="0.7" /><circle cx="232.3116954" cy="424.219320981" fill="rgb(100%,0%,0%)" r="0.7" /><circle cx="230.612359072" cy="426.691624558" fill="rgb(100%,0%,0%)" r="0.7" /><circle cx="228.911524126" cy="429.162894036" fill="rgb(100%,0%,0%)" r="0.7" /><circle cx="227.208620947" cy="431.632733975" fill="rgb(100%,0%,0%)" r="0.7" /><circle cx="225.502559731" cy="434.100406262" fill="rgb(100%,0%,0%)" r="0.7" /><circle cx="223.845842447" cy="436.528632317" fill="rgb(100%,0%,0%)" r="0.7" /><circle cx="226.796963614" cy="435.989295821" fill="rgb(100%,0%,0%)" r="0.7" /><circle cx="229.748084782" cy="435.449959325" fill="rgb(100%,0%,0%)" r="0.7" /><circle cx="232.699205949" cy="434.910622829" fill="rgb(100%,0%,0%)" r="0.7" /><circle cx="235.305376958" cy="435.035267394" fill="rgb(100%,0%,0%)" r="0.7" /><circle cx="236.560773103" cy="437.759965638" fill="rgb(100%,0%,0%)" r="0.7" /><circle cx="237.816169247" cy="440.484663882" fill="rgb(100%,0%,0%)" r="0.7" /><circle cx="239.071565392" cy="443.209362126" fill="rgb(100%,0%,0%)" r="0.7" /><circle cx="240.326961536" cy="445.93406037" fill="rgb(100%,0%,0%)" r="0.7" /><circle cx="241.58235768" cy="448.658758614" fill="rgb(100%,0%,0%)" r="0.7" /><circle cx="242.837753825" cy="451.383456858" fill="rgb(100%,0%,0%)" r="0.7" /><circle cx="244.093149969" cy="454.108155102" fill="rgb(100%,0%,0%)" r="0.7" /><circle cx="244.094" cy="454.11" fill="rgb(100%,0%,0%)" r="0.7" /><circle cx="310.590408727" cy="275.47305069" fill="rgb(0%,0%,100%)" r="0.7" /><circle cx="313.560401961" cy="275.870559983" fill="rgb(0%,0%,100%)" r="0.7" /><circle cx="316.403960199" cy="276.812124278" fill="rgb(0%,0%,100%)" r="0.7" /><circle cx="319.032321574" cy="278.250981629" fill="rgb(0%,0%,100%)" r="0.7" /><circle cx="321.406784229" cy="280.080390509" fill="rgb(0%,0%,100%)" r="0.7" /><circle cx="323.523328898" cy="282.203949492" fill="rgb(0%,0%,100%)" r="0.7" /><circle cx="325.390352731" cy="284.550432521" fill="rgb(0%,0%,100%)" r="0.7" /><circle cx="327.003454957" cy="287.078122756" fill="rgb(0%,0%,100%)" r="0.7" /><circle cx="327.875826756" cy="289.883299444" fill="rgb(0%,0%,100%)" r="0.7" /><circle cx="327.601056142" cy="292.867751872" fill="rgb(0%,0%,100%)" r="0.7" /><circle cx="327.040033626" cy="295.814372307" fill="rgb(0%,0%,100%)" r="0.7" /><circle cx="326.346018587" cy="298.732849311" fill="rgb(0%,0%,100%)" r="0.7" /><circle cx="325.570970393" cy="301.630931734" fill="rgb(0%,0%,100%)" r="0.7" /><circle cx="324.739709308" cy="304.513434622" fill="rgb(0%,0%,100%)" r="0.7" /><circle cx="323.866293789" cy="307.383457167" fill="rgb(0%,0%,100%)" r="0.7" /><circle cx="322.959530708" cy="310.243127483" fill="rgb(0%,0%,100%)" r="0.7" /><circle cx="322.025311744" cy="313.093950221" fill="rgb(0%,0%,100%)" r="0.7" /><circle cx="321.067739228" cy="315.937016478" fill="rgb(0%,0%,100%)" r="0.7" /><circle cx="320.089717507" cy="318.773115782" fill="rgb(0%,0%,100%)" r="0.7" /><circle cx="319.093265577" cy="321.602780495" fill="rgb(0%,0%,100%)" r="0.7" /><circle cx="318.079608238" cy="324.426340273" fill="rgb(0%,0%,100%)" r="0.7" /><circle cx="317.049023582" cy="327.243771071" fill="rgb(0%,0%,100%)" r="0.7" /><circle cx="315.999239382" cy="330.054109979" fill="rgb(0%,0%,100%)" r="0.7" /><circle cx="314.964599057" cy="332.869994542" fill="rgb(0%,0%,100%)" r="0.7" /><circle cx="313.905942499" cy="335.676981525" fill="rgb(0%,0%,100%)" r="0.7" /><circle cx="312.820577802" cy="338.473751091" fill="rgb(0%,0%,100%)" r="0.7" /><circle cx="311.709256716" cy="341.260309442" fill="rgb(0%,0%,100%)" r="0.7" /><circle cx="310.572699063" cy="344.036671111" fill="rgb(0%,0%,100%)" r="0.7" /><circle cx="309.411594107" cy="346.802857487" fill="rgb(0%,0%,100%)" r="0.7" /><circle cx="308.226601813" cy="349.558895671" fill="rgb(0%,0%,100%)" r="0.7" /><circle cx="307.018354081" cy="352.304817383" fill="rgb(0%,0%,100%)" r="0.7" /><circle cx="305.787455982" cy="355.040657861" fill="rgb(0%,0%,100%)" r="0.7" /><circle cx="304.534482615" cy="357.766464183" fill="rgb(0%,0%,100%)" r="0.7" /><circle cx="303.259988005" cy="360.482277048" fill="rgb(0%,0%,100%)" r="0.7" /><circle cx="301.964505906" cy="363.188131322" fill="rgb(0%,0%,100%)" r="0.7" /><circle cx="300.648532224" cy="365.884093654" fill="rgb(0%,0%,100%)" r="0.7" /><circle cx="299.312562133" cy="368.570186846" fill="rgb(0%,0%,100%)" r="0.7" /><circle cx="297.957042958" cy="371.246487084" fill="rgb(0%,0%,100%)" r="0.7" /><circle cx="296.582426785" cy="373.913019039" fill="rgb(0%,0%,100%)" r="0.7" /><circle cx="295.189131429" cy="376.569834838" fill="rgb(0%,0%,100%)" r="0.7" /><circle cx="293.777555128" cy="379.216985088" fill="rgb(0%,0%,100%)" r="0.7" /><circle cx="292.348077855" cy="381.854517093" fill="rgb(0%,0%,100%)" r="0.7" /><circle cx="290.901062885" cy="384.482472633" fill="rgb(0%,0%,100%)" r="0.7" /><circle cx="289.436858694" cy="387.100885195" fill="rgb(0%,0%,100%)" r="0.7" /><circle cx="287.955795367" cy="389.709786868" fill="rgb(0%,0%,100%)" r="0.7" /><circle cx="286.458168642" cy="392.309235776" fill="rgb(0%,0%,100%)" r="0.7" /><circle cx="284.944281322" cy="394.899243517" fill="rgb(0%,0%,100%)" r="0.7" /><circle cx="283.414407809" cy="397.47983726" fill="rgb(0%,0%,100%)" r="0.7" /><circle cx="281.868805959" cy="400.051038267" fill="rgb(0%,0%,100%)" r="0.7" /><circle cx="280.307718015" cy="402.612859701" fill="rgb(0%,0%,100%)" r="0.7" /><circle cx="278.731356738" cy="405.165328069" fill="rgb(0%,0%,100%)" r="0.7" /><circle cx="277.139936254" cy="407.708431638" fill="rgb(0%,0%,100%)" r="0.7" /><circle cx="275.533651736" cy="410.242152531" fill="rgb(0%,0%,100%)" r="0.7" /><circle cx="273.912643767" cy="412.766519539" fill="rgb(0%,0%,100%)" r="0.7" /><circle cx="272.277089268" cy="415.281462895" fill="rgb(0%,0%,100%)" r="0.7" /><circle cx="270.627107624" cy="417.786957842" fill="rgb(0%,0%,100%)" r="0.7" /><circle cx="268.962792131" cy="420.282969785" fill="rgb(0%,0%,100%)" r="0.7" /><circle cx="267.284236763" cy="422.769408905" fill="rgb(0%,0%,100%)" r="0.7" /><circle cx="265.591473005" cy="425.246217016" fill="rgb(0%,0%,100%)" r="0.7" /><circle cx="263.884542202" cy="427.71325096" fill="rgb(0%,0%,100%)" r="0.7" /><circle cx="262.163388425" cy="430.170425644" fill="rgb(0%,0%,100%)" r="0.7" /><circle cx="260.427972149" cy="432.617532299" fill="rgb(0%,0%,100%)" r="0.7" /><circle cx="258.678164207" cy="435.054366795" fill="rgb(0%,0%,100%)" r="0.7" /><circle cx="256.91378013" cy="437.480645618" fill="rgb(0%,0%,100%)" r="0.7" /><circle cx="255.13450401" cy="439.896059067" fill="rgb(0%,0%,100%)" r="0.7" /><circle cx="253.339935324" cy="442.300125801" fill="rgb(0%,0%,100%)" r="0.7" /><circle cx="251.529472943" cy="444.692215017" fill="rgb(0%,0%,100%)" r="0.7" /><circle cx="249.702168472" cy="447.07148707" fill="rgb(0%,0%,100%)" r="0.7" /><circle cx="247.856541039" cy="449.43659367" fill="rgb(0%,0%,100%)" r="0.7" /><circle cx="245.989871933" cy="451.785094357" fill="rgb(0%,0%,100%)" r="0.7" /><circle cx="244.094" cy="454.11" fill="rgb(0%,0%,100%)" r="0.7" /></svg>