<?xml version="1.0" encoding="utf-8" ?>
<svg baseProfile="full" height="100%" version="1.1" width="100%" xmlns="http://www.w3.org/2000/svg" xmlns:ev="http://www.w3.org/2001/xml-events" xmlns:xlink="http://www.w3.org/1999/xlink"><defs /><circle cx="255.726104056" cy="262.706637599" fill="rgb(100%,0%,0%)" r="0.7" /><circle cx="252.806242073" cy="263.082701859" fill="rgb(100%,0%,0%)" r="0.7" /><circle cx="250.252718287" cy="264.643452795" fill="rgb(100%,0%,0%)" r="0.7" /><circle cx="247.99182945" cy="266.612825333" fill="rgb(100%,0%,0%)" r="0.7" /><circle cx="245.913795833" cy="268.775729281" fill="rgb(100%,0%,0%)" r="0.7" /><circle cx="243.960068437" cy="271.05204371" fill="rgb(100%,0%,0%)" r="0.7" /><circle cx="242.097288482" cy="273.403412784" fill="rgb(100%,0%,0%)" r="0.7" /><circle cx="240.499569714" cy="275.941792198" fill="rgb(100%,0%,0%)" r="0.7" /><circle cx="238.947356834" cy="278.508998261" fill="rgb(100%,0%,0%)" r="0.7" /><circle cx="237.425911916" cy="281.09455323" fill="rgb(100%,0%,0%)" r="0.7" /><circle cx="235.937119599" cy="283.699043174" fill="rgb(100%,0%,0%)" r="0.7" /><circle cx="234.485274898" cy="286.324301085" fill="rgb(100%,0%,0%)" r="0.7" /><circle cx="233.077247476" cy="288.97330377" fill="rgb(100%,0%,0%)" r="0.7" /><circle cx="231.723649113" cy="291.650500237" fill="rgb(100%,0%,0%)" r="0.7" /><circle cx="230.482423125" cy="294.381392805" fill="rgb(100%,0%,0%)" r="0.7" /><circle cx="229.256983949" cy="297.119699546" fill="rgb(100%,0%,0%)" r="0.7" /><circle cx="228.031989652" cy="299.858214879" fill="rgb(100%,0%,0%)" r="0.7" /><circle cx="226.807409655" cy="302.59690046" fill="rgb(100%,0%,0%)" r="0.7" /><circle cx="225.583226608" cy="305.335759703" fill="rgb(100%,0%,0%)" r="0.7" /><circle cx="224.359430991" cy="308.074811003" fill="rgb(100%,0%,0%)" r="0.7" /><circle cx="223.13604531" cy="310.81402113" fill="rgb(100%,0%,0%)" r="0.7" /><circle cx="221.913065618" cy="313.553431174" fill="rgb(100%,0%,0%)" r="0.7" /><circle cx="220.690515117" cy="316.293034582" fill="rgb(100%,0%,0%)" r="0.7" /><circle cx="219.468423843" cy="319.032822186" fill="rgb(100%,0%,0%)" r="0.7" /><circle cx="218.246805144" cy="321.772835537" fill="rgb(100%,0%,0%)" r="0.7" /><circle cx="217.025698194" cy="324.513072998" fill="rgb(100%,0%,0%)" r="0.7" /><circle cx="215.805139088" cy="327.253556767" fill="rgb(100%,0%,0%)" r="0.7" /><circle cx="214.585174925" cy="329.994304464" fill="rgb(100%,0%,0%)" r="0.7" /><circle cx="213.36586023" cy="332.735341579" fill="rgb(100%,0%,0%)" r="0.7" /><circle cx="212.147261611" cy="335.476697099" fill="rgb(100%,0%,0%)" r="0.7" /><circle cx="210.929461297" cy="338.21840404" fill="rgb(100%,0%,0%)" r="0.7" /><circle cx="209.712555377" cy="340.960515487" fill="rgb(100%,0%,0%)" r="0.7" /><circle cx="208.496673689" cy="343.703077358" fill="rgb(100%,0%,0%)" r="0.7" /><circle cx="207.281976285" cy="346.446162768" fill="rgb(100%,0%,0%)" r="0.7" /><circle cx="206.068678942" cy="349.189855786" fill="rgb(100%,0%,0%)" r="0.7" /><circle cx="204.857060923" cy="351.934301983" fill="rgb(100%,0%,0%)" r="0.7" /><circle cx="203.647527243" cy="354.679686919" fill="rgb(100%,0%,0%)" r="0.7" /><circle cx="202.440707102" cy="357.426240242" fill="rgb(100%,0%,0%)" r="0.7" /><circle cx="201.237588481" cy="360.174416692" fill="rgb(100%,0%,0%)" r="0.7" /><circle cx="200.04001028" cy="362.925011623" fill="rgb(100%,0%,0%)" r="0.7" /><circle cx="198.852189929" cy="365.67986323" fill="rgb(100%,0%,0%)" r="0.7" /><circle cx="197.735774882" cy="368.464161124" fill="rgb(100%,0%,0%)" r="0.7" /><circle cx="196.629376428" cy="371.252698246" fill="rgb(100%,0%,0%)" r="0.7" /><circle cx="195.519369696" cy="374.039788315" fill="rgb(100%,0%,0%)" r="0.7" /><circle cx="194.405743525" cy="376.825439586" fill="rgb(100%,0%,0%)" r="0.7" /><circle cx="193.288254028" cy="379.609545603" fill="rgb(100%,0%,0%)" r="0.7" /><circle cx="192.166478403" cy="382.39192229" fill="rgb(100%,0%,0%)" r="0.7" /><circle cx="191.039786645" cy="385.172314175" fill="rgb(100%,0%,0%)" r="0.7" /><circle cx="189.907277428" cy="387.950341091" fill="rgb(100%,0%,0%)" r="0.7" /><circle cx="188.767627912" cy="390.725446372" fill="rgb(100%,0%,0%)" r="0.7" /><circle cx="187.618806084" cy="393.496762234" fill="rgb(100%,0%,0%)" r="0.7" /><circle cx="186.457422949" cy="396.262843171" fill="rgb(100%,0%,0%)" r="0.7" /><circle cx="185.277065717" cy="399.020864251" fill="rgb(100%,0%,0%)" r="0.7" /><circle cx="184.062195506" cy="401.763826135" fill="rgb(100%,0%,0%)" r="0.7" /><circle cx="182.747902068" cy="404.435097932" fill="rgb(100%,0%,0%)" r="0.7" /><circle cx="184.869222411" cy="402.313777589" fill="rgb(100%,0%,0%)" r="0.7" /><circle cx="186.990542755" cy="400.192457245" fill="rgb(100%,0%,0%)" r="0.7" /><circle cx="189.111863098" cy="398.071136902" fill="rgb(100%,0%,0%)" r="0.7" /><circle cx="191.233183442" cy="395.949816558" fill="rgb(100%,0%,0%)" r="0.7" /><circle cx="193.354503785" cy="393.828496215" fill="rgb(100%,0%,0%)" r="0.7" /><circle cx="195.182855386" cy="393.127605197" fill="rgb(100%,0%,0%)" r="0.7" /><circle cx="196.29170241" cy="395.915159372" fill="rgb(100%,0%,0%)" r="0.7" /><circle cx="197.400549433" cy="398.702713547" fill="rgb(100%,0%,0%)" r="0.7" /><circle cx="198.509396456" cy="401.490267722" fill="rgb(100%,0%,0%)" r="0.7" /><circle cx="199.61824348" cy="404.277821897" fill="rgb(100%,0%,0%)" r="0.7" /><circle cx="200.429" cy="406.316" fill="rgb(100%,0%,0%)" r="0.7" /><circle cx="255.726104056" cy="262.706637599" fill="rgb(0%,0%,100%)" r="0.7" /><circle cx="257.966705285" cy="264.583299065" fill="rgb(0%,0%,100%)" r="0.7" /><circle cx="259.034585338" cy="267.375505356" fill="rgb(0%,0%,100%)" r="0.7" /><circle cx="259.532735049" cy="270.331618424" fill="rgb(0%,0%,100%)" r="0.7" /><circle cx="259.725487213" cy="273.324639463" fill="rgb(0%,0%,100%)" r="0.7" /><circle cx="259.719886126" cy="276.32424915" fill="rgb(0%,0%,100%)" r="0.7" /><circle cx="259.563946834" cy="279.319934214" fill="rgb(0%,0%,100%)" r="0.7" /><circle cx="259.284192663" cy="282.30668829" fill="rgb(0%,0%,100%)" r="0.7" /><circle cx="258.885342605" cy="285.279631805" fill="rgb(0%,0%,100%)" r="0.7" /><circle cx="258.33934103" cy="288.229311892" fill="rgb(0%,0%,100%)" r="0.7" /><circle cx="257.677274846" cy="291.155149598" fill="rgb(0%,0%,100%)" r="0.7" /><circle cx="256.921110319" cy="294.058204996" fill="rgb(0%,0%,100%)" r="0.7" /><circle cx="256.086979128" cy="296.939807045" fill="rgb(0%,0%,100%)" r="0.7" /><circle cx="255.186999796" cy="299.801578218" fill="rgb(0%,0%,100%)" r="0.7" /><circle cx="254.230561041" cy="302.644985095" fill="rgb(0%,0%,100%)" r="0.7" /><circle cx="253.225058126" cy="305.471434483" fill="rgb(0%,0%,100%)" r="0.7" /><circle cx="252.176444837" cy="308.282168981" fill="rgb(0%,0%,100%)" r="0.7" /><circle cx="251.089567418" cy="311.07834407" fill="rgb(0%,0%,100%)" r="0.7" /><circle cx="249.968440977" cy="313.860977969" fill="rgb(0%,0%,100%)" r="0.7" /><circle cx="248.81643667" cy="316.630960145" fill="rgb(0%,0%,100%)" r="0.7" /><circle cx="247.636394798" cy="319.389118921" fill="rgb(0%,0%,100%)" r="0.7" /><circle cx="246.43074698" cy="322.136182869" fill="rgb(0%,0%,100%)" r="0.7" /><circle cx="245.201590021" cy="324.872801517" fill="rgb(0%,0%,100%)" r="0.7" /><circle cx="243.950730502" cy="327.599588287" fill="rgb(0%,0%,100%)" r="0.7" /><circle cx="242.679767973" cy="330.317049024" fill="rgb(0%,0%,100%)" r="0.7" /><circle cx="241.390089313" cy="333.025682686" fill="rgb(0%,0%,100%)" r="0.7" /><circle cx="240.082926834" cy="335.725925504" fill="rgb(0%,0%,100%)" r="0.7" /><circle cx="238.759374646" cy="338.418173102" fill="rgb(0%,0%,100%)" r="0.7" /><circle cx="237.420407186" cy="341.102787083" fill="rgb(0%,0%,100%)" r="0.7" /><circle cx="236.066895974" cy="343.780097383" fill="rgb(0%,0%,100%)" r="0.7" /><circle cx="234.699622963" cy="346.450405393" fill="rgb(0%,0%,100%)" r="0.7" /><circle cx="233.319289995" cy="349.113989795" fill="rgb(0%,0%,100%)" r="0.7" /><circle cx="231.926532475" cy="351.771100312" fill="rgb(0%,0%,100%)" r="0.7" /><circle cx="230.521925628" cy="354.421962772" fill="rgb(0%,0%,100%)" r="0.7" /><circle cx="229.105988595" cy="357.066785345" fill="rgb(0%,0%,100%)" r="0.7" /><circle cx="227.67918252" cy="359.705773345" fill="rgb(0%,0%,100%)" r="0.7" /><circle cx="226.241938444" cy="362.33908702" fill="rgb(0%,0%,100%)" r="0.7" /><circle cx="224.794638293" cy="364.966884846" fill="rgb(0%,0%,100%)" r="0.7" /><circle cx="223.337625139" cy="367.589310527" fill="rgb(0%,0%,100%)" r="0.7" /><circle cx="221.871214673" cy="370.206477153" fill="rgb(0%,0%,100%)" r="0.7" /><circle cx="220.39567038" cy="372.818514712" fill="rgb(0%,0%,100%)" r="0.7" /><circle cx="218.911229714" cy="375.425524628" fill="rgb(0%,0%,100%)" r="0.7" /><circle cx="217.41811822" cy="378.027555681" fill="rgb(0%,0%,100%)" r="0.7" /><circle cx="215.916492196" cy="380.624702062" fill="rgb(0%,0%,100%)" r="0.7" /><circle cx="214.406506562" cy="383.216980241" fill="rgb(0%,0%,100%)" r="0.7" /><circle cx="212.888249415" cy="385.804433921" fill="rgb(0%,0%,100%)" r="0.7" /><circle cx="211.361773208" cy="388.387066077" fill="rgb(0%,0%,100%)" r="0.7" /><circle cx="209.827097044" cy="390.964813592" fill="rgb(0%,0%,100%)" r="0.7" /><circle cx="208.284166319" cy="393.537579123" fill="rgb(0%,0%,100%)" r="0.7" /><circle cx="206.732751042" cy="396.105335265" fill="rgb(0%,0%,100%)" r="0.7" /><circle cx="205.172613554" cy="398.667725601" fill="rgb(0%,0%,100%)" r="0.7" /><circle cx="203.603116463" cy="401.224450255" fill="rgb(0%,0%,100%)" r="0.7" /><circle cx="202.023145553" cy="403.774655401" fill="rgb(0%,0%,100%)" r="0.7" /><circle cx="200.429" cy="406.316" fill="rgb(0%,0%,100%)" r="0.7" /></svg>