<?xml version="1.0" encoding="utf-8" ?>
<svg baseProfile="full" height="100%" version="1.1" width="100%" xmlns="http://www.w3.org/2000/svg" xmlns:ev="http://www.w3.org/2001/xml-events" xmlns:xlink="http://www.w3.org/1999/xlink"><defs /><circle cx="235.01823348" cy="352.32413758" fill="rgb(100%,0%,0%)" r="0.7" /><circle cx="232.091531064" cy="352.728774093" fill="rgb(100%,0%,0%)" r="0.7" /><circle cx="230.173018215" cy="354.958940832" fill="rgb(100%,0%,0%)" r="0.7" /><circle cx="229.514905789" cy="357.872827808" fill="rgb(100%,0%,0%)" r="0.7" /><circle cx="229.168584729" cy="360.850439863" fill="rgb(100%,0%,0%)" r="0.7" /><circle cx="228.540969167" cy="363.783252963" fill="rgb(100%,0%,0%)" r="0.7" /><circle cx="227.679994359" cy="366.656156429" fill="rgb(100%,0%,0%)" r="0.7" /><circle cx="226.569096959" cy="369.441693169" fill="rgb(100%,0%,0%)" r="0.7" /><circle cx="225.178297992" cy="372.098060017" fill="rgb(100%,0%,0%)" r="0.7" /><circle cx="223.473047786" cy="374.563544016" fill="rgb(100%,0%,0%)" r="0.7" /><circle cx="221.714248038" cy="376.965440976" fill="rgb(100%,0%,0%)" r="0.7" /><circle cx="220.722871938" cy="379.791985135" fill="rgb(100%,0%,0%)" r="0.7" /><circle cx="220.152119864" cy="382.73564321" fill="rgb(100%,0%,0%)" r="0.7" /><circle cx="219.850478961" cy="385.719736207" fill="rgb(100%,0%,0%)" r="0.7" /><circle cx="219.241642095" cy="388.644016759" fill="rgb(100%,0%,0%)" r="0.7" /><circle cx="218.243192006" cy="391.472445536" fill="rgb(100%,0%,0%)" r="0.7" /><circle cx="217.099668655" cy="394.245700206" fill="rgb(100%,0%,0%)" r="0.7" /><circle cx="215.854851276" cy="396.975105334" fill="rgb(100%,0%,0%)" r="0.7" /><circle cx="214.531465041" cy="399.667342614" fill="rgb(100%,0%,0%)" r="0.7" /><circle cx="213.143800616" cy="402.327060913" fill="rgb(100%,0%,0%)" r="0.7" /><circle cx="211.701800896" cy="404.957711764" fill="rgb(100%,0%,0%)" r="0.7" /><circle cx="210.212790902" cy="407.562049812" fill="rgb(100%,0%,0%)" r="0.7" /><circle cx="208.682412245" cy="410.142320684" fill="rgb(100%,0%,0%)" r="0.7" /><circle cx="207.115171209" cy="412.700362705" fill="rgb(100%,0%,0%)" r="0.7" /><circle cx="205.514720441" cy="415.237769694" fill="rgb(100%,0%,0%)" r="0.7" /><circle cx="203.88409321" cy="417.755914784" fill="rgb(100%,0%,0%)" r="0.7" /><circle cx="202.225877843" cy="420.255951661" fill="rgb(100%,0%,0%)" r="0.7" /><circle cx="200.542251904" cy="422.738952337" fill="rgb(100%,0%,0%)" r="0.7" /><circle cx="198.835108389" cy="425.205852367" fill="rgb(100%,0%,0%)" r="0.7" /><circle cx="197.106095933" cy="427.657494218" fill="rgb(100%,0%,0%)" r="0.7" /><circle cx="195.356693147" cy="430.094598279" fill="rgb(100%,0%,0%)" r="0.7" /><circle cx="193.588172376" cy="432.517872443" fill="rgb(100%,0%,0%)" r="0.7" /><circle cx="191.801682543" cy="434.927941359" fill="rgb(100%,0%,0%)" r="0.7" /><circle cx="189.998259094" cy="437.325370652" fill="rgb(100%,0%,0%)" r="0.7" /><circle cx="188.191330764" cy="439.719801654" fill="rgb(100%,0%,0%)" r="0.7" /><circle cx="186.463773979" cy="442.172466742" fill="rgb(100%,0%,0%)" r="0.7" /><circle cx="184.722277254" cy="444.615262361" fill="rgb(100%,0%,0%)" r="0.7" /><circle cx="182.968768587" cy="447.049420741" fill="rgb(100%,0%,0%)" r="0.7" /><circle cx="181.203383848" cy="449.475007173" fill="rgb(100%,0%,0%)" r="0.7" /><circle cx="179.425716815" cy="451.891583425" fill="rgb(100%,0%,0%)" r="0.7" /><circle cx="177.634919675" cy="454.298459043" fill="rgb(100%,0%,0%)" r="0.7" /><circle cx="175.829794412" cy="456.6945999" fill="rgb(100%,0%,0%)" r="0.7" /><circle cx="174.008698882" cy="459.078625996" fill="rgb(100%,0%,0%)" r="0.7" /><circle cx="172.169446487" cy="461.448670774" fill="rgb(100%,0%,0%)" r="0.7" /><circle cx="170.309096266" cy="463.802186035" fill="rgb(100%,0%,0%)" r="0.7" /><circle cx="168.423601939" cy="466.135595866" fill="rgb(100%,0%,0%)" r="0.7" /><circle cx="166.50718681" cy="468.443670999" fill="rgb(100%,0%,0%)" r="0.7" /><circle cx="164.551181779" cy="470.718255366" fill="rgb(100%,0%,0%)" r="0.7" /><circle cx="162.541495538" cy="472.945494252" fill="rgb(100%,0%,0%)" r="0.7" /><circle cx="160.4524335" cy="475.098206067" fill="rgb(100%,0%,0%)" r="0.7" /><circle cx="159.736352433" cy="476.283774263" fill="rgb(100%,0%,0%)" r="0.7" /><circle cx="162.602465214" cy="475.397547696" fill="rgb(100%,0%,0%)" r="0.7" /><circle cx="165.468577994" cy="474.511321129" fill="rgb(100%,0%,0%)" r="0.7" /><circle cx="167.091536525" cy="476.965436478" fill="rgb(100%,0%,0%)" r="0.7" /><circle cx="168.680897214" cy="479.509828861" fill="rgb(100%,0%,0%)" r="0.7" /><circle cx="170.270257903" cy="482.054221245" fill="rgb(100%,0%,0%)" r="0.7" /><circle cx="171.159" cy="483.477" fill="rgb(100%,0%,0%)" r="0.7" /><circle cx="235.01823348" cy="352.32413758" fill="rgb(0%,0%,100%)" r="0.7" /><circle cx="237.853487834" cy="353.215888109" fill="rgb(0%,0%,100%)" r="0.7" /><circle cx="240.044633703" cy="355.237557252" fill="rgb(0%,0%,100%)" r="0.7" /><circle cx="241.472994397" cy="357.864111705" fill="rgb(0%,0%,100%)" r="0.7" /><circle cx="242.136430071" cy="360.786713683" fill="rgb(0%,0%,100%)" r="0.7" /><circle cx="242.397147034" cy="363.772848" fill="rgb(0%,0%,100%)" r="0.7" /><circle cx="242.204318083" cy="366.763403396" fill="rgb(0%,0%,100%)" r="0.7" /><circle cx="241.514260763" cy="369.679066964" fill="rgb(0%,0%,100%)" r="0.7" /><circle cx="240.32112199" cy="372.427220199" fill="rgb(0%,0%,100%)" r="0.7" /><circle cx="238.655377573" cy="374.917350845" fill="rgb(0%,0%,100%)" r="0.7" /><circle cx="236.543781486" cy="377.039704238" fill="rgb(0%,0%,100%)" r="0.7" /><circle cx="234.607806855" cy="379.318014429" fill="rgb(0%,0%,100%)" r="0.7" /><circle cx="233.186020375" cy="381.956108638" fill="rgb(0%,0%,100%)" r="0.7" /><circle cx="232.127644952" cy="384.761456157" fill="rgb(0%,0%,100%)" r="0.7" /><circle cx="231.527504473" cy="387.692244397" fill="rgb(0%,0%,100%)" r="0.7" /><circle cx="230.927664883" cy="390.630682264" fill="rgb(0%,0%,100%)" r="0.7" /><circle cx="230.110326062" cy="393.516696762" fill="rgb(0%,0%,100%)" r="0.7" /><circle cx="229.135233521" cy="396.35348162" fill="rgb(0%,0%,100%)" r="0.7" /><circle cx="228.040322172" cy="399.146376806" fill="rgb(0%,0%,100%)" r="0.7" /><circle cx="226.851104009" cy="401.900446742" fill="rgb(0%,0%,100%)" r="0.7" /><circle cx="225.585433396" cy="404.620310579" fill="rgb(0%,0%,100%)" r="0.7" /><circle cx="224.256373824" cy="407.309774557" fill="rgb(0%,0%,100%)" r="0.7" /><circle cx="222.873718254" cy="409.972112615" fill="rgb(0%,0%,100%)" r="0.7" /><circle cx="221.445042358" cy="412.610041049" fill="rgb(0%,0%,100%)" r="0.7" /><circle cx="219.97630253" cy="415.225891244" fill="rgb(0%,0%,100%)" r="0.7" /><circle cx="218.472291791" cy="417.821629448" fill="rgb(0%,0%,100%)" r="0.7" /><circle cx="216.936918404" cy="420.398944884" fill="rgb(0%,0%,100%)" r="0.7" /><circle cx="215.373417416" cy="422.959289907" fill="rgb(0%,0%,100%)" r="0.7" /><circle cx="213.784486261" cy="425.503940774" fill="rgb(0%,0%,100%)" r="0.7" /><circle cx="212.172414944" cy="428.033995358" fill="rgb(0%,0%,100%)" r="0.7" /><circle cx="210.539150442" cy="430.550427078" fill="rgb(0%,0%,100%)" r="0.7" /><circle cx="208.886374642" cy="433.05408104" fill="rgb(0%,0%,100%)" r="0.7" /><circle cx="207.215533511" cy="435.545719801" fill="rgb(0%,0%,100%)" r="0.7" /><circle cx="205.527891636" cy="438.026010979" fill="rgb(0%,0%,100%)" r="0.7" /><circle cx="203.824555703" cy="440.495547952" fill="rgb(0%,0%,100%)" r="0.7" /><circle cx="202.106491605" cy="442.954868164" fill="rgb(0%,0%,100%)" r="0.7" /><circle cx="200.374558853" cy="445.404438181" fill="rgb(0%,0%,100%)" r="0.7" /><circle cx="198.6295081" cy="447.844685037" fill="rgb(0%,0%,100%)" r="0.7" /><circle cx="196.872009462" cy="450.275978202" fill="rgb(0%,0%,100%)" r="0.7" /><circle cx="195.102646995" cy="452.698654657" fill="rgb(0%,0%,100%)" r="0.7" /><circle cx="193.321946009" cy="455.112994541" fill="rgb(0%,0%,100%)" r="0.7" /><circle cx="191.530344353" cy="457.519269746" fill="rgb(0%,0%,100%)" r="0.7" /><circle cx="189.7282326" cy="459.917695183" fill="rgb(0%,0%,100%)" r="0.7" /><circle cx="187.915959269" cy="462.30842495" fill="rgb(0%,0%,100%)" r="0.7" /><circle cx="186.093775817" cy="464.691622642" fill="rgb(0%,0%,100%)" r="0.7" /><circle cx="184.261895764" cy="467.06737476" fill="rgb(0%,0%,100%)" r="0.7" /><circle cx="182.420446519" cy="469.43573702" fill="rgb(0%,0%,100%)" r="0.7" /><circle cx="180.56950273" cy="471.796660273" fill="rgb(0%,0%,100%)" r="0.7" /><circle cx="178.708980147" cy="474.150069213" fill="rgb(0%,0%,100%)" r="0.7" /><circle cx="176.838671796" cy="476.495704418" fill="rgb(0%,0%,100%)" r="0.7" /><circle cx="174.958104782" cy="478.833058657" fill="rgb(0%,0%,100%)" r="0.7" /><circle cx="173.066084912" cy="481.161251423" fill="rgb(0%,0%,100%)" r="0.7" /><circle cx="171.159" cy="483.477" fill="rgb(0%,0%,100%)" r="0.7" /></svg>