<?xml version="1.0" encoding="utf-8" ?>
<svg baseProfile="full" height="100%" version="1.1" width="100%" xmlns="http://www.w3.org/2000/svg" xmlns:ev="http://www.w3.org/2001/xml-events" xmlns:xlink="http://www.w3.org/1999/xlink"><defs /><circle cx="294.35358382" cy="341.781515469" fill="rgb(100%,0%,0%)" r="0.7" /><circle cx="291.356971421" cy="341.869190864" fill="rgb(100%,0%,0%)" r="0.7" /><circle cx="288.367532843" cy="342.11153119" fill="rgb(100%,0%,0%)" r="0.7" /><circle cx="285.404485913" cy="342.576794004" fill="rgb(100%,0%,0%)" r="0.7" /><circle cx="282.480613554" cy="343.245873473" fill="rgb(100%,0%,0%)" r="0.7" /><circle cx="279.605191881" cy="344.099776676" fill="rgb(100%,0%,0%)" r="0.7" /><circle cx="276.784653202" cy="345.120659526" fill="rgb(100%,0%,0%)" r="0.7" /><circle cx="274.023330594" cy="346.292441354" fill="rgb(100%,0%,0%)" r="0.7" /><circle cx="271.324155701" cy="347.601144833" fill="rgb(100%,0%,0%)" r="0.7" /><circle cx="268.689348344" cy="349.035092163" fill="rgb(100%,0%,0%)" r="0.7" /><circle cx="266.121106171" cy="350.585163476" fill="rgb(100%,0%,0%)" r="0.7" /><circle cx="263.622647162" cy="352.245368867" fill="rgb(100%,0%,0%)" r="0.7" /><circle cx="261.200377069" cy="354.014845372" fill="rgb(100%,0%,0%)" r="0.7" /><circle cx="258.876552128" cy="355.91121724" fill="rgb(100%,0%,0%)" r="0.7" /><circle cx="256.725224346" cy="358.001579639" fill="rgb(100%,0%,0%)" r="0.7" /><circle cx="254.691873664" cy="360.206841701" fill="rgb(100%,0%,0%)" r="0.7" /><circle cx="252.785746797" cy="362.522929885" fill="rgb(100%,0%,0%)" r="0.7" /><circle cx="251.015018466" cy="364.944086033" fill="rgb(100%,0%,0%)" r="0.7" /><circle cx="249.386401038" cy="367.463045282" fill="rgb(100%,0%,0%)" r="0.7" /><circle cx="247.904894824" cy="370.071239087" fill="rgb(100%,0%,0%)" r="0.7" /><circle cx="246.573568419" cy="372.759212245" fill="rgb(100%,0%,0%)" r="0.7" /><circle cx="245.393543758" cy="375.516979946" fill="rgb(100%,0%,0%)" r="0.7" /><circle cx="244.364077539" cy="378.334436477" fill="rgb(100%,0%,0%)" r="0.7" /><circle cx="243.482755082" cy="381.201722824" fill="rgb(100%,0%,0%)" r="0.7" /><circle cx="242.74577091" cy="384.109480288" fill="rgb(100%,0%,0%)" r="0.7" /><circle cx="242.148221413" cy="387.049092982" fill="rgb(100%,0%,0%)" r="0.7" /><circle cx="241.684419984" cy="390.012778004" fill="rgb(100%,0%,0%)" r="0.7" /><circle cx="241.348174883" cy="392.993656393" fill="rgb(100%,0%,0%)" r="0.7" /><circle cx="241.133035351" cy="395.98573901" fill="rgb(100%,0%,0%)" r="0.7" /><circle cx="241.032490212" cy="398.983881483" fill="rgb(100%,0%,0%)" r="0.7" /><circle cx="241.04012151" cy="401.983717719" fill="rgb(100%,0%,0%)" r="0.7" /><circle cx="241.149717922" cy="404.981581033" fill="rgb(100%,0%,0%)" r="0.7" /><circle cx="241.355352762" cy="407.974405339" fill="rgb(100%,0%,0%)" r="0.7" /><circle cx="241.651434375" cy="410.959651144" fill="rgb(100%,0%,0%)" r="0.7" /><circle cx="242.032734889" cy="413.935221205" fill="rgb(100%,0%,0%)" r="0.7" /><circle cx="242.494405714" cy="416.899402907" fill="rgb(100%,0%,0%)" r="0.7" /><circle cx="243.031973654" cy="419.850762752" fill="rgb(100%,0%,0%)" r="0.7" /><circle cx="243.641346719" cy="422.788152674" fill="rgb(100%,0%,0%)" r="0.7" /><circle cx="244.31879525" cy="425.710598014" fill="rgb(100%,0%,0%)" r="0.7" /><circle cx="245.060948728" cy="428.617287724" fill="rgb(100%,0%,0%)" r="0.7" /><circle cx="245.864790062" cy="431.507538301" fill="rgb(100%,0%,0%)" r="0.7" /><circle cx="246.727642169" cy="434.380722183" fill="rgb(100%,0%,0%)" r="0.7" /><circle cx="247.64717809" cy="437.236261151" fill="rgb(100%,0%,0%)" r="0.7" /><circle cx="248.621446397" cy="440.073619189" fill="rgb(100%,0%,0%)" r="0.7" /><circle cx="249.648865241" cy="442.892147858" fill="rgb(100%,0%,0%)" r="0.7" /><circle cx="250.728331137" cy="445.691165648" fill="rgb(100%,0%,0%)" r="0.7" /><circle cx="251.859310376" cy="448.469788196" fill="rgb(100%,0%,0%)" r="0.7" /><circle cx="253.04205844" cy="451.226736389" fill="rgb(100%,0%,0%)" r="0.7" /><circle cx="254.278214838" cy="453.960155345" fill="rgb(100%,0%,0%)" r="0.7" /><circle cx="255.572301689" cy="456.666638359" fill="rgb(100%,0%,0%)" r="0.7" /><circle cx="256.941" cy="459.336" fill="rgb(100%,0%,0%)" r="0.7" /><circle cx="294.35358382" cy="341.781515469" fill="rgb(0%,0%,100%)" r="0.7" /><circle cx="297.351185019" cy="341.805573074" fill="rgb(0%,0%,100%)" r="0.7" /><circle cx="300.31742233" cy="342.237070899" fill="rgb(0%,0%,100%)" r="0.7" /><circle cx="303.178388873" cy="343.127154678" fill="rgb(0%,0%,100%)" r="0.7" /><circle cx="305.812839095" cy="344.550307108" fill="rgb(0%,0%,100%)" r="0.7" /><circle cx="308.050134" cy="346.537654841" fill="rgb(0%,0%,100%)" r="0.7" /><circle cx="309.762344729" cy="348.99253123" fill="rgb(0%,0%,100%)" r="0.7" /><circle cx="310.77509936" cy="351.807140621" fill="rgb(0%,0%,100%)" r="0.7" /><circle cx="311.009536091" cy="354.788883566" fill="rgb(0%,0%,100%)" r="0.7" /><circle cx="310.461197171" cy="357.730284364" fill="rgb(0%,0%,100%)" r="0.7" /><circle cx="309.252430589" cy="360.470046369" fill="rgb(0%,0%,100%)" r="0.7" /><circle cx="307.723884715" cy="363.032288173" fill="rgb(0%,0%,100%)" r="0.7" /><circle cx="305.316062774" cy="364.776320269" fill="rgb(0%,0%,100%)" r="0.7" /><circle cx="302.374885328" cy="365.21479961" fill="rgb(0%,0%,100%)" r="0.7" /><circle cx="299.464653984" cy="364.532602341" fill="rgb(0%,0%,100%)" r="0.7" /><circle cx="296.720367794" cy="363.338826935" fill="rgb(0%,0%,100%)" r="0.7" /><circle cx="293.783623479" cy="362.737672693" fill="rgb(0%,0%,100%)" r="0.7" /><circle cx="290.792942923" cy="362.532257875" fill="rgb(0%,0%,100%)" r="0.7" /><circle cx="287.804297659" cy="362.756655265" fill="rgb(0%,0%,100%)" r="0.7" /><circle cx="284.894159996" cy="363.469135779" fill="rgb(0%,0%,100%)" r="0.7" /><circle cx="282.167823505" cy="364.70950312" fill="rgb(0%,0%,100%)" r="0.7" /><circle cx="279.739056376" cy="366.462108955" fill="rgb(0%,0%,100%)" r="0.7" /><circle cx="277.483140669" cy="368.439471156" fill="rgb(0%,0%,100%)" r="0.7" /><circle cx="275.267021621" cy="370.461468482" fill="rgb(0%,0%,100%)" r="0.7" /><circle cx="273.095617308" cy="372.531407414" fill="rgb(0%,0%,100%)" r="0.7" /><circle cx="270.974283376" cy="374.652600333" fill="rgb(0%,0%,100%)" r="0.7" /><circle cx="268.913456887" cy="376.832573339" fill="rgb(0%,0%,100%)" r="0.7" /><circle cx="266.930565013" cy="379.08356275" fill="rgb(0%,0%,100%)" r="0.7" /><circle cx="265.055579303" cy="381.424962085" fill="rgb(0%,0%,100%)" r="0.7" /><circle cx="263.345378816" cy="383.888670169" fill="rgb(0%,0%,100%)" r="0.7" /><circle cx="261.928226454" cy="386.529518119" fill="rgb(0%,0%,100%)" r="0.7" /><circle cx="261.165896707" cy="389.416675804" fill="rgb(0%,0%,100%)" r="0.7" /><circle cx="260.879688519" cy="392.401662749" fill="rgb(0%,0%,100%)" r="0.7" /><circle cx="260.899763316" cy="395.400102784" fill="rgb(0%,0%,100%)" r="0.7" /><circle cx="261.306691259" cy="398.369353656" fill="rgb(0%,0%,100%)" r="0.7" /><circle cx="262.129184227" cy="401.253485545" fill="rgb(0%,0%,100%)" r="0.7" /><circle cx="262.967082024" cy="404.134105078" fill="rgb(0%,0%,100%)" r="0.7" /><circle cx="263.807890607" cy="407.013873597" fill="rgb(0%,0%,100%)" r="0.7" /><circle cx="264.651593453" cy="409.892789241" fill="rgb(0%,0%,100%)" r="0.7" /><circle cx="265.498443628" cy="412.770789108" fill="rgb(0%,0%,100%)" r="0.7" /><circle cx="266.348882677" cy="415.647723146" fill="rgb(0%,0%,100%)" r="0.7" /><circle cx="267.203600614" cy="418.523389934" fill="rgb(0%,0%,100%)" r="0.7" /><circle cx="268.063655896" cy="421.397467065" fill="rgb(0%,0%,100%)" r="0.7" /><circle cx="268.930760423" cy="424.269422683" fill="rgb(0%,0%,100%)" r="0.7" /><circle cx="269.807977836" cy="427.138306442" fill="rgb(0%,0%,100%)" r="0.7" /><circle cx="270.70185833" cy="430.002036439" fill="rgb(0%,0%,100%)" r="0.7" /><circle cx="271.633404317" cy="432.853675607" fill="rgb(0%,0%,100%)" r="0.7" /><circle cx="272.69374788" cy="435.659313105" fill="rgb(0%,0%,100%)" r="0.7" /><circle cx="273.959634657" cy="438.378509975" fill="rgb(0%,0%,100%)" r="0.7" /><circle cx="275.402275373" cy="441.008264736" fill="rgb(0%,0%,100%)" r="0.7" /><circle cx="277.016260155" cy="443.536416987" fill="rgb(0%,0%,100%)" r="0.7" /><circle cx="278.805696062" cy="445.943445103" fill="rgb(0%,0%,100%)" r="0.7" /><circle cx="276.577640163" cy="445.948711373" fill="rgb(0%,0%,100%)" r="0.7" /><circle cx="273.606268838" cy="445.535247408" fill="rgb(0%,0%,100%)" r="0.7" /><circle cx="270.634897513" cy="445.121783443" fill="rgb(0%,0%,100%)" r="0.7" /><circle cx="267.663526189" cy="444.708319477" fill="rgb(0%,0%,100%)" r="0.7" /><circle cx="264.692154864" cy="444.294855512" fill="rgb(0%,0%,100%)" r="0.7" /><circle cx="261.720783539" cy="443.881391547" fill="rgb(0%,0%,100%)" r="0.7" /><circle cx="258.749412214" cy="443.467927582" fill="rgb(0%,0%,100%)" r="0.7" /><circle cx="258.397136219" cy="446.410262326" fill="rgb(0%,0%,100%)" r="0.7" /><circle cx="258.07645057" cy="449.393073201" fill="rgb(0%,0%,100%)" r="0.7" /><circle cx="257.75576492" cy="452.375884076" fill="rgb(0%,0%,100%)" r="0.7" /><circle cx="257.435079271" cy="455.35869495" fill="rgb(0%,0%,100%)" r="0.7" /><circle cx="257.114393622" cy="458.341505825" fill="rgb(0%,0%,100%)" r="0.7" /><circle cx="256.941" cy="459.336" fill="rgb(0%,0%,100%)" r="0.7" /></svg>