<?xml version="1.0" encoding="utf-8" ?>
<svg baseProfile="full" height="100%" version="1.1" width="100%" xmlns="http://www.w3.org/2000/svg" xmlns:ev="http://www.w3.org/2001/xml-events" xmlns:xlink="http://www.w3.org/1999/xlink"><defs /><circle cx="232.132987841" cy="331.054495225" fill="rgb(100%,0%,0%)" r="0.7" /><circle cx="229.176500535" cy="331.499857912" fill="rgb(100%,0%,0%)" r="0.7" /><circle cx="226.187667199" cy="331.301693468" fill="rgb(100%,0%,0%)" r="0.7" /><circle cx="223.290220936" cy="331.967135641" fill="rgb(100%,0%,0%)" r="0.7" /><circle cx="221.096686337" cy="333.965101697" fill="rgb(100%,0%,0%)" r="0.7" /><circle cx="219.916338685" cy="336.707949202" fill="rgb(100%,0%,0%)" r="0.7" /><circle cx="219.535094072" cy="339.676084182" fill="rgb(100%,0%,0%)" r="0.7" /><circle cx="219.563994838" cy="342.675417417" fill="rgb(100%,0%,0%)" r="0.7" /><circle cx="219.738176427" cy="345.670195675" fill="rgb(100%,0%,0%)" r="0.7" /><circle cx="220.000683196" cy="348.658615858" fill="rgb(100%,0%,0%)" r="0.7" /><circle cx="220.325366286" cy="351.640954752" fill="rgb(100%,0%,0%)" r="0.7" /><circle cx="220.698266275" cy="354.617664359" fill="rgb(100%,0%,0%)" r="0.7" /><circle cx="221.111980937" cy="357.588981343" fill="rgb(100%,0%,0%)" r="0.7" /><circle cx="221.565764509" cy="360.554437351" fill="rgb(100%,0%,0%)" r="0.7" /><circle cx="222.375818793" cy="363.410940695" fill="rgb(100%,0%,0%)" r="0.7" /><circle cx="222.226628137" cy="366.400980276" fill="rgb(100%,0%,0%)" r="0.7" /><circle cx="221.618329756" cy="369.331754145" fill="rgb(100%,0%,0%)" r="0.7" /><circle cx="221.785770931" cy="372.326642577" fill="rgb(100%,0%,0%)" r="0.7" /><circle cx="222.046526571" cy="375.315254693" fill="rgb(100%,0%,0%)" r="0.7" /><circle cx="222.344809349" cy="378.300378726" fill="rgb(100%,0%,0%)" r="0.7" /><circle cx="222.285872026" cy="381.275993048" fill="rgb(100%,0%,0%)" r="0.7" /><circle cx="221.884307472" cy="384.248968835" fill="rgb(100%,0%,0%)" r="0.7" /><circle cx="221.528903311" cy="387.227809914" fill="rgb(100%,0%,0%)" r="0.7" /><circle cx="221.223912554" cy="390.212222615" fill="rgb(100%,0%,0%)" r="0.7" /><circle cx="220.975892367" cy="393.201903828" fill="rgb(100%,0%,0%)" r="0.7" /><circle cx="220.797094637" cy="396.19648276" fill="rgb(100%,0%,0%)" r="0.7" /><circle cx="220.790760177" cy="399.193095124" fill="rgb(100%,0%,0%)" r="0.7" /><circle cx="221.017881409" cy="402.184485427" fill="rgb(100%,0%,0%)" r="0.7" /><circle cx="221.245002641" cy="405.175875731" fill="rgb(100%,0%,0%)" r="0.7" /><circle cx="221.472123873" cy="408.167266034" fill="rgb(100%,0%,0%)" r="0.7" /><circle cx="221.699245105" cy="411.158656337" fill="rgb(100%,0%,0%)" r="0.7" /><circle cx="221.926366337" cy="414.15004664" fill="rgb(100%,0%,0%)" r="0.7" /><circle cx="222.153487569" cy="417.141436943" fill="rgb(100%,0%,0%)" r="0.7" /><circle cx="222.3806088" cy="420.132827247" fill="rgb(100%,0%,0%)" r="0.7" /><circle cx="222.478651372" cy="423.12784424" fill="rgb(100%,0%,0%)" r="0.7" /><circle cx="222.296254444" cy="426.122017859" fill="rgb(100%,0%,0%)" r="0.7" /><circle cx="222.002796212" cy="429.107523272" fill="rgb(100%,0%,0%)" r="0.7" /><circle cx="221.634990082" cy="432.084833647" fill="rgb(100%,0%,0%)" r="0.7" /><circle cx="221.209874216" cy="435.054521215" fill="rgb(100%,0%,0%)" r="0.7" /><circle cx="220.731" cy="438.016" fill="rgb(100%,0%,0%)" r="0.7" /><circle cx="220.895883872" cy="439.005960512" fill="rgb(100%,0%,0%)" r="0.7" /><circle cx="223.498119483" cy="440.490947011" fill="rgb(100%,0%,0%)" r="0.7" /><circle cx="226.232140294" cy="441.725138452" fill="rgb(100%,0%,0%)" r="0.7" /><circle cx="229.009866814" cy="442.858146064" fill="rgb(100%,0%,0%)" r="0.7" /><circle cx="231.811666419" cy="443.930379266" fill="rgb(100%,0%,0%)" r="0.7" /><circle cx="234.629819854" cy="444.958910091" fill="rgb(100%,0%,0%)" r="0.7" /><circle cx="237.461129416" cy="445.950665783" fill="rgb(100%,0%,0%)" r="0.7" /><circle cx="240.333160479" cy="446.812592279" fill="rgb(100%,0%,0%)" r="0.7" /><circle cx="243.281144303" cy="447.360738175" fill="rgb(100%,0%,0%)" r="0.7" /><circle cx="246.272045481" cy="447.569072911" fill="rgb(100%,0%,0%)" r="0.7" /><circle cx="249.106366256" cy="448.033157063" fill="rgb(100%,0%,0%)" r="0.7" /><circle cx="251.853106181" cy="449.233126104" fill="rgb(100%,0%,0%)" r="0.7" /><circle cx="254.700386401" cy="450.176757644" fill="rgb(100%,0%,0%)" r="0.7" /><circle cx="257.587377179" cy="450.991864576" fill="rgb(100%,0%,0%)" r="0.7" /><circle cx="260.496845063" cy="451.72299486" fill="rgb(100%,0%,0%)" r="0.7" /><circle cx="263.421882665" cy="452.389219989" fill="rgb(100%,0%,0%)" r="0.7" /><circle cx="266.335584702" cy="453.091647803" fill="rgb(100%,0%,0%)" r="0.7" /><circle cx="269.20628017" cy="453.962927131" fill="rgb(100%,0%,0%)" r="0.7" /><circle cx="272.078143989" cy="454.830338868" fill="rgb(100%,0%,0%)" r="0.7" /><circle cx="274.950583308" cy="455.695846673" fill="rgb(100%,0%,0%)" r="0.7" /><circle cx="277.823399588" cy="456.560093286" fill="rgb(100%,0%,0%)" r="0.7" /><circle cx="280.69652872" cy="457.423299587" fill="rgb(100%,0%,0%)" r="0.7" /><circle cx="283.532086252" cy="458.348122279" fill="rgb(100%,0%,0%)" r="0.7" /><circle cx="286.479483968" cy="458.905916945" fill="rgb(100%,0%,0%)" r="0.7" /><circle cx="289.443826598" cy="459.36665935" fill="rgb(100%,0%,0%)" r="0.7" /><circle cx="292.424460226" cy="459.53655881" fill="rgb(100%,0%,0%)" r="0.7" /><circle cx="295.401237327" cy="459.894166844" fill="rgb(100%,0%,0%)" r="0.7" /><circle cx="298.344386766" cy="460.474042585" fill="rgb(100%,0%,0%)" r="0.7" /><circle cx="301.265183553" cy="461.158433717" fill="rgb(100%,0%,0%)" r="0.7" /><circle cx="304.169148219" cy="461.911218591" fill="rgb(100%,0%,0%)" r="0.7" /><circle cx="306.733664314" cy="461.984512508" fill="rgb(100%,0%,0%)" r="0.7" /><circle cx="232.132987841" cy="331.054495225" fill="rgb(0%,0%,100%)" r="0.7" /><circle cx="235.121193845" cy="331.171968164" fill="rgb(0%,0%,100%)" r="0.7" /><circle cx="238.070357522" cy="331.704583198" fill="rgb(0%,0%,100%)" r="0.7" /><circle cx="241.029140688" cy="332.19776226" fill="rgb(0%,0%,100%)" r="0.7" /><circle cx="244.014802482" cy="332.478740826" fill="rgb(0%,0%,100%)" r="0.7" /><circle cx="246.882542293" cy="333.267315559" fill="rgb(0%,0%,100%)" r="0.7" /><circle cx="249.706279385" cy="334.28046387" fill="rgb(0%,0%,100%)" r="0.7" /><circle cx="252.518285363" cy="335.325668217" fill="rgb(0%,0%,100%)" r="0.7" /><circle cx="255.312992084" cy="336.408808396" fill="rgb(0%,0%,100%)" r="0.7" /><circle cx="258.221435656" cy="337.144340856" fill="rgb(0%,0%,100%)" r="0.7" /><circle cx="261.131376192" cy="337.873884749" fill="rgb(0%,0%,100%)" r="0.7" /><circle cx="264.042953586" cy="338.596880648" fill="rgb(0%,0%,100%)" r="0.7" /><circle cx="266.956629672" cy="339.311367014" fill="rgb(0%,0%,100%)" r="0.7" /><circle cx="269.873392621" cy="340.013131842" fill="rgb(0%,0%,100%)" r="0.7" /><circle cx="272.79579292" cy="340.690992109" fill="rgb(0%,0%,100%)" r="0.7" /><circle cx="275.704918989" cy="341.414308089" fill="rgb(0%,0%,100%)" r="0.7" /><circle cx="278.557506994" cy="342.342746686" fill="rgb(0%,0%,100%)" r="0.7" /><circle cx="281.379556178" cy="343.360214295" fill="rgb(0%,0%,100%)" r="0.7" /><circle cx="284.162468018" cy="344.480099839" fill="rgb(0%,0%,100%)" r="0.7" /><circle cx="286.887384076" cy="345.734025058" fill="rgb(0%,0%,100%)" r="0.7" /><circle cx="289.511558881" cy="347.185582174" fill="rgb(0%,0%,100%)" r="0.7" /><circle cx="291.908230306" cy="348.981741145" fill="rgb(0%,0%,100%)" r="0.7" /><circle cx="294.553621355" cy="350.331605457" fill="rgb(0%,0%,100%)" r="0.7" /><circle cx="297.306286973" cy="351.524430674" fill="rgb(0%,0%,100%)" r="0.7" /><circle cx="300.058952591" cy="352.717255891" fill="rgb(0%,0%,100%)" r="0.7" /><circle cx="302.811618208" cy="353.910081108" fill="rgb(0%,0%,100%)" r="0.7" /><circle cx="305.564283826" cy="355.102906324" fill="rgb(0%,0%,100%)" r="0.7" /><circle cx="308.316949443" cy="356.295731541" fill="rgb(0%,0%,100%)" r="0.7" /><circle cx="311.069615061" cy="357.488556758" fill="rgb(0%,0%,100%)" r="0.7" /><circle cx="313.822280679" cy="358.681381974" fill="rgb(0%,0%,100%)" r="0.7" /><circle cx="316.574946296" cy="359.874207191" fill="rgb(0%,0%,100%)" r="0.7" /><circle cx="319.312422558" cy="361.098930121" fill="rgb(0%,0%,100%)" r="0.7" /><circle cx="321.919126375" cy="362.583142416" fill="rgb(0%,0%,100%)" r="0.7" /><circle cx="324.448020018" cy="364.196493214" fill="rgb(0%,0%,100%)" r="0.7" /><circle cx="326.891282109" cy="365.936693361" fill="rgb(0%,0%,100%)" r="0.7" /><circle cx="329.228075142" cy="367.817200552" fill="rgb(0%,0%,100%)" r="0.7" /><circle cx="331.423156635" cy="369.860898884" fill="rgb(0%,0%,100%)" r="0.7" /><circle cx="333.788601699" cy="371.692307279" fill="rgb(0%,0%,100%)" r="0.7" /><circle cx="336.212824063" cy="373.459528675" fill="rgb(0%,0%,100%)" r="0.7" /><circle cx="338.614028041" cy="375.257876585" fill="rgb(0%,0%,100%)" r="0.7" /><circle cx="340.980469966" cy="377.1016533" fill="rgb(0%,0%,100%)" r="0.7" /><circle cx="343.275262478" cy="379.033332945" fill="rgb(0%,0%,100%)" r="0.7" /><circle cx="345.147287931" cy="381.246824137" fill="rgb(0%,0%,100%)" r="0.7" /><circle cx="344.852585315" cy="384.219309971" fill="rgb(0%,0%,100%)" r="0.7" /><circle cx="344.069119408" cy="387.114273837" fill="rgb(0%,0%,100%)" r="0.7" /><circle cx="343.11013202" cy="389.956614091" fill="rgb(0%,0%,100%)" r="0.7" /><circle cx="342.05165621" cy="392.76356697" fill="rgb(0%,0%,100%)" r="0.7" /><circle cx="340.929504367" cy="395.545764154" fill="rgb(0%,0%,100%)" r="0.7" /><circle cx="339.798379353" cy="398.324351187" fill="rgb(0%,0%,100%)" r="0.7" /><circle cx="338.67168943" cy="401.10474435" fill="rgb(0%,0%,100%)" r="0.7" /><circle cx="337.550026241" cy="403.887166877" fill="rgb(0%,0%,100%)" r="0.7" /><circle cx="336.43488108" cy="406.67220811" fill="rgb(0%,0%,100%)" r="0.7" /><circle cx="335.329326871" cy="409.461067694" fill="rgb(0%,0%,100%)" r="0.7" /><circle cx="334.241051238" cy="412.256707091" fill="rgb(0%,0%,100%)" r="0.7" /><circle cx="332.947803471" cy="414.960375504" fill="rgb(0%,0%,100%)" r="0.7" /><circle cx="331.575256099" cy="417.627983797" fill="rgb(0%,0%,100%)" r="0.7" /><circle cx="330.189269376" cy="420.288632506" fill="rgb(0%,0%,100%)" r="0.7" /><circle cx="328.789410501" cy="422.942001963" fill="rgb(0%,0%,100%)" r="0.7" /><circle cx="327.374180166" cy="425.587205266" fill="rgb(0%,0%,100%)" r="0.7" /><circle cx="325.941098823" cy="428.222777877" fill="rgb(0%,0%,100%)" r="0.7" /><circle cx="324.486351333" cy="430.846448838" fill="rgb(0%,0%,100%)" r="0.7" /><circle cx="323.003945069" cy="433.454583402" fill="rgb(0%,0%,100%)" r="0.7" /><circle cx="321.483783794" cy="436.040876981" fill="rgb(0%,0%,100%)" r="0.7" /><circle cx="319.906542229" cy="438.592684155" fill="rgb(0%,0%,100%)" r="0.7" /><circle cx="318.224849453" cy="441.076465822" fill="rgb(0%,0%,100%)" r="0.7" /><circle cx="316.34735981" cy="443.415244196" fill="rgb(0%,0%,100%)" r="0.7" /><circle cx="314.588592508" cy="445.844911838" fill="rgb(0%,0%,100%)" r="0.7" /><circle cx="312.985222181" cy="448.379982595" fill="rgb(0%,0%,100%)" r="0.7" /><circle cx="311.531757498" cy="451.003907222" fill="rgb(0%,0%,100%)" r="0.7" /><circle cx="310.232009083" cy="453.7072591" fill="rgb(0%,0%,100%)" r="0.7" /><circle cx="309.093478859" cy="456.482341326" fill="rgb(0%,0%,100%)" r="0.7" /><circle cx="308.075002478" cy="459.301079645" fill="rgb(0%,0%,100%)" r="0.7" /><circle cx="306.733664314" cy="461.984512508" fill="rgb(0%,0%,100%)" r="0.7" /></svg>