<?xml version="1.0" encoding="utf-8" ?>
<svg baseProfile="full" height="100%" version="1.1" width="100%" xmlns="http://www.w3.org/2000/svg" xmlns:ev="http://www.w3.org/2001/xml-events" xmlns:xlink="http://www.w3.org/1999/xlink"><defs /><circle cx="347.526702056" cy="265.602353467" fill="rgb(100%,0%,0%)" r="0.7" /><circle cx="344.664057537" cy="266.440151602" fill="rgb(100%,0%,0%)" r="0.7" /><circle cx="342.363190493" cy="268.331964927" fill="rgb(100%,0%,0%)" r="0.7" /><circle cx="340.883800198" cy="270.928349463" fill="rgb(100%,0%,0%)" r="0.7" /><circle cx="340.080899149" cy="273.814053727" fill="rgb(100%,0%,0%)" r="0.7" /><circle cx="339.897353061" cy="276.793221946" fill="rgb(100%,0%,0%)" r="0.7" /><circle cx="340.093833117" cy="279.786787323" fill="rgb(100%,0%,0%)" r="0.7" /><circle cx="340.288158711" cy="282.780490916" fill="rgb(100%,0%,0%)" r="0.7" /><circle cx="340.480311511" cy="285.774325908" fill="rgb(100%,0%,0%)" r="0.7" /><circle cx="340.670041231" cy="288.768322967" fill="rgb(100%,0%,0%)" r="0.7" /><circle cx="340.856900956" cy="291.762500286" fill="rgb(100%,0%,0%)" r="0.7" /><circle cx="341.040168242" cy="294.756899542" fill="rgb(100%,0%,0%)" r="0.7" /><circle cx="341.218630123" cy="297.751585178" fill="rgb(100%,0%,0%)" r="0.7" /><circle cx="341.390022575" cy="300.746689333" fill="rgb(100%,0%,0%)" r="0.7" /><circle cx="341.549119253" cy="303.742468537" fill="rgb(100%,0%,0%)" r="0.7" /><circle cx="341.674771523" cy="306.739775384" fill="rgb(100%,0%,0%)" r="0.7" /><circle cx="341.722652837" cy="309.738951307" fill="rgb(100%,0%,0%)" r="0.7" /><circle cx="341.629107399" cy="312.737292196" fill="rgb(100%,0%,0%)" r="0.7" /><circle cx="341.427487052" cy="315.730377376" fill="rgb(100%,0%,0%)" r="0.7" /><circle cx="341.135515697" cy="318.716046353" fill="rgb(100%,0%,0%)" r="0.7" /><circle cx="340.7629599" cy="321.692730936" fill="rgb(100%,0%,0%)" r="0.7" /><circle cx="340.316288113" cy="324.659215465" fill="rgb(100%,0%,0%)" r="0.7" /><circle cx="339.800229955" cy="327.61444785" fill="rgb(100%,0%,0%)" r="0.7" /><circle cx="339.218478886" cy="330.557444061" fill="rgb(100%,0%,0%)" r="0.7" /><circle cx="338.574043144" cy="333.487333056" fill="rgb(100%,0%,0%)" r="0.7" /><circle cx="337.869442595" cy="336.403381713" fill="rgb(100%,0%,0%)" r="0.7" /><circle cx="337.106883195" cy="339.304800052" fill="rgb(100%,0%,0%)" r="0.7" /><circle cx="336.288308399" cy="342.19089491" fill="rgb(100%,0%,0%)" r="0.7" /><circle cx="335.415447511" cy="345.0610849" fill="rgb(100%,0%,0%)" r="0.7" /><circle cx="334.489921087" cy="347.914687879" fill="rgb(100%,0%,0%)" r="0.7" /><circle cx="333.513185043" cy="350.751203225" fill="rgb(100%,0%,0%)" r="0.7" /><circle cx="332.486638171" cy="353.570045435" fill="rgb(100%,0%,0%)" r="0.7" /><circle cx="331.411566058" cy="356.370759411" fill="rgb(100%,0%,0%)" r="0.7" /><circle cx="330.289197921" cy="359.15289097" fill="rgb(100%,0%,0%)" r="0.7" /><circle cx="329.120740029" cy="361.915939611" fill="rgb(100%,0%,0%)" r="0.7" /><circle cx="327.907308644" cy="364.659540502" fill="rgb(100%,0%,0%)" r="0.7" /><circle cx="326.649989747" cy="367.383328788" fill="rgb(100%,0%,0%)" r="0.7" /><circle cx="325.349847386" cy="370.086937889" fill="rgb(100%,0%,0%)" r="0.7" /><circle cx="324.007924416" cy="372.770010906" fill="rgb(100%,0%,0%)" r="0.7" /><circle cx="322.625179649" cy="375.432328" fill="rgb(100%,0%,0%)" r="0.7" /><circle cx="321.20261381" cy="378.073561276" fill="rgb(100%,0%,0%)" r="0.7" /><circle cx="319.741169808" cy="380.693476115" fill="rgb(100%,0%,0%)" r="0.7" /><circle cx="318.241758417" cy="383.291878327" fill="rgb(100%,0%,0%)" r="0.7" /><circle cx="316.705298975" cy="385.868545861" fill="rgb(100%,0%,0%)" r="0.7" /><circle cx="315.13269178" cy="388.423281805" fill="rgb(100%,0%,0%)" r="0.7" /><circle cx="313.524791609" cy="390.955955682" fill="rgb(100%,0%,0%)" r="0.7" /><circle cx="311.882434792" cy="393.466456446" fill="rgb(100%,0%,0%)" r="0.7" /><circle cx="310.206467107" cy="395.954651905" fill="rgb(100%,0%,0%)" r="0.7" /><circle cx="308.497722395" cy="398.420424712" fill="rgb(100%,0%,0%)" r="0.7" /><circle cx="306.756999914" cy="400.863704071" fill="rgb(100%,0%,0%)" r="0.7" /><circle cx="304.985058863" cy="403.284469071" fill="rgb(100%,0%,0%)" r="0.7" /><circle cx="303.1826849" cy="405.682656732" fill="rgb(100%,0%,0%)" r="0.7" /><circle cx="301.350618257" cy="408.058260941" fill="rgb(100%,0%,0%)" r="0.7" /><circle cx="299.489615029" cy="410.411250384" fill="rgb(100%,0%,0%)" r="0.7" /><circle cx="297.600398935" cy="412.741631653" fill="rgb(100%,0%,0%)" r="0.7" /><circle cx="295.683661027" cy="415.049446296" fill="rgb(100%,0%,0%)" r="0.7" /><circle cx="293.740092055" cy="417.334730185" fill="rgb(100%,0%,0%)" r="0.7" /><circle cx="291.770390073" cy="419.597506435" fill="rgb(100%,0%,0%)" r="0.7" /><circle cx="289.775213413" cy="421.83783989" fill="rgb(100%,0%,0%)" r="0.7" /><circle cx="287.755195248" cy="424.055817483" fill="rgb(100%,0%,0%)" r="0.7" /><circle cx="285.71097325" cy="426.251515028" fill="rgb(100%,0%,0%)" r="0.7" /><circle cx="283.643156741" cy="428.42503313" fill="rgb(100%,0%,0%)" r="0.7" /><circle cx="281.552391314" cy="430.576429364" fill="rgb(100%,0%,0%)" r="0.7" /><circle cx="279.439223516" cy="432.705858108" fill="rgb(100%,0%,0%)" r="0.7" /><circle cx="277.304257499" cy="434.813408168" fill="rgb(100%,0%,0%)" r="0.7" /><circle cx="275.148023064" cy="436.899236026" fill="rgb(100%,0%,0%)" r="0.7" /><circle cx="275.507888849" cy="437.885164895" fill="rgb(100%,0%,0%)" r="0.7" /><circle cx="278.504499502" cy="437.742600545" fill="rgb(100%,0%,0%)" r="0.7" /><circle cx="280.703487138" cy="438.579613553" fill="rgb(100%,0%,0%)" r="0.7" /><circle cx="281.171116787" cy="441.542943186" fill="rgb(100%,0%,0%)" r="0.7" /><circle cx="281.638746436" cy="444.506272818" fill="rgb(100%,0%,0%)" r="0.7" /><circle cx="282.106376084" cy="447.469602451" fill="rgb(100%,0%,0%)" r="0.7" /><circle cx="282.417" cy="449.438" fill="rgb(100%,0%,0%)" r="0.7" /><circle cx="347.526702056" cy="265.602353467" fill="rgb(0%,0%,100%)" r="0.7" /><circle cx="350.517575627" cy="265.683429711" fill="rgb(0%,0%,100%)" r="0.7" /><circle cx="353.429565972" cy="266.38861705" fill="rgb(0%,0%,100%)" r="0.7" /><circle cx="355.978308088" cy="267.796692844" fill="rgb(0%,0%,100%)" r="0.7" /><circle cx="357.354982792" cy="270.457307979" fill="rgb(0%,0%,100%)" r="0.7" /><circle cx="358.11522962" cy="273.350846801" fill="rgb(0%,0%,100%)" r="0.7" /><circle cx="358.019372312" cy="276.33685892" fill="rgb(0%,0%,100%)" r="0.7" /><circle cx="356.991445068" cy="279.142218987" fill="rgb(0%,0%,100%)" r="0.7" /><circle cx="355.196608537" cy="281.534509669" fill="rgb(0%,0%,100%)" r="0.7" /><circle cx="353.207229735" cy="283.733490801" fill="rgb(0%,0%,100%)" r="0.7" /><circle cx="352.444835559" cy="286.625177086" fill="rgb(0%,0%,100%)" r="0.7" /><circle cx="352.188077263" cy="289.612761447" fill="rgb(0%,0%,100%)" r="0.7" /><circle cx="352.171480506" cy="292.612253284" fill="rgb(0%,0%,100%)" r="0.7" /><circle cx="352.308774092" cy="295.608867498" fill="rgb(0%,0%,100%)" r="0.7" /><circle cx="352.633536265" cy="298.583777471" fill="rgb(0%,0%,100%)" r="0.7" /><circle cx="353.433714717" cy="301.473838042" fill="rgb(0%,0%,100%)" r="0.7" /><circle cx="353.985623662" cy="304.421955317" fill="rgb(0%,0%,100%)" r="0.7" /><circle cx="354.346423587" cy="307.399769538" fill="rgb(0%,0%,100%)" r="0.7" /><circle cx="354.555914324" cy="310.392192418" fill="rgb(0%,0%,100%)" r="0.7" /><circle cx="354.64242172" cy="313.390772352" fill="rgb(0%,0%,100%)" r="0.7" /><circle cx="354.626635673" cy="316.390610006" fill="rgb(0%,0%,100%)" r="0.7" /><circle cx="354.52403594" cy="319.388766598" fill="rgb(0%,0%,100%)" r="0.7" /><circle cx="354.34644527" cy="322.38343882" fill="rgb(0%,0%,100%)" r="0.7" /><circle cx="354.103042175" cy="325.373494427" fill="rgb(0%,0%,100%)" r="0.7" /><circle cx="353.801032648" cy="328.35821177" fill="rgb(0%,0%,100%)" r="0.7" /><circle cx="353.446101211" cy="331.337105398" fill="rgb(0%,0%,100%)" r="0.7" /><circle cx="353.042705292" cy="334.309835284" fill="rgb(0%,0%,100%)" r="0.7" /><circle cx="352.594255843" cy="337.276099499" fill="rgb(0%,0%,100%)" r="0.7" /><circle cx="352.103171221" cy="340.2356121" fill="rgb(0%,0%,100%)" r="0.7" /><circle cx="351.570779258" cy="343.187972203" fill="rgb(0%,0%,100%)" r="0.7" /><circle cx="350.99683063" cy="346.132534404" fill="rgb(0%,0%,100%)" r="0.7" /><circle cx="350.377466168" cy="349.067863585" fill="rgb(0%,0%,100%)" r="0.7" /><circle cx="349.61518781" cy="351.96778256" fill="rgb(0%,0%,100%)" r="0.7" /><circle cx="348.723020922" cy="354.832005067" fill="rgb(0%,0%,100%)" r="0.7" /><circle cx="347.777257154" cy="357.678978775" fill="rgb(0%,0%,100%)" r="0.7" /><circle cx="346.779098795" cy="360.50800787" fill="rgb(0%,0%,100%)" r="0.7" /><circle cx="345.729754083" cy="363.318465473" fill="rgb(0%,0%,100%)" r="0.7" /><circle cx="344.630448168" cy="366.109747268" fill="rgb(0%,0%,100%)" r="0.7" /><circle cx="343.482387517" cy="368.881348313" fill="rgb(0%,0%,100%)" r="0.7" /><circle cx="342.286790788" cy="371.632769408" fill="rgb(0%,0%,100%)" r="0.7" /><circle cx="341.044855595" cy="374.36358595" fill="rgb(0%,0%,100%)" r="0.7" /><circle cx="339.757764881" cy="377.073417913" fill="rgb(0%,0%,100%)" r="0.7" /><circle cx="338.426687044" cy="379.761919414" fill="rgb(0%,0%,100%)" r="0.7" /><circle cx="337.052766775" cy="382.428788298" fill="rgb(0%,0%,100%)" r="0.7" /><circle cx="335.637129793" cy="385.073748038" fill="rgb(0%,0%,100%)" r="0.7" /><circle cx="334.180877434" cy="387.696551308" fill="rgb(0%,0%,100%)" r="0.7" /><circle cx="332.685061125" cy="390.297017006" fill="rgb(0%,0%,100%)" r="0.7" /><circle cx="331.150730503" cy="392.874938041" fill="rgb(0%,0%,100%)" r="0.7" /><circle cx="329.578886424" cy="395.430158664" fill="rgb(0%,0%,100%)" r="0.7" /><circle cx="327.970499166" cy="397.962536022" fill="rgb(0%,0%,100%)" r="0.7" /><circle cx="326.326507503" cy="400.471937004" fill="rgb(0%,0%,100%)" r="0.7" /><circle cx="324.647795996" cy="402.95826693" fill="rgb(0%,0%,100%)" r="0.7" /><circle cx="322.935238007" cy="405.421399566" fill="rgb(0%,0%,100%)" r="0.7" /><circle cx="321.189655852" cy="407.861232287" fill="rgb(0%,0%,100%)" r="0.7" /><circle cx="319.411822292" cy="410.277675992" fill="rgb(0%,0%,100%)" r="0.7" /><circle cx="317.602487527" cy="412.67061229" fill="rgb(0%,0%,100%)" r="0.7" /><circle cx="315.762332738" cy="415.039949389" fill="rgb(0%,0%,100%)" r="0.7" /><circle cx="313.892031253" cy="417.385534609" fill="rgb(0%,0%,100%)" r="0.7" /><circle cx="311.992162638" cy="419.707255477" fill="rgb(0%,0%,100%)" r="0.7" /><circle cx="310.063278508" cy="422.004944783" fill="rgb(0%,0%,100%)" r="0.7" /><circle cx="308.105898499" cy="424.278376165" fill="rgb(0%,0%,100%)" r="0.7" /><circle cx="306.120430173" cy="426.527341053" fill="rgb(0%,0%,100%)" r="0.7" /><circle cx="304.107248771" cy="428.751533834" fill="rgb(0%,0%,100%)" r="0.7" /><circle cx="302.066659509" cy="430.950569707" fill="rgb(0%,0%,100%)" r="0.7" /><circle cx="299.998807812" cy="433.124041575" fill="rgb(0%,0%,100%)" r="0.7" /><circle cx="297.903804731" cy="435.271331421" fill="rgb(0%,0%,100%)" r="0.7" /><circle cx="295.78156401" cy="437.391703026" fill="rgb(0%,0%,100%)" r="0.7" /><circle cx="293.631820879" cy="439.484154847" fill="rgb(0%,0%,100%)" r="0.7" /><circle cx="291.453954942" cy="441.54738278" fill="rgb(0%,0%,100%)" r="0.7" /><circle cx="289.246979073" cy="443.579401896" fill="rgb(0%,0%,100%)" r="0.7" /><circle cx="287.00901811" cy="445.577205921" fill="rgb(0%,0%,100%)" r="0.7" /><circle cx="284.73627453" cy="447.535399805" fill="rgb(0%,0%,100%)" r="0.7" /><circle cx="282.417" cy="449.438" fill="rgb(0%,0%,100%)" r="0.7" /></svg>