<?xml version="1.0" encoding="utf-8" ?>
<svg baseProfile="full" height="100%" version="1.1" width="100%" xmlns="http://www.w3.org/2000/svg" xmlns:ev="http://www.w3.org/2001/xml-events" xmlns:xlink="http://www.w3.org/1999/xlink"><defs /><circle cx="478.406026743" cy="322.155592918" fill="rgb(100%,0%,0%)" r="0.7" /><circle cx="475.463806075" cy="322.713146019" fill="rgb(100%,0%,0%)" r="0.7" /><circle cx="472.703028282" cy="323.873009752" fill="rgb(100%,0%,0%)" r="0.7" /><circle cx="470.244265078" cy="325.575553138" fill="rgb(100%,0%,0%)" r="0.7" /><circle cx="469.007913395" cy="328.287952809" fill="rgb(100%,0%,0%)" r="0.7" /><circle cx="468.939148" cy="331.264523652" fill="rgb(100%,0%,0%)" r="0.7" /><circle cx="470.067136109" cy="334.025257666" fill="rgb(100%,0%,0%)" r="0.7" /><circle cx="472.000339223" cy="336.308819573" fill="rgb(100%,0%,0%)" r="0.7" /><circle cx="474.131376499" cy="338.390754874" fill="rgb(100%,0%,0%)" r="0.7" /><circle cx="475.022939429" cy="341.223724019" fill="rgb(100%,0%,0%)" r="0.7" /><circle cx="474.728901466" cy="344.196570556" fill="rgb(100%,0%,0%)" r="0.7" /><circle cx="473.990362039" cy="347.104214239" fill="rgb(100%,0%,0%)" r="0.7" /><circle cx="473.228045947" cy="350.005741212" fill="rgb(100%,0%,0%)" r="0.7" /><circle cx="472.446191313" cy="352.902062768" fill="rgb(100%,0%,0%)" r="0.7" /><circle cx="471.645764731" cy="355.793307783" fill="rgb(100%,0%,0%)" r="0.7" /><circle cx="470.826798718" cy="358.679357776" fill="rgb(100%,0%,0%)" r="0.7" /><circle cx="469.988818725" cy="361.559941867" fill="rgb(100%,0%,0%)" r="0.7" /><circle cx="469.130974077" cy="364.43467033" fill="rgb(100%,0%,0%)" r="0.7" /><circle cx="468.252074855" cy="367.303033272" fill="rgb(100%,0%,0%)" r="0.7" /><circle cx="467.350584424" cy="370.16437475" fill="rgb(100%,0%,0%)" r="0.7" /><circle cx="466.424572693" cy="373.017872498" fill="rgb(100%,0%,0%)" r="0.7" /><circle cx="465.471639922" cy="375.862490119" fill="rgb(100%,0%,0%)" r="0.7" /><circle cx="464.488799512" cy="378.696909752" fill="rgb(100%,0%,0%)" r="0.7" /><circle cx="463.472304782" cy="381.519431051" fill="rgb(100%,0%,0%)" r="0.7" /><circle cx="462.417393583" cy="384.327810571" fill="rgb(100%,0%,0%)" r="0.7" /><circle cx="461.317891699" cy="387.119028481" fill="rgb(100%,0%,0%)" r="0.7" /><circle cx="460.165606357" cy="389.888851228" fill="rgb(100%,0%,0%)" r="0.7" /><circle cx="458.949302188" cy="392.631126067" fill="rgb(100%,0%,0%)" r="0.7" /><circle cx="457.705480786" cy="395.361047715" fill="rgb(100%,0%,0%)" r="0.7" /><circle cx="456.439581311" cy="398.080879576" fill="rgb(100%,0%,0%)" r="0.7" /><circle cx="455.149251209" cy="400.789188218" fill="rgb(100%,0%,0%)" r="0.7" /><circle cx="453.838365187" cy="403.487624621" fill="rgb(100%,0%,0%)" r="0.7" /><circle cx="452.508911605" cy="406.176960793" fill="rgb(100%,0%,0%)" r="0.7" /><circle cx="451.16209966" cy="408.857658018" fill="rgb(100%,0%,0%)" r="0.7" /><circle cx="449.798753654" cy="411.529964155" fill="rgb(100%,0%,0%)" r="0.7" /><circle cx="448.419429972" cy="414.194065849" fill="rgb(100%,0%,0%)" r="0.7" /><circle cx="447.024539698" cy="416.850044211" fill="rgb(100%,0%,0%)" r="0.7" /><circle cx="445.614367544" cy="419.497950331" fill="rgb(100%,0%,0%)" r="0.7" /><circle cx="444.18912608" cy="422.137770488" fill="rgb(100%,0%,0%)" r="0.7" /><circle cx="442.748949103" cy="424.769482919" fill="rgb(100%,0%,0%)" r="0.7" /><circle cx="441.293934186" cy="427.393009134" fill="rgb(100%,0%,0%)" r="0.7" /><circle cx="439.824121317" cy="430.008273938" fill="rgb(100%,0%,0%)" r="0.7" /><circle cx="438.339517878" cy="432.615174683" fill="rgb(100%,0%,0%)" r="0.7" /><circle cx="436.840100817" cy="435.213588557" fill="rgb(100%,0%,0%)" r="0.7" /><circle cx="435.325827464" cy="437.80336212" fill="rgb(100%,0%,0%)" r="0.7" /><circle cx="433.79661621" cy="440.384350371" fill="rgb(100%,0%,0%)" r="0.7" /><circle cx="432.252375757" cy="442.956371069" fill="rgb(100%,0%,0%)" r="0.7" /><circle cx="430.692987621" cy="445.519237879" fill="rgb(100%,0%,0%)" r="0.7" /><circle cx="429.118318007" cy="448.072742836" fill="rgb(100%,0%,0%)" r="0.7" /><circle cx="427.528210029" cy="450.616670752" fill="rgb(100%,0%,0%)" r="0.7" /><circle cx="425.922502049" cy="453.150771024" fill="rgb(100%,0%,0%)" r="0.7" /><circle cx="424.301002048" cy="455.674799224" fill="rgb(100%,0%,0%)" r="0.7" /><circle cx="424.467643752" cy="457.121434832" fill="rgb(100%,0%,0%)" r="0.7" /><circle cx="427.458811688" cy="456.891403583" fill="rgb(100%,0%,0%)" r="0.7" /><circle cx="430.449979625" cy="456.661372333" fill="rgb(100%,0%,0%)" r="0.7" /><circle cx="431.593163923" cy="458.855988032" fill="rgb(100%,0%,0%)" r="0.7" /><circle cx="432.164335228" cy="461.801113384" fill="rgb(100%,0%,0%)" r="0.7" /><circle cx="432.735506533" cy="464.746238736" fill="rgb(100%,0%,0%)" r="0.7" /><circle cx="433.306677838" cy="467.691364089" fill="rgb(100%,0%,0%)" r="0.7" /><circle cx="433.234" cy="468.159" fill="rgb(100%,0%,0%)" r="0.7" /><circle cx="478.406026743" cy="322.155592918" fill="rgb(0%,0%,100%)" r="0.7" /><circle cx="481.401550422" cy="322.187549776" fill="rgb(0%,0%,100%)" r="0.7" /><circle cx="484.349718594" cy="322.726456983" fill="rgb(0%,0%,100%)" r="0.7" /><circle cx="487.195102495" cy="323.670893222" fill="rgb(0%,0%,100%)" r="0.7" /><circle cx="489.914975171" cy="324.933523172" fill="rgb(0%,0%,100%)" r="0.7" /><circle cx="492.501808225" cy="326.450869105" fill="rgb(0%,0%,100%)" r="0.7" /><circle cx="494.948319295" cy="328.185558304" fill="rgb(0%,0%,100%)" r="0.7" /><circle cx="497.319877651" cy="330.017478098" fill="rgb(0%,0%,100%)" r="0.7" /><circle cx="499.370425624" cy="332.188207991" fill="rgb(0%,0%,100%)" r="0.7" /><circle cx="500.382615199" cy="334.982193571" fill="rgb(0%,0%,100%)" r="0.7" /><circle cx="499.95847886" cy="337.922526142" fill="rgb(0%,0%,100%)" r="0.7" /><circle cx="499.141494127" cy="340.809114448" fill="rgb(0%,0%,100%)" r="0.7" /><circle cx="498.286599599" cy="343.684707274" fill="rgb(0%,0%,100%)" r="0.7" /><circle cx="497.395612967" cy="346.549324964" fill="rgb(0%,0%,100%)" r="0.7" /><circle cx="496.470223987" cy="349.40301684" fill="rgb(0%,0%,100%)" r="0.7" /><circle cx="495.512004913" cy="352.245855074" fill="rgb(0%,0%,100%)" r="0.7" /><circle cx="494.522420039" cy="355.07792963" fill="rgb(0%,0%,100%)" r="0.7" /><circle cx="493.502834521" cy="357.899343859" fill="rgb(0%,0%,100%)" r="0.7" /><circle cx="492.454523356" cy="360.710208387" fill="rgb(0%,0%,100%)" r="0.7" /><circle cx="491.378673788" cy="363.510651108" fill="rgb(0%,0%,100%)" r="0.7" /><circle cx="490.276397452" cy="366.300799631" fill="rgb(0%,0%,100%)" r="0.7" /><circle cx="489.148734274" cy="369.080785149" fill="rgb(0%,0%,100%)" r="0.7" /><circle cx="487.996656972" cy="371.850743031" fill="rgb(0%,0%,100%)" r="0.7" /><circle cx="486.821076739" cy="374.610809508" fill="rgb(0%,0%,100%)" r="0.7" /><circle cx="485.62284832" cy="377.361119176" fill="rgb(0%,0%,100%)" r="0.7" /><circle cx="484.402773216" cy="380.101806149" fill="rgb(0%,0%,100%)" r="0.7" /><circle cx="483.161602559" cy="382.833004984" fill="rgb(0%,0%,100%)" r="0.7" /><circle cx="481.900040744" cy="385.554849196" fill="rgb(0%,0%,100%)" r="0.7" /><circle cx="480.618752261" cy="388.267462615" fill="rgb(0%,0%,100%)" r="0.7" /><circle cx="479.318359781" cy="390.970969137" fill="rgb(0%,0%,100%)" r="0.7" /><circle cx="477.99944852" cy="393.665488172" fill="rgb(0%,0%,100%)" r="0.7" /><circle cx="476.662568558" cy="396.351134197" fill="rgb(0%,0%,100%)" r="0.7" /><circle cx="475.308228775" cy="399.028032326" fill="rgb(0%,0%,100%)" r="0.7" /><circle cx="473.936921807" cy="401.696272129" fill="rgb(0%,0%,100%)" r="0.7" /><circle cx="472.549103382" cy="404.355952015" fill="rgb(0%,0%,100%)" r="0.7" /><circle cx="471.145190212" cy="407.00718449" fill="rgb(0%,0%,100%)" r="0.7" /><circle cx="469.725586409" cy="409.65004792" fill="rgb(0%,0%,100%)" r="0.7" /><circle cx="468.290665601" cy="412.284622681" fill="rgb(0%,0%,100%)" r="0.7" /><circle cx="466.840773297" cy="414.910987538" fill="rgb(0%,0%,100%)" r="0.7" /><circle cx="465.376238071" cy="417.529200233" fill="rgb(0%,0%,100%)" r="0.7" /><circle cx="463.897337562" cy="420.139358379" fill="rgb(0%,0%,100%)" r="0.7" /><circle cx="462.404368304" cy="422.741475428" fill="rgb(0%,0%,100%)" r="0.7" /><circle cx="460.897569757" cy="425.335614682" fill="rgb(0%,0%,100%)" r="0.7" /><circle cx="459.377178177" cy="427.921793419" fill="rgb(0%,0%,100%)" r="0.7" /><circle cx="457.843375512" cy="430.50006843" fill="rgb(0%,0%,100%)" r="0.7" /><circle cx="456.296360189" cy="433.070413292" fill="rgb(0%,0%,100%)" r="0.7" /><circle cx="454.736258831" cy="435.632862549" fill="rgb(0%,0%,100%)" r="0.7" /><circle cx="453.16320963" cy="438.187367353" fill="rgb(0%,0%,100%)" r="0.7" /><circle cx="451.577291581" cy="440.733904689" fill="rgb(0%,0%,100%)" r="0.7" /><circle cx="449.978560812" cy="443.272407302" fill="rgb(0%,0%,100%)" r="0.7" /><circle cx="448.367027389" cy="445.802786929" fill="rgb(0%,0%,100%)" r="0.7" /><circle cx="446.742619984" cy="448.324968554" fill="rgb(0%,0%,100%)" r="0.7" /><circle cx="445.10525489" cy="450.838753494" fill="rgb(0%,0%,100%)" r="0.7" /><circle cx="443.454755725" cy="453.343901627" fill="rgb(0%,0%,100%)" r="0.7" /><circle cx="441.790796306" cy="455.840147237" fill="rgb(0%,0%,100%)" r="0.7" /><circle cx="440.112914842" cy="458.327059256" fill="rgb(0%,0%,100%)" r="0.7" /><circle cx="438.420405798" cy="460.803986682" fill="rgb(0%,0%,100%)" r="0.7" /><circle cx="436.711997619" cy="463.270062426" fill="rgb(0%,0%,100%)" r="0.7" /><circle cx="434.985490551" cy="465.72343213" fill="rgb(0%,0%,100%)" r="0.7" /><circle cx="433.234" cy="468.159" fill="rgb(0%,0%,100%)" r="0.7" /></svg>