<?xml version="1.0" encoding="utf-8" ?>
<svg baseProfile="full" height="100%" version="1.1" width="100%" xmlns="http://www.w3.org/2000/svg" xmlns:ev="http://www.w3.org/2001/xml-events" xmlns:xlink="http://www.w3.org/1999/xlink"><defs /><circle cx="303.672794226" cy="299.029953761" fill="rgb(100%,0%,0%)" r="0.7" /><circle cx="300.69235032" cy="299.349032413" fill="rgb(100%,0%,0%)" r="0.7" /><circle cx="297.787599508" cy="300.088795595" fill="rgb(100%,0%,0%)" r="0.7" /><circle cx="295.01320952" cy="301.224186107" fill="rgb(100%,0%,0%)" r="0.7" /><circle cx="292.407628569" cy="302.707317351" fill="rgb(100%,0%,0%)" r="0.7" /><circle cx="289.989854626" cy="304.48090104" fill="rgb(100%,0%,0%)" r="0.7" /><circle cx="287.763071891" cy="306.489580299" fill="rgb(100%,0%,0%)" r="0.7" /><circle cx="285.720719411" cy="308.685898095" fill="rgb(100%,0%,0%)" r="0.7" /><circle cx="283.851826001" cy="311.031836047" fill="rgb(100%,0%,0%)" r="0.7" /><circle cx="282.144643003" cy="313.498114087" fill="rgb(100%,0%,0%)" r="0.7" /><circle cx="280.589022603" cy="316.062792044" fill="rgb(100%,0%,0%)" r="0.7" /><circle cx="279.17848502" cy="318.710094112" fill="rgb(100%,0%,0%)" r="0.7" /><circle cx="277.914312813" cy="321.430302578" fill="rgb(100%,0%,0%)" r="0.7" /><circle cx="276.730271986" cy="324.181614016" fill="rgb(100%,0%,0%)" r="0.7" /><circle cx="275.442992621" cy="326.890028126" fill="rgb(100%,0%,0%)" r="0.7" /><circle cx="274.394222371" cy="329.699983681" fill="rgb(100%,0%,0%)" r="0.7" /><circle cx="273.53414988" cy="332.573605423" fill="rgb(100%,0%,0%)" r="0.7" /><circle cx="272.82642958" cy="335.488647216" fill="rgb(100%,0%,0%)" r="0.7" /><circle cx="272.244356051" cy="338.431445752" fill="rgb(100%,0%,0%)" r="0.7" /><circle cx="271.767986276" cy="341.393246837" fill="rgb(100%,0%,0%)" r="0.7" /><circle cx="271.382161959" cy="344.368233967" fill="rgb(100%,0%,0%)" r="0.7" /><circle cx="271.075180312" cy="347.352410377" fill="rgb(100%,0%,0%)" r="0.7" /><circle cx="270.837896692" cy="350.342953318" fill="rgb(100%,0%,0%)" r="0.7" /><circle cx="270.663119219" cy="353.337806514" fill="rgb(100%,0%,0%)" r="0.7" /><circle cx="270.545202276" cy="356.335450857" fill="rgb(100%,0%,0%)" r="0.7" /><circle cx="270.479794528" cy="359.334701615" fill="rgb(100%,0%,0%)" r="0.7" /><circle cx="270.463719754" cy="362.334631377" fill="rgb(100%,0%,0%)" r="0.7" /><circle cx="270.495032415" cy="365.334435084" fill="rgb(100%,0%,0%)" r="0.7" /><circle cx="270.573419814" cy="368.333386193" fill="rgb(100%,0%,0%)" r="0.7" /><circle cx="270.701824789" cy="371.330593915" fill="rgb(100%,0%,0%)" r="0.7" /><circle cx="270.873944604" cy="374.325550288" fill="rgb(100%,0%,0%)" r="0.7" /><circle cx="271.096107183" cy="377.317174117" fill="rgb(100%,0%,0%)" r="0.7" /><circle cx="271.41317403" cy="380.300256429" fill="rgb(100%,0%,0%)" r="0.7" /><circle cx="271.810807389" cy="383.273715938" fill="rgb(100%,0%,0%)" r="0.7" /><circle cx="272.277841706" cy="386.237075299" fill="rgb(100%,0%,0%)" r="0.7" /><circle cx="272.805430352" cy="389.190276564" fill="rgb(100%,0%,0%)" r="0.7" /><circle cx="273.386440774" cy="392.133437558" fill="rgb(100%,0%,0%)" r="0.7" /><circle cx="274.01504911" cy="395.066815201" fill="rgb(100%,0%,0%)" r="0.7" /><circle cx="274.686433407" cy="397.990698975" fill="rgb(100%,0%,0%)" r="0.7" /><circle cx="275.39656598" cy="400.905419399" fill="rgb(100%,0%,0%)" r="0.7" /><circle cx="276.142047732" cy="403.811302649" fill="rgb(100%,0%,0%)" r="0.7" /><circle cx="276.919989672" cy="406.708667694" fill="rgb(100%,0%,0%)" r="0.7" /><circle cx="277.727920368" cy="409.597815847" fill="rgb(100%,0%,0%)" r="0.7" /><circle cx="278.56371563" cy="412.479027338" fill="rgb(100%,0%,0%)" r="0.7" /><circle cx="279.425546027" cy="415.352565374" fill="rgb(100%,0%,0%)" r="0.7" /><circle cx="280.311828456" cy="418.218653473" fill="rgb(100%,0%,0%)" r="0.7" /><circle cx="281.221200403" cy="421.077496446" fill="rgb(100%,0%,0%)" r="0.7" /><circle cx="282.152495027" cy="423.929275244" fill="rgb(100%,0%,0%)" r="0.7" /><circle cx="283.104722495" cy="426.774138715" fill="rgb(100%,0%,0%)" r="0.7" /><circle cx="284.077057197" cy="429.612191182" fill="rgb(100%,0%,0%)" r="0.7" /><circle cx="285.068839877" cy="432.443498458" fill="rgb(100%,0%,0%)" r="0.7" /><circle cx="286.079594573" cy="435.268100377" fill="rgb(100%,0%,0%)" r="0.7" /><circle cx="287.109037387" cy="438.085947647" fill="rgb(100%,0%,0%)" r="0.7" /><circle cx="288.157141112" cy="440.896900496" fill="rgb(100%,0%,0%)" r="0.7" /><circle cx="289.224254243" cy="443.700668236" fill="rgb(100%,0%,0%)" r="0.7" /><circle cx="290.311423745" cy="446.496740646" fill="rgb(100%,0%,0%)" r="0.7" /><circle cx="291.421384108" cy="449.283874652" fill="rgb(100%,0%,0%)" r="0.7" /><circle cx="292.624886901" cy="452.030226784" fill="rgb(100%,0%,0%)" r="0.7" /><circle cx="293.992711168" cy="454.700223591" fill="rgb(100%,0%,0%)" r="0.7" /><circle cx="295.393259754" cy="457.353219614" fill="rgb(100%,0%,0%)" r="0.7" /><circle cx="296.809263814" cy="459.998011303" fill="rgb(100%,0%,0%)" r="0.7" /><circle cx="298.234792613" cy="462.637685247" fill="rgb(100%,0%,0%)" r="0.7" /><circle cx="299.666972374" cy="465.273782446" fill="rgb(100%,0%,0%)" r="0.7" /><circle cx="301.104113059" cy="467.907133255" fill="rgb(100%,0%,0%)" r="0.7" /><circle cx="302.545185071" cy="470.538360436" fill="rgb(100%,0%,0%)" r="0.7" /><circle cx="303.989446505" cy="473.167822648" fill="rgb(100%,0%,0%)" r="0.7" /><circle cx="305.436389357" cy="475.795825581" fill="rgb(100%,0%,0%)" r="0.7" /><circle cx="306.885614794" cy="478.422563134" fill="rgb(100%,0%,0%)" r="0.7" /><circle cx="308.336827658" cy="481.048206366" fill="rgb(100%,0%,0%)" r="0.7" /><circle cx="309.789789953" cy="483.672880556" fill="rgb(100%,0%,0%)" r="0.7" /><circle cx="311.244311718" cy="486.296688714" fill="rgb(100%,0%,0%)" r="0.7" /><circle cx="312.700239648" cy="488.91971801" fill="rgb(100%,0%,0%)" r="0.7" /><circle cx="314.157445038" cy="491.542036806" fill="rgb(100%,0%,0%)" r="0.7" /><circle cx="315.6158219" cy="494.163704669" fill="rgb(100%,0%,0%)" r="0.7" /><circle cx="317.075282396" cy="496.784773874" fill="rgb(100%,0%,0%)" r="0.7" /><circle cx="318.535747055" cy="499.405278984" fill="rgb(100%,0%,0%)" r="0.7" /><circle cx="319.997155608" cy="502.025261567" fill="rgb(100%,0%,0%)" r="0.7" /><circle cx="321.459449968" cy="504.644743493" fill="rgb(100%,0%,0%)" r="0.7" /><circle cx="322.922592882" cy="507.263763009" fill="rgb(100%,0%,0%)" r="0.7" /><circle cx="324.38654069" cy="509.882327537" fill="rgb(100%,0%,0%)" r="0.7" /><circle cx="325.851257664" cy="512.50043985" fill="rgb(100%,0%,0%)" r="0.7" /><circle cx="327.316738418" cy="515.118137097" fill="rgb(100%,0%,0%)" r="0.7" /><circle cx="328.782982294" cy="517.735441726" fill="rgb(100%,0%,0%)" r="0.7" /><circle cx="330.249952947" cy="520.352281781" fill="rgb(100%,0%,0%)" r="0.7" /><circle cx="331.717709704" cy="522.968707058" fill="rgb(100%,0%,0%)" r="0.7" /><circle cx="333.186330398" cy="525.584697985" fill="rgb(100%,0%,0%)" r="0.7" /><circle cx="334.656" cy="528.2" fill="rgb(100%,0%,0%)" r="0.7" /><circle cx="303.672794226" cy="299.029953761" fill="rgb(0%,0%,100%)" r="0.7" /><circle cx="306.668996761" cy="299.125987111" fill="rgb(0%,0%,100%)" r="0.7" /><circle cx="309.628761771" cy="299.604207282" fill="rgb(0%,0%,100%)" r="0.7" /><circle cx="312.515606907" cy="300.415371225" fill="rgb(0%,0%,100%)" r="0.7" /><circle cx="315.326319083" cy="301.462544748" fill="rgb(0%,0%,100%)" r="0.7" /><circle cx="318.055114688" cy="302.707235032" fill="rgb(0%,0%,100%)" r="0.7" /><circle cx="320.671903858" cy="304.172338529" fill="rgb(0%,0%,100%)" r="0.7" /><circle cx="323.137777152" cy="305.878719119" fill="rgb(0%,0%,100%)" r="0.7" /><circle cx="325.405076037" cy="307.840750795" fill="rgb(0%,0%,100%)" r="0.7" /><circle cx="327.420344837" cy="310.060395186" fill="rgb(0%,0%,100%)" r="0.7" /><circle cx="329.131406687" cy="312.521899956" fill="rgb(0%,0%,100%)" r="0.7" /><circle cx="330.497243576" cy="315.190389612" fill="rgb(0%,0%,100%)" r="0.7" /><circle cx="331.496505096" cy="318.016807384" fill="rgb(0%,0%,100%)" r="0.7" /><circle cx="332.129848313" cy="320.947272033" fill="rgb(0%,0%,100%)" r="0.7" /><circle cx="332.41556463" cy="323.932059946" fill="rgb(0%,0%,100%)" r="0.7" /><circle cx="332.383016704" cy="326.930629172" fill="rgb(0%,0%,100%)" r="0.7" /><circle cx="332.087565666" cy="329.91548114" fill="rgb(0%,0%,100%)" r="0.7" /><circle cx="331.372417521" cy="332.819394503" fill="rgb(0%,0%,100%)" r="0.7" /><circle cx="330.393178026" cy="335.654741523" fill="rgb(0%,0%,100%)" r="0.7" /><circle cx="329.279424058" cy="338.440052224" fill="rgb(0%,0%,100%)" r="0.7" /><circle cx="328.040333465" cy="341.171924576" fill="rgb(0%,0%,100%)" r="0.7" /><circle cx="326.678114326" cy="343.844521075" fill="rgb(0%,0%,100%)" r="0.7" /><circle cx="325.192154281" cy="346.450324983" fill="rgb(0%,0%,100%)" r="0.7" /><circle cx="323.580516963" cy="348.980294102" fill="rgb(0%,0%,100%)" r="0.7" /><circle cx="321.840762723" cy="351.423891368" fill="rgb(0%,0%,100%)" r="0.7" /><circle cx="319.970573513" cy="353.769105263" fill="rgb(0%,0%,100%)" r="0.7" /><circle cx="317.968314774" cy="356.002561153" fill="rgb(0%,0%,100%)" r="0.7" /><circle cx="315.922100018" cy="358.193267395" fill="rgb(0%,0%,100%)" r="0.7" /><circle cx="314.12577624" cy="360.595163242" fill="rgb(0%,0%,100%)" r="0.7" /><circle cx="312.495260042" cy="363.112781695" fill="rgb(0%,0%,100%)" r="0.7" /><circle cx="311.025328545" cy="365.727435637" fill="rgb(0%,0%,100%)" r="0.7" /><circle cx="309.722885262" cy="368.429401336" fill="rgb(0%,0%,100%)" r="0.7" /><circle cx="308.599646512" cy="371.210579187" fill="rgb(0%,0%,100%)" r="0.7" /><circle cx="307.66992433" cy="374.062227075" fill="rgb(0%,0%,100%)" r="0.7" /><circle cx="306.949259548" cy="376.973666915" fill="rgb(0%,0%,100%)" r="0.7" /><circle cx="306.453038576" cy="379.931565615" fill="rgb(0%,0%,100%)" r="0.7" /><circle cx="306.194957237" cy="382.919605666" fill="rgb(0%,0%,100%)" r="0.7" /><circle cx="306.185368402" cy="385.91871114" fill="rgb(0%,0%,100%)" r="0.7" /><circle cx="306.429762512" cy="388.907825057" fill="rgb(0%,0%,100%)" r="0.7" /><circle cx="306.927720917" cy="391.865297254" fill="rgb(0%,0%,100%)" r="0.7" /><circle cx="307.672628536" cy="394.770444786" fill="rgb(0%,0%,100%)" r="0.7" /><circle cx="308.652265019" cy="397.605147309" fill="rgb(0%,0%,100%)" r="0.7" /><circle cx="309.850055316" cy="400.354861967" fill="rgb(0%,0%,100%)" r="0.7" /><circle cx="311.17193441" cy="403.047754267" fill="rgb(0%,0%,100%)" r="0.7" /><circle cx="312.531372207" cy="405.72201676" fill="rgb(0%,0%,100%)" r="0.7" /><circle cx="313.936566966" cy="408.372525924" fill="rgb(0%,0%,100%)" r="0.7" /><circle cx="315.378963999" cy="411.002987679" fill="rgb(0%,0%,100%)" r="0.7" /><circle cx="316.854291993" cy="413.615134112" fill="rgb(0%,0%,100%)" r="0.7" /><circle cx="318.359894114" cy="416.209964818" fill="rgb(0%,0%,100%)" r="0.7" /><circle cx="319.893914557" cy="418.788072749" fill="rgb(0%,0%,100%)" r="0.7" /><circle cx="321.455016417" cy="421.349886546" fill="rgb(0%,0%,100%)" r="0.7" /><circle cx="323.042152558" cy="423.895647699" fill="rgb(0%,0%,100%)" r="0.7" /><circle cx="324.654506725" cy="426.425518036" fill="rgb(0%,0%,100%)" r="0.7" /><circle cx="326.291417131" cy="428.939579204" fill="rgb(0%,0%,100%)" r="0.7" /><circle cx="327.952326774" cy="431.437835263" fill="rgb(0%,0%,100%)" r="0.7" /><circle cx="329.636790869" cy="433.92027689" fill="rgb(0%,0%,100%)" r="0.7" /><circle cx="331.344423981" cy="436.386838627" fill="rgb(0%,0%,100%)" r="0.7" /><circle cx="333.07489953" cy="438.837426071" fill="rgb(0%,0%,100%)" r="0.7" /><circle cx="334.827941371" cy="441.271923449" fill="rgb(0%,0%,100%)" r="0.7" /><circle cx="336.603311363" cy="443.690191065" fill="rgb(0%,0%,100%)" r="0.7" /><circle cx="338.400798792" cy="446.092062771" fill="rgb(0%,0%,100%)" r="0.7" /><circle cx="340.220219374" cy="448.477354223" fill="rgb(0%,0%,100%)" r="0.7" /><circle cx="342.061423457" cy="450.845880547" fill="rgb(0%,0%,100%)" r="0.7" /><circle cx="343.924265438" cy="453.197422467" fill="rgb(0%,0%,100%)" r="0.7" /><circle cx="345.808624931" cy="455.531758872" fill="rgb(0%,0%,100%)" r="0.7" /><circle cx="347.71023682" cy="457.852023027" fill="rgb(0%,0%,100%)" r="0.7" /><circle cx="349.597046297" cy="460.184395849" fill="rgb(0%,0%,100%)" r="0.7" /><circle cx="351.482850656" cy="462.517593615" fill="rgb(0%,0%,100%)" r="0.7" /><circle cx="353.367795508" cy="464.851466899" fill="rgb(0%,0%,100%)" r="0.7" /><circle cx="355.251940251" cy="467.186010953" fill="rgb(0%,0%,100%)" r="0.7" /><circle cx="357.135260074" cy="469.521195626" fill="rgb(0%,0%,100%)" r="0.7" /><circle cx="359.017744692" cy="471.857052929" fill="rgb(0%,0%,100%)" r="0.7" /><circle cx="360.899360184" cy="474.193618784" fill="rgb(0%,0%,100%)" r="0.7" /><circle cx="362.780050128" cy="476.530931535" fill="rgb(0%,0%,100%)" r="0.7" /><circle cx="364.659743234" cy="478.869042637" fill="rgb(0%,0%,100%)" r="0.7" /><circle cx="366.538356092" cy="481.208024376" fill="rgb(0%,0%,100%)" r="0.7" /><circle cx="368.415778404" cy="483.547958828" fill="rgb(0%,0%,100%)" r="0.7" /><circle cx="370.291877669" cy="485.888954903" fill="rgb(0%,0%,100%)" r="0.7" /><circle cx="372.166484625" cy="488.231146897" fill="rgb(0%,0%,100%)" r="0.7" /><circle cx="374.039382337" cy="490.574706012" fill="rgb(0%,0%,100%)" r="0.7" /><circle cx="375.910286742" cy="492.919854998" fill="rgb(0%,0%,100%)" r="0.7" /><circle cx="377.778812235" cy="495.266887982" fill="rgb(0%,0%,100%)" r="0.7" /><circle cx="379.644447647" cy="497.61624795" fill="rgb(0%,0%,100%)" r="0.7" /><circle cx="381.506384867" cy="499.968508781" fill="rgb(0%,0%,100%)" r="0.7" /><circle cx="383.363427304" cy="502.324661315" fill="rgb(0%,0%,100%)" r="0.7" /><circle cx="385.213427308" cy="504.686343814" fill="rgb(0%,0%,100%)" r="0.7" /><circle cx="387.05196498" cy="507.056937693" fill="rgb(0%,0%,100%)" r="0.7" /><circle cx="388.866029644" cy="509.446301041" fill="rgb(0%,0%,100%)" r="0.7" /><circle cx="387.982127503" cy="510.417257245" fill="rgb(0%,0%,100%)" r="0.7" /><circle cx="384.988153085" cy="510.227212025" fill="rgb(0%,0%,100%)" r="0.7" /><circle cx="381.994178667" cy="510.037166806" fill="rgb(0%,0%,100%)" r="0.7" /><circle cx="379.000204249" cy="509.847121587" fill="rgb(0%,0%,100%)" r="0.7" /><circle cx="376.006229832" cy="509.657076367" fill="rgb(0%,0%,100%)" r="0.7" /><circle cx="373.012255414" cy="509.467031148" fill="rgb(0%,0%,100%)" r="0.7" /><circle cx="370.018280996" cy="509.276985929" fill="rgb(0%,0%,100%)" r="0.7" /><circle cx="367.024306578" cy="509.086940709" fill="rgb(0%,0%,100%)" r="0.7" /><circle cx="364.03033216" cy="508.89689549" fill="rgb(0%,0%,100%)" r="0.7" /><circle cx="361.036357742" cy="508.706850271" fill="rgb(0%,0%,100%)" r="0.7" /><circle cx="358.042383325" cy="508.516805051" fill="rgb(0%,0%,100%)" r="0.7" /><circle cx="355.048408907" cy="508.326759832" fill="rgb(0%,0%,100%)" r="0.7" /><circle cx="352.054434489" cy="508.136714613" fill="rgb(0%,0%,100%)" r="0.7" /><circle cx="349.060460071" cy="507.946669394" fill="rgb(0%,0%,100%)" r="0.7" /><circle cx="347.090385743" cy="509.844176705" fill="rgb(0%,0%,100%)" r="0.7" /><circle cx="345.40786025" cy="512.327945608" fill="rgb(0%,0%,100%)" r="0.7" /><circle cx="343.725334757" cy="514.811714511" fill="rgb(0%,0%,100%)" r="0.7" /><circle cx="342.042809264" cy="517.295483415" fill="rgb(0%,0%,100%)" r="0.7" /><circle cx="340.360283771" cy="519.779252318" fill="rgb(0%,0%,100%)" r="0.7" /><circle cx="338.677758278" cy="522.263021221" fill="rgb(0%,0%,100%)" r="0.7" /><circle cx="336.995232785" cy="524.746790125" fill="rgb(0%,0%,100%)" r="0.7" /><circle cx="335.312707292" cy="527.230559028" fill="rgb(0%,0%,100%)" r="0.7" /><circle cx="334.656" cy="528.2" fill="rgb(0%,0%,100%)" r="0.7" /></svg>