<?xml version="1.0" encoding="utf-8" ?>
<svg baseProfile="full" height="100%" version="1.1" width="100%" xmlns="http://www.w3.org/2000/svg" xmlns:ev="http://www.w3.org/2001/xml-events" xmlns:xlink="http://www.w3.org/1999/xlink"><defs /><circle cx="316.194064053" cy="297.844690363" fill="rgb(100%,0%,0%)" r="0.7" /><circle cx="313.659546827" cy="299.398999446" fill="rgb(100%,0%,0%)" r="0.7" /><circle cx="311.687591678" cy="301.654265317" fill="rgb(100%,0%,0%)" r="0.7" /><circle cx="310.014593709" cy="304.143408434" fill="rgb(100%,0%,0%)" r="0.7" /><circle cx="308.49116891" cy="306.727601351" fill="rgb(100%,0%,0%)" r="0.7" /><circle cx="307.030509878" cy="309.347979379" fill="rgb(100%,0%,0%)" r="0.7" /><circle cx="305.567582647" cy="311.967086203" fill="rgb(100%,0%,0%)" r="0.7" /><circle cx="304.032686556" cy="314.544452959" fill="rgb(100%,0%,0%)" r="0.7" /><circle cx="302.467771402" cy="317.103961276" fill="rgb(100%,0%,0%)" r="0.7" /><circle cx="300.896007021" cy="319.659263824" fill="rgb(100%,0%,0%)" r="0.7" /><circle cx="299.317736231" cy="322.210554043" fill="rgb(100%,0%,0%)" r="0.7" /><circle cx="297.732813695" cy="324.757717031" fill="rgb(100%,0%,0%)" r="0.7" /><circle cx="296.140829488" cy="327.300469322" fill="rgb(100%,0%,0%)" r="0.7" /><circle cx="294.541144859" cy="329.838382185" fill="rgb(100%,0%,0%)" r="0.7" /><circle cx="292.932871027" cy="332.370860773" fill="rgb(100%,0%,0%)" r="0.7" /><circle cx="291.314804161" cy="334.897094441" fill="rgb(100%,0%,0%)" r="0.7" /><circle cx="289.685306781" cy="337.41596699" fill="rgb(100%,0%,0%)" r="0.7" /><circle cx="288.042089856" cy="339.925915401" fill="rgb(100%,0%,0%)" r="0.7" /><circle cx="286.381844885" cy="342.424626598" fill="rgb(100%,0%,0%)" r="0.7" /><circle cx="284.69948319" cy="344.908486248" fill="rgb(100%,0%,0%)" r="0.7" /><circle cx="282.986460629" cy="347.371288182" fill="rgb(100%,0%,0%)" r="0.7" /><circle cx="281.226291614" cy="349.800564392" fill="rgb(100%,0%,0%)" r="0.7" /><circle cx="279.37742161" cy="352.162641513" fill="rgb(100%,0%,0%)" r="0.7" /><circle cx="280.147492868" cy="351.784773" fill="rgb(100%,0%,0%)" r="0.7" /><circle cx="282.483778492" cy="349.902814052" fill="rgb(100%,0%,0%)" r="0.7" /><circle cx="284.820064116" cy="348.020855103" fill="rgb(100%,0%,0%)" r="0.7" /><circle cx="287.15634974" cy="346.138896155" fill="rgb(100%,0%,0%)" r="0.7" /><circle cx="287.422220352" cy="347.41609936" fill="rgb(100%,0%,0%)" r="0.7" /><circle cx="286.628996299" cy="350.309332085" fill="rgb(100%,0%,0%)" r="0.7" /><circle cx="285.835772246" cy="353.20256481" fill="rgb(100%,0%,0%)" r="0.7" /><circle cx="285.042548194" cy="356.095797535" fill="rgb(100%,0%,0%)" r="0.7" /><circle cx="284.249324141" cy="358.989030261" fill="rgb(100%,0%,0%)" r="0.7" /><circle cx="283.562" cy="361.496" fill="rgb(100%,0%,0%)" r="0.7" /><circle cx="316.194064053" cy="297.844690363" fill="rgb(0%,0%,100%)" r="0.7" /><circle cx="319.10960359" cy="298.128965531" fill="rgb(0%,0%,100%)" r="0.7" /><circle cx="320.756030088" cy="300.495318679" fill="rgb(0%,0%,100%)" r="0.7" /><circle cx="320.585182585" cy="303.472811692" fill="rgb(0%,0%,100%)" r="0.7" /><circle cx="319.696112932" cy="306.334911511" fill="rgb(0%,0%,100%)" r="0.7" /><circle cx="318.476757154" cy="309.074825146" fill="rgb(0%,0%,100%)" r="0.7" /><circle cx="317.048572113" cy="311.712373658" fill="rgb(0%,0%,100%)" r="0.7" /><circle cx="315.447283314" cy="314.248924093" fill="rgb(0%,0%,100%)" r="0.7" /><circle cx="313.796020113" cy="316.753558671" fill="rgb(0%,0%,100%)" r="0.7" /><circle cx="312.13342659" cy="319.250732463" fill="rgb(0%,0%,100%)" r="0.7" /><circle cx="310.465144707" cy="321.744091837" fill="rgb(0%,0%,100%)" r="0.7" /><circle cx="308.79325079" cy="324.235031891" fill="rgb(0%,0%,100%)" r="0.7" /><circle cx="307.118800127" cy="326.724240752" fill="rgb(0%,0%,100%)" r="0.7" /><circle cx="305.442395113" cy="329.212147925" fill="rgb(0%,0%,100%)" r="0.7" /><circle cx="303.76443735" cy="331.699011547" fill="rgb(0%,0%,100%)" r="0.7" /><circle cx="302.085203687" cy="334.185008592" fill="rgb(0%,0%,100%)" r="0.7" /><circle cx="300.404888166" cy="336.670274544" fill="rgb(0%,0%,100%)" r="0.7" /><circle cx="298.723636272" cy="339.154908832" fill="rgb(0%,0%,100%)" r="0.7" /><circle cx="297.041560295" cy="341.638985209" fill="rgb(0%,0%,100%)" r="0.7" /><circle cx="295.358750117" cy="344.122556236" fill="rgb(0%,0%,100%)" r="0.7" /><circle cx="293.675262548" cy="346.605681877" fill="rgb(0%,0%,100%)" r="0.7" /><circle cx="291.991160829" cy="349.088379131" fill="rgb(0%,0%,100%)" r="0.7" /><circle cx="290.306476284" cy="351.570682668" fill="rgb(0%,0%,100%)" r="0.7" /><circle cx="288.621224101" cy="354.052621495" fill="rgb(0%,0%,100%)" r="0.7" /><circle cx="286.935429486" cy="356.534173556" fill="rgb(0%,0%,100%)" r="0.7" /><circle cx="285.249061798" cy="359.015335939" fill="rgb(0%,0%,100%)" r="0.7" /><circle cx="283.562" cy="361.496" fill="rgb(0%,0%,100%)" r="0.7" /></svg>