<?xml version="1.0" encoding="utf-8" ?>
<svg baseProfile="full" height="100%" version="1.1" width="100%" xmlns="http://www.w3.org/2000/svg" xmlns:ev="http://www.w3.org/2001/xml-events" xmlns:xlink="http://www.w3.org/1999/xlink"><defs /><circle cx="325.393919477" cy="247.794774017" fill="rgb(100%,0%,0%)" r="0.7" /><circle cx="322.40601046" cy="248.055181421" fill="rgb(100%,0%,0%)" r="0.7" /><circle cx="319.447827898" cy="248.549593282" fill="rgb(100%,0%,0%)" r="0.7" /><circle cx="316.539572775" cy="249.282248571" fill="rgb(100%,0%,0%)" r="0.7" /><circle cx="313.710897442" cy="250.277495038" fill="rgb(100%,0%,0%)" r="0.7" /><circle cx="311.376433422" cy="252.085428986" fill="rgb(100%,0%,0%)" r="0.7" /><circle cx="310.050367636" cy="254.760865422" fill="rgb(100%,0%,0%)" r="0.7" /><circle cx="309.489953561" cy="257.702024981" fill="rgb(100%,0%,0%)" r="0.7" /><circle cx="309.464921233" cy="260.699203378" fill="rgb(100%,0%,0%)" r="0.7" /><circle cx="309.821905847" cy="263.675976447" fill="rgb(100%,0%,0%)" r="0.7" /><circle cx="310.245117639" cy="266.645480915" fill="rgb(100%,0%,0%)" r="0.7" /><circle cx="310.502932988" cy="269.634039456" fill="rgb(100%,0%,0%)" r="0.7" /><circle cx="310.60242672" cy="272.632023098" fill="rgb(100%,0%,0%)" r="0.7" /><circle cx="310.530832835" cy="275.630715933" fill="rgb(100%,0%,0%)" r="0.7" /><circle cx="310.265546755" cy="278.618356007" fill="rgb(100%,0%,0%)" r="0.7" /><circle cx="309.774982379" cy="281.577114223" fill="rgb(100%,0%,0%)" r="0.7" /><circle cx="309.018386177" cy="284.478856962" fill="rgb(100%,0%,0%)" r="0.7" /><circle cx="308.22496999" cy="287.367196926" fill="rgb(100%,0%,0%)" r="0.7" /><circle cx="307.546115766" cy="290.28937567" fill="rgb(100%,0%,0%)" r="0.7" /><circle cx="306.844396273" cy="293.206140947" fill="rgb(100%,0%,0%)" r="0.7" /><circle cx="306.121561087" cy="296.117759308" fill="rgb(100%,0%,0%)" r="0.7" /><circle cx="305.377698757" cy="299.024067854" fill="rgb(100%,0%,0%)" r="0.7" /><circle cx="304.612117164" cy="301.924727732" fill="rgb(100%,0%,0%)" r="0.7" /><circle cx="303.82356855" cy="304.819230259" fill="rgb(100%,0%,0%)" r="0.7" /><circle cx="303.010290559" cy="307.706881736" fill="rgb(100%,0%,0%)" r="0.7" /><circle cx="302.169959363" cy="310.586772495" fill="rgb(100%,0%,0%)" r="0.7" /><circle cx="301.299575107" cy="313.457720127" fill="rgb(100%,0%,0%)" r="0.7" /><circle cx="300.395273963" cy="316.318161808" fill="rgb(100%,0%,0%)" r="0.7" /><circle cx="299.452029072" cy="319.16599063" fill="rgb(100%,0%,0%)" r="0.7" /><circle cx="298.463172934" cy="321.998293947" fill="rgb(100%,0%,0%)" r="0.7" /><circle cx="297.419618776" cy="324.81088267" fill="rgb(100%,0%,0%)" r="0.7" /><circle cx="296.318918646" cy="327.601620854" fill="rgb(100%,0%,0%)" r="0.7" /><circle cx="295.203862241" cy="330.386696378" fill="rgb(100%,0%,0%)" r="0.7" /><circle cx="294.082765997" cy="333.169329065" fill="rgb(100%,0%,0%)" r="0.7" /><circle cx="292.956428754" cy="335.9498631" fill="rgb(100%,0%,0%)" r="0.7" /><circle cx="291.82513947" cy="338.728393254" fill="rgb(100%,0%,0%)" r="0.7" /><circle cx="290.688991403" cy="341.504936156" fill="rgb(100%,0%,0%)" r="0.7" /><circle cx="289.547969073" cy="344.279468541" fill="rgb(100%,0%,0%)" r="0.7" /><circle cx="288.401974465" cy="347.051959509" fill="rgb(100%,0%,0%)" r="0.7" /><circle cx="287.250860177" cy="349.822331535" fill="rgb(100%,0%,0%)" r="0.7" /><circle cx="286.094426412" cy="352.590484499" fill="rgb(100%,0%,0%)" r="0.7" /><circle cx="284.932419495" cy="355.356301559" fill="rgb(100%,0%,0%)" r="0.7" /><circle cx="283.76453206" cy="358.119641325" fill="rgb(100%,0%,0%)" r="0.7" /><circle cx="282.590397197" cy="360.880336299" fill="rgb(100%,0%,0%)" r="0.7" /><circle cx="281.409584872" cy="363.638177851" fill="rgb(100%,0%,0%)" r="0.7" /><circle cx="280.221582956" cy="366.392927902" fill="rgb(100%,0%,0%)" r="0.7" /><circle cx="279.025784971" cy="369.144302785" fill="rgb(100%,0%,0%)" r="0.7" /><circle cx="277.821469804" cy="371.891960322" fill="rgb(100%,0%,0%)" r="0.7" /><circle cx="276.607771241" cy="374.635488702" fill="rgb(100%,0%,0%)" r="0.7" /><circle cx="275.38364205" cy="377.374377109" fill="rgb(100%,0%,0%)" r="0.7" /><circle cx="274.147792769" cy="380.107998196" fill="rgb(100%,0%,0%)" r="0.7" /><circle cx="272.898619846" cy="382.835545434" fill="rgb(100%,0%,0%)" r="0.7" /><circle cx="271.634070112" cy="385.556001636" fill="rgb(100%,0%,0%)" r="0.7" /><circle cx="270.351471596" cy="388.267999525" fill="rgb(100%,0%,0%)" r="0.7" /><circle cx="269.04723573" cy="390.96964485" fill="rgb(100%,0%,0%)" r="0.7" /><circle cx="267.716315377" cy="393.658263059" fill="rgb(100%,0%,0%)" r="0.7" /><circle cx="266.351302808" cy="396.3296927" fill="rgb(100%,0%,0%)" r="0.7" /><circle cx="264.940381873" cy="398.977149241" fill="rgb(100%,0%,0%)" r="0.7" /><circle cx="263.46265667" cy="401.587821138" fill="rgb(100%,0%,0%)" r="0.7" /><circle cx="261.873663528" cy="404.131939995" fill="rgb(100%,0%,0%)" r="0.7" /><circle cx="260.236352651" cy="406.642631855" fill="rgb(100%,0%,0%)" r="0.7" /><circle cx="258.692937504" cy="409.21515779" fill="rgb(100%,0%,0%)" r="0.7" /><circle cx="257.146393047" cy="411.785821228" fill="rgb(100%,0%,0%)" r="0.7" /><circle cx="255.597134285" cy="414.354848533" fill="rgb(100%,0%,0%)" r="0.7" /><circle cx="254.045330509" cy="416.922294665" fill="rgb(100%,0%,0%)" r="0.7" /><circle cx="252.490987834" cy="419.4882634" fill="rgb(100%,0%,0%)" r="0.7" /><circle cx="250.934155042" cy="422.052666438" fill="rgb(100%,0%,0%)" r="0.7" /><circle cx="249.374756418" cy="424.615538601" fill="rgb(100%,0%,0%)" r="0.7" /><circle cx="247.812745077" cy="427.1768025" fill="rgb(100%,0%,0%)" r="0.7" /><circle cx="246.248007935" cy="429.736432438" fill="rgb(100%,0%,0%)" r="0.7" /><circle cx="244.680454949" cy="432.294310263" fill="rgb(100%,0%,0%)" r="0.7" /><circle cx="243.109928365" cy="434.850372307" fill="rgb(100%,0%,0%)" r="0.7" /><circle cx="241.536264063" cy="437.404504602" fill="rgb(100%,0%,0%)" r="0.7" /><circle cx="239.959264802" cy="439.956579372" fill="rgb(100%,0%,0%)" r="0.7" /><circle cx="238.378700418" cy="442.506444424" fill="rgb(100%,0%,0%)" r="0.7" /><circle cx="236.794295745" cy="445.053928787" fill="rgb(100%,0%,0%)" r="0.7" /><circle cx="235.205732468" cy="447.598821211" fill="rgb(100%,0%,0%)" r="0.7" /><circle cx="233.612631205" cy="450.140874319" fill="rgb(100%,0%,0%)" r="0.7" /><circle cx="232.014536782" cy="452.679794899" fill="rgb(100%,0%,0%)" r="0.7" /><circle cx="230.41090544" cy="455.215218927" fill="rgb(100%,0%,0%)" r="0.7" /><circle cx="228.80106767" cy="457.746707316" fill="rgb(100%,0%,0%)" r="0.7" /><circle cx="227.184195174" cy="460.273707647" fill="rgb(100%,0%,0%)" r="0.7" /><circle cx="225.559239902" cy="462.795516921" fill="rgb(100%,0%,0%)" r="0.7" /><circle cx="223.924846763" cy="465.311214709" fill="rgb(100%,0%,0%)" r="0.7" /><circle cx="222.279207588" cy="467.819565132" fill="rgb(100%,0%,0%)" r="0.7" /><circle cx="220.619808787" cy="470.318856237" fill="rgb(100%,0%,0%)" r="0.7" /><circle cx="218.943033747" cy="472.806510488" fill="rgb(100%,0%,0%)" r="0.7" /><circle cx="217.243259529" cy="475.27845312" fill="rgb(100%,0%,0%)" r="0.7" /><circle cx="215.510776404" cy="477.72760932" fill="rgb(100%,0%,0%)" r="0.7" /><circle cx="213.726175058" cy="480.138956328" fill="rgb(100%,0%,0%)" r="0.7" /><circle cx="211.835586061" cy="482.467510801" fill="rgb(100%,0%,0%)" r="0.7" /><circle cx="209.798721284" cy="484.663714577" fill="rgb(100%,0%,0%)" r="0.7" /><circle cx="207.863677526" cy="486.956185457" fill="rgb(100%,0%,0%)" r="0.7" /><circle cx="205.926368662" cy="489.246778886" fill="rgb(100%,0%,0%)" r="0.7" /><circle cx="203.987113835" cy="491.535746926" fill="rgb(100%,0%,0%)" r="0.7" /><circle cx="202.046050937" cy="493.823157487" fill="rgb(100%,0%,0%)" r="0.7" /><circle cx="200.103208537" cy="496.10906039" fill="rgb(100%,0%,0%)" r="0.7" /><circle cx="198.158588009" cy="498.393458092" fill="rgb(100%,0%,0%)" r="0.7" /><circle cx="196.212165847" cy="500.676329474" fill="rgb(100%,0%,0%)" r="0.7" /><circle cx="194.263913551" cy="502.957618477" fill="rgb(100%,0%,0%)" r="0.7" /><circle cx="192.31374785" cy="505.237297722" fill="rgb(100%,0%,0%)" r="0.7" /><circle cx="190.361616574" cy="507.515269818" fill="rgb(100%,0%,0%)" r="0.7" /><circle cx="188.407407305" cy="509.791473643" fill="rgb(100%,0%,0%)" r="0.7" /><circle cx="186.451022514" cy="512.065794329" fill="rgb(100%,0%,0%)" r="0.7" /><circle cx="184.492321838" cy="514.338126607" fill="rgb(100%,0%,0%)" r="0.7" /><circle cx="182.53115465" cy="516.608331214" fill="rgb(100%,0%,0%)" r="0.7" /><circle cx="180.56734141" cy="518.876248881" fill="rgb(100%,0%,0%)" r="0.7" /><circle cx="178.600673183" cy="521.14169064" fill="rgb(100%,0%,0%)" r="0.7" /><circle cx="176.630903013" cy="523.40443419" fill="rgb(100%,0%,0%)" r="0.7" /><circle cx="174.65773649" cy="525.6642166" fill="rgb(100%,0%,0%)" r="0.7" /><circle cx="172.680819079" cy="527.920724269" fill="rgb(100%,0%,0%)" r="0.7" /><circle cx="170.699729891" cy="530.173566313" fill="rgb(100%,0%,0%)" r="0.7" /><circle cx="168.713945088" cy="532.42226879" fill="rgb(100%,0%,0%)" r="0.7" /><circle cx="166.722809679" cy="534.66623793" fill="rgb(100%,0%,0%)" r="0.7" /><circle cx="164.725505183" cy="536.904694258" fill="rgb(100%,0%,0%)" r="0.7" /><circle cx="162.720911586" cy="539.136668069" fill="rgb(100%,0%,0%)" r="0.7" /><circle cx="160.707600744" cy="541.360746793" fill="rgb(100%,0%,0%)" r="0.7" /><circle cx="158.683482287" cy="543.575016872" fill="rgb(100%,0%,0%)" r="0.7" /><circle cx="156.645521235" cy="545.776523461" fill="rgb(100%,0%,0%)" r="0.7" /><circle cx="154.588793656" cy="547.960510035" fill="rgb(100%,0%,0%)" r="0.7" /><circle cx="152.504472339" cy="550.118147401" fill="rgb(100%,0%,0%)" r="0.7" /><circle cx="150.382913978" cy="552.238936594" fill="rgb(100%,0%,0%)" r="0.7" /><circle cx="148.30562788" cy="554.403406" fill="rgb(100%,0%,0%)" r="0.7" /><circle cx="146.229641237" cy="556.569130747" fill="rgb(100%,0%,0%)" r="0.7" /><circle cx="144.154736887" cy="558.735884615" fill="rgb(100%,0%,0%)" r="0.7" /><circle cx="142.080860811" cy="560.903609499" fill="rgb(100%,0%,0%)" r="0.7" /><circle cx="140.008001391" cy="563.072303451" fill="rgb(100%,0%,0%)" r="0.7" /><circle cx="137.936173113" cy="565.241991239" fill="rgb(100%,0%,0%)" r="0.7" /><circle cx="135.865423421" cy="567.412701887" fill="rgb(100%,0%,0%)" r="0.7" /><circle cx="133.795802809" cy="569.584495048" fill="rgb(100%,0%,0%)" r="0.7" /><circle cx="131.727387716" cy="571.757436936" fill="rgb(100%,0%,0%)" r="0.7" /><circle cx="129.660269732" cy="573.931614784" fill="rgb(100%,0%,0%)" r="0.7" /><circle cx="127.5945665" cy="576.10713144" fill="rgb(100%,0%,0%)" r="0.7" /><circle cx="125.530414724" cy="578.28412209" fill="rgb(100%,0%,0%)" r="0.7" /><circle cx="123.467989466" cy="580.462747693" fill="rgb(100%,0%,0%)" r="0.7" /><circle cx="121.407506552" cy="582.643212506" fill="rgb(100%,0%,0%)" r="0.7" /><circle cx="119.34924578" cy="584.825769365" fill="rgb(100%,0%,0%)" r="0.7" /><circle cx="117.293561408" cy="587.010754127" fill="rgb(100%,0%,0%)" r="0.7" /><circle cx="115.240926666" cy="589.198610944" fill="rgb(100%,0%,0%)" r="0.7" /><circle cx="113.191999618" cy="591.389943627" fill="rgb(100%,0%,0%)" r="0.7" /><circle cx="111.147734273" cy="593.585614935" fill="rgb(100%,0%,0%)" r="0.7" /><circle cx="109.109577404" cy="595.786964341" fill="rgb(100%,0%,0%)" r="0.7" /><circle cx="107.07998823" cy="597.99620659" fill="rgb(100%,0%,0%)" r="0.7" /><circle cx="105.063748475" cy="600.217617831" fill="rgb(100%,0%,0%)" r="0.7" /><circle cx="103.073112595" cy="602.462005174" fill="rgb(100%,0%,0%)" r="0.7" /><circle cx="104.658725694" cy="602.134516392" fill="rgb(100%,0%,0%)" r="0.7" /><circle cx="107.414423476" cy="600.948712978" fill="rgb(100%,0%,0%)" r="0.7" /><circle cx="110.170121258" cy="599.762909565" fill="rgb(100%,0%,0%)" r="0.7" /><circle cx="112.925819039" cy="598.577106151" fill="rgb(100%,0%,0%)" r="0.7" /><circle cx="115.681516821" cy="597.391302737" fill="rgb(100%,0%,0%)" r="0.7" /><circle cx="118.437214603" cy="596.205499323" fill="rgb(100%,0%,0%)" r="0.7" /><circle cx="120.737619407" cy="595.556404527" fill="rgb(100%,0%,0%)" r="0.7" /><circle cx="120.016989128" cy="598.468567298" fill="rgb(100%,0%,0%)" r="0.7" /><circle cx="119.29635885" cy="601.380730068" fill="rgb(100%,0%,0%)" r="0.7" /><circle cx="118.575728571" cy="604.292892839" fill="rgb(100%,0%,0%)" r="0.7" /><circle cx="117.855098293" cy="607.205055609" fill="rgb(100%,0%,0%)" r="0.7" /><circle cx="117.134468014" cy="610.11721838" fill="rgb(100%,0%,0%)" r="0.7" /><circle cx="116.413837736" cy="613.02938115" fill="rgb(100%,0%,0%)" r="0.7" /><circle cx="115.693207458" cy="615.941543921" fill="rgb(100%,0%,0%)" r="0.7" /><circle cx="115.331" cy="618.045" fill="rgb(100%,0%,0%)" r="0.7" /><circle cx="325.393919477" cy="247.794774017" fill="rgb(0%,0%,100%)" r="0.7" /><circle cx="328.390786446" cy="247.842587789" fill="rgb(0%,0%,100%)" r="0.7" /><circle cx="331.006854693" cy="249.012254498" fill="rgb(0%,0%,100%)" r="0.7" /><circle cx="332.224560286" cy="251.666314096" fill="rgb(0%,0%,100%)" r="0.7" /><circle cx="333.218229372" cy="254.496453766" fill="rgb(0%,0%,100%)" r="0.7" /><circle cx="334.09397729" cy="257.365690723" fill="rgb(0%,0%,100%)" r="0.7" /><circle cx="334.909648305" cy="260.252640856" fill="rgb(0%,0%,100%)" r="0.7" /><circle cx="335.68653403" cy="263.150289363" fill="rgb(0%,0%,100%)" r="0.7" /><circle cx="336.435103099" cy="266.055388143" fill="rgb(0%,0%,100%)" r="0.7" /><circle cx="337.161145949" cy="268.966200928" fill="rgb(0%,0%,100%)" r="0.7" /><circle cx="337.867736268" cy="271.881799104" fill="rgb(0%,0%,100%)" r="0.7" /><circle cx="338.554849309" cy="274.802048077" fill="rgb(0%,0%,100%)" r="0.7" /><circle cx="338.836578088" cy="277.785980259" fill="rgb(0%,0%,100%)" r="0.7" /><circle cx="339.013923111" cy="280.7806683" fill="rgb(0%,0%,100%)" r="0.7" /><circle cx="339.11850458" cy="283.778767355" fill="rgb(0%,0%,100%)" r="0.7" /><circle cx="339.142422056" cy="286.778574851" fill="rgb(0%,0%,100%)" r="0.7" /><circle cx="339.076034678" cy="289.777712812" fill="rgb(0%,0%,100%)" r="0.7" /><circle cx="338.907273695" cy="292.77279157" fill="rgb(0%,0%,100%)" r="0.7" /><circle cx="338.62048943" cy="295.758826854" fill="rgb(0%,0%,100%)" r="0.7" /><circle cx="338.194311001" cy="298.728058707" fill="rgb(0%,0%,100%)" r="0.7" /><circle cx="337.596927675" cy="301.66743369" fill="rgb(0%,0%,100%)" r="0.7" /><circle cx="336.77197547" cy="304.550622395" fill="rgb(0%,0%,100%)" r="0.7" /><circle cx="335.812544932" cy="307.373757038" fill="rgb(0%,0%,100%)" r="0.7" /><circle cx="335.293490892" cy="310.328440351" fill="rgb(0%,0%,100%)" r="0.7" /><circle cx="334.707771604" cy="313.270663403" fill="rgb(0%,0%,100%)" r="0.7" /><circle cx="334.062747052" cy="316.200451552" fill="rgb(0%,0%,100%)" r="0.7" /><circle cx="333.364560914" cy="319.118028985" fill="rgb(0%,0%,100%)" r="0.7" /><circle cx="332.618391436" cy="322.023724234" fill="rgb(0%,0%,100%)" r="0.7" /><circle cx="331.828651407" cy="324.917883359" fill="rgb(0%,0%,100%)" r="0.7" /><circle cx="330.999120189" cy="327.800895314" fill="rgb(0%,0%,100%)" r="0.7" /><circle cx="330.133062568" cy="330.673150053" fill="rgb(0%,0%,100%)" r="0.7" /><circle cx="329.23331607" cy="333.535032713" fill="rgb(0%,0%,100%)" r="0.7" /><circle cx="328.302361697" cy="336.386915428" fill="rgb(0%,0%,100%)" r="0.7" /><circle cx="327.3423774" cy="339.229161578" fill="rgb(0%,0%,100%)" r="0.7" /><circle cx="326.355287779" cy="342.062110231" fill="rgb(0%,0%,100%)" r="0.7" /><circle cx="325.342798722" cy="344.886082141" fill="rgb(0%,0%,100%)" r="0.7" /><circle cx="324.306427929" cy="347.701378297" fill="rgb(0%,0%,100%)" r="0.7" /><circle cx="323.247529995" cy="350.508279319" fill="rgb(0%,0%,100%)" r="0.7" /><circle cx="322.167317424" cy="353.307044577" fill="rgb(0%,0%,100%)" r="0.7" /><circle cx="321.066872698" cy="356.097925193" fill="rgb(0%,0%,100%)" r="0.7" /><circle cx="319.947175439" cy="358.881131298" fill="rgb(0%,0%,100%)" r="0.7" /><circle cx="318.809095865" cy="361.656878571" fill="rgb(0%,0%,100%)" r="0.7" /><circle cx="317.65342239" cy="364.42534366" fill="rgb(0%,0%,100%)" r="0.7" /><circle cx="316.480858911" cy="367.18669062" fill="rgb(0%,0%,100%)" r="0.7" /><circle cx="315.29202401" cy="369.941086321" fill="rgb(0%,0%,100%)" r="0.7" /><circle cx="314.087481502" cy="372.688639663" fill="rgb(0%,0%,100%)" r="0.7" /><circle cx="312.867712937" cy="375.429471832" fill="rgb(0%,0%,100%)" r="0.7" /><circle cx="311.633140779" cy="378.163664601" fill="rgb(0%,0%,100%)" r="0.7" /><circle cx="310.38411638" cy="380.891284256" fill="rgb(0%,0%,100%)" r="0.7" /><circle cx="309.120919313" cy="383.612372524" fill="rgb(0%,0%,100%)" r="0.7" /><circle cx="307.843758232" cy="386.326925687" fill="rgb(0%,0%,100%)" r="0.7" /><circle cx="306.552734272" cy="389.034939214" fill="rgb(0%,0%,100%)" r="0.7" /><circle cx="305.247871759" cy="391.736287298" fill="rgb(0%,0%,100%)" r="0.7" /><circle cx="303.9290125" cy="394.430847032" fill="rgb(0%,0%,100%)" r="0.7" /><circle cx="302.595810361" cy="397.11832883" fill="rgb(0%,0%,100%)" r="0.7" /><circle cx="301.247551024" cy="399.798271145" fill="rgb(0%,0%,100%)" r="0.7" /><circle cx="299.882759423" cy="402.469869349" fill="rgb(0%,0%,100%)" r="0.7" /><circle cx="298.49770523" cy="405.13096922" fill="rgb(0%,0%,100%)" r="0.7" /><circle cx="296.973411238" cy="407.713382764" fill="rgb(0%,0%,100%)" r="0.7" /><circle cx="295.354459652" cy="410.239058943" fill="rgb(0%,0%,100%)" r="0.7" /><circle cx="293.705573121" cy="412.745267904" fill="rgb(0%,0%,100%)" r="0.7" /><circle cx="292.038669781" cy="415.239516654" fill="rgb(0%,0%,100%)" r="0.7" /><circle cx="290.359354117" cy="417.725464298" fill="rgb(0%,0%,100%)" r="0.7" /><circle cx="288.670832901" cy="420.205162223" fill="rgb(0%,0%,100%)" r="0.7" /><circle cx="286.97510431" cy="422.679956124" fill="rgb(0%,0%,100%)" r="0.7" /><circle cx="285.273560087" cy="425.150714531" fill="rgb(0%,0%,100%)" r="0.7" /><circle cx="283.567141987" cy="427.618140765" fill="rgb(0%,0%,100%)" r="0.7" /><circle cx="281.856595614" cy="430.082695628" fill="rgb(0%,0%,100%)" r="0.7" /><circle cx="280.142471695" cy="432.544765653" fill="rgb(0%,0%,100%)" r="0.7" /><circle cx="278.425208087" cy="435.004649483" fill="rgb(0%,0%,100%)" r="0.7" /><circle cx="276.705161406" cy="437.462580442" fill="rgb(0%,0%,100%)" r="0.7" /><circle cx="274.982609412" cy="439.918768738" fill="rgb(0%,0%,100%)" r="0.7" /><circle cx="273.257801759" cy="442.373360749" fill="rgb(0%,0%,100%)" r="0.7" /><circle cx="271.530928842" cy="444.826506126" fill="rgb(0%,0%,100%)" r="0.7" /><circle cx="269.802161807" cy="447.278317327" fill="rgb(0%,0%,100%)" r="0.7" /><circle cx="268.071645248" cy="449.728892379" fill="rgb(0%,0%,100%)" r="0.7" /><circle cx="266.339502053" cy="452.178317282" fill="rgb(0%,0%,100%)" r="0.7" /><circle cx="264.605835067" cy="454.626670735" fill="rgb(0%,0%,100%)" r="0.7" /><circle cx="262.870746412" cy="457.074002343" fill="rgb(0%,0%,100%)" r="0.7" /><circle cx="261.134304517" cy="459.520383365" fill="rgb(0%,0%,100%)" r="0.7" /><circle cx="259.396581176" cy="461.965857637" fill="rgb(0%,0%,100%)" r="0.7" /><circle cx="257.657639937" cy="464.410460395" fill="rgb(0%,0%,100%)" r="0.7" /><circle cx="255.917526485" cy="466.854233447" fill="rgb(0%,0%,100%)" r="0.7" /><circle cx="254.176284906" cy="469.297203263" fill="rgb(0%,0%,100%)" r="0.7" /><circle cx="252.433951561" cy="471.739389783" fill="rgb(0%,0%,100%)" r="0.7" /><circle cx="250.690543318" cy="474.18082207" fill="rgb(0%,0%,100%)" r="0.7" /><circle cx="248.946100514" cy="476.621475893" fill="rgb(0%,0%,100%)" r="0.7" /><circle cx="247.200586634" cy="479.061409344" fill="rgb(0%,0%,100%)" r="0.7" /><circle cx="245.454008767" cy="481.500584608" fill="rgb(0%,0%,100%)" r="0.7" /><circle cx="243.706354562" cy="483.938935048" fill="rgb(0%,0%,100%)" r="0.7" /><circle cx="241.9574783" cy="486.376467384" fill="rgb(0%,0%,100%)" r="0.7" /><circle cx="240.207152818" cy="488.812939928" fill="rgb(0%,0%,100%)" r="0.7" /><circle cx="238.387505587" cy="491.197590709" fill="rgb(0%,0%,100%)" r="0.7" /><circle cx="236.53778691" cy="493.559480409" fill="rgb(0%,0%,100%)" r="0.7" /><circle cx="234.676417102" cy="495.912199681" fill="rgb(0%,0%,100%)" r="0.7" /><circle cx="232.80371464" cy="498.255908141" fill="rgb(0%,0%,100%)" r="0.7" /><circle cx="230.919981869" cy="500.590762024" fill="rgb(0%,0%,100%)" r="0.7" /><circle cx="229.025510073" cy="502.916909021" fill="rgb(0%,0%,100%)" r="0.7" /><circle cx="227.120574053" cy="505.234496056" fill="rgb(0%,0%,100%)" r="0.7" /><circle cx="225.205438573" cy="507.543662332" fill="rgb(0%,0%,100%)" r="0.7" /><circle cx="223.280358136" cy="509.844540638" fill="rgb(0%,0%,100%)" r="0.7" /><circle cx="221.345568709" cy="512.137268012" fill="rgb(0%,0%,100%)" r="0.7" /><circle cx="219.401310071" cy="514.421960008" fill="rgb(0%,0%,100%)" r="0.7" /><circle cx="217.447790467" cy="516.698753144" fill="rgb(0%,0%,100%)" r="0.7" /><circle cx="215.485236104" cy="518.967747559" fill="rgb(0%,0%,100%)" r="0.7" /><circle cx="213.513833446" cy="521.229074831" fill="rgb(0%,0%,100%)" r="0.7" /><circle cx="211.533790166" cy="523.482828075" fill="rgb(0%,0%,100%)" r="0.7" /><circle cx="209.545283913" cy="525.729121431" fill="rgb(0%,0%,100%)" r="0.7" /><circle cx="207.548490751" cy="527.968057861" fill="rgb(0%,0%,100%)" r="0.7" /><circle cx="205.543589043" cy="530.199725562" fill="rgb(0%,0%,100%)" r="0.7" /><circle cx="203.530738354" cy="532.424222006" fill="rgb(0%,0%,100%)" r="0.7" /><circle cx="201.510082984" cy="534.641650008" fill="rgb(0%,0%,100%)" r="0.7" /><circle cx="199.481783668" cy="536.852083326" fill="rgb(0%,0%,100%)" r="0.7" /><circle cx="197.44598197" cy="539.055606268" fill="rgb(0%,0%,100%)" r="0.7" /><circle cx="195.402813756" cy="541.252299053" fill="rgb(0%,0%,100%)" r="0.7" /><circle cx="193.35240993" cy="543.442237303" fill="rgb(0%,0%,100%)" r="0.7" /><circle cx="191.294897303" cy="545.625491385" fill="rgb(0%,0%,100%)" r="0.7" /><circle cx="189.230387373" cy="547.802138447" fill="rgb(0%,0%,100%)" r="0.7" /><circle cx="187.158990308" cy="549.972247655" fill="rgb(0%,0%,100%)" r="0.7" /><circle cx="185.080837531" cy="552.135857026" fill="rgb(0%,0%,100%)" r="0.7" /><circle cx="182.995999543" cy="554.293059138" fill="rgb(0%,0%,100%)" r="0.7" /><circle cx="180.904609766" cy="556.443872451" fill="rgb(0%,0%,100%)" r="0.7" /><circle cx="178.806728954" cy="558.588381649" fill="rgb(0%,0%,100%)" r="0.7" /><circle cx="176.702457262" cy="560.726621996" fill="rgb(0%,0%,100%)" r="0.7" /><circle cx="174.59188352" cy="562.858631731" fill="rgb(0%,0%,100%)" r="0.7" /><circle cx="172.475088924" cy="564.984448066" fill="rgb(0%,0%,100%)" r="0.7" /><circle cx="170.352115017" cy="567.104138827" fill="rgb(0%,0%,100%)" r="0.7" /><circle cx="168.22306986" cy="569.217696152" fill="rgb(0%,0%,100%)" r="0.7" /><circle cx="166.087985663" cy="571.32517837" fill="rgb(0%,0%,100%)" r="0.7" /><circle cx="163.946941075" cy="573.426587964" fill="rgb(0%,0%,100%)" r="0.7" /><circle cx="161.799978154" cy="575.52195336" fill="rgb(0%,0%,100%)" r="0.7" /><circle cx="159.64715721" cy="577.611274433" fill="rgb(0%,0%,100%)" r="0.7" /><circle cx="157.488482158" cy="579.694594292" fill="rgb(0%,0%,100%)" r="0.7" /><circle cx="155.32402509" cy="581.771877861" fill="rgb(0%,0%,100%)" r="0.7" /><circle cx="153.15379445" cy="583.843138267" fill="rgb(0%,0%,100%)" r="0.7" /><circle cx="150.97783924" cy="585.908335409" fill="rgb(0%,0%,100%)" r="0.7" /><circle cx="148.796123309" cy="587.967493915" fill="rgb(0%,0%,100%)" r="0.7" /><circle cx="146.60866378" cy="590.020569537" fill="rgb(0%,0%,100%)" r="0.7" /><circle cx="144.415494876" cy="592.0674819" fill="rgb(0%,0%,100%)" r="0.7" /><circle cx="142.216525078" cy="594.108244128" fill="rgb(0%,0%,100%)" r="0.7" /><circle cx="140.011794664" cy="596.14271863" fill="rgb(0%,0%,100%)" r="0.7" /><circle cx="137.801202606" cy="598.170865161" fill="rgb(0%,0%,100%)" r="0.7" /><circle cx="135.584739275" cy="600.19251828" fill="rgb(0%,0%,100%)" r="0.7" /><circle cx="133.362224065" cy="602.207616995" fill="rgb(0%,0%,100%)" r="0.7" /><circle cx="131.133602836" cy="604.215918432" fill="rgb(0%,0%,100%)" r="0.7" /><circle cx="128.898687943" cy="606.217211759" fill="rgb(0%,0%,100%)" r="0.7" /><circle cx="126.657275292" cy="608.211176326" fill="rgb(0%,0%,100%)" r="0.7" /><circle cx="124.40898495" cy="610.197463396" fill="rgb(0%,0%,100%)" r="0.7" /><circle cx="122.153421619" cy="612.17544182" fill="rgb(0%,0%,100%)" r="0.7" /><circle cx="119.889865955" cy="614.144230291" fill="rgb(0%,0%,100%)" r="0.7" /><circle cx="117.616975331" cy="616.102287116" fill="rgb(0%,0%,100%)" r="0.7" /><circle cx="115.331" cy="618.045" fill="rgb(0%,0%,100%)" r="0.7" /></svg>