<?xml version="1.0" encoding="utf-8" ?>
<svg baseProfile="full" height="100%" version="1.1" width="100%" xmlns="http://www.w3.org/2000/svg" xmlns:ev="http://www.w3.org/2001/xml-events" xmlns:xlink="http://www.w3.org/1999/xlink"><defs /><circle cx="347.94886301" cy="274.616514917" fill="rgb(100%,0%,0%)" r="0.7" /><circle cx="345.188575834" cy="275.77884767" fill="rgb(100%,0%,0%)" r="0.7" /><circle cx="342.57708337" cy="277.254257547" fill="rgb(100%,0%,0%)" r="0.7" /><circle cx="340.040155096" cy="278.855227371" fill="rgb(100%,0%,0%)" r="0.7" /><circle cx="337.550086705" cy="280.52830099" fill="rgb(100%,0%,0%)" r="0.7" /><circle cx="335.093116089" cy="282.249658845" fill="rgb(100%,0%,0%)" r="0.7" /><circle cx="332.661236575" cy="284.006322271" fill="rgb(100%,0%,0%)" r="0.7" /><circle cx="330.249331864" cy="285.790321191" fill="rgb(100%,0%,0%)" r="0.7" /><circle cx="327.853893589" cy="287.59637876" fill="rgb(100%,0%,0%)" r="0.7" /><circle cx="325.472411864" cy="289.42080052" fill="rgb(100%,0%,0%)" r="0.7" /><circle cx="323.103023272" cy="291.260904615" fill="rgb(100%,0%,0%)" r="0.7" /><circle cx="320.744321707" cy="293.11468636" fill="rgb(100%,0%,0%)" r="0.7" /><circle cx="318.395224014" cy="294.980633069" fill="rgb(100%,0%,0%)" r="0.7" /><circle cx="316.054916785" cy="296.857589053" fill="rgb(100%,0%,0%)" r="0.7" /><circle cx="313.722795619" cy="298.744703421" fill="rgb(100%,0%,0%)" r="0.7" /><circle cx="311.398458215" cy="300.641402485" fill="rgb(100%,0%,0%)" r="0.7" /><circle cx="309.081754762" cy="302.547409522" fill="rgb(100%,0%,0%)" r="0.7" /><circle cx="306.772912236" cy="304.462947935" fill="rgb(100%,0%,0%)" r="0.7" /><circle cx="304.473541662" cy="306.389845966" fill="rgb(100%,0%,0%)" r="0.7" /><circle cx="302.081357228" cy="308.198998887" fill="rgb(100%,0%,0%)" r="0.7" /><circle cx="299.733946762" cy="310.067065875" fill="rgb(100%,0%,0%)" r="0.7" /><circle cx="297.401180956" cy="311.953355139" fill="rgb(100%,0%,0%)" r="0.7" /><circle cx="295.076279724" cy="313.849351776" fill="rgb(100%,0%,0%)" r="0.7" /><circle cx="292.756511142" cy="315.751631978" fill="rgb(100%,0%,0%)" r="0.7" /><circle cx="290.440434783" cy="317.658419804" fill="rgb(100%,0%,0%)" r="0.7" /><circle cx="288.127199868" cy="319.568637689" fill="rgb(100%,0%,0%)" r="0.7" /><circle cx="285.816225155" cy="321.481597871" fill="rgb(100%,0%,0%)" r="0.7" /><circle cx="283.507114808" cy="323.396812491" fill="rgb(100%,0%,0%)" r="0.7" /><circle cx="281.199579454" cy="325.313925589" fill="rgb(100%,0%,0%)" r="0.7" /><circle cx="278.893399904" cy="327.232668339" fill="rgb(100%,0%,0%)" r="0.7" /><circle cx="276.588415473" cy="329.152823734" fill="rgb(100%,0%,0%)" r="0.7" /><circle cx="274.28446945" cy="331.074243511" fill="rgb(100%,0%,0%)" r="0.7" /><circle cx="271.981461638" cy="332.996785535" fill="rgb(100%,0%,0%)" r="0.7" /><circle cx="269.679299595" cy="334.920341522" fill="rgb(100%,0%,0%)" r="0.7" /><circle cx="267.377909058" cy="336.844819272" fill="rgb(100%,0%,0%)" r="0.7" /><circle cx="265.077225941" cy="338.7701428" fill="rgb(100%,0%,0%)" r="0.7" /><circle cx="262.777195607" cy="340.696248132" fill="rgb(100%,0%,0%)" r="0.7" /><circle cx="260.477773851" cy="342.623078888" fill="rgb(100%,0%,0%)" r="0.7" /><circle cx="258.178923369" cy="344.55058653" fill="rgb(100%,0%,0%)" r="0.7" /><circle cx="255.880605204" cy="346.478735507" fill="rgb(100%,0%,0%)" r="0.7" /><circle cx="253.582794788" cy="348.407488289" fill="rgb(100%,0%,0%)" r="0.7" /><circle cx="251.285481612" cy="350.336804547" fill="rgb(100%,0%,0%)" r="0.7" /><circle cx="248.988603744" cy="352.26669549" fill="rgb(100%,0%,0%)" r="0.7" /><circle cx="246.692190029" cy="354.197104131" fill="rgb(100%,0%,0%)" r="0.7" /><circle cx="244.396205599" cy="356.128035302" fill="rgb(100%,0%,0%)" r="0.7" /><circle cx="242.100651585" cy="358.059472814" fill="rgb(100%,0%,0%)" r="0.7" /><circle cx="239.805527068" cy="359.991413623" fill="rgb(100%,0%,0%)" r="0.7" /><circle cx="237.510829382" cy="361.923872357" fill="rgb(100%,0%,0%)" r="0.7" /><circle cx="235.216610146" cy="363.856845514" fill="rgb(100%,0%,0%)" r="0.7" /><circle cx="232.922835861" cy="365.790464249" fill="rgb(100%,0%,0%)" r="0.7" /><circle cx="230.635332703" cy="367.731199841" fill="rgb(100%,0%,0%)" r="0.7" /><circle cx="228.406334082" cy="369.738983543" fill="rgb(100%,0%,0%)" r="0.7" /><circle cx="226.209577008" cy="371.782071804" fill="rgb(100%,0%,0%)" r="0.7" /><circle cx="224.030326571" cy="373.843835235" fill="rgb(100%,0%,0%)" r="0.7" /><circle cx="221.862544067" cy="375.917654377" fill="rgb(100%,0%,0%)" r="0.7" /><circle cx="219.703049357" cy="378.000093924" fill="rgb(100%,0%,0%)" r="0.7" /><circle cx="217.549909834" cy="380.089113097" fill="rgb(100%,0%,0%)" r="0.7" /><circle cx="215.401858875" cy="382.183372068" fill="rgb(100%,0%,0%)" r="0.7" /><circle cx="213.258011279" cy="384.281937682" fill="rgb(100%,0%,0%)" r="0.7" /><circle cx="211.11772791" cy="386.384121902" fill="rgb(100%,0%,0%)" r="0.7" /><circle cx="208.980512906" cy="388.489417432" fill="rgb(100%,0%,0%)" r="0.7" /><circle cx="206.845972834" cy="390.597438685" fill="rgb(100%,0%,0%)" r="0.7" /><circle cx="204.713810691" cy="392.707864657" fill="rgb(100%,0%,0%)" r="0.7" /><circle cx="202.583779746" cy="394.820442834" fill="rgb(100%,0%,0%)" r="0.7" /><circle cx="200.455680197" cy="396.934964071" fill="rgb(100%,0%,0%)" r="0.7" /><circle cx="198.329343191" cy="399.051258433" fill="rgb(100%,0%,0%)" r="0.7" /><circle cx="196.204631027" cy="401.169180631" fill="rgb(100%,0%,0%)" r="0.7" /><circle cx="194.081421571" cy="403.288615069" fill="rgb(100%,0%,0%)" r="0.7" /><circle cx="191.959619729" cy="405.409456728" fill="rgb(100%,0%,0%)" r="0.7" /><circle cx="189.839143932" cy="407.531619055" fill="rgb(100%,0%,0%)" r="0.7" /><circle cx="187.719916619" cy="409.655039603" fill="rgb(100%,0%,0%)" r="0.7" /><circle cx="185.601887802" cy="411.779654006" fill="rgb(100%,0%,0%)" r="0.7" /><circle cx="183.485016911" cy="413.905413207" fill="rgb(100%,0%,0%)" r="0.7" /><circle cx="181.369263259" cy="416.032294015" fill="rgb(100%,0%,0%)" r="0.7" /><circle cx="179.254628475" cy="418.160260289" fill="rgb(100%,0%,0%)" r="0.7" /><circle cx="177.141081068" cy="420.28934817" fill="rgb(100%,0%,0%)" r="0.7" /><circle cx="175.028693644" cy="422.419550534" fill="rgb(100%,0%,0%)" r="0.7" /><circle cx="172.917531272" cy="424.550995727" fill="rgb(100%,0%,0%)" r="0.7" /><circle cx="170.808" cy="426.684" fill="rgb(100%,0%,0%)" r="0.7" /><circle cx="173.493230572" cy="426.564720445" fill="rgb(100%,0%,0%)" r="0.7" /><circle cx="176.490275161" cy="426.431589923" fill="rgb(100%,0%,0%)" r="0.7" /><circle cx="179.487319749" cy="426.298459402" fill="rgb(100%,0%,0%)" r="0.7" /><circle cx="182.484364337" cy="426.16532888" fill="rgb(100%,0%,0%)" r="0.7" /><circle cx="184.77513255" cy="426.75697342" fill="rgb(100%,0%,0%)" r="0.7" /><circle cx="184.719516998" cy="429.756457861" fill="rgb(100%,0%,0%)" r="0.7" /><circle cx="184.663901445" cy="432.755942302" fill="rgb(100%,0%,0%)" r="0.7" /><circle cx="184.608285893" cy="435.755426743" fill="rgb(100%,0%,0%)" r="0.7" /><circle cx="184.552670341" cy="438.754911183" fill="rgb(100%,0%,0%)" r="0.7" /><circle cx="184.497054788" cy="441.754395624" fill="rgb(100%,0%,0%)" r="0.7" /><circle cx="347.94886301" cy="274.616514917" fill="rgb(0%,0%,100%)" r="0.7" /><circle cx="350.906676656" cy="274.764855958" fill="rgb(0%,0%,100%)" r="0.7" /><circle cx="353.74234283" cy="275.73043671" fill="rgb(0%,0%,100%)" r="0.7" /><circle cx="356.341002797" cy="277.219610378" fill="rgb(0%,0%,100%)" r="0.7" /><circle cx="358.583880795" cy="279.203772202" fill="rgb(0%,0%,100%)" r="0.7" /><circle cx="360.369633273" cy="281.607906754" fill="rgb(0%,0%,100%)" r="0.7" /><circle cx="361.657927553" cy="284.312587642" fill="rgb(0%,0%,100%)" r="0.7" /><circle cx="362.475577284" cy="287.195925653" fill="rgb(0%,0%,100%)" r="0.7" /><circle cx="362.951626906" cy="290.157022417" fill="rgb(0%,0%,100%)" r="0.7" /><circle cx="363.19542484" cy="293.146439314" fill="rgb(0%,0%,100%)" r="0.7" /><circle cx="363.234702905" cy="296.145664354" fill="rgb(0%,0%,100%)" r="0.7" /><circle cx="363.08969509" cy="299.141724457" fill="rgb(0%,0%,100%)" r="0.7" /><circle cx="362.773583273" cy="302.124631232" fill="rgb(0%,0%,100%)" r="0.7" /><circle cx="362.292445922" cy="305.085406747" fill="rgb(0%,0%,100%)" r="0.7" /><circle cx="361.644037492" cy="308.014057864" fill="rgb(0%,0%,100%)" r="0.7" /><circle cx="360.814053401" cy="310.896370816" fill="rgb(0%,0%,100%)" r="0.7" /><circle cx="359.765699065" cy="313.706185184" fill="rgb(0%,0%,100%)" r="0.7" /><circle cx="358.405039272" cy="316.376733679" fill="rgb(0%,0%,100%)" r="0.7" /><circle cx="356.578152191" cy="318.748642385" fill="rgb(0%,0%,100%)" r="0.7" /><circle cx="354.120638539" cy="320.432016464" fill="rgb(0%,0%,100%)" r="0.7" /><circle cx="351.211944273" cy="321.109174696" fill="rgb(0%,0%,100%)" r="0.7" /><circle cx="348.222783804" cy="320.954128489" fill="rgb(0%,0%,100%)" r="0.7" /><circle cx="345.289305883" cy="320.537996871" fill="rgb(0%,0%,100%)" r="0.7" /><circle cx="342.360820557" cy="321.182204514" fill="rgb(0%,0%,100%)" r="0.7" /><circle cx="339.50603583" cy="322.101278799" fill="rgb(0%,0%,100%)" r="0.7" /><circle cx="336.736141335" cy="323.251485603" fill="rgb(0%,0%,100%)" r="0.7" /><circle cx="334.063980668" cy="324.613529289" fill="rgb(0%,0%,100%)" r="0.7" /><circle cx="331.502361575" cy="326.173626612" fill="rgb(0%,0%,100%)" r="0.7" /><circle cx="329.021098316" cy="327.859729781" fill="rgb(0%,0%,100%)" r="0.7" /><circle cx="326.547310176" cy="329.556855676" fill="rgb(0%,0%,100%)" r="0.7" /><circle cx="324.078516889" cy="331.261286281" fill="rgb(0%,0%,100%)" r="0.7" /><circle cx="321.613943078" cy="332.971844954" fill="rgb(0%,0%,100%)" r="0.7" /><circle cx="319.153244612" cy="334.687898788" fill="rgb(0%,0%,100%)" r="0.7" /><circle cx="316.6961289" cy="336.409118282" fill="rgb(0%,0%,100%)" r="0.7" /><circle cx="314.242432065" cy="338.135262993" fill="rgb(0%,0%,100%)" r="0.7" /><circle cx="311.79209428" cy="339.866127641" fill="rgb(0%,0%,100%)" r="0.7" /><circle cx="309.345027742" cy="341.601598633" fill="rgb(0%,0%,100%)" r="0.7" /><circle cx="306.901169186" cy="343.341596433" fill="rgb(0%,0%,100%)" r="0.7" /><circle cx="304.460527825" cy="345.086028151" fill="rgb(0%,0%,100%)" r="0.7" /><circle cx="302.023006369" cy="346.834906887" fill="rgb(0%,0%,100%)" r="0.7" /><circle cx="299.588661733" cy="348.588159395" fill="rgb(0%,0%,100%)" r="0.7" /><circle cx="297.157454309" cy="350.345801599" fill="rgb(0%,0%,100%)" r="0.7" /><circle cx="294.729431192" cy="352.107803821" fill="rgb(0%,0%,100%)" r="0.7" /><circle cx="292.304584323" cy="353.874191035" fill="rgb(0%,0%,100%)" r="0.7" /><circle cx="289.882938381" cy="355.644977675" fill="rgb(0%,0%,100%)" r="0.7" /><circle cx="287.464540873" cy="357.420173328" fill="rgb(0%,0%,100%)" r="0.7" /><circle cx="285.049405104" cy="359.19982366" fill="rgb(0%,0%,100%)" r="0.7" /><circle cx="282.637588675" cy="360.98395211" fill="rgb(0%,0%,100%)" r="0.7" /><circle cx="280.229118278" cy="362.772614774" fill="rgb(0%,0%,100%)" r="0.7" /><circle cx="277.824059998" cy="364.565848056" fill="rgb(0%,0%,100%)" r="0.7" /><circle cx="275.422442904" cy="366.363725229" fill="rgb(0%,0%,100%)" r="0.7" /><circle cx="273.024367457" cy="368.166275298" fill="rgb(0%,0%,100%)" r="0.7" /><circle cx="270.629865875" cy="369.973587537" fill="rgb(0%,0%,100%)" r="0.7" /><circle cx="268.239019215" cy="371.785723745" fill="rgb(0%,0%,100%)" r="0.7" /><circle cx="265.85190498" cy="373.602757634" fill="rgb(0%,0%,100%)" r="0.7" /><circle cx="263.468579447" cy="375.424788685" fill="rgb(0%,0%,100%)" r="0.7" /><circle cx="261.089148468" cy="377.25188836" fill="rgb(0%,0%,100%)" r="0.7" /><circle cx="258.713686874" cy="379.084161969" fill="rgb(0%,0%,100%)" r="0.7" /><circle cx="256.342310627" cy="380.921693638" fill="rgb(0%,0%,100%)" r="0.7" /><circle cx="253.975099686" cy="382.764606318" fill="rgb(0%,0%,100%)" r="0.7" /><circle cx="251.612168286" cy="384.613007959" fill="rgb(0%,0%,100%)" r="0.7" /><circle cx="249.253634259" cy="386.467015744" fill="rgb(0%,0%,100%)" r="0.7" /><circle cx="246.899624866" cy="388.326752188" fill="rgb(0%,0%,100%)" r="0.7" /><circle cx="244.550261583" cy="390.192357934" fill="rgb(0%,0%,100%)" r="0.7" /><circle cx="242.205682806" cy="392.063974685" fill="rgb(0%,0%,100%)" r="0.7" /><circle cx="239.866035243" cy="393.941752872" fill="rgb(0%,0%,100%)" r="0.7" /><circle cx="237.531474798" cy="395.825851968" fill="rgb(0%,0%,100%)" r="0.7" /><circle cx="235.20216874" cy="397.716439872" fill="rgb(0%,0%,100%)" r="0.7" /><circle cx="232.878291314" cy="399.613697742" fill="rgb(0%,0%,100%)" r="0.7" /><circle cx="230.560030696" cy="401.517815777" fill="rgb(0%,0%,100%)" r="0.7" /><circle cx="228.247587891" cy="403.428995657" fill="rgb(0%,0%,100%)" r="0.7" /><circle cx="225.941177697" cy="405.347451498" fill="rgb(0%,0%,100%)" r="0.7" /><circle cx="223.641029837" cy="407.27341088" fill="rgb(0%,0%,100%)" r="0.7" /><circle cx="221.347390244" cy="409.207115964" fill="rgb(0%,0%,100%)" r="0.7" /><circle cx="219.060522569" cy="411.1488247" fill="rgb(0%,0%,100%)" r="0.7" /><circle cx="216.780709934" cy="413.098812112" fill="rgb(0%,0%,100%)" r="0.7" /><circle cx="214.508256998" cy="415.057371673" fill="rgb(0%,0%,100%)" r="0.7" /><circle cx="212.243492387" cy="417.024816743" fill="rgb(0%,0%,100%)" r="0.7" /><circle cx="209.986771558" cy="419.001482089" fill="rgb(0%,0%,100%)" r="0.7" /><circle cx="207.738480173" cy="420.98772547" fill="rgb(0%,0%,100%)" r="0.7" /><circle cx="205.499038081" cy="422.983929272" fill="rgb(0%,0%,100%)" r="0.7" /><circle cx="203.268876556" cy="424.990527033" fill="rgb(0%,0%,100%)" r="0.7" /><circle cx="201.048511869" cy="427.007944288" fill="rgb(0%,0%,100%)" r="0.7" /><circle cx="198.83847946" cy="429.03666529" fill="rgb(0%,0%,100%)" r="0.7" /><circle cx="196.639357568" cy="431.077221474" fill="rgb(0%,0%,100%)" r="0.7" /><circle cx="194.451800528" cy="433.130171342" fill="rgb(0%,0%,100%)" r="0.7" /><circle cx="192.276530541" cy="435.196120068" fill="rgb(0%,0%,100%)" r="0.7" /><circle cx="190.114328469" cy="437.275743223" fill="rgb(0%,0%,100%)" r="0.7" /><circle cx="187.966066175" cy="439.369773848" fill="rgb(0%,0%,100%)" r="0.7" /><circle cx="185.832723874" cy="441.479006113" fill="rgb(0%,0%,100%)" r="0.7" /><circle cx="184.497054788" cy="441.754395624" fill="rgb(0%,0%,100%)" r="0.7" /></svg>