<?xml version="1.0" encoding="utf-8" ?>
<svg baseProfile="full" height="100%" version="1.1" width="100%" xmlns="http://www.w3.org/2000/svg" xmlns:ev="http://www.w3.org/2001/xml-events" xmlns:xlink="http://www.w3.org/1999/xlink"><defs /><circle cx="315.549716967" cy="339.676474936" fill="rgb(100%,0%,0%)" r="0.7" /><circle cx="312.558050232" cy="339.71718558" fill="rgb(100%,0%,0%)" r="0.7" /><circle cx="309.64272262" cy="340.406509016" fill="rgb(100%,0%,0%)" r="0.7" /><circle cx="306.870067536" cy="341.546268797" fill="rgb(100%,0%,0%)" r="0.7" /><circle cx="304.192056685" cy="342.895297844" fill="rgb(100%,0%,0%)" r="0.7" /><circle cx="301.571278026" cy="344.353425315" fill="rgb(100%,0%,0%)" r="0.7" /><circle cx="299.067616525" cy="346.005110978" fill="rgb(100%,0%,0%)" r="0.7" /><circle cx="296.679753936" cy="347.820308774" fill="rgb(100%,0%,0%)" r="0.7" /><circle cx="294.412983781" cy="349.784680233" fill="rgb(100%,0%,0%)" r="0.7" /><circle cx="292.27468141" cy="351.888177927" fill="rgb(100%,0%,0%)" r="0.7" /><circle cx="290.272892455" cy="354.121975476" fill="rgb(100%,0%,0%)" r="0.7" /><circle cx="288.415530736" cy="356.477233409" fill="rgb(100%,0%,0%)" r="0.7" /><circle cx="286.709802771" cy="358.944527004" fill="rgb(100%,0%,0%)" r="0.7" /><circle cx="285.161712701" cy="361.513674243" fill="rgb(100%,0%,0%)" r="0.7" /><circle cx="283.775695048" cy="364.173772378" fill="rgb(100%,0%,0%)" r="0.7" /><circle cx="282.554361091" cy="366.913407873" fill="rgb(100%,0%,0%)" r="0.7" /><circle cx="281.498389791" cy="369.720955664" fill="rgb(100%,0%,0%)" r="0.7" /><circle cx="280.639443158" cy="372.59418076" fill="rgb(100%,0%,0%)" r="0.7" /><circle cx="279.86530057" cy="375.49257367" fill="rgb(100%,0%,0%)" r="0.7" /><circle cx="279.092203486" cy="378.391258371" fill="rgb(100%,0%,0%)" r="0.7" /><circle cx="278.320113112" cy="381.290202615" fill="rgb(100%,0%,0%)" r="0.7" /><circle cx="277.54907331" cy="384.189422693" fill="rgb(100%,0%,0%)" r="0.7" /><circle cx="276.779178295" cy="387.088952694" fill="rgb(100%,0%,0%)" r="0.7" /><circle cx="276.010576665" cy="389.988825616" fill="rgb(100%,0%,0%)" r="0.7" /><circle cx="275.243479401" cy="392.889096574" fill="rgb(100%,0%,0%)" r="0.7" /><circle cx="274.478190195" cy="395.789843255" fill="rgb(100%,0%,0%)" r="0.7" /><circle cx="273.715158424" cy="398.691188505" fill="rgb(100%,0%,0%)" r="0.7" /><circle cx="272.955097069" cy="401.593311511" fill="rgb(100%,0%,0%)" r="0.7" /><circle cx="272.199243319" cy="404.496529318" fill="rgb(100%,0%,0%)" r="0.7" /><circle cx="271.450125183" cy="407.401496888" fill="rgb(100%,0%,0%)" r="0.7" /><circle cx="271.25218594" cy="409.613279214" fill="rgb(100%,0%,0%)" r="0.7" /><circle cx="273.88328697" cy="408.171992507" fill="rgb(100%,0%,0%)" r="0.7" /><circle cx="276.514387999" cy="406.730705801" fill="rgb(100%,0%,0%)" r="0.7" /><circle cx="279.145489029" cy="405.289419094" fill="rgb(100%,0%,0%)" r="0.7" /><circle cx="281.709819811" cy="405.32366649" fill="rgb(100%,0%,0%)" r="0.7" /><circle cx="284.199992983" cy="406.996698939" fill="rgb(100%,0%,0%)" r="0.7" /><circle cx="286.690166155" cy="408.669731388" fill="rgb(100%,0%,0%)" r="0.7" /><circle cx="289.180339326" cy="410.342763837" fill="rgb(100%,0%,0%)" r="0.7" /><circle cx="291.670512498" cy="412.015796286" fill="rgb(100%,0%,0%)" r="0.7" /><circle cx="294.16068567" cy="413.688828735" fill="rgb(100%,0%,0%)" r="0.7" /><circle cx="295.31" cy="414.461" fill="rgb(100%,0%,0%)" r="0.7" /><circle cx="315.549716967" cy="339.676474936" fill="rgb(0%,0%,100%)" r="0.7" /><circle cx="318.425919768" cy="340.483992524" fill="rgb(0%,0%,100%)" r="0.7" /><circle cx="320.875290216" cy="342.189749892" fill="rgb(0%,0%,100%)" r="0.7" /><circle cx="322.109423652" cy="344.839899048" fill="rgb(0%,0%,100%)" r="0.7" /><circle cx="322.440097464" cy="347.820800884" fill="rgb(0%,0%,100%)" r="0.7" /><circle cx="322.803158987" cy="350.787702047" fill="rgb(0%,0%,100%)" r="0.7" /><circle cx="323.860734359" cy="353.531507799" fill="rgb(0%,0%,100%)" r="0.7" /><circle cx="323.447718245" cy="356.483568456" fill="rgb(0%,0%,100%)" r="0.7" /><circle cx="322.145514695" cy="359.178323022" fill="rgb(0%,0%,100%)" r="0.7" /><circle cx="320.354500985" cy="361.581475245" fill="rgb(0%,0%,100%)" r="0.7" /><circle cx="318.267048856" cy="363.733888129" fill="rgb(0%,0%,100%)" r="0.7" /><circle cx="316.056786383" cy="365.759128737" fill="rgb(0%,0%,100%)" r="0.7" /><circle cx="314.001048521" cy="367.943645886" fill="rgb(0%,0%,100%)" r="0.7" /><circle cx="312.054462701" cy="370.225983009" fill="rgb(0%,0%,100%)" r="0.7" /><circle cx="310.218463319" cy="372.598208547" fill="rgb(0%,0%,100%)" r="0.7" /><circle cx="308.493502785" cy="375.052386767" fill="rgb(0%,0%,100%)" r="0.7" /><circle cx="306.879197806" cy="377.580745125" fill="rgb(0%,0%,100%)" r="0.7" /><circle cx="305.374473085" cy="380.175832864" fill="rgb(0%,0%,100%)" r="0.7" /><circle cx="303.977729995" cy="382.830617509" fill="rgb(0%,0%,100%)" r="0.7" /><circle cx="302.687007965" cy="385.538555637" fill="rgb(0%,0%,100%)" r="0.7" /><circle cx="301.500153177" cy="388.293606807" fill="rgb(0%,0%,100%)" r="0.7" /><circle cx="300.414956266" cy="391.090280326" fill="rgb(0%,0%,100%)" r="0.7" /><circle cx="299.429324195" cy="393.923589807" fill="rgb(0%,0%,100%)" r="0.7" /><circle cx="298.5414418" cy="396.789043645" fill="rgb(0%,0%,100%)" r="0.7" /><circle cx="297.749977164" cy="399.682611835" fill="rgb(0%,0%,100%)" r="0.7" /><circle cx="297.054365981" cy="402.600719509" fill="rgb(0%,0%,100%)" r="0.7" /><circle cx="296.455319531" cy="405.540156585" fill="rgb(0%,0%,100%)" r="0.7" /><circle cx="295.955828603" cy="408.498139222" fill="rgb(0%,0%,100%)" r="0.7" /><circle cx="295.564009151" cy="411.472240514" fill="rgb(0%,0%,100%)" r="0.7" /><circle cx="295.31" cy="414.461" fill="rgb(0%,0%,100%)" r="0.7" /></svg>