<?xml version="1.0" encoding="utf-8" ?>
<svg baseProfile="full" height="100%" version="1.1" width="100%" xmlns="http://www.w3.org/2000/svg" xmlns:ev="http://www.w3.org/2001/xml-events" xmlns:xlink="http://www.w3.org/1999/xlink"><defs /><circle cx="249.019272659" cy="303.250851216" fill="rgb(100%,0%,0%)" r="0.7" /><circle cx="246.023371546" cy="303.350159429" fill="rgb(100%,0%,0%)" r="0.7" /><circle cx="243.05989582" cy="303.808119167" fill="rgb(100%,0%,0%)" r="0.7" /><circle cx="240.154469681" cy="304.55092151" fill="rgb(100%,0%,0%)" r="0.7" /><circle cx="237.377893194" cy="305.678326387" fill="rgb(100%,0%,0%)" r="0.7" /><circle cx="234.768103732" cy="307.154852765" fill="rgb(100%,0%,0%)" r="0.7" /><circle cx="232.310519902" cy="308.873881312" fill="rgb(100%,0%,0%)" r="0.7" /><circle cx="229.987008717" cy="310.770732797" fill="rgb(100%,0%,0%)" r="0.7" /><circle cx="227.779955134" cy="312.802180797" fill="rgb(100%,0%,0%)" r="0.7" /><circle cx="225.674292711" cy="314.93870088" fill="rgb(100%,0%,0%)" r="0.7" /><circle cx="223.657724238" cy="317.159599744" fill="rgb(100%,0%,0%)" r="0.7" /><circle cx="221.720430499" cy="319.450033479" fill="rgb(100%,0%,0%)" r="0.7" /><circle cx="219.854714996" cy="321.799179441" fill="rgb(100%,0%,0%)" r="0.7" /><circle cx="218.054753545" cy="324.199102769" fill="rgb(100%,0%,0%)" r="0.7" /><circle cx="216.316516276" cy="326.644108869" fill="rgb(100%,0%,0%)" r="0.7" /><circle cx="214.638035093" cy="329.130533889" fill="rgb(100%,0%,0%)" r="0.7" /><circle cx="213.020805477" cy="331.657213985" fill="rgb(100%,0%,0%)" r="0.7" /><circle cx="211.440513825" cy="334.204855254" fill="rgb(100%,0%,0%)" r="0.7" /><circle cx="209.687430322" cy="336.639029704" fill="rgb(100%,0%,0%)" r="0.7" /><circle cx="208.034569911" cy="339.142432972" fill="rgb(100%,0%,0%)" r="0.7" /><circle cx="206.468029226" cy="341.700795046" fill="rgb(100%,0%,0%)" r="0.7" /><circle cx="204.976891486" cy="344.303862342" fill="rgb(100%,0%,0%)" r="0.7" /><circle cx="203.552510357" cy="346.944072572" fill="rgb(100%,0%,0%)" r="0.7" /><circle cx="202.187993036" cy="349.615731616" fill="rgb(100%,0%,0%)" r="0.7" /><circle cx="200.87783997" cy="352.314477331" fill="rgb(100%,0%,0%)" r="0.7" /><circle cx="199.617693341" cy="355.03694111" fill="rgb(100%,0%,0%)" r="0.7" /><circle cx="198.404190642" cy="357.780513507" fill="rgb(100%,0%,0%)" r="0.7" /><circle cx="197.234902006" cy="360.543231588" fill="rgb(100%,0%,0%)" r="0.7" /><circle cx="196.108438443" cy="363.32367859" fill="rgb(100%,0%,0%)" r="0.7" /><circle cx="195.024820658" cy="366.121108056" fill="rgb(100%,0%,0%)" r="0.7" /><circle cx="193.986973149" cy="368.93582221" fill="rgb(100%,0%,0%)" r="0.7" /><circle cx="192.986945489" cy="371.764033364" fill="rgb(100%,0%,0%)" r="0.7" /><circle cx="192.259806914" cy="374.671129543" fill="rgb(100%,0%,0%)" r="0.7" /><circle cx="191.998415307" cy="377.656855881" fill="rgb(100%,0%,0%)" r="0.7" /><circle cx="192.165923563" cy="380.64988593" fill="rgb(100%,0%,0%)" r="0.7" /><circle cx="192.714530756" cy="383.59741756" fill="rgb(100%,0%,0%)" r="0.7" /><circle cx="193.607113536" cy="386.459768428" fill="rgb(100%,0%,0%)" r="0.7" /><circle cx="194.886962919" cy="389.167812126" fill="rgb(100%,0%,0%)" r="0.7" /><circle cx="196.668464148" cy="391.579337048" fill="rgb(100%,0%,0%)" r="0.7" /><circle cx="198.624039759" cy="393.854026289" fill="rgb(100%,0%,0%)" r="0.7" /><circle cx="200.655765206" cy="396.061205684" fill="rgb(100%,0%,0%)" r="0.7" /><circle cx="202.733069671" cy="398.225596032" fill="rgb(100%,0%,0%)" r="0.7" /><circle cx="204.841879818" cy="400.359326791" fill="rgb(100%,0%,0%)" r="0.7" /><circle cx="206.974462332" cy="402.469309123" fill="rgb(100%,0%,0%)" r="0.7" /><circle cx="209.126175452" cy="404.559787849" fill="rgb(100%,0%,0%)" r="0.7" /><circle cx="211.294180808" cy="406.633354559" fill="rgb(100%,0%,0%)" r="0.7" /><circle cx="213.47707354" cy="408.691266245" fill="rgb(100%,0%,0%)" r="0.7" /><circle cx="215.676" cy="410.732" fill="rgb(100%,0%,0%)" r="0.7" /><circle cx="249.019272659" cy="303.250851216" fill="rgb(0%,0%,100%)" r="0.7" /><circle cx="251.985061767" cy="303.664699183" fill="rgb(0%,0%,100%)" r="0.7" /><circle cx="254.735120089" cy="304.830958815" fill="rgb(0%,0%,100%)" r="0.7" /><circle cx="256.948831049" cy="306.835067616" fill="rgb(0%,0%,100%)" r="0.7" /><circle cx="258.000131403" cy="309.614595998" fill="rgb(0%,0%,100%)" r="0.7" /><circle cx="257.526504977" cy="312.537584532" fill="rgb(0%,0%,100%)" r="0.7" /><circle cx="255.585554293" cy="314.761835826" fill="rgb(0%,0%,100%)" r="0.7" /><circle cx="252.754768364" cy="315.712505175" fill="rgb(0%,0%,100%)" r="0.7" /><circle cx="250.003691377" cy="316.90034315" fill="rgb(0%,0%,100%)" r="0.7" /><circle cx="247.439583943" cy="318.45446536" fill="rgb(0%,0%,100%)" r="0.7" /><circle cx="245.048636081" cy="320.264717837" fill="rgb(0%,0%,100%)" r="0.7" /><circle cx="242.817769348" cy="322.26941776" fill="rgb(0%,0%,100%)" r="0.7" /><circle cx="240.690121198" cy="324.383683515" fill="rgb(0%,0%,100%)" r="0.7" /><circle cx="238.555046677" cy="326.491064881" fill="rgb(0%,0%,100%)" r="0.7" /><circle cx="236.473542374" cy="328.651338224" fill="rgb(0%,0%,100%)" r="0.7" /><circle cx="234.463579678" cy="330.878197388" fill="rgb(0%,0%,100%)" r="0.7" /><circle cx="232.573646694" cy="333.207233972" fill="rgb(0%,0%,100%)" r="0.7" /><circle cx="230.985090923" cy="335.745576474" fill="rgb(0%,0%,100%)" r="0.7" /><circle cx="229.520345044" cy="338.362255118" fill="rgb(0%,0%,100%)" r="0.7" /><circle cx="228.100971817" cy="341.005164236" fill="rgb(0%,0%,100%)" r="0.7" /><circle cx="226.748630794" cy="343.682969102" fill="rgb(0%,0%,100%)" r="0.7" /><circle cx="225.477159682" cy="346.400049454" fill="rgb(0%,0%,100%)" r="0.7" /><circle cx="224.313525113" cy="349.164893581" fill="rgb(0%,0%,100%)" r="0.7" /><circle cx="223.310642027" cy="351.991620899" fill="rgb(0%,0%,100%)" r="0.7" /><circle cx="222.592057857" cy="354.901913154" fill="rgb(0%,0%,100%)" r="0.7" /><circle cx="222.346150102" cy="357.889687265" fill="rgb(0%,0%,100%)" r="0.7" /><circle cx="222.244809057" cy="360.887731588" fill="rgb(0%,0%,100%)" r="0.7" /><circle cx="222.270404241" cy="363.887400941" fill="rgb(0%,0%,100%)" r="0.7" /><circle cx="222.430080424" cy="366.88286674" fill="rgb(0%,0%,100%)" r="0.7" /><circle cx="222.745430885" cy="369.865835844" fill="rgb(0%,0%,100%)" r="0.7" /><circle cx="223.252156618" cy="372.822062462" fill="rgb(0%,0%,100%)" r="0.7" /><circle cx="224.006016619" cy="375.724566643" fill="rgb(0%,0%,100%)" r="0.7" /><circle cx="225.093717136" cy="378.517816581" fill="rgb(0%,0%,100%)" r="0.7" /><circle cx="226.643974321" cy="381.079721266" fill="rgb(0%,0%,100%)" r="0.7" /><circle cx="228.583455097" cy="383.36734763" fill="rgb(0%,0%,100%)" r="0.7" /><circle cx="230.515673183" cy="385.662239823" fill="rgb(0%,0%,100%)" r="0.7" /><circle cx="232.462074581" cy="387.945108562" fill="rgb(0%,0%,100%)" r="0.7" /><circle cx="234.428558352" cy="390.210689456" fill="rgb(0%,0%,100%)" r="0.7" /><circle cx="236.432273015" cy="392.443332149" fill="rgb(0%,0%,100%)" r="0.7" /><circle cx="237.780445438" cy="394.173720029" fill="rgb(0%,0%,100%)" r="0.7" /><circle cx="234.804803536" cy="393.79220296" fill="rgb(0%,0%,100%)" r="0.7" /><circle cx="231.829161635" cy="393.410685891" fill="rgb(0%,0%,100%)" r="0.7" /><circle cx="228.853519733" cy="393.029168822" fill="rgb(0%,0%,100%)" r="0.7" /><circle cx="225.877877832" cy="392.647651753" fill="rgb(0%,0%,100%)" r="0.7" /><circle cx="222.90223593" cy="392.266134684" fill="rgb(0%,0%,100%)" r="0.7" /><circle cx="219.926594029" cy="391.884617615" fill="rgb(0%,0%,100%)" r="0.7" /><circle cx="216.950952127" cy="391.503100546" fill="rgb(0%,0%,100%)" r="0.7" /><circle cx="213.975310226" cy="391.121583477" fill="rgb(0%,0%,100%)" r="0.7" /><circle cx="210.999668324" cy="390.740066408" fill="rgb(0%,0%,100%)" r="0.7" /><circle cx="210.808369649" cy="392.784567188" fill="rgb(0%,0%,100%)" r="0.7" /><circle cx="211.593648194" cy="395.679966574" fill="rgb(0%,0%,100%)" r="0.7" /><circle cx="212.378926739" cy="398.575365961" fill="rgb(0%,0%,100%)" r="0.7" /><circle cx="213.164205285" cy="401.470765347" fill="rgb(0%,0%,100%)" r="0.7" /><circle cx="213.94948383" cy="404.366164733" fill="rgb(0%,0%,100%)" r="0.7" /><circle cx="214.734762376" cy="407.26156412" fill="rgb(0%,0%,100%)" r="0.7" /><circle cx="215.520040921" cy="410.156963506" fill="rgb(0%,0%,100%)" r="0.7" /><circle cx="215.676" cy="410.732" fill="rgb(0%,0%,100%)" r="0.7" /></svg>