<?xml version="1.0" encoding="utf-8" ?>
<svg baseProfile="full" height="100%" version="1.1" width="100%" xmlns="http://www.w3.org/2000/svg" xmlns:ev="http://www.w3.org/2001/xml-events" xmlns:xlink="http://www.w3.org/1999/xlink"><defs /><circle cx="287.398422618" cy="277.938337035" fill="rgb(100%,0%,0%)" r="0.7" /><circle cx="285.963357552" cy="280.192764075" fill="rgb(100%,0%,0%)" r="0.7" /><circle cx="286.419407736" cy="283.136020298" fill="rgb(100%,0%,0%)" r="0.7" /><circle cx="287.27775561" cy="286.010516485" fill="rgb(100%,0%,0%)" r="0.7" /><circle cx="288.068021438" cy="288.904495806" fill="rgb(100%,0%,0%)" r="0.7" /><circle cx="288.792295071" cy="291.815684853" fill="rgb(100%,0%,0%)" r="0.7" /><circle cx="289.443546596" cy="294.744054499" fill="rgb(100%,0%,0%)" r="0.7" /><circle cx="290.008733482" cy="297.69020248" fill="rgb(100%,0%,0%)" r="0.7" /><circle cx="290.466967119" cy="300.654790628" fill="rgb(100%,0%,0%)" r="0.7" /><circle cx="290.784388733" cy="303.637571429" fill="rgb(100%,0%,0%)" r="0.7" /><circle cx="290.914868601" cy="306.63423435" fill="rgb(100%,0%,0%)" r="0.7" /><circle cx="290.979986369" cy="309.633527064" fill="rgb(100%,0%,0%)" r="0.7" /><circle cx="291.026407157" cy="312.633158048" fill="rgb(100%,0%,0%)" r="0.7" /><circle cx="291.054286541" cy="315.633029733" fill="rgb(100%,0%,0%)" r="0.7" /><circle cx="291.061342287" cy="318.633013304" fill="rgb(100%,0%,0%)" r="0.7" /><circle cx="291.043376878" cy="321.632951006" fill="rgb(100%,0%,0%)" r="0.7" /><circle cx="290.993378531" cy="324.632518054" fill="rgb(100%,0%,0%)" r="0.7" /><circle cx="290.899018304" cy="327.630996618" fill="rgb(100%,0%,0%)" r="0.7" /><circle cx="290.735417066" cy="330.626421972" fill="rgb(100%,0%,0%)" r="0.7" /><circle cx="290.435148034" cy="333.610745196" fill="rgb(100%,0%,0%)" r="0.7" /><circle cx="289.683841784" cy="336.507197901" fill="rgb(100%,0%,0%)" r="0.7" /><circle cx="288.653572459" cy="339.324653071" fill="rgb(100%,0%,0%)" r="0.7" /><circle cx="287.545366012" cy="342.112329853" fill="rgb(100%,0%,0%)" r="0.7" /><circle cx="286.327589253" cy="344.853699755" fill="rgb(100%,0%,0%)" r="0.7" /><circle cx="284.903764751" cy="347.492353103" fill="rgb(100%,0%,0%)" r="0.7" /><circle cx="283.166873535" cy="349.93786791" fill="rgb(100%,0%,0%)" r="0.7" /><circle cx="281.188634532" cy="352.188264658" fill="rgb(100%,0%,0%)" r="0.7" /><circle cx="278.851304898" cy="354.064721182" fill="rgb(100%,0%,0%)" r="0.7" /><circle cx="276.338552009" cy="355.702791504" fill="rgb(100%,0%,0%)" r="0.7" /><circle cx="278.144902326" cy="355.483983571" fill="rgb(100%,0%,0%)" r="0.7" /><circle cx="281.068128675" cy="354.809633725" fill="rgb(100%,0%,0%)" r="0.7" /><circle cx="283.213699943" cy="355.018260333" fill="rgb(100%,0%,0%)" r="0.7" /><circle cx="282.914064406" cy="358.003259251" fill="rgb(100%,0%,0%)" r="0.7" /><circle cx="282.61442887" cy="360.98825817" fill="rgb(100%,0%,0%)" r="0.7" /><circle cx="282.6" cy="361.132" fill="rgb(100%,0%,0%)" r="0.7" /><circle cx="287.398422618" cy="277.938337035" fill="rgb(0%,0%,100%)" r="0.7" /><circle cx="290.041046356" cy="279.14417677" fill="rgb(0%,0%,100%)" r="0.7" /><circle cx="291.609611632" cy="281.687286018" fill="rgb(0%,0%,100%)" r="0.7" /><circle cx="292.8909781" cy="284.399018033" fill="rgb(0%,0%,100%)" r="0.7" /><circle cx="293.980582949" cy="287.193641908" fill="rgb(0%,0%,100%)" r="0.7" /><circle cx="294.91488984" cy="290.044127855" fill="rgb(0%,0%,100%)" r="0.7" /><circle cx="295.723260515" cy="292.93296614" fill="rgb(0%,0%,100%)" r="0.7" /><circle cx="296.429457175" cy="295.848535413" fill="rgb(0%,0%,100%)" r="0.7" /><circle cx="297.053110246" cy="298.78291533" fill="rgb(0%,0%,100%)" r="0.7" /><circle cx="297.610962479" cy="301.730543413" fill="rgb(0%,0%,100%)" r="0.7" /><circle cx="298.117924097" cy="304.68737074" fill="rgb(0%,0%,100%)" r="0.7" /><circle cx="298.588037966" cy="307.650293801" fill="rgb(0%,0%,100%)" r="0.7" /><circle cx="299.035500861" cy="310.616733965" fill="rgb(0%,0%,100%)" r="0.7" /><circle cx="299.475961759" cy="313.584222284" fill="rgb(0%,0%,100%)" r="0.7" /><circle cx="299.928533793" cy="316.54988304" fill="rgb(0%,0%,100%)" r="0.7" /><circle cx="300.249792761" cy="319.53139191" fill="rgb(0%,0%,100%)" r="0.7" /><circle cx="300.321918294" cy="322.52992825" fill="rgb(0%,0%,100%)" r="0.7" /><circle cx="300.215239439" cy="325.527701483" fill="rgb(0%,0%,100%)" r="0.7" /><circle cx="299.972750202" cy="328.517684614" fill="rgb(0%,0%,100%)" r="0.7" /><circle cx="299.622022637" cy="331.496977644" fill="rgb(0%,0%,100%)" r="0.7" /><circle cx="299.181401842" cy="334.464346115" fill="rgb(0%,0%,100%)" r="0.7" /><circle cx="298.663120075" cy="337.419162748" fill="rgb(0%,0%,100%)" r="0.7" /><circle cx="298.07462228" cy="340.360807971" fill="rgb(0%,0%,100%)" r="0.7" /><circle cx="297.417795583" cy="343.287951146" fill="rgb(0%,0%,100%)" r="0.7" /><circle cx="296.69745133" cy="346.199860807" fill="rgb(0%,0%,100%)" r="0.7" /><circle cx="295.573385405" cy="348.975728207" fill="rgb(0%,0%,100%)" r="0.7" /><circle cx="293.9756436" cy="351.511405717" fill="rgb(0%,0%,100%)" r="0.7" /><circle cx="292.054161805" cy="353.81312075" fill="rgb(0%,0%,100%)" r="0.7" /><circle cx="289.907280931" cy="355.90710617" fill="rgb(0%,0%,100%)" r="0.7" /><circle cx="287.595944045" cy="357.818534425" fill="rgb(0%,0%,100%)" r="0.7" /><circle cx="285.156258528" cy="359.563406381" fill="rgb(0%,0%,100%)" r="0.7" /><circle cx="282.6" cy="361.132" fill="rgb(0%,0%,100%)" r="0.7" /></svg>