<?xml version="1.0" encoding="utf-8" ?>
<svg baseProfile="full" height="100%" version="1.1" width="100%" xmlns="http://www.w3.org/2000/svg" xmlns:ev="http://www.w3.org/2001/xml-events" xmlns:xlink="http://www.w3.org/1999/xlink"><defs /><circle cx="334.611300224" cy="322.604395355" fill="rgb(100%,0%,0%)" r="0.7" /><circle cx="332.113285082" cy="324.218943399" fill="rgb(100%,0%,0%)" r="0.7" /><circle cx="330.232742179" cy="326.549073691" fill="rgb(100%,0%,0%)" r="0.7" /><circle cx="328.743786475" cy="329.151498332" fill="rgb(100%,0%,0%)" r="0.7" /><circle cx="327.812017462" cy="331.993088529" fill="rgb(100%,0%,0%)" r="0.7" /><circle cx="326.633552761" cy="334.749979012" fill="rgb(100%,0%,0%)" r="0.7" /><circle cx="325.146230171" cy="337.353532054" fill="rgb(100%,0%,0%)" r="0.7" /><circle cx="323.380062823" cy="339.776664715" fill="rgb(100%,0%,0%)" r="0.7" /><circle cx="321.359606682" cy="341.992263101" fill="rgb(100%,0%,0%)" r="0.7" /><circle cx="319.307481773" cy="344.177234694" fill="rgb(100%,0%,0%)" r="0.7" /><circle cx="317.4181723" cy="346.507149504" fill="rgb(100%,0%,0%)" r="0.7" /><circle cx="315.659620791" cy="348.937138653" fill="rgb(100%,0%,0%)" r="0.7" /><circle cx="314.059760932" cy="351.474403856" fill="rgb(100%,0%,0%)" r="0.7" /><circle cx="312.480269024" cy="354.024898991" fill="rgb(100%,0%,0%)" r="0.7" /><circle cx="310.848432682" cy="356.542136567" fill="rgb(100%,0%,0%)" r="0.7" /><circle cx="309.013891992" cy="358.906775043" fill="rgb(100%,0%,0%)" r="0.7" /><circle cx="306.843969211" cy="360.978351021" fill="rgb(100%,0%,0%)" r="0.7" /><circle cx="304.655611588" cy="363.030433156" fill="rgb(100%,0%,0%)" r="0.7" /><circle cx="302.451054061" cy="365.065100069" fill="rgb(100%,0%,0%)" r="0.7" /><circle cx="300.230042223" cy="367.081798976" fill="rgb(100%,0%,0%)" r="0.7" /><circle cx="297.991402741" cy="369.078908693" fill="rgb(100%,0%,0%)" r="0.7" /><circle cx="295.733199353" cy="371.053859486" fill="rgb(100%,0%,0%)" r="0.7" /><circle cx="293.452615562" cy="373.002918728" fill="rgb(100%,0%,0%)" r="0.7" /><circle cx="291.14565177" cy="374.920667089" fill="rgb(100%,0%,0%)" r="0.7" /><circle cx="288.806506038" cy="376.799000294" fill="rgb(100%,0%,0%)" r="0.7" /><circle cx="286.426384259" cy="378.625070581" fill="rgb(100%,0%,0%)" r="0.7" /><circle cx="283.990962036" cy="380.376550172" fill="rgb(100%,0%,0%)" r="0.7" /><circle cx="281.474147808" cy="382.008349198" fill="rgb(100%,0%,0%)" r="0.7" /><circle cx="281.807127422" cy="382.242964714" fill="rgb(100%,0%,0%)" r="0.7" /><circle cx="284.684481161" cy="381.393944417" fill="rgb(100%,0%,0%)" r="0.7" /><circle cx="287.561834899" cy="380.544924121" fill="rgb(100%,0%,0%)" r="0.7" /><circle cx="290.439188638" cy="379.695903824" fill="rgb(100%,0%,0%)" r="0.7" /><circle cx="290.598361689" cy="381.794693415" fill="rgb(100%,0%,0%)" r="0.7" /><circle cx="289.984968077" cy="384.731315331" fill="rgb(100%,0%,0%)" r="0.7" /><circle cx="289.371574465" cy="387.667937247" fill="rgb(100%,0%,0%)" r="0.7" /><circle cx="288.758180854" cy="390.604559163" fill="rgb(100%,0%,0%)" r="0.7" /><circle cx="288.596" cy="391.381" fill="rgb(100%,0%,0%)" r="0.7" /><circle cx="334.611300224" cy="322.604395355" fill="rgb(0%,0%,100%)" r="0.7" /><circle cx="337.54935772" cy="322.68661506" fill="rgb(0%,0%,100%)" r="0.7" /><circle cx="339.982821965" cy="324.398643644" fill="rgb(0%,0%,100%)" r="0.7" /><circle cx="341.440094679" cy="326.987596069" fill="rgb(0%,0%,100%)" r="0.7" /><circle cx="342.173071334" cy="329.890939023" fill="rgb(0%,0%,100%)" r="0.7" /><circle cx="342.250304327" cy="332.883420675" fill="rgb(0%,0%,100%)" r="0.7" /><circle cx="341.658611602" cy="335.818475084" fill="rgb(0%,0%,100%)" r="0.7" /><circle cx="340.487935319" cy="338.575909767" fill="rgb(0%,0%,100%)" r="0.7" /><circle cx="338.867043002" cy="341.096805349" fill="rgb(0%,0%,100%)" r="0.7" /><circle cx="336.905756049" cy="343.364053815" fill="rgb(0%,0%,100%)" r="0.7" /><circle cx="334.665425892" cy="345.355623386" fill="rgb(0%,0%,100%)" r="0.7" /><circle cx="331.893362171" cy="346.423750989" fill="rgb(0%,0%,100%)" r="0.7" /><circle cx="329.592751506" cy="348.33493531" fill="rgb(0%,0%,100%)" r="0.7" /><circle cx="327.748986285" cy="350.696707165" fill="rgb(0%,0%,100%)" r="0.7" /><circle cx="326.381443163" cy="353.360343222" fill="rgb(0%,0%,100%)" r="0.7" /><circle cx="324.951849202" cy="355.996759358" fill="rgb(0%,0%,100%)" r="0.7" /><circle cx="323.329518239" cy="358.519642809" fill="rgb(0%,0%,100%)" r="0.7" /><circle cx="321.567266117" cy="360.947115576" fill="rgb(0%,0%,100%)" r="0.7" /><circle cx="319.698873143" cy="363.294013556" fill="rgb(0%,0%,100%)" r="0.7" /><circle cx="317.747027024" cy="365.572063029" fill="rgb(0%,0%,100%)" r="0.7" /><circle cx="315.727617894" cy="367.790491887" fill="rgb(0%,0%,100%)" r="0.7" /><circle cx="313.652162191" cy="369.956610351" fill="rgb(0%,0%,100%)" r="0.7" /><circle cx="311.529244428" cy="372.076257478" fill="rgb(0%,0%,100%)" r="0.7" /><circle cx="309.365407095" cy="374.154132952" fill="rgb(0%,0%,100%)" r="0.7" /><circle cx="307.165725568" cy="376.194031804" fill="rgb(0%,0%,100%)" r="0.7" /><circle cx="304.934168944" cy="378.199026276" fill="rgb(0%,0%,100%)" r="0.7" /><circle cx="302.673867303" cy="380.171562599" fill="rgb(0%,0%,100%)" r="0.7" /><circle cx="300.387252813" cy="382.113544939" fill="rgb(0%,0%,100%)" r="0.7" /><circle cx="298.076171331" cy="384.026331736" fill="rgb(0%,0%,100%)" r="0.7" /><circle cx="295.741855082" cy="385.91071059" fill="rgb(0%,0%,100%)" r="0.7" /><circle cx="293.384866017" cy="387.766636567" fill="rgb(0%,0%,100%)" r="0.7" /><circle cx="291.004568066" cy="389.592571447" fill="rgb(0%,0%,100%)" r="0.7" /><circle cx="288.596" cy="391.381" fill="rgb(0%,0%,100%)" r="0.7" /></svg>