<?xml version="1.0" encoding="utf-8" ?>
<svg baseProfile="full" height="100%" version="1.1" width="100%" xmlns="http://www.w3.org/2000/svg" xmlns:ev="http://www.w3.org/2001/xml-events" xmlns:xlink="http://www.w3.org/1999/xlink"><defs /><circle cx="338.36655289" cy="263.526211341" fill="rgb(100%,0%,0%)" r="0.7" /><circle cx="335.397244922" cy="263.888858106" fill="rgb(100%,0%,0%)" r="0.7" /><circle cx="332.577302929" cy="264.900118827" fill="rgb(100%,0%,0%)" r="0.7" /><circle cx="329.952696656" cy="266.343233485" fill="rgb(100%,0%,0%)" r="0.7" /><circle cx="327.760328553" cy="268.390885135" fill="rgb(100%,0%,0%)" r="0.7" /><circle cx="325.616289362" cy="270.489162732" fill="rgb(100%,0%,0%)" r="0.7" /><circle cx="323.510998414" cy="272.626335171" fill="rgb(100%,0%,0%)" r="0.7" /><circle cx="321.441981712" cy="274.798655048" fill="rgb(100%,0%,0%)" r="0.7" /><circle cx="319.408603338" cy="277.004376353" fill="rgb(100%,0%,0%)" r="0.7" /><circle cx="317.411135347" cy="279.242659636" fill="rgb(100%,0%,0%)" r="0.7" /><circle cx="315.450411899" cy="281.513203839" fill="rgb(100%,0%,0%)" r="0.7" /><circle cx="313.527718684" cy="283.816035019" fill="rgb(100%,0%,0%)" r="0.7" /><circle cx="311.644713183" cy="286.151430945" fill="rgb(100%,0%,0%)" r="0.7" /><circle cx="309.803417656" cy="288.519845002" fill="rgb(100%,0%,0%)" r="0.7" /><circle cx="308.00620918" cy="290.92188061" fill="rgb(100%,0%,0%)" r="0.7" /><circle cx="306.25584147" cy="293.358255798" fill="rgb(100%,0%,0%)" r="0.7" /><circle cx="304.555473696" cy="295.829778066" fill="rgb(100%,0%,0%)" r="0.7" /><circle cx="302.908705323" cy="298.337326606" fill="rgb(100%,0%,0%)" r="0.7" /><circle cx="301.319631768" cy="300.881815925" fill="rgb(100%,0%,0%)" r="0.7" /><circle cx="299.634303965" cy="303.355125271" fill="rgb(100%,0%,0%)" r="0.7" /><circle cx="297.924063507" cy="305.819065537" fill="rgb(100%,0%,0%)" r="0.7" /><circle cx="296.374038311" cy="308.387145286" fill="rgb(100%,0%,0%)" r="0.7" /><circle cx="294.958654212" cy="311.031947089" fill="rgb(100%,0%,0%)" r="0.7" /><circle cx="293.665807877" cy="313.738812053" fill="rgb(100%,0%,0%)" r="0.7" /><circle cx="292.487874588" cy="316.497658006" fill="rgb(100%,0%,0%)" r="0.7" /><circle cx="291.419314312" cy="319.300698629" fill="rgb(100%,0%,0%)" r="0.7" /><circle cx="290.45569" cy="322.141566559" fill="rgb(100%,0%,0%)" r="0.7" /><circle cx="289.593233868" cy="325.014763446" fill="rgb(100%,0%,0%)" r="0.7" /><circle cx="288.828555779" cy="327.915522421" fill="rgb(100%,0%,0%)" r="0.7" /><circle cx="288.158518652" cy="330.839605895" fill="rgb(100%,0%,0%)" r="0.7" /><circle cx="287.5801523" cy="333.783206322" fill="rgb(100%,0%,0%)" r="0.7" /><circle cx="287.09060008" cy="336.742884915" fill="rgb(100%,0%,0%)" r="0.7" /><circle cx="286.687087963" cy="339.715523451" fill="rgb(100%,0%,0%)" r="0.7" /><circle cx="286.366905873" cy="342.698294758" fill="rgb(100%,0%,0%)" r="0.7" /><circle cx="286.127399359" cy="345.688625277" fill="rgb(100%,0%,0%)" r="0.7" /><circle cx="285.965963483" cy="348.684200071" fill="rgb(100%,0%,0%)" r="0.7" /><circle cx="285.880045356" cy="351.682904379" fill="rgb(100%,0%,0%)" r="0.7" /><circle cx="285.867143057" cy="354.682804139" fill="rgb(100%,0%,0%)" r="0.7" /><circle cx="285.924806886" cy="357.682171355" fill="rgb(100%,0%,0%)" r="0.7" /><circle cx="286.050644766" cy="360.679472571" fill="rgb(100%,0%,0%)" r="0.7" /><circle cx="286.242322236" cy="363.673283523" fill="rgb(100%,0%,0%)" r="0.7" /><circle cx="286.497566573" cy="366.662347109" fill="rgb(100%,0%,0%)" r="0.7" /><circle cx="286.814170358" cy="369.645552294" fill="rgb(100%,0%,0%)" r="0.7" /><circle cx="287.189985383" cy="372.621855859" fill="rgb(100%,0%,0%)" r="0.7" /><circle cx="287.622940221" cy="375.590410982" fill="rgb(100%,0%,0%)" r="0.7" /><circle cx="288.15604002" cy="378.541843019" fill="rgb(100%,0%,0%)" r="0.7" /><circle cx="288.894864221" cy="381.449063164" fill="rgb(100%,0%,0%)" r="0.7" /><circle cx="289.769234737" cy="384.318588742" fill="rgb(100%,0%,0%)" r="0.7" /><circle cx="290.750677091" cy="387.153351183" fill="rgb(100%,0%,0%)" r="0.7" /><circle cx="291.823459215" cy="389.954860031" fill="rgb(100%,0%,0%)" r="0.7" /><circle cx="292.977010174" cy="392.72411338" fill="rgb(100%,0%,0%)" r="0.7" /><circle cx="294.203488126" cy="395.461854533" fill="rgb(100%,0%,0%)" r="0.7" /><circle cx="295.496729296" cy="398.168717996" fill="rgb(100%,0%,0%)" r="0.7" /><circle cx="296.851672541" cy="400.845238377" fill="rgb(100%,0%,0%)" r="0.7" /><circle cx="298.264052784" cy="403.491914282" fill="rgb(100%,0%,0%)" r="0.7" /><circle cx="299.730180235" cy="406.109189761" fill="rgb(100%,0%,0%)" r="0.7" /><circle cx="301.246844088" cy="408.697533006" fill="rgb(100%,0%,0%)" r="0.7" /><circle cx="302.811163615" cy="411.25734445" fill="rgb(100%,0%,0%)" r="0.7" /><circle cx="304.420575384" cy="413.7890552" fill="rgb(100%,0%,0%)" r="0.7" /><circle cx="306.072749391" cy="416.293071715" fill="rgb(100%,0%,0%)" r="0.7" /><circle cx="307.765562926" cy="418.769797631" fill="rgb(100%,0%,0%)" r="0.7" /><circle cx="309.497073818" cy="421.219638336" fill="rgb(100%,0%,0%)" r="0.7" /><circle cx="311.252979759" cy="423.652100471" fill="rgb(100%,0%,0%)" r="0.7" /><circle cx="313.011105091" cy="426.082945107" fill="rgb(100%,0%,0%)" r="0.7" /><circle cx="314.770977953" cy="428.512527451" fill="rgb(100%,0%,0%)" r="0.7" /><circle cx="316.532386052" cy="430.941002227" fill="rgb(100%,0%,0%)" r="0.7" /><circle cx="318.294947453" cy="433.368626679" fill="rgb(100%,0%,0%)" r="0.7" /><circle cx="320.058041891" cy="435.79585699" fill="rgb(100%,0%,0%)" r="0.7" /><circle cx="321.820663317" cy="438.22344707" fill="rgb(100%,0%,0%)" r="0.7" /><circle cx="323.58116339" cy="440.652566795" fill="rgb(100%,0%,0%)" r="0.7" /><circle cx="325.336951982" cy="443.085097039" fill="rgb(100%,0%,0%)" r="0.7" /><circle cx="327.083998261" cy="445.523899365" fill="rgb(100%,0%,0%)" r="0.7" /><circle cx="328.816373044" cy="447.973155194" fill="rgb(100%,0%,0%)" r="0.7" /><circle cx="330.526107713" cy="450.438253637" fill="rgb(100%,0%,0%)" r="0.7" /><circle cx="332.204382515" cy="452.924864465" fill="rgb(100%,0%,0%)" r="0.7" /><circle cx="333.844488763" cy="455.436805483" fill="rgb(100%,0%,0%)" r="0.7" /><circle cx="335.445120536" cy="457.974086547" fill="rgb(100%,0%,0%)" r="0.7" /><circle cx="337.010865186" cy="460.533053615" fill="rgb(100%,0%,0%)" r="0.7" /><circle cx="338.549482719" cy="463.108436103" fill="rgb(100%,0%,0%)" r="0.7" /><circle cx="340.068790718" cy="465.695264085" fill="rgb(100%,0%,0%)" r="0.7" /><circle cx="338.36655289" cy="263.526211341" fill="rgb(0%,0%,100%)" r="0.7" /><circle cx="341.315985322" cy="264.012933214" fill="rgb(0%,0%,100%)" r="0.7" /><circle cx="344.073151629" cy="265.186966906" fill="rgb(0%,0%,100%)" r="0.7" /><circle cx="346.790852543" cy="266.451373123" fill="rgb(0%,0%,100%)" r="0.7" /><circle cx="349.210401245" cy="268.219171222" fill="rgb(0%,0%,100%)" r="0.7" /><circle cx="351.449443644" cy="270.215340905" fill="rgb(0%,0%,100%)" r="0.7" /><circle cx="353.629702813" cy="272.276017199" fill="rgb(0%,0%,100%)" r="0.7" /><circle cx="355.826476248" cy="274.318948961" fill="rgb(0%,0%,100%)" r="0.7" /><circle cx="358.131033824" cy="276.238125962" fill="rgb(0%,0%,100%)" r="0.7" /><circle cx="359.752758273" cy="278.722902834" fill="rgb(0%,0%,100%)" r="0.7" /><circle cx="360.212381958" cy="281.675616236" fill="rgb(0%,0%,100%)" r="0.7" /><circle cx="360.097238491" cy="284.672179486" fill="rgb(0%,0%,100%)" r="0.7" /><circle cx="359.8356306" cy="287.659106183" fill="rgb(0%,0%,100%)" r="0.7" /><circle cx="358.685554021" cy="290.419827612" fill="rgb(0%,0%,100%)" r="0.7" /><circle cx="357.123241869" cy="292.979901259" fill="rgb(0%,0%,100%)" r="0.7" /><circle cx="355.412469784" cy="295.444047425" fill="rgb(0%,0%,100%)" r="0.7" /><circle cx="353.62635395" cy="297.854319066" fill="rgb(0%,0%,100%)" r="0.7" /><circle cx="351.79995386" cy="300.234271543" fill="rgb(0%,0%,100%)" r="0.7" /><circle cx="349.958420204" cy="302.602551701" fill="rgb(0%,0%,100%)" r="0.7" /><circle cx="348.132375234" cy="304.982757586" fill="rgb(0%,0%,100%)" r="0.7" /><circle cx="346.408838318" cy="307.437041228" fill="rgb(0%,0%,100%)" r="0.7" /><circle cx="344.888743382" cy="310.021331726" fill="rgb(0%,0%,100%)" r="0.7" /><circle cx="343.15613135" cy="312.470110098" fill="rgb(0%,0%,100%)" r="0.7" /><circle cx="341.389454817" cy="314.894702807" fill="rgb(0%,0%,100%)" r="0.7" /><circle cx="339.756543705" cy="317.409695326" fill="rgb(0%,0%,100%)" r="0.7" /><circle cx="338.60818653" cy="320.175290344" fill="rgb(0%,0%,100%)" r="0.7" /><circle cx="337.264383727" cy="322.856104385" fill="rgb(0%,0%,100%)" r="0.7" /><circle cx="335.7391715" cy="325.439116962" fill="rgb(0%,0%,100%)" r="0.7" /><circle cx="334.065116717" cy="327.926492471" fill="rgb(0%,0%,100%)" r="0.7" /><circle cx="332.918068796" cy="330.678846212" fill="rgb(0%,0%,100%)" r="0.7" /><circle cx="331.808910259" cy="333.380051811" fill="rgb(0%,0%,100%)" r="0.7" /><circle cx="330.53857126" cy="336.096484422" fill="rgb(0%,0%,100%)" r="0.7" /><circle cx="329.496919634" cy="338.909065649" fill="rgb(0%,0%,100%)" r="0.7" /><circle cx="328.388914557" cy="341.696658688" fill="rgb(0%,0%,100%)" r="0.7" /><circle cx="327.353140457" cy="344.512074827" fill="rgb(0%,0%,100%)" r="0.7" /><circle cx="326.399974335" cy="347.356510418" fill="rgb(0%,0%,100%)" r="0.7" /><circle cx="325.534618624" cy="350.228862976" fill="rgb(0%,0%,100%)" r="0.7" /><circle cx="324.76363856" cy="353.127953069" fill="rgb(0%,0%,100%)" r="0.7" /><circle cx="324.095937528" cy="356.052527985" fill="rgb(0%,0%,100%)" r="0.7" /><circle cx="323.545047987" cy="359.001280837" fill="rgb(0%,0%,100%)" r="0.7" /><circle cx="323.136717854" cy="361.972978295" fill="rgb(0%,0%,100%)" r="0.7" /><circle cx="322.947843271" cy="364.965973631" fill="rgb(0%,0%,100%)" r="0.7" /><circle cx="323.035046586" cy="367.963685763" fill="rgb(0%,0%,100%)" r="0.7" /><circle cx="323.370499816" cy="370.944144386" fill="rgb(0%,0%,100%)" r="0.7" /><circle cx="323.914136398" cy="373.893945894" fill="rgb(0%,0%,100%)" r="0.7" /><circle cx="324.633671363" cy="376.805980784" fill="rgb(0%,0%,100%)" r="0.7" /><circle cx="325.503651869" cy="379.6767597" fill="rgb(0%,0%,100%)" r="0.7" /><circle cx="326.504302319" cy="382.504709312" fill="rgb(0%,0%,100%)" r="0.7" /><circle cx="327.620575017" cy="385.289090675" fill="rgb(0%,0%,100%)" r="0.7" /><circle cx="328.84159699" cy="388.029184576" fill="rgb(0%,0%,100%)" r="0.7" /><circle cx="330.160832725" cy="390.723373363" fill="rgb(0%,0%,100%)" r="0.7" /><circle cx="331.578484053" cy="393.367075352" fill="rgb(0%,0%,100%)" r="0.7" /><circle cx="333.100353941" cy="395.952122287" fill="rgb(0%,0%,100%)" r="0.7" /><circle cx="334.707075059" cy="398.485537373" fill="rgb(0%,0%,100%)" r="0.7" /><circle cx="336.339260338" cy="401.002669111" fill="rgb(0%,0%,100%)" r="0.7" /><circle cx="337.978588091" cy="403.515160211" fill="rgb(0%,0%,100%)" r="0.7" /><circle cx="339.618608328" cy="406.027199984" fill="rgb(0%,0%,100%)" r="0.7" /><circle cx="341.254238607" cy="408.542099269" fill="rgb(0%,0%,100%)" r="0.7" /><circle cx="342.877785037" cy="411.064809066" fill="rgb(0%,0%,100%)" r="0.7" /><circle cx="344.464740085" cy="413.610598108" fill="rgb(0%,0%,100%)" r="0.7" /><circle cx="346.019984996" cy="416.17367422" fill="rgb(0%,0%,100%)" r="0.7" /><circle cx="347.739623224" cy="418.631826093" fill="rgb(0%,0%,100%)" r="0.7" /><circle cx="349.489939935" cy="421.06828908" fill="rgb(0%,0%,100%)" r="0.7" /><circle cx="351.249231827" cy="423.498289219" fill="rgb(0%,0%,100%)" r="0.7" /><circle cx="353.00845212" cy="425.92834132" fill="rgb(0%,0%,100%)" r="0.7" /><circle cx="354.7607043" cy="428.363420013" fill="rgb(0%,0%,100%)" r="0.7" /><circle cx="356.497594001" cy="430.809471797" fill="rgb(0%,0%,100%)" r="0.7" /><circle cx="358.203786856" cy="433.276998578" fill="rgb(0%,0%,100%)" r="0.7" /><circle cx="359.831943108" cy="435.796313148" fill="rgb(0%,0%,100%)" r="0.7" /><circle cx="361.481331989" cy="438.300556271" fill="rgb(0%,0%,100%)" r="0.7" /><circle cx="363.348191108" cy="440.648011026" fill="rgb(0%,0%,100%)" r="0.7" /><circle cx="365.369114531" cy="442.864560854" fill="rgb(0%,0%,100%)" r="0.7" /><circle cx="367.522" cy="444.953" fill="rgb(0%,0%,100%)" r="0.7" /><circle cx="366.323317388" cy="444.938395668" fill="rgb(0%,0%,100%)" r="0.7" /><circle cx="363.323540025" cy="444.901847423" fill="rgb(0%,0%,100%)" r="0.7" /><circle cx="360.323762663" cy="444.865299177" fill="rgb(0%,0%,100%)" r="0.7" /><circle cx="357.3239853" cy="444.828750932" fill="rgb(0%,0%,100%)" r="0.7" /><circle cx="354.324207937" cy="444.792202687" fill="rgb(0%,0%,100%)" r="0.7" /><circle cx="351.324430575" cy="444.755654442" fill="rgb(0%,0%,100%)" r="0.7" /><circle cx="348.324653212" cy="444.719106197" fill="rgb(0%,0%,100%)" r="0.7" /><circle cx="345.324875849" cy="444.682557952" fill="rgb(0%,0%,100%)" r="0.7" /><circle cx="343.829598431" cy="446.4478629" fill="rgb(0%,0%,100%)" r="0.7" /><circle cx="343.330325855" cy="449.406025657" fill="rgb(0%,0%,100%)" r="0.7" /><circle cx="342.83105328" cy="452.364188414" fill="rgb(0%,0%,100%)" r="0.7" /><circle cx="342.331780704" cy="455.32235117" fill="rgb(0%,0%,100%)" r="0.7" /><circle cx="341.832508129" cy="458.280513927" fill="rgb(0%,0%,100%)" r="0.7" /><circle cx="341.333235553" cy="461.238676684" fill="rgb(0%,0%,100%)" r="0.7" /><circle cx="340.833962978" cy="464.196839441" fill="rgb(0%,0%,100%)" r="0.7" /><circle cx="340.068790718" cy="465.695264085" fill="rgb(0%,0%,100%)" r="0.7" /></svg>