<?xml version="1.0" encoding="utf-8" ?>
<svg baseProfile="full" height="100%" version="1.1" width="100%" xmlns="http://www.w3.org/2000/svg" xmlns:ev="http://www.w3.org/2001/xml-events" xmlns:xlink="http://www.w3.org/1999/xlink"><defs /><circle cx="328.970004784" cy="287.205566652" fill="rgb(100%,0%,0%)" r="0.7" /><circle cx="327.235883595" cy="289.653591101" fill="rgb(100%,0%,0%)" r="0.7" /><circle cx="325.501762406" cy="292.10161555" fill="rgb(100%,0%,0%)" r="0.7" /><circle cx="323.411621056" cy="293.669873934" fill="rgb(100%,0%,0%)" r="0.7" /><circle cx="320.463038493" cy="293.116827039" fill="rgb(100%,0%,0%)" r="0.7" /><circle cx="317.514455929" cy="292.563780144" fill="rgb(100%,0%,0%)" r="0.7" /><circle cx="314.565873366" cy="292.010733249" fill="rgb(100%,0%,0%)" r="0.7" /><circle cx="311.617290803" cy="291.457686354" fill="rgb(100%,0%,0%)" r="0.7" /><circle cx="308.66870824" cy="290.904639459" fill="rgb(100%,0%,0%)" r="0.7" /><circle cx="309.395661092" cy="293.656406127" fill="rgb(100%,0%,0%)" r="0.7" /><circle cx="310.235350081" cy="296.536474745" fill="rgb(100%,0%,0%)" r="0.7" /><circle cx="311.05126076" cy="299.423406596" fill="rgb(100%,0%,0%)" r="0.7" /><circle cx="311.842517773" cy="302.317161934" fill="rgb(100%,0%,0%)" r="0.7" /><circle cx="312.608213684" cy="305.217743671" fill="rgb(100%,0%,0%)" r="0.7" /><circle cx="313.347428693" cy="308.12529866" fill="rgb(100%,0%,0%)" r="0.7" /><circle cx="314.059095312" cy="311.039598798" fill="rgb(100%,0%,0%)" r="0.7" /><circle cx="314.742186385" cy="313.960798507" fill="rgb(100%,0%,0%)" r="0.7" /><circle cx="315.395543836" cy="316.88876235" fill="rgb(100%,0%,0%)" r="0.7" /><circle cx="316.017977852" cy="319.82349555" fill="rgb(100%,0%,0%)" r="0.7" /><circle cx="316.608195565" cy="322.764848541" fill="rgb(100%,0%,0%)" r="0.7" /><circle cx="317.164846244" cy="325.712750785" fill="rgb(100%,0%,0%)" r="0.7" /><circle cx="317.686478664" cy="328.667030984" fill="rgb(100%,0%,0%)" r="0.7" /><circle cx="318.171550721" cy="331.627490003" fill="rgb(100%,0%,0%)" r="0.7" /><circle cx="318.618442293" cy="334.594040213" fill="rgb(100%,0%,0%)" r="0.7" /><circle cx="319.02538309" cy="337.566288524" fill="rgb(100%,0%,0%)" r="0.7" /><circle cx="319.390508494" cy="340.543934868" fill="rgb(100%,0%,0%)" r="0.7" /><circle cx="319.711830152" cy="343.526672639" fill="rgb(100%,0%,0%)" r="0.7" /><circle cx="319.987203559" cy="346.513975429" fill="rgb(100%,0%,0%)" r="0.7" /><circle cx="320.214342171" cy="349.505293897" fill="rgb(100%,0%,0%)" r="0.7" /><circle cx="320.390802017" cy="352.500083084" fill="rgb(100%,0%,0%)" r="0.7" /><circle cx="320.513949232" cy="355.497485984" fill="rgb(100%,0%,0%)" r="0.7" /><circle cx="320.580968554" cy="358.496708414" fill="rgb(100%,0%,0%)" r="0.7" /><circle cx="320.588831562" cy="361.496641304" fill="rgb(100%,0%,0%)" r="0.7" /><circle cx="320.534289326" cy="364.496069878" fill="rgb(100%,0%,0%)" r="0.7" /><circle cx="320.413847893" cy="367.493628506" fill="rgb(100%,0%,0%)" r="0.7" /><circle cx="320.223760598" cy="370.487527315" fill="rgb(100%,0%,0%)" r="0.7" /><circle cx="319.959998735" cy="373.475826474" fill="rgb(100%,0%,0%)" r="0.7" /><circle cx="319.618242923" cy="376.456169887" fill="rgb(100%,0%,0%)" r="0.7" /><circle cx="319.193842583" cy="379.425930115" fill="rgb(100%,0%,0%)" r="0.7" /><circle cx="318.681845154" cy="382.381785642" fill="rgb(100%,0%,0%)" r="0.7" /><circle cx="318.076927556" cy="385.320029229" fill="rgb(100%,0%,0%)" r="0.7" /><circle cx="317.373417665" cy="388.236221211" fill="rgb(100%,0%,0%)" r="0.7" /><circle cx="316.565271983" cy="391.125147676" fill="rgb(100%,0%,0%)" r="0.7" /><circle cx="315.646082812" cy="393.98062118" fill="rgb(100%,0%,0%)" r="0.7" /><circle cx="314.609029728" cy="396.795423416" fill="rgb(100%,0%,0%)" r="0.7" /><circle cx="313.446916278" cy="399.560907321" fill="rgb(100%,0%,0%)" r="0.7" /><circle cx="312.152110083" cy="402.266770289" fill="rgb(100%,0%,0%)" r="0.7" /><circle cx="310.716503198" cy="404.900513565" fill="rgb(100%,0%,0%)" r="0.7" /><circle cx="309.13119944" cy="407.446918116" fill="rgb(100%,0%,0%)" r="0.7" /><circle cx="307.386165242" cy="409.886442176" fill="rgb(100%,0%,0%)" r="0.7" /><circle cx="305.468665398" cy="412.192667672" fill="rgb(100%,0%,0%)" r="0.7" /><circle cx="303.358805451" cy="414.323704279" fill="rgb(100%,0%,0%)" r="0.7" /><circle cx="301.797605992" cy="415.869670382" fill="rgb(100%,0%,0%)" r="0.7" /><circle cx="304.772720664" cy="415.484063474" fill="rgb(100%,0%,0%)" r="0.7" /><circle cx="307.747835336" cy="415.098456565" fill="rgb(100%,0%,0%)" r="0.7" /><circle cx="310.722950008" cy="414.712849657" fill="rgb(100%,0%,0%)" r="0.7" /><circle cx="313.69806468" cy="414.327242748" fill="rgb(100%,0%,0%)" r="0.7" /><circle cx="316.673179353" cy="413.94163584" fill="rgb(100%,0%,0%)" r="0.7" /><circle cx="319.52254812" cy="414.014020915" fill="rgb(100%,0%,0%)" r="0.7" /><circle cx="321.883659583" cy="415.864737711" fill="rgb(100%,0%,0%)" r="0.7" /><circle cx="324.244771046" cy="417.715454507" fill="rgb(100%,0%,0%)" r="0.7" /><circle cx="326.605882509" cy="419.566171303" fill="rgb(100%,0%,0%)" r="0.7" /><circle cx="328.966993972" cy="421.4168881" fill="rgb(100%,0%,0%)" r="0.7" /><circle cx="331.328105435" cy="423.267604896" fill="rgb(100%,0%,0%)" r="0.7" /><circle cx="333.689216898" cy="425.118321692" fill="rgb(100%,0%,0%)" r="0.7" /><circle cx="336.050328361" cy="426.969038488" fill="rgb(100%,0%,0%)" r="0.7" /><circle cx="338.411439824" cy="428.819755284" fill="rgb(100%,0%,0%)" r="0.7" /><circle cx="340.772551287" cy="430.67047208" fill="rgb(100%,0%,0%)" r="0.7" /><circle cx="343.133662749" cy="432.521188876" fill="rgb(100%,0%,0%)" r="0.7" /><circle cx="343.261" cy="432.621" fill="rgb(100%,0%,0%)" r="0.7" /><circle cx="328.970004784" cy="287.205566652" fill="rgb(0%,0%,100%)" r="0.7" /><circle cx="330.091430586" cy="287.448017888" fill="rgb(0%,0%,100%)" r="0.7" /><circle cx="330.623090009" cy="290.400534142" fill="rgb(0%,0%,100%)" r="0.7" /><circle cx="331.183203433" cy="293.347759124" fill="rgb(0%,0%,100%)" r="0.7" /><circle cx="331.769349974" cy="296.28993579" fill="rgb(0%,0%,100%)" r="0.7" /><circle cx="332.381324601" cy="299.226849155" fill="rgb(0%,0%,100%)" r="0.7" /><circle cx="333.01990665" cy="302.158080707" fill="rgb(0%,0%,100%)" r="0.7" /><circle cx="333.686567802" cy="305.083058599" fill="rgb(0%,0%,100%)" r="0.7" /><circle cx="334.383401415" cy="308.000999164" fill="rgb(0%,0%,100%)" r="0.7" /><circle cx="335.113167909" cy="310.910868119" fill="rgb(0%,0%,100%)" r="0.7" /><circle cx="335.879426741" cy="313.811337958" fill="rgb(0%,0%,100%)" r="0.7" /><circle cx="336.686741122" cy="316.70064277" fill="rgb(0%,0%,100%)" r="0.7" /><circle cx="337.54101284" cy="319.576404517" fill="rgb(0%,0%,100%)" r="0.7" /><circle cx="338.450000945" cy="322.435326586" fill="rgb(0%,0%,100%)" r="0.7" /><circle cx="339.424157309" cy="325.272676299" fill="rgb(0%,0%,100%)" r="0.7" /><circle cx="340.478031248" cy="328.08134536" fill="rgb(0%,0%,100%)" r="0.7" /><circle cx="341.632762076" cy="330.84997484" fill="rgb(0%,0%,100%)" r="0.7" /><circle cx="342.920872639" cy="333.558901202" fill="rgb(0%,0%,100%)" r="0.7" /><circle cx="344.396316311" cy="336.169944382" fill="rgb(0%,0%,100%)" r="0.7" /><circle cx="346.157380758" cy="338.595237186" fill="rgb(0%,0%,100%)" r="0.7" /><circle cx="348.393415591" cy="340.577139539" fill="rgb(0%,0%,100%)" r="0.7" /><circle cx="351.237783631" cy="341.446145899" fill="rgb(0%,0%,100%)" r="0.7" /><circle cx="354.210022454" cy="341.848079313" fill="rgb(0%,0%,100%)" r="0.7" /><circle cx="357.202947464" cy="342.046300647" fill="rgb(0%,0%,100%)" r="0.7" /><circle cx="360.202423897" cy="342.052645397" fill="rgb(0%,0%,100%)" r="0.7" /><circle cx="363.195724495" cy="341.861092891" fill="rgb(0%,0%,100%)" r="0.7" /><circle cx="366.168012763" cy="341.459243128" fill="rgb(0%,0%,100%)" r="0.7" /><circle cx="369.100816902" cy="340.831634485" fill="rgb(0%,0%,100%)" r="0.7" /><circle cx="371.971045477" cy="339.962084849" fill="rgb(0%,0%,100%)" r="0.7" /><circle cx="374.750605929" cy="338.836306159" fill="rgb(0%,0%,100%)" r="0.7" /><circle cx="376.971970502" cy="338.190908263" fill="rgb(0%,0%,100%)" r="0.7" /><circle cx="376.94160731" cy="341.190754605" fill="rgb(0%,0%,100%)" r="0.7" /><circle cx="376.911244118" cy="344.190600948" fill="rgb(0%,0%,100%)" r="0.7" /><circle cx="376.880880926" cy="347.19044729" fill="rgb(0%,0%,100%)" r="0.7" /><circle cx="376.850517734" cy="350.190293632" fill="rgb(0%,0%,100%)" r="0.7" /><circle cx="376.820154542" cy="353.190139974" fill="rgb(0%,0%,100%)" r="0.7" /><circle cx="376.78979135" cy="356.189986316" fill="rgb(0%,0%,100%)" r="0.7" /><circle cx="376.759428158" cy="359.189832658" fill="rgb(0%,0%,100%)" r="0.7" /><circle cx="376.729064966" cy="362.189679001" fill="rgb(0%,0%,100%)" r="0.7" /><circle cx="376.698701774" cy="365.189525343" fill="rgb(0%,0%,100%)" r="0.7" /><circle cx="376.668338582" cy="368.189371685" fill="rgb(0%,0%,100%)" r="0.7" /><circle cx="377.613181075" cy="370.606825717" fill="rgb(0%,0%,100%)" r="0.7" /><circle cx="380.268659591" cy="372.002688837" fill="rgb(0%,0%,100%)" r="0.7" /><circle cx="382.924138108" cy="373.398551956" fill="rgb(0%,0%,100%)" r="0.7" /><circle cx="385.579616624" cy="374.794415076" fill="rgb(0%,0%,100%)" r="0.7" /><circle cx="388.235095141" cy="376.190278195" fill="rgb(0%,0%,100%)" r="0.7" /><circle cx="390.890573657" cy="377.586141315" fill="rgb(0%,0%,100%)" r="0.7" /><circle cx="393.546052174" cy="378.982004434" fill="rgb(0%,0%,100%)" r="0.7" /><circle cx="396.20153069" cy="380.377867554" fill="rgb(0%,0%,100%)" r="0.7" /><circle cx="398.857009206" cy="381.773730674" fill="rgb(0%,0%,100%)" r="0.7" /><circle cx="401.512487723" cy="383.169593793" fill="rgb(0%,0%,100%)" r="0.7" /><circle cx="400.28129451" cy="384.716900958" fill="rgb(0%,0%,100%)" r="0.7" /><circle cx="397.750529622" cy="386.3278537" fill="rgb(0%,0%,100%)" r="0.7" /><circle cx="395.229423062" cy="387.95390102" fill="rgb(0%,0%,100%)" r="0.7" /><circle cx="392.718529716" cy="389.595664491" fill="rgb(0%,0%,100%)" r="0.7" /><circle cx="390.218447203" cy="391.253822386" fill="rgb(0%,0%,100%)" r="0.7" /><circle cx="387.7298047" cy="392.929129088" fill="rgb(0%,0%,100%)" r="0.7" /><circle cx="385.253344927" cy="394.622373708" fill="rgb(0%,0%,100%)" r="0.7" /><circle cx="382.789849663" cy="396.33444621" fill="rgb(0%,0%,100%)" r="0.7" /><circle cx="380.34023235" cy="398.066293564" fill="rgb(0%,0%,100%)" r="0.7" /><circle cx="377.905496426" cy="399.818971901" fill="rgb(0%,0%,100%)" r="0.7" /><circle cx="375.486722435" cy="401.593687326" fill="rgb(0%,0%,100%)" r="0.7" /><circle cx="373.085270516" cy="403.391684458" fill="rgb(0%,0%,100%)" r="0.7" /><circle cx="370.702525062" cy="405.214481943" fill="rgb(0%,0%,100%)" r="0.7" /><circle cx="368.34024601" cy="407.063670003" fill="rgb(0%,0%,100%)" r="0.7" /><circle cx="366.000371389" cy="408.941138691" fill="rgb(0%,0%,100%)" r="0.7" /><circle cx="363.685251545" cy="410.849002057" fill="rgb(0%,0%,100%)" r="0.7" /><circle cx="361.39760184" cy="412.789783017" fill="rgb(0%,0%,100%)" r="0.7" /><circle cx="359.140849881" cy="414.766329892" fill="rgb(0%,0%,100%)" r="0.7" /><circle cx="356.9190928" cy="416.78215256" fill="rgb(0%,0%,100%)" r="0.7" /><circle cx="354.737580791" cy="418.841461202" fill="rgb(0%,0%,100%)" r="0.7" /><circle cx="352.603157963" cy="420.949498862" fill="rgb(0%,0%,100%)" r="0.7" /><circle cx="350.525082865" cy="423.113044383" fill="rgb(0%,0%,100%)" r="0.7" /><circle cx="348.51660719" cy="425.341303142" fill="rgb(0%,0%,100%)" r="0.7" /><circle cx="346.598507912" cy="427.647668307" fill="rgb(0%,0%,100%)" r="0.7" /><circle cx="344.808788465" cy="430.054674987" fill="rgb(0%,0%,100%)" r="0.7" /><circle cx="343.261" cy="432.621" fill="rgb(0%,0%,100%)" r="0.7" /></svg>