<?xml version="1.0" encoding="utf-8" ?>
<svg baseProfile="full" height="100%" version="1.1" width="100%" xmlns="http://www.w3.org/2000/svg" xmlns:ev="http://www.w3.org/2001/xml-events" xmlns:xlink="http://www.w3.org/1999/xlink"><defs /><circle cx="339.203260819" cy="329.983866125" fill="rgb(100%,0%,0%)" r="0.7" /><circle cx="337.507502113" cy="332.458600289" fill="rgb(100%,0%,0%)" r="0.7" /><circle cx="335.800009175" cy="334.925265054" fill="rgb(100%,0%,0%)" r="0.7" /><circle cx="334.080425207" cy="337.383544294" fill="rgb(100%,0%,0%)" r="0.7" /><circle cx="332.348413467" cy="339.833041734" fill="rgb(100%,0%,0%)" r="0.7" /><circle cx="330.603552622" cy="342.273424719" fill="rgb(100%,0%,0%)" r="0.7" /><circle cx="328.84544263" cy="344.704268181" fill="rgb(100%,0%,0%)" r="0.7" /><circle cx="327.073628917" cy="347.125154967" fill="rgb(100%,0%,0%)" r="0.7" /><circle cx="325.287654123" cy="349.535596987" fill="rgb(100%,0%,0%)" r="0.7" /><circle cx="323.48699409" cy="351.935114028" fill="rgb(100%,0%,0%)" r="0.7" /><circle cx="321.671132824" cy="354.323123457" fill="rgb(100%,0%,0%)" r="0.7" /><circle cx="319.839474229" cy="356.699046984" fill="rgb(100%,0%,0%)" r="0.7" /><circle cx="317.991399207" cy="359.062221929" fill="rgb(100%,0%,0%)" r="0.7" /><circle cx="316.126249527" cy="361.411908657" fill="rgb(100%,0%,0%)" r="0.7" /><circle cx="314.243256557" cy="363.747361987" fill="rgb(100%,0%,0%)" r="0.7" /><circle cx="312.341652943" cy="366.067670039" fill="rgb(100%,0%,0%)" r="0.7" /><circle cx="310.420548716" cy="368.371883416" fill="rgb(100%,0%,0%)" r="0.7" /><circle cx="308.479011665" cy="370.658886248" fill="rgb(100%,0%,0%)" r="0.7" /><circle cx="306.515984046" cy="372.927459373" fill="rgb(100%,0%,0%)" r="0.7" /><circle cx="304.530293779" cy="375.176219132" fill="rgb(100%,0%,0%)" r="0.7" /><circle cx="302.520641633" cy="377.403573993" fill="rgb(100%,0%,0%)" r="0.7" /><circle cx="300.485523741" cy="379.607734996" fill="rgb(100%,0%,0%)" r="0.7" /><circle cx="298.423317706" cy="381.786524275" fill="rgb(100%,0%,0%)" r="0.7" /><circle cx="296.332069341" cy="383.93747378" fill="rgb(100%,0%,0%)" r="0.7" /><circle cx="294.209579474" cy="386.05755089" fill="rgb(100%,0%,0%)" r="0.7" /><circle cx="292.053157601" cy="388.143151473" fill="rgb(100%,0%,0%)" r="0.7" /><circle cx="289.859655139" cy="390.18968218" fill="rgb(100%,0%,0%)" r="0.7" /><circle cx="287.625111767" cy="392.191301843" fill="rgb(100%,0%,0%)" r="0.7" /><circle cx="285.344456463" cy="394.140179507" fill="rgb(100%,0%,0%)" r="0.7" /><circle cx="283.010807283" cy="396.025220547" fill="rgb(100%,0%,0%)" r="0.7" /><circle cx="280.614011839" cy="397.829156131" fill="rgb(100%,0%,0%)" r="0.7" /><circle cx="278.13632405" cy="399.519917159" fill="rgb(100%,0%,0%)" r="0.7" /><circle cx="275.551235291" cy="401.039510374" fill="rgb(100%,0%,0%)" r="0.7" /><circle cx="272.903033062" cy="402.446213472" fill="rgb(100%,0%,0%)" r="0.7" /><circle cx="270.139115943" cy="403.61086343" fill="rgb(100%,0%,0%)" r="0.7" /><circle cx="267.303596507" cy="404.589312686" fill="rgb(100%,0%,0%)" r="0.7" /><circle cx="264.421339095" cy="405.420575092" fill="rgb(100%,0%,0%)" r="0.7" /><circle cx="261.507193006" cy="406.132425699" fill="rgb(100%,0%,0%)" r="0.7" /><circle cx="258.570547874" cy="406.745136071" fill="rgb(100%,0%,0%)" r="0.7" /><circle cx="255.617598652" cy="407.273882527" fill="rgb(100%,0%,0%)" r="0.7" /><circle cx="252.652581591" cy="407.730282844" fill="rgb(100%,0%,0%)" r="0.7" /><circle cx="249.678499152" cy="408.123396707" fill="rgb(100%,0%,0%)" r="0.7" /><circle cx="246.697526614" cy="408.460398418" fill="rgb(100%,0%,0%)" r="0.7" /><circle cx="243.711283285" cy="408.747031996" fill="rgb(100%,0%,0%)" r="0.7" /><circle cx="240.720993191" cy="408.987927056" fill="rgb(100%,0%,0%)" r="0.7" /><circle cx="237.727616678" cy="409.186814443" fill="rgb(100%,0%,0%)" r="0.7" /><circle cx="234.731898761" cy="409.346673044" fill="rgb(100%,0%,0%)" r="0.7" /><circle cx="231.734444805" cy="409.469811488" fill="rgb(100%,0%,0%)" r="0.7" /><circle cx="228.735759035" cy="409.557887618" fill="rgb(100%,0%,0%)" r="0.7" /><circle cx="225.73624629" cy="409.61183416" fill="rgb(100%,0%,0%)" r="0.7" /><circle cx="222.736332695" cy="409.631582837" fill="rgb(100%,0%,0%)" r="0.7" /><circle cx="219.736383669" cy="409.61514755" fill="rgb(100%,0%,0%)" r="0.7" /><circle cx="217.076601377" cy="409.724221046" fill="rgb(100%,0%,0%)" r="0.7" /><circle cx="218.92816485" cy="412.084668611" fill="rgb(100%,0%,0%)" r="0.7" /><circle cx="220.779728322" cy="414.445116176" fill="rgb(100%,0%,0%)" r="0.7" /><circle cx="221.492523289" cy="416.717292124" fill="rgb(100%,0%,0%)" r="0.7" /><circle cx="219.299322984" cy="418.764209911" fill="rgb(100%,0%,0%)" r="0.7" /><circle cx="218.943294746" cy="420.087" fill="rgb(100%,0%,0%)" r="0.7" /><circle cx="221.943294746" cy="420.087" fill="rgb(100%,0%,0%)" r="0.7" /><circle cx="224.943294746" cy="420.087" fill="rgb(100%,0%,0%)" r="0.7" /><circle cx="227.943294746" cy="420.087" fill="rgb(100%,0%,0%)" r="0.7" /><circle cx="230.943294746" cy="420.087" fill="rgb(100%,0%,0%)" r="0.7" /><circle cx="233.943294746" cy="420.087" fill="rgb(100%,0%,0%)" r="0.7" /><circle cx="236.943294746" cy="420.087" fill="rgb(100%,0%,0%)" r="0.7" /><circle cx="239.943294746" cy="420.087" fill="rgb(100%,0%,0%)" r="0.7" /><circle cx="242.943294746" cy="420.087" fill="rgb(100%,0%,0%)" r="0.7" /><circle cx="245.943294746" cy="420.087" fill="rgb(100%,0%,0%)" r="0.7" /><circle cx="248.943294746" cy="420.087" fill="rgb(100%,0%,0%)" r="0.7" /><circle cx="251.943294746" cy="420.087" fill="rgb(100%,0%,0%)" r="0.7" /><circle cx="254.943294746" cy="420.087" fill="rgb(100%,0%,0%)" r="0.7" /><circle cx="257.943294746" cy="420.087" fill="rgb(100%,0%,0%)" r="0.7" /><circle cx="260.943294746" cy="420.087" fill="rgb(100%,0%,0%)" r="0.7" /><circle cx="263.943294746" cy="420.087" fill="rgb(100%,0%,0%)" r="0.7" /><circle cx="266.943294746" cy="420.087" fill="rgb(100%,0%,0%)" r="0.7" /><circle cx="269.943294746" cy="420.087" fill="rgb(100%,0%,0%)" r="0.7" /><circle cx="272.943294746" cy="420.087" fill="rgb(100%,0%,0%)" r="0.7" /><circle cx="275.943294746" cy="420.087" fill="rgb(100%,0%,0%)" r="0.7" /><circle cx="278.943294746" cy="420.087" fill="rgb(100%,0%,0%)" r="0.7" /><circle cx="281.943294746" cy="420.087" fill="rgb(100%,0%,0%)" r="0.7" /><circle cx="284.943294746" cy="420.087" fill="rgb(100%,0%,0%)" r="0.7" /><circle cx="339.203260819" cy="329.983866125" fill="rgb(0%,0%,100%)" r="0.7" /><circle cx="340.583093556" cy="331.845392971" fill="rgb(0%,0%,100%)" r="0.7" /><circle cx="341.903620729" cy="334.539127922" fill="rgb(0%,0%,100%)" r="0.7" /><circle cx="343.224147901" cy="337.232862873" fill="rgb(0%,0%,100%)" r="0.7" /><circle cx="345.252047255" cy="338.858179045" fill="rgb(0%,0%,100%)" r="0.7" /><circle cx="348.247571625" cy="339.021989144" fill="rgb(0%,0%,100%)" r="0.7" /><circle cx="350.113" cy="339.124" fill="rgb(0%,0%,100%)" r="0.7" /><circle cx="348.52175399" cy="341.667192184" fill="rgb(0%,0%,100%)" r="0.7" /><circle cx="346.927564356" cy="344.208578418" fill="rgb(0%,0%,100%)" r="0.7" /><circle cx="345.331142677" cy="346.748539027" fill="rgb(0%,0%,100%)" r="0.7" /><circle cx="343.732674868" cy="349.287200611" fill="rgb(0%,0%,100%)" r="0.7" /><circle cx="342.132223271" cy="351.824626391" fill="rgb(0%,0%,100%)" r="0.7" /><circle cx="340.529803787" cy="354.360830644" fill="rgb(0%,0%,100%)" r="0.7" /><circle cx="338.925421157" cy="356.895770268" fill="rgb(0%,0%,100%)" r="0.7" /><circle cx="337.319018441" cy="359.42944492" fill="rgb(0%,0%,100%)" r="0.7" /><circle cx="335.710538736" cy="361.961808622" fill="rgb(0%,0%,100%)" r="0.7" /><circle cx="334.099913832" cy="364.492791537" fill="rgb(0%,0%,100%)" r="0.7" /><circle cx="332.487039164" cy="367.02233967" fill="rgb(0%,0%,100%)" r="0.7" /><circle cx="330.871793067" cy="369.550382455" fill="rgb(0%,0%,100%)" r="0.7" /><circle cx="329.254041652" cy="372.076821065" fill="rgb(0%,0%,100%)" r="0.7" /><circle cx="327.633622026" cy="374.601548491" fill="rgb(0%,0%,100%)" r="0.7" /><circle cx="326.010343959" cy="377.12443833" fill="rgb(0%,0%,100%)" r="0.7" /><circle cx="324.383983063" cy="379.645343899" fill="rgb(0%,0%,100%)" r="0.7" /><circle cx="322.754277937" cy="382.164087405" fill="rgb(0%,0%,100%)" r="0.7" /><circle cx="321.12091704" cy="384.680459923" fill="rgb(0%,0%,100%)" r="0.7" /><circle cx="319.483523195" cy="387.194217771" fill="rgb(0%,0%,100%)" r="0.7" /><circle cx="317.841652057" cy="389.70504723" fill="rgb(0%,0%,100%)" r="0.7" /><circle cx="316.194747017" cy="392.212580976" fill="rgb(0%,0%,100%)" r="0.7" /><circle cx="314.54213063" cy="394.716335377" fill="rgb(0%,0%,100%)" r="0.7" /><circle cx="312.882907067" cy="397.21574616" fill="rgb(0%,0%,100%)" r="0.7" /><circle cx="311.215958971" cy="399.710000057" fill="rgb(0%,0%,100%)" r="0.7" /><circle cx="309.539755998" cy="402.198043876" fill="rgb(0%,0%,100%)" r="0.7" /><circle cx="307.852183343" cy="404.678362053" fill="rgb(0%,0%,100%)" r="0.7" /><circle cx="306.150085275" cy="407.148767618" fill="rgb(0%,0%,100%)" r="0.7" /><circle cx="304.42855367" cy="409.60563173" fill="rgb(0%,0%,100%)" r="0.7" /><circle cx="302.678861586" cy="412.042548366" fill="rgb(0%,0%,100%)" r="0.7" /><circle cx="300.882742414" cy="414.445318045" fill="rgb(0%,0%,100%)" r="0.7" /><circle cx="298.983036983" cy="416.766362692" fill="rgb(0%,0%,100%)" r="0.7" /><circle cx="296.801358431" cy="418.726823434" fill="rgb(0%,0%,100%)" r="0.7" /><circle cx="293.912940841" cy="419.513919352" fill="rgb(0%,0%,100%)" r="0.7" /><circle cx="290.937493068" cy="419.889277355" fill="rgb(0%,0%,100%)" r="0.7" /><circle cx="287.942967305" cy="420.064990918" fill="rgb(0%,0%,100%)" r="0.7" /><circle cx="284.943294746" cy="420.087" fill="rgb(0%,0%,100%)" r="0.7" /></svg>