<?xml version="1.0" encoding="utf-8" ?>
<svg baseProfile="full" height="100%" version="1.1" width="100%" xmlns="http://www.w3.org/2000/svg" xmlns:ev="http://www.w3.org/2001/xml-events" xmlns:xlink="http://www.w3.org/1999/xlink"><defs /><circle cx="228.886188472" cy="245.300954961" fill="rgb(100%,0%,0%)" r="0.7" /><circle cx="225.934796474" cy="245.803596101" fill="rgb(100%,0%,0%)" r="0.7" /><circle cx="223.173299124" cy="246.958779714" fill="rgb(100%,0%,0%)" r="0.7" /><circle cx="220.734017149" cy="248.69555869" fill="rgb(100%,0%,0%)" r="0.7" /><circle cx="218.674150677" cy="250.871297085" fill="rgb(100%,0%,0%)" r="0.7" /><circle cx="216.985693748" cy="253.348513918" fill="rgb(100%,0%,0%)" r="0.7" /><circle cx="215.435466508" cy="255.916813585" fill="rgb(100%,0%,0%)" r="0.7" /><circle cx="213.95106218" cy="258.523755502" fill="rgb(100%,0%,0%)" r="0.7" /><circle cx="212.523963338" cy="261.162520433" fill="rgb(100%,0%,0%)" r="0.7" /><circle cx="211.150344232" cy="263.829519219" fill="rgb(100%,0%,0%)" r="0.7" /><circle cx="209.828222209" cy="266.52241784" fill="rgb(100%,0%,0%)" r="0.7" /><circle cx="208.556577739" cy="269.239522711" fill="rgb(100%,0%,0%)" r="0.7" /><circle cx="207.334982324" cy="271.979500516" fill="rgb(100%,0%,0%)" r="0.7" /><circle cx="206.163408367" cy="274.741229578" fill="rgb(100%,0%,0%)" r="0.7" /><circle cx="205.042103777" cy="277.523752026" fill="rgb(100%,0%,0%)" r="0.7" /><circle cx="203.978457546" cy="280.328683988" fill="rgb(100%,0%,0%)" r="0.7" /><circle cx="202.953385445" cy="283.148154089" fill="rgb(100%,0%,0%)" r="0.7" /><circle cx="201.928896193" cy="285.96778852" fill="rgb(100%,0%,0%)" r="0.7" /><circle cx="200.904872482" cy="288.787609067" fill="rgb(100%,0%,0%)" r="0.7" /><circle cx="199.881283369" cy="291.607594988" fill="rgb(100%,0%,0%)" r="0.7" /><circle cx="198.858113845" cy="294.427744823" fill="rgb(100%,0%,0%)" r="0.7" /><circle cx="197.835378497" cy="297.248007596" fill="rgb(100%,0%,0%)" r="0.7" /><circle cx="196.813057439" cy="300.068447747" fill="rgb(100%,0%,0%)" r="0.7" /><circle cx="195.791166324" cy="302.889046808" fill="rgb(100%,0%,0%)" r="0.7" /><circle cx="194.769719597" cy="305.70980218" fill="rgb(100%,0%,0%)" r="0.7" /><circle cx="193.748731681" cy="308.530722788" fill="rgb(100%,0%,0%)" r="0.7" /><circle cx="192.728221503" cy="311.351816364" fill="rgb(100%,0%,0%)" r="0.7" /><circle cx="191.708209894" cy="314.173097047" fill="rgb(100%,0%,0%)" r="0.7" /><circle cx="190.68872765" cy="316.994563978" fill="rgb(100%,0%,0%)" r="0.7" /><circle cx="189.669806304" cy="319.816228252" fill="rgb(100%,0%,0%)" r="0.7" /><circle cx="188.651479493" cy="322.638111134" fill="rgb(100%,0%,0%)" r="0.7" /><circle cx="187.633790627" cy="325.460225452" fill="rgb(100%,0%,0%)" r="0.7" /><circle cx="186.616790165" cy="328.282586598" fill="rgb(100%,0%,0%)" r="0.7" /><circle cx="185.600536835" cy="331.105213697" fill="rgb(100%,0%,0%)" r="0.7" /><circle cx="184.585096263" cy="333.92813944" fill="rgb(100%,0%,0%)" r="0.7" /><circle cx="183.570552288" cy="336.751386719" fill="rgb(100%,0%,0%)" r="0.7" /><circle cx="182.557004037" cy="339.57498769" fill="rgb(100%,0%,0%)" r="0.7" /><circle cx="181.544569774" cy="342.398988303" fill="rgb(100%,0%,0%)" r="0.7" /><circle cx="180.533398257" cy="345.223438338" fill="rgb(100%,0%,0%)" r="0.7" /><circle cx="179.523669606" cy="348.048420801" fill="rgb(100%,0%,0%)" r="0.7" /><circle cx="178.515635115" cy="350.873988863" fill="rgb(100%,0%,0%)" r="0.7" /><circle cx="177.5096072" cy="353.700270536" fill="rgb(100%,0%,0%)" r="0.7" /><circle cx="176.50601697" cy="356.527435808" fill="rgb(100%,0%,0%)" r="0.7" /><circle cx="175.505507671" cy="359.355663924" fill="rgb(100%,0%,0%)" r="0.7" /><circle cx="174.509023626" cy="362.185346179" fill="rgb(100%,0%,0%)" r="0.7" /><circle cx="173.518195845" cy="365.01701005" fill="rgb(100%,0%,0%)" r="0.7" /><circle cx="172.536165049" cy="367.851747407" fill="rgb(100%,0%,0%)" r="0.7" /><circle cx="171.570996636" cy="370.692226697" fill="rgb(100%,0%,0%)" r="0.7" /><circle cx="170.817195644" cy="373.380111918" fill="rgb(100%,0%,0%)" r="0.7" /><circle cx="173.456886776" cy="371.954618765" fill="rgb(100%,0%,0%)" r="0.7" /><circle cx="176.096577907" cy="370.529125612" fill="rgb(100%,0%,0%)" r="0.7" /><circle cx="178.736269039" cy="369.103632459" fill="rgb(100%,0%,0%)" r="0.7" /><circle cx="181.375960171" cy="367.678139306" fill="rgb(100%,0%,0%)" r="0.7" /><circle cx="184.015651302" cy="366.252646153" fill="rgb(100%,0%,0%)" r="0.7" /><circle cx="186.215707656" cy="367.389410759" fill="rgb(100%,0%,0%)" r="0.7" /><circle cx="188.229232785" cy="369.613307464" fill="rgb(100%,0%,0%)" r="0.7" /><circle cx="190.242757914" cy="371.837204169" fill="rgb(100%,0%,0%)" r="0.7" /><circle cx="192.256283043" cy="374.061100874" fill="rgb(100%,0%,0%)" r="0.7" /><circle cx="194.269808172" cy="376.28499758" fill="rgb(100%,0%,0%)" r="0.7" /><circle cx="196.283333301" cy="378.508894285" fill="rgb(100%,0%,0%)" r="0.7" /><circle cx="198.29685843" cy="380.73279099" fill="rgb(100%,0%,0%)" r="0.7" /><circle cx="200.310383559" cy="382.956687695" fill="rgb(100%,0%,0%)" r="0.7" /><circle cx="202.323908688" cy="385.1805844" fill="rgb(100%,0%,0%)" r="0.7" /><circle cx="203.131" cy="386.072" fill="rgb(100%,0%,0%)" r="0.7" /><circle cx="228.886188472" cy="245.300954961" fill="rgb(0%,0%,100%)" r="0.7" /><circle cx="231.879165877" cy="245.41898196" fill="rgb(0%,0%,100%)" r="0.7" /><circle cx="234.803673997" cy="246.071732914" fill="rgb(0%,0%,100%)" r="0.7" /><circle cx="237.57642147" cy="247.206151292" fill="rgb(0%,0%,100%)" r="0.7" /><circle cx="240.086722439" cy="248.833127923" fill="rgb(0%,0%,100%)" r="0.7" /><circle cx="242.122257278" cy="251.027915131" fill="rgb(0%,0%,100%)" r="0.7" /><circle cx="243.668352442" cy="253.594029746" fill="rgb(0%,0%,100%)" r="0.7" /><circle cx="244.786738171" cy="256.375120572" fill="rgb(0%,0%,100%)" r="0.7" /><circle cx="245.548236422" cy="259.275219227" fill="rgb(0%,0%,100%)" r="0.7" /><circle cx="245.998863987" cy="262.239871564" fill="rgb(0%,0%,100%)" r="0.7" /><circle cx="246.25346992" cy="265.227717269" fill="rgb(0%,0%,100%)" r="0.7" /><circle cx="246.300546983" cy="268.226010874" fill="rgb(0%,0%,100%)" r="0.7" /><circle cx="246.094732101" cy="271.218354316" fill="rgb(0%,0%,100%)" r="0.7" /><circle cx="245.718196887" cy="274.194312855" fill="rgb(0%,0%,100%)" r="0.7" /><circle cx="245.217814675" cy="277.152155165" fill="rgb(0%,0%,100%)" r="0.7" /><circle cx="244.622859079" cy="280.092460721" fill="rgb(0%,0%,100%)" r="0.7" /><circle cx="243.952854526" cy="283.016632636" fill="rgb(0%,0%,100%)" r="0.7" /><circle cx="243.221543333" cy="285.926075797" fill="rgb(0%,0%,100%)" r="0.7" /><circle cx="242.438970971" cy="288.82217469" fill="rgb(0%,0%,100%)" r="0.7" /><circle cx="241.612745788" cy="291.706111876" fill="rgb(0%,0%,100%)" r="0.7" /><circle cx="240.748756939" cy="294.578989022" fill="rgb(0%,0%,100%)" r="0.7" /><circle cx="239.85168681" cy="297.441729304" fill="rgb(0%,0%,100%)" r="0.7" /><circle cx="238.925330981" cy="300.295104927" fill="rgb(0%,0%,100%)" r="0.7" /><circle cx="237.972782276" cy="303.13986535" fill="rgb(0%,0%,100%)" r="0.7" /><circle cx="236.996638107" cy="305.97659327" fill="rgb(0%,0%,100%)" r="0.7" /><circle cx="235.999058787" cy="308.805880199" fill="rgb(0%,0%,100%)" r="0.7" /><circle cx="234.981904857" cy="311.628179701" fill="rgb(0%,0%,100%)" r="0.7" /><circle cx="233.946760311" cy="314.443930538" fill="rgb(0%,0%,100%)" r="0.7" /><circle cx="232.894997426" cy="317.253515693" fill="rgb(0%,0%,100%)" r="0.7" /><circle cx="231.827810699" cy="320.05727796" fill="rgb(0%,0%,100%)" r="0.7" /><circle cx="230.746244731" cy="322.855528577" fill="rgb(0%,0%,100%)" r="0.7" /><circle cx="229.651221389" cy="325.648541309" fill="rgb(0%,0%,100%)" r="0.7" /><circle cx="228.543555793" cy="328.436563093" fill="rgb(0%,0%,100%)" r="0.7" /><circle cx="227.423969001" cy="331.219822879" fill="rgb(0%,0%,100%)" r="0.7" /><circle cx="226.293106015" cy="333.998519724" fill="rgb(0%,0%,100%)" r="0.7" /><circle cx="225.151541186" cy="336.772836507" fill="rgb(0%,0%,100%)" r="0.7" /><circle cx="223.999787454" cy="339.542939015" fill="rgb(0%,0%,100%)" r="0.7" /><circle cx="222.838305615" cy="342.308971303" fill="rgb(0%,0%,100%)" r="0.7" /><circle cx="221.667501099" cy="345.071077489" fill="rgb(0%,0%,100%)" r="0.7" /><circle cx="220.487747761" cy="347.829356757" fill="rgb(0%,0%,100%)" r="0.7" /><circle cx="219.299359809" cy="350.583937984" fill="rgb(0%,0%,100%)" r="0.7" /><circle cx="218.102616455" cy="353.33492754" fill="rgb(0%,0%,100%)" r="0.7" /><circle cx="216.897787696" cy="356.082354777" fill="rgb(0%,0%,100%)" r="0.7" /><circle cx="215.685068704" cy="358.826323386" fill="rgb(0%,0%,100%)" r="0.7" /><circle cx="214.464642507" cy="361.566865715" fill="rgb(0%,0%,100%)" r="0.7" /><circle cx="213.236643422" cy="364.304020015" fill="rgb(0%,0%,100%)" r="0.7" /><circle cx="212.001174275" cy="367.037779931" fill="rgb(0%,0%,100%)" r="0.7" /><circle cx="210.758249852" cy="369.76819881" fill="rgb(0%,0%,100%)" r="0.7" /><circle cx="209.507855774" cy="372.49522381" fill="rgb(0%,0%,100%)" r="0.7" /><circle cx="208.249902232" cy="375.218736444" fill="rgb(0%,0%,100%)" r="0.7" /><circle cx="206.984135117" cy="377.938625354" fill="rgb(0%,0%,100%)" r="0.7" /><circle cx="205.710073179" cy="380.654658449" fill="rgb(0%,0%,100%)" r="0.7" /><circle cx="204.426736368" cy="383.366331006" fill="rgb(0%,0%,100%)" r="0.7" /><circle cx="203.131" cy="386.072" fill="rgb(0%,0%,100%)" r="0.7" /></svg>