<?xml version="1.0" encoding="utf-8" ?>
<svg baseProfile="full" height="100%" version="1.1" width="100%" xmlns="http://www.w3.org/2000/svg" xmlns:ev="http://www.w3.org/2001/xml-events" xmlns:xlink="http://www.w3.org/1999/xlink"><defs /><circle cx="281.902767137" cy="307.476755092" fill="rgb(100%,0%,0%)" r="0.7" /><circle cx="278.94115036" cy="307.896344623" fill="rgb(100%,0%,0%)" r="0.7" /><circle cx="276.068397626" cy="308.755788679" fill="rgb(100%,0%,0%)" r="0.7" /><circle cx="273.233215097" cy="309.733812679" fill="rgb(100%,0%,0%)" r="0.7" /><circle cx="270.477258522" cy="310.917586973" fill="rgb(100%,0%,0%)" r="0.7" /><circle cx="267.803744396" cy="312.277492866" fill="rgb(100%,0%,0%)" r="0.7" /><circle cx="265.219934848" cy="313.801005843" fill="rgb(100%,0%,0%)" r="0.7" /><circle cx="262.734559576" cy="315.480320993" fill="rgb(100%,0%,0%)" r="0.7" /><circle cx="260.356983907" cy="317.309054539" fill="rgb(100%,0%,0%)" r="0.7" /><circle cx="258.096652816" cy="319.280868121" fill="rgb(100%,0%,0%)" r="0.7" /><circle cx="255.962651988" cy="321.388751936" fill="rgb(100%,0%,0%)" r="0.7" /><circle cx="253.963247386" cy="323.624705787" fill="rgb(100%,0%,0%)" r="0.7" /><circle cx="252.105471049" cy="325.97966651" fill="rgb(100%,0%,0%)" r="0.7" /><circle cx="250.394806749" cy="328.443585756" fill="rgb(100%,0%,0%)" r="0.7" /><circle cx="248.834958891" cy="331.005659074" fill="rgb(100%,0%,0%)" r="0.7" /><circle cx="247.427734198" cy="333.654664312" fill="rgb(100%,0%,0%)" r="0.7" /><circle cx="246.173086981" cy="336.379275317" fill="rgb(100%,0%,0%)" r="0.7" /><circle cx="245.069238736" cy="339.16843213" fill="rgb(100%,0%,0%)" r="0.7" /><circle cx="244.53950445" cy="342.115581039" fill="rgb(100%,0%,0%)" r="0.7" /><circle cx="244.172358649" cy="345.092920536" fill="rgb(100%,0%,0%)" r="0.7" /><circle cx="243.891215251" cy="348.079620202" fill="rgb(100%,0%,0%)" r="0.7" /><circle cx="243.692345687" cy="351.072927981" fill="rgb(100%,0%,0%)" r="0.7" /><circle cx="243.57655242" cy="354.070595012" fill="rgb(100%,0%,0%)" r="0.7" /><circle cx="243.547002059" cy="357.070347805" fill="rgb(100%,0%,0%)" r="0.7" /><circle cx="243.608576313" cy="360.069591617" fill="rgb(100%,0%,0%)" r="0.7" /><circle cx="243.76766444" cy="363.065226291" fill="rgb(100%,0%,0%)" r="0.7" /><circle cx="244.032136022" cy="366.053378676" fill="rgb(100%,0%,0%)" r="0.7" /><circle cx="244.411396153" cy="369.029104917" fill="rgb(100%,0%,0%)" r="0.7" /><circle cx="244.916475885" cy="371.986030292" fill="rgb(100%,0%,0%)" r="0.7" /><circle cx="245.560106522" cy="374.915858723" fill="rgb(100%,0%,0%)" r="0.7" /><circle cx="246.356715442" cy="377.807761535" fill="rgb(100%,0%,0%)" r="0.7" /><circle cx="247.322241932" cy="380.647627589" fill="rgb(100%,0%,0%)" r="0.7" /><circle cx="248.473621393" cy="383.41721797" fill="rgb(100%,0%,0%)" r="0.7" /><circle cx="249.827731888" cy="386.093359292" fill="rgb(100%,0%,0%)" r="0.7" /><circle cx="251.236983117" cy="388.738686577" fill="rgb(100%,0%,0%)" r="0.7" /><circle cx="252.642419801" cy="391.388856366" fill="rgb(100%,0%,0%)" r="0.7" /><circle cx="254.143822937" cy="393.985976341" fill="rgb(100%,0%,0%)" r="0.7" /><circle cx="255.725218098" cy="396.535185256" fill="rgb(100%,0%,0%)" r="0.7" /><circle cx="257.379153884" cy="399.037968614" fill="rgb(100%,0%,0%)" r="0.7" /><circle cx="259.101183701" cy="401.494409796" fill="rgb(100%,0%,0%)" r="0.7" /><circle cx="260.888331996" cy="403.903880104" fill="rgb(100%,0%,0%)" r="0.7" /><circle cx="262.738466651" cy="406.265337025" fill="rgb(100%,0%,0%)" r="0.7" /><circle cx="264.649943401" cy="408.577425218" fill="rgb(100%,0%,0%)" r="0.7" /><circle cx="266.621424323" cy="410.838569494" fill="rgb(100%,0%,0%)" r="0.7" /><circle cx="268.651751067" cy="413.047020558" fill="rgb(100%,0%,0%)" r="0.7" /><circle cx="270.739869614" cy="415.200901474" fill="rgb(100%,0%,0%)" r="0.7" /><circle cx="272.8847757" cy="417.298241862" fill="rgb(100%,0%,0%)" r="0.7" /><circle cx="275.085452038" cy="419.336986092" fill="rgb(100%,0%,0%)" r="0.7" /><circle cx="277.340842231" cy="421.31502772" fill="rgb(100%,0%,0%)" r="0.7" /><circle cx="279.649830178" cy="423.230238954" fill="rgb(100%,0%,0%)" r="0.7" /><circle cx="282.011193347" cy="425.08047386" fill="rgb(100%,0%,0%)" r="0.7" /><circle cx="284.423485111" cy="426.863777439" fill="rgb(100%,0%,0%)" r="0.7" /><circle cx="286.840920463" cy="428.640272462" fill="rgb(100%,0%,0%)" r="0.7" /><circle cx="289.266835058" cy="430.405201224" fill="rgb(100%,0%,0%)" r="0.7" /><circle cx="291.699520192" cy="432.160768996" fill="rgb(100%,0%,0%)" r="0.7" /><circle cx="294.138638048" cy="433.907399243" fill="rgb(100%,0%,0%)" r="0.7" /><circle cx="296.584179506" cy="435.645031905" fill="rgb(100%,0%,0%)" r="0.7" /><circle cx="299.036311184" cy="437.37333742" fill="rgb(100%,0%,0%)" r="0.7" /><circle cx="301.495353041" cy="439.091793695" fill="rgb(100%,0%,0%)" r="0.7" /><circle cx="303.961750926" cy="440.799683731" fill="rgb(100%,0%,0%)" r="0.7" /><circle cx="306.436071613" cy="442.496070027" fill="rgb(100%,0%,0%)" r="0.7" /><circle cx="308.919042058" cy="444.17976807" fill="rgb(100%,0%,0%)" r="0.7" /><circle cx="311.411575998" cy="445.849275775" fill="rgb(100%,0%,0%)" r="0.7" /><circle cx="313.914825492" cy="447.502672309" fill="rgb(100%,0%,0%)" r="0.7" /><circle cx="316.430259689" cy="449.1374627" fill="rgb(100%,0%,0%)" r="0.7" /><circle cx="318.959801765" cy="450.750341662" fill="rgb(100%,0%,0%)" r="0.7" /><circle cx="321.506002505" cy="452.336773333" fill="rgb(100%,0%,0%)" r="0.7" /><circle cx="324.07240501" cy="453.890301171" fill="rgb(100%,0%,0%)" r="0.7" /><circle cx="326.664114333" cy="455.401178905" fill="rgb(100%,0%,0%)" r="0.7" /><circle cx="329.289027881" cy="456.853533177" fill="rgb(100%,0%,0%)" r="0.7" /><circle cx="331.960432028" cy="458.2182024" fill="rgb(100%,0%,0%)" r="0.7" /><circle cx="334.12658663" cy="458.867333147" fill="rgb(100%,0%,0%)" r="0.7" /><circle cx="281.902767137" cy="307.476755092" fill="rgb(0%,0%,100%)" r="0.7" /><circle cx="284.721457769" cy="308.334482644" fill="rgb(0%,0%,100%)" r="0.7" /><circle cx="286.171567242" cy="310.888199398" fill="rgb(0%,0%,100%)" r="0.7" /><circle cx="286.250299005" cy="313.875118574" fill="rgb(0%,0%,100%)" r="0.7" /><circle cx="285.566423213" cy="316.785881072" fill="rgb(0%,0%,100%)" r="0.7" /><circle cx="284.304350813" cy="319.506857453" fill="rgb(0%,0%,100%)" r="0.7" /><circle cx="282.942036817" cy="322.179650158" fill="rgb(0%,0%,100%)" r="0.7" /><circle cx="281.540690284" cy="324.832223729" fill="rgb(0%,0%,100%)" r="0.7" /><circle cx="280.116531253" cy="327.472630361" fill="rgb(0%,0%,100%)" r="0.7" /><circle cx="278.676681631" cy="330.104517093" fill="rgb(0%,0%,100%)" r="0.7" /><circle cx="277.224935407" cy="332.729862246" fill="rgb(0%,0%,100%)" r="0.7" /><circle cx="275.763473182" cy="335.349809324" fill="rgb(0%,0%,100%)" r="0.7" /><circle cx="274.293428827" cy="337.964955761" fill="rgb(0%,0%,100%)" r="0.7" /><circle cx="272.814461559" cy="340.575067655" fill="rgb(0%,0%,100%)" r="0.7" /><circle cx="271.716552969" cy="343.364446959" fill="rgb(0%,0%,100%)" r="0.7" /><circle cx="270.965117341" cy="346.266927808" fill="rgb(0%,0%,100%)" r="0.7" /><circle cx="270.566251787" cy="349.238524217" fill="rgb(0%,0%,100%)" r="0.7" /><circle cx="270.512353599" cy="352.236473509" fill="rgb(0%,0%,100%)" r="0.7" /><circle cx="270.780259901" cy="355.223164733" fill="rgb(0%,0%,100%)" r="0.7" /><circle cx="271.337458504" cy="358.169885807" fill="rgb(0%,0%,100%)" r="0.7" /><circle cx="272.14827701" cy="361.057371512" fill="rgb(0%,0%,100%)" r="0.7" /><circle cx="273.178273203" cy="363.874323741" fill="rgb(0%,0%,100%)" r="0.7" /><circle cx="274.396576299" cy="366.615257021" fill="rgb(0%,0%,100%)" r="0.7" /><circle cx="275.776716979" cy="369.278495858" fill="rgb(0%,0%,100%)" r="0.7" /><circle cx="277.296597069" cy="371.864626136" fill="rgb(0%,0%,100%)" r="0.7" /><circle cx="278.938079187" cy="374.375403154" fill="rgb(0%,0%,100%)" r="0.7" /><circle cx="280.686472639" cy="376.812994164" fill="rgb(0%,0%,100%)" r="0.7" /><circle cx="282.530077429" cy="379.17943786" fill="rgb(0%,0%,100%)" r="0.7" /><circle cx="284.45986489" cy="381.476155753" fill="rgb(0%,0%,100%)" r="0.7" /><circle cx="286.469481987" cy="383.703385859" fill="rgb(0%,0%,100%)" r="0.7" /><circle cx="288.555848207" cy="385.858878671" fill="rgb(0%,0%,100%)" r="0.7" /><circle cx="290.722776029" cy="387.933254607" fill="rgb(0%,0%,100%)" r="0.7" /><circle cx="292.96591681" cy="389.925242713" fill="rgb(0%,0%,100%)" r="0.7" /><circle cx="295.23991958" cy="391.881946029" fill="rgb(0%,0%,100%)" r="0.7" /><circle cx="297.546134117" cy="393.800588658" fill="rgb(0%,0%,100%)" r="0.7" /><circle cx="299.882555525" cy="395.682328079" fill="rgb(0%,0%,100%)" r="0.7" /><circle cx="302.247414715" cy="397.528212851" fill="rgb(0%,0%,100%)" r="0.7" /><circle cx="304.639135205" cy="399.339157583" fill="rgb(0%,0%,100%)" r="0.7" /><circle cx="307.056334568" cy="401.115947654" fill="rgb(0%,0%,100%)" r="0.7" /><circle cx="309.497816418" cy="402.859227347" fill="rgb(0%,0%,100%)" r="0.7" /><circle cx="311.96255562" cy="404.569472317" fill="rgb(0%,0%,100%)" r="0.7" /><circle cx="314.449700864" cy="406.246958457" fill="rgb(0%,0%,100%)" r="0.7" /><circle cx="316.958611878" cy="407.891726272" fill="rgb(0%,0%,100%)" r="0.7" /><circle cx="319.488861932" cy="409.503472597" fill="rgb(0%,0%,100%)" r="0.7" /><circle cx="322.040326608" cy="411.081401103" fill="rgb(0%,0%,100%)" r="0.7" /><circle cx="324.613377315" cy="412.623904227" fill="rgb(0%,0%,100%)" r="0.7" /><circle cx="327.209241326" cy="414.127649604" fill="rgb(0%,0%,100%)" r="0.7" /><circle cx="329.831962939" cy="415.584023784" fill="rgb(0%,0%,100%)" r="0.7" /><circle cx="332.517798292" cy="416.919509027" fill="rgb(0%,0%,100%)" r="0.7" /><circle cx="335.202494985" cy="418.258270408" fill="rgb(0%,0%,100%)" r="0.7" /><circle cx="337.869412917" cy="419.632106698" fill="rgb(0%,0%,100%)" r="0.7" /><circle cx="340.518451661" cy="421.04010886" fill="rgb(0%,0%,100%)" r="0.7" /><circle cx="343.149440162" cy="422.481560749" fill="rgb(0%,0%,100%)" r="0.7" /><circle cx="345.762103549" cy="423.955964623" fill="rgb(0%,0%,100%)" r="0.7" /><circle cx="348.356025661" cy="425.463094202" fill="rgb(0%,0%,100%)" r="0.7" /><circle cx="350.930580065" cy="427.00308716" fill="rgb(0%,0%,100%)" r="0.7" /><circle cx="353.484773324" cy="428.576606732" fill="rgb(0%,0%,100%)" r="0.7" /><circle cx="356.016986887" cy="430.185247837" fill="rgb(0%,0%,100%)" r="0.7" /><circle cx="358.524162354" cy="431.832631112" fill="rgb(0%,0%,100%)" r="0.7" /><circle cx="360.997" cy="433.531" fill="rgb(0%,0%,100%)" r="0.7" /><circle cx="360.888185005" cy="433.535393279" fill="rgb(0%,0%,100%)" r="0.7" /><circle cx="357.89062709" cy="433.656416209" fill="rgb(0%,0%,100%)" r="0.7" /><circle cx="354.893069176" cy="433.777439138" fill="rgb(0%,0%,100%)" r="0.7" /><circle cx="351.895511261" cy="433.898462067" fill="rgb(0%,0%,100%)" r="0.7" /><circle cx="348.897953347" cy="434.019484996" fill="rgb(0%,0%,100%)" r="0.7" /><circle cx="345.900395432" cy="434.140507925" fill="rgb(0%,0%,100%)" r="0.7" /><circle cx="342.902837518" cy="434.261530854" fill="rgb(0%,0%,100%)" r="0.7" /><circle cx="339.905279603" cy="434.382553784" fill="rgb(0%,0%,100%)" r="0.7" /><circle cx="336.907721689" cy="434.503576713" fill="rgb(0%,0%,100%)" r="0.7" /><circle cx="333.910163774" cy="434.624599642" fill="rgb(0%,0%,100%)" r="0.7" /><circle cx="330.91260586" cy="434.745622571" fill="rgb(0%,0%,100%)" r="0.7" /><circle cx="327.915047945" cy="434.8666455" fill="rgb(0%,0%,100%)" r="0.7" /><circle cx="324.917490031" cy="434.987668429" fill="rgb(0%,0%,100%)" r="0.7" /><circle cx="324.640041038" cy="436.821801792" fill="rgb(0%,0%,100%)" r="0.7" /><circle cx="325.825859237" cy="439.577493211" fill="rgb(0%,0%,100%)" r="0.7" /><circle cx="327.011677436" cy="442.333184631" fill="rgb(0%,0%,100%)" r="0.7" /><circle cx="328.197495635" cy="445.08887605" fill="rgb(0%,0%,100%)" r="0.7" /><circle cx="329.383313834" cy="447.84456747" fill="rgb(0%,0%,100%)" r="0.7" /><circle cx="330.569132033" cy="450.600258889" fill="rgb(0%,0%,100%)" r="0.7" /><circle cx="331.754950232" cy="453.355950309" fill="rgb(0%,0%,100%)" r="0.7" /><circle cx="332.940768431" cy="456.111641728" fill="rgb(0%,0%,100%)" r="0.7" /><circle cx="334.12658663" cy="458.867333147" fill="rgb(0%,0%,100%)" r="0.7" /></svg>