<?xml version="1.0" encoding="utf-8" ?>
<svg baseProfile="full" height="100%" version="1.1" width="100%" xmlns="http://www.w3.org/2000/svg" xmlns:ev="http://www.w3.org/2001/xml-events" xmlns:xlink="http://www.w3.org/1999/xlink"><defs /><circle cx="444.441313531" cy="314.755584464" fill="rgb(100%,0%,0%)" r="0.7" /><circle cx="441.469958345" cy="315.088783864" fill="rgb(100%,0%,0%)" r="0.7" /><circle cx="438.608563418" cy="315.983395488" fill="rgb(100%,0%,0%)" r="0.7" /><circle cx="435.846621666" cy="317.152805307" fill="rgb(100%,0%,0%)" r="0.7" /><circle cx="433.160749499" cy="318.488547755" fill="rgb(100%,0%,0%)" r="0.7" /><circle cx="430.53418545" cy="319.937735623" fill="rgb(100%,0%,0%)" r="0.7" /><circle cx="427.944489718" cy="321.443919361" fill="rgb(100%,0%,0%)" r="0.7" /><circle cx="425.054722505" cy="322.225322401" fill="rgb(100%,0%,0%)" r="0.7" /><circle cx="422.074904151" cy="322.561138252" fill="rgb(100%,0%,0%)" r="0.7" /><circle cx="419.097217864" cy="322.897006139" fill="rgb(100%,0%,0%)" r="0.7" /><circle cx="416.188041982" cy="323.624001801" fill="rgb(100%,0%,0%)" r="0.7" /><circle cx="413.359802921" cy="324.621733833" fill="rgb(100%,0%,0%)" r="0.7" /><circle cx="410.621772816" cy="325.845965647" fill="rgb(100%,0%,0%)" r="0.7" /><circle cx="407.981276052" cy="327.268651131" fill="rgb(100%,0%,0%)" r="0.7" /><circle cx="405.443663339" cy="328.86780159" fill="rgb(100%,0%,0%)" r="0.7" /><circle cx="403.012402752" cy="330.62455825" fill="rgb(100%,0%,0%)" r="0.7" /><circle cx="400.689284364" cy="332.522090264" fill="rgb(100%,0%,0%)" r="0.7" /><circle cx="398.474586229" cy="334.545201459" fill="rgb(100%,0%,0%)" r="0.7" /><circle cx="396.367372136" cy="336.680099605" fill="rgb(100%,0%,0%)" r="0.7" /><circle cx="394.365716117" cy="338.91431165" fill="rgb(100%,0%,0%)" r="0.7" /><circle cx="392.466921339" cy="341.236626798" fill="rgb(100%,0%,0%)" r="0.7" /><circle cx="390.667755282" cy="343.636992152" fill="rgb(100%,0%,0%)" r="0.7" /><circle cx="388.964612272" cy="346.106447246" fill="rgb(100%,0%,0%)" r="0.7" /><circle cx="387.29137717" cy="348.596261033" fill="rgb(100%,0%,0%)" r="0.7" /><circle cx="385.694433589" cy="351.135794811" fill="rgb(100%,0%,0%)" r="0.7" /><circle cx="384.163988054" cy="353.715973353" fill="rgb(100%,0%,0%)" r="0.7" /><circle cx="382.698402038" cy="356.333522303" fill="rgb(100%,0%,0%)" r="0.7" /><circle cx="381.299455477" cy="358.987289668" fill="rgb(100%,0%,0%)" r="0.7" /><circle cx="379.970943179" cy="361.676994285" fill="rgb(100%,0%,0%)" r="0.7" /><circle cx="378.718284423" cy="364.402832336" fill="rgb(100%,0%,0%)" r="0.7" /><circle cx="377.548504663" cy="367.165236901" fill="rgb(100%,0%,0%)" r="0.7" /><circle cx="376.470399053" cy="369.964666241" fill="rgb(100%,0%,0%)" r="0.7" /><circle cx="375.494803648" cy="372.801410294" fill="rgb(100%,0%,0%)" r="0.7" /><circle cx="374.634983328" cy="375.675315858" fill="rgb(100%,0%,0%)" r="0.7" /><circle cx="373.907123964" cy="378.585378083" fill="rgb(100%,0%,0%)" r="0.7" /><circle cx="373.330902225" cy="381.529131071" fill="rgb(100%,0%,0%)" r="0.7" /><circle cx="372.930066649" cy="384.501724151" fill="rgb(100%,0%,0%)" r="0.7" /><circle cx="373.629813632" cy="385.456186368" fill="rgb(100%,0%,0%)" r="0.7" /><circle cx="375.751133975" cy="383.334866025" fill="rgb(100%,0%,0%)" r="0.7" /><circle cx="377.872454319" cy="381.213545681" fill="rgb(100%,0%,0%)" r="0.7" /><circle cx="379.993774662" cy="379.092225338" fill="rgb(100%,0%,0%)" r="0.7" /><circle cx="381.768164803" cy="381.270215336" fill="rgb(100%,0%,0%)" r="0.7" /><circle cx="383.52189515" cy="383.70423051" fill="rgb(100%,0%,0%)" r="0.7" /><circle cx="385.275625497" cy="386.138245685" fill="rgb(100%,0%,0%)" r="0.7" /><circle cx="387.029355844" cy="388.57226086" fill="rgb(100%,0%,0%)" r="0.7" /><circle cx="388.783086191" cy="391.006276034" fill="rgb(100%,0%,0%)" r="0.7" /><circle cx="390.536816538" cy="393.440291209" fill="rgb(100%,0%,0%)" r="0.7" /><circle cx="392.290546885" cy="395.874306383" fill="rgb(100%,0%,0%)" r="0.7" /><circle cx="393.923" cy="398.14" fill="rgb(100%,0%,0%)" r="0.7" /><circle cx="444.441313531" cy="314.755584464" fill="rgb(0%,0%,100%)" r="0.7" /><circle cx="447.082146414" cy="315.949960937" fill="rgb(0%,0%,100%)" r="0.7" /><circle cx="447.879400792" cy="318.819988571" fill="rgb(0%,0%,100%)" r="0.7" /><circle cx="448.032910077" cy="321.810165301" fill="rgb(0%,0%,100%)" r="0.7" /><circle cx="447.487964834" cy="324.752278511" fill="rgb(0%,0%,100%)" r="0.7" /><circle cx="446.183854308" cy="327.442119811" fill="rgb(0%,0%,100%)" r="0.7" /><circle cx="444.554836662" cy="329.945831148" fill="rgb(0%,0%,100%)" r="0.7" /><circle cx="442.247973866" cy="331.842862864" fill="rgb(0%,0%,100%)" r="0.7" /><circle cx="439.5135027" cy="333.062632931" fill="rgb(0%,0%,100%)" r="0.7" /><circle cx="436.603336524" cy="333.780236293" fill="rgb(0%,0%,100%)" r="0.7" /><circle cx="433.624656718" cy="334.1238162" fill="rgb(0%,0%,100%)" r="0.7" /><circle cx="430.628663049" cy="334.227220257" fill="rgb(0%,0%,100%)" r="0.7" /><circle cx="427.670920571" cy="334.720287335" fill="rgb(0%,0%,100%)" r="0.7" /><circle cx="424.763950832" cy="335.459388146" fill="rgb(0%,0%,100%)" r="0.7" /><circle cx="421.904492502" cy="336.365696072" fill="rgb(0%,0%,100%)" r="0.7" /><circle cx="419.15232834" cy="337.550167516" fill="rgb(0%,0%,100%)" r="0.7" /><circle cx="416.610087323" cy="339.138795604" fill="rgb(0%,0%,100%)" r="0.7" /><circle cx="414.272497948" cy="341.0169505" fill="rgb(0%,0%,100%)" r="0.7" /><circle cx="412.120174957" cy="343.10556309" fill="rgb(0%,0%,100%)" r="0.7" /><circle cx="410.130593874" cy="345.350142184" fill="rgb(0%,0%,100%)" r="0.7" /><circle cx="408.283282606" cy="347.713415252" fill="rgb(0%,0%,100%)" r="0.7" /><circle cx="406.561296385" cy="350.169638216" fill="rgb(0%,0%,100%)" r="0.7" /><circle cx="404.951383858" cy="352.700815473" fill="rgb(0%,0%,100%)" r="0.7" /><circle cx="403.443918955" cy="355.29436263" fill="rgb(0%,0%,100%)" r="0.7" /><circle cx="402.033277596" cy="357.94183767" fill="rgb(0%,0%,100%)" r="0.7" /><circle cx="400.720159545" cy="360.63899257" fill="rgb(0%,0%,100%)" r="0.7" /><circle cx="399.483253863" cy="363.371593095" fill="rgb(0%,0%,100%)" r="0.7" /><circle cx="398.23558478" cy="366.099689408" fill="rgb(0%,0%,100%)" r="0.7" /><circle cx="397.08208164" cy="368.868883607" fill="rgb(0%,0%,100%)" r="0.7" /><circle cx="396.032254743" cy="371.679007151" fill="rgb(0%,0%,100%)" r="0.7" /><circle cx="395.096972276" cy="374.529244243" fill="rgb(0%,0%,100%)" r="0.7" /><circle cx="394.288666981" cy="377.418026739" fill="rgb(0%,0%,100%)" r="0.7" /><circle cx="393.621703672" cy="380.342614933" fill="rgb(0%,0%,100%)" r="0.7" /><circle cx="393.112821557" cy="383.298734316" fill="rgb(0%,0%,100%)" r="0.7" /><circle cx="392.781869803" cy="386.279917854" fill="rgb(0%,0%,100%)" r="0.7" /><circle cx="392.653118069" cy="389.276498878" fill="rgb(0%,0%,100%)" r="0.7" /><circle cx="392.758104238" cy="392.273772255" fill="rgb(0%,0%,100%)" r="0.7" /><circle cx="393.143816987" cy="395.247469877" fill="rgb(0%,0%,100%)" r="0.7" /><circle cx="393.923" cy="398.14" fill="rgb(0%,0%,100%)" r="0.7" /></svg>