<?xml version="1.0" encoding="utf-8" ?>
<svg baseProfile="full" height="100%" version="1.1" width="100%" xmlns="http://www.w3.org/2000/svg" xmlns:ev="http://www.w3.org/2001/xml-events" xmlns:xlink="http://www.w3.org/1999/xlink"><defs /><circle cx="299.389893161" cy="324.720093137" fill="rgb(100%,0%,0%)" r="0.7" /><circle cx="296.432530819" cy="325.079688618" fill="rgb(100%,0%,0%)" r="0.7" /><circle cx="294.696555408" cy="327.406583225" fill="rgb(100%,0%,0%)" r="0.7" /><circle cx="294.258911001" cy="330.36675394" fill="rgb(100%,0%,0%)" r="0.7" /><circle cx="294.335070479" cy="333.363901835" fill="rgb(100%,0%,0%)" r="0.7" /><circle cx="294.676754951" cy="336.336254067" fill="rgb(100%,0%,0%)" r="0.7" /><circle cx="295.530918913" cy="339.210958346" fill="rgb(100%,0%,0%)" r="0.7" /><circle cx="296.548065958" cy="342.033094686" fill="rgb(100%,0%,0%)" r="0.7" /><circle cx="297.638776244" cy="344.827747285" fill="rgb(100%,0%,0%)" r="0.7" /><circle cx="298.774088065" cy="347.604614888" fill="rgb(100%,0%,0%)" r="0.7" /><circle cx="299.940313528" cy="350.368640769" fill="rgb(100%,0%,0%)" r="0.7" /><circle cx="301.129743391" cy="353.122770019" fill="rgb(100%,0%,0%)" r="0.7" /><circle cx="302.33754889" cy="355.868891939" fill="rgb(100%,0%,0%)" r="0.7" /><circle cx="303.560504477" cy="358.608302074" fill="rgb(100%,0%,0%)" r="0.7" /><circle cx="304.796364517" cy="361.341913192" fill="rgb(100%,0%,0%)" r="0.7" /><circle cx="306.043546432" cy="364.070385974" fill="rgb(100%,0%,0%)" r="0.7" /><circle cx="307.300950905" cy="366.794159902" fill="rgb(100%,0%,0%)" r="0.7" /><circle cx="308.567915827" cy="369.513485832" fill="rgb(100%,0%,0%)" r="0.7" /><circle cx="309.844350463" cy="372.228409041" fill="rgb(100%,0%,0%)" r="0.7" /><circle cx="311.131760486" cy="374.938125753" fill="rgb(100%,0%,0%)" r="0.7" /><circle cx="299.389893161" cy="324.720093137" fill="rgb(0%,0%,100%)" r="0.7" /><circle cx="301.968180895" cy="326.15066636" fill="rgb(0%,0%,100%)" r="0.7" /><circle cx="303.929363104" cy="328.416928891" fill="rgb(0%,0%,100%)" r="0.7" /><circle cx="305.675112339" cy="330.856270663" fill="rgb(0%,0%,100%)" r="0.7" /><circle cx="307.333977943" cy="333.355818746" fill="rgb(0%,0%,100%)" r="0.7" /><circle cx="308.950335138" cy="335.883120771" fill="rgb(0%,0%,100%)" r="0.7" /><circle cx="310.415528273" cy="338.482566018" fill="rgb(0%,0%,100%)" r="0.7" /><circle cx="311.092622824" cy="341.399259504" fill="rgb(0%,0%,100%)" r="0.7" /><circle cx="311.259876285" cy="344.392192667" fill="rgb(0%,0%,100%)" r="0.7" /><circle cx="311.076282074" cy="347.385346927" fill="rgb(0%,0%,100%)" r="0.7" /><circle cx="310.742148995" cy="350.333778495" fill="rgb(0%,0%,100%)" r="0.7" /><circle cx="311.73720018" cy="353.156161631" fill="rgb(0%,0%,100%)" r="0.7" /><circle cx="312.27157538" cy="356.104927082" fill="rgb(0%,0%,100%)" r="0.7" /><circle cx="313.292005417" cy="358.926027786" fill="rgb(0%,0%,100%)" r="0.7" /><circle cx="314.348833172" cy="361.733693444" fill="rgb(0%,0%,100%)" r="0.7" /><circle cx="315.445682343" cy="364.525957255" fill="rgb(0%,0%,100%)" r="0.7" /><circle cx="316.595981716" cy="367.296592659" fill="rgb(0%,0%,100%)" r="0.7" /><circle cx="317.830397631" cy="370.030637157" fill="rgb(0%,0%,100%)" r="0.7" /><circle cx="319.244" cy="372.675" fill="rgb(0%,0%,100%)" r="0.7" /><circle cx="316.41447228" cy="371.939226822" fill="rgb(0%,0%,100%)" r="0.7" /><circle cx="313.511028744" cy="371.184233026" fill="rgb(0%,0%,100%)" r="0.7" /><circle cx="311.695696021" cy="372.376572845" fill="rgb(0%,0%,100%)" r="0.7" /><circle cx="311.131760486" cy="374.938125753" fill="rgb(0%,0%,100%)" r="0.7" /></svg>