<?xml version="1.0" encoding="utf-8" ?>
<svg baseProfile="full" height="100%" version="1.1" width="100%" xmlns="http://www.w3.org/2000/svg" xmlns:ev="http://www.w3.org/2001/xml-events" xmlns:xlink="http://www.w3.org/1999/xlink"><defs /><circle cx="304.582331824" cy="276.010514565" fill="rgb(100%,0%,0%)" r="0.7" /><circle cx="301.669478815" cy="276.52714969" fill="rgb(100%,0%,0%)" r="0.7" /><circle cx="299.304494504" cy="278.352347077" fill="rgb(100%,0%,0%)" r="0.7" /><circle cx="297.511545349" cy="280.746593239" fill="rgb(100%,0%,0%)" r="0.7" /><circle cx="296.413655134" cy="283.528620123" fill="rgb(100%,0%,0%)" r="0.7" /><circle cx="296.096974202" cy="286.503104632" fill="rgb(100%,0%,0%)" r="0.7" /><circle cx="296.514823889" cy="289.467469852" fill="rgb(100%,0%,0%)" r="0.7" /><circle cx="297.502134667" cy="292.29709712" fill="rgb(100%,0%,0%)" r="0.7" /><circle cx="298.639049203" cy="295.073294202" fill="rgb(100%,0%,0%)" r="0.7" /><circle cx="299.812035467" cy="297.834451928" fill="rgb(100%,0%,0%)" r="0.7" /><circle cx="301.020629443" cy="300.580205892" fill="rgb(100%,0%,0%)" r="0.7" /><circle cx="302.26963643" cy="303.307804793" fill="rgb(100%,0%,0%)" r="0.7" /><circle cx="303.568026732" cy="306.012221725" fill="rgb(100%,0%,0%)" r="0.7" /><circle cx="304.931236003" cy="308.684498553" fill="rgb(100%,0%,0%)" r="0.7" /><circle cx="306.373046468" cy="311.31449106" fill="rgb(100%,0%,0%)" r="0.7" /><circle cx="307.584849307" cy="314.058840639" fill="rgb(100%,0%,0%)" r="0.7" /><circle cx="308.775351698" cy="316.812508653" fill="rgb(100%,0%,0%)" r="0.7" /><circle cx="309.945317062" cy="319.574962447" fill="rgb(100%,0%,0%)" r="0.7" /><circle cx="311.092194809" cy="322.347076535" fill="rgb(100%,0%,0%)" r="0.7" /><circle cx="312.21113086" cy="325.130579666" fill="rgb(100%,0%,0%)" r="0.7" /><circle cx="313.293860055" cy="327.928353842" fill="rgb(100%,0%,0%)" r="0.7" /><circle cx="314.325481075" cy="330.745338702" fill="rgb(100%,0%,0%)" r="0.7" /><circle cx="315.27466239" cy="333.591029189" fill="rgb(100%,0%,0%)" r="0.7" /><circle cx="316.169594435" cy="336.454020897" fill="rgb(100%,0%,0%)" r="0.7" /><circle cx="316.984284363" cy="339.341099423" fill="rgb(100%,0%,0%)" r="0.7" /><circle cx="317.697411137" cy="342.254971626" fill="rgb(100%,0%,0%)" r="0.7" /><circle cx="318.318544506" cy="345.189845757" fill="rgb(100%,0%,0%)" r="0.7" /><circle cx="318.850359445" cy="348.142215458" fill="rgb(100%,0%,0%)" r="0.7" /><circle cx="319.292761354" cy="351.109304452" fill="rgb(100%,0%,0%)" r="0.7" /><circle cx="319.644102213" cy="354.088536094" fill="rgb(100%,0%,0%)" r="0.7" /><circle cx="319.901699304" cy="357.077330523" fill="rgb(100%,0%,0%)" r="0.7" /><circle cx="320.062092473" cy="360.072903147" fill="rgb(100%,0%,0%)" r="0.7" /><circle cx="320.121207126" cy="363.072174338" fill="rgb(100%,0%,0%)" r="0.7" /><circle cx="320.074469719" cy="366.071646828" fill="rgb(100%,0%,0%)" r="0.7" /><circle cx="319.916911858" cy="369.067326529" fill="rgb(100%,0%,0%)" r="0.7" /><circle cx="319.643278636" cy="372.054624747" fill="rgb(100%,0%,0%)" r="0.7" /><circle cx="319.248156005" cy="375.028272218" fill="rgb(100%,0%,0%)" r="0.7" /><circle cx="318.726124205" cy="377.982257331" fill="rgb(100%,0%,0%)" r="0.7" /><circle cx="318.071940935" cy="380.909794186" fill="rgb(100%,0%,0%)" r="0.7" /><circle cx="317.280767034" cy="383.803286443" fill="rgb(100%,0%,0%)" r="0.7" /><circle cx="316.504362606" cy="386.699592482" fill="rgb(100%,0%,0%)" r="0.7" /><circle cx="315.735732041" cy="389.599403748" fill="rgb(100%,0%,0%)" r="0.7" /><circle cx="314.914807239" cy="392.484873458" fill="rgb(100%,0%,0%)" r="0.7" /><circle cx="314.049309606" cy="395.357276481" fill="rgb(100%,0%,0%)" r="0.7" /><circle cx="313.142828355" cy="398.217030536" fill="rgb(100%,0%,0%)" r="0.7" /><circle cx="312.197378745" cy="401.064125997" fill="rgb(100%,0%,0%)" r="0.7" /><circle cx="311.214131592" cy="403.898401599" fill="rgb(100%,0%,0%)" r="0.7" /><circle cx="310.193768497" cy="406.719521966" fill="rgb(100%,0%,0%)" r="0.7" /><circle cx="309.136627532" cy="409.52706936" fill="rgb(100%,0%,0%)" r="0.7" /><circle cx="308.042807442" cy="412.320531171" fill="rgb(100%,0%,0%)" r="0.7" /><circle cx="306.912221095" cy="415.099320524" fill="rgb(100%,0%,0%)" r="0.7" /><circle cx="305.744641049" cy="417.862761192" fill="rgb(100%,0%,0%)" r="0.7" /><circle cx="304.539710695" cy="420.610123967" fill="rgb(100%,0%,0%)" r="0.7" /><circle cx="303.296975772" cy="423.340593671" fill="rgb(100%,0%,0%)" r="0.7" /><circle cx="302.015891635" cy="426.053281758" fill="rgb(100%,0%,0%)" r="0.7" /><circle cx="300.695834897" cy="428.747219751" fill="rgb(100%,0%,0%)" r="0.7" /><circle cx="302.523395856" cy="426.739372046" fill="rgb(100%,0%,0%)" r="0.7" /><circle cx="304.511952856" cy="424.493121601" fill="rgb(100%,0%,0%)" r="0.7" /><circle cx="306.500509856" cy="422.246871157" fill="rgb(100%,0%,0%)" r="0.7" /><circle cx="308.489066856" cy="420.000620713" fill="rgb(100%,0%,0%)" r="0.7" /><circle cx="310.477623855" cy="417.754370269" fill="rgb(100%,0%,0%)" r="0.7" /><circle cx="311.295565329" cy="419.60172165" fill="rgb(100%,0%,0%)" r="0.7" /><circle cx="311.795908424" cy="422.559703527" fill="rgb(100%,0%,0%)" r="0.7" /><circle cx="312.296251518" cy="425.517685405" fill="rgb(100%,0%,0%)" r="0.7" /><circle cx="312.796594613" cy="428.475667282" fill="rgb(100%,0%,0%)" r="0.7" /><circle cx="313.296937708" cy="431.43364916" fill="rgb(100%,0%,0%)" r="0.7" /><circle cx="313.797280803" cy="434.391631037" fill="rgb(100%,0%,0%)" r="0.7" /><circle cx="314.001" cy="435.596" fill="rgb(100%,0%,0%)" r="0.7" /><circle cx="304.582331824" cy="276.010514565" fill="rgb(0%,0%,100%)" r="0.7" /><circle cx="307.394406259" cy="276.992423624" fill="rgb(0%,0%,100%)" r="0.7" /><circle cx="309.755170408" cy="278.829800415" fill="rgb(0%,0%,100%)" r="0.7" /><circle cx="311.898553241" cy="280.916735361" fill="rgb(0%,0%,100%)" r="0.7" /><circle cx="313.099459463" cy="283.629400563" fill="rgb(0%,0%,100%)" r="0.7" /><circle cx="312.720225121" cy="286.570624501" fill="rgb(0%,0%,100%)" r="0.7" /><circle cx="311.000144062" cy="288.977130258" fill="rgb(0%,0%,100%)" r="0.7" /><circle cx="311.744744939" cy="291.645819234" fill="rgb(0%,0%,100%)" r="0.7" /><circle cx="313.621996747" cy="293.985239551" fill="rgb(0%,0%,100%)" r="0.7" /><circle cx="315.372945384" cy="296.420957983" fill="rgb(0%,0%,100%)" r="0.7" /><circle cx="317.029536271" cy="298.921934523" fill="rgb(0%,0%,100%)" r="0.7" /><circle cx="318.610725689" cy="301.471305616" fill="rgb(0%,0%,100%)" r="0.7" /><circle cx="320.127827429" cy="304.059357186" fill="rgb(0%,0%,100%)" r="0.7" /><circle cx="321.585996283" cy="306.681070374" fill="rgb(0%,0%,100%)" r="0.7" /><circle cx="323.004155413" cy="309.324343698" fill="rgb(0%,0%,100%)" r="0.7" /><circle cx="324.456087094" cy="311.949511205" fill="rgb(0%,0%,100%)" r="0.7" /><circle cx="325.849994812" cy="314.60594785" fill="rgb(0%,0%,100%)" r="0.7" /><circle cx="327.182536423" cy="317.293687855" fill="rgb(0%,0%,100%)" r="0.7" /><circle cx="328.450054001" cy="320.01268302" fill="rgb(0%,0%,100%)" r="0.7" /><circle cx="329.648519458" cy="322.762801252" fill="rgb(0%,0%,100%)" r="0.7" /><circle cx="330.773449457" cy="325.543804666" fill="rgb(0%,0%,100%)" r="0.7" /><circle cx="331.81978447" cy="328.355313809" fill="rgb(0%,0%,100%)" r="0.7" /><circle cx="332.781722761" cy="331.196783026" fill="rgb(0%,0%,100%)" r="0.7" /><circle cx="333.652470289" cy="334.067492216" fill="rgb(0%,0%,100%)" r="0.7" /><circle cx="334.423805564" cy="336.966474353" fill="rgb(0%,0%,100%)" r="0.7" /><circle cx="335.085314795" cy="339.892428593" fill="rgb(0%,0%,100%)" r="0.7" /><circle cx="335.622851915" cy="342.843621345" fill="rgb(0%,0%,100%)" r="0.7" /><circle cx="336.01468237" cy="345.817550066" fill="rgb(0%,0%,100%)" r="0.7" /><circle cx="336.216793527" cy="348.809992558" fill="rgb(0%,0%,100%)" r="0.7" /><circle cx="336.187159213" cy="351.809513237" fill="rgb(0%,0%,100%)" r="0.7" /><circle cx="336.041656813" cy="354.80580922" fill="rgb(0%,0%,100%)" r="0.7" /><circle cx="335.792031302" cy="357.795281325" fill="rgb(0%,0%,100%)" r="0.7" /><circle cx="335.455794883" cy="360.776289123" fill="rgb(0%,0%,100%)" r="0.7" /><circle cx="335.046187807" cy="363.748133167" fill="rgb(0%,0%,100%)" r="0.7" /><circle cx="334.573461386" cy="366.710600141" fill="rgb(0%,0%,100%)" r="0.7" /><circle cx="334.045708265" cy="369.663781383" fill="rgb(0%,0%,100%)" r="0.7" /><circle cx="333.469437894" cy="372.607878714" fill="rgb(0%,0%,100%)" r="0.7" /><circle cx="332.849955634" cy="375.543199173" fill="rgb(0%,0%,100%)" r="0.7" /><circle cx="332.191649153" cy="378.470062792" fill="rgb(0%,0%,100%)" r="0.7" /><circle cx="331.498185456" cy="381.388798301" fill="rgb(0%,0%,100%)" r="0.7" /><circle cx="330.772658034" cy="384.299731727" fill="rgb(0%,0%,100%)" r="0.7" /><circle cx="330.017698845" cy="387.203173418" fill="rgb(0%,0%,100%)" r="0.7" /><circle cx="329.235562972" cy="390.099412551" fill="rgb(0%,0%,100%)" r="0.7" /><circle cx="328.428191043" cy="392.988723603" fill="rgb(0%,0%,100%)" r="0.7" /><circle cx="327.597264445" cy="395.871347353" fill="rgb(0%,0%,100%)" r="0.7" /><circle cx="326.744238983" cy="398.747510333" fill="rgb(0%,0%,100%)" r="0.7" /><circle cx="325.870378368" cy="401.617413743" fill="rgb(0%,0%,100%)" r="0.7" /><circle cx="324.97677802" cy="404.481232505" fill="rgb(0%,0%,100%)" r="0.7" /><circle cx="324.064383181" cy="407.339113386" fill="rgb(0%,0%,100%)" r="0.7" /><circle cx="323.133997097" cy="410.191186634" fill="rgb(0%,0%,100%)" r="0.7" /><circle cx="322.186290201" cy="413.037556499" fill="rgb(0%,0%,100%)" r="0.7" /><circle cx="321.221801114" cy="415.8782978" fill="rgb(0%,0%,100%)" r="0.7" /><circle cx="320.240945997" cy="418.71340415" fill="rgb(0%,0%,100%)" r="0.7" /><circle cx="319.243955177" cy="421.54290898" fill="rgb(0%,0%,100%)" r="0.7" /><circle cx="318.230906142" cy="424.366662717" fill="rgb(0%,0%,100%)" r="0.7" /><circle cx="317.201552942" cy="427.184555544" fill="rgb(0%,0%,100%)" r="0.7" /><circle cx="316.155236821" cy="429.996184224" fill="rgb(0%,0%,100%)" r="0.7" /><circle cx="315.090311225" cy="432.800792997" fill="rgb(0%,0%,100%)" r="0.7" /><circle cx="314.001" cy="435.596" fill="rgb(0%,0%,100%)" r="0.7" /></svg>