<?xml version="1.0" encoding="utf-8" ?>
<svg baseProfile="full" height="100%" version="1.1" width="100%" xmlns="http://www.w3.org/2000/svg" xmlns:ev="http://www.w3.org/2001/xml-events" xmlns:xlink="http://www.w3.org/1999/xlink"><defs /><circle cx="275.32462619" cy="330.614774991" fill="rgb(100%,0%,0%)" r="0.7" /><circle cx="272.791610121" cy="332.16938777" fill="rgb(100%,0%,0%)" r="0.7" /><circle cx="270.892091232" cy="334.483380471" fill="rgb(100%,0%,0%)" r="0.7" /><circle cx="269.398673662" cy="337.083110268" fill="rgb(100%,0%,0%)" r="0.7" /><circle cx="268.163911928" cy="339.816403582" fill="rgb(100%,0%,0%)" r="0.7" /><circle cx="267.298300444" cy="342.683228939" fill="rgb(100%,0%,0%)" r="0.7" /><circle cx="266.334758126" cy="345.523033821" fill="rgb(100%,0%,0%)" r="0.7" /><circle cx="264.97577049" cy="348.190992702" fill="rgb(100%,0%,0%)" r="0.7" /><circle cx="262.714220636" cy="350.090811495" fill="rgb(100%,0%,0%)" r="0.7" /><circle cx="261.121306554" cy="352.607429696" fill="rgb(100%,0%,0%)" r="0.7" /><circle cx="260.3842871" cy="355.508454919" fill="rgb(100%,0%,0%)" r="0.7" /><circle cx="260.190461063" cy="358.499604558" fill="rgb(100%,0%,0%)" r="0.7" /><circle cx="260.018370271" cy="361.491512115" fill="rgb(100%,0%,0%)" r="0.7" /><circle cx="259.677664988" cy="364.472007566" fill="rgb(100%,0%,0%)" r="0.7" /><circle cx="259.255739012" cy="367.442096536" fill="rgb(100%,0%,0%)" r="0.7" /><circle cx="258.755782139" cy="370.400061547" fill="rgb(100%,0%,0%)" r="0.7" /><circle cx="258.175986197" cy="373.343399914" fill="rgb(100%,0%,0%)" r="0.7" /><circle cx="257.51182352" cy="376.268846912" fill="rgb(100%,0%,0%)" r="0.7" /><circle cx="256.756594633" cy="379.172090396" fill="rgb(100%,0%,0%)" r="0.7" /><circle cx="255.901442406" cy="382.04745487" fill="rgb(100%,0%,0%)" r="0.7" /><circle cx="254.935135943" cy="384.887343419" fill="rgb(100%,0%,0%)" r="0.7" /><circle cx="253.843689815" cy="387.681452718" fill="rgb(100%,0%,0%)" r="0.7" /><circle cx="252.609893514" cy="390.415576087" fill="rgb(100%,0%,0%)" r="0.7" /><circle cx="251.21286088" cy="393.069826434" fill="rgb(100%,0%,0%)" r="0.7" /><circle cx="249.627890476" cy="395.616032224" fill="rgb(100%,0%,0%)" r="0.7" /><circle cx="249.087817278" cy="396.876475163" fill="rgb(100%,0%,0%)" r="0.7" /><circle cx="251.603158321" cy="395.241525796" fill="rgb(100%,0%,0%)" r="0.7" /><circle cx="254.065078234" cy="393.803140992" fill="rgb(100%,0%,0%)" r="0.7" /><circle cx="255.406854998" cy="396.486354572" fill="rgb(100%,0%,0%)" r="0.7" /><circle cx="256.748631762" cy="399.169568152" fill="rgb(100%,0%,0%)" r="0.7" /><circle cx="257.951" cy="401.574" fill="rgb(100%,0%,0%)" r="0.7" /><circle cx="275.32462619" cy="330.614774991" fill="rgb(0%,0%,100%)" r="0.7" /><circle cx="278.259866102" cy="330.795188758" fill="rgb(0%,0%,100%)" r="0.7" /><circle cx="280.669984997" cy="332.543401293" fill="rgb(0%,0%,100%)" r="0.7" /><circle cx="282.645099972" cy="334.794963899" fill="rgb(0%,0%,100%)" r="0.7" /><circle cx="283.966293658" cy="337.468772218" fill="rgb(0%,0%,100%)" r="0.7" /><circle cx="284.208844297" cy="340.442738269" fill="rgb(0%,0%,100%)" r="0.7" /><circle cx="283.536861951" cy="343.358240509" fill="rgb(0%,0%,100%)" r="0.7" /><circle cx="282.276987263" cy="346.077046805" fill="rgb(0%,0%,100%)" r="0.7" /><circle cx="280.652557101" cy="348.597238804" fill="rgb(0%,0%,100%)" r="0.7" /><circle cx="278.787074357" cy="350.945546761" fill="rgb(0%,0%,100%)" r="0.7" /><circle cx="276.747590597" cy="353.144849833" fill="rgb(0%,0%,100%)" r="0.7" /><circle cx="274.566574299" cy="355.203946537" fill="rgb(0%,0%,100%)" r="0.7" /><circle cx="272.376926902" cy="357.249814599" fill="rgb(0%,0%,100%)" r="0.7" /><circle cx="270.676457426" cy="359.712169513" fill="rgb(0%,0%,100%)" r="0.7" /><circle cx="269.657805439" cy="362.524705652" fill="rgb(0%,0%,100%)" r="0.7" /><circle cx="269.395641782" cy="365.505142632" fill="rgb(0%,0%,100%)" r="0.7" /><circle cx="269.948223061" cy="368.437390381" fill="rgb(0%,0%,100%)" r="0.7" /><circle cx="270.620956949" cy="371.351316813" fill="rgb(0%,0%,100%)" r="0.7" /><circle cx="270.460499016" cy="374.337111175" fill="rgb(0%,0%,100%)" r="0.7" /><circle cx="269.484085312" cy="377.163173742" fill="rgb(0%,0%,100%)" r="0.7" /><circle cx="268.169474062" cy="379.858043013" fill="rgb(0%,0%,100%)" r="0.7" /><circle cx="266.892164804" cy="382.572537637" fill="rgb(0%,0%,100%)" r="0.7" /><circle cx="265.614855547" cy="385.28703226" fill="rgb(0%,0%,100%)" r="0.7" /><circle cx="264.337546289" cy="388.001526883" fill="rgb(0%,0%,100%)" r="0.7" /><circle cx="263.060237031" cy="390.716021507" fill="rgb(0%,0%,100%)" r="0.7" /><circle cx="261.782927773" cy="393.43051613" fill="rgb(0%,0%,100%)" r="0.7" /><circle cx="260.505618516" cy="396.145010753" fill="rgb(0%,0%,100%)" r="0.7" /><circle cx="259.228309258" cy="398.859505377" fill="rgb(0%,0%,100%)" r="0.7" /><circle cx="257.951" cy="401.574" fill="rgb(0%,0%,100%)" r="0.7" /></svg>