<?xml version="1.0" encoding="utf-8" ?>
<svg baseProfile="full" height="100%" version="1.1" width="100%" xmlns="http://www.w3.org/2000/svg" xmlns:ev="http://www.w3.org/2001/xml-events" xmlns:xlink="http://www.w3.org/1999/xlink"><defs /><circle cx="283.375997957" cy="331.065521428" fill="rgb(100%,0%,0%)" r="0.7" /><circle cx="280.59948553" cy="332.131290704" fill="rgb(100%,0%,0%)" r="0.7" /><circle cx="278.438411823" cy="334.193221759" fill="rgb(100%,0%,0%)" r="0.7" /><circle cx="276.867077424" cy="336.742945288" fill="rgb(100%,0%,0%)" r="0.7" /><circle cx="275.732968355" cy="339.517815034" fill="rgb(100%,0%,0%)" r="0.7" /><circle cx="274.966497222" cy="342.415019755" fill="rgb(100%,0%,0%)" r="0.7" /><circle cx="274.909526772" cy="345.414033803" fill="rgb(100%,0%,0%)" r="0.7" /><circle cx="275.021323617" cy="348.411598116" fill="rgb(100%,0%,0%)" r="0.7" /><circle cx="275.284176979" cy="351.399771815" fill="rgb(100%,0%,0%)" r="0.7" /><circle cx="275.684595317" cy="354.372680652" fill="rgb(100%,0%,0%)" r="0.7" /><circle cx="276.21351882" cy="357.325455086" fill="rgb(100%,0%,0%)" r="0.7" /><circle cx="276.867552771" cy="360.253060137" fill="rgb(100%,0%,0%)" r="0.7" /><circle cx="277.653927221" cy="363.147847924" fill="rgb(100%,0%,0%)" r="0.7" /><circle cx="278.624759356" cy="365.985256508" fill="rgb(100%,0%,0%)" r="0.7" /><circle cx="280.010143563" cy="368.642246048" fill="rgb(100%,0%,0%)" r="0.7" /><circle cx="281.311433002" cy="371.345300494" fill="rgb(100%,0%,0%)" r="0.7" /><circle cx="282.589093855" cy="374.059627765" fill="rgb(100%,0%,0%)" r="0.7" /><circle cx="283.854823948" cy="376.779542418" fill="rgb(100%,0%,0%)" r="0.7" /><circle cx="285.112164096" cy="379.503344348" fill="rgb(100%,0%,0%)" r="0.7" /><circle cx="286.458143666" cy="382.183522747" fill="rgb(100%,0%,0%)" r="0.7" /><circle cx="287.901585644" cy="384.813378099" fill="rgb(100%,0%,0%)" r="0.7" /><circle cx="289.395016874" cy="387.415199594" fill="rgb(100%,0%,0%)" r="0.7" /><circle cx="290.926142293" cy="389.995036669" fill="rgb(100%,0%,0%)" r="0.7" /><circle cx="292.487025902" cy="392.556974101" fill="rgb(100%,0%,0%)" r="0.7" /><circle cx="294.072225952" cy="395.103952607" fill="rgb(100%,0%,0%)" r="0.7" /><circle cx="295.677808331" cy="397.638135432" fill="rgb(100%,0%,0%)" r="0.7" /><circle cx="297.300835829" cy="400.161181155" fill="rgb(100%,0%,0%)" r="0.7" /><circle cx="298.93905309" cy="402.674390507" fill="rgb(100%,0%,0%)" r="0.7" /><circle cx="300.590690721" cy="405.178803085" fill="rgb(100%,0%,0%)" r="0.7" /><circle cx="302.254333916" cy="407.675256628" fill="rgb(100%,0%,0%)" r="0.7" /><circle cx="303.928840884" cy="410.164438299" fill="rgb(100%,0%,0%)" r="0.7" /><circle cx="305.613278787" cy="412.646908542" fill="rgb(100%,0%,0%)" r="0.7" /><circle cx="307.306890413" cy="415.123134361" fill="rgb(100%,0%,0%)" r="0.7" /><circle cx="309.009054352" cy="417.593486854" fill="rgb(100%,0%,0%)" r="0.7" /><circle cx="310.719278367" cy="420.058266536" fill="rgb(100%,0%,0%)" r="0.7" /><circle cx="312.437182691" cy="422.517694042" fill="rgb(100%,0%,0%)" r="0.7" /><circle cx="314.162511644" cy="424.971917688" fill="rgb(100%,0%,0%)" r="0.7" /><circle cx="315.895152683" cy="427.42099195" fill="rgb(100%,0%,0%)" r="0.7" /><circle cx="317.635191652" cy="429.864819398" fill="rgb(100%,0%,0%)" r="0.7" /><circle cx="319.38311605" cy="432.303018535" fill="rgb(100%,0%,0%)" r="0.7" /><circle cx="321.141" cy="434.734" fill="rgb(100%,0%,0%)" r="0.7" /><circle cx="283.375997957" cy="331.065521428" fill="rgb(0%,0%,100%)" r="0.7" /><circle cx="286.370062873" cy="331.079962379" fill="rgb(0%,0%,100%)" r="0.7" /><circle cx="289.226223648" cy="331.921108691" fill="rgb(0%,0%,100%)" r="0.7" /><circle cx="291.125702962" cy="334.207368554" fill="rgb(0%,0%,100%)" r="0.7" /><circle cx="292.581023146" cy="336.82980419" fill="rgb(0%,0%,100%)" r="0.7" /><circle cx="293.828695427" cy="339.556436721" fill="rgb(0%,0%,100%)" r="0.7" /><circle cx="295.028397273" cy="342.306053464" fill="rgb(0%,0%,100%)" r="0.7" /><circle cx="296.283651713" cy="345.030762955" fill="rgb(0%,0%,100%)" r="0.7" /><circle cx="297.595639104" cy="347.728602634" fill="rgb(0%,0%,100%)" r="0.7" /><circle cx="298.971423256" cy="350.394445601" fill="rgb(0%,0%,100%)" r="0.7" /><circle cx="300.423271526" cy="353.019587292" fill="rgb(0%,0%,100%)" r="0.7" /><circle cx="301.970890552" cy="355.589321195" fill="rgb(0%,0%,100%)" r="0.7" /><circle cx="303.62310386" cy="358.093227255" fill="rgb(0%,0%,100%)" r="0.7" /><circle cx="305.234149728" cy="360.623833784" fill="rgb(0%,0%,100%)" r="0.7" /><circle cx="306.784258246" cy="363.192267996" fill="rgb(0%,0%,100%)" r="0.7" /><circle cx="308.292209029" cy="365.785715291" fill="rgb(0%,0%,100%)" r="0.7" /><circle cx="309.780164713" cy="368.390706399" fill="rgb(0%,0%,100%)" r="0.7" /><circle cx="311.274461991" cy="370.992057532" fill="rgb(0%,0%,100%)" r="0.7" /><circle cx="312.806829762" cy="373.571106086" fill="rgb(0%,0%,100%)" r="0.7" /><circle cx="314.416007751" cy="376.102784584" fill="rgb(0%,0%,100%)" r="0.7" /><circle cx="316.090422328" cy="378.591148944" fill="rgb(0%,0%,100%)" r="0.7" /><circle cx="317.692291256" cy="381.127684512" fill="rgb(0%,0%,100%)" r="0.7" /><circle cx="319.293202612" cy="383.664838509" fill="rgb(0%,0%,100%)" r="0.7" /><circle cx="320.893183122" cy="386.202566411" fill="rgb(0%,0%,100%)" r="0.7" /><circle cx="322.492181484" cy="388.740914312" fill="rgb(0%,0%,100%)" r="0.7" /><circle cx="324.09008129" cy="391.279953106" fill="rgb(0%,0%,100%)" r="0.7" /><circle cx="325.686705052" cy="393.819795936" fill="rgb(0%,0%,100%)" r="0.7" /><circle cx="327.281785401" cy="396.36060828" fill="rgb(0%,0%,100%)" r="0.7" /><circle cx="328.874913941" cy="398.902647117" fill="rgb(0%,0%,100%)" r="0.7" /><circle cx="330.465417442" cy="401.446326907" fill="rgb(0%,0%,100%)" r="0.7" /><circle cx="332.052065265" cy="403.992416114" fill="rgb(0%,0%,100%)" r="0.7" /><circle cx="333.632064321" cy="406.542622797" fill="rgb(0%,0%,100%)" r="0.7" /><circle cx="335.194867409" cy="409.103404563" fill="rgb(0%,0%,100%)" r="0.7" /><circle cx="337.01939316" cy="411.480894297" fill="rgb(0%,0%,100%)" r="0.7" /><circle cx="338.890958157" cy="413.825518915" fill="rgb(0%,0%,100%)" r="0.7" /><circle cx="340.767309966" cy="416.16631105" fill="rgb(0%,0%,100%)" r="0.7" /><circle cx="342.650525724" cy="418.501584629" fill="rgb(0%,0%,100%)" r="0.7" /><circle cx="344.5463469" cy="420.826623957" fill="rgb(0%,0%,100%)" r="0.7" /><circle cx="345.640405139" cy="422.648282845" fill="rgb(0%,0%,100%)" r="0.7" /><circle cx="342.676731018" cy="422.182841432" fill="rgb(0%,0%,100%)" r="0.7" /><circle cx="339.713056898" cy="421.71740002" fill="rgb(0%,0%,100%)" r="0.7" /><circle cx="336.749382778" cy="421.251958607" fill="rgb(0%,0%,100%)" r="0.7" /><circle cx="333.785708657" cy="420.786517194" fill="rgb(0%,0%,100%)" r="0.7" /><circle cx="330.822034537" cy="420.321075782" fill="rgb(0%,0%,100%)" r="0.7" /><circle cx="327.858360417" cy="419.855634369" fill="rgb(0%,0%,100%)" r="0.7" /><circle cx="324.894686296" cy="419.390192957" fill="rgb(0%,0%,100%)" r="0.7" /><circle cx="322.925570832" cy="420.243284842" fill="rgb(0%,0%,100%)" r="0.7" /><circle cx="322.558882942" cy="423.220790508" fill="rgb(0%,0%,100%)" r="0.7" /><circle cx="322.192195052" cy="426.198296174" fill="rgb(0%,0%,100%)" r="0.7" /><circle cx="321.825507163" cy="429.17580184" fill="rgb(0%,0%,100%)" r="0.7" /><circle cx="321.458819273" cy="432.153307506" fill="rgb(0%,0%,100%)" r="0.7" /><circle cx="321.141" cy="434.734" fill="rgb(0%,0%,100%)" r="0.7" /></svg>