<?xml version="1.0" encoding="utf-8" ?>
<svg baseProfile="full" height="100%" version="1.1" width="100%" xmlns="http://www.w3.org/2000/svg" xmlns:ev="http://www.w3.org/2001/xml-events" xmlns:xlink="http://www.w3.org/1999/xlink"><defs /><circle cx="294.453609094" cy="258.957945318" fill="rgb(100%,0%,0%)" r="0.7" /><circle cx="291.458452082" cy="259.07678959" fill="rgb(100%,0%,0%)" r="0.7" /><circle cx="288.495854482" cy="259.541832798" fill="rgb(100%,0%,0%)" r="0.7" /><circle cx="285.5802216" cy="260.245719881" fill="rgb(100%,0%,0%)" r="0.7" /><circle cx="282.712266744" cy="261.124790295" fill="rgb(100%,0%,0%)" r="0.7" /><circle cx="279.888938335" cy="262.138407747" fill="rgb(100%,0%,0%)" r="0.7" /><circle cx="277.106267014" cy="263.259086914" fill="rgb(100%,0%,0%)" r="0.7" /><circle cx="274.360437449" cy="264.46731073" fill="rgb(100%,0%,0%)" r="0.7" /><circle cx="271.647968714" cy="265.748712214" fill="rgb(100%,0%,0%)" r="0.7" /><circle cx="268.996843143" cy="267.148638073" fill="rgb(100%,0%,0%)" r="0.7" /><circle cx="266.48749692" cy="268.792197604" fill="rgb(100%,0%,0%)" r="0.7" /><circle cx="264.048149768" cy="270.538233078" fill="rgb(100%,0%,0%)" r="0.7" /><circle cx="261.666467175" cy="272.362218513" fill="rgb(100%,0%,0%)" r="0.7" /><circle cx="259.337087584" cy="274.252576256" fill="rgb(100%,0%,0%)" r="0.7" /><circle cx="257.056902668" cy="276.202011152" fill="rgb(100%,0%,0%)" r="0.7" /><circle cx="254.823866518" cy="278.205304785" fill="rgb(100%,0%,0%)" r="0.7" /><circle cx="252.636547844" cy="280.258413017" fill="rgb(100%,0%,0%)" r="0.7" /><circle cx="250.493861453" cy="282.358068725" fill="rgb(100%,0%,0%)" r="0.7" /><circle cx="248.394970031" cy="284.501515523" fill="rgb(100%,0%,0%)" r="0.7" /><circle cx="246.339201497" cy="286.686366904" fill="rgb(100%,0%,0%)" r="0.7" /><circle cx="244.32601552" cy="288.910494226" fill="rgb(100%,0%,0%)" r="0.7" /><circle cx="242.35491529" cy="291.172023915" fill="rgb(100%,0%,0%)" r="0.7" /><circle cx="240.425495617" cy="293.469214704" fill="rgb(100%,0%,0%)" r="0.7" /><circle cx="238.537377656" cy="295.800479404" fill="rgb(100%,0%,0%)" r="0.7" /><circle cx="236.690219319" cy="298.164335054" fill="rgb(100%,0%,0%)" r="0.7" /><circle cx="234.883706381" cy="300.559383035" fill="rgb(100%,0%,0%)" r="0.7" /><circle cx="233.117519062" cy="302.984330548" fill="rgb(100%,0%,0%)" r="0.7" /><circle cx="231.391360166" cy="305.437936169" fill="rgb(100%,0%,0%)" r="0.7" /><circle cx="229.69792264" cy="307.914188689" fill="rgb(100%,0%,0%)" r="0.7" /><circle cx="228.062901747" cy="310.429410234" fill="rgb(100%,0%,0%)" r="0.7" /><circle cx="226.478885862" cy="312.977085497" fill="rgb(100%,0%,0%)" r="0.7" /><circle cx="224.942158159" cy="315.553585897" fill="rgb(100%,0%,0%)" r="0.7" /><circle cx="223.452320614" cy="318.157455574" fill="rgb(100%,0%,0%)" r="0.7" /><circle cx="222.010452514" cy="320.788186834" fill="rgb(100%,0%,0%)" r="0.7" /><circle cx="220.618648835" cy="323.445741149" fill="rgb(100%,0%,0%)" r="0.7" /><circle cx="219.279848972" cy="326.130378416" fill="rgb(100%,0%,0%)" r="0.7" /><circle cx="217.997799618" cy="328.842577161" fill="rgb(100%,0%,0%)" r="0.7" /><circle cx="216.777119979" cy="331.582932721" fill="rgb(100%,0%,0%)" r="0.7" /><circle cx="215.623392123" cy="334.352126779" fill="rgb(100%,0%,0%)" r="0.7" /><circle cx="214.543321321" cy="337.150855093" fill="rgb(100%,0%,0%)" r="0.7" /><circle cx="213.544950743" cy="339.979734959" fill="rgb(100%,0%,0%)" r="0.7" /><circle cx="212.637934412" cy="342.839188027" fill="rgb(100%,0%,0%)" r="0.7" /><circle cx="211.833889078" cy="345.729245863" fill="rgb(100%,0%,0%)" r="0.7" /><circle cx="211.146822164" cy="348.649275875" fill="rgb(100%,0%,0%)" r="0.7" /><circle cx="210.593647107" cy="351.597537124" fill="rgb(100%,0%,0%)" r="0.7" /><circle cx="210.194752676" cy="354.570508813" fill="rgb(100%,0%,0%)" r="0.7" /><circle cx="209.974543747" cy="357.561892529" fill="rgb(100%,0%,0%)" r="0.7" /><circle cx="209.961758287" cy="360.56117811" fill="rgb(100%,0%,0%)" r="0.7" /><circle cx="210.189153437" cy="363.551616721" fill="rgb(100%,0%,0%)" r="0.7" /><circle cx="210.691857018" cy="366.50795536" fill="rgb(100%,0%,0%)" r="0.7" /><circle cx="211.50348182" cy="369.394444229" fill="rgb(100%,0%,0%)" r="0.7" /><circle cx="212.649476158" cy="372.164864734" fill="rgb(100%,0%,0%)" r="0.7" /><circle cx="214.16453394" cy="374.747579676" fill="rgb(100%,0%,0%)" r="0.7" /><circle cx="216.247196194" cy="376.905388247" fill="rgb(100%,0%,0%)" r="0.7" /><circle cx="218.462441577" cy="378.928026895" fill="rgb(100%,0%,0%)" r="0.7" /><circle cx="220.75343971" cy="380.864659249" fill="rgb(100%,0%,0%)" r="0.7" /><circle cx="223.099008533" cy="382.734914386" fill="rgb(100%,0%,0%)" r="0.7" /><circle cx="225.487292357" cy="384.550327354" fill="rgb(100%,0%,0%)" r="0.7" /><circle cx="227.910619276" cy="386.318726917" fill="rgb(100%,0%,0%)" r="0.7" /><circle cx="230.363557553" cy="388.045832323" fill="rgb(100%,0%,0%)" r="0.7" /><circle cx="232.842070684" cy="389.736057871" fill="rgb(100%,0%,0%)" r="0.7" /><circle cx="235.34300909" cy="391.392912265" fill="rgb(100%,0%,0%)" r="0.7" /><circle cx="237.863881767" cy="393.019286609" fill="rgb(100%,0%,0%)" r="0.7" /><circle cx="240.402647474" cy="394.61759431" fill="rgb(100%,0%,0%)" r="0.7" /><circle cx="242.957603725" cy="396.189884955" fill="rgb(100%,0%,0%)" r="0.7" /><circle cx="245.527337388" cy="397.737940242" fill="rgb(100%,0%,0%)" r="0.7" /><circle cx="248.110591834" cy="399.263284306" fill="rgb(100%,0%,0%)" r="0.7" /><circle cx="250.706338649" cy="400.767293654" fill="rgb(100%,0%,0%)" r="0.7" /><circle cx="253.31364904" cy="402.251170892" fill="rgb(100%,0%,0%)" r="0.7" /><circle cx="255.931712344" cy="403.715994957" fill="rgb(100%,0%,0%)" r="0.7" /><circle cx="258.492881979" cy="405.273855202" fill="rgb(100%,0%,0%)" r="0.7" /><circle cx="260.994963111" cy="406.929039761" fill="rgb(100%,0%,0%)" r="0.7" /><circle cx="263.493109828" cy="408.590236777" fill="rgb(100%,0%,0%)" r="0.7" /><circle cx="265.987770109" cy="410.256495343" fill="rgb(100%,0%,0%)" r="0.7" /><circle cx="268.479306471" cy="411.927525294" fill="rgb(100%,0%,0%)" r="0.7" /><circle cx="270.967765543" cy="413.603097158" fill="rgb(100%,0%,0%)" r="0.7" /><circle cx="273.453215535" cy="415.28313894" fill="rgb(100%,0%,0%)" r="0.7" /><circle cx="275.935667746" cy="416.967630586" fill="rgb(100%,0%,0%)" r="0.7" /><circle cx="278.415078107" cy="418.656578725" fill="rgb(100%,0%,0%)" r="0.7" /><circle cx="280.891400609" cy="420.350038973" fill="rgb(100%,0%,0%)" r="0.7" /><circle cx="283.364572547" cy="422.048098331" fill="rgb(100%,0%,0%)" r="0.7" /><circle cx="285.834527351" cy="423.750879963" fill="rgb(100%,0%,0%)" r="0.7" /><circle cx="288.301112569" cy="425.458484682" fill="rgb(100%,0%,0%)" r="0.7" /><circle cx="290.764226651" cy="427.171085037" fill="rgb(100%,0%,0%)" r="0.7" /><circle cx="293.223742892" cy="428.888874184" fill="rgb(100%,0%,0%)" r="0.7" /><circle cx="295.679485175" cy="430.612050936" fill="rgb(100%,0%,0%)" r="0.7" /><circle cx="298.131271061" cy="432.340852989" fill="rgb(100%,0%,0%)" r="0.7" /><circle cx="300.578897608" cy="434.075551507" fill="rgb(100%,0%,0%)" r="0.7" /><circle cx="303.022110561" cy="435.816434819" fill="rgb(100%,0%,0%)" r="0.7" /><circle cx="305.460662787" cy="437.563857043" fill="rgb(100%,0%,0%)" r="0.7" /><circle cx="307.89424022" cy="439.318194194" fill="rgb(100%,0%,0%)" r="0.7" /><circle cx="310.322501978" cy="441.079883778" fill="rgb(100%,0%,0%)" r="0.7" /><circle cx="312.745051101" cy="442.849417516" fill="rgb(100%,0%,0%)" r="0.7" /><circle cx="315.16143924" cy="444.627362053" fill="rgb(100%,0%,0%)" r="0.7" /><circle cx="317.571135882" cy="446.41435835" fill="rgb(100%,0%,0%)" r="0.7" /><circle cx="319.973528156" cy="448.211149567" fill="rgb(100%,0%,0%)" r="0.7" /><circle cx="322.367909784" cy="450.018609662" fill="rgb(100%,0%,0%)" r="0.7" /><circle cx="324.753438778" cy="451.837760161" fill="rgb(100%,0%,0%)" r="0.7" /><circle cx="327.129077967" cy="453.669789385" fill="rgb(100%,0%,0%)" r="0.7" /><circle cx="329.493601607" cy="455.51614607" fill="rgb(100%,0%,0%)" r="0.7" /><circle cx="331.845462156" cy="457.378560384" fill="rgb(100%,0%,0%)" r="0.7" /><circle cx="334.182791666" cy="459.259224403" fill="rgb(100%,0%,0%)" r="0.7" /><circle cx="336.503122355" cy="461.160836177" fill="rgb(100%,0%,0%)" r="0.7" /><circle cx="338.803190517" cy="463.086847987" fill="rgb(100%,0%,0%)" r="0.7" /><circle cx="341.078642139" cy="465.041887684" fill="rgb(100%,0%,0%)" r="0.7" /><circle cx="343.323255744" cy="467.032240563" fill="rgb(100%,0%,0%)" r="0.7" /><circle cx="345.527734917" cy="469.066894146" fill="rgb(100%,0%,0%)" r="0.7" /><circle cx="347.677202282" cy="471.159559395" fill="rgb(100%,0%,0%)" r="0.7" /><circle cx="349.744940721" cy="473.332772074" fill="rgb(100%,0%,0%)" r="0.7" /><circle cx="351.674516185" cy="475.628824754" fill="rgb(100%,0%,0%)" r="0.7" /><circle cx="353.301907322" cy="478.143697748" fill="rgb(100%,0%,0%)" r="0.7" /><circle cx="294.453609094" cy="258.957945318" fill="rgb(0%,0%,100%)" r="0.7" /><circle cx="297.416696153" cy="259.38179187" fill="rgb(0%,0%,100%)" r="0.7" /><circle cx="300.070122251" cy="260.725572061" fill="rgb(0%,0%,100%)" r="0.7" /><circle cx="301.294820282" cy="263.408367352" fill="rgb(0%,0%,100%)" r="0.7" /><circle cx="301.506149821" cy="266.38733203" fill="rgb(0%,0%,100%)" r="0.7" /><circle cx="300.683902481" cy="269.256005491" fill="rgb(0%,0%,100%)" r="0.7" /><circle cx="298.984295186" cy="271.715558824" fill="rgb(0%,0%,100%)" r="0.7" /><circle cx="296.731340656" cy="273.688134433" fill="rgb(0%,0%,100%)" r="0.7" /><circle cx="294.140648303" cy="275.191715946" fill="rgb(0%,0%,100%)" r="0.7" /><circle cx="291.276776962" cy="276.076799655" fill="rgb(0%,0%,100%)" r="0.7" /><circle cx="288.486011701" cy="277.176829557" fill="rgb(0%,0%,100%)" r="0.7" /><circle cx="285.734371508" cy="278.371815707" fill="rgb(0%,0%,100%)" r="0.7" /><circle cx="283.009000686" cy="279.62565157" fill="rgb(0%,0%,100%)" r="0.7" /><circle cx="280.305420973" cy="280.925833828" fill="rgb(0%,0%,100%)" r="0.7" /><circle cx="277.780708099" cy="282.539088266" fill="rgb(0%,0%,100%)" r="0.7" /><circle cx="275.391918226" cy="284.353486515" fill="rgb(0%,0%,100%)" r="0.7" /><circle cx="273.070480877" cy="286.253576269" fill="rgb(0%,0%,100%)" r="0.7" /><circle cx="270.794335298" cy="288.207772071" fill="rgb(0%,0%,100%)" r="0.7" /><circle cx="268.552205193" cy="290.200929804" fill="rgb(0%,0%,100%)" r="0.7" /><circle cx="266.337878819" cy="292.224946495" fill="rgb(0%,0%,100%)" r="0.7" /><circle cx="264.148599781" cy="294.27603702" fill="rgb(0%,0%,100%)" r="0.7" /><circle cx="262.292541848" cy="296.57580354" fill="rgb(0%,0%,100%)" r="0.7" /><circle cx="260.599789773" cy="299.045427017" fill="rgb(0%,0%,100%)" r="0.7" /><circle cx="258.43579245" cy="301.116014401" fill="rgb(0%,0%,100%)" r="0.7" /><circle cx="256.160554854" cy="303.055512099" fill="rgb(0%,0%,100%)" r="0.7" /><circle cx="254.172795107" cy="305.301585717" fill="rgb(0%,0%,100%)" r="0.7" /><circle cx="252.314269742" cy="307.656258109" fill="rgb(0%,0%,100%)" r="0.7" /><circle cx="250.541138196" cy="310.076044598" fill="rgb(0%,0%,100%)" r="0.7" /><circle cx="248.830080905" cy="312.540177682" fill="rgb(0%,0%,100%)" r="0.7" /><circle cx="247.167050823" cy="315.036996571" fill="rgb(0%,0%,100%)" r="0.7" /><circle cx="245.542870869" cy="317.55927746" fill="rgb(0%,0%,100%)" r="0.7" /><circle cx="243.951229665" cy="320.102225487" fill="rgb(0%,0%,100%)" r="0.7" /><circle cx="242.387642449" cy="322.662521806" fill="rgb(0%,0%,100%)" r="0.7" /><circle cx="240.84888715" cy="325.237824514" fill="rgb(0%,0%,100%)" r="0.7" /><circle cx="239.33271556" cy="327.826489766" fill="rgb(0%,0%,100%)" r="0.7" /><circle cx="237.837757399" cy="330.427465137" fill="rgb(0%,0%,100%)" r="0.7" /><circle cx="236.363735792" cy="333.040362827" fill="rgb(0%,0%,100%)" r="0.7" /><circle cx="234.913074813" cy="335.666294413" fill="rgb(0%,0%,100%)" r="0.7" /><circle cx="233.611939081" cy="338.368374007" fill="rgb(0%,0%,100%)" r="0.7" /><circle cx="232.497713983" cy="341.153182279" fill="rgb(0%,0%,100%)" r="0.7" /><circle cx="231.586892306" cy="344.010797099" fill="rgb(0%,0%,100%)" r="0.7" /><circle cx="230.912168051" cy="346.932974258" fill="rgb(0%,0%,100%)" r="0.7" /><circle cx="230.507981361" cy="349.90442547" fill="rgb(0%,0%,100%)" r="0.7" /><circle cx="230.407116436" cy="352.901319666" fill="rgb(0%,0%,100%)" r="0.7" /><circle cx="230.635703885" cy="355.890996456" fill="rgb(0%,0%,100%)" r="0.7" /><circle cx="231.207658357" cy="358.834213446" fill="rgb(0%,0%,100%)" r="0.7" /><circle cx="232.120800187" cy="361.690059272" fill="rgb(0%,0%,100%)" r="0.7" /><circle cx="233.356722383" cy="364.421895281" fill="rgb(0%,0%,100%)" r="0.7" /><circle cx="234.884661257" cy="367.001998614" fill="rgb(0%,0%,100%)" r="0.7" /><circle cx="236.667542501" cy="369.413262448" fill="rgb(0%,0%,100%)" r="0.7" /><circle cx="238.667643795" cy="371.64790764" fill="rgb(0%,0%,100%)" r="0.7" /><circle cx="240.850533022" cy="373.704621672" fill="rgb(0%,0%,100%)" r="0.7" /><circle cx="243.187099855" cy="375.58510138" fill="rgb(0%,0%,100%)" r="0.7" /><circle cx="245.654584571" cy="377.290307132" fill="rgb(0%,0%,100%)" r="0.7" /><circle cx="248.238031682" cy="378.814054865" fill="rgb(0%,0%,100%)" r="0.7" /><circle cx="250.907062945" cy="380.179719675" fill="rgb(0%,0%,100%)" r="0.7" /><circle cx="253.48170618" cy="381.719563143" fill="rgb(0%,0%,100%)" r="0.7" /><circle cx="256.034694506" cy="383.295013824" fill="rgb(0%,0%,100%)" r="0.7" /><circle cx="258.574804549" cy="384.891204811" fill="rgb(0%,0%,100%)" r="0.7" /><circle cx="261.106076592" cy="386.501408892" fill="rgb(0%,0%,100%)" r="0.7" /><circle cx="263.630755118" cy="388.121892908" fill="rgb(0%,0%,100%)" r="0.7" /><circle cx="266.150303319" cy="389.750370972" fill="rgb(0%,0%,100%)" r="0.7" /><circle cx="268.665661767" cy="391.385276153" fill="rgb(0%,0%,100%)" r="0.7" /><circle cx="271.177546004" cy="393.025524831" fill="rgb(0%,0%,100%)" r="0.7" /><circle cx="273.686473546" cy="394.670306303" fill="rgb(0%,0%,100%)" r="0.7" /><circle cx="276.192834159" cy="396.3189966" fill="rgb(0%,0%,100%)" r="0.7" /><circle cx="278.696936196" cy="397.971107859" fill="rgb(0%,0%,100%)" r="0.7" /><circle cx="281.199039664" cy="399.626257933" fill="rgb(0%,0%,100%)" r="0.7" /><circle cx="283.699333228" cy="401.284120131" fill="rgb(0%,0%,100%)" r="0.7" /><circle cx="286.198002499" cy="402.944444141" fill="rgb(0%,0%,100%)" r="0.7" /><circle cx="288.69518037" cy="404.607005835" fill="rgb(0%,0%,100%)" r="0.7" /><circle cx="291.190988505" cy="406.271622196" fill="rgb(0%,0%,100%)" r="0.7" /><circle cx="293.685530837" cy="407.938137676" fill="rgb(0%,0%,100%)" r="0.7" /><circle cx="296.178892579" cy="409.606416476" fill="rgb(0%,0%,100%)" r="0.7" /><circle cx="298.671150056" cy="411.276343748" fill="rgb(0%,0%,100%)" r="0.7" /><circle cx="301.162365654" cy="412.947818097" fill="rgb(0%,0%,100%)" r="0.7" /><circle cx="303.652599944" cy="414.620756564" fill="rgb(0%,0%,100%)" r="0.7" /><circle cx="306.141913809" cy="416.295093708" fill="rgb(0%,0%,100%)" r="0.7" /><circle cx="308.630324116" cy="417.970750044" fill="rgb(0%,0%,100%)" r="0.7" /><circle cx="311.117877275" cy="419.6476804" fill="rgb(0%,0%,100%)" r="0.7" /><circle cx="313.604587616" cy="421.325831941" fill="rgb(0%,0%,100%)" r="0.7" /><circle cx="316.090503675" cy="423.005189094" fill="rgb(0%,0%,100%)" r="0.7" /><circle cx="318.5756301" cy="424.685722095" fill="rgb(0%,0%,100%)" r="0.7" /><circle cx="321.059975563" cy="426.367422157" fill="rgb(0%,0%,100%)" r="0.7" /><circle cx="323.543520061" cy="428.050285251" fill="rgb(0%,0%,100%)" r="0.7" /><circle cx="326.026249404" cy="429.734348142" fill="rgb(0%,0%,100%)" r="0.7" /><circle cx="328.508080957" cy="431.419669746" fill="rgb(0%,0%,100%)" r="0.7" /><circle cx="330.988964085" cy="433.106513379" fill="rgb(0%,0%,100%)" r="0.7" /><circle cx="333.447174253" cy="434.825643804" fill="rgb(0%,0%,100%)" r="0.7" /><circle cx="335.835545619" cy="436.640799577" fill="rgb(0%,0%,100%)" r="0.7" /><circle cx="338.16360631" cy="438.532739445" fill="rgb(0%,0%,100%)" r="0.7" /><circle cx="340.436171436" cy="440.491028763" fill="rgb(0%,0%,100%)" r="0.7" /><circle cx="342.657500112" cy="442.507276418" fill="rgb(0%,0%,100%)" r="0.7" /><circle cx="344.831327379" cy="444.574667898" fill="rgb(0%,0%,100%)" r="0.7" /><circle cx="346.960908901" cy="446.687622137" fill="rgb(0%,0%,100%)" r="0.7" /><circle cx="349.04906642" cy="448.841537981" fill="rgb(0%,0%,100%)" r="0.7" /><circle cx="351.098221199" cy="451.032599062" fill="rgb(0%,0%,100%)" r="0.7" /><circle cx="353.110432611" cy="453.257642184" fill="rgb(0%,0%,100%)" r="0.7" /><circle cx="355.08740853" cy="455.514046666" fill="rgb(0%,0%,100%)" r="0.7" /><circle cx="357.030529359" cy="457.799688989" fill="rgb(0%,0%,100%)" r="0.7" /><circle cx="358.940788993" cy="460.11285891" fill="rgb(0%,0%,100%)" r="0.7" /><circle cx="360.81878032" cy="462.452309688" fill="rgb(0%,0%,100%)" r="0.7" /><circle cx="362.664528488" cy="464.817279372" fill="rgb(0%,0%,100%)" r="0.7" /><circle cx="364.477187652" cy="467.207704485" fill="rgb(0%,0%,100%)" r="0.7" /><circle cx="366.254087144" cy="469.624816407" fill="rgb(0%,0%,100%)" r="0.7" /><circle cx="367.985" cy="472.075" fill="rgb(0%,0%,100%)" r="0.7" /><circle cx="367.062517793" cy="471.972363279" fill="rgb(0%,0%,100%)" r="0.7" /><circle cx="364.080915825" cy="471.640625877" fill="rgb(0%,0%,100%)" r="0.7" /><circle cx="361.099313857" cy="471.308888476" fill="rgb(0%,0%,100%)" r="0.7" /><circle cx="358.117711888" cy="470.977151075" fill="rgb(0%,0%,100%)" r="0.7" /><circle cx="355.13610992" cy="470.645413673" fill="rgb(0%,0%,100%)" r="0.7" /><circle cx="354.310280689" cy="473.111643676" fill="rgb(0%,0%,100%)" r="0.7" /><circle cx="353.870769465" cy="476.079274024" fill="rgb(0%,0%,100%)" r="0.7" /><circle cx="353.301907322" cy="478.143697748" fill="rgb(0%,0%,100%)" r="0.7" /></svg>