<?xml version="1.0" encoding="utf-8" ?>
<svg baseProfile="full" height="100%" version="1.1" width="100%" xmlns="http://www.w3.org/2000/svg" xmlns:ev="http://www.w3.org/2001/xml-events" xmlns:xlink="http://www.w3.org/1999/xlink"><defs /><circle cx="297.105503463" cy="308.298762407" fill="rgb(100%,0%,0%)" r="0.7" /><circle cx="294.107880369" cy="308.386011287" fill="rgb(100%,0%,0%)" r="0.7" /><circle cx="291.135138829" cy="308.778055522" fill="rgb(100%,0%,0%)" r="0.7" /><circle cx="288.230601568" cy="309.520580232" fill="rgb(100%,0%,0%)" r="0.7" /><circle cx="285.455164261" cy="310.652443527" fill="rgb(100%,0%,0%)" r="0.7" /><circle cx="282.883179931" cy="312.190744684" fill="rgb(100%,0%,0%)" r="0.7" /><circle cx="280.587580522" cy="314.117176259" fill="rgb(100%,0%,0%)" r="0.7" /><circle cx="278.619198078" cy="316.377327643" fill="rgb(100%,0%,0%)" r="0.7" /><circle cx="276.994300162" cy="318.896448863" fill="rgb(100%,0%,0%)" r="0.7" /><circle cx="275.49683655" cy="321.495767319" fill="rgb(100%,0%,0%)" r="0.7" /><circle cx="273.929620273" cy="324.053820059" fill="rgb(100%,0%,0%)" r="0.7" /><circle cx="272.314215117" cy="326.581697554" fill="rgb(100%,0%,0%)" r="0.7" /><circle cx="270.657856375" cy="329.082947706" fill="rgb(100%,0%,0%)" r="0.7" /><circle cx="268.964594171" cy="331.559379028" fill="rgb(100%,0%,0%)" r="0.7" /><circle cx="267.237088466" cy="334.012047675" fill="rgb(100%,0%,0%)" r="0.7" /><circle cx="265.477232457" cy="336.441616246" fill="rgb(100%,0%,0%)" r="0.7" /><circle cx="263.686452982" cy="338.848497079" fill="rgb(100%,0%,0%)" r="0.7" /><circle cx="261.865884882" cy="341.232911304" fill="rgb(100%,0%,0%)" r="0.7" /><circle cx="260.01643722" cy="343.594972825" fill="rgb(100%,0%,0%)" r="0.7" /><circle cx="258.138829011" cy="345.934745281" fill="rgb(100%,0%,0%)" r="0.7" /><circle cx="256.233714056" cy="348.252154693" fill="rgb(100%,0%,0%)" r="0.7" /><circle cx="254.301610765" cy="350.547125965" fill="rgb(100%,0%,0%)" r="0.7" /><circle cx="252.342987933" cy="352.819511216" fill="rgb(100%,0%,0%)" r="0.7" /><circle cx="250.358263732" cy="355.069118101" fill="rgb(100%,0%,0%)" r="0.7" /><circle cx="248.347783067" cy="357.295753508" fill="rgb(100%,0%,0%)" r="0.7" /><circle cx="246.311883355" cy="359.499163621" fill="rgb(100%,0%,0%)" r="0.7" /><circle cx="244.25086131" cy="361.679083276" fill="rgb(100%,0%,0%)" r="0.7" /><circle cx="242.164979487" cy="363.835236646" fill="rgb(100%,0%,0%)" r="0.7" /><circle cx="240.054485103" cy="365.967324395" fill="rgb(100%,0%,0%)" r="0.7" /><circle cx="237.91964254" cy="368.074998335" fill="rgb(100%,0%,0%)" r="0.7" /><circle cx="235.760650187" cy="370.157949317" fill="rgb(100%,0%,0%)" r="0.7" /><circle cx="233.577745593" cy="372.215807441" fill="rgb(100%,0%,0%)" r="0.7" /><circle cx="231.371119937" cy="374.248228837" fill="rgb(100%,0%,0%)" r="0.7" /><circle cx="229.140995749" cy="376.25482547" fill="rgb(100%,0%,0%)" r="0.7" /><circle cx="226.887571918" cy="378.235219491" fill="rgb(100%,0%,0%)" r="0.7" /><circle cx="224.611046306" cy="380.189024378" fill="rgb(100%,0%,0%)" r="0.7" /><circle cx="222.311628446" cy="382.115836709" fill="rgb(100%,0%,0%)" r="0.7" /><circle cx="219.989533483" cy="384.015244259" fill="rgb(100%,0%,0%)" r="0.7" /><circle cx="217.644967711" cy="385.886839673" fill="rgb(100%,0%,0%)" r="0.7" /><circle cx="215.278132189" cy="387.7302183" fill="rgb(100%,0%,0%)" r="0.7" /><circle cx="212.889276904" cy="389.544938351" fill="rgb(100%,0%,0%)" r="0.7" /><circle cx="213.599376063" cy="390.196038996" fill="rgb(100%,0%,0%)" r="0.7" /><circle cx="216.593533798" cy="390.008904138" fill="rgb(100%,0%,0%)" r="0.7" /><circle cx="219.587691534" cy="389.821769279" fill="rgb(100%,0%,0%)" r="0.7" /><circle cx="222.581849269" cy="389.634634421" fill="rgb(100%,0%,0%)" r="0.7" /><circle cx="223.559510633" cy="392.17630652" fill="rgb(100%,0%,0%)" r="0.7" /><circle cx="224.259712388" cy="395.093448529" fill="rgb(100%,0%,0%)" r="0.7" /><circle cx="224.959914143" cy="398.010590538" fill="rgb(100%,0%,0%)" r="0.7" /><circle cx="225.660115898" cy="400.927732547" fill="rgb(100%,0%,0%)" r="0.7" /><circle cx="226.360317653" cy="403.844874557" fill="rgb(100%,0%,0%)" r="0.7" /><circle cx="227.060519408" cy="406.762016566" fill="rgb(100%,0%,0%)" r="0.7" /><circle cx="227.097" cy="406.914" fill="rgb(100%,0%,0%)" r="0.7" /><circle cx="297.105503463" cy="308.298762407" fill="rgb(0%,0%,100%)" r="0.7" /><circle cx="300.099595122" cy="308.473385905" fill="rgb(0%,0%,100%)" r="0.7" /><circle cx="303.072085869" cy="308.8740578" fill="rgb(0%,0%,100%)" r="0.7" /><circle cx="306.011037385" cy="309.473653889" fill="rgb(0%,0%,100%)" r="0.7" /><circle cx="308.906888963" cy="310.25546485" fill="rgb(0%,0%,100%)" r="0.7" /><circle cx="311.74578848" cy="311.223338667" fill="rgb(0%,0%,100%)" r="0.7" /><circle cx="314.399808379" cy="312.614663002" fill="rgb(0%,0%,100%)" r="0.7" /><circle cx="316.956431618" cy="314.183527416" fill="rgb(0%,0%,100%)" r="0.7" /><circle cx="319.408084715" cy="315.911388375" fill="rgb(0%,0%,100%)" r="0.7" /><circle cx="321.707744396" cy="317.836155409" fill="rgb(0%,0%,100%)" r="0.7" /><circle cx="323.775029413" cy="320.007106831" fill="rgb(0%,0%,100%)" r="0.7" /><circle cx="325.465975384" cy="322.479490896" fill="rgb(0%,0%,100%)" r="0.7" /><circle cx="326.525495464" cy="325.275178612" fill="rgb(0%,0%,100%)" r="0.7" /><circle cx="326.580971323" cy="328.254478284" fill="rgb(0%,0%,100%)" r="0.7" /><circle cx="325.346569195" cy="330.96358622" fill="rgb(0%,0%,100%)" r="0.7" /><circle cx="323.102339759" cy="332.912925822" fill="rgb(0%,0%,100%)" r="0.7" /><circle cx="320.233839194" cy="333.726171219" fill="rgb(0%,0%,100%)" r="0.7" /><circle cx="317.243323937" cy="333.620481839" fill="rgb(0%,0%,100%)" r="0.7" /><circle cx="314.34049148" cy="332.882982131" fill="rgb(0%,0%,100%)" r="0.7" /><circle cx="311.41455071" cy="332.27737939" fill="rgb(0%,0%,100%)" r="0.7" /><circle cx="308.439341455" cy="332.572057814" fill="rgb(0%,0%,100%)" r="0.7" /><circle cx="305.628741966" cy="333.603931526" fill="rgb(0%,0%,100%)" r="0.7" /><circle cx="303.055480765" cy="335.140116635" fill="rgb(0%,0%,100%)" r="0.7" /><circle cx="300.710744975" cy="337.008881446" fill="rgb(0%,0%,100%)" r="0.7" /><circle cx="298.566309331" cy="339.105416846" fill="rgb(0%,0%,100%)" r="0.7" /><circle cx="296.598369635" cy="341.368838104" fill="rgb(0%,0%,100%)" r="0.7" /><circle cx="294.798927844" cy="343.768434752" fill="rgb(0%,0%,100%)" r="0.7" /><circle cx="293.014158253" cy="346.177227575" fill="rgb(0%,0%,100%)" r="0.7" /><circle cx="291.144062774" cy="348.523002235" fill="rgb(0%,0%,100%)" r="0.7" /><circle cx="289.248567737" cy="350.84828999" fill="rgb(0%,0%,100%)" r="0.7" /><circle cx="287.32790949" cy="353.152857664" fill="rgb(0%,0%,100%)" r="0.7" /><circle cx="285.382356867" cy="355.436437549" fill="rgb(0%,0%,100%)" r="0.7" /><circle cx="283.412160236" cy="357.698788243" fill="rgb(0%,0%,100%)" r="0.7" /><circle cx="281.417576003" cy="359.93966387" fill="rgb(0%,0%,100%)" r="0.7" /><circle cx="279.398859374" cy="362.158821549" fill="rgb(0%,0%,100%)" r="0.7" /><circle cx="277.356254329" cy="364.356030785" fill="rgb(0%,0%,100%)" r="0.7" /><circle cx="275.290033928" cy="366.531029127" fill="rgb(0%,0%,100%)" r="0.7" /><circle cx="273.200438891" cy="368.683586987" fill="rgb(0%,0%,100%)" r="0.7" /><circle cx="271.087719214" cy="370.813461517" fill="rgb(0%,0%,100%)" r="0.7" /><circle cx="268.952134258" cy="372.920396625" fill="rgb(0%,0%,100%)" r="0.7" /><circle cx="266.793919971" cy="375.004154428" fill="rgb(0%,0%,100%)" r="0.7" /><circle cx="264.613326613" cy="377.064476896" fill="rgb(0%,0%,100%)" r="0.7" /><circle cx="262.410595627" cy="379.101108074" fill="rgb(0%,0%,100%)" r="0.7" /><circle cx="260.185954956" cy="381.113797423" fill="rgb(0%,0%,100%)" r="0.7" /><circle cx="257.939650438" cy="383.102271745" fill="rgb(0%,0%,100%)" r="0.7" /><circle cx="255.671913239" cy="385.066266687" fill="rgb(0%,0%,100%)" r="0.7" /><circle cx="253.382981148" cy="387.005511277" fill="rgb(0%,0%,100%)" r="0.7" /><circle cx="251.073089677" cy="388.919742859" fill="rgb(0%,0%,100%)" r="0.7" /><circle cx="248.742479012" cy="390.808713999" fill="rgb(0%,0%,100%)" r="0.7" /><circle cx="246.391441484" cy="392.67217862" fill="rgb(0%,0%,100%)" r="0.7" /><circle cx="244.02027085" cy="394.509977618" fill="rgb(0%,0%,100%)" r="0.7" /><circle cx="241.629381262" cy="396.322030347" fill="rgb(0%,0%,100%)" r="0.7" /><circle cx="239.219314078" cy="398.108502566" fill="rgb(0%,0%,100%)" r="0.7" /><circle cx="236.790950785" cy="399.870021475" fill="rgb(0%,0%,100%)" r="0.7" /><circle cx="234.345897563" cy="401.608319079" fill="rgb(0%,0%,100%)" r="0.7" /><circle cx="231.887760967" cy="403.328077984" fill="rgb(0%,0%,100%)" r="0.7" /><circle cx="229.427582723" cy="405.044910034" fill="rgb(0%,0%,100%)" r="0.7" /><circle cx="227.097" cy="406.914" fill="rgb(0%,0%,100%)" r="0.7" /></svg>