<?xml version="1.0" encoding="utf-8" ?>
<svg baseProfile="full" height="100%" version="1.1" width="100%" xmlns="http://www.w3.org/2000/svg" xmlns:ev="http://www.w3.org/2001/xml-events" xmlns:xlink="http://www.w3.org/1999/xlink"><defs /><circle cx="271.1209146" cy="261.23913028" fill="rgb(100%,0%,0%)" r="0.7" /><circle cx="268.174270315" cy="261.72837195" fill="rgb(100%,0%,0%)" r="0.7" /><circle cx="265.520236778" cy="263.103545547" fill="rgb(100%,0%,0%)" r="0.7" /><circle cx="263.305380836" cy="265.117731685" fill="rgb(100%,0%,0%)" r="0.7" /><circle cx="261.508208467" cy="267.515920555" fill="rgb(100%,0%,0%)" r="0.7" /><circle cx="260.048899918" cy="270.135211548" fill="rgb(100%,0%,0%)" r="0.7" /><circle cx="258.792661689" cy="272.858913707" fill="rgb(100%,0%,0%)" r="0.7" /><circle cx="257.584889067" cy="275.604738468" fill="rgb(100%,0%,0%)" r="0.7" /><circle cx="256.515374017" cy="278.407240692" fill="rgb(100%,0%,0%)" r="0.7" /><circle cx="255.621520911" cy="281.270296467" fill="rgb(100%,0%,0%)" r="0.7" /><circle cx="254.993303655" cy="284.202076283" fill="rgb(100%,0%,0%)" r="0.7" /><circle cx="254.853726119" cy="287.192130436" fill="rgb(100%,0%,0%)" r="0.7" /><circle cx="255.853790749" cy="289.969989218" fill="rgb(100%,0%,0%)" r="0.7" /><circle cx="258.508771265" cy="291.128303438" fill="rgb(100%,0%,0%)" r="0.7" /><circle cx="260.886285589" cy="292.639270457" fill="rgb(100%,0%,0%)" r="0.7" /><circle cx="261.495970688" cy="295.55448484" fill="rgb(100%,0%,0%)" r="0.7" /><circle cx="261.332655604" cy="298.546913686" fill="rgb(100%,0%,0%)" r="0.7" /><circle cx="260.822443607" cy="301.502281055" fill="rgb(100%,0%,0%)" r="0.7" /><circle cx="260.11309041" cy="304.416850481" fill="rgb(100%,0%,0%)" r="0.7" /><circle cx="259.370598335" cy="307.323518457" fill="rgb(100%,0%,0%)" r="0.7" /><circle cx="258.617368227" cy="310.227410866" fill="rgb(100%,0%,0%)" r="0.7" /><circle cx="257.855018417" cy="313.128936938" fill="rgb(100%,0%,0%)" r="0.7" /><circle cx="257.083637941" cy="316.028072263" fill="rgb(100%,0%,0%)" r="0.7" /><circle cx="256.302826893" cy="318.924680448" fill="rgb(100%,0%,0%)" r="0.7" /><circle cx="255.511849951" cy="321.818526914" fill="rgb(100%,0%,0%)" r="0.7" /><circle cx="254.709639357" cy="324.709281167" fill="rgb(100%,0%,0%)" r="0.7" /><circle cx="253.894733901" cy="327.59648098" fill="rgb(100%,0%,0%)" r="0.7" /><circle cx="253.06514416" cy="330.479495159" fill="rgb(100%,0%,0%)" r="0.7" /><circle cx="252.218121526" cy="333.357432197" fill="rgb(100%,0%,0%)" r="0.7" /><circle cx="251.349740579" cy="336.228993601" fill="rgb(100%,0%,0%)" r="0.7" /><circle cx="250.454109808" cy="339.092167915" fill="rgb(100%,0%,0%)" r="0.7" /><circle cx="249.521701593" cy="341.943569192" fill="rgb(100%,0%,0%)" r="0.7" /><circle cx="248.53522627" cy="344.776670192" fill="rgb(100%,0%,0%)" r="0.7" /><circle cx="247.456269645" cy="347.575651472" fill="rgb(100%,0%,0%)" r="0.7" /><circle cx="246.1818231" cy="350.289132016" fill="rgb(100%,0%,0%)" r="0.7" /><circle cx="245.018474906" cy="353.054365873" fill="rgb(100%,0%,0%)" r="0.7" /><circle cx="243.838869246" cy="355.812727414" fill="rgb(100%,0%,0%)" r="0.7" /><circle cx="242.645650853" cy="358.565216406" fill="rgb(100%,0%,0%)" r="0.7" /><circle cx="241.439287929" cy="361.311977497" fill="rgb(100%,0%,0%)" r="0.7" /><circle cx="240.219604722" cy="364.052847681" fill="rgb(100%,0%,0%)" r="0.7" /><circle cx="238.986037906" cy="366.787489606" fill="rgb(100%,0%,0%)" r="0.7" /><circle cx="237.737701004" cy="369.515428386" fill="rgb(100%,0%,0%)" r="0.7" /><circle cx="236.473402863" cy="372.236002291" fill="rgb(100%,0%,0%)" r="0.7" /><circle cx="235.191589415" cy="374.948367784" fill="rgb(100%,0%,0%)" r="0.7" /><circle cx="233.890270373" cy="377.65142758" fill="rgb(100%,0%,0%)" r="0.7" /><circle cx="232.566885136" cy="380.343749915" fill="rgb(100%,0%,0%)" r="0.7" /><circle cx="231.218096291" cy="383.023431264" fill="rgb(100%,0%,0%)" r="0.7" /><circle cx="229.839459112" cy="385.687872318" fill="rgb(100%,0%,0%)" r="0.7" /><circle cx="228.424869061" cy="388.333395465" fill="rgb(100%,0%,0%)" r="0.7" /><circle cx="227.367309813" cy="390.54680118" fill="rgb(100%,0%,0%)" r="0.7" /><circle cx="229.953039088" cy="389.025616077" fill="rgb(100%,0%,0%)" r="0.7" /><circle cx="232.538768363" cy="387.504430974" fill="rgb(100%,0%,0%)" r="0.7" /><circle cx="235.124497637" cy="385.983245871" fill="rgb(100%,0%,0%)" r="0.7" /><circle cx="237.710226912" cy="384.462060768" fill="rgb(100%,0%,0%)" r="0.7" /><circle cx="239.495833739" cy="385.282533904" fill="rgb(100%,0%,0%)" r="0.7" /><circle cx="240.610037759" cy="388.06795118" fill="rgb(100%,0%,0%)" r="0.7" /><circle cx="241.724241779" cy="390.853368456" fill="rgb(100%,0%,0%)" r="0.7" /><circle cx="242.838445798" cy="393.638785732" fill="rgb(100%,0%,0%)" r="0.7" /><circle cx="243.952649818" cy="396.424203009" fill="rgb(100%,0%,0%)" r="0.7" /><circle cx="244.895" cy="398.78" fill="rgb(100%,0%,0%)" r="0.7" /><circle cx="271.1209146" cy="261.23913028" fill="rgb(0%,0%,100%)" r="0.7" /><circle cx="274.079925537" cy="261.666356378" fill="rgb(0%,0%,100%)" r="0.7" /><circle cx="276.819183178" cy="262.867887235" fill="rgb(0%,0%,100%)" r="0.7" /><circle cx="278.496589978" cy="265.332756079" fill="rgb(0%,0%,100%)" r="0.7" /><circle cx="279.868533306" cy="267.999404456" fill="rgb(0%,0%,100%)" r="0.7" /><circle cx="280.987848063" cy="270.781673203" fill="rgb(0%,0%,100%)" r="0.7" /><circle cx="281.860176909" cy="273.651117761" fill="rgb(0%,0%,100%)" r="0.7" /><circle cx="282.496411945" cy="276.582089985" fill="rgb(0%,0%,100%)" r="0.7" /><circle cx="282.910281562" cy="279.552743882" fill="rgb(0%,0%,100%)" r="0.7" /><circle cx="283.116163929" cy="282.545104403" fill="rgb(0%,0%,100%)" r="0.7" /><circle cx="283.127246441" cy="285.544592143" fill="rgb(0%,0%,100%)" r="0.7" /><circle cx="282.953711591" cy="288.539110987" fill="rgb(0%,0%,100%)" r="0.7" /><circle cx="282.59982138" cy="291.51770177" fill="rgb(0%,0%,100%)" r="0.7" /><circle cx="282.053461592" cy="294.466872415" fill="rgb(0%,0%,100%)" r="0.7" /><circle cx="281.492660371" cy="297.412124612" fill="rgb(0%,0%,100%)" r="0.7" /><circle cx="280.891925592" cy="300.351233813" fill="rgb(0%,0%,100%)" r="0.7" /><circle cx="280.214212743" cy="303.27362346" fill="rgb(0%,0%,100%)" r="0.7" /><circle cx="279.483583187" cy="306.183265056" fill="rgb(0%,0%,100%)" r="0.7" /><circle cx="278.713524994" cy="309.082733625" fill="rgb(0%,0%,100%)" r="0.7" /><circle cx="277.912453131" cy="311.973791265" fill="rgb(0%,0%,100%)" r="0.7" /><circle cx="277.085994927" cy="314.857699452" fill="rgb(0%,0%,100%)" r="0.7" /><circle cx="276.238094165" cy="317.735378097" fill="rgb(0%,0%,100%)" r="0.7" /><circle cx="275.371591092" cy="320.607513741" fill="rgb(0%,0%,100%)" r="0.7" /><circle cx="274.488550371" cy="323.474603194" fill="rgb(0%,0%,100%)" r="0.7" /><circle cx="273.590425196" cy="326.337011499" fill="rgb(0%,0%,100%)" r="0.7" /><circle cx="272.678126902" cy="329.194924393" fill="rgb(0%,0%,100%)" r="0.7" /><circle cx="271.751882324" cy="332.048363424" fill="rgb(0%,0%,100%)" r="0.7" /><circle cx="270.810439078" cy="334.896817571" fill="rgb(0%,0%,100%)" r="0.7" /><circle cx="269.844435199" cy="337.737023408" fill="rgb(0%,0%,100%)" r="0.7" /><circle cx="268.864568545" cy="340.572473585" fill="rgb(0%,0%,100%)" r="0.7" /><circle cx="267.873591918" cy="343.404075292" fill="rgb(0%,0%,100%)" r="0.7" /><circle cx="266.871223696" cy="346.231671383" fill="rgb(0%,0%,100%)" r="0.7" /><circle cx="265.857163695" cy="349.055085356" fill="rgb(0%,0%,100%)" r="0.7" /><circle cx="264.831078412" cy="351.874152582" fill="rgb(0%,0%,100%)" r="0.7" /><circle cx="263.792613761" cy="354.688673007" fill="rgb(0%,0%,100%)" r="0.7" /><circle cx="262.741371166" cy="357.498462293" fill="rgb(0%,0%,100%)" r="0.7" /><circle cx="261.676936331" cy="360.303257636" fill="rgb(0%,0%,100%)" r="0.7" /><circle cx="260.598820215" cy="363.102853588" fill="rgb(0%,0%,100%)" r="0.7" /><circle cx="259.506521474" cy="365.896912091" fill="rgb(0%,0%,100%)" r="0.7" /><circle cx="258.399432878" cy="368.685171725" fill="rgb(0%,0%,100%)" r="0.7" /><circle cx="257.276906542" cy="371.467236815" fill="rgb(0%,0%,100%)" r="0.7" /><circle cx="256.138178522" cy="374.242711385" fill="rgb(0%,0%,100%)" r="0.7" /><circle cx="254.982370955" cy="377.011114165" fill="rgb(0%,0%,100%)" r="0.7" /><circle cx="253.808438388" cy="379.771898737" fill="rgb(0%,0%,100%)" r="0.7" /><circle cx="252.615141339" cy="382.524355831" fill="rgb(0%,0%,100%)" r="0.7" /><circle cx="251.400928353" cy="385.267640684" fill="rgb(0%,0%,100%)" r="0.7" /><circle cx="250.163800208" cy="388.000668814" fill="rgb(0%,0%,100%)" r="0.7" /><circle cx="248.901047891" cy="390.721949352" fill="rgb(0%,0%,100%)" r="0.7" /><circle cx="247.608668931" cy="393.42927354" fill="rgb(0%,0%,100%)" r="0.7" /><circle cx="246.279744454" cy="396.118853687" fill="rgb(0%,0%,100%)" r="0.7" /><circle cx="244.895" cy="398.78" fill="rgb(0%,0%,100%)" r="0.7" /></svg>