<?xml version="1.0" encoding="utf-8" ?>
<svg baseProfile="full" height="100%" version="1.1" width="100%" xmlns="http://www.w3.org/2000/svg" xmlns:ev="http://www.w3.org/2001/xml-events" xmlns:xlink="http://www.w3.org/1999/xlink"><defs /><circle cx="336.94173856" cy="325.575215184" fill="rgb(100%,0%,0%)" r="0.7" /><circle cx="334.311524688" cy="326.937908133" fill="rgb(100%,0%,0%)" r="0.7" /><circle cx="332.374506273" cy="329.216731575" fill="rgb(100%,0%,0%)" r="0.7" /><circle cx="331.847716357" cy="332.108584489" fill="rgb(100%,0%,0%)" r="0.7" /><circle cx="331.791148495" cy="335.107981499" fill="rgb(100%,0%,0%)" r="0.7" /><circle cx="331.778282539" cy="338.107944203" fill="rgb(100%,0%,0%)" r="0.7" /><circle cx="331.786873058" cy="341.10792378" fill="rgb(100%,0%,0%)" r="0.7" /><circle cx="331.80895721" cy="344.107842772" fill="rgb(100%,0%,0%)" r="0.7" /><circle cx="331.840598614" cy="347.107677564" fill="rgb(100%,0%,0%)" r="0.7" /><circle cx="331.879516069" cy="350.107429009" fill="rgb(100%,0%,0%)" r="0.7" /><circle cx="331.924255291" cy="353.107095451" fill="rgb(100%,0%,0%)" r="0.7" /><circle cx="331.973830899" cy="356.106687233" fill="rgb(100%,0%,0%)" r="0.7" /><circle cx="332.027549524" cy="359.106210052" fill="rgb(100%,0%,0%)" r="0.7" /><circle cx="332.084915891" cy="362.105664944" fill="rgb(100%,0%,0%)" r="0.7" /><circle cx="332.145583209" cy="365.105043659" fill="rgb(100%,0%,0%)" r="0.7" /><circle cx="332.209336215" cy="368.104374766" fill="rgb(100%,0%,0%)" r="0.7" /><circle cx="332.276114246" cy="371.103634338" fill="rgb(100%,0%,0%)" r="0.7" /><circle cx="332.346210313" cy="374.102808732" fill="rgb(100%,0%,0%)" r="0.7" /><circle cx="332.510810608" cy="377.09760922" fill="rgb(100%,0%,0%)" r="0.7" /><circle cx="332.550978267" cy="380.097029262" fill="rgb(100%,0%,0%)" r="0.7" /><circle cx="332.459870643" cy="383.095460542" fill="rgb(100%,0%,0%)" r="0.7" /><circle cx="332.266324685" cy="386.089096627" fill="rgb(100%,0%,0%)" r="0.7" /><circle cx="331.989863681" cy="389.076251609" fill="rgb(100%,0%,0%)" r="0.7" /><circle cx="331.644285984" cy="392.056225092" fill="rgb(100%,0%,0%)" r="0.7" /><circle cx="331.239655592" cy="395.028770243" fill="rgb(100%,0%,0%)" r="0.7" /><circle cx="330.783463948" cy="397.993849593" fill="rgb(100%,0%,0%)" r="0.7" /><circle cx="330.281328814" cy="400.951500596" fill="rgb(100%,0%,0%)" r="0.7" /><circle cx="329.737403451" cy="403.901758173" fill="rgb(100%,0%,0%)" r="0.7" /><circle cx="329.154567733" cy="406.844579116" fill="rgb(100%,0%,0%)" r="0.7" /><circle cx="328.534361461" cy="409.779741461" fill="rgb(100%,0%,0%)" r="0.7" /><circle cx="327.876304303" cy="412.706666314" fill="rgb(100%,0%,0%)" r="0.7" /><circle cx="327.173" cy="415.623" fill="rgb(100%,0%,0%)" r="0.7" /><circle cx="327.344056132" cy="415.487559963" fill="rgb(100%,0%,0%)" r="0.7" /><circle cx="329.696055759" cy="413.625277021" fill="rgb(100%,0%,0%)" r="0.7" /><circle cx="332.048055386" cy="411.76299408" fill="rgb(100%,0%,0%)" r="0.7" /><circle cx="334.400055013" cy="409.900711138" fill="rgb(100%,0%,0%)" r="0.7" /><circle cx="336.416980501" cy="410.375191101" fill="rgb(100%,0%,0%)" r="0.7" /><circle cx="338.150893478" cy="412.823363029" fill="rgb(100%,0%,0%)" r="0.7" /><circle cx="339.884806456" cy="415.271534956" fill="rgb(100%,0%,0%)" r="0.7" /><circle cx="341.579280287" cy="416.961340679" fill="rgb(100%,0%,0%)" r="0.7" /><circle cx="336.94173856" cy="325.575215184" fill="rgb(0%,0%,100%)" r="0.7" /><circle cx="339.922401505" cy="325.704248014" fill="rgb(0%,0%,100%)" r="0.7" /><circle cx="342.719182889" cy="326.730240545" fill="rgb(0%,0%,100%)" r="0.7" /><circle cx="344.930443534" cy="328.734758165" fill="rgb(0%,0%,100%)" r="0.7" /><circle cx="346.450679813" cy="331.311891243" fill="rgb(0%,0%,100%)" r="0.7" /><circle cx="347.206273978" cy="334.211085402" fill="rgb(0%,0%,100%)" r="0.7" /><circle cx="347.753402532" cy="337.160532112" fill="rgb(0%,0%,100%)" r="0.7" /><circle cx="348.190503479" cy="340.128391954" fill="rgb(0%,0%,100%)" r="0.7" /><circle cx="348.542075916" cy="343.107630717" fill="rgb(0%,0%,100%)" r="0.7" /><circle cx="348.822139376" cy="346.094463464" fill="rgb(0%,0%,100%)" r="0.7" /><circle cx="349.040126466" cy="349.086490123" fill="rgb(0%,0%,100%)" r="0.7" /><circle cx="349.202953109" cy="352.082031669" fill="rgb(0%,0%,100%)" r="0.7" /><circle cx="349.315974462" cy="355.079867265" fill="rgb(0%,0%,100%)" r="0.7" /><circle cx="349.38349498" cy="358.079079729" fill="rgb(0%,0%,100%)" r="0.7" /><circle cx="349.409070407" cy="361.078953014" fill="rgb(0%,0%,100%)" r="0.7" /><circle cx="349.395700763" cy="364.078902165" fill="rgb(0%,0%,100%)" r="0.7" /><circle cx="349.345959931" cy="367.078469055" fill="rgb(0%,0%,100%)" r="0.7" /><circle cx="349.386263818" cy="370.076830155" fill="rgb(0%,0%,100%)" r="0.7" /><circle cx="349.434765119" cy="373.076379407" fill="rgb(0%,0%,100%)" r="0.7" /><circle cx="349.424924176" cy="376.076323612" fill="rgb(0%,0%,100%)" r="0.7" /><circle cx="349.36093479" cy="379.075603323" fill="rgb(0%,0%,100%)" r="0.7" /><circle cx="349.242996686" cy="382.073244848" fill="rgb(0%,0%,100%)" r="0.7" /><circle cx="349.069452219" cy="385.068184364" fill="rgb(0%,0%,100%)" r="0.7" /><circle cx="348.837347495" cy="388.059140395" fill="rgb(0%,0%,100%)" r="0.7" /><circle cx="348.542574233" cy="391.044562298" fill="rgb(0%,0%,100%)" r="0.7" /><circle cx="348.179836697" cy="394.022480558" fill="rgb(0%,0%,100%)" r="0.7" /><circle cx="347.742502842" cy="396.990345376" fill="rgb(0%,0%,100%)" r="0.7" /><circle cx="347.222352743" cy="399.94479853" fill="rgb(0%,0%,100%)" r="0.7" /><circle cx="346.609215499" cy="402.881330359" fill="rgb(0%,0%,100%)" r="0.7" /><circle cx="345.89047042" cy="405.79376629" fill="rgb(0%,0%,100%)" r="0.7" /><circle cx="345.050383011" cy="408.673474718" fill="rgb(0%,0%,100%)" r="0.7" /><circle cx="344.069254912" cy="411.508121486" fill="rgb(0%,0%,100%)" r="0.7" /><circle cx="342.922416498" cy="414.279694787" fill="rgb(0%,0%,100%)" r="0.7" /><circle cx="341.579280287" cy="416.961340679" fill="rgb(0%,0%,100%)" r="0.7" /></svg>