<?xml version="1.0" encoding="utf-8" ?>
<svg baseProfile="full" height="100%" version="1.1" width="100%" xmlns="http://www.w3.org/2000/svg" xmlns:ev="http://www.w3.org/2001/xml-events" xmlns:xlink="http://www.w3.org/1999/xlink"><defs /><circle cx="342.319856742" cy="334.624597599" fill="rgb(100%,0%,0%)" r="0.7" /><circle cx="339.34029002" cy="334.647857044" fill="rgb(100%,0%,0%)" r="0.7" /><circle cx="336.556791218" cy="335.733654478" fill="rgb(100%,0%,0%)" r="0.7" /><circle cx="334.132022541" cy="337.49139292" fill="rgb(100%,0%,0%)" r="0.7" /><circle cx="332.02684841" cy="339.625639106" fill="rgb(100%,0%,0%)" r="0.7" /><circle cx="330.457855166" cy="342.165937331" fill="rgb(100%,0%,0%)" r="0.7" /><circle cx="329.432236799" cy="344.983015296" fill="rgb(100%,0%,0%)" r="0.7" /><circle cx="328.697772155" cy="347.890852138" fill="rgb(100%,0%,0%)" r="0.7" /><circle cx="328.168122378" cy="350.843271921" fill="rgb(100%,0%,0%)" r="0.7" /><circle cx="327.795590402" cy="353.819776887" fill="rgb(100%,0%,0%)" r="0.7" /><circle cx="327.549530145" cy="356.8094895" fill="rgb(100%,0%,0%)" r="0.7" /><circle cx="327.408572441" cy="359.806038369" fill="rgb(100%,0%,0%)" r="0.7" /><circle cx="327.356996974" cy="362.805501238" fill="rgb(100%,0%,0%)" r="0.7" /><circle cx="327.364465242" cy="365.805376971" fill="rgb(100%,0%,0%)" r="0.7" /><circle cx="327.313149604" cy="368.804936297" fill="rgb(100%,0%,0%)" r="0.7" /><circle cx="327.236711376" cy="371.803954779" fill="rgb(100%,0%,0%)" r="0.7" /><circle cx="327.137436434" cy="374.802307457" fill="rgb(100%,0%,0%)" r="0.7" /><circle cx="327.014907578" cy="377.799798092" fill="rgb(100%,0%,0%)" r="0.7" /><circle cx="326.867539144" cy="380.796168742" fill="rgb(100%,0%,0%)" r="0.7" /><circle cx="326.692778753" cy="383.791067405" fill="rgb(100%,0%,0%)" r="0.7" /><circle cx="326.486990933" cy="386.783985332" fill="rgb(100%,0%,0%)" r="0.7" /><circle cx="326.245114589" cy="389.774198899" fill="rgb(100%,0%,0%)" r="0.7" /><circle cx="325.960022902" cy="392.760592964" fill="rgb(100%,0%,0%)" r="0.7" /><circle cx="325.621341937" cy="395.741365015" fill="rgb(100%,0%,0%)" r="0.7" /><circle cx="325.213139098" cy="398.71336703" fill="rgb(100%,0%,0%)" r="0.7" /><circle cx="324.708867995" cy="401.670500274" fill="rgb(100%,0%,0%)" r="0.7" /><circle cx="324.058312674" cy="404.598599069" fill="rgb(100%,0%,0%)" r="0.7" /><circle cx="323.142854491" cy="407.453235018" fill="rgb(100%,0%,0%)" r="0.7" /><circle cx="321.810544629" cy="410.137154592" fill="rgb(100%,0%,0%)" r="0.7" /><circle cx="320.093180455" cy="412.593163873" fill="rgb(100%,0%,0%)" r="0.7" /><circle cx="318.076208978" cy="414.812084879" fill="rgb(100%,0%,0%)" r="0.7" /><circle cx="315.863564325" cy="416.836744374" fill="rgb(100%,0%,0%)" r="0.7" /><circle cx="313.508878566" cy="418.694755628" fill="rgb(100%,0%,0%)" r="0.7" /><circle cx="311.046011499" cy="420.407063948" fill="rgb(100%,0%,0%)" r="0.7" /><circle cx="308.498247117" cy="421.990476196" fill="rgb(100%,0%,0%)" r="0.7" /><circle cx="305.882412885" cy="423.458847787" fill="rgb(100%,0%,0%)" r="0.7" /><circle cx="303.211100576" cy="424.82378521" fill="rgb(100%,0%,0%)" r="0.7" /><circle cx="300.493964513" cy="426.095135206" fill="rgb(100%,0%,0%)" r="0.7" /><circle cx="297.738552854" cy="427.281333353" fill="rgb(100%,0%,0%)" r="0.7" /><circle cx="294.950886002" cy="428.389657078" fill="rgb(100%,0%,0%)" r="0.7" /><circle cx="292.137028334" cy="429.429797714" fill="rgb(100%,0%,0%)" r="0.7" /><circle cx="289.311504734" cy="430.437979923" fill="rgb(100%,0%,0%)" r="0.7" /><circle cx="286.478923934" cy="431.426134034" fill="rgb(100%,0%,0%)" r="0.7" /><circle cx="283.639729708" cy="432.395118083" fill="rgb(100%,0%,0%)" r="0.7" /><circle cx="280.793604747" cy="433.343561775" fill="rgb(100%,0%,0%)" r="0.7" /><circle cx="277.939842315" cy="434.26875872" fill="rgb(100%,0%,0%)" r="0.7" /><circle cx="275.077324992" cy="435.166489293" fill="rgb(100%,0%,0%)" r="0.7" /><circle cx="272.2044" cy="436.030305268" fill="rgb(100%,0%,0%)" r="0.7" /><circle cx="269.318583138" cy="436.849960144" fill="rgb(100%,0%,0%)" r="0.7" /><circle cx="266.415953163" cy="437.607757708" fill="rgb(100%,0%,0%)" r="0.7" /><circle cx="263.489824487" cy="438.268331785" fill="rgb(100%,0%,0%)" r="0.7" /><circle cx="264.932983422" cy="439.788779045" fill="rgb(100%,0%,0%)" r="0.7" /><circle cx="267.37902751" cy="441.525692491" fill="rgb(100%,0%,0%)" r="0.7" /><circle cx="269.825071598" cy="443.262605937" fill="rgb(100%,0%,0%)" r="0.7" /><circle cx="272.271115686" cy="444.999519383" fill="rgb(100%,0%,0%)" r="0.7" /><circle cx="272.642043856" cy="447.689907312" fill="rgb(100%,0%,0%)" r="0.7" /><circle cx="272.366699089" cy="450.677244798" fill="rgb(100%,0%,0%)" r="0.7" /><circle cx="272.091354322" cy="453.664582285" fill="rgb(100%,0%,0%)" r="0.7" /><circle cx="271.816009555" cy="456.651919772" fill="rgb(100%,0%,0%)" r="0.7" /><circle cx="271.540664787" cy="459.639257258" fill="rgb(100%,0%,0%)" r="0.7" /><circle cx="271.26532002" cy="462.626594745" fill="rgb(100%,0%,0%)" r="0.7" /><circle cx="271.145" cy="463.932" fill="rgb(100%,0%,0%)" r="0.7" /><circle cx="342.319856742" cy="334.624597599" fill="rgb(0%,0%,100%)" r="0.7" /><circle cx="345.086579296" cy="335.741624811" fill="rgb(0%,0%,100%)" r="0.7" /><circle cx="347.384073751" cy="337.657063782" fill="rgb(0%,0%,100%)" r="0.7" /><circle cx="348.94848441" cy="340.178630204" fill="rgb(0%,0%,100%)" r="0.7" /><circle cx="349.798124912" cy="343.054241877" fill="rgb(0%,0%,100%)" r="0.7" /><circle cx="350.40507997" cy="345.991687778" fill="rgb(0%,0%,100%)" r="0.7" /><circle cx="350.858131224" cy="348.957054927" fill="rgb(0%,0%,100%)" r="0.7" /><circle cx="351.202326302" cy="351.937120474" fill="rgb(0%,0%,100%)" r="0.7" /><circle cx="351.463782683" cy="354.925630665" fill="rgb(0%,0%,100%)" r="0.7" /><circle cx="351.658954197" cy="357.919227298" fill="rgb(0%,0%,100%)" r="0.7" /><circle cx="351.798707234" cy="360.915935738" fill="rgb(0%,0%,100%)" r="0.7" /><circle cx="351.890264752" cy="363.914509392" fill="rgb(0%,0%,100%)" r="0.7" /><circle cx="351.938020675" cy="366.9141081" fill="rgb(0%,0%,100%)" r="0.7" /><circle cx="351.943173795" cy="369.914076626" fill="rgb(0%,0%,100%)" r="0.7" /><circle cx="351.87562397" cy="372.912781587" fill="rgb(0%,0%,100%)" r="0.7" /><circle cx="351.676771492" cy="375.906163222" fill="rgb(0%,0%,100%)" r="0.7" /><circle cx="351.438475155" cy="378.896661693" fill="rgb(0%,0%,100%)" r="0.7" /><circle cx="351.160315473" cy="381.883712484" fill="rgb(0%,0%,100%)" r="0.7" /><circle cx="350.841828128" cy="384.866731328" fill="rgb(0%,0%,100%)" r="0.7" /><circle cx="350.482492669" cy="387.84511392" fill="rgb(0%,0%,100%)" r="0.7" /><circle cx="350.081723196" cy="390.818197433" fill="rgb(0%,0%,100%)" r="0.7" /><circle cx="349.638844474" cy="393.785305754" fill="rgb(0%,0%,100%)" r="0.7" /><circle cx="349.153075427" cy="396.745689155" fill="rgb(0%,0%,100%)" r="0.7" /><circle cx="348.623493099" cy="399.698544058" fill="rgb(0%,0%,100%)" r="0.7" /><circle cx="348.048988352" cy="402.642990363" fill="rgb(0%,0%,100%)" r="0.7" /><circle cx="347.428203997" cy="405.57802926" fill="rgb(0%,0%,100%)" r="0.7" /><circle cx="346.759436122" cy="408.502504605" fill="rgb(0%,0%,100%)" r="0.7" /><circle cx="346.040473634" cy="411.415039798" fill="rgb(0%,0%,100%)" r="0.7" /><circle cx="345.268319588" cy="414.313912656" fill="rgb(0%,0%,100%)" r="0.7" /><circle cx="344.438633116" cy="417.196842633" fill="rgb(0%,0%,100%)" r="0.7" /><circle cx="343.544430913" cy="420.060409953" fill="rgb(0%,0%,100%)" r="0.7" /><circle cx="342.571673721" cy="422.898187745" fill="rgb(0%,0%,100%)" r="0.7" /><circle cx="341.283685464" cy="425.592394706" fill="rgb(0%,0%,100%)" r="0.7" /><circle cx="339.503172925" cy="428.005181236" fill="rgb(0%,0%,100%)" r="0.7" /><circle cx="337.507429608" cy="430.243966833" fill="rgb(0%,0%,100%)" r="0.7" /><circle cx="335.355493616" cy="432.333491393" fill="rgb(0%,0%,100%)" r="0.7" /><circle cx="333.086839091" cy="434.295924168" fill="rgb(0%,0%,100%)" r="0.7" /><circle cx="330.728439997" cy="436.149728609" fill="rgb(0%,0%,100%)" r="0.7" /><circle cx="328.299271727" cy="437.909897453" fill="rgb(0%,0%,100%)" r="0.7" /><circle cx="325.813032115" cy="439.588577184" fill="rgb(0%,0%,100%)" r="0.7" /><circle cx="323.279887842" cy="441.195630092" fill="rgb(0%,0%,100%)" r="0.7" /><circle cx="320.707505838" cy="442.739157362" fill="rgb(0%,0%,100%)" r="0.7" /><circle cx="318.101843391" cy="444.225829065" fill="rgb(0%,0%,100%)" r="0.7" /><circle cx="315.467566042" cy="445.661212304" fill="rgb(0%,0%,100%)" r="0.7" /><circle cx="312.808404409" cy="447.049975509" fill="rgb(0%,0%,100%)" r="0.7" /><circle cx="310.127380518" cy="448.396060717" fill="rgb(0%,0%,100%)" r="0.7" /><circle cx="307.426966155" cy="449.702816914" fill="rgb(0%,0%,100%)" r="0.7" /><circle cx="304.709196348" cy="450.973102707" fill="rgb(0%,0%,100%)" r="0.7" /><circle cx="301.975776862" cy="452.209354099" fill="rgb(0%,0%,100%)" r="0.7" /><circle cx="299.228129108" cy="453.413652964" fill="rgb(0%,0%,100%)" r="0.7" /><circle cx="296.46744253" cy="454.58776865" fill="rgb(0%,0%,100%)" r="0.7" /><circle cx="293.694727279" cy="455.733181425" fill="rgb(0%,0%,100%)" r="0.7" /><circle cx="290.91081526" cy="456.851110542" fill="rgb(0%,0%,100%)" r="0.7" /><circle cx="288.116386882" cy="457.942512609" fill="rgb(0%,0%,100%)" r="0.7" /><circle cx="285.312007538" cy="459.008053795" fill="rgb(0%,0%,100%)" r="0.7" /><circle cx="282.498056644" cy="460.048086428" fill="rgb(0%,0%,100%)" r="0.7" /><circle cx="279.67479899" cy="461.062500604" fill="rgb(0%,0%,100%)" r="0.7" /><circle cx="276.842149369" cy="462.050517685" fill="rgb(0%,0%,100%)" r="0.7" /><circle cx="273.999696644" cy="463.009828689" fill="rgb(0%,0%,100%)" r="0.7" /><circle cx="271.145" cy="463.932" fill="rgb(0%,0%,100%)" r="0.7" /></svg>