<?xml version="1.0" encoding="utf-8" ?>
<svg baseProfile="full" height="100%" version="1.1" width="100%" xmlns="http://www.w3.org/2000/svg" xmlns:ev="http://www.w3.org/2001/xml-events" xmlns:xlink="http://www.w3.org/1999/xlink"><defs /><circle cx="254.76320053" cy="356.175727829" fill="rgb(100%,0%,0%)" r="0.7" /><circle cx="251.909636378" cy="357.064268921" fill="rgb(100%,0%,0%)" r="0.7" /><circle cx="249.354849195" cy="358.627466042" fill="rgb(100%,0%,0%)" r="0.7" /><circle cx="247.085088712" cy="360.585799819" fill="rgb(100%,0%,0%)" r="0.7" /><circle cx="245.047159515" cy="362.785844321" fill="rgb(100%,0%,0%)" r="0.7" /><circle cx="243.196689856" cy="365.146327935" fill="rgb(100%,0%,0%)" r="0.7" /><circle cx="241.504254384" cy="367.622816467" fill="rgb(100%,0%,0%)" r="0.7" /><circle cx="239.95708474" cy="370.192611869" fill="rgb(100%,0%,0%)" r="0.7" /><circle cx="238.672997466" cy="372.899262885" fill="rgb(100%,0%,0%)" r="0.7" /><circle cx="237.807214962" cy="375.769309747" fill="rgb(100%,0%,0%)" r="0.7" /><circle cx="237.321667543" cy="378.72771421" fill="rgb(100%,0%,0%)" r="0.7" /><circle cx="237.200421434" cy="381.723547764" fill="rgb(100%,0%,0%)" r="0.7" /><circle cx="237.412795357" cy="384.714627199" fill="rgb(100%,0%,0%)" r="0.7" /><circle cx="237.922153288" cy="387.669944056" fill="rgb(100%,0%,0%)" r="0.7" /><circle cx="238.692848927" cy="390.568335397" fill="rgb(100%,0%,0%)" r="0.7" /><circle cx="239.694676047" cy="393.395326772" fill="rgb(100%,0%,0%)" r="0.7" /><circle cx="240.906387561" cy="396.138984278" fill="rgb(100%,0%,0%)" r="0.7" /><circle cx="242.32481518" cy="398.781511959" fill="rgb(100%,0%,0%)" r="0.7" /><circle cx="243.721768603" cy="401.432464826" fill="rgb(100%,0%,0%)" r="0.7" /><circle cx="244.994574485" cy="404.149027224" fill="rgb(100%,0%,0%)" r="0.7" /><circle cx="246.216626634" cy="406.88878986" fill="rgb(100%,0%,0%)" r="0.7" /><circle cx="247.385282894" cy="409.651748615" fill="rgb(100%,0%,0%)" r="0.7" /><circle cx="248.497646334" cy="412.437846318" fill="rgb(100%,0%,0%)" r="0.7" /><circle cx="249.550513161" cy="415.246953232" fill="rgb(100%,0%,0%)" r="0.7" /><circle cx="250.540324594" cy="418.078900627" fill="rgb(100%,0%,0%)" r="0.7" /><circle cx="251.463050805" cy="420.93339306" fill="rgb(100%,0%,0%)" r="0.7" /><circle cx="252.314087702" cy="423.810053982" fill="rgb(100%,0%,0%)" r="0.7" /><circle cx="253.088065493" cy="426.708401215" fill="rgb(100%,0%,0%)" r="0.7" /><circle cx="253.778536457" cy="429.627752803" fill="rgb(100%,0%,0%)" r="0.7" /><circle cx="254.377490519" cy="432.567214962" fill="rgb(100%,0%,0%)" r="0.7" /><circle cx="254.874431218" cy="435.525598325" fill="rgb(100%,0%,0%)" r="0.7" /><circle cx="255.254383114" cy="438.501212805" fill="rgb(100%,0%,0%)" r="0.7" /><circle cx="255.492379129" cy="441.491396893" fill="rgb(100%,0%,0%)" r="0.7" /><circle cx="255.521" cy="444.49" fill="rgb(100%,0%,0%)" r="0.7" /><circle cx="254.76320053" cy="356.175727829" fill="rgb(0%,0%,100%)" r="0.7" /><circle cx="257.752173325" cy="356.214106907" fill="rgb(0%,0%,100%)" r="0.7" /><circle cx="260.487479216" cy="357.378787203" fill="rgb(0%,0%,100%)" r="0.7" /><circle cx="262.339148504" cy="359.700325914" fill="rgb(0%,0%,100%)" r="0.7" /><circle cx="263.096414606" cy="362.589067998" fill="rgb(0%,0%,100%)" r="0.7" /><circle cx="263.202354506" cy="365.584564537" fill="rgb(0%,0%,100%)" r="0.7" /><circle cx="262.709135701" cy="368.530557135" fill="rgb(0%,0%,100%)" r="0.7" /><circle cx="261.237369339" cy="371.124227402" fill="rgb(0%,0%,100%)" r="0.7" /><circle cx="258.912755994" cy="372.994899429" fill="rgb(0%,0%,100%)" r="0.7" /><circle cx="256.118763746" cy="374.063722728" fill="rgb(0%,0%,100%)" r="0.7" /><circle cx="254.142563625" cy="376.231856157" fill="rgb(0%,0%,100%)" r="0.7" /><circle cx="253.62680369" cy="379.146563693" fill="rgb(0%,0%,100%)" r="0.7" /><circle cx="254.575840391" cy="381.970937038" fill="rgb(0%,0%,100%)" r="0.7" /><circle cx="256.182133676" cy="384.503936674" fill="rgb(0%,0%,100%)" r="0.7" /><circle cx="257.709149626" cy="387.086064114" fill="rgb(0%,0%,100%)" r="0.7" /><circle cx="259.152068513" cy="389.716135739" fill="rgb(0%,0%,100%)" r="0.7" /><circle cx="260.519059126" cy="392.386493324" fill="rgb(0%,0%,100%)" r="0.7" /><circle cx="261.813258365" cy="395.092866139" fill="rgb(0%,0%,100%)" r="0.7" /><circle cx="263.035754667" cy="397.832390923" fill="rgb(0%,0%,100%)" r="0.7" /><circle cx="264.186491348" cy="400.602834623" fill="rgb(0%,0%,100%)" r="0.7" /><circle cx="265.264693073" cy="403.402294599" fill="rgb(0%,0%,100%)" r="0.7" /><circle cx="266.269098099" cy="406.229061444" fill="rgb(0%,0%,100%)" r="0.7" /><circle cx="267.198085194" cy="409.081511927" fill="rgb(0%,0%,100%)" r="0.7" /><circle cx="268.049742363" cy="411.957983306" fill="rgb(0%,0%,100%)" r="0.7" /><circle cx="268.821955313" cy="414.85679824" fill="rgb(0%,0%,100%)" r="0.7" /><circle cx="269.512436761" cy="417.77615139" fill="rgb(0%,0%,100%)" r="0.7" /><circle cx="270.11878768" cy="420.714133918" fill="rgb(0%,0%,100%)" r="0.7" /><circle cx="270.638528619" cy="423.668656421" fill="rgb(0%,0%,100%)" r="0.7" /><circle cx="271.069152027" cy="426.637468018" fill="rgb(0%,0%,100%)" r="0.7" /><circle cx="271.40816386" cy="429.618133814" fill="rgb(0%,0%,100%)" r="0.7" /><circle cx="271.653126141" cy="432.607985185" fill="rgb(0%,0%,100%)" r="0.7" /><circle cx="271.801712517" cy="435.60417559" fill="rgb(0%,0%,100%)" r="0.7" /><circle cx="271.85175372" cy="438.60361605" fill="rgb(0%,0%,100%)" r="0.7" /><circle cx="271.801292576" cy="441.603051746" fill="rgb(0%,0%,100%)" r="0.7" /><circle cx="270.372497985" cy="442.535406485" fill="rgb(0%,0%,100%)" r="0.7" /><circle cx="267.613459883" cy="441.357395981" fill="rgb(0%,0%,100%)" r="0.7" /><circle cx="264.85442178" cy="440.179385478" fill="rgb(0%,0%,100%)" r="0.7" /><circle cx="262.095383677" cy="439.001374974" fill="rgb(0%,0%,100%)" r="0.7" /><circle cx="259.773594557" cy="439.845708856" fill="rgb(0%,0%,100%)" r="0.7" /><circle cx="257.747630535" cy="442.058279709" fill="rgb(0%,0%,100%)" r="0.7" /><circle cx="255.721666513" cy="444.270850562" fill="rgb(0%,0%,100%)" r="0.7" /><circle cx="255.521" cy="444.49" fill="rgb(0%,0%,100%)" r="0.7" /></svg>