<?xml version="1.0" encoding="utf-8" ?>
<svg baseProfile="full" height="100%" version="1.1" width="100%" xmlns="http://www.w3.org/2000/svg" xmlns:ev="http://www.w3.org/2001/xml-events" xmlns:xlink="http://www.w3.org/1999/xlink"><defs /><circle cx="312.55408963" cy="262.413364319" fill="rgb(100%,0%,0%)" r="0.7" /><circle cx="309.584247559" cy="262.822618666" fill="rgb(100%,0%,0%)" r="0.7" /><circle cx="306.679380551" cy="263.567093901" fill="rgb(100%,0%,0%)" r="0.7" /><circle cx="303.855583268" cy="264.57598359" fill="rgb(100%,0%,0%)" r="0.7" /><circle cx="301.276239599" cy="266.101888694" fill="rgb(100%,0%,0%)" r="0.7" /><circle cx="298.904207101" cy="267.936390601" fill="rgb(100%,0%,0%)" r="0.7" /><circle cx="296.717327037" cy="269.988631507" fill="rgb(100%,0%,0%)" r="0.7" /><circle cx="294.708537541" cy="272.21576258" fill="rgb(100%,0%,0%)" r="0.7" /><circle cx="292.872557836" cy="274.58754144" fill="rgb(100%,0%,0%)" r="0.7" /><circle cx="291.20376797" cy="277.079908934" fill="rgb(100%,0%,0%)" r="0.7" /><circle cx="289.695777365" cy="279.672816811" fill="rgb(100%,0%,0%)" r="0.7" /><circle cx="288.341471595" cy="282.349287655" fill="rgb(100%,0%,0%)" r="0.7" /><circle cx="287.133231726" cy="285.094872356" fill="rgb(100%,0%,0%)" r="0.7" /><circle cx="286.063192073" cy="287.89723117" fill="rgb(100%,0%,0%)" r="0.7" /><circle cx="285.123403725" cy="290.745968168" fill="rgb(100%,0%,0%)" r="0.7" /><circle cx="284.306055012" cy="293.632270809" fill="rgb(100%,0%,0%)" r="0.7" /><circle cx="283.603592406" cy="296.548683524" fill="rgb(100%,0%,0%)" r="0.7" /><circle cx="283.008793529" cy="299.488955169" fill="rgb(100%,0%,0%)" r="0.7" /><circle cx="282.514820682" cy="302.447890603" fill="rgb(100%,0%,0%)" r="0.7" /><circle cx="282.115275475" cy="305.421033677" fill="rgb(100%,0%,0%)" r="0.7" /><circle cx="281.804170329" cy="308.404748159" fill="rgb(100%,0%,0%)" r="0.7" /><circle cx="281.575947398" cy="311.395958318" fill="rgb(100%,0%,0%)" r="0.7" /><circle cx="281.425455873" cy="314.392104007" fill="rgb(100%,0%,0%)" r="0.7" /><circle cx="281.34793301" cy="317.39104634" fill="rgb(100%,0%,0%)" r="0.7" /><circle cx="281.338979843" cy="320.390964564" fill="rgb(100%,0%,0%)" r="0.7" /><circle cx="281.394534944" cy="323.390394362" fill="rgb(100%,0%,0%)" r="0.7" /><circle cx="281.510851235" cy="326.388096437" fill="rgb(100%,0%,0%)" r="0.7" /><circle cx="281.974027064" cy="328.583968119" fill="rgb(100%,0%,0%)" r="0.7" /><circle cx="312.55408963" cy="262.413364319" fill="rgb(0%,0%,100%)" r="0.7" /><circle cx="315.550305051" cy="262.447992189" fill="rgb(0%,0%,100%)" r="0.7" /><circle cx="318.481622156" cy="263.057544736" fill="rgb(0%,0%,100%)" r="0.7" /><circle cx="321.17477616" cy="264.35829402" fill="rgb(0%,0%,100%)" r="0.7" /><circle cx="323.34819359" cy="266.403286342" fill="rgb(0%,0%,100%)" r="0.7" /><circle cx="324.205575047" cy="269.208657821" fill="rgb(0%,0%,100%)" r="0.7" /><circle cx="323.642230646" cy="272.145137556" fill="rgb(0%,0%,100%)" r="0.7" /><circle cx="322.514494448" cy="274.922631718" fill="rgb(0%,0%,100%)" r="0.7" /><circle cx="321.089234369" cy="277.561259305" fill="rgb(0%,0%,100%)" r="0.7" /><circle cx="319.22511115" cy="279.887964881" fill="rgb(0%,0%,100%)" r="0.7" /><circle cx="316.496626714" cy="281.036836416" fill="rgb(0%,0%,100%)" r="0.7" /><circle cx="313.530358201" cy="280.749654361" fill="rgb(0%,0%,100%)" r="0.7" /><circle cx="310.776511665" cy="279.576524346" fill="rgb(0%,0%,100%)" r="0.7" /><circle cx="308.186523158" cy="278.160606347" fill="rgb(0%,0%,100%)" r="0.7" /><circle cx="305.557963982" cy="279.524591775" fill="rgb(0%,0%,100%)" r="0.7" /><circle cx="303.359451125" cy="281.562391697" fill="rgb(0%,0%,100%)" r="0.7" /><circle cx="301.553756279" cy="283.951982327" fill="rgb(0%,0%,100%)" r="0.7" /><circle cx="300.142367124" cy="286.596944224" fill="rgb(0%,0%,100%)" r="0.7" /><circle cx="299.022986357" cy="289.379181931" fill="rgb(0%,0%,100%)" r="0.7" /><circle cx="298.124365696" cy="292.240838752" fill="rgb(0%,0%,100%)" r="0.7" /><circle cx="297.397378692" cy="295.151068959" fill="rgb(0%,0%,100%)" r="0.7" /><circle cx="296.807816475" cy="298.092343583" fill="rgb(0%,0%,100%)" r="0.7" /><circle cx="296.331277472" cy="301.054101818" fill="rgb(0%,0%,100%)" r="0.7" /><circle cx="295.949921825" cy="304.029655702" fill="rgb(0%,0%,100%)" r="0.7" /><circle cx="295.650438093" cy="307.014589067" fill="rgb(0%,0%,100%)" r="0.7" /><circle cx="295.422759612" cy="310.00587521" fill="rgb(0%,0%,100%)" r="0.7" /><circle cx="295.25925307" cy="313.001366139" fill="rgb(0%,0%,100%)" r="0.7" /><circle cx="295.15422956" cy="315.999486192" fill="rgb(0%,0%,100%)" r="0.7" /><circle cx="295.103724504" cy="318.999022745" fill="rgb(0%,0%,100%)" r="0.7" /><circle cx="295.105618042" cy="321.998988885" fill="rgb(0%,0%,100%)" r="0.7" /><circle cx="295.160586826" cy="324.998441398" fill="rgb(0%,0%,100%)" r="0.7" /><circle cx="295.279" cy="327.996" fill="rgb(0%,0%,100%)" r="0.7" /><circle cx="294.30907385" cy="327.57317854" fill="rgb(0%,0%,100%)" r="0.7" /><circle cx="291.559020373" cy="326.374343325" fill="rgb(0%,0%,100%)" r="0.7" /><circle cx="288.808966896" cy="325.175508109" fill="rgb(0%,0%,100%)" r="0.7" /><circle cx="286.111935729" cy="324.239119229" fill="rgb(0%,0%,100%)" r="0.7" /><circle cx="284.042981396" cy="326.411543674" fill="rgb(0%,0%,100%)" r="0.7" /><circle cx="281.974027064" cy="328.583968119" fill="rgb(0%,0%,100%)" r="0.7" /></svg>