<?xml version="1.0" encoding="utf-8" ?>
<svg baseProfile="full" height="100%" version="1.1" width="100%" xmlns="http://www.w3.org/2000/svg" xmlns:ev="http://www.w3.org/2001/xml-events" xmlns:xlink="http://www.w3.org/1999/xlink"><defs /><circle cx="303.717313141" cy="300.765693329" fill="rgb(100%,0%,0%)" r="0.7" /><circle cx="300.726993422" cy="300.911509643" fill="rgb(100%,0%,0%)" r="0.7" /><circle cx="297.880844852" cy="301.822908089" fill="rgb(100%,0%,0%)" r="0.7" /><circle cx="295.612795775" cy="303.721865983" fill="rgb(100%,0%,0%)" r="0.7" /><circle cx="294.419757741" cy="306.460421108" fill="rgb(100%,0%,0%)" r="0.7" /><circle cx="293.915158857" cy="309.413574346" fill="rgb(100%,0%,0%)" r="0.7" /><circle cx="293.84076038" cy="312.410993886" fill="rgb(100%,0%,0%)" r="0.7" /><circle cx="294.056229463" cy="315.402418906" fill="rgb(100%,0%,0%)" r="0.7" /><circle cx="294.480384914" cy="318.371828361" fill="rgb(100%,0%,0%)" r="0.7" /><circle cx="294.830061151" cy="321.31413546" fill="rgb(100%,0%,0%)" r="0.7" /><circle cx="293.964747" cy="324.185580114" fill="rgb(100%,0%,0%)" r="0.7" /><circle cx="292.911220466" cy="326.994167283" fill="rgb(100%,0%,0%)" r="0.7" /><circle cx="291.73709677" cy="329.754650352" fill="rgb(100%,0%,0%)" r="0.7" /><circle cx="290.470891681" cy="332.474215915" fill="rgb(100%,0%,0%)" r="0.7" /><circle cx="289.129535585" cy="335.157547287" fill="rgb(100%,0%,0%)" r="0.7" /><circle cx="287.724498761" cy="337.80811851" fill="rgb(100%,0%,0%)" r="0.7" /><circle cx="286.264177088" cy="340.428641745" fill="rgb(100%,0%,0%)" r="0.7" /><circle cx="284.755003392" cy="343.021363743" fill="rgb(100%,0%,0%)" r="0.7" /><circle cx="283.202115053" cy="345.588135115" fill="rgb(100%,0%,0%)" r="0.7" /><circle cx="281.609685348" cy="348.130578982" fill="rgb(100%,0%,0%)" r="0.7" /><circle cx="279.981208221" cy="350.650080427" fill="rgb(100%,0%,0%)" r="0.7" /><circle cx="278.319628899" cy="353.147882658" fill="rgb(100%,0%,0%)" r="0.7" /><circle cx="276.627474662" cy="355.625092279" fill="rgb(100%,0%,0%)" r="0.7" /><circle cx="274.906954525" cy="358.082680197" fill="rgb(100%,0%,0%)" r="0.7" /><circle cx="273.160002058" cy="360.521529156" fill="rgb(100%,0%,0%)" r="0.7" /><circle cx="271.388301407" cy="362.942476088" fill="rgb(100%,0%,0%)" r="0.7" /><circle cx="269.593370106" cy="365.346259049" fill="rgb(100%,0%,0%)" r="0.7" /><circle cx="267.776557594" cy="367.733569125" fill="rgb(100%,0%,0%)" r="0.7" /><circle cx="265.939115457" cy="370.104996737" fill="rgb(100%,0%,0%)" r="0.7" /><circle cx="264.082114264" cy="372.461170347" fill="rgb(100%,0%,0%)" r="0.7" /><circle cx="262.206591482" cy="374.802590869" fill="rgb(100%,0%,0%)" r="0.7" /><circle cx="260.313434101" cy="377.129801696" fill="rgb(100%,0%,0%)" r="0.7" /><circle cx="258.403473795" cy="379.443285112" fill="rgb(100%,0%,0%)" r="0.7" /><circle cx="256.477530732" cy="381.743426412" fill="rgb(100%,0%,0%)" r="0.7" /><circle cx="254.536295156" cy="384.030668808" fill="rgb(100%,0%,0%)" r="0.7" /><circle cx="252.580395929" cy="386.305438689" fill="rgb(100%,0%,0%)" r="0.7" /><circle cx="250.610496922" cy="388.568043825" fill="rgb(100%,0%,0%)" r="0.7" /><circle cx="248.627142577" cy="390.818860771" fill="rgb(100%,0%,0%)" r="0.7" /><circle cx="246.63085069" cy="393.058232574" fill="rgb(100%,0%,0%)" r="0.7" /><circle cx="244.396118646" cy="395.056891404" fill="rgb(100%,0%,0%)" r="0.7" /><circle cx="242.134604086" cy="397.028088414" fill="rgb(100%,0%,0%)" r="0.7" /><circle cx="239.8709792" cy="398.996834561" fill="rgb(100%,0%,0%)" r="0.7" /><circle cx="237.605222798" cy="400.963146303" fill="rgb(100%,0%,0%)" r="0.7" /><circle cx="235.337216538" cy="402.9268626" fill="rgb(100%,0%,0%)" r="0.7" /><circle cx="233.066741705" cy="404.887715024" fill="rgb(100%,0%,0%)" r="0.7" /><circle cx="230.793467713" cy="406.84532128" fill="rgb(100%,0%,0%)" r="0.7" /><circle cx="228.51693266" cy="408.799136516" fill="rgb(100%,0%,0%)" r="0.7" /><circle cx="226.236479595" cy="410.748379378" fill="rgb(100%,0%,0%)" r="0.7" /><circle cx="223.951140986" cy="412.691886175" fill="rgb(100%,0%,0%)" r="0.7" /><circle cx="221.659383056" cy="414.627829292" fill="rgb(100%,0%,0%)" r="0.7" /><circle cx="219.358578076" cy="416.553001624" fill="rgb(100%,0%,0%)" r="0.7" /><circle cx="217.043371544" cy="418.460819666" fill="rgb(100%,0%,0%)" r="0.7" /><circle cx="214.698658002" cy="420.332147658" fill="rgb(100%,0%,0%)" r="0.7" /><circle cx="212.303628139" cy="422.136754687" fill="rgb(100%,0%,0%)" r="0.7" /><circle cx="209.863125775" cy="423.880144622" fill="rgb(100%,0%,0%)" r="0.7" /><circle cx="207.202096684" cy="425.251284642" fill="rgb(100%,0%,0%)" r="0.7" /><circle cx="204.44099676" cy="426.424258121" fill="rgb(100%,0%,0%)" r="0.7" /><circle cx="201.647726165" cy="427.518252755" fill="rgb(100%,0%,0%)" r="0.7" /><circle cx="198.810114361" cy="428.490652142" fill="rgb(100%,0%,0%)" r="0.7" /><circle cx="195.893921327" cy="429.177636156" fill="rgb(100%,0%,0%)" r="0.7" /><circle cx="192.9269957" cy="429.621878077" fill="rgb(100%,0%,0%)" r="0.7" /><circle cx="189.957586737" cy="430.049146822" fill="rgb(100%,0%,0%)" r="0.7" /><circle cx="186.985755886" cy="430.459294192" fill="rgb(100%,0%,0%)" r="0.7" /><circle cx="184.01131498" cy="430.850022722" fill="rgb(100%,0%,0%)" r="0.7" /><circle cx="181.033875193" cy="431.217180544" fill="rgb(100%,0%,0%)" r="0.7" /><circle cx="178.052832035" cy="431.553765632" fill="rgb(100%,0%,0%)" r="0.7" /><circle cx="175.067255476" cy="431.847182685" fill="rgb(100%,0%,0%)" r="0.7" /><circle cx="172.075726176" cy="432.070887316" fill="rgb(100%,0%,0%)" r="0.7" /><circle cx="169.077451063" cy="432.144917318" fill="rgb(100%,0%,0%)" r="0.7" /><circle cx="167.809356135" cy="432.295847872" fill="rgb(100%,0%,0%)" r="0.7" /><circle cx="170.29850988" cy="433.970396659" fill="rgb(100%,0%,0%)" r="0.7" /><circle cx="172.787663624" cy="435.644945445" fill="rgb(100%,0%,0%)" r="0.7" /><circle cx="175.276817369" cy="437.319494231" fill="rgb(100%,0%,0%)" r="0.7" /><circle cx="176.33797754" cy="439.022458484" fill="rgb(100%,0%,0%)" r="0.7" /><circle cx="173.917411153" cy="440.794705183" fill="rgb(100%,0%,0%)" r="0.7" /><circle cx="171.496844765" cy="442.566951883" fill="rgb(100%,0%,0%)" r="0.7" /><circle cx="169.076278378" cy="444.339198582" fill="rgb(100%,0%,0%)" r="0.7" /><circle cx="166.65571199" cy="446.111445282" fill="rgb(100%,0%,0%)" r="0.7" /><circle cx="164.235145603" cy="447.883691981" fill="rgb(100%,0%,0%)" r="0.7" /><circle cx="163.041" cy="448.758" fill="rgb(100%,0%,0%)" r="0.7" /><circle cx="166.04017536" cy="448.825916676" fill="rgb(100%,0%,0%)" r="0.7" /><circle cx="169.040067173" cy="448.849198409" fill="rgb(100%,0%,0%)" r="0.7" /><circle cx="303.717313141" cy="300.765693329" fill="rgb(0%,0%,100%)" r="0.7" /><circle cx="306.681882496" cy="301.200036111" fill="rgb(0%,0%,100%)" r="0.7" /><circle cx="308.58866212" cy="303.067946789" fill="rgb(0%,0%,100%)" r="0.7" /><circle cx="308.518406786" cy="306.061376239" fill="rgb(0%,0%,100%)" r="0.7" /><circle cx="308.258567" cy="309.045633821" fill="rgb(0%,0%,100%)" r="0.7" /><circle cx="307.980853227" cy="312.032442193" fill="rgb(0%,0%,100%)" r="0.7" /><circle cx="307.599310027" cy="315.008008415" fill="rgb(0%,0%,100%)" r="0.7" /><circle cx="307.160159253" cy="317.97566302" fill="rgb(0%,0%,100%)" r="0.7" /><circle cx="306.681604435" cy="320.937231004" fill="rgb(0%,0%,100%)" r="0.7" /><circle cx="306.171939366" cy="323.893610095" fill="rgb(0%,0%,100%)" r="0.7" /><circle cx="305.553804525" cy="326.824703335" fill="rgb(0%,0%,100%)" r="0.7" /><circle cx="304.574888058" cy="329.660396125" fill="rgb(0%,0%,100%)" r="0.7" /><circle cx="303.530530725" cy="332.472697888" fill="rgb(0%,0%,100%)" r="0.7" /><circle cx="302.439470534" cy="335.267235182" fill="rgb(0%,0%,100%)" r="0.7" /><circle cx="301.312409674" cy="338.047458598" fill="rgb(0%,0%,100%)" r="0.7" /><circle cx="300.155920071" cy="340.815574307" fill="rgb(0%,0%,100%)" r="0.7" /><circle cx="298.974033774" cy="343.572943331" fill="rgb(0%,0%,100%)" r="0.7" /><circle cx="297.768689779" cy="346.320141148" fill="rgb(0%,0%,100%)" r="0.7" /><circle cx="296.527116499" cy="349.050234347" fill="rgb(0%,0%,100%)" r="0.7" /><circle cx="294.921241577" cy="351.584228623" fill="rgb(0%,0%,100%)" r="0.7" /><circle cx="293.296091046" cy="354.105903112" fill="rgb(0%,0%,100%)" r="0.7" /><circle cx="291.652402531" cy="356.61553316" fill="rgb(0%,0%,100%)" r="0.7" /><circle cx="289.990851565" cy="359.11337808" fill="rgb(0%,0%,100%)" r="0.7" /><circle cx="288.312063803" cy="361.599669269" fill="rgb(0%,0%,100%)" r="0.7" /><circle cx="286.616609917" cy="364.074623396" fill="rgb(0%,0%,100%)" r="0.7" /><circle cx="284.90500883" cy="366.538441472" fill="rgb(0%,0%,100%)" r="0.7" /><circle cx="283.17773686" cy="368.991298593" fill="rgb(0%,0%,100%)" r="0.7" /><circle cx="281.435228301" cy="371.433345255" fill="rgb(0%,0%,100%)" r="0.7" /><circle cx="279.677856949" cy="373.864733435" fill="rgb(0%,0%,100%)" r="0.7" /><circle cx="277.905977115" cy="376.285558444" fill="rgb(0%,0%,100%)" r="0.7" /><circle cx="276.119875294" cy="378.695923005" fill="rgb(0%,0%,100%)" r="0.7" /><circle cx="274.31981377" cy="381.095872458" fill="rgb(0%,0%,100%)" r="0.7" /><circle cx="272.505997041" cy="383.485432408" fill="rgb(0%,0%,100%)" r="0.7" /><circle cx="270.678563125" cy="385.864607" fill="rgb(0%,0%,100%)" r="0.7" /><circle cx="268.837599702" cy="388.233338861" fill="rgb(0%,0%,100%)" r="0.7" /><circle cx="266.983134594" cy="390.59149394" fill="rgb(0%,0%,100%)" r="0.7" /><circle cx="265.115066794" cy="392.938904765" fill="rgb(0%,0%,100%)" r="0.7" /><circle cx="263.23319631" cy="395.27525877" fill="rgb(0%,0%,100%)" r="0.7" /><circle cx="261.337124372" cy="397.600094554" fill="rgb(0%,0%,100%)" r="0.7" /><circle cx="259.426136747" cy="399.912690443" fill="rgb(0%,0%,100%)" r="0.7" /><circle cx="257.498935034" cy="402.211793696" fill="rgb(0%,0%,100%)" r="0.7" /><circle cx="255.552689448" cy="404.494773071" fill="rgb(0%,0%,100%)" r="0.7" /><circle cx="253.567159421" cy="406.743509607" fill="rgb(0%,0%,100%)" r="0.7" /><circle cx="251.541450896" cy="408.956306798" fill="rgb(0%,0%,100%)" r="0.7" /><circle cx="249.494353566" cy="411.149324459" fill="rgb(0%,0%,100%)" r="0.7" /><circle cx="247.425070444" cy="413.321413091" fill="rgb(0%,0%,100%)" r="0.7" /><circle cx="245.332722836" cy="415.471293604" fill="rgb(0%,0%,100%)" r="0.7" /><circle cx="243.216344864" cy="417.597521162" fill="rgb(0%,0%,100%)" r="0.7" /><circle cx="241.074864495" cy="419.698451058" fill="rgb(0%,0%,100%)" r="0.7" /><circle cx="238.907050608" cy="421.772219242" fill="rgb(0%,0%,100%)" r="0.7" /><circle cx="236.711538569" cy="423.816620954" fill="rgb(0%,0%,100%)" r="0.7" /><circle cx="234.486716617" cy="425.829083905" fill="rgb(0%,0%,100%)" r="0.7" /><circle cx="232.230694968" cy="427.806497721" fill="rgb(0%,0%,100%)" r="0.7" /><circle cx="229.941185762" cy="429.745019619" fill="rgb(0%,0%,100%)" r="0.7" /><circle cx="227.615303948" cy="431.6397507" fill="rgb(0%,0%,100%)" r="0.7" /><circle cx="225.249293277" cy="433.484079394" fill="rgb(0%,0%,100%)" r="0.7" /><circle cx="222.837775744" cy="435.268471088" fill="rgb(0%,0%,100%)" r="0.7" /><circle cx="220.372082581" cy="436.977104364" fill="rgb(0%,0%,100%)" r="0.7" /><circle cx="217.832486384" cy="438.573289114" fill="rgb(0%,0%,100%)" r="0.7" /><circle cx="215.441992332" cy="440.37429207" fill="rgb(0%,0%,100%)" r="0.7" /><circle cx="212.947327537" cy="442.038640206" fill="rgb(0%,0%,100%)" r="0.7" /><circle cx="210.314420636" cy="443.474774396" fill="rgb(0%,0%,100%)" r="0.7" /><circle cx="207.57537351" cy="444.696807882" fill="rgb(0%,0%,100%)" r="0.7" /><circle cx="204.756163482" cy="445.720847411" fill="rgb(0%,0%,100%)" r="0.7" /><circle cx="201.877196339" cy="446.562749838" fill="rgb(0%,0%,100%)" r="0.7" /><circle cx="198.954266637" cy="447.236688081" fill="rgb(0%,0%,100%)" r="0.7" /><circle cx="195.999566417" cy="447.754136497" fill="rgb(0%,0%,100%)" r="0.7" /><circle cx="193.022592642" cy="448.122702267" fill="rgb(0%,0%,100%)" r="0.7" /><circle cx="190.031036496" cy="448.343367757" fill="rgb(0%,0%,100%)" r="0.7" /><circle cx="187.032056439" cy="448.39525325" fill="rgb(0%,0%,100%)" r="0.7" /><circle cx="184.03532875" cy="448.52590376" fill="rgb(0%,0%,100%)" r="0.7" /><circle cx="181.037630227" cy="448.643224797" fill="rgb(0%,0%,100%)" r="0.7" /><circle cx="178.039048556" cy="448.735113933" fill="rgb(0%,0%,100%)" r="0.7" /><circle cx="175.039777832" cy="448.800941448" fill="rgb(0%,0%,100%)" r="0.7" /><circle cx="172.040041624" cy="448.839611785" fill="rgb(0%,0%,100%)" r="0.7" /><circle cx="169.040067173" cy="448.849198409" fill="rgb(0%,0%,100%)" r="0.7" /></svg>