<?xml version="1.0" encoding="utf-8" ?>
<svg baseProfile="full" height="100%" version="1.1" width="100%" xmlns="http://www.w3.org/2000/svg" xmlns:ev="http://www.w3.org/2001/xml-events" xmlns:xlink="http://www.w3.org/1999/xlink"><defs /><circle cx="276.720874766" cy="283.053622386" fill="rgb(100%,0%,0%)" r="0.7" /><circle cx="273.771227286" cy="283.575098074" fill="rgb(100%,0%,0%)" r="0.7" /><circle cx="271.064215602" cy="284.830911422" fill="rgb(100%,0%,0%)" r="0.7" /><circle cx="268.722578067" cy="286.698728755" fill="rgb(100%,0%,0%)" r="0.7" /><circle cx="266.78076237" cy="288.979440946" fill="rgb(100%,0%,0%)" r="0.7" /><circle cx="265.309209415" cy="291.588553848" fill="rgb(100%,0%,0%)" r="0.7" /><circle cx="264.34040136" cy="294.423677604" fill="rgb(100%,0%,0%)" r="0.7" /><circle cx="263.854743405" cy="297.381054697" fill="rgb(100%,0%,0%)" r="0.7" /><circle cx="263.783455275" cy="300.378600531" fill="rgb(100%,0%,0%)" r="0.7" /><circle cx="263.789971221" cy="303.378581148" fill="rgb(100%,0%,0%)" r="0.7" /><circle cx="263.766241763" cy="306.378478035" fill="rgb(100%,0%,0%)" r="0.7" /><circle cx="263.712205513" cy="309.37797996" fill="rgb(100%,0%,0%)" r="0.7" /><circle cx="263.624528483" cy="312.376682752" fill="rgb(100%,0%,0%)" r="0.7" /><circle cx="263.497264271" cy="315.373957683" fill="rgb(100%,0%,0%)" r="0.7" /><circle cx="263.320888268" cy="318.368727487" fill="rgb(100%,0%,0%)" r="0.7" /><circle cx="263.079737026" cy="321.358938132" fill="rgb(100%,0%,0%)" r="0.7" /><circle cx="262.745633918" cy="324.340094648" fill="rgb(100%,0%,0%)" r="0.7" /><circle cx="262.258494248" cy="327.299678025" fill="rgb(100%,0%,0%)" r="0.7" /><circle cx="261.507124284" cy="330.202439939" fill="rgb(100%,0%,0%)" r="0.7" /><circle cx="260.705589734" cy="333.093204466" fill="rgb(100%,0%,0%)" r="0.7" /><circle cx="259.79309727" cy="335.950830412" fill="rgb(100%,0%,0%)" r="0.7" /><circle cx="258.735658724" cy="338.757762458" fill="rgb(100%,0%,0%)" r="0.7" /><circle cx="257.432437739" cy="341.457796259" fill="rgb(100%,0%,0%)" r="0.7" /><circle cx="256.018345445" cy="344.103626966" fill="rgb(100%,0%,0%)" r="0.7" /><circle cx="254.600797462" cy="346.747588327" fill="rgb(100%,0%,0%)" r="0.7" /><circle cx="253.179840668" cy="349.389728899" fill="rgb(100%,0%,0%)" r="0.7" /><circle cx="251.755207969" cy="352.029881947" fill="rgb(100%,0%,0%)" r="0.7" /><circle cx="250.326389118" cy="354.667775373" fill="rgb(100%,0%,0%)" r="0.7" /><circle cx="248.892602268" cy="357.302972201" fill="rgb(100%,0%,0%)" r="0.7" /><circle cx="247.4526458" cy="359.934801677" fill="rgb(100%,0%,0%)" r="0.7" /><circle cx="246.004582966" cy="362.562182637" fill="rgb(100%,0%,0%)" r="0.7" /><circle cx="244.544993525" cy="365.183173537" fill="rgb(100%,0%,0%)" r="0.7" /><circle cx="243.066697823" cy="367.793648166" fill="rgb(100%,0%,0%)" r="0.7" /><circle cx="241.547836961" cy="370.380647625" fill="rgb(100%,0%,0%)" r="0.7" /><circle cx="239.98534659" cy="372.941436365" fill="rgb(100%,0%,0%)" r="0.7" /><circle cx="238.391297673" cy="375.48284817" fill="rgb(100%,0%,0%)" r="0.7" /><circle cx="236.757167445" cy="377.998693013" fill="rgb(100%,0%,0%)" r="0.7" /><circle cx="235.08667636" cy="380.490539406" fill="rgb(100%,0%,0%)" r="0.7" /><circle cx="233.380869508" cy="382.958347258" fill="rgb(100%,0%,0%)" r="0.7" /><circle cx="231.639638495" cy="385.401290724" fill="rgb(100%,0%,0%)" r="0.7" /><circle cx="229.862167956" cy="387.817986698" fill="rgb(100%,0%,0%)" r="0.7" /><circle cx="228.047094214" cy="390.206569986" fill="rgb(100%,0%,0%)" r="0.7" /><circle cx="226.192585898" cy="392.564656081" fill="rgb(100%,0%,0%)" r="0.7" /><circle cx="224.296335809" cy="394.889304173" fill="rgb(100%,0%,0%)" r="0.7" /><circle cx="222.355554688" cy="397.176892596" fill="rgb(100%,0%,0%)" r="0.7" /><circle cx="220.36691014" cy="399.422984699" fill="rgb(100%,0%,0%)" r="0.7" /><circle cx="218.911575902" cy="401.221590609" fill="rgb(100%,0%,0%)" r="0.7" /><circle cx="221.687844531" cy="400.084782576" fill="rgb(100%,0%,0%)" r="0.7" /><circle cx="224.464113159" cy="398.947974543" fill="rgb(100%,0%,0%)" r="0.7" /><circle cx="227.240381787" cy="397.81116651" fill="rgb(100%,0%,0%)" r="0.7" /><circle cx="228.65664695" cy="399.32358037" fill="rgb(100%,0%,0%)" r="0.7" /><circle cx="229.351072834" cy="402.242102717" fill="rgb(100%,0%,0%)" r="0.7" /><circle cx="230.045498719" cy="405.160625064" fill="rgb(100%,0%,0%)" r="0.7" /><circle cx="230.739924604" cy="408.079147411" fill="rgb(100%,0%,0%)" r="0.7" /><circle cx="231.434350488" cy="410.997669758" fill="rgb(100%,0%,0%)" r="0.7" /><circle cx="231.507" cy="411.303" fill="rgb(100%,0%,0%)" r="0.7" /><circle cx="276.720874766" cy="283.053622386" fill="rgb(0%,0%,100%)" r="0.7" /><circle cx="279.709021543" cy="283.200012657" fill="rgb(0%,0%,100%)" r="0.7" /><circle cx="282.52621161" cy="284.1930638" fill="rgb(0%,0%,100%)" r="0.7" /><circle cx="284.754458548" cy="286.152294443" fill="rgb(0%,0%,100%)" r="0.7" /><circle cx="285.429469713" cy="289.037270021" fill="rgb(0%,0%,100%)" r="0.7" /><circle cx="284.918019749" cy="291.98184864" fill="rgb(0%,0%,100%)" r="0.7" /><circle cx="283.616811061" cy="294.674353726" fill="rgb(0%,0%,100%)" r="0.7" /><circle cx="281.741489868" cy="297.013696752" fill="rgb(0%,0%,100%)" r="0.7" /><circle cx="280.645960272" cy="299.724210189" fill="rgb(0%,0%,100%)" r="0.7" /><circle cx="280.63849906" cy="302.724174727" fill="rgb(0%,0%,100%)" r="0.7" /><circle cx="280.599844984" cy="305.723917528" fill="rgb(0%,0%,100%)" r="0.7" /><circle cx="280.543430112" cy="308.723386336" fill="rgb(0%,0%,100%)" r="0.7" /><circle cx="280.475008136" cy="311.722606274" fill="rgb(0%,0%,100%)" r="0.7" /><circle cx="280.397644719" cy="314.721608835" fill="rgb(0%,0%,100%)" r="0.7" /><circle cx="280.313164542" cy="317.72041837" fill="rgb(0%,0%,100%)" r="0.7" /><circle cx="280.222701943" cy="320.719058443" fill="rgb(0%,0%,100%)" r="0.7" /><circle cx="280.126919157" cy="323.717528471" fill="rgb(0%,0%,100%)" r="0.7" /><circle cx="280.025974845" cy="326.715834413" fill="rgb(0%,0%,100%)" r="0.7" /><circle cx="279.85278387" cy="329.709813328" fill="rgb(0%,0%,100%)" r="0.7" /><circle cx="279.440113623" cy="332.680692091" fill="rgb(0%,0%,100%)" r="0.7" /><circle cx="278.840756516" cy="335.619793206" fill="rgb(0%,0%,100%)" r="0.7" /><circle cx="278.085471804" cy="338.522847535" fill="rgb(0%,0%,100%)" r="0.7" /><circle cx="277.198740248" cy="341.38856758" fill="rgb(0%,0%,100%)" r="0.7" /><circle cx="276.200065578" cy="344.21728907" fill="rgb(0%,0%,100%)" r="0.7" /><circle cx="275.105085435" cy="347.010183592" fill="rgb(0%,0%,100%)" r="0.7" /><circle cx="273.926436242" cy="349.768841852" fill="rgb(0%,0%,100%)" r="0.7" /><circle cx="272.674427439" cy="352.495010368" fill="rgb(0%,0%,100%)" r="0.7" /><circle cx="271.357544738" cy="355.190462711" fill="rgb(0%,0%,100%)" r="0.7" /><circle cx="269.98284727" cy="357.856899087" fill="rgb(0%,0%,100%)" r="0.7" /><circle cx="268.556244403" cy="360.495940634" fill="rgb(0%,0%,100%)" r="0.7" /><circle cx="267.082729456" cy="363.109091899" fill="rgb(0%,0%,100%)" r="0.7" /><circle cx="265.566557826" cy="365.697727475" fill="rgb(0%,0%,100%)" r="0.7" /><circle cx="264.011366934" cy="368.263118587" fill="rgb(0%,0%,100%)" r="0.7" /><circle cx="262.420294906" cy="370.806414424" fill="rgb(0%,0%,100%)" r="0.7" /><circle cx="260.796054295" cy="373.328663963" fill="rgb(0%,0%,100%)" r="0.7" /><circle cx="259.141009443" cy="375.830804551" fill="rgb(0%,0%,100%)" r="0.7" /><circle cx="257.457211743" cy="378.313694671" fill="rgb(0%,0%,100%)" r="0.7" /><circle cx="255.746460999" cy="380.778089891" fill="rgb(0%,0%,100%)" r="0.7" /><circle cx="254.010319817" cy="383.224675165" fill="rgb(0%,0%,100%)" r="0.7" /><circle cx="252.250164837" cy="385.654032107" fill="rgb(0%,0%,100%)" r="0.7" /><circle cx="250.467172392" cy="388.066688311" fill="rgb(0%,0%,100%)" r="0.7" /><circle cx="248.662370391" cy="390.463064321" fill="rgb(0%,0%,100%)" r="0.7" /><circle cx="246.836612003" cy="392.843516824" fill="rgb(0%,0%,100%)" r="0.7" /><circle cx="244.990605079" cy="395.208293322" fill="rgb(0%,0%,100%)" r="0.7" /><circle cx="243.124867873" cy="397.557565038" fill="rgb(0%,0%,100%)" r="0.7" /><circle cx="241.239782588" cy="399.891307345" fill="rgb(0%,0%,100%)" r="0.7" /><circle cx="239.335443817" cy="402.209387977" fill="rgb(0%,0%,100%)" r="0.7" /><circle cx="237.411671358" cy="404.511346328" fill="rgb(0%,0%,100%)" r="0.7" /><circle cx="235.467707867" cy="406.796306214" fill="rgb(0%,0%,100%)" r="0.7" /><circle cx="233.50172136" cy="409.062285935" fill="rgb(0%,0%,100%)" r="0.7" /><circle cx="231.507" cy="411.303" fill="rgb(0%,0%,100%)" r="0.7" /></svg>