<?xml version="1.0" encoding="utf-8" ?>
<svg baseProfile="full" height="100%" version="1.1" width="100%" xmlns="http://www.w3.org/2000/svg" xmlns:ev="http://www.w3.org/2001/xml-events" xmlns:xlink="http://www.w3.org/1999/xlink"><defs /><circle cx="325.564744202" cy="344.086139706" fill="rgb(100%,0%,0%)" r="0.7" /><circle cx="322.606538309" cy="344.462021181" fill="rgb(100%,0%,0%)" r="0.7" /><circle cx="319.946253508" cy="345.823678007" fill="rgb(100%,0%,0%)" r="0.7" /><circle cx="317.704738426" cy="347.80971342" fill="rgb(100%,0%,0%)" r="0.7" /><circle cx="316.073414843" cy="350.283853155" fill="rgb(100%,0%,0%)" r="0.7" /><circle cx="313.97313225" cy="352.387451817" fill="rgb(100%,0%,0%)" r="0.7" /><circle cx="311.206047107" cy="353.510630434" fill="rgb(100%,0%,0%)" r="0.7" /><circle cx="308.382349995" cy="354.468240807" fill="rgb(100%,0%,0%)" r="0.7" /><circle cx="305.696895738" cy="355.804806975" fill="rgb(100%,0%,0%)" r="0.7" /><circle cx="303.074085508" cy="357.26070055" fill="rgb(100%,0%,0%)" r="0.7" /><circle cx="300.509589787" cy="358.817091977" fill="rgb(100%,0%,0%)" r="0.7" /><circle cx="298.00248375" cy="360.464364687" fill="rgb(100%,0%,0%)" r="0.7" /><circle cx="295.553120739" cy="362.19635641" fill="rgb(100%,0%,0%)" r="0.7" /><circle cx="293.16250919" cy="364.00858185" fill="rgb(100%,0%,0%)" r="0.7" /><circle cx="290.832008027" cy="365.897490538" fill="rgb(100%,0%,0%)" r="0.7" /><circle cx="288.563184726" cy="367.86007183" fill="rgb(100%,0%,0%)" r="0.7" /><circle cx="286.357748207" cy="369.893606038" fill="rgb(100%,0%,0%)" r="0.7" /><circle cx="284.217425766" cy="371.995576674" fill="rgb(100%,0%,0%)" r="0.7" /><circle cx="282.143964973" cy="374.163534745" fill="rgb(100%,0%,0%)" r="0.7" /><circle cx="280.139075215" cy="376.395053633" fill="rgb(100%,0%,0%)" r="0.7" /><circle cx="278.204381626" cy="378.687703379" fill="rgb(100%,0%,0%)" r="0.7" /><circle cx="276.341411415" cy="381.039008588" fill="rgb(100%,0%,0%)" r="0.7" /><circle cx="274.551560609" cy="383.446442189" fill="rgb(100%,0%,0%)" r="0.7" /><circle cx="272.836072889" cy="385.907418444" fill="rgb(100%,0%,0%)" r="0.7" /><circle cx="271.369632711" cy="388.511536033" fill="rgb(100%,0%,0%)" r="0.7" /><circle cx="270.338532009" cy="391.328153372" fill="rgb(100%,0%,0%)" r="0.7" /><circle cx="269.482745069" cy="394.203077813" fill="rgb(100%,0%,0%)" r="0.7" /><circle cx="268.792026908" cy="397.122060154" fill="rgb(100%,0%,0%)" r="0.7" /><circle cx="268.268949009" cy="400.07568907" fill="rgb(100%,0%,0%)" r="0.7" /><circle cx="267.920913036" cy="403.05497133" fill="rgb(100%,0%,0%)" r="0.7" /><circle cx="267.757779898" cy="406.050028431" fill="rgb(100%,0%,0%)" r="0.7" /><circle cx="267.790575211" cy="409.049285143" fill="rgb(100%,0%,0%)" r="0.7" /><circle cx="268.030369418" cy="412.039054828" fill="rgb(100%,0%,0%)" r="0.7" /><circle cx="268.487105544" cy="415.003382257" fill="rgb(100%,0%,0%)" r="0.7" /><circle cx="269.168336779" cy="417.92423558" fill="rgb(100%,0%,0%)" r="0.7" /><circle cx="270.077993971" cy="420.782154222" fill="rgb(100%,0%,0%)" r="0.7" /><circle cx="271.215389141" cy="423.557293532" fill="rgb(100%,0%,0%)" r="0.7" /><circle cx="272.574685352" cy="426.230742207" fill="rgb(100%,0%,0%)" r="0.7" /><circle cx="274.145055604" cy="428.785968895" fill="rgb(100%,0%,0%)" r="0.7" /><circle cx="275.9114313" cy="431.209888873" fill="rgb(100%,0%,0%)" r="0.7" /><circle cx="277.855809555" cy="433.493597658" fill="rgb(100%,0%,0%)" r="0.7" /><circle cx="325.564744202" cy="344.086139706" fill="rgb(0%,0%,100%)" r="0.7" /><circle cx="328.460917914" cy="344.808606059" fill="rgb(0%,0%,100%)" r="0.7" /><circle cx="331.003471634" cy="346.3826481" fill="rgb(0%,0%,100%)" r="0.7" /><circle cx="332.665266054" cy="348.826650444" fill="rgb(0%,0%,100%)" r="0.7" /><circle cx="332.867602861" cy="351.789650019" fill="rgb(0%,0%,100%)" r="0.7" /><circle cx="331.891863522" cy="354.614037866" fill="rgb(0%,0%,100%)" r="0.7" /><circle cx="330.275005434" cy="357.136221132" fill="rgb(0%,0%,100%)" r="0.7" /><circle cx="328.302852293" cy="359.394407435" fill="rgb(0%,0%,100%)" r="0.7" /><circle cx="326.120320639" cy="361.446736337" fill="rgb(0%,0%,100%)" r="0.7" /><circle cx="323.906512119" cy="363.460695188" fill="rgb(0%,0%,100%)" r="0.7" /><circle cx="321.393343327" cy="365.096327737" fill="rgb(0%,0%,100%)" r="0.7" /><circle cx="318.750313051" cy="366.514434751" fill="rgb(0%,0%,100%)" r="0.7" /><circle cx="316.027105572" cy="367.772121614" fill="rgb(0%,0%,100%)" r="0.7" /><circle cx="313.366891785" cy="369.151753393" fill="rgb(0%,0%,100%)" r="0.7" /><circle cx="310.836888389" cy="370.763266878" fill="rgb(0%,0%,100%)" r="0.7" /><circle cx="308.374524023" cy="372.47675379" fill="rgb(0%,0%,100%)" r="0.7" /><circle cx="305.95736226" cy="374.253545899" fill="rgb(0%,0%,100%)" r="0.7" /><circle cx="303.573953518" cy="376.075405098" fill="rgb(0%,0%,100%)" r="0.7" /><circle cx="301.217922985" cy="377.932550416" fill="rgb(0%,0%,100%)" r="0.7" /><circle cx="298.886129995" cy="379.820040179" fill="rgb(0%,0%,100%)" r="0.7" /><circle cx="296.588575848" cy="381.748658326" fill="rgb(0%,0%,100%)" r="0.7" /><circle cx="294.508300177" cy="383.907768751" fill="rgb(0%,0%,100%)" r="0.7" /><circle cx="292.654334852" cy="386.265205937" fill="rgb(0%,0%,100%)" r="0.7" /><circle cx="290.977147954" cy="388.751976952" fill="rgb(0%,0%,100%)" r="0.7" /><circle cx="289.443638636" cy="391.330040473" fill="rgb(0%,0%,100%)" r="0.7" /><circle cx="288.032907727" cy="393.977380331" fill="rgb(0%,0%,100%)" r="0.7" /><circle cx="286.73525157" cy="396.681969309" fill="rgb(0%,0%,100%)" r="0.7" /><circle cx="285.583663115" cy="399.451110181" fill="rgb(0%,0%,100%)" r="0.7" /><circle cx="284.823360423" cy="402.349647384" fill="rgb(0%,0%,100%)" r="0.7" /><circle cx="284.576021366" cy="405.335316134" fill="rgb(0%,0%,100%)" r="0.7" /><circle cx="284.876457346" cy="408.316034047" fill="rgb(0%,0%,100%)" r="0.7" /><circle cx="285.697922353" cy="411.197619602" fill="rgb(0%,0%,100%)" r="0.7" /><circle cx="286.967643398" cy="413.912611272" fill="rgb(0%,0%,100%)" r="0.7" /><circle cx="288.599271552" cy="416.427688607" fill="rgb(0%,0%,100%)" r="0.7" /><circle cx="290.516797062" cy="418.732902633" fill="rgb(0%,0%,100%)" r="0.7" /><circle cx="292.664794923" cy="420.825391359" fill="rgb(0%,0%,100%)" r="0.7" /><circle cx="295.022" cy="422.678" fill="rgb(0%,0%,100%)" r="0.7" /><circle cx="292.203025251" cy="422.041489984" fill="rgb(0%,0%,100%)" r="0.7" /><circle cx="289.276694958" cy="421.380739638" fill="rgb(0%,0%,100%)" r="0.7" /><circle cx="286.350364666" cy="420.719989291" fill="rgb(0%,0%,100%)" r="0.7" /><circle cx="283.424034373" cy="420.059238945" fill="rgb(0%,0%,100%)" r="0.7" /><circle cx="280.497704081" cy="419.398488599" fill="rgb(0%,0%,100%)" r="0.7" /><circle cx="278.321" cy="419.675497883" fill="rgb(0%,0%,100%)" r="0.7" /><circle cx="278.321" cy="422.675497883" fill="rgb(0%,0%,100%)" r="0.7" /><circle cx="278.321" cy="425.675497883" fill="rgb(0%,0%,100%)" r="0.7" /><circle cx="278.321" cy="428.675497883" fill="rgb(0%,0%,100%)" r="0.7" /><circle cx="278.321" cy="431.675497883" fill="rgb(0%,0%,100%)" r="0.7" /><circle cx="277.855809555" cy="433.493597658" fill="rgb(0%,0%,100%)" r="0.7" /></svg>