<?xml version="1.0" encoding="utf-8" ?>
<svg baseProfile="full" height="100%" version="1.1" width="100%" xmlns="http://www.w3.org/2000/svg" xmlns:ev="http://www.w3.org/2001/xml-events" xmlns:xlink="http://www.w3.org/1999/xlink"><defs /><circle cx="254.969886819" cy="221.502196924" fill="rgb(100%,0%,0%)" r="0.7" /><circle cx="253.73119101" cy="224.234527924" fill="rgb(100%,0%,0%)" r="0.7" /><circle cx="252.492495201" cy="226.966858924" fill="rgb(100%,0%,0%)" r="0.7" /><circle cx="251.253799392" cy="229.699189923" fill="rgb(100%,0%,0%)" r="0.7" /><circle cx="250.015103583" cy="232.431520923" fill="rgb(100%,0%,0%)" r="0.7" /><circle cx="248.776407774" cy="235.163851923" fill="rgb(100%,0%,0%)" r="0.7" /><circle cx="247.537711965" cy="237.896182923" fill="rgb(100%,0%,0%)" r="0.7" /><circle cx="246.299016156" cy="240.628513923" fill="rgb(100%,0%,0%)" r="0.7" /><circle cx="245.060320347" cy="243.360844923" fill="rgb(100%,0%,0%)" r="0.7" /><circle cx="242.514413133" cy="244.144006289" fill="rgb(100%,0%,0%)" r="0.7" /><circle cx="239.516394793" cy="244.253029351" fill="rgb(100%,0%,0%)" r="0.7" /><circle cx="236.518376452" cy="244.362052413" fill="rgb(100%,0%,0%)" r="0.7" /><circle cx="233.520358111" cy="244.471075475" fill="rgb(100%,0%,0%)" r="0.7" /><circle cx="230.52233977" cy="244.580098536" fill="rgb(100%,0%,0%)" r="0.7" /><circle cx="227.524321429" cy="244.689121598" fill="rgb(100%,0%,0%)" r="0.7" /><circle cx="224.526303088" cy="244.79814466" fill="rgb(100%,0%,0%)" r="0.7" /><circle cx="221.528284748" cy="244.907167722" fill="rgb(100%,0%,0%)" r="0.7" /><circle cx="218.530266407" cy="245.016190784" fill="rgb(100%,0%,0%)" r="0.7" /><circle cx="215.532248066" cy="245.125213845" fill="rgb(100%,0%,0%)" r="0.7" /><circle cx="212.534229725" cy="245.234236907" fill="rgb(100%,0%,0%)" r="0.7" /><circle cx="209.536211384" cy="245.343259969" fill="rgb(100%,0%,0%)" r="0.7" /><circle cx="206.538193043" cy="245.452283031" fill="rgb(100%,0%,0%)" r="0.7" /><circle cx="203.540174702" cy="245.561306093" fill="rgb(100%,0%,0%)" r="0.7" /><circle cx="200.542156362" cy="245.670329154" fill="rgb(100%,0%,0%)" r="0.7" /><circle cx="197.544138021" cy="245.779352216" fill="rgb(100%,0%,0%)" r="0.7" /><circle cx="194.54611968" cy="245.888375278" fill="rgb(100%,0%,0%)" r="0.7" /><circle cx="192.989" cy="245.945" fill="rgb(100%,0%,0%)" r="0.7" /><circle cx="194.379007887" cy="248.603487994" fill="rgb(100%,0%,0%)" r="0.7" /><circle cx="195.769013606" cy="251.262095701" fill="rgb(100%,0%,0%)" r="0.7" /><circle cx="197.158937984" cy="253.920637806" fill="rgb(100%,0%,0%)" r="0.7" /><circle cx="198.548850208" cy="256.579235478" fill="rgb(100%,0%,0%)" r="0.7" /><circle cx="199.938733645" cy="259.237851018" fill="rgb(100%,0%,0%)" r="0.7" /><circle cx="201.328593406" cy="261.896490684" fill="rgb(100%,0%,0%)" r="0.7" /><circle cx="202.718421265" cy="264.555136526" fill="rgb(100%,0%,0%)" r="0.7" /><circle cx="204.108226022" cy="267.213803997" fill="rgb(100%,0%,0%)" r="0.7" /><circle cx="205.497990147" cy="269.872458755" fill="rgb(100%,0%,0%)" r="0.7" /><circle cx="206.887746069" cy="272.531162457" fill="rgb(100%,0%,0%)" r="0.7" /><circle cx="208.277469434" cy="275.189868457" fill="rgb(100%,0%,0%)" r="0.7" /><circle cx="209.667152656" cy="277.848562463" fill="rgb(100%,0%,0%)" r="0.7" /><circle cx="211.056826824" cy="280.507304401" fill="rgb(100%,0%,0%)" r="0.7" /><circle cx="212.446459078" cy="283.166032054" fill="rgb(100%,0%,0%)" r="0.7" /><circle cx="213.83607386" cy="285.824793021" fill="rgb(100%,0%,0%)" r="0.7" /><circle cx="215.225658232" cy="288.483563558" fill="rgb(100%,0%,0%)" r="0.7" /><circle cx="216.615219632" cy="291.142359064" fill="rgb(100%,0%,0%)" r="0.7" /><circle cx="218.004744072" cy="293.801154111" fill="rgb(100%,0%,0%)" r="0.7" /><circle cx="219.394237669" cy="296.459961889" fill="rgb(100%,0%,0%)" r="0.7" /><circle cx="220.783712249" cy="299.118806686" fill="rgb(100%,0%,0%)" r="0.7" /><circle cx="222.173144725" cy="301.77764614" fill="rgb(100%,0%,0%)" r="0.7" /><circle cx="223.562548852" cy="304.436508563" fill="rgb(100%,0%,0%)" r="0.7" /><circle cx="224.951922013" cy="307.095391118" fill="rgb(100%,0%,0%)" r="0.7" /><circle cx="226.34126326" cy="309.75429435" fill="rgb(100%,0%,0%)" r="0.7" /><circle cx="227.730566057" cy="312.413208312" fill="rgb(100%,0%,0%)" r="0.7" /><circle cx="229.119833526" cy="315.072141757" fill="rgb(100%,0%,0%)" r="0.7" /><circle cx="230.509067718" cy="317.731101626" fill="rgb(100%,0%,0%)" r="0.7" /><circle cx="231.898258831" cy="320.390072423" fill="rgb(100%,0%,0%)" r="0.7" /><circle cx="233.287413488" cy="323.049070369" fill="rgb(100%,0%,0%)" r="0.7" /><circle cx="234.676524999" cy="325.708086508" fill="rgb(100%,0%,0%)" r="0.7" /><circle cx="236.065594213" cy="328.367126644" fill="rgb(100%,0%,0%)" r="0.7" /><circle cx="237.454618279" cy="331.026189875" fill="rgb(100%,0%,0%)" r="0.7" /><circle cx="238.843595891" cy="333.685278665" fill="rgb(100%,0%,0%)" r="0.7" /><circle cx="240.232522523" cy="336.344389777" fill="rgb(100%,0%,0%)" r="0.7" /><circle cx="241.621400563" cy="339.003533722" fill="rgb(100%,0%,0%)" r="0.7" /><circle cx="243.010220983" cy="341.662699743" fill="rgb(100%,0%,0%)" r="0.7" /><circle cx="244.39898638" cy="344.321899999" fill="rgb(100%,0%,0%)" r="0.7" /><circle cx="245.787692074" cy="346.981133471" fill="rgb(100%,0%,0%)" r="0.7" /><circle cx="247.176331894" cy="349.640397148" fill="rgb(100%,0%,0%)" r="0.7" /><circle cx="248.564903716" cy="352.299696769" fill="rgb(100%,0%,0%)" r="0.7" /><circle cx="249.953403706" cy="354.95903595" fill="rgb(100%,0%,0%)" r="0.7" /><circle cx="251.341823244" cy="357.618410501" fill="rgb(100%,0%,0%)" r="0.7" /><circle cx="252.730161648" cy="360.277833028" fill="rgb(100%,0%,0%)" r="0.7" /><circle cx="254.118403683" cy="362.937290161" fill="rgb(100%,0%,0%)" r="0.7" /><circle cx="255.506555095" cy="365.596810989" fill="rgb(100%,0%,0%)" r="0.7" /><circle cx="256.894604159" cy="368.256393896" fill="rgb(100%,0%,0%)" r="0.7" /><circle cx="258.282533608" cy="370.916030012" fill="rgb(100%,0%,0%)" r="0.7" /><circle cx="259.670336338" cy="373.575734137" fill="rgb(100%,0%,0%)" r="0.7" /><circle cx="261.054925835" cy="376.237064633" fill="rgb(100%,0%,0%)" r="0.7" /><circle cx="262.442410164" cy="378.896929419" fill="rgb(100%,0%,0%)" r="0.7" /><circle cx="263.834207086" cy="381.554531821" fill="rgb(100%,0%,0%)" r="0.7" /><circle cx="265.22967709" cy="384.210179475" fill="rgb(100%,0%,0%)" r="0.7" /><circle cx="266.628564451" cy="386.864074044" fill="rgb(100%,0%,0%)" r="0.7" /><circle cx="268.030695242" cy="389.516249291" fill="rgb(100%,0%,0%)" r="0.7" /><circle cx="269.435993959" cy="392.166755964" fill="rgb(100%,0%,0%)" r="0.7" /><circle cx="270.844414814" cy="394.815595934" fill="rgb(100%,0%,0%)" r="0.7" /><circle cx="272.255953782" cy="397.462777019" fill="rgb(100%,0%,0%)" r="0.7" /><circle cx="273.670628848" cy="400.108293362" fill="rgb(100%,0%,0%)" r="0.7" /><circle cx="275.088465591" cy="402.752108869" fill="rgb(100%,0%,0%)" r="0.7" /><circle cx="276.509516777" cy="405.394199985" fill="rgb(100%,0%,0%)" r="0.7" /><circle cx="277.933839519" cy="408.034516682" fill="rgb(100%,0%,0%)" r="0.7" /><circle cx="279.361521306" cy="410.673032636" fill="rgb(100%,0%,0%)" r="0.7" /><circle cx="280.792640058" cy="413.309671928" fill="rgb(100%,0%,0%)" r="0.7" /><circle cx="282.227316198" cy="415.944404915" fill="rgb(100%,0%,0%)" r="0.7" /><circle cx="283.665640077" cy="418.577113656" fill="rgb(100%,0%,0%)" r="0.7" /><circle cx="285.107762995" cy="421.207757254" fill="rgb(100%,0%,0%)" r="0.7" /><circle cx="286.553826905" cy="423.836240356" fill="rgb(100%,0%,0%)" r="0.7" /><circle cx="288.003995008" cy="426.462466083" fill="rgb(100%,0%,0%)" r="0.7" /><circle cx="289.458439553" cy="429.086309943" fill="rgb(100%,0%,0%)" r="0.7" /><circle cx="290.917372251" cy="431.707669861" fill="rgb(100%,0%,0%)" r="0.7" /><circle cx="292.381013062" cy="434.326403893" fill="rgb(100%,0%,0%)" r="0.7" /><circle cx="293.849610752" cy="436.942360229" fill="rgb(100%,0%,0%)" r="0.7" /><circle cx="295.323443604" cy="439.555369802" fill="rgb(100%,0%,0%)" r="0.7" /><circle cx="296.802824892" cy="442.165245575" fill="rgb(100%,0%,0%)" r="0.7" /><circle cx="298.288098887" cy="444.771762916" fill="rgb(100%,0%,0%)" r="0.7" /><circle cx="299.77966968" cy="447.374694754" fill="rgb(100%,0%,0%)" r="0.7" /><circle cx="301.277977793" cy="449.973751414" fill="rgb(100%,0%,0%)" r="0.7" /><circle cx="302.783532914" cy="452.568614137" fill="rgb(100%,0%,0%)" r="0.7" /><circle cx="304.296920448" cy="455.158916228" fill="rgb(100%,0%,0%)" r="0.7" /><circle cx="305.818809714" cy="457.744219146" fill="rgb(100%,0%,0%)" r="0.7" /><circle cx="307.350003939" cy="460.324048176" fill="rgb(100%,0%,0%)" r="0.7" /><circle cx="308.89140692" cy="462.897771605" fill="rgb(100%,0%,0%)" r="0.7" /><circle cx="310.444128829" cy="465.464692836" fill="rgb(100%,0%,0%)" r="0.7" /><circle cx="312.009468885" cy="468.023904167" fill="rgb(100%,0%,0%)" r="0.7" /><circle cx="313.589067297" cy="470.574373646" fill="rgb(100%,0%,0%)" r="0.7" /><circle cx="315.184906225" cy="473.114712552" fill="rgb(100%,0%,0%)" r="0.7" /><circle cx="316.799502555" cy="475.643143732" fill="rgb(100%,0%,0%)" r="0.7" /><circle cx="318.436165127" cy="478.157379048" fill="rgb(100%,0%,0%)" r="0.7" /><circle cx="320.099264783" cy="480.654192002" fill="rgb(100%,0%,0%)" r="0.7" /><circle cx="321.794882087" cy="483.128968382" fill="rgb(100%,0%,0%)" r="0.7" /><circle cx="323.531997969" cy="485.574826267" fill="rgb(100%,0%,0%)" r="0.7" /><circle cx="325.324597234" cy="487.98027682" fill="rgb(100%,0%,0%)" r="0.7" /><circle cx="327.196964502" cy="490.323977552" fill="rgb(100%,0%,0%)" r="0.7" /><circle cx="329.198831391" cy="492.557400122" fill="rgb(100%,0%,0%)" r="0.7" /><circle cx="331.432917904" cy="494.556514832" fill="rgb(100%,0%,0%)" r="0.7" /><circle cx="333.731288787" cy="496.484585717" fill="rgb(100%,0%,0%)" r="0.7" /><circle cx="336.016755599" cy="498.427928515" fill="rgb(100%,0%,0%)" r="0.7" /><circle cx="338.293222781" cy="500.381826345" fill="rgb(100%,0%,0%)" r="0.7" /><circle cx="340.566954502" cy="502.338899638" fill="rgb(100%,0%,0%)" r="0.7" /><circle cx="342.847610391" cy="504.287886996" fill="rgb(100%,0%,0%)" r="0.7" /><circle cx="345.149381506" cy="506.211861621" fill="rgb(100%,0%,0%)" r="0.7" /><circle cx="347.49187381" cy="508.085929514" fill="rgb(100%,0%,0%)" r="0.7" /><circle cx="349.89974629" cy="509.874976233" fill="rgb(100%,0%,0%)" r="0.7" /><circle cx="352.399194955" cy="511.533235564" fill="rgb(100%,0%,0%)" r="0.7" /><circle cx="355.009997256" cy="513.009377299" fill="rgb(100%,0%,0%)" r="0.7" /><circle cx="357.735912162" cy="514.259782608" fill="rgb(100%,0%,0%)" r="0.7" /><circle cx="360.561614675" cy="515.264636481" fill="rgb(100%,0%,0%)" r="0.7" /><circle cx="363.45757408" cy="516.046073192" fill="rgb(100%,0%,0%)" r="0.7" /><circle cx="366.379761611" cy="516.724488181" fill="rgb(100%,0%,0%)" r="0.7" /><circle cx="369.318729455" cy="517.326144061" fill="rgb(100%,0%,0%)" r="0.7" /><circle cx="372.273050989" cy="517.847051571" fill="rgb(100%,0%,0%)" r="0.7" /><circle cx="375.242700791" cy="518.271554456" fill="rgb(100%,0%,0%)" r="0.7" /><circle cx="378.227407613" cy="518.57116609" fill="rgb(100%,0%,0%)" r="0.7" /><circle cx="381.22424792" cy="518.693961261" fill="rgb(100%,0%,0%)" r="0.7" /><circle cx="254.969886819" cy="221.502196924" fill="rgb(0%,0%,100%)" r="0.7" /><circle cx="256.155350373" cy="222.779385616" fill="rgb(0%,0%,100%)" r="0.7" /><circle cx="257.321795959" cy="225.543342361" fill="rgb(0%,0%,100%)" r="0.7" /><circle cx="258.488996583" cy="228.306971819" fill="rgb(0%,0%,100%)" r="0.7" /><circle cx="259.656898489" cy="231.070299028" fill="rgb(0%,0%,100%)" r="0.7" /><circle cx="260.825463272" cy="233.833367401" fill="rgb(0%,0%,100%)" r="0.7" /><circle cx="261.994630107" cy="236.596152235" fill="rgb(0%,0%,100%)" r="0.7" /><circle cx="263.164380599" cy="239.358716277" fill="rgb(0%,0%,100%)" r="0.7" /><circle cx="264.334669564" cy="242.121047977" fill="rgb(0%,0%,100%)" r="0.7" /><circle cx="265.505463447" cy="244.883153815" fill="rgb(0%,0%,100%)" r="0.7" /><circle cx="266.676740274" cy="247.645059377" fill="rgb(0%,0%,100%)" r="0.7" /><circle cx="267.848469059" cy="250.406761838" fill="rgb(0%,0%,100%)" r="0.7" /><circle cx="269.020632625" cy="253.168284651" fill="rgb(0%,0%,100%)" r="0.7" /><circle cx="270.193212302" cy="255.92964221" fill="rgb(0%,0%,100%)" r="0.7" /><circle cx="271.366182177" cy="258.690826958" fill="rgb(0%,0%,100%)" r="0.7" /><circle cx="272.539526964" cy="261.451852029" fill="rgb(0%,0%,100%)" r="0.7" /><circle cx="273.713231655" cy="264.212727313" fill="rgb(0%,0%,100%)" r="0.7" /><circle cx="274.887279569" cy="266.973455294" fill="rgb(0%,0%,100%)" r="0.7" /><circle cx="276.061656523" cy="269.734041208" fill="rgb(0%,0%,100%)" r="0.7" /><circle cx="277.236352567" cy="272.494497409" fill="rgb(0%,0%,100%)" r="0.7" /><circle cx="278.411350916" cy="275.254817647" fill="rgb(0%,0%,100%)" r="0.7" /><circle cx="279.586644256" cy="278.015015594" fill="rgb(0%,0%,100%)" r="0.7" /><circle cx="280.762220997" cy="280.775092769" fill="rgb(0%,0%,100%)" r="0.7" /><circle cx="281.938071627" cy="283.535053634" fill="rgb(0%,0%,100%)" r="0.7" /><circle cx="283.114186968" cy="286.294901664" fill="rgb(0%,0%,100%)" r="0.7" /><circle cx="284.290556917" cy="289.054636542" fill="rgb(0%,0%,100%)" r="0.7" /><circle cx="285.467178594" cy="291.814273383" fill="rgb(0%,0%,100%)" r="0.7" /><circle cx="286.644038792" cy="294.5738017" fill="rgb(0%,0%,100%)" r="0.7" /><circle cx="287.821133753" cy="297.333231872" fill="rgb(0%,0%,100%)" r="0.7" /><circle cx="288.998456587" cy="300.092565735" fill="rgb(0%,0%,100%)" r="0.7" /><circle cx="290.176000424" cy="302.851804059" fill="rgb(0%,0%,100%)" r="0.7" /><circle cx="291.353758222" cy="305.610946158" fill="rgb(0%,0%,100%)" r="0.7" /><circle cx="292.531731294" cy="308.370009934" fill="rgb(0%,0%,100%)" r="0.7" /><circle cx="293.70990609" cy="311.128977547" fill="rgb(0%,0%,100%)" r="0.7" /><circle cx="294.888280162" cy="313.887856278" fill="rgb(0%,0%,100%)" r="0.7" /><circle cx="296.066851458" cy="316.6466535" fill="rgb(0%,0%,100%)" r="0.7" /><circle cx="297.245617234" cy="319.405374159" fill="rgb(0%,0%,100%)" r="0.7" /><circle cx="298.424572496" cy="322.164017163" fill="rgb(0%,0%,100%)" r="0.7" /><circle cx="299.603707847" cy="324.922570375" fill="rgb(0%,0%,100%)" r="0.7" /><circle cx="300.783026753" cy="327.681051034" fill="rgb(0%,0%,100%)" r="0.7" /><circle cx="301.962519094" cy="330.439443884" fill="rgb(0%,0%,100%)" r="0.7" /><circle cx="303.142196069" cy="333.197782819" fill="rgb(0%,0%,100%)" r="0.7" /><circle cx="304.322039835" cy="335.956033118" fill="rgb(0%,0%,100%)" r="0.7" /><circle cx="305.502055891" cy="338.71421393" fill="rgb(0%,0%,100%)" r="0.7" /><circle cx="306.682245595" cy="341.472333989" fill="rgb(0%,0%,100%)" r="0.7" /><circle cx="307.86260022" cy="344.230377708" fill="rgb(0%,0%,100%)" r="0.7" /><circle cx="309.043115589" cy="346.988339348" fill="rgb(0%,0%,100%)" r="0.7" /><circle cx="310.22379721" cy="349.746234954" fill="rgb(0%,0%,100%)" r="0.7" /><circle cx="311.404641" cy="352.504057234" fill="rgb(0%,0%,100%)" r="0.7" /><circle cx="312.585655725" cy="355.261827879" fill="rgb(0%,0%,100%)" r="0.7" /><circle cx="313.766828687" cy="358.019517301" fill="rgb(0%,0%,100%)" r="0.7" /><circle cx="314.948152507" cy="360.777106981" fill="rgb(0%,0%,100%)" r="0.7" /><circle cx="316.129664224" cy="363.534680458" fill="rgb(0%,0%,100%)" r="0.7" /><circle cx="317.311332514" cy="366.292159694" fill="rgb(0%,0%,100%)" r="0.7" /><circle cx="318.493165103" cy="369.049555244" fill="rgb(0%,0%,100%)" r="0.7" /><circle cx="319.675170211" cy="371.806875396" fill="rgb(0%,0%,100%)" r="0.7" /><circle cx="320.857364796" cy="374.56414402" fill="rgb(0%,0%,100%)" r="0.7" /><circle cx="322.039732084" cy="377.321299124" fill="rgb(0%,0%,100%)" r="0.7" /><circle cx="323.222316356" cy="380.078409269" fill="rgb(0%,0%,100%)" r="0.7" /><circle cx="324.40510839" cy="382.835395828" fill="rgb(0%,0%,100%)" r="0.7" /><circle cx="325.588169047" cy="385.592287923" fill="rgb(0%,0%,100%)" r="0.7" /><circle cx="326.764451251" cy="388.351962375" fill="rgb(0%,0%,100%)" r="0.7" /><circle cx="327.917611077" cy="391.121476061" fill="rgb(0%,0%,100%)" r="0.7" /><circle cx="329.063181563" cy="393.894137793" fill="rgb(0%,0%,100%)" r="0.7" /><circle cx="330.20126355" cy="396.669887487" fill="rgb(0%,0%,100%)" r="0.7" /><circle cx="331.331946688" cy="399.448657139" fill="rgb(0%,0%,100%)" r="0.7" /><circle cx="332.455317253" cy="402.23038974" fill="rgb(0%,0%,100%)" r="0.7" /><circle cx="333.571454473" cy="405.015030405" fill="rgb(0%,0%,100%)" r="0.7" /><circle cx="334.680432451" cy="407.802531345" fill="rgb(0%,0%,100%)" r="0.7" /><circle cx="335.78231515" cy="410.592839604" fill="rgb(0%,0%,100%)" r="0.7" /><circle cx="336.877167197" cy="413.385924917" fill="rgb(0%,0%,100%)" r="0.7" /><circle cx="337.965035323" cy="416.181733293" fill="rgb(0%,0%,100%)" r="0.7" /><circle cx="339.045965945" cy="418.980232686" fill="rgb(0%,0%,100%)" r="0.7" /><circle cx="340.11999047" cy="421.781376528" fill="rgb(0%,0%,100%)" r="0.7" /><circle cx="341.187147575" cy="424.585163509" fill="rgb(0%,0%,100%)" r="0.7" /><circle cx="342.247443666" cy="427.391536271" fill="rgb(0%,0%,100%)" r="0.7" /><circle cx="343.300893842" cy="430.200491622" fill="rgb(0%,0%,100%)" r="0.7" /><circle cx="344.347497652" cy="433.01202069" fill="rgb(0%,0%,100%)" r="0.7" /><circle cx="345.387227259" cy="435.826081113" fill="rgb(0%,0%,100%)" r="0.7" /><circle cx="346.420056821" cy="438.642682192" fill="rgb(0%,0%,100%)" r="0.7" /><circle cx="347.445936833" cy="441.461824161" fill="rgb(0%,0%,100%)" r="0.7" /><circle cx="348.46479328" cy="444.283506386" fill="rgb(0%,0%,100%)" r="0.7" /><circle cx="349.476536919" cy="447.107768552" fill="rgb(0%,0%,100%)" r="0.7" /><circle cx="350.481023419" cy="449.934601355" fill="rgb(0%,0%,100%)" r="0.7" /><circle cx="351.478080861" cy="452.764054912" fill="rgb(0%,0%,100%)" r="0.7" /><circle cx="352.467480041" cy="455.596205546" fill="rgb(0%,0%,100%)" r="0.7" /><circle cx="353.448898795" cy="458.431134863" fill="rgb(0%,0%,100%)" r="0.7" /><circle cx="354.42188541" cy="461.268967358" fill="rgb(0%,0%,100%)" r="0.7" /><circle cx="355.385774046" cy="464.109909905" fill="rgb(0%,0%,100%)" r="0.7" /><circle cx="356.3394673" cy="466.954292047" fill="rgb(0%,0%,100%)" r="0.7" /><circle cx="357.280740896" cy="469.802802399" fill="rgb(0%,0%,100%)" r="0.7" /><circle cx="358.22951649" cy="472.648470084" fill="rgb(0%,0%,100%)" r="0.7" /><circle cx="359.466135863" cy="475.379636305" fill="rgb(0%,0%,100%)" r="0.7" /><circle cx="361.004713887" cy="477.953488986" fill="rgb(0%,0%,100%)" r="0.7" /><circle cx="362.78041075" cy="480.370365582" fill="rgb(0%,0%,100%)" r="0.7" /><circle cx="364.742169563" cy="482.639188368" fill="rgb(0%,0%,100%)" r="0.7" /><circle cx="366.851371421" cy="484.771890319" fill="rgb(0%,0%,100%)" r="0.7" /><circle cx="369.079233998" cy="486.780502854" fill="rgb(0%,0%,100%)" r="0.7" /><circle cx="371.404364849" cy="488.675796059" fill="rgb(0%,0%,100%)" r="0.7" /><circle cx="373.810894807" cy="490.46668559" fill="rgb(0%,0%,100%)" r="0.7" /><circle cx="376.28720024" cy="492.15985952" fill="rgb(0%,0%,100%)" r="0.7" /><circle cx="378.825175001" cy="493.759138657" fill="rgb(0%,0%,100%)" r="0.7" /><circle cx="381.420481837" cy="495.263572255" fill="rgb(0%,0%,100%)" r="0.7" /><circle cx="384.074149542" cy="496.661798479" fill="rgb(0%,0%,100%)" r="0.7" /><circle cx="386.566478589" cy="498.329889325" fill="rgb(0%,0%,100%)" r="0.7" /><circle cx="388.873531448" cy="500.244712997" fill="rgb(0%,0%,100%)" r="0.7" /><circle cx="390.875099898" cy="502.474202947" fill="rgb(0%,0%,100%)" r="0.7" /><circle cx="392.354771813" cy="505.074444031" fill="rgb(0%,0%,100%)" r="0.7" /><circle cx="392.999977827" cy="507.989625365" fill="rgb(0%,0%,100%)" r="0.7" /><circle cx="392.613958526" cy="510.94988988" fill="rgb(0%,0%,100%)" r="0.7" /><circle cx="391.340982171" cy="513.656096878" fill="rgb(0%,0%,100%)" r="0.7" /><circle cx="389.451783505" cy="515.97863766" fill="rgb(0%,0%,100%)" r="0.7" /><circle cx="387.121606397" cy="517.81875921" fill="rgb(0%,0%,100%)" r="0.7" /><circle cx="384.218036283" cy="518.533447712" fill="rgb(0%,0%,100%)" r="0.7" /><circle cx="381.22424792" cy="518.693961261" fill="rgb(0%,0%,100%)" r="0.7" /></svg>