<?xml version="1.0" encoding="utf-8" ?>
<svg baseProfile="full" height="100%" version="1.1" width="100%" xmlns="http://www.w3.org/2000/svg" xmlns:ev="http://www.w3.org/2001/xml-events" xmlns:xlink="http://www.w3.org/1999/xlink"><defs /><circle cx="259.100133579" cy="232.506277676" fill="rgb(100%,0%,0%)" r="0.7" /><circle cx="256.256532945" cy="233.411595321" fill="rgb(100%,0%,0%)" r="0.7" /><circle cx="253.845720769" cy="235.179979026" fill="rgb(100%,0%,0%)" r="0.7" /><circle cx="251.987407708" cy="237.530001151" fill="rgb(100%,0%,0%)" r="0.7" /><circle cx="250.360747666" cy="240.049820557" fill="rgb(100%,0%,0%)" r="0.7" /><circle cx="248.939535311" cy="242.690840663" fill="rgb(100%,0%,0%)" r="0.7" /><circle cx="247.759673843" cy="245.447822222" fill="rgb(100%,0%,0%)" r="0.7" /><circle cx="246.87837424" cy="248.313680407" fill="rgb(100%,0%,0%)" r="0.7" /><circle cx="246.373636" cy="251.26833679" fill="rgb(100%,0%,0%)" r="0.7" /><circle cx="246.222267577" cy="254.264136451" fill="rgb(100%,0%,0%)" r="0.7" /><circle cx="246.12518952" cy="257.262551295" fill="rgb(100%,0%,0%)" r="0.7" /><circle cx="246.070955242" cy="260.262019088" fill="rgb(100%,0%,0%)" r="0.7" /><circle cx="246.111833809" cy="263.26137155" fill="rgb(100%,0%,0%)" r="0.7" /><circle cx="245.736765403" cy="266.134377788" fill="rgb(100%,0%,0%)" r="0.7" /><circle cx="244.385310812" cy="268.811690939" fill="rgb(100%,0%,0%)" r="0.7" /><circle cx="242.853306701" cy="271.39056817" fill="rgb(100%,0%,0%)" r="0.7" /><circle cx="241.19806993" cy="273.892335017" fill="rgb(100%,0%,0%)" r="0.7" /><circle cx="239.448049217" cy="276.328831919" fill="rgb(100%,0%,0%)" r="0.7" /><circle cx="237.620952899" cy="278.708133513" fill="rgb(100%,0%,0%)" r="0.7" /><circle cx="235.729046405" cy="281.036271789" fill="rgb(100%,0%,0%)" r="0.7" /><circle cx="233.781394173" cy="283.317991867" fill="rgb(100%,0%,0%)" r="0.7" /><circle cx="231.784967314" cy="285.557188458" fill="rgb(100%,0%,0%)" r="0.7" /><circle cx="229.745328492" cy="287.757101464" fill="rgb(100%,0%,0%)" r="0.7" /><circle cx="227.667006638" cy="289.920499347" fill="rgb(100%,0%,0%)" r="0.7" /><circle cx="225.553741339" cy="292.049799662" fill="rgb(100%,0%,0%)" r="0.7" /><circle cx="223.486659132" cy="294.102931069" fill="rgb(100%,0%,0%)" r="0.7" /><circle cx="226.382767351" cy="293.320270742" fill="rgb(100%,0%,0%)" r="0.7" /><circle cx="229.278875569" cy="292.537610415" fill="rgb(100%,0%,0%)" r="0.7" /><circle cx="232.174983787" cy="291.754950088" fill="rgb(100%,0%,0%)" r="0.7" /><circle cx="235.071092006" cy="290.972289761" fill="rgb(100%,0%,0%)" r="0.7" /><circle cx="236.892125884" cy="291.993655605" fill="rgb(100%,0%,0%)" r="0.7" /><circle cx="237.581933694" cy="294.913272906" fill="rgb(100%,0%,0%)" r="0.7" /><circle cx="238.271741504" cy="297.832890208" fill="rgb(100%,0%,0%)" r="0.7" /><circle cx="238.961549314" cy="300.752507509" fill="rgb(100%,0%,0%)" r="0.7" /><circle cx="239.651357124" cy="303.67212481" fill="rgb(100%,0%,0%)" r="0.7" /><circle cx="240.341164934" cy="306.591742111" fill="rgb(100%,0%,0%)" r="0.7" /><circle cx="240.758" cy="308.356" fill="rgb(100%,0%,0%)" r="0.7" /><circle cx="259.100133579" cy="232.506277676" fill="rgb(0%,0%,100%)" r="0.7" /><circle cx="262.084494653" cy="232.624681205" fill="rgb(0%,0%,100%)" r="0.7" /><circle cx="264.922390675" cy="233.57500555" fill="rgb(0%,0%,100%)" r="0.7" /><circle cx="267.510633665" cy="235.084371947" fill="rgb(0%,0%,100%)" r="0.7" /><circle cx="269.821252505" cy="236.992528036" fill="rgb(0%,0%,100%)" r="0.7" /><circle cx="271.604964962" cy="239.373356662" fill="rgb(0%,0%,100%)" r="0.7" /><circle cx="272.410523894" cy="242.252672581" fill="rgb(0%,0%,100%)" r="0.7" /><circle cx="272.571004592" cy="245.244950536" fill="rgb(0%,0%,100%)" r="0.7" /><circle cx="272.333575955" cy="248.234133162" fill="rgb(0%,0%,100%)" r="0.7" /><circle cx="271.830881901" cy="251.191004751" fill="rgb(0%,0%,100%)" r="0.7" /><circle cx="271.135212694" cy="254.1088064" fill="rgb(0%,0%,100%)" r="0.7" /><circle cx="270.28656404" cy="256.985957192" fill="rgb(0%,0%,100%)" r="0.7" /><circle cx="269.300763563" cy="259.819045383" fill="rgb(0%,0%,100%)" r="0.7" /><circle cx="268.097768611" cy="262.566030656" fill="rgb(0%,0%,100%)" r="0.7" /><circle cx="266.925549927" cy="265.327461135" fill="rgb(0%,0%,100%)" r="0.7" /><circle cx="265.802796051" cy="268.109418598" fill="rgb(0%,0%,100%)" r="0.7" /><circle cx="264.712435501" cy="270.904242174" fill="rgb(0%,0%,100%)" r="0.7" /><circle cx="263.647477008" cy="273.708849864" fill="rgb(0%,0%,100%)" r="0.7" /><circle cx="262.658196646" cy="276.540361006" fill="rgb(0%,0%,100%)" r="0.7" /><circle cx="261.608158089" cy="279.350211278" fill="rgb(0%,0%,100%)" r="0.7" /><circle cx="260.414733816" cy="282.102284018" fill="rgb(0%,0%,100%)" r="0.7" /><circle cx="259.091930344" cy="284.794612328" fill="rgb(0%,0%,100%)" r="0.7" /><circle cx="257.652247859" cy="287.4263399" fill="rgb(0%,0%,100%)" r="0.7" /><circle cx="256.106669876" cy="289.997339688" fill="rgb(0%,0%,100%)" r="0.7" /><circle cx="254.46471139" cy="292.50790686" fill="rgb(0%,0%,100%)" r="0.7" /><circle cx="252.734481615" cy="294.958506205" fill="rgb(0%,0%,100%)" r="0.7" /><circle cx="250.922762274" cy="297.349497741" fill="rgb(0%,0%,100%)" r="0.7" /><circle cx="249.034973679" cy="299.680921998" fill="rgb(0%,0%,100%)" r="0.7" /><circle cx="247.075098803" cy="301.952071969" fill="rgb(0%,0%,100%)" r="0.7" /><circle cx="245.045198712" cy="304.160875956" fill="rgb(0%,0%,100%)" r="0.7" /><circle cx="242.944062107" cy="306.301984693" fill="rgb(0%,0%,100%)" r="0.7" /><circle cx="240.758" cy="308.356" fill="rgb(0%,0%,100%)" r="0.7" /></svg>