<?xml version="1.0" encoding="utf-8" ?>
<svg baseProfile="full" height="100%" version="1.1" width="100%" xmlns="http://www.w3.org/2000/svg" xmlns:ev="http://www.w3.org/2001/xml-events" xmlns:xlink="http://www.w3.org/1999/xlink"><defs /><circle cx="273.793267623" cy="340.358889703" fill="rgb(100%,0%,0%)" r="0.7" /><circle cx="270.81659686" cy="340.610337349" fill="rgb(100%,0%,0%)" r="0.7" /><circle cx="268.127899407" cy="341.884925897" fill="rgb(100%,0%,0%)" r="0.7" /><circle cx="266.177717835" cy="344.142716636" fill="rgb(100%,0%,0%)" r="0.7" /><circle cx="265.076031741" cy="346.920778866" fill="rgb(100%,0%,0%)" r="0.7" /><circle cx="264.738657319" cy="349.895304019" fill="rgb(100%,0%,0%)" r="0.7" /><circle cx="264.976927401" cy="352.882547975" fill="rgb(100%,0%,0%)" r="0.7" /><circle cx="265.624114327" cy="355.810154198" fill="rgb(100%,0%,0%)" r="0.7" /><circle cx="266.438468495" cy="358.691392877" fill="rgb(100%,0%,0%)" r="0.7" /><circle cx="266.729396256" cy="361.676198093" fill="rgb(100%,0%,0%)" r="0.7" /><circle cx="266.783170991" cy="364.675071972" fill="rgb(100%,0%,0%)" r="0.7" /><circle cx="266.630943689" cy="367.670659876" fill="rgb(100%,0%,0%)" r="0.7" /><circle cx="266.282397975" cy="370.649806874" fill="rgb(100%,0%,0%)" r="0.7" /><circle cx="265.741690012" cy="373.600146528" fill="rgb(100%,0%,0%)" r="0.7" /><circle cx="265.011384098" cy="376.509357101" fill="rgb(100%,0%,0%)" r="0.7" /><circle cx="264.094135115" cy="379.365147936" fill="rgb(100%,0%,0%)" r="0.7" /><circle cx="262.993602539" cy="382.155424857" fill="rgb(100%,0%,0%)" r="0.7" /><circle cx="261.71491792" cy="384.868697011" fill="rgb(100%,0%,0%)" r="0.7" /><circle cx="260.264905069" cy="387.494415501" fill="rgb(100%,0%,0%)" r="0.7" /><circle cx="258.652030073" cy="390.023391462" fill="rgb(100%,0%,0%)" r="0.7" /><circle cx="256.886201599" cy="392.44806878" fill="rgb(100%,0%,0%)" r="0.7" /><circle cx="254.97840181" cy="394.762748431" fill="rgb(100%,0%,0%)" r="0.7" /><circle cx="252.940307663" cy="396.963601591" fill="rgb(100%,0%,0%)" r="0.7" /><circle cx="250.783833962" cy="399.048648045" fill="rgb(100%,0%,0%)" r="0.7" /><circle cx="251.021735913" cy="399.255308279" fill="rgb(100%,0%,0%)" r="0.7" /><circle cx="253.618992753" cy="397.753889981" fill="rgb(100%,0%,0%)" r="0.7" /><circle cx="256.216249593" cy="396.252471683" fill="rgb(100%,0%,0%)" r="0.7" /><circle cx="258.813506434" cy="394.751053385" fill="rgb(100%,0%,0%)" r="0.7" /><circle cx="261.410763274" cy="393.249635087" fill="rgb(100%,0%,0%)" r="0.7" /><circle cx="264.008020114" cy="391.748216789" fill="rgb(100%,0%,0%)" r="0.7" /><circle cx="264.890141968" cy="393.908335607" fill="rgb(100%,0%,0%)" r="0.7" /><circle cx="265.399228275" cy="396.864825271" fill="rgb(100%,0%,0%)" r="0.7" /><circle cx="265.908314582" cy="399.821314935" fill="rgb(100%,0%,0%)" r="0.7" /><circle cx="266.417400889" cy="402.777804598" fill="rgb(100%,0%,0%)" r="0.7" /><circle cx="266.926487196" cy="405.734294262" fill="rgb(100%,0%,0%)" r="0.7" /><circle cx="267.435573503" cy="408.690783926" fill="rgb(100%,0%,0%)" r="0.7" /><circle cx="267.94465981" cy="411.64727359" fill="rgb(100%,0%,0%)" r="0.7" /><circle cx="268.019" cy="412.079" fill="rgb(100%,0%,0%)" r="0.7" /><circle cx="273.793267623" cy="340.358889703" fill="rgb(0%,0%,100%)" r="0.7" /><circle cx="276.725602908" cy="340.955237715" fill="rgb(0%,0%,100%)" r="0.7" /><circle cx="279.471262873" cy="342.154200968" fill="rgb(0%,0%,100%)" r="0.7" /><circle cx="281.999331988" cy="343.765045603" fill="rgb(0%,0%,100%)" r="0.7" /><circle cx="284.280480107" cy="345.707955496" fill="rgb(0%,0%,100%)" r="0.7" /><circle cx="286.216317496" cy="347.997904144" fill="rgb(0%,0%,100%)" r="0.7" /><circle cx="287.888160058" cy="350.486960843" fill="rgb(0%,0%,100%)" r="0.7" /><circle cx="289.266504303" cy="353.149737464" fill="rgb(0%,0%,100%)" r="0.7" /><circle cx="290.334559089" cy="355.951492907" fill="rgb(0%,0%,100%)" r="0.7" /><circle cx="291.090299253" cy="358.853280867" fill="rgb(0%,0%,100%)" r="0.7" /><circle cx="291.544870219" cy="361.817412384" fill="rgb(0%,0%,100%)" r="0.7" /><circle cx="291.718541771" cy="364.811371542" fill="rgb(0%,0%,100%)" r="0.7" /><circle cx="291.636098828" cy="367.809416726" fill="rgb(0%,0%,100%)" r="0.7" /><circle cx="291.323056193" cy="370.792366942" fill="rgb(0%,0%,100%)" r="0.7" /><circle cx="290.80311765" cy="373.746411437" fill="rgb(0%,0%,100%)" r="0.7" /><circle cx="290.096645917" cy="376.661558134" fill="rgb(0%,0%,100%)" r="0.7" /><circle cx="289.219558761" cy="379.530056802" fill="rgb(0%,0%,100%)" r="0.7" /><circle cx="288.18168843" cy="382.3443929" fill="rgb(0%,0%,100%)" r="0.7" /><circle cx="286.98077573" cy="385.09300018" fill="rgb(0%,0%,100%)" r="0.7" /><circle cx="285.408340363" cy="387.636331375" fill="rgb(0%,0%,100%)" r="0.7" /><circle cx="283.648933295" cy="390.066249915" fill="rgb(0%,0%,100%)" r="0.7" /><circle cx="281.89134892" cy="392.497486331" fill="rgb(0%,0%,100%)" r="0.7" /><circle cx="280.135654968" cy="394.930088599" fill="rgb(0%,0%,100%)" r="0.7" /><circle cx="278.382103088" cy="397.364237316" fill="rgb(0%,0%,100%)" r="0.7" /><circle cx="276.631128886" cy="399.800237222" fill="rgb(0%,0%,100%)" r="0.7" /><circle cx="274.883436672" cy="402.238594149" fill="rgb(0%,0%,100%)" r="0.7" /><circle cx="273.140246572" cy="404.680171143" fill="rgb(0%,0%,100%)" r="0.7" /><circle cx="271.403954707" cy="407.126659581" fill="rgb(0%,0%,100%)" r="0.7" /><circle cx="269.680732236" cy="409.5823642" fill="rgb(0%,0%,100%)" r="0.7" /><circle cx="268.019" cy="412.079" fill="rgb(0%,0%,100%)" r="0.7" /></svg>