<?xml version="1.0" encoding="utf-8" ?>
<svg baseProfile="full" height="100%" version="1.1" width="100%" xmlns="http://www.w3.org/2000/svg" xmlns:ev="http://www.w3.org/2001/xml-events" xmlns:xlink="http://www.w3.org/1999/xlink"><defs /><circle cx="162.066149508" cy="312.775615412" fill="rgb(100%,0%,0%)" r="0.7" /><circle cx="159.440172523" cy="314.195861494" fill="rgb(100%,0%,0%)" r="0.7" /><circle cx="157.01136306" cy="315.956794369" fill="rgb(100%,0%,0%)" r="0.7" /><circle cx="154.582553597" cy="317.717727245" fill="rgb(100%,0%,0%)" r="0.7" /><circle cx="152.153744134" cy="319.478660121" fill="rgb(100%,0%,0%)" r="0.7" /><circle cx="149.868503609" cy="321.404187972" fill="rgb(100%,0%,0%)" r="0.7" /><circle cx="148.854579306" cy="324.13412434" fill="rgb(100%,0%,0%)" r="0.7" /><circle cx="150.757770751" cy="326.311412168" fill="rgb(100%,0%,0%)" r="0.7" /><circle cx="152.872472287" cy="328.409266965" fill="rgb(100%,0%,0%)" r="0.7" /><circle cx="154.396036982" cy="330.981372138" fill="rgb(100%,0%,0%)" r="0.7" /><circle cx="154.920753159" cy="333.922763322" fill="rgb(100%,0%,0%)" r="0.7" /><circle cx="155.263450887" cy="336.903115873" fill="rgb(100%,0%,0%)" r="0.7" /><circle cx="155.641349305" cy="339.879194212" fill="rgb(100%,0%,0%)" r="0.7" /><circle cx="156.085592635" cy="342.845972708" fill="rgb(100%,0%,0%)" r="0.7" /><circle cx="156.650271174" cy="345.774500088" fill="rgb(100%,0%,0%)" r="0.7" /><circle cx="156.744971243" cy="346.996733836" fill="rgb(100%,0%,0%)" r="0.7" /><circle cx="157.036303797" cy="349.981832093" fill="rgb(100%,0%,0%)" r="0.7" /><circle cx="157.136939462" cy="352.979767876" fill="rgb(100%,0%,0%)" r="0.7" /><circle cx="157.09320103" cy="355.979227216" fill="rgb(100%,0%,0%)" r="0.7" /><circle cx="156.930735905" cy="358.974645814" fill="rgb(100%,0%,0%)" r="0.7" /><circle cx="156.666660032" cy="361.962873872" fill="rgb(100%,0%,0%)" r="0.7" /><circle cx="156.313499605" cy="364.941915389" fill="rgb(100%,0%,0%)" r="0.7" /><circle cx="155.880942152" cy="367.910505031" fill="rgb(100%,0%,0%)" r="0.7" /><circle cx="155.376775179" cy="370.867767841" fill="rgb(100%,0%,0%)" r="0.7" /><circle cx="154.807417657" cy="373.813172671" fill="rgb(100%,0%,0%)" r="0.7" /><circle cx="154.178269164" cy="376.746406738" fill="rgb(100%,0%,0%)" r="0.7" /><circle cx="153.493949725" cy="379.667285041" fill="rgb(100%,0%,0%)" r="0.7" /><circle cx="152.758471721" cy="382.575687078" fill="rgb(100%,0%,0%)" r="0.7" /><circle cx="151.975334181" cy="385.471631159" fill="rgb(100%,0%,0%)" r="0.7" /><circle cx="151.147632972" cy="388.355165685" fill="rgb(100%,0%,0%)" r="0.7" /><circle cx="150.278127769" cy="391.226366789" fill="rgb(100%,0%,0%)" r="0.7" /><circle cx="149.369283665" cy="394.085367475" fill="rgb(100%,0%,0%)" r="0.7" /><circle cx="148.423330432" cy="396.932294736" fill="rgb(100%,0%,0%)" r="0.7" /><circle cx="147.442275686" cy="399.767329237" fill="rgb(100%,0%,0%)" r="0.7" /><circle cx="146.427952844" cy="402.590639465" fill="rgb(100%,0%,0%)" r="0.7" /><circle cx="145.38204021" cy="405.402393236" fill="rgb(100%,0%,0%)" r="0.7" /><circle cx="144.306068703" cy="408.202786045" fill="rgb(100%,0%,0%)" r="0.7" /><circle cx="143.201448191" cy="410.992010587" fill="rgb(100%,0%,0%)" r="0.7" /><circle cx="142.069487206" cy="413.77024173" fill="rgb(100%,0%,0%)" r="0.7" /><circle cx="141.501098422" cy="415.718538894" fill="rgb(100%,0%,0%)" r="0.7" /><circle cx="143.750550678" cy="413.7336045" fill="rgb(100%,0%,0%)" r="0.7" /><circle cx="146.000002934" cy="411.748670106" fill="rgb(100%,0%,0%)" r="0.7" /><circle cx="148.249455189" cy="409.763735712" fill="rgb(100%,0%,0%)" r="0.7" /><circle cx="150.498907445" cy="407.778801318" fill="rgb(100%,0%,0%)" r="0.7" /><circle cx="152.748359701" cy="405.793866924" fill="rgb(100%,0%,0%)" r="0.7" /><circle cx="153.840253728" cy="408.312561559" fill="rgb(100%,0%,0%)" r="0.7" /><circle cx="154.853776048" cy="411.136171395" fill="rgb(100%,0%,0%)" r="0.7" /><circle cx="155.867298367" cy="413.959781232" fill="rgb(100%,0%,0%)" r="0.7" /><circle cx="156.880820686" cy="416.783391068" fill="rgb(100%,0%,0%)" r="0.7" /><circle cx="157.894343006" cy="419.607000905" fill="rgb(100%,0%,0%)" r="0.7" /><circle cx="158.907865325" cy="422.430610741" fill="rgb(100%,0%,0%)" r="0.7" /><circle cx="159.291" cy="423.498" fill="rgb(100%,0%,0%)" r="0.7" /><circle cx="162.066149508" cy="312.775615412" fill="rgb(0%,0%,100%)" r="0.7" /><circle cx="164.991043553" cy="312.838069965" fill="rgb(0%,0%,100%)" r="0.7" /><circle cx="166.782909351" cy="315.153503222" fill="rgb(0%,0%,100%)" r="0.7" /><circle cx="167.846904257" cy="317.957433273" fill="rgb(0%,0%,100%)" r="0.7" /><circle cx="168.746278444" cy="320.819259585" fill="rgb(0%,0%,100%)" r="0.7" /><circle cx="169.560875074" cy="323.706482097" fill="rgb(0%,0%,100%)" r="0.7" /><circle cx="170.320136286" cy="326.608780086" fill="rgb(0%,0%,100%)" r="0.7" /><circle cx="171.038212284" cy="329.521557399" fill="rgb(0%,0%,100%)" r="0.7" /><circle cx="171.722063978" cy="332.442559839" fill="rgb(0%,0%,100%)" r="0.7" /><circle cx="172.359651135" cy="335.37376009" fill="rgb(0%,0%,100%)" r="0.7" /><circle cx="172.836563591" cy="338.335424039" fill="rgb(0%,0%,100%)" r="0.7" /><circle cx="173.204578053" cy="341.312611737" fill="rgb(0%,0%,100%)" r="0.7" /><circle cx="173.472358196" cy="344.300510941" fill="rgb(0%,0%,100%)" r="0.7" /><circle cx="173.647779755" cy="347.295265498" fill="rgb(0%,0%,100%)" r="0.7" /><circle cx="173.737962052" cy="350.293817996" fill="rgb(0%,0%,100%)" r="0.7" /><circle cx="173.749314551" cy="353.29371767" fill="rgb(0%,0%,100%)" r="0.7" /><circle cx="173.687596402" cy="356.293014387" fill="rgb(0%,0%,100%)" r="0.7" /><circle cx="173.557976572" cy="359.290153965" fill="rgb(0%,0%,100%)" r="0.7" /><circle cx="173.365092798" cy="362.283895811" fill="rgb(0%,0%,100%)" r="0.7" /><circle cx="173.113106768" cy="365.273248722" fill="rgb(0%,0%,100%)" r="0.7" /><circle cx="172.805754009" cy="368.257423225" fill="rgb(0%,0%,100%)" r="0.7" /><circle cx="172.446389084" cy="371.235786907" fill="rgb(0%,0%,100%)" r="0.7" /><circle cx="172.038025351" cy="374.20783177" fill="rgb(0%,0%,100%)" r="0.7" /><circle cx="171.583369701" cy="377.173147609" fill="rgb(0%,0%,100%)" r="0.7" /><circle cx="171.084849481" cy="380.131417714" fill="rgb(0%,0%,100%)" r="0.7" /><circle cx="170.544645532" cy="383.082354926" fill="rgb(0%,0%,100%)" r="0.7" /><circle cx="169.964703282" cy="386.025746836" fill="rgb(0%,0%,100%)" r="0.7" /><circle cx="169.34676015" cy="388.961386035" fill="rgb(0%,0%,100%)" r="0.7" /><circle cx="168.692344763" cy="391.889126498" fill="rgb(0%,0%,100%)" r="0.7" /><circle cx="168.002804603" cy="394.808783765" fill="rgb(0%,0%,100%)" r="0.7" /><circle cx="167.279287167" cy="397.720224529" fill="rgb(0%,0%,100%)" r="0.7" /><circle cx="166.522760212" cy="400.623257626" fill="rgb(0%,0%,100%)" r="0.7" /><circle cx="165.733983487" cy="403.517691971" fill="rgb(0%,0%,100%)" r="0.7" /><circle cx="164.913494209" cy="406.403281123" fill="rgb(0%,0%,100%)" r="0.7" /><circle cx="164.06154231" cy="409.279764963" fill="rgb(0%,0%,100%)" r="0.7" /><circle cx="163.178041243" cy="412.146706553" fill="rgb(0%,0%,100%)" r="0.7" /><circle cx="162.262371334" cy="415.003523936" fill="rgb(0%,0%,100%)" r="0.7" /><circle cx="161.313010432" cy="417.849322993" fill="rgb(0%,0%,100%)" r="0.7" /><circle cx="160.326476876" cy="420.682469867" fill="rgb(0%,0%,100%)" r="0.7" /><circle cx="159.291" cy="423.498" fill="rgb(0%,0%,100%)" r="0.7" /></svg>