<?xml version="1.0" encoding="utf-8" ?>
<svg baseProfile="full" height="100%" version="1.1" width="100%" xmlns="http://www.w3.org/2000/svg" xmlns:ev="http://www.w3.org/2001/xml-events" xmlns:xlink="http://www.w3.org/1999/xlink"><defs /><circle cx="274.986948707" cy="300.2569917" fill="rgb(100%,0%,0%)" r="0.7" /><circle cx="272.016630273" cy="300.295302331" fill="rgb(100%,0%,0%)" r="0.7" /><circle cx="269.405530936" cy="301.721783078" fill="rgb(100%,0%,0%)" r="0.7" /><circle cx="267.240150039" cy="303.795840424" fill="rgb(100%,0%,0%)" r="0.7" /><circle cx="265.217720836" cy="306.011385719" fill="rgb(100%,0%,0%)" r="0.7" /><circle cx="263.261934207" cy="308.286141442" fill="rgb(100%,0%,0%)" r="0.7" /><circle cx="261.347487239" cy="310.59584827" fill="rgb(100%,0%,0%)" r="0.7" /><circle cx="259.462342093" cy="312.929546992" fill="rgb(100%,0%,0%)" r="0.7" /><circle cx="257.599750879" cy="315.281294916" fill="rgb(100%,0%,0%)" r="0.7" /><circle cx="255.75563433" cy="317.647559884" fill="rgb(100%,0%,0%)" r="0.7" /><circle cx="253.927553149" cy="320.026235727" fill="rgb(100%,0%,0%)" r="0.7" /><circle cx="252.114498438" cy="322.416386851" fill="rgb(100%,0%,0%)" r="0.7" /><circle cx="250.338495304" cy="324.833661511" fill="rgb(100%,0%,0%)" r="0.7" /><circle cx="248.660922934" cy="327.320743073" fill="rgb(100%,0%,0%)" r="0.7" /><circle cx="247.021114442" cy="329.832876485" fill="rgb(100%,0%,0%)" r="0.7" /><circle cx="245.422304635" cy="332.371306463" fill="rgb(100%,0%,0%)" r="0.7" /><circle cx="243.868294286" cy="334.937391691" fill="rgb(100%,0%,0%)" r="0.7" /><circle cx="242.363576954" cy="337.532686061" fill="rgb(100%,0%,0%)" r="0.7" /><circle cx="240.913596064" cy="340.158937702" fill="rgb(100%,0%,0%)" r="0.7" /><circle cx="239.525077739" cy="342.818180015" fill="rgb(100%,0%,0%)" r="0.7" /><circle cx="238.20660625" cy="345.512810031" fill="rgb(100%,0%,0%)" r="0.7" /><circle cx="236.969608695" cy="348.245762788" fill="rgb(100%,0%,0%)" r="0.7" /><circle cx="235.830315825" cy="351.020813587" fill="rgb(100%,0%,0%)" r="0.7" /><circle cx="234.814458834" cy="353.843247228" fill="rgb(100%,0%,0%)" r="0.7" /><circle cx="233.97382594" cy="356.7222957" fill="rgb(100%,0%,0%)" r="0.7" /><circle cx="233.496266971" cy="359.680823528" fill="rgb(100%,0%,0%)" r="0.7" /><circle cx="233.182102459" cy="362.664276148" fill="rgb(100%,0%,0%)" r="0.7" /><circle cx="232.930469675" cy="365.653650932" fill="rgb(100%,0%,0%)" r="0.7" /><circle cx="232.74509028" cy="368.647837381" fill="rgb(100%,0%,0%)" r="0.7" /><circle cx="232.629960126" cy="371.645569473" fill="rgb(100%,0%,0%)" r="0.7" /><circle cx="232.589374333" cy="374.645207157" fill="rgb(100%,0%,0%)" r="0.7" /><circle cx="232.627932516" cy="377.644869187" fill="rgb(100%,0%,0%)" r="0.7" /><circle cx="232.750552712" cy="380.642258596" fill="rgb(100%,0%,0%)" r="0.7" /><circle cx="232.962472858" cy="383.634628338" fill="rgb(100%,0%,0%)" r="0.7" /><circle cx="233.269253905" cy="386.618776616" fill="rgb(100%,0%,0%)" r="0.7" /><circle cx="233.676754003" cy="389.59082345" fill="rgb(100%,0%,0%)" r="0.7" /><circle cx="234.191105896" cy="392.546223158" fill="rgb(100%,0%,0%)" r="0.7" /><circle cx="234.818670523" cy="395.479648963" fill="rgb(100%,0%,0%)" r="0.7" /><circle cx="235.565955639" cy="398.384837132" fill="rgb(100%,0%,0%)" r="0.7" /><circle cx="236.439540499" cy="401.254567872" fill="rgb(100%,0%,0%)" r="0.7" /><circle cx="237.445912104" cy="404.080420306" fill="rgb(100%,0%,0%)" r="0.7" /><circle cx="238.591347465" cy="406.852798658" fill="rgb(100%,0%,0%)" r="0.7" /><circle cx="239.881689816" cy="409.560711611" fill="rgb(100%,0%,0%)" r="0.7" /><circle cx="241.322186262" cy="412.191755351" fill="rgb(100%,0%,0%)" r="0.7" /><circle cx="242.917315358" cy="414.731985387" fill="rgb(100%,0%,0%)" r="0.7" /><circle cx="244.670619284" cy="417.165635643" fill="rgb(100%,0%,0%)" r="0.7" /><circle cx="246.584792215" cy="419.474798246" fill="rgb(100%,0%,0%)" r="0.7" /><circle cx="248.661992016" cy="421.638353251" fill="rgb(100%,0%,0%)" r="0.7" /><circle cx="250.904990326" cy="423.629245127" fill="rgb(100%,0%,0%)" r="0.7" /><circle cx="253.321347688" cy="425.405022799" fill="rgb(100%,0%,0%)" r="0.7" /><circle cx="255.968717562" cy="426.800602101" fill="rgb(100%,0%,0%)" r="0.7" /><circle cx="258.737129891" cy="427.956374199" fill="rgb(100%,0%,0%)" r="0.7" /><circle cx="261.498909556" cy="429.12793983" fill="rgb(100%,0%,0%)" r="0.7" /><circle cx="264.25478723" cy="430.313337419" fill="rgb(100%,0%,0%)" r="0.7" /><circle cx="267.005357826" cy="431.510985354" fill="rgb(100%,0%,0%)" r="0.7" /><circle cx="269.75112301" cy="432.719591193" fill="rgb(100%,0%,0%)" r="0.7" /><circle cx="272.492525178" cy="433.938090168" fill="rgb(100%,0%,0%)" r="0.7" /><circle cx="275.229909455" cy="435.165573094" fill="rgb(100%,0%,0%)" r="0.7" /><circle cx="277.96359268" cy="436.40127625" fill="rgb(100%,0%,0%)" r="0.7" /><circle cx="280.693851782" cy="437.64454586" fill="rgb(100%,0%,0%)" r="0.7" /><circle cx="283.420905959" cy="438.894806529" fill="rgb(100%,0%,0%)" r="0.7" /><circle cx="286.144974614" cy="440.151569598" fill="rgb(100%,0%,0%)" r="0.7" /><circle cx="288.866236382" cy="441.414400253" fill="rgb(100%,0%,0%)" r="0.7" /><circle cx="291.584851342" cy="442.682916398" fill="rgb(100%,0%,0%)" r="0.7" /><circle cx="294.300964815" cy="443.956781414" fill="rgb(100%,0%,0%)" r="0.7" /><circle cx="297.014705507" cy="445.23569599" fill="rgb(100%,0%,0%)" r="0.7" /><circle cx="299.726185408" cy="446.519392107" fill="rgb(100%,0%,0%)" r="0.7" /><circle cx="302.435509916" cy="447.80763296" fill="rgb(100%,0%,0%)" r="0.7" /><circle cx="305.142768745" cy="449.100204674" fill="rgb(100%,0%,0%)" r="0.7" /><circle cx="307.848050704" cy="450.3969201" fill="rgb(100%,0%,0%)" r="0.7" /><circle cx="310.551419474" cy="451.697604579" fill="rgb(100%,0%,0%)" r="0.7" /><circle cx="313.252955092" cy="453.00211376" fill="rgb(100%,0%,0%)" r="0.7" /><circle cx="315.952699654" cy="454.310305838" fill="rgb(100%,0%,0%)" r="0.7" /><circle cx="318.650719248" cy="455.622070313" fill="rgb(100%,0%,0%)" r="0.7" /><circle cx="321.347046625" cy="456.937299548" fill="rgb(100%,0%,0%)" r="0.7" /><circle cx="324.041707639" cy="458.255901363" fill="rgb(100%,0%,0%)" r="0.7" /><circle cx="326.734776686" cy="459.577826757" fill="rgb(100%,0%,0%)" r="0.7" /><circle cx="329.426224704" cy="460.902996659" fill="rgb(100%,0%,0%)" r="0.7" /><circle cx="332.116096819" cy="462.231391543" fill="rgb(100%,0%,0%)" r="0.7" /><circle cx="334.804379801" cy="463.562990588" fill="rgb(100%,0%,0%)" r="0.7" /><circle cx="337.49106388" cy="464.897809489" fill="rgb(100%,0%,0%)" r="0.7" /><circle cx="340.176111327" cy="466.235898153" fill="rgb(100%,0%,0%)" r="0.7" /><circle cx="342.859475769" cy="467.577375893" fill="rgb(100%,0%,0%)" r="0.7" /><circle cx="345.541045726" cy="468.922460086" fill="rgb(100%,0%,0%)" r="0.7" /><circle cx="348.220560063" cy="470.271586885" fill="rgb(100%,0%,0%)" r="0.7" /><circle cx="350.895856075" cy="471.628937379" fill="rgb(100%,0%,0%)" r="0.7" /><circle cx="353.534279339" cy="473.056729345" fill="rgb(100%,0%,0%)" r="0.7" /><circle cx="356.15427288" cy="474.518074909" fill="rgb(100%,0%,0%)" r="0.7" /><circle cx="358.756820341" cy="476.010280213" fill="rgb(100%,0%,0%)" r="0.7" /><circle cx="361.342809893" cy="477.530988816" fill="rgb(100%,0%,0%)" r="0.7" /><circle cx="363.913073063" cy="479.078145039" fill="rgb(100%,0%,0%)" r="0.7" /><circle cx="366.468349547" cy="480.649924816" fill="rgb(100%,0%,0%)" r="0.7" /><circle cx="369.009328604" cy="482.244720484" fill="rgb(100%,0%,0%)" r="0.7" /><circle cx="371.536634075" cy="483.861098798" fill="rgb(100%,0%,0%)" r="0.7" /><circle cx="374.050839042" cy="485.497782535" fill="rgb(100%,0%,0%)" r="0.7" /><circle cx="376.552466948" cy="487.15362829" fill="rgb(100%,0%,0%)" r="0.7" /><circle cx="379.04199369" cy="488.827608504" fill="rgb(100%,0%,0%)" r="0.7" /><circle cx="381.519862951" cy="490.518805594" fill="rgb(100%,0%,0%)" r="0.7" /><circle cx="383.986469179" cy="492.22638689" fill="rgb(100%,0%,0%)" r="0.7" /><circle cx="386.442175805" cy="493.949605557" fill="rgb(100%,0%,0%)" r="0.7" /><circle cx="388.88731011" cy="495.687787691" fill="rgb(100%,0%,0%)" r="0.7" /><circle cx="391.322177755" cy="497.440335009" fill="rgb(100%,0%,0%)" r="0.7" /><circle cx="393.747036358" cy="499.206699848" fill="rgb(100%,0%,0%)" r="0.7" /><circle cx="396.162116032" cy="500.986395127" fill="rgb(100%,0%,0%)" r="0.7" /><circle cx="398.567635713" cy="502.779003796" fill="rgb(100%,0%,0%)" r="0.7" /><circle cx="400.963773913" cy="504.58415631" fill="rgb(100%,0%,0%)" r="0.7" /><circle cx="403.350645326" cy="506.401513252" fill="rgb(100%,0%,0%)" r="0.7" /><circle cx="405.728383753" cy="508.230831795" fill="rgb(100%,0%,0%)" r="0.7" /><circle cx="408.09702108" cy="510.071880486" fill="rgb(100%,0%,0%)" r="0.7" /><circle cx="410.45661171" cy="511.924547506" fill="rgb(100%,0%,0%)" r="0.7" /><circle cx="412.807090567" cy="513.788751184" fill="rgb(100%,0%,0%)" r="0.7" /><circle cx="415.148327351" cy="515.664516656" fill="rgb(100%,0%,0%)" r="0.7" /><circle cx="417.480135159" cy="517.5520459" fill="rgb(100%,0%,0%)" r="0.7" /><circle cx="419.802074742" cy="519.451679033" fill="rgb(100%,0%,0%)" r="0.7" /><circle cx="422.113438314" cy="521.364141363" fill="rgb(100%,0%,0%)" r="0.7" /><circle cx="424.412859647" cy="523.290963758" fill="rgb(100%,0%,0%)" r="0.7" /><circle cx="426.696" cy="525.237" fill="rgb(100%,0%,0%)" r="0.7" /><circle cx="274.986948707" cy="300.2569917" fill="rgb(0%,0%,100%)" r="0.7" /><circle cx="277.71237465" cy="301.470600814" fill="rgb(0%,0%,100%)" r="0.7" /><circle cx="279.982030886" cy="303.422628104" fill="rgb(0%,0%,100%)" r="0.7" /><circle cx="282.076171927" cy="305.568570409" fill="rgb(0%,0%,100%)" r="0.7" /><circle cx="284.217988208" cy="307.669194845" fill="rgb(0%,0%,100%)" r="0.7" /><circle cx="286.359804488" cy="309.769819281" fill="rgb(0%,0%,100%)" r="0.7" /><circle cx="288.501620769" cy="311.870443716" fill="rgb(0%,0%,100%)" r="0.7" /><circle cx="290.64343705" cy="313.971068152" fill="rgb(0%,0%,100%)" r="0.7" /><circle cx="292.78525333" cy="316.071692588" fill="rgb(0%,0%,100%)" r="0.7" /><circle cx="294.663827502" cy="318.374828356" fill="rgb(0%,0%,100%)" r="0.7" /><circle cx="295.627263935" cy="321.2062843" fill="rgb(0%,0%,100%)" r="0.7" /><circle cx="295.708516938" cy="324.191188682" fill="rgb(0%,0%,100%)" r="0.7" /><circle cx="294.750597477" cy="327.017002494" fill="rgb(0%,0%,100%)" r="0.7" /><circle cx="292.923171687" cy="329.38273779" fill="rgb(0%,0%,100%)" r="0.7" /><circle cx="290.571315842" cy="331.237010589" fill="rgb(0%,0%,100%)" r="0.7" /><circle cx="287.941441965" cy="332.67567801" fill="rgb(0%,0%,100%)" r="0.7" /><circle cx="285.408279427" cy="334.257953126" fill="rgb(0%,0%,100%)" r="0.7" /><circle cx="283.037721423" cy="336.096255387" fill="rgb(0%,0%,100%)" r="0.7" /><circle cx="280.734615442" cy="338.018439215" fill="rgb(0%,0%,100%)" r="0.7" /><circle cx="278.497715415" cy="340.01729845" fill="rgb(0%,0%,100%)" r="0.7" /><circle cx="276.329846608" cy="342.090810008" fill="rgb(0%,0%,100%)" r="0.7" /><circle cx="274.236050217" cy="344.239083632" fill="rgb(0%,0%,100%)" r="0.7" /><circle cx="272.223187867" cy="346.463332174" fill="rgb(0%,0%,100%)" r="0.7" /><circle cx="270.299859186" cy="348.765412892" fill="rgb(0%,0%,100%)" r="0.7" /><circle cx="268.476545729" cy="351.147435901" fill="rgb(0%,0%,100%)" r="0.7" /><circle cx="266.765753974" cy="353.611466522" fill="rgb(0%,0%,100%)" r="0.7" /><circle cx="265.182238933" cy="356.159086001" fill="rgb(0%,0%,100%)" r="0.7" /><circle cx="263.743135359" cy="358.790894879" fill="rgb(0%,0%,100%)" r="0.7" /><circle cx="262.467974995" cy="361.505831044" fill="rgb(0%,0%,100%)" r="0.7" /><circle cx="261.378432489" cy="364.300321277" fill="rgb(0%,0%,100%)" r="0.7" /><circle cx="260.49762584" cy="367.167330965" fill="rgb(0%,0%,100%)" r="0.7" /><circle cx="259.848812361" cy="370.095446764" fill="rgb(0%,0%,100%)" r="0.7" /><circle cx="259.453397666" cy="373.068287478" fill="rgb(0%,0%,100%)" r="0.7" /><circle cx="259.328412653" cy="376.064613132" fill="rgb(0%,0%,100%)" r="0.7" /><circle cx="259.483946422" cy="379.059461985" fill="rgb(0%,0%,100%)" r="0.7" /><circle cx="259.861307061" cy="382.033135235" fill="rgb(0%,0%,100%)" r="0.7" /><circle cx="260.916713272" cy="384.832174783" fill="rgb(0%,0%,100%)" r="0.7" /><circle cx="262.501218667" cy="387.376326807" fill="rgb(0%,0%,100%)" r="0.7" /><circle cx="264.388204289" cy="389.706851148" fill="rgb(0%,0%,100%)" r="0.7" /><circle cx="266.474395542" cy="391.861710831" fill="rgb(0%,0%,100%)" r="0.7" /><circle cx="268.701845819" cy="393.870633537" fill="rgb(0%,0%,100%)" r="0.7" /><circle cx="271.034601568" cy="395.756496742" fill="rgb(0%,0%,100%)" r="0.7" /><circle cx="273.448802784" cy="397.537050058" fill="rgb(0%,0%,100%)" r="0.7" /><circle cx="275.927840357" cy="399.226296423" fill="rgb(0%,0%,100%)" r="0.7" /><circle cx="278.459636643" cy="400.835418428" fill="rgb(0%,0%,100%)" r="0.7" /><circle cx="281.035221517" cy="402.373548687" fill="rgb(0%,0%,100%)" r="0.7" /><circle cx="283.647690321" cy="403.848200076" fill="rgb(0%,0%,100%)" r="0.7" /><circle cx="286.291649215" cy="405.265656891" fill="rgb(0%,0%,100%)" r="0.7" /><circle cx="288.962780856" cy="406.631220438" fill="rgb(0%,0%,100%)" r="0.7" /><circle cx="291.657615708" cy="407.949430414" fill="rgb(0%,0%,100%)" r="0.7" /><circle cx="294.373282597" cy="409.224185601" fill="rgb(0%,0%,100%)" r="0.7" /><circle cx="297.107401884" cy="410.458875714" fill="rgb(0%,0%,100%)" r="0.7" /><circle cx="299.771598143" cy="411.834850164" fill="rgb(0%,0%,100%)" r="0.7" /><circle cx="302.410579066" cy="413.261731604" fill="rgb(0%,0%,100%)" r="0.7" /><circle cx="305.045704117" cy="414.695537692" fill="rgb(0%,0%,100%)" r="0.7" /><circle cx="307.677646273" cy="416.135355583" fill="rgb(0%,0%,100%)" r="0.7" /><circle cx="310.306543743" cy="417.580613603" fill="rgb(0%,0%,100%)" r="0.7" /><circle cx="312.932613563" cy="419.031046495" fill="rgb(0%,0%,100%)" r="0.7" /><circle cx="315.555928282" cy="420.486451208" fill="rgb(0%,0%,100%)" r="0.7" /><circle cx="318.176589408" cy="421.946728367" fill="rgb(0%,0%,100%)" r="0.7" /><circle cx="320.794515221" cy="423.411735806" fill="rgb(0%,0%,100%)" r="0.7" /><circle cx="323.409820708" cy="424.881484363" fill="rgb(0%,0%,100%)" r="0.7" /><circle cx="326.022483628" cy="426.355941531" fill="rgb(0%,0%,100%)" r="0.7" /><circle cx="328.63249141" cy="427.835106889" fill="rgb(0%,0%,100%)" r="0.7" /><circle cx="331.239801892" cy="429.318985589" fill="rgb(0%,0%,100%)" r="0.7" /><circle cx="333.844435506" cy="430.807637911" fill="rgb(0%,0%,100%)" r="0.7" /><circle cx="336.446265305" cy="432.301057291" fill="rgb(0%,0%,100%)" r="0.7" /><circle cx="339.045329981" cy="433.799348009" fill="rgb(0%,0%,100%)" r="0.7" /><circle cx="341.641571343" cy="435.302574084" fill="rgb(0%,0%,100%)" r="0.7" /><circle cx="344.234863483" cy="436.810774571" fill="rgb(0%,0%,100%)" r="0.7" /><circle cx="346.825216942" cy="438.324082015" fill="rgb(0%,0%,100%)" r="0.7" /><circle cx="349.412529466" cy="439.842577685" fill="rgb(0%,0%,100%)" r="0.7" /><circle cx="351.996720289" cy="441.366369681" fill="rgb(0%,0%,100%)" r="0.7" /><circle cx="354.577714527" cy="442.895584386" fill="rgb(0%,0%,100%)" r="0.7" /><circle cx="357.155413762" cy="444.430349625" fill="rgb(0%,0%,100%)" r="0.7" /><circle cx="359.729706063" cy="445.970801123" fill="rgb(0%,0%,100%)" r="0.7" /><circle cx="362.300495009" cy="447.517100773" fill="rgb(0%,0%,100%)" r="0.7" /><circle cx="364.867664939" cy="449.069416968" fill="rgb(0%,0%,100%)" r="0.7" /><circle cx="367.431074365" cy="450.627921653" fill="rgb(0%,0%,100%)" r="0.7" /><circle cx="369.990586911" cy="452.19281043" fill="rgb(0%,0%,100%)" r="0.7" /><circle cx="372.546057462" cy="453.764295931" fill="rgb(0%,0%,100%)" r="0.7" /><circle cx="375.097321511" cy="455.342603154" fill="rgb(0%,0%,100%)" r="0.7" /><circle cx="377.644201551" cy="456.927975509" fill="rgb(0%,0%,100%)" r="0.7" /><circle cx="380.186505197" cy="458.520676155" fill="rgb(0%,0%,100%)" r="0.7" /><circle cx="382.724023375" cy="460.120989744" fill="rgb(0%,0%,100%)" r="0.7" /><circle cx="385.256528424" cy="461.729224536" fill="rgb(0%,0%,100%)" r="0.7" /><circle cx="387.78377195" cy="463.345714859" fill="rgb(0%,0%,100%)" r="0.7" /><circle cx="390.305482264" cy="464.970823896" fill="rgb(0%,0%,100%)" r="0.7" /><circle cx="392.821361224" cy="466.604946799" fill="rgb(0%,0%,100%)" r="0.7" /><circle cx="395.33108028" cy="468.248514112" fill="rgb(0%,0%,100%)" r="0.7" /><circle cx="397.834275483" cy="469.901995516" fill="rgb(0%,0%,100%)" r="0.7" /><circle cx="400.330541169" cy="471.565903881" fill="rgb(0%,0%,100%)" r="0.7" /><circle cx="402.819457594" cy="473.240823731" fill="rgb(0%,0%,100%)" r="0.7" /><circle cx="405.300497829" cy="474.927360443" fill="rgb(0%,0%,100%)" r="0.7" /><circle cx="407.77312724" cy="476.626221131" fill="rgb(0%,0%,100%)" r="0.7" /><circle cx="410.236697672" cy="478.338159736" fill="rgb(0%,0%,100%)" r="0.7" /><circle cx="412.690520351" cy="480.064047675" fill="rgb(0%,0%,100%)" r="0.7" /><circle cx="415.133794312" cy="481.804849966" fill="rgb(0%,0%,100%)" r="0.7" /><circle cx="417.5656067" cy="483.561656661" fill="rgb(0%,0%,100%)" r="0.7" /><circle cx="419.98486664" cy="485.335674248" fill="rgb(0%,0%,100%)" r="0.7" /><circle cx="422.390366475" cy="487.128320183" fill="rgb(0%,0%,100%)" r="0.7" /><circle cx="424.780649862" cy="488.941190627" fill="rgb(0%,0%,100%)" r="0.7" /><circle cx="427.154008395" cy="490.776140482" fill="rgb(0%,0%,100%)" r="0.7" /><circle cx="429.508431405" cy="492.635357135" fill="rgb(0%,0%,100%)" r="0.7" /><circle cx="431.841425832" cy="494.521368826" fill="rgb(0%,0%,100%)" r="0.7" /><circle cx="434.149954148" cy="496.437197825" fill="rgb(0%,0%,100%)" r="0.7" /><circle cx="436.430295834" cy="498.386539412" fill="rgb(0%,0%,100%)" r="0.7" /><circle cx="438.677615163" cy="500.373815561" fill="rgb(0%,0%,100%)" r="0.7" /><circle cx="440.885728544" cy="502.404592291" fill="rgb(0%,0%,100%)" r="0.7" /><circle cx="442.091779327" cy="504.100865959" fill="rgb(0%,0%,100%)" r="0.7" /><circle cx="439.091945546" cy="504.132445734" fill="rgb(0%,0%,100%)" r="0.7" /><circle cx="436.092111764" cy="504.164025509" fill="rgb(0%,0%,100%)" r="0.7" /><circle cx="433.092277982" cy="504.195605283" fill="rgb(0%,0%,100%)" r="0.7" /><circle cx="430.092444201" cy="504.227185058" fill="rgb(0%,0%,100%)" r="0.7" /><circle cx="427.092610419" cy="504.258764832" fill="rgb(0%,0%,100%)" r="0.7" /><circle cx="424.092776637" cy="504.290344607" fill="rgb(0%,0%,100%)" r="0.7" /><circle cx="421.092942856" cy="504.321924382" fill="rgb(0%,0%,100%)" r="0.7" /><circle cx="418.159155069" cy="504.397319166" fill="rgb(0%,0%,100%)" r="0.7" /><circle cx="419.296368188" cy="507.173421887" fill="rgb(0%,0%,100%)" r="0.7" /><circle cx="420.433581308" cy="509.949524609" fill="rgb(0%,0%,100%)" r="0.7" /><circle cx="421.570794427" cy="512.725627331" fill="rgb(0%,0%,100%)" r="0.7" /><circle cx="422.708007546" cy="515.501730052" fill="rgb(0%,0%,100%)" r="0.7" /><circle cx="423.845220666" cy="518.277832774" fill="rgb(0%,0%,100%)" r="0.7" /><circle cx="424.982433785" cy="521.053935496" fill="rgb(0%,0%,100%)" r="0.7" /><circle cx="426.119646904" cy="523.830038217" fill="rgb(0%,0%,100%)" r="0.7" /><circle cx="426.696" cy="525.237" fill="rgb(0%,0%,100%)" r="0.7" /></svg>