<?xml version="1.0" encoding="utf-8" ?>
<svg baseProfile="full" height="100%" version="1.1" width="100%" xmlns="http://www.w3.org/2000/svg" xmlns:ev="http://www.w3.org/2001/xml-events" xmlns:xlink="http://www.w3.org/1999/xlink"><defs /><circle cx="316.328923626" cy="294.999770178" fill="rgb(100%,0%,0%)" r="0.7" /><circle cx="313.333426983" cy="295.07834222" fill="rgb(100%,0%,0%)" r="0.7" /><circle cx="310.42371376" cy="295.770698607" fill="rgb(100%,0%,0%)" r="0.7" /><circle cx="308.044442993" cy="297.530412207" fill="rgb(100%,0%,0%)" r="0.7" /><circle cx="306.751363265" cy="300.229251056" fill="rgb(100%,0%,0%)" r="0.7" /><circle cx="306.038760912" cy="303.136549428" fill="rgb(100%,0%,0%)" r="0.7" /><circle cx="306.024228416" cy="306.1292261" fill="rgb(100%,0%,0%)" r="0.7" /><circle cx="306.730204803" cy="309.037506076" fill="rgb(100%,0%,0%)" r="0.7" /><circle cx="308.107479825" cy="311.692997693" fill="rgb(100%,0%,0%)" r="0.7" /><circle cx="309.706052607" cy="314.231506138" fill="rgb(100%,0%,0%)" r="0.7" /><circle cx="311.241433562" cy="316.808750746" fill="rgb(100%,0%,0%)" r="0.7" /><circle cx="312.711156751" cy="319.423972302" fill="rgb(100%,0%,0%)" r="0.7" /><circle cx="314.104431371" cy="322.080667147" fill="rgb(100%,0%,0%)" r="0.7" /><circle cx="315.40229449" cy="324.785173822" fill="rgb(100%,0%,0%)" r="0.7" /><circle cx="316.572590885" cy="327.547093502" fill="rgb(100%,0%,0%)" r="0.7" /><circle cx="317.556947192" cy="330.38013391" fill="rgb(100%,0%,0%)" r="0.7" /><circle cx="318.234019356" cy="333.300235727" fill="rgb(100%,0%,0%)" r="0.7" /><circle cx="318.939955481" cy="336.213169878" fill="rgb(100%,0%,0%)" r="0.7" /><circle cx="319.377850964" cy="339.179958579" fill="rgb(100%,0%,0%)" r="0.7" /><circle cx="319.542612637" cy="342.17437699" fill="rgb(100%,0%,0%)" r="0.7" /><circle cx="319.425758415" cy="345.170938834" fill="rgb(100%,0%,0%)" r="0.7" /><circle cx="319.011339289" cy="348.14083954" fill="rgb(100%,0%,0%)" r="0.7" /><circle cx="318.284274519" cy="351.049856964" fill="rgb(100%,0%,0%)" r="0.7" /><circle cx="317.236333446" cy="353.859129128" fill="rgb(100%,0%,0%)" r="0.7" /><circle cx="315.870890827" cy="356.528463771" fill="rgb(100%,0%,0%)" r="0.7" /><circle cx="314.205170512" cy="359.02153936" fill="rgb(100%,0%,0%)" r="0.7" /><circle cx="312.374173497" cy="361.397723198" fill="rgb(100%,0%,0%)" r="0.7" /><circle cx="310.45401342" cy="363.70247519" fill="rgb(100%,0%,0%)" r="0.7" /><circle cx="308.447345961" cy="365.932313989" fill="rgb(100%,0%,0%)" r="0.7" /><circle cx="306.352316974" cy="368.079286326" fill="rgb(100%,0%,0%)" r="0.7" /><circle cx="304.161264654" cy="370.128057031" fill="rgb(100%,0%,0%)" r="0.7" /><circle cx="301.862289226" cy="372.054720947" fill="rgb(100%,0%,0%)" r="0.7" /><circle cx="299.43948474" cy="373.822704853" fill="rgb(100%,0%,0%)" r="0.7" /><circle cx="300.178054307" cy="373.90754869" fill="rgb(100%,0%,0%)" r="0.7" /><circle cx="303.034120284" cy="372.989459842" fill="rgb(100%,0%,0%)" r="0.7" /><circle cx="305.890186262" cy="372.071370994" fill="rgb(100%,0%,0%)" r="0.7" /><circle cx="308.746252239" cy="371.153282147" fill="rgb(100%,0%,0%)" r="0.7" /><circle cx="310.28147179" cy="371.709101773" fill="rgb(100%,0%,0%)" r="0.7" /><circle cx="309.680778333" cy="374.648347828" fill="rgb(100%,0%,0%)" r="0.7" /><circle cx="309.080084877" cy="377.587593883" fill="rgb(100%,0%,0%)" r="0.7" /><circle cx="308.47939142" cy="380.526839938" fill="rgb(100%,0%,0%)" r="0.7" /><circle cx="307.878697964" cy="383.466085992" fill="rgb(100%,0%,0%)" r="0.7" /><circle cx="307.574" cy="384.957" fill="rgb(100%,0%,0%)" r="0.7" /><circle cx="316.328923626" cy="294.999770178" fill="rgb(0%,0%,100%)" r="0.7" /><circle cx="318.906084568" cy="296.391188706" fill="rgb(0%,0%,100%)" r="0.7" /><circle cx="319.814545521" cy="299.152379819" fill="rgb(0%,0%,100%)" r="0.7" /><circle cx="318.905343483" cy="301.998057461" fill="rgb(0%,0%,100%)" r="0.7" /><circle cx="318.663901403" cy="304.944211312" fill="rgb(0%,0%,100%)" r="0.7" /><circle cx="320.449250133" cy="307.299224105" fill="rgb(0%,0%,100%)" r="0.7" /><circle cx="322.257944226" cy="309.692247712" fill="rgb(0%,0%,100%)" r="0.7" /><circle cx="323.936556757" cy="312.178234114" fill="rgb(0%,0%,100%)" r="0.7" /><circle cx="325.471099555" cy="314.755530565" fill="rgb(0%,0%,100%)" r="0.7" /><circle cx="326.847574366" cy="317.420583358" fill="rgb(0%,0%,100%)" r="0.7" /><circle cx="328.052452759" cy="320.167418204" fill="rgb(0%,0%,100%)" r="0.7" /><circle cx="329.073541228" cy="322.987704783" fill="rgb(0%,0%,100%)" r="0.7" /><circle cx="329.900751139" cy="325.870790218" fill="rgb(0%,0%,100%)" r="0.7" /><circle cx="330.526856424" cy="328.804111474" fill="rgb(0%,0%,100%)" r="0.7" /><circle cx="330.948026229" cy="331.77379594" fill="rgb(0%,0%,100%)" r="0.7" /><circle cx="331.164054765" cy="334.765423545" fill="rgb(0%,0%,100%)" r="0.7" /><circle cx="331.178243436" cy="337.764838426" fill="rgb(0%,0%,100%)" r="0.7" /><circle cx="330.996967436" cy="340.758841405" fill="rgb(0%,0%,100%)" r="0.7" /><circle cx="330.629027344" cy="343.735726166" fill="rgb(0%,0%,100%)" r="0.7" /><circle cx="330.084911038" cy="346.685547808" fill="rgb(0%,0%,100%)" r="0.7" /><circle cx="329.376072549" cy="349.600220596" fill="rgb(0%,0%,100%)" r="0.7" /><circle cx="328.514303933" cy="352.47344106" fill="rgb(0%,0%,100%)" r="0.7" /><circle cx="327.511245721" cy="355.300482126" fill="rgb(0%,0%,100%)" r="0.7" /><circle cx="326.378031867" cy="358.077948571" fill="rgb(0%,0%,100%)" r="0.7" /><circle cx="325.125054432" cy="360.803516666" fill="rgb(0%,0%,100%)" r="0.7" /><circle cx="323.761824783" cy="363.475677515" fill="rgb(0%,0%,100%)" r="0.7" /><circle cx="322.296904744" cy="366.093495529" fill="rgb(0%,0%,100%)" r="0.7" /><circle cx="320.737874155" cy="368.656396" fill="rgb(0%,0%,100%)" r="0.7" /><circle cx="319.091301362" cy="371.163981611" fill="rgb(0%,0%,100%)" r="0.7" /><circle cx="317.362743876" cy="373.615778086" fill="rgb(0%,0%,100%)" r="0.7" /><circle cx="315.556638791" cy="376.011034077" fill="rgb(0%,0%,100%)" r="0.7" /><circle cx="313.676129738" cy="378.34831183" fill="rgb(0%,0%,100%)" r="0.7" /><circle cx="311.722490506" cy="380.624849147" fill="rgb(0%,0%,100%)" r="0.7" /><circle cx="309.693622157" cy="382.834561752" fill="rgb(0%,0%,100%)" r="0.7" /><circle cx="307.574" cy="384.957" fill="rgb(0%,0%,100%)" r="0.7" /></svg>