<?xml version="1.0" encoding="utf-8" ?>
<svg baseProfile="full" height="100%" version="1.1" width="100%" xmlns="http://www.w3.org/2000/svg" xmlns:ev="http://www.w3.org/2001/xml-events" xmlns:xlink="http://www.w3.org/1999/xlink"><defs /><circle cx="310.060026852" cy="316.954397476" fill="rgb(100%,0%,0%)" r="0.7" /><circle cx="307.072086211" cy="317.141733483" fill="rgb(100%,0%,0%)" r="0.7" /><circle cx="304.099492223" cy="317.545854493" fill="rgb(100%,0%,0%)" r="0.7" /><circle cx="301.138750235" cy="318.028809613" fill="rgb(100%,0%,0%)" r="0.7" /><circle cx="298.203343655" cy="318.645452954" fill="rgb(100%,0%,0%)" r="0.7" /><circle cx="295.424399634" cy="319.719584323" fill="rgb(100%,0%,0%)" r="0.7" /><circle cx="293.72058685" cy="322.15804378" fill="rgb(100%,0%,0%)" r="0.7" /><circle cx="292.793545057" cy="325.00517236" fill="rgb(100%,0%,0%)" r="0.7" /><circle cx="292.358949814" cy="327.9712731" fill="rgb(100%,0%,0%)" r="0.7" /><circle cx="292.257299227" cy="330.968465944" fill="rgb(100%,0%,0%)" r="0.7" /><circle cx="292.397269911" cy="333.964590473" fill="rgb(100%,0%,0%)" r="0.7" /><circle cx="292.747367958" cy="336.94358315" fill="rgb(100%,0%,0%)" r="0.7" /><circle cx="293.076039218" cy="339.925480484" fill="rgb(100%,0%,0%)" r="0.7" /><circle cx="293.35608808" cy="342.912354553" fill="rgb(100%,0%,0%)" r="0.7" /><circle cx="293.589824939" cy="345.903211082" fill="rgb(100%,0%,0%)" r="0.7" /><circle cx="293.776515273" cy="348.897363233" fill="rgb(100%,0%,0%)" r="0.7" /><circle cx="293.913797825" cy="351.894180898" fill="rgb(100%,0%,0%)" r="0.7" /><circle cx="293.998007959" cy="354.892957755" fill="rgb(100%,0%,0%)" r="0.7" /><circle cx="294.02416778" cy="357.892795396" fill="rgb(100%,0%,0%)" r="0.7" /><circle cx="293.985790311" cy="360.892484545" fill="rgb(100%,0%,0%)" r="0.7" /><circle cx="293.874511418" cy="363.890336983" fill="rgb(100%,0%,0%)" r="0.7" /><circle cx="293.679508643" cy="366.883879895" fill="rgb(100%,0%,0%)" r="0.7" /><circle cx="293.38661094" cy="369.869389145" fill="rgb(100%,0%,0%)" r="0.7" /><circle cx="292.976928877" cy="372.841051565" fill="rgb(100%,0%,0%)" r="0.7" /><circle cx="292.424715557" cy="375.789424531" fill="rgb(100%,0%,0%)" r="0.7" /><circle cx="291.98347068" cy="378.206559406" fill="rgb(100%,0%,0%)" r="0.7" /><circle cx="294.104944105" cy="376.085392155" fill="rgb(100%,0%,0%)" r="0.7" /><circle cx="296.22641753" cy="373.964224903" fill="rgb(100%,0%,0%)" r="0.7" /><circle cx="298.347890954" cy="371.843057652" fill="rgb(100%,0%,0%)" r="0.7" /><circle cx="299.385681746" cy="373.888548102" fill="rgb(100%,0%,0%)" r="0.7" /><circle cx="300.204872235" cy="376.774536138" fill="rgb(100%,0%,0%)" r="0.7" /><circle cx="301.024062723" cy="379.660524174" fill="rgb(100%,0%,0%)" r="0.7" /><circle cx="301.843253212" cy="382.54651221" fill="rgb(100%,0%,0%)" r="0.7" /><circle cx="302.6624437" cy="385.432500245" fill="rgb(100%,0%,0%)" r="0.7" /><circle cx="303.481634189" cy="388.318488281" fill="rgb(100%,0%,0%)" r="0.7" /><circle cx="304.014" cy="390.194" fill="rgb(100%,0%,0%)" r="0.7" /><circle cx="310.060026852" cy="316.954397476" fill="rgb(0%,0%,100%)" r="0.7" /><circle cx="312.895574165" cy="317.845995051" fill="rgb(0%,0%,100%)" r="0.7" /><circle cx="315.010240294" cy="319.93921109" fill="rgb(0%,0%,100%)" r="0.7" /><circle cx="316.256940484" cy="322.657047112" fill="rgb(0%,0%,100%)" r="0.7" /><circle cx="316.858202805" cy="325.591693142" fill="rgb(0%,0%,100%)" r="0.7" /><circle cx="317.129782096" cy="328.574884687" fill="rgb(0%,0%,100%)" r="0.7" /><circle cx="316.497999502" cy="331.485186804" fill="rgb(0%,0%,100%)" r="0.7" /><circle cx="314.838121128" cy="333.968784502" fill="rgb(0%,0%,100%)" r="0.7" /><circle cx="312.585773038" cy="335.941971912" fill="rgb(0%,0%,100%)" r="0.7" /><circle cx="310.014092133" cy="337.480786059" fill="rgb(0%,0%,100%)" r="0.7" /><circle cx="308.984321896" cy="339.73359193" fill="rgb(0%,0%,100%)" r="0.7" /><circle cx="309.149664392" cy="342.728986437" fill="rgb(0%,0%,100%)" r="0.7" /><circle cx="309.260514462" cy="345.726898686" fill="rgb(0%,0%,100%)" r="0.7" /><circle cx="309.315863173" cy="348.726349434" fill="rgb(0%,0%,100%)" r="0.7" /><circle cx="309.314638477" cy="351.726300048" fill="rgb(0%,0%,100%)" r="0.7" /><circle cx="309.255685949" cy="354.725677176" fill="rgb(0%,0%,100%)" r="0.7" /><circle cx="309.137744182" cy="357.723299329" fill="rgb(0%,0%,100%)" r="0.7" /><circle cx="308.959408568" cy="360.717945623" fill="rgb(0%,0%,100%)" r="0.7" /><circle cx="308.719086682" cy="363.70825307" fill="rgb(0%,0%,100%)" r="0.7" /><circle cx="308.414929064" cy="366.692733445" fill="rgb(0%,0%,100%)" r="0.7" /><circle cx="308.044725344" cy="369.669743552" fill="rgb(0%,0%,100%)" r="0.7" /><circle cx="307.605748804" cy="372.637383078" fill="rgb(0%,0%,100%)" r="0.7" /><circle cx="307.094486298" cy="375.593416831" fill="rgb(0%,0%,100%)" r="0.7" /><circle cx="306.506149509" cy="378.535066926" fill="rgb(0%,0%,100%)" r="0.7" /><circle cx="305.833644867" cy="381.458600629" fill="rgb(0%,0%,100%)" r="0.7" /><circle cx="305.064843046" cy="384.358248353" fill="rgb(0%,0%,100%)" r="0.7" /><circle cx="304.169863711" cy="387.221231894" fill="rgb(0%,0%,100%)" r="0.7" /><circle cx="304.014" cy="390.194" fill="rgb(0%,0%,100%)" r="0.7" /></svg>