<?xml version="1.0" encoding="utf-8" ?>
<svg baseProfile="full" height="100%" version="1.1" width="100%" xmlns="http://www.w3.org/2000/svg" xmlns:ev="http://www.w3.org/2001/xml-events" xmlns:xlink="http://www.w3.org/1999/xlink"><defs /><circle cx="307.617896877" cy="321.595637363" fill="rgb(100%,0%,0%)" r="0.7" /><circle cx="304.624512808" cy="321.615698477" fill="rgb(100%,0%,0%)" r="0.7" /><circle cx="301.779508236" cy="322.539321827" fill="rgb(100%,0%,0%)" r="0.7" /><circle cx="299.202487274" cy="324.063331314" fill="rgb(100%,0%,0%)" r="0.7" /><circle cx="297.064747679" cy="326.155920787" fill="rgb(100%,0%,0%)" r="0.7" /><circle cx="295.574944255" cy="328.748413819" fill="rgb(100%,0%,0%)" r="0.7" /><circle cx="294.833672501" cy="331.647043413" fill="rgb(100%,0%,0%)" r="0.7" /><circle cx="295.671902651" cy="334.480002181" fill="rgb(100%,0%,0%)" r="0.7" /><circle cx="296.067616727" cy="337.392077922" fill="rgb(100%,0%,0%)" r="0.7" /><circle cx="295.679337622" cy="340.365681862" fill="rgb(100%,0%,0%)" r="0.7" /><circle cx="295.045181706" cy="343.297198243" fill="rgb(100%,0%,0%)" r="0.7" /><circle cx="294.21182652" cy="346.178594191" fill="rgb(100%,0%,0%)" r="0.7" /><circle cx="293.20586656" cy="349.004473287" fill="rgb(100%,0%,0%)" r="0.7" /><circle cx="292.046368486" cy="351.770974319" fill="rgb(100%,0%,0%)" r="0.7" /><circle cx="290.74852663" cy="354.475372422" fill="rgb(100%,0%,0%)" r="0.7" /><circle cx="289.325129715" cy="357.115900807" fill="rgb(100%,0%,0%)" r="0.7" /><circle cx="287.787315251" cy="359.691521513" fill="rgb(100%,0%,0%)" r="0.7" /><circle cx="286.144964976" cy="362.201805393" fill="rgb(100%,0%,0%)" r="0.7" /><circle cx="284.406939983" cy="364.646829547" fill="rgb(100%,0%,0%)" r="0.7" /><circle cx="282.581200023" cy="367.027129003" fill="rgb(100%,0%,0%)" r="0.7" /><circle cx="280.675000682" cy="369.343498445" fill="rgb(100%,0%,0%)" r="0.7" /><circle cx="278.694899077" cy="371.597030848" fill="rgb(100%,0%,0%)" r="0.7" /><circle cx="276.646851578" cy="373.789016366" fill="rgb(100%,0%,0%)" r="0.7" /><circle cx="274.536273438" cy="375.920891329" fill="rgb(100%,0%,0%)" r="0.7" /><circle cx="272.368106868" cy="377.99418102" fill="rgb(100%,0%,0%)" r="0.7" /><circle cx="270.146847255" cy="380.010486379" fill="rgb(100%,0%,0%)" r="0.7" /><circle cx="267.876573864" cy="381.971463404" fill="rgb(100%,0%,0%)" r="0.7" /><circle cx="265.561012792" cy="383.878776764" fill="rgb(100%,0%,0%)" r="0.7" /><circle cx="263.203582187" cy="385.734075151" fill="rgb(100%,0%,0%)" r="0.7" /><circle cx="260.807373856" cy="387.539016735" fill="rgb(100%,0%,0%)" r="0.7" /><circle cx="258.375210182" cy="389.295232919" fill="rgb(100%,0%,0%)" r="0.7" /><circle cx="255.909690773" cy="391.004305778" fill="rgb(100%,0%,0%)" r="0.7" /><circle cx="258.388809704" cy="390.38815696" fill="rgb(100%,0%,0%)" r="0.7" /><circle cx="261.278382086" cy="389.581700856" fill="rgb(100%,0%,0%)" r="0.7" /><circle cx="264.167954469" cy="388.775244752" fill="rgb(100%,0%,0%)" r="0.7" /><circle cx="267.057526851" cy="387.968788647" fill="rgb(100%,0%,0%)" r="0.7" /><circle cx="266.663329764" cy="390.568270691" fill="rgb(100%,0%,0%)" r="0.7" /><circle cx="265.962916023" cy="393.485361809" fill="rgb(100%,0%,0%)" r="0.7" /><circle cx="265.262502282" cy="396.402452927" fill="rgb(100%,0%,0%)" r="0.7" /><circle cx="264.562088541" cy="399.319544045" fill="rgb(100%,0%,0%)" r="0.7" /><circle cx="264.07" cy="401.369" fill="rgb(100%,0%,0%)" r="0.7" /><circle cx="307.617896877" cy="321.595637363" fill="rgb(0%,0%,100%)" r="0.7" /><circle cx="310.355424271" cy="322.700602489" fill="rgb(0%,0%,100%)" r="0.7" /><circle cx="311.382561091" cy="325.419681118" fill="rgb(0%,0%,100%)" r="0.7" /><circle cx="310.825904107" cy="328.355826844" fill="rgb(0%,0%,100%)" r="0.7" /><circle cx="310.407673042" cy="331.326520447" fill="rgb(0%,0%,100%)" r="0.7" /><circle cx="310.016411966" cy="334.3008881" fill="rgb(0%,0%,100%)" r="0.7" /><circle cx="309.652779443" cy="337.278757275" fill="rgb(0%,0%,100%)" r="0.7" /><circle cx="309.320360114" cy="340.260204688" fill="rgb(0%,0%,100%)" r="0.7" /><circle cx="308.751503441" cy="343.205320573" fill="rgb(0%,0%,100%)" r="0.7" /><circle cx="308.016758667" cy="346.113586095" fill="rgb(0%,0%,100%)" r="0.7" /><circle cx="307.135626678" cy="348.980967945" fill="rgb(0%,0%,100%)" r="0.7" /><circle cx="306.124455725" cy="351.805171109" fill="rgb(0%,0%,100%)" r="0.7" /><circle cx="304.996712998" cy="354.584920255" fill="rgb(0%,0%,100%)" r="0.7" /><circle cx="303.7632346" cy="357.319425186" fill="rgb(0%,0%,100%)" r="0.7" /><circle cx="302.43236419" cy="360.007891943" fill="rgb(0%,0%,100%)" r="0.7" /><circle cx="301.009795992" cy="362.648995616" fill="rgb(0%,0%,100%)" r="0.7" /><circle cx="299.497689334" cy="365.239872163" fill="rgb(0%,0%,100%)" r="0.7" /><circle cx="297.890468899" cy="367.772773364" fill="rgb(0%,0%,100%)" r="0.7" /><circle cx="296.208818415" cy="370.257008825" fill="rgb(0%,0%,100%)" r="0.7" /><circle cx="294.474094928" cy="372.704459871" fill="rgb(0%,0%,100%)" r="0.7" /><circle cx="292.666103298" cy="375.098308824" fill="rgb(0%,0%,100%)" r="0.7" /><circle cx="290.789537696" cy="377.43880091" fill="rgb(0%,0%,100%)" r="0.7" /><circle cx="288.848707155" cy="379.726289517" fill="rgb(0%,0%,100%)" r="0.7" /><circle cx="286.847525835" cy="381.961190988" fill="rgb(0%,0%,100%)" r="0.7" /><circle cx="284.789540536" cy="384.14390069" fill="rgb(0%,0%,100%)" r="0.7" /><circle cx="282.677912032" cy="386.274759217" fill="rgb(0%,0%,100%)" r="0.7" /><circle cx="280.51541219" cy="388.353985211" fill="rgb(0%,0%,100%)" r="0.7" /><circle cx="278.304430266" cy="390.38157494" fill="rgb(0%,0%,100%)" r="0.7" /><circle cx="276.046904037" cy="392.357222144" fill="rgb(0%,0%,100%)" r="0.7" /><circle cx="273.744272922" cy="394.280114883" fill="rgb(0%,0%,100%)" r="0.7" /><circle cx="271.397306569" cy="396.148629485" fill="rgb(0%,0%,100%)" r="0.7" /><circle cx="269.005725677" cy="397.959660147" fill="rgb(0%,0%,100%)" r="0.7" /><circle cx="266.56707704" cy="399.706765701" fill="rgb(0%,0%,100%)" r="0.7" /><circle cx="264.07" cy="401.369" fill="rgb(0%,0%,100%)" r="0.7" /></svg>