<?xml version="1.0" encoding="utf-8" ?>
<svg baseProfile="full" height="100%" version="1.1" width="100%" xmlns="http://www.w3.org/2000/svg" xmlns:ev="http://www.w3.org/2001/xml-events" xmlns:xlink="http://www.w3.org/1999/xlink"><defs /><circle cx="270.198164312" cy="242.035843137" fill="rgb(100%,0%,0%)" r="0.7" /><circle cx="267.216623997" cy="242.333153683" fill="rgb(100%,0%,0%)" r="0.7" /><circle cx="264.310184941" cy="243.06822911" fill="rgb(100%,0%,0%)" r="0.7" /><circle cx="261.505569197" cy="244.129490683" fill="rgb(100%,0%,0%)" r="0.7" /><circle cx="258.818165683" cy="245.460162091" fill="rgb(100%,0%,0%)" r="0.7" /><circle cx="256.24004265" cy="246.993380232" fill="rgb(100%,0%,0%)" r="0.7" /><circle cx="253.795602578" cy="248.730381267" fill="rgb(100%,0%,0%)" r="0.7" /><circle cx="251.568381334" cy="250.736935275" fill="rgb(100%,0%,0%)" r="0.7" /><circle cx="249.682420137" cy="253.064558033" fill="rgb(100%,0%,0%)" r="0.7" /><circle cx="248.369423088" cy="255.751089262" fill="rgb(100%,0%,0%)" r="0.7" /><circle cx="248.192129959" cy="258.719621406" fill="rgb(100%,0%,0%)" r="0.7" /><circle cx="248.695456399" cy="261.67475712" fill="rgb(100%,0%,0%)" r="0.7" /><circle cx="249.538346713" cy="264.552641331" fill="rgb(100%,0%,0%)" r="0.7" /><circle cx="250.625454766" cy="267.348000422" fill="rgb(100%,0%,0%)" r="0.7" /><circle cx="251.894910833" cy="270.065705403" fill="rgb(100%,0%,0%)" r="0.7" /><circle cx="253.305704103" cy="272.712965287" fill="rgb(100%,0%,0%)" r="0.7" /><circle cx="254.829835222" cy="275.296731744" fill="rgb(100%,0%,0%)" r="0.7" /><circle cx="256.447706671" cy="277.822923608" fill="rgb(100%,0%,0%)" r="0.7" /><circle cx="258.145418325" cy="280.296202861" fill="rgb(100%,0%,0%)" r="0.7" /><circle cx="259.913252648" cy="282.719876262" fill="rgb(100%,0%,0%)" r="0.7" /><circle cx="261.745049462" cy="285.095594123" fill="rgb(100%,0%,0%)" r="0.7" /><circle cx="263.638902483" cy="287.422135226" fill="rgb(100%,0%,0%)" r="0.7" /><circle cx="265.617480423" cy="289.676226024" fill="rgb(100%,0%,0%)" r="0.7" /><circle cx="267.507567976" cy="292.004562042" fill="rgb(100%,0%,0%)" r="0.7" /><circle cx="269.265679771" cy="294.435246408" fill="rgb(100%,0%,0%)" r="0.7" /><circle cx="270.962779874" cy="296.909031862" fill="rgb(100%,0%,0%)" r="0.7" /><circle cx="272.622333562" cy="299.408192515" fill="rgb(100%,0%,0%)" r="0.7" /><circle cx="274.255559839" cy="301.924638232" fill="rgb(100%,0%,0%)" r="0.7" /><circle cx="275.868844356" cy="304.45392484" fill="rgb(100%,0%,0%)" r="0.7" /><circle cx="277.466190217" cy="306.993309849" fill="rgb(100%,0%,0%)" r="0.7" /><circle cx="279.050269064" cy="309.540991459" fill="rgb(100%,0%,0%)" r="0.7" /><circle cx="280.622919289" cy="312.095742656" fill="rgb(100%,0%,0%)" r="0.7" /><circle cx="282.185396561" cy="314.656730459" fill="rgb(100%,0%,0%)" r="0.7" /><circle cx="283.738467364" cy="317.223429909" fill="rgb(100%,0%,0%)" r="0.7" /><circle cx="285.282345628" cy="319.795690098" fill="rgb(100%,0%,0%)" r="0.7" /><circle cx="286.815635593" cy="322.374257544" fill="rgb(100%,0%,0%)" r="0.7" /><circle cx="288.255580975" cy="325.006043044" fill="rgb(100%,0%,0%)" r="0.7" /><circle cx="289.705003685" cy="327.632663531" fill="rgb(100%,0%,0%)" r="0.7" /><circle cx="291.164221443" cy="330.253862233" fill="rgb(100%,0%,0%)" r="0.7" /><circle cx="292.632651677" cy="332.869916876" fill="rgb(100%,0%,0%)" r="0.7" /><circle cx="294.10976314" cy="335.481069851" fill="rgb(100%,0%,0%)" r="0.7" /><circle cx="295.59508456" cy="338.087559674" fill="rgb(100%,0%,0%)" r="0.7" /><circle cx="297.088193111" cy="340.689613651" fill="rgb(100%,0%,0%)" r="0.7" /><circle cx="298.588679394" cy="343.287398448" fill="rgb(100%,0%,0%)" r="0.7" /><circle cx="300.096200432" cy="345.881121871" fill="rgb(100%,0%,0%)" r="0.7" /><circle cx="301.61041961" cy="348.470936826" fill="rgb(100%,0%,0%)" r="0.7" /><circle cx="303.131035393" cy="351.05699818" fill="rgb(100%,0%,0%)" r="0.7" /><circle cx="304.657772845" cy="353.639454002" fill="rgb(100%,0%,0%)" r="0.7" /><circle cx="306.190374283" cy="356.218434937" fill="rgb(100%,0%,0%)" r="0.7" /><circle cx="307.728601544" cy="358.794062639" fill="rgb(100%,0%,0%)" r="0.7" /><circle cx="309.272235599" cy="361.366453035" fill="rgb(100%,0%,0%)" r="0.7" /><circle cx="310.821073523" cy="363.935714634" fill="rgb(100%,0%,0%)" r="0.7" /><circle cx="312.374925637" cy="366.501946807" fill="rgb(100%,0%,0%)" r="0.7" /><circle cx="313.93361534" cy="369.065242171" fill="rgb(100%,0%,0%)" r="0.7" /><circle cx="315.496978854" cy="371.625688486" fill="rgb(100%,0%,0%)" r="0.7" /><circle cx="317.064866792" cy="374.183373215" fill="rgb(100%,0%,0%)" r="0.7" /><circle cx="318.637132245" cy="376.738365903" fill="rgb(100%,0%,0%)" r="0.7" /><circle cx="320.213639713" cy="379.290734431" fill="rgb(100%,0%,0%)" r="0.7" /><circle cx="321.794277052" cy="381.840565593" fill="rgb(100%,0%,0%)" r="0.7" /><circle cx="323.378910559" cy="384.387893846" fill="rgb(100%,0%,0%)" r="0.7" /><circle cx="324.967452042" cy="386.93281049" fill="rgb(100%,0%,0%)" r="0.7" /><circle cx="326.559783827" cy="389.475344049" fill="rgb(100%,0%,0%)" r="0.7" /><circle cx="328.155815371" cy="392.015552024" fill="rgb(100%,0%,0%)" r="0.7" /><circle cx="329.755462666" cy="394.553488451" fill="rgb(100%,0%,0%)" r="0.7" /><circle cx="331.358645861" cy="397.089200742" fill="rgb(100%,0%,0%)" r="0.7" /><circle cx="332.965285961" cy="399.622725038" fill="rgb(100%,0%,0%)" r="0.7" /><circle cx="334.575300302" cy="402.154079602" fill="rgb(100%,0%,0%)" r="0.7" /><circle cx="336.188654467" cy="404.683346583" fill="rgb(100%,0%,0%)" r="0.7" /><circle cx="337.805263524" cy="407.210517047" fill="rgb(100%,0%,0%)" r="0.7" /><circle cx="339.425079658" cy="409.73562868" fill="rgb(100%,0%,0%)" r="0.7" /><circle cx="341.048049247" cy="412.25869836" fill="rgb(100%,0%,0%)" r="0.7" /><circle cx="342.674150089" cy="414.779779779" fill="rgb(100%,0%,0%)" r="0.7" /><circle cx="344.303323859" cy="417.298858166" fill="rgb(100%,0%,0%)" r="0.7" /><circle cx="345.93556083" cy="419.815980958" fill="rgb(100%,0%,0%)" r="0.7" /><circle cx="347.570813318" cy="422.331123016" fill="rgb(100%,0%,0%)" r="0.7" /><circle cx="349.209074256" cy="424.844306535" fill="rgb(100%,0%,0%)" r="0.7" /><circle cx="350.850334586" cy="427.355533409" fill="rgb(100%,0%,0%)" r="0.7" /><circle cx="352.494599963" cy="429.864808289" fill="rgb(100%,0%,0%)" r="0.7" /><circle cx="354.141849413" cy="432.372071997" fill="rgb(100%,0%,0%)" r="0.7" /><circle cx="355.792168207" cy="434.877398541" fill="rgb(100%,0%,0%)" r="0.7" /><circle cx="357.445519824" cy="437.380640825" fill="rgb(100%,0%,0%)" r="0.7" /><circle cx="359.102026962" cy="439.881845554" fill="rgb(100%,0%,0%)" r="0.7" /><circle cx="360.761751363" cy="442.380900578" fill="rgb(100%,0%,0%)" r="0.7" /><circle cx="362.424862413" cy="444.877757102" fill="rgb(100%,0%,0%)" r="0.7" /><circle cx="364.091526025" cy="447.372199709" fill="rgb(100%,0%,0%)" r="0.7" /><circle cx="365.76210805" cy="449.864009524" fill="rgb(100%,0%,0%)" r="0.7" /><circle cx="367.437312198" cy="452.352732312" fill="rgb(100%,0%,0%)" r="0.7" /><circle cx="369.092118284" cy="454.854349123" fill="rgb(100%,0%,0%)" r="0.7" /><circle cx="370.58581617" cy="457.455874921" fill="rgb(100%,0%,0%)" r="0.7" /><circle cx="372.0125304" cy="460.094810661" fill="rgb(100%,0%,0%)" r="0.7" /><circle cx="373.403393234" cy="462.752917764" fill="rgb(100%,0%,0%)" r="0.7" /><circle cx="374.770929243" cy="465.423100888" fill="rgb(100%,0%,0%)" r="0.7" /><circle cx="376.121700639" cy="468.101770453" fill="rgb(100%,0%,0%)" r="0.7" /><circle cx="377.459694955" cy="470.786895172" fill="rgb(100%,0%,0%)" r="0.7" /><circle cx="378.787469787" cy="473.477037892" fill="rgb(100%,0%,0%)" r="0.7" /><circle cx="380.106876318" cy="476.171334991" fill="rgb(100%,0%,0%)" r="0.7" /><circle cx="381.419217212" cy="478.869057763" fill="rgb(100%,0%,0%)" r="0.7" /><circle cx="382.725511995" cy="481.569725316" fill="rgb(100%,0%,0%)" r="0.7" /><circle cx="384.026549946" cy="484.272956244" fill="rgb(100%,0%,0%)" r="0.7" /><circle cx="385.322928812" cy="486.978383576" fill="rgb(100%,0%,0%)" r="0.7" /><circle cx="386.615182261" cy="489.685811367" fill="rgb(100%,0%,0%)" r="0.7" /><circle cx="387.903703529" cy="492.394980742" fill="rgb(100%,0%,0%)" r="0.7" /><circle cx="389.188866387" cy="495.105770417" fill="rgb(100%,0%,0%)" r="0.7" /><circle cx="390.470955875" cy="497.818012999" fill="rgb(100%,0%,0%)" r="0.7" /><circle cx="391.750224954" cy="500.531585695" fill="rgb(100%,0%,0%)" r="0.7" /><circle cx="393.02689506" cy="503.246390247" fill="rgb(100%,0%,0%)" r="0.7" /><circle cx="394.301147776" cy="505.962318712" fill="rgb(100%,0%,0%)" r="0.7" /><circle cx="395.573155603" cy="508.679306119" fill="rgb(100%,0%,0%)" r="0.7" /><circle cx="396.843059536" cy="511.397272584" fill="rgb(100%,0%,0%)" r="0.7" /><circle cx="398.110991689" cy="514.116163545" fill="rgb(100%,0%,0%)" r="0.7" /><circle cx="399.377063927" cy="516.835918934" fill="rgb(100%,0%,0%)" r="0.7" /><circle cx="400.641379349" cy="519.556492512" fill="rgb(100%,0%,0%)" r="0.7" /><circle cx="401.904026789" cy="522.277835733" fill="rgb(100%,0%,0%)" r="0.7" /><circle cx="403.165093829" cy="524.999922225" fill="rgb(100%,0%,0%)" r="0.7" /><circle cx="404.424644453" cy="527.722696641" fill="rgb(100%,0%,0%)" r="0.7" /><circle cx="405.682754922" cy="530.446149697" fill="rgb(100%,0%,0%)" r="0.7" /><circle cx="406.939479517" cy="533.170242147" fill="rgb(100%,0%,0%)" r="0.7" /><circle cx="408.194870193" cy="535.8949456" fill="rgb(100%,0%,0%)" r="0.7" /><circle cx="409.448972793" cy="538.620233008" fill="rgb(100%,0%,0%)" r="0.7" /><circle cx="410.701839399" cy="541.346104493" fill="rgb(100%,0%,0%)" r="0.7" /><circle cx="411.95349366" cy="544.072511154" fill="rgb(100%,0%,0%)" r="0.7" /><circle cx="413.203987241" cy="546.799477427" fill="rgb(100%,0%,0%)" r="0.7" /><circle cx="414.453331027" cy="549.526950985" fill="rgb(100%,0%,0%)" r="0.7" /><circle cx="415.701554952" cy="552.254933254" fill="rgb(100%,0%,0%)" r="0.7" /><circle cx="416.948694376" cy="554.98345039" fill="rgb(100%,0%,0%)" r="0.7" /><circle cx="418.194725186" cy="557.712412283" fill="rgb(100%,0%,0%)" r="0.7" /><circle cx="419.439705373" cy="560.441924393" fill="rgb(100%,0%,0%)" r="0.7" /><circle cx="420.683587486" cy="563.171880158" fill="rgb(100%,0%,0%)" r="0.7" /><circle cx="421.926397006" cy="565.90235735" fill="rgb(100%,0%,0%)" r="0.7" /><circle cx="423.168100622" cy="568.633338718" fill="rgb(100%,0%,0%)" r="0.7" /><circle cx="424.40864752" cy="571.364820628" fill="rgb(100%,0%,0%)" r="0.7" /><circle cx="425.647979974" cy="574.096876423" fill="rgb(100%,0%,0%)" r="0.7" /><circle cx="426.885912275" cy="576.829502034" fill="rgb(100%,0%,0%)" r="0.7" /><circle cx="428.122" cy="579.563" fill="rgb(100%,0%,0%)" r="0.7" /><circle cx="270.198164312" cy="242.035843137" fill="rgb(0%,0%,100%)" r="0.7" /><circle cx="273.175913554" cy="242.339800874" fill="rgb(0%,0%,100%)" r="0.7" /><circle cx="275.968009934" cy="243.407901264" fill="rgb(0%,0%,100%)" r="0.7" /><circle cx="278.322206139" cy="245.249670965" fill="rgb(0%,0%,100%)" r="0.7" /><circle cx="280.243523329" cy="247.552809953" fill="rgb(0%,0%,100%)" r="0.7" /><circle cx="282.139339391" cy="249.877865105" fill="rgb(0%,0%,100%)" r="0.7" /><circle cx="284.035155454" cy="252.202920256" fill="rgb(0%,0%,100%)" r="0.7" /><circle cx="285.930971516" cy="254.527975408" fill="rgb(0%,0%,100%)" r="0.7" /><circle cx="287.826787578" cy="256.853030559" fill="rgb(0%,0%,100%)" r="0.7" /><circle cx="289.722603641" cy="259.178085711" fill="rgb(0%,0%,100%)" r="0.7" /><circle cx="291.618419703" cy="261.503140863" fill="rgb(0%,0%,100%)" r="0.7" /><circle cx="293.514235765" cy="263.828196014" fill="rgb(0%,0%,100%)" r="0.7" /><circle cx="295.300917829" cy="266.231995533" fill="rgb(0%,0%,100%)" r="0.7" /><circle cx="296.494908923" cy="268.978326588" fill="rgb(0%,0%,100%)" r="0.7" /><circle cx="297.150716391" cy="271.901804304" fill="rgb(0%,0%,100%)" r="0.7" /><circle cx="297.314548376" cy="274.894272237" fill="rgb(0%,0%,100%)" r="0.7" /><circle cx="297.509141046" cy="277.832339833" fill="rgb(0%,0%,100%)" r="0.7" /><circle cx="298.684540432" cy="280.59134473" fill="rgb(0%,0%,100%)" r="0.7" /><circle cx="300.129271821" cy="283.218742762" fill="rgb(0%,0%,100%)" r="0.7" /><circle cx="301.922488287" cy="285.619219937" fill="rgb(0%,0%,100%)" r="0.7" /><circle cx="304.20976709" cy="287.542688406" fill="rgb(0%,0%,100%)" r="0.7" /><circle cx="306.749274232" cy="289.099778449" fill="rgb(0%,0%,100%)" r="0.7" /><circle cx="308.897145894" cy="291.190122036" fill="rgb(0%,0%,100%)" r="0.7" /><circle cx="310.671688243" cy="293.603787033" fill="rgb(0%,0%,100%)" r="0.7" /><circle cx="311.901096018" cy="296.332414809" fill="rgb(0%,0%,100%)" r="0.7" /><circle cx="312.723755511" cy="299.209312909" fill="rgb(0%,0%,100%)" r="0.7" /><circle cx="314.371501631" cy="301.695428628" fill="rgb(0%,0%,100%)" r="0.7" /><circle cx="316.967485299" cy="303.108376778" fill="rgb(0%,0%,100%)" r="0.7" /><circle cx="319.522910539" cy="304.564207435" fill="rgb(0%,0%,100%)" r="0.7" /><circle cx="321.640330205" cy="306.682019038" fill="rgb(0%,0%,100%)" r="0.7" /><circle cx="323.165589949" cy="309.25199704" fill="rgb(0%,0%,100%)" r="0.7" /><circle cx="323.673206411" cy="312.186528507" fill="rgb(0%,0%,100%)" r="0.7" /><circle cx="323.699566171" cy="315.121920018" fill="rgb(0%,0%,100%)" r="0.7" /><circle cx="325.492628069" cy="317.505508643" fill="rgb(0%,0%,100%)" r="0.7" /><circle cx="327.223372973" cy="319.955305448" fill="rgb(0%,0%,100%)" r="0.7" /><circle cx="329.101665742" cy="322.293903196" fill="rgb(0%,0%,100%)" r="0.7" /><circle cx="331.138271819" cy="324.495644699" fill="rgb(0%,0%,100%)" r="0.7" /><circle cx="333.3674461" cy="326.501148174" fill="rgb(0%,0%,100%)" r="0.7" /><circle cx="335.826926314" cy="328.215603909" fill="rgb(0%,0%,100%)" r="0.7" /><circle cx="338.20689062" cy="330.039535153" fill="rgb(0%,0%,100%)" r="0.7" /><circle cx="340.36314452" cy="332.122552001" fill="rgb(0%,0%,100%)" r="0.7" /><circle cx="342.189886364" cy="334.497463656" fill="rgb(0%,0%,100%)" r="0.7" /><circle cx="343.460314144" cy="337.205397551" fill="rgb(0%,0%,100%)" r="0.7" /><circle cx="344.046287022" cy="340.102177682" fill="rgb(0%,0%,100%)" r="0.7" /><circle cx="345.69815133" cy="342.606418381" fill="rgb(0%,0%,100%)" r="0.7" /><circle cx="347.384199377" cy="345.087763426" fill="rgb(0%,0%,100%)" r="0.7" /><circle cx="349.114999781" cy="347.53806122" fill="rgb(0%,0%,100%)" r="0.7" /><circle cx="350.923301604" cy="349.931483168" fill="rgb(0%,0%,100%)" r="0.7" /><circle cx="352.73988006" cy="352.317439908" fill="rgb(0%,0%,100%)" r="0.7" /><circle cx="354.444429921" cy="354.78610326" fill="rgb(0%,0%,100%)" r="0.7" /><circle cx="356.120041411" cy="357.274524311" fill="rgb(0%,0%,100%)" r="0.7" /><circle cx="357.779000761" cy="359.774109274" fill="rgb(0%,0%,100%)" r="0.7" /><circle cx="359.425702298" cy="362.281763178" fill="rgb(0%,0%,100%)" r="0.7" /><circle cx="361.062291528" cy="364.796035706" fill="rgb(0%,0%,100%)" r="0.7" /><circle cx="362.689927432" cy="367.316124159" fill="rgb(0%,0%,100%)" r="0.7" /><circle cx="364.309245629" cy="369.841548566" fill="rgb(0%,0%,100%)" r="0.7" /><circle cx="365.920599107" cy="372.372073352" fill="rgb(0%,0%,100%)" r="0.7" /><circle cx="367.524112976" cy="374.907571192" fill="rgb(0%,0%,100%)" r="0.7" /><circle cx="369.119757537" cy="377.448021845" fill="rgb(0%,0%,100%)" r="0.7" /><circle cx="370.707379222" cy="379.993501944" fill="rgb(0%,0%,100%)" r="0.7" /><circle cx="372.286689963" cy="382.544142219" fill="rgb(0%,0%,100%)" r="0.7" /><circle cx="373.857287884" cy="385.100158391" fill="rgb(0%,0%,100%)" r="0.7" /><circle cx="375.418636481" cy="387.661835173" fill="rgb(0%,0%,100%)" r="0.7" /><circle cx="376.970050466" cy="390.229540369" fill="rgb(0%,0%,100%)" r="0.7" /><circle cx="378.510667404" cy="392.80373874" fill="rgb(0%,0%,100%)" r="0.7" /><circle cx="380.0394018" cy="395.385006749" fill="rgb(0%,0%,100%)" r="0.7" /><circle cx="381.554891058" cy="397.974076719" fill="rgb(0%,0%,100%)" r="0.7" /><circle cx="383.055392084" cy="400.571862532" fill="rgb(0%,0%,100%)" r="0.7" /><circle cx="384.538643398" cy="403.179529302" fill="rgb(0%,0%,100%)" r="0.7" /><circle cx="386.001650754" cy="405.798605746" fill="rgb(0%,0%,100%)" r="0.7" /><circle cx="387.440311892" cy="408.431126212" fill="rgb(0%,0%,100%)" r="0.7" /><circle cx="388.848783408" cy="411.079912587" fill="rgb(0%,0%,100%)" r="0.7" /><circle cx="390.218264925" cy="413.749065021" fill="rgb(0%,0%,100%)" r="0.7" /><circle cx="391.541677248" cy="416.441294987" fill="rgb(0%,0%,100%)" r="0.7" /><circle cx="392.858168331" cy="419.136994593" fill="rgb(0%,0%,100%)" r="0.7" /><circle cx="394.176274287" cy="421.831920156" fill="rgb(0%,0%,100%)" r="0.7" /><circle cx="395.495272513" cy="424.526428441" fill="rgb(0%,0%,100%)" r="0.7" /><circle cx="396.814783373" cy="427.220652515" fill="rgb(0%,0%,100%)" r="0.7" /><circle cx="398.134614397" cy="429.914730967" fill="rgb(0%,0%,100%)" r="0.7" /><circle cx="399.454619626" cy="432.608711738" fill="rgb(0%,0%,100%)" r="0.7" /><circle cx="400.774716821" cy="435.302669939" fill="rgb(0%,0%,100%)" r="0.7" /><circle cx="402.094823661" cy="437.996618725" fill="rgb(0%,0%,100%)" r="0.7" /><circle cx="403.414878482" cy="440.690574144" fill="rgb(0%,0%,100%)" r="0.7" /><circle cx="404.734854623" cy="443.384597723" fill="rgb(0%,0%,100%)" r="0.7" /><circle cx="406.054689805" cy="446.078660686" fill="rgb(0%,0%,100%)" r="0.7" /><circle cx="407.374370755" cy="448.772822173" fill="rgb(0%,0%,100%)" r="0.7" /><circle cx="408.693850075" cy="451.467063349" fill="rgb(0%,0%,100%)" r="0.7" /><circle cx="410.013112957" cy="454.161426334" fill="rgb(0%,0%,100%)" r="0.7" /><circle cx="411.332121919" cy="456.855903423" fill="rgb(0%,0%,100%)" r="0.7" /><circle cx="412.650854879" cy="459.550516419" fill="rgb(0%,0%,100%)" r="0.7" /><circle cx="413.969290939" cy="462.245288949" fill="rgb(0%,0%,100%)" r="0.7" /><circle cx="415.287389691" cy="464.940205266" fill="rgb(0%,0%,100%)" r="0.7" /><circle cx="416.605136198" cy="467.635303225" fill="rgb(0%,0%,100%)" r="0.7" /><circle cx="417.922499694" cy="470.330590819" fill="rgb(0%,0%,100%)" r="0.7" /><circle cx="419.239449377" cy="473.026079432" fill="rgb(0%,0%,100%)" r="0.7" /><circle cx="420.555953966" cy="475.721783911" fill="rgb(0%,0%,100%)" r="0.7" /><circle cx="421.871980341" cy="478.417720872" fill="rgb(0%,0%,100%)" r="0.7" /><circle cx="423.187493207" cy="481.113909189" fill="rgb(0%,0%,100%)" r="0.7" /><circle cx="424.502453643" cy="483.810368375" fill="rgb(0%,0%,100%)" r="0.7" /><circle cx="425.816818649" cy="486.507119222" fill="rgb(0%,0%,100%)" r="0.7" /><circle cx="427.130539748" cy="489.204182788" fill="rgb(0%,0%,100%)" r="0.7" /><circle cx="428.443560474" cy="491.901577478" fill="rgb(0%,0%,100%)" r="0.7" /><circle cx="429.755832765" cy="494.599355475" fill="rgb(0%,0%,100%)" r="0.7" /><circle cx="431.06727309" cy="497.297515983" fill="rgb(0%,0%,100%)" r="0.7" /><circle cx="432.377817228" cy="499.996122127" fill="rgb(0%,0%,100%)" r="0.7" /><circle cx="433.687371289" cy="502.695205724" fill="rgb(0%,0%,100%)" r="0.7" /><circle cx="434.995843213" cy="505.394839281" fill="rgb(0%,0%,100%)" r="0.7" /><circle cx="436.303087623" cy="508.09503169" fill="rgb(0%,0%,100%)" r="0.7" /><circle cx="437.608982673" cy="510.795899587" fill="rgb(0%,0%,100%)" r="0.7" /><circle cx="438.913342584" cy="513.497504397" fill="rgb(0%,0%,100%)" r="0.7" /><circle cx="440.215950111" cy="516.199944233" fill="rgb(0%,0%,100%)" r="0.7" /><circle cx="441.516549823" cy="518.903376576" fill="rgb(0%,0%,100%)" r="0.7" /><circle cx="442.814768569" cy="521.607908041" fill="rgb(0%,0%,100%)" r="0.7" /><circle cx="444.110190684" cy="524.313837861" fill="rgb(0%,0%,100%)" r="0.7" /><circle cx="445.402150035" cy="527.021368943" fill="rgb(0%,0%,100%)" r="0.7" /><circle cx="446.689791596" cy="529.730993858" fill="rgb(0%,0%,100%)" r="0.7" /><circle cx="447.971744232" cy="532.443310576" fill="rgb(0%,0%,100%)" r="0.7" /><circle cx="449.24575436" cy="535.15935493" fill="rgb(0%,0%,100%)" r="0.7" /><circle cx="450.50753244" cy="537.88109665" fill="rgb(0%,0%,100%)" r="0.7" /><circle cx="451.746524099" cy="540.613289128" fill="rgb(0%,0%,100%)" r="0.7" /><circle cx="452.945840293" cy="543.362562401" fill="rgb(0%,0%,100%)" r="0.7" /><circle cx="453.902847162" cy="546.204341387" fill="rgb(0%,0%,100%)" r="0.7" /><circle cx="454.646200916" cy="549.110409879" fill="rgb(0%,0%,100%)" r="0.7" /><circle cx="455.259622376" cy="552.046845019" fill="rgb(0%,0%,100%)" r="0.7" /><circle cx="455.777855473" cy="555.001643739" fill="rgb(0%,0%,100%)" r="0.7" /><circle cx="456.220811524" cy="557.968699412" fill="rgb(0%,0%,100%)" r="0.7" /><circle cx="456.60155587" cy="560.944396271" fill="rgb(0%,0%,100%)" r="0.7" /><circle cx="456.929364341" cy="563.926390437" fill="rgb(0%,0%,100%)" r="0.7" /><circle cx="457.211180755" cy="566.913108315" fill="rgb(0%,0%,100%)" r="0.7" /><circle cx="457.452394866" cy="569.90337007" fill="rgb(0%,0%,100%)" r="0.7" /><circle cx="457.657320078" cy="572.896345433" fill="rgb(0%,0%,100%)" r="0.7" /><circle cx="456.892752208" cy="574.576641466" fill="rgb(0%,0%,100%)" r="0.7" /><circle cx="454.114148448" cy="573.445552989" fill="rgb(0%,0%,100%)" r="0.7" /><circle cx="451.335544688" cy="572.314464511" fill="rgb(0%,0%,100%)" r="0.7" /><circle cx="448.556940928" cy="571.183376033" fill="rgb(0%,0%,100%)" r="0.7" /><circle cx="445.778337168" cy="570.052287556" fill="rgb(0%,0%,100%)" r="0.7" /><circle cx="442.999733408" cy="568.921199078" fill="rgb(0%,0%,100%)" r="0.7" /><circle cx="440.221129648" cy="567.790110601" fill="rgb(0%,0%,100%)" r="0.7" /><circle cx="437.550899461" cy="567.051839324" fill="rgb(0%,0%,100%)" r="0.7" /><circle cx="435.74532448" cy="569.447647954" fill="rgb(0%,0%,100%)" r="0.7" /><circle cx="433.939749499" cy="571.843456583" fill="rgb(0%,0%,100%)" r="0.7" /><circle cx="432.134174519" cy="574.239265213" fill="rgb(0%,0%,100%)" r="0.7" /><circle cx="430.328599538" cy="576.635073842" fill="rgb(0%,0%,100%)" r="0.7" /><circle cx="428.523024558" cy="579.030882472" fill="rgb(0%,0%,100%)" r="0.7" /><circle cx="428.122" cy="579.563" fill="rgb(0%,0%,100%)" r="0.7" /></svg>