<?xml version="1.0" encoding="utf-8" ?>
<svg baseProfile="full" height="100%" version="1.1" width="100%" xmlns="http://www.w3.org/2000/svg" xmlns:ev="http://www.w3.org/2001/xml-events" xmlns:xlink="http://www.w3.org/1999/xlink"><defs /><circle cx="338.720154647" cy="299.105443625" fill="rgb(100%,0%,0%)" r="0.7" /><circle cx="337.63745366" cy="299.151648381" fill="rgb(100%,0%,0%)" r="0.7" /><circle cx="335.498751019" cy="301.255442815" fill="rgb(100%,0%,0%)" r="0.7" /><circle cx="333.349675451" cy="303.34863378" fill="rgb(100%,0%,0%)" r="0.7" /><circle cx="331.189995143" cy="305.43088415" fill="rgb(100%,0%,0%)" r="0.7" /><circle cx="329.018553339" cy="307.500864919" fill="rgb(100%,0%,0%)" r="0.7" /><circle cx="326.833367839" cy="309.556327833" fill="rgb(100%,0%,0%)" r="0.7" /><circle cx="324.631323194" cy="311.593712914" fill="rgb(100%,0%,0%)" r="0.7" /><circle cx="322.659355175" cy="313.847324599" fill="rgb(100%,0%,0%)" r="0.7" /><circle cx="320.755022373" cy="316.165411692" fill="rgb(100%,0%,0%)" r="0.7" /><circle cx="318.847683557" cy="318.481017729" fill="rgb(100%,0%,0%)" r="0.7" /><circle cx="316.937255815" cy="320.794085295" fill="rgb(100%,0%,0%)" r="0.7" /><circle cx="315.023442597" cy="323.104347928" fill="rgb(100%,0%,0%)" r="0.7" /><circle cx="313.105734632" cy="325.411381714" fill="rgb(100%,0%,0%)" r="0.7" /><circle cx="311.183364923" cy="327.714532682" fill="rgb(100%,0%,0%)" r="0.7" /><circle cx="309.255155996" cy="330.012792185" fill="rgb(100%,0%,0%)" r="0.7" /><circle cx="307.319183299" cy="332.304523633" fill="rgb(100%,0%,0%)" r="0.7" /><circle cx="305.371996187" cy="334.586720273" fill="rgb(100%,0%,0%)" r="0.7" /><circle cx="303.406037646" cy="336.852758497" fill="rgb(100%,0%,0%)" r="0.7" /><circle cx="301.395620252" cy="339.079274868" fill="rgb(100%,0%,0%)" r="0.7" /><circle cx="299.447301289" cy="341.358380554" fill="rgb(100%,0%,0%)" r="0.7" /><circle cx="297.536183975" cy="343.670880589" fill="rgb(100%,0%,0%)" r="0.7" /><circle cx="295.624800351" cy="345.983157976" fill="rgb(100%,0%,0%)" r="0.7" /><circle cx="293.713141407" cy="348.295207438" fill="rgb(100%,0%,0%)" r="0.7" /><circle cx="291.801178009" cy="350.607006153" fill="rgb(100%,0%,0%)" r="0.7" /><circle cx="289.888863958" cy="352.918513845" fill="rgb(100%,0%,0%)" r="0.7" /><circle cx="287.976127565" cy="355.22967045" fill="rgb(100%,0%,0%)" r="0.7" /><circle cx="286.062856034" cy="357.540384836" fill="rgb(100%,0%,0%)" r="0.7" /><circle cx="284.148866595" cy="359.850502478" fill="rgb(100%,0%,0%)" r="0.7" /><circle cx="282.233813261" cy="362.159746754" fill="rgb(100%,0%,0%)" r="0.7" /><circle cx="280.316928086" cy="364.467455658" fill="rgb(100%,0%,0%)" r="0.7" /><circle cx="278.395108551" cy="366.771080222" fill="rgb(100%,0%,0%)" r="0.7" /><circle cx="276.196332254" cy="368.806388972" fill="rgb(100%,0%,0%)" r="0.7" /><circle cx="273.799939472" cy="370.609500907" fill="rgb(100%,0%,0%)" r="0.7" /><circle cx="271.237327195" cy="372.166373212" fill="rgb(100%,0%,0%)" r="0.7" /><circle cx="268.49652283" cy="373.379147774" fill="rgb(100%,0%,0%)" r="0.7" /><circle cx="265.583563119" cy="374.07076659" fill="rgb(100%,0%,0%)" r="0.7" /><circle cx="262.597367961" cy="373.973019787" fill="rgb(100%,0%,0%)" r="0.7" /><circle cx="259.749580983" cy="373.085368184" fill="rgb(100%,0%,0%)" r="0.7" /><circle cx="256.771297086" cy="372.727124683" fill="rgb(100%,0%,0%)" r="0.7" /><circle cx="253.779258049" cy="372.514161552" fill="rgb(100%,0%,0%)" r="0.7" /><circle cx="250.780527643" cy="372.524506586" fill="rgb(100%,0%,0%)" r="0.7" /><circle cx="247.80633381" cy="372.625001218" fill="rgb(100%,0%,0%)" r="0.7" /><circle cx="244.81403832" cy="372.424785128" fill="rgb(100%,0%,0%)" r="0.7" /><circle cx="241.817290448" cy="372.523309177" fill="rgb(100%,0%,0%)" r="0.7" /><circle cx="241.456590819" cy="375.208852642" fill="rgb(100%,0%,0%)" r="0.7" /><circle cx="241.442542062" cy="378.208819747" fill="rgb(100%,0%,0%)" r="0.7" /><circle cx="241.428493305" cy="381.208786853" fill="rgb(100%,0%,0%)" r="0.7" /><circle cx="241.414444548" cy="384.208753958" fill="rgb(100%,0%,0%)" r="0.7" /><circle cx="241.406" cy="386.012" fill="rgb(100%,0%,0%)" r="0.7" /><circle cx="338.720154647" cy="299.105443625" fill="rgb(0%,0%,100%)" r="0.7" /><circle cx="338.278188706" cy="302.072709388" fill="rgb(0%,0%,100%)" r="0.7" /><circle cx="337.836222766" cy="305.039975151" fill="rgb(0%,0%,100%)" r="0.7" /><circle cx="337.924349081" cy="307.428580856" fill="rgb(0%,0%,100%)" r="0.7" /><circle cx="340.841603911" cy="306.728849296" fill="rgb(0%,0%,100%)" r="0.7" /><circle cx="342.021116385" cy="307.362956566" fill="rgb(0%,0%,100%)" r="0.7" /><circle cx="340.361038545" cy="309.8613619" fill="rgb(0%,0%,100%)" r="0.7" /><circle cx="338.626361062" cy="312.308956511" fill="rgb(0%,0%,100%)" r="0.7" /><circle cx="336.861361368" cy="314.734800431" fill="rgb(0%,0%,100%)" r="0.7" /><circle cx="335.078426454" cy="317.14750043" fill="rgb(0%,0%,100%)" r="0.7" /><circle cx="333.28309259" cy="319.550992149" fill="rgb(0%,0%,100%)" r="0.7" /><circle cx="331.478343411" cy="321.947425133" fill="rgb(0%,0%,100%)" r="0.7" /><circle cx="329.665923451" cy="324.33805539" fill="rgb(0%,0%,100%)" r="0.7" /><circle cx="327.846782003" cy="326.723589496" fill="rgb(0%,0%,100%)" r="0.7" /><circle cx="326.021021701" cy="329.104054986" fill="rgb(0%,0%,100%)" r="0.7" /><circle cx="324.038815641" cy="331.352892026" fill="rgb(0%,0%,100%)" r="0.7" /><circle cx="321.92605173" cy="333.152233411" fill="rgb(0%,0%,100%)" r="0.7" /><circle cx="320.021619474" cy="335.469743263" fill="rgb(0%,0%,100%)" r="0.7" /><circle cx="318.185746989" cy="337.842377854" fill="rgb(0%,0%,100%)" r="0.7" /><circle cx="316.376791568" cy="340.235628233" fill="rgb(0%,0%,100%)" r="0.7" /><circle cx="314.583807962" cy="342.640871856" fill="rgb(0%,0%,100%)" r="0.7" /><circle cx="312.802056915" cy="345.054450546" fill="rgb(0%,0%,100%)" r="0.7" /><circle cx="311.02917091" cy="347.474550578" fill="rgb(0%,0%,100%)" r="0.7" /><circle cx="309.264303646" cy="349.900500223" fill="rgb(0%,0%,100%)" r="0.7" /><circle cx="307.491085968" cy="352.320336495" fill="rgb(0%,0%,100%)" r="0.7" /><circle cx="305.718822966" cy="354.740889951" fill="rgb(0%,0%,100%)" r="0.7" /><circle cx="303.955485006" cy="357.167941878" fill="rgb(0%,0%,100%)" r="0.7" /><circle cx="302.202038716" cy="359.602165911" fill="rgb(0%,0%,100%)" r="0.7" /><circle cx="300.459704817" cy="362.044347065" fill="rgb(0%,0%,100%)" r="0.7" /><circle cx="298.730012722" cy="364.495488537" fill="rgb(0%,0%,100%)" r="0.7" /><circle cx="297.014952612" cy="366.956897299" fill="rgb(0%,0%,100%)" r="0.7" /><circle cx="295.317251228" cy="369.430315597" fill="rgb(0%,0%,100%)" r="0.7" /><circle cx="293.640871868" cy="371.918215372" fill="rgb(0%,0%,100%)" r="0.7" /><circle cx="291.992101164" cy="374.424503744" fill="rgb(0%,0%,100%)" r="0.7" /><circle cx="290.382874041" cy="376.956321402" fill="rgb(0%,0%,100%)" r="0.7" /><circle cx="288.851627187" cy="379.535692385" fill="rgb(0%,0%,100%)" r="0.7" /><circle cx="287.381000072" cy="382.150270491" fill="rgb(0%,0%,100%)" r="0.7" /><circle cx="285.746358477" cy="384.664308109" fill="rgb(0%,0%,100%)" r="0.7" /><circle cx="283.406" cy="386.012" fill="rgb(0%,0%,100%)" r="0.7" /><circle cx="280.406" cy="386.012" fill="rgb(0%,0%,100%)" r="0.7" /><circle cx="277.406" cy="386.012" fill="rgb(0%,0%,100%)" r="0.7" /><circle cx="274.406" cy="386.012" fill="rgb(0%,0%,100%)" r="0.7" /><circle cx="271.406" cy="386.012" fill="rgb(0%,0%,100%)" r="0.7" /><circle cx="268.406" cy="386.012" fill="rgb(0%,0%,100%)" r="0.7" /><circle cx="265.406" cy="386.012" fill="rgb(0%,0%,100%)" r="0.7" /><circle cx="262.406" cy="386.012" fill="rgb(0%,0%,100%)" r="0.7" /><circle cx="259.406" cy="386.012" fill="rgb(0%,0%,100%)" r="0.7" /><circle cx="256.406" cy="386.012" fill="rgb(0%,0%,100%)" r="0.7" /><circle cx="253.406" cy="386.012" fill="rgb(0%,0%,100%)" r="0.7" /><circle cx="250.406" cy="386.012" fill="rgb(0%,0%,100%)" r="0.7" /><circle cx="247.406" cy="386.012" fill="rgb(0%,0%,100%)" r="0.7" /><circle cx="244.406" cy="386.012" fill="rgb(0%,0%,100%)" r="0.7" /><circle cx="241.406" cy="386.012" fill="rgb(0%,0%,100%)" r="0.7" /></svg>