<?xml version="1.0" encoding="utf-8" ?>
<svg baseProfile="full" height="100%" version="1.1" width="100%" xmlns="http://www.w3.org/2000/svg" xmlns:ev="http://www.w3.org/2001/xml-events" xmlns:xlink="http://www.w3.org/1999/xlink"><defs /><circle cx="280.759181326" cy="358.130310639" fill="rgb(100%,0%,0%)" r="0.7" /><circle cx="277.780517201" cy="358.470761059" fill="rgb(100%,0%,0%)" r="0.7" /><circle cx="274.860178633" cy="359.151265238" fill="rgb(100%,0%,0%)" r="0.7" /><circle cx="272.021844069" cy="360.119413392" fill="rgb(100%,0%,0%)" r="0.7" /><circle cx="269.279427806" cy="361.333498779" fill="rgb(100%,0%,0%)" r="0.7" /><circle cx="266.640100462" cy="362.758234949" fill="rgb(100%,0%,0%)" r="0.7" /><circle cx="264.106311165" cy="364.363435716" fill="rgb(100%,0%,0%)" r="0.7" /><circle cx="261.677303503" cy="366.123353" fill="rgb(100%,0%,0%)" r="0.7" /><circle cx="259.350246652" cy="368.016145932" fill="rgb(100%,0%,0%)" r="0.7" /><circle cx="257.121037651" cy="370.023389893" fill="rgb(100%,0%,0%)" r="0.7" /><circle cx="254.984968907" cy="372.129502213" fill="rgb(100%,0%,0%)" r="0.7" /><circle cx="252.93696093" cy="374.321436321" fill="rgb(100%,0%,0%)" r="0.7" /><circle cx="250.971981704" cy="376.588120743" fill="rgb(100%,0%,0%)" r="0.7" /><circle cx="249.08507122" cy="378.920253286" fill="rgb(100%,0%,0%)" r="0.7" /><circle cx="247.27153824" cy="381.30989249" fill="rgb(100%,0%,0%)" r="0.7" /><circle cx="245.526916018" cy="383.750331132" fill="rgb(100%,0%,0%)" r="0.7" /><circle cx="243.847051233" cy="386.23581195" fill="rgb(100%,0%,0%)" r="0.7" /><circle cx="242.22808352" cy="388.761392461" fill="rgb(100%,0%,0%)" r="0.7" /><circle cx="240.666438472" cy="391.322809734" fill="rgb(100%,0%,0%)" r="0.7" /><circle cx="239.158804191" cy="393.916386905" fill="rgb(100%,0%,0%)" r="0.7" /><circle cx="237.702100999" cy="396.53897051" fill="rgb(100%,0%,0%)" r="0.7" /><circle cx="236.293556091" cy="399.18768593" fill="rgb(100%,0%,0%)" r="0.7" /><circle cx="236.266027826" cy="400.428225482" fill="rgb(100%,0%,0%)" r="0.7" /><circle cx="238.845541383" cy="398.896523876" fill="rgb(100%,0%,0%)" r="0.7" /><circle cx="241.42505494" cy="397.36482227" fill="rgb(100%,0%,0%)" r="0.7" /><circle cx="244.004568496" cy="395.833120664" fill="rgb(100%,0%,0%)" r="0.7" /><circle cx="246.223263648" cy="395.485487447" fill="rgb(100%,0%,0%)" r="0.7" /><circle cx="247.510235662" cy="398.195414205" fill="rgb(100%,0%,0%)" r="0.7" /><circle cx="248.797207676" cy="400.905340963" fill="rgb(100%,0%,0%)" r="0.7" /><circle cx="250.084179691" cy="403.615267721" fill="rgb(100%,0%,0%)" r="0.7" /><circle cx="251.371151705" cy="406.325194479" fill="rgb(100%,0%,0%)" r="0.7" /><circle cx="252.082" cy="407.822" fill="rgb(100%,0%,0%)" r="0.7" /><circle cx="280.759181326" cy="358.130310639" fill="rgb(0%,0%,100%)" r="0.7" /><circle cx="283.754588176" cy="358.214506578" fill="rgb(0%,0%,100%)" r="0.7" /><circle cx="286.591650762" cy="359.131624419" fill="rgb(0%,0%,100%)" r="0.7" /><circle cx="289.22328311" cy="360.565232783" fill="rgb(0%,0%,100%)" r="0.7" /><circle cx="291.426925173" cy="362.578020232" fill="rgb(0%,0%,100%)" r="0.7" /><circle cx="292.240855854" cy="365.392149653" fill="rgb(0%,0%,100%)" r="0.7" /><circle cx="291.03802684" cy="368.100448883" fill="rgb(0%,0%,100%)" r="0.7" /><circle cx="288.92187886" cy="370.216989978" fill="rgb(0%,0%,100%)" r="0.7" /><circle cx="286.456334946" cy="371.921756084" fill="rgb(0%,0%,100%)" r="0.7" /><circle cx="283.779020352" cy="373.271224452" fill="rgb(0%,0%,100%)" r="0.7" /><circle cx="281.116946299" cy="374.653899979" fill="rgb(0%,0%,100%)" r="0.7" /><circle cx="278.521857154" cy="376.158511219" fill="rgb(0%,0%,100%)" r="0.7" /><circle cx="275.999924069" cy="377.782774728" fill="rgb(0%,0%,100%)" r="0.7" /><circle cx="273.556986875" cy="379.523576143" fill="rgb(0%,0%,100%)" r="0.7" /><circle cx="271.198419091" cy="381.377090603" fill="rgb(0%,0%,100%)" r="0.7" /><circle cx="268.92911078" cy="383.338876489" fill="rgb(0%,0%,100%)" r="0.7" /><circle cx="266.753439451" cy="385.404025166" fill="rgb(0%,0%,100%)" r="0.7" /><circle cx="264.675307923" cy="387.567310028" fill="rgb(0%,0%,100%)" r="0.7" /><circle cx="262.698240235" cy="389.823335508" fill="rgb(0%,0%,100%)" r="0.7" /><circle cx="260.825524117" cy="392.166709777" fill="rgb(0%,0%,100%)" r="0.7" /><circle cx="259.060464493" cy="394.592203292" fill="rgb(0%,0%,100%)" r="0.7" /><circle cx="257.406766741" cy="397.094954619" fill="rgb(0%,0%,100%)" r="0.7" /><circle cx="255.869248386" cy="399.670698283" fill="rgb(0%,0%,100%)" r="0.7" /><circle cx="254.455251147" cy="402.316230919" fill="rgb(0%,0%,100%)" r="0.7" /><circle cx="253.178510096" cy="405.030577429" fill="rgb(0%,0%,100%)" r="0.7" /><circle cx="252.082" cy="407.822" fill="rgb(0%,0%,100%)" r="0.7" /></svg>