<?xml version="1.0" encoding="utf-8" ?>
<svg baseProfile="full" height="100%" version="1.1" width="100%" xmlns="http://www.w3.org/2000/svg" xmlns:ev="http://www.w3.org/2001/xml-events" xmlns:xlink="http://www.w3.org/1999/xlink"><defs /><circle cx="271.21101235" cy="327.612224682" fill="rgb(100%,0%,0%)" r="0.7" /><circle cx="268.687113211" cy="329.111542687" fill="rgb(100%,0%,0%)" r="0.7" /><circle cx="266.903932482" cy="331.517433868" fill="rgb(100%,0%,0%)" r="0.7" /><circle cx="265.483189227" cy="334.158270542" fill="rgb(100%,0%,0%)" r="0.7" /><circle cx="264.273067812" cy="336.902858929" fill="rgb(100%,0%,0%)" r="0.7" /><circle cx="263.217792174" cy="339.71057213" fill="rgb(100%,0%,0%)" r="0.7" /><circle cx="262.227911741" cy="342.542571712" fill="rgb(100%,0%,0%)" r="0.7" /><circle cx="261.232277449" cy="345.372546712" fill="rgb(100%,0%,0%)" r="0.7" /><circle cx="260.23151708" cy="348.200701688" fill="rgb(100%,0%,0%)" r="0.7" /><circle cx="259.225695684" cy="351.0270661" fill="rgb(100%,0%,0%)" r="0.7" /><circle cx="258.214666987" cy="353.851572138" fill="rgb(100%,0%,0%)" r="0.7" /><circle cx="257.198136636" cy="356.674100835" fill="rgb(100%,0%,0%)" r="0.7" /><circle cx="256.17567604" cy="359.494485373" fill="rgb(100%,0%,0%)" r="0.7" /><circle cx="255.146711452" cy="362.312504686" fill="rgb(100%,0%,0%)" r="0.7" /><circle cx="254.110495089" cy="365.127866864" fill="rgb(100%,0%,0%)" r="0.7" /><circle cx="253.066052733" cy="367.940187627" fill="rgb(100%,0%,0%)" r="0.7" /><circle cx="252.012098346" cy="370.748956597" fill="rgb(100%,0%,0%)" r="0.7" /><circle cx="250.946895048" cy="373.553478953" fill="rgb(100%,0%,0%)" r="0.7" /><circle cx="249.868019465" cy="376.352768154" fill="rgb(100%,0%,0%)" r="0.7" /><circle cx="248.771925471" cy="379.145358301" fill="rgb(100%,0%,0%)" r="0.7" /><circle cx="247.653073985" cy="381.928893186" fill="rgb(100%,0%,0%)" r="0.7" /><circle cx="246.501893275" cy="384.699205294" fill="rgb(100%,0%,0%)" r="0.7" /><circle cx="245.298948073" cy="387.447398153" fill="rgb(100%,0%,0%)" r="0.7" /><circle cx="243.989303014" cy="390.145905341" fill="rgb(100%,0%,0%)" r="0.7" /><circle cx="244.484327815" cy="390.099424807" fill="rgb(100%,0%,0%)" r="0.7" /><circle cx="246.580117299" cy="387.952877245" fill="rgb(100%,0%,0%)" r="0.7" /><circle cx="248.675906784" cy="385.806329683" fill="rgb(100%,0%,0%)" r="0.7" /><circle cx="250.606924224" cy="384.117343955" fill="rgb(100%,0%,0%)" r="0.7" /><circle cx="250.85303818" cy="387.107231565" fill="rgb(100%,0%,0%)" r="0.7" /><circle cx="251.099152136" cy="390.097119175" fill="rgb(100%,0%,0%)" r="0.7" /><circle cx="251.345266092" cy="393.087006785" fill="rgb(100%,0%,0%)" r="0.7" /><circle cx="251.591380048" cy="396.076894395" fill="rgb(100%,0%,0%)" r="0.7" /><circle cx="251.774" cy="399.718" fill="rgb(100%,0%,0%)" r="0.7" /><circle cx="271.21101235" cy="327.612224682" fill="rgb(0%,0%,100%)" r="0.7" /><circle cx="273.71948915" cy="329.01489899" fill="rgb(0%,0%,100%)" r="0.7" /><circle cx="274.56430197" cy="331.867034765" fill="rgb(0%,0%,100%)" r="0.7" /><circle cx="274.59648006" cy="334.863384558" fill="rgb(0%,0%,100%)" r="0.7" /><circle cx="274.241956565" cy="337.840956649" fill="rgb(0%,0%,100%)" r="0.7" /><circle cx="273.567613077" cy="340.763637029" fill="rgb(0%,0%,100%)" r="0.7" /><circle cx="272.840172688" cy="343.674084827" fill="rgb(0%,0%,100%)" r="0.7" /><circle cx="272.080854842" cy="346.576390569" fill="rgb(0%,0%,100%)" r="0.7" /><circle cx="271.290067764" cy="349.470269501" fill="rgb(0%,0%,100%)" r="0.7" /><circle cx="270.468177075" cy="352.355481546" fill="rgb(0%,0%,100%)" r="0.7" /><circle cx="269.615526802" cy="355.231742216" fill="rgb(0%,0%,100%)" r="0.7" /><circle cx="268.732413419" cy="358.098800254" fill="rgb(0%,0%,100%)" r="0.7" /><circle cx="267.819094991" cy="360.956387553" fill="rgb(0%,0%,100%)" r="0.7" /><circle cx="266.87578894" cy="363.804208915" fill="rgb(0%,0%,100%)" r="0.7" /><circle cx="265.902652081" cy="366.641979292" fill="rgb(0%,0%,100%)" r="0.7" /><circle cx="264.899788534" cy="369.469369208" fill="rgb(0%,0%,100%)" r="0.7" /><circle cx="263.867216085" cy="372.286062268" fill="rgb(0%,0%,100%)" r="0.7" /><circle cx="262.804882787" cy="375.091657606" fill="rgb(0%,0%,100%)" r="0.7" /><circle cx="261.712617803" cy="377.885735951" fill="rgb(0%,0%,100%)" r="0.7" /><circle cx="260.590118463" cy="380.667795539" fill="rgb(0%,0%,100%)" r="0.7" /><circle cx="259.436890041" cy="383.437263948" fill="rgb(0%,0%,100%)" r="0.7" /><circle cx="258.252187332" cy="386.193423848" fill="rgb(0%,0%,100%)" r="0.7" /><circle cx="257.034893623" cy="388.935345112" fill="rgb(0%,0%,100%)" r="0.7" /><circle cx="255.783290347" cy="391.66176611" fill="rgb(0%,0%,100%)" r="0.7" /><circle cx="254.494562546" cy="394.370826193" fill="rgb(0%,0%,100%)" r="0.7" /><circle cx="253.163430493" cy="397.059291483" fill="rgb(0%,0%,100%)" r="0.7" /><circle cx="251.774" cy="399.718" fill="rgb(0%,0%,100%)" r="0.7" /></svg>