<?xml version="1.0" encoding="utf-8" ?>
<svg baseProfile="full" height="100%" version="1.1" width="100%" xmlns="http://www.w3.org/2000/svg" xmlns:ev="http://www.w3.org/2001/xml-events" xmlns:xlink="http://www.w3.org/1999/xlink"><defs /><circle cx="302.843397465" cy="311.2331513" fill="rgb(100%,0%,0%)" r="0.7" /><circle cx="300.560136272" cy="312.992501795" fill="rgb(100%,0%,0%)" r="0.7" /><circle cx="300.076881366" cy="315.936888598" fill="rgb(100%,0%,0%)" r="0.7" /><circle cx="299.816229721" cy="318.925533651" fill="rgb(100%,0%,0%)" r="0.7" /><circle cx="299.586394278" cy="321.916703222" fill="rgb(100%,0%,0%)" r="0.7" /><circle cx="299.390967281" cy="324.91031256" fill="rgb(100%,0%,0%)" r="0.7" /><circle cx="299.237764299" cy="327.906367458" fill="rgb(100%,0%,0%)" r="0.7" /><circle cx="299.140868815" cy="330.904741787" fill="rgb(100%,0%,0%)" r="0.7" /><circle cx="298.685843668" cy="333.810183122" fill="rgb(100%,0%,0%)" r="0.7" /><circle cx="297.926737387" cy="336.709808047" fill="rgb(100%,0%,0%)" r="0.7" /><circle cx="297.456493566" cy="339.672137699" fill="rgb(100%,0%,0%)" r="0.7" /><circle cx="297.148158445" cy="342.656008879" fill="rgb(100%,0%,0%)" r="0.7" /><circle cx="296.951397521" cy="345.649420789" fill="rgb(100%,0%,0%)" r="0.7" /><circle cx="296.838859766" cy="348.647238255" fill="rgb(100%,0%,0%)" r="0.7" /><circle cx="296.754583649" cy="351.645957851" fill="rgb(100%,0%,0%)" r="0.7" /><circle cx="296.656241848" cy="354.64436024" fill="rgb(100%,0%,0%)" r="0.7" /><circle cx="296.559702104" cy="357.642801179" fill="rgb(100%,0%,0%)" r="0.7" /><circle cx="296.464773583" cy="360.641304455" fill="rgb(100%,0%,0%)" r="0.7" /><circle cx="296.371401063" cy="363.639854372" fill="rgb(100%,0%,0%)" r="0.7" /><circle cx="296.279583861" cy="366.638466404" fill="rgb(100%,0%,0%)" r="0.7" /><circle cx="296.189356578" cy="369.637095833" fill="rgb(100%,0%,0%)" r="0.7" /><circle cx="296.100776262" cy="372.635794541" fill="rgb(100%,0%,0%)" r="0.7" /><circle cx="296.013924826" cy="375.634540801" fill="rgb(100%,0%,0%)" r="0.7" /><circle cx="295.928906194" cy="378.633334455" fill="rgb(100%,0%,0%)" r="0.7" /><circle cx="295.84584855" cy="381.632186938" fill="rgb(100%,0%,0%)" r="0.7" /><circle cx="295.764908701" cy="384.631094977" fill="rgb(100%,0%,0%)" r="0.7" /><circle cx="295.686276892" cy="387.630065664" fill="rgb(100%,0%,0%)" r="0.7" /><circle cx="295.610185118" cy="390.629102661" fill="rgb(100%,0%,0%)" r="0.7" /><circle cx="295.536918313" cy="393.628210041" fill="rgb(100%,0%,0%)" r="0.7" /><circle cx="295.46683067" cy="396.62738843" fill="rgb(100%,0%,0%)" r="0.7" /><circle cx="295.400369098" cy="399.626651666" fill="rgb(100%,0%,0%)" r="0.7" /><circle cx="295.338109669" cy="402.626015583" fill="rgb(100%,0%,0%)" r="0.7" /><circle cx="295.280815362" cy="405.625459022" fill="rgb(100%,0%,0%)" r="0.7" /><circle cx="295.229528657" cy="408.625028995" fill="rgb(100%,0%,0%)" r="0.7" /><circle cx="295.185741961" cy="411.624710343" fill="rgb(100%,0%,0%)" r="0.7" /><circle cx="295.151721158" cy="414.624503334" fill="rgb(100%,0%,0%)" r="0.7" /><circle cx="295.131217071" cy="417.624448221" fill="rgb(100%,0%,0%)" r="0.7" /><circle cx="295.131337492" cy="420.624421297" fill="rgb(100%,0%,0%)" r="0.7" /><circle cx="295.169335874" cy="423.624153301" fill="rgb(100%,0%,0%)" r="0.7" /><circle cx="296.053532257" cy="422.609863982" fill="rgb(100%,0%,0%)" r="0.7" /><circle cx="297.280727354" cy="419.872348284" fill="rgb(100%,0%,0%)" r="0.7" /><circle cx="298.507922451" cy="417.134832587" fill="rgb(100%,0%,0%)" r="0.7" /><circle cx="299.735117548" cy="414.397316889" fill="rgb(100%,0%,0%)" r="0.7" /><circle cx="300.962312645" cy="411.659801192" fill="rgb(100%,0%,0%)" r="0.7" /><circle cx="302.189507742" cy="408.922285494" fill="rgb(100%,0%,0%)" r="0.7" /><circle cx="303.416702839" cy="406.184769797" fill="rgb(100%,0%,0%)" r="0.7" /><circle cx="304.743897046" cy="405.367513969" fill="rgb(100%,0%,0%)" r="0.7" /><circle cx="306.248799747" cy="407.96275343" fill="rgb(100%,0%,0%)" r="0.7" /><circle cx="307.753702449" cy="410.55799289" fill="rgb(100%,0%,0%)" r="0.7" /><circle cx="309.258605151" cy="413.153232351" fill="rgb(100%,0%,0%)" r="0.7" /><circle cx="310.763507852" cy="415.748471812" fill="rgb(100%,0%,0%)" r="0.7" /><circle cx="312.268410554" cy="418.343711273" fill="rgb(100%,0%,0%)" r="0.7" /><circle cx="313.773313255" cy="420.938950733" fill="rgb(100%,0%,0%)" r="0.7" /><circle cx="315.278215957" cy="423.534190194" fill="rgb(100%,0%,0%)" r="0.7" /><circle cx="316.783118659" cy="426.129429655" fill="rgb(100%,0%,0%)" r="0.7" /><circle cx="318.28802136" cy="428.724669116" fill="rgb(100%,0%,0%)" r="0.7" /><circle cx="319.792924062" cy="431.319908576" fill="rgb(100%,0%,0%)" r="0.7" /><circle cx="320.617" cy="431.783" fill="rgb(100%,0%,0%)" r="0.7" /><circle cx="302.843397465" cy="311.2331513" fill="rgb(0%,0%,100%)" r="0.7" /><circle cx="305.81990488" cy="311.342463472" fill="rgb(0%,0%,100%)" r="0.7" /><circle cx="308.095308557" cy="312.958187619" fill="rgb(0%,0%,100%)" r="0.7" /><circle cx="309.34702346" cy="315.682923705" fill="rgb(0%,0%,100%)" r="0.7" /><circle cx="310.361103057" cy="318.505737336" fill="rgb(0%,0%,100%)" r="0.7" /><circle cx="311.219204754" cy="321.380139957" fill="rgb(0%,0%,100%)" r="0.7" /><circle cx="311.965708667" cy="324.285649822" fill="rgb(0%,0%,100%)" r="0.7" /><circle cx="312.627549215" cy="327.211642303" fill="rgb(0%,0%,100%)" r="0.7" /><circle cx="313.222421328" cy="330.152015447" fill="rgb(0%,0%,100%)" r="0.7" /><circle cx="313.762632815" cy="333.102941887" fill="rgb(0%,0%,100%)" r="0.7" /><circle cx="314.257135247" cy="336.061889628" fill="rgb(0%,0%,100%)" r="0.7" /><circle cx="314.712665651" cy="339.027084293" fill="rgb(0%,0%,100%)" r="0.7" /><circle cx="315.134444286" cy="341.997274785" fill="rgb(0%,0%,100%)" r="0.7" /><circle cx="315.526605315" cy="344.971530473" fill="rgb(0%,0%,100%)" r="0.7" /><circle cx="315.89248535" cy="347.949136262" fill="rgb(0%,0%,100%)" r="0.7" /><circle cx="316.234820571" cy="350.929524253" fill="rgb(0%,0%,100%)" r="0.7" /><circle cx="316.55589154" cy="353.912286526" fill="rgb(0%,0%,100%)" r="0.7" /><circle cx="316.857614509" cy="356.897072617" fill="rgb(0%,0%,100%)" r="0.7" /><circle cx="317.141618899" cy="359.883599982" fill="rgb(0%,0%,100%)" r="0.7" /><circle cx="317.40930189" cy="362.871632228" fill="rgb(0%,0%,100%)" r="0.7" /><circle cx="317.661871588" cy="365.860979131" fill="rgb(0%,0%,100%)" r="0.7" /><circle cx="317.900378982" cy="368.851481871" fill="rgb(0%,0%,100%)" r="0.7" /><circle cx="318.125743381" cy="371.843005004" fill="rgb(0%,0%,100%)" r="0.7" /><circle cx="318.338772756" cy="374.835432366" fill="rgb(0%,0%,100%)" r="0.7" /><circle cx="318.54018" cy="377.828664588" fill="rgb(0%,0%,100%)" r="0.7" /><circle cx="318.730595921" cy="380.822616104" fill="rgb(0%,0%,100%)" r="0.7" /><circle cx="318.91057951" cy="383.817209359" fill="rgb(0%,0%,100%)" r="0.7" /><circle cx="319.080627207" cy="386.812386724" fill="rgb(0%,0%,100%)" r="0.7" /><circle cx="319.241178261" cy="389.808085085" fill="rgb(0%,0%,100%)" r="0.7" /><circle cx="319.392621684" cy="392.804263259" fill="rgb(0%,0%,100%)" r="0.7" /><circle cx="319.535298326" cy="395.800862734" fill="rgb(0%,0%,100%)" r="0.7" /><circle cx="319.669506602" cy="398.79786513" fill="rgb(0%,0%,100%)" r="0.7" /><circle cx="319.795500339" cy="401.79520989" fill="rgb(0%,0%,100%)" r="0.7" /><circle cx="319.913493265" cy="404.792887151" fill="rgb(0%,0%,100%)" r="0.7" /><circle cx="320.023655315" cy="407.790888609" fill="rgb(0%,0%,100%)" r="0.7" /><circle cx="320.126106473" cy="410.789128235" fill="rgb(0%,0%,100%)" r="0.7" /><circle cx="320.220915867" cy="413.787608222" fill="rgb(0%,0%,100%)" r="0.7" /><circle cx="320.308086946" cy="416.786378063" fill="rgb(0%,0%,100%)" r="0.7" /><circle cx="320.387528411" cy="419.785314939" fill="rgb(0%,0%,100%)" r="0.7" /><circle cx="320.459019766" cy="422.784475158" fill="rgb(0%,0%,100%)" r="0.7" /><circle cx="320.522104879" cy="425.783823463" fill="rgb(0%,0%,100%)" r="0.7" /><circle cx="320.575815841" cy="428.783334292" fill="rgb(0%,0%,100%)" r="0.7" /><circle cx="320.617" cy="431.783" fill="rgb(0%,0%,100%)" r="0.7" /></svg>