<?xml version="1.0" encoding="utf-8" ?>
<svg baseProfile="full" height="100%" version="1.1" width="100%" xmlns="http://www.w3.org/2000/svg" xmlns:ev="http://www.w3.org/2001/xml-events" xmlns:xlink="http://www.w3.org/1999/xlink"><defs /><circle cx="316.128079537" cy="307.291234214" fill="rgb(100%,0%,0%)" r="0.7" /><circle cx="313.163597584" cy="307.43663945" fill="rgb(100%,0%,0%)" r="0.7" /><circle cx="310.496428571" cy="308.781404659" fill="rgb(100%,0%,0%)" r="0.7" /><circle cx="308.229714164" cy="310.740251955" fill="rgb(100%,0%,0%)" r="0.7" /><circle cx="306.265686349" cy="313.005880302" fill="rgb(100%,0%,0%)" r="0.7" /><circle cx="304.50148197" cy="315.431756985" fill="rgb(100%,0%,0%)" r="0.7" /><circle cx="302.847352803" cy="317.934382025" fill="rgb(100%,0%,0%)" r="0.7" /><circle cx="301.259121528" cy="320.479414586" fill="rgb(100%,0%,0%)" r="0.7" /><circle cx="299.71326536" cy="323.050431162" fill="rgb(100%,0%,0%)" r="0.7" /><circle cx="298.195585905" cy="325.63821515" fill="rgb(100%,0%,0%)" r="0.7" /><circle cx="296.696780469" cy="328.236986255" fill="rgb(100%,0%,0%)" r="0.7" /><circle cx="295.210366299" cy="330.842840609" fill="rgb(100%,0%,0%)" r="0.7" /><circle cx="293.731574676" cy="333.453048494" fill="rgb(100%,0%,0%)" r="0.7" /><circle cx="292.256806537" cy="336.065541586" fill="rgb(100%,0%,0%)" r="0.7" /><circle cx="290.783257522" cy="338.678697984" fill="rgb(100%,0%,0%)" r="0.7" /><circle cx="289.3086427" cy="341.291279821" fill="rgb(100%,0%,0%)" r="0.7" /><circle cx="287.831125421" cy="343.902199145" fill="rgb(100%,0%,0%)" r="0.7" /><circle cx="286.349137783" cy="346.510591756" fill="rgb(100%,0%,0%)" r="0.7" /><circle cx="284.861357439" cy="349.11568762" fill="rgb(100%,0%,0%)" r="0.7" /><circle cx="283.366640989" cy="351.716806503" fill="rgb(100%,0%,0%)" r="0.7" /><circle cx="281.863980735" cy="354.313344575" fill="rgb(100%,0%,0%)" r="0.7" /><circle cx="280.352483577" cy="356.904744782" fill="rgb(100%,0%,0%)" r="0.7" /><circle cx="278.831341086" cy="359.490498262" fill="rgb(100%,0%,0%)" r="0.7" /><circle cx="277.29982047" cy="362.070121117" fill="rgb(100%,0%,0%)" r="0.7" /><circle cx="275.757255431" cy="364.643140252" fill="rgb(100%,0%,0%)" r="0.7" /><circle cx="274.203008482" cy="367.209132546" fill="rgb(100%,0%,0%)" r="0.7" /><circle cx="272.636502103" cy="369.767653899" fill="rgb(100%,0%,0%)" r="0.7" /><circle cx="271.057180052" cy="372.318288094" fill="rgb(100%,0%,0%)" r="0.7" /><circle cx="269.464521491" cy="374.860611059" fill="rgb(100%,0%,0%)" r="0.7" /><circle cx="267.858020887" cy="377.394213012" fill="rgb(100%,0%,0%)" r="0.7" /><circle cx="266.237197756" cy="379.918674299" fill="rgb(100%,0%,0%)" r="0.7" /><circle cx="264.601582302" cy="382.433580884" fill="rgb(100%,0%,0%)" r="0.7" /><circle cx="262.950725731" cy="384.938502383" fill="rgb(100%,0%,0%)" r="0.7" /><circle cx="261.284178686" cy="387.433019866" fill="rgb(100%,0%,0%)" r="0.7" /><circle cx="259.601513002" cy="389.91668847" fill="rgb(100%,0%,0%)" r="0.7" /><circle cx="257.902300631" cy="392.389065378" fill="rgb(100%,0%,0%)" r="0.7" /><circle cx="256.18612377" cy="394.849691396" fill="rgb(100%,0%,0%)" r="0.7" /><circle cx="254.452564228" cy="397.298103464" fill="rgb(100%,0%,0%)" r="0.7" /><circle cx="252.701208362" cy="399.733824779" fill="rgb(100%,0%,0%)" r="0.7" /><circle cx="250.93165726" cy="402.156348821" fill="rgb(100%,0%,0%)" r="0.7" /><circle cx="252.349791969" cy="402.465615509" fill="rgb(100%,0%,0%)" r="0.7" /><circle cx="255.271781251" cy="401.785925406" fill="rgb(100%,0%,0%)" r="0.7" /><circle cx="258.193770533" cy="401.106235304" fill="rgb(100%,0%,0%)" r="0.7" /><circle cx="261.115759815" cy="400.426545201" fill="rgb(100%,0%,0%)" r="0.7" /><circle cx="263.723367934" cy="400.14822985" fill="rgb(100%,0%,0%)" r="0.7" /><circle cx="263.763409004" cy="403.147962623" fill="rgb(100%,0%,0%)" r="0.7" /><circle cx="263.803450074" cy="406.147695397" fill="rgb(100%,0%,0%)" r="0.7" /><circle cx="263.843491144" cy="409.147428171" fill="rgb(100%,0%,0%)" r="0.7" /><circle cx="263.883532214" cy="412.147160944" fill="rgb(100%,0%,0%)" r="0.7" /><circle cx="263.923573284" cy="415.146893718" fill="rgb(100%,0%,0%)" r="0.7" /><circle cx="263.963614354" cy="418.146626491" fill="rgb(100%,0%,0%)" r="0.7" /><circle cx="264.003655424" cy="421.146359265" fill="rgb(100%,0%,0%)" r="0.7" /><circle cx="264.03" cy="423.74" fill="rgb(100%,0%,0%)" r="0.7" /><circle cx="316.128079537" cy="307.291234214" fill="rgb(0%,0%,100%)" r="0.7" /><circle cx="318.800253547" cy="308.596046245" fill="rgb(0%,0%,100%)" r="0.7" /><circle cx="320.826240995" cy="310.793822761" fill="rgb(0%,0%,100%)" r="0.7" /><circle cx="321.618605747" cy="313.600288766" fill="rgb(0%,0%,100%)" r="0.7" /><circle cx="321.536090433" cy="316.597796777" fill="rgb(0%,0%,100%)" r="0.7" /><circle cx="321.198784812" cy="319.578176388" fill="rgb(0%,0%,100%)" r="0.7" /><circle cx="320.68645033" cy="322.533789196" fill="rgb(0%,0%,100%)" r="0.7" /><circle cx="320.045348664" cy="325.464296544" fill="rgb(0%,0%,100%)" r="0.7" /><circle cx="319.304568379" cy="328.371281456" fill="rgb(0%,0%,100%)" r="0.7" /><circle cx="318.483552116" cy="331.256669532" fill="rgb(0%,0%,100%)" r="0.7" /><circle cx="317.595887183" cy="334.122277681" fill="rgb(0%,0%,100%)" r="0.7" /><circle cx="316.651369548" cy="336.96967058" fill="rgb(0%,0%,100%)" r="0.7" /><circle cx="315.657189361" cy="339.800113204" fill="rgb(0%,0%,100%)" r="0.7" /><circle cx="314.618610945" cy="342.614574563" fill="rgb(0%,0%,100%)" r="0.7" /><circle cx="313.539334527" cy="345.413686488" fill="rgb(0%,0%,100%)" r="0.7" /><circle cx="312.421545134" cy="348.197645306" fill="rgb(0%,0%,100%)" r="0.7" /><circle cx="311.265371907" cy="350.965876851" fill="rgb(0%,0%,100%)" r="0.7" /><circle cx="310.064820343" cy="353.715137589" fill="rgb(0%,0%,100%)" r="0.7" /><circle cx="308.967650141" cy="356.506367253" fill="rgb(0%,0%,100%)" r="0.7" /><circle cx="307.715434108" cy="359.232229972" fill="rgb(0%,0%,100%)" r="0.7" /><circle cx="306.358547249" cy="361.907707353" fill="rgb(0%,0%,100%)" r="0.7" /><circle cx="304.928784361" cy="364.544994997" fill="rgb(0%,0%,100%)" r="0.7" /><circle cx="303.44461847" cy="367.152112601" fill="rgb(0%,0%,100%)" r="0.7" /><circle cx="301.917894975" cy="369.734538627" fill="rgb(0%,0%,100%)" r="0.7" /><circle cx="300.356680226" cy="372.296278017" fill="rgb(0%,0%,100%)" r="0.7" /><circle cx="298.766766597" cy="374.840317508" fill="rgb(0%,0%,100%)" r="0.7" /><circle cx="297.152473151" cy="377.368949732" fill="rgb(0%,0%,100%)" r="0.7" /><circle cx="295.517097067" cy="379.884007094" fill="rgb(0%,0%,100%)" r="0.7" /><circle cx="293.863235743" cy="382.386949355" fill="rgb(0%,0%,100%)" r="0.7" /><circle cx="292.192964827" cy="384.878974187" fill="rgb(0%,0%,100%)" r="0.7" /><circle cx="290.507975161" cy="387.361067811" fill="rgb(0%,0%,100%)" r="0.7" /><circle cx="288.809654641" cy="389.834061439" fill="rgb(0%,0%,100%)" r="0.7" /><circle cx="287.099160614" cy="392.298651324" fill="rgb(0%,0%,100%)" r="0.7" /><circle cx="285.377464767" cy="394.755425242" fill="rgb(0%,0%,100%)" r="0.7" /><circle cx="283.645381195" cy="397.204888999" fill="rgb(0%,0%,100%)" r="0.7" /><circle cx="281.903594757" cy="399.647474996" fill="rgb(0%,0%,100%)" r="0.7" /><circle cx="280.152696071" cy="402.083528805" fill="rgb(0%,0%,100%)" r="0.7" /><circle cx="278.393166094" cy="404.513355454" fill="rgb(0%,0%,100%)" r="0.7" /><circle cx="276.625402248" cy="406.937197547" fill="rgb(0%,0%,100%)" r="0.7" /><circle cx="274.849715987" cy="409.355243086" fill="rgb(0%,0%,100%)" r="0.7" /><circle cx="273.06633503" cy="411.767613731" fill="rgb(0%,0%,100%)" r="0.7" /><circle cx="271.275373878" cy="414.174375476" fill="rgb(0%,0%,100%)" r="0.7" /><circle cx="269.476834558" cy="416.575469065" fill="rgb(0%,0%,100%)" r="0.7" /><circle cx="267.670499505" cy="418.970690454" fill="rgb(0%,0%,100%)" r="0.7" /><circle cx="265.855693104" cy="421.359532214" fill="rgb(0%,0%,100%)" r="0.7" /><circle cx="264.03" cy="423.74" fill="rgb(0%,0%,100%)" r="0.7" /></svg>