<?xml version="1.0" encoding="utf-8" ?>
<svg baseProfile="full" height="100%" version="1.1" width="100%" xmlns="http://www.w3.org/2000/svg" xmlns:ev="http://www.w3.org/2001/xml-events" xmlns:xlink="http://www.w3.org/1999/xlink"><defs /><circle cx="327.360771221" cy="296.925266898" fill="rgb(100%,0%,0%)" r="0.7" /><circle cx="324.38345099" cy="297.180332327" fill="rgb(100%,0%,0%)" r="0.7" /><circle cx="321.685447003" cy="298.395065253" fill="rgb(100%,0%,0%)" r="0.7" /><circle cx="319.781232715" cy="300.713247288" fill="rgb(100%,0%,0%)" r="0.7" /><circle cx="317.877018427" cy="303.031429322" fill="rgb(100%,0%,0%)" r="0.7" /><circle cx="315.972804139" cy="305.349611357" fill="rgb(100%,0%,0%)" r="0.7" /><circle cx="314.068589851" cy="307.667793391" fill="rgb(100%,0%,0%)" r="0.7" /><circle cx="312.164375563" cy="309.985975426" fill="rgb(100%,0%,0%)" r="0.7" /><circle cx="310.260161274" cy="312.30415746" fill="rgb(100%,0%,0%)" r="0.7" /><circle cx="308.355946986" cy="314.622339495" fill="rgb(100%,0%,0%)" r="0.7" /><circle cx="306.451732698" cy="316.940521529" fill="rgb(100%,0%,0%)" r="0.7" /><circle cx="304.54751841" cy="319.258703564" fill="rgb(100%,0%,0%)" r="0.7" /><circle cx="302.643304122" cy="321.576885598" fill="rgb(100%,0%,0%)" r="0.7" /><circle cx="300.808946608" cy="323.948092305" fill="rgb(100%,0%,0%)" r="0.7" /><circle cx="299.097674345" cy="326.412140786" fill="rgb(100%,0%,0%)" r="0.7" /><circle cx="297.400184476" cy="328.885694315" fill="rgb(100%,0%,0%)" r="0.7" /><circle cx="295.717697978" cy="331.369485351" fill="rgb(100%,0%,0%)" r="0.7" /><circle cx="294.051683284" cy="333.864358298" fill="rgb(100%,0%,0%)" r="0.7" /><circle cx="292.403927673" cy="336.371318052" fill="rgb(100%,0%,0%)" r="0.7" /><circle cx="290.776643201" cy="338.891606529" fill="rgb(100%,0%,0%)" r="0.7" /><circle cx="289.17265467" cy="341.426794483" fill="rgb(100%,0%,0%)" r="0.7" /><circle cx="287.595740445" cy="343.978901465" fill="rgb(100%,0%,0%)" r="0.7" /><circle cx="286.051203993" cy="346.550721916" fill="rgb(100%,0%,0%)" r="0.7" /><circle cx="284.547173773" cy="349.146420702" fill="rgb(100%,0%,0%)" r="0.7" /><circle cx="283.098170011" cy="351.773187656" fill="rgb(100%,0%,0%)" r="0.7" /><circle cx="281.743980638" cy="354.449750147" fill="rgb(100%,0%,0%)" r="0.7" /><circle cx="280.325601039" cy="357.092347236" fill="rgb(100%,0%,0%)" r="0.7" /><circle cx="279.023070468" cy="359.794512366" fill="rgb(100%,0%,0%)" r="0.7" /><circle cx="277.845301451" cy="362.553397046" fill="rgb(100%,0%,0%)" r="0.7" /><circle cx="276.782857636" cy="365.35875696" fill="rgb(100%,0%,0%)" r="0.7" /><circle cx="275.826895955" cy="368.202201875" fill="rgb(100%,0%,0%)" r="0.7" /><circle cx="274.969277214" cy="371.07686414" fill="rgb(100%,0%,0%)" r="0.7" /><circle cx="274.202595378" cy="373.977125887" fill="rgb(100%,0%,0%)" r="0.7" /><circle cx="273.520166269" cy="376.898378573" fill="rgb(100%,0%,0%)" r="0.7" /><circle cx="272.915990046" cy="379.836827695" fill="rgb(100%,0%,0%)" r="0.7" /><circle cx="272.384701347" cy="382.789337155" fill="rgb(100%,0%,0%)" r="0.7" /><circle cx="271.921516784" cy="385.753300333" fill="rgb(100%,0%,0%)" r="0.7" /><circle cx="271.522181466" cy="388.726553225" fill="rgb(100%,0%,0%)" r="0.7" /><circle cx="271.182926405" cy="391.707262306" fill="rgb(100%,0%,0%)" r="0.7" /><circle cx="270.900423595" cy="394.693884765" fill="rgb(100%,0%,0%)" r="0.7" /><circle cx="270.671752855" cy="397.685121454" fill="rgb(100%,0%,0%)" r="0.7" /><circle cx="270.494379977" cy="400.679835944" fill="rgb(100%,0%,0%)" r="0.7" /><circle cx="270.366138644" cy="403.677059689" fill="rgb(100%,0%,0%)" r="0.7" /><circle cx="270.285230697" cy="406.675945048" fill="rgb(100%,0%,0%)" r="0.7" /><circle cx="270.250243425" cy="409.675706483" fill="rgb(100%,0%,0%)" r="0.7" /><circle cx="270.260194448" cy="412.675665342" fill="rgb(100%,0%,0%)" r="0.7" /><circle cx="270.314631523" cy="415.675147277" fill="rgb(100%,0%,0%)" r="0.7" /><circle cx="270.413838042" cy="418.673491188" fill="rgb(100%,0%,0%)" r="0.7" /><circle cx="270.559302318" cy="421.669917383" fill="rgb(100%,0%,0%)" r="0.7" /><circle cx="270.755079681" cy="424.66348448" fill="rgb(100%,0%,0%)" r="0.7" /><circle cx="271.016" cy="427.652" fill="rgb(100%,0%,0%)" r="0.7" /><circle cx="271.546481449" cy="426.798016596" fill="rgb(100%,0%,0%)" r="0.7" /><circle cx="273.129480683" cy="424.249661553" fill="rgb(100%,0%,0%)" r="0.7" /><circle cx="274.712479918" cy="421.701306511" fill="rgb(100%,0%,0%)" r="0.7" /><circle cx="276.295479153" cy="419.152951468" fill="rgb(100%,0%,0%)" r="0.7" /><circle cx="278.101105274" cy="419.732132927" fill="rgb(100%,0%,0%)" r="0.7" /><circle cx="280.029112485" cy="422.030564608" fill="rgb(100%,0%,0%)" r="0.7" /><circle cx="281.957119696" cy="424.32899629" fill="rgb(100%,0%,0%)" r="0.7" /><circle cx="283.885126907" cy="426.627427971" fill="rgb(100%,0%,0%)" r="0.7" /><circle cx="285.813134118" cy="428.925859653" fill="rgb(100%,0%,0%)" r="0.7" /><circle cx="327.360771221" cy="296.925266898" fill="rgb(0%,0%,100%)" r="0.7" /><circle cx="330.273348877" cy="297.592982555" fill="rgb(0%,0%,100%)" r="0.7" /><circle cx="332.881486887" cy="299.05831947" fill="rgb(0%,0%,100%)" r="0.7" /><circle cx="335.147185346" cy="301.022334716" fill="rgb(0%,0%,100%)" r="0.7" /><circle cx="337.331469893" cy="303.078567587" fill="rgb(0%,0%,100%)" r="0.7" /><circle cx="339.397953247" cy="305.252133467" fill="rgb(0%,0%,100%)" r="0.7" /><circle cx="341.160576005" cy="307.674155463" fill="rgb(0%,0%,100%)" r="0.7" /><circle cx="342.205641077" cy="310.469366496" fill="rgb(0%,0%,100%)" r="0.7" /><circle cx="342.125768375" cy="313.450617275" fill="rgb(0%,0%,100%)" r="0.7" /><circle cx="341.134628111" cy="316.271187013" fill="rgb(0%,0%,100%)" r="0.7" /><circle cx="339.381247821" cy="318.692021685" fill="rgb(0%,0%,100%)" r="0.7" /><circle cx="336.971834297" cy="320.457402304" fill="rgb(0%,0%,100%)" r="0.7" /><circle cx="334.134189912" cy="321.398432118" fill="rgb(0%,0%,100%)" r="0.7" /><circle cx="331.202656764" cy="322.035702393" fill="rgb(0%,0%,100%)" r="0.7" /><circle cx="328.291429544" cy="322.709078838" fill="rgb(0%,0%,100%)" r="0.7" /><circle cx="326.224162135" cy="324.883108613" fill="rgb(0%,0%,100%)" r="0.7" /><circle cx="324.156894726" cy="327.057138387" fill="rgb(0%,0%,100%)" r="0.7" /><circle cx="322.089627317" cy="329.231168162" fill="rgb(0%,0%,100%)" r="0.7" /><circle cx="320.022359908" cy="331.405197936" fill="rgb(0%,0%,100%)" r="0.7" /><circle cx="317.9550925" cy="333.579227711" fill="rgb(0%,0%,100%)" r="0.7" /><circle cx="315.887825091" cy="335.753257485" fill="rgb(0%,0%,100%)" r="0.7" /><circle cx="313.891810352" cy="337.986817678" fill="rgb(0%,0%,100%)" r="0.7" /><circle cx="312.148447838" cy="340.428248225" fill="rgb(0%,0%,100%)" r="0.7" /><circle cx="310.437953623" cy="342.89280825" fill="rgb(0%,0%,100%)" r="0.7" /><circle cx="308.756064969" cy="345.376991697" fill="rgb(0%,0%,100%)" r="0.7" /><circle cx="307.101980875" cy="347.879786518" fill="rgb(0%,0%,100%)" r="0.7" /><circle cx="305.476124444" cy="350.400990302" fill="rgb(0%,0%,100%)" r="0.7" /><circle cx="303.879625" cy="352.940888677" fill="rgb(0%,0%,100%)" r="0.7" /><circle cx="302.314212944" cy="355.500065199" fill="rgb(0%,0%,100%)" r="0.7" /><circle cx="300.782191942" cy="358.079362668" fill="rgb(0%,0%,100%)" r="0.7" /><circle cx="299.286481207" cy="360.679880893" fill="rgb(0%,0%,100%)" r="0.7" /><circle cx="297.830727578" cy="363.302972054" fill="rgb(0%,0%,100%)" r="0.7" /><circle cx="296.419472851" cy="365.950258078" fill="rgb(0%,0%,100%)" r="0.7" /><circle cx="295.058390549" cy="368.623676166" fill="rgb(0%,0%,100%)" r="0.7" /><circle cx="293.754650433" cy="371.325502837" fill="rgb(0%,0%,100%)" r="0.7" /><circle cx="292.517435806" cy="374.058410647" fill="rgb(0%,0%,100%)" r="0.7" /><circle cx="291.358738448" cy="376.825489244" fill="rgb(0%,0%,100%)" r="0.7" /><circle cx="290.294582851" cy="379.630226027" fill="rgb(0%,0%,100%)" r="0.7" /><circle cx="289.346981849" cy="382.476358743" fill="rgb(0%,0%,100%)" r="0.7" /><circle cx="288.547186994" cy="385.367349745" fill="rgb(0%,0%,100%)" r="0.7" /><circle cx="287.964875324" cy="388.309029067" fill="rgb(0%,0%,100%)" r="0.7" /><circle cx="287.545015578" cy="391.279396289" fill="rgb(0%,0%,100%)" r="0.7" /><circle cx="287.196594521" cy="394.259040816" fill="rgb(0%,0%,100%)" r="0.7" /><circle cx="286.904719828" cy="397.244775592" fill="rgb(0%,0%,100%)" r="0.7" /><circle cx="286.661987576" cy="400.234905745" fill="rgb(0%,0%,100%)" r="0.7" /><circle cx="286.463725246" cy="403.228327211" fill="rgb(0%,0%,100%)" r="0.7" /><circle cx="286.306638346" cy="406.224190685" fill="rgb(0%,0%,100%)" r="0.7" /><circle cx="286.188239658" cy="409.221834373" fill="rgb(0%,0%,100%)" r="0.7" /><circle cx="286.106565085" cy="412.220702443" fill="rgb(0%,0%,100%)" r="0.7" /><circle cx="286.060011161" cy="415.220320932" fill="rgb(0%,0%,100%)" r="0.7" /><circle cx="286.047235547" cy="418.220276655" fill="rgb(0%,0%,100%)" r="0.7" /><circle cx="286.067091982" cy="421.220201292" fill="rgb(0%,0%,100%)" r="0.7" /><circle cx="286.11858521" cy="424.219741627" fill="rgb(0%,0%,100%)" r="0.7" /><circle cx="286.200839967" cy="427.218606222" fill="rgb(0%,0%,100%)" r="0.7" /><circle cx="285.813134118" cy="428.925859653" fill="rgb(0%,0%,100%)" r="0.7" /></svg>