<?xml version="1.0" encoding="utf-8" ?>
<svg baseProfile="full" height="100%" version="1.1" width="100%" xmlns="http://www.w3.org/2000/svg" xmlns:ev="http://www.w3.org/2001/xml-events" xmlns:xlink="http://www.w3.org/1999/xlink"><defs /><circle cx="337.238487472" cy="308.507211279" fill="rgb(100%,0%,0%)" r="0.7" /><circle cx="334.711419997" cy="310.010242328" fill="rgb(100%,0%,0%)" r="0.7" /><circle cx="333.04200653" cy="312.49267887" fill="rgb(100%,0%,0%)" r="0.7" /><circle cx="331.422106415" cy="315.013126433" fill="rgb(100%,0%,0%)" r="0.7" /><circle cx="329.715861879" cy="317.480642396" fill="rgb(100%,0%,0%)" r="0.7" /><circle cx="327.987070823" cy="319.932425617" fill="rgb(100%,0%,0%)" r="0.7" /><circle cx="326.235548964" cy="322.368018612" fill="rgb(100%,0%,0%)" r="0.7" /><circle cx="324.45956746" cy="324.785832264" fill="rgb(100%,0%,0%)" r="0.7" /><circle cx="322.656189568" cy="327.183271601" fill="rgb(100%,0%,0%)" r="0.7" /><circle cx="320.821057966" cy="329.556485233" fill="rgb(100%,0%,0%)" r="0.7" /><circle cx="318.947824859" cy="331.899722504" fill="rgb(100%,0%,0%)" r="0.7" /><circle cx="317.026976552" cy="334.20405558" fill="rgb(100%,0%,0%)" r="0.7" /><circle cx="315.043424698" cy="336.4545528" fill="rgb(100%,0%,0%)" r="0.7" /><circle cx="312.970874603" cy="338.623117559" fill="rgb(100%,0%,0%)" r="0.7" /><circle cx="310.755898159" cy="340.64485323" fill="rgb(100%,0%,0%)" r="0.7" /><circle cx="308.524774285" cy="342.649194622" fill="rgb(100%,0%,0%)" r="0.7" /><circle cx="306.271041381" cy="344.629221957" fill="rgb(100%,0%,0%)" r="0.7" /><circle cx="303.98467433" cy="346.571467927" fill="rgb(100%,0%,0%)" r="0.7" /><circle cx="301.66802115" cy="348.477499292" fill="rgb(100%,0%,0%)" r="0.7" /><circle cx="299.321623101" cy="350.34678361" fill="rgb(100%,0%,0%)" r="0.7" /><circle cx="296.945135296" cy="352.17766582" fill="rgb(100%,0%,0%)" r="0.7" /><circle cx="294.537662334" cy="353.967591262" fill="rgb(100%,0%,0%)" r="0.7" /><circle cx="292.097842468" cy="355.713161234" fill="rgb(100%,0%,0%)" r="0.7" /><circle cx="289.623914676" cy="357.410032238" fill="rgb(100%,0%,0%)" r="0.7" /><circle cx="287.113718034" cy="359.052751511" fill="rgb(100%,0%,0%)" r="0.7" /><circle cx="284.564677121" cy="360.634493641" fill="rgb(100%,0%,0%)" r="0.7" /><circle cx="281.973788087" cy="362.146671176" fill="rgb(100%,0%,0%)" r="0.7" /><circle cx="279.337614566" cy="363.578376024" fill="rgb(100%,0%,0%)" r="0.7" /><circle cx="276.652319092" cy="364.915575138" fill="rgb(100%,0%,0%)" r="0.7" /><circle cx="273.913809479" cy="366.139928567" fill="rgb(100%,0%,0%)" r="0.7" /><circle cx="271.118111292" cy="367.227056357" fill="rgb(100%,0%,0%)" r="0.7" /><circle cx="268.2622557" cy="368.143990531" fill="rgb(100%,0%,0%)" r="0.7" /><circle cx="270.771060552" cy="368.072783937" fill="rgb(100%,0%,0%)" r="0.7" /><circle cx="273.767273226" cy="367.92208685" fill="rgb(100%,0%,0%)" r="0.7" /><circle cx="276.7634859" cy="367.771389762" fill="rgb(100%,0%,0%)" r="0.7" /><circle cx="279.759698574" cy="367.620692675" fill="rgb(100%,0%,0%)" r="0.7" /><circle cx="282.755911248" cy="367.469995588" fill="rgb(100%,0%,0%)" r="0.7" /><circle cx="285.752123922" cy="367.319298501" fill="rgb(100%,0%,0%)" r="0.7" /><circle cx="288.748336596" cy="367.168601414" fill="rgb(100%,0%,0%)" r="0.7" /><circle cx="288.728709319" cy="368.998965572" fill="rgb(100%,0%,0%)" r="0.7" /><circle cx="287.400497576" cy="371.688919766" fill="rgb(100%,0%,0%)" r="0.7" /><circle cx="286.072285833" cy="374.37887396" fill="rgb(100%,0%,0%)" r="0.7" /><circle cx="284.74407409" cy="377.068828154" fill="rgb(100%,0%,0%)" r="0.7" /><circle cx="283.415862347" cy="379.758782348" fill="rgb(100%,0%,0%)" r="0.7" /><circle cx="282.087650604" cy="382.448736542" fill="rgb(100%,0%,0%)" r="0.7" /><circle cx="280.759438861" cy="385.138690736" fill="rgb(100%,0%,0%)" r="0.7" /><circle cx="279.431227118" cy="387.82864493" fill="rgb(100%,0%,0%)" r="0.7" /><circle cx="278.103015375" cy="390.518599124" fill="rgb(100%,0%,0%)" r="0.7" /><circle cx="276.9" cy="392.955" fill="rgb(100%,0%,0%)" r="0.7" /><circle cx="337.238487472" cy="308.507211279" fill="rgb(0%,0%,100%)" r="0.7" /><circle cx="340.041106656" cy="309.342193277" fill="rgb(0%,0%,100%)" r="0.7" /><circle cx="342.792250039" cy="310.525334777" fill="rgb(0%,0%,100%)" r="0.7" /><circle cx="345.279103389" cy="312.19710246" fill="rgb(0%,0%,100%)" r="0.7" /><circle cx="347.492814308" cy="314.218637704" fill="rgb(0%,0%,100%)" r="0.7" /><circle cx="349.45598655" cy="316.485316241" fill="rgb(0%,0%,100%)" r="0.7" /><circle cx="351.197443304" cy="318.927009911" fill="rgb(0%,0%,100%)" r="0.7" /><circle cx="352.740537863" cy="321.498931391" fill="rgb(0%,0%,100%)" r="0.7" /><circle cx="354.095207148" cy="324.174947398" fill="rgb(0%,0%,100%)" r="0.7" /><circle cx="355.129642512" cy="326.984118651" fill="rgb(0%,0%,100%)" r="0.7" /><circle cx="355.586982476" cy="329.945047402" fill="rgb(0%,0%,100%)" r="0.7" /><circle cx="355.521390101" cy="332.940694678" fill="rgb(0%,0%,100%)" r="0.7" /><circle cx="354.975644933" cy="335.887739247" fill="rgb(0%,0%,100%)" r="0.7" /><circle cx="354.02661552" cy="338.731556217" fill="rgb(0%,0%,100%)" r="0.7" /><circle cx="352.756212676" cy="341.447785" fill="rgb(0%,0%,100%)" r="0.7" /><circle cx="351.235098842" cy="344.03249958" fill="rgb(0%,0%,100%)" r="0.7" /><circle cx="349.518627414" cy="346.492189462" fill="rgb(0%,0%,100%)" r="0.7" /><circle cx="347.648487964" cy="348.83741461" fill="rgb(0%,0%,100%)" r="0.7" /><circle cx="345.655761576" cy="351.079565795" fill="rgb(0%,0%,100%)" r="0.7" /><circle cx="343.563713497" cy="353.229444788" fill="rgb(0%,0%,100%)" r="0.7" /><circle cx="341.389930355" cy="355.29676173" fill="rgb(0%,0%,100%)" r="0.7" /><circle cx="339.147962697" cy="357.289954735" fill="rgb(0%,0%,100%)" r="0.7" /><circle cx="336.848319995" cy="359.216365092" fill="rgb(0%,0%,100%)" r="0.7" /><circle cx="334.499309209" cy="361.082308547" fill="rgb(0%,0%,100%)" r="0.7" /><circle cx="332.107598834" cy="362.893210579" fill="rgb(0%,0%,100%)" r="0.7" /><circle cx="329.678580638" cy="364.653765372" fill="rgb(0%,0%,100%)" r="0.7" /><circle cx="327.216667095" cy="366.368041064" fill="rgb(0%,0%,100%)" r="0.7" /><circle cx="324.725518606" cy="368.039565635" fill="rgb(0%,0%,100%)" r="0.7" /><circle cx="322.208195974" cy="369.671411946" fill="rgb(0%,0%,100%)" r="0.7" /><circle cx="319.667272001" cy="371.266268966" fill="rgb(0%,0%,100%)" r="0.7" /><circle cx="317.104930912" cy="372.826490517" fill="rgb(0%,0%,100%)" r="0.7" /><circle cx="314.52303849" cy="374.354139867" fill="rgb(0%,0%,100%)" r="0.7" /><circle cx="311.923183861" cy="375.851033043" fill="rgb(0%,0%,100%)" r="0.7" /><circle cx="309.306753064" cy="377.318749598" fill="rgb(0%,0%,100%)" r="0.7" /><circle cx="306.674916545" cy="378.75868121" fill="rgb(0%,0%,100%)" r="0.7" /><circle cx="304.028710081" cy="380.172017497" fill="rgb(0%,0%,100%)" r="0.7" /><circle cx="301.369002188" cy="381.559785726" fill="rgb(0%,0%,100%)" r="0.7" /><circle cx="298.696556972" cy="382.922829563" fill="rgb(0%,0%,100%)" r="0.7" /><circle cx="296.01196557" cy="384.26184585" fill="rgb(0%,0%,100%)" r="0.7" /><circle cx="293.315747698" cy="385.577320842" fill="rgb(0%,0%,100%)" r="0.7" /><circle cx="290.608319893" cy="386.869515576" fill="rgb(0%,0%,100%)" r="0.7" /><circle cx="287.88990506" cy="388.138441148" fill="rgb(0%,0%,100%)" r="0.7" /><circle cx="285.160564659" cy="389.38370209" fill="rgb(0%,0%,100%)" r="0.7" /><circle cx="282.420087314" cy="390.604230413" fill="rgb(0%,0%,100%)" r="0.7" /><circle cx="279.667632778" cy="391.797536278" fill="rgb(0%,0%,100%)" r="0.7" /><circle cx="276.9" cy="392.955" fill="rgb(0%,0%,100%)" r="0.7" /></svg>