<?xml version="1.0" encoding="utf-8" ?>
<svg baseProfile="full" height="100%" version="1.1" width="100%" xmlns="http://www.w3.org/2000/svg" xmlns:ev="http://www.w3.org/2001/xml-events" xmlns:xlink="http://www.w3.org/1999/xlink"><defs /><circle cx="318.564451012" cy="347.734680657" fill="rgb(100%,0%,0%)" r="0.7" /><circle cx="315.617799819" cy="348.265601562" fill="rgb(100%,0%,0%)" r="0.7" /><circle cx="312.815690084" cy="349.328737321" fill="rgb(100%,0%,0%)" r="0.7" /><circle cx="310.176354838" cy="350.7516045" fill="rgb(100%,0%,0%)" r="0.7" /><circle cx="307.68628516" cy="352.423235098" fill="rgb(100%,0%,0%)" r="0.7" /><circle cx="305.819031751" cy="354.766361376" fill="rgb(100%,0%,0%)" r="0.7" /><circle cx="304.015345562" cy="357.163551111" fill="rgb(100%,0%,0%)" r="0.7" /><circle cx="302.249369612" cy="359.588661307" fill="rgb(100%,0%,0%)" r="0.7" /><circle cx="300.521212566" cy="362.040863983" fill="rgb(100%,0%,0%)" r="0.7" /><circle cx="298.833115068" cy="364.520807441" fill="rgb(100%,0%,0%)" r="0.7" /><circle cx="297.18886319" cy="367.030027591" fill="rgb(100%,0%,0%)" r="0.7" /><circle cx="295.593840282" cy="369.570812136" fill="rgb(100%,0%,0%)" r="0.7" /><circle cx="294.055394986" cy="372.146228437" fill="rgb(100%,0%,0%)" r="0.7" /><circle cx="292.583542001" cy="374.760242898" fill="rgb(100%,0%,0%)" r="0.7" /><circle cx="291.148962214" cy="377.394973119" fill="rgb(100%,0%,0%)" r="0.7" /><circle cx="289.708176818" cy="380.026353574" fill="rgb(100%,0%,0%)" r="0.7" /><circle cx="288.264641183" cy="382.656220429" fill="rgb(100%,0%,0%)" r="0.7" /><circle cx="286.818560817" cy="385.284708396" fill="rgb(100%,0%,0%)" r="0.7" /><circle cx="285.370003451" cy="387.911801585" fill="rgb(100%,0%,0%)" r="0.7" /><circle cx="283.918919447" cy="390.537509566" fill="rgb(100%,0%,0%)" r="0.7" /><circle cx="282.465226468" cy="393.161776496" fill="rgb(100%,0%,0%)" r="0.7" /><circle cx="281.008793819" cy="395.784530557" fill="rgb(100%,0%,0%)" r="0.7" /><circle cx="279.549455177" cy="398.40566412" fill="rgb(100%,0%,0%)" r="0.7" /><circle cx="278.086990663" cy="401.025058418" fill="rgb(100%,0%,0%)" r="0.7" /><circle cx="276.621136736" cy="403.642549273" fill="rgb(100%,0%,0%)" r="0.7" /><circle cx="275.151556141" cy="406.25795457" fill="rgb(100%,0%,0%)" r="0.7" /><circle cx="273.677839788" cy="408.871031926" fill="rgb(100%,0%,0%)" r="0.7" /><circle cx="272.199474698" cy="411.481478792" fill="rgb(100%,0%,0%)" r="0.7" /><circle cx="270.715803314" cy="414.088919777" fill="rgb(100%,0%,0%)" r="0.7" /><circle cx="269.225985284" cy="416.692844866" fill="rgb(100%,0%,0%)" r="0.7" /><circle cx="267.728891815" cy="419.292589529" fill="rgb(100%,0%,0%)" r="0.7" /><circle cx="266.222958657" cy="421.887246838" fill="rgb(100%,0%,0%)" r="0.7" /><circle cx="264.705963724" cy="424.475436839" fill="rgb(100%,0%,0%)" r="0.7" /><circle cx="263.174466834" cy="427.055058997" fill="rgb(100%,0%,0%)" r="0.7" /><circle cx="261.622663589" cy="429.622531584" fill="rgb(100%,0%,0%)" r="0.7" /><circle cx="260.039281697" cy="432.170605987" fill="rgb(100%,0%,0%)" r="0.7" /><circle cx="258.395135592" cy="434.67975701" fill="rgb(100%,0%,0%)" r="0.7" /><circle cx="258.062450569" cy="435.652744387" fill="rgb(100%,0%,0%)" r="0.7" /><circle cx="260.485363997" cy="433.883707779" fill="rgb(100%,0%,0%)" r="0.7" /><circle cx="262.908277425" cy="432.11467117" fill="rgb(100%,0%,0%)" r="0.7" /><circle cx="265.331190852" cy="430.345634562" fill="rgb(100%,0%,0%)" r="0.7" /><circle cx="267.75410428" cy="428.576597953" fill="rgb(100%,0%,0%)" r="0.7" /><circle cx="270.177017708" cy="426.807561345" fill="rgb(100%,0%,0%)" r="0.7" /><circle cx="272.599931135" cy="425.038524736" fill="rgb(100%,0%,0%)" r="0.7" /><circle cx="274.43835041" cy="424.862588512" fill="rgb(100%,0%,0%)" r="0.7" /><circle cx="275.142276064" cy="427.778834159" fill="rgb(100%,0%,0%)" r="0.7" /><circle cx="275.846201718" cy="430.695079806" fill="rgb(100%,0%,0%)" r="0.7" /><circle cx="276.550127372" cy="433.611325453" fill="rgb(100%,0%,0%)" r="0.7" /><circle cx="277.254053026" cy="436.5275711" fill="rgb(100%,0%,0%)" r="0.7" /><circle cx="277.95797868" cy="439.443816747" fill="rgb(100%,0%,0%)" r="0.7" /><circle cx="278.661904334" cy="442.360062394" fill="rgb(100%,0%,0%)" r="0.7" /><circle cx="279.365829988" cy="445.276308041" fill="rgb(100%,0%,0%)" r="0.7" /><circle cx="279.856" cy="447.307" fill="rgb(100%,0%,0%)" r="0.7" /><circle cx="318.564451012" cy="347.734680657" fill="rgb(0%,0%,100%)" r="0.7" /><circle cx="321.544884979" cy="347.9641557" fill="rgb(0%,0%,100%)" r="0.7" /><circle cx="324.294488676" cy="349.125928341" fill="rgb(0%,0%,100%)" r="0.7" /><circle cx="326.303881423" cy="351.263525874" fill="rgb(0%,0%,100%)" r="0.7" /><circle cx="326.69280198" cy="354.231445646" fill="rgb(0%,0%,100%)" r="0.7" /><circle cx="326.551909849" cy="357.225897066" fill="rgb(0%,0%,100%)" r="0.7" /><circle cx="326.088699923" cy="360.188967546" fill="rgb(0%,0%,100%)" r="0.7" /><circle cx="325.409583944" cy="363.110600438" fill="rgb(0%,0%,100%)" r="0.7" /><circle cx="324.573663875" cy="365.991497733" fill="rgb(0%,0%,100%)" r="0.7" /><circle cx="323.616181502" cy="368.834406266" fill="rgb(0%,0%,100%)" r="0.7" /><circle cx="322.558772169" cy="371.641735599" fill="rgb(0%,0%,100%)" r="0.7" /><circle cx="321.413584033" cy="374.414435181" fill="rgb(0%,0%,100%)" r="0.7" /><circle cx="320.180549914" cy="377.149160723" fill="rgb(0%,0%,100%)" r="0.7" /><circle cx="319.017114699" cy="379.913463945" fill="rgb(0%,0%,100%)" r="0.7" /><circle cx="317.781412862" cy="382.647049111" fill="rgb(0%,0%,100%)" r="0.7" /><circle cx="316.478500303" cy="385.349296275" fill="rgb(0%,0%,100%)" r="0.7" /><circle cx="315.128069815" cy="388.028114559" fill="rgb(0%,0%,100%)" r="0.7" /><circle cx="313.741725824" cy="390.688566301" fill="rgb(0%,0%,100%)" r="0.7" /><circle cx="312.327007006" cy="393.334039901" fill="rgb(0%,0%,100%)" r="0.7" /><circle cx="310.889104613" cy="395.966984065" fill="rgb(0%,0%,100%)" r="0.7" /><circle cx="309.431773569" cy="398.589222047" fill="rgb(0%,0%,100%)" r="0.7" /><circle cx="307.957825628" cy="401.202160406" fill="rgb(0%,0%,100%)" r="0.7" /><circle cx="306.469431258" cy="403.806902536" fill="rgb(0%,0%,100%)" r="0.7" /><circle cx="304.968307375" cy="406.404326161" fill="rgb(0%,0%,100%)" r="0.7" /><circle cx="303.455827922" cy="408.995156956" fill="rgb(0%,0%,100%)" r="0.7" /><circle cx="301.933117179" cy="411.579987603" fill="rgb(0%,0%,100%)" r="0.7" /><circle cx="300.401101005" cy="414.15931572" fill="rgb(0%,0%,100%)" r="0.7" /><circle cx="298.860552576" cy="416.733555586" fill="rgb(0%,0%,100%)" r="0.7" /><circle cx="297.312117232" cy="419.303060877" fill="rgb(0%,0%,100%)" r="0.7" /><circle cx="295.756343269" cy="421.868120335" fill="rgb(0%,0%,100%)" r="0.7" /><circle cx="294.193678635" cy="424.428997068" fill="rgb(0%,0%,100%)" r="0.7" /><circle cx="292.624509248" cy="426.985889144" fill="rgb(0%,0%,100%)" r="0.7" /><circle cx="291.049142873" cy="429.538970959" fill="rgb(0%,0%,100%)" r="0.7" /><circle cx="289.467819665" cy="432.088381711" fill="rgb(0%,0%,100%)" r="0.7" /><circle cx="287.880732671" cy="434.634187568" fill="rgb(0%,0%,100%)" r="0.7" /><circle cx="286.287966865" cy="437.176458184" fill="rgb(0%,0%,100%)" r="0.7" /><circle cx="284.689534194" cy="439.715157457" fill="rgb(0%,0%,100%)" r="0.7" /><circle cx="283.085277105" cy="442.25016992" fill="rgb(0%,0%,100%)" r="0.7" /><circle cx="281.4746907" cy="444.781208243" fill="rgb(0%,0%,100%)" r="0.7" /><circle cx="279.856" cy="447.307" fill="rgb(0%,0%,100%)" r="0.7" /></svg>