<?xml version="1.0" encoding="utf-8" ?>
<svg baseProfile="full" height="100%" version="1.1" width="100%" xmlns="http://www.w3.org/2000/svg" xmlns:ev="http://www.w3.org/2001/xml-events" xmlns:xlink="http://www.w3.org/1999/xlink"><defs /><circle cx="283.248150513" cy="341.160837544" fill="rgb(100%,0%,0%)" r="0.7" /><circle cx="280.49232751" cy="342.240249029" fill="rgb(100%,0%,0%)" r="0.7" /><circle cx="278.456896379" cy="344.425611839" fill="rgb(100%,0%,0%)" r="0.7" /><circle cx="277.045654799" cy="347.066548711" fill="rgb(100%,0%,0%)" r="0.7" /><circle cx="276.318701691" cy="349.972673219" fill="rgb(100%,0%,0%)" r="0.7" /><circle cx="275.994445326" cy="352.953309901" fill="rgb(100%,0%,0%)" r="0.7" /><circle cx="275.9963778" cy="355.952079885" fill="rgb(100%,0%,0%)" r="0.7" /><circle cx="276.269803643" cy="358.938737439" fill="rgb(100%,0%,0%)" r="0.7" /><circle cx="276.768613608" cy="361.896367833" fill="rgb(100%,0%,0%)" r="0.7" /><circle cx="277.456007063" cy="364.816104108" fill="rgb(100%,0%,0%)" r="0.7" /><circle cx="278.303399119" cy="367.693595381" fill="rgb(100%,0%,0%)" r="0.7" /><circle cx="279.289002957" cy="370.526798459" fill="rgb(100%,0%,0%)" r="0.7" /><circle cx="280.396709146" cy="373.314576597" fill="rgb(100%,0%,0%)" r="0.7" /><circle cx="281.615609323" cy="376.05558496" fill="rgb(100%,0%,0%)" r="0.7" /><circle cx="282.941021254" cy="378.746699415" fill="rgb(100%,0%,0%)" r="0.7" /><circle cx="284.384990453" cy="381.375907596" fill="rgb(100%,0%,0%)" r="0.7" /><circle cx="285.8755345" cy="383.9758724" fill="rgb(100%,0%,0%)" r="0.7" /><circle cx="287.229441774" cy="386.652942" fill="rgb(100%,0%,0%)" r="0.7" /><circle cx="288.550301004" cy="389.346512717" fill="rgb(100%,0%,0%)" r="0.7" /><circle cx="289.853574507" cy="392.048633212" fill="rgb(100%,0%,0%)" r="0.7" /><circle cx="291.145335609" cy="394.756280283" fill="rgb(100%,0%,0%)" r="0.7" /><circle cx="292.428689603" cy="397.467924259" fill="rgb(100%,0%,0%)" r="0.7" /><circle cx="293.705446275" cy="400.182678958" fill="rgb(100%,0%,0%)" r="0.7" /><circle cx="294.97672926" cy="402.900003737" fill="rgb(100%,0%,0%)" r="0.7" /><circle cx="296.24321687" cy="405.619569843" fill="rgb(100%,0%,0%)" r="0.7" /><circle cx="297.505179525" cy="408.341230565" fill="rgb(100%,0%,0%)" r="0.7" /><circle cx="298.790582544" cy="411.051126288" fill="rgb(100%,0%,0%)" r="0.7" /><circle cx="300.091702416" cy="413.753678713" fill="rgb(100%,0%,0%)" r="0.7" /><circle cx="301.193919741" cy="416.543039422" fill="rgb(100%,0%,0%)" r="0.7" /><circle cx="302.055306856" cy="419.415600774" fill="rgb(100%,0%,0%)" r="0.7" /><circle cx="302.626321613" cy="422.359280491" fill="rgb(100%,0%,0%)" r="0.7" /><circle cx="302.852468631" cy="425.348803973" fill="rgb(100%,0%,0%)" r="0.7" /><circle cx="302.681349" cy="428.341451572" fill="rgb(100%,0%,0%)" r="0.7" /><circle cx="302.074333772" cy="431.276427733" fill="rgb(100%,0%,0%)" r="0.7" /><circle cx="301.018727118" cy="434.081218142" fill="rgb(100%,0%,0%)" r="0.7" /><circle cx="299.532035053" cy="436.683285411" fill="rgb(100%,0%,0%)" r="0.7" /><circle cx="297.651877586" cy="439.016920691" fill="rgb(100%,0%,0%)" r="0.7" /><circle cx="295.399" cy="440.99" fill="rgb(100%,0%,0%)" r="0.7" /><circle cx="295.604209299" cy="440.902957361" fill="rgb(100%,0%,0%)" r="0.7" /><circle cx="298.36603134" cy="439.731488618" fill="rgb(100%,0%,0%)" r="0.7" /><circle cx="301.127853381" cy="438.560019876" fill="rgb(100%,0%,0%)" r="0.7" /><circle cx="303.245" cy="438.362271863" fill="rgb(100%,0%,0%)" r="0.7" /><circle cx="303.245" cy="441.362271863" fill="rgb(100%,0%,0%)" r="0.7" /><circle cx="303.412637655" cy="443.923821565" fill="rgb(100%,0%,0%)" r="0.7" /><circle cx="283.248150513" cy="341.160837544" fill="rgb(0%,0%,100%)" r="0.7" /><circle cx="286.203802801" cy="341.578421257" fill="rgb(0%,0%,100%)" r="0.7" /><circle cx="288.457391568" cy="343.371087691" fill="rgb(0%,0%,100%)" r="0.7" /><circle cx="289.025578817" cy="346.297819331" fill="rgb(0%,0%,100%)" r="0.7" /><circle cx="288.282948282" cy="349.171862016" fill="rgb(0%,0%,100%)" r="0.7" /><circle cx="286.275117271" cy="351.368766862" fill="rgb(0%,0%,100%)" r="0.7" /><circle cx="284.441486462" cy="353.673695056" fill="rgb(0%,0%,100%)" r="0.7" /><circle cx="283.897" cy="356.395604236" fill="rgb(0%,0%,100%)" r="0.7" /><circle cx="284.66816397" cy="359.272769228" fill="rgb(0%,0%,100%)" r="0.7" /><circle cx="285.661113679" cy="362.103626524" fill="rgb(0%,0%,100%)" r="0.7" /><circle cx="286.709058302" cy="364.914596289" fill="rgb(0%,0%,100%)" r="0.7" /><circle cx="287.810662583" cy="367.704968572" fill="rgb(0%,0%,100%)" r="0.7" /><circle cx="288.96786929" cy="370.472741112" fill="rgb(0%,0%,100%)" r="0.7" /><circle cx="290.184630344" cy="373.214839534" fill="rgb(0%,0%,100%)" r="0.7" /><circle cx="291.464214857" cy="375.928171607" fill="rgb(0%,0%,100%)" r="0.7" /><circle cx="292.742683108" cy="378.642116432" fill="rgb(0%,0%,100%)" r="0.7" /><circle cx="294.022208144" cy="381.355572318" fill="rgb(0%,0%,100%)" r="0.7" /><circle cx="295.302653542" cy="384.06859924" fill="rgb(0%,0%,100%)" r="0.7" /><circle cx="296.584021271" cy="386.781184348" fill="rgb(0%,0%,100%)" r="0.7" /><circle cx="297.866368197" cy="389.493300586" fill="rgb(0%,0%,100%)" r="0.7" /><circle cx="299.149794562" cy="392.204911756" fill="rgb(0%,0%,100%)" r="0.7" /><circle cx="300.434436312" cy="394.915947564" fill="rgb(0%,0%,100%)" r="0.7" /><circle cx="301.720485239" cy="397.626313759" fill="rgb(0%,0%,100%)" r="0.7" /><circle cx="303.008213183" cy="400.335880603" fill="rgb(0%,0%,100%)" r="0.7" /><circle cx="304.298019277" cy="403.044466244" fill="rgb(0%,0%,100%)" r="0.7" /><circle cx="305.590506763" cy="405.751769542" fill="rgb(0%,0%,100%)" r="0.7" /><circle cx="306.886693169" cy="408.457305765" fill="rgb(0%,0%,100%)" r="0.7" /><circle cx="308.188520634" cy="411.160130807" fill="rgb(0%,0%,100%)" r="0.7" /><circle cx="309.500788746" cy="413.857890682" fill="rgb(0%,0%,100%)" r="0.7" /><circle cx="310.850972122" cy="416.536691333" fill="rgb(0%,0%,100%)" r="0.7" /><circle cx="311.857322734" cy="419.352045081" fill="rgb(0%,0%,100%)" r="0.7" /><circle cx="312.303088028" cy="422.315534851" fill="rgb(0%,0%,100%)" r="0.7" /><circle cx="312.301199658" cy="425.313015437" fill="rgb(0%,0%,100%)" r="0.7" /><circle cx="311.89426665" cy="428.283176463" fill="rgb(0%,0%,100%)" r="0.7" /><circle cx="311.125518792" cy="431.181245469" fill="rgb(0%,0%,100%)" r="0.7" /><circle cx="310.041333578" cy="433.977023054" fill="rgb(0%,0%,100%)" r="0.7" /><circle cx="308.687918524" cy="436.653190234" fill="rgb(0%,0%,100%)" r="0.7" /><circle cx="307.108017679" cy="439.202494669" fill="rgb(0%,0%,100%)" r="0.7" /><circle cx="305.339052899" cy="441.624682171" fill="rgb(0%,0%,100%)" r="0.7" /><circle cx="303.412637655" cy="443.923821565" fill="rgb(0%,0%,100%)" r="0.7" /></svg>