<?xml version="1.0" encoding="utf-8" ?>
<svg baseProfile="full" height="100%" version="1.1" width="100%" xmlns="http://www.w3.org/2000/svg" xmlns:ev="http://www.w3.org/2001/xml-events" xmlns:xlink="http://www.w3.org/1999/xlink"><defs /><circle cx="352.236731956" cy="310.958111955" fill="rgb(100%,0%,0%)" r="0.7" /><circle cx="349.242371325" cy="311.037788936" fill="rgb(100%,0%,0%)" r="0.7" /><circle cx="346.294290115" cy="311.582696684" fill="rgb(100%,0%,0%)" r="0.7" /><circle cx="343.417690479" cy="312.431229424" fill="rgb(100%,0%,0%)" r="0.7" /><circle cx="340.622360972" cy="313.517446142" fill="rgb(100%,0%,0%)" r="0.7" /><circle cx="337.894014577" cy="314.764416273" fill="rgb(100%,0%,0%)" r="0.7" /><circle cx="335.207293179" cy="316.098963108" fill="rgb(100%,0%,0%)" r="0.7" /><circle cx="332.552388331" cy="317.495817425" fill="rgb(100%,0%,0%)" r="0.7" /><circle cx="329.923599096" cy="318.941221573" fill="rgb(100%,0%,0%)" r="0.7" /><circle cx="327.31705112" cy="320.426417298" fill="rgb(100%,0%,0%)" r="0.7" /><circle cx="324.72997518" cy="321.945266362" fill="rgb(100%,0%,0%)" r="0.7" /><circle cx="322.160219862" cy="323.493247161" fill="rgb(100%,0%,0%)" r="0.7" /><circle cx="319.606070526" cy="325.066881019" fill="rgb(100%,0%,0%)" r="0.7" /><circle cx="317.066171233" cy="326.663378064" fill="rgb(100%,0%,0%)" r="0.7" /><circle cx="314.539340565" cy="328.280499898" fill="rgb(100%,0%,0%)" r="0.7" /><circle cx="312.024605277" cy="329.916372804" fill="rgb(100%,0%,0%)" r="0.7" /><circle cx="309.521130821" cy="331.569416352" fill="rgb(100%,0%,0%)" r="0.7" /><circle cx="307.028162602" cy="333.238300253" fill="rgb(100%,0%,0%)" r="0.7" /><circle cx="304.6321754" cy="335.043203119" fill="rgb(100%,0%,0%)" r="0.7" /><circle cx="302.285946701" cy="336.912649414" fill="rgb(100%,0%,0%)" r="0.7" /><circle cx="299.983907275" cy="338.836238142" fill="rgb(100%,0%,0%)" r="0.7" /><circle cx="297.730393265" cy="340.816434482" fill="rgb(100%,0%,0%)" r="0.7" /><circle cx="295.533753135" cy="342.859488348" fill="rgb(100%,0%,0%)" r="0.7" /><circle cx="293.407177031" cy="344.975296679" fill="rgb(100%,0%,0%)" r="0.7" /><circle cx="291.371429837" cy="347.178487127" fill="rgb(100%,0%,0%)" r="0.7" /><circle cx="289.460782203" cy="349.490698906" fill="rgb(100%,0%,0%)" r="0.7" /><circle cx="287.73668066" cy="351.944425044" fill="rgb(100%,0%,0%)" r="0.7" /><circle cx="286.341548534" cy="354.596218122" fill="rgb(100%,0%,0%)" r="0.7" /><circle cx="285.510281353" cy="357.471431619" fill="rgb(100%,0%,0%)" r="0.7" /><circle cx="285.45186399" cy="360.461178882" fill="rgb(100%,0%,0%)" r="0.7" /><circle cx="286.178436653" cy="363.364408432" fill="rgb(100%,0%,0%)" r="0.7" /><circle cx="287.468169821" cy="366.069564634" fill="rgb(100%,0%,0%)" r="0.7" /><circle cx="289.0727475" cy="368.60332671" fill="rgb(100%,0%,0%)" r="0.7" /><circle cx="290.818019842" cy="371.043262952" fill="rgb(100%,0%,0%)" r="0.7" /><circle cx="292.586720048" cy="373.466402622" fill="rgb(100%,0%,0%)" r="0.7" /><circle cx="294.502261128" cy="375.77370381" fill="rgb(100%,0%,0%)" r="0.7" /><circle cx="296.448960424" cy="378.056331016" fill="rgb(100%,0%,0%)" r="0.7" /><circle cx="298.400550568" cy="380.334778521" fill="rgb(100%,0%,0%)" r="0.7" /><circle cx="300.356441867" cy="382.609528852" fill="rgb(100%,0%,0%)" r="0.7" /><circle cx="302.316364386" cy="384.880826302" fill="rgb(100%,0%,0%)" r="0.7" /><circle cx="304.280138808" cy="387.14875668" fill="rgb(100%,0%,0%)" r="0.7" /><circle cx="306.247723665" cy="389.413418687" fill="rgb(100%,0%,0%)" r="0.7" /><circle cx="308.219063234" cy="391.674800126" fill="rgb(100%,0%,0%)" r="0.7" /><circle cx="310.194156438" cy="393.932884253" fill="rgb(100%,0%,0%)" r="0.7" /><circle cx="312.173047817" cy="396.187653911" fill="rgb(100%,0%,0%)" r="0.7" /><circle cx="314.155788416" cy="398.439055439" fill="rgb(100%,0%,0%)" r="0.7" /><circle cx="316.142430682" cy="400.686998222" fill="rgb(100%,0%,0%)" r="0.7" /><circle cx="318.133063275" cy="402.931396968" fill="rgb(100%,0%,0%)" r="0.7" /><circle cx="320.127801653" cy="405.172161941" fill="rgb(100%,0%,0%)" r="0.7" /><circle cx="322.126761357" cy="407.40916891" fill="rgb(100%,0%,0%)" r="0.7" /><circle cx="324.130073273" cy="409.642275533" fill="rgb(100%,0%,0%)" r="0.7" /><circle cx="326.137886875" cy="411.8713232" fill="rgb(100%,0%,0%)" r="0.7" /><circle cx="328.150382868" cy="414.096148396" fill="rgb(100%,0%,0%)" r="0.7" /><circle cx="330.167754788" cy="416.31655878" fill="rgb(100%,0%,0%)" r="0.7" /><circle cx="332.190215571" cy="418.532336264" fill="rgb(100%,0%,0%)" r="0.7" /><circle cx="334.218001021" cy="420.743235571" fill="rgb(100%,0%,0%)" r="0.7" /><circle cx="336.251382216" cy="422.948991274" fill="rgb(100%,0%,0%)" r="0.7" /><circle cx="338.290656537" cy="425.149300096" fill="rgb(100%,0%,0%)" r="0.7" /><circle cx="340.336157246" cy="427.343821794" fill="rgb(100%,0%,0%)" r="0.7" /><circle cx="342.388258501" cy="429.532172897" fill="rgb(100%,0%,0%)" r="0.7" /><circle cx="344.447381408" cy="431.713918914" fill="rgb(100%,0%,0%)" r="0.7" /><circle cx="346.514000666" cy="433.888563834" fill="rgb(100%,0%,0%)" r="0.7" /><circle cx="348.588655142" cy="436.055539461" fill="rgb(100%,0%,0%)" r="0.7" /><circle cx="350.671968739" cy="438.214199711" fill="rgb(100%,0%,0%)" r="0.7" /><circle cx="352.764646138" cy="440.363781288" fill="rgb(100%,0%,0%)" r="0.7" /><circle cx="354.86750608" cy="442.50339343" fill="rgb(100%,0%,0%)" r="0.7" /><circle cx="356.981520659" cy="444.631999158" fill="rgb(100%,0%,0%)" r="0.7" /><circle cx="359.107811131" cy="446.748333276" fill="rgb(100%,0%,0%)" r="0.7" /><circle cx="360.674171706" cy="447.605889745" fill="rgb(100%,0%,0%)" r="0.7" /><circle cx="352.236731956" cy="310.958111955" fill="rgb(0%,0%,100%)" r="0.7" /><circle cx="355.156789275" cy="311.595862802" fill="rgb(0%,0%,100%)" r="0.7" /><circle cx="357.661187401" cy="313.209177516" fill="rgb(0%,0%,100%)" r="0.7" /><circle cx="359.293756793" cy="315.701066598" fill="rgb(0%,0%,100%)" r="0.7" /><circle cx="359.61372192" cy="318.627233595" fill="rgb(0%,0%,100%)" r="0.7" /><circle cx="358.788064903" cy="321.503408621" fill="rgb(0%,0%,100%)" r="0.7" /><circle cx="357.209928862" cy="324.041466835" fill="rgb(0%,0%,100%)" r="0.7" /><circle cx="354.944633179" cy="325.991364523" fill="rgb(0%,0%,100%)" r="0.7" /><circle cx="352.231637997" cy="327.253317085" fill="rgb(0%,0%,100%)" r="0.7" /><circle cx="349.29770731" cy="327.845518706" fill="rgb(0%,0%,100%)" r="0.7" /><circle cx="346.39948339" cy="328.526741413" fill="rgb(0%,0%,100%)" r="0.7" /><circle cx="343.665417566" cy="329.759618319" fill="rgb(0%,0%,100%)" r="0.7" /><circle cx="341.004407229" cy="331.144488672" fill="rgb(0%,0%,100%)" r="0.7" /><circle cx="338.389596035" cy="332.614936705" fill="rgb(0%,0%,100%)" r="0.7" /><circle cx="335.94348468" cy="334.333890466" fill="rgb(0%,0%,100%)" r="0.7" /><circle cx="333.665180474" cy="336.285627298" fill="rgb(0%,0%,100%)" r="0.7" /><circle cx="331.400197312" cy="338.252817113" fill="rgb(0%,0%,100%)" r="0.7" /><circle cx="329.143707535" cy="340.229746183" fill="rgb(0%,0%,100%)" r="0.7" /><circle cx="326.882867251" cy="342.200009511" fill="rgb(0%,0%,100%)" r="0.7" /><circle cx="324.863771504" cy="344.408890453" fill="rgb(0%,0%,100%)" r="0.7" /><circle cx="323.093454651" cy="346.830492196" fill="rgb(0%,0%,100%)" r="0.7" /><circle cx="321.408433299" cy="349.312479006" fill="rgb(0%,0%,100%)" r="0.7" /><circle cx="319.773430143" cy="351.827748172" fill="rgb(0%,0%,100%)" r="0.7" /><circle cx="318.175524977" cy="354.366756867" fill="rgb(0%,0%,100%)" r="0.7" /><circle cx="316.932435349" cy="357.074129488" fill="rgb(0%,0%,100%)" r="0.7" /><circle cx="316.710333825" cy="360.054612356" fill="rgb(0%,0%,100%)" r="0.7" /><circle cx="317.237501993" cy="363.002579971" fill="rgb(0%,0%,100%)" r="0.7" /><circle cx="318.25657529" cy="365.821616501" fill="rgb(0%,0%,100%)" r="0.7" /><circle cx="319.600944618" cy="368.502142175" fill="rgb(0%,0%,100%)" r="0.7" /><circle cx="321.174295091" cy="371.055603399" fill="rgb(0%,0%,100%)" r="0.7" /><circle cx="322.922011118" cy="373.493308934" fill="rgb(0%,0%,100%)" r="0.7" /><circle cx="324.819077192" cy="375.816685799" fill="rgb(0%,0%,100%)" r="0.7" /><circle cx="326.726603668" cy="378.130459768" fill="rgb(0%,0%,100%)" r="0.7" /><circle cx="328.572104535" cy="380.495637444" fill="rgb(0%,0%,100%)" r="0.7" /><circle cx="330.402618297" cy="382.872447518" fill="rgb(0%,0%,100%)" r="0.7" /><circle cx="332.222423097" cy="385.25746208" fill="rgb(0%,0%,100%)" r="0.7" /><circle cx="334.034074584" cy="387.648683623" fill="rgb(0%,0%,100%)" r="0.7" /><circle cx="335.839231039" cy="390.044811814" fill="rgb(0%,0%,100%)" r="0.7" /><circle cx="337.639047943" cy="392.444954494" fill="rgb(0%,0%,100%)" r="0.7" /><circle cx="339.434360474" cy="394.848458504" fill="rgb(0%,0%,100%)" r="0.7" /><circle cx="341.225809714" cy="397.254848796" fill="rgb(0%,0%,100%)" r="0.7" /><circle cx="343.013888688" cy="399.663753172" fill="rgb(0%,0%,100%)" r="0.7" /><circle cx="344.798977441" cy="402.074862853" fill="rgb(0%,0%,100%)" r="0.7" /><circle cx="346.581397436" cy="404.487948974" fill="rgb(0%,0%,100%)" r="0.7" /><circle cx="348.361404625" cy="406.902814503" fill="rgb(0%,0%,100%)" r="0.7" /><circle cx="350.139214237" cy="409.319300558" fill="rgb(0%,0%,100%)" r="0.7" /><circle cx="351.915003758" cy="411.737270918" fill="rgb(0%,0%,100%)" r="0.7" /><circle cx="353.688924552" cy="414.156613537" fill="rgb(0%,0%,100%)" r="0.7" /><circle cx="355.461101695" cy="416.577229781" fill="rgb(0%,0%,100%)" r="0.7" /><circle cx="357.231647577" cy="418.999045199" fill="rgb(0%,0%,100%)" r="0.7" /><circle cx="359.000647603" cy="421.4219843" fill="rgb(0%,0%,100%)" r="0.7" /><circle cx="360.76818468" cy="423.846000139" fill="rgb(0%,0%,100%)" r="0.7" /><circle cx="362.534305621" cy="426.271025941" fill="rgb(0%,0%,100%)" r="0.7" /><circle cx="364.299082027" cy="428.697058072" fill="rgb(0%,0%,100%)" r="0.7" /><circle cx="366.062531221" cy="431.124049113" fill="rgb(0%,0%,100%)" r="0.7" /><circle cx="367.82466973" cy="433.551986478" fill="rgb(0%,0%,100%)" r="0.7" /><circle cx="369.585494722" cy="435.980879036" fill="rgb(0%,0%,100%)" r="0.7" /><circle cx="371.344961915" cy="438.410755484" fill="rgb(0%,0%,100%)" r="0.7" /><circle cx="373.102950333" cy="440.841699758" fill="rgb(0%,0%,100%)" r="0.7" /><circle cx="374.859" cy="443.274" fill="rgb(0%,0%,100%)" r="0.7" /><circle cx="373.616741795" cy="442.356096522" fill="rgb(0%,0%,100%)" r="0.7" /><circle cx="371.203946606" cy="440.573284312" fill="rgb(0%,0%,100%)" r="0.7" /><circle cx="368.791151417" cy="438.790472102" fill="rgb(0%,0%,100%)" r="0.7" /><circle cx="366.378356228" cy="437.007659893" fill="rgb(0%,0%,100%)" r="0.7" /><circle cx="363.965561039" cy="435.224847683" fill="rgb(0%,0%,100%)" r="0.7" /><circle cx="361.552765849" cy="433.442035473" fill="rgb(0%,0%,100%)" r="0.7" /><circle cx="359.675960289" cy="432.639140801" fill="rgb(0%,0%,100%)" r="0.7" /><circle cx="359.875602572" cy="435.63249059" fill="rgb(0%,0%,100%)" r="0.7" /><circle cx="360.075244856" cy="438.625840378" fill="rgb(0%,0%,100%)" r="0.7" /><circle cx="360.274887139" cy="441.619190167" fill="rgb(0%,0%,100%)" r="0.7" /><circle cx="360.474529423" cy="444.612539956" fill="rgb(0%,0%,100%)" r="0.7" /><circle cx="360.674171706" cy="447.605889745" fill="rgb(0%,0%,100%)" r="0.7" /></svg>