<?xml version="1.0" encoding="utf-8" ?>
<svg baseProfile="full" height="100%" version="1.1" width="100%" xmlns="http://www.w3.org/2000/svg" xmlns:ev="http://www.w3.org/2001/xml-events" xmlns:xlink="http://www.w3.org/1999/xlink"><defs /><circle cx="354.096086109" cy="336.341818131" fill="rgb(100%,0%,0%)" r="0.7" /><circle cx="351.128276788" cy="336.756075614" fill="rgb(100%,0%,0%)" r="0.7" /><circle cx="348.257740553" cy="337.619237369" fill="rgb(100%,0%,0%)" r="0.7" /><circle cx="345.521381565" cy="338.844818166" fill="rgb(100%,0%,0%)" r="0.7" /><circle cx="342.930378914" cy="340.354688564" fill="rgb(100%,0%,0%)" r="0.7" /><circle cx="340.48129352" cy="342.085945501" fill="rgb(100%,0%,0%)" r="0.7" /><circle cx="338.164114841" cy="343.990509189" fill="rgb(100%,0%,0%)" r="0.7" /><circle cx="335.966693285" cy="346.032333948" fill="rgb(100%,0%,0%)" r="0.7" /><circle cx="333.879862781" cy="348.187077021" fill="rgb(100%,0%,0%)" r="0.7" /><circle cx="331.990834868" cy="350.515992977" fill="rgb(100%,0%,0%)" r="0.7" /><circle cx="330.32093914" cy="353.007279775" fill="rgb(100%,0%,0%)" r="0.7" /><circle cx="328.838489997" cy="355.614772133" fill="rgb(100%,0%,0%)" r="0.7" /><circle cx="327.515661852" cy="358.306962501" fill="rgb(100%,0%,0%)" r="0.7" /><circle cx="326.329286144" cy="361.062129429" fill="rgb(100%,0%,0%)" r="0.7" /><circle cx="325.260422742" cy="363.865056577" fill="rgb(100%,0%,0%)" r="0.7" /><circle cx="324.293651868" cy="366.70486712" fill="rgb(100%,0%,0%)" r="0.7" /><circle cx="323.416381294" cy="369.573626205" fill="rgb(100%,0%,0%)" r="0.7" /><circle cx="322.618263753" cy="372.465427414" fill="rgb(100%,0%,0%)" r="0.7" /><circle cx="321.890728049" cy="375.375806612" fill="rgb(100%,0%,0%)" r="0.7" /><circle cx="321.226620519" cy="378.301327191" fill="rgb(100%,0%,0%)" r="0.7" /><circle cx="320.619926157" cy="381.239296522" fill="rgb(100%,0%,0%)" r="0.7" /><circle cx="320.0655482" cy="384.187590559" fill="rgb(100%,0%,0%)" r="0.7" /><circle cx="319.55914199" cy="387.144510942" fill="rgb(100%,0%,0%)" r="0.7" /><circle cx="319.096986012" cy="390.108674424" fill="rgb(100%,0%,0%)" r="0.7" /><circle cx="318.675877259" cy="393.07895171" fill="rgb(100%,0%,0%)" r="0.7" /><circle cx="318.293051812" cy="396.05440707" fill="rgb(100%,0%,0%)" r="0.7" /><circle cx="317.94612111" cy="399.034261651" fill="rgb(100%,0%,0%)" r="0.7" /><circle cx="317.633022504" cy="402.017866138" fill="rgb(100%,0%,0%)" r="0.7" /><circle cx="317.351983229" cy="405.004662698" fill="rgb(100%,0%,0%)" r="0.7" /><circle cx="317.101491699" cy="407.994177215" fill="rgb(100%,0%,0%)" r="0.7" /><circle cx="316.880280963" cy="410.985988416" fill="rgb(100%,0%,0%)" r="0.7" /><circle cx="316.68731708" cy="413.97977069" fill="rgb(100%,0%,0%)" r="0.7" /><circle cx="316.521809878" cy="416.975193615" fill="rgb(100%,0%,0%)" r="0.7" /><circle cx="316.383228191" cy="419.971988942" fill="rgb(100%,0%,0%)" r="0.7" /><circle cx="316.27134924" cy="422.969886362" fill="rgb(100%,0%,0%)" r="0.7" /><circle cx="316.186347509" cy="425.968683731" fill="rgb(100%,0%,0%)" r="0.7" /><circle cx="316.128983706" cy="428.968128511" fill="rgb(100%,0%,0%)" r="0.7" /><circle cx="316.101008469" cy="431.967980518" fill="rgb(100%,0%,0%)" r="0.7" /><circle cx="316.106230197" cy="434.967951731" fill="rgb(100%,0%,0%)" r="0.7" /><circle cx="316.154496999" cy="437.967533106" fill="rgb(100%,0%,0%)" r="0.7" /><circle cx="316.601169164" cy="439.891837264" fill="rgb(100%,0%,0%)" r="0.7" /><circle cx="354.096086109" cy="336.341818131" fill="rgb(0%,0%,100%)" r="0.7" /><circle cx="357.089790543" cy="336.452246541" fill="rgb(0%,0%,100%)" r="0.7" /><circle cx="360.008397655" cy="337.125742124" fill="rgb(0%,0%,100%)" r="0.7" /><circle cx="362.741498448" cy="338.351137654" fill="rgb(0%,0%,100%)" r="0.7" /><circle cx="365.170520172" cy="340.101438735" fill="rgb(0%,0%,100%)" r="0.7" /><circle cx="367.32820715" cy="342.184038985" fill="rgb(0%,0%,100%)" r="0.7" /><circle cx="369.197254712" cy="344.526351977" fill="rgb(0%,0%,100%)" r="0.7" /><circle cx="370.559970263" cy="347.190842498" fill="rgb(0%,0%,100%)" r="0.7" /><circle cx="371.121173296" cy="350.124560785" fill="rgb(0%,0%,100%)" r="0.7" /><circle cx="370.677777474" cy="353.07715388" fill="rgb(0%,0%,100%)" r="0.7" /><circle cx="369.361879006" cy="355.763133915" fill="rgb(0%,0%,100%)" r="0.7" /><circle cx="367.470615924" cy="358.086057522" fill="rgb(0%,0%,100%)" r="0.7" /><circle cx="365.226485129" cy="360.073375176" fill="rgb(0%,0%,100%)" r="0.7" /><circle cx="362.747733879" cy="361.758712157" fill="rgb(0%,0%,100%)" r="0.7" /><circle cx="360.045315127" cy="363.05987379" fill="rgb(0%,0%,100%)" r="0.7" /><circle cx="357.30195257" cy="364.273917442" fill="rgb(0%,0%,100%)" r="0.7" /><circle cx="354.559468684" cy="365.489946478" fill="rgb(0%,0%,100%)" r="0.7" /><circle cx="351.836994576" cy="366.749992093" fill="rgb(0%,0%,100%)" r="0.7" /><circle cx="349.159851329" cy="368.103207582" fill="rgb(0%,0%,100%)" r="0.7" /><circle cx="346.815457484" cy="369.931528455" fill="rgb(0%,0%,100%)" r="0.7" /><circle cx="345.169047877" cy="372.434188498" fill="rgb(0%,0%,100%)" r="0.7" /><circle cx="343.858873697" cy="375.131848833" fill="rgb(0%,0%,100%)" r="0.7" /><circle cx="342.744791696" cy="377.91687531" fill="rgb(0%,0%,100%)" r="0.7" /><circle cx="341.769003231" cy="380.753506116" fill="rgb(0%,0%,100%)" r="0.7" /><circle cx="340.904935368" cy="383.626206445" fill="rgb(0%,0%,100%)" r="0.7" /><circle cx="340.143467707" cy="386.527795273" fill="rgb(0%,0%,100%)" r="0.7" /><circle cx="339.492863096" cy="389.456173155" fill="rgb(0%,0%,100%)" r="0.7" /><circle cx="339.002452759" cy="392.415131415" fill="rgb(0%,0%,100%)" r="0.7" /><circle cx="338.861674821" cy="395.409773179" fill="rgb(0%,0%,100%)" r="0.7" /><circle cx="338.762536518" cy="398.408118259" fill="rgb(0%,0%,100%)" r="0.7" /><circle cx="338.647658535" cy="401.40592407" fill="rgb(0%,0%,100%)" r="0.7" /><circle cx="338.525751049" cy="404.403452657" fill="rgb(0%,0%,100%)" r="0.7" /><circle cx="338.399576588" cy="407.400795821" fill="rgb(0%,0%,100%)" r="0.7" /><circle cx="338.270436338" cy="410.398014496" fill="rgb(0%,0%,100%)" r="0.7" /><circle cx="338.139064591" cy="413.395139347" fill="rgb(0%,0%,100%)" r="0.7" /><circle cx="338.005921505" cy="416.392185779" fill="rgb(0%,0%,100%)" r="0.7" /><circle cx="337.871314877" cy="419.389166839" fill="rgb(0%,0%,100%)" r="0.7" /><circle cx="337.735459314" cy="422.386086118" fill="rgb(0%,0%,100%)" r="0.7" /><circle cx="337.598505792" cy="425.382961768" fill="rgb(0%,0%,100%)" r="0.7" /><circle cx="337.460558752" cy="428.379796651" fill="rgb(0%,0%,100%)" r="0.7" /><circle cx="337.32168108" cy="431.376576817" fill="rgb(0%,0%,100%)" r="0.7" /><circle cx="337.18188045" cy="434.373315177" fill="rgb(0%,0%,100%)" r="0.7" /><circle cx="337.041" cy="437.37" fill="rgb(0%,0%,100%)" r="0.7" /><circle cx="336.440002657" cy="437.021994093" fill="rgb(0%,0%,100%)" r="0.7" /><circle cx="333.843836336" cy="435.518690918" fill="rgb(0%,0%,100%)" r="0.7" /><circle cx="331.247670016" cy="434.015387743" fill="rgb(0%,0%,100%)" r="0.7" /><circle cx="328.651503695" cy="432.512084568" fill="rgb(0%,0%,100%)" r="0.7" /><circle cx="326.055337375" cy="431.008781393" fill="rgb(0%,0%,100%)" r="0.7" /><circle cx="323.595892441" cy="430.141255421" fill="rgb(0%,0%,100%)" r="0.7" /><circle cx="321.847211622" cy="432.578900882" fill="rgb(0%,0%,100%)" r="0.7" /><circle cx="320.098530803" cy="435.016546342" fill="rgb(0%,0%,100%)" r="0.7" /><circle cx="318.349849984" cy="437.454191803" fill="rgb(0%,0%,100%)" r="0.7" /><circle cx="316.601169164" cy="439.891837264" fill="rgb(0%,0%,100%)" r="0.7" /></svg>