<?xml version="1.0" encoding="utf-8" ?>
<svg baseProfile="full" height="100%" version="1.1" width="100%" xmlns="http://www.w3.org/2000/svg" xmlns:ev="http://www.w3.org/2001/xml-events" xmlns:xlink="http://www.w3.org/1999/xlink"><defs /><circle cx="269.665861359" cy="314.56576769" fill="rgb(100%,0%,0%)" r="0.7" /><circle cx="266.762790724" cy="314.90468368" fill="rgb(100%,0%,0%)" r="0.7" /><circle cx="264.222400667" cy="316.486719885" fill="rgb(100%,0%,0%)" r="0.7" /><circle cx="261.986626096" cy="318.484256312" fill="rgb(100%,0%,0%)" r="0.7" /><circle cx="259.952637656" cy="320.688470019" fill="rgb(100%,0%,0%)" r="0.7" /><circle cx="258.190937766" cy="323.106457721" fill="rgb(100%,0%,0%)" r="0.7" /><circle cx="256.86271079" cy="325.795109329" fill="rgb(100%,0%,0%)" r="0.7" /><circle cx="255.757932589" cy="328.583599779" fill="rgb(100%,0%,0%)" r="0.7" /><circle cx="254.837453476" cy="331.438427658" fill="rgb(100%,0%,0%)" r="0.7" /><circle cx="254.080983994" cy="334.341110101" fill="rgb(100%,0%,0%)" r="0.7" /><circle cx="253.474579631" cy="337.27887515" fill="rgb(100%,0%,0%)" r="0.7" /><circle cx="253.007333272" cy="340.242006699" fill="rgb(100%,0%,0%)" r="0.7" /><circle cx="252.670066385" cy="343.222759381" fill="rgb(100%,0%,0%)" r="0.7" /><circle cx="252.454712752" cy="346.214820194" fill="rgb(100%,0%,0%)" r="0.7" /><circle cx="252.354000413" cy="349.212966628" fill="rgb(100%,0%,0%)" r="0.7" /><circle cx="252.361270034" cy="352.212794983" fill="rgb(100%,0%,0%)" r="0.7" /><circle cx="252.470364133" cy="355.210686512" fill="rgb(100%,0%,0%)" r="0.7" /><circle cx="252.675556023" cy="358.203529394" fill="rgb(100%,0%,0%)" r="0.7" /><circle cx="252.971507838" cy="361.188794752" fill="rgb(100%,0%,0%)" r="0.7" /><circle cx="253.353225672" cy="364.164304569" fill="rgb(100%,0%,0%)" r="0.7" /><circle cx="253.816043121" cy="367.128296294" fill="rgb(100%,0%,0%)" r="0.7" /><circle cx="254.355592138" cy="370.079300743" fill="rgb(100%,0%,0%)" r="0.7" /><circle cx="254.967781928" cy="373.016102872" fill="rgb(100%,0%,0%)" r="0.7" /><circle cx="255.899521995" cy="372.040969919" fill="rgb(100%,0%,0%)" r="0.7" /><circle cx="256.959665937" cy="369.234531817" fill="rgb(100%,0%,0%)" r="0.7" /><circle cx="258.019809879" cy="366.428093715" fill="rgb(100%,0%,0%)" r="0.7" /><circle cx="259.079953821" cy="363.621655612" fill="rgb(100%,0%,0%)" r="0.7" /><circle cx="261.293078153" cy="365.508459229" fill="rgb(100%,0%,0%)" r="0.7" /><circle cx="263.532961323" cy="367.504185509" fill="rgb(100%,0%,0%)" r="0.7" /><circle cx="265.772844493" cy="369.499911789" fill="rgb(100%,0%,0%)" r="0.7" /><circle cx="268.012727662" cy="371.49563807" fill="rgb(100%,0%,0%)" r="0.7" /><circle cx="269.81" cy="373.097" fill="rgb(100%,0%,0%)" r="0.7" /><circle cx="269.665861359" cy="314.56576769" fill="rgb(0%,0%,100%)" r="0.7" /><circle cx="272.541638456" cy="315.246379013" fill="rgb(0%,0%,100%)" r="0.7" /><circle cx="274.397401414" cy="317.539170435" fill="rgb(0%,0%,100%)" r="0.7" /><circle cx="275.045883136" cy="320.455871755" fill="rgb(0%,0%,100%)" r="0.7" /><circle cx="274.999003367" cy="323.451392752" fill="rgb(0%,0%,100%)" r="0.7" /><circle cx="274.322779773" cy="326.364340865" fill="rgb(0%,0%,100%)" r="0.7" /><circle cx="273.261039886" cy="329.169962699" fill="rgb(0%,0%,100%)" r="0.7" /><circle cx="272.12873433" cy="331.948038596" fill="rgb(0%,0%,100%)" r="0.7" /><circle cx="270.961915257" cy="334.711817565" fill="rgb(0%,0%,100%)" r="0.7" /><circle cx="269.780133704" cy="337.468638495" fill="rgb(0%,0%,100%)" r="0.7" /><circle cx="268.995954261" cy="340.363663492" fill="rgb(0%,0%,100%)" r="0.7" /><circle cx="268.40831201" cy="343.305043631" fill="rgb(0%,0%,100%)" r="0.7" /><circle cx="267.994735457" cy="346.276016593" fill="rgb(0%,0%,100%)" r="0.7" /><circle cx="267.735650854" cy="349.264510305" fill="rgb(0%,0%,100%)" r="0.7" /><circle cx="267.614459455" cy="352.261825976" fill="rgb(0%,0%,100%)" r="0.7" /><circle cx="267.617364497" cy="355.26163205" fill="rgb(0%,0%,100%)" r="0.7" /><circle cx="267.733141413" cy="358.259232075" fill="rgb(0%,0%,100%)" r="0.7" /><circle cx="267.9529759" cy="361.251029615" fill="rgb(0%,0%,100%)" r="0.7" /><circle cx="268.270484787" cy="364.234053957" fill="rgb(0%,0%,100%)" r="0.7" /><circle cx="268.682175356" cy="367.205546874" fill="rgb(0%,0%,100%)" r="0.7" /><circle cx="269.189273195" cy="370.162238167" fill="rgb(0%,0%,100%)" r="0.7" /><circle cx="269.81" cy="373.097" fill="rgb(0%,0%,100%)" r="0.7" /></svg>