<?xml version="1.0" encoding="utf-8" ?>
<svg baseProfile="full" height="100%" version="1.1" width="100%" xmlns="http://www.w3.org/2000/svg" xmlns:ev="http://www.w3.org/2001/xml-events" xmlns:xlink="http://www.w3.org/1999/xlink"><defs /><circle cx="339.554079657" cy="274.497612345" fill="rgb(100%,0%,0%)" r="0.7" /><circle cx="336.651324217" cy="275.176231432" fill="rgb(100%,0%,0%)" r="0.7" /><circle cx="334.102826354" cy="276.743653343" fill="rgb(100%,0%,0%)" r="0.7" /><circle cx="331.915963497" cy="278.792838265" fill="rgb(100%,0%,0%)" r="0.7" /><circle cx="330.006376762" cy="281.104880847" fill="rgb(100%,0%,0%)" r="0.7" /><circle cx="328.303536205" cy="283.573971604" fill="rgb(100%,0%,0%)" r="0.7" /><circle cx="326.758880693" cy="286.145319825" fill="rgb(100%,0%,0%)" r="0.7" /><circle cx="325.339313975" cy="288.78795301" fill="rgb(100%,0%,0%)" r="0.7" /><circle cx="324.021740996" cy="291.482969353" fill="rgb(100%,0%,0%)" r="0.7" /><circle cx="322.789579214" cy="294.218141801" fill="rgb(100%,0%,0%)" r="0.7" /><circle cx="321.630655255" cy="296.985169935" fill="rgb(100%,0%,0%)" r="0.7" /><circle cx="320.535903436" cy="299.778225238" fill="rgb(100%,0%,0%)" r="0.7" /><circle cx="319.498570926" cy="302.593133542" fill="rgb(100%,0%,0%)" r="0.7" /><circle cx="318.513787647" cy="305.426853997" fill="rgb(100%,0%,0%)" r="0.7" /><circle cx="317.578415679" cy="308.277259362" fill="rgb(100%,0%,0%)" r="0.7" /><circle cx="316.691397131" cy="311.143100978" fill="rgb(100%,0%,0%)" r="0.7" /><circle cx="315.855872532" cy="314.024353458" fill="rgb(100%,0%,0%)" r="0.7" /><circle cx="315.113863402" cy="316.930761484" fill="rgb(100%,0%,0%)" r="0.7" /><circle cx="314.522653442" cy="319.871607618" fill="rgb(100%,0%,0%)" r="0.7" /><circle cx="314.079084247" cy="322.838320065" fill="rgb(100%,0%,0%)" r="0.7" /><circle cx="313.783451246" cy="325.823412573" fill="rgb(100%,0%,0%)" r="0.7" /><circle cx="313.634996804" cy="328.819437792" fill="rgb(100%,0%,0%)" r="0.7" /><circle cx="313.632032055" cy="331.819146802" fill="rgb(100%,0%,0%)" r="0.7" /><circle cx="313.772102775" cy="334.815595523" fill="rgb(100%,0%,0%)" r="0.7" /><circle cx="314.052186892" cy="337.80222167" fill="rgb(100%,0%,0%)" r="0.7" /><circle cx="314.468918821" cy="340.772875167" fill="rgb(100%,0%,0%)" r="0.7" /><circle cx="315.018839664" cy="343.721794018" fill="rgb(100%,0%,0%)" r="0.7" /><circle cx="315.698680038" cy="346.643499728" fill="rgb(100%,0%,0%)" r="0.7" /><circle cx="316.505726235" cy="349.532657841" fill="rgb(100%,0%,0%)" r="0.7" /><circle cx="317.438347415" cy="352.383753749" fill="rgb(100%,0%,0%)" r="0.7" /><circle cx="318.496966869" cy="355.190503921" fill="rgb(100%,0%,0%)" r="0.7" /><circle cx="319.686385723" cy="357.944311342" fill="rgb(100%,0%,0%)" r="0.7" /><circle cx="321.025543929" cy="360.628263255" fill="rgb(100%,0%,0%)" r="0.7" /><circle cx="322.543787066" cy="363.211471159" fill="rgb(100%,0%,0%)" r="0.7" /><circle cx="324.424719676" cy="365.546878991" fill="rgb(100%,0%,0%)" r="0.7" /><circle cx="326.47480648" cy="367.736653564" fill="rgb(100%,0%,0%)" r="0.7" /><circle cx="328.615978052" cy="369.837712769" fill="rgb(100%,0%,0%)" r="0.7" /><circle cx="330.81569194" cy="371.87754125" fill="rgb(100%,0%,0%)" r="0.7" /><circle cx="333.056888616" cy="373.871737465" fill="rgb(100%,0%,0%)" r="0.7" /><circle cx="335.329415131" cy="375.830172543" fill="rgb(100%,0%,0%)" r="0.7" /><circle cx="337.626677319" cy="377.759545583" fill="rgb(100%,0%,0%)" r="0.7" /><circle cx="339.944124792" cy="379.664645363" fill="rgb(100%,0%,0%)" r="0.7" /><circle cx="342.278453306" cy="381.549016056" fill="rgb(100%,0%,0%)" r="0.7" /><circle cx="344.627207679" cy="383.415385499" fill="rgb(100%,0%,0%)" r="0.7" /><circle cx="346.988487456" cy="385.265882425" fill="rgb(100%,0%,0%)" r="0.7" /><circle cx="349.36080386" cy="387.102211556" fill="rgb(100%,0%,0%)" r="0.7" /><circle cx="351.742964223" cy="388.925753253" fill="rgb(100%,0%,0%)" r="0.7" /><circle cx="354.13400236" cy="390.737639211" fill="rgb(100%,0%,0%)" r="0.7" /><circle cx="356.533129509" cy="392.538805052" fill="rgb(100%,0%,0%)" r="0.7" /><circle cx="358.939691012" cy="394.330021163" fill="rgb(100%,0%,0%)" r="0.7" /><circle cx="361.353154129" cy="396.111928169" fill="rgb(100%,0%,0%)" r="0.7" /><circle cx="363.77307838" cy="397.885044995" fill="rgb(100%,0%,0%)" r="0.7" /><circle cx="366.199122333" cy="399.649791497" fill="rgb(100%,0%,0%)" r="0.7" /><circle cx="368.631010181" cy="401.406468937" fill="rgb(100%,0%,0%)" r="0.7" /><circle cx="371.068558362" cy="403.155267423" fill="rgb(100%,0%,0%)" r="0.7" /><circle cx="373.511725149" cy="404.896259594" fill="rgb(100%,0%,0%)" r="0.7" /><circle cx="375.960555923" cy="406.629252134" fill="rgb(100%,0%,0%)" r="0.7" /><circle cx="378.415422982" cy="408.353626862" fill="rgb(100%,0%,0%)" r="0.7" /><circle cx="380.878" cy="410.067" fill="rgb(100%,0%,0%)" r="0.7" /><circle cx="339.554079657" cy="274.497612345" fill="rgb(0%,0%,100%)" r="0.7" /><circle cx="342.527543399" cy="274.846641576" fill="rgb(0%,0%,100%)" r="0.7" /><circle cx="345.385990941" cy="275.742601014" fill="rgb(0%,0%,100%)" r="0.7" /><circle cx="347.981826453" cy="277.230831002" fill="rgb(0%,0%,100%)" r="0.7" /><circle cx="350.045762859" cy="279.390109952" fill="rgb(0%,0%,100%)" r="0.7" /><circle cx="351.286908015" cy="282.106097942" fill="rgb(0%,0%,100%)" r="0.7" /><circle cx="351.238647536" cy="285.009677705" fill="rgb(0%,0%,100%)" r="0.7" /><circle cx="348.932268934" cy="286.857805614" fill="rgb(0%,0%,100%)" r="0.7" /><circle cx="346.076225781" cy="287.756240412" fill="rgb(0%,0%,100%)" r="0.7" /><circle cx="343.329504974" cy="288.796480477" fill="rgb(0%,0%,100%)" r="0.7" /><circle cx="341.216326227" cy="290.918381047" fill="rgb(0%,0%,100%)" r="0.7" /><circle cx="339.462971835" cy="293.35033313" fill="rgb(0%,0%,100%)" r="0.7" /><circle cx="337.969833733" cy="295.951260048" fill="rgb(0%,0%,100%)" r="0.7" /><circle cx="336.678493862" cy="298.658498083" fill="rgb(0%,0%,100%)" r="0.7" /><circle cx="335.549929831" cy="301.437744668" fill="rgb(0%,0%,100%)" r="0.7" /><circle cx="334.556340994" cy="304.268175058" fill="rgb(0%,0%,100%)" r="0.7" /><circle cx="333.677061995" cy="307.136244982" fill="rgb(0%,0%,100%)" r="0.7" /><circle cx="332.896222953" cy="310.032722933" fill="rgb(0%,0%,100%)" r="0.7" /><circle cx="332.201332025" cy="312.951044358" fill="rgb(0%,0%,100%)" r="0.7" /><circle cx="331.582345606" cy="315.886399839" fill="rgb(0%,0%,100%)" r="0.7" /><circle cx="331.03102984" cy="318.835262581" fill="rgb(0%,0%,100%)" r="0.7" /><circle cx="330.540567268" cy="321.794833537" fill="rgb(0%,0%,100%)" r="0.7" /><circle cx="330.105202376" cy="324.76304712" fill="rgb(0%,0%,100%)" r="0.7" /><circle cx="329.720055088" cy="327.73817551" fill="rgb(0%,0%,100%)" r="0.7" /><circle cx="329.808015318" cy="330.711561601" fill="rgb(0%,0%,100%)" r="0.7" /><circle cx="330.708388537" cy="333.570298014" fill="rgb(0%,0%,100%)" r="0.7" /><circle cx="331.931155961" cy="336.308718937" fill="rgb(0%,0%,100%)" r="0.7" /><circle cx="333.354467032" cy="338.949027148" fill="rgb(0%,0%,100%)" r="0.7" /><circle cx="334.920349411" cy="341.507594113" fill="rgb(0%,0%,100%)" r="0.7" /><circle cx="336.594831888" cy="343.996575466" fill="rgb(0%,0%,100%)" r="0.7" /><circle cx="338.355745856" cy="346.425239305" fill="rgb(0%,0%,100%)" r="0.7" /><circle cx="340.187625285" cy="348.800877671" fill="rgb(0%,0%,100%)" r="0.7" /><circle cx="342.079138207" cy="351.129340781" fill="rgb(0%,0%,100%)" r="0.7" /><circle cx="344.021683798" cy="353.415422565" fill="rgb(0%,0%,100%)" r="0.7" /><circle cx="346.008554699" cy="355.663122311" fill="rgb(0%,0%,100%)" r="0.7" /><circle cx="348.034371063" cy="357.875789287" fill="rgb(0%,0%,100%)" r="0.7" /><circle cx="350.094755006" cy="360.056286857" fill="rgb(0%,0%,100%)" r="0.7" /><circle cx="352.186117454" cy="362.20711823" fill="rgb(0%,0%,100%)" r="0.7" /><circle cx="354.348169361" cy="364.28675161" fill="rgb(0%,0%,100%)" r="0.7" /><circle cx="356.516786588" cy="366.359696212" fill="rgb(0%,0%,100%)" r="0.7" /><circle cx="358.685403815" cy="368.432640814" fill="rgb(0%,0%,100%)" r="0.7" /><circle cx="360.854021043" cy="370.505585416" fill="rgb(0%,0%,100%)" r="0.7" /><circle cx="363.02263827" cy="372.578530017" fill="rgb(0%,0%,100%)" r="0.7" /><circle cx="365.191255497" cy="374.651474619" fill="rgb(0%,0%,100%)" r="0.7" /><circle cx="367.359872724" cy="376.724419221" fill="rgb(0%,0%,100%)" r="0.7" /><circle cx="369.528489951" cy="378.797363823" fill="rgb(0%,0%,100%)" r="0.7" /><circle cx="371.697107178" cy="380.870308425" fill="rgb(0%,0%,100%)" r="0.7" /><circle cx="373.865724406" cy="382.943253026" fill="rgb(0%,0%,100%)" r="0.7" /><circle cx="376.034341633" cy="385.016197628" fill="rgb(0%,0%,100%)" r="0.7" /><circle cx="378.20295886" cy="387.08914223" fill="rgb(0%,0%,100%)" r="0.7" /><circle cx="380.371576087" cy="389.162086832" fill="rgb(0%,0%,100%)" r="0.7" /><circle cx="382.540193314" cy="391.235031433" fill="rgb(0%,0%,100%)" r="0.7" /><circle cx="384.708810541" cy="393.307976035" fill="rgb(0%,0%,100%)" r="0.7" /><circle cx="386.877427769" cy="395.380920637" fill="rgb(0%,0%,100%)" r="0.7" /><circle cx="389.046044996" cy="397.453865239" fill="rgb(0%,0%,100%)" r="0.7" /><circle cx="390.089583069" cy="399.118518468" fill="rgb(0%,0%,100%)" r="0.7" /><circle cx="387.096234907" cy="399.318185151" fill="rgb(0%,0%,100%)" r="0.7" /><circle cx="384.102886746" cy="399.517851834" fill="rgb(0%,0%,100%)" r="0.7" /><circle cx="381.109538585" cy="399.717518517" fill="rgb(0%,0%,100%)" r="0.7" /><circle cx="378.116190423" cy="399.917185201" fill="rgb(0%,0%,100%)" r="0.7" /><circle cx="378.846763863" cy="402.756279232" fill="rgb(0%,0%,100%)" r="0.7" /><circle cx="379.649871775" cy="405.646783977" fill="rgb(0%,0%,100%)" r="0.7" /><circle cx="380.452979687" cy="408.537288722" fill="rgb(0%,0%,100%)" r="0.7" /><circle cx="380.878" cy="410.067" fill="rgb(0%,0%,100%)" r="0.7" /></svg>