<?xml version="1.0" encoding="utf-8" ?>
<svg baseProfile="full" height="100%" version="1.1" width="100%" xmlns="http://www.w3.org/2000/svg" xmlns:ev="http://www.w3.org/2001/xml-events" xmlns:xlink="http://www.w3.org/1999/xlink"><defs /><circle cx="243.615608076" cy="374.886810952" fill="rgb(100%,0%,0%)" r="0.7" /><circle cx="240.889534534" cy="376.0759955" fill="rgb(100%,0%,0%)" r="0.7" /><circle cx="240.033605466" cy="378.838412848" fill="rgb(100%,0%,0%)" r="0.7" /><circle cx="239.623771371" cy="381.810207114" fill="rgb(100%,0%,0%)" r="0.7" /><circle cx="239.263433138" cy="384.788476595" fill="rgb(100%,0%,0%)" r="0.7" /><circle cx="238.929269801" cy="387.769806925" fill="rgb(100%,0%,0%)" r="0.7" /><circle cx="238.612080483" cy="390.752996782" fill="rgb(100%,0%,0%)" r="0.7" /><circle cx="238.307115468" cy="393.737448914" fill="rgb(100%,0%,0%)" r="0.7" /><circle cx="238.01154554" cy="396.722854805" fill="rgb(100%,0%,0%)" r="0.7" /><circle cx="237.723534907" cy="399.708999784" fill="rgb(100%,0%,0%)" r="0.7" /><circle cx="237.441818515" cy="402.695744327" fill="rgb(100%,0%,0%)" r="0.7" /><circle cx="237.165489846" cy="405.682993968" fill="rgb(100%,0%,0%)" r="0.7" /><circle cx="236.893885398" cy="408.670670038" fill="rgb(100%,0%,0%)" r="0.7" /><circle cx="236.626514375" cy="411.658740744" fill="rgb(100%,0%,0%)" r="0.7" /><circle cx="236.363029368" cy="414.647139771" fill="rgb(100%,0%,0%)" r="0.7" /><circle cx="236.103204501" cy="417.635880823" fill="rgb(100%,0%,0%)" r="0.7" /><circle cx="235.846972734" cy="420.624912395" fill="rgb(100%,0%,0%)" r="0.7" /><circle cx="235.594557014" cy="423.614281862" fill="rgb(100%,0%,0%)" r="0.7" /><circle cx="235.51610942" cy="426.608018436" fill="rgb(100%,0%,0%)" r="0.7" /><circle cx="235.719837825" cy="429.600867739" fill="rgb(100%,0%,0%)" r="0.7" /><circle cx="236.04039256" cy="432.583531194" fill="rgb(100%,0%,0%)" r="0.7" /><circle cx="236.460306707" cy="435.553879315" fill="rgb(100%,0%,0%)" r="0.7" /><circle cx="236.965862845" cy="438.510884003" fill="rgb(100%,0%,0%)" r="0.7" /><circle cx="237.54613371" cy="441.454158909" fill="rgb(100%,0%,0%)" r="0.7" /><circle cx="238.192299256" cy="444.383688634" fill="rgb(100%,0%,0%)" r="0.7" /><circle cx="238.897154635" cy="447.299663214" fill="rgb(100%,0%,0%)" r="0.7" /><circle cx="239.654755273" cy="450.202390386" fill="rgb(100%,0%,0%)" r="0.7" /><circle cx="240.460151711" cy="453.092226341" fill="rgb(100%,0%,0%)" r="0.7" /><circle cx="241.309196301" cy="455.969547472" fill="rgb(100%,0%,0%)" r="0.7" /><circle cx="242.198394026" cy="458.834717725" fill="rgb(100%,0%,0%)" r="0.7" /><circle cx="243.124793263" cy="461.688076967" fill="rgb(100%,0%,0%)" r="0.7" /><circle cx="244.085906697" cy="464.529938806" fill="rgb(100%,0%,0%)" r="0.7" /><circle cx="245.079644166" cy="467.360558314" fill="rgb(100%,0%,0%)" r="0.7" /><circle cx="246.104277569" cy="470.1801371" fill="rgb(100%,0%,0%)" r="0.7" /><circle cx="247.158424405" cy="472.988819548" fill="rgb(100%,0%,0%)" r="0.7" /><circle cx="248.241042032" cy="475.786647993" fill="rgb(100%,0%,0%)" r="0.7" /><circle cx="249.351480983" cy="478.573567655" fill="rgb(100%,0%,0%)" r="0.7" /><circle cx="250.489561702" cy="481.349293546" fill="rgb(100%,0%,0%)" r="0.7" /><circle cx="251.655879194" cy="484.113280906" fill="rgb(100%,0%,0%)" r="0.7" /><circle cx="252.852554346" cy="486.864272931" fill="rgb(100%,0%,0%)" r="0.7" /><circle cx="254.088" cy="489.598" fill="rgb(100%,0%,0%)" r="0.7" /><circle cx="243.615608076" cy="374.886810952" fill="rgb(0%,0%,100%)" r="0.7" /><circle cx="246.494785363" cy="375.446915484" fill="rgb(0%,0%,100%)" r="0.7" /><circle cx="248.512652766" cy="377.629270293" fill="rgb(0%,0%,100%)" r="0.7" /><circle cx="249.651413029" cy="380.389882968" fill="rgb(0%,0%,100%)" r="0.7" /><circle cx="250.310445855" cy="383.315986871" fill="rgb(0%,0%,100%)" r="0.7" /><circle cx="250.754683243" cy="386.282118687" fill="rgb(0%,0%,100%)" r="0.7" /><circle cx="250.920776577" cy="389.275992027" fill="rgb(0%,0%,100%)" r="0.7" /><circle cx="250.666877431" cy="392.261270107" fill="rgb(0%,0%,100%)" r="0.7" /><circle cx="249.700586454" cy="395.087103162" fill="rgb(0%,0%,100%)" r="0.7" /><circle cx="248.697568211" cy="397.869063977" fill="rgb(0%,0%,100%)" r="0.7" /><circle cx="248.663392242" cy="400.863768663" fill="rgb(0%,0%,100%)" r="0.7" /><circle cx="249.113284053" cy="403.827688653" fill="rgb(0%,0%,100%)" r="0.7" /><circle cx="249.880675381" cy="406.726955742" fill="rgb(0%,0%,100%)" r="0.7" /><circle cx="250.678190122" cy="409.619001087" fill="rgb(0%,0%,100%)" r="0.7" /><circle cx="251.465478587" cy="412.513858183" fill="rgb(0%,0%,100%)" r="0.7" /><circle cx="252.244549728" cy="415.410934481" fill="rgb(0%,0%,100%)" r="0.7" /><circle cx="253.016012534" cy="418.310051077" fill="rgb(0%,0%,100%)" r="0.7" /><circle cx="253.780080015" cy="421.211127436" fill="rgb(0%,0%,100%)" r="0.7" /><circle cx="254.536769943" cy="424.114131859" fill="rgb(0%,0%,100%)" r="0.7" /><circle cx="255.285977325" cy="427.019069174" fill="rgb(0%,0%,100%)" r="0.7" /><circle cx="256.027509434" cy="429.925992034" fill="rgb(0%,0%,100%)" r="0.7" /><circle cx="256.76107696" cy="432.834911546" fill="rgb(0%,0%,100%)" r="0.7" /><circle cx="257.486331059" cy="435.745925652" fill="rgb(0%,0%,100%)" r="0.7" /><circle cx="258.202833843" cy="438.659109718" fill="rgb(0%,0%,100%)" r="0.7" /><circle cx="258.910061809" cy="441.574554813" fill="rgb(0%,0%,100%)" r="0.7" /><circle cx="259.607399442" cy="444.49238608" fill="rgb(0%,0%,100%)" r="0.7" /><circle cx="260.294115931" cy="447.41273086" fill="rgb(0%,0%,100%)" r="0.7" /><circle cx="260.969351706" cy="450.335751237" fill="rgb(0%,0%,100%)" r="0.7" /><circle cx="261.632086758" cy="453.261631616" fill="rgb(0%,0%,100%)" r="0.7" /><circle cx="262.281103717" cy="456.19058588" fill="rgb(0%,0%,100%)" r="0.7" /><circle cx="262.914936062" cy="459.122860419" fill="rgb(0%,0%,100%)" r="0.7" /><circle cx="263.531799983" cy="462.058754775" fill="rgb(0%,0%,100%)" r="0.7" /><circle cx="264.129488892" cy="464.99860784" fill="rgb(0%,0%,100%)" r="0.7" /><circle cx="264.705233039" cy="467.94283793" fill="rgb(0%,0%,100%)" r="0.7" /><circle cx="265.255473035" cy="470.891924706" fill="rgb(0%,0%,100%)" r="0.7" /><circle cx="265.775529474" cy="473.846501253" fill="rgb(0%,0%,100%)" r="0.7" /><circle cx="266.25901714" cy="476.80726439" fill="rgb(0%,0%,100%)" r="0.7" /><circle cx="266.696875795" cy="479.775100135" fill="rgb(0%,0%,100%)" r="0.7" /><circle cx="267.075489936" cy="482.751050739" fill="rgb(0%,0%,100%)" r="0.7" /><circle cx="267.372719381" cy="485.73615596" fill="rgb(0%,0%,100%)" r="0.7" /><circle cx="265.86024749" cy="486.401177999" fill="rgb(0%,0%,100%)" r="0.7" /><circle cx="263.057427462" cy="485.331505204" fill="rgb(0%,0%,100%)" r="0.7" /><circle cx="260.254607433" cy="484.261832408" fill="rgb(0%,0%,100%)" r="0.7" /><circle cx="257.451787405" cy="483.192159613" fill="rgb(0%,0%,100%)" r="0.7" /><circle cx="255.931414313" cy="484.786464898" fill="rgb(0%,0%,100%)" r="0.7" /><circle cx="255.019391903" cy="487.644473842" fill="rgb(0%,0%,100%)" r="0.7" /><circle cx="254.088" cy="489.598" fill="rgb(0%,0%,100%)" r="0.7" /></svg>