<?xml version="1.0" encoding="utf-8" ?>
<svg baseProfile="full" height="100%" version="1.1" width="100%" xmlns="http://www.w3.org/2000/svg" xmlns:ev="http://www.w3.org/2001/xml-events" xmlns:xlink="http://www.w3.org/1999/xlink"><defs /><circle cx="302.797819844" cy="340.036509313" fill="rgb(100%,0%,0%)" r="0.7" /><circle cx="300.743015191" cy="342.222336458" fill="rgb(100%,0%,0%)" r="0.7" /><circle cx="298.688549827" cy="344.408454645" fill="rgb(100%,0%,0%)" r="0.7" /><circle cx="296.634361635" cy="346.594875961" fill="rgb(100%,0%,0%)" r="0.7" /><circle cx="294.580488228" cy="348.781554744" fill="rgb(100%,0%,0%)" r="0.7" /><circle cx="292.526917833" cy="350.968519693" fill="rgb(100%,0%,0%)" r="0.7" /><circle cx="290.473657187" cy="353.155794977" fill="rgb(100%,0%,0%)" r="0.7" /><circle cx="288.4207415" cy="355.343388095" fill="rgb(100%,0%,0%)" r="0.7" /><circle cx="286.368202739" cy="357.531324483" fill="rgb(100%,0%,0%)" r="0.7" /><circle cx="284.316069502" cy="359.719650196" fill="rgb(100%,0%,0%)" r="0.7" /><circle cx="282.264396773" cy="361.908404563" fill="rgb(100%,0%,0%)" r="0.7" /><circle cx="280.213245371" cy="364.097649015" fill="rgb(100%,0%,0%)" r="0.7" /><circle cx="278.162698202" cy="366.287460629" fill="rgb(100%,0%,0%)" r="0.7" /><circle cx="276.112869427" cy="368.477939918" fill="rgb(100%,0%,0%)" r="0.7" /><circle cx="274.063910565" cy="370.669234209" fill="rgb(100%,0%,0%)" r="0.7" /><circle cx="272.016045383" cy="372.861554748" fill="rgb(100%,0%,0%)" r="0.7" /><circle cx="269.969633806" cy="375.055217164" fill="rgb(100%,0%,0%)" r="0.7" /><circle cx="267.925264129" cy="377.250792388" fill="rgb(100%,0%,0%)" r="0.7" /><circle cx="265.884130713" cy="379.449410258" fill="rgb(100%,0%,0%)" r="0.7" /><circle cx="263.849591758" cy="381.654094555" fill="rgb(100%,0%,0%)" r="0.7" /><circle cx="261.981499033" cy="383.974542772" fill="rgb(100%,0%,0%)" r="0.7" /><circle cx="260.05817559" cy="386.254829608" fill="rgb(100%,0%,0%)" r="0.7" /><circle cx="257.532172476" cy="387.858193061" fill="rgb(100%,0%,0%)" r="0.7" /><circle cx="254.715165625" cy="388.87735729" fill="rgb(100%,0%,0%)" r="0.7" /><circle cx="251.769960769" cy="389.435725248" fill="rgb(100%,0%,0%)" r="0.7" /><circle cx="248.778321285" cy="389.640891085" fill="rgb(100%,0%,0%)" r="0.7" /><circle cx="245.77986605" cy="389.573742093" fill="rgb(100%,0%,0%)" r="0.7" /><circle cx="242.793572361" cy="389.292746952" fill="rgb(100%,0%,0%)" r="0.7" /><circle cx="239.824560814" cy="388.870848384" fill="rgb(100%,0%,0%)" r="0.7" /><circle cx="236.830540534" cy="388.68144857" fill="rgb(100%,0%,0%)" r="0.7" /><circle cx="233.836195018" cy="388.49736917" fill="rgb(100%,0%,0%)" r="0.7" /><circle cx="230.841563923" cy="388.31805201" fill="rgb(100%,0%,0%)" r="0.7" /><circle cx="227.846631185" cy="388.143625297" fill="rgb(100%,0%,0%)" r="0.7" /><circle cx="224.851403937" cy="387.974500583" fill="rgb(100%,0%,0%)" r="0.7" /><circle cx="221.855842937" cy="387.811335302" fill="rgb(100%,0%,0%)" r="0.7" /><circle cx="218.8599127" cy="387.655088919" fill="rgb(100%,0%,0%)" r="0.7" /><circle cx="215.863563659" cy="387.507151123" fill="rgb(100%,0%,0%)" r="0.7" /><circle cx="212.866715366" cy="387.369596603" fill="rgb(100%,0%,0%)" r="0.7" /><circle cx="209.869277382" cy="387.245714511" fill="rgb(100%,0%,0%)" r="0.7" /><circle cx="206.871099462" cy="387.141248023" fill="rgb(100%,0%,0%)" r="0.7" /><circle cx="203.872011908" cy="387.0680371" fill="rgb(100%,0%,0%)" r="0.7" /><circle cx="200.872183543" cy="387.060618895" fill="rgb(100%,0%,0%)" r="0.7" /><circle cx="199.22" cy="398.902" fill="rgb(100%,0%,0%)" r="0.7" /><circle cx="202.212454809" cy="398.691350914" fill="rgb(100%,0%,0%)" r="0.7" /><circle cx="205.209179164" cy="398.551960935" fill="rgb(100%,0%,0%)" r="0.7" /><circle cx="208.207954704" cy="398.468036746" fill="rgb(100%,0%,0%)" r="0.7" /><circle cx="211.207743881" cy="398.435432882" fill="rgb(100%,0%,0%)" r="0.7" /><circle cx="214.207664238" cy="398.452795519" fill="rgb(100%,0%,0%)" r="0.7" /><circle cx="217.206872689" cy="398.520101649" fill="rgb(100%,0%,0%)" r="0.7" /><circle cx="220.204516516" cy="398.638157261" fill="rgb(100%,0%,0%)" r="0.7" /><circle cx="223.199641535" cy="398.808380405" fill="rgb(100%,0%,0%)" r="0.7" /><circle cx="226.191201187" cy="399.032703658" fill="rgb(100%,0%,0%)" r="0.7" /><circle cx="229.177983413" cy="399.313530348" fill="rgb(100%,0%,0%)" r="0.7" /><circle cx="232.15858107" cy="399.653725121" fill="rgb(100%,0%,0%)" r="0.7" /><circle cx="235.131343055" cy="400.056624978" fill="rgb(100%,0%,0%)" r="0.7" /><circle cx="238.094320633" cy="400.526066108" fill="rgb(100%,0%,0%)" r="0.7" /><circle cx="241.04517705" cy="401.066418334" fill="rgb(100%,0%,0%)" r="0.7" /><circle cx="243.981117551" cy="401.682633908" fill="rgb(100%,0%,0%)" r="0.7" /><circle cx="246.89876105" cy="402.380296214" fill="rgb(100%,0%,0%)" r="0.7" /><circle cx="249.794006139" cy="403.165673861" fill="rgb(100%,0%,0%)" r="0.7" /><circle cx="252.661854314" cy="404.045768665" fill="rgb(100%,0%,0%)" r="0.7" /><circle cx="255.483526191" cy="405.05281545" fill="rgb(100%,0%,0%)" r="0.7" /><circle cx="302.797819844" cy="340.036509313" fill="rgb(0%,0%,100%)" r="0.7" /><circle cx="304.114405462" cy="340.147887033" fill="rgb(0%,0%,100%)" r="0.7" /><circle cx="304.510647654" cy="343.12160392" fill="rgb(0%,0%,100%)" r="0.7" /><circle cx="305.782999298" cy="344.938538562" fill="rgb(0%,0%,100%)" r="0.7" /><circle cx="308.75283422" cy="344.514179589" fill="rgb(0%,0%,100%)" r="0.7" /><circle cx="311.722669141" cy="344.089820616" fill="rgb(0%,0%,100%)" r="0.7" /><circle cx="312.768447793" cy="344.716093009" fill="rgb(0%,0%,100%)" r="0.7" /><circle cx="310.786557844" cy="346.968223502" fill="rgb(0%,0%,100%)" r="0.7" /><circle cx="308.799062488" cy="349.215390049" fill="rgb(0%,0%,100%)" r="0.7" /><circle cx="306.809175884" cy="351.46049139" fill="rgb(0%,0%,100%)" r="0.7" /><circle cx="304.817831716" cy="353.704263651" fill="rgb(0%,0%,100%)" r="0.7" /><circle cx="302.825407124" cy="355.947077717" fill="rgb(0%,0%,100%)" r="0.7" /><circle cx="300.832109691" cy="358.189128498" fill="rgb(0%,0%,100%)" r="0.7" /><circle cx="298.838073716" cy="360.430519375" fill="rgb(0%,0%,100%)" r="0.7" /><circle cx="296.843369374" cy="362.671329484" fill="rgb(0%,0%,100%)" r="0.7" /><circle cx="294.848061027" cy="364.911584667" fill="rgb(0%,0%,100%)" r="0.7" /><circle cx="292.852169505" cy="367.15131869" fill="rgb(0%,0%,100%)" r="0.7" /><circle cx="290.855703666" cy="369.390547962" fill="rgb(0%,0%,100%)" r="0.7" /><circle cx="288.858671289" cy="371.629264701" fill="rgb(0%,0%,100%)" r="0.7" /><circle cx="286.861055349" cy="373.867465891" fill="rgb(0%,0%,100%)" r="0.7" /><circle cx="284.862835893" cy="376.105128831" fill="rgb(0%,0%,100%)" r="0.7" /><circle cx="282.86397949" cy="378.342221004" fill="rgb(0%,0%,100%)" r="0.7" /><circle cx="280.864436528" cy="380.578698839" fill="rgb(0%,0%,100%)" r="0.7" /><circle cx="278.864136252" cy="382.814505973" fill="rgb(0%,0%,100%)" r="0.7" /><circle cx="276.862993182" cy="385.049554275" fill="rgb(0%,0%,100%)" r="0.7" /><circle cx="274.860879875" cy="387.283735084" fill="rgb(0%,0%,100%)" r="0.7" /><circle cx="272.857624035" cy="389.516890098" fill="rgb(0%,0%,100%)" r="0.7" /><circle cx="270.852977501" cy="391.748788386" fill="rgb(0%,0%,100%)" r="0.7" /><circle cx="268.846556665" cy="393.979081308" fill="rgb(0%,0%,100%)" r="0.7" /><circle cx="266.837710809" cy="396.207205986" fill="rgb(0%,0%,100%)" r="0.7" /><circle cx="264.825241891" cy="398.432062182" fill="rgb(0%,0%,100%)" r="0.7" /><circle cx="262.806241671" cy="400.651028996" fill="rgb(0%,0%,100%)" r="0.7" /><circle cx="260.766637146" cy="402.850963744" fill="rgb(0%,0%,100%)" r="0.7" /><circle cx="258.397109929" cy="404.664552129" fill="rgb(0%,0%,100%)" r="0.7" /><circle cx="255.483526191" cy="405.05281545" fill="rgb(0%,0%,100%)" r="0.7" /></svg>