<?xml version="1.0" encoding="utf-8" ?>
<svg baseProfile="full" height="100%" version="1.1" width="100%" xmlns="http://www.w3.org/2000/svg" xmlns:ev="http://www.w3.org/2001/xml-events" xmlns:xlink="http://www.w3.org/1999/xlink"><defs /><circle cx="305.706466481" cy="334.237731391" fill="rgb(100%,0%,0%)" r="0.7" /><circle cx="302.740477185" cy="334.561691835" fill="rgb(100%,0%,0%)" r="0.7" /><circle cx="300.012565265" cy="335.787038129" fill="rgb(100%,0%,0%)" r="0.7" /><circle cx="297.660352207" cy="337.639765464" fill="rgb(100%,0%,0%)" r="0.7" /><circle cx="295.692184064" cy="339.899576394" fill="rgb(100%,0%,0%)" r="0.7" /><circle cx="294.059202067" cy="342.413992367" fill="rgb(100%,0%,0%)" r="0.7" /><circle cx="292.702910421" cy="345.088678829" fill="rgb(100%,0%,0%)" r="0.7" /><circle cx="291.557847097" cy="347.861066534" fill="rgb(100%,0%,0%)" r="0.7" /><circle cx="290.274600122" cy="350.572013075" fill="rgb(100%,0%,0%)" r="0.7" /><circle cx="288.837091589" cy="353.204865531" fill="rgb(100%,0%,0%)" r="0.7" /><circle cx="287.290271836" cy="355.775153979" fill="rgb(100%,0%,0%)" r="0.7" /><circle cx="285.654969405" cy="358.290101891" fill="rgb(100%,0%,0%)" r="0.7" /><circle cx="283.944203451" cy="360.754367148" fill="rgb(100%,0%,0%)" r="0.7" /><circle cx="282.167202521" cy="363.171361243" fill="rgb(100%,0%,0%)" r="0.7" /><circle cx="280.331038826" cy="365.543714685" fill="rgb(100%,0%,0%)" r="0.7" /><circle cx="278.441326252" cy="367.873643588" fill="rgb(100%,0%,0%)" r="0.7" /><circle cx="276.502683239" cy="370.16304888" fill="rgb(100%,0%,0%)" r="0.7" /><circle cx="274.519026084" cy="372.413570786" fill="rgb(100%,0%,0%)" r="0.7" /><circle cx="272.493707182" cy="374.626686935" fill="rgb(100%,0%,0%)" r="0.7" /><circle cx="270.429666279" cy="376.803713724" fill="rgb(100%,0%,0%)" r="0.7" /><circle cx="268.329465369" cy="378.945886443" fill="rgb(100%,0%,0%)" r="0.7" /><circle cx="266.195378331" cy="381.054347275" fill="rgb(100%,0%,0%)" r="0.7" /><circle cx="264.029508558" cy="383.130093475" fill="rgb(100%,0%,0%)" r="0.7" /><circle cx="261.833665573" cy="385.174144778" fill="rgb(100%,0%,0%)" r="0.7" /><circle cx="259.609551191" cy="387.187399435" fill="rgb(100%,0%,0%)" r="0.7" /><circle cx="257.358709013" cy="389.170713674" fill="rgb(100%,0%,0%)" r="0.7" /><circle cx="255.082518308" cy="391.124927362" fill="rgb(100%,0%,0%)" r="0.7" /><circle cx="252.782313197" cy="393.050779442" fill="rgb(100%,0%,0%)" r="0.7" /><circle cx="250.459268541" cy="394.949021626" fill="rgb(100%,0%,0%)" r="0.7" /><circle cx="248.114474332" cy="396.820365908" fill="rgb(100%,0%,0%)" r="0.7" /><circle cx="245.748999677" cy="398.665445934" fill="rgb(100%,0%,0%)" r="0.7" /><circle cx="243.363750739" cy="400.484937849" fill="rgb(100%,0%,0%)" r="0.7" /><circle cx="240.959654953" cy="402.279423927" fill="rgb(100%,0%,0%)" r="0.7" /><circle cx="238.53752164" cy="404.049506626" fill="rgb(100%,0%,0%)" r="0.7" /><circle cx="236.098126522" cy="405.795749551" fill="rgb(100%,0%,0%)" r="0.7" /><circle cx="233.695391488" cy="407.591828599" fill="rgb(100%,0%,0%)" r="0.7" /><circle cx="231.270286135" cy="409.357820245" fill="rgb(100%,0%,0%)" r="0.7" /><circle cx="228.821857388" cy="411.09134111" fill="rgb(100%,0%,0%)" r="0.7" /><circle cx="226.351443291" cy="412.793378139" fill="rgb(100%,0%,0%)" r="0.7" /><circle cx="223.859093853" cy="414.46312778" fill="rgb(100%,0%,0%)" r="0.7" /><circle cx="221.34420237" cy="416.098725115" fill="rgb(100%,0%,0%)" r="0.7" /><circle cx="218.80568719" cy="417.697401042" fill="rgb(100%,0%,0%)" r="0.7" /><circle cx="216.242035466" cy="419.255440777" fill="rgb(100%,0%,0%)" r="0.7" /><circle cx="213.65130195" cy="420.768003553" fill="rgb(100%,0%,0%)" r="0.7" /><circle cx="211.031055355" cy="422.228818634" fill="rgb(100%,0%,0%)" r="0.7" /><circle cx="208.378302138" cy="423.629696935" fill="rgb(100%,0%,0%)" r="0.7" /><circle cx="205.689381492" cy="424.959767669" fill="rgb(100%,0%,0%)" r="0.7" /><circle cx="202.959845937" cy="426.204255064" fill="rgb(100%,0%,0%)" r="0.7" /><circle cx="200.18438834" cy="427.34243722" fill="rgb(100%,0%,0%)" r="0.7" /><circle cx="197.356952637" cy="428.344095279" fill="rgb(100%,0%,0%)" r="0.7" /><circle cx="197.485724803" cy="428.843968537" fill="rgb(100%,0%,0%)" r="0.7" /><circle cx="200.482326496" cy="428.9867211" fill="rgb(100%,0%,0%)" r="0.7" /><circle cx="203.478928189" cy="429.129473663" fill="rgb(100%,0%,0%)" r="0.7" /><circle cx="205.685889046" cy="429.742585257" fill="rgb(100%,0%,0%)" r="0.7" /><circle cx="204.384378787" cy="432.445559738" fill="rgb(100%,0%,0%)" r="0.7" /><circle cx="203.082868529" cy="435.148534219" fill="rgb(100%,0%,0%)" r="0.7" /><circle cx="201.78135827" cy="437.8515087" fill="rgb(100%,0%,0%)" r="0.7" /><circle cx="200.479848011" cy="440.554483182" fill="rgb(100%,0%,0%)" r="0.7" /><circle cx="199.753" cy="442.064" fill="rgb(100%,0%,0%)" r="0.7" /><circle cx="305.706466481" cy="334.237731391" fill="rgb(0%,0%,100%)" r="0.7" /><circle cx="308.224240389" cy="335.764785233" fill="rgb(0%,0%,100%)" r="0.7" /><circle cx="309.717225569" cy="338.338782679" fill="rgb(0%,0%,100%)" r="0.7" /><circle cx="310.21291505" cy="341.287768603" fill="rgb(0%,0%,100%)" r="0.7" /><circle cx="310.058257885" cy="344.280205664" fill="rgb(0%,0%,100%)" r="0.7" /><circle cx="309.487413186" cy="347.223662319" fill="rgb(0%,0%,100%)" r="0.7" /><circle cx="308.605087503" cy="350.089558081" fill="rgb(0%,0%,100%)" r="0.7" /><circle cx="307.733889268" cy="352.959111878" fill="rgb(0%,0%,100%)" r="0.7" /><circle cx="306.954755007" cy="355.856033144" fill="rgb(0%,0%,100%)" r="0.7" /><circle cx="306.425966478" cy="358.802187991" fill="rgb(0%,0%,100%)" r="0.7" /><circle cx="306.515248326" cy="361.673456248" fill="rgb(0%,0%,100%)" r="0.7" /><circle cx="306.255375032" cy="364.66122353" fill="rgb(0%,0%,100%)" r="0.7" /><circle cx="305.602951372" cy="367.584195121" fill="rgb(0%,0%,100%)" r="0.7" /><circle cx="303.719522387" cy="369.774198441" fill="rgb(0%,0%,100%)" r="0.7" /><circle cx="301.248366695" cy="371.474765354" fill="rgb(0%,0%,100%)" r="0.7" /><circle cx="298.690138954" cy="373.040770429" fill="rgb(0%,0%,100%)" r="0.7" /><circle cx="296.012695985" cy="374.390958895" fill="rgb(0%,0%,100%)" r="0.7" /><circle cx="293.165927755" cy="375.318389714" fill="rgb(0%,0%,100%)" r="0.7" /><circle cx="290.266035724" cy="374.979881408" fill="rgb(0%,0%,100%)" r="0.7" /><circle cx="288.419740099" cy="376.674478574" fill="rgb(0%,0%,100%)" r="0.7" /><circle cx="286.548014165" cy="379.01886889" fill="rgb(0%,0%,100%)" r="0.7" /><circle cx="284.618827078" cy="381.31621541" fill="rgb(0%,0%,100%)" r="0.7" /><circle cx="282.637071738" cy="383.568391193" fill="rgb(0%,0%,100%)" r="0.7" /><circle cx="280.60711277" cy="385.77722629" fill="rgb(0%,0%,100%)" r="0.7" /><circle cx="278.532835975" cy="387.944502164" fill="rgb(0%,0%,100%)" r="0.7" /><circle cx="276.417707117" cy="390.071934112" fill="rgb(0%,0%,100%)" r="0.7" /><circle cx="274.264823872" cy="392.161160262" fill="rgb(0%,0%,100%)" r="0.7" /><circle cx="272.076961191" cy="394.213735524" fill="rgb(0%,0%,100%)" r="0.7" /><circle cx="269.856611497" cy="396.231128303" fill="rgb(0%,0%,100%)" r="0.7" /><circle cx="267.606014523" cy="398.214724151" fill="rgb(0%,0%,100%)" r="0.7" /><circle cx="265.327186748" cy="400.165826811" fill="rgb(0%,0%,100%)" r="0.7" /><circle cx="263.021949155" cy="402.085658436" fill="rgb(0%,0%,100%)" r="0.7" /><circle cx="260.691948366" cy="403.975363301" fill="rgb(0%,0%,100%)" r="0.7" /><circle cx="258.33867805" cy="405.836009143" fill="rgb(0%,0%,100%)" r="0.7" /><circle cx="255.963489076" cy="407.668595495" fill="rgb(0%,0%,100%)" r="0.7" /><circle cx="253.567608691" cy="409.47405286" fill="rgb(0%,0%,100%)" r="0.7" /><circle cx="251.152158761" cy="411.253241548" fill="rgb(0%,0%,100%)" r="0.7" /><circle cx="248.718153084" cy="413.006964475" fill="rgb(0%,0%,100%)" r="0.7" /><circle cx="246.266515302" cy="414.735962956" fill="rgb(0%,0%,100%)" r="0.7" /><circle cx="243.798100687" cy="416.440909352" fill="rgb(0%,0%,100%)" r="0.7" /><circle cx="241.313668434" cy="418.122432705" fill="rgb(0%,0%,100%)" r="0.7" /><circle cx="238.81390933" cy="419.7811039" fill="rgb(0%,0%,100%)" r="0.7" /><circle cx="236.299480748" cy="421.417416551" fill="rgb(0%,0%,100%)" r="0.7" /><circle cx="233.770926978" cy="423.031841136" fill="rgb(0%,0%,100%)" r="0.7" /><circle cx="231.228759815" cy="424.624771899" fill="rgb(0%,0%,100%)" r="0.7" /><circle cx="228.67346428" cy="426.196522944" fill="rgb(0%,0%,100%)" r="0.7" /><circle cx="226.105420229" cy="427.747372159" fill="rgb(0%,0%,100%)" r="0.7" /><circle cx="223.524988046" cy="429.277499982" fill="rgb(0%,0%,100%)" r="0.7" /><circle cx="220.932443782" cy="430.787015689" fill="rgb(0%,0%,100%)" r="0.7" /><circle cx="218.327994298" cy="432.275926782" fill="rgb(0%,0%,100%)" r="0.7" /><circle cx="215.711815245" cy="433.744084866" fill="rgb(0%,0%,100%)" r="0.7" /><circle cx="213.083908508" cy="435.191212117" fill="rgb(0%,0%,100%)" r="0.7" /><circle cx="210.444242365" cy="436.61672943" fill="rgb(0%,0%,100%)" r="0.7" /><circle cx="207.79253954" cy="438.019697518" fill="rgb(0%,0%,100%)" r="0.7" /><circle cx="205.128147032" cy="439.398500523" fill="rgb(0%,0%,100%)" r="0.7" /><circle cx="202.44978459" cy="440.749906575" fill="rgb(0%,0%,100%)" r="0.7" /><circle cx="199.753" cy="442.064" fill="rgb(0%,0%,100%)" r="0.7" /></svg>