<?xml version="1.0" encoding="utf-8" ?>
<svg baseProfile="full" height="100%" version="1.1" width="100%" xmlns="http://www.w3.org/2000/svg" xmlns:ev="http://www.w3.org/2001/xml-events" xmlns:xlink="http://www.w3.org/1999/xlink"><defs /><circle cx="289.842791786" cy="220.212758708" fill="rgb(100%,0%,0%)" r="0.7" /><circle cx="287.131501611" cy="221.428335547" fill="rgb(100%,0%,0%)" r="0.7" /><circle cx="284.635439849" cy="223.09256981" fill="rgb(100%,0%,0%)" r="0.7" /><circle cx="282.208556544" cy="224.84717378" fill="rgb(100%,0%,0%)" r="0.7" /><circle cx="280.903475897" cy="227.335594083" fill="rgb(100%,0%,0%)" r="0.7" /><circle cx="280.495999305" cy="230.307168073" fill="rgb(100%,0%,0%)" r="0.7" /><circle cx="280.223155256" cy="233.294631767" fill="rgb(100%,0%,0%)" r="0.7" /><circle cx="280.051152505" cy="236.289029504" fill="rgb(100%,0%,0%)" r="0.7" /><circle cx="279.717825723" cy="239.269931217" fill="rgb(100%,0%,0%)" r="0.7" /><circle cx="279.211587459" cy="242.226546238" fill="rgb(100%,0%,0%)" r="0.7" /><circle cx="278.556403183" cy="245.15382574" fill="rgb(100%,0%,0%)" r="0.7" /><circle cx="277.764113701" cy="248.047041422" fill="rgb(100%,0%,0%)" r="0.7" /><circle cx="276.842230802" cy="250.901627299" fill="rgb(100%,0%,0%)" r="0.7" /><circle cx="275.796293894" cy="253.713143125" fill="rgb(100%,0%,0%)" r="0.7" /><circle cx="274.630879127" cy="256.477279894" fill="rgb(100%,0%,0%)" r="0.7" /><circle cx="273.350104176" cy="259.189905351" fill="rgb(100%,0%,0%)" r="0.7" /><circle cx="271.957926089" cy="261.847075109" fill="rgb(100%,0%,0%)" r="0.7" /><circle cx="270.458283631" cy="264.445120816" fill="rgb(100%,0%,0%)" r="0.7" /><circle cx="268.855206875" cy="266.980657017" fill="rgb(100%,0%,0%)" r="0.7" /><circle cx="267.159318335" cy="269.454894599" fill="rgb(100%,0%,0%)" r="0.7" /><circle cx="265.536278773" cy="271.977711204" fill="rgb(100%,0%,0%)" r="0.7" /><circle cx="263.84040958" cy="274.45231817" fill="rgb(100%,0%,0%)" r="0.7" /><circle cx="262.092038161" cy="276.890119459" fill="rgb(100%,0%,0%)" r="0.7" /><circle cx="260.298511145" cy="279.29491039" fill="rgb(100%,0%,0%)" r="0.7" /><circle cx="258.463995819" cy="281.668589717" fill="rgb(100%,0%,0%)" r="0.7" /><circle cx="256.591234767" cy="284.012219883" fill="rgb(100%,0%,0%)" r="0.7" /><circle cx="254.682200091" cy="286.326387345" fill="rgb(100%,0%,0%)" r="0.7" /><circle cx="252.738361013" cy="288.611415306" fill="rgb(100%,0%,0%)" r="0.7" /><circle cx="250.760891987" cy="290.867400745" fill="rgb(100%,0%,0%)" r="0.7" /><circle cx="248.750739633" cy="293.094305481" fill="rgb(100%,0%,0%)" r="0.7" /><circle cx="246.70868106" cy="295.291993358" fill="rgb(100%,0%,0%)" r="0.7" /><circle cx="244.635380716" cy="297.460236387" fill="rgb(100%,0%,0%)" r="0.7" /><circle cx="242.531416766" cy="299.598734973" fill="rgb(100%,0%,0%)" r="0.7" /><circle cx="240.39729131" cy="301.707141183" fill="rgb(100%,0%,0%)" r="0.7" /><circle cx="238.233463935" cy="303.785050132" fill="rgb(100%,0%,0%)" r="0.7" /><circle cx="236.04583248" cy="305.837848698" fill="rgb(100%,0%,0%)" r="0.7" /><circle cx="233.882060113" cy="307.915844862" fill="rgb(100%,0%,0%)" r="0.7" /><circle cx="231.718546679" cy="309.994127266" fill="rgb(100%,0%,0%)" r="0.7" /><circle cx="229.555307764" cy="312.072679679" fill="rgb(100%,0%,0%)" r="0.7" /><circle cx="227.392370801" cy="314.151553977" fill="rgb(100%,0%,0%)" r="0.7" /><circle cx="225.229813622" cy="316.230821284" fill="rgb(100%,0%,0%)" r="0.7" /><circle cx="223.067762716" cy="318.310616823" fill="rgb(100%,0%,0%)" r="0.7" /><circle cx="220.906467316" cy="320.391197637" fill="rgb(100%,0%,0%)" r="0.7" /><circle cx="218.746537494" cy="322.47318591" fill="rgb(100%,0%,0%)" r="0.7" /><circle cx="216.638957479" cy="324.606623343" fill="rgb(100%,0%,0%)" r="0.7" /><circle cx="214.590927621" cy="326.798787825" fill="rgb(100%,0%,0%)" r="0.7" /><circle cx="212.534123453" cy="328.982718902" fill="rgb(100%,0%,0%)" r="0.7" /><circle cx="210.466762605" cy="331.156655488" fill="rgb(100%,0%,0%)" r="0.7" /><circle cx="208.384589115" cy="333.316403145" fill="rgb(100%,0%,0%)" r="0.7" /><circle cx="206.277356567" cy="335.451670747" fill="rgb(100%,0%,0%)" r="0.7" /><circle cx="204.103315059" cy="337.518204673" fill="rgb(100%,0%,0%)" r="0.7" /><circle cx="201.907682939" cy="339.561556912" fill="rgb(100%,0%,0%)" r="0.7" /><circle cx="199.795859756" cy="341.692239047" fill="rgb(100%,0%,0%)" r="0.7" /><circle cx="197.72393982" cy="343.861796269" fill="rgb(100%,0%,0%)" r="0.7" /><circle cx="195.683072869" cy="346.060598002" fill="rgb(100%,0%,0%)" r="0.7" /><circle cx="193.673474235" cy="348.288005486" fill="rgb(100%,0%,0%)" r="0.7" /><circle cx="191.70333447" cy="350.550357154" fill="rgb(100%,0%,0%)" r="0.7" /><circle cx="189.800696586" cy="352.869548937" fill="rgb(100%,0%,0%)" r="0.7" /><circle cx="187.857961722" cy="355.154613274" fill="rgb(100%,0%,0%)" r="0.7" /><circle cx="185.879276271" cy="357.409570311" fill="rgb(100%,0%,0%)" r="0.7" /><circle cx="183.888264966" cy="359.653635225" fill="rgb(100%,0%,0%)" r="0.7" /><circle cx="181.885569135" cy="361.887288126" fill="rgb(100%,0%,0%)" r="0.7" /><circle cx="179.871137442" cy="364.110359516" fill="rgb(100%,0%,0%)" r="0.7" /><circle cx="177.844529046" cy="366.322343433" fill="rgb(100%,0%,0%)" r="0.7" /><circle cx="175.805027111" cy="368.522434125" fill="rgb(100%,0%,0%)" r="0.7" /><circle cx="173.751621162" cy="370.70955185" fill="rgb(100%,0%,0%)" r="0.7" /><circle cx="171.682991477" cy="372.882279323" fill="rgb(100%,0%,0%)" r="0.7" /><circle cx="169.597446612" cy="375.038770084" fill="rgb(100%,0%,0%)" r="0.7" /><circle cx="167.492800664" cy="377.176619864" fill="rgb(100%,0%,0%)" r="0.7" /><circle cx="165.366206004" cy="379.292632473" fill="rgb(100%,0%,0%)" r="0.7" /><circle cx="163.213872202" cy="381.382449569" fill="rgb(100%,0%,0%)" r="0.7" /><circle cx="161.030602575" cy="383.439906719" fill="rgb(100%,0%,0%)" r="0.7" /><circle cx="158.838017196" cy="385.486843106" fill="rgb(100%,0%,0%)" r="0.7" /><circle cx="156.694331158" cy="387.585547429" fill="rgb(100%,0%,0%)" r="0.7" /><circle cx="154.54787967" cy="389.681455825" fill="rgb(100%,0%,0%)" r="0.7" /><circle cx="152.398938126" cy="391.774778069" fill="rgb(100%,0%,0%)" r="0.7" /><circle cx="150.247454777" cy="393.865510078" fill="rgb(100%,0%,0%)" r="0.7" /><circle cx="148.09330653" cy="395.953483013" fill="rgb(100%,0%,0%)" r="0.7" /><circle cx="145.936249063" cy="398.038460644" fill="rgb(100%,0%,0%)" r="0.7" /><circle cx="143.775960861" cy="400.120084702" fill="rgb(100%,0%,0%)" r="0.7" /><circle cx="141.611988862" cy="402.197878134" fill="rgb(100%,0%,0%)" r="0.7" /><circle cx="139.44371544" cy="404.271183488" fill="rgb(100%,0%,0%)" r="0.7" /><circle cx="137.270277836" cy="406.339075296" fill="rgb(100%,0%,0%)" r="0.7" /><circle cx="135.090422095" cy="408.400197677" fill="rgb(100%,0%,0%)" r="0.7" /><circle cx="132.902206895" cy="410.452446116" fill="rgb(100%,0%,0%)" r="0.7" /><circle cx="130.702365966" cy="412.49221748" fill="rgb(100%,0%,0%)" r="0.7" /><circle cx="128.484505018" cy="414.512372089" fill="rgb(100%,0%,0%)" r="0.7" /><circle cx="126.722261632" cy="416.181911852" fill="rgb(100%,0%,0%)" r="0.7" /><circle cx="129.454878173" cy="414.943846087" fill="rgb(100%,0%,0%)" r="0.7" /><circle cx="132.187494715" cy="413.705780322" fill="rgb(100%,0%,0%)" r="0.7" /><circle cx="134.920111256" cy="412.467714557" fill="rgb(100%,0%,0%)" r="0.7" /><circle cx="137.652727797" cy="411.229648792" fill="rgb(100%,0%,0%)" r="0.7" /><circle cx="140.385344338" cy="409.991583027" fill="rgb(100%,0%,0%)" r="0.7" /><circle cx="143.11796088" cy="408.753517263" fill="rgb(100%,0%,0%)" r="0.7" /><circle cx="145.850577421" cy="407.515451498" fill="rgb(100%,0%,0%)" r="0.7" /><circle cx="148.583193962" cy="406.277385733" fill="rgb(100%,0%,0%)" r="0.7" /><circle cx="151.315810504" cy="405.039319968" fill="rgb(100%,0%,0%)" r="0.7" /><circle cx="152.222183092" cy="406.263742064" fill="rgb(100%,0%,0%)" r="0.7" /><circle cx="151.830760605" cy="409.238097194" fill="rgb(100%,0%,0%)" r="0.7" /><circle cx="151.439338118" cy="412.212452323" fill="rgb(100%,0%,0%)" r="0.7" /><circle cx="151.047915631" cy="415.186807453" fill="rgb(100%,0%,0%)" r="0.7" /><circle cx="150.656493143" cy="418.161162582" fill="rgb(100%,0%,0%)" r="0.7" /><circle cx="150.265070656" cy="421.135517712" fill="rgb(100%,0%,0%)" r="0.7" /><circle cx="149.873648169" cy="424.109872841" fill="rgb(100%,0%,0%)" r="0.7" /><circle cx="149.482225682" cy="427.084227971" fill="rgb(100%,0%,0%)" r="0.7" /><circle cx="149.090803194" cy="430.0585831" fill="rgb(100%,0%,0%)" r="0.7" /><circle cx="148.844" cy="431.934" fill="rgb(100%,0%,0%)" r="0.7" /><circle cx="289.842791786" cy="220.212758708" fill="rgb(0%,0%,100%)" r="0.7" /><circle cx="292.370791669" cy="221.441370004" fill="rgb(0%,0%,100%)" r="0.7" /><circle cx="293.781668645" cy="224.0854103" fill="rgb(0%,0%,100%)" r="0.7" /><circle cx="294.825528208" cy="226.896184016" fill="rgb(0%,0%,100%)" r="0.7" /><circle cx="295.580097201" cy="229.798704841" fill="rgb(0%,0%,100%)" r="0.7" /><circle cx="296.093935395" cy="232.753631005" fill="rgb(0%,0%,100%)" r="0.7" /><circle cx="296.377902347" cy="235.739263545" fill="rgb(0%,0%,100%)" r="0.7" /><circle cx="296.662308932" cy="238.725746735" fill="rgb(0%,0%,100%)" r="0.7" /><circle cx="296.924070195" cy="241.714289862" fill="rgb(0%,0%,100%)" r="0.7" /><circle cx="297.160854933" cy="244.704913226" fill="rgb(0%,0%,100%)" r="0.7" /><circle cx="297.369855378" cy="247.697624861" fill="rgb(0%,0%,100%)" r="0.7" /><circle cx="297.547624946" cy="250.692339627" fill="rgb(0%,0%,100%)" r="0.7" /><circle cx="297.689849207" cy="253.688936538" fill="rgb(0%,0%,100%)" r="0.7" /><circle cx="297.790976986" cy="256.687211254" fill="rgb(0%,0%,100%)" r="0.7" /><circle cx="297.843611155" cy="259.686698849" fill="rgb(0%,0%,100%)" r="0.7" /><circle cx="297.837434597" cy="262.686644413" fill="rgb(0%,0%,100%)" r="0.7" /><circle cx="297.757079593" cy="265.685458264" fill="rgb(0%,0%,100%)" r="0.7" /><circle cx="297.577210197" cy="268.679877655" fill="rgb(0%,0%,100%)" r="0.7" /><circle cx="297.247555373" cy="271.661179263" fill="rgb(0%,0%,100%)" r="0.7" /><circle cx="296.625307401" cy="274.591317784" fill="rgb(0%,0%,100%)" r="0.7" /><circle cx="296.098472666" cy="277.544189205" fill="rgb(0%,0%,100%)" r="0.7" /><circle cx="295.39464571" cy="280.46003484" fill="rgb(0%,0%,100%)" r="0.7" /><circle cx="294.532329443" cy="283.333077684" fill="rgb(0%,0%,100%)" r="0.7" /><circle cx="293.528305637" cy="286.159782074" fill="rgb(0%,0%,100%)" r="0.7" /><circle cx="292.397468834" cy="288.938237556" fill="rgb(0%,0%,100%)" r="0.7" /><circle cx="291.152844805" cy="291.667659942" fill="rgb(0%,0%,100%)" r="0.7" /><circle cx="289.805707985" cy="294.348001252" fill="rgb(0%,0%,100%)" r="0.7" /><circle cx="288.36573531" cy="296.979659709" fill="rgb(0%,0%,100%)" r="0.7" /><circle cx="286.841164068" cy="299.563256774" fill="rgb(0%,0%,100%)" r="0.7" /><circle cx="285.238941222" cy="302.099443083" fill="rgb(0%,0%,100%)" r="0.7" /><circle cx="283.564814315" cy="304.588762842" fill="rgb(0%,0%,100%)" r="0.7" /><circle cx="281.823383236" cy="307.03147792" fill="rgb(0%,0%,100%)" r="0.7" /><circle cx="280.018038843" cy="309.427358745" fill="rgb(0%,0%,100%)" r="0.7" /><circle cx="278.150729302" cy="311.775267759" fill="rgb(0%,0%,100%)" r="0.7" /><circle cx="276.221151148" cy="314.072251694" fill="rgb(0%,0%,100%)" r="0.7" /><circle cx="274.223417481" cy="316.310164707" fill="rgb(0%,0%,100%)" r="0.7" /><circle cx="272.233803812" cy="318.55393482" fill="rgb(0%,0%,100%)" r="0.7" /><circle cx="270.277704868" cy="320.82850678" fill="rgb(0%,0%,100%)" r="0.7" /><circle cx="268.305652682" cy="323.089255536" fill="rgb(0%,0%,100%)" r="0.7" /><circle cx="266.321208583" cy="325.33913321" fill="rgb(0%,0%,100%)" r="0.7" /><circle cx="264.32674384" cy="327.580138743" fill="rgb(0%,0%,100%)" r="0.7" /><circle cx="262.323933747" cy="329.813688266" fill="rgb(0%,0%,100%)" r="0.7" /><circle cx="260.314001378" cy="332.040832997" fill="rgb(0%,0%,100%)" r="0.7" /><circle cx="258.297871418" cy="334.262368877" fill="rgb(0%,0%,100%)" r="0.7" /><circle cx="256.276254408" cy="336.47891361" fill="rgb(0%,0%,100%)" r="0.7" /><circle cx="254.249708124" cy="338.690946327" fill="rgb(0%,0%,100%)" r="0.7" /><circle cx="252.21865693" cy="340.898854763" fill="rgb(0%,0%,100%)" r="0.7" /><circle cx="250.183441897" cy="343.102922786" fill="rgb(0%,0%,100%)" r="0.7" /><circle cx="248.144308615" cy="345.303364738" fill="rgb(0%,0%,100%)" r="0.7" /><circle cx="246.101421612" cy="347.500307541" fill="rgb(0%,0%,100%)" r="0.7" /><circle cx="244.054810548" cy="349.693806425" fill="rgb(0%,0%,100%)" r="0.7" /><circle cx="242.004354429" cy="351.883707488" fill="rgb(0%,0%,100%)" r="0.7" /><circle cx="239.949314406" cy="354.069287664" fill="rgb(0%,0%,100%)" r="0.7" /><circle cx="237.877110183" cy="356.238528273" fill="rgb(0%,0%,100%)" r="0.7" /><circle cx="235.769508151" cy="358.373445864" fill="rgb(0%,0%,100%)" r="0.7" /><circle cx="233.635058009" cy="360.48153569" fill="rgb(0%,0%,100%)" r="0.7" /><circle cx="231.479583151" cy="362.568128174" fill="rgb(0%,0%,100%)" r="0.7" /><circle cx="229.307028349" cy="364.636940712" fill="rgb(0%,0%,100%)" r="0.7" /><circle cx="227.120212923" cy="366.690673286" fill="rgb(0%,0%,100%)" r="0.7" /><circle cx="224.921220457" cy="368.73136119" fill="rgb(0%,0%,100%)" r="0.7" /><circle cx="222.711634798" cy="370.760577815" fill="rgb(0%,0%,100%)" r="0.7" /><circle cx="220.492690198" cy="372.779558314" fill="rgb(0%,0%,100%)" r="0.7" /><circle cx="218.265361893" cy="374.789285955" fill="rgb(0%,0%,100%)" r="0.7" /><circle cx="216.030427763" cy="376.790548" fill="rgb(0%,0%,100%)" r="0.7" /><circle cx="213.788503473" cy="378.783978159" fill="rgb(0%,0%,100%)" r="0.7" /><circle cx="211.540072657" cy="380.770076577" fill="rgb(0%,0%,100%)" r="0.7" /><circle cx="209.285516112" cy="382.749208406" fill="rgb(0%,0%,100%)" r="0.7" /><circle cx="207.025078831" cy="384.721632291" fill="rgb(0%,0%,100%)" r="0.7" /><circle cx="204.758892034" cy="386.687441407" fill="rgb(0%,0%,100%)" r="0.7" /><circle cx="202.486888415" cy="388.646507109" fill="rgb(0%,0%,100%)" r="0.7" /><circle cx="200.208546163" cy="390.598230116" fill="rgb(0%,0%,100%)" r="0.7" /><circle cx="197.95246174" cy="392.574657121" fill="rgb(0%,0%,100%)" r="0.7" /><circle cx="195.744883399" cy="394.606053024" fill="rgb(0%,0%,100%)" r="0.7" /><circle cx="193.524954097" cy="396.623944374" fill="rgb(0%,0%,100%)" r="0.7" /><circle cx="191.292674427" cy="398.628167745" fill="rgb(0%,0%,100%)" r="0.7" /><circle cx="189.048042682" cy="400.618536414" fill="rgb(0%,0%,100%)" r="0.7" /><circle cx="186.791023607" cy="402.594864298" fill="rgb(0%,0%,100%)" r="0.7" /><circle cx="184.521596905" cy="404.556918596" fill="rgb(0%,0%,100%)" r="0.7" /><circle cx="182.239702487" cy="406.504462299" fill="rgb(0%,0%,100%)" r="0.7" /><circle cx="179.94526992" cy="408.437221363" fill="rgb(0%,0%,100%)" r="0.7" /><circle cx="177.638207607" cy="410.354885457" fill="rgb(0%,0%,100%)" r="0.7" /><circle cx="175.318396912" cy="412.257101704" fill="rgb(0%,0%,100%)" r="0.7" /><circle cx="172.985677095" cy="414.143472206" fill="rgb(0%,0%,100%)" r="0.7" /><circle cx="170.639857274" cy="416.013524531" fill="rgb(0%,0%,100%)" r="0.7" /><circle cx="168.280693145" cy="417.866703586" fill="rgb(0%,0%,100%)" r="0.7" /><circle cx="165.90785861" cy="419.702354984" fill="rgb(0%,0%,100%)" r="0.7" /><circle cx="163.520946033" cy="421.51966707" fill="rgb(0%,0%,100%)" r="0.7" /><circle cx="161.119421522" cy="423.317615542" fill="rgb(0%,0%,100%)" r="0.7" /><circle cx="158.702539068" cy="425.094876488" fill="rgb(0%,0%,100%)" r="0.7" /><circle cx="156.269263141" cy="426.849603264" fill="rgb(0%,0%,100%)" r="0.7" /><circle cx="153.817956147" cy="428.579053168" fill="rgb(0%,0%,100%)" r="0.7" /><circle cx="151.345693666" cy="430.278412202" fill="rgb(0%,0%,100%)" r="0.7" /><circle cx="148.844" cy="431.934" fill="rgb(0%,0%,100%)" r="0.7" /></svg>