<?xml version="1.0" encoding="utf-8" ?>
<svg baseProfile="full" height="100%" version="1.1" width="100%" xmlns="http://www.w3.org/2000/svg" xmlns:ev="http://www.w3.org/2001/xml-events" xmlns:xlink="http://www.w3.org/1999/xlink"><defs /><circle cx="294.916650255" cy="324.850560442" fill="rgb(100%,0%,0%)" r="0.7" /><circle cx="292.009692819" cy="325.569018895" fill="rgb(100%,0%,0%)" r="0.7" /><circle cx="289.275158304" cy="326.793906844" fill="rgb(100%,0%,0%)" r="0.7" /><circle cx="287.205032621" cy="328.949550554" fill="rgb(100%,0%,0%)" r="0.7" /><circle cx="285.545475381" cy="331.446857807" fill="rgb(100%,0%,0%)" r="0.7" /><circle cx="284.109191913" cy="334.080030784" fill="rgb(100%,0%,0%)" r="0.7" /><circle cx="282.826688415" cy="336.791739246" fill="rgb(100%,0%,0%)" r="0.7" /><circle cx="281.660242645" cy="339.555501646" fill="rgb(100%,0%,0%)" r="0.7" /><circle cx="280.586182131" cy="342.35652989" fill="rgb(100%,0%,0%)" r="0.7" /><circle cx="279.588322948" cy="345.185623335" fill="rgb(100%,0%,0%)" r="0.7" /><circle cx="278.654933467" cy="348.036669427" fill="rgb(100%,0%,0%)" r="0.7" /><circle cx="277.777167442" cy="350.905338826" fill="rgb(100%,0%,0%)" r="0.7" /><circle cx="276.94812501" cy="353.788479792" fill="rgb(100%,0%,0%)" r="0.7" /><circle cx="276.162297396" cy="356.683694867" fill="rgb(100%,0%,0%)" r="0.7" /><circle cx="275.415179561" cy="359.589172663" fill="rgb(100%,0%,0%)" r="0.7" /><circle cx="274.703055857" cy="362.503399717" fill="rgb(100%,0%,0%)" r="0.7" /><circle cx="274.022779579" cy="365.42523511" fill="rgb(100%,0%,0%)" r="0.7" /><circle cx="273.371680206" cy="368.353709363" fill="rgb(100%,0%,0%)" r="0.7" /><circle cx="272.747454384" cy="371.288039857" fill="rgb(100%,0%,0%)" r="0.7" /><circle cx="272.242450621" cy="374.045681668" fill="rgb(100%,0%,0%)" r="0.7" /><circle cx="274.308672482" cy="371.870658168" fill="rgb(100%,0%,0%)" r="0.7" /><circle cx="276.374894342" cy="369.695634669" fill="rgb(100%,0%,0%)" r="0.7" /><circle cx="278.441116202" cy="367.520611169" fill="rgb(100%,0%,0%)" r="0.7" /><circle cx="280.507338062" cy="365.345587669" fill="rgb(100%,0%,0%)" r="0.7" /><circle cx="282.49240519" cy="363.576596269" fill="rgb(100%,0%,0%)" r="0.7" /><circle cx="283.563825439" cy="366.378748772" fill="rgb(100%,0%,0%)" r="0.7" /><circle cx="284.635245689" cy="369.180901275" fill="rgb(100%,0%,0%)" r="0.7" /><circle cx="285.706665938" cy="371.983053777" fill="rgb(100%,0%,0%)" r="0.7" /><circle cx="286.778086188" cy="374.78520628" fill="rgb(100%,0%,0%)" r="0.7" /><circle cx="287.849506437" cy="377.587358783" fill="rgb(100%,0%,0%)" r="0.7" /><circle cx="288.920926687" cy="380.389511286" fill="rgb(100%,0%,0%)" r="0.7" /><circle cx="289.992346936" cy="383.191663789" fill="rgb(100%,0%,0%)" r="0.7" /><circle cx="291.063767186" cy="385.993816291" fill="rgb(100%,0%,0%)" r="0.7" /><circle cx="292.135187435" cy="388.795968794" fill="rgb(100%,0%,0%)" r="0.7" /><circle cx="292.911" cy="390.825" fill="rgb(100%,0%,0%)" r="0.7" /><circle cx="294.916650255" cy="324.850560442" fill="rgb(0%,0%,100%)" r="0.7" /><circle cx="297.905210212" cy="324.887965829" fill="rgb(0%,0%,100%)" r="0.7" /><circle cx="300.715822599" cy="325.892279002" fill="rgb(0%,0%,100%)" r="0.7" /><circle cx="303.045715863" cy="327.763612433" fill="rgb(0%,0%,100%)" r="0.7" /><circle cx="304.809543516" cy="330.182546508" fill="rgb(0%,0%,100%)" r="0.7" /><circle cx="306.073833235" cy="332.899139217" fill="rgb(0%,0%,100%)" r="0.7" /><circle cx="306.810466846" cy="335.798712323" fill="rgb(0%,0%,100%)" r="0.7" /><circle cx="306.742814672" cy="338.793039736" fill="rgb(0%,0%,100%)" r="0.7" /><circle cx="306.271613291" cy="341.754753499" fill="rgb(0%,0%,100%)" r="0.7" /><circle cx="305.592163029" cy="344.676415169" fill="rgb(0%,0%,100%)" r="0.7" /><circle cx="304.780737986" cy="347.564413262" fill="rgb(0%,0%,100%)" r="0.7" /><circle cx="303.875194944" cy="350.424377475" fill="rgb(0%,0%,100%)" r="0.7" /><circle cx="302.896807623" cy="353.260285572" fill="rgb(0%,0%,100%)" r="0.7" /><circle cx="301.857953835" cy="356.074623388" fill="rgb(0%,0%,100%)" r="0.7" /><circle cx="300.764469451" cy="358.868182655" fill="rgb(0%,0%,100%)" r="0.7" /><circle cx="299.621353046" cy="361.6417975" fill="rgb(0%,0%,100%)" r="0.7" /><circle cx="298.59995527" cy="364.46212882" fill="rgb(0%,0%,100%)" r="0.7" /><circle cx="297.712988335" cy="367.327815052" fill="rgb(0%,0%,100%)" r="0.7" /><circle cx="296.922010563" cy="370.221557311" fill="rgb(0%,0%,100%)" r="0.7" /><circle cx="296.204498086" cy="373.134426741" fill="rgb(0%,0%,100%)" r="0.7" /><circle cx="295.54613536" cy="376.061253633" fill="rgb(0%,0%,100%)" r="0.7" /><circle cx="294.937388139" cy="378.99881269" fill="rgb(0%,0%,100%)" r="0.7" /><circle cx="294.371846998" cy="381.945000303" fill="rgb(0%,0%,100%)" r="0.7" /><circle cx="293.84549643" cy="384.898442495" fill="rgb(0%,0%,100%)" r="0.7" /><circle cx="293.356849534" cy="387.858365714" fill="rgb(0%,0%,100%)" r="0.7" /><circle cx="292.911" cy="390.825" fill="rgb(0%,0%,100%)" r="0.7" /></svg>