<?xml version="1.0" encoding="utf-8" ?>
<svg baseProfile="full" height="100%" version="1.1" width="100%" xmlns="http://www.w3.org/2000/svg" xmlns:ev="http://www.w3.org/2001/xml-events" xmlns:xlink="http://www.w3.org/1999/xlink"><defs /><circle cx="315.823832468" cy="286.70029064" fill="rgb(100%,0%,0%)" r="0.7" /><circle cx="312.830579923" cy="286.85065077" fill="rgb(100%,0%,0%)" r="0.7" /><circle cx="309.901648323" cy="287.482930363" fill="rgb(100%,0%,0%)" r="0.7" /><circle cx="307.126042402" cy="288.611173893" fill="rgb(100%,0%,0%)" r="0.7" /><circle cx="304.585355124" cy="290.199786768" fill="rgb(100%,0%,0%)" r="0.7" /><circle cx="302.407967671" cy="292.254705609" fill="rgb(100%,0%,0%)" r="0.7" /><circle cx="300.338112231" cy="294.426267979" fill="rgb(100%,0%,0%)" r="0.7" /><circle cx="298.285489586" cy="296.614121461" fill="rgb(100%,0%,0%)" r="0.7" /><circle cx="296.249934873" cy="298.81786008" fill="rgb(100%,0%,0%)" r="0.7" /><circle cx="294.2325394" cy="301.038237084" fill="rgb(100%,0%,0%)" r="0.7" /><circle cx="292.235273935" cy="303.276734877" fill="rgb(100%,0%,0%)" r="0.7" /><circle cx="290.26104958" cy="305.535575433" fill="rgb(100%,0%,0%)" r="0.7" /><circle cx="288.314033221" cy="307.817900463" fill="rgb(100%,0%,0%)" r="0.7" /><circle cx="286.400266165" cy="310.128160514" fill="rgb(100%,0%,0%)" r="0.7" /><circle cx="284.528864376" cy="312.472843617" fill="rgb(100%,0%,0%)" r="0.7" /><circle cx="282.714527068" cy="314.861900923" fill="rgb(100%,0%,0%)" r="0.7" /><circle cx="280.983522267" cy="317.311863908" fill="rgb(100%,0%,0%)" r="0.7" /><circle cx="279.421023093" cy="319.86905561" fill="rgb(100%,0%,0%)" r="0.7" /><circle cx="278.187768367" cy="322.603843769" fill="rgb(100%,0%,0%)" r="0.7" /><circle cx="276.978160103" cy="325.349168375" fill="rgb(100%,0%,0%)" r="0.7" /><circle cx="275.790126105" cy="328.103896612" fill="rgb(100%,0%,0%)" r="0.7" /><circle cx="274.62455308" cy="330.86820863" fill="rgb(100%,0%,0%)" r="0.7" /><circle cx="273.483672345" cy="333.642795888" fill="rgb(100%,0%,0%)" r="0.7" /><circle cx="272.370986861" cy="336.428804608" fill="rgb(100%,0%,0%)" r="0.7" /><circle cx="271.291645085" cy="339.227893702" fill="rgb(100%,0%,0%)" r="0.7" /><circle cx="270.253264704" cy="342.042423098" fill="rgb(100%,0%,0%)" r="0.7" /><circle cx="269.267600096" cy="344.875816661" fill="rgb(100%,0%,0%)" r="0.7" /><circle cx="268.354186475" cy="347.733262725" fill="rgb(100%,0%,0%)" r="0.7" /><circle cx="267.54968664" cy="350.623095448" fill="rgb(100%,0%,0%)" r="0.7" /><circle cx="266.939430564" cy="353.559271386" fill="rgb(100%,0%,0%)" r="0.7" /><circle cx="266.995684683" cy="355.995315317" fill="rgb(100%,0%,0%)" r="0.7" /><circle cx="315.823832468" cy="286.70029064" fill="rgb(0%,0%,100%)" r="0.7" /><circle cx="318.808126341" cy="286.983569728" fill="rgb(0%,0%,100%)" r="0.7" /><circle cx="321.733013283" cy="287.642654863" fill="rgb(0%,0%,100%)" r="0.7" /><circle cx="324.563971089" cy="288.630829204" fill="rgb(0%,0%,100%)" r="0.7" /><circle cx="327.24209352" cy="289.971474088" fill="rgb(0%,0%,100%)" r="0.7" /><circle cx="329.411028136" cy="292.023427117" fill="rgb(0%,0%,100%)" r="0.7" /><circle cx="330.284682487" cy="294.830957132" fill="rgb(0%,0%,100%)" r="0.7" /><circle cx="329.23236663" cy="297.601428842" fill="rgb(0%,0%,100%)" r="0.7" /><circle cx="327.22182452" cy="299.818016707" fill="rgb(0%,0%,100%)" r="0.7" /><circle cx="324.842929043" cy="301.642245031" fill="rgb(0%,0%,100%)" r="0.7" /><circle cx="322.280129464" cy="303.199814858" fill="rgb(0%,0%,100%)" r="0.7" /><circle cx="319.579987405" cy="304.499882007" fill="rgb(0%,0%,100%)" r="0.7" /><circle cx="316.941831829" cy="305.921273868" fill="rgb(0%,0%,100%)" r="0.7" /><circle cx="314.457638666" cy="307.60229584" fill="rgb(0%,0%,100%)" r="0.7" /><circle cx="312.059503107" cy="309.404442025" fill="rgb(0%,0%,100%)" r="0.7" /><circle cx="309.917696072" cy="311.489622413" fill="rgb(0%,0%,100%)" r="0.7" /><circle cx="307.949975278" cy="313.754108696" fill="rgb(0%,0%,100%)" r="0.7" /><circle cx="306.013887013" cy="316.045713706" fill="rgb(0%,0%,100%)" r="0.7" /><circle cx="304.112775128" cy="318.36637831" fill="rgb(0%,0%,100%)" r="0.7" /><circle cx="302.250549796" cy="320.718395158" fill="rgb(0%,0%,100%)" r="0.7" /><circle cx="300.432001462" cy="323.10430894" fill="rgb(0%,0%,100%)" r="0.7" /><circle cx="298.6629542" cy="325.527127102" fill="rgb(0%,0%,100%)" r="0.7" /><circle cx="296.950677766" cy="327.990391309" fill="rgb(0%,0%,100%)" r="0.7" /><circle cx="295.304502087" cy="330.498275198" fill="rgb(0%,0%,100%)" r="0.7" /><circle cx="293.736707186" cy="333.055850813" fill="rgb(0%,0%,100%)" r="0.7" /><circle cx="292.264150778" cy="335.66935041" fill="rgb(0%,0%,100%)" r="0.7" /><circle cx="290.911277926" cy="338.34662728" fill="rgb(0%,0%,100%)" r="0.7" /><circle cx="289.716643479" cy="341.097886436" fill="rgb(0%,0%,100%)" r="0.7" /><circle cx="288.75094634" cy="343.936881772" fill="rgb(0%,0%,100%)" r="0.7" /><circle cx="288.22" cy="346.882" fill="rgb(0%,0%,100%)" r="0.7" /><circle cx="287.167555728" cy="345.303659425" fill="rgb(0%,0%,100%)" r="0.7" /><circle cx="285.503217327" cy="342.8076671" fill="rgb(0%,0%,100%)" r="0.7" /><circle cx="283.838878927" cy="340.311674774" fill="rgb(0%,0%,100%)" r="0.7" /><circle cx="281.844927088" cy="341.146072912" fill="rgb(0%,0%,100%)" r="0.7" /><circle cx="279.723606744" cy="343.267393256" fill="rgb(0%,0%,100%)" r="0.7" /><circle cx="277.602286401" cy="345.388713599" fill="rgb(0%,0%,100%)" r="0.7" /><circle cx="275.480966057" cy="347.510033943" fill="rgb(0%,0%,100%)" r="0.7" /><circle cx="273.359645714" cy="349.631354286" fill="rgb(0%,0%,100%)" r="0.7" /><circle cx="271.23832537" cy="351.75267463" fill="rgb(0%,0%,100%)" r="0.7" /><circle cx="269.117005027" cy="353.873994973" fill="rgb(0%,0%,100%)" r="0.7" /><circle cx="266.995684683" cy="355.995315317" fill="rgb(0%,0%,100%)" r="0.7" /></svg>