<?xml version="1.0" encoding="utf-8" ?>
<svg baseProfile="full" height="100%" version="1.1" width="100%" xmlns="http://www.w3.org/2000/svg" xmlns:ev="http://www.w3.org/2001/xml-events" xmlns:xlink="http://www.w3.org/1999/xlink"><defs /><circle cx="318.859831908" cy="327.145273289" fill="rgb(100%,0%,0%)" r="0.7" /><circle cx="316.254813064" cy="328.193692268" fill="rgb(100%,0%,0%)" r="0.7" /><circle cx="314.331160143" cy="330.491448034" fill="rgb(100%,0%,0%)" r="0.7" /><circle cx="312.860576834" cy="333.100222584" fill="rgb(100%,0%,0%)" r="0.7" /><circle cx="311.795334045" cy="335.902637288" fill="rgb(100%,0%,0%)" r="0.7" /><circle cx="311.070534998" cy="338.812075685" fill="rgb(100%,0%,0%)" r="0.7" /><circle cx="310.675334163" cy="341.784415391" fill="rgb(100%,0%,0%)" r="0.7" /><circle cx="310.601078013" cy="344.78211334" fill="rgb(100%,0%,0%)" r="0.7" /><circle cx="310.749795321" cy="347.778311004" fill="rgb(100%,0%,0%)" r="0.7" /><circle cx="310.860994209" cy="350.776236637" fill="rgb(100%,0%,0%)" r="0.7" /><circle cx="310.933482767" cy="353.775334297" fill="rgb(100%,0%,0%)" r="0.7" /><circle cx="310.970678893" cy="356.775091586" fill="rgb(100%,0%,0%)" r="0.7" /><circle cx="310.973260836" cy="359.775071687" fill="rgb(100%,0%,0%)" r="0.7" /><circle cx="310.940709741" cy="362.774881004" fill="rgb(100%,0%,0%)" r="0.7" /><circle cx="310.871731845" cy="365.774069351" fill="rgb(100%,0%,0%)" r="0.7" /><circle cx="310.764396452" cy="368.772126269" fill="rgb(100%,0%,0%)" r="0.7" /><circle cx="310.616158768" cy="371.768437818" fill="rgb(100%,0%,0%)" r="0.7" /><circle cx="310.423817236" cy="374.762237663" fill="rgb(100%,0%,0%)" r="0.7" /><circle cx="310.183417777" cy="377.752555294" fill="rgb(100%,0%,0%)" r="0.7" /><circle cx="309.890102985" cy="380.738139351" fill="rgb(100%,0%,0%)" r="0.7" /><circle cx="309.537894312" cy="383.717338209" fill="rgb(100%,0%,0%)" r="0.7" /><circle cx="309.119381953" cy="386.687932713" fill="rgb(100%,0%,0%)" r="0.7" /><circle cx="308.625284767" cy="389.646868961" fill="rgb(100%,0%,0%)" r="0.7" /><circle cx="308.053568541" cy="392.591697644" fill="rgb(100%,0%,0%)" r="0.7" /><circle cx="307.453851522" cy="395.530849351" fill="rgb(100%,0%,0%)" r="0.7" /><circle cx="306.746637068" cy="398.446180807" fill="rgb(100%,0%,0%)" r="0.7" /><circle cx="305.957417972" cy="401.34043526" fill="rgb(100%,0%,0%)" r="0.7" /><circle cx="305.095373307" cy="404.213823243" fill="rgb(100%,0%,0%)" r="0.7" /><circle cx="304.165401885" cy="407.065982949" fill="rgb(100%,0%,0%)" r="0.7" /><circle cx="303.170519651" cy="409.896146135" fill="rgb(100%,0%,0%)" r="0.7" /><circle cx="302.112681924" cy="412.703393277" fill="rgb(100%,0%,0%)" r="0.7" /><circle cx="300.993216033" cy="415.486631557" fill="rgb(100%,0%,0%)" r="0.7" /><circle cx="299.8130253" cy="418.244673058" fill="rgb(100%,0%,0%)" r="0.7" /><circle cx="298.572738634" cy="420.976213201" fill="rgb(100%,0%,0%)" r="0.7" /><circle cx="297.272787777" cy="423.679867894" fill="rgb(100%,0%,0%)" r="0.7" /><circle cx="295.913472162" cy="426.354172472" fill="rgb(100%,0%,0%)" r="0.7" /><circle cx="294.495010185" cy="428.99757717" fill="rgb(100%,0%,0%)" r="0.7" /><circle cx="293.017560673" cy="431.608479039" fill="rgb(100%,0%,0%)" r="0.7" /><circle cx="291.481273327" cy="434.18518775" fill="rgb(100%,0%,0%)" r="0.7" /><circle cx="289.886289771" cy="436.725972768" fill="rgb(100%,0%,0%)" r="0.7" /><circle cx="288.232763485" cy="439.229066839" fill="rgb(100%,0%,0%)" r="0.7" /><circle cx="286.520910688" cy="441.692623788" fill="rgb(100%,0%,0%)" r="0.7" /><circle cx="284.750978137" cy="444.114799605" fill="rgb(100%,0%,0%)" r="0.7" /><circle cx="282.923302516" cy="446.493695953" fill="rgb(100%,0%,0%)" r="0.7" /><circle cx="281.038285201" cy="448.827423076" fill="rgb(100%,0%,0%)" r="0.7" /><circle cx="279.096438285" cy="451.114065754" fill="rgb(100%,0%,0%)" r="0.7" /><circle cx="277.098355685" cy="453.351742872" fill="rgb(100%,0%,0%)" r="0.7" /><circle cx="277.450418439" cy="453.736861286" fill="rgb(100%,0%,0%)" r="0.7" /><circle cx="280.11822871" cy="452.364713934" fill="rgb(100%,0%,0%)" r="0.7" /><circle cx="282.475623072" cy="451.437753664" fill="rgb(100%,0%,0%)" r="0.7" /><circle cx="282.110420444" cy="454.415441868" fill="rgb(100%,0%,0%)" r="0.7" /><circle cx="281.745217816" cy="457.393130072" fill="rgb(100%,0%,0%)" r="0.7" /><circle cx="281.380015188" cy="460.370818276" fill="rgb(100%,0%,0%)" r="0.7" /><circle cx="281.115" cy="460.664" fill="rgb(100%,0%,0%)" r="0.7" /><circle cx="318.859831908" cy="327.145273289" fill="rgb(0%,0%,100%)" r="0.7" /><circle cx="320.105548723" cy="329.783806428" fill="rgb(0%,0%,100%)" r="0.7" /><circle cx="320.401004079" cy="332.767070561" fill="rgb(0%,0%,100%)" r="0.7" /><circle cx="320.44163162" cy="335.76642945" fill="rgb(0%,0%,100%)" r="0.7" /><circle cx="320.362043667" cy="338.765266723" fill="rgb(0%,0%,100%)" r="0.7" /><circle cx="320.219204659" cy="341.761845119" fill="rgb(0%,0%,100%)" r="0.7" /><circle cx="320.061968562" cy="344.7577216" fill="rgb(0%,0%,100%)" r="0.7" /><circle cx="319.899954196" cy="347.753345598" fill="rgb(0%,0%,100%)" r="0.7" /><circle cx="319.734679783" cy="350.748790553" fill="rgb(0%,0%,100%)" r="0.7" /><circle cx="319.566978125" cy="353.744099431" fill="rgb(0%,0%,100%)" r="0.7" /><circle cx="319.397360865" cy="356.739301294" fill="rgb(0%,0%,100%)" r="0.7" /><circle cx="319.226164861" cy="359.734414989" fill="rgb(0%,0%,100%)" r="0.7" /><circle cx="319.053620646" cy="362.729448902" fill="rgb(0%,0%,100%)" r="0.7" /><circle cx="318.879885819" cy="365.724414829" fill="rgb(0%,0%,100%)" r="0.7" /><circle cx="318.705060627" cy="368.719318844" fill="rgb(0%,0%,100%)" r="0.7" /><circle cx="318.529184458" cy="371.714156667" fill="rgb(0%,0%,100%)" r="0.7" /><circle cx="318.352165141" cy="374.708939339" fill="rgb(0%,0%,100%)" r="0.7" /><circle cx="318.243323749" cy="377.706738799" fill="rgb(0%,0%,100%)" r="0.7" /><circle cx="318.087841052" cy="380.702629122" fill="rgb(0%,0%,100%)" r="0.7" /><circle cx="317.852356617" cy="383.69327144" fill="rgb(0%,0%,100%)" r="0.7" /><circle cx="317.529190156" cy="386.675699314" fill="rgb(0%,0%,100%)" r="0.7" /><circle cx="317.115761933" cy="389.646960763" fill="rgb(0%,0%,100%)" r="0.7" /><circle cx="316.614237199" cy="392.604633649" fill="rgb(0%,0%,100%)" r="0.7" /><circle cx="316.030324817" cy="395.547170104" fill="rgb(0%,0%,100%)" r="0.7" /><circle cx="315.371806941" cy="398.473927316" fill="rgb(0%,0%,100%)" r="0.7" /><circle cx="314.647242063" cy="401.385058005" fill="rgb(0%,0%,100%)" r="0.7" /><circle cx="313.865069582" cy="404.281252613" fill="rgb(0%,0%,100%)" r="0.7" /><circle cx="313.033086384" cy="407.163541077" fill="rgb(0%,0%,100%)" r="0.7" /><circle cx="312.158214891" cy="410.033121594" fill="rgb(0%,0%,100%)" r="0.7" /><circle cx="311.246468442" cy="412.891193496" fill="rgb(0%,0%,100%)" r="0.7" /><circle cx="310.302977785" cy="415.738955881" fill="rgb(0%,0%,100%)" r="0.7" /><circle cx="309.332104967" cy="418.57749936" fill="rgb(0%,0%,100%)" r="0.7" /><circle cx="308.278496045" cy="421.386049241" fill="rgb(0%,0%,100%)" r="0.7" /><circle cx="307.092291167" cy="424.141311441" fill="rgb(0%,0%,100%)" r="0.7" /><circle cx="305.794260049" cy="426.845759597" fill="rgb(0%,0%,100%)" r="0.7" /><circle cx="304.400742962" cy="429.5023138" fill="rgb(0%,0%,100%)" r="0.7" /><circle cx="302.924675784" cy="432.113937832" fill="rgb(0%,0%,100%)" r="0.7" /><circle cx="301.376405302" cy="434.683439447" fill="rgb(0%,0%,100%)" r="0.7" /><circle cx="299.764279391" cy="437.213386274" fill="rgb(0%,0%,100%)" r="0.7" /><circle cx="298.095082893" cy="439.70606383" fill="rgb(0%,0%,100%)" r="0.7" /><circle cx="296.374354182" cy="442.163461615" fill="rgb(0%,0%,100%)" r="0.7" /><circle cx="294.606615403" cy="444.587264781" fill="rgb(0%,0%,100%)" r="0.7" /><circle cx="292.795519477" cy="446.978860684" fill="rgb(0%,0%,100%)" r="0.7" /><circle cx="290.943977279" cy="449.339276136" fill="rgb(0%,0%,100%)" r="0.7" /><circle cx="289.054158956" cy="451.669164681" fill="rgb(0%,0%,100%)" r="0.7" /><circle cx="287.127453639" cy="453.968656997" fill="rgb(0%,0%,100%)" r="0.7" /><circle cx="285.16423676" cy="456.237046433" fill="rgb(0%,0%,100%)" r="0.7" /><circle cx="283.162999907" cy="458.471954699" fill="rgb(0%,0%,100%)" r="0.7" /><circle cx="281.115" cy="460.664" fill="rgb(0%,0%,100%)" r="0.7" /></svg>