<?xml version="1.0" encoding="utf-8" ?>
<svg baseProfile="full" height="100%" version="1.1" width="100%" xmlns="http://www.w3.org/2000/svg" xmlns:ev="http://www.w3.org/2001/xml-events" xmlns:xlink="http://www.w3.org/1999/xlink"><defs /><circle cx="353.389339403" cy="302.350786693" fill="rgb(100%,0%,0%)" r="0.7" /><circle cx="350.417070389" cy="302.643728565" fill="rgb(100%,0%,0%)" r="0.7" /><circle cx="347.576927751" cy="303.600781317" fill="rgb(100%,0%,0%)" r="0.7" /><circle cx="344.916483142" cy="304.975801687" fill="rgb(100%,0%,0%)" r="0.7" /><circle cx="342.418299859" cy="306.636186694" fill="rgb(100%,0%,0%)" r="0.7" /><circle cx="339.99687967" cy="308.406962014" fill="rgb(100%,0%,0%)" r="0.7" /><circle cx="337.639405165" cy="310.262081244" fill="rgb(100%,0%,0%)" r="0.7" /><circle cx="335.339502661" cy="312.188177519" fill="rgb(100%,0%,0%)" r="0.7" /><circle cx="333.093157529" cy="314.176513932" fill="rgb(100%,0%,0%)" r="0.7" /><circle cx="330.897517042" cy="316.220704429" fill="rgb(100%,0%,0%)" r="0.7" /><circle cx="328.750372021" cy="318.315783865" fill="rgb(100%,0%,0%)" r="0.7" /><circle cx="326.649937336" cy="320.457703415" fill="rgb(100%,0%,0%)" r="0.7" /><circle cx="324.594721369" cy="322.643048014" fill="rgb(100%,0%,0%)" r="0.7" /><circle cx="322.583419125" cy="324.868891504" fill="rgb(100%,0%,0%)" r="0.7" /><circle cx="320.614878957" cy="327.132664833" fill="rgb(100%,0%,0%)" r="0.7" /><circle cx="318.688089667" cy="329.432050279" fill="rgb(100%,0%,0%)" r="0.7" /><circle cx="316.802079574" cy="331.765016073" fill="rgb(100%,0%,0%)" r="0.7" /><circle cx="314.95597297" cy="334.129689494" fill="rgb(100%,0%,0%)" r="0.7" /><circle cx="313.148943924" cy="336.524364969" fill="rgb(100%,0%,0%)" r="0.7" /><circle cx="311.380211006" cy="338.94747545" fill="rgb(100%,0%,0%)" r="0.7" /><circle cx="309.649051135" cy="341.39754347" fill="rgb(100%,0%,0%)" r="0.7" /><circle cx="307.954734623" cy="343.8732495" fill="rgb(100%,0%,0%)" r="0.7" /><circle cx="306.296585083" cy="346.37333025" fill="rgb(100%,0%,0%)" r="0.7" /><circle cx="304.673950017" cy="348.896603641" fill="rgb(100%,0%,0%)" r="0.7" /><circle cx="303.086192991" cy="351.441968688" fill="rgb(100%,0%,0%)" r="0.7" /><circle cx="301.532693775" cy="354.008395755" fill="rgb(100%,0%,0%)" r="0.7" /><circle cx="300.012861091" cy="356.594896151" fill="rgb(100%,0%,0%)" r="0.7" /><circle cx="298.526112841" cy="359.200546567" fill="rgb(100%,0%,0%)" r="0.7" /><circle cx="297.074743703" cy="361.826068832" fill="rgb(100%,0%,0%)" r="0.7" /><circle cx="295.675495505" cy="364.479729833" fill="rgb(100%,0%,0%)" r="0.7" /><circle cx="294.311006468" cy="367.151449208" fill="rgb(100%,0%,0%)" r="0.7" /><circle cx="292.975919999" cy="369.837980634" fill="rgb(100%,0%,0%)" r="0.7" /><circle cx="291.668530048" cy="372.538102684" fill="rgb(100%,0%,0%)" r="0.7" /><circle cx="290.388348184" cy="375.251229411" fill="rgb(100%,0%,0%)" r="0.7" /><circle cx="289.135520739" cy="377.977099369" fill="rgb(100%,0%,0%)" r="0.7" /><circle cx="287.910625569" cy="380.715629322" fill="rgb(100%,0%,0%)" r="0.7" /><circle cx="286.714570393" cy="383.466877174" fill="rgb(100%,0%,0%)" r="0.7" /><circle cx="285.548562351" cy="386.230994091" fill="rgb(100%,0%,0%)" r="0.7" /><circle cx="284.414099269" cy="389.008204816" fill="rgb(100%,0%,0%)" r="0.7" /><circle cx="283.321722567" cy="391.802070742" fill="rgb(100%,0%,0%)" r="0.7" /><circle cx="282.308314745" cy="394.625720681" fill="rgb(100%,0%,0%)" r="0.7" /><circle cx="281.305640823" cy="397.453201374" fill="rgb(100%,0%,0%)" r="0.7" /><circle cx="280.311477877" cy="400.283691574" fill="rgb(100%,0%,0%)" r="0.7" /><circle cx="279.325054253" cy="403.11688291" fill="rgb(100%,0%,0%)" r="0.7" /><circle cx="278.346007879" cy="405.95262631" fill="rgb(100%,0%,0%)" r="0.7" /><circle cx="277.374171183" cy="408.79085054" fill="rgb(100%,0%,0%)" r="0.7" /><circle cx="276.409495973" cy="411.631519185" fill="rgb(100%,0%,0%)" r="0.7" /><circle cx="275.452014543" cy="414.474623078" fill="rgb(100%,0%,0%)" r="0.7" /><circle cx="274.50182182" cy="417.320169762" fill="rgb(100%,0%,0%)" r="0.7" /><circle cx="273.559062847" cy="420.168186179" fill="rgb(100%,0%,0%)" r="0.7" /><circle cx="272.623927209" cy="423.018716948" fill="rgb(100%,0%,0%)" r="0.7" /><circle cx="271.696650613" cy="425.871810884" fill="rgb(100%,0%,0%)" r="0.7" /><circle cx="270.777509265" cy="428.727536413" fill="rgb(100%,0%,0%)" r="0.7" /><circle cx="269.813529505" cy="431.568240775" fill="rgb(100%,0%,0%)" r="0.7" /><circle cx="268.819965132" cy="434.398935466" fill="rgb(100%,0%,0%)" r="0.7" /><circle cx="267.816212205" cy="437.226037953" fill="rgb(100%,0%,0%)" r="0.7" /><circle cx="266.80221708" cy="440.049476851" fill="rgb(100%,0%,0%)" r="0.7" /><circle cx="265.777171957" cy="442.868925859" fill="rgb(100%,0%,0%)" r="0.7" /><circle cx="264.73969212" cy="445.683818096" fill="rgb(100%,0%,0%)" r="0.7" /><circle cx="263.687699091" cy="448.493319816" fill="rgb(100%,0%,0%)" r="0.7" /><circle cx="262.618124126" cy="451.296173378" fill="rgb(100%,0%,0%)" r="0.7" /><circle cx="261.52627707" cy="454.090421588" fill="rgb(100%,0%,0%)" r="0.7" /><circle cx="260.404489184" cy="456.872770265" fill="rgb(100%,0%,0%)" r="0.7" /><circle cx="259.238696456" cy="459.636937133" fill="rgb(100%,0%,0%)" r="0.7" /><circle cx="257.997194328" cy="462.36779713" fill="rgb(100%,0%,0%)" r="0.7" /><circle cx="256.884424763" cy="464.598910768" fill="rgb(100%,0%,0%)" r="0.7" /><circle cx="258.990225473" cy="462.462183512" fill="rgb(100%,0%,0%)" r="0.7" /><circle cx="261.096026184" cy="460.325456256" fill="rgb(100%,0%,0%)" r="0.7" /><circle cx="263.201826895" cy="458.188729" fill="rgb(100%,0%,0%)" r="0.7" /><circle cx="265.307627605" cy="456.052001744" fill="rgb(100%,0%,0%)" r="0.7" /><circle cx="267.413428316" cy="453.915274488" fill="rgb(100%,0%,0%)" r="0.7" /><circle cx="268.887652563" cy="453.634636988" fill="rgb(100%,0%,0%)" r="0.7" /><circle cx="269.253171081" cy="456.612286432" fill="rgb(100%,0%,0%)" r="0.7" /><circle cx="269.618689599" cy="459.589935876" fill="rgb(100%,0%,0%)" r="0.7" /><circle cx="269.984208117" cy="462.56758532" fill="rgb(100%,0%,0%)" r="0.7" /><circle cx="270.349726635" cy="465.545234765" fill="rgb(100%,0%,0%)" r="0.7" /><circle cx="270.715245154" cy="468.522884209" fill="rgb(100%,0%,0%)" r="0.7" /><circle cx="271.080763672" cy="471.500533653" fill="rgb(100%,0%,0%)" r="0.7" /><circle cx="271.328" cy="473.173" fill="rgb(100%,0%,0%)" r="0.7" /><circle cx="353.389339403" cy="302.350786693" fill="rgb(0%,0%,100%)" r="0.7" /><circle cx="356.076784917" cy="303.532630427" fill="rgb(0%,0%,100%)" r="0.7" /><circle cx="357.358731254" cy="306.198069493" fill="rgb(0%,0%,100%)" r="0.7" /><circle cx="357.498703006" cy="309.186115322" fill="rgb(0%,0%,100%)" r="0.7" /><circle cx="357.072924637" cy="312.153088549" fill="rgb(0%,0%,100%)" r="0.7" /><circle cx="356.567003278" cy="315.10941203" fill="rgb(0%,0%,100%)" r="0.7" /><circle cx="355.87906109" cy="318.029134875" fill="rgb(0%,0%,100%)" r="0.7" /><circle cx="355.063110661" cy="320.915855424" fill="rgb(0%,0%,100%)" r="0.7" /><circle cx="354.150876918" cy="323.773683704" fill="rgb(0%,0%,100%)" r="0.7" /><circle cx="353.162563031" cy="326.606138817" fill="rgb(0%,0%,100%)" r="0.7" /><circle cx="352.111762026" cy="329.416034576" fill="rgb(0%,0%,100%)" r="0.7" /><circle cx="351.007935453" cy="332.205541215" fill="rgb(0%,0%,100%)" r="0.7" /><circle cx="349.857732161" cy="334.976251855" fill="rgb(0%,0%,100%)" r="0.7" /><circle cx="348.665645707" cy="337.729207722" fill="rgb(0%,0%,100%)" r="0.7" /><circle cx="347.43413813" cy="340.464760591" fill="rgb(0%,0%,100%)" r="0.7" /><circle cx="346.162624878" cy="343.181950066" fill="rgb(0%,0%,100%)" r="0.7" /><circle cx="344.801535197" cy="345.85446424" fill="rgb(0%,0%,100%)" r="0.7" /><circle cx="343.352920701" cy="348.481500542" fill="rgb(0%,0%,100%)" r="0.7" /><circle cx="341.892508638" cy="351.102082175" fill="rgb(0%,0%,100%)" r="0.7" /><circle cx="340.424346543" cy="353.718294304" fill="rgb(0%,0%,100%)" r="0.7" /><circle cx="338.95058208" cy="356.331301604" fill="rgb(0%,0%,100%)" r="0.7" /><circle cx="337.472471137" cy="358.941913061" fill="rgb(0%,0%,100%)" r="0.7" /><circle cx="335.990910002" cy="361.550554427" fill="rgb(0%,0%,100%)" r="0.7" /><circle cx="334.506507026" cy="364.157565494" fill="rgb(0%,0%,100%)" r="0.7" /><circle cx="333.019695772" cy="366.763220391" fill="rgb(0%,0%,100%)" r="0.7" /><circle cx="331.53083479" cy="369.367677396" fill="rgb(0%,0%,100%)" r="0.7" /><circle cx="330.04016351" cy="371.971131712" fill="rgb(0%,0%,100%)" r="0.7" /><circle cx="328.54792126" cy="374.573655473" fill="rgb(0%,0%,100%)" r="0.7" /><circle cx="327.054250179" cy="377.175399308" fill="rgb(0%,0%,100%)" r="0.7" /><circle cx="325.559318636" cy="379.776399086" fill="rgb(0%,0%,100%)" r="0.7" /><circle cx="324.06324568" cy="382.376723245" fill="rgb(0%,0%,100%)" r="0.7" /><circle cx="322.566115123" cy="384.976459408" fill="rgb(0%,0%,100%)" r="0.7" /><circle cx="321.068026333" cy="387.575634551" fill="rgb(0%,0%,100%)" r="0.7" /><circle cx="319.56904589" cy="390.17430532" fill="rgb(0%,0%,100%)" r="0.7" /><circle cx="318.069244364" cy="392.772499075" fill="rgb(0%,0%,100%)" r="0.7" /><circle cx="316.568678436" cy="395.370248703" fill="rgb(0%,0%,100%)" r="0.7" /><circle cx="315.067396565" cy="397.967585768" fill="rgb(0%,0%,100%)" r="0.7" /><circle cx="313.565442323" cy="400.564537134" fill="rgb(0%,0%,100%)" r="0.7" /><circle cx="312.062856704" cy="403.161122906" fill="rgb(0%,0%,100%)" r="0.7" /><circle cx="310.559676785" cy="405.757360317" fill="rgb(0%,0%,100%)" r="0.7" /><circle cx="309.055931205" cy="408.353272829" fill="rgb(0%,0%,100%)" r="0.7" /><circle cx="307.551651217" cy="410.948872102" fill="rgb(0%,0%,100%)" r="0.7" /><circle cx="306.046858005" cy="413.544180774" fill="rgb(0%,0%,100%)" r="0.7" /><circle cx="304.541578651" cy="416.139205652" fill="rgb(0%,0%,100%)" r="0.7" /><circle cx="303.035834677" cy="418.733958098" fill="rgb(0%,0%,100%)" r="0.7" /><circle cx="301.529644073" cy="421.328451052" fill="rgb(0%,0%,100%)" r="0.7" /><circle cx="300.023022644" cy="423.922697128" fill="rgb(0%,0%,100%)" r="0.7" /><circle cx="298.515986932" cy="426.516703962" fill="rgb(0%,0%,100%)" r="0.7" /><circle cx="297.008559408" cy="429.110465578" fill="rgb(0%,0%,100%)" r="0.7" /><circle cx="295.500732271" cy="431.704024913" fill="rgb(0%,0%,100%)" r="0.7" /><circle cx="293.992538548" cy="434.297351693" fill="rgb(0%,0%,100%)" r="0.7" /><circle cx="292.483976681" cy="436.890472294" fill="rgb(0%,0%,100%)" r="0.7" /><circle cx="290.975067449" cy="439.483371946" fill="rgb(0%,0%,100%)" r="0.7" /><circle cx="289.465798186" cy="442.076090642" fill="rgb(0%,0%,100%)" r="0.7" /><circle cx="287.956204085" cy="444.668583411" fill="rgb(0%,0%,100%)" r="0.7" /><circle cx="286.446254914" cy="447.2609148" fill="rgb(0%,0%,100%)" r="0.7" /><circle cx="284.935996747" cy="449.853015275" fill="rgb(0%,0%,100%)" r="0.7" /><circle cx="283.425389105" cy="452.444960454" fill="rgb(0%,0%,100%)" r="0.7" /><circle cx="281.914459844" cy="455.036704666" fill="rgb(0%,0%,100%)" r="0.7" /><circle cx="280.403199057" cy="457.628262119" fill="rgb(0%,0%,100%)" r="0.7" /><circle cx="278.891626911" cy="460.219588993" fill="rgb(0%,0%,100%)" r="0.7" /><circle cx="277.379686882" cy="462.810763814" fill="rgb(0%,0%,100%)" r="0.7" /><circle cx="275.867414132" cy="465.401693788" fill="rgb(0%,0%,100%)" r="0.7" /><circle cx="274.354760815" cy="467.992403208" fill="rgb(0%,0%,100%)" r="0.7" /><circle cx="272.841637699" cy="470.582931105" fill="rgb(0%,0%,100%)" r="0.7" /><circle cx="271.328" cy="473.173" fill="rgb(0%,0%,100%)" r="0.7" /></svg>