<?xml version="1.0" encoding="utf-8" ?>
<svg baseProfile="full" height="100%" version="1.1" width="100%" xmlns="http://www.w3.org/2000/svg" xmlns:ev="http://www.w3.org/2001/xml-events" xmlns:xlink="http://www.w3.org/1999/xlink"><defs /><circle cx="247.446357307" cy="308.374052514" fill="rgb(100%,0%,0%)" r="0.7" /><circle cx="244.530609807" cy="309.04833194" fill="rgb(100%,0%,0%)" r="0.7" /><circle cx="241.841193836" cy="310.365028816" fill="rgb(100%,0%,0%)" r="0.7" /><circle cx="239.445505766" cy="312.164964775" fill="rgb(100%,0%,0%)" r="0.7" /><circle cx="237.337853256" cy="314.296997351" fill="rgb(100%,0%,0%)" r="0.7" /><circle cx="235.481695441" cy="316.65229056" fill="rgb(100%,0%,0%)" r="0.7" /><circle cx="233.933400617" cy="319.220269451" fill="rgb(100%,0%,0%)" r="0.7" /><circle cx="232.532255072" cy="321.872777023" fill="rgb(100%,0%,0%)" r="0.7" /><circle cx="231.211666217" cy="324.56639705" fill="rgb(100%,0%,0%)" r="0.7" /><circle cx="229.951585011" cy="327.288877973" fill="rgb(100%,0%,0%)" r="0.7" /><circle cx="228.740807695" cy="330.033659054" fill="rgb(100%,0%,0%)" r="0.7" /><circle cx="227.571964988" cy="332.79655835" fill="rgb(100%,0%,0%)" r="0.7" /><circle cx="226.439749047" cy="335.574688313" fill="rgb(100%,0%,0%)" r="0.7" /><circle cx="225.340140559" cy="338.365879213" fill="rgb(100%,0%,0%)" r="0.7" /><circle cx="224.269952455" cy="341.168486034" fill="rgb(100%,0%,0%)" r="0.7" /><circle cx="223.226592916" cy="343.981202788" fill="rgb(100%,0%,0%)" r="0.7" /><circle cx="222.207916479" cy="346.802940556" fill="rgb(100%,0%,0%)" r="0.7" /><circle cx="221.212089612" cy="349.63284479" fill="rgb(100%,0%,0%)" r="0.7" /><circle cx="220.237561191" cy="352.470130337" fill="rgb(100%,0%,0%)" r="0.7" /><circle cx="219.28295676" cy="355.314202548" fill="rgb(100%,0%,0%)" r="0.7" /><circle cx="218.35527278" cy="358.167046264" fill="rgb(100%,0%,0%)" r="0.7" /><circle cx="217.466870126" cy="361.032484469" fill="rgb(100%,0%,0%)" r="0.7" /><circle cx="216.5655581" cy="363.893879737" fill="rgb(100%,0%,0%)" r="0.7" /><circle cx="215.653715013" cy="366.751959384" fill="rgb(100%,0%,0%)" r="0.7" /><circle cx="214.732114581" cy="369.606883939" fill="rgb(100%,0%,0%)" r="0.7" /><circle cx="213.801019724" cy="372.458748801" fill="rgb(100%,0%,0%)" r="0.7" /><circle cx="212.860478041" cy="375.307489344" fill="rgb(100%,0%,0%)" r="0.7" /><circle cx="211.910354235" cy="378.1530745" fill="rgb(100%,0%,0%)" r="0.7" /><circle cx="210.950424559" cy="380.995345558" fill="rgb(100%,0%,0%)" r="0.7" /><circle cx="209.980344107" cy="383.834168378" fill="rgb(100%,0%,0%)" r="0.7" /><circle cx="208.999678618" cy="386.669354513" fill="rgb(100%,0%,0%)" r="0.7" /><circle cx="208.007897559" cy="389.500675332" fill="rgb(100%,0%,0%)" r="0.7" /><circle cx="207.004369606" cy="392.327851021" fill="rgb(100%,0%,0%)" r="0.7" /><circle cx="205.988344908" cy="395.150560765" fill="rgb(100%,0%,0%)" r="0.7" /><circle cx="204.958942679" cy="397.968420042" fill="rgb(100%,0%,0%)" r="0.7" /><circle cx="203.915127365" cy="400.780969552" fill="rgb(100%,0%,0%)" r="0.7" /><circle cx="202.855674417" cy="403.587666" fill="rgb(100%,0%,0%)" r="0.7" /><circle cx="201.779132456" cy="406.387847817" fill="rgb(100%,0%,0%)" r="0.7" /><circle cx="200.683760259" cy="409.180719857" fill="rgb(100%,0%,0%)" r="0.7" /><circle cx="199.567457006" cy="411.96528808" fill="rgb(100%,0%,0%)" r="0.7" /><circle cx="198.42764403" cy="414.740319904" fill="rgb(100%,0%,0%)" r="0.7" /><circle cx="197.261122998" cy="417.504216031" fill="rgb(100%,0%,0%)" r="0.7" /><circle cx="196.063823516" cy="420.254921188" fill="rgb(100%,0%,0%)" r="0.7" /><circle cx="194.830472707" cy="422.989645071" fill="rgb(100%,0%,0%)" r="0.7" /><circle cx="193.554028765" cy="425.704494073" fill="rgb(100%,0%,0%)" r="0.7" /><circle cx="192.224707348" cy="428.393845711" fill="rgb(100%,0%,0%)" r="0.7" /><circle cx="190.828319535" cy="431.04893237" fill="rgb(100%,0%,0%)" r="0.7" /><circle cx="189.342846748" cy="433.655109483" fill="rgb(100%,0%,0%)" r="0.7" /><circle cx="188.481764909" cy="435.620261537" fill="rgb(100%,0%,0%)" r="0.7" /><circle cx="191.336478249" cy="434.697975386" fill="rgb(100%,0%,0%)" r="0.7" /><circle cx="194.191191589" cy="433.775689235" fill="rgb(100%,0%,0%)" r="0.7" /><circle cx="197.04590493" cy="432.853403084" fill="rgb(100%,0%,0%)" r="0.7" /><circle cx="199.90061827" cy="431.931116932" fill="rgb(100%,0%,0%)" r="0.7" /><circle cx="202.75533161" cy="431.008830781" fill="rgb(100%,0%,0%)" r="0.7" /><circle cx="204.571619297" cy="433.158708196" fill="rgb(100%,0%,0%)" r="0.7" /><circle cx="206.281351525" cy="435.623828012" fill="rgb(100%,0%,0%)" r="0.7" /><circle cx="207.991083754" cy="438.088947828" fill="rgb(100%,0%,0%)" r="0.7" /><circle cx="209.700815982" cy="440.554067644" fill="rgb(100%,0%,0%)" r="0.7" /><circle cx="211.41054821" cy="443.01918746" fill="rgb(100%,0%,0%)" r="0.7" /><circle cx="213.120280439" cy="445.484307276" fill="rgb(100%,0%,0%)" r="0.7" /><circle cx="214.830012667" cy="447.949427092" fill="rgb(100%,0%,0%)" r="0.7" /><circle cx="215.662" cy="449.149" fill="rgb(100%,0%,0%)" r="0.7" /><circle cx="247.446357307" cy="308.374052514" fill="rgb(0%,0%,100%)" r="0.7" /><circle cx="250.438836447" cy="308.421185011" fill="rgb(0%,0%,100%)" r="0.7" /><circle cx="253.347661607" cy="309.133020603" fill="rgb(0%,0%,100%)" r="0.7" /><circle cx="256.075404054" cy="310.373366147" fill="rgb(0%,0%,100%)" r="0.7" /><circle cx="258.586594278" cy="312.010433387" fill="rgb(0%,0%,100%)" r="0.7" /><circle cx="260.867708034" cy="313.955937183" fill="rgb(0%,0%,100%)" r="0.7" /><circle cx="262.757642158" cy="316.270211829" fill="rgb(0%,0%,100%)" r="0.7" /><circle cx="263.939203128" cy="319.022732026" fill="rgb(0%,0%,100%)" r="0.7" /><circle cx="264.736422569" cy="321.913662402" fill="rgb(0%,0%,100%)" r="0.7" /><circle cx="265.309769988" cy="324.857887168" fill="rgb(0%,0%,100%)" r="0.7" /><circle cx="265.727356254" cy="327.828418109" fill="rgb(0%,0%,100%)" r="0.7" /><circle cx="266.016661402" cy="330.814211892" fill="rgb(0%,0%,100%)" r="0.7" /><circle cx="265.939374025" cy="333.804024253" fill="rgb(0%,0%,100%)" r="0.7" /><circle cx="265.328287703" cy="336.739975351" fill="rgb(0%,0%,100%)" r="0.7" /><circle cx="264.521524433" cy="339.629147827" fill="rgb(0%,0%,100%)" r="0.7" /><circle cx="263.611139698" cy="342.487602909" fill="rgb(0%,0%,100%)" r="0.7" /><circle cx="262.634271502" cy="345.324038059" fill="rgb(0%,0%,100%)" r="0.7" /><circle cx="261.610128849" cy="348.143806451" fill="rgb(0%,0%,100%)" r="0.7" /><circle cx="260.550181131" cy="350.950316256" fill="rgb(0%,0%,100%)" r="0.7" /><circle cx="259.461896451" cy="353.745947009" fill="rgb(0%,0%,100%)" r="0.7" /><circle cx="258.350440834" cy="356.532465063" fill="rgb(0%,0%,100%)" r="0.7" /><circle cx="257.219594449" cy="359.311135402" fill="rgb(0%,0%,100%)" r="0.7" /><circle cx="256.072160762" cy="362.083048087" fill="rgb(0%,0%,100%)" r="0.7" /><circle cx="254.910367322" cy="364.84893382" fill="rgb(0%,0%,100%)" r="0.7" /><circle cx="253.735931437" cy="367.609504703" fill="rgb(0%,0%,100%)" r="0.7" /><circle cx="252.550278849" cy="370.365257472" fill="rgb(0%,0%,100%)" r="0.7" /><circle cx="251.354552942" cy="373.116673051" fill="rgb(0%,0%,100%)" r="0.7" /><circle cx="250.149728019" cy="375.86410649" fill="rgb(0%,0%,100%)" r="0.7" /><circle cx="248.936613939" cy="378.60788719" fill="rgb(0%,0%,100%)" r="0.7" /><circle cx="247.71589795" cy="381.348303588" fill="rgb(0%,0%,100%)" r="0.7" /><circle cx="246.488179831" cy="384.08558448" fill="rgb(0%,0%,100%)" r="0.7" /><circle cx="245.253970418" cy="386.819948343" fill="rgb(0%,0%,100%)" r="0.7" /><circle cx="244.013720541" cy="389.551574177" fill="rgb(0%,0%,100%)" r="0.7" /><circle cx="242.767820924" cy="392.2806295" fill="rgb(0%,0%,100%)" r="0.7" /><circle cx="241.516617759" cy="395.007257913" fill="rgb(0%,0%,100%)" r="0.7" /><circle cx="240.260416674" cy="397.731587937" fill="rgb(0%,0%,100%)" r="0.7" /><circle cx="238.99949041" cy="400.453730365" fill="rgb(0%,0%,100%)" r="0.7" /><circle cx="237.73407697" cy="403.173793539" fill="rgb(0%,0%,100%)" r="0.7" /><circle cx="236.464390497" cy="405.891868984" fill="rgb(0%,0%,100%)" r="0.7" /><circle cx="235.190624859" cy="408.608031217" fill="rgb(0%,0%,100%)" r="0.7" /><circle cx="233.912949481" cy="411.322352572" fill="rgb(0%,0%,100%)" r="0.7" /><circle cx="232.631513831" cy="414.034898123" fill="rgb(0%,0%,100%)" r="0.7" /><circle cx="231.346453237" cy="416.745716813" fill="rgb(0%,0%,100%)" r="0.7" /><circle cx="230.057863293" cy="419.454897549" fill="rgb(0%,0%,100%)" r="0.7" /><circle cx="228.765873722" cy="422.162414952" fill="rgb(0%,0%,100%)" r="0.7" /><circle cx="227.470529124" cy="424.868379473" fill="rgb(0%,0%,100%)" r="0.7" /><circle cx="226.171922165" cy="427.572756198" fill="rgb(0%,0%,100%)" r="0.7" /><circle cx="224.870090408" cy="430.275576428" fill="rgb(0%,0%,100%)" r="0.7" /><circle cx="223.56505096" cy="432.976856906" fill="rgb(0%,0%,100%)" r="0.7" /><circle cx="222.256819304" cy="435.67654699" fill="rgb(0%,0%,100%)" r="0.7" /><circle cx="220.945300645" cy="438.37472741" fill="rgb(0%,0%,100%)" r="0.7" /><circle cx="219.630454429" cy="441.071222337" fill="rgb(0%,0%,100%)" r="0.7" /><circle cx="218.312039388" cy="443.766016264" fill="rgb(0%,0%,100%)" r="0.7" /><circle cx="216.989669487" cy="446.458835384" fill="rgb(0%,0%,100%)" r="0.7" /><circle cx="215.662" cy="449.149" fill="rgb(0%,0%,100%)" r="0.7" /></svg>