<?xml version="1.0" encoding="utf-8" ?>
<svg baseProfile="full" height="100%" version="1.1" width="100%" xmlns="http://www.w3.org/2000/svg" xmlns:ev="http://www.w3.org/2001/xml-events" xmlns:xlink="http://www.w3.org/1999/xlink"><defs /><circle cx="277.444749488" cy="334.579503409" fill="rgb(100%,0%,0%)" r="0.7" /><circle cx="274.747714701" cy="335.48720539" fill="rgb(100%,0%,0%)" r="0.7" /><circle cx="273.481453697" cy="338.192218765" fill="rgb(100%,0%,0%)" r="0.7" /><circle cx="272.951321287" cy="341.139371898" fill="rgb(100%,0%,0%)" r="0.7" /><circle cx="272.957935447" cy="344.136419779" fill="rgb(100%,0%,0%)" r="0.7" /><circle cx="273.363905838" cy="347.107129364" fill="rgb(100%,0%,0%)" r="0.7" /><circle cx="274.071406168" cy="350.021464662" fill="rgb(100%,0%,0%)" r="0.7" /><circle cx="274.981614705" cy="352.879852083" fill="rgb(100%,0%,0%)" r="0.7" /><circle cx="275.870391255" cy="355.745135483" fill="rgb(100%,0%,0%)" r="0.7" /><circle cx="276.716228039" cy="358.623403125" fill="rgb(100%,0%,0%)" r="0.7" /><circle cx="277.522444575" cy="361.5130201" fill="rgb(100%,0%,0%)" r="0.7" /><circle cx="278.288927931" cy="364.413433539" fill="rgb(100%,0%,0%)" r="0.7" /><circle cx="279.014003592" cy="367.324465716" fill="rgb(100%,0%,0%)" r="0.7" /><circle cx="279.694857552" cy="370.24615466" fill="rgb(100%,0%,0%)" r="0.7" /><circle cx="280.327574728" cy="373.178633522" fill="rgb(100%,0%,0%)" r="0.7" /><circle cx="280.907014655" cy="376.122099774" fill="rgb(100%,0%,0%)" r="0.7" /><circle cx="281.426526071" cy="379.076716328" fill="rgb(100%,0%,0%)" r="0.7" /><circle cx="281.877500019" cy="382.042548869" fill="rgb(100%,0%,0%)" r="0.7" /><circle cx="282.248661932" cy="385.019395692" fill="rgb(100%,0%,0%)" r="0.7" /><circle cx="282.524967891" cy="388.006494474" fill="rgb(100%,0%,0%)" r="0.7" /><circle cx="282.685832747" cy="391.001947857" fill="rgb(100%,0%,0%)" r="0.7" /><circle cx="282.702184878" cy="394.001536617" fill="rgb(100%,0%,0%)" r="0.7" /><circle cx="282.531389582" cy="396.996031787" fill="rgb(100%,0%,0%)" r="0.7" /><circle cx="282.22556855" cy="399.980065014" fill="rgb(100%,0%,0%)" r="0.7" /><circle cx="281.801125917" cy="402.949739873" fill="rgb(100%,0%,0%)" r="0.7" /><circle cx="281.292760534" cy="405.906287306" fill="rgb(100%,0%,0%)" r="0.7" /><circle cx="280.721947265" cy="408.851431745" fill="rgb(100%,0%,0%)" r="0.7" /><circle cx="280.1001801" cy="411.786259753" fill="rgb(100%,0%,0%)" r="0.7" /><circle cx="279.434912921" cy="414.711543018" fill="rgb(100%,0%,0%)" r="0.7" /><circle cx="278.731470772" cy="417.62788691" fill="rgb(100%,0%,0%)" r="0.7" /><circle cx="277.993894023" cy="420.535786159" fill="rgb(100%,0%,0%)" r="0.7" /><circle cx="277.225374888" cy="423.435666379" fill="rgb(100%,0%,0%)" r="0.7" /><circle cx="276.428514861" cy="426.327891207" fill="rgb(100%,0%,0%)" r="0.7" /><circle cx="275.605485576" cy="429.212769624" fill="rgb(100%,0%,0%)" r="0.7" /><circle cx="274.758120598" cy="432.090611245" fill="rgb(100%,0%,0%)" r="0.7" /><circle cx="275.355883581" cy="431.784666688" fill="rgb(100%,0%,0%)" r="0.7" /><circle cx="276.974237619" cy="429.25861637" fill="rgb(100%,0%,0%)" r="0.7" /><circle cx="278.592591658" cy="426.732566053" fill="rgb(100%,0%,0%)" r="0.7" /><circle cx="280.210945696" cy="424.206515735" fill="rgb(100%,0%,0%)" r="0.7" /><circle cx="281.215618096" cy="426.775920306" fill="rgb(100%,0%,0%)" r="0.7" /><circle cx="282.187934062" cy="429.613983319" fill="rgb(100%,0%,0%)" r="0.7" /><circle cx="283.160250028" cy="432.452046331" fill="rgb(100%,0%,0%)" r="0.7" /><circle cx="283.546" cy="433.578" fill="rgb(100%,0%,0%)" r="0.7" /><circle cx="277.444749488" cy="334.579503409" fill="rgb(0%,0%,100%)" r="0.7" /><circle cx="279.824093159" cy="336.276228736" fill="rgb(0%,0%,100%)" r="0.7" /><circle cx="281.094139755" cy="338.98005957" fill="rgb(0%,0%,100%)" r="0.7" /><circle cx="281.361597089" cy="341.964158416" fill="rgb(0%,0%,100%)" r="0.7" /><circle cx="281.589981542" cy="344.954850804" fill="rgb(0%,0%,100%)" r="0.7" /><circle cx="282.559389198" cy="347.793297729" fill="rgb(0%,0%,100%)" r="0.7" /><circle cx="283.394743877" cy="350.67451387" fill="rgb(0%,0%,100%)" r="0.7" /><circle cx="284.157334607" cy="353.575921891" fill="rgb(0%,0%,100%)" r="0.7" /><circle cx="284.871761234" cy="356.489589386" fill="rgb(0%,0%,100%)" r="0.7" /><circle cx="285.550643521" cy="359.411751633" fill="rgb(0%,0%,100%)" r="0.7" /><circle cx="286.201226502" cy="362.340350207" fill="rgb(0%,0%,100%)" r="0.7" /><circle cx="286.827707063" cy="365.274204669" fill="rgb(0%,0%,100%)" r="0.7" /><circle cx="287.431762331" cy="368.212757527" fill="rgb(0%,0%,100%)" r="0.7" /><circle cx="287.905108116" cy="371.171592577" fill="rgb(0%,0%,100%)" r="0.7" /><circle cx="288.166678668" cy="374.16015364" fill="rgb(0%,0%,100%)" r="0.7" /><circle cx="288.394817179" cy="377.151449745" fill="rgb(0%,0%,100%)" r="0.7" /><circle cx="288.588298688" cy="380.145171409" fill="rgb(0%,0%,100%)" r="0.7" /><circle cx="288.745812576" cy="383.14102656" fill="rgb(0%,0%,100%)" r="0.7" /><circle cx="288.865943234" cy="386.138603112" fill="rgb(0%,0%,100%)" r="0.7" /><circle cx="288.9471636" cy="389.137481742" fill="rgb(0%,0%,100%)" r="0.7" /><circle cx="288.987815296" cy="392.137182406" fill="rgb(0%,0%,100%)" r="0.7" /><circle cx="288.986088024" cy="395.13715479" fill="rgb(0%,0%,100%)" r="0.7" /><circle cx="288.939993842" cy="398.13675819" fill="rgb(0%,0%,100%)" r="0.7" /><circle cx="288.84733228" cy="401.135307344" fill="rgb(0%,0%,100%)" r="0.7" /><circle cx="288.705650461" cy="404.131912688" fill="rgb(0%,0%,100%)" r="0.7" /><circle cx="288.512179852" cy="407.125626314" fill="rgb(0%,0%,100%)" r="0.7" /><circle cx="288.263760053" cy="410.115286552" fill="rgb(0%,0%,100%)" r="0.7" /><circle cx="287.956726815" cy="413.099481639" fill="rgb(0%,0%,100%)" r="0.7" /><circle cx="287.58673916" cy="416.07652503" fill="rgb(0%,0%,100%)" r="0.7" /><circle cx="287.148525587" cy="419.044259117" fill="rgb(0%,0%,100%)" r="0.7" /><circle cx="286.635426455" cy="421.999979942" fill="rgb(0%,0%,100%)" r="0.7" /><circle cx="286.038610151" cy="424.939883426" fill="rgb(0%,0%,100%)" r="0.7" /><circle cx="285.345289786" cy="427.858517053" fill="rgb(0%,0%,100%)" r="0.7" /><circle cx="284.533946782" cy="430.746433972" fill="rgb(0%,0%,100%)" r="0.7" /><circle cx="283.546" cy="433.578" fill="rgb(0%,0%,100%)" r="0.7" /></svg>