<?xml version="1.0" encoding="utf-8" ?>
<svg baseProfile="full" height="100%" version="1.1" width="100%" xmlns="http://www.w3.org/2000/svg" xmlns:ev="http://www.w3.org/2001/xml-events" xmlns:xlink="http://www.w3.org/1999/xlink"><defs /><circle cx="325.787338257" cy="316.229166761" fill="rgb(100%,0%,0%)" r="0.7" /><circle cx="322.866191425" cy="316.899001003" fill="rgb(100%,0%,0%)" r="0.7" /><circle cx="319.987108539" cy="317.741299855" fill="rgb(100%,0%,0%)" r="0.7" /><circle cx="317.142878603" cy="318.694925385" fill="rgb(100%,0%,0%)" r="0.7" /><circle cx="314.332547767" cy="319.744321799" fill="rgb(100%,0%,0%)" r="0.7" /><circle cx="311.556185838" cy="320.880621727" fill="rgb(100%,0%,0%)" r="0.7" /><circle cx="308.814329864" cy="322.097827705" fill="rgb(100%,0%,0%)" r="0.7" /><circle cx="306.107698519" cy="323.391492293" fill="rgb(100%,0%,0%)" r="0.7" /><circle cx="303.437136506" cy="324.758079475" fill="rgb(100%,0%,0%)" r="0.7" /><circle cx="300.803540459" cy="326.1946424" fill="rgb(100%,0%,0%)" r="0.7" /><circle cx="298.207860633" cy="327.698609015" fill="rgb(100%,0%,0%)" r="0.7" /><circle cx="295.651003717" cy="329.267702065" fill="rgb(100%,0%,0%)" r="0.7" /><circle cx="293.133905491" cy="330.89980726" fill="rgb(100%,0%,0%)" r="0.7" /><circle cx="290.657460175" cy="332.592951681" fill="rgb(100%,0%,0%)" r="0.7" /><circle cx="288.222512197" cy="334.345266921" fill="rgb(100%,0%,0%)" r="0.7" /><circle cx="285.82988533" cy="336.15493571" fill="rgb(100%,0%,0%)" r="0.7" /><circle cx="283.4803312" cy="338.020204838" fill="rgb(100%,0%,0%)" r="0.7" /><circle cx="281.154428831" cy="339.914609484" fill="rgb(100%,0%,0%)" r="0.7" /><circle cx="278.924765146" cy="341.921140474" fill="rgb(100%,0%,0%)" r="0.7" /><circle cx="276.79959056" cy="344.038222983" fill="rgb(100%,0%,0%)" r="0.7" /><circle cx="274.770441743" cy="346.247548559" fill="rgb(100%,0%,0%)" r="0.7" /><circle cx="272.835587608" cy="348.539946161" fill="rgb(100%,0%,0%)" r="0.7" /><circle cx="270.995806121" cy="350.909328258" fill="rgb(100%,0%,0%)" r="0.7" /><circle cx="269.253093527" cy="353.350995853" fill="rgb(100%,0%,0%)" r="0.7" /><circle cx="267.610131431" cy="355.860878912" fill="rgb(100%,0%,0%)" r="0.7" /><circle cx="266.069997747" cy="358.435118852" fill="rgb(100%,0%,0%)" r="0.7" /><circle cx="264.63591161" cy="361.069921079" fill="rgb(100%,0%,0%)" r="0.7" /><circle cx="263.311127322" cy="363.761327564" fill="rgb(100%,0%,0%)" r="0.7" /><circle cx="262.098756495" cy="366.505206916" fill="rgb(100%,0%,0%)" r="0.7" /><circle cx="261.00166952" cy="369.297169325" fill="rgb(100%,0%,0%)" r="0.7" /><circle cx="260.022369545" cy="372.132597973" fill="rgb(100%,0%,0%)" r="0.7" /><circle cx="259.162912944" cy="375.006629597" fill="rgb(100%,0%,0%)" r="0.7" /><circle cx="258.424829356" cy="377.914184248" fill="rgb(100%,0%,0%)" r="0.7" /><circle cx="257.809045432" cy="380.850081493" fill="rgb(100%,0%,0%)" r="0.7" /><circle cx="257.315862906" cy="383.809049163" fill="rgb(100%,0%,0%)" r="0.7" /><circle cx="256.944934656" cy="386.785826309" fill="rgb(100%,0%,0%)" r="0.7" /><circle cx="256.695274155" cy="389.775205383" fill="rgb(100%,0%,0%)" r="0.7" /><circle cx="256.873527552" cy="392.001742686" fill="rgb(100%,0%,0%)" r="0.7" /><circle cx="258.884524793" cy="389.775559832" fill="rgb(100%,0%,0%)" r="0.7" /><circle cx="260.895522034" cy="387.549376979" fill="rgb(100%,0%,0%)" r="0.7" /><circle cx="262.906519275" cy="385.323194125" fill="rgb(100%,0%,0%)" r="0.7" /><circle cx="265.042236312" cy="385.44367983" fill="rgb(100%,0%,0%)" r="0.7" /><circle cx="267.277870773" cy="387.44416441" fill="rgb(100%,0%,0%)" r="0.7" /><circle cx="269.513505234" cy="389.444648991" fill="rgb(100%,0%,0%)" r="0.7" /><circle cx="271.749139695" cy="391.445133571" fill="rgb(100%,0%,0%)" r="0.7" /><circle cx="273.603" cy="393.104" fill="rgb(100%,0%,0%)" r="0.7" /><circle cx="325.787338257" cy="316.229166761" fill="rgb(0%,0%,100%)" r="0.7" /><circle cx="328.73912818" cy="316.712775818" fill="rgb(0%,0%,100%)" r="0.7" /><circle cx="331.446184891" cy="317.983032781" fill="rgb(0%,0%,100%)" r="0.7" /><circle cx="333.73097359" cy="319.915795404" fill="rgb(0%,0%,100%)" r="0.7" /><circle cx="335.547832796" cy="322.297286627" fill="rgb(0%,0%,100%)" r="0.7" /><circle cx="336.93239216" cy="324.955318083" fill="rgb(0%,0%,100%)" r="0.7" /><circle cx="337.871648713" cy="327.797701345" fill="rgb(0%,0%,100%)" r="0.7" /><circle cx="337.845496919" cy="330.782913335" fill="rgb(0%,0%,100%)" r="0.7" /><circle cx="336.167900172" cy="333.142286932" fill="rgb(0%,0%,100%)" r="0.7" /><circle cx="333.231279707" cy="333.466038152" fill="rgb(0%,0%,100%)" r="0.7" /><circle cx="330.326581409" cy="332.778904555" fill="rgb(0%,0%,100%)" r="0.7" /><circle cx="327.376612652" cy="333.27557254" fill="rgb(0%,0%,100%)" r="0.7" /><circle cx="324.522944755" cy="334.198419075" fill="rgb(0%,0%,100%)" r="0.7" /><circle cx="321.72979183" cy="335.292373408" fill="rgb(0%,0%,100%)" r="0.7" /><circle cx="318.98292387" cy="336.498034418" fill="rgb(0%,0%,100%)" r="0.7" /><circle cx="316.339593678" cy="337.913210569" fill="rgb(0%,0%,100%)" r="0.7" /><circle cx="313.823748654" cy="339.54656578" fill="rgb(0%,0%,100%)" r="0.7" /><circle cx="311.387873921" cy="341.297416543" fill="rgb(0%,0%,100%)" r="0.7" /><circle cx="309.008301929" cy="343.124193817" fill="rgb(0%,0%,100%)" r="0.7" /><circle cx="306.67167805" cy="345.00565361" fill="rgb(0%,0%,100%)" r="0.7" /><circle cx="304.369815345" cy="346.929513047" fill="rgb(0%,0%,100%)" r="0.7" /><circle cx="302.097559489" cy="348.888264997" fill="rgb(0%,0%,100%)" r="0.7" /><circle cx="299.85195105" cy="350.877518441" fill="rgb(0%,0%,100%)" r="0.7" /><circle cx="297.632596198" cy="352.896019971" fill="rgb(0%,0%,100%)" r="0.7" /><circle cx="295.433898347" cy="354.936991951" fill="rgb(0%,0%,100%)" r="0.7" /><circle cx="293.274565981" cy="357.019481089" fill="rgb(0%,0%,100%)" r="0.7" /><circle cx="291.175682856" cy="359.162850478" fill="rgb(0%,0%,100%)" r="0.7" /><circle cx="289.143025614" cy="361.369094874" fill="rgb(0%,0%,100%)" r="0.7" /><circle cx="287.183049589" cy="363.640143481" fill="rgb(0%,0%,100%)" r="0.7" /><circle cx="285.30301355" cy="365.97777774" fill="rgb(0%,0%,100%)" r="0.7" /><circle cx="283.511089565" cy="368.383569191" fill="rgb(0%,0%,100%)" r="0.7" /><circle cx="281.816468969" cy="370.858852406" fill="rgb(0%,0%,100%)" r="0.7" /><circle cx="280.229623988" cy="373.404524768" fill="rgb(0%,0%,100%)" r="0.7" /><circle cx="278.762521647" cy="376.02098438" fill="rgb(0%,0%,100%)" r="0.7" /><circle cx="277.429041062" cy="378.707941376" fill="rgb(0%,0%,100%)" r="0.7" /><circle cx="276.245633577" cy="381.464214808" fill="rgb(0%,0%,100%)" r="0.7" /><circle cx="275.232572967" cy="384.287440171" fill="rgb(0%,0%,100%)" r="0.7" /><circle cx="274.416694454" cy="387.173653565" fill="rgb(0%,0%,100%)" r="0.7" /><circle cx="273.839219445" cy="390.116488286" fill="rgb(0%,0%,100%)" r="0.7" /><circle cx="273.603" cy="393.104" fill="rgb(0%,0%,100%)" r="0.7" /></svg>