<?xml version="1.0" encoding="utf-8" ?>
<svg baseProfile="full" height="100%" version="1.1" width="100%" xmlns="http://www.w3.org/2000/svg" xmlns:ev="http://www.w3.org/2001/xml-events" xmlns:xlink="http://www.w3.org/1999/xlink"><defs /><circle cx="263.433034642" cy="289.700600667" fill="rgb(100%,0%,0%)" r="0.7" /><circle cx="260.617446043" cy="290.712380089" fill="rgb(100%,0%,0%)" r="0.7" /><circle cx="258.045416249" cy="292.251492109" fill="rgb(100%,0%,0%)" r="0.7" /><circle cx="255.66764397" cy="294.079022092" fill="rgb(100%,0%,0%)" r="0.7" /><circle cx="253.436591135" cy="296.083828037" fill="rgb(100%,0%,0%)" r="0.7" /><circle cx="251.418330288" cy="298.289584074" fill="rgb(100%,0%,0%)" r="0.7" /><circle cx="249.917895367" cy="300.886118177" fill="rgb(100%,0%,0%)" r="0.7" /><circle cx="248.614643848" cy="303.587743081" fill="rgb(100%,0%,0%)" r="0.7" /><circle cx="247.458501077" cy="306.355707364" fill="rgb(100%,0%,0%)" r="0.7" /><circle cx="246.425682844" cy="309.17209431" fill="rgb(100%,0%,0%)" r="0.7" /><circle cx="245.500890051" cy="312.025820623" fill="rgb(100%,0%,0%)" r="0.7" /><circle cx="244.672978699" cy="314.909189758" fill="rgb(100%,0%,0%)" r="0.7" /><circle cx="243.933263867" cy="317.816450823" fill="rgb(100%,0%,0%)" r="0.7" /><circle cx="243.274658505" cy="320.743173744" fill="rgb(100%,0%,0%)" r="0.7" /><circle cx="242.691212838" cy="323.685815972" fill="rgb(100%,0%,0%)" r="0.7" /><circle cx="242.177819489" cy="326.641495099" fill="rgb(100%,0%,0%)" r="0.7" /><circle cx="241.730021564" cy="329.607835925" fill="rgb(100%,0%,0%)" r="0.7" /><circle cx="241.343885904" cy="332.582819884" fill="rgb(100%,0%,0%)" r="0.7" /><circle cx="241.015895628" cy="335.564793148" fill="rgb(100%,0%,0%)" r="0.7" /><circle cx="240.742892768" cy="338.552304083" fill="rgb(100%,0%,0%)" r="0.7" /><circle cx="240.504023779" cy="341.542616111" fill="rgb(100%,0%,0%)" r="0.7" /><circle cx="240.18584139" cy="344.525702034" fill="rgb(100%,0%,0%)" r="0.7" /><circle cx="239.847311552" cy="347.506536304" fill="rgb(100%,0%,0%)" r="0.7" /><circle cx="239.491282508" cy="350.485324771" fill="rgb(100%,0%,0%)" r="0.7" /><circle cx="239.118263415" cy="353.462040822" fill="rgb(100%,0%,0%)" r="0.7" /><circle cx="238.727977217" cy="356.436542637" fill="rgb(100%,0%,0%)" r="0.7" /><circle cx="238.319665036" cy="359.408623422" fill="rgb(100%,0%,0%)" r="0.7" /><circle cx="237.892168771" cy="362.378003138" fill="rgb(100%,0%,0%)" r="0.7" /><circle cx="237.443927256" cy="365.344322801" fill="rgb(100%,0%,0%)" r="0.7" /><circle cx="236.972923323" cy="368.307109325" fill="rgb(100%,0%,0%)" r="0.7" /><circle cx="236.476577577" cy="371.265754615" fill="rgb(100%,0%,0%)" r="0.7" /><circle cx="235.951583783" cy="374.219448091" fill="rgb(100%,0%,0%)" r="0.7" /><circle cx="235.39364906" cy="377.16709236" fill="rgb(100%,0%,0%)" r="0.7" /><circle cx="234.797083879" cy="380.107154644" fill="rgb(100%,0%,0%)" r="0.7" /><circle cx="234.154128246" cy="383.037404282" fill="rgb(100%,0%,0%)" r="0.7" /><circle cx="233.612993791" cy="385.987882799" fill="rgb(100%,0%,0%)" r="0.7" /><circle cx="233.076652839" cy="388.939529473" fill="rgb(100%,0%,0%)" r="0.7" /><circle cx="232.534028073" cy="391.890044235" fill="rgb(100%,0%,0%)" r="0.7" /><circle cx="231.985790717" cy="394.839547897" fill="rgb(100%,0%,0%)" r="0.7" /><circle cx="231.4322591" cy="397.788021911" fill="rgb(100%,0%,0%)" r="0.7" /><circle cx="230.873564979" cy="400.735546561" fill="rgb(100%,0%,0%)" r="0.7" /><circle cx="230.309760467" cy="403.6821137" fill="rgb(100%,0%,0%)" r="0.7" /><circle cx="229.740843511" cy="406.627663309" fill="rgb(100%,0%,0%)" r="0.7" /><circle cx="229.166749406" cy="409.572211019" fill="rgb(100%,0%,0%)" r="0.7" /><circle cx="228.58738067" cy="412.515736696" fill="rgb(100%,0%,0%)" r="0.7" /><circle cx="228.002610161" cy="415.458192996" fill="rgb(100%,0%,0%)" r="0.7" /><circle cx="227.412273992" cy="418.399551886" fill="rgb(100%,0%,0%)" r="0.7" /><circle cx="226.816185956" cy="421.339734626" fill="rgb(100%,0%,0%)" r="0.7" /><circle cx="226.21412096" cy="424.278690356" fill="rgb(100%,0%,0%)" r="0.7" /><circle cx="225.605816983" cy="427.216375595" fill="rgb(100%,0%,0%)" r="0.7" /><circle cx="224.990983954" cy="430.152697079" fill="rgb(100%,0%,0%)" r="0.7" /><circle cx="224.369287543" cy="433.087571096" fill="rgb(100%,0%,0%)" r="0.7" /><circle cx="223.740347857" cy="436.02090412" fill="rgb(100%,0%,0%)" r="0.7" /><circle cx="223.103735243" cy="438.952581356" fill="rgb(100%,0%,0%)" r="0.7" /><circle cx="222.458960598" cy="441.882473143" fill="rgb(100%,0%,0%)" r="0.7" /><circle cx="221.805465739" cy="444.810430786" fill="rgb(100%,0%,0%)" r="0.7" /><circle cx="221.142609909" cy="447.736287364" fill="rgb(100%,0%,0%)" r="0.7" /><circle cx="220.469657913" cy="450.659835488" fill="rgb(100%,0%,0%)" r="0.7" /><circle cx="219.785755596" cy="453.580839999" fill="rgb(100%,0%,0%)" r="0.7" /><circle cx="219.089904756" cy="456.499024071" fill="rgb(100%,0%,0%)" r="0.7" /><circle cx="218.380932022" cy="459.414043587" fill="rgb(100%,0%,0%)" r="0.7" /><circle cx="217.657436388" cy="462.325497475" fill="rgb(100%,0%,0%)" r="0.7" /><circle cx="216.917735348" cy="465.232868242" fill="rgb(100%,0%,0%)" r="0.7" /><circle cx="216.159765273" cy="468.135536593" fill="rgb(100%,0%,0%)" r="0.7" /><circle cx="215.380972674" cy="471.032666965" fill="rgb(100%,0%,0%)" r="0.7" /><circle cx="214.57810171" cy="473.923232761" fill="rgb(100%,0%,0%)" r="0.7" /><circle cx="213.746936561" cy="476.805791682" fill="rgb(100%,0%,0%)" r="0.7" /><circle cx="212.881833073" cy="479.678322778" fill="rgb(100%,0%,0%)" r="0.7" /><circle cx="211.974920305" cy="482.537921627" fill="rgb(100%,0%,0%)" r="0.7" /><circle cx="211.656733975" cy="484.545390128" fill="rgb(100%,0%,0%)" r="0.7" /><circle cx="214.142554038" cy="482.865896569" fill="rgb(100%,0%,0%)" r="0.7" /><circle cx="216.628374101" cy="481.18640301" fill="rgb(100%,0%,0%)" r="0.7" /><circle cx="219.114194164" cy="479.506909451" fill="rgb(100%,0%,0%)" r="0.7" /><circle cx="221.263033529" cy="478.638798377" fill="rgb(100%,0%,0%)" r="0.7" /><circle cx="221.827647064" cy="481.585187957" fill="rgb(100%,0%,0%)" r="0.7" /><circle cx="222.392260599" cy="484.531577537" fill="rgb(100%,0%,0%)" r="0.7" /><circle cx="222.956874134" cy="487.477967117" fill="rgb(100%,0%,0%)" r="0.7" /><circle cx="223.521487669" cy="490.424356697" fill="rgb(100%,0%,0%)" r="0.7" /><circle cx="224.086101204" cy="493.370746277" fill="rgb(100%,0%,0%)" r="0.7" /><circle cx="224.650714739" cy="496.317135856" fill="rgb(100%,0%,0%)" r="0.7" /><circle cx="224.932" cy="497.785" fill="rgb(100%,0%,0%)" r="0.7" /><circle cx="263.433034642" cy="289.700600667" fill="rgb(0%,0%,100%)" r="0.7" /><circle cx="266.407416988" cy="289.712372306" fill="rgb(0%,0%,100%)" r="0.7" /><circle cx="268.993241705" cy="291.16647391" fill="rgb(0%,0%,100%)" r="0.7" /><circle cx="270.762759109" cy="293.572728004" fill="rgb(0%,0%,100%)" r="0.7" /><circle cx="271.894147857" cy="296.346660941" fill="rgb(0%,0%,100%)" r="0.7" /><circle cx="272.607291932" cy="299.258883804" fill="rgb(0%,0%,100%)" r="0.7" /><circle cx="273.021232571" cy="302.229177407" fill="rgb(0%,0%,100%)" r="0.7" /><circle cx="273.194862165" cy="305.223607423" fill="rgb(0%,0%,100%)" r="0.7" /><circle cx="273.256859664" cy="308.222759086" fill="rgb(0%,0%,100%)" r="0.7" /><circle cx="273.226473094" cy="311.222548371" fill="rgb(0%,0%,100%)" r="0.7" /><circle cx="273.135492566" cy="314.221132961" fill="rgb(0%,0%,100%)" r="0.7" /><circle cx="273.000786421" cy="317.218076729" fill="rgb(0%,0%,100%)" r="0.7" /><circle cx="272.832556948" cy="320.213353973" fill="rgb(0%,0%,100%)" r="0.7" /><circle cx="272.637525743" cy="323.206993766" fill="rgb(0%,0%,100%)" r="0.7" /><circle cx="272.420388085" cy="326.199126005" fill="rgb(0%,0%,100%)" r="0.7" /><circle cx="272.184576748" cy="329.189837745" fill="rgb(0%,0%,100%)" r="0.7" /><circle cx="271.932683712" cy="332.179242974" fill="rgb(0%,0%,100%)" r="0.7" /><circle cx="271.66672117" cy="335.167430781" fill="rgb(0%,0%,100%)" r="0.7" /><circle cx="271.388283651" cy="338.154481258" fill="rgb(0%,0%,100%)" r="0.7" /><circle cx="271.098655706" cy="341.140467783" fill="rgb(0%,0%,100%)" r="0.7" /><circle cx="270.798885967" cy="344.125453008" fill="rgb(0%,0%,100%)" r="0.7" /><circle cx="270.489838206" cy="347.109494202" fill="rgb(0%,0%,100%)" r="0.7" /><circle cx="270.172229186" cy="350.092632054" fill="rgb(0%,0%,100%)" r="0.7" /><circle cx="269.846652073" cy="353.074917096" fill="rgb(0%,0%,100%)" r="0.7" /><circle cx="269.513598764" cy="356.056372929" fill="rgb(0%,0%,100%)" r="0.7" /><circle cx="269.173469459" cy="359.037019892" fill="rgb(0%,0%,100%)" r="0.7" /><circle cx="268.826575048" cy="362.016906604" fill="rgb(0%,0%,100%)" r="0.7" /><circle cx="268.47314665" cy="364.996021883" fill="rgb(0%,0%,100%)" r="0.7" /><circle cx="268.113316915" cy="367.974366549" fill="rgb(0%,0%,100%)" r="0.7" /><circle cx="267.747093598" cy="370.951928111" fill="rgb(0%,0%,100%)" r="0.7" /><circle cx="267.374286296" cy="373.928659048" fill="rgb(0%,0%,100%)" r="0.7" /><circle cx="266.994259239" cy="376.904500838" fill="rgb(0%,0%,100%)" r="0.7" /><circle cx="266.581255077" cy="379.87556348" fill="rgb(0%,0%,100%)" r="0.7" /><circle cx="266.065530477" cy="382.830869819" fill="rgb(0%,0%,100%)" r="0.7" /><circle cx="265.53272284" cy="385.783182477" fill="rgb(0%,0%,100%)" r="0.7" /><circle cx="264.982567526" cy="388.732304985" fill="rgb(0%,0%,100%)" r="0.7" /><circle cx="264.414786299" cy="391.678065556" fill="rgb(0%,0%,100%)" r="0.7" /><circle cx="263.829078648" cy="394.620352524" fill="rgb(0%,0%,100%)" r="0.7" /><circle cx="263.225157544" cy="397.558929693" fill="rgb(0%,0%,100%)" r="0.7" /><circle cx="262.602706627" cy="400.493649615" fill="rgb(0%,0%,100%)" r="0.7" /><circle cx="261.961411339" cy="403.424295734" fill="rgb(0%,0%,100%)" r="0.7" /><circle cx="261.300936475" cy="406.350685669" fill="rgb(0%,0%,100%)" r="0.7" /><circle cx="260.620942723" cy="409.272591011" fill="rgb(0%,0%,100%)" r="0.7" /><circle cx="259.921070115" cy="412.189806386" fill="rgb(0%,0%,100%)" r="0.7" /><circle cx="259.200956082" cy="415.102068199" fill="rgb(0%,0%,100%)" r="0.7" /><circle cx="258.460205022" cy="418.009174208" fill="rgb(0%,0%,100%)" r="0.7" /><circle cx="257.698417225" cy="420.910859107" fill="rgb(0%,0%,100%)" r="0.7" /><circle cx="256.915191343" cy="423.806786715" fill="rgb(0%,0%,100%)" r="0.7" /><circle cx="256.110071668" cy="426.696738391" fill="rgb(0%,0%,100%)" r="0.7" /><circle cx="255.282618399" cy="429.580345855" fill="rgb(0%,0%,100%)" r="0.7" /><circle cx="254.432336278" cy="432.457340095" fill="rgb(0%,0%,100%)" r="0.7" /><circle cx="253.558741622" cy="435.327309123" fill="rgb(0%,0%,100%)" r="0.7" /><circle cx="252.661291451" cy="438.189928399" fill="rgb(0%,0%,100%)" r="0.7" /><circle cx="251.739445606" cy="441.044744965" fill="rgb(0%,0%,100%)" r="0.7" /><circle cx="250.792594036" cy="443.891395201" fill="rgb(0%,0%,100%)" r="0.7" /><circle cx="249.820110974" cy="446.72941833" fill="rgb(0%,0%,100%)" r="0.7" /><circle cx="248.821348286" cy="449.558267942" fill="rgb(0%,0%,100%)" r="0.7" /><circle cx="247.795585845" cy="452.377435088" fill="rgb(0%,0%,100%)" r="0.7" /><circle cx="246.742056974" cy="455.186348484" fill="rgb(0%,0%,100%)" r="0.7" /><circle cx="245.659935987" cy="457.984382489" fill="rgb(0%,0%,100%)" r="0.7" /><circle cx="244.548341146" cy="460.770818864" fill="rgb(0%,0%,100%)" r="0.7" /><circle cx="243.406292995" cy="463.544913445" fill="rgb(0%,0%,100%)" r="0.7" /><circle cx="242.232719881" cy="466.305829983" fill="rgb(0%,0%,100%)" r="0.7" /><circle cx="241.026444047" cy="469.052613909" fill="rgb(0%,0%,100%)" r="0.7" /><circle cx="239.786146298" cy="471.784196903" fill="rgb(0%,0%,100%)" r="0.7" /><circle cx="238.510334161" cy="474.499364498" fill="rgb(0%,0%,100%)" r="0.7" /><circle cx="237.197289406" cy="477.196729723" fill="rgb(0%,0%,100%)" r="0.7" /><circle cx="235.845021609" cy="479.874637381" fill="rgb(0%,0%,100%)" r="0.7" /><circle cx="234.451153808" cy="482.531116923" fill="rgb(0%,0%,100%)" r="0.7" /><circle cx="233.012760723" cy="485.163766512" fill="rgb(0%,0%,100%)" r="0.7" /><circle cx="231.526153187" cy="487.769457989" fill="rgb(0%,0%,100%)" r="0.7" /><circle cx="229.986318683" cy="490.344078502" fill="rgb(0%,0%,100%)" r="0.7" /><circle cx="228.385995216" cy="492.88149054" fill="rgb(0%,0%,100%)" r="0.7" /><circle cx="226.712711115" cy="495.371331061" fill="rgb(0%,0%,100%)" r="0.7" /><circle cx="224.932" cy="497.785" fill="rgb(0%,0%,100%)" r="0.7" /></svg>