<?xml version="1.0" encoding="utf-8" ?>
<svg baseProfile="full" height="100%" version="1.1" width="100%" xmlns="http://www.w3.org/2000/svg" xmlns:ev="http://www.w3.org/2001/xml-events" xmlns:xlink="http://www.w3.org/1999/xlink"><defs /><circle cx="345.18236807" cy="390.318910871" fill="rgb(100%,0%,0%)" r="0.7" /><circle cx="342.190935974" cy="390.50221154" fill="rgb(100%,0%,0%)" r="0.7" /><circle cx="339.238277647" cy="391.026593017" fill="rgb(100%,0%,0%)" r="0.7" /><circle cx="336.343500553" cy="391.810815182" fill="rgb(100%,0%,0%)" r="0.7" /><circle cx="333.521295226" cy="392.825997211" fill="rgb(100%,0%,0%)" r="0.7" /><circle cx="330.784273808" cy="394.052616529" fill="rgb(100%,0%,0%)" r="0.7" /><circle cx="328.143099199" cy="395.474038493" fill="rgb(100%,0%,0%)" r="0.7" /><circle cx="325.606369125" cy="397.074538562" fill="rgb(100%,0%,0%)" r="0.7" /><circle cx="323.180539448" cy="398.838692953" fill="rgb(100%,0%,0%)" r="0.7" /><circle cx="320.869912933" cy="400.751338091" fill="rgb(100%,0%,0%)" r="0.7" /><circle cx="318.676784541" cy="402.797719075" fill="rgb(100%,0%,0%)" r="0.7" /><circle cx="316.601644691" cy="404.963723452" fill="rgb(100%,0%,0%)" r="0.7" /><circle cx="314.643463352" cy="407.236077389" fill="rgb(100%,0%,0%)" r="0.7" /><circle cx="312.799987744" cy="409.602493285" fill="rgb(100%,0%,0%)" r="0.7" /><circle cx="311.06803859" cy="412.051745882" fill="rgb(100%,0%,0%)" r="0.7" /><circle cx="309.443759076" cy="414.573719309" fill="rgb(100%,0%,0%)" r="0.7" /><circle cx="307.87728589" cy="417.130684252" fill="rgb(100%,0%,0%)" r="0.7" /><circle cx="306.527836476" cy="419.80942602" fill="rgb(100%,0%,0%)" r="0.7" /><circle cx="305.327675206" cy="422.558597276" fill="rgb(100%,0%,0%)" r="0.7" /><circle cx="304.239393534" cy="425.354074422" fill="rgb(100%,0%,0%)" r="0.7" /><circle cx="303.242335102" cy="428.183421345" fill="rgb(100%,0%,0%)" r="0.7" /><circle cx="302.32285482" cy="431.038955434" fill="rgb(100%,0%,0%)" r="0.7" /><circle cx="301.47108885" cy="433.915448151" fill="rgb(100%,0%,0%)" r="0.7" /><circle cx="300.679510898" cy="436.809068285" fill="rgb(100%,0%,0%)" r="0.7" /><circle cx="299.942122292" cy="439.716998024" fill="rgb(100%,0%,0%)" r="0.7" /><circle cx="299.254037124" cy="442.636998237" fill="rgb(100%,0%,0%)" r="0.7" /><circle cx="298.611180943" cy="445.567267007" fill="rgb(100%,0%,0%)" r="0.7" /><circle cx="298.010078559" cy="448.506417273" fill="rgb(100%,0%,0%)" r="0.7" /><circle cx="297.447756566" cy="451.453227474" fill="rgb(100%,0%,0%)" r="0.7" /><circle cx="296.921619092" cy="454.406709392" fill="rgb(100%,0%,0%)" r="0.7" /><circle cx="296.429385682" cy="457.366020844" fill="rgb(100%,0%,0%)" r="0.7" /><circle cx="295.969029744" cy="460.330477452" fill="rgb(100%,0%,0%)" r="0.7" /><circle cx="295.538747084" cy="463.29946348" fill="rgb(100%,0%,0%)" r="0.7" /><circle cx="295.13691983" cy="466.272421073" fill="rgb(100%,0%,0%)" r="0.7" /><circle cx="294.762081168" cy="469.248897035" fill="rgb(100%,0%,0%)" r="0.7" /><circle cx="294.412901114" cy="472.22848013" fill="rgb(100%,0%,0%)" r="0.7" /><circle cx="294.088162057" cy="475.210849079" fill="rgb(100%,0%,0%)" r="0.7" /><circle cx="293.786756095" cy="478.195657344" fill="rgb(100%,0%,0%)" r="0.7" /><circle cx="293.761135647" cy="480.293449287" fill="rgb(100%,0%,0%)" r="0.7" /><circle cx="295.10716224" cy="477.612365101" fill="rgb(100%,0%,0%)" r="0.7" /><circle cx="296.453188834" cy="474.931280916" fill="rgb(100%,0%,0%)" r="0.7" /><circle cx="297.799215427" cy="472.25019673" fill="rgb(100%,0%,0%)" r="0.7" /><circle cx="299.145242021" cy="469.569112544" fill="rgb(100%,0%,0%)" r="0.7" /><circle cx="300.491268614" cy="466.888028359" fill="rgb(100%,0%,0%)" r="0.7" /><circle cx="301.805889479" cy="468.394529141" fill="rgb(100%,0%,0%)" r="0.7" /><circle cx="303.111552146" cy="471.095500262" fill="rgb(100%,0%,0%)" r="0.7" /><circle cx="304.417214814" cy="473.796471384" fill="rgb(100%,0%,0%)" r="0.7" /><circle cx="305.722877481" cy="476.497442505" fill="rgb(100%,0%,0%)" r="0.7" /><circle cx="307.028540149" cy="479.198413627" fill="rgb(100%,0%,0%)" r="0.7" /><circle cx="308.334202816" cy="481.899384748" fill="rgb(100%,0%,0%)" r="0.7" /><circle cx="309.082" cy="483.199" fill="rgb(100%,0%,0%)" r="0.7" /><circle cx="345.18236807" cy="390.318910871" fill="rgb(0%,0%,100%)" r="0.7" /><circle cx="348.16530173" cy="390.621640046" fill="rgb(0%,0%,100%)" r="0.7" /><circle cx="351.072350006" cy="391.347311601" fill="rgb(0%,0%,100%)" r="0.7" /><circle cx="353.754487233" cy="392.672230362" fill="rgb(0%,0%,100%)" r="0.7" /><circle cx="355.896054747" cy="394.749952516" fill="rgb(0%,0%,100%)" r="0.7" /><circle cx="357.11552858" cy="397.470882109" fill="rgb(0%,0%,100%)" r="0.7" /><circle cx="357.297422248" cy="400.45071215" fill="rgb(0%,0%,100%)" r="0.7" /><circle cx="356.461294931" cy="403.293602704" fill="rgb(0%,0%,100%)" r="0.7" /><circle cx="354.256561802" cy="405.289694534" fill="rgb(0%,0%,100%)" r="0.7" /><circle cx="351.50764142" cy="406.475013582" fill="rgb(0%,0%,100%)" r="0.7" /><circle cx="348.592445902" cy="407.174424408" fill="rgb(0%,0%,100%)" r="0.7" /><circle cx="345.61863355" cy="407.562730353" fill="rgb(0%,0%,100%)" r="0.7" /><circle cx="342.623378965" cy="407.719857009" fill="rgb(0%,0%,100%)" r="0.7" /><circle cx="339.68723675" cy="408.137005838" fill="rgb(0%,0%,100%)" r="0.7" /><circle cx="336.961185594" cy="409.380681227" fill="rgb(0%,0%,100%)" r="0.7" /><circle cx="334.463997763" cy="411.038499077" fill="rgb(0%,0%,100%)" r="0.7" /><circle cx="332.20401339" cy="413.008800957" fill="rgb(0%,0%,100%)" r="0.7" /><circle cx="330.164755854" cy="415.207582425" fill="rgb(0%,0%,100%)" r="0.7" /><circle cx="328.320671876" cy="417.572940434" fill="rgb(0%,0%,100%)" r="0.7" /><circle cx="326.645676424" cy="420.061199417" fill="rgb(0%,0%,100%)" r="0.7" /><circle cx="325.116459411" cy="422.641798947" fill="rgb(0%,0%,100%)" r="0.7" /><circle cx="323.713287432" cy="425.293144158" fill="rgb(0%,0%,100%)" r="0.7" /><circle cx="322.419780897" cy="427.999761714" fill="rgb(0%,0%,100%)" r="0.7" /><circle cx="321.222450003" cy="430.750317718" fill="rgb(0%,0%,100%)" r="0.7" /><circle cx="320.110154314" cy="433.536389574" fill="rgb(0%,0%,100%)" r="0.7" /><circle cx="319.073671751" cy="436.351566618" fill="rgb(0%,0%,100%)" r="0.7" /><circle cx="318.105311597" cy="439.19091675" fill="rgb(0%,0%,100%)" r="0.7" /><circle cx="317.198629795" cy="442.050570181" fill="rgb(0%,0%,100%)" r="0.7" /><circle cx="316.348193254" cy="444.927460954" fill="rgb(0%,0%,100%)" r="0.7" /><circle cx="315.549402836" cy="447.81912656" fill="rgb(0%,0%,100%)" r="0.7" /><circle cx="314.798355169" cy="450.723564286" fill="rgb(0%,0%,100%)" r="0.7" /><circle cx="314.091735338" cy="453.639128572" fill="rgb(0%,0%,100%)" r="0.7" /><circle cx="313.426730748" cy="456.564477179" fill="rgb(0%,0%,100%)" r="0.7" /><circle cx="312.800983869" cy="459.498464713" fill="rgb(0%,0%,100%)" r="0.7" /><circle cx="312.212536658" cy="462.44017846" fill="rgb(0%,0%,100%)" r="0.7" /><circle cx="311.65983494" cy="465.388808014" fill="rgb(0%,0%,100%)" r="0.7" /><circle cx="311.141720899" cy="468.343712299" fill="rgb(0%,0%,100%)" r="0.7" /><circle cx="310.657494808" cy="471.304367533" fill="rgb(0%,0%,100%)" r="0.7" /><circle cx="310.20705496" cy="474.270328165" fill="rgb(0%,0%,100%)" r="0.7" /><circle cx="309.791210372" cy="477.241355294" fill="rgb(0%,0%,100%)" r="0.7" /><circle cx="309.412677208" cy="480.217337464" fill="rgb(0%,0%,100%)" r="0.7" /><circle cx="309.082" cy="483.199" fill="rgb(0%,0%,100%)" r="0.7" /></svg>