<?xml version="1.0" encoding="utf-8" ?>
<svg baseProfile="full" height="100%" version="1.1" width="100%" xmlns="http://www.w3.org/2000/svg" xmlns:ev="http://www.w3.org/2001/xml-events" xmlns:xlink="http://www.w3.org/1999/xlink"><defs /><circle cx="320.561762196" cy="331.540862073" fill="rgb(100%,0%,0%)" r="0.7" /><circle cx="317.578916133" cy="331.717304343" fill="rgb(100%,0%,0%)" r="0.7" /><circle cx="314.822796114" cy="332.8615713" fill="rgb(100%,0%,0%)" r="0.7" /><circle cx="312.641955534" cy="334.897552409" fill="rgb(100%,0%,0%)" r="0.7" /><circle cx="310.781519525" cy="337.250934606" fill="rgb(100%,0%,0%)" r="0.7" /><circle cx="308.969519562" cy="339.641829543" fill="rgb(100%,0%,0%)" r="0.7" /><circle cx="307.198438489" cy="342.063205196" fill="rgb(100%,0%,0%)" r="0.7" /><circle cx="305.465617466" cy="344.512135288" fill="rgb(100%,0%,0%)" r="0.7" /><circle cx="303.770057975" cy="346.986979237" fill="rgb(100%,0%,0%)" r="0.7" /><circle cx="302.111541289" cy="349.486807813" fill="rgb(100%,0%,0%)" r="0.7" /><circle cx="300.490386383" cy="352.011034905" fill="rgb(100%,0%,0%)" r="0.7" /><circle cx="298.907293182" cy="354.559298044" fill="rgb(100%,0%,0%)" r="0.7" /><circle cx="297.363251277" cy="357.131409025" fill="rgb(100%,0%,0%)" r="0.7" /><circle cx="295.85951219" cy="359.727288538" fill="rgb(100%,0%,0%)" r="0.7" /><circle cx="294.397571272" cy="362.346929773" fill="rgb(100%,0%,0%)" r="0.7" /><circle cx="292.979151093" cy="364.990389288" fill="rgb(100%,0%,0%)" r="0.7" /><circle cx="291.606211212" cy="367.657749783" fill="rgb(100%,0%,0%)" r="0.7" /><circle cx="290.28094739" cy="370.349114188" fill="rgb(100%,0%,0%)" r="0.7" /><circle cx="289.005806418" cy="373.064579243" fill="rgb(100%,0%,0%)" r="0.7" /><circle cx="287.783496131" cy="375.804224658" fill="rgb(100%,0%,0%)" r="0.7" /><circle cx="286.617001649" cy="378.568094695" fill="rgb(100%,0%,0%)" r="0.7" /><circle cx="285.509609079" cy="381.356164111" fill="rgb(100%,0%,0%)" r="0.7" /><circle cx="284.464921395" cy="384.168321769" fill="rgb(100%,0%,0%)" r="0.7" /><circle cx="283.486880019" cy="387.004339312" fill="rgb(100%,0%,0%)" r="0.7" /><circle cx="282.579786798" cy="389.863831738" fill="rgb(100%,0%,0%)" r="0.7" /><circle cx="281.74832344" cy="392.746212533" fill="rgb(100%,0%,0%)" r="0.7" /><circle cx="280.997565177" cy="395.650648254" fill="rgb(100%,0%,0%)" r="0.7" /><circle cx="280.319332575" cy="398.572789535" fill="rgb(100%,0%,0%)" r="0.7" /><circle cx="279.729507791" cy="401.514149934" fill="rgb(100%,0%,0%)" r="0.7" /><circle cx="279.211082703" cy="404.468948579" fill="rgb(100%,0%,0%)" r="0.7" /><circle cx="278.760023979" cy="407.434791443" fill="rgb(100%,0%,0%)" r="0.7" /><circle cx="278.376040195" cy="410.410045628" fill="rgb(100%,0%,0%)" r="0.7" /><circle cx="278.060695077" cy="413.393361149" fill="rgb(100%,0%,0%)" r="0.7" /><circle cx="277.816826371" cy="416.383360358" fill="rgb(100%,0%,0%)" r="0.7" /><circle cx="277.648322362" cy="419.378539205" fill="rgb(100%,0%,0%)" r="0.7" /><circle cx="277.560059764" cy="422.377145038" fill="rgb(100%,0%,0%)" r="0.7" /><circle cx="277.557920723" cy="425.377037074" fill="rgb(100%,0%,0%)" r="0.7" /><circle cx="277.648855636" cy="428.375527093" fill="rgb(100%,0%,0%)" r="0.7" /><circle cx="277.840977357" cy="431.369215333" fill="rgb(100%,0%,0%)" r="0.7" /><circle cx="278.143670299" cy="434.353716953" fill="rgb(100%,0%,0%)" r="0.7" /><circle cx="278.567699004" cy="437.323368165" fill="rgb(100%,0%,0%)" r="0.7" /><circle cx="279.125283727" cy="440.270809341" fill="rgb(100%,0%,0%)" r="0.7" /><circle cx="279.830097658" cy="443.18647992" fill="rgb(100%,0%,0%)" r="0.7" /><circle cx="280.697107938" cy="446.05800653" fill="rgb(100%,0%,0%)" r="0.7" /><circle cx="281.742145452" cy="448.869520212" fill="rgb(100%,0%,0%)" r="0.7" /><circle cx="282.981053471" cy="451.601009058" fill="rgb(100%,0%,0%)" r="0.7" /><circle cx="284.428253244" cy="454.227909863" fill="rgb(100%,0%,0%)" r="0.7" /><circle cx="285.822162416" cy="456.883443787" fill="rgb(100%,0%,0%)" r="0.7" /><circle cx="287.323346538" cy="459.480657699" fill="rgb(100%,0%,0%)" r="0.7" /><circle cx="288.907199586" cy="462.028364538" fill="rgb(100%,0%,0%)" r="0.7" /><circle cx="290.559603129" cy="464.532175686" fill="rgb(100%,0%,0%)" r="0.7" /><circle cx="292.272398322" cy="466.995077516" fill="rgb(100%,0%,0%)" r="0.7" /><circle cx="294.04002842" cy="469.418944881" fill="rgb(100%,0%,0%)" r="0.7" /><circle cx="295.858339178" cy="471.805044267" fill="rgb(100%,0%,0%)" r="0.7" /><circle cx="297.724029224" cy="474.154268106" fill="rgb(100%,0%,0%)" r="0.7" /><circle cx="299.63440946" cy="476.467323475" fill="rgb(100%,0%,0%)" r="0.7" /><circle cx="301.587156229" cy="478.744711136" fill="rgb(100%,0%,0%)" r="0.7" /><circle cx="303.580277022" cy="480.986862381" fill="rgb(100%,0%,0%)" r="0.7" /><circle cx="305.611986682" cy="483.194107846" fill="rgb(100%,0%,0%)" r="0.7" /><circle cx="307.680685696" cy="485.366731693" fill="rgb(100%,0%,0%)" r="0.7" /><circle cx="309.784913383" cy="487.504974217" fill="rgb(100%,0%,0%)" r="0.7" /><circle cx="311.92331291" cy="489.609035068" fill="rgb(100%,0%,0%)" r="0.7" /><circle cx="314.094632613" cy="491.679103098" fill="rgb(100%,0%,0%)" r="0.7" /><circle cx="316.297692269" cy="493.715344275" fill="rgb(100%,0%,0%)" r="0.7" /><circle cx="318.531411044" cy="495.717942869" fill="rgb(100%,0%,0%)" r="0.7" /><circle cx="320.794711788" cy="497.68702709" fill="rgb(100%,0%,0%)" r="0.7" /><circle cx="323.086600592" cy="499.622751597" fill="rgb(100%,0%,0%)" r="0.7" /><circle cx="325.406136373" cy="501.525275986" fill="rgb(100%,0%,0%)" r="0.7" /><circle cx="327.752406336" cy="503.394750357" fill="rgb(100%,0%,0%)" r="0.7" /><circle cx="330.124512104" cy="505.231310653" fill="rgb(100%,0%,0%)" r="0.7" /><circle cx="332.521614665" cy="507.035117918" fill="rgb(100%,0%,0%)" r="0.7" /><circle cx="334.94290416" cy="508.80633646" fill="rgb(100%,0%,0%)" r="0.7" /><circle cx="337.374913486" cy="510.522872293" fill="rgb(100%,0%,0%)" r="0.7" /><circle cx="320.561762196" cy="331.540862073" fill="rgb(0%,0%,100%)" r="0.7" /><circle cx="323.437007239" cy="332.329636797" fill="rgb(0%,0%,100%)" r="0.7" /><circle cx="326.383918762" cy="332.814197587" fill="rgb(0%,0%,100%)" r="0.7" /><circle cx="329.329541132" cy="332.314539222" fill="rgb(0%,0%,100%)" r="0.7" /><circle cx="332.320774173" cy="332.145521338" fill="rgb(0%,0%,100%)" r="0.7" /><circle cx="335.296508784" cy="332.490901278" fill="rgb(0%,0%,100%)" r="0.7" /><circle cx="338.106852326" cy="333.509797494" fill="rgb(0%,0%,100%)" r="0.7" /><circle cx="340.327243597" cy="335.486020421" fill="rgb(0%,0%,100%)" r="0.7" /><circle cx="341.338982692" cy="338.279836487" fill="rgb(0%,0%,100%)" r="0.7" /><circle cx="341.129955656" cy="341.25137693" fill="rgb(0%,0%,100%)" r="0.7" /><circle cx="339.545840687" cy="343.757441406" fill="rgb(0%,0%,100%)" r="0.7" /><circle cx="337.01048232" cy="345.331644426" fill="rgb(0%,0%,100%)" r="0.7" /><circle cx="334.137396165" cy="346.17757701" fill="rgb(0%,0%,100%)" r="0.7" /><circle cx="331.163779073" cy="346.559237709" fill="rgb(0%,0%,100%)" r="0.7" /><circle cx="328.165458683" cy="346.615438154" fill="rgb(0%,0%,100%)" r="0.7" /><circle cx="325.180999819" cy="346.618253202" fill="rgb(0%,0%,100%)" r="0.7" /><circle cx="322.470646352" cy="347.877963067" fill="rgb(0%,0%,100%)" r="0.7" /><circle cx="320.035418193" cy="349.627031425" fill="rgb(0%,0%,100%)" r="0.7" /><circle cx="317.795930269" cy="351.616773505" fill="rgb(0%,0%,100%)" r="0.7" /><circle cx="315.978424599" cy="353.999266459" fill="rgb(0%,0%,100%)" r="0.7" /><circle cx="313.715404662" cy="355.955015382" fill="rgb(0%,0%,100%)" r="0.7" /><circle cx="311.698692983" cy="358.125703051" fill="rgb(0%,0%,100%)" r="0.7" /><circle cx="310.107134866" cy="360.668205634" fill="rgb(0%,0%,100%)" r="0.7" /><circle cx="308.64054011" cy="363.284827613" fill="rgb(0%,0%,100%)" r="0.7" /><circle cx="307.327636113" cy="365.982016667" fill="rgb(0%,0%,100%)" r="0.7" /><circle cx="306.104445125" cy="368.721238146" fill="rgb(0%,0%,100%)" r="0.7" /><circle cx="304.935465089" cy="371.484084816" fill="rgb(0%,0%,100%)" r="0.7" /><circle cx="303.804110887" cy="374.262562073" fill="rgb(0%,0%,100%)" r="0.7" /><circle cx="302.701081633" cy="377.052414666" fill="rgb(0%,0%,100%)" r="0.7" /><circle cx="301.620596521" cy="379.851079363" fill="rgb(0%,0%,100%)" r="0.7" /><circle cx="300.558830282" cy="382.656901234" fill="rgb(0%,0%,100%)" r="0.7" /><circle cx="299.513177112" cy="385.468767102" fill="rgb(0%,0%,100%)" r="0.7" /><circle cx="298.48188968" cy="388.285929972" fill="rgb(0%,0%,100%)" r="0.7" /><circle cx="297.463950154" cy="391.107955742" fill="rgb(0%,0%,100%)" r="0.7" /><circle cx="296.459304457" cy="393.934738176" fill="rgb(0%,0%,100%)" r="0.7" /><circle cx="295.496210802" cy="396.775471474" fill="rgb(0%,0%,100%)" r="0.7" /><circle cx="294.766834468" cy="399.684628846" fill="rgb(0%,0%,100%)" r="0.7" /><circle cx="294.250917992" cy="402.639384177" fill="rgb(0%,0%,100%)" r="0.7" /><circle cx="293.914012725" cy="405.620025402" fill="rgb(0%,0%,100%)" r="0.7" /><circle cx="293.728603329" cy="408.614018603" fill="rgb(0%,0%,100%)" r="0.7" /><circle cx="293.672869495" cy="411.613299601" fill="rgb(0%,0%,100%)" r="0.7" /><circle cx="293.729483214" cy="414.612613441" fill="rgb(0%,0%,100%)" r="0.7" /><circle cx="293.884621534" cy="417.608481082" fill="rgb(0%,0%,100%)" r="0.7" /><circle cx="294.127207336" cy="420.59856123" fill="rgb(0%,0%,100%)" r="0.7" /><circle cx="294.448346373" cy="423.581244177" fill="rgb(0%,0%,100%)" r="0.7" /><circle cx="294.840924203" cy="426.555385717" fill="rgb(0%,0%,100%)" r="0.7" /><circle cx="295.299333484" cy="429.520096014" fill="rgb(0%,0%,100%)" r="0.7" /><circle cx="295.819339406" cy="432.474631179" fill="rgb(0%,0%,100%)" r="0.7" /><circle cx="296.398101241" cy="435.418224936" fill="rgb(0%,0%,100%)" r="0.7" /><circle cx="297.034507392" cy="438.349895831" fill="rgb(0%,0%,100%)" r="0.7" /><circle cx="297.730444344" cy="441.268014074" fill="rgb(0%,0%,100%)" r="0.7" /><circle cx="298.499889372" cy="444.16745902" fill="rgb(0%,0%,100%)" r="0.7" /><circle cx="299.634174145" cy="446.941746736" fill="rgb(0%,0%,100%)" r="0.7" /><circle cx="301.069634054" cy="449.575085678" fill="rgb(0%,0%,100%)" r="0.7" /><circle cx="302.674999552" cy="452.10901948" fill="rgb(0%,0%,100%)" r="0.7" /><circle cx="304.391021858" cy="454.569542085" fill="rgb(0%,0%,100%)" r="0.7" /><circle cx="306.185831987" cy="456.973306261" fill="rgb(0%,0%,100%)" r="0.7" /><circle cx="308.040169211" cy="459.331494294" fill="rgb(0%,0%,100%)" r="0.7" /><circle cx="309.941461949" cy="461.652023046" fill="rgb(0%,0%,100%)" r="0.7" /><circle cx="311.881002172" cy="463.940696122" fill="rgb(0%,0%,100%)" r="0.7" /><circle cx="313.852499049" cy="466.201914914" fill="rgb(0%,0%,100%)" r="0.7" /><circle cx="315.85123957" cy="468.43908748" fill="rgb(0%,0%,100%)" r="0.7" /><circle cx="317.873613112" cy="470.654924575" fill="rgb(0%,0%,100%)" r="0.7" /><circle cx="319.916784182" cy="472.851604411" fill="rgb(0%,0%,100%)" r="0.7" /><circle cx="321.978489888" cy="475.030900077" fill="rgb(0%,0%,100%)" r="0.7" /><circle cx="324.0569039" cy="477.194269315" fill="rgb(0%,0%,100%)" r="0.7" /><circle cx="326.150537722" cy="479.34291296" fill="rgb(0%,0%,100%)" r="0.7" /><circle cx="328.258178708" cy="481.477823278" fill="rgb(0%,0%,100%)" r="0.7" /><circle cx="330.378835842" cy="483.59980505" fill="rgb(0%,0%,100%)" r="0.7" /><circle cx="332.511713981" cy="485.709497188" fill="rgb(0%,0%,100%)" r="0.7" /><circle cx="334.656199084" cy="487.807377852" fill="rgb(0%,0%,100%)" r="0.7" /><circle cx="336.8118878" cy="489.893779111" fill="rgb(0%,0%,100%)" r="0.7" /><circle cx="338.97854458" cy="491.968776035" fill="rgb(0%,0%,100%)" r="0.7" /><circle cx="341.156253202" cy="494.032140333" fill="rgb(0%,0%,100%)" r="0.7" /><circle cx="343.345726836" cy="496.0830427" fill="rgb(0%,0%,100%)" r="0.7" /><circle cx="345.55" cy="498.118" fill="rgb(0%,0%,100%)" r="0.7" /><circle cx="344.831275473" cy="498.3671934" fill="rgb(0%,0%,100%)" r="0.7" /><circle cx="341.996810286" cy="499.349948255" fill="rgb(0%,0%,100%)" r="0.7" /><circle cx="339.1623451" cy="500.33270311" fill="rgb(0%,0%,100%)" r="0.7" /><circle cx="336.684791999" cy="501.549370617" fill="rgb(0%,0%,100%)" r="0.7" /><circle cx="336.914832495" cy="504.540537842" fill="rgb(0%,0%,100%)" r="0.7" /><circle cx="337.14487299" cy="507.531705068" fill="rgb(0%,0%,100%)" r="0.7" /><circle cx="337.374913486" cy="510.522872293" fill="rgb(0%,0%,100%)" r="0.7" /></svg>