<?xml version="1.0" encoding="utf-8" ?>
<svg baseProfile="full" height="100%" version="1.1" width="100%" xmlns="http://www.w3.org/2000/svg" xmlns:ev="http://www.w3.org/2001/xml-events" xmlns:xlink="http://www.w3.org/1999/xlink"><defs /><circle cx="298.947126941" cy="306.225040818" fill="rgb(100%,0%,0%)" r="0.7" /><circle cx="296.226971138" cy="307.417617673" fill="rgb(100%,0%,0%)" r="0.7" /><circle cx="294.286773074" cy="309.691064221" fill="rgb(100%,0%,0%)" r="0.7" /><circle cx="292.838538132" cy="312.315659024" fill="rgb(100%,0%,0%)" r="0.7" /><circle cx="291.650399302" cy="315.069017331" fill="rgb(100%,0%,0%)" r="0.7" /><circle cx="290.449971157" cy="317.818173526" fill="rgb(100%,0%,0%)" r="0.7" /><circle cx="289.335741732" cy="320.603499058" fill="rgb(100%,0%,0%)" r="0.7" /><circle cx="288.280916024" cy="323.411897091" fill="rgb(100%,0%,0%)" r="0.7" /><circle cx="287.270684432" cy="326.236661507" fill="rgb(100%,0%,0%)" r="0.7" /><circle cx="286.295972199" cy="329.073887461" fill="rgb(100%,0%,0%)" r="0.7" /><circle cx="285.350903003" cy="331.921128871" fill="rgb(100%,0%,0%)" r="0.7" /><circle cx="284.431654212" cy="334.776809628" fill="rgb(100%,0%,0%)" r="0.7" /><circle cx="283.536015192" cy="337.639993306" fill="rgb(100%,0%,0%)" r="0.7" /><circle cx="282.66379475" cy="340.510388294" fill="rgb(100%,0%,0%)" r="0.7" /><circle cx="281.794045707" cy="343.381421804" fill="rgb(100%,0%,0%)" r="0.7" /><circle cx="280.914054747" cy="346.249448427" fill="rgb(100%,0%,0%)" r="0.7" /><circle cx="280.054661423" cy="349.123717077" fill="rgb(100%,0%,0%)" r="0.7" /><circle cx="279.212697321" cy="352.003142111" fill="rgb(100%,0%,0%)" r="0.7" /><circle cx="278.385770732" cy="354.886919758" fill="rgb(100%,0%,0%)" r="0.7" /><circle cx="277.572025488" cy="357.774447016" fill="rgb(100%,0%,0%)" r="0.7" /><circle cx="276.769994603" cy="360.6652496" fill="rgb(100%,0%,0%)" r="0.7" /><circle cx="275.978498044" cy="363.558955346" fill="rgb(100%,0%,0%)" r="0.7" /><circle cx="275.196577143" cy="366.455262785" fill="rgb(100%,0%,0%)" r="0.7" /><circle cx="274.423446132" cy="369.35393033" fill="rgb(100%,0%,0%)" r="0.7" /><circle cx="273.658462144" cy="372.254754344" fill="rgb(100%,0%,0%)" r="0.7" /><circle cx="272.901096553" cy="375.157584488" fill="rgb(100%,0%,0%)" r="0.7" /><circle cx="272.150932197" cy="378.062274304" fill="rgb(100%,0%,0%)" r="0.7" /><circle cx="271.407639974" cy="380.968742656" fill="rgb(100%,0%,0%)" r="0.7" /><circle cx="270.671002535" cy="383.876890614" fill="rgb(100%,0%,0%)" r="0.7" /><circle cx="269.940906477" cy="386.786700648" fill="rgb(100%,0%,0%)" r="0.7" /><circle cx="269.217412186" cy="389.698157712" fill="rgb(100%,0%,0%)" r="0.7" /><circle cx="268.500878306" cy="392.611329543" fill="rgb(100%,0%,0%)" r="0.7" /><circle cx="267.792581361" cy="395.526522295" fill="rgb(100%,0%,0%)" r="0.7" /><circle cx="267.157026029" cy="398.458139756" fill="rgb(100%,0%,0%)" r="0.7" /><circle cx="266.606663236" cy="401.407157489" fill="rgb(100%,0%,0%)" r="0.7" /><circle cx="266.117372779" cy="404.366944666" fill="rgb(100%,0%,0%)" r="0.7" /><circle cx="265.678673364" cy="407.334665033" fill="rgb(100%,0%,0%)" r="0.7" /><circle cx="265.283204318" cy="410.308462869" fill="rgb(100%,0%,0%)" r="0.7" /><circle cx="264.92573288" cy="413.287072177" fill="rgb(100%,0%,0%)" r="0.7" /><circle cx="264.602637233" cy="416.269603846" fill="rgb(100%,0%,0%)" r="0.7" /><circle cx="264.311745709" cy="419.25545369" fill="rgb(100%,0%,0%)" r="0.7" /><circle cx="264.052741836" cy="422.244242576" fill="rgb(100%,0%,0%)" r="0.7" /><circle cx="263.831" cy="425.236" fill="rgb(100%,0%,0%)" r="0.7" /><circle cx="264.521144462" cy="424.216410047" fill="rgb(100%,0%,0%)" r="0.7" /><circle cx="266.202777683" cy="421.732036945" fill="rgb(100%,0%,0%)" r="0.7" /><circle cx="267.884410904" cy="419.247663843" fill="rgb(100%,0%,0%)" r="0.7" /><circle cx="269.566044126" cy="416.763290741" fill="rgb(100%,0%,0%)" r="0.7" /><circle cx="271.247677347" cy="414.27891764" fill="rgb(100%,0%,0%)" r="0.7" /><circle cx="272.929310568" cy="411.794544538" fill="rgb(100%,0%,0%)" r="0.7" /><circle cx="274.610943789" cy="409.310171436" fill="rgb(100%,0%,0%)" r="0.7" /><circle cx="276.174053353" cy="411.163792172" fill="rgb(100%,0%,0%)" r="0.7" /><circle cx="277.717521804" cy="413.736282238" fill="rgb(100%,0%,0%)" r="0.7" /><circle cx="279.260990256" cy="416.308772304" fill="rgb(100%,0%,0%)" r="0.7" /><circle cx="280.804458707" cy="418.88126237" fill="rgb(100%,0%,0%)" r="0.7" /><circle cx="282.347927159" cy="421.453752436" fill="rgb(100%,0%,0%)" r="0.7" /><circle cx="283.89139561" cy="424.026242502" fill="rgb(100%,0%,0%)" r="0.7" /><circle cx="285.434864062" cy="426.598732568" fill="rgb(100%,0%,0%)" r="0.7" /><circle cx="286.947902984" cy="428.943670997" fill="rgb(100%,0%,0%)" r="0.7" /><circle cx="298.947126941" cy="306.225040818" fill="rgb(0%,0%,100%)" r="0.7" /><circle cx="301.893378372" cy="306.358634278" fill="rgb(0%,0%,100%)" r="0.7" /><circle cx="303.942330815" cy="308.454910335" fill="rgb(0%,0%,100%)" r="0.7" /><circle cx="304.724464794" cy="311.341005259" fill="rgb(0%,0%,100%)" r="0.7" /><circle cx="305.178966614" cy="314.306154957" fill="rgb(0%,0%,100%)" r="0.7" /><circle cx="305.531728693" cy="317.285229365" fill="rgb(0%,0%,100%)" r="0.7" /><circle cx="305.806523447" cy="320.272545507" fill="rgb(0%,0%,100%)" r="0.7" /><circle cx="306.013860989" cy="323.265315962" fill="rgb(0%,0%,100%)" r="0.7" /><circle cx="306.160098507" cy="326.26170121" fill="rgb(0%,0%,100%)" r="0.7" /><circle cx="306.24962146" cy="329.260328445" fill="rgb(0%,0%,100%)" r="0.7" /><circle cx="306.285695191" cy="332.260067186" fill="rgb(0%,0%,100%)" r="0.7" /><circle cx="306.27087958" cy="335.260007012" fill="rgb(0%,0%,100%)" r="0.7" /><circle cx="306.207257108" cy="338.259287662" fill="rgb(0%,0%,100%)" r="0.7" /><circle cx="306.096569621" cy="341.257219816" fill="rgb(0%,0%,100%)" r="0.7" /><circle cx="305.940309609" cy="344.253117227" fill="rgb(0%,0%,100%)" r="0.7" /><circle cx="305.73977718" cy="347.246391302" fill="rgb(0%,0%,100%)" r="0.7" /><circle cx="305.496127848" cy="350.23644302" fill="rgb(0%,0%,100%)" r="0.7" /><circle cx="305.210393509" cy="353.222788157" fill="rgb(0%,0%,100%)" r="0.7" /><circle cx="304.88351781" cy="356.204897626" fill="rgb(0%,0%,100%)" r="0.7" /><circle cx="304.516361368" cy="359.182327647" fill="rgb(0%,0%,100%)" r="0.7" /><circle cx="304.10972608" cy="362.154613544" fill="rgb(0%,0%,100%)" r="0.7" /><circle cx="303.664355939" cy="365.121349097" fill="rgb(0%,0%,100%)" r="0.7" /><circle cx="303.180951872" cy="368.082132588" fill="rgb(0%,0%,100%)" r="0.7" /><circle cx="302.637032712" cy="371.031365423" fill="rgb(0%,0%,100%)" r="0.7" /><circle cx="301.859092578" cy="373.928728469" fill="rgb(0%,0%,100%)" r="0.7" /><circle cx="301.080676882" cy="376.825989677" fill="rgb(0%,0%,100%)" r="0.7" /><circle cx="300.301870556" cy="379.723138826" fill="rgb(0%,0%,100%)" r="0.7" /><circle cx="299.522689752" cy="382.620176221" fill="rgb(0%,0%,100%)" r="0.7" /><circle cx="298.743124502" cy="385.517124994" fill="rgb(0%,0%,100%)" r="0.7" /><circle cx="297.96316583" cy="388.413961637" fill="rgb(0%,0%,100%)" r="0.7" /><circle cx="297.182787272" cy="391.310693571" fill="rgb(0%,0%,100%)" r="0.7" /><circle cx="296.401962608" cy="394.207294236" fill="rgb(0%,0%,100%)" r="0.7" /><circle cx="295.620646869" cy="397.103770128" fill="rgb(0%,0%,100%)" r="0.7" /><circle cx="294.838791782" cy="400.000096205" fill="rgb(0%,0%,100%)" r="0.7" /><circle cx="294.056330561" cy="402.896260406" fill="rgb(0%,0%,100%)" r="0.7" /><circle cx="293.273179839" cy="405.792238129" fill="rgb(0%,0%,100%)" r="0.7" /><circle cx="292.489229766" cy="408.688000214" fill="rgb(0%,0%,100%)" r="0.7" /><circle cx="291.704335377" cy="411.583498749" fill="rgb(0%,0%,100%)" r="0.7" /><circle cx="290.918288831" cy="414.478691362" fill="rgb(0%,0%,100%)" r="0.7" /><circle cx="290.130792817" cy="417.37349731" fill="rgb(0%,0%,100%)" r="0.7" /><circle cx="289.341389723" cy="420.267775131" fill="rgb(0%,0%,100%)" r="0.7" /><circle cx="288.54928978" cy="423.161306744" fill="rgb(0%,0%,100%)" r="0.7" /><circle cx="287.75290289" cy="426.053684155" fill="rgb(0%,0%,100%)" r="0.7" /><circle cx="286.947902984" cy="428.943670997" fill="rgb(0%,0%,100%)" r="0.7" /></svg>