<?xml version="1.0" encoding="utf-8" ?>
<svg baseProfile="full" height="100%" version="1.1" width="100%" xmlns="http://www.w3.org/2000/svg" xmlns:ev="http://www.w3.org/2001/xml-events" xmlns:xlink="http://www.w3.org/1999/xlink"><defs /><circle cx="243.340252404" cy="309.566469335" fill="rgb(100%,0%,0%)" r="0.7" /><circle cx="240.708239508" cy="310.722684546" fill="rgb(100%,0%,0%)" r="0.7" /><circle cx="238.831940924" cy="313.05665797" fill="rgb(100%,0%,0%)" r="0.7" /><circle cx="237.400382191" cy="315.681197224" fill="rgb(100%,0%,0%)" r="0.7" /><circle cx="236.590184554" cy="318.568349806" fill="rgb(100%,0%,0%)" r="0.7" /><circle cx="236.070705827" cy="321.521863345" fill="rgb(100%,0%,0%)" r="0.7" /><circle cx="235.824974804" cy="324.510808036" fill="rgb(100%,0%,0%)" r="0.7" /><circle cx="235.831645458" cy="327.509992952" fill="rgb(100%,0%,0%)" r="0.7" /><circle cx="236.068394836" cy="330.499960493" fill="rgb(100%,0%,0%)" r="0.7" /><circle cx="236.514420253" cy="333.466047251" fill="rgb(100%,0%,0%)" r="0.7" /><circle cx="237.152253198" cy="336.396952071" fill="rgb(100%,0%,0%)" r="0.7" /><circle cx="237.969660942" cy="339.282966392" fill="rgb(100%,0%,0%)" r="0.7" /><circle cx="238.96411806" cy="342.112803918" fill="rgb(100%,0%,0%)" r="0.7" /><circle cx="240.000580911" cy="344.916454879" fill="rgb(100%,0%,0%)" r="0.7" /><circle cx="240.590637181" cy="347.857804969" fill="rgb(100%,0%,0%)" r="0.7" /><circle cx="241.123713632" cy="350.810019124" fill="rgb(100%,0%,0%)" r="0.7" /><circle cx="241.603141881" cy="353.77142433" fill="rgb(100%,0%,0%)" r="0.7" /><circle cx="242.031941155" cy="356.740587448" fill="rgb(100%,0%,0%)" r="0.7" /><circle cx="242.4128476" cy="359.716277048" fill="rgb(100%,0%,0%)" r="0.7" /><circle cx="242.748340439" cy="362.697431812" fill="rgb(100%,0%,0%)" r="0.7" /><circle cx="243.040664827" cy="365.683132059" fill="rgb(100%,0%,0%)" r="0.7" /><circle cx="243.291851642" cy="368.672572136" fill="rgb(100%,0%,0%)" r="0.7" /><circle cx="243.503736536" cy="371.665062976" fill="rgb(100%,0%,0%)" r="0.7" /><circle cx="243.677971486" cy="374.659977516" fill="rgb(100%,0%,0%)" r="0.7" /><circle cx="243.816040014" cy="377.656786579" fill="rgb(100%,0%,0%)" r="0.7" /><circle cx="243.919263026" cy="380.654990971" fill="rgb(100%,0%,0%)" r="0.7" /><circle cx="243.988807575" cy="383.654171181" fill="rgb(100%,0%,0%)" r="0.7" /><circle cx="244.02568743" cy="386.653934234" fill="rgb(100%,0%,0%)" r="0.7" /><circle cx="244.030762111" cy="389.653917449" fill="rgb(100%,0%,0%)" r="0.7" /><circle cx="244.004729489" cy="392.653792704" fill="rgb(100%,0%,0%)" r="0.7" /><circle cx="243.948110389" cy="395.653236048" fill="rgb(100%,0%,0%)" r="0.7" /><circle cx="243.861219289" cy="398.651976372" fill="rgb(100%,0%,0%)" r="0.7" /><circle cx="243.744117536" cy="401.649678259" fill="rgb(100%,0%,0%)" r="0.7" /><circle cx="243.596522778" cy="404.646017583" fill="rgb(100%,0%,0%)" r="0.7" /><circle cx="243.417634119" cy="407.640679676" fill="rgb(100%,0%,0%)" r="0.7" /><circle cx="243.205760074" cy="410.633173257" fill="rgb(100%,0%,0%)" r="0.7" /><circle cx="242.957237034" cy="413.622845566" fill="rgb(100%,0%,0%)" r="0.7" /><circle cx="242.66" cy="416.608" fill="rgb(100%,0%,0%)" r="0.7" /><circle cx="243.2175129" cy="415.464163275" fill="rgb(100%,0%,0%)" r="0.7" /><circle cx="244.531914854" cy="412.767434237" fill="rgb(100%,0%,0%)" r="0.7" /><circle cx="245.846316808" cy="410.070705199" fill="rgb(100%,0%,0%)" r="0.7" /><circle cx="247.160718762" cy="407.373976161" fill="rgb(100%,0%,0%)" r="0.7" /><circle cx="248.5056536" cy="407.243418751" fill="rgb(100%,0%,0%)" r="0.7" /><circle cx="249.883846941" cy="409.908110688" fill="rgb(100%,0%,0%)" r="0.7" /><circle cx="251.262040282" cy="412.572802624" fill="rgb(100%,0%,0%)" r="0.7" /><circle cx="252.640233622" cy="415.23749456" fill="rgb(100%,0%,0%)" r="0.7" /><circle cx="254.018426963" cy="417.902186497" fill="rgb(100%,0%,0%)" r="0.7" /><circle cx="243.340252404" cy="309.566469335" fill="rgb(0%,0%,100%)" r="0.7" /><circle cx="245.172065643" cy="311.802838194" fill="rgb(0%,0%,100%)" r="0.7" /><circle cx="245.890791752" cy="314.710956649" fill="rgb(0%,0%,100%)" r="0.7" /><circle cx="246.245190132" cy="317.689129746" fill="rgb(0%,0%,100%)" r="0.7" /><circle cx="246.615847867" cy="320.666138367" fill="rgb(0%,0%,100%)" r="0.7" /><circle cx="246.990187557" cy="323.642692974" fill="rgb(0%,0%,100%)" r="0.7" /><circle cx="247.367439973" cy="326.618882875" fill="rgb(0%,0%,100%)" r="0.7" /><circle cx="247.747752606" cy="329.594680397" fill="rgb(0%,0%,100%)" r="0.7" /><circle cx="248.131485406" cy="332.570038728" fill="rgb(0%,0%,100%)" r="0.7" /><circle cx="248.519214908" cy="335.544879145" fill="rgb(0%,0%,100%)" r="0.7" /><circle cx="248.911822476" cy="338.519078458" fill="rgb(0%,0%,100%)" r="0.7" /><circle cx="249.310696365" cy="341.492444427" fill="rgb(0%,0%,100%)" r="0.7" /><circle cx="249.718193753" cy="344.464642426" fill="rgb(0%,0%,100%)" r="0.7" /><circle cx="250.138897878" cy="347.434990301" fill="rgb(0%,0%,100%)" r="0.7" /><circle cx="250.58445082" cy="350.401709462" fill="rgb(0%,0%,100%)" r="0.7" /><circle cx="251.134097464" cy="353.350438536" fill="rgb(0%,0%,100%)" r="0.7" /><circle cx="251.659219967" cy="356.304089856" fill="rgb(0%,0%,100%)" r="0.7" /><circle cx="252.136113902" cy="359.265906214" fill="rgb(0%,0%,100%)" r="0.7" /><circle cx="252.571823046" cy="362.234077944" fill="rgb(0%,0%,100%)" r="0.7" /><circle cx="252.969748445" cy="365.207556801" fill="rgb(0%,0%,100%)" r="0.7" /><circle cx="253.331848775" cy="368.185606726" fill="rgb(0%,0%,100%)" r="0.7" /><circle cx="253.659327826" cy="371.167660785" fill="rgb(0%,0%,100%)" r="0.7" /><circle cx="253.952929759" cy="374.153243549" fill="rgb(0%,0%,100%)" r="0.7" /><circle cx="254.21309021" cy="377.14192269" fill="rgb(0%,0%,100%)" r="0.7" /><circle cx="254.440025659" cy="380.133312356" fill="rgb(0%,0%,100%)" r="0.7" /><circle cx="254.633785327" cy="383.127042619" fill="rgb(0%,0%,100%)" r="0.7" /><circle cx="254.794285008" cy="386.122722206" fill="rgb(0%,0%,100%)" r="0.7" /><circle cx="254.921336033" cy="389.120024664" fill="rgb(0%,0%,100%)" r="0.7" /><circle cx="255.014655093" cy="392.118549107" fill="rgb(0%,0%,100%)" r="0.7" /><circle cx="255.073882235" cy="395.117947821" fill="rgb(0%,0%,100%)" r="0.7" /><circle cx="255.09858609" cy="398.117831494" fill="rgb(0%,0%,100%)" r="0.7" /><circle cx="255.088272042" cy="401.117796082" fill="rgb(0%,0%,100%)" r="0.7" /><circle cx="255.042387197" cy="404.117427114" fill="rgb(0%,0%,100%)" r="0.7" /><circle cx="254.960324074" cy="407.11629189" fill="rgb(0%,0%,100%)" r="0.7" /><circle cx="254.841424698" cy="410.11391206" fill="rgb(0%,0%,100%)" r="0.7" /><circle cx="254.684981403" cy="413.10981355" fill="rgb(0%,0%,100%)" r="0.7" /><circle cx="254.490241431" cy="416.103461173" fill="rgb(0%,0%,100%)" r="0.7" /><circle cx="254.018426963" cy="417.902186497" fill="rgb(0%,0%,100%)" r="0.7" /></svg>