<?xml version="1.0" encoding="utf-8" ?>
<svg baseProfile="full" height="100%" version="1.1" width="100%" xmlns="http://www.w3.org/2000/svg" xmlns:ev="http://www.w3.org/2001/xml-events" xmlns:xlink="http://www.w3.org/1999/xlink"><defs /><circle cx="330.343959321" cy="231.821805877" fill="rgb(100%,0%,0%)" r="0.7" /><circle cx="327.377336772" cy="232.227286555" fill="rgb(100%,0%,0%)" r="0.7" /><circle cx="324.555399532" cy="233.231520211" fill="rgb(100%,0%,0%)" r="0.7" /><circle cx="321.819740181" cy="234.424149094" fill="rgb(100%,0%,0%)" r="0.7" /><circle cx="319.192348245" cy="235.861265643" fill="rgb(100%,0%,0%)" r="0.7" /><circle cx="316.819248389" cy="237.693557322" fill="rgb(100%,0%,0%)" r="0.7" /><circle cx="314.646361972" cy="239.760634424" fill="rgb(100%,0%,0%)" r="0.7" /><circle cx="312.637112903" cy="241.987641874" fill="rgb(100%,0%,0%)" r="0.7" /><circle cx="310.764855916" cy="244.331256334" fill="rgb(100%,0%,0%)" r="0.7" /><circle cx="309.009426908" cy="246.763750794" fill="rgb(100%,0%,0%)" r="0.7" /><circle cx="307.355151643" cy="249.266198905" fill="rgb(100%,0%,0%)" r="0.7" /><circle cx="305.789539926" cy="251.825128738" fill="rgb(100%,0%,0%)" r="0.7" /><circle cx="304.30251529" cy="254.430516396" fill="rgb(100%,0%,0%)" r="0.7" /><circle cx="302.885744101" cy="257.074807045" fill="rgb(100%,0%,0%)" r="0.7" /><circle cx="301.532300713" cy="259.752077943" fill="rgb(100%,0%,0%)" r="0.7" /><circle cx="300.236314644" cy="262.457675138" fill="rgb(100%,0%,0%)" r="0.7" /><circle cx="298.992811894" cy="265.187773278" fill="rgb(100%,0%,0%)" r="0.7" /><circle cx="297.797475516" cy="267.939308836" fill="rgb(100%,0%,0%)" r="0.7" /><circle cx="296.646572158" cy="270.709710101" fill="rgb(100%,0%,0%)" r="0.7" /><circle cx="295.536815493" cy="273.496869941" fill="rgb(100%,0%,0%)" r="0.7" /><circle cx="294.465324141" cy="276.298975673" fill="rgb(100%,0%,0%)" r="0.7" /><circle cx="293.429546161" cy="279.114473946" fill="rgb(100%,0%,0%)" r="0.7" /><circle cx="292.427196673" cy="281.942056111" fill="rgb(100%,0%,0%)" r="0.7" /><circle cx="291.456237942" cy="284.780563728" fill="rgb(100%,0%,0%)" r="0.7" /><circle cx="290.514826925" cy="287.629012135" fill="rgb(100%,0%,0%)" r="0.7" /><circle cx="289.601295735" cy="290.486545686" fill="rgb(100%,0%,0%)" r="0.7" /><circle cx="288.714148207" cy="293.352355042" fill="rgb(100%,0%,0%)" r="0.7" /><circle cx="287.919788562" cy="296.244864275" fill="rgb(100%,0%,0%)" r="0.7" /><circle cx="287.172741245" cy="299.150320223" fill="rgb(100%,0%,0%)" r="0.7" /><circle cx="286.44225168" cy="302.060091723" fill="rgb(100%,0%,0%)" r="0.7" /><circle cx="285.725622595" cy="304.973207067" fill="rgb(100%,0%,0%)" r="0.7" /><circle cx="285.021392777" cy="307.88934254" fill="rgb(100%,0%,0%)" r="0.7" /><circle cx="284.328639222" cy="310.808303368" fill="rgb(100%,0%,0%)" r="0.7" /><circle cx="283.646768629" cy="313.729766089" fill="rgb(100%,0%,0%)" r="0.7" /><circle cx="282.975313489" cy="316.653639538" fill="rgb(100%,0%,0%)" r="0.7" /><circle cx="282.313926818" cy="319.579831053" fill="rgb(100%,0%,0%)" r="0.7" /><circle cx="281.662353083" cy="322.508215084" fill="rgb(100%,0%,0%)" r="0.7" /><circle cx="281.020372655" cy="325.43878297" fill="rgb(100%,0%,0%)" r="0.7" /><circle cx="280.387856997" cy="328.371325131" fill="rgb(100%,0%,0%)" r="0.7" /><circle cx="279.764666099" cy="331.305853385" fill="rgb(100%,0%,0%)" r="0.7" /><circle cx="279.150696227" cy="334.242353329" fill="rgb(100%,0%,0%)" r="0.7" /><circle cx="278.545869325" cy="337.180807709" fill="rgb(100%,0%,0%)" r="0.7" /><circle cx="277.950165038" cy="340.121016772" fill="rgb(100%,0%,0%)" r="0.7" /><circle cx="277.363516079" cy="343.063096789" fill="rgb(100%,0%,0%)" r="0.7" /><circle cx="276.785903908" cy="346.007001994" fill="rgb(100%,0%,0%)" r="0.7" /><circle cx="276.217341527" cy="348.952590919" fill="rgb(100%,0%,0%)" r="0.7" /><circle cx="275.657804514" cy="351.89997656" fill="rgb(100%,0%,0%)" r="0.7" /><circle cx="275.107321784" cy="354.849051147" fill="rgb(100%,0%,0%)" r="0.7" /><circle cx="274.565918567" cy="357.799774812" fill="rgb(100%,0%,0%)" r="0.7" /><circle cx="274.033620648" cy="360.752153278" fill="rgb(100%,0%,0%)" r="0.7" /><circle cx="273.510457375" cy="363.70622101" fill="rgb(100%,0%,0%)" r="0.7" /><circle cx="272.996497682" cy="366.661831583" fill="rgb(100%,0%,0%)" r="0.7" /><circle cx="272.491775429" cy="369.619079337" fill="rgb(100%,0%,0%)" r="0.7" /><circle cx="271.996358471" cy="372.577903968" fill="rgb(100%,0%,0%)" r="0.7" /><circle cx="271.510316677" cy="375.538269973" fill="rgb(100%,0%,0%)" r="0.7" /><circle cx="271.033723211" cy="378.500159489" fill="rgb(100%,0%,0%)" r="0.7" /><circle cx="270.566655507" cy="381.463566594" fill="rgb(100%,0%,0%)" r="0.7" /><circle cx="270.10919599" cy="384.428492781" fill="rgb(100%,0%,0%)" r="0.7" /><circle cx="269.661439309" cy="387.394898577" fill="rgb(100%,0%,0%)" r="0.7" /><circle cx="269.223485671" cy="390.362743824" fill="rgb(100%,0%,0%)" r="0.7" /><circle cx="268.795430844" cy="393.332057347" fill="rgb(100%,0%,0%)" r="0.7" /><circle cx="268.37738738" cy="396.302792505" fill="rgb(100%,0%,0%)" r="0.7" /><circle cx="267.969471484" cy="399.274914405" fill="rgb(100%,0%,0%)" r="0.7" /><circle cx="267.571797656" cy="402.248442076" fill="rgb(100%,0%,0%)" r="0.7" /><circle cx="267.184493097" cy="405.223344004" fill="rgb(100%,0%,0%)" r="0.7" /><circle cx="266.807689991" cy="408.199593156" fill="rgb(100%,0%,0%)" r="0.7" /><circle cx="266.441525826" cy="411.177165586" fill="rgb(100%,0%,0%)" r="0.7" /><circle cx="266.086143668" cy="414.156039276" fill="rgb(100%,0%,0%)" r="0.7" /><circle cx="265.741692418" cy="417.136193168" fill="rgb(100%,0%,0%)" r="0.7" /><circle cx="265.408327033" cy="420.117606355" fill="rgb(100%,0%,0%)" r="0.7" /><circle cx="265.086208749" cy="423.100257408" fill="rgb(100%,0%,0%)" r="0.7" /><circle cx="264.775505278" cy="426.084123824" fill="rgb(100%,0%,0%)" r="0.7" /><circle cx="264.476391012" cy="429.069181564" fill="rgb(100%,0%,0%)" r="0.7" /><circle cx="264.189048326" cy="432.055392919" fill="rgb(100%,0%,0%)" r="0.7" /><circle cx="263.913666786" cy="435.042714521" fill="rgb(100%,0%,0%)" r="0.7" /><circle cx="263.650439184" cy="438.031144685" fill="rgb(100%,0%,0%)" r="0.7" /><circle cx="263.399569039" cy="441.020645234" fill="rgb(100%,0%,0%)" r="0.7" /><circle cx="263.161269192" cy="444.01115324" fill="rgb(100%,0%,0%)" r="0.7" /><circle cx="262.935755116" cy="447.002668947" fill="rgb(100%,0%,0%)" r="0.7" /><circle cx="262.72325525" cy="449.995129838" fill="rgb(100%,0%,0%)" r="0.7" /><circle cx="262.524004016" cy="452.98850286" fill="rgb(100%,0%,0%)" r="0.7" /><circle cx="262.338244994" cy="455.982748076" fill="rgb(100%,0%,0%)" r="0.7" /><circle cx="262.166231787" cy="458.977806827" fill="rgb(100%,0%,0%)" r="0.7" /><circle cx="262.008225786" cy="461.973645365" fill="rgb(100%,0%,0%)" r="0.7" /><circle cx="261.864499928" cy="464.970194508" fill="rgb(100%,0%,0%)" r="0.7" /><circle cx="261.735335693" cy="467.967413634" fill="rgb(100%,0%,0%)" r="0.7" /><circle cx="261.621026436" cy="470.965230166" fill="rgb(100%,0%,0%)" r="0.7" /><circle cx="261.521875556" cy="473.963590332" fill="rgb(100%,0%,0%)" r="0.7" /><circle cx="261.438198518" cy="476.962419554" fill="rgb(100%,0%,0%)" r="0.7" /><circle cx="261.370322361" cy="479.961649134" fill="rgb(100%,0%,0%)" r="0.7" /><circle cx="261.318586706" cy="482.961200226" fill="rgb(100%,0%,0%)" r="0.7" /><circle cx="261.283344083" cy="485.960989802" fill="rgb(100%,0%,0%)" r="0.7" /><circle cx="261.264960524" cy="488.960930737" fill="rgb(100%,0%,0%)" r="0.7" /><circle cx="261.263816178" cy="491.960926644" fill="rgb(100%,0%,0%)" r="0.7" /><circle cx="261.280305902" cy="494.960878177" fill="rgb(100%,0%,0%)" r="0.7" /><circle cx="261.314839905" cy="497.960675051" fill="rgb(100%,0%,0%)" r="0.7" /><circle cx="261.367844488" cy="500.960203489" fill="rgb(100%,0%,0%)" r="0.7" /><circle cx="261.439762617" cy="503.959335521" fill="rgb(100%,0%,0%)" r="0.7" /><circle cx="261.531055015" cy="506.957943985" fill="rgb(100%,0%,0%)" r="0.7" /><circle cx="261.642200175" cy="509.955874552" fill="rgb(100%,0%,0%)" r="0.7" /><circle cx="261.773696841" cy="512.952992386" fill="rgb(100%,0%,0%)" r="0.7" /><circle cx="261.926061819" cy="515.949106043" fill="rgb(100%,0%,0%)" r="0.7" /><circle cx="262.099835761" cy="518.944071688" fill="rgb(100%,0%,0%)" r="0.7" /><circle cx="262.295577958" cy="521.937671581" fill="rgb(100%,0%,0%)" r="0.7" /><circle cx="262.513872137" cy="524.929705036" fill="rgb(100%,0%,0%)" r="0.7" /><circle cx="262.755327662" cy="527.919975366" fill="rgb(100%,0%,0%)" r="0.7" /><circle cx="263.020574762" cy="530.908217075" fill="rgb(100%,0%,0%)" r="0.7" /><circle cx="263.310271824" cy="533.894176613" fill="rgb(100%,0%,0%)" r="0.7" /><circle cx="263.625107892" cy="536.877612011" fill="rgb(100%,0%,0%)" r="0.7" /><circle cx="263.965794522" cy="539.858201023" fill="rgb(100%,0%,0%)" r="0.7" /><circle cx="264.333075148" cy="542.835623603" fill="rgb(100%,0%,0%)" r="0.7" /><circle cx="264.72772442" cy="545.809537995" fill="rgb(100%,0%,0%)" r="0.7" /><circle cx="265.150549125" cy="548.779575289" fill="rgb(100%,0%,0%)" r="0.7" /><circle cx="265.602389408" cy="551.745336887" fill="rgb(100%,0%,0%)" r="0.7" /><circle cx="330.343959321" cy="231.821805877" fill="rgb(0%,0%,100%)" r="0.7" /><circle cx="333.328951975" cy="232.059151026" fill="rgb(0%,0%,100%)" r="0.7" /><circle cx="336.208918387" cy="232.883761045" fill="rgb(0%,0%,100%)" r="0.7" /><circle cx="338.910385427" cy="234.181702859" fill="rgb(0%,0%,100%)" r="0.7" /><circle cx="341.409736647" cy="235.837575889" fill="rgb(0%,0%,100%)" r="0.7" /><circle cx="343.710251362" cy="237.761127152" fill="rgb(0%,0%,100%)" r="0.7" /><circle cx="345.822828433" cy="239.889855523" fill="rgb(0%,0%,100%)" r="0.7" /><circle cx="347.752723944" cy="242.185639285" fill="rgb(0%,0%,100%)" r="0.7" /><circle cx="349.414089011" cy="244.677347742" fill="rgb(0%,0%,100%)" r="0.7" /><circle cx="350.783622091" cy="247.346276743" fill="rgb(0%,0%,100%)" r="0.7" /><circle cx="352.040349772" cy="250.070106834" fill="rgb(0%,0%,100%)" r="0.7" /><circle cx="353.178532059" cy="252.845559369" fill="rgb(0%,0%,100%)" r="0.7" /><circle cx="354.192861074" cy="255.66860294" fill="rgb(0%,0%,100%)" r="0.7" /><circle cx="355.0786574" cy="258.534591646" fill="rgb(0%,0%,100%)" r="0.7" /><circle cx="355.831967862" cy="261.438193278" fill="rgb(0%,0%,100%)" r="0.7" /><circle cx="356.449733884" cy="264.373623309" fill="rgb(0%,0%,100%)" r="0.7" /><circle cx="356.929856598" cy="267.334678345" fill="rgb(0%,0%,100%)" r="0.7" /><circle cx="357.271259132" cy="270.314905607" fill="rgb(0%,0%,100%)" r="0.7" /><circle cx="357.473897302" cy="273.307789387" fill="rgb(0%,0%,100%)" r="0.7" /><circle cx="357.538716499" cy="276.306832224" fill="rgb(0%,0%,100%)" r="0.7" /><circle cx="357.467581897" cy="279.305734544" fill="rgb(0%,0%,100%)" r="0.7" /><circle cx="357.263166737" cy="282.298522776" fill="rgb(0%,0%,100%)" r="0.7" /><circle cx="356.928820509" cy="285.279601831" fill="rgb(0%,0%,100%)" r="0.7" /><circle cx="356.468422938" cy="288.243836123" fill="rgb(0%,0%,100%)" r="0.7" /><circle cx="355.886229029" cy="291.186596206" fill="rgb(0%,0%,100%)" r="0.7" /><circle cx="355.186732596" cy="294.103702272" fill="rgb(0%,0%,100%)" r="0.7" /><circle cx="354.374511144" cy="296.991479281" fill="rgb(0%,0%,100%)" r="0.7" /><circle cx="353.454120419" cy="299.846618228" fill="rgb(0%,0%,100%)" r="0.7" /><circle cx="352.42994552" cy="302.666215317" fill="rgb(0%,0%,100%)" r="0.7" /><circle cx="351.306113235" cy="305.447598849" fill="rgb(0%,0%,100%)" r="0.7" /><circle cx="350.086361805" cy="308.188262204" fill="rgb(0%,0%,100%)" r="0.7" /><circle cx="348.773869888" cy="310.885781429" fill="rgb(0%,0%,100%)" r="0.7" /><circle cx="347.371127782" cy="313.537467484" fill="rgb(0%,0%,100%)" r="0.7" /><circle cx="345.879531715" cy="316.140201546" fill="rgb(0%,0%,100%)" r="0.7" /><circle cx="344.298739246" cy="318.689749045" fill="rgb(0%,0%,100%)" r="0.7" /><circle cx="342.624929213" cy="321.179190898" fill="rgb(0%,0%,100%)" r="0.7" /><circle cx="340.843023473" cy="323.592237734" fill="rgb(0%,0%,100%)" r="0.7" /><circle cx="338.950644706" cy="325.919488176" fill="rgb(0%,0%,100%)" r="0.7" /><circle cx="337.145553384" cy="328.315567498" fill="rgb(0%,0%,100%)" r="0.7" /><circle cx="335.381477369" cy="330.74207614" fill="rgb(0%,0%,100%)" r="0.7" /><circle cx="333.640480184" cy="333.185209563" fill="rgb(0%,0%,100%)" r="0.7" /><circle cx="331.91507696" cy="335.639384589" fill="rgb(0%,0%,100%)" r="0.7" /><circle cx="330.20136444" cy="338.101738452" fill="rgb(0%,0%,100%)" r="0.7" /><circle cx="328.497110486" cy="340.570645064" fill="rgb(0%,0%,100%)" r="0.7" /><circle cx="326.801093367" cy="343.045226069" fill="rgb(0%,0%,100%)" r="0.7" /><circle cx="325.113231523" cy="345.525372062" fill="rgb(0%,0%,100%)" r="0.7" /><circle cx="323.509374058" cy="348.059951887" fill="rgb(0%,0%,100%)" r="0.7" /><circle cx="322.038729686" cy="350.674476683" fill="rgb(0%,0%,100%)" r="0.7" /><circle cx="320.682084018" cy="353.349960119" fill="rgb(0%,0%,100%)" r="0.7" /><circle cx="319.427674936" cy="356.074975199" fill="rgb(0%,0%,100%)" r="0.7" /><circle cx="318.265238232" cy="358.840482678" fill="rgb(0%,0%,100%)" r="0.7" /><circle cx="317.185794019" cy="361.639402913" fill="rgb(0%,0%,100%)" r="0.7" /><circle cx="316.181481927" cy="364.466224629" fill="rgb(0%,0%,100%)" r="0.7" /><circle cx="315.245504201" cy="367.316404993" fill="rgb(0%,0%,100%)" r="0.7" /><circle cx="314.37189147" cy="370.186364845" fill="rgb(0%,0%,100%)" r="0.7" /><circle cx="313.55545452" cy="373.073060177" fill="rgb(0%,0%,100%)" r="0.7" /><circle cx="312.791585676" cy="375.974142638" fill="rgb(0%,0%,100%)" r="0.7" /><circle cx="312.076244703" cy="378.88759034" fill="rgb(0%,0%,100%)" r="0.7" /><circle cx="311.405856284" cy="381.811700089" fill="rgb(0%,0%,100%)" r="0.7" /><circle cx="310.777233092" cy="384.745075354" fill="rgb(0%,0%,100%)" r="0.7" /><circle cx="310.187535113" cy="387.686517581" fill="rgb(0%,0%,100%)" r="0.7" /><circle cx="309.634213673" cy="390.635033001" fill="rgb(0%,0%,100%)" r="0.7" /><circle cx="309.114983853" cy="393.589743704" fill="rgb(0%,0%,100%)" r="0.7" /><circle cx="308.627782381" cy="396.54990841" fill="rgb(0%,0%,100%)" r="0.7" /><circle cx="308.170741613" cy="399.514894705" fill="rgb(0%,0%,100%)" r="0.7" /><circle cx="307.742174424" cy="402.484102351" fill="rgb(0%,0%,100%)" r="0.7" /><circle cx="307.34053304" cy="405.457090354" fill="rgb(0%,0%,100%)" r="0.7" /><circle cx="306.964414798" cy="408.433407618" fill="rgb(0%,0%,100%)" r="0.7" /><circle cx="306.612529914" cy="411.41270741" fill="rgb(0%,0%,100%)" r="0.7" /><circle cx="306.283704092" cy="414.394612822" fill="rgb(0%,0%,100%)" r="0.7" /><circle cx="305.976848431" cy="417.378871602" fill="rgb(0%,0%,100%)" r="0.7" /><circle cx="305.69096507" cy="420.3652175" fill="rgb(0%,0%,100%)" r="0.7" /><circle cx="305.425132622" cy="423.353416071" fill="rgb(0%,0%,100%)" r="0.7" /><circle cx="305.178498904" cy="426.343259485" fill="rgb(0%,0%,100%)" r="0.7" /><circle cx="304.950274678" cy="429.334559675" fill="rgb(0%,0%,100%)" r="0.7" /><circle cx="304.739726964" cy="432.327157983" fill="rgb(0%,0%,100%)" r="0.7" /><circle cx="304.54617533" cy="435.320904805" fill="rgb(0%,0%,100%)" r="0.7" /><circle cx="304.368986698" cy="438.315665466" fill="rgb(0%,0%,100%)" r="0.7" /><circle cx="304.207571344" cy="441.311318335" fill="rgb(0%,0%,100%)" r="0.7" /><circle cx="304.061379337" cy="444.307753217" fill="rgb(0%,0%,100%)" r="0.7" /><circle cx="303.929897378" cy="447.304869905" fill="rgb(0%,0%,100%)" r="0.7" /><circle cx="303.81264598" cy="450.302576817" fill="rgb(0%,0%,100%)" r="0.7" /><circle cx="303.709176951" cy="453.300789618" fill="rgb(0%,0%,100%)" r="0.7" /><circle cx="303.61907116" cy="456.299429732" fill="rgb(0%,0%,100%)" r="0.7" /><circle cx="303.541936178" cy="459.298437573" fill="rgb(0%,0%,100%)" r="0.7" /><circle cx="303.477405168" cy="462.297751234" fill="rgb(0%,0%,100%)" r="0.7" /><circle cx="303.42513536" cy="465.297291348" fill="rgb(0%,0%,100%)" r="0.7" /><circle cx="303.384805569" cy="468.297017109" fill="rgb(0%,0%,100%)" r="0.7" /><circle cx="303.356115951" cy="471.296885209" fill="rgb(0%,0%,100%)" r="0.7" /><circle cx="303.338786866" cy="474.296835112" fill="rgb(0%,0%,100%)" r="0.7" /><circle cx="303.33255757" cy="477.2968072" fill="rgb(0%,0%,100%)" r="0.7" /><circle cx="303.33718567" cy="480.296815311" fill="rgb(0%,0%,100%)" r="0.7" /><circle cx="303.352446607" cy="483.296778585" fill="rgb(0%,0%,100%)" r="0.7" /><circle cx="303.378132857" cy="486.29665547" fill="rgb(0%,0%,100%)" r="0.7" /><circle cx="303.414054486" cy="489.296458653" fill="rgb(0%,0%,100%)" r="0.7" /><circle cx="303.460037413" cy="492.296110289" fill="rgb(0%,0%,100%)" r="0.7" /><circle cx="303.515925054" cy="495.29559621" fill="rgb(0%,0%,100%)" r="0.7" /><circle cx="303.581577462" cy="498.294874733" fill="rgb(0%,0%,100%)" r="0.7" /><circle cx="303.656872981" cy="501.293936796" fill="rgb(0%,0%,100%)" r="0.7" /><circle cx="303.741706246" cy="504.292694526" fill="rgb(0%,0%,100%)" r="0.7" /><circle cx="303.835996726" cy="507.291241372" fill="rgb(0%,0%,100%)" r="0.7" /><circle cx="303.939677648" cy="510.289419316" fill="rgb(0%,0%,100%)" r="0.7" /><circle cx="304.052714771" cy="513.287336445" fill="rgb(0%,0%,100%)" r="0.7" /><circle cx="304.175091209" cy="516.284831718" fill="rgb(0%,0%,100%)" r="0.7" /><circle cx="304.306829524" cy="519.281949672" fill="rgb(0%,0%,100%)" r="0.7" /><circle cx="304.447984994" cy="522.278598345" fill="rgb(0%,0%,100%)" r="0.7" /><circle cx="304.598666381" cy="525.274802309" fill="rgb(0%,0%,100%)" r="0.7" /><circle cx="304.759044566" cy="528.270555696" fill="rgb(0%,0%,100%)" r="0.7" /><circle cx="304.929366245" cy="531.265659901" fill="rgb(0%,0%,100%)" r="0.7" /><circle cx="305.110025399" cy="534.26027924" fill="rgb(0%,0%,100%)" r="0.7" /><circle cx="305.301593666" cy="537.254157038" fill="rgb(0%,0%,100%)" r="0.7" /><circle cx="305.505020026" cy="540.24724719" fill="rgb(0%,0%,100%)" r="0.7" /><circle cx="305.722061531" cy="543.23931004" fill="rgb(0%,0%,100%)" r="0.7" /><circle cx="305.958" cy="546.23" fill="rgb(0%,0%,100%)" r="0.7" /><circle cx="304.129114967" cy="545.740698337" fill="rgb(0%,0%,100%)" r="0.7" /><circle cx="301.231041928" cy="544.965345086" fill="rgb(0%,0%,100%)" r="0.7" /><circle cx="298.33296889" cy="544.189991834" fill="rgb(0%,0%,100%)" r="0.7" /><circle cx="295.434895852" cy="543.414638583" fill="rgb(0%,0%,100%)" r="0.7" /><circle cx="292.536822813" cy="542.639285331" fill="rgb(0%,0%,100%)" r="0.7" /><circle cx="289.638749775" cy="541.86393208" fill="rgb(0%,0%,100%)" r="0.7" /><circle cx="286.740676737" cy="541.088578828" fill="rgb(0%,0%,100%)" r="0.7" /><circle cx="283.842603698" cy="540.313225577" fill="rgb(0%,0%,100%)" r="0.7" /><circle cx="280.94453066" cy="539.537872325" fill="rgb(0%,0%,100%)" r="0.7" /><circle cx="278.046457622" cy="538.762519074" fill="rgb(0%,0%,100%)" r="0.7" /><circle cx="275.148384583" cy="537.987165822" fill="rgb(0%,0%,100%)" r="0.7" /><circle cx="273.15107417" cy="539.423615411" fill="rgb(0%,0%,100%)" r="0.7" /><circle cx="271.619249967" cy="542.003056167" fill="rgb(0%,0%,100%)" r="0.7" /><circle cx="270.087425764" cy="544.582496922" fill="rgb(0%,0%,100%)" r="0.7" /><circle cx="268.555601561" cy="547.161937678" fill="rgb(0%,0%,100%)" r="0.7" /><circle cx="267.023777358" cy="549.741378433" fill="rgb(0%,0%,100%)" r="0.7" /><circle cx="265.602389408" cy="551.745336887" fill="rgb(0%,0%,100%)" r="0.7" /></svg>