<?xml version="1.0" encoding="utf-8" ?>
<svg baseProfile="full" height="100%" version="1.1" width="100%" xmlns="http://www.w3.org/2000/svg" xmlns:ev="http://www.w3.org/2001/xml-events" xmlns:xlink="http://www.w3.org/1999/xlink"><defs /><circle cx="287.053116106" cy="362.573580058" fill="rgb(100%,0%,0%)" r="0.7" /><circle cx="284.59598942" cy="364.233843304" fill="rgb(100%,0%,0%)" r="0.7" /><circle cx="282.983384953" cy="366.750308698" fill="rgb(100%,0%,0%)" r="0.7" /><circle cx="282.021020878" cy="369.586094188" fill="rgb(100%,0%,0%)" r="0.7" /><circle cx="281.370586013" cy="372.514069797" fill="rgb(100%,0%,0%)" r="0.7" /><circle cx="280.92500396" cy="375.480228858" fill="rgb(100%,0%,0%)" r="0.7" /><circle cx="280.671421013" cy="378.469009687" fill="rgb(100%,0%,0%)" r="0.7" /><circle cx="280.596596343" cy="381.467664226" fill="rgb(100%,0%,0%)" r="0.7" /><circle cx="280.687805965" cy="384.465922674" fill="rgb(100%,0%,0%)" r="0.7" /><circle cx="280.933500624" cy="387.455533371" fill="rgb(100%,0%,0%)" r="0.7" /><circle cx="281.32383121" cy="390.429747642" fill="rgb(100%,0%,0%)" r="0.7" /><circle cx="281.851230324" cy="393.382765098" fill="rgb(100%,0%,0%)" r="0.7" /><circle cx="282.511434873" cy="396.308960778" fill="rgb(100%,0%,0%)" r="0.7" /><circle cx="283.306341709" cy="399.201429611" fill="rgb(100%,0%,0%)" r="0.7" /><circle cx="284.261920076" cy="402.044497116" fill="rgb(100%,0%,0%)" r="0.7" /><circle cx="285.278849558" cy="404.86677606" fill="rgb(100%,0%,0%)" r="0.7" /><circle cx="286.214615677" cy="407.71698061" fill="rgb(100%,0%,0%)" r="0.7" /><circle cx="287.063101665" cy="410.594369776" fill="rgb(100%,0%,0%)" r="0.7" /><circle cx="287.81723492" cy="413.497888648" fill="rgb(100%,0%,0%)" r="0.7" /><circle cx="288.468660881" cy="416.426134399" fill="rgb(100%,0%,0%)" r="0.7" /><circle cx="289.007159694" cy="419.377204248" fill="rgb(100%,0%,0%)" r="0.7" /><circle cx="289.419573413" cy="422.348460296" fill="rgb(100%,0%,0%)" r="0.7" /><circle cx="289.687502694" cy="425.336127328" fill="rgb(100%,0%,0%)" r="0.7" /><circle cx="289.780875073" cy="428.334140796" fill="rgb(100%,0%,0%)" r="0.7" /><circle cx="289.62" cy="431.328" fill="rgb(100%,0%,0%)" r="0.7" /><circle cx="287.053116106" cy="362.573580058" fill="rgb(0%,0%,100%)" r="0.7" /><circle cx="289.931628434" cy="362.814452442" fill="rgb(0%,0%,100%)" r="0.7" /><circle cx="291.652497738" cy="365.211062849" fill="rgb(0%,0%,100%)" r="0.7" /><circle cx="292.292894498" cy="368.134161761" fill="rgb(0%,0%,100%)" r="0.7" /><circle cx="292.410885523" cy="371.129898144" fill="rgb(0%,0%,100%)" r="0.7" /><circle cx="292.235585709" cy="374.12403343" fill="rgb(0%,0%,100%)" r="0.7" /><circle cx="292.04344135" cy="377.113355187" fill="rgb(0%,0%,100%)" r="0.7" /><circle cx="292.115745075" cy="380.112369771" fill="rgb(0%,0%,100%)" r="0.7" /><circle cx="292.271688385" cy="383.108222309" fill="rgb(0%,0%,100%)" r="0.7" /><circle cx="292.508988277" cy="386.098727166" fill="rgb(0%,0%,100%)" r="0.7" /><circle cx="292.832701151" cy="389.081097203" fill="rgb(0%,0%,100%)" r="0.7" /><circle cx="293.252325834" cy="392.051456045" fill="rgb(0%,0%,100%)" r="0.7" /><circle cx="293.781881434" cy="395.004144374" fill="rgb(0%,0%,100%)" r="0.7" /><circle cx="294.441089645" cy="397.930521969" fill="rgb(0%,0%,100%)" r="0.7" /><circle cx="295.257612436" cy="400.816792185" fill="rgb(0%,0%,100%)" r="0.7" /><circle cx="295.984289049" cy="403.723746349" fill="rgb(0%,0%,100%)" r="0.7" /><circle cx="296.593152954" cy="406.661301605" fill="rgb(0%,0%,100%)" r="0.7" /><circle cx="297.177802527" cy="409.603772192" fill="rgb(0%,0%,100%)" r="0.7" /><circle cx="297.736897585" cy="412.551205979" fill="rgb(0%,0%,100%)" r="0.7" /><circle cx="298.266792513" cy="415.504021934" fill="rgb(0%,0%,100%)" r="0.7" /><circle cx="298.761383819" cy="418.462950746" fill="rgb(0%,0%,100%)" r="0.7" /><circle cx="299.210749345" cy="421.42906849" fill="rgb(0%,0%,100%)" r="0.7" /><circle cx="299.597765372" cy="424.403921909" fill="rgb(0%,0%,100%)" r="0.7" /><circle cx="299.88875086" cy="427.389565585" fill="rgb(0%,0%,100%)" r="0.7" /><circle cx="299.997682016" cy="430.386594374" fill="rgb(0%,0%,100%)" r="0.7" /><circle cx="299.138387933" cy="431.122083959" fill="rgb(0%,0%,100%)" r="0.7" /><circle cx="297.402052644" cy="428.67562943" fill="rgb(0%,0%,100%)" r="0.7" /><circle cx="295.665717355" cy="426.2291749" fill="rgb(0%,0%,100%)" r="0.7" /><circle cx="293.929612906" cy="423.787427012" fill="rgb(0%,0%,100%)" r="0.7" /><circle cx="292.441010162" cy="426.392050185" fill="rgb(0%,0%,100%)" r="0.7" /><circle cx="290.952407418" cy="428.996673357" fill="rgb(0%,0%,100%)" r="0.7" /><circle cx="289.62" cy="431.328" fill="rgb(0%,0%,100%)" r="0.7" /></svg>