<?xml version="1.0" encoding="utf-8" ?>
<svg baseProfile="full" height="100%" version="1.1" width="100%" xmlns="http://www.w3.org/2000/svg" xmlns:ev="http://www.w3.org/2001/xml-events" xmlns:xlink="http://www.w3.org/1999/xlink"><defs /><circle cx="312.655190509" cy="319.538681664" fill="rgb(100%,0%,0%)" r="0.7" /><circle cx="309.659749724" cy="319.619163496" fill="rgb(100%,0%,0%)" r="0.7" /><circle cx="306.732782804" cy="320.173129788" fill="rgb(100%,0%,0%)" r="0.7" /><circle cx="304.074654804" cy="321.5538858" fill="rgb(100%,0%,0%)" r="0.7" /><circle cx="301.637053323" cy="323.300289526" fill="rgb(100%,0%,0%)" r="0.7" /><circle cx="299.353436663" cy="325.244958306" fill="rgb(100%,0%,0%)" r="0.7" /><circle cx="297.183612958" cy="327.316222084" fill="rgb(100%,0%,0%)" r="0.7" /><circle cx="295.103504688" cy="329.477727794" fill="rgb(100%,0%,0%)" r="0.7" /><circle cx="293.09884158" cy="331.70945014" fill="rgb(100%,0%,0%)" r="0.7" /><circle cx="291.163286529" cy="334.001376232" fill="rgb(100%,0%,0%)" r="0.7" /><circle cx="289.3091332" cy="336.359274033" fill="rgb(100%,0%,0%)" r="0.7" /><circle cx="287.739914737" cy="338.913847653" fill="rgb(100%,0%,0%)" r="0.7" /><circle cx="286.418312433" cy="341.606355462" fill="rgb(100%,0%,0%)" r="0.7" /><circle cx="285.254604542" cy="344.371159369" fill="rgb(100%,0%,0%)" r="0.7" /><circle cx="284.202222104" cy="347.180363195" fill="rgb(100%,0%,0%)" r="0.7" /><circle cx="283.233750298" cy="350.019657603" fill="rgb(100%,0%,0%)" r="0.7" /><circle cx="282.331591107" cy="352.880739701" fill="rgb(100%,0%,0%)" r="0.7" /><circle cx="281.483720404" cy="355.758393749" fill="rgb(100%,0%,0%)" r="0.7" /><circle cx="280.681548621" cy="358.6491317" fill="rgb(100%,0%,0%)" r="0.7" /><circle cx="279.91873721" cy="361.550511969" fill="rgb(100%,0%,0%)" r="0.7" /><circle cx="279.190503514" cy="364.460768317" fill="rgb(100%,0%,0%)" r="0.7" /><circle cx="278.493196875" cy="367.378593138" fill="rgb(100%,0%,0%)" r="0.7" /><circle cx="277.824040529" cy="370.302997945" fill="rgb(100%,0%,0%)" r="0.7" /><circle cx="277.180979016" cy="373.233260457" fill="rgb(100%,0%,0%)" r="0.7" /><circle cx="276.56264499" cy="376.168832963" fill="rgb(100%,0%,0%)" r="0.7" /><circle cx="275.968449851" cy="379.109399583" fill="rgb(100%,0%,0%)" r="0.7" /><circle cx="275.399099499" cy="382.054873315" fill="rgb(100%,0%,0%)" r="0.7" /><circle cx="274.86" cy="385.006" fill="rgb(100%,0%,0%)" r="0.7" /><circle cx="275.589427741" cy="384.595336845" fill="rgb(100%,0%,0%)" r="0.7" /><circle cx="278.203602792" cy="383.123573005" fill="rgb(100%,0%,0%)" r="0.7" /><circle cx="280.817777844" cy="381.651809164" fill="rgb(100%,0%,0%)" r="0.7" /><circle cx="283.413862649" cy="380.880230154" fill="rgb(100%,0%,0%)" r="0.7" /><circle cx="285.948550621" cy="382.485022005" fill="rgb(100%,0%,0%)" r="0.7" /><circle cx="288.483238593" cy="384.089813856" fill="rgb(100%,0%,0%)" r="0.7" /><circle cx="291.017926565" cy="385.694605707" fill="rgb(100%,0%,0%)" r="0.7" /><circle cx="293.552614537" cy="387.299397558" fill="rgb(100%,0%,0%)" r="0.7" /><circle cx="295.659790269" cy="387.987895091" fill="rgb(100%,0%,0%)" r="0.7" /><circle cx="312.655190509" cy="319.538681664" fill="rgb(0%,0%,100%)" r="0.7" /><circle cx="315.618529129" cy="319.975443189" fill="rgb(0%,0%,100%)" r="0.7" /><circle cx="318.393783991" cy="321.087856612" fill="rgb(0%,0%,100%)" r="0.7" /><circle cx="320.615930947" cy="323.071571364" fill="rgb(0%,0%,100%)" r="0.7" /><circle cx="322.266291619" cy="325.571867777" fill="rgb(0%,0%,100%)" r="0.7" /><circle cx="323.169076075" cy="328.409574336" fill="rgb(0%,0%,100%)" r="0.7" /><circle cx="322.34910034" cy="331.269899459" fill="rgb(0%,0%,100%)" r="0.7" /><circle cx="320.511414321" cy="333.615788385" fill="rgb(0%,0%,100%)" r="0.7" /><circle cx="317.893070598" cy="335.039425414" fill="rgb(0%,0%,100%)" r="0.7" /><circle cx="315.074287294" cy="336.037446618" fill="rgb(0%,0%,100%)" r="0.7" /><circle cx="312.579240459" cy="337.694115009" fill="rgb(0%,0%,100%)" r="0.7" /><circle cx="310.404922181" cy="339.757015235" fill="rgb(0%,0%,100%)" r="0.7" /><circle cx="308.52264122" cy="342.09080809" fill="rgb(0%,0%,100%)" r="0.7" /><circle cx="306.897929934" cy="344.611419833" fill="rgb(0%,0%,100%)" r="0.7" /><circle cx="305.497036788" cy="347.263379625" fill="rgb(0%,0%,100%)" r="0.7" /><circle cx="304.289856972" cy="350.009191355" fill="rgb(0%,0%,100%)" r="0.7" /><circle cx="303.250650481" cy="352.823035648" fill="rgb(0%,0%,100%)" r="0.7" /><circle cx="302.433827413" cy="355.708609039" fill="rgb(0%,0%,100%)" r="0.7" /><circle cx="301.686351828" cy="358.613990993" fill="rgb(0%,0%,100%)" r="0.7" /><circle cx="300.961680297" cy="361.525148862" fill="rgb(0%,0%,100%)" r="0.7" /><circle cx="300.258882707" cy="364.441656392" fill="rgb(0%,0%,100%)" r="0.7" /><circle cx="299.578467704" cy="367.363471356" fill="rgb(0%,0%,100%)" r="0.7" /><circle cx="298.921764371" cy="370.290704754" fill="rgb(0%,0%,100%)" r="0.7" /><circle cx="298.290798497" cy="373.22359138" fill="rgb(0%,0%,100%)" r="0.7" /><circle cx="297.688348556" cy="376.162465776" fill="rgb(0%,0%,100%)" r="0.7" /><circle cx="297.118118784" cy="379.107756436" fill="rgb(0%,0%,100%)" r="0.7" /><circle cx="296.585047778" cy="382.059993107" fill="rgb(0%,0%,100%)" r="0.7" /><circle cx="296.095828223" cy="385.019801601" fill="rgb(0%,0%,100%)" r="0.7" /><circle cx="295.659790269" cy="387.987895091" fill="rgb(0%,0%,100%)" r="0.7" /></svg>