<?xml version="1.0" encoding="utf-8" ?>
<svg baseProfile="full" height="100%" version="1.1" width="100%" xmlns="http://www.w3.org/2000/svg" xmlns:ev="http://www.w3.org/2001/xml-events" xmlns:xlink="http://www.w3.org/1999/xlink"><defs /><circle cx="214.08403476" cy="226.597079936" fill="rgb(100%,0%,0%)" r="0.7" /><circle cx="212.05793482" cy="226.886964008" fill="rgb(100%,0%,0%)" r="0.7" /><circle cx="210.264348405" cy="229.291760834" fill="rgb(100%,0%,0%)" r="0.7" /><circle cx="208.421827761" cy="231.653928628" fill="rgb(100%,0%,0%)" r="0.7" /><circle cx="206.192618269" cy="233.658763733" fill="rgb(100%,0%,0%)" r="0.7" /><circle cx="203.333803828" cy="233.216468028" fill="rgb(100%,0%,0%)" r="0.7" /><circle cx="200.504271419" cy="232.225355984" fill="rgb(100%,0%,0%)" r="0.7" /><circle cx="197.667397115" cy="231.337944701" fill="rgb(100%,0%,0%)" r="0.7" /><circle cx="194.679464292" cy="231.448444756" fill="rgb(100%,0%,0%)" r="0.7" /><circle cx="191.835911808" cy="232.375370871" fill="rgb(100%,0%,0%)" r="0.7" /><circle cx="189.284480336" cy="233.946707848" fill="rgb(100%,0%,0%)" r="0.7" /><circle cx="186.870136643" cy="235.726780165" fill="rgb(100%,0%,0%)" r="0.7" /><circle cx="184.575522096" cy="237.658166617" fill="rgb(100%,0%,0%)" r="0.7" /><circle cx="182.505744402" cy="239.825726332" fill="rgb(100%,0%,0%)" r="0.7" /><circle cx="181.197830374" cy="242.481625221" fill="rgb(100%,0%,0%)" r="0.7" /><circle cx="180.957191176" cy="245.471233318" fill="rgb(100%,0%,0%)" r="0.7" /><circle cx="180.807741577" cy="248.467491776" fill="rgb(100%,0%,0%)" r="0.7" /><circle cx="180.668381547" cy="251.46425984" fill="rgb(100%,0%,0%)" r="0.7" /><circle cx="180.521072302" cy="254.460639775" fill="rgb(100%,0%,0%)" r="0.7" /><circle cx="180.357689374" cy="257.456178842" fill="rgb(100%,0%,0%)" r="0.7" /><circle cx="180.173224907" cy="260.450496859" fill="rgb(100%,0%,0%)" r="0.7" /><circle cx="179.963880331" cy="263.443174907" fill="rgb(100%,0%,0%)" r="0.7" /><circle cx="179.726321744" cy="266.433745216" fill="rgb(100%,0%,0%)" r="0.7" /><circle cx="179.457318931" cy="269.421643194" fill="rgb(100%,0%,0%)" r="0.7" /><circle cx="179.153526055" cy="272.406206281" fill="rgb(100%,0%,0%)" r="0.7" /><circle cx="178.811325491" cy="275.386601361" fill="rgb(100%,0%,0%)" r="0.7" /><circle cx="178.426681808" cy="278.361813774" fill="rgb(100%,0%,0%)" r="0.7" /><circle cx="177.994996282" cy="281.330557766" fill="rgb(100%,0%,0%)" r="0.7" /><circle cx="177.510933766" cy="284.29120347" fill="rgb(100%,0%,0%)" r="0.7" /><circle cx="176.968211614" cy="287.241648222" fill="rgb(100%,0%,0%)" r="0.7" /><circle cx="176.35932785" cy="290.179136123" fill="rgb(100%,0%,0%)" r="0.7" /><circle cx="175.675202116" cy="293.099991752" fill="rgb(100%,0%,0%)" r="0.7" /><circle cx="175.340649017" cy="296.061090903" fill="rgb(100%,0%,0%)" r="0.7" /><circle cx="175.273432152" cy="299.060335032" fill="rgb(100%,0%,0%)" r="0.7" /><circle cx="175.183365667" cy="302.058975969" fill="rgb(100%,0%,0%)" r="0.7" /><circle cx="175.068445532" cy="305.056766411" fill="rgb(100%,0%,0%)" r="0.7" /><circle cx="174.923793502" cy="308.053263399" fill="rgb(100%,0%,0%)" r="0.7" /><circle cx="174.740779944" cy="311.047650165" fill="rgb(100%,0%,0%)" r="0.7" /><circle cx="174.5035905" cy="314.038199226" fill="rgb(100%,0%,0%)" r="0.7" /><circle cx="174.178363056" cy="317.020327021" fill="rgb(100%,0%,0%)" r="0.7" /><circle cx="173.672175256" cy="319.976387057" fill="rgb(100%,0%,0%)" r="0.7" /><circle cx="173.045011193" cy="322.910090377" fill="rgb(100%,0%,0%)" r="0.7" /><circle cx="172.420859303" cy="325.844436887" fill="rgb(100%,0%,0%)" r="0.7" /><circle cx="171.828992563" cy="328.785448119" fill="rgb(100%,0%,0%)" r="0.7" /><circle cx="171.282382886" cy="331.73519565" fill="rgb(100%,0%,0%)" r="0.7" /><circle cx="170.787571752" cy="334.694068024" fill="rgb(100%,0%,0%)" r="0.7" /><circle cx="170.348046694" cy="337.661649018" fill="rgb(100%,0%,0%)" r="0.7" /><circle cx="169.965655462" cy="340.637130632" fill="rgb(100%,0%,0%)" r="0.7" /><circle cx="169.641288397" cy="343.619495858" fill="rgb(100%,0%,0%)" r="0.7" /><circle cx="169.375236974" cy="346.607629995" fill="rgb(100%,0%,0%)" r="0.7" /><circle cx="169.167398958" cy="349.600373144" fill="rgb(100%,0%,0%)" r="0.7" /><circle cx="169.017400531" cy="352.596577278" fill="rgb(100%,0%,0%)" r="0.7" /><circle cx="168.924676994" cy="355.595096031" fill="rgb(100%,0%,0%)" r="0.7" /><circle cx="168.752614398" cy="358.569113218" fill="rgb(100%,0%,0%)" r="0.7" /><circle cx="167.816945423" cy="361.418572722" fill="rgb(100%,0%,0%)" r="0.7" /><circle cx="167.13568972" cy="364.338916981" fill="rgb(100%,0%,0%)" r="0.7" /><circle cx="166.835230034" cy="367.320317484" fill="rgb(100%,0%,0%)" r="0.7" /><circle cx="166.887677051" cy="370.319565577" fill="rgb(100%,0%,0%)" r="0.7" /><circle cx="166.902914074" cy="373.319520731" fill="rgb(100%,0%,0%)" r="0.7" /><circle cx="166.891796758" cy="376.319490763" fill="rgb(100%,0%,0%)" r="0.7" /><circle cx="166.849212015" cy="379.319173741" fill="rgb(100%,0%,0%)" r="0.7" /><circle cx="166.764345299" cy="382.317938665" fill="rgb(100%,0%,0%)" r="0.7" /><circle cx="166.614372298" cy="385.314093287" fill="rgb(100%,0%,0%)" r="0.7" /><circle cx="166.335937447" cy="388.30060111" fill="rgb(100%,0%,0%)" r="0.7" /><circle cx="165.309369536" cy="391.006592139" fill="rgb(100%,0%,0%)" r="0.7" /><circle cx="163.012056771" cy="392.935392741" fill="rgb(100%,0%,0%)" r="0.7" /><circle cx="160.816644849" cy="394.979430928" fill="rgb(100%,0%,0%)" r="0.7" /><circle cx="158.744829336" cy="397.148374682" fill="rgb(100%,0%,0%)" r="0.7" /><circle cx="156.849905968" cy="399.472741098" fill="rgb(100%,0%,0%)" r="0.7" /><circle cx="155.246656279" cy="402.005597591" fill="rgb(100%,0%,0%)" r="0.7" /><circle cx="153.709855482" cy="404.582053542" fill="rgb(100%,0%,0%)" r="0.7" /><circle cx="152.127433005" cy="407.130680126" fill="rgb(100%,0%,0%)" r="0.7" /><circle cx="150.401956806" cy="409.581832195" fill="rgb(100%,0%,0%)" r="0.7" /><circle cx="149.612729922" cy="412.409412413" fill="rgb(100%,0%,0%)" r="0.7" /><circle cx="150.036797289" cy="415.369033956" fill="rgb(100%,0%,0%)" r="0.7" /><circle cx="151.119974986" cy="418.162324822" fill="rgb(100%,0%,0%)" r="0.7" /><circle cx="152.591076567" cy="420.774286012" fill="rgb(100%,0%,0%)" r="0.7" /><circle cx="153.839417385" cy="423.502132491" fill="rgb(100%,0%,0%)" r="0.7" /><circle cx="155.149837263" cy="426.20073484" fill="rgb(100%,0%,0%)" r="0.7" /><circle cx="156.522096118" cy="428.868404218" fill="rgb(100%,0%,0%)" r="0.7" /><circle cx="157.96693491" cy="431.497423771" fill="rgb(100%,0%,0%)" r="0.7" /><circle cx="159.504806932" cy="434.073010659" fill="rgb(100%,0%,0%)" r="0.7" /><circle cx="161.173599426" cy="436.56541116" fill="rgb(100%,0%,0%)" r="0.7" /><circle cx="163.052864692" cy="438.90159391" fill="rgb(100%,0%,0%)" r="0.7" /><circle cx="164.028422244" cy="441.644363326" fill="rgb(100%,0%,0%)" r="0.7" /><circle cx="164.405623387" cy="444.619640435" fill="rgb(100%,0%,0%)" r="0.7" /><circle cx="164.509376624" cy="447.61659583" fill="rgb(100%,0%,0%)" r="0.7" /><circle cx="164.270345673" cy="450.604895168" fill="rgb(100%,0%,0%)" r="0.7" /><circle cx="163.960643787" cy="453.587716648" fill="rgb(100%,0%,0%)" r="0.7" /><circle cx="163.839461027" cy="456.585011507" fill="rgb(100%,0%,0%)" r="0.7" /><circle cx="163.834943216" cy="459.584866179" fill="rgb(100%,0%,0%)" r="0.7" /><circle cx="163.921850069" cy="462.583508504" fill="rgb(100%,0%,0%)" r="0.7" /><circle cx="164.085563813" cy="465.578972627" fill="rgb(100%,0%,0%)" r="0.7" /><circle cx="164.316171571" cy="468.57003869" fill="rgb(100%,0%,0%)" r="0.7" /><circle cx="164.606361181" cy="471.555922629" fill="rgb(100%,0%,0%)" r="0.7" /><circle cx="164.950444043" cy="474.536090611" fill="rgb(100%,0%,0%)" r="0.7" /><circle cx="165.343825909" cy="477.510149901" fill="rgb(100%,0%,0%)" r="0.7" /><circle cx="165.782699919" cy="480.477846498" fill="rgb(100%,0%,0%)" r="0.7" /><circle cx="166.085" cy="483.453827814" fill="rgb(100%,0%,0%)" r="0.7" /><circle cx="166.085" cy="486.453827814" fill="rgb(100%,0%,0%)" r="0.7" /><circle cx="166.085" cy="489.453827814" fill="rgb(100%,0%,0%)" r="0.7" /><circle cx="166.085" cy="492.453827814" fill="rgb(100%,0%,0%)" r="0.7" /><circle cx="166.085" cy="495.453827814" fill="rgb(100%,0%,0%)" r="0.7" /><circle cx="166.228847904" cy="498.444374428" fill="rgb(100%,0%,0%)" r="0.7" /><circle cx="166.613714049" cy="501.419584322" fill="rgb(100%,0%,0%)" r="0.7" /><circle cx="166.989002044" cy="504.396018392" fill="rgb(100%,0%,0%)" r="0.7" /><circle cx="167.353445231" cy="507.373800245" fill="rgb(100%,0%,0%)" r="0.7" /><circle cx="167.703858996" cy="510.353262956" fill="rgb(100%,0%,0%)" r="0.7" /><circle cx="168.033728013" cy="513.335065064" fill="rgb(100%,0%,0%)" r="0.7" /><circle cx="168.326965135" cy="516.320664647" fill="rgb(100%,0%,0%)" r="0.7" /><circle cx="168.490396645" cy="519.313565779" fill="rgb(100%,0%,0%)" r="0.7" /><circle cx="168.922519992" cy="522.201399655" fill="rgb(100%,0%,0%)" r="0.7" /><circle cx="171.541209776" cy="523.464279503" fill="rgb(100%,0%,0%)" r="0.7" /><circle cx="174.53858769" cy="523.49985767" fill="rgb(100%,0%,0%)" r="0.7" /><circle cx="177.536384131" cy="523.614346122" fill="rgb(100%,0%,0%)" r="0.7" /><circle cx="180.532259552" cy="523.771078943" fill="rgb(100%,0%,0%)" r="0.7" /><circle cx="183.524978336" cy="523.979279066" fill="rgb(100%,0%,0%)" r="0.7" /><circle cx="186.511644467" cy="524.260606018" fill="rgb(100%,0%,0%)" r="0.7" /><circle cx="189.483429072" cy="524.667904112" fill="rgb(100%,0%,0%)" r="0.7" /><circle cx="192.393162401" cy="525.384499169" fill="rgb(100%,0%,0%)" r="0.7" /><circle cx="195.332977571" cy="525.950958944" fill="rgb(100%,0%,0%)" r="0.7" /><circle cx="198.30672731" cy="525.669457629" fill="rgb(100%,0%,0%)" r="0.7" /><circle cx="201.13490614" cy="524.676498011" fill="rgb(100%,0%,0%)" r="0.7" /><circle cx="203.955176572" cy="523.663260623" fill="rgb(100%,0%,0%)" r="0.7" /><circle cx="206.894002978" cy="523.069060336" fill="rgb(100%,0%,0%)" r="0.7" /><circle cx="209.880073737" cy="522.796252931" fill="rgb(100%,0%,0%)" r="0.7" /><circle cx="212.853705747" cy="523.053708167" fill="rgb(100%,0%,0%)" r="0.7" /><circle cx="215.70815667" cy="523.786949262" fill="rgb(100%,0%,0%)" r="0.7" /><circle cx="218.707848204" cy="523.826316157" fill="rgb(100%,0%,0%)" r="0.7" /><circle cx="221.703723992" cy="523.959988038" fill="rgb(100%,0%,0%)" r="0.7" /><circle cx="224.695865807" cy="524.177119712" fill="rgb(100%,0%,0%)" r="0.7" /><circle cx="227.687573783" cy="524.399973259" fill="rgb(100%,0%,0%)" r="0.7" /><circle cx="230.678818268" cy="524.629046538" fill="rgb(100%,0%,0%)" r="0.7" /><circle cx="233.669477986" cy="524.865597858" fill="rgb(100%,0%,0%)" r="0.7" /><circle cx="236.659350761" cy="525.11189131" fill="rgb(100%,0%,0%)" r="0.7" /><circle cx="239.648034933" cy="525.372179419" fill="rgb(100%,0%,0%)" r="0.7" /><circle cx="242.634566957" cy="525.656020461" fill="rgb(100%,0%,0%)" r="0.7" /><circle cx="245.614864353" cy="525.997916661" fill="rgb(100%,0%,0%)" r="0.7" /><circle cx="248.590712408" cy="526.16130032" fill="rgb(100%,0%,0%)" r="0.7" /><circle cx="214.08403476" cy="226.597079936" fill="rgb(0%,0%,100%)" r="0.7" /><circle cx="216.3572335" cy="228.554774368" fill="rgb(0%,0%,100%)" r="0.7" /><circle cx="218.709007583" cy="230.411201752" fill="rgb(0%,0%,100%)" r="0.7" /><circle cx="221.242775034" cy="232.016572836" fill="rgb(0%,0%,100%)" r="0.7" /><circle cx="224.052235965" cy="232.937873008" fill="rgb(0%,0%,100%)" r="0.7" /><circle cx="226.950846625" cy="233.709828724" fill="rgb(0%,0%,100%)" r="0.7" /><circle cx="229.762982114" cy="234.732578288" fill="rgb(0%,0%,100%)" r="0.7" /><circle cx="232.580361393" cy="235.759129626" fill="rgb(0%,0%,100%)" r="0.7" /><circle cx="235.474703644" cy="236.5461771" fill="rgb(0%,0%,100%)" r="0.7" /><circle cx="238.411983311" cy="237.153997262" fill="rgb(0%,0%,100%)" r="0.7" /><circle cx="241.37774179" cy="237.604190995" fill="rgb(0%,0%,100%)" r="0.7" /><circle cx="244.291428508" cy="238.310368672" fill="rgb(0%,0%,100%)" r="0.7" /><circle cx="247.067172378" cy="239.439274356" fill="rgb(0%,0%,100%)" r="0.7" /><circle cx="249.779124278" cy="240.716088645" fill="rgb(0%,0%,100%)" r="0.7" /><circle cx="252.648150019" cy="241.5838673" fill="rgb(0%,0%,100%)" r="0.7" /><circle cx="255.567965827" cy="242.169852315" fill="rgb(0%,0%,100%)" r="0.7" /><circle cx="256.035251106" cy="244.986855827" fill="rgb(0%,0%,100%)" r="0.7" /><circle cx="256.066597019" cy="247.986692062" fill="rgb(0%,0%,100%)" r="0.7" /><circle cx="256.097942933" cy="250.986528296" fill="rgb(0%,0%,100%)" r="0.7" /><circle cx="256.683324884" cy="253.900530382" fill="rgb(0%,0%,100%)" r="0.7" /><circle cx="257.207054903" cy="256.853847817" fill="rgb(0%,0%,100%)" r="0.7" /><circle cx="257.589511253" cy="259.829230465" fill="rgb(0%,0%,100%)" r="0.7" /><circle cx="257.992982328" cy="262.790340497" fill="rgb(0%,0%,100%)" r="0.7" /><circle cx="258.537670167" cy="265.737416736" fill="rgb(0%,0%,100%)" r="0.7" /><circle cx="258.852610763" cy="268.720654528" fill="rgb(0%,0%,100%)" r="0.7" /><circle cx="259.084253149" cy="271.711648829" fill="rgb(0%,0%,100%)" r="0.7" /><circle cx="259.266768633" cy="274.706068825" fill="rgb(0%,0%,100%)" r="0.7" /><circle cx="259.413330014" cy="277.702475967" fill="rgb(0%,0%,100%)" r="0.7" /><circle cx="259.101319839" cy="280.621435534" fill="rgb(0%,0%,100%)" r="0.7" /><circle cx="258.165485912" cy="283.424748607" fill="rgb(0%,0%,100%)" r="0.7" /><circle cx="258.319769443" cy="286.420778746" fill="rgb(0%,0%,100%)" r="0.7" /><circle cx="258.474052974" cy="289.416808885" fill="rgb(0%,0%,100%)" r="0.7" /><circle cx="258.628336505" cy="292.412839023" fill="rgb(0%,0%,100%)" r="0.7" /><circle cx="258.782620036" cy="295.408869162" fill="rgb(0%,0%,100%)" r="0.7" /><circle cx="258.936903567" cy="298.404899301" fill="rgb(0%,0%,100%)" r="0.7" /><circle cx="259.091187098" cy="301.40092944" fill="rgb(0%,0%,100%)" r="0.7" /><circle cx="259.676990189" cy="304.336350358" fill="rgb(0%,0%,100%)" r="0.7" /><circle cx="259.951110178" cy="307.322819641" fill="rgb(0%,0%,100%)" r="0.7" /><circle cx="260.029564251" cy="310.321521016" fill="rgb(0%,0%,100%)" r="0.7" /><circle cx="260.002143487" cy="313.321315595" fill="rgb(0%,0%,100%)" r="0.7" /><circle cx="259.920544096" cy="316.320188503" fill="rgb(0%,0%,100%)" r="0.7" /><circle cx="259.821329552" cy="319.318548117" fill="rgb(0%,0%,100%)" r="0.7" /><circle cx="259.736135356" cy="322.317326813" fill="rgb(0%,0%,100%)" r="0.7" /><circle cx="259.698465061" cy="325.317028377" fill="rgb(0%,0%,100%)" r="0.7" /><circle cx="259.751381899" cy="328.316370316" fill="rgb(0%,0%,100%)" r="0.7" /><circle cx="259.961332608" cy="331.308434448" fill="rgb(0%,0%,100%)" r="0.7" /><circle cx="260.451003683" cy="334.266188717" fill="rgb(0%,0%,100%)" r="0.7" /><circle cx="261.026030673" cy="337.210181253" fill="rgb(0%,0%,100%)" r="0.7" /><circle cx="261.487616107" cy="340.174364471" fill="rgb(0%,0%,100%)" r="0.7" /><circle cx="261.88350979" cy="343.148089533" fill="rgb(0%,0%,100%)" r="0.7" /><circle cx="262.234421259" cy="346.127476491" fill="rgb(0%,0%,100%)" r="0.7" /><circle cx="262.551586688" cy="349.110652226" fill="rgb(0%,0%,100%)" r="0.7" /><circle cx="262.841758655" cy="352.096577875" fill="rgb(0%,0%,100%)" r="0.7" /><circle cx="263.109152277" cy="355.084631519" fill="rgb(0%,0%,100%)" r="0.7" /><circle cx="263.356211516" cy="358.07444126" fill="rgb(0%,0%,100%)" r="0.7" /><circle cx="263.583421698" cy="361.065821577" fill="rgb(0%,0%,100%)" r="0.7" /><circle cx="264.004636998" cy="364.027715724" fill="rgb(0%,0%,100%)" r="0.7" /><circle cx="264.478776181" cy="366.98976205" fill="rgb(0%,0%,100%)" r="0.7" /><circle cx="264.866181138" cy="369.964595247" fill="rgb(0%,0%,100%)" r="0.7" /><circle cx="265.209947619" cy="372.944821909" fill="rgb(0%,0%,100%)" r="0.7" /><circle cx="265.525680078" cy="375.928153811" fill="rgb(0%,0%,100%)" r="0.7" /><circle cx="265.821002137" cy="378.913580604" fill="rgb(0%,0%,100%)" r="0.7" /><circle cx="266.100113919" cy="381.900567749" fill="rgb(0%,0%,100%)" r="0.7" /><circle cx="266.365237169" cy="384.888823796" fill="rgb(0%,0%,100%)" r="0.7" /><circle cx="266.616322198" cy="387.878295175" fill="rgb(0%,0%,100%)" r="0.7" /><circle cx="267.162824786" cy="390.823179443" fill="rgb(0%,0%,100%)" r="0.7" /><circle cx="267.448193165" cy="393.809173894" fill="rgb(0%,0%,100%)" r="0.7" /><circle cx="267.615809237" cy="396.804405612" fill="rgb(0%,0%,100%)" r="0.7" /><circle cx="267.716783883" cy="399.802665502" fill="rgb(0%,0%,100%)" r="0.7" /><circle cx="267.773287455" cy="402.802112309" fill="rgb(0%,0%,100%)" r="0.7" /><circle cx="267.797295459" cy="405.802007505" fill="rgb(0%,0%,100%)" r="0.7" /><circle cx="267.796132824" cy="408.802004396" fill="rgb(0%,0%,100%)" r="0.7" /><circle cx="267.774655912" cy="411.801924103" fill="rgb(0%,0%,100%)" r="0.7" /><circle cx="267.736270344" cy="414.801674515" fill="rgb(0%,0%,100%)" r="0.7" /><circle cx="267.683463305" cy="417.801209035" fill="rgb(0%,0%,100%)" r="0.7" /><circle cx="267.61810592" cy="420.800497375" fill="rgb(0%,0%,100%)" r="0.7" /><circle cx="267.541635174" cy="423.799522227" fill="rgb(0%,0%,100%)" r="0.7" /><circle cx="267.455167922" cy="426.798270909" fill="rgb(0%,0%,100%)" r="0.7" /><circle cx="267.359572402" cy="429.79675682" fill="rgb(0%,0%,100%)" r="0.7" /><circle cx="267.255514187" cy="432.794953445" fill="rgb(0%,0%,100%)" r="0.7" /><circle cx="267.143474757" cy="435.792862825" fill="rgb(0%,0%,100%)" r="0.7" /><circle cx="267.023746746" cy="438.790473193" fill="rgb(0%,0%,100%)" r="0.7" /><circle cx="266.896378492" cy="441.787759224" fill="rgb(0%,0%,100%)" r="0.7" /><circle cx="266.760960868" cy="444.784719418" fill="rgb(0%,0%,100%)" r="0.7" /><circle cx="266.599030484" cy="447.779989171" fill="rgb(0%,0%,100%)" r="0.7" /><circle cx="266.345034169" cy="450.769226057" fill="rgb(0%,0%,100%)" r="0.7" /><circle cx="266.111685448" cy="453.76012815" fill="rgb(0%,0%,100%)" r="0.7" /><circle cx="265.893204022" cy="456.752154254" fill="rgb(0%,0%,100%)" r="0.7" /><circle cx="265.686111356" cy="459.744994773" fill="rgb(0%,0%,100%)" r="0.7" /><circle cx="265.488122238" cy="462.738455374" fill="rgb(0%,0%,100%)" r="0.7" /><circle cx="265.297641119" cy="465.732402778" fill="rgb(0%,0%,100%)" r="0.7" /><circle cx="265.113502284" cy="468.726748689" fill="rgb(0%,0%,100%)" r="0.7" /><circle cx="264.934824774" cy="471.721425493" fill="rgb(0%,0%,100%)" r="0.7" /><circle cx="264.760924527" cy="474.716381322" fill="rgb(0%,0%,100%)" r="0.7" /><circle cx="264.591258482" cy="477.711581816" fill="rgb(0%,0%,100%)" r="0.7" /><circle cx="264.425388668" cy="480.70699358" fill="rgb(0%,0%,100%)" r="0.7" /><circle cx="264.262956439" cy="483.702594779" fill="rgb(0%,0%,100%)" r="0.7" /><circle cx="264.103665408" cy="486.698364559" fill="rgb(0%,0%,100%)" r="0.7" /><circle cx="263.947268609" cy="489.694287037" fill="rgb(0%,0%,100%)" r="0.7" /><circle cx="263.793559734" cy="492.690344214" fill="rgb(0%,0%,100%)" r="0.7" /><circle cx="263.642365467" cy="495.686536945" fill="rgb(0%,0%,100%)" r="0.7" /><circle cx="263.493542841" cy="498.682845504" fill="rgb(0%,0%,100%)" r="0.7" /><circle cx="263.346974368" cy="501.6792661" fill="rgb(0%,0%,100%)" r="0.7" /><circle cx="263.202568174" cy="504.67577906" fill="rgb(0%,0%,100%)" r="0.7" /><circle cx="263.060255269" cy="507.672414333" fill="rgb(0%,0%,100%)" r="0.7" /><circle cx="262.919998804" cy="510.669123638" fill="rgb(0%,0%,100%)" r="0.7" /><circle cx="262.781794559" cy="513.66594431" fill="rgb(0%,0%,100%)" r="0.7" /><circle cx="262.645698048" cy="516.662857062" fill="rgb(0%,0%,100%)" r="0.7" /><circle cx="262.511880411" cy="519.65988055" fill="rgb(0%,0%,100%)" r="0.7" /><circle cx="262.381" cy="522.657" fill="rgb(0%,0%,100%)" r="0.7" /><circle cx="262.134639071" cy="523.090860049" fill="rgb(0%,0%,100%)" r="0.7" /><circle cx="260.005898123" cy="525.162792016" fill="rgb(0%,0%,100%)" r="0.7" /><circle cx="257.193020793" cy="526.15713466" fill="rgb(0%,0%,100%)" r="0.7" /><circle cx="254.228773455" cy="526.153066699" fill="rgb(0%,0%,100%)" r="0.7" /><circle cx="251.412563382" cy="525.185777501" fill="rgb(0%,0%,100%)" r="0.7" /><circle cx="248.590712408" cy="526.16130032" fill="rgb(0%,0%,100%)" r="0.7" /></svg>