<?xml version="1.0" encoding="utf-8" ?>
<svg baseProfile="full" height="100%" version="1.1" width="100%" xmlns="http://www.w3.org/2000/svg" xmlns:ev="http://www.w3.org/2001/xml-events" xmlns:xlink="http://www.w3.org/1999/xlink"><defs /><circle cx="261.078930714" cy="166.368204133" fill="rgb(100%,0%,0%)" r="0.7" /><circle cx="258.299547354" cy="167.267020254" fill="rgb(100%,0%,0%)" r="0.7" /><circle cx="255.989712281" cy="169.177319757" fill="rgb(100%,0%,0%)" r="0.7" /><circle cx="253.867904683" cy="171.297488459" fill="rgb(100%,0%,0%)" r="0.7" /><circle cx="251.848634754" cy="173.515944109" fill="rgb(100%,0%,0%)" r="0.7" /><circle cx="249.898608186" cy="175.795615231" fill="rgb(100%,0%,0%)" r="0.7" /><circle cx="248.002452373" cy="178.12032418" fill="rgb(100%,0%,0%)" r="0.7" /><circle cx="246.166296864" cy="180.492099443" fill="rgb(100%,0%,0%)" r="0.7" /><circle cx="244.558045113" cy="183.0244182" fill="rgb(100%,0%,0%)" r="0.7" /><circle cx="243.030885216" cy="185.606498878" fill="rgb(100%,0%,0%)" r="0.7" /><circle cx="241.57533961" cy="188.229643478" fill="rgb(100%,0%,0%)" r="0.7" /><circle cx="240.183582803" cy="190.887206927" fill="rgb(100%,0%,0%)" r="0.7" /><circle cx="238.849111136" cy="193.574003689" fill="rgb(100%,0%,0%)" r="0.7" /><circle cx="237.566468013" cy="196.285938123" fill="rgb(100%,0%,0%)" r="0.7" /><circle cx="236.331049437" cy="199.019715636" fill="rgb(100%,0%,0%)" r="0.7" /><circle cx="235.138941316" cy="201.772661906" fill="rgb(100%,0%,0%)" r="0.7" /><circle cx="233.986800749" cy="204.54257779" fill="rgb(100%,0%,0%)" r="0.7" /><circle cx="232.871760558" cy="207.327639251" fill="rgb(100%,0%,0%)" r="0.7" /><circle cx="231.79135527" cy="210.126322734" fill="rgb(100%,0%,0%)" r="0.7" /><circle cx="230.743466781" cy="212.937341048" fill="rgb(100%,0%,0%)" r="0.7" /><circle cx="229.726273888" cy="215.759618855" fill="rgb(100%,0%,0%)" r="0.7" /><circle cx="228.738229775" cy="218.59223469" fill="rgb(100%,0%,0%)" r="0.7" /><circle cx="227.778037128" cy="221.434405251" fill="rgb(100%,0%,0%)" r="0.7" /><circle cx="226.844630172" cy="224.285491324" fill="rgb(100%,0%,0%)" r="0.7" /><circle cx="225.937189882" cy="227.144950919" fill="rgb(100%,0%,0%)" r="0.7" /><circle cx="225.055160819" cy="230.01234911" fill="rgb(100%,0%,0%)" r="0.7" /><circle cx="224.198305081" cy="232.887362277" fill="rgb(100%,0%,0%)" r="0.7" /><circle cx="223.366810077" cy="235.769834158" fill="rgb(100%,0%,0%)" r="0.7" /><circle cx="222.561591568" cy="238.659738016" fill="rgb(100%,0%,0%)" r="0.7" /><circle cx="221.785056718" cy="241.557490267" fill="rgb(100%,0%,0%)" r="0.7" /><circle cx="221.048057946" cy="244.465454173" fill="rgb(100%,0%,0%)" r="0.7" /><circle cx="220.460029668" cy="247.407229995" fill="rgb(100%,0%,0%)" r="0.7" /><circle cx="219.916893277" cy="250.357624649" fill="rgb(100%,0%,0%)" r="0.7" /><circle cx="219.419845679" cy="253.316131254" fill="rgb(100%,0%,0%)" r="0.7" /><circle cx="218.970120556" cy="256.282193035" fill="rgb(100%,0%,0%)" r="0.7" /><circle cx="218.568987143" cy="259.255224168" fill="rgb(100%,0%,0%)" r="0.7" /><circle cx="218.21776059" cy="262.234551516" fill="rgb(100%,0%,0%)" r="0.7" /><circle cx="217.917795553" cy="265.219483835" fill="rgb(100%,0%,0%)" r="0.7" /><circle cx="217.670499136" cy="268.209233481" fill="rgb(100%,0%,0%)" r="0.7" /><circle cx="217.477329934" cy="271.202964899" fill="rgb(100%,0%,0%)" r="0.7" /><circle cx="217.339807205" cy="274.199762398" fill="rgb(100%,0%,0%)" r="0.7" /><circle cx="217.259518296" cy="277.198634678" fill="rgb(100%,0%,0%)" r="0.7" /><circle cx="217.238129819" cy="280.198517034" fill="rgb(100%,0%,0%)" r="0.7" /><circle cx="217.277402011" cy="283.198211034" fill="rgb(100%,0%,0%)" r="0.7" /><circle cx="217.379206026" cy="286.196425534" fill="rgb(100%,0%,0%)" r="0.7" /><circle cx="217.545549573" cy="289.191744434" fill="rgb(100%,0%,0%)" r="0.7" /><circle cx="217.778611185" cy="292.182607199" fill="rgb(100%,0%,0%)" r="0.7" /><circle cx="218.080789396" cy="295.167293846" fill="rgb(100%,0%,0%)" r="0.7" /><circle cx="218.454761166" cy="298.143803932" fill="rgb(100%,0%,0%)" r="0.7" /><circle cx="218.903601002" cy="301.109966725" fill="rgb(100%,0%,0%)" r="0.7" /><circle cx="219.430909193" cy="304.063150085" fill="rgb(100%,0%,0%)" r="0.7" /><circle cx="220.041095788" cy="307.000332727" fill="rgb(100%,0%,0%)" r="0.7" /><circle cx="220.739803576" cy="309.917719589" fill="rgb(100%,0%,0%)" r="0.7" /><circle cx="221.534788092" cy="312.810312327" fill="rgb(100%,0%,0%)" r="0.7" /><circle cx="222.438002326" cy="315.670902216" fill="rgb(100%,0%,0%)" r="0.7" /><circle cx="223.472470914" cy="318.486519031" fill="rgb(100%,0%,0%)" r="0.7" /><circle cx="224.890966696" cy="321.109664707" fill="rgb(100%,0%,0%)" r="0.7" /><circle cx="226.822771701" cy="323.403660775" fill="rgb(100%,0%,0%)" r="0.7" /><circle cx="228.910488928" cy="325.55752252" fill="rgb(100%,0%,0%)" r="0.7" /><circle cx="231.096730397" cy="327.611595162" fill="rgb(100%,0%,0%)" r="0.7" /><circle cx="233.351566335" cy="329.590249982" fill="rgb(100%,0%,0%)" r="0.7" /><circle cx="235.657353509" cy="331.509353978" fill="rgb(100%,0%,0%)" r="0.7" /><circle cx="238.002776274" cy="333.37985685" fill="rgb(100%,0%,0%)" r="0.7" /><circle cx="240.380096662" cy="335.209645239" fill="rgb(100%,0%,0%)" r="0.7" /><circle cx="242.78381771" cy="337.004638849" fill="rgb(100%,0%,0%)" r="0.7" /><circle cx="245.209850476" cy="338.769372626" fill="rgb(100%,0%,0%)" r="0.7" /><circle cx="247.655080707" cy="340.507411482" fill="rgb(100%,0%,0%)" r="0.7" /><circle cx="250.117085165" cy="342.221609798" fill="rgb(100%,0%,0%)" r="0.7" /><circle cx="252.593941201" cy="343.914282581" fill="rgb(100%,0%,0%)" r="0.7" /><circle cx="255.084098365" cy="345.587324193" fill="rgb(100%,0%,0%)" r="0.7" /><circle cx="257.586306608" cy="347.242303251" fill="rgb(100%,0%,0%)" r="0.7" /><circle cx="260.099526698" cy="348.88050362" fill="rgb(100%,0%,0%)" r="0.7" /><circle cx="262.622922357" cy="350.502989365" fill="rgb(100%,0%,0%)" r="0.7" /><circle cx="265.1558067" cy="352.110615776" fill="rgb(100%,0%,0%)" r="0.7" /><circle cx="267.69764927" cy="353.704058631" fill="rgb(100%,0%,0%)" r="0.7" /><circle cx="270.248031173" cy="355.283787461" fill="rgb(100%,0%,0%)" r="0.7" /><circle cx="272.806696259" cy="356.850065816" fill="rgb(100%,0%,0%)" r="0.7" /><circle cx="275.373555068" cy="358.402857144" fill="rgb(100%,0%,0%)" r="0.7" /><circle cx="277.9488423" cy="359.941655183" fill="rgb(100%,0%,0%)" r="0.7" /><circle cx="280.53346021" cy="361.464730224" fill="rgb(100%,0%,0%)" r="0.7" /><circle cx="283.156804773" cy="362.918529221" fill="rgb(100%,0%,0%)" r="0.7" /><circle cx="285.805937091" cy="364.326375439" fill="rgb(100%,0%,0%)" r="0.7" /><circle cx="288.442463922" cy="365.757693346" fill="rgb(100%,0%,0%)" r="0.7" /><circle cx="291.066618427" cy="367.211572998" fill="rgb(100%,0%,0%)" r="0.7" /><circle cx="293.678628165" cy="368.6871603" fill="rgb(100%,0%,0%)" r="0.7" /><circle cx="296.278717295" cy="370.183654474" fill="rgb(100%,0%,0%)" r="0.7" /><circle cx="298.867102691" cy="371.700302395" fill="rgb(100%,0%,0%)" r="0.7" /><circle cx="301.44399412" cy="373.236395427" fill="rgb(100%,0%,0%)" r="0.7" /><circle cx="304.009601236" cy="374.791270701" fill="rgb(100%,0%,0%)" r="0.7" /><circle cx="306.564117203" cy="376.36429855" fill="rgb(100%,0%,0%)" r="0.7" /><circle cx="309.107732013" cy="377.954887935" fill="rgb(100%,0%,0%)" r="0.7" /><circle cx="311.6406386" cy="379.562488243" fill="rgb(100%,0%,0%)" r="0.7" /><circle cx="314.162999947" cy="381.18656631" fill="rgb(100%,0%,0%)" r="0.7" /><circle cx="316.675005083" cy="382.826640275" fill="rgb(100%,0%,0%)" r="0.7" /><circle cx="319.176799471" cy="384.482232936" fill="rgb(100%,0%,0%)" r="0.7" /><circle cx="321.668544718" cy="386.152908848" fill="rgb(100%,0%,0%)" r="0.7" /><circle cx="324.150398293" cy="387.83826005" fill="rgb(100%,0%,0%)" r="0.7" /><circle cx="326.62249185" cy="389.537889899" fill="rgb(100%,0%,0%)" r="0.7" /><circle cx="329.084960381" cy="391.251431559" fill="rgb(100%,0%,0%)" r="0.7" /><circle cx="331.537928538" cy="392.978537759" fill="rgb(100%,0%,0%)" r="0.7" /><circle cx="333.981527496" cy="394.718891894" fill="rgb(100%,0%,0%)" r="0.7" /><circle cx="336.415859077" cy="396.472181889" fill="rgb(100%,0%,0%)" r="0.7" /><circle cx="338.841028234" cy="398.238122556" fill="rgb(100%,0%,0%)" r="0.7" /><circle cx="341.257126966" cy="400.016443724" fill="rgb(100%,0%,0%)" r="0.7" /><circle cx="343.664252417" cy="401.806903352" fill="rgb(100%,0%,0%)" r="0.7" /><circle cx="346.062479669" cy="403.60926746" fill="rgb(100%,0%,0%)" r="0.7" /><circle cx="348.451864756" cy="405.423312088" fill="rgb(100%,0%,0%)" r="0.7" /><circle cx="350.832485403" cy="407.248854756" fill="rgb(100%,0%,0%)" r="0.7" /><circle cx="353.204392183" cy="409.085718366" fill="rgb(100%,0%,0%)" r="0.7" /><circle cx="355.567623834" cy="410.933743697" fill="rgb(100%,0%,0%)" r="0.7" /><circle cx="357.92219135" cy="412.792778303" fill="rgb(100%,0%,0%)" r="0.7" /><circle cx="360.268104012" cy="414.662698896" fill="rgb(100%,0%,0%)" r="0.7" /><circle cx="362.605387916" cy="416.543429629" fill="rgb(100%,0%,0%)" r="0.7" /><circle cx="364.93398984" cy="418.43486872" fill="rgb(100%,0%,0%)" r="0.7" /><circle cx="367.253894362" cy="420.336987772" fill="rgb(100%,0%,0%)" r="0.7" /><circle cx="369.56500926" cy="422.249745809" fill="rgb(100%,0%,0%)" r="0.7" /><circle cx="371.867285034" cy="424.173197391" fill="rgb(100%,0%,0%)" r="0.7" /><circle cx="374.160538487" cy="426.107359911" fill="rgb(100%,0%,0%)" r="0.7" /><circle cx="376.444604204" cy="428.052359648" fill="rgb(100%,0%,0%)" r="0.7" /><circle cx="378.719231297" cy="430.00837608" fill="rgb(100%,0%,0%)" r="0.7" /><circle cx="380.984103711" cy="431.975708023" fill="rgb(100%,0%,0%)" r="0.7" /><circle cx="383.238732879" cy="433.954764517" fill="rgb(100%,0%,0%)" r="0.7" /><circle cx="385.48242308" cy="435.94619175" fill="rgb(100%,0%,0%)" r="0.7" /><circle cx="387.714085244" cy="437.951055604" fill="rgb(100%,0%,0%)" r="0.7" /><circle cx="389.931801076" cy="439.971444378" fill="rgb(100%,0%,0%)" r="0.7" /><circle cx="392.021771805" cy="441.77636784" fill="rgb(100%,0%,0%)" r="0.7" /><circle cx="261.078930714" cy="166.368204133" fill="rgb(0%,0%,100%)" r="0.7" /><circle cx="264.009554236" cy="166.974100779" fill="rgb(0%,0%,100%)" r="0.7" /><circle cx="266.751426278" cy="168.180572539" fill="rgb(0%,0%,100%)" r="0.7" /><circle cx="269.242741817" cy="169.846005703" fill="rgb(0%,0%,100%)" r="0.7" /><circle cx="271.457208357" cy="171.866324078" fill="rgb(0%,0%,100%)" r="0.7" /><circle cx="272.809843143" cy="174.513129057" fill="rgb(0%,0%,100%)" r="0.7" /><circle cx="273.751896277" cy="177.359942483" fill="rgb(0%,0%,100%)" r="0.7" /><circle cx="274.312743085" cy="180.303494978" fill="rgb(0%,0%,100%)" r="0.7" /><circle cx="274.142581044" cy="183.283069055" fill="rgb(0%,0%,100%)" r="0.7" /><circle cx="272.474262006" cy="185.691035641" fill="rgb(0%,0%,100%)" r="0.7" /><circle cx="269.889009473" cy="187.197531397" fill="rgb(0%,0%,100%)" r="0.7" /><circle cx="267.11124646" cy="188.327043144" fill="rgb(0%,0%,100%)" r="0.7" /><circle cx="264.252148044" cy="189.234159736" fill="rgb(0%,0%,100%)" r="0.7" /><circle cx="261.438979508" cy="190.240764653" fill="rgb(0%,0%,100%)" r="0.7" /><circle cx="259.007172448" cy="191.988711535" fill="rgb(0%,0%,100%)" r="0.7" /><circle cx="256.87982749" cy="194.101241189" fill="rgb(0%,0%,100%)" r="0.7" /><circle cx="254.98401589" cy="196.425061029" fill="rgb(0%,0%,100%)" r="0.7" /><circle cx="253.271294831" cy="198.887417734" fill="rgb(0%,0%,100%)" r="0.7" /><circle cx="251.707683554" cy="201.447316035" fill="rgb(0%,0%,100%)" r="0.7" /><circle cx="250.268440594" cy="204.079254614" fill="rgb(0%,0%,100%)" r="0.7" /><circle cx="248.934898816" cy="206.766387174" fill="rgb(0%,0%,100%)" r="0.7" /><circle cx="247.692633746" cy="209.496963227" fill="rgb(0%,0%,100%)" r="0.7" /><circle cx="246.530221054" cy="212.262506052" fill="rgb(0%,0%,100%)" r="0.7" /><circle cx="245.596148024" cy="215.111187968" fill="rgb(0%,0%,100%)" r="0.7" /><circle cx="244.681885686" cy="217.968446796" fill="rgb(0%,0%,100%)" r="0.7" /><circle cx="243.709754401" cy="220.806491018" fill="rgb(0%,0%,100%)" r="0.7" /><circle cx="242.632870488" cy="223.606142075" fill="rgb(0%,0%,100%)" r="0.7" /><circle cx="241.509304046" cy="226.381361486" fill="rgb(0%,0%,100%)" r="0.7" /><circle cx="240.622661617" cy="229.24727541" fill="rgb(0%,0%,100%)" r="0.7" /><circle cx="239.793906749" cy="232.130491101" fill="rgb(0%,0%,100%)" r="0.7" /><circle cx="239.01809074" cy="235.028392172" fill="rgb(0%,0%,100%)" r="0.7" /><circle cx="238.294895385" cy="237.939876798" fill="rgb(0%,0%,100%)" r="0.7" /><circle cx="237.626001499" cy="240.864308792" fill="rgb(0%,0%,100%)" r="0.7" /><circle cx="237.014447224" cy="243.801265112" fill="rgb(0%,0%,100%)" r="0.7" /><circle cx="236.464479634" cy="246.750366746" fill="rgb(0%,0%,100%)" r="0.7" /><circle cx="235.981597729" cy="249.711175979" fill="rgb(0%,0%,100%)" r="0.7" /><circle cx="235.572722974" cy="252.683097314" fill="rgb(0%,0%,100%)" r="0.7" /><circle cx="235.246494026" cy="255.665199023" fill="rgb(0%,0%,100%)" r="0.7" /><circle cx="235.013687977" cy="258.656014281" fill="rgb(0%,0%,100%)" r="0.7" /><circle cx="234.887817503" cy="261.653188387" fill="rgb(0%,0%,100%)" r="0.7" /><circle cx="234.885951371" cy="264.652939918" fill="rgb(0%,0%,100%)" r="0.7" /><circle cx="235.029826763" cy="267.649139449" fill="rgb(0%,0%,100%)" r="0.7" /><circle cx="235.246253629" cy="270.639953567" fill="rgb(0%,0%,100%)" r="0.7" /><circle cx="235.414812162" cy="273.635139752" fill="rgb(0%,0%,100%)" r="0.7" /><circle cx="235.652752282" cy="276.625629604" fill="rgb(0%,0%,100%)" r="0.7" /><circle cx="235.956024229" cy="279.610210128" fill="rgb(0%,0%,100%)" r="0.7" /><circle cx="236.326793282" cy="282.58713791" fill="rgb(0%,0%,100%)" r="0.7" /><circle cx="236.770361343" cy="285.554082042" fill="rgb(0%,0%,100%)" r="0.7" /><circle cx="237.294773101" cy="288.507787004" fill="rgb(0%,0%,100%)" r="0.7" /><circle cx="237.911185187" cy="291.443632867" fill="rgb(0%,0%,100%)" r="0.7" /><circle cx="238.634764338" cy="294.354860269" fill="rgb(0%,0%,100%)" r="0.7" /><circle cx="239.486218492" cy="297.231185313" fill="rgb(0%,0%,100%)" r="0.7" /><circle cx="240.494264181" cy="300.05625014" fill="rgb(0%,0%,100%)" r="0.7" /><circle cx="241.699487298" cy="302.802615645" fill="rgb(0%,0%,100%)" r="0.7" /><circle cx="243.159872559" cy="305.421391799" fill="rgb(0%,0%,100%)" r="0.7" /><circle cx="244.955864316" cy="307.820403609" fill="rgb(0%,0%,100%)" r="0.7" /><circle cx="247.15481289" cy="309.858279115" fill="rgb(0%,0%,100%)" r="0.7" /><circle cx="249.399961335" cy="311.848074242" fill="rgb(0%,0%,100%)" r="0.7" /><circle cx="251.657415066" cy="313.823900607" fill="rgb(0%,0%,100%)" r="0.7" /><circle cx="253.928573309" cy="315.783952633" fill="rgb(0%,0%,100%)" r="0.7" /><circle cx="256.216349527" cy="317.724577114" fill="rgb(0%,0%,100%)" r="0.7" /><circle cx="258.525861901" cy="319.639264847" fill="rgb(0%,0%,100%)" r="0.7" /><circle cx="260.866707534" cy="321.515468456" fill="rgb(0%,0%,100%)" r="0.7" /><circle cx="263.260614467" cy="323.323231104" fill="rgb(0%,0%,100%)" r="0.7" /><circle cx="265.766985986" cy="324.970164434" fill="rgb(0%,0%,100%)" r="0.7" /><circle cx="268.309171049" cy="326.563018198" fill="rgb(0%,0%,100%)" r="0.7" /><circle cx="270.850778134" cy="328.156861376" fill="rgb(0%,0%,100%)" r="0.7" /><circle cx="273.391802118" cy="329.751590668" fill="rgb(0%,0%,100%)" r="0.7" /><circle cx="275.932247862" cy="331.347253181" fill="rgb(0%,0%,100%)" r="0.7" /><circle cx="278.472062815" cy="332.943929629" fill="rgb(0%,0%,100%)" r="0.7" /><circle cx="281.011155647" cy="334.541740879" fill="rgb(0%,0%,100%)" r="0.7" /><circle cx="283.54941861" cy="336.140877362" fill="rgb(0%,0%,100%)" r="0.7" /><circle cx="286.086679205" cy="337.741603749" fill="rgb(0%,0%,100%)" r="0.7" /><circle cx="288.622684483" cy="339.344317936" fill="rgb(0%,0%,100%)" r="0.7" /><circle cx="291.157032442" cy="340.949650259" fill="rgb(0%,0%,100%)" r="0.7" /><circle cx="293.689019274" cy="342.55870283" fill="rgb(0%,0%,100%)" r="0.7" /><circle cx="296.217180446" cy="344.173749758" fill="rgb(0%,0%,100%)" r="0.7" /><circle cx="298.737197229" cy="345.801490959" fill="rgb(0%,0%,100%)" r="0.7" /><circle cx="301.293427765" cy="347.353568476" fill="rgb(0%,0%,100%)" r="0.7" /><circle cx="304.011052395" cy="348.624116368" fill="rgb(0%,0%,100%)" r="0.7" /><circle cx="306.704848505" cy="349.94440849" fill="rgb(0%,0%,100%)" r="0.7" /><circle cx="309.366562129" cy="351.328127621" fill="rgb(0%,0%,100%)" r="0.7" /><circle cx="311.941303193" cy="352.862756321" fill="rgb(0%,0%,100%)" r="0.7" /><circle cx="314.423148544" cy="354.548131532" fill="rgb(0%,0%,100%)" r="0.7" /><circle cx="316.903427439" cy="356.235808585" fill="rgb(0%,0%,100%)" r="0.7" /><circle cx="319.382203634" cy="357.925682172" fill="rgb(0%,0%,100%)" r="0.7" /><circle cx="321.859390083" cy="359.617876156" fill="rgb(0%,0%,100%)" r="0.7" /><circle cx="324.33482018" cy="361.312653202" fill="rgb(0%,0%,100%)" r="0.7" /><circle cx="326.80821112" cy="363.010400226" fill="rgb(0%,0%,100%)" r="0.7" /><circle cx="329.279160442" cy="364.711700066" fill="rgb(0%,0%,100%)" r="0.7" /><circle cx="331.747055361" cy="366.417428289" fill="rgb(0%,0%,100%)" r="0.7" /><circle cx="334.21091456" cy="368.128980261" fill="rgb(0%,0%,100%)" r="0.7" /><circle cx="336.66899824" cy="369.848801614" fill="rgb(0%,0%,100%)" r="0.7" /><circle cx="339.117676769" cy="371.581988925" fill="rgb(0%,0%,100%)" r="0.7" /><circle cx="341.545873587" cy="373.343696152" fill="rgb(0%,0%,100%)" r="0.7" /><circle cx="343.995720417" cy="375.062524561" fill="rgb(0%,0%,100%)" r="0.7" /><circle cx="346.582636484" cy="376.581682169" fill="rgb(0%,0%,100%)" r="0.7" /><circle cx="349.16307838" cy="378.111817836" fill="rgb(0%,0%,100%)" r="0.7" /><circle cx="351.737128364" cy="379.652675069" fill="rgb(0%,0%,100%)" r="0.7" /><circle cx="354.304245856" cy="381.205063253" fill="rgb(0%,0%,100%)" r="0.7" /><circle cx="356.863429555" cy="382.770491863" fill="rgb(0%,0%,100%)" r="0.7" /><circle cx="359.413140757" cy="384.351299799" fill="rgb(0%,0%,100%)" r="0.7" /><circle cx="361.951008253" cy="385.951043831" fill="rgb(0%,0%,100%)" r="0.7" /><circle cx="364.47320968" cy="387.57536778" fill="rgb(0%,0%,100%)" r="0.7" /><circle cx="366.972949629" cy="389.234007605" fill="rgb(0%,0%,100%)" r="0.7" /><circle cx="369.436014429" cy="390.946526099" fill="rgb(0%,0%,100%)" r="0.7" /><circle cx="371.820293935" cy="392.766319679" fill="rgb(0%,0%,100%)" r="0.7" /><circle cx="374.116965094" cy="394.686159441" fill="rgb(0%,0%,100%)" r="0.7" /><circle cx="376.532636257" cy="396.465065788" fill="rgb(0%,0%,100%)" r="0.7" /><circle cx="378.942834716" cy="398.251389953" fill="rgb(0%,0%,100%)" r="0.7" /><circle cx="381.346612598" cy="400.046338165" fill="rgb(0%,0%,100%)" r="0.7" /><circle cx="383.741636401" cy="401.852947495" fill="rgb(0%,0%,100%)" r="0.7" /><circle cx="386.122547991" cy="403.678103759" fill="rgb(0%,0%,100%)" r="0.7" /><circle cx="388.471650967" cy="405.543871617" fill="rgb(0%,0%,100%)" r="0.7" /><circle cx="390.839406037" cy="407.372499435" fill="rgb(0%,0%,100%)" r="0.7" /><circle cx="393.21324268" cy="409.205475497" fill="rgb(0%,0%,100%)" r="0.7" /><circle cx="395.439767016" cy="411.215096041" fill="rgb(0%,0%,100%)" r="0.7" /><circle cx="397.514291595" cy="413.381284118" fill="rgb(0%,0%,100%)" r="0.7" /><circle cx="399.431367507" cy="415.687910533" fill="rgb(0%,0%,100%)" r="0.7" /><circle cx="401.444915909" cy="417.911776425" fill="rgb(0%,0%,100%)" r="0.7" /><circle cx="403.473439773" cy="420.121998516" fill="rgb(0%,0%,100%)" r="0.7" /><circle cx="405.517686607" cy="422.317678912" fill="rgb(0%,0%,100%)" r="0.7" /><circle cx="407.581625352" cy="424.494850967" fill="rgb(0%,0%,100%)" r="0.7" /><circle cx="409.673413685" cy="426.645255493" fill="rgb(0%,0%,100%)" r="0.7" /><circle cx="411.812" cy="428.749" fill="rgb(0%,0%,100%)" r="0.7" /><circle cx="410.489256077" cy="428.880292157" fill="rgb(0%,0%,100%)" r="0.7" /><circle cx="407.503925825" cy="429.176608353" fill="rgb(0%,0%,100%)" r="0.7" /><circle cx="404.518595573" cy="429.472924548" fill="rgb(0%,0%,100%)" r="0.7" /><circle cx="401.533265321" cy="429.769240744" fill="rgb(0%,0%,100%)" r="0.7" /><circle cx="398.54793507" cy="430.06555694" fill="rgb(0%,0%,100%)" r="0.7" /><circle cx="395.562604818" cy="430.361873136" fill="rgb(0%,0%,100%)" r="0.7" /><circle cx="392.577274566" cy="430.658189331" fill="rgb(0%,0%,100%)" r="0.7" /><circle cx="391.687415303" cy="432.782580778" fill="rgb(0%,0%,100%)" r="0.7" /><circle cx="391.79886747" cy="435.780509799" fill="rgb(0%,0%,100%)" r="0.7" /><circle cx="391.910319637" cy="438.778438819" fill="rgb(0%,0%,100%)" r="0.7" /><circle cx="392.021771805" cy="441.77636784" fill="rgb(0%,0%,100%)" r="0.7" /></svg>