<?xml version="1.0" encoding="utf-8" ?>
<svg baseProfile="full" height="100%" version="1.1" width="100%" xmlns="http://www.w3.org/2000/svg" xmlns:ev="http://www.w3.org/2001/xml-events" xmlns:xlink="http://www.w3.org/1999/xlink"><defs /><circle cx="270.719872499" cy="265.642895026" fill="rgb(100%,0%,0%)" r="0.7" /><circle cx="267.906810758" cy="266.666366621" fill="rgb(100%,0%,0%)" r="0.7" /><circle cx="265.171628174" cy="267.898548321" fill="rgb(100%,0%,0%)" r="0.7" /><circle cx="262.45955446" cy="269.180944088" fill="rgb(100%,0%,0%)" r="0.7" /><circle cx="259.773224759" cy="270.515834335" fill="rgb(100%,0%,0%)" r="0.7" /><circle cx="257.187898247" cy="272.036472967" fill="rgb(100%,0%,0%)" r="0.7" /><circle cx="254.694684665" cy="273.704461172" fill="rgb(100%,0%,0%)" r="0.7" /><circle cx="252.271824148" cy="275.473315258" fill="rgb(100%,0%,0%)" r="0.7" /><circle cx="249.904820475" cy="277.316343837" fill="rgb(100%,0%,0%)" r="0.7" /><circle cx="247.583588556" cy="279.216747405" fill="rgb(100%,0%,0%)" r="0.7" /><circle cx="245.300838" cy="281.163233801" fill="rgb(100%,0%,0%)" r="0.7" /><circle cx="243.051132023" cy="283.147833545" fill="rgb(100%,0%,0%)" r="0.7" /><circle cx="240.830309344" cy="285.164717419" fill="rgb(100%,0%,0%)" r="0.7" /><circle cx="238.635135364" cy="287.209494686" fill="rgb(100%,0%,0%)" r="0.7" /><circle cx="236.463060367" cy="289.278796538" fill="rgb(100%,0%,0%)" r="0.7" /><circle cx="234.312068142" cy="291.370005313" fill="rgb(100%,0%,0%)" r="0.7" /><circle cx="232.180567167" cy="293.481091344" fill="rgb(100%,0%,0%)" r="0.7" /><circle cx="230.067360462" cy="295.610479133" fill="rgb(100%,0%,0%)" r="0.7" /><circle cx="227.971584276" cy="297.757038484" fill="rgb(100%,0%,0%)" r="0.7" /><circle cx="225.892802742" cy="299.920036916" fill="rgb(100%,0%,0%)" r="0.7" /><circle cx="223.831097208" cy="302.099334725" fill="rgb(100%,0%,0%)" r="0.7" /><circle cx="221.78770691" cy="304.29582112" fill="rgb(100%,0%,0%)" r="0.7" /><circle cx="219.716369618" cy="306.462509568" fill="rgb(100%,0%,0%)" r="0.7" /><circle cx="217.639177936" cy="308.625605255" fill="rgb(100%,0%,0%)" r="0.7" /><circle cx="215.715291665" cy="310.927064008" fill="rgb(100%,0%,0%)" r="0.7" /><circle cx="213.889912035" cy="313.307634526" fill="rgb(100%,0%,0%)" r="0.7" /><circle cx="212.134675052" cy="315.740460741" fill="rgb(100%,0%,0%)" r="0.7" /><circle cx="210.432759587" cy="318.210940087" fill="rgb(100%,0%,0%)" r="0.7" /><circle cx="208.773293095" cy="320.710138122" fill="rgb(100%,0%,0%)" r="0.7" /><circle cx="207.148764515" cy="323.232198445" fill="rgb(100%,0%,0%)" r="0.7" /><circle cx="205.553763367" cy="325.773041366" fill="rgb(100%,0%,0%)" r="0.7" /><circle cx="203.9842539" cy="328.329716358" fill="rgb(100%,0%,0%)" r="0.7" /><circle cx="202.437157477" cy="330.900015422" fill="rgb(100%,0%,0%)" r="0.7" /><circle cx="200.91007938" cy="333.482263145" fill="rgb(100%,0%,0%)" r="0.7" /><circle cx="199.401149307" cy="336.075161282" fill="rgb(100%,0%,0%)" r="0.7" /><circle cx="197.908916692" cy="338.67769482" fill="rgb(100%,0%,0%)" r="0.7" /><circle cx="196.432264342" cy="341.289119394" fill="rgb(100%,0%,0%)" r="0.7" /><circle cx="194.970436446" cy="343.908847733" fill="rgb(100%,0%,0%)" r="0.7" /><circle cx="193.52299967" cy="346.536584315" fill="rgb(100%,0%,0%)" r="0.7" /><circle cx="192.090084203" cy="349.172234804" fill="rgb(100%,0%,0%)" r="0.7" /><circle cx="190.672880883" cy="351.816383897" fill="rgb(100%,0%,0%)" r="0.7" /><circle cx="189.430138448" cy="354.538356421" fill="rgb(100%,0%,0%)" r="0.7" /><circle cx="188.627161409" cy="357.427619148" fill="rgb(100%,0%,0%)" r="0.7" /><circle cx="188.118792147" cy="360.382906379" fill="rgb(100%,0%,0%)" r="0.7" /><circle cx="187.914568189" cy="363.374648169" fill="rgb(100%,0%,0%)" r="0.7" /><circle cx="188.012118225" cy="366.371833618" fill="rgb(100%,0%,0%)" r="0.7" /><circle cx="188.397994024" cy="369.345806017" fill="rgb(100%,0%,0%)" r="0.7" /><circle cx="189.050500268" cy="372.273021611" fill="rgb(100%,0%,0%)" r="0.7" /><circle cx="189.943325304" cy="375.13626698" fill="rgb(100%,0%,0%)" r="0.7" /><circle cx="191.048832191" cy="377.924461991" fill="rgb(100%,0%,0%)" r="0.7" /><circle cx="192.34040709" cy="380.631631441" fill="rgb(100%,0%,0%)" r="0.7" /><circle cx="193.793793706" cy="383.255597409" fill="rgb(100%,0%,0%)" r="0.7" /><circle cx="195.387654686" cy="385.796784267" fill="rgb(100%,0%,0%)" r="0.7" /><circle cx="197.10362407" cy="388.257241787" fill="rgb(100%,0%,0%)" r="0.7" /><circle cx="198.926102791" cy="390.639943366" fill="rgb(100%,0%,0%)" r="0.7" /><circle cx="200.841939744" cy="392.948297525" fill="rgb(100%,0%,0%)" r="0.7" /><circle cx="202.84008914" cy="395.185823444" fill="rgb(100%,0%,0%)" r="0.7" /><circle cx="204.911286412" cy="397.355938004" fill="rgb(100%,0%,0%)" r="0.7" /><circle cx="207.047773718" cy="399.461826606" fill="rgb(100%,0%,0%)" r="0.7" /><circle cx="209.243071211" cy="401.50635477" fill="rgb(100%,0%,0%)" r="0.7" /><circle cx="211.491798623" cy="403.492001056" fill="rgb(100%,0%,0%)" r="0.7" /><circle cx="213.789506826" cy="405.420755627" fill="rgb(100%,0%,0%)" r="0.7" /><circle cx="216.132648945" cy="407.294065506" fill="rgb(100%,0%,0%)" r="0.7" /><circle cx="218.518537426" cy="409.112628436" fill="rgb(100%,0%,0%)" r="0.7" /><circle cx="220.945467603" cy="410.87603612" fill="rgb(100%,0%,0%)" r="0.7" /><circle cx="223.413191984" cy="412.58189253" fill="rgb(100%,0%,0%)" r="0.7" /><circle cx="225.924727328" cy="414.222496868" fill="rgb(100%,0%,0%)" r="0.7" /><circle cx="228.480657075" cy="415.792947125" fill="rgb(100%,0%,0%)" r="0.7" /><circle cx="231.082397305" cy="417.286427749" fill="rgb(100%,0%,0%)" r="0.7" /><circle cx="233.715041686" cy="418.724782622" fill="rgb(100%,0%,0%)" r="0.7" /><circle cx="236.365937469" cy="420.129350274" fill="rgb(100%,0%,0%)" r="0.7" /><circle cx="239.029140644" cy="421.510370476" fill="rgb(100%,0%,0%)" r="0.7" /><circle cx="241.701431109" cy="422.873764595" fill="rgb(100%,0%,0%)" r="0.7" /><circle cx="244.380760352" cy="424.223279174" fill="rgb(100%,0%,0%)" r="0.7" /><circle cx="247.065762589" cy="425.561477934" fill="rgb(100%,0%,0%)" r="0.7" /><circle cx="249.755472013" cy="426.890203771" fill="rgb(100%,0%,0%)" r="0.7" /><circle cx="252.44915439" cy="428.210821777" fill="rgb(100%,0%,0%)" r="0.7" /><circle cx="255.146287948" cy="429.524400157" fill="rgb(100%,0%,0%)" r="0.7" /><circle cx="257.846435782" cy="430.831765427" fill="rgb(100%,0%,0%)" r="0.7" /><circle cx="260.549262581" cy="432.133587053" fill="rgb(100%,0%,0%)" r="0.7" /><circle cx="263.254491379" cy="433.430407769" fill="rgb(100%,0%,0%)" r="0.7" /><circle cx="265.961898893" cy="434.722676908" fill="rgb(100%,0%,0%)" r="0.7" /><circle cx="268.671296002" cy="436.010766273" fill="rgb(100%,0%,0%)" r="0.7" /><circle cx="271.382529634" cy="437.294989242" fill="rgb(100%,0%,0%)" r="0.7" /><circle cx="274.09546062" cy="438.575603491" fill="rgb(100%,0%,0%)" r="0.7" /><circle cx="276.809993208" cy="439.852834474" fill="rgb(100%,0%,0%)" r="0.7" /><circle cx="279.526027707" cy="441.126859725" fill="rgb(100%,0%,0%)" r="0.7" /><circle cx="282.243496095" cy="442.397829741" fill="rgb(100%,0%,0%)" r="0.7" /><circle cx="284.962355482" cy="443.66586637" fill="rgb(100%,0%,0%)" r="0.7" /><circle cx="287.682530311" cy="444.931034239" fill="rgb(100%,0%,0%)" r="0.7" /><circle cx="290.404019897" cy="446.193384182" fill="rgb(100%,0%,0%)" r="0.7" /><circle cx="293.126819201" cy="447.452899738" fill="rgb(100%,0%,0%)" r="0.7" /><circle cx="295.850973889" cy="448.709481444" fill="rgb(100%,0%,0%)" r="0.7" /><circle cx="298.57661976" cy="449.962834953" fill="rgb(100%,0%,0%)" r="0.7" /><circle cx="301.305250837" cy="451.209502707" fill="rgb(100%,0%,0%)" r="0.7" /><circle cx="304.032359636" cy="452.459652693" fill="rgb(100%,0%,0%)" r="0.7" /><circle cx="306.748836996" cy="453.732696874" fill="rgb(100%,0%,0%)" r="0.7" /><circle cx="309.456036628" cy="455.025384939" fill="rgb(100%,0%,0%)" r="0.7" /><circle cx="312.155011599" cy="456.335163361" fill="rgb(100%,0%,0%)" r="0.7" /><circle cx="314.846631408" cy="457.659998388" fill="rgb(100%,0%,0%)" r="0.7" /><circle cx="317.531608605" cy="458.998232946" fill="rgb(100%,0%,0%)" r="0.7" /><circle cx="320.21055623" cy="460.348506632" fill="rgb(100%,0%,0%)" r="0.7" /><circle cx="322.88399255" cy="461.709680874" fill="rgb(100%,0%,0%)" r="0.7" /><circle cx="325.552333171" cy="463.080777992" fill="rgb(100%,0%,0%)" r="0.7" /><circle cx="328.215981402" cy="464.460985255" fill="rgb(100%,0%,0%)" r="0.7" /><circle cx="330.875263658" cy="465.849589895" fill="rgb(100%,0%,0%)" r="0.7" /><circle cx="333.530470199" cy="467.245975259" fill="rgb(100%,0%,0%)" r="0.7" /><circle cx="336.181853812" cy="468.649600841" fill="rgb(100%,0%,0%)" r="0.7" /><circle cx="338.829642934" cy="470.059993916" fill="rgb(100%,0%,0%)" r="0.7" /><circle cx="341.474041423" cy="471.476737239" fill="rgb(100%,0%,0%)" r="0.7" /><circle cx="344.115228076" cy="472.89945889" fill="rgb(100%,0%,0%)" r="0.7" /><circle cx="346.753365292" cy="474.327828877" fill="rgb(100%,0%,0%)" r="0.7" /><circle cx="349.388594918" cy="475.761550316" fill="rgb(100%,0%,0%)" r="0.7" /><circle cx="352.021048577" cy="477.200359606" fill="rgb(100%,0%,0%)" r="0.7" /><circle cx="354.650847363" cy="478.644021858" fill="rgb(100%,0%,0%)" r="0.7" /><circle cx="357.278096221" cy="480.092324123" fill="rgb(100%,0%,0%)" r="0.7" /><circle cx="359.902891918" cy="481.545076745" fill="rgb(100%,0%,0%)" r="0.7" /><circle cx="362.525304915" cy="483.002100851" fill="rgb(100%,0%,0%)" r="0.7" /><circle cx="365.145425739" cy="484.463252149" fill="rgb(100%,0%,0%)" r="0.7" /><circle cx="367.76332692" cy="485.928398428" fill="rgb(100%,0%,0%)" r="0.7" /><circle cx="370.379047599" cy="487.397409809" fill="rgb(100%,0%,0%)" r="0.7" /><circle cx="372.992653265" cy="488.870191724" fill="rgb(100%,0%,0%)" r="0.7" /><circle cx="375.604179906" cy="490.346653682" fill="rgb(100%,0%,0%)" r="0.7" /><circle cx="378.213661554" cy="491.82672547" fill="rgb(100%,0%,0%)" r="0.7" /><circle cx="380.821104791" cy="493.310344364" fill="rgb(100%,0%,0%)" r="0.7" /><circle cx="383.426566032" cy="494.797502171" fill="rgb(100%,0%,0%)" r="0.7" /><circle cx="386.030002542" cy="496.288165453" fill="rgb(100%,0%,0%)" r="0.7" /><circle cx="388.631424054" cy="497.782370681" fill="rgb(100%,0%,0%)" r="0.7" /><circle cx="391.230783535" cy="499.280177208" fill="rgb(100%,0%,0%)" r="0.7" /><circle cx="393.82797968" cy="500.781697865" fill="rgb(100%,0%,0%)" r="0.7" /><circle cx="396.422891316" cy="502.287183451" fill="rgb(100%,0%,0%)" r="0.7" /><circle cx="399.015178576" cy="503.797089429" fill="rgb(100%,0%,0%)" r="0.7" /><circle cx="401.604" cy="505.313" fill="rgb(100%,0%,0%)" r="0.7" /><circle cx="270.719872499" cy="265.642895026" fill="rgb(0%,0%,100%)" r="0.7" /><circle cx="273.5622589" cy="266.586391292" fill="rgb(0%,0%,100%)" r="0.7" /><circle cx="276.320409437" cy="267.764947042" fill="rgb(0%,0%,100%)" r="0.7" /><circle cx="278.988291063" cy="269.135503796" fill="rgb(0%,0%,100%)" r="0.7" /><circle cx="281.541672781" cy="270.708745395" fill="rgb(0%,0%,100%)" r="0.7" /><circle cx="283.943601591" cy="272.504200259" fill="rgb(0%,0%,100%)" r="0.7" /><circle cx="286.140824826" cy="274.544316716" fill="rgb(0%,0%,100%)" r="0.7" /><circle cx="288.060368893" cy="276.846673248" fill="rgb(0%,0%,100%)" r="0.7" /><circle cx="289.611462815" cy="279.410717088" fill="rgb(0%,0%,100%)" r="0.7" /><circle cx="290.701290285" cy="282.201436046" fill="rgb(0%,0%,100%)" r="0.7" /><circle cx="290.548238165" cy="285.083768686" fill="rgb(0%,0%,100%)" r="0.7" /><circle cx="288.145943667" cy="286.762277601" fill="rgb(0%,0%,100%)" r="0.7" /><circle cx="285.176667607" cy="287.105167622" fill="rgb(0%,0%,100%)" r="0.7" /><circle cx="282.241722891" cy="287.722364276" fill="rgb(0%,0%,100%)" r="0.7" /><circle cx="279.353065118" cy="288.530608503" fill="rgb(0%,0%,100%)" r="0.7" /><circle cx="276.512676793" cy="289.495012922" fill="rgb(0%,0%,100%)" r="0.7" /><circle cx="273.727159335" cy="290.608028456" fill="rgb(0%,0%,100%)" r="0.7" /><circle cx="271.005141073" cy="291.868351639" fill="rgb(0%,0%,100%)" r="0.7" /><circle cx="268.357829851" cy="293.278695842" fill="rgb(0%,0%,100%)" r="0.7" /><circle cx="265.766579411" cy="294.79036077" fill="rgb(0%,0%,100%)" r="0.7" /><circle cx="263.202626786" cy="296.347900372" fill="rgb(0%,0%,100%)" r="0.7" /><circle cx="260.662916115" cy="297.944682617" fill="rgb(0%,0%,100%)" r="0.7" /><circle cx="258.147070434" cy="299.578820631" fill="rgb(0%,0%,100%)" r="0.7" /><circle cx="255.655708257" cy="301.250029069" fill="rgb(0%,0%,100%)" r="0.7" /><circle cx="253.190038738" cy="302.958920294" fill="rgb(0%,0%,100%)" r="0.7" /><circle cx="250.751801317" cy="304.706714798" fill="rgb(0%,0%,100%)" r="0.7" /><circle cx="248.343225196" cy="306.495162537" fill="rgb(0%,0%,100%)" r="0.7" /><circle cx="245.967101776" cy="308.326495032" fill="rgb(0%,0%,100%)" r="0.7" /><circle cx="243.626856817" cy="310.203449278" fill="rgb(0%,0%,100%)" r="0.7" /><circle cx="241.326695757" cy="312.129299226" fill="rgb(0%,0%,100%)" r="0.7" /><circle cx="239.071787862" cy="314.107922863" fill="rgb(0%,0%,100%)" r="0.7" /><circle cx="236.868535068" cy="316.143880675" fill="rgb(0%,0%,100%)" r="0.7" /><circle cx="234.724934095" cy="318.242519169" fill="rgb(0%,0%,100%)" r="0.7" /><circle cx="232.651096367" cy="320.41007308" fill="rgb(0%,0%,100%)" r="0.7" /><circle cx="230.659965251" cy="322.653771536" fill="rgb(0%,0%,100%)" r="0.7" /><circle cx="228.762995269" cy="324.977633735" fill="rgb(0%,0%,100%)" r="0.7" /><circle cx="226.926392093" cy="327.349691118" fill="rgb(0%,0%,100%)" r="0.7" /><circle cx="225.130645566" cy="329.752836653" fill="rgb(0%,0%,100%)" r="0.7" /><circle cx="223.374714603" cy="332.18522446" fill="rgb(0%,0%,100%)" r="0.7" /><circle cx="221.661951713" cy="334.648191599" fill="rgb(0%,0%,100%)" r="0.7" /><circle cx="219.998552378" cy="337.144743277" fill="rgb(0%,0%,100%)" r="0.7" /><circle cx="218.394046574" cy="339.679515773" fill="rgb(0%,0%,100%)" r="0.7" /><circle cx="216.862898167" cy="342.259210331" fill="rgb(0%,0%,100%)" r="0.7" /><circle cx="215.427892288" cy="344.893488448" fill="rgb(0%,0%,100%)" r="0.7" /><circle cx="214.127597139" cy="347.59655085" fill="rgb(0%,0%,100%)" r="0.7" /><circle cx="213.035214898" cy="350.389394729" fill="rgb(0%,0%,100%)" r="0.7" /><circle cx="212.317113654" cy="353.298059723" fill="rgb(0%,0%,100%)" r="0.7" /><circle cx="212.103637109" cy="356.289162275" fill="rgb(0%,0%,100%)" r="0.7" /><circle cx="212.133981934" cy="359.288388942" fill="rgb(0%,0%,100%)" r="0.7" /><circle cx="212.368094422" cy="362.278678845" fill="rgb(0%,0%,100%)" r="0.7" /><circle cx="212.803881059" cy="365.246262438" fill="rgb(0%,0%,100%)" r="0.7" /><circle cx="213.449390095" cy="368.175299139" fill="rgb(0%,0%,100%)" r="0.7" /><circle cx="214.316592781" cy="371.04640071" fill="rgb(0%,0%,100%)" r="0.7" /><circle cx="215.418340353" cy="373.835771275" fill="rgb(0%,0%,100%)" r="0.7" /><circle cx="216.765602097" cy="376.515018581" fill="rgb(0%,0%,100%)" r="0.7" /><circle cx="218.364466922" cy="379.051986236" fill="rgb(0%,0%,100%)" r="0.7" /><circle cx="220.213180848" cy="381.412943467" fill="rgb(0%,0%,100%)" r="0.7" /><circle cx="222.300089576" cy="383.566157208" fill="rgb(0%,0%,100%)" r="0.7" /><circle cx="224.60347206" cy="385.486074659" fill="rgb(0%,0%,100%)" r="0.7" /><circle cx="227.063619505" cy="387.202522976" fill="rgb(0%,0%,100%)" r="0.7" /><circle cx="229.552391115" cy="388.877622212" fill="rgb(0%,0%,100%)" r="0.7" /><circle cx="232.054152183" cy="390.533251213" fill="rgb(0%,0%,100%)" r="0.7" /><circle cx="234.567117478" cy="392.171849126" fill="rgb(0%,0%,100%)" r="0.7" /><circle cx="237.090427867" cy="393.794466387" fill="rgb(0%,0%,100%)" r="0.7" /><circle cx="239.623624752" cy="395.401606542" fill="rgb(0%,0%,100%)" r="0.7" /><circle cx="242.166447522" cy="396.99346444" fill="rgb(0%,0%,100%)" r="0.7" /><circle cx="244.718776904" cy="398.570047193" fill="rgb(0%,0%,100%)" r="0.7" /><circle cx="247.280558772" cy="400.131204961" fill="rgb(0%,0%,100%)" r="0.7" /><circle cx="249.851832683" cy="401.676691057" fill="rgb(0%,0%,100%)" r="0.7" /><circle cx="252.432672284" cy="403.206149448" fill="rgb(0%,0%,100%)" r="0.7" /><circle cx="255.023203239" cy="404.719139089" fill="rgb(0%,0%,100%)" r="0.7" /><circle cx="257.623581702" cy="406.215127746" fill="rgb(0%,0%,100%)" r="0.7" /><circle cx="260.234015855" cy="407.693506318" fill="rgb(0%,0%,100%)" r="0.7" /><circle cx="262.854736821" cy="409.15357034" fill="rgb(0%,0%,100%)" r="0.7" /><circle cx="265.486013461" cy="410.594523949" fill="rgb(0%,0%,100%)" r="0.7" /><circle cx="268.128146971" cy="412.015469543" fill="rgb(0%,0%,100%)" r="0.7" /><circle cx="270.781474756" cy="413.41540002" fill="rgb(0%,0%,100%)" r="0.7" /><circle cx="273.459065587" cy="414.768355683" fill="rgb(0%,0%,100%)" r="0.7" /><circle cx="276.137636246" cy="416.119348512" fill="rgb(0%,0%,100%)" r="0.7" /><circle cx="278.816851718" cy="417.469109276" fill="rgb(0%,0%,100%)" r="0.7" /><circle cx="281.496693069" cy="418.817612978" fill="rgb(0%,0%,100%)" r="0.7" /><circle cx="284.177205218" cy="420.164774525" fill="rgb(0%,0%,100%)" r="0.7" /><circle cx="286.858466914" cy="421.510452943" fill="rgb(0%,0%,100%)" r="0.7" /><circle cx="289.540578755" cy="422.8544362" fill="rgb(0%,0%,100%)" r="0.7" /><circle cx="292.223687174" cy="424.196424903" fill="rgb(0%,0%,100%)" r="0.7" /><circle cx="294.90800939" cy="425.535989404" fill="rgb(0%,0%,100%)" r="0.7" /><circle cx="297.593863455" cy="426.872477376" fill="rgb(0%,0%,100%)" r="0.7" /><circle cx="300.281768833" cy="428.204836777" fill="rgb(0%,0%,100%)" r="0.7" /><circle cx="302.972654319" cy="429.531159459" fill="rgb(0%,0%,100%)" r="0.7" /><circle cx="305.668563778" cy="430.847239548" fill="rgb(0%,0%,100%)" r="0.7" /><circle cx="308.376542576" cy="432.138238116" fill="rgb(0%,0%,100%)" r="0.7" /><circle cx="311.055148252" cy="433.488363254" fill="rgb(0%,0%,100%)" r="0.7" /><circle cx="313.724750409" cy="434.857028057" fill="rgb(0%,0%,100%)" r="0.7" /><circle cx="316.393628246" cy="436.227081636" fill="rgb(0%,0%,100%)" r="0.7" /><circle cx="319.06179087" cy="437.598557538" fill="rgb(0%,0%,100%)" r="0.7" /><circle cx="321.729160404" cy="438.97156469" fill="rgb(0%,0%,100%)" r="0.7" /><circle cx="324.395637654" cy="440.346300672" fill="rgb(0%,0%,100%)" r="0.7" /><circle cx="327.061074339" cy="441.723058416" fill="rgb(0%,0%,100%)" r="0.7" /><circle cx="329.72524354" cy="443.102265524" fill="rgb(0%,0%,100%)" r="0.7" /><circle cx="332.387804945" cy="444.484578046" fill="rgb(0%,0%,100%)" r="0.7" /><circle cx="335.048187902" cy="445.871061567" fill="rgb(0%,0%,100%)" r="0.7" /><circle cx="337.705375367" cy="447.263687205" fill="rgb(0%,0%,100%)" r="0.7" /><circle cx="340.356986845" cy="448.666866171" fill="rgb(0%,0%,100%)" r="0.7" /><circle cx="342.993928397" cy="450.097338467" fill="rgb(0%,0%,100%)" r="0.7" /><circle cx="345.559416454" cy="451.651811307" fill="rgb(0%,0%,100%)" r="0.7" /><circle cx="348.118457956" cy="453.217444449" fill="rgb(0%,0%,100%)" r="0.7" /><circle cx="350.676677897" cy="454.784465382" fill="rgb(0%,0%,100%)" r="0.7" /><circle cx="353.232815455" cy="456.354872953" fill="rgb(0%,0%,100%)" r="0.7" /><circle cx="355.786295559" cy="457.929590931" fill="rgb(0%,0%,100%)" r="0.7" /><circle cx="358.336654039" cy="459.50936408" fill="rgb(0%,0%,100%)" r="0.7" /><circle cx="360.883392884" cy="461.094961359" fill="rgb(0%,0%,100%)" r="0.7" /><circle cx="363.42593038" cy="462.687289883" fill="rgb(0%,0%,100%)" r="0.7" /><circle cx="365.963525623" cy="464.287480752" fill="rgb(0%,0%,100%)" r="0.7" /><circle cx="368.495203094" cy="465.897018649" fill="rgb(0%,0%,100%)" r="0.7" /><circle cx="371.01961006" cy="467.517933873" fill="rgb(0%,0%,100%)" r="0.7" /><circle cx="373.534773628" cy="469.153150367" fill="rgb(0%,0%,100%)" r="0.7" /><circle cx="376.037608879" cy="470.807167613" fill="rgb(0%,0%,100%)" r="0.7" /><circle cx="378.522766735" cy="472.487587461" fill="rgb(0%,0%,100%)" r="0.7" /><circle cx="380.979404927" cy="474.209391288" fill="rgb(0%,0%,100%)" r="0.7" /><circle cx="383.377042226" cy="476.0120174" fill="rgb(0%,0%,100%)" r="0.7" /><circle cx="385.683089729" cy="477.927789703" fill="rgb(0%,0%,100%)" r="0.7" /><circle cx="388.059944359" cy="479.758244535" fill="rgb(0%,0%,100%)" r="0.7" /><circle cx="390.445703719" cy="481.577087327" fill="rgb(0%,0%,100%)" r="0.7" /><circle cx="392.840265265" cy="483.384304903" fill="rgb(0%,0%,100%)" r="0.7" /><circle cx="395.244414848" cy="485.178757076" fill="rgb(0%,0%,100%)" r="0.7" /><circle cx="397.659545937" cy="486.958395791" fill="rgb(0%,0%,100%)" r="0.7" /><circle cx="400.087845387" cy="488.720019944" fill="rgb(0%,0%,100%)" r="0.7" /><circle cx="402.532725914" cy="490.458547751" fill="rgb(0%,0%,100%)" r="0.7" /><circle cx="404.999845643" cy="492.165348128" fill="rgb(0%,0%,100%)" r="0.7" /><circle cx="407.499707307" cy="493.823735749" fill="rgb(0%,0%,100%)" r="0.7" /><circle cx="410.056539655" cy="495.392379595" fill="rgb(0%,0%,100%)" r="0.7" /><circle cx="410.849911639" cy="496.572325417" fill="rgb(0%,0%,100%)" r="0.7" /><circle cx="407.950344517" cy="497.342072457" fill="rgb(0%,0%,100%)" r="0.7" /><circle cx="405.050777395" cy="498.111819496" fill="rgb(0%,0%,100%)" r="0.7" /><circle cx="402.151210273" cy="498.881566536" fill="rgb(0%,0%,100%)" r="0.7" /><circle cx="401.515268642" cy="501.35241246" fill="rgb(0%,0%,100%)" r="0.7" /><circle cx="401.582462535" cy="504.351659863" fill="rgb(0%,0%,100%)" r="0.7" /><circle cx="401.604" cy="505.313" fill="rgb(0%,0%,100%)" r="0.7" /></svg>