<?xml version="1.0" encoding="utf-8" ?>
<svg baseProfile="full" height="100%" version="1.1" width="100%" xmlns="http://www.w3.org/2000/svg" xmlns:ev="http://www.w3.org/2001/xml-events" xmlns:xlink="http://www.w3.org/1999/xlink"><defs /><circle cx="295.651034156" cy="328.092763219" fill="rgb(100%,0%,0%)" r="0.7" /><circle cx="292.748813623" cy="328.812140877" fill="rgb(100%,0%,0%)" r="0.7" /><circle cx="290.081567155" cy="330.17600314" fill="rgb(100%,0%,0%)" r="0.7" /><circle cx="287.664044129" cy="331.948138525" fill="rgb(100%,0%,0%)" r="0.7" /><circle cx="285.701095752" cy="334.199925603" fill="rgb(100%,0%,0%)" r="0.7" /><circle cx="284.088353787" cy="336.728332369" fill="rgb(100%,0%,0%)" r="0.7" /><circle cx="282.687662775" cy="339.380510555" fill="rgb(100%,0%,0%)" r="0.7" /><circle cx="281.465733804" cy="342.119887991" fill="rgb(100%,0%,0%)" r="0.7" /><circle cx="280.395022246" cy="344.921987178" fill="rgb(100%,0%,0%)" r="0.7" /><circle cx="279.453295043" cy="347.770116539" fill="rgb(100%,0%,0%)" r="0.7" /><circle cx="278.622690589" cy="350.652669014" fill="rgb(100%,0%,0%)" r="0.7" /><circle cx="277.888813814" cy="353.56139947" fill="rgb(100%,0%,0%)" r="0.7" /><circle cx="277.239989755" cy="356.490303317" fill="rgb(100%,0%,0%)" r="0.7" /><circle cx="276.666666355" cy="359.434937461" fill="rgb(100%,0%,0%)" r="0.7" /><circle cx="276.160965545" cy="362.391949886" fill="rgb(100%,0%,0%)" r="0.7" /><circle cx="275.716340365" cy="365.358771457" fill="rgb(100%,0%,0%)" r="0.7" /><circle cx="275.327315495" cy="368.333401939" fill="rgb(100%,0%,0%)" r="0.7" /><circle cx="274.989289525" cy="371.314265997" fill="rgb(100%,0%,0%)" r="0.7" /><circle cx="274.698386563" cy="374.30009804" fill="rgb(100%,0%,0%)" r="0.7" /><circle cx="274.451342184" cy="377.289881313" fill="rgb(100%,0%,0%)" r="0.7" /><circle cx="274.245422082" cy="380.282787162" fill="rgb(100%,0%,0%)" r="0.7" /><circle cx="274.078367274" cy="383.278113899" fill="rgb(100%,0%,0%)" r="0.7" /><circle cx="273.948361974" cy="386.275284179" fill="rgb(100%,0%,0%)" r="0.7" /><circle cx="273.854035768" cy="389.273787077" fill="rgb(100%,0%,0%)" r="0.7" /><circle cx="273.794507474" cy="392.273179974" fill="rgb(100%,0%,0%)" r="0.7" /><circle cx="273.76951368" cy="395.273058821" fill="rgb(100%,0%,0%)" r="0.7" /><circle cx="273.779732867" cy="398.273029519" fill="rgb(100%,0%,0%)" r="0.7" /><circle cx="273.827752217" cy="401.272629331" fill="rgb(100%,0%,0%)" r="0.7" /><circle cx="273.924" cy="404.271" fill="rgb(100%,0%,0%)" r="0.7" /><circle cx="295.651034156" cy="328.092763219" fill="rgb(0%,0%,100%)" r="0.7" /><circle cx="298.6149251" cy="328.397347019" fill="rgb(0%,0%,100%)" r="0.7" /><circle cx="301.201011353" cy="329.877468835" fill="rgb(0%,0%,100%)" r="0.7" /><circle cx="303.150526565" cy="332.145227895" fill="rgb(0%,0%,100%)" r="0.7" /><circle cx="304.49683656" cy="334.818754526" fill="rgb(0%,0%,100%)" r="0.7" /><circle cx="305.22091632" cy="337.722568433" fill="rgb(0%,0%,100%)" r="0.7" /><circle cx="305.061262417" cy="340.701868948" fill="rgb(0%,0%,100%)" r="0.7" /><circle cx="303.713571213" cy="343.353661567" fill="rgb(0%,0%,100%)" r="0.7" /><circle cx="301.407856999" cy="345.248338688" fill="rgb(0%,0%,100%)" r="0.7" /><circle cx="298.672852738" cy="346.444122567" fill="rgb(0%,0%,100%)" r="0.7" /><circle cx="296.342012469" cy="348.321679677" fill="rgb(0%,0%,100%)" r="0.7" /><circle cx="294.445495993" cy="350.640890716" fill="rgb(0%,0%,100%)" r="0.7" /><circle cx="292.940687016" cy="353.233350672" fill="rgb(0%,0%,100%)" r="0.7" /><circle cx="291.768506806" cy="355.993228467" fill="rgb(0%,0%,100%)" r="0.7" /><circle cx="290.872412072" cy="358.85527453" fill="rgb(0%,0%,100%)" r="0.7" /><circle cx="290.204833022" cy="361.779404134" fill="rgb(0%,0%,100%)" r="0.7" /><circle cx="289.727613175" cy="364.740756649" fill="rgb(0%,0%,100%)" r="0.7" /><circle cx="289.410586457" cy="367.723655004" fill="rgb(0%,0%,100%)" r="0.7" /><circle cx="289.229891262" cy="370.717983742" fill="rgb(0%,0%,100%)" r="0.7" /><circle cx="289.166503725" cy="373.717149721" fill="rgb(0%,0%,100%)" r="0.7" /><circle cx="289.059359977" cy="376.715049866" fill="rgb(0%,0%,100%)" r="0.7" /><circle cx="288.954963163" cy="379.713232133" fill="rgb(0%,0%,100%)" r="0.7" /><circle cx="288.863999646" cy="382.711847122" fill="rgb(0%,0%,100%)" r="0.7" /><circle cx="288.787546776" cy="385.710871722" fill="rgb(0%,0%,100%)" r="0.7" /><circle cx="288.727934332" cy="388.710276869" fill="rgb(0%,0%,100%)" r="0.7" /><circle cx="288.689013084" cy="391.710017842" fill="rgb(0%,0%,100%)" r="0.7" /><circle cx="288.677156895" cy="394.709981236" fill="rgb(0%,0%,100%)" r="0.7" /><circle cx="288.703822851" cy="397.709831302" fill="rgb(0%,0%,100%)" r="0.7" /><circle cx="288.793406927" cy="400.708402924" fill="rgb(0%,0%,100%)" r="0.7" /><circle cx="288.265330073" cy="402.414179721" fill="rgb(0%,0%,100%)" r="0.7" /><circle cx="285.811171234" cy="400.688750965" fill="rgb(0%,0%,100%)" r="0.7" /><circle cx="283.357012395" cy="398.963322209" fill="rgb(0%,0%,100%)" r="0.7" /><circle cx="280.902853556" cy="397.237893453" fill="rgb(0%,0%,100%)" r="0.7" /><circle cx="278.448694717" cy="395.512464697" fill="rgb(0%,0%,100%)" r="0.7" /><circle cx="276.946688835" cy="397.511629469" fill="rgb(0%,0%,100%)" r="0.7" /><circle cx="275.6216796" cy="400.203162588" fill="rgb(0%,0%,100%)" r="0.7" /><circle cx="274.296670366" cy="402.894695706" fill="rgb(0%,0%,100%)" r="0.7" /><circle cx="273.924" cy="404.271" fill="rgb(0%,0%,100%)" r="0.7" /></svg>