<?xml version="1.0" encoding="utf-8" ?>
<svg baseProfile="full" height="100%" version="1.1" width="100%" xmlns="http://www.w3.org/2000/svg" xmlns:ev="http://www.w3.org/2001/xml-events" xmlns:xlink="http://www.w3.org/1999/xlink"><defs /><circle cx="358.263986143" cy="316.150691577" fill="rgb(100%,0%,0%)" r="0.7" /><circle cx="355.277653051" cy="316.339640275" fill="rgb(100%,0%,0%)" r="0.7" /><circle cx="352.437958154" cy="317.278773789" fill="rgb(100%,0%,0%)" r="0.7" /><circle cx="349.967811444" cy="318.963379161" fill="rgb(100%,0%,0%)" r="0.7" /><circle cx="348.041652067" cy="321.252709142" fill="rgb(100%,0%,0%)" r="0.7" /><circle cx="346.682911587" cy="323.921724996" fill="rgb(100%,0%,0%)" r="0.7" /><circle cx="345.767888307" cy="326.777370413" fill="rgb(100%,0%,0%)" r="0.7" /><circle cx="344.91466235" cy="329.653487804" fill="rgb(100%,0%,0%)" r="0.7" /><circle cx="344.054554454" cy="332.527586251" fill="rgb(100%,0%,0%)" r="0.7" /><circle cx="343.188805055" cy="335.399922145" fill="rgb(100%,0%,0%)" r="0.7" /><circle cx="342.317897594" cy="338.270743207" fill="rgb(100%,0%,0%)" r="0.7" /><circle cx="341.442121306" cy="341.140074433" fill="rgb(100%,0%,0%)" r="0.7" /><circle cx="340.561632422" cy="344.007949691" fill="rgb(100%,0%,0%)" r="0.7" /><circle cx="339.67650634" cy="346.874411519" fill="rgb(100%,0%,0%)" r="0.7" /><circle cx="338.786788736" cy="349.739428335" fill="rgb(100%,0%,0%)" r="0.7" /><circle cx="337.892461286" cy="352.603050285" fill="rgb(100%,0%,0%)" r="0.7" /><circle cx="336.993519538" cy="355.465185455" fill="rgb(100%,0%,0%)" r="0.7" /><circle cx="336.089890149" cy="358.325880738" fill="rgb(100%,0%,0%)" r="0.7" /><circle cx="335.18152555" cy="361.185030274" fill="rgb(100%,0%,0%)" r="0.7" /><circle cx="334.268311209" cy="364.042674774" fill="rgb(100%,0%,0%)" r="0.7" /><circle cx="333.350158763" cy="366.898711284" fill="rgb(100%,0%,0%)" r="0.7" /><circle cx="332.426934157" cy="369.7531199" fill="rgb(100%,0%,0%)" r="0.7" /><circle cx="331.498497866" cy="372.605837427" fill="rgb(100%,0%,0%)" r="0.7" /><circle cx="330.564689293" cy="375.456804258" fill="rgb(100%,0%,0%)" r="0.7" /><circle cx="329.625331039" cy="378.305948272" fill="rgb(100%,0%,0%)" r="0.7" /><circle cx="328.680222706" cy="381.153199593" fill="rgb(100%,0%,0%)" r="0.7" /><circle cx="327.729154914" cy="383.998443344" fill="rgb(100%,0%,0%)" r="0.7" /><circle cx="326.77187405" cy="386.84161894" fill="rgb(100%,0%,0%)" r="0.7" /><circle cx="325.808119795" cy="389.682599933" fill="rgb(100%,0%,0%)" r="0.7" /><circle cx="324.837594844" cy="392.521275164" fill="rgb(100%,0%,0%)" r="0.7" /><circle cx="323.859972185" cy="395.357515859" fill="rgb(100%,0%,0%)" r="0.7" /><circle cx="322.874891175" cy="398.191174147" fill="rgb(100%,0%,0%)" r="0.7" /><circle cx="321.88195109" cy="401.02208626" fill="rgb(100%,0%,0%)" r="0.7" /><circle cx="320.880703858" cy="403.850074665" fill="rgb(100%,0%,0%)" r="0.7" /><circle cx="319.870652677" cy="406.674929786" fill="rgb(100%,0%,0%)" r="0.7" /><circle cx="318.851241822" cy="409.496412264" fill="rgb(100%,0%,0%)" r="0.7" /><circle cx="317.821835858" cy="412.314277879" fill="rgb(100%,0%,0%)" r="0.7" /><circle cx="316.781735482" cy="415.12819455" fill="rgb(100%,0%,0%)" r="0.7" /><circle cx="315.730121904" cy="417.937845131" fill="rgb(100%,0%,0%)" r="0.7" /><circle cx="314.66607872" cy="420.742806766" fill="rgb(100%,0%,0%)" r="0.7" /><circle cx="313.588545415" cy="423.542599335" fill="rgb(100%,0%,0%)" r="0.7" /><circle cx="312.496270841" cy="426.336707576" fill="rgb(100%,0%,0%)" r="0.7" /><circle cx="311.387828711" cy="429.124415239" fill="rgb(100%,0%,0%)" r="0.7" /><circle cx="310.261495387" cy="431.904950802" fill="rgb(100%,0%,0%)" r="0.7" /><circle cx="309.115235209" cy="434.677299664" fill="rgb(100%,0%,0%)" r="0.7" /><circle cx="307.946537973" cy="437.440297231" fill="rgb(100%,0%,0%)" r="0.7" /><circle cx="306.752352144" cy="440.192360943" fill="rgb(100%,0%,0%)" r="0.7" /><circle cx="305.528816237" cy="442.931507606" fill="rgb(100%,0%,0%)" r="0.7" /><circle cx="304.270981429" cy="445.65506658" fill="rgb(100%,0%,0%)" r="0.7" /><circle cx="302.972317563" cy="448.359353117" fill="rgb(100%,0%,0%)" r="0.7" /><circle cx="301.623853239" cy="451.039177262" fill="rgb(100%,0%,0%)" r="0.7" /><circle cx="300.212848939" cy="453.686527239" fill="rgb(100%,0%,0%)" r="0.7" /><circle cx="300.887905542" cy="454.358545465" fill="rgb(100%,0%,0%)" r="0.7" /><circle cx="303.634708112" cy="453.152280302" fill="rgb(100%,0%,0%)" r="0.7" /><circle cx="306.381510681" cy="451.946015139" fill="rgb(100%,0%,0%)" r="0.7" /><circle cx="309.128313251" cy="450.739749976" fill="rgb(100%,0%,0%)" r="0.7" /><circle cx="311.467768906" cy="451.249919636" fill="rgb(100%,0%,0%)" r="0.7" /><circle cx="313.379642484" cy="453.561788884" fill="rgb(100%,0%,0%)" r="0.7" /><circle cx="315.291516062" cy="455.873658133" fill="rgb(100%,0%,0%)" r="0.7" /><circle cx="317.20338964" cy="458.185527381" fill="rgb(100%,0%,0%)" r="0.7" /><circle cx="319.115263219" cy="460.497396629" fill="rgb(100%,0%,0%)" r="0.7" /><circle cx="321.027136797" cy="462.809265878" fill="rgb(100%,0%,0%)" r="0.7" /><circle cx="322.939010375" cy="465.121135126" fill="rgb(100%,0%,0%)" r="0.7" /><circle cx="324.64" cy="467.178" fill="rgb(100%,0%,0%)" r="0.7" /><circle cx="358.263986143" cy="316.150691577" fill="rgb(0%,0%,100%)" r="0.7" /><circle cx="361.248221155" cy="316.422926792" fill="rgb(0%,0%,100%)" r="0.7" /><circle cx="364.066526262" cy="317.40765114" fill="rgb(0%,0%,100%)" r="0.7" /><circle cx="366.322368364" cy="319.355973622" fill="rgb(0%,0%,100%)" r="0.7" /><circle cx="367.751058876" cy="321.979804815" fill="rgb(0%,0%,100%)" r="0.7" /><circle cx="368.444664274" cy="324.892338621" fill="rgb(0%,0%,100%)" r="0.7" /><circle cx="368.565422945" cy="327.885923297" fill="rgb(0%,0%,100%)" r="0.7" /><circle cx="368.516018808" cy="330.884481678" fill="rgb(0%,0%,100%)" r="0.7" /><circle cx="368.404308897" cy="333.882266357" fill="rgb(0%,0%,100%)" r="0.7" /><circle cx="368.203924624" cy="336.8754733" fill="rgb(0%,0%,100%)" r="0.7" /><circle cx="367.925235583" cy="339.862422112" fill="rgb(0%,0%,100%)" r="0.7" /><circle cx="367.57688538" cy="342.842065695" fill="rgb(0%,0%,100%)" r="0.7" /><circle cx="367.166137236" cy="345.813776363" fill="rgb(0%,0%,100%)" r="0.7" /><circle cx="366.699151775" cy="348.777156401" fill="rgb(0%,0%,100%)" r="0.7" /><circle cx="366.181178573" cy="351.732070408" fill="rgb(0%,0%,100%)" r="0.7" /><circle cx="365.616737925" cy="354.678465074" fill="rgb(0%,0%,100%)" r="0.7" /><circle cx="365.009736603" cy="357.616409315" fill="rgb(0%,0%,100%)" r="0.7" /><circle cx="364.363591391" cy="360.545963166" fill="rgb(0%,0%,100%)" r="0.7" /><circle cx="363.681276103" cy="363.467323055" fill="rgb(0%,0%,100%)" r="0.7" /><circle cx="362.965421566" cy="366.380649426" fill="rgb(0%,0%,100%)" r="0.7" /><circle cx="362.218353917" cy="369.28613023" fill="rgb(0%,0%,100%)" r="0.7" /><circle cx="361.442140162" cy="372.183965665" fill="rgb(0%,0%,100%)" r="0.7" /><circle cx="360.638627955" cy="375.07435006" fill="rgb(0%,0%,100%)" r="0.7" /><circle cx="359.809473086" cy="377.957478708" fill="rgb(0%,0%,100%)" r="0.7" /><circle cx="358.95616018" cy="380.833559637" fill="rgb(0%,0%,100%)" r="0.7" /><circle cx="358.080037037" cy="383.702766732" fill="rgb(0%,0%,100%)" r="0.7" /><circle cx="357.182315554" cy="386.565295361" fill="rgb(0%,0%,100%)" r="0.7" /><circle cx="356.264100664" cy="389.421315364" fill="rgb(0%,0%,100%)" r="0.7" /><circle cx="355.326395219" cy="392.27099648" fill="rgb(0%,0%,100%)" r="0.7" /><circle cx="354.370113998" cy="395.114498097" fill="rgb(0%,0%,100%)" r="0.7" /><circle cx="353.396091677" cy="397.951973303" fill="rgb(0%,0%,100%)" r="0.7" /><circle cx="352.405092852" cy="400.783562993" fill="rgb(0%,0%,100%)" r="0.7" /><circle cx="351.397817005" cy="403.609401597" fill="rgb(0%,0%,100%)" r="0.7" /><circle cx="350.37490148" cy="406.429625" fill="rgb(0%,0%,100%)" r="0.7" /><circle cx="349.33693765" cy="409.244340026" fill="rgb(0%,0%,100%)" r="0.7" /><circle cx="348.284462135" cy="412.053660906" fill="rgb(0%,0%,100%)" r="0.7" /><circle cx="347.217966933" cy="414.8576913" fill="rgb(0%,0%,100%)" r="0.7" /><circle cx="346.137905632" cy="417.656516454" fill="rgb(0%,0%,100%)" r="0.7" /><circle cx="345.044682334" cy="420.450238403" fill="rgb(0%,0%,100%)" r="0.7" /><circle cx="343.938679895" cy="423.238908446" fill="rgb(0%,0%,100%)" r="0.7" /><circle cx="342.820223657" cy="426.022623" fill="rgb(0%,0%,100%)" r="0.7" /><circle cx="341.689616708" cy="428.801435982" fill="rgb(0%,0%,100%)" r="0.7" /><circle cx="340.547136935" cy="431.575368237" fill="rgb(0%,0%,100%)" r="0.7" /><circle cx="339.393004011" cy="434.344485977" fill="rgb(0%,0%,100%)" r="0.7" /><circle cx="338.227427356" cy="437.108780514" fill="rgb(0%,0%,100%)" r="0.7" /><circle cx="337.050541019" cy="439.868316719" fill="rgb(0%,0%,100%)" r="0.7" /><circle cx="335.862480198" cy="442.62304084" fill="rgb(0%,0%,100%)" r="0.7" /><circle cx="334.66331014" cy="445.372931596" fill="rgb(0%,0%,100%)" r="0.7" /><circle cx="333.453035199" cy="448.117951613" fill="rgb(0%,0%,100%)" r="0.7" /><circle cx="332.231587499" cy="450.858033041" fill="rgb(0%,0%,100%)" r="0.7" /><circle cx="330.998801428" cy="453.593070675" fill="rgb(0%,0%,100%)" r="0.7" /><circle cx="329.754409987" cy="456.322821853" fill="rgb(0%,0%,100%)" r="0.7" /><circle cx="328.49790531" cy="459.047010119" fill="rgb(0%,0%,100%)" r="0.7" /><circle cx="327.228414118" cy="461.765153124" fill="rgb(0%,0%,100%)" r="0.7" /><circle cx="325.944200235" cy="464.476407115" fill="rgb(0%,0%,100%)" r="0.7" /><circle cx="324.64" cy="467.178" fill="rgb(0%,0%,100%)" r="0.7" /></svg>