<?xml version="1.0" encoding="utf-8" ?>
<svg baseProfile="full" height="100%" version="1.1" width="100%" xmlns="http://www.w3.org/2000/svg" xmlns:ev="http://www.w3.org/2001/xml-events" xmlns:xlink="http://www.w3.org/1999/xlink"><defs /><circle cx="288.432863291" cy="293.591436619" fill="rgb(100%,0%,0%)" r="0.7" /><circle cx="285.437946538" cy="293.629770462" fill="rgb(100%,0%,0%)" r="0.7" /><circle cx="282.499921278" cy="294.217839981" fill="rgb(100%,0%,0%)" r="0.7" /><circle cx="279.691624824" cy="295.265280623" fill="rgb(100%,0%,0%)" r="0.7" /><circle cx="277.057309555" cy="296.695841994" fill="rgb(100%,0%,0%)" r="0.7" /><circle cx="274.697285258" cy="298.538006598" fill="rgb(100%,0%,0%)" r="0.7" /><circle cx="272.740677085" cy="300.807117962" fill="rgb(100%,0%,0%)" r="0.7" /><circle cx="271.172861763" cy="303.361656489" fill="rgb(100%,0%,0%)" r="0.7" /><circle cx="269.960066585" cy="306.103576341" fill="rgb(100%,0%,0%)" r="0.7" /><circle cx="269.055438259" cy="308.962634037" fill="rgb(100%,0%,0%)" r="0.7" /><circle cx="268.414992492" cy="311.892582794" fill="rgb(100%,0%,0%)" r="0.7" /><circle cx="268.00417795" cy="314.863653036" fill="rgb(100%,0%,0%)" r="0.7" /><circle cx="267.801362098" cy="317.856220378" fill="rgb(100%,0%,0%)" r="0.7" /><circle cx="267.81182235" cy="320.855407502" fill="rgb(100%,0%,0%)" r="0.7" /><circle cx="268.129461476" cy="323.83389606" fill="rgb(100%,0%,0%)" r="0.7" /><circle cx="268.879348922" cy="326.737281483" fill="rgb(100%,0%,0%)" r="0.7" /><circle cx="269.85930443" cy="329.572214451" fill="rgb(100%,0%,0%)" r="0.7" /><circle cx="270.981426592" cy="332.354211439" fill="rgb(100%,0%,0%)" r="0.7" /><circle cx="272.201705365" cy="335.094709165" fill="rgb(100%,0%,0%)" r="0.7" /><circle cx="273.494706616" cy="337.801677681" fill="rgb(100%,0%,0%)" r="0.7" /><circle cx="274.844328194" cy="340.480912431" fill="rgb(100%,0%,0%)" r="0.7" /><circle cx="276.239632911" cy="343.136655909" fill="rgb(100%,0%,0%)" r="0.7" /><circle cx="277.672832207" cy="345.7721401" fill="rgb(100%,0%,0%)" r="0.7" /><circle cx="279.138178227" cy="348.389905451" fill="rgb(100%,0%,0%)" r="0.7" /><circle cx="280.631275575" cy="350.991938571" fill="rgb(100%,0%,0%)" r="0.7" /><circle cx="282.148707948" cy="353.579863415" fill="rgb(100%,0%,0%)" r="0.7" /><circle cx="283.687754123" cy="356.154994323" fill="rgb(100%,0%,0%)" r="0.7" /><circle cx="285.246222276" cy="358.718418014" fill="rgb(100%,0%,0%)" r="0.7" /><circle cx="286.822329641" cy="361.271040002" fill="rgb(100%,0%,0%)" r="0.7" /><circle cx="288.414609137" cy="363.813603277" fill="rgb(100%,0%,0%)" r="0.7" /><circle cx="290.021862068" cy="366.346731221" fill="rgb(100%,0%,0%)" r="0.7" /><circle cx="291.643101945" cy="368.870918751" fill="rgb(100%,0%,0%)" r="0.7" /><circle cx="293.277552893" cy="371.386578424" fill="rgb(100%,0%,0%)" r="0.7" /><circle cx="294.924618574" cy="373.894009345" fill="rgb(100%,0%,0%)" r="0.7" /><circle cx="296.583874083" cy="376.393364429" fill="rgb(100%,0%,0%)" r="0.7" /><circle cx="298.255167162" cy="378.884716501" fill="rgb(100%,0%,0%)" r="0.7" /><circle cx="299.938640459" cy="381.367856335" fill="rgb(100%,0%,0%)" r="0.7" /><circle cx="301.635099868" cy="383.84213042" fill="rgb(100%,0%,0%)" r="0.7" /><circle cx="303.348" cy="386.305" fill="rgb(100%,0%,0%)" r="0.7" /><circle cx="288.432863291" cy="293.591436619" fill="rgb(0%,0%,100%)" r="0.7" /><circle cx="291.372714462" cy="294.16110021" fill="rgb(0%,0%,100%)" r="0.7" /><circle cx="294.134198194" cy="295.320497097" fill="rgb(0%,0%,100%)" r="0.7" /><circle cx="296.631703793" cy="296.975729997" fill="rgb(0%,0%,100%)" r="0.7" /><circle cx="298.902961781" cy="298.935148762" fill="rgb(0%,0%,100%)" r="0.7" /><circle cx="301.121016785" cy="300.955037974" fill="rgb(0%,0%,100%)" r="0.7" /><circle cx="303.299725445" cy="303.017303253" fill="rgb(0%,0%,100%)" r="0.7" /><circle cx="305.437913095" cy="305.12155301" fill="rgb(0%,0%,100%)" r="0.7" /><circle cx="307.531046296" cy="307.270604951" fill="rgb(0%,0%,100%)" r="0.7" /><circle cx="309.57169713" cy="309.469524638" fill="rgb(0%,0%,100%)" r="0.7" /><circle cx="311.54867075" cy="311.725814175" fill="rgb(0%,0%,100%)" r="0.7" /><circle cx="313.444982778" cy="314.050216232" fill="rgb(0%,0%,100%)" r="0.7" /><circle cx="315.233695011" cy="316.458214944" fill="rgb(0%,0%,100%)" r="0.7" /><circle cx="316.868837803" cy="318.972613576" fill="rgb(0%,0%,100%)" r="0.7" /><circle cx="318.262964662" cy="321.627103286" fill="rgb(0%,0%,100%)" r="0.7" /><circle cx="319.491032337" cy="324.346877425" fill="rgb(0%,0%,100%)" r="0.7" /><circle cx="320.450098106" cy="327.185918325" fill="rgb(0%,0%,100%)" r="0.7" /><circle cx="321.117051556" cy="330.110322231" fill="rgb(0%,0%,100%)" r="0.7" /><circle cx="321.638982209" cy="333.064377321" fill="rgb(0%,0%,100%)" r="0.7" /><circle cx="322.066730631" cy="336.033642728" fill="rgb(0%,0%,100%)" r="0.7" /><circle cx="322.425989944" cy="339.012000221" fill="rgb(0%,0%,100%)" r="0.7" /><circle cx="322.732116512" cy="341.996305823" fill="rgb(0%,0%,100%)" r="0.7" /><circle cx="322.995237505" cy="344.984720668" fill="rgb(0%,0%,100%)" r="0.7" /><circle cx="323.222488625" cy="347.976093717" fill="rgb(0%,0%,100%)" r="0.7" /><circle cx="323.45101977" cy="350.960657911" fill="rgb(0%,0%,100%)" r="0.7" /><circle cx="324.216435607" cy="353.858720542" fill="rgb(0%,0%,100%)" r="0.7" /><circle cx="325.322128987" cy="356.64617334" fill="rgb(0%,0%,100%)" r="0.7" /><circle cx="326.669055919" cy="359.325965703" fill="rgb(0%,0%,100%)" r="0.7" /><circle cx="328.199627484" cy="361.905580049" fill="rgb(0%,0%,100%)" r="0.7" /><circle cx="329.875690319" cy="364.393294531" fill="rgb(0%,0%,100%)" r="0.7" /><circle cx="330.068246729" cy="365.925533183" fill="rgb(0%,0%,100%)" r="0.7" /><circle cx="327.078277015" cy="365.680418703" fill="rgb(0%,0%,100%)" r="0.7" /><circle cx="324.088307301" cy="365.435304223" fill="rgb(0%,0%,100%)" r="0.7" /><circle cx="321.098337587" cy="365.190189743" fill="rgb(0%,0%,100%)" r="0.7" /><circle cx="318.108367872" cy="364.945075263" fill="rgb(0%,0%,100%)" r="0.7" /><circle cx="315.118398158" cy="364.699960783" fill="rgb(0%,0%,100%)" r="0.7" /><circle cx="312.128428444" cy="364.454846303" fill="rgb(0%,0%,100%)" r="0.7" /><circle cx="309.13845873" cy="364.209731823" fill="rgb(0%,0%,100%)" r="0.7" /><circle cx="307.059871743" cy="365.144573074" fill="rgb(0%,0%,100%)" r="0.7" /><circle cx="306.541538859" cy="368.099455648" fill="rgb(0%,0%,100%)" r="0.7" /><circle cx="306.023205974" cy="371.054338221" fill="rgb(0%,0%,100%)" r="0.7" /><circle cx="305.50487309" cy="374.009220794" fill="rgb(0%,0%,100%)" r="0.7" /><circle cx="304.986540205" cy="376.964103367" fill="rgb(0%,0%,100%)" r="0.7" /><circle cx="304.46820732" cy="379.91898594" fill="rgb(0%,0%,100%)" r="0.7" /><circle cx="303.949874436" cy="382.873868513" fill="rgb(0%,0%,100%)" r="0.7" /><circle cx="303.431541551" cy="385.828751086" fill="rgb(0%,0%,100%)" r="0.7" /><circle cx="303.348" cy="386.305" fill="rgb(0%,0%,100%)" r="0.7" /></svg>