<?xml version="1.0" encoding="utf-8" ?>
<svg baseProfile="full" height="100%" version="1.1" width="100%" xmlns="http://www.w3.org/2000/svg" xmlns:ev="http://www.w3.org/2001/xml-events" xmlns:xlink="http://www.w3.org/1999/xlink"><defs /><circle cx="323.989768467" cy="256.336928401" fill="rgb(100%,0%,0%)" r="0.7" /><circle cx="321.027804139" cy="256.621254631" fill="rgb(100%,0%,0%)" r="0.7" /><circle cx="318.341725031" cy="257.914033308" fill="rgb(100%,0%,0%)" r="0.7" /><circle cx="316.237707638" cy="260.037755684" fill="rgb(100%,0%,0%)" r="0.7" /><circle cx="314.698303846" cy="262.607057083" fill="rgb(100%,0%,0%)" r="0.7" /><circle cx="313.595735751" cy="265.394679378" fill="rgb(100%,0%,0%)" r="0.7" /><circle cx="312.816489504" cy="268.290512369" fill="rgb(100%,0%,0%)" r="0.7" /><circle cx="312.353837095" cy="271.250931551" fill="rgb(100%,0%,0%)" r="0.7" /><circle cx="312.067203213" cy="274.237214419" fill="rgb(100%,0%,0%)" r="0.7" /><circle cx="311.779283758" cy="277.223378079" fill="rgb(100%,0%,0%)" r="0.7" /><circle cx="311.490273259" cy="280.209415273" fill="rgb(100%,0%,0%)" r="0.7" /><circle cx="311.200238274" cy="283.195378936" fill="rgb(100%,0%,0%)" r="0.7" /><circle cx="310.909212378" cy="286.181215634" fill="rgb(100%,0%,0%)" r="0.7" /><circle cx="310.61719641" cy="289.166974184" fill="rgb(100%,0%,0%)" r="0.7" /><circle cx="310.324182535" cy="292.152640305" fill="rgb(100%,0%,0%)" r="0.7" /><circle cx="310.030152892" cy="295.138188364" fill="rgb(100%,0%,0%)" r="0.7" /><circle cx="309.735075282" cy="298.123642634" fill="rgb(100%,0%,0%)" r="0.7" /><circle cx="309.438911742" cy="301.108997305" fill="rgb(100%,0%,0%)" r="0.7" /><circle cx="309.141617306" cy="304.094230326" fill="rgb(100%,0%,0%)" r="0.7" /><circle cx="308.843136127" cy="307.079338751" fill="rgb(100%,0%,0%)" r="0.7" /><circle cx="308.543401629" cy="310.064329207" fill="rgb(100%,0%,0%)" r="0.7" /><circle cx="308.242338382" cy="313.049187708" fill="rgb(100%,0%,0%)" r="0.7" /><circle cx="307.93985853" cy="316.033899517" fill="rgb(100%,0%,0%)" r="0.7" /><circle cx="307.635858696" cy="319.018458803" fill="rgb(100%,0%,0%)" r="0.7" /><circle cx="307.330219081" cy="322.002850008" fill="rgb(100%,0%,0%)" r="0.7" /><circle cx="307.022798804" cy="324.987057859" fill="rgb(100%,0%,0%)" r="0.7" /><circle cx="306.713431182" cy="327.971066053" fill="rgb(100%,0%,0%)" r="0.7" /><circle cx="306.40191807" cy="330.95484918" fill="rgb(100%,0%,0%)" r="0.7" /><circle cx="306.088019738" cy="333.938384723" fill="rgb(100%,0%,0%)" r="0.7" /><circle cx="305.771444478" cy="336.921634057" fill="rgb(100%,0%,0%)" r="0.7" /><circle cx="305.451828788" cy="339.904562298" fill="rgb(100%,0%,0%)" r="0.7" /><circle cx="305.128714585" cy="342.887106841" fill="rgb(100%,0%,0%)" r="0.7" /><circle cx="304.801505716" cy="345.869209466" fill="rgb(100%,0%,0%)" r="0.7" /><circle cx="304.465866038" cy="348.850314474" fill="rgb(100%,0%,0%)" r="0.7" /><circle cx="304.059782162" cy="351.82269798" fill="rgb(100%,0%,0%)" r="0.7" /><circle cx="303.653885142" cy="354.795109794" fill="rgb(100%,0%,0%)" r="0.7" /><circle cx="303.248146558" cy="357.767554924" fill="rgb(100%,0%,0%)" r="0.7" /><circle cx="302.842568294" cy="360.740010327" fill="rgb(100%,0%,0%)" r="0.7" /><circle cx="302.437155218" cy="363.712494018" fill="rgb(100%,0%,0%)" r="0.7" /><circle cx="302.031920923" cy="366.685004138" fill="rgb(100%,0%,0%)" r="0.7" /><circle cx="301.626885108" cy="369.65753781" fill="rgb(100%,0%,0%)" r="0.7" /><circle cx="301.222073451" cy="372.630100762" fill="rgb(100%,0%,0%)" r="0.7" /><circle cx="300.8175209" cy="375.602700942" fill="rgb(100%,0%,0%)" r="0.7" /><circle cx="300.413276777" cy="378.57534238" fill="rgb(100%,0%,0%)" r="0.7" /><circle cx="300.009411151" cy="381.548034577" fill="rgb(100%,0%,0%)" r="0.7" /><circle cx="299.606029523" cy="384.520792003" fill="rgb(100%,0%,0%)" r="0.7" /><circle cx="299.203302506" cy="387.493644632" fill="rgb(100%,0%,0%)" r="0.7" /><circle cx="298.801546896" cy="390.466615503" fill="rgb(100%,0%,0%)" r="0.7" /><circle cx="298.401470894" cy="393.439821053" fill="rgb(100%,0%,0%)" r="0.7" /><circle cx="298.005804102" cy="396.413621766" fill="rgb(100%,0%,0%)" r="0.7" /><circle cx="299.494035498" cy="394.202119075" fill="rgb(100%,0%,0%)" r="0.7" /><circle cx="301.099174742" cy="391.667651082" fill="rgb(100%,0%,0%)" r="0.7" /><circle cx="302.704313986" cy="389.133183089" fill="rgb(100%,0%,0%)" r="0.7" /><circle cx="304.30945323" cy="386.598715096" fill="rgb(100%,0%,0%)" r="0.7" /><circle cx="305.914592474" cy="384.064247103" fill="rgb(100%,0%,0%)" r="0.7" /><circle cx="307.519731719" cy="381.529779111" fill="rgb(100%,0%,0%)" r="0.7" /><circle cx="309.124870963" cy="378.995311118" fill="rgb(100%,0%,0%)" r="0.7" /><circle cx="310.689134363" cy="381.270560407" fill="rgb(100%,0%,0%)" r="0.7" /><circle cx="312.25096603" cy="383.831943206" fill="rgb(100%,0%,0%)" r="0.7" /><circle cx="313.812797696" cy="386.393326006" fill="rgb(100%,0%,0%)" r="0.7" /><circle cx="315.374629363" cy="388.954708805" fill="rgb(100%,0%,0%)" r="0.7" /><circle cx="316.93646103" cy="391.516091604" fill="rgb(100%,0%,0%)" r="0.7" /><circle cx="318.498292697" cy="394.077474404" fill="rgb(100%,0%,0%)" r="0.7" /><circle cx="320.060124364" cy="396.638857203" fill="rgb(100%,0%,0%)" r="0.7" /><circle cx="321.621956031" cy="399.200240002" fill="rgb(100%,0%,0%)" r="0.7" /><circle cx="323.183787698" cy="401.761622801" fill="rgb(100%,0%,0%)" r="0.7" /><circle cx="323.995" cy="403.092" fill="rgb(100%,0%,0%)" r="0.7" /><circle cx="323.989768467" cy="256.336928401" fill="rgb(0%,0%,100%)" r="0.7" /><circle cx="326.904716241" cy="256.760364907" fill="rgb(0%,0%,100%)" r="0.7" /><circle cx="329.189758616" cy="258.671985967" fill="rgb(0%,0%,100%)" r="0.7" /><circle cx="330.843904074" cy="261.168932113" fill="rgb(0%,0%,100%)" r="0.7" /><circle cx="332.110387048" cy="263.886777449" fill="rgb(0%,0%,100%)" r="0.7" /><circle cx="333.12678329" cy="266.708647152" fill="rgb(0%,0%,100%)" r="0.7" /><circle cx="333.966420295" cy="269.588393321" fill="rgb(0%,0%,100%)" r="0.7" /><circle cx="334.671162758" cy="272.50422522" fill="rgb(0%,0%,100%)" r="0.7" /><circle cx="335.265686184" cy="275.444572375" fill="rgb(0%,0%,100%)" r="0.7" /><circle cx="335.762694146" cy="278.402984745" fill="rgb(0%,0%,100%)" r="0.7" /><circle cx="336.148938025" cy="281.377631919" fill="rgb(0%,0%,100%)" r="0.7" /><circle cx="336.41678263" cy="284.365639274" fill="rgb(0%,0%,100%)" r="0.7" /><circle cx="336.651034163" cy="287.356458661" fill="rgb(0%,0%,100%)" r="0.7" /><circle cx="336.852277966" cy="290.349691123" fill="rgb(0%,0%,100%)" r="0.7" /><circle cx="337.021084382" cy="293.344925715" fill="rgb(0%,0%,100%)" r="0.7" /><circle cx="337.158011756" cy="296.34178495" fill="rgb(0%,0%,100%)" r="0.7" /><circle cx="337.263604767" cy="299.339912251" fill="rgb(0%,0%,100%)" r="0.7" /><circle cx="337.338393737" cy="302.338967859" fill="rgb(0%,0%,100%)" r="0.7" /><circle cx="337.382894187" cy="305.338626981" fill="rgb(0%,0%,100%)" r="0.7" /><circle cx="337.397606496" cy="308.338577714" fill="rgb(0%,0%,100%)" r="0.7" /><circle cx="337.38301557" cy="311.338524804" fill="rgb(0%,0%,100%)" r="0.7" /><circle cx="337.339590001" cy="314.338207416" fill="rgb(0%,0%,100%)" r="0.7" /><circle cx="337.267782562" cy="317.337333465" fill="rgb(0%,0%,100%)" r="0.7" /><circle cx="337.168028918" cy="320.335657017" fill="rgb(0%,0%,100%)" r="0.7" /><circle cx="337.040747003" cy="323.33294817" fill="rgb(0%,0%,100%)" r="0.7" /><circle cx="336.886338175" cy="326.328960002" fill="rgb(0%,0%,100%)" r="0.7" /><circle cx="336.705184144" cy="329.323486465" fill="rgb(0%,0%,100%)" r="0.7" /><circle cx="336.497650622" cy="332.316285784" fill="rgb(0%,0%,100%)" r="0.7" /><circle cx="336.264080604" cy="335.307177045" fill="rgb(0%,0%,100%)" r="0.7" /><circle cx="336.004800076" cy="338.295943237" fill="rgb(0%,0%,100%)" r="0.7" /><circle cx="335.720112644" cy="341.282394385" fill="rgb(0%,0%,100%)" r="0.7" /><circle cx="335.41030047" cy="344.26634006" fill="rgb(0%,0%,100%)" r="0.7" /><circle cx="335.075621936" cy="347.247600028" fill="rgb(0%,0%,100%)" r="0.7" /><circle cx="334.716310972" cy="350.225994621" fill="rgb(0%,0%,100%)" r="0.7" /><circle cx="334.33257323" cy="353.201359583" fill="rgb(0%,0%,100%)" r="0.7" /><circle cx="333.924592465" cy="356.173479997" fill="rgb(0%,0%,100%)" r="0.7" /><circle cx="333.492514422" cy="359.142192302" fill="rgb(0%,0%,100%)" r="0.7" /><circle cx="333.036451139" cy="362.107319875" fill="rgb(0%,0%,100%)" r="0.7" /><circle cx="332.55647955" cy="365.068655817" fill="rgb(0%,0%,100%)" r="0.7" /><circle cx="332.052624073" cy="368.026034339" fill="rgb(0%,0%,100%)" r="0.7" /><circle cx="331.524861219" cy="370.979251714" fill="rgb(0%,0%,100%)" r="0.7" /><circle cx="330.973113079" cy="373.928051881" fill="rgb(0%,0%,100%)" r="0.7" /><circle cx="330.397206966" cy="376.872265678" fill="rgb(0%,0%,100%)" r="0.7" /><circle cx="329.79690112" cy="379.811570966" fill="rgb(0%,0%,100%)" r="0.7" /><circle cx="329.171813406" cy="382.745714712" fill="rgb(0%,0%,100%)" r="0.7" /><circle cx="328.521408623" cy="385.674359106" fill="rgb(0%,0%,100%)" r="0.7" /><circle cx="327.844929153" cy="388.59709368" fill="rgb(0%,0%,100%)" r="0.7" /><circle cx="327.141292033" cy="391.513383761" fill="rgb(0%,0%,100%)" r="0.7" /><circle cx="326.408866862" cy="394.422594729" fill="rgb(0%,0%,100%)" r="0.7" /><circle cx="325.645072938" cy="397.323725727" fill="rgb(0%,0%,100%)" r="0.7" /><circle cx="324.845158006" cy="400.21507577" fill="rgb(0%,0%,100%)" r="0.7" /><circle cx="323.995" cy="403.092" fill="rgb(0%,0%,100%)" r="0.7" /></svg>