<?xml version="1.0" encoding="utf-8" ?>
<svg baseProfile="full" height="100%" version="1.1" width="100%" xmlns="http://www.w3.org/2000/svg" xmlns:ev="http://www.w3.org/2001/xml-events" xmlns:xlink="http://www.w3.org/1999/xlink"><defs /><circle cx="301.312178643" cy="255.98226037" fill="rgb(100%,0%,0%)" r="0.7" /><circle cx="298.723058232" cy="257.345562895" fill="rgb(100%,0%,0%)" r="0.7" /><circle cx="297.161504372" cy="259.880205222" fill="rgb(100%,0%,0%)" r="0.7" /><circle cx="296.484106583" cy="262.795669249" fill="rgb(100%,0%,0%)" r="0.7" /><circle cx="296.343095656" cy="265.789943813" fill="rgb(100%,0%,0%)" r="0.7" /><circle cx="296.546006844" cy="268.781933603" fill="rgb(100%,0%,0%)" r="0.7" /><circle cx="297.005575105" cy="271.745706315" fill="rgb(100%,0%,0%)" r="0.7" /><circle cx="297.719083769" cy="274.65881868" fill="rgb(100%,0%,0%)" r="0.7" /><circle cx="298.382232698" cy="277.584476885" fill="rgb(100%,0%,0%)" r="0.7" /><circle cx="298.965076998" cy="280.527242518" fill="rgb(100%,0%,0%)" r="0.7" /><circle cx="299.490183748" cy="283.480894234" fill="rgb(100%,0%,0%)" r="0.7" /><circle cx="299.971035254" cy="286.442088867" fill="rgb(100%,0%,0%)" r="0.7" /><circle cx="300.416415467" cy="289.408828626" fill="rgb(100%,0%,0%)" r="0.7" /><circle cx="300.832397963" cy="292.37983969" fill="rgb(100%,0%,0%)" r="0.7" /><circle cx="301.223358263" cy="295.354249634" fill="rgb(100%,0%,0%)" r="0.7" /><circle cx="301.592540535" cy="298.331440972" fill="rgb(100%,0%,0%)" r="0.7" /><circle cx="301.942390606" cy="301.310969893" fill="rgb(100%,0%,0%)" r="0.7" /><circle cx="302.27475383" cy="304.292499595" fill="rgb(100%,0%,0%)" r="0.7" /><circle cx="302.590990517" cy="307.275784479" fill="rgb(100%,0%,0%)" r="0.7" /><circle cx="302.892016623" cy="310.260640663" fill="rgb(100%,0%,0%)" r="0.7" /><circle cx="303.178252012" cy="313.246955683" fill="rgb(100%,0%,0%)" r="0.7" /><circle cx="303.449322386" cy="316.234685206" fill="rgb(100%,0%,0%)" r="0.7" /><circle cx="303.702" cy="319.224" fill="rgb(100%,0%,0%)" r="0.7" /><circle cx="301.312178643" cy="255.98226037" fill="rgb(0%,0%,100%)" r="0.7" /><circle cx="303.883316281" cy="257.482255997" fill="rgb(0%,0%,100%)" r="0.7" /><circle cx="305.801090838" cy="259.776093656" fill="rgb(0%,0%,100%)" r="0.7" /><circle cx="307.11849444" cy="262.465707769" fill="rgb(0%,0%,100%)" r="0.7" /><circle cx="307.958922108" cy="265.34286529" fill="rgb(0%,0%,100%)" r="0.7" /><circle cx="308.436842807" cy="268.303125108" fill="rgb(0%,0%,100%)" r="0.7" /><circle cx="308.638013348" cy="271.295544705" fill="rgb(0%,0%,100%)" r="0.7" /><circle cx="308.623537766" cy="274.295010269" fill="rgb(0%,0%,100%)" r="0.7" /><circle cx="308.437047971" cy="277.288867992" fill="rgb(0%,0%,100%)" r="0.7" /><circle cx="308.110296237" cy="280.270790064" fill="rgb(0%,0%,100%)" r="0.7" /><circle cx="307.85617667" cy="283.254360543" fill="rgb(0%,0%,100%)" r="0.7" /><circle cx="308.399895095" cy="286.188818667" fill="rgb(0%,0%,100%)" r="0.7" /><circle cx="310.044019967" cy="288.664885475" fill="rgb(0%,0%,100%)" r="0.7" /><circle cx="310.765349804" cy="291.561924351" fill="rgb(0%,0%,100%)" r="0.7" /><circle cx="310.636084674" cy="294.551675364" fill="rgb(0%,0%,100%)" r="0.7" /><circle cx="309.876499467" cy="297.449326667" fill="rgb(0%,0%,100%)" r="0.7" /><circle cx="309.775617144" cy="300.40932758" fill="rgb(0%,0%,100%)" r="0.7" /><circle cx="311.243561219" cy="302.986119163" fill="rgb(0%,0%,100%)" r="0.7" /><circle cx="312.506659815" cy="305.634047484" fill="rgb(0%,0%,100%)" r="0.7" /><circle cx="312.616872873" cy="308.625694046" fill="rgb(0%,0%,100%)" r="0.7" /><circle cx="312.233370816" cy="311.599241396" fill="rgb(0%,0%,100%)" r="0.7" /><circle cx="311.562832795" cy="314.52256679" fill="rgb(0%,0%,100%)" r="0.7" /><circle cx="310.700422461" cy="317.395526563" fill="rgb(0%,0%,100%)" r="0.7" /><circle cx="308.531785656" cy="315.790153113" fill="rgb(0%,0%,100%)" r="0.7" /><circle cx="306.450107897" cy="315.559327095" fill="rgb(0%,0%,100%)" r="0.7" /><circle cx="304.650274216" cy="317.959451825" fill="rgb(0%,0%,100%)" r="0.7" /><circle cx="303.702" cy="319.224" fill="rgb(0%,0%,100%)" r="0.7" /></svg>