<?xml version="1.0" encoding="utf-8" ?>
<svg baseProfile="full" height="100%" version="1.1" width="100%" xmlns="http://www.w3.org/2000/svg" xmlns:ev="http://www.w3.org/2001/xml-events" xmlns:xlink="http://www.w3.org/1999/xlink"><defs /><circle cx="256.012775308" cy="309.220924316" fill="rgb(100%,0%,0%)" r="0.7" /><circle cx="253.74254849" cy="311.140622194" fill="rgb(100%,0%,0%)" r="0.7" /><circle cx="252.086837122" cy="313.638242698" fill="rgb(100%,0%,0%)" r="0.7" /><circle cx="250.739237227" cy="316.317523879" fill="rgb(100%,0%,0%)" r="0.7" /><circle cx="249.575240468" cy="319.082097044" fill="rgb(100%,0%,0%)" r="0.7" /><circle cx="248.53524088" cy="321.89588744" fill="rgb(100%,0%,0%)" r="0.7" /><circle cx="247.596709247" cy="324.744949596" fill="rgb(100%,0%,0%)" r="0.7" /><circle cx="246.769909191" cy="327.628759032" fill="rgb(100%,0%,0%)" r="0.7" /><circle cx="245.970849544" cy="330.52037349" fill="rgb(100%,0%,0%)" r="0.7" /><circle cx="245.193943714" cy="333.418029885" fill="rgb(100%,0%,0%)" r="0.7" /><circle cx="244.437201266" cy="336.321008626" fill="rgb(100%,0%,0%)" r="0.7" /><circle cx="243.6996742" cy="339.228933876" fill="rgb(100%,0%,0%)" r="0.7" /><circle cx="242.980922445" cy="342.14155749" fill="rgb(100%,0%,0%)" r="0.7" /><circle cx="242.280805043" cy="345.058711523" fill="rgb(100%,0%,0%)" r="0.7" /><circle cx="241.599381586" cy="347.980293279" fill="rgb(100%,0%,0%)" r="0.7" /><circle cx="240.936869821" cy="350.906218618" fill="rgb(100%,0%,0%)" r="0.7" /><circle cx="240.293611366" cy="353.836441265" fill="rgb(100%,0%,0%)" r="0.7" /><circle cx="239.670062794" cy="356.770918518" fill="rgb(100%,0%,0%)" r="0.7" /><circle cx="239.066781962" cy="359.709633682" fill="rgb(100%,0%,0%)" r="0.7" /><circle cx="238.484431999" cy="362.652560427" fill="rgb(100%,0%,0%)" r="0.7" /><circle cx="237.923772729" cy="365.59970727" fill="rgb(100%,0%,0%)" r="0.7" /><circle cx="237.385677892" cy="368.551046867" fill="rgb(100%,0%,0%)" r="0.7" /><circle cx="236.871129046" cy="371.506579102" fill="rgb(100%,0%,0%)" r="0.7" /><circle cx="236.381230407" cy="374.466300332" fill="rgb(100%,0%,0%)" r="0.7" /><circle cx="235.917222477" cy="377.430189012" fill="rgb(100%,0%,0%)" r="0.7" /><circle cx="235.480493744" cy="380.398220562" fill="rgb(100%,0%,0%)" r="0.7" /><circle cx="235.072600894" cy="383.370350547" fill="rgb(100%,0%,0%)" r="0.7" /><circle cx="234.695289951" cy="386.34651569" fill="rgb(100%,0%,0%)" r="0.7" /><circle cx="234.350523559" cy="389.326624309" fill="rgb(100%,0%,0%)" r="0.7" /><circle cx="234.040513702" cy="392.310546328" fill="rgb(100%,0%,0%)" r="0.7" /><circle cx="233.767761443" cy="395.298100606" fill="rgb(100%,0%,0%)" r="0.7" /><circle cx="233.535105177" cy="398.289041405" fill="rgb(100%,0%,0%)" r="0.7" /><circle cx="233.34578025" cy="401.283037471" fill="rgb(100%,0%,0%)" r="0.7" /><circle cx="233.203493305" cy="404.27962521" fill="rgb(100%,0%,0%)" r="0.7" /><circle cx="233.112511393" cy="407.278202891" fill="rgb(100%,0%,0%)" r="0.7" /><circle cx="233.077777423" cy="410.277959838" fill="rgb(100%,0%,0%)" r="0.7" /><circle cx="233.105052912" cy="413.27777494" fill="rgb(100%,0%,0%)" r="0.7" /><circle cx="233.201098078" cy="416.27616286" fill="rgb(100%,0%,0%)" r="0.7" /><circle cx="233.373902293" cy="419.271098668" fill="rgb(100%,0%,0%)" r="0.7" /><circle cx="233.512830329" cy="422.267079354" fill="rgb(100%,0%,0%)" r="0.7" /><circle cx="233.516804164" cy="425.266981055" fill="rgb(100%,0%,0%)" r="0.7" /><circle cx="233.45084358" cy="428.266201584" fill="rgb(100%,0%,0%)" r="0.7" /><circle cx="233.329637264" cy="431.263721485" fill="rgb(100%,0%,0%)" r="0.7" /><circle cx="233.161020548" cy="434.258947426" fill="rgb(100%,0%,0%)" r="0.7" /><circle cx="232.950106431" cy="437.25150935" fill="rgb(100%,0%,0%)" r="0.7" /><circle cx="232.700589831" cy="440.24108696" fill="rgb(100%,0%,0%)" r="0.7" /><circle cx="232.415304824" cy="443.227484138" fill="rgb(100%,0%,0%)" r="0.7" /><circle cx="232.096528485" cy="446.210475067" fill="rgb(100%,0%,0%)" r="0.7" /><circle cx="231.746136913" cy="449.189928925" fill="rgb(100%,0%,0%)" r="0.7" /><circle cx="231.365720563" cy="452.165701165" fill="rgb(100%,0%,0%)" r="0.7" /><circle cx="230.95664963" cy="455.13767132" fill="rgb(100%,0%,0%)" r="0.7" /><circle cx="230.520123539" cy="458.105728256" fill="rgb(100%,0%,0%)" r="0.7" /><circle cx="230.057202044" cy="461.069789989" fill="rgb(100%,0%,0%)" r="0.7" /><circle cx="230.358910495" cy="462.463207454" fill="rgb(100%,0%,0%)" r="0.7" /><circle cx="232.442531577" cy="460.304846227" fill="rgb(100%,0%,0%)" r="0.7" /><circle cx="234.52615266" cy="458.146485001" fill="rgb(100%,0%,0%)" r="0.7" /><circle cx="236.609773742" cy="455.988123774" fill="rgb(100%,0%,0%)" r="0.7" /><circle cx="238.684758712" cy="454.406328165" fill="rgb(100%,0%,0%)" r="0.7" /><circle cx="240.70280135" cy="456.626126334" fill="rgb(100%,0%,0%)" r="0.7" /><circle cx="242.720843988" cy="458.845924503" fill="rgb(100%,0%,0%)" r="0.7" /><circle cx="244.738886627" cy="461.065722672" fill="rgb(100%,0%,0%)" r="0.7" /><circle cx="246.756929265" cy="463.285520841" fill="rgb(100%,0%,0%)" r="0.7" /><circle cx="248.774971903" cy="465.50531901" fill="rgb(100%,0%,0%)" r="0.7" /><circle cx="250.793014541" cy="467.725117178" fill="rgb(100%,0%,0%)" r="0.7" /><circle cx="250.842" cy="467.779" fill="rgb(100%,0%,0%)" r="0.7" /><circle cx="256.012775308" cy="309.220924316" fill="rgb(0%,0%,100%)" r="0.7" /><circle cx="258.856417477" cy="309.516078379" fill="rgb(0%,0%,100%)" r="0.7" /><circle cx="260.825175593" cy="311.751715102" fill="rgb(0%,0%,100%)" r="0.7" /><circle cx="262.164361562" cy="314.432696614" fill="rgb(0%,0%,100%)" r="0.7" /><circle cx="263.17341147" cy="317.256793475" fill="rgb(0%,0%,100%)" r="0.7" /><circle cx="263.91675591" cy="320.159836221" fill="rgb(0%,0%,100%)" r="0.7" /><circle cx="264.241281272" cy="323.14219163" fill="rgb(0%,0%,100%)" r="0.7" /><circle cx="264.550781572" cy="326.126225933" fill="rgb(0%,0%,100%)" r="0.7" /><circle cx="264.844949953" cy="329.11175355" fill="rgb(0%,0%,100%)" r="0.7" /><circle cx="265.123492507" cy="332.098804785" fill="rgb(0%,0%,100%)" r="0.7" /><circle cx="265.386090126" cy="335.08725173" fill="rgb(0%,0%,100%)" r="0.7" /><circle cx="265.632426832" cy="338.077117772" fill="rgb(0%,0%,100%)" r="0.7" /><circle cx="265.862165" cy="341.068308243" fill="rgb(0%,0%,100%)" r="0.7" /><circle cx="266.074956164" cy="344.060730698" fill="rgb(0%,0%,100%)" r="0.7" /><circle cx="266.270446072" cy="347.054388822" fill="rgb(0%,0%,100%)" r="0.7" /><circle cx="266.448255839" cy="350.049113293" fill="rgb(0%,0%,100%)" r="0.7" /><circle cx="266.608000598" cy="353.044847532" fill="rgb(0%,0%,100%)" r="0.7" /><circle cx="266.749277628" cy="356.041477531" fill="rgb(0%,0%,100%)" r="0.7" /><circle cx="266.871673108" cy="359.038991897" fill="rgb(0%,0%,100%)" r="0.7" /><circle cx="266.974748931" cy="362.037201946" fill="rgb(0%,0%,100%)" r="0.7" /><circle cx="267.058055207" cy="365.036068646" fill="rgb(0%,0%,100%)" r="0.7" /><circle cx="267.121118688" cy="368.035407162" fill="rgb(0%,0%,100%)" r="0.7" /><circle cx="267.163448506" cy="371.035103297" fill="rgb(0%,0%,100%)" r="0.7" /><circle cx="267.184531701" cy="374.03500987" fill="rgb(0%,0%,100%)" r="0.7" /><circle cx="267.183832282" cy="377.035010682" fill="rgb(0%,0%,100%)" r="0.7" /><circle cx="267.160789117" cy="380.034923344" fill="rgb(0%,0%,100%)" r="0.7" /><circle cx="267.114815361" cy="383.034538233" fill="rgb(0%,0%,100%)" r="0.7" /><circle cx="267.045294323" cy="386.033717359" fill="rgb(0%,0%,100%)" r="0.7" /><circle cx="266.951579386" cy="389.032234142" fill="rgb(0%,0%,100%)" r="0.7" /><circle cx="266.832988013" cy="392.029918395" fill="rgb(0%,0%,100%)" r="0.7" /><circle cx="266.688808772" cy="395.026407031" fill="rgb(0%,0%,100%)" r="0.7" /><circle cx="266.518280482" cy="398.021553799" fill="rgb(0%,0%,100%)" r="0.7" /><circle cx="266.320605211" cy="401.01504119" fill="rgb(0%,0%,100%)" r="0.7" /><circle cx="266.094939298" cy="404.006522134" fill="rgb(0%,0%,100%)" r="0.7" /><circle cx="265.840382494" cy="406.995687895" fill="rgb(0%,0%,100%)" r="0.7" /><circle cx="265.555977566" cy="409.982181038" fill="rgb(0%,0%,100%)" r="0.7" /><circle cx="265.240710097" cy="412.965542637" fill="rgb(0%,0%,100%)" r="0.7" /><circle cx="264.893482985" cy="415.945384254" fill="rgb(0%,0%,100%)" r="0.7" /><circle cx="264.5131319" cy="418.921154183" fill="rgb(0%,0%,100%)" r="0.7" /><circle cx="264.098392982" cy="421.892326259" fill="rgb(0%,0%,100%)" r="0.7" /><circle cx="263.647901462" cy="424.858290607" fill="rgb(0%,0%,100%)" r="0.7" /><circle cx="263.1601742" cy="427.818362873" fill="rgb(0%,0%,100%)" r="0.7" /><circle cx="262.633593959" cy="430.771754308" fill="rgb(0%,0%,100%)" r="0.7" /><circle cx="262.066379413" cy="433.717593367" fill="rgb(0%,0%,100%)" r="0.7" /><circle cx="261.456545638" cy="436.654941333" fill="rgb(0%,0%,100%)" r="0.7" /><circle cx="260.801892213" cy="439.582626552" fill="rgb(0%,0%,100%)" r="0.7" /><circle cx="260.09993154" cy="442.499311521" fill="rgb(0%,0%,100%)" r="0.7" /><circle cx="259.347809597" cy="445.403463706" fill="rgb(0%,0%,100%)" r="0.7" /><circle cx="258.542223572" cy="448.293202093" fill="rgb(0%,0%,100%)" r="0.7" /><circle cx="257.679221042" cy="451.166365171" fill="rgb(0%,0%,100%)" r="0.7" /><circle cx="256.754040368" cy="454.020073763" fill="rgb(0%,0%,100%)" r="0.7" /><circle cx="255.760642189" cy="456.850705935" fill="rgb(0%,0%,100%)" r="0.7" /><circle cx="254.690951636" cy="459.653425706" fill="rgb(0%,0%,100%)" r="0.7" /><circle cx="253.533346558" cy="462.420932177" fill="rgb(0%,0%,100%)" r="0.7" /><circle cx="252.268178904" cy="465.140837018" fill="rgb(0%,0%,100%)" r="0.7" /><circle cx="250.842" cy="467.779" fill="rgb(0%,0%,100%)" r="0.7" /></svg>