<?xml version="1.0" encoding="utf-8" ?>
<svg baseProfile="full" height="100%" version="1.1" width="100%" xmlns="http://www.w3.org/2000/svg" xmlns:ev="http://www.w3.org/2001/xml-events" xmlns:xlink="http://www.w3.org/1999/xlink"><defs /><circle cx="280.982087271" cy="392.307407667" fill="rgb(100%,0%,0%)" r="0.7" /><circle cx="278.362353352" cy="392.609326966" fill="rgb(100%,0%,0%)" r="0.7" /><circle cx="277.241599535" cy="395.371331159" fill="rgb(100%,0%,0%)" r="0.7" /><circle cx="276.743133766" cy="398.327827221" fill="rgb(100%,0%,0%)" r="0.7" /><circle cx="276.506346609" cy="401.317928302" fill="rgb(100%,0%,0%)" r="0.7" /><circle cx="276.462405817" cy="404.315834639" fill="rgb(100%,0%,0%)" r="0.7" /><circle cx="276.804269187" cy="407.296262403" fill="rgb(100%,0%,0%)" r="0.7" /><circle cx="277.102052594" cy="410.28142072" fill="rgb(100%,0%,0%)" r="0.7" /><circle cx="277.356988815" cy="413.270546614" fill="rgb(100%,0%,0%)" r="0.7" /><circle cx="277.570230543" cy="416.262934622" fill="rgb(100%,0%,0%)" r="0.7" /><circle cx="277.742850488" cy="419.257942681" fill="rgb(100%,0%,0%)" r="0.7" /><circle cx="277.875839035" cy="422.254972497" fill="rgb(100%,0%,0%)" r="0.7" /><circle cx="277.970102798" cy="425.253470053" fill="rgb(100%,0%,0%)" r="0.7" /><circle cx="278.026461598" cy="428.25292038" fill="rgb(100%,0%,0%)" r="0.7" /><circle cx="278.045644013" cy="431.252842905" fill="rgb(100%,0%,0%)" r="0.7" /><circle cx="278.028281054" cy="434.252775825" fill="rgb(100%,0%,0%)" r="0.7" /><circle cx="277.974897258" cy="437.252282028" fill="rgb(100%,0%,0%)" r="0.7" /><circle cx="277.885897201" cy="440.25094615" fill="rgb(100%,0%,0%)" r="0.7" /><circle cx="277.761547106" cy="443.248341899" fill="rgb(100%,0%,0%)" r="0.7" /><circle cx="277.601943583" cy="446.244086572" fill="rgb(100%,0%,0%)" r="0.7" /><circle cx="277.406974391" cy="449.237725155" fill="rgb(100%,0%,0%)" r="0.7" /><circle cx="277.176243073" cy="452.228810718" fill="rgb(100%,0%,0%)" r="0.7" /><circle cx="276.908945616" cy="455.216872502" fill="rgb(100%,0%,0%)" r="0.7" /><circle cx="276.603650316" cy="458.201266122" fill="rgb(100%,0%,0%)" r="0.7" /><circle cx="276.257783083" cy="461.181242095" fill="rgb(100%,0%,0%)" r="0.7" /><circle cx="275.866237728" cy="464.155553276" fill="rgb(100%,0%,0%)" r="0.7" /><circle cx="275.413" cy="467.121" fill="rgb(100%,0%,0%)" r="0.7" /><circle cx="280.982087271" cy="392.307407667" fill="rgb(0%,0%,100%)" r="0.7" /><circle cx="282.973916745" cy="394.529458258" fill="rgb(0%,0%,100%)" r="0.7" /><circle cx="284.567307764" cy="397.069667598" fill="rgb(0%,0%,100%)" r="0.7" /><circle cx="285.880541819" cy="399.765293146" fill="rgb(0%,0%,100%)" r="0.7" /><circle cx="286.872672926" cy="402.594476152" fill="rgb(0%,0%,100%)" r="0.7" /><circle cx="287.483393758" cy="405.529107938" fill="rgb(0%,0%,100%)" r="0.7" /><circle cx="287.647590936" cy="408.521442105" fill="rgb(0%,0%,100%)" r="0.7" /><circle cx="287.316068672" cy="411.499391567" fill="rgb(0%,0%,100%)" r="0.7" /><circle cx="286.479425915" cy="414.376543725" fill="rgb(0%,0%,100%)" r="0.7" /><circle cx="285.276519988" cy="417.124435051" fill="rgb(0%,0%,100%)" r="0.7" /><circle cx="284.930720544" cy="419.95427176" fill="rgb(0%,0%,100%)" r="0.7" /><circle cx="285.885624588" cy="422.752606432" fill="rgb(0%,0%,100%)" r="0.7" /><circle cx="285.688731471" cy="425.36482235" fill="rgb(0%,0%,100%)" r="0.7" /><circle cx="285.620067028" cy="428.077256089" fill="rgb(0%,0%,100%)" r="0.7" /><circle cx="284.341281343" cy="430.684376537" fill="rgb(0%,0%,100%)" r="0.7" /><circle cx="285.594748445" cy="433.345894339" fill="rgb(0%,0%,100%)" r="0.7" /><circle cx="285.012656754" cy="436.210275942" fill="rgb(0%,0%,100%)" r="0.7" /><circle cx="284.874704774" cy="438.964514236" fill="rgb(0%,0%,100%)" r="0.7" /><circle cx="286.01637556" cy="441.662832732" fill="rgb(0%,0%,100%)" r="0.7" /><circle cx="285.029624011" cy="444.414844394" fill="rgb(0%,0%,100%)" r="0.7" /><circle cx="284.883165109" cy="447.322689097" fill="rgb(0%,0%,100%)" r="0.7" /><circle cx="285.750093207" cy="450.126601343" fill="rgb(0%,0%,100%)" r="0.7" /><circle cx="284.715699785" cy="452.896652747" fill="rgb(0%,0%,100%)" r="0.7" /><circle cx="283.55009089" cy="455.632703203" fill="rgb(0%,0%,100%)" r="0.7" /><circle cx="284.548136811" cy="458.320067995" fill="rgb(0%,0%,100%)" r="0.7" /><circle cx="284.268336466" cy="461.219378586" fill="rgb(0%,0%,100%)" r="0.7" /><circle cx="283.074322072" cy="463.953821545" fill="rgb(0%,0%,100%)" r="0.7" /><circle cx="282.672163061" cy="466.689058435" fill="rgb(0%,0%,100%)" r="0.7" /><circle cx="280.354751903" cy="464.783906072" fill="rgb(0%,0%,100%)" r="0.7" /><circle cx="278.130798098" cy="463.995322804" fill="rgb(0%,0%,100%)" r="0.7" /><circle cx="276.162337046" cy="466.259204667" fill="rgb(0%,0%,100%)" r="0.7" /><circle cx="275.413" cy="467.121" fill="rgb(0%,0%,100%)" r="0.7" /></svg>