<?xml version="1.0" encoding="utf-8" ?>
<svg baseProfile="full" height="100%" version="1.1" width="100%" xmlns="http://www.w3.org/2000/svg" xmlns:ev="http://www.w3.org/2001/xml-events" xmlns:xlink="http://www.w3.org/1999/xlink"><defs /><circle cx="266.346158197" cy="330.775318662" fill="rgb(100%,0%,0%)" r="0.7" /><circle cx="263.748208153" cy="331.648021401" fill="rgb(100%,0%,0%)" r="0.7" /><circle cx="262.003004598" cy="334.081306874" fill="rgb(100%,0%,0%)" r="0.7" /><circle cx="260.594833084" cy="336.729287444" fill="rgb(100%,0%,0%)" r="0.7" /><circle cx="259.359405182" cy="339.4627616" fill="rgb(100%,0%,0%)" r="0.7" /><circle cx="258.241503243" cy="342.246513772" fill="rgb(100%,0%,0%)" r="0.7" /><circle cx="257.210761544" cy="345.063686079" fill="rgb(100%,0%,0%)" r="0.7" /><circle cx="256.454600559" cy="347.964097072" fill="rgb(100%,0%,0%)" r="0.7" /><circle cx="256.166626961" cy="350.946522933" fill="rgb(100%,0%,0%)" r="0.7" /><circle cx="256.430404561" cy="353.930078748" fill="rgb(100%,0%,0%)" r="0.7" /><circle cx="257.299259762" cy="356.7953909" fill="rgb(100%,0%,0%)" r="0.7" /><circle cx="258.81888615" cy="359.370553709" fill="rgb(100%,0%,0%)" r="0.7" /><circle cx="260.358013395" cy="361.945103071" fill="rgb(100%,0%,0%)" r="0.7" /><circle cx="261.766148898" cy="364.593852071" fill="rgb(100%,0%,0%)" r="0.7" /><circle cx="263.078982396" cy="367.291221205" fill="rgb(100%,0%,0%)" r="0.7" /><circle cx="264.318397526" cy="370.023145037" fill="rgb(100%,0%,0%)" r="0.7" /><circle cx="265.49886853" cy="372.781082464" fill="rgb(100%,0%,0%)" r="0.7" /><circle cx="266.630489058" cy="375.559436762" fill="rgb(100%,0%,0%)" r="0.7" /><circle cx="267.720587661" cy="378.354351658" fill="rgb(100%,0%,0%)" r="0.7" /><circle cx="268.774640472" cy="381.163064786" fill="rgb(100%,0%,0%)" r="0.7" /><circle cx="269.796818595" cy="383.98354036" fill="rgb(100%,0%,0%)" r="0.7" /><circle cx="270.790325363" cy="386.814244411" fill="rgb(100%,0%,0%)" r="0.7" /><circle cx="271.757608522" cy="389.654018359" fill="rgb(100%,0%,0%)" r="0.7" /><circle cx="272.700474171" cy="392.501993816" fill="rgb(100%,0%,0%)" r="0.7" /><circle cx="273.620111248" cy="395.357547481" fill="rgb(100%,0%,0%)" r="0.7" /><circle cx="274.516992341" cy="398.220345954" fill="rgb(100%,0%,0%)" r="0.7" /><circle cx="275.390361122" cy="401.090382795" fill="rgb(100%,0%,0%)" r="0.7" /><circle cx="276.235" cy="403.969" fill="rgb(100%,0%,0%)" r="0.7" /><circle cx="266.346158197" cy="330.775318662" fill="rgb(0%,0%,100%)" r="0.7" /><circle cx="267.5354485" cy="333.403593559" fill="rgb(0%,0%,100%)" r="0.7" /><circle cx="267.827243291" cy="336.389110745" fill="rgb(0%,0%,100%)" r="0.7" /><circle cx="267.973424209" cy="339.385185033" fill="rgb(0%,0%,100%)" r="0.7" /><circle cx="267.926052388" cy="342.384048402" fill="rgb(0%,0%,100%)" r="0.7" /><circle cx="267.565968643" cy="345.359892336" fill="rgb(0%,0%,100%)" r="0.7" /><circle cx="266.731607344" cy="348.224939815" fill="rgb(0%,0%,100%)" r="0.7" /><circle cx="267.394611417" cy="351.091960549" fill="rgb(0%,0%,100%)" r="0.7" /><circle cx="268.850076553" cy="353.684749606" fill="rgb(0%,0%,100%)" r="0.7" /><circle cx="270.092466012" cy="356.415390065" fill="rgb(0%,0%,100%)" r="0.7" /><circle cx="271.302958555" cy="359.1603226" fill="rgb(0%,0%,100%)" r="0.7" /><circle cx="272.483696562" cy="361.918176256" fill="rgb(0%,0%,100%)" r="0.7" /><circle cx="273.634894593" cy="364.688495239" fill="rgb(0%,0%,100%)" r="0.7" /><circle cx="274.755822461" cy="367.47120059" fill="rgb(0%,0%,100%)" r="0.7" /><circle cx="275.845093176" cy="370.266439166" fill="rgb(0%,0%,100%)" r="0.7" /><circle cx="276.900756118" cy="373.074547055" fill="rgb(0%,0%,100%)" r="0.7" /><circle cx="277.920273335" cy="375.895978679" fill="rgb(0%,0%,100%)" r="0.7" /><circle cx="278.900459338" cy="378.73130546" fill="rgb(0%,0%,100%)" r="0.7" /><circle cx="279.837366281" cy="381.581220552" fill="rgb(0%,0%,100%)" r="0.7" /><circle cx="280.726097639" cy="384.446517218" fill="rgb(0%,0%,100%)" r="0.7" /><circle cx="281.560545846" cy="387.328079801" fill="rgb(0%,0%,100%)" r="0.7" /><circle cx="282.333009244" cy="390.226854962" fill="rgb(0%,0%,100%)" r="0.7" /><circle cx="283.033632699" cy="393.143807108" fill="rgb(0%,0%,100%)" r="0.7" /><circle cx="283.649555271" cy="396.079775499" fill="rgb(0%,0%,100%)" r="0.7" /><circle cx="284.163601206" cy="399.035224099" fill="rgb(0%,0%,100%)" r="0.7" /><circle cx="284.550436429" cy="402.007392064" fill="rgb(0%,0%,100%)" r="0.7" /><circle cx="281.754350044" cy="400.920239396" fill="rgb(0%,0%,100%)" r="0.7" /><circle cx="278.958263658" cy="399.833086728" fill="rgb(0%,0%,100%)" r="0.7" /><circle cx="277.286479386" cy="401.3297398" fill="rgb(0%,0%,100%)" r="0.7" /><circle cx="276.235" cy="403.969" fill="rgb(0%,0%,100%)" r="0.7" /></svg>