<?xml version="1.0" encoding="utf-8" ?>
<svg baseProfile="full" height="100%" version="1.1" width="100%" xmlns="http://www.w3.org/2000/svg" xmlns:ev="http://www.w3.org/2001/xml-events" xmlns:xlink="http://www.w3.org/1999/xlink"><defs /><circle cx="326.496336058" cy="345.256896894" fill="rgb(100%,0%,0%)" r="0.7" /><circle cx="324.579656337" cy="347.55710866" fill="rgb(100%,0%,0%)" r="0.7" /><circle cx="322.958826112" cy="350.080834968" fill="rgb(100%,0%,0%)" r="0.7" /><circle cx="321.471061299" cy="352.685715988" fill="rgb(100%,0%,0%)" r="0.7" /><circle cx="320.064931816" cy="355.335685065" fill="rgb(100%,0%,0%)" r="0.7" /><circle cx="318.715963581" cy="358.015251837" fill="rgb(100%,0%,0%)" r="0.7" /><circle cx="317.372133819" cy="360.697398212" fill="rgb(100%,0%,0%)" r="0.7" /><circle cx="316.022115726" cy="363.376464568" fill="rgb(100%,0%,0%)" r="0.7" /><circle cx="314.671439487" cy="366.055212824" fill="rgb(100%,0%,0%)" r="0.7" /><circle cx="313.320161244" cy="368.733657038" fill="rgb(100%,0%,0%)" r="0.7" /><circle cx="311.968290474" cy="371.411807096" fill="rgb(100%,0%,0%)" r="0.7" /><circle cx="310.615824796" cy="374.089650778" fill="rgb(100%,0%,0%)" r="0.7" /><circle cx="309.262744991" cy="376.767179096" fill="rgb(100%,0%,0%)" r="0.7" /><circle cx="307.909017384" cy="379.444386923" fill="rgb(100%,0%,0%)" r="0.7" /><circle cx="306.554607518" cy="382.121247047" fill="rgb(100%,0%,0%)" r="0.7" /><circle cx="305.199465168" cy="384.7977384" fill="rgb(100%,0%,0%)" r="0.7" /><circle cx="303.84353278" cy="387.473825922" fill="rgb(100%,0%,0%)" r="0.7" /><circle cx="302.4867343" cy="390.149477054" fill="rgb(100%,0%,0%)" r="0.7" /><circle cx="301.128980821" cy="392.82464234" fill="rgb(100%,0%,0%)" r="0.7" /><circle cx="299.770158778" cy="395.499266736" fill="rgb(100%,0%,0%)" r="0.7" /><circle cx="298.410129689" cy="398.173272602" fill="rgb(100%,0%,0%)" r="0.7" /><circle cx="297.048707488" cy="400.846578013" fill="rgb(100%,0%,0%)" r="0.7" /><circle cx="295.685660531" cy="403.519052051" fill="rgb(100%,0%,0%)" r="0.7" /><circle cx="294.320672474" cy="406.190525504" fill="rgb(100%,0%,0%)" r="0.7" /><circle cx="292.953285561" cy="408.860787911" fill="rgb(100%,0%,0%)" r="0.7" /><circle cx="291.582853298" cy="411.52946819" fill="rgb(100%,0%,0%)" r="0.7" /><circle cx="290.208424735" cy="414.196103392" fill="rgb(100%,0%,0%)" r="0.7" /><circle cx="288.81412001" cy="416.852364301" fill="rgb(100%,0%,0%)" r="0.7" /><circle cx="287.38882376" cy="419.492157863" fill="rgb(100%,0%,0%)" r="0.7" /><circle cx="285.937419375" cy="422.117670537" fill="rgb(100%,0%,0%)" r="0.7" /><circle cx="284.463006128" cy="424.730350391" fill="rgb(100%,0%,0%)" r="0.7" /><circle cx="282.967630497" cy="427.331076308" fill="rgb(100%,0%,0%)" r="0.7" /><circle cx="281.452597002" cy="429.920410859" fill="rgb(100%,0%,0%)" r="0.7" /><circle cx="279.91871219" cy="432.498617812" fill="rgb(100%,0%,0%)" r="0.7" /><circle cx="278.366374255" cy="435.065759732" fill="rgb(100%,0%,0%)" r="0.7" /><circle cx="276.795655902" cy="437.621695893" fill="rgb(100%,0%,0%)" r="0.7" /><circle cx="275.206330244" cy="440.166103759" fill="rgb(100%,0%,0%)" r="0.7" /><circle cx="273.597884238" cy="442.698466718" fill="rgb(100%,0%,0%)" r="0.7" /><circle cx="271.969505535" cy="445.218057631" fill="rgb(100%,0%,0%)" r="0.7" /><circle cx="270.32005222" cy="447.723900661" fill="rgb(100%,0%,0%)" r="0.7" /><circle cx="268.64799466" cy="450.214717948" fill="rgb(100%,0%,0%)" r="0.7" /><circle cx="266.951332314" cy="452.68883645" fill="rgb(100%,0%,0%)" r="0.7" /><circle cx="265.227455482" cy="455.144063586" fill="rgb(100%,0%,0%)" r="0.7" /><circle cx="263.472941679" cy="457.577482221" fill="rgb(100%,0%,0%)" r="0.7" /><circle cx="261.683229143" cy="459.985131866" fill="rgb(100%,0%,0%)" r="0.7" /><circle cx="259.852119198" cy="462.36142583" fill="rgb(100%,0%,0%)" r="0.7" /><circle cx="257.970862379" cy="464.698188553" fill="rgb(100%,0%,0%)" r="0.7" /><circle cx="256.026544121" cy="466.982679209" fill="rgb(100%,0%,0%)" r="0.7" /><circle cx="253.99879913" cy="469.193293016" fill="rgb(100%,0%,0%)" r="0.7" /><circle cx="251.852351638" cy="471.288327203" fill="rgb(100%,0%,0%)" r="0.7" /><circle cx="249.518910442" cy="473.17085582" fill="rgb(100%,0%,0%)" r="0.7" /><circle cx="247.110292029" cy="474.959320549" fill="rgb(100%,0%,0%)" r="0.7" /><circle cx="244.701635692" cy="476.747718501" fill="rgb(100%,0%,0%)" r="0.7" /><circle cx="242.292929132" cy="478.53605484" fill="rgb(100%,0%,0%)" r="0.7" /><circle cx="239.884167177" cy="480.324317602" fill="rgb(100%,0%,0%)" r="0.7" /><circle cx="237.47533707" cy="482.112488093" fill="rgb(100%,0%,0%)" r="0.7" /><circle cx="235.066414565" cy="483.900535145" fill="rgb(100%,0%,0%)" r="0.7" /><circle cx="232.657358875" cy="485.688393909" fill="rgb(100%,0%,0%)" r="0.7" /><circle cx="230.248045397" cy="487.475923929" fill="rgb(100%,0%,0%)" r="0.7" /><circle cx="227.837914991" cy="489.262328952" fill="rgb(100%,0%,0%)" r="0.7" /><circle cx="229.900537702" cy="488.862615436" fill="rgb(100%,0%,0%)" r="0.7" /><circle cx="232.791172329" cy="488.059975135" fill="rgb(100%,0%,0%)" r="0.7" /><circle cx="235.681806956" cy="487.257334834" fill="rgb(100%,0%,0%)" r="0.7" /><circle cx="238.572441583" cy="486.454694533" fill="rgb(100%,0%,0%)" r="0.7" /><circle cx="241.46307621" cy="485.652054232" fill="rgb(100%,0%,0%)" r="0.7" /><circle cx="244.353710838" cy="484.849413931" fill="rgb(100%,0%,0%)" r="0.7" /><circle cx="243.998614259" cy="487.023353931" fill="rgb(100%,0%,0%)" r="0.7" /><circle cx="242.949365676" cy="489.833883669" fill="rgb(100%,0%,0%)" r="0.7" /><circle cx="241.900117093" cy="492.644413408" fill="rgb(100%,0%,0%)" r="0.7" /><circle cx="240.85086851" cy="495.454943146" fill="rgb(100%,0%,0%)" r="0.7" /><circle cx="239.801619927" cy="498.265472885" fill="rgb(100%,0%,0%)" r="0.7" /><circle cx="238.752371344" cy="501.076002623" fill="rgb(100%,0%,0%)" r="0.7" /><circle cx="237.803" cy="503.619" fill="rgb(100%,0%,0%)" r="0.7" /><circle cx="326.496336058" cy="345.256896894" fill="rgb(0%,0%,100%)" r="0.7" /><circle cx="328.969525766" cy="345.648961697" fill="rgb(0%,0%,100%)" r="0.7" /><circle cx="330.773737415" cy="348.031558775" fill="rgb(0%,0%,100%)" r="0.7" /><circle cx="331.920461278" cy="350.797774493" fill="rgb(0%,0%,100%)" r="0.7" /><circle cx="332.572486006" cy="353.723493054" fill="rgb(0%,0%,100%)" r="0.7" /><circle cx="332.872370133" cy="356.707221059" fill="rgb(0%,0%,100%)" r="0.7" /><circle cx="332.916089815" cy="359.70623033" fill="rgb(0%,0%,100%)" r="0.7" /><circle cx="332.765988778" cy="362.702070248" fill="rgb(0%,0%,100%)" r="0.7" /><circle cx="332.463354734" cy="365.686504399" fill="rgb(0%,0%,100%)" r="0.7" /><circle cx="332.03626773" cy="368.655767353" fill="rgb(0%,0%,100%)" r="0.7" /><circle cx="331.504133145" cy="371.608058439" fill="rgb(0%,0%,100%)" r="0.7" /><circle cx="330.880167962" cy="374.542338516" fill="rgb(0%,0%,100%)" r="0.7" /><circle cx="330.172377611" cy="377.457551105" fill="rgb(0%,0%,100%)" r="0.7" /><circle cx="329.382151953" cy="380.351489486" fill="rgb(0%,0%,100%)" r="0.7" /><circle cx="328.537139332" cy="383.229304848" fill="rgb(0%,0%,100%)" r="0.7" /><circle cx="327.456095241" cy="386.026614172" fill="rgb(0%,0%,100%)" r="0.7" /><circle cx="326.2049357" cy="388.753022494" fill="rgb(0%,0%,100%)" r="0.7" /><circle cx="324.870311764" cy="391.439742097" fill="rgb(0%,0%,100%)" r="0.7" /><circle cx="323.483761896" cy="394.100047867" fill="rgb(0%,0%,100%)" r="0.7" /><circle cx="322.060860834" cy="396.741126736" fill="rgb(0%,0%,100%)" r="0.7" /><circle cx="320.610663395" cy="399.367315973" fill="rgb(0%,0%,100%)" r="0.7" /><circle cx="319.138949832" cy="401.98151647" fill="rgb(0%,0%,100%)" r="0.7" /><circle cx="317.64968497" cy="404.585751084" fill="rgb(0%,0%,100%)" r="0.7" /><circle cx="316.145706293" cy="407.181525332" fill="rgb(0%,0%,100%)" r="0.7" /><circle cx="314.629138012" cy="409.769966" fill="rgb(0%,0%,100%)" r="0.7" /><circle cx="313.101608798" cy="412.351951631" fill="rgb(0%,0%,100%)" r="0.7" /><circle cx="311.564393415" cy="414.928184117" fill="rgb(0%,0%,100%)" r="0.7" /><circle cx="310.018512145" cy="417.499223698" fill="rgb(0%,0%,100%)" r="0.7" /><circle cx="308.464784496" cy="420.065534828" fill="rgb(0%,0%,100%)" r="0.7" /><circle cx="306.903885039" cy="422.627486478" fill="rgb(0%,0%,100%)" r="0.7" /><circle cx="305.336361059" cy="425.185387403" fill="rgb(0%,0%,100%)" r="0.7" /><circle cx="303.762653239" cy="427.739495726" fill="rgb(0%,0%,100%)" r="0.7" /><circle cx="302.183126946" cy="430.289995628" fill="rgb(0%,0%,100%)" r="0.7" /><circle cx="300.5980377" cy="432.837065594" fill="rgb(0%,0%,100%)" r="0.7" /><circle cx="299.007596863" cy="435.380767226" fill="rgb(0%,0%,100%)" r="0.7" /><circle cx="297.411861658" cy="437.921187704" fill="rgb(0%,0%,100%)" r="0.7" /><circle cx="295.810803575" cy="440.45823379" fill="rgb(0%,0%,100%)" r="0.7" /><circle cx="294.204081409" cy="442.991701466" fill="rgb(0%,0%,100%)" r="0.7" /><circle cx="292.590373023" cy="445.52074377" fill="rgb(0%,0%,100%)" r="0.7" /><circle cx="290.860431743" cy="447.971419346" fill="rgb(0%,0%,100%)" r="0.7" /><circle cx="289.12280527" cy="450.416956964" fill="rgb(0%,0%,100%)" r="0.7" /><circle cx="287.385178796" cy="452.862494582" fill="rgb(0%,0%,100%)" r="0.7" /><circle cx="285.647552323" cy="455.308032199" fill="rgb(0%,0%,100%)" r="0.7" /><circle cx="283.90992585" cy="457.753569817" fill="rgb(0%,0%,100%)" r="0.7" /><circle cx="282.172299377" cy="460.199107435" fill="rgb(0%,0%,100%)" r="0.7" /><circle cx="280.434672903" cy="462.644645052" fill="rgb(0%,0%,100%)" r="0.7" /><circle cx="278.69704643" cy="465.09018267" fill="rgb(0%,0%,100%)" r="0.7" /><circle cx="276.959419957" cy="467.535720288" fill="rgb(0%,0%,100%)" r="0.7" /><circle cx="275.221793484" cy="469.981257906" fill="rgb(0%,0%,100%)" r="0.7" /><circle cx="273.48416701" cy="472.426795523" fill="rgb(0%,0%,100%)" r="0.7" /><circle cx="271.746540537" cy="474.872333141" fill="rgb(0%,0%,100%)" r="0.7" /><circle cx="270.008914064" cy="477.317870759" fill="rgb(0%,0%,100%)" r="0.7" /><circle cx="268.253681277" cy="479.750268107" fill="rgb(0%,0%,100%)" r="0.7" /><circle cx="266.343271085" cy="482.063033333" fill="rgb(0%,0%,100%)" r="0.7" /><circle cx="264.335887331" cy="484.292185723" fill="rgb(0%,0%,100%)" r="0.7" /><circle cx="262.240690095" cy="486.439049925" fill="rgb(0%,0%,100%)" r="0.7" /><circle cx="260.065878783" cy="488.505249257" fill="rgb(0%,0%,100%)" r="0.7" /><circle cx="257.818701515" cy="490.492532266" fill="rgb(0%,0%,100%)" r="0.7" /><circle cx="255.505510977" cy="492.402590303" fill="rgb(0%,0%,100%)" r="0.7" /><circle cx="253.131791177" cy="494.236909361" fill="rgb(0%,0%,100%)" r="0.7" /><circle cx="250.702206992" cy="495.996574155" fill="rgb(0%,0%,100%)" r="0.7" /><circle cx="248.220571299" cy="497.682049469" fill="rgb(0%,0%,100%)" r="0.7" /><circle cx="245.68978331" cy="499.292771058" fill="rgb(0%,0%,100%)" r="0.7" /><circle cx="243.111522066" cy="500.826359921" fill="rgb(0%,0%,100%)" r="0.7" /><circle cx="240.485390517" cy="502.276366194" fill="rgb(0%,0%,100%)" r="0.7" /><circle cx="237.803" cy="503.619" fill="rgb(0%,0%,100%)" r="0.7" /></svg>