<?xml version="1.0" encoding="utf-8" ?>
<svg baseProfile="full" height="100%" version="1.1" width="100%" xmlns="http://www.w3.org/2000/svg" xmlns:ev="http://www.w3.org/2001/xml-events" xmlns:xlink="http://www.w3.org/1999/xlink"><defs /><circle cx="242.651022329" cy="229.257206115" fill="rgb(100%,0%,0%)" r="0.7" /><circle cx="239.770956286" cy="229.778230197" fill="rgb(100%,0%,0%)" r="0.7" /><circle cx="237.719596316" cy="231.93159115" fill="rgb(100%,0%,0%)" r="0.7" /><circle cx="236.200053803" cy="234.505438623" fill="rgb(100%,0%,0%)" r="0.7" /><circle cx="235.044420662" cy="237.267053202" fill="rgb(100%,0%,0%)" r="0.7" /><circle cx="234.357733321" cy="240.185568857" fill="rgb(100%,0%,0%)" r="0.7" /><circle cx="233.949305352" cy="243.156941014" fill="rgb(100%,0%,0%)" r="0.7" /><circle cx="233.725685989" cy="246.148264183" fill="rgb(100%,0%,0%)" r="0.7" /><circle cx="233.635263557" cy="249.146724354" fill="rgb(100%,0%,0%)" r="0.7" /><circle cx="233.646607317" cy="252.146588334" fill="rgb(100%,0%,0%)" r="0.7" /><circle cx="233.739156007" cy="255.145087384" fill="rgb(100%,0%,0%)" r="0.7" /><circle cx="233.898745377" cy="258.140789235" fill="rgb(100%,0%,0%)" r="0.7" /><circle cx="234.115258063" cy="261.132928743" fill="rgb(100%,0%,0%)" r="0.7" /><circle cx="234.381308311" cy="264.121077408" fill="rgb(100%,0%,0%)" r="0.7" /><circle cx="234.691485628" cy="267.104979772" fill="rgb(100%,0%,0%)" r="0.7" /><circle cx="235.041941338" cy="270.084419877" fill="rgb(100%,0%,0%)" r="0.7" /><circle cx="235.430272562" cy="273.059163629" fill="rgb(100%,0%,0%)" r="0.7" /><circle cx="235.855861401" cy="276.028796714" fill="rgb(100%,0%,0%)" r="0.7" /><circle cx="236.32213253" cy="278.992326213" fill="rgb(100%,0%,0%)" r="0.7" /><circle cx="236.794788226" cy="281.954786427" fill="rgb(100%,0%,0%)" r="0.7" /><circle cx="237.242760265" cy="284.921151916" fill="rgb(100%,0%,0%)" r="0.7" /><circle cx="237.675248412" cy="287.889802882" fill="rgb(100%,0%,0%)" r="0.7" /><circle cx="238.092079086" cy="290.860704186" fill="rgb(100%,0%,0%)" r="0.7" /><circle cx="238.493065658" cy="293.833786799" fill="rgb(100%,0%,0%)" r="0.7" /><circle cx="238.878012368" cy="296.808977838" fill="rgb(100%,0%,0%)" r="0.7" /><circle cx="239.24671687" cy="299.786228264" fill="rgb(100%,0%,0%)" r="0.7" /><circle cx="239.598964887" cy="302.765481312" fill="rgb(100%,0%,0%)" r="0.7" /><circle cx="239.934525267" cy="305.746636379" fill="rgb(100%,0%,0%)" r="0.7" /><circle cx="240.253161594" cy="308.729661673" fill="rgb(100%,0%,0%)" r="0.7" /><circle cx="240.554618324" cy="311.714489239" fill="rgb(100%,0%,0%)" r="0.7" /><circle cx="240.838619179" cy="314.701005942" fill="rgb(100%,0%,0%)" r="0.7" /><circle cx="241.104876325" cy="317.68916908" fill="rgb(100%,0%,0%)" r="0.7" /><circle cx="241.353074969" cy="320.678871681" fill="rgb(100%,0%,0%)" r="0.7" /><circle cx="241.582881016" cy="323.670060117" fill="rgb(100%,0%,0%)" r="0.7" /><circle cx="241.793927992" cy="326.662617489" fill="rgb(100%,0%,0%)" r="0.7" /><circle cx="241.985821305" cy="329.656471497" fill="rgb(100%,0%,0%)" r="0.7" /><circle cx="242.15812692" cy="332.651509201" fill="rgb(100%,0%,0%)" r="0.7" /><circle cx="242.310369342" cy="335.647643521" fill="rgb(100%,0%,0%)" r="0.7" /><circle cx="242.442019916" cy="338.644747909" fill="rgb(100%,0%,0%)" r="0.7" /><circle cx="242.552488829" cy="341.642687589" fill="rgb(100%,0%,0%)" r="0.7" /><circle cx="242.641113719" cy="344.641389825" fill="rgb(100%,0%,0%)" r="0.7" /><circle cx="242.707136016" cy="347.640658339" fill="rgb(100%,0%,0%)" r="0.7" /><circle cx="242.749682924" cy="350.640333853" fill="rgb(100%,0%,0%)" r="0.7" /><circle cx="242.767731787" cy="353.640271848" fill="rgb(100%,0%,0%)" r="0.7" /><circle cx="242.760060325" cy="356.640252664" fill="rgb(100%,0%,0%)" r="0.7" /><circle cx="242.72517303" cy="359.640052974" fill="rgb(100%,0%,0%)" r="0.7" /><circle cx="242.661181712" cy="362.63934198" fill="rgb(100%,0%,0%)" r="0.7" /><circle cx="242.565592153" cy="365.637804781" fill="rgb(100%,0%,0%)" r="0.7" /><circle cx="242.434891658" cy="368.634953248" fill="rgb(100%,0%,0%)" r="0.7" /><circle cx="242.263573579" cy="371.630030524" fill="rgb(100%,0%,0%)" r="0.7" /><circle cx="242.040840252" cy="374.621691733" fill="rgb(100%,0%,0%)" r="0.7" /><circle cx="242.691195731" cy="375.277695018" fill="rgb(100%,0%,0%)" r="0.7" /><circle cx="244.550362232" cy="372.923231189" fill="rgb(100%,0%,0%)" r="0.7" /><circle cx="246.551021013" cy="372.104683272" fill="rgb(100%,0%,0%)" r="0.7" /><circle cx="248.809044601" cy="374.079861613" fill="rgb(100%,0%,0%)" r="0.7" /><circle cx="251.067068189" cy="376.055039954" fill="rgb(100%,0%,0%)" r="0.7" /><circle cx="251.945" cy="376.823" fill="rgb(100%,0%,0%)" r="0.7" /><circle cx="242.651022329" cy="229.257206115" fill="rgb(0%,0%,100%)" r="0.7" /><circle cx="244.615142216" cy="231.490148358" fill="rgb(0%,0%,100%)" r="0.7" /><circle cx="245.66067659" cy="234.289661706" fill="rgb(0%,0%,100%)" r="0.7" /><circle cx="245.945134596" cy="237.26995814" fill="rgb(0%,0%,100%)" r="0.7" /><circle cx="245.664836396" cy="240.253669896" fill="rgb(0%,0%,100%)" r="0.7" /><circle cx="244.981918073" cy="243.173181848" fill="rgb(0%,0%,100%)" r="0.7" /><circle cx="244.008472058" cy="246.009840753" fill="rgb(0%,0%,100%)" r="0.7" /><circle cx="242.819145751" cy="248.763396619" fill="rgb(0%,0%,100%)" r="0.7" /><circle cx="241.514793923" cy="251.462029035" fill="rgb(0%,0%,100%)" r="0.7" /><circle cx="240.991334568" cy="254.400458483" fill="rgb(0%,0%,100%)" r="0.7" /><circle cx="241.524489372" cy="257.336731449" fill="rgb(0%,0%,100%)" r="0.7" /><circle cx="242.751352566" cy="260.072477168" fill="rgb(0%,0%,100%)" r="0.7" /><circle cx="243.556878521" cy="262.944404851" fill="rgb(0%,0%,100%)" r="0.7" /><circle cx="243.11743618" cy="265.310726239" fill="rgb(0%,0%,100%)" r="0.7" /><circle cx="244.045499373" cy="268.072725655" fill="rgb(0%,0%,100%)" r="0.7" /><circle cx="243.111266641" cy="270.66245052" fill="rgb(0%,0%,100%)" r="0.7" /><circle cx="244.984071215" cy="272.977139517" fill="rgb(0%,0%,100%)" r="0.7" /><circle cx="243.486491429" cy="275.296245054" fill="rgb(0%,0%,100%)" r="0.7" /><circle cx="244.892699943" cy="277.911055271" fill="rgb(0%,0%,100%)" r="0.7" /><circle cx="244.437585291" cy="280.799364224" fill="rgb(0%,0%,100%)" r="0.7" /><circle cx="245.755883933" cy="283.401846879" fill="rgb(0%,0%,100%)" r="0.7" /><circle cx="245.05808872" cy="286.293816237" fill="rgb(0%,0%,100%)" r="0.7" /><circle cx="245.687195229" cy="289.102448068" fill="rgb(0%,0%,100%)" r="0.7" /><circle cx="245.862454201" cy="291.793353461" fill="rgb(0%,0%,100%)" r="0.7" /><circle cx="246.638561594" cy="294.374272301" fill="rgb(0%,0%,100%)" r="0.7" /><circle cx="246.108013437" cy="296.979688368" fill="rgb(0%,0%,100%)" r="0.7" /><circle cx="246.110263287" cy="299.608339566" fill="rgb(0%,0%,100%)" r="0.7" /><circle cx="246.620975891" cy="302.129229147" fill="rgb(0%,0%,100%)" r="0.7" /><circle cx="245.504526816" cy="304.818923485" fill="rgb(0%,0%,100%)" r="0.7" /><circle cx="247.062255413" cy="307.210017946" fill="rgb(0%,0%,100%)" r="0.7" /><circle cx="247.6072204" cy="310.115769389" fill="rgb(0%,0%,100%)" r="0.7" /><circle cx="246.214507437" cy="312.429889805" fill="rgb(0%,0%,100%)" r="0.7" /><circle cx="248.74269364" cy="313.872155339" fill="rgb(0%,0%,100%)" r="0.7" /><circle cx="248.372369634" cy="316.617083104" fill="rgb(0%,0%,100%)" r="0.7" /><circle cx="249.091495389" cy="319.436202028" fill="rgb(0%,0%,100%)" r="0.7" /><circle cx="250.734307979" cy="321.344772292" fill="rgb(0%,0%,100%)" r="0.7" /><circle cx="249.965063496" cy="324.16297693" fill="rgb(0%,0%,100%)" r="0.7" /><circle cx="251.491872986" cy="326.654674011" fill="rgb(0%,0%,100%)" r="0.7" /><circle cx="250.925525998" cy="329.411113933" fill="rgb(0%,0%,100%)" r="0.7" /><circle cx="251.133159257" cy="332.181512437" fill="rgb(0%,0%,100%)" r="0.7" /><circle cx="252.003281309" cy="334.697366662" fill="rgb(0%,0%,100%)" r="0.7" /><circle cx="250.86550305" cy="337.0816167" fill="rgb(0%,0%,100%)" r="0.7" /><circle cx="252.480647097" cy="339.49612818" fill="rgb(0%,0%,100%)" r="0.7" /><circle cx="251.392238821" cy="342.183463353" fill="rgb(0%,0%,100%)" r="0.7" /><circle cx="253.521536568" cy="343.809395393" fill="rgb(0%,0%,100%)" r="0.7" /><circle cx="253.44621579" cy="346.014529636" fill="rgb(0%,0%,100%)" r="0.7" /><circle cx="251.777261996" cy="348.397858476" fill="rgb(0%,0%,100%)" r="0.7" /><circle cx="251.900539758" cy="351.374517224" fill="rgb(0%,0%,100%)" r="0.7" /><circle cx="252.982387461" cy="354.157908374" fill="rgb(0%,0%,100%)" r="0.7" /><circle cx="253.577440653" cy="355.252154303" fill="rgb(0%,0%,100%)" r="0.7" /><circle cx="253.138653975" cy="358.047893252" fill="rgb(0%,0%,100%)" r="0.7" /><circle cx="252.336463155" cy="360.718615572" fill="rgb(0%,0%,100%)" r="0.7" /><circle cx="253.751907051" cy="363.186093392" fill="rgb(0%,0%,100%)" r="0.7" /><circle cx="252.828556625" cy="366.017656005" fill="rgb(0%,0%,100%)" r="0.7" /><circle cx="252.676964562" cy="368.756627115" fill="rgb(0%,0%,100%)" r="0.7" /><circle cx="253.024800928" cy="371.351869553" fill="rgb(0%,0%,100%)" r="0.7" /><circle cx="251.682492396" cy="373.995849936" fill="rgb(0%,0%,100%)" r="0.7" /><circle cx="251.945" cy="376.823" fill="rgb(0%,0%,100%)" r="0.7" /></svg>