<?xml version="1.0" encoding="utf-8" ?>
<svg baseProfile="full" height="100%" version="1.1" width="100%" xmlns="http://www.w3.org/2000/svg" xmlns:ev="http://www.w3.org/2001/xml-events" xmlns:xlink="http://www.w3.org/1999/xlink"><defs /><circle cx="318.118393532" cy="281.043200056" fill="rgb(100%,0%,0%)" r="0.7" /><circle cx="315.163188291" cy="281.456604263" fill="rgb(100%,0%,0%)" r="0.7" /><circle cx="312.472795157" cy="282.763526024" fill="rgb(100%,0%,0%)" r="0.7" /><circle cx="310.14064385" cy="284.643574467" fill="rgb(100%,0%,0%)" r="0.7" /><circle cx="308.133315896" cy="286.870097402" fill="rgb(100%,0%,0%)" r="0.7" /><circle cx="306.390874779" cy="289.310772737" fill="rgb(100%,0%,0%)" r="0.7" /><circle cx="304.860524053" cy="291.890304363" fill="rgb(100%,0%,0%)" r="0.7" /><circle cx="303.556070186" cy="294.590287983" fill="rgb(100%,0%,0%)" r="0.7" /><circle cx="302.30650936" cy="297.317726587" fill="rgb(100%,0%,0%)" r="0.7" /><circle cx="301.050815902" cy="300.042274128" fill="rgb(100%,0%,0%)" r="0.7" /><circle cx="299.789824876" cy="302.764370172" fill="rgb(100%,0%,0%)" r="0.7" /><circle cx="298.523902508" cy="305.484221529" fill="rgb(100%,0%,0%)" r="0.7" /><circle cx="297.253271421" cy="308.201857125" fill="rgb(100%,0%,0%)" r="0.7" /><circle cx="295.978033698" cy="310.917306409" fill="rgb(100%,0%,0%)" r="0.7" /><circle cx="294.698199745" cy="313.630632027" fill="rgb(100%,0%,0%)" r="0.7" /><circle cx="293.41379419" cy="316.34175241" fill="rgb(100%,0%,0%)" r="0.7" /><circle cx="292.124749998" cy="319.050692063" fill="rgb(100%,0%,0%)" r="0.7" /><circle cx="290.830995968" cy="321.757410774" fill="rgb(100%,0%,0%)" r="0.7" /><circle cx="289.532465121" cy="324.461795522" fill="rgb(100%,0%,0%)" r="0.7" /><circle cx="288.229008681" cy="327.163844071" fill="rgb(100%,0%,0%)" r="0.7" /><circle cx="286.920507936" cy="329.863433467" fill="rgb(100%,0%,0%)" r="0.7" /><circle cx="285.606785325" cy="332.560504282" fill="rgb(100%,0%,0%)" r="0.7" /><circle cx="284.287669414" cy="335.254924315" fill="rgb(100%,0%,0%)" r="0.7" /><circle cx="282.962940042" cy="337.946597714" fill="rgb(100%,0%,0%)" r="0.7" /><circle cx="281.632362256" cy="340.635390278" fill="rgb(100%,0%,0%)" r="0.7" /><circle cx="280.295678669" cy="343.321138894" fill="rgb(100%,0%,0%)" r="0.7" /><circle cx="278.952583532" cy="346.003695399" fill="rgb(100%,0%,0%)" r="0.7" /><circle cx="277.60274862" cy="348.682864281" fill="rgb(100%,0%,0%)" r="0.7" /><circle cx="276.245799222" cy="351.358438404" fill="rgb(100%,0%,0%)" r="0.7" /><circle cx="274.8813169" cy="354.030178195" fill="rgb(100%,0%,0%)" r="0.7" /><circle cx="273.508830035" cy="356.697811751" fill="rgb(100%,0%,0%)" r="0.7" /><circle cx="272.12780002" cy="359.361038795" fill="rgb(100%,0%,0%)" r="0.7" /><circle cx="270.737626887" cy="362.019491634" fill="rgb(100%,0%,0%)" r="0.7" /><circle cx="269.337603696" cy="364.672787351" fill="rgb(100%,0%,0%)" r="0.7" /><circle cx="267.926941347" cy="367.320435754" fill="rgb(100%,0%,0%)" r="0.7" /><circle cx="266.50471429" cy="369.961885763" fill="rgb(100%,0%,0%)" r="0.7" /><circle cx="265.069846874" cy="372.596477067" fill="rgb(100%,0%,0%)" r="0.7" /><circle cx="263.621048844" cy="375.223462126" fill="rgb(100%,0%,0%)" r="0.7" /><circle cx="262.15682337" cy="377.84186273" fill="rgb(100%,0%,0%)" r="0.7" /><circle cx="260.675337222" cy="380.450529528" fill="rgb(100%,0%,0%)" r="0.7" /><circle cx="259.174347012" cy="383.04802567" fill="rgb(100%,0%,0%)" r="0.7" /><circle cx="257.651063887" cy="385.632511097" fill="rgb(100%,0%,0%)" r="0.7" /><circle cx="256.101941808" cy="388.201584132" fill="rgb(100%,0%,0%)" r="0.7" /><circle cx="254.522341234" cy="390.75204106" fill="rgb(100%,0%,0%)" r="0.7" /><circle cx="252.906064473" cy="393.279340526" fill="rgb(100%,0%,0%)" r="0.7" /><circle cx="251.244329667" cy="395.77700544" fill="rgb(100%,0%,0%)" r="0.7" /><circle cx="249.524254466" cy="398.234813955" fill="rgb(100%,0%,0%)" r="0.7" /><circle cx="247.725355814" cy="400.635449082" fill="rgb(100%,0%,0%)" r="0.7" /><circle cx="245.811616506" cy="402.945173676" fill="rgb(100%,0%,0%)" r="0.7" /><circle cx="247.235432265" cy="402.665976999" fill="rgb(100%,0%,0%)" r="0.7" /><circle cx="249.970768401" cy="401.433931454" fill="rgb(100%,0%,0%)" r="0.7" /><circle cx="252.706104537" cy="400.201885909" fill="rgb(100%,0%,0%)" r="0.7" /><circle cx="255.441440672" cy="398.969840364" fill="rgb(100%,0%,0%)" r="0.7" /><circle cx="258.176776808" cy="397.737794819" fill="rgb(100%,0%,0%)" r="0.7" /><circle cx="260.617588097" cy="398.70166755" fill="rgb(100%,0%,0%)" r="0.7" /><circle cx="262.931597419" cy="400.610950363" fill="rgb(100%,0%,0%)" r="0.7" /><circle cx="265.245606741" cy="402.520233175" fill="rgb(100%,0%,0%)" r="0.7" /><circle cx="267.559616063" cy="404.429515988" fill="rgb(100%,0%,0%)" r="0.7" /><circle cx="269.873625385" cy="406.338798801" fill="rgb(100%,0%,0%)" r="0.7" /><circle cx="272.187634706" cy="408.248081613" fill="rgb(100%,0%,0%)" r="0.7" /><circle cx="274.501644028" cy="410.157364426" fill="rgb(100%,0%,0%)" r="0.7" /><circle cx="276.81565335" cy="412.066647239" fill="rgb(100%,0%,0%)" r="0.7" /><circle cx="277.759" cy="412.845" fill="rgb(100%,0%,0%)" r="0.7" /><circle cx="318.118393532" cy="281.043200056" fill="rgb(0%,0%,100%)" r="0.7" /><circle cx="321.021728176" cy="281.736364168" fill="rgb(0%,0%,100%)" r="0.7" /><circle cx="323.446347648" cy="283.44670976" fill="rgb(0%,0%,100%)" r="0.7" /><circle cx="324.986652149" cy="286.006787997" fill="rgb(0%,0%,100%)" r="0.7" /><circle cx="325.881405272" cy="288.866113017" fill="rgb(0%,0%,100%)" r="0.7" /><circle cx="326.359715513" cy="291.826054387" fill="rgb(0%,0%,100%)" r="0.7" /><circle cx="326.538646006" cy="294.819708276" fill="rgb(0%,0%,100%)" r="0.7" /><circle cx="326.399157593" cy="297.814009621" fill="rgb(0%,0%,100%)" r="0.7" /><circle cx="326.074272418" cy="300.796287058" fill="rgb(0%,0%,100%)" r="0.7" /><circle cx="325.673957546" cy="303.769376079" fill="rgb(0%,0%,100%)" r="0.7" /><circle cx="325.203255954" cy="306.732161208" fill="rgb(0%,0%,100%)" r="0.7" /><circle cx="324.666796757" cy="309.683742068" fill="rgb(0%,0%,100%)" r="0.7" /><circle cx="324.068808989" cy="312.623487044" fill="rgb(0%,0%,100%)" r="0.7" /><circle cx="323.413163891" cy="315.55091975" fill="rgb(0%,0%,100%)" r="0.7" /><circle cx="322.703401013" cy="318.465710348" fill="rgb(0%,0%,100%)" r="0.7" /><circle cx="321.942757512" cy="321.367644862" fill="rgb(0%,0%,100%)" r="0.7" /><circle cx="321.134197262" cy="324.256595048" fill="rgb(0%,0%,100%)" r="0.7" /><circle cx="320.280432263" cy="327.132513422" fill="rgb(0%,0%,100%)" r="0.7" /><circle cx="319.383947851" cy="329.995409004" fill="rgb(0%,0%,100%)" r="0.7" /><circle cx="318.447026135" cy="332.845327589" fill="rgb(0%,0%,100%)" r="0.7" /><circle cx="317.471760317" cy="335.682356371" fill="rgb(0%,0%,100%)" r="0.7" /><circle cx="316.460075294" cy="338.506604442" fill="rgb(0%,0%,100%)" r="0.7" /><circle cx="315.413740534" cy="341.31820313" fill="rgb(0%,0%,100%)" r="0.7" /><circle cx="314.334387211" cy="344.117291108" fill="rgb(0%,0%,100%)" r="0.7" /><circle cx="313.223515327" cy="346.904023422" fill="rgb(0%,0%,100%)" r="0.7" /><circle cx="312.082508485" cy="349.678557247" fill="rgb(0%,0%,100%)" r="0.7" /><circle cx="310.912644571" cy="352.44104687" fill="rgb(0%,0%,100%)" r="0.7" /><circle cx="309.715100329" cy="355.191650765" fill="rgb(0%,0%,100%)" r="0.7" /><circle cx="308.490961219" cy="357.930523629" fill="rgb(0%,0%,100%)" r="0.7" /><circle cx="307.24122974" cy="360.657810894" fill="rgb(0%,0%,100%)" r="0.7" /><circle cx="305.966825227" cy="363.373660068" fill="rgb(0%,0%,100%)" r="0.7" /><circle cx="304.668597409" cy="366.07820041" fill="rgb(0%,0%,100%)" r="0.7" /><circle cx="303.34732039" cy="368.771562986" fill="rgb(0%,0%,100%)" r="0.7" /><circle cx="302.003713432" cy="371.453843525" fill="rgb(0%,0%,100%)" r="0.7" /><circle cx="300.638409737" cy="374.125168613" fill="rgb(0%,0%,100%)" r="0.7" /><circle cx="299.252010577" cy="376.785590052" fill="rgb(0%,0%,100%)" r="0.7" /><circle cx="297.845030539" cy="379.435191915" fill="rgb(0%,0%,100%)" r="0.7" /><circle cx="296.417937003" cy="382.074010558" fill="rgb(0%,0%,100%)" r="0.7" /><circle cx="294.97112829" cy="384.702070161" fill="rgb(0%,0%,100%)" r="0.7" /><circle cx="293.504936093" cy="387.31936717" fill="rgb(0%,0%,100%)" r="0.7" /><circle cx="292.019618881" cy="389.925865977" fill="rgb(0%,0%,100%)" r="0.7" /><circle cx="290.515365018" cy="392.521469727" fill="rgb(0%,0%,100%)" r="0.7" /><circle cx="288.992254267" cy="395.106050986" fill="rgb(0%,0%,100%)" r="0.7" /><circle cx="287.450240634" cy="397.679423336" fill="rgb(0%,0%,100%)" r="0.7" /><circle cx="285.889153686" cy="400.241250267" fill="rgb(0%,0%,100%)" r="0.7" /><circle cx="284.308575922" cy="402.791096042" fill="rgb(0%,0%,100%)" r="0.7" /><circle cx="282.707749297" cy="405.328290057" fill="rgb(0%,0%,100%)" r="0.7" /><circle cx="281.08534367" cy="407.851685444" fill="rgb(0%,0%,100%)" r="0.7" /><circle cx="279.438575477" cy="410.359340644" fill="rgb(0%,0%,100%)" r="0.7" /><circle cx="277.759" cy="412.845" fill="rgb(0%,0%,100%)" r="0.7" /></svg>