<?xml version="1.0" encoding="utf-8" ?>
<svg baseProfile="full" height="100%" version="1.1" width="100%" xmlns="http://www.w3.org/2000/svg" xmlns:ev="http://www.w3.org/2001/xml-events" xmlns:xlink="http://www.w3.org/1999/xlink"><defs /><circle cx="315.687298615" cy="327.068270802" fill="rgb(100%,0%,0%)" r="0.7" /><circle cx="312.732014362" cy="327.563436165" fill="rgb(100%,0%,0%)" r="0.7" /><circle cx="309.868630268" cy="328.453101765" fill="rgb(100%,0%,0%)" r="0.7" /><circle cx="307.113521876" cy="329.637219626" fill="rgb(100%,0%,0%)" r="0.7" /><circle cx="304.482114661" cy="331.075799421" fill="rgb(100%,0%,0%)" r="0.7" /><circle cx="301.98724901" cy="332.740185889" fill="rgb(100%,0%,0%)" r="0.7" /><circle cx="299.638414678" cy="334.605166411" fill="rgb(100%,0%,0%)" r="0.7" /><circle cx="297.441499808" cy="336.647062067" fill="rgb(100%,0%,0%)" r="0.7" /><circle cx="295.398918706" cy="338.843450211" fill="rgb(100%,0%,0%)" r="0.7" /><circle cx="293.509989925" cy="341.173417858" fill="rgb(100%,0%,0%)" r="0.7" /><circle cx="291.828567697" cy="343.657107004" fill="rgb(100%,0%,0%)" r="0.7" /><circle cx="290.2232613" cy="346.191415218" fill="rgb(100%,0%,0%)" r="0.7" /><circle cx="288.667191811" cy="348.75624991" fill="rgb(100%,0%,0%)" r="0.7" /><circle cx="287.158494059" cy="351.349240478" fill="rgb(100%,0%,0%)" r="0.7" /><circle cx="285.698038965" cy="353.969700477" fill="rgb(100%,0%,0%)" r="0.7" /><circle cx="284.288201339" cy="356.617731391" fill="rgb(100%,0%,0%)" r="0.7" /><circle cx="282.932557671" cy="359.293906254" fill="rgb(100%,0%,0%)" r="0.7" /><circle cx="281.635867423" cy="361.999125587" fill="rgb(100%,0%,0%)" r="0.7" /><circle cx="280.404197033" cy="364.734546494" fill="rgb(100%,0%,0%)" r="0.7" /><circle cx="279.245173305" cy="367.501509128" fill="rgb(100%,0%,0%)" r="0.7" /><circle cx="278.16836122" cy="370.301463004" fill="rgb(100%,0%,0%)" r="0.7" /><circle cx="277.185814081" cy="373.135831879" fill="rgb(100%,0%,0%)" r="0.7" /><circle cx="276.312844519" cy="376.005789066" fill="rgb(100%,0%,0%)" r="0.7" /><circle cx="275.569107343" cy="378.911835015" fill="rgb(100%,0%,0%)" r="0.7" /><circle cx="276.108073855" cy="379.839599819" fill="rgb(100%,0%,0%)" r="0.7" /><circle cx="278.343775418" cy="377.83919023" fill="rgb(100%,0%,0%)" r="0.7" /><circle cx="280.539023632" cy="376.150107885" fill="rgb(100%,0%,0%)" r="0.7" /><circle cx="282.189255341" cy="378.655449241" fill="rgb(100%,0%,0%)" r="0.7" /><circle cx="283.83948705" cy="381.160790596" fill="rgb(100%,0%,0%)" r="0.7" /><circle cx="284.744" cy="382.534" fill="rgb(100%,0%,0%)" r="0.7" /><circle cx="315.687298615" cy="327.068270802" fill="rgb(0%,0%,100%)" r="0.7" /><circle cx="318.682446578" cy="327.078259979" fill="rgb(0%,0%,100%)" r="0.7" /><circle cx="321.600228866" cy="327.743173292" fill="rgb(0%,0%,100%)" r="0.7" /><circle cx="324.249849169" cy="329.130778035" fill="rgb(0%,0%,100%)" r="0.7" /><circle cx="326.437968928" cy="331.170357211" fill="rgb(0%,0%,100%)" r="0.7" /><circle cx="328.01942837" cy="333.70965905" fill="rgb(0%,0%,100%)" r="0.7" /><circle cx="328.824878816" cy="336.578997345" fill="rgb(0%,0%,100%)" r="0.7" /><circle cx="328.441600176" cy="339.535813943" fill="rgb(0%,0%,100%)" r="0.7" /><circle cx="327.119827093" cy="342.218640291" fill="rgb(0%,0%,100%)" r="0.7" /><circle cx="325.224946385" cy="344.538613039" fill="rgb(0%,0%,100%)" r="0.7" /><circle cx="323.005138846" cy="346.552450416" fill="rgb(0%,0%,100%)" r="0.7" /><circle cx="320.237974228" cy="347.591783132" fill="rgb(0%,0%,100%)" r="0.7" /><circle cx="317.282924569" cy="347.190031737" fill="rgb(0%,0%,100%)" r="0.7" /><circle cx="314.553569173" cy="345.959660936" fill="rgb(0%,0%,100%)" r="0.7" /><circle cx="311.769158167" cy="345.163936199" fill="rgb(0%,0%,100%)" r="0.7" /><circle cx="308.920076874" cy="346.073290563" fill="rgb(0%,0%,100%)" r="0.7" /><circle cx="306.264285085" cy="347.465304571" fill="rgb(0%,0%,100%)" r="0.7" /><circle cx="303.736566396" cy="349.079971425" fill="rgb(0%,0%,100%)" r="0.7" /><circle cx="301.302052719" cy="350.831149243" fill="rgb(0%,0%,100%)" r="0.7" /><circle cx="299.233442287" cy="352.997058896" fill="rgb(0%,0%,100%)" r="0.7" /><circle cx="297.474774316" cy="355.426219904" fill="rgb(0%,0%,100%)" r="0.7" /><circle cx="295.891839211" cy="357.974180816" fill="rgb(0%,0%,100%)" r="0.7" /><circle cx="294.425109571" cy="360.59098875" fill="rgb(0%,0%,100%)" r="0.7" /><circle cx="293.04286055" cy="363.253473894" fill="rgb(0%,0%,100%)" r="0.7" /><circle cx="291.726084125" cy="365.948980795" fill="rgb(0%,0%,100%)" r="0.7" /><circle cx="290.462520223" cy="368.669857855" fill="rgb(0%,0%,100%)" r="0.7" /><circle cx="289.243924563" cy="371.41117952" fill="rgb(0%,0%,100%)" r="0.7" /><circle cx="288.064726016" cy="374.169690043" fill="rgb(0%,0%,100%)" r="0.7" /><circle cx="286.921456474" cy="376.943281672" fill="rgb(0%,0%,100%)" r="0.7" /><circle cx="285.812915054" cy="379.730946406" fill="rgb(0%,0%,100%)" r="0.7" /><circle cx="284.744" cy="382.534" fill="rgb(0%,0%,100%)" r="0.7" /></svg>