<?xml version="1.0" encoding="utf-8" ?>
<svg baseProfile="full" height="100%" version="1.1" width="100%" xmlns="http://www.w3.org/2000/svg" xmlns:ev="http://www.w3.org/2001/xml-events" xmlns:xlink="http://www.w3.org/1999/xlink"><defs /><circle cx="351.710792736" cy="238.452379187" fill="rgb(100%,0%,0%)" r="0.7" /><circle cx="348.7274725" cy="238.729261377" fill="rgb(100%,0%,0%)" r="0.7" /><circle cx="345.83037722" cy="239.496328641" fill="rgb(100%,0%,0%)" r="0.7" /><circle cx="343.07647249" cy="240.680322491" fill="rgb(100%,0%,0%)" r="0.7" /><circle cx="340.49527778" cy="242.205767527" fill="rgb(100%,0%,0%)" r="0.7" /><circle cx="338.095179209" cy="244.003529291" fill="rgb(100%,0%,0%)" r="0.7" /><circle cx="335.871279502" cy="246.015707612" fill="rgb(100%,0%,0%)" r="0.7" /><circle cx="333.81192139" cy="248.196320789" fill="rgb(100%,0%,0%)" r="0.7" /><circle cx="331.902843559" cy="250.509879579" fill="rgb(100%,0%,0%)" r="0.7" /><circle cx="330.121737103" cy="252.923654749" fill="rgb(100%,0%,0%)" r="0.7" /><circle cx="328.422380323" cy="255.395818931" fill="rgb(100%,0%,0%)" r="0.7" /><circle cx="326.793804745" cy="257.91517113" fill="rgb(100%,0%,0%)" r="0.7" /><circle cx="325.238226927" cy="260.480229522" fill="rgb(100%,0%,0%)" r="0.7" /><circle cx="323.762231812" cy="263.091870096" fill="rgb(100%,0%,0%)" r="0.7" /><circle cx="322.376008808" cy="265.75221148" fill="rgb(100%,0%,0%)" r="0.7" /><circle cx="321.093840386" cy="268.464176584" fill="rgb(100%,0%,0%)" r="0.7" /><circle cx="319.935337422" cy="271.231138154" fill="rgb(100%,0%,0%)" r="0.7" /><circle cx="318.927528215" cy="274.056328711" fill="rgb(100%,0%,0%)" r="0.7" /><circle cx="318.108136447" cy="276.9415597" fill="rgb(100%,0%,0%)" r="0.7" /><circle cx="317.530469793" cy="279.884308137" fill="rgb(100%,0%,0%)" r="0.7" /><circle cx="317.269846339" cy="282.871109656" fill="rgb(100%,0%,0%)" r="0.7" /><circle cx="317.459540958" cy="285.861865068" fill="rgb(100%,0%,0%)" r="0.7" /><circle cx="317.619400743" cy="288.857421218" fill="rgb(100%,0%,0%)" r="0.7" /><circle cx="317.673707865" cy="291.856801181" fill="rgb(100%,0%,0%)" r="0.7" /><circle cx="317.636347846" cy="294.856452391" fill="rgb(100%,0%,0%)" r="0.7" /><circle cx="317.51379506" cy="297.853852458" fill="rgb(100%,0%,0%)" r="0.7" /><circle cx="317.309639765" cy="300.846814496" fill="rgb(100%,0%,0%)" r="0.7" /><circle cx="317.026000963" cy="303.833296225" fill="rgb(100%,0%,0%)" r="0.7" /><circle cx="316.664142266" cy="306.811295036" fill="rgb(100%,0%,0%)" r="0.7" /><circle cx="316.224783224" cy="309.778863319" fill="rgb(100%,0%,0%)" r="0.7" /><circle cx="315.708298959" cy="312.73398394" fill="rgb(100%,0%,0%)" r="0.7" /><circle cx="315.114835338" cy="315.674611417" fill="rgb(100%,0%,0%)" r="0.7" /><circle cx="314.444395393" cy="318.598648016" fill="rgb(100%,0%,0%)" r="0.7" /><circle cx="313.696901779" cy="321.503941222" fill="rgb(100%,0%,0%)" r="0.7" /><circle cx="312.872246748" cy="324.388279903" fill="rgb(100%,0%,0%)" r="0.7" /><circle cx="311.97032958" cy="327.249405971" fill="rgb(100%,0%,0%)" r="0.7" /><circle cx="310.991101431" cy="330.084986246" fill="rgb(100%,0%,0%)" r="0.7" /><circle cx="309.934572463" cy="332.892686925" fill="rgb(100%,0%,0%)" r="0.7" /><circle cx="308.800857254" cy="335.670121737" fill="rgb(100%,0%,0%)" r="0.7" /><circle cx="307.590191784" cy="338.414883013" fill="rgb(100%,0%,0%)" r="0.7" /><circle cx="306.302949537" cy="341.124563095" fill="rgb(100%,0%,0%)" r="0.7" /><circle cx="304.939645955" cy="343.796790944" fill="rgb(100%,0%,0%)" r="0.7" /><circle cx="303.500967211" cy="346.429213416" fill="rgb(100%,0%,0%)" r="0.7" /><circle cx="301.987781708" cy="349.019513771" fill="rgb(100%,0%,0%)" r="0.7" /><circle cx="300.401126451" cy="351.565464944" fill="rgb(100%,0%,0%)" r="0.7" /><circle cx="298.742206603" cy="354.064946643" fill="rgb(100%,0%,0%)" r="0.7" /><circle cx="297.070340882" cy="356.555756924" fill="rgb(100%,0%,0%)" r="0.7" /><circle cx="295.390526468" cy="359.04133769" fill="rgb(100%,0%,0%)" r="0.7" /><circle cx="293.69129838" cy="361.513699801" fill="rgb(100%,0%,0%)" r="0.7" /><circle cx="291.974304138" cy="363.973762167" fill="rgb(100%,0%,0%)" r="0.7" /><circle cx="290.239928959" cy="366.421602809" fill="rgb(100%,0%,0%)" r="0.7" /><circle cx="288.487985997" cy="368.8568998" fill="rgb(100%,0%,0%)" r="0.7" /><circle cx="286.717919064" cy="371.279049984" fill="rgb(100%,0%,0%)" r="0.7" /><circle cx="284.928864938" cy="373.687211172" fill="rgb(100%,0%,0%)" r="0.7" /><circle cx="283.119677533" cy="376.080282981" fill="rgb(100%,0%,0%)" r="0.7" /><circle cx="281.288906508" cy="378.456881358" fill="rgb(100%,0%,0%)" r="0.7" /><circle cx="279.434756161" cy="380.815281454" fill="rgb(100%,0%,0%)" r="0.7" /><circle cx="277.555016519" cy="383.153333423" fill="rgb(100%,0%,0%)" r="0.7" /><circle cx="275.64696575" cy="385.468333095" fill="rgb(100%,0%,0%)" r="0.7" /><circle cx="273.707225366" cy="387.756835535" fill="rgb(100%,0%,0%)" r="0.7" /><circle cx="271.731547755" cy="390.014375232" fill="rgb(100%,0%,0%)" r="0.7" /><circle cx="269.714509537" cy="392.235019335" fill="rgb(100%,0%,0%)" r="0.7" /><circle cx="267.679152963" cy="394.438661899" fill="rgb(100%,0%,0%)" r="0.7" /><circle cx="265.66188703" cy="396.659186565" fill="rgb(100%,0%,0%)" r="0.7" /><circle cx="263.633767335" cy="398.869743085" fill="rgb(100%,0%,0%)" r="0.7" /><circle cx="261.596414105" cy="401.07186494" fill="rgb(100%,0%,0%)" r="0.7" /><circle cx="259.55054302" cy="403.266023487" fill="rgb(100%,0%,0%)" r="0.7" /><circle cx="257.496417972" cy="405.452456108" fill="rgb(100%,0%,0%)" r="0.7" /><circle cx="255.434116755" cy="407.631223198" fill="rgb(100%,0%,0%)" r="0.7" /><circle cx="253.363662871" cy="409.802203602" fill="rgb(100%,0%,0%)" r="0.7" /><circle cx="251.284924859" cy="411.96526312" fill="rgb(100%,0%,0%)" r="0.7" /><circle cx="249.197728389" cy="414.120166734" fill="rgb(100%,0%,0%)" r="0.7" /><circle cx="247.101837808" cy="416.266612589" fill="rgb(100%,0%,0%)" r="0.7" /><circle cx="244.996951899" cy="418.40424066" fill="rgb(100%,0%,0%)" r="0.7" /><circle cx="242.882712616" cy="420.532621368" fill="rgb(100%,0%,0%)" r="0.7" /><circle cx="240.758703747" cy="422.651249312" fill="rgb(100%,0%,0%)" r="0.7" /><circle cx="238.624441024" cy="424.759540586" fill="rgb(100%,0%,0%)" r="0.7" /><circle cx="236.479358048" cy="426.856828758" fill="rgb(100%,0%,0%)" r="0.7" /><circle cx="234.322818399" cy="428.942329465" fill="rgb(100%,0%,0%)" r="0.7" /><circle cx="232.15408077" cy="431.015144109" fill="rgb(100%,0%,0%)" r="0.7" /><circle cx="229.972298312" cy="433.074221293" fill="rgb(100%,0%,0%)" r="0.7" /><circle cx="227.776489126" cy="435.118334804" fill="rgb(100%,0%,0%)" r="0.7" /><circle cx="225.565521286" cy="437.146032818" fill="rgb(100%,0%,0%)" r="0.7" /><circle cx="223.338057579" cy="439.155603985" fill="rgb(100%,0%,0%)" r="0.7" /><circle cx="221.092543099" cy="441.144976012" fill="rgb(100%,0%,0%)" r="0.7" /><circle cx="218.827118164" cy="443.11164211" fill="rgb(100%,0%,0%)" r="0.7" /><circle cx="216.539557475" cy="445.05250501" fill="rgb(100%,0%,0%)" r="0.7" /><circle cx="214.227142587" cy="446.963691793" fill="rgb(100%,0%,0%)" r="0.7" /><circle cx="211.88655025" cy="448.840221275" fill="rgb(100%,0%,0%)" r="0.7" /><circle cx="209.513547008" cy="450.675613303" fill="rgb(100%,0%,0%)" r="0.7" /><circle cx="207.102778308" cy="452.46105928" fill="rgb(100%,0%,0%)" r="0.7" /><circle cx="204.647171355" cy="454.184254007" fill="rgb(100%,0%,0%)" r="0.7" /><circle cx="202.137189426" cy="455.827118284" fill="rgb(100%,0%,0%)" r="0.7" /><circle cx="202.62070652" cy="456.076683253" fill="rgb(100%,0%,0%)" r="0.7" /><circle cx="205.513071685" cy="455.280301589" fill="rgb(100%,0%,0%)" r="0.7" /><circle cx="208.40543685" cy="454.483919926" fill="rgb(100%,0%,0%)" r="0.7" /><circle cx="211.297802014" cy="453.687538263" fill="rgb(100%,0%,0%)" r="0.7" /><circle cx="214.190167179" cy="452.891156599" fill="rgb(100%,0%,0%)" r="0.7" /><circle cx="217.082532344" cy="452.094774936" fill="rgb(100%,0%,0%)" r="0.7" /><circle cx="219.974897509" cy="451.298393273" fill="rgb(100%,0%,0%)" r="0.7" /><circle cx="222.867262673" cy="450.502011609" fill="rgb(100%,0%,0%)" r="0.7" /><circle cx="225.304896367" cy="450.752443558" fill="rgb(100%,0%,0%)" r="0.7" /><circle cx="226.696910519" cy="453.409941742" fill="rgb(100%,0%,0%)" r="0.7" /><circle cx="228.088924671" cy="456.067439927" fill="rgb(100%,0%,0%)" r="0.7" /><circle cx="229.480938822" cy="458.724938112" fill="rgb(100%,0%,0%)" r="0.7" /><circle cx="230.872952974" cy="461.382436296" fill="rgb(100%,0%,0%)" r="0.7" /><circle cx="232.264967126" cy="464.039934481" fill="rgb(100%,0%,0%)" r="0.7" /><circle cx="232.496" cy="464.481" fill="rgb(100%,0%,0%)" r="0.7" /><circle cx="351.710792736" cy="238.452379187" fill="rgb(0%,0%,100%)" r="0.7" /><circle cx="354.692177484" cy="238.736502457" fill="rgb(0%,0%,100%)" r="0.7" /><circle cx="357.53053443" cy="239.685048299" fill="rgb(0%,0%,100%)" r="0.7" /><circle cx="359.930522507" cy="241.459388857" fill="rgb(0%,0%,100%)" r="0.7" /><circle cx="361.683821403" cy="243.883258933" fill="rgb(0%,0%,100%)" r="0.7" /><circle cx="362.882576259" cy="246.629247994" fill="rgb(0%,0%,100%)" r="0.7" /><circle cx="363.676854566" cy="249.520400581" fill="rgb(0%,0%,100%)" r="0.7" /><circle cx="364.179306878" cy="252.47712636" fill="rgb(0%,0%,100%)" r="0.7" /><circle cx="364.464178757" cy="255.463063226" fill="rgb(0%,0%,100%)" r="0.7" /><circle cx="364.580283708" cy="258.460503774" fill="rgb(0%,0%,100%)" r="0.7" /><circle cx="364.560508725" cy="261.460230698" fill="rgb(0%,0%,100%)" r="0.7" /><circle cx="364.427496013" cy="264.457127862" fill="rgb(0%,0%,100%)" r="0.7" /><circle cx="364.196864022" cy="267.448135111" fill="rgb(0%,0%,100%)" r="0.7" /><circle cx="363.878810747" cy="270.431132713" fill="rgb(0%,0%,100%)" r="0.7" /><circle cx="363.478054397" cy="273.404151979" fill="rgb(0%,0%,100%)" r="0.7" /><circle cx="362.987406217" cy="276.363607014" fill="rgb(0%,0%,100%)" r="0.7" /><circle cx="362.130416463" cy="279.236279688" fill="rgb(0%,0%,100%)" r="0.7" /><circle cx="361.078740037" cy="282.045688518" fill="rgb(0%,0%,100%)" r="0.7" /><circle cx="359.941281466" cy="284.821612181" fill="rgb(0%,0%,100%)" r="0.7" /><circle cx="358.751402382" cy="287.575509607" fill="rgb(0%,0%,100%)" r="0.7" /><circle cx="357.525185923" cy="290.313451825" fill="rgb(0%,0%,100%)" r="0.7" /><circle cx="356.271834575" cy="293.03908768" fill="rgb(0%,0%,100%)" r="0.7" /><circle cx="354.997183241" cy="295.754821634" fill="rgb(0%,0%,100%)" r="0.7" /><circle cx="353.705187578" cy="298.462362415" fill="rgb(0%,0%,100%)" r="0.7" /><circle cx="352.398693632" cy="301.162924101" fill="rgb(0%,0%,100%)" r="0.7" /><circle cx="351.079798716" cy="303.857460342" fill="rgb(0%,0%,100%)" r="0.7" /><circle cx="349.750118239" cy="306.546687259" fill="rgb(0%,0%,100%)" r="0.7" /><circle cx="348.41090987" cy="309.231183734" fill="rgb(0%,0%,100%)" r="0.7" /><circle cx="347.063176093" cy="311.911411095" fill="rgb(0%,0%,100%)" r="0.7" /><circle cx="345.707726552" cy="314.587739473" fill="rgb(0%,0%,100%)" r="0.7" /><circle cx="344.34521022" cy="317.260486319" fill="rgb(0%,0%,100%)" r="0.7" /><circle cx="342.976162446" cy="319.929893656" fill="rgb(0%,0%,100%)" r="0.7" /><circle cx="341.601017538" cy="322.596150263" fill="rgb(0%,0%,100%)" r="0.7" /><circle cx="340.220097958" cy="325.259439501" fill="rgb(0%,0%,100%)" r="0.7" /><circle cx="338.83365965" cy="327.919859586" fill="rgb(0%,0%,100%)" r="0.7" /><circle cx="337.441861178" cy="330.577466271" fill="rgb(0%,0%,100%)" r="0.7" /><circle cx="336.044726069" cy="333.232280661" fill="rgb(0%,0%,100%)" r="0.7" /><circle cx="334.642100994" cy="335.88418453" fill="rgb(0%,0%,100%)" r="0.7" /><circle cx="333.233334659" cy="338.53284478" fill="rgb(0%,0%,100%)" r="0.7" /><circle cx="331.833057311" cy="341.185907636" fill="rgb(0%,0%,100%)" r="0.7" /><circle cx="330.425382635" cy="343.8351238" fill="rgb(0%,0%,100%)" r="0.7" /><circle cx="328.987071284" cy="346.467835934" fill="rgb(0%,0%,100%)" r="0.7" /><circle cx="327.51954548" cy="349.084380798" fill="rgb(0%,0%,100%)" r="0.7" /><circle cx="326.024135851" cy="351.685084612" fill="rgb(0%,0%,100%)" r="0.7" /><circle cx="324.502076767" cy="354.270283012" fill="rgb(0%,0%,100%)" r="0.7" /><circle cx="322.954520265" cy="356.840306812" fill="rgb(0%,0%,100%)" r="0.7" /><circle cx="321.382551625" cy="359.395466122" fill="rgb(0%,0%,100%)" r="0.7" /><circle cx="319.787176242" cy="361.936080845" fill="rgb(0%,0%,100%)" r="0.7" /><circle cx="318.169341088" cy="364.462453399" fill="rgb(0%,0%,100%)" r="0.7" /><circle cx="316.529932335" cy="366.974880103" fill="rgb(0%,0%,100%)" r="0.7" /><circle cx="314.869780211" cy="369.473649985" fill="rgb(0%,0%,100%)" r="0.7" /><circle cx="313.18966498" cy="371.959041545" fill="rgb(0%,0%,100%)" r="0.7" /><circle cx="311.490319651" cy="374.431324144" fill="rgb(0%,0%,100%)" r="0.7" /><circle cx="309.772431077" cy="376.890761114" fill="rgb(0%,0%,100%)" r="0.7" /><circle cx="308.036650859" cy="379.33759852" fill="rgb(0%,0%,100%)" r="0.7" /><circle cx="306.283581949" cy="381.772088086" fill="rgb(0%,0%,100%)" r="0.7" /><circle cx="304.513805617" cy="384.194452983" fill="rgb(0%,0%,100%)" r="0.7" /><circle cx="302.727859092" cy="386.604922342" fill="rgb(0%,0%,100%)" r="0.7" /><circle cx="300.926250318" cy="389.003713594" fill="rgb(0%,0%,100%)" r="0.7" /><circle cx="299.10946525" cy="391.391025742" fill="rgb(0%,0%,100%)" r="0.7" /><circle cx="297.277956503" cy="393.767056965" fill="rgb(0%,0%,100%)" r="0.7" /><circle cx="295.432148132" cy="396.132000142" fill="rgb(0%,0%,100%)" r="0.7" /><circle cx="293.572442691" cy="398.486035686" fill="rgb(0%,0%,100%)" r="0.7" /><circle cx="291.699224926" cy="400.829328876" fill="rgb(0%,0%,100%)" r="0.7" /><circle cx="289.812849163" cy="403.16204724" fill="rgb(0%,0%,100%)" r="0.7" /><circle cx="287.913650853" cy="405.484347237" fill="rgb(0%,0%,100%)" r="0.7" /><circle cx="286.001957764" cy="407.796362067" fill="rgb(0%,0%,100%)" r="0.7" /><circle cx="284.078066962" cy="410.098230807" fill="rgb(0%,0%,100%)" r="0.7" /><circle cx="282.142252905" cy="412.390088897" fill="rgb(0%,0%,100%)" r="0.7" /><circle cx="280.194778829" cy="414.672055205" fill="rgb(0%,0%,100%)" r="0.7" /><circle cx="278.235898792" cy="416.944230457" fill="rgb(0%,0%,100%)" r="0.7" /><circle cx="276.265841672" cy="419.206716183" fill="rgb(0%,0%,100%)" r="0.7" /><circle cx="274.284823983" cy="421.459599683" fill="rgb(0%,0%,100%)" r="0.7" /><circle cx="272.293019987" cy="423.702987483" fill="rgb(0%,0%,100%)" r="0.7" /><circle cx="270.29063501" cy="425.936921989" fill="rgb(0%,0%,100%)" r="0.7" /><circle cx="268.277830608" cy="428.161465404" fill="rgb(0%,0%,100%)" r="0.7" /><circle cx="266.254758723" cy="430.376659774" fill="rgb(0%,0%,100%)" r="0.7" /><circle cx="264.22153455" cy="432.582554857" fill="rgb(0%,0%,100%)" r="0.7" /><circle cx="262.178275107" cy="434.779163484" fill="rgb(0%,0%,100%)" r="0.7" /><circle cx="260.125068409" cy="436.966492032" fill="rgb(0%,0%,100%)" r="0.7" /><circle cx="258.062009597" cy="439.144497729" fill="rgb(0%,0%,100%)" r="0.7" /><circle cx="255.989108264" cy="441.313180826" fill="rgb(0%,0%,100%)" r="0.7" /><circle cx="253.906440622" cy="443.472416948" fill="rgb(0%,0%,100%)" r="0.7" /><circle cx="251.813931324" cy="445.622174108" fill="rgb(0%,0%,100%)" r="0.7" /><circle cx="249.711559928" cy="447.762283114" fill="rgb(0%,0%,100%)" r="0.7" /><circle cx="247.59921956" cy="449.892562539" fill="rgb(0%,0%,100%)" r="0.7" /><circle cx="245.476775109" cy="452.012727075" fill="rgb(0%,0%,100%)" r="0.7" /><circle cx="243.34393496" cy="454.122465017" fill="rgb(0%,0%,100%)" r="0.7" /><circle cx="241.200324648" cy="456.221277743" fill="rgb(0%,0%,100%)" r="0.7" /><circle cx="239.04537185" cy="458.308434002" fill="rgb(0%,0%,100%)" r="0.7" /><circle cx="236.878121693" cy="460.382804547" fill="rgb(0%,0%,100%)" r="0.7" /><circle cx="234.696777305" cy="462.442344954" fill="rgb(0%,0%,100%)" r="0.7" /><circle cx="232.496" cy="464.481" fill="rgb(0%,0%,100%)" r="0.7" /></svg>