<?xml version="1.0" encoding="utf-8" ?>
<svg baseProfile="full" height="100%" version="1.1" width="100%" xmlns="http://www.w3.org/2000/svg" xmlns:ev="http://www.w3.org/2001/xml-events" xmlns:xlink="http://www.w3.org/1999/xlink"><defs /><circle cx="298.136683304" cy="334.20392257" fill="rgb(100%,0%,0%)" r="0.7" /><circle cx="295.429983396" cy="335.286335624" fill="rgb(100%,0%,0%)" r="0.7" /><circle cx="293.881662492" cy="337.828761591" fill="rgb(100%,0%,0%)" r="0.7" /><circle cx="293.125462756" cy="340.727223167" fill="rgb(100%,0%,0%)" r="0.7" /><circle cx="292.786498633" cy="343.706622312" fill="rgb(100%,0%,0%)" r="0.7" /><circle cx="292.699493562" cy="346.704790866" fill="rgb(100%,0%,0%)" r="0.7" /><circle cx="292.782781506" cy="349.703349065" fill="rgb(100%,0%,0%)" r="0.7" /><circle cx="293.274753473" cy="352.659287252" fill="rgb(100%,0%,0%)" r="0.7" /><circle cx="293.661898774" cy="355.633628226" fill="rgb(100%,0%,0%)" r="0.7" /><circle cx="293.748281405" cy="358.629492125" fill="rgb(100%,0%,0%)" r="0.7" /><circle cx="293.052577147" cy="361.489087915" fill="rgb(100%,0%,0%)" r="0.7" /><circle cx="293.000036942" cy="364.488260544" fill="rgb(100%,0%,0%)" r="0.7" /><circle cx="293.110928069" cy="367.485795269" fill="rgb(100%,0%,0%)" r="0.7" /><circle cx="293.419979999" cy="370.469088954" fill="rgb(100%,0%,0%)" r="0.7" /><circle cx="294.013736103" cy="373.407902327" fill="rgb(100%,0%,0%)" r="0.7" /><circle cx="294.484601062" cy="376.362950278" fill="rgb(100%,0%,0%)" r="0.7" /><circle cx="294.784694985" cy="379.347873212" fill="rgb(100%,0%,0%)" r="0.7" /><circle cx="295.040011856" cy="382.336969206" fill="rgb(100%,0%,0%)" r="0.7" /><circle cx="295.255919567" cy="385.329164358" fill="rgb(100%,0%,0%)" r="0.7" /><circle cx="295.434829508" cy="388.323812432" fill="rgb(100%,0%,0%)" r="0.7" /><circle cx="295.577919235" cy="391.320375824" fill="rgb(100%,0%,0%)" r="0.7" /><circle cx="295.685694773" cy="394.318434084" fill="rgb(100%,0%,0%)" r="0.7" /><circle cx="295.758227816" cy="397.317535546" fill="rgb(100%,0%,0%)" r="0.7" /><circle cx="295.795282851" cy="400.317283984" fill="rgb(100%,0%,0%)" r="0.7" /><circle cx="295.796382853" cy="403.317268512" fill="rgb(100%,0%,0%)" r="0.7" /><circle cx="295.76084972" cy="406.31704137" fill="rgb(100%,0%,0%)" r="0.7" /><circle cx="295.687828321" cy="409.316129338" fill="rgb(100%,0%,0%)" r="0.7" /><circle cx="295.576299323" cy="412.314036688" fill="rgb(100%,0%,0%)" r="0.7" /><circle cx="295.425087128" cy="415.310200563" fill="rgb(100%,0%,0%)" r="0.7" /><circle cx="295.232861227" cy="418.304013093" fill="rgb(100%,0%,0%)" r="0.7" /><circle cx="294.998135971" cy="421.294790336" fill="rgb(100%,0%,0%)" r="0.7" /><circle cx="294.719266208" cy="424.281772022" fill="rgb(100%,0%,0%)" r="0.7" /><circle cx="294.394441556" cy="427.264104201" fill="rgb(100%,0%,0%)" r="0.7" /><circle cx="294.021679005" cy="430.240821925" fill="rgb(100%,0%,0%)" r="0.7" /><circle cx="293.598813677" cy="433.210833497" fill="rgb(100%,0%,0%)" r="0.7" /><circle cx="293.123489011" cy="436.172897441" fill="rgb(100%,0%,0%)" r="0.7" /><circle cx="298.136683304" cy="334.20392257" fill="rgb(0%,0%,100%)" r="0.7" /><circle cx="300.393554864" cy="335.727277789" fill="rgb(0%,0%,100%)" r="0.7" /><circle cx="301.617052678" cy="338.465922262" fill="rgb(0%,0%,100%)" r="0.7" /><circle cx="302.648562385" cy="341.282222825" fill="rgb(0%,0%,100%)" r="0.7" /><circle cx="303.429633783" cy="344.177480723" fill="rgb(0%,0%,100%)" r="0.7" /><circle cx="303.872711724" cy="347.142339667" fill="rgb(0%,0%,100%)" r="0.7" /><circle cx="303.841062036" cy="350.137704761" fill="rgb(0%,0%,100%)" r="0.7" /><circle cx="303.100811262" cy="353.032776283" fill="rgb(0%,0%,100%)" r="0.7" /><circle cx="301.455550235" cy="355.376412587" fill="rgb(0%,0%,100%)" r="0.7" /><circle cx="301.151148867" cy="358.354400824" fill="rgb(0%,0%,100%)" r="0.7" /><circle cx="301.253032868" cy="361.351854349" fill="rgb(0%,0%,100%)" r="0.7" /><circle cx="301.540646965" cy="364.3377388" fill="rgb(0%,0%,100%)" r="0.7" /><circle cx="302.163109182" cy="367.25393465" fill="rgb(0%,0%,100%)" r="0.7" /><circle cx="302.929837055" cy="370.15223292" fill="rgb(0%,0%,100%)" r="0.7" /><circle cx="303.431450364" cy="373.10946796" fill="rgb(0%,0%,100%)" r="0.7" /><circle cx="303.782246682" cy="376.088690333" fill="rgb(0%,0%,100%)" r="0.7" /><circle cx="304.032957419" cy="379.078100633" fill="rgb(0%,0%,100%)" r="0.7" /><circle cx="304.211070568" cy="382.072753977" fill="rgb(0%,0%,100%)" r="0.7" /><circle cx="304.333376184" cy="385.070236239" fill="rgb(0%,0%,100%)" r="0.7" /><circle cx="304.41098217" cy="388.069204719" fill="rgb(0%,0%,100%)" r="0.7" /><circle cx="304.451670639" cy="391.06891608" fill="rgb(0%,0%,100%)" r="0.7" /><circle cx="304.461128227" cy="394.068890537" fill="rgb(0%,0%,100%)" r="0.7" /><circle cx="304.44364838" cy="397.06883415" fill="rgb(0%,0%,100%)" r="0.7" /><circle cx="304.402555254" cy="400.068547266" fill="rgb(0%,0%,100%)" r="0.7" /><circle cx="304.340473107" cy="403.067900457" fill="rgb(0%,0%,100%)" r="0.7" /><circle cx="304.259503885" cy="406.066806792" fill="rgb(0%,0%,100%)" r="0.7" /><circle cx="304.161347894" cy="409.065197311" fill="rgb(0%,0%,100%)" r="0.7" /><circle cx="304.047385864" cy="412.063032534" fill="rgb(0%,0%,100%)" r="0.7" /><circle cx="303.918736459" cy="415.060263622" fill="rgb(0%,0%,100%)" r="0.7" /><circle cx="303.776289896" cy="418.056889569" fill="rgb(0%,0%,100%)" r="0.7" /><circle cx="303.620731291" cy="421.052842174" fill="rgb(0%,0%,100%)" r="0.7" /><circle cx="303.452531478" cy="424.048127916" fill="rgb(0%,0%,100%)" r="0.7" /><circle cx="303.271919139" cy="427.042695646" fill="rgb(0%,0%,100%)" r="0.7" /><circle cx="303.078775209" cy="430.03646713" fill="rgb(0%,0%,100%)" r="0.7" /><circle cx="302.87230316" cy="433.029355963" fill="rgb(0%,0%,100%)" r="0.7" /><circle cx="302.649" cy="436.021" fill="rgb(0%,0%,100%)" r="0.7" /><circle cx="302.191217906" cy="435.545040305" fill="rgb(0%,0%,100%)" r="0.7" /><circle cx="300.111588361" cy="433.382832878" fill="rgb(0%,0%,100%)" r="0.7" /><circle cx="298.031958817" cy="431.220625451" fill="rgb(0%,0%,100%)" r="0.7" /><circle cx="296.196017284" cy="431.497197936" fill="rgb(0%,0%,100%)" r="0.7" /><circle cx="294.585337971" cy="434.028148776" fill="rgb(0%,0%,100%)" r="0.7" /><circle cx="293.123489011" cy="436.172897441" fill="rgb(0%,0%,100%)" r="0.7" /></svg>