<?xml version="1.0" encoding="utf-8" ?>
<svg baseProfile="full" height="100%" version="1.1" width="100%" xmlns="http://www.w3.org/2000/svg" xmlns:ev="http://www.w3.org/2001/xml-events" xmlns:xlink="http://www.w3.org/1999/xlink"><defs /><circle cx="348.205673371" cy="288.716696282" fill="rgb(100%,0%,0%)" r="0.7" /><circle cx="345.207672576" cy="288.756602371" fill="rgb(100%,0%,0%)" r="0.7" /><circle cx="342.232208355" cy="289.128718866" fill="rgb(100%,0%,0%)" r="0.7" /><circle cx="339.307016429" cy="289.789739554" fill="rgb(100%,0%,0%)" r="0.7" /><circle cx="336.44853032" cy="290.697661527" fill="rgb(100%,0%,0%)" r="0.7" /><circle cx="333.673647887" cy="291.830696181" fill="rgb(100%,0%,0%)" r="0.7" /><circle cx="331.217735594" cy="293.553400587" fill="rgb(100%,0%,0%)" r="0.7" /><circle cx="328.806889416" cy="295.338746661" fill="rgb(100%,0%,0%)" r="0.7" /><circle cx="326.434126146" cy="297.174418231" fill="rgb(100%,0%,0%)" r="0.7" /><circle cx="324.098724879" cy="299.057398658" fill="rgb(100%,0%,0%)" r="0.7" /><circle cx="321.80177959" cy="300.987094276" fill="rgb(100%,0%,0%)" r="0.7" /><circle cx="319.545459668" cy="302.964139142" fill="rgb(100%,0%,0%)" r="0.7" /><circle cx="317.332845242" cy="304.989963171" fill="rgb(100%,0%,0%)" r="0.7" /><circle cx="315.167901241" cy="307.066639082" fill="rgb(100%,0%,0%)" r="0.7" /><circle cx="313.055579168" cy="309.196800387" fill="rgb(100%,0%,0%)" r="0.7" /><circle cx="311.001984616" cy="311.3836116" fill="rgb(100%,0%,0%)" r="0.7" /><circle cx="309.014621821" cy="313.630755853" fill="rgb(100%,0%,0%)" r="0.7" /><circle cx="307.102732456" cy="315.942414841" fill="rgb(100%,0%,0%)" r="0.7" /><circle cx="305.277742545" cy="318.323225394" fill="rgb(100%,0%,0%)" r="0.7" /><circle cx="303.501056807" cy="320.74016826" fill="rgb(100%,0%,0%)" r="0.7" /><circle cx="301.696214766" cy="323.136548337" fill="rgb(100%,0%,0%)" r="0.7" /><circle cx="299.895367619" cy="325.535912158" fill="rgb(100%,0%,0%)" r="0.7" /><circle cx="298.098165916" cy="327.938026129" fill="rgb(100%,0%,0%)" r="0.7" /><circle cx="296.304626983" cy="330.342843317" fill="rgb(100%,0%,0%)" r="0.7" /><circle cx="294.51486103" cy="332.750494252" fill="rgb(100%,0%,0%)" r="0.7" /><circle cx="292.729126695" cy="335.161128767" fill="rgb(100%,0%,0%)" r="0.7" /><circle cx="290.947763643" cy="337.574995643" fill="rgb(100%,0%,0%)" r="0.7" /><circle cx="289.171229202" cy="339.992418401" fill="rgb(100%,0%,0%)" r="0.7" /><circle cx="287.400121529" cy="342.413819617" fill="rgb(100%,0%,0%)" r="0.7" /><circle cx="285.635225542" cy="344.83975294" fill="rgb(100%,0%,0%)" r="0.7" /><circle cx="283.877593441" cy="347.270947348" fill="rgb(100%,0%,0%)" r="0.7" /><circle cx="282.128653922" cy="349.708415498" fill="rgb(100%,0%,0%)" r="0.7" /><circle cx="280.390469436" cy="352.153553122" fill="rgb(100%,0%,0%)" r="0.7" /><circle cx="278.666127845" cy="354.608461725" fill="rgb(100%,0%,0%)" r="0.7" /><circle cx="276.960653701" cy="357.076520987" fill="rgb(100%,0%,0%)" r="0.7" /><circle cx="275.283313501" cy="359.563778379" fill="rgb(100%,0%,0%)" r="0.7" /><circle cx="273.655242173" cy="362.083474348" fill="rgb(100%,0%,0%)" r="0.7" /><circle cx="272.158195282" cy="364.681954305" fill="rgb(100%,0%,0%)" r="0.7" /><circle cx="273.535818292" cy="365.001080722" fill="rgb(100%,0%,0%)" r="0.7" /><circle cx="276.308934415" cy="363.856604" fill="rgb(100%,0%,0%)" r="0.7" /><circle cx="279.082050538" cy="362.712127277" fill="rgb(100%,0%,0%)" r="0.7" /><circle cx="281.855166661" cy="361.567650555" fill="rgb(100%,0%,0%)" r="0.7" /><circle cx="284.628282785" cy="360.423173833" fill="rgb(100%,0%,0%)" r="0.7" /><circle cx="287.401398908" cy="359.27869711" fill="rgb(100%,0%,0%)" r="0.7" /><circle cx="288.518892188" cy="361.070716497" fill="rgb(100%,0%,0%)" r="0.7" /><circle cx="288.974975976" cy="364.03584509" fill="rgb(100%,0%,0%)" r="0.7" /><circle cx="289.431059763" cy="367.000973684" fill="rgb(100%,0%,0%)" r="0.7" /><circle cx="289.887143551" cy="369.966102278" fill="rgb(100%,0%,0%)" r="0.7" /><circle cx="290.343227339" cy="372.931230872" fill="rgb(100%,0%,0%)" r="0.7" /><circle cx="290.799311126" cy="375.896359466" fill="rgb(100%,0%,0%)" r="0.7" /><circle cx="291.255394914" cy="378.86148806" fill="rgb(100%,0%,0%)" r="0.7" /><circle cx="291.711478702" cy="381.826616654" fill="rgb(100%,0%,0%)" r="0.7" /><circle cx="292.167562489" cy="384.791745248" fill="rgb(100%,0%,0%)" r="0.7" /><circle cx="292.623646277" cy="387.756873842" fill="rgb(100%,0%,0%)" r="0.7" /><circle cx="292.879" cy="389.417" fill="rgb(100%,0%,0%)" r="0.7" /><circle cx="348.205673371" cy="288.716696282" fill="rgb(0%,0%,100%)" r="0.7" /><circle cx="351.185180648" cy="289.048102374" fill="rgb(0%,0%,100%)" r="0.7" /><circle cx="354.092341919" cy="289.778617711" fill="rgb(0%,0%,100%)" r="0.7" /><circle cx="356.864075135" cy="290.91927762" fill="rgb(0%,0%,100%)" r="0.7" /><circle cx="359.430912888" cy="292.466185802" fill="rgb(0%,0%,100%)" r="0.7" /><circle cx="361.695350855" cy="294.426584037" fill="rgb(0%,0%,100%)" r="0.7" /><circle cx="362.675050655" cy="297.236630331" fill="rgb(0%,0%,100%)" r="0.7" /><circle cx="363.204808634" cy="300.187077295" fill="rgb(0%,0%,100%)" r="0.7" /><circle cx="363.278969746" cy="303.182611789" fill="rgb(0%,0%,100%)" r="0.7" /><circle cx="362.805147963" cy="306.139993843" fill="rgb(0%,0%,100%)" r="0.7" /><circle cx="361.728627081" cy="308.93381824" fill="rgb(0%,0%,100%)" r="0.7" /><circle cx="360.059418492" cy="311.418663767" fill="rgb(0%,0%,100%)" r="0.7" /><circle cx="357.745190313" cy="313.202813687" fill="rgb(0%,0%,100%)" r="0.7" /><circle cx="354.829779249" cy="313.900792038" fill="rgb(0%,0%,100%)" r="0.7" /><circle cx="352.038564293" cy="314.993402026" fill="rgb(0%,0%,100%)" r="0.7" /><circle cx="349.436561293" cy="316.481000685" fill="rgb(0%,0%,100%)" r="0.7" /><circle cx="347.087346523" cy="318.342139194" fill="rgb(0%,0%,100%)" r="0.7" /><circle cx="345.054995132" cy="320.5444462" fill="rgb(0%,0%,100%)" r="0.7" /><circle cx="343.210725167" cy="322.884394367" fill="rgb(0%,0%,100%)" r="0.7" /><circle cx="341.706080692" cy="325.443457568" fill="rgb(0%,0%,100%)" r="0.7" /><circle cx="341.205480813" cy="328.370614484" fill="rgb(0%,0%,100%)" r="0.7" /><circle cx="339.942564363" cy="331.086466021" fill="rgb(0%,0%,100%)" r="0.7" /><circle cx="338.165111317" cy="333.496954087" fill="rgb(0%,0%,100%)" r="0.7" /><circle cx="335.948571086" cy="335.511589374" fill="rgb(0%,0%,100%)" r="0.7" /><circle cx="333.384090178" cy="337.058468808" fill="rgb(0%,0%,100%)" r="0.7" /><circle cx="330.464550917" cy="337.641751361" fill="rgb(0%,0%,100%)" r="0.7" /><circle cx="327.663227777" cy="338.691325281" fill="rgb(0%,0%,100%)" r="0.7" /><circle cx="325.222709896" cy="340.422104691" fill="rgb(0%,0%,100%)" r="0.7" /><circle cx="323.224405663" cy="342.648191544" fill="rgb(0%,0%,100%)" r="0.7" /><circle cx="321.818614255" cy="345.274651719" fill="rgb(0%,0%,100%)" r="0.7" /><circle cx="321.128256911" cy="348.19084547" fill="rgb(0%,0%,100%)" r="0.7" /><circle cx="320.799836439" cy="351.171645809" fill="rgb(0%,0%,100%)" r="0.7" /><circle cx="319.687648156" cy="353.7208895" fill="rgb(0%,0%,100%)" r="0.7" /><circle cx="317.719370808" cy="355.984668754" fill="rgb(0%,0%,100%)" r="0.7" /><circle cx="315.804056867" cy="358.293660269" fill="rgb(0%,0%,100%)" r="0.7" /><circle cx="313.912025427" cy="360.621790027" fill="rgb(0%,0%,100%)" r="0.7" /><circle cx="312.034600786" cy="362.96171661" fill="rgb(0%,0%,100%)" r="0.7" /><circle cx="310.168267389" cy="365.310504476" fill="rgb(0%,0%,100%)" r="0.7" /><circle cx="308.308696491" cy="367.664587036" fill="rgb(0%,0%,100%)" r="0.7" /><circle cx="306.5302125" cy="370.080347401" fill="rgb(0%,0%,100%)" r="0.7" /><circle cx="304.820526378" cy="372.545432664" fill="rgb(0%,0%,100%)" r="0.7" /><circle cx="303.119294211" cy="375.011243897" fill="rgb(0%,0%,100%)" r="0.7" /><circle cx="301.103567577" cy="377.232298049" fill="rgb(0%,0%,100%)" r="0.7" /><circle cx="299.210311691" cy="379.559166023" fill="rgb(0%,0%,100%)" r="0.7" /><circle cx="297.398319416" cy="381.949991811" fill="rgb(0%,0%,100%)" r="0.7" /><circle cx="295.650166876" cy="384.387925902" fill="rgb(0%,0%,100%)" r="0.7" /><circle cx="293.754108774" cy="386.690117011" fill="rgb(0%,0%,100%)" r="0.7" /><circle cx="292.879" cy="389.417" fill="rgb(0%,0%,100%)" r="0.7" /></svg>