<?xml version="1.0" encoding="utf-8" ?>
<svg baseProfile="full" height="100%" version="1.1" width="100%" xmlns="http://www.w3.org/2000/svg" xmlns:ev="http://www.w3.org/2001/xml-events" xmlns:xlink="http://www.w3.org/1999/xlink"><defs /><circle cx="304.6174125" cy="298.492940617" fill="rgb(100%,0%,0%)" r="0.7" /><circle cx="301.852041617" cy="299.564602311" fill="rgb(100%,0%,0%)" r="0.7" /><circle cx="299.596469492" cy="301.533195328" fill="rgb(100%,0%,0%)" r="0.7" /><circle cx="297.714638216" cy="303.866110325" fill="rgb(100%,0%,0%)" r="0.7" /><circle cx="296.935185664" cy="306.752761" fill="rgb(100%,0%,0%)" r="0.7" /><circle cx="296.550886288" cy="309.72608771" fill="rgb(100%,0%,0%)" r="0.7" /><circle cx="296.590736526" cy="312.722505912" fill="rgb(100%,0%,0%)" r="0.7" /><circle cx="297.208674069" cy="315.651379708" fill="rgb(100%,0%,0%)" r="0.7" /><circle cx="298.59150769" cy="318.299647595" fill="rgb(100%,0%,0%)" r="0.7" /><circle cx="300.500248081" cy="320.60798642" fill="rgb(100%,0%,0%)" r="0.7" /><circle cx="302.108522335" cy="323.139081083" fill="rgb(100%,0%,0%)" r="0.7" /><circle cx="303.479249206" cy="325.806525962" fill="rgb(100%,0%,0%)" r="0.7" /><circle cx="304.60758513" cy="328.585153742" fill="rgb(100%,0%,0%)" r="0.7" /><circle cx="305.476286499" cy="331.455474454" fill="rgb(100%,0%,0%)" r="0.7" /><circle cx="306.06494474" cy="334.395914838" fill="rgb(100%,0%,0%)" r="0.7" /><circle cx="306.354862278" cy="337.380554107" fill="rgb(100%,0%,0%)" r="0.7" /><circle cx="306.333221615" cy="340.37909362" fill="rgb(100%,0%,0%)" r="0.7" /><circle cx="305.996442314" cy="343.358737351" fill="rgb(100%,0%,0%)" r="0.7" /><circle cx="305.351841424" cy="346.287316758" fill="rgb(100%,0%,0%)" r="0.7" /><circle cx="304.417027795" cy="349.136692042" fill="rgb(100%,0%,0%)" r="0.7" /><circle cx="303.217324953" cy="351.885231787" fill="rgb(100%,0%,0%)" r="0.7" /><circle cx="301.782262381" cy="354.518751869" fill="rgb(100%,0%,0%)" r="0.7" /><circle cx="300.142309718" cy="357.02996843" fill="rgb(100%,0%,0%)" r="0.7" /><circle cx="298.403194917" cy="359.473517412" fill="rgb(100%,0%,0%)" r="0.7" /><circle cx="296.519551493" cy="361.807851338" fill="rgb(100%,0%,0%)" r="0.7" /><circle cx="294.524913618" cy="364.048443638" fill="rgb(100%,0%,0%)" r="0.7" /><circle cx="292.454806541" cy="366.219616266" fill="rgb(100%,0%,0%)" r="0.7" /><circle cx="290.326804063" cy="368.334142498" fill="rgb(100%,0%,0%)" r="0.7" /><circle cx="288.151771965" cy="370.400275727" fill="rgb(100%,0%,0%)" r="0.7" /><circle cx="285.93716802" cy="372.423938141" fill="rgb(100%,0%,0%)" r="0.7" /><circle cx="283.688443181" cy="374.409655542" fill="rgb(100%,0%,0%)" r="0.7" /><circle cx="281.409815526" cy="376.360983767" fill="rgb(100%,0%,0%)" r="0.7" /><circle cx="279.10460352" cy="378.280849681" fill="rgb(100%,0%,0%)" r="0.7" /><circle cx="276.775523766" cy="380.171681278" fill="rgb(100%,0%,0%)" r="0.7" /><circle cx="274.42480388" cy="382.035562751" fill="rgb(100%,0%,0%)" r="0.7" /><circle cx="272.054342532" cy="383.874273247" fill="rgb(100%,0%,0%)" r="0.7" /><circle cx="269.665762203" cy="385.689364814" fill="rgb(100%,0%,0%)" r="0.7" /><circle cx="267.260436998" cy="387.482225724" fill="rgb(100%,0%,0%)" r="0.7" /><circle cx="267.537622472" cy="387.817557291" fill="rgb(100%,0%,0%)" r="0.7" /><circle cx="270.357037928" cy="386.792424869" fill="rgb(100%,0%,0%)" r="0.7" /><circle cx="273.176453385" cy="385.767292447" fill="rgb(100%,0%,0%)" r="0.7" /><circle cx="275.995868842" cy="384.742160025" fill="rgb(100%,0%,0%)" r="0.7" /><circle cx="277.652357851" cy="385.18141358" fill="rgb(100%,0%,0%)" r="0.7" /><circle cx="277.292462999" cy="388.159747962" fill="rgb(100%,0%,0%)" r="0.7" /><circle cx="276.932568148" cy="391.138082345" fill="rgb(100%,0%,0%)" r="0.7" /><circle cx="276.572673296" cy="394.116416728" fill="rgb(100%,0%,0%)" r="0.7" /><circle cx="276.376" cy="395.744" fill="rgb(100%,0%,0%)" r="0.7" /><circle cx="304.6174125" cy="298.492940617" fill="rgb(0%,0%,100%)" r="0.7" /><circle cx="307.353129043" cy="299.504222098" fill="rgb(0%,0%,100%)" r="0.7" /><circle cx="309.20120655" cy="301.835020494" fill="rgb(0%,0%,100%)" r="0.7" /><circle cx="309.01958346" cy="304.709111267" fill="rgb(0%,0%,100%)" r="0.7" /><circle cx="307.550721464" cy="307.291667382" fill="rgb(0%,0%,100%)" r="0.7" /><circle cx="307.535242211" cy="310.241371396" fill="rgb(0%,0%,100%)" r="0.7" /><circle cx="309.327548083" cy="312.585280067" fill="rgb(0%,0%,100%)" r="0.7" /><circle cx="311.047730971" cy="315.039680097" fill="rgb(0%,0%,100%)" r="0.7" /><circle cx="312.568177783" cy="317.624939124" fill="rgb(0%,0%,100%)" r="0.7" /><circle cx="313.872900469" cy="320.325376098" fill="rgb(0%,0%,100%)" r="0.7" /><circle cx="314.94159946" cy="323.12755045" fill="rgb(0%,0%,100%)" r="0.7" /><circle cx="315.758933059" cy="326.013031951" fill="rgb(0%,0%,100%)" r="0.7" /><circle cx="316.316454074" cy="328.959762184" fill="rgb(0%,0%,100%)" r="0.7" /><circle cx="316.613548673" cy="331.94407674" fill="rgb(0%,0%,100%)" r="0.7" /><circle cx="316.657135236" cy="334.942905359" fill="rgb(0%,0%,100%)" r="0.7" /><circle cx="316.46028955" cy="337.935684385" fill="rgb(0%,0%,100%)" r="0.7" /><circle cx="316.04026861" cy="340.905481956" fill="rgb(0%,0%,100%)" r="0.7" /><circle cx="315.416494943" cy="343.839361948" fill="rgb(0%,0%,100%)" r="0.7" /><circle cx="314.608885163" cy="346.728138893" fill="rgb(0%,0%,100%)" r="0.7" /><circle cx="313.636661706" cy="349.565840712" fill="rgb(0%,0%,100%)" r="0.7" /><circle cx="312.517653609" cy="352.349000748" fill="rgb(0%,0%,100%)" r="0.7" /><circle cx="311.267952053" cy="355.076034739" fill="rgb(0%,0%,100%)" r="0.7" /><circle cx="309.901821034" cy="357.746692896" fill="rgb(0%,0%,100%)" r="0.7" /><circle cx="308.431760036" cy="360.361624893" fill="rgb(0%,0%,100%)" r="0.7" /><circle cx="306.868644839" cy="362.922053216" fill="rgb(0%,0%,100%)" r="0.7" /><circle cx="305.221898401" cy="365.429537575" fill="rgb(0%,0%,100%)" r="0.7" /><circle cx="303.499664391" cy="367.885808821" fill="rgb(0%,0%,100%)" r="0.7" /><circle cx="301.708971129" cy="370.292650548" fill="rgb(0%,0%,100%)" r="0.7" /><circle cx="299.855884962" cy="372.651807085" fill="rgb(0%,0%,100%)" r="0.7" /><circle cx="297.945633243" cy="374.9649296" fill="rgb(0%,0%,100%)" r="0.7" /><circle cx="295.982713467" cy="377.233527333" fill="rgb(0%,0%,100%)" r="0.7" /><circle cx="293.970962001" cy="379.458948257" fill="rgb(0%,0%,100%)" r="0.7" /><circle cx="291.913633096" cy="381.642322802" fill="rgb(0%,0%,100%)" r="0.7" /><circle cx="289.813440905" cy="383.78451745" fill="rgb(0%,0%,100%)" r="0.7" /><circle cx="287.672582739" cy="385.886057739" fill="rgb(0%,0%,100%)" r="0.7" /><circle cx="285.492665674" cy="387.947058374" fill="rgb(0%,0%,100%)" r="0.7" /><circle cx="283.274637687" cy="389.966970062" fill="rgb(0%,0%,100%)" r="0.7" /><circle cx="281.018440648" cy="391.944161044" fill="rgb(0%,0%,100%)" r="0.7" /><circle cx="278.722109988" cy="393.87459077" fill="rgb(0%,0%,100%)" r="0.7" /><circle cx="276.376" cy="395.744" fill="rgb(0%,0%,100%)" r="0.7" /></svg>