<?xml version="1.0" encoding="utf-8" ?>
<svg baseProfile="full" height="100%" version="1.1" width="100%" xmlns="http://www.w3.org/2000/svg" xmlns:ev="http://www.w3.org/2001/xml-events" xmlns:xlink="http://www.w3.org/1999/xlink"><defs /><circle cx="289.137026763" cy="341.926926278" fill="rgb(100%,0%,0%)" r="0.7" /><circle cx="286.147202006" cy="342.161727022" fill="rgb(100%,0%,0%)" r="0.7" /><circle cx="283.19597347" cy="342.690660814" fill="rgb(100%,0%,0%)" r="0.7" /><circle cx="280.375308756" cy="343.692818769" fill="rgb(100%,0%,0%)" r="0.7" /><circle cx="278.240672815" cy="345.710590986" fill="rgb(100%,0%,0%)" r="0.7" /><circle cx="277.398058925" cy="348.582461475" fill="rgb(100%,0%,0%)" r="0.7" /><circle cx="277.301841303" cy="351.571061698" fill="rgb(100%,0%,0%)" r="0.7" /><circle cx="278.044698412" cy="354.471218822" fill="rgb(100%,0%,0%)" r="0.7" /><circle cx="278.833673022" cy="357.365473861" fill="rgb(100%,0%,0%)" r="0.7" /><circle cx="279.5538648" cy="360.277697545" fill="rgb(100%,0%,0%)" r="0.7" /><circle cx="280.231036255" cy="363.200260604" fill="rgb(100%,0%,0%)" r="0.7" /><circle cx="280.876167356" cy="366.130058125" fill="rgb(100%,0%,0%)" r="0.7" /><circle cx="281.495618773" cy="369.065392083" fill="rgb(100%,0%,0%)" r="0.7" /><circle cx="282.093596813" cy="372.005185081" fill="rgb(100%,0%,0%)" r="0.7" /><circle cx="282.673107349" cy="374.948685419" fill="rgb(100%,0%,0%)" r="0.7" /><circle cx="283.236408702" cy="377.895312631" fill="rgb(100%,0%,0%)" r="0.7" /><circle cx="283.785278979" cy="380.84468671" fill="rgb(100%,0%,0%)" r="0.7" /><circle cx="284.321133043" cy="383.796426199" fill="rgb(100%,0%,0%)" r="0.7" /><circle cx="284.845150309" cy="386.750306897" fill="rgb(100%,0%,0%)" r="0.7" /><circle cx="285.358308014" cy="389.706086991" fill="rgb(100%,0%,0%)" r="0.7" /><circle cx="285.861442145" cy="392.663593547" fill="rgb(100%,0%,0%)" r="0.7" /><circle cx="286.355270111" cy="395.62266783" fill="rgb(100%,0%,0%)" r="0.7" /><circle cx="286.840418124" cy="398.583186396" fill="rgb(100%,0%,0%)" r="0.7" /><circle cx="287.317432797" cy="401.545023117" fill="rgb(100%,0%,0%)" r="0.7" /><circle cx="287.786797686" cy="404.5080656" fill="rgb(100%,0%,0%)" r="0.7" /><circle cx="288.224855193" cy="407.475732007" fill="rgb(100%,0%,0%)" r="0.7" /><circle cx="288.607770554" cy="410.451182216" fill="rgb(100%,0%,0%)" r="0.7" /><circle cx="288.982643677" cy="413.427662824" fill="rgb(100%,0%,0%)" r="0.7" /><circle cx="289.351871857" cy="416.404863527" fill="rgb(100%,0%,0%)" r="0.7" /><circle cx="289.716564625" cy="419.382606686" fill="rgb(100%,0%,0%)" r="0.7" /><circle cx="290.077407875" cy="422.360830469" fill="rgb(100%,0%,0%)" r="0.7" /><circle cx="290.434872047" cy="425.339454854" fill="rgb(100%,0%,0%)" r="0.7" /><circle cx="290.789310509" cy="428.318448876" fill="rgb(100%,0%,0%)" r="0.7" /><circle cx="291.140995348" cy="431.297758766" fill="rgb(100%,0%,0%)" r="0.7" /><circle cx="291.49014894" cy="434.277364841" fill="rgb(100%,0%,0%)" r="0.7" /><circle cx="291.836956199" cy="437.257258119" fill="rgb(100%,0%,0%)" r="0.7" /><circle cx="292.18156898" cy="440.237393971" fill="rgb(100%,0%,0%)" r="0.7" /><circle cx="292.524123599" cy="443.217785801" fill="rgb(100%,0%,0%)" r="0.7" /><circle cx="292.86473018" cy="446.198372043" fill="rgb(100%,0%,0%)" r="0.7" /><circle cx="293.203497077" cy="449.179199273" fill="rgb(100%,0%,0%)" r="0.7" /><circle cx="293.540507607" cy="452.160196" fill="rgb(100%,0%,0%)" r="0.7" /><circle cx="293.875847987" cy="455.141401092" fill="rgb(100%,0%,0%)" r="0.7" /><circle cx="294.209586962" cy="458.122770386" fill="rgb(100%,0%,0%)" r="0.7" /><circle cx="294.541793186" cy="461.104320151" fill="rgb(100%,0%,0%)" r="0.7" /><circle cx="294.872526128" cy="464.086037458" fill="rgb(100%,0%,0%)" r="0.7" /><circle cx="295.201839757" cy="467.067905785" fill="rgb(100%,0%,0%)" r="0.7" /><circle cx="295.529785492" cy="470.049925819" fill="rgb(100%,0%,0%)" r="0.7" /><circle cx="295.856411755" cy="473.032106826" fill="rgb(100%,0%,0%)" r="0.7" /><circle cx="296.181758623" cy="476.014413416" fill="rgb(100%,0%,0%)" r="0.7" /><circle cx="296.755004931" cy="477.069221612" fill="rgb(100%,0%,0%)" r="0.7" /><circle cx="289.137026763" cy="341.926926278" fill="rgb(0%,0%,100%)" r="0.7" /><circle cx="292.033363172" cy="342.584744748" fill="rgb(0%,0%,100%)" r="0.7" /><circle cx="294.408893114" cy="344.392239397" fill="rgb(0%,0%,100%)" r="0.7" /><circle cx="296.227606328" cy="346.771760206" fill="rgb(0%,0%,100%)" r="0.7" /><circle cx="297.649271007" cy="349.41133292" fill="rgb(0%,0%,100%)" r="0.7" /><circle cx="298.79327535" cy="352.18367315" fill="rgb(0%,0%,100%)" r="0.7" /><circle cx="299.73161957" cy="355.03262361" fill="rgb(0%,0%,100%)" r="0.7" /><circle cx="300.506761909" cy="357.930413932" fill="rgb(0%,0%,100%)" r="0.7" /><circle cx="301.140686758" cy="360.862395891" fill="rgb(0%,0%,100%)" r="0.7" /><circle cx="301.686633715" cy="363.811034541" fill="rgb(0%,0%,100%)" r="0.7" /><circle cx="302.342858121" cy="366.738347508" fill="rgb(0%,0%,100%)" r="0.7" /><circle cx="302.956180524" cy="369.674965517" fill="rgb(0%,0%,100%)" r="0.7" /><circle cx="303.529473507" cy="372.619652306" fill="rgb(0%,0%,100%)" r="0.7" /><circle cx="304.06531251" cy="375.571391901" fill="rgb(0%,0%,100%)" r="0.7" /><circle cx="304.566004039" cy="378.529299126" fill="rgb(0%,0%,100%)" r="0.7" /><circle cx="305.033624188" cy="381.492616944" fill="rgb(0%,0%,100%)" r="0.7" /><circle cx="305.470046577" cy="384.460692393" fill="rgb(0%,0%,100%)" r="0.7" /><circle cx="305.876966109" cy="387.432955569" fill="rgb(0%,0%,100%)" r="0.7" /><circle cx="306.255920953" cy="390.408914463" fill="rgb(0%,0%,100%)" r="0.7" /><circle cx="306.608309402" cy="393.388137867" fill="rgb(0%,0%,100%)" r="0.7" /><circle cx="306.93540499" cy="396.370244584" fill="rgb(0%,0%,100%)" r="0.7" /><circle cx="307.238370232" cy="399.354901317" fill="rgb(0%,0%,100%)" r="0.7" /><circle cx="307.518267122" cy="402.341809041" fill="rgb(0%,0%,100%)" r="0.7" /><circle cx="307.776067523" cy="405.33070379" fill="rgb(0%,0%,100%)" r="0.7" /><circle cx="308.01266147" cy="408.321352232" fill="rgb(0%,0%,100%)" r="0.7" /><circle cx="308.228864245" cy="411.31354682" fill="rgb(0%,0%,100%)" r="0.7" /><circle cx="308.425422397" cy="414.307100301" fill="rgb(0%,0%,100%)" r="0.7" /><circle cx="308.60301876" cy="417.301837512" fill="rgb(0%,0%,100%)" r="0.7" /><circle cx="308.762277452" cy="420.297600031" fill="rgb(0%,0%,100%)" r="0.7" /><circle cx="308.903767892" cy="423.294252041" fill="rgb(0%,0%,100%)" r="0.7" /><circle cx="309.028007571" cy="426.29168032" fill="rgb(0%,0%,100%)" r="0.7" /><circle cx="309.135462847" cy="429.289757813" fill="rgb(0%,0%,100%)" r="0.7" /><circle cx="309.226551971" cy="432.288373387" fill="rgb(0%,0%,100%)" r="0.7" /><circle cx="309.301645405" cy="435.287423727" fill="rgb(0%,0%,100%)" r="0.7" /><circle cx="309.361066004" cy="438.286838239" fill="rgb(0%,0%,100%)" r="0.7" /><circle cx="309.40508608" cy="441.286506557" fill="rgb(0%,0%,100%)" r="0.7" /><circle cx="309.433926381" cy="444.286373762" fill="rgb(0%,0%,100%)" r="0.7" /><circle cx="309.447749768" cy="447.286341347" fill="rgb(0%,0%,100%)" r="0.7" /><circle cx="309.446654493" cy="450.286340569" fill="rgb(0%,0%,100%)" r="0.7" /><circle cx="309.430661875" cy="453.286287221" fill="rgb(0%,0%,100%)" r="0.7" /><circle cx="309.399697135" cy="456.286131635" fill="rgb(0%,0%,100%)" r="0.7" /><circle cx="309.353559006" cy="459.285778685" fill="rgb(0%,0%,100%)" r="0.7" /><circle cx="309.291866409" cy="462.28512677" fill="rgb(0%,0%,100%)" r="0.7" /><circle cx="309.213955463" cy="465.284130008" fill="rgb(0%,0%,100%)" r="0.7" /><circle cx="309.118664401" cy="468.282581976" fill="rgb(0%,0%,100%)" r="0.7" /><circle cx="309.00370692" cy="471.280394673" fill="rgb(0%,0%,100%)" r="0.7" /><circle cx="308.862" cy="474.277" fill="rgb(0%,0%,100%)" r="0.7" /><circle cx="306.360420465" cy="473.186161154" fill="rgb(0%,0%,100%)" r="0.7" /><circle cx="303.610496375" cy="471.987029174" fill="rgb(0%,0%,100%)" r="0.7" /><circle cx="300.860572286" cy="470.787897194" fill="rgb(0%,0%,100%)" r="0.7" /><circle cx="298.897683207" cy="471.464854583" fill="rgb(0%,0%,100%)" r="0.7" /><circle cx="297.826344069" cy="474.267038098" fill="rgb(0%,0%,100%)" r="0.7" /><circle cx="296.755004931" cy="477.069221612" fill="rgb(0%,0%,100%)" r="0.7" /></svg>