<?xml version="1.0" encoding="utf-8" ?>
<svg baseProfile="full" height="100%" version="1.1" width="100%" xmlns="http://www.w3.org/2000/svg" xmlns:ev="http://www.w3.org/2001/xml-events" xmlns:xlink="http://www.w3.org/1999/xlink"><defs /><circle cx="301.429701012" cy="301.973522685" fill="rgb(100%,0%,0%)" r="0.7" /><circle cx="298.739466555" cy="303.110944427" fill="rgb(100%,0%,0%)" r="0.7" /><circle cx="296.798909142" cy="305.395008578" fill="rgb(100%,0%,0%)" r="0.7" /><circle cx="295.062371206" cy="307.840947818" fill="rgb(100%,0%,0%)" r="0.7" /><circle cx="293.416587729" cy="310.349104931" fill="rgb(100%,0%,0%)" r="0.7" /><circle cx="291.827485441" cy="312.893608881" fill="rgb(100%,0%,0%)" r="0.7" /><circle cx="290.280641374" cy="315.464043553" fill="rgb(100%,0%,0%)" r="0.7" /><circle cx="288.758555767" cy="318.048734015" fill="rgb(100%,0%,0%)" r="0.7" /><circle cx="287.170967021" cy="320.593822322" fill="rgb(100%,0%,0%)" r="0.7" /><circle cx="285.725788367" cy="323.222317332" fill="rgb(100%,0%,0%)" r="0.7" /><circle cx="284.4393902" cy="325.931991723" fill="rgb(100%,0%,0%)" r="0.7" /><circle cx="283.329549271" cy="328.718547174" fill="rgb(100%,0%,0%)" r="0.7" /><circle cx="282.414863294" cy="331.575037349" fill="rgb(100%,0%,0%)" r="0.7" /><circle cx="281.714355809" cy="334.491348797" fill="rgb(100%,0%,0%)" r="0.7" /><circle cx="281.247059571" cy="337.453880489" fill="rgb(100%,0%,0%)" r="0.7" /><circle cx="281.031941818" cy="340.445199434" fill="rgb(100%,0%,0%)" r="0.7" /><circle cx="281.088816831" cy="343.443544354" fill="rgb(100%,0%,0%)" r="0.7" /><circle cx="281.442362581" cy="346.421251505" fill="rgb(100%,0%,0%)" r="0.7" /><circle cx="282.141445287" cy="349.336315603" fill="rgb(100%,0%,0%)" r="0.7" /><circle cx="283.082466138" cy="352.18424604" fill="rgb(100%,0%,0%)" r="0.7" /><circle cx="283.964166391" cy="355.051736069" fill="rgb(100%,0%,0%)" r="0.7" /><circle cx="284.81214849" cy="357.929379558" fill="rgb(100%,0%,0%)" r="0.7" /><circle cx="285.628443042" cy="360.81617449" fill="rgb(100%,0%,0%)" r="0.7" /><circle cx="286.414850298" cy="363.711255422" fill="rgb(100%,0%,0%)" r="0.7" /><circle cx="287.172969547" cy="366.613873565" fill="rgb(100%,0%,0%)" r="0.7" /><circle cx="287.904221367" cy="369.523374292" fill="rgb(100%,0%,0%)" r="0.7" /><circle cx="288.609870347" cy="372.439197521" fill="rgb(100%,0%,0%)" r="0.7" /><circle cx="289.291032184" cy="375.360832696" fill="rgb(100%,0%,0%)" r="0.7" /><circle cx="289.948696323" cy="378.287854072" fill="rgb(100%,0%,0%)" r="0.7" /><circle cx="290.583723895" cy="381.219867299" fill="rgb(100%,0%,0%)" r="0.7" /><circle cx="291.196861092" cy="384.156537886" fill="rgb(100%,0%,0%)" r="0.7" /><circle cx="291.788735539" cy="387.097561245" fill="rgb(100%,0%,0%)" r="0.7" /><circle cx="292.359860519" cy="390.042692052" fill="rgb(100%,0%,0%)" r="0.7" /><circle cx="292.910617994" cy="392.991698898" fill="rgb(100%,0%,0%)" r="0.7" /><circle cx="293.441248195" cy="395.944396763" fill="rgb(100%,0%,0%)" r="0.7" /><circle cx="293.95181386" cy="398.900625325" fill="rgb(100%,0%,0%)" r="0.7" /><circle cx="294.442146787" cy="401.860279218" fill="rgb(100%,0%,0%)" r="0.7" /><circle cx="294.911729487" cy="404.823290933" fill="rgb(100%,0%,0%)" r="0.7" /><circle cx="295.359448942" cy="407.789691487" fill="rgb(100%,0%,0%)" r="0.7" /><circle cx="295.782877612" cy="410.759651668" fill="rgb(100%,0%,0%)" r="0.7" /><circle cx="296.174" cy="413.734" fill="rgb(100%,0%,0%)" r="0.7" /><circle cx="301.429701012" cy="301.973522685" fill="rgb(0%,0%,100%)" r="0.7" /><circle cx="304.144624908" cy="303.08167583" fill="rgb(0%,0%,100%)" r="0.7" /><circle cx="305.927218922" cy="305.47452901" fill="rgb(0%,0%,100%)" r="0.7" /><circle cx="307.106198257" cy="308.231343953" fill="rgb(0%,0%,100%)" r="0.7" /><circle cx="308.21655465" cy="311.01829725" fill="rgb(0%,0%,100%)" r="0.7" /><circle cx="309.326911043" cy="313.805250547" fill="rgb(0%,0%,100%)" r="0.7" /><circle cx="310.437267436" cy="316.592203844" fill="rgb(0%,0%,100%)" r="0.7" /><circle cx="311.547623829" cy="319.379157141" fill="rgb(0%,0%,100%)" r="0.7" /><circle cx="312.439932712" cy="322.215323504" fill="rgb(0%,0%,100%)" r="0.7" /><circle cx="312.083047671" cy="325.184791095" fill="rgb(0%,0%,100%)" r="0.7" /><circle cx="310.952127204" cy="327.953597246" fill="rgb(0%,0%,100%)" r="0.7" /><circle cx="309.125165054" cy="330.322175777" fill="rgb(0%,0%,100%)" r="0.7" /><circle cx="307.006371377" cy="332.435265802" fill="rgb(0%,0%,100%)" r="0.7" /><circle cx="305.419599921" cy="334.976300933" fill="rgb(0%,0%,100%)" r="0.7" /><circle cx="304.253642461" cy="337.737834705" fill="rgb(0%,0%,100%)" r="0.7" /><circle cx="303.444171983" cy="340.624859403" fill="rgb(0%,0%,100%)" r="0.7" /><circle cx="302.942656538" cy="343.581458056" fill="rgb(0%,0%,100%)" r="0.7" /><circle cx="302.707298114" cy="346.571349323" fill="rgb(0%,0%,100%)" r="0.7" /><circle cx="302.701893043" cy="349.570711367" fill="rgb(0%,0%,100%)" r="0.7" /><circle cx="302.895468904" cy="352.563986734" fill="rgb(0%,0%,100%)" r="0.7" /><circle cx="303.261796751" cy="355.54115999" fill="rgb(0%,0%,100%)" r="0.7" /><circle cx="303.758458939" cy="358.499688236" fill="rgb(0%,0%,100%)" r="0.7" /><circle cx="304.25984292" cy="361.457471329" fill="rgb(0%,0%,100%)" r="0.7" /><circle cx="304.755723875" cy="364.416216221" fill="rgb(0%,0%,100%)" r="0.7" /><circle cx="305.246626039" cy="367.375775049" fill="rgb(0%,0%,100%)" r="0.7" /><circle cx="305.732594208" cy="370.336156212" fill="rgb(0%,0%,100%)" r="0.7" /><circle cx="306.21346375" cy="373.297375626" fill="rgb(0%,0%,100%)" r="0.7" /><circle cx="306.688923702" cy="376.259451494" fill="rgb(0%,0%,100%)" r="0.7" /><circle cx="307.158537961" cy="379.22247099" fill="rgb(0%,0%,100%)" r="0.7" /><circle cx="307.621716988" cy="382.186501393" fill="rgb(0%,0%,100%)" r="0.7" /><circle cx="308.077693268" cy="385.151646934" fill="rgb(0%,0%,100%)" r="0.7" /><circle cx="308.525462655" cy="388.1180418" fill="rgb(0%,0%,100%)" r="0.7" /><circle cx="308.963692947" cy="391.085862911" fill="rgb(0%,0%,100%)" r="0.7" /><circle cx="309.390570634" cy="394.055336512" fill="rgb(0%,0%,100%)" r="0.7" /><circle cx="309.803539396" cy="397.02677862" fill="rgb(0%,0%,100%)" r="0.7" /><circle cx="310.198805079" cy="400.000619783" fill="rgb(0%,0%,100%)" r="0.7" /><circle cx="310.570319642" cy="402.977509545" fill="rgb(0%,0%,100%)" r="0.7" /><circle cx="310.907326574" cy="405.958501019" fill="rgb(0%,0%,100%)" r="0.7" /><circle cx="311.186780552" cy="408.945371799" fill="rgb(0%,0%,100%)" r="0.7" /><circle cx="311.334381339" cy="411.941065087" fill="rgb(0%,0%,100%)" r="0.7" /><circle cx="309.909247426" cy="411.311019559" fill="rgb(0%,0%,100%)" r="0.7" /><circle cx="307.901183247" cy="409.082190662" fill="rgb(0%,0%,100%)" r="0.7" /><circle cx="305.893119067" cy="406.853361765" fill="rgb(0%,0%,100%)" r="0.7" /><circle cx="303.885054887" cy="404.624532869" fill="rgb(0%,0%,100%)" r="0.7" /><circle cx="301.876990708" cy="402.395703972" fill="rgb(0%,0%,100%)" r="0.7" /><circle cx="300.109331593" cy="401.274656366" fill="rgb(0%,0%,100%)" r="0.7" /><circle cx="299.205770042" cy="404.135351478" fill="rgb(0%,0%,100%)" r="0.7" /><circle cx="298.302208492" cy="406.99604659" fill="rgb(0%,0%,100%)" r="0.7" /><circle cx="297.398646941" cy="409.856741702" fill="rgb(0%,0%,100%)" r="0.7" /><circle cx="296.495085391" cy="412.717436814" fill="rgb(0%,0%,100%)" r="0.7" /><circle cx="296.174" cy="413.734" fill="rgb(0%,0%,100%)" r="0.7" /></svg>