<?xml version="1.0" encoding="utf-8" ?>
<svg baseProfile="full" height="100%" version="1.1" width="100%" xmlns="http://www.w3.org/2000/svg" xmlns:ev="http://www.w3.org/2001/xml-events" xmlns:xlink="http://www.w3.org/1999/xlink"><defs /><circle cx="227.746979499" cy="306.551020792" fill="rgb(100%,0%,0%)" r="0.7" /><circle cx="224.752932587" cy="306.67898257" fill="rgb(100%,0%,0%)" r="0.7" /><circle cx="221.831105417" cy="307.338076813" fill="rgb(100%,0%,0%)" r="0.7" /><circle cx="219.104860919" cy="308.576693648" fill="rgb(100%,0%,0%)" r="0.7" /><circle cx="216.694505581" cy="310.354108357" fill="rgb(100%,0%,0%)" r="0.7" /><circle cx="214.664305621" cy="312.557481246" fill="rgb(100%,0%,0%)" r="0.7" /><circle cx="213.012895673" cy="315.058883987" fill="rgb(100%,0%,0%)" r="0.7" /><circle cx="211.702338905" cy="317.755556341" fill="rgb(100%,0%,0%)" r="0.7" /><circle cx="210.687051062" cy="320.57728034" fill="rgb(100%,0%,0%)" r="0.7" /><circle cx="209.928964154" cy="323.479019234" fill="rgb(100%,0%,0%)" r="0.7" /><circle cx="209.406189824" cy="326.432325614" fill="rgb(100%,0%,0%)" r="0.7" /><circle cx="209.067970221" cy="329.411964974" fill="rgb(100%,0%,0%)" r="0.7" /><circle cx="208.602113953" cy="332.375533661" fill="rgb(100%,0%,0%)" r="0.7" /><circle cx="208.102161201" cy="335.333570734" fill="rgb(100%,0%,0%)" r="0.7" /><circle cx="207.567224264" cy="338.285481549" fill="rgb(100%,0%,0%)" r="0.7" /><circle cx="206.99637699" cy="341.230643798" fill="rgb(100%,0%,0%)" r="0.7" /><circle cx="206.38864837" cy="344.168417691" fill="rgb(100%,0%,0%)" r="0.7" /><circle cx="205.743023139" cy="347.098117813" fill="rgb(100%,0%,0%)" r="0.7" /><circle cx="205.058454756" cy="350.018939079" fill="rgb(100%,0%,0%)" r="0.7" /><circle cx="204.333829936" cy="352.930092792" fill="rgb(100%,0%,0%)" r="0.7" /><circle cx="203.567995003" cy="355.830666022" fill="rgb(100%,0%,0%)" r="0.7" /><circle cx="202.759728556" cy="358.719706308" fill="rgb(100%,0%,0%)" r="0.7" /><circle cx="201.907756174" cy="361.596135413" fill="rgb(100%,0%,0%)" r="0.7" /><circle cx="201.010707311" cy="364.45886136" fill="rgb(100%,0%,0%)" r="0.7" /><circle cx="200.067161676" cy="367.306583052" fill="rgb(100%,0%,0%)" r="0.7" /><circle cx="199.075591917" cy="370.137930873" fill="rgb(100%,0%,0%)" r="0.7" /><circle cx="198.034367988" cy="372.95138869" fill="rgb(100%,0%,0%)" r="0.7" /><circle cx="196.94172988" cy="375.745298374" fill="rgb(100%,0%,0%)" r="0.7" /><circle cx="195.795795348" cy="378.51775574" fill="rgb(100%,0%,0%)" r="0.7" /><circle cx="194.594486301" cy="381.266687035" fill="rgb(100%,0%,0%)" r="0.7" /><circle cx="193.335539549" cy="383.989679865" fill="rgb(100%,0%,0%)" r="0.7" /><circle cx="192.016413269" cy="386.684010022" fill="rgb(100%,0%,0%)" r="0.7" /><circle cx="190.634202984" cy="389.346549698" fill="rgb(100%,0%,0%)" r="0.7" /><circle cx="189.185576261" cy="391.973526111" fill="rgb(100%,0%,0%)" r="0.7" /><circle cx="187.666543718" cy="394.560394783" fill="rgb(100%,0%,0%)" r="0.7" /><circle cx="186.072131005" cy="397.101492066" fill="rgb(100%,0%,0%)" r="0.7" /><circle cx="184.395832255" cy="399.589296008" fill="rgb(100%,0%,0%)" r="0.7" /><circle cx="182.62830368" cy="402.013059192" fill="rgb(100%,0%,0%)" r="0.7" /><circle cx="180.753788466" cy="404.354910847" fill="rgb(100%,0%,0%)" r="0.7" /><circle cx="178.729" cy="406.567" fill="rgb(100%,0%,0%)" r="0.7" /><circle cx="180.975674905" cy="406.395272865" fill="rgb(100%,0%,0%)" r="0.7" /><circle cx="183.966949397" cy="406.166631419" fill="rgb(100%,0%,0%)" r="0.7" /><circle cx="186.95822389" cy="405.937989973" fill="rgb(100%,0%,0%)" r="0.7" /><circle cx="189.718417062" cy="406.251086364" fill="rgb(100%,0%,0%)" r="0.7" /><circle cx="191.623706613" cy="408.568384731" fill="rgb(100%,0%,0%)" r="0.7" /><circle cx="193.528996165" cy="410.885683099" fill="rgb(100%,0%,0%)" r="0.7" /><circle cx="195.434285716" cy="413.202981467" fill="rgb(100%,0%,0%)" r="0.7" /><circle cx="197.339575267" cy="415.520279835" fill="rgb(100%,0%,0%)" r="0.7" /><circle cx="199.244864819" cy="417.837578203" fill="rgb(100%,0%,0%)" r="0.7" /><circle cx="227.746979499" cy="306.551020792" fill="rgb(0%,0%,100%)" r="0.7" /><circle cx="230.745692535" cy="306.636346924" fill="rgb(0%,0%,100%)" r="0.7" /><circle cx="233.741789821" cy="306.788565169" fill="rgb(0%,0%,100%)" r="0.7" /><circle cx="236.73430691" cy="306.999597931" fill="rgb(0%,0%,100%)" r="0.7" /><circle cx="239.721966932" cy="307.270816647" fill="rgb(0%,0%,100%)" r="0.7" /><circle cx="242.702998253" cy="307.607052546" fill="rgb(0%,0%,100%)" r="0.7" /><circle cx="245.674906915" cy="308.016025382" fill="rgb(0%,0%,100%)" r="0.7" /><circle cx="248.634045269" cy="308.508785474" fill="rgb(0%,0%,100%)" r="0.7" /><circle cx="251.574864778" cy="309.100867867" fill="rgb(0%,0%,100%)" r="0.7" /><circle cx="254.488496463" cy="309.814408981" fill="rgb(0%,0%,100%)" r="0.7" /><circle cx="257.359845104" cy="310.681929259" fill="rgb(0%,0%,100%)" r="0.7" /><circle cx="260.161076754" cy="311.753257594" fill="rgb(0%,0%,100%)" r="0.7" /><circle cx="262.835382694" cy="313.108289896" fill="rgb(0%,0%,100%)" r="0.7" /><circle cx="265.252204463" cy="314.876613437" fill="rgb(0%,0%,100%)" r="0.7" /><circle cx="267.092778624" cy="317.225925062" fill="rgb(0%,0%,100%)" r="0.7" /><circle cx="267.798237571" cy="320.112689472" fill="rgb(0%,0%,100%)" r="0.7" /><circle cx="267.622787582" cy="323.098338312" fill="rgb(0%,0%,100%)" r="0.7" /><circle cx="266.518936353" cy="325.860645769" fill="rgb(0%,0%,100%)" r="0.7" /><circle cx="264.359694745" cy="327.915612463" fill="rgb(0%,0%,100%)" r="0.7" /><circle cx="261.645140412" cy="329.172360353" fill="rgb(0%,0%,100%)" r="0.7" /><circle cx="258.722194736" cy="329.832233071" fill="rgb(0%,0%,100%)" r="0.7" /><circle cx="255.73450291" cy="330.085697137" fill="rgb(0%,0%,100%)" r="0.7" /><circle cx="252.735444751" cy="330.055681125" fill="rgb(0%,0%,100%)" r="0.7" /><circle cx="249.745268236" cy="329.818700591" fill="rgb(0%,0%,100%)" r="0.7" /><circle cx="246.771607245" cy="329.424107042" fill="rgb(0%,0%,100%)" r="0.7" /><circle cx="243.820873782" cy="328.885571642" fill="rgb(0%,0%,100%)" r="0.7" /><circle cx="240.88390002" cy="328.273864912" fill="rgb(0%,0%,100%)" r="0.7" /><circle cx="237.964753536" cy="327.618943777" fill="rgb(0%,0%,100%)" r="0.7" /><circle cx="235.296498757" cy="327.882920277" fill="rgb(0%,0%,100%)" r="0.7" /><circle cx="234.637623006" cy="330.771489392" fill="rgb(0%,0%,100%)" r="0.7" /><circle cx="234.904777404" cy="333.747248464" fill="rgb(0%,0%,100%)" r="0.7" /><circle cx="234.779787813" cy="336.741045901" fill="rgb(0%,0%,100%)" r="0.7" /><circle cx="234.313518329" cy="339.70380238" fill="rgb(0%,0%,100%)" r="0.7" /><circle cx="233.664574739" cy="342.632462971" fill="rgb(0%,0%,100%)" r="0.7" /><circle cx="232.894041752" cy="345.531678686" fill="rgb(0%,0%,100%)" r="0.7" /><circle cx="232.034124077" cy="348.405675185" fill="rgb(0%,0%,100%)" r="0.7" /><circle cx="231.10446286" cy="351.257953111" fill="rgb(0%,0%,100%)" r="0.7" /><circle cx="230.118220301" cy="354.091159799" fill="rgb(0%,0%,100%)" r="0.7" /><circle cx="229.084736278" cy="356.907464964" fill="rgb(0%,0%,100%)" r="0.7" /><circle cx="228.010931494" cy="359.708681873" fill="rgb(0%,0%,100%)" r="0.7" /><circle cx="226.902139363" cy="362.496267897" fill="rgb(0%,0%,100%)" r="0.7" /><circle cx="225.762601623" cy="365.271373641" fill="rgb(0%,0%,100%)" r="0.7" /><circle cx="224.595678277" cy="368.035135296" fill="rgb(0%,0%,100%)" r="0.7" /><circle cx="223.40420411" cy="370.788348882" fill="rgb(0%,0%,100%)" r="0.7" /><circle cx="222.190485348" cy="373.531848146" fill="rgb(0%,0%,100%)" r="0.7" /><circle cx="220.956492405" cy="376.266310736" fill="rgb(0%,0%,100%)" r="0.7" /><circle cx="219.703922216" cy="378.992307276" fill="rgb(0%,0%,100%)" r="0.7" /><circle cx="218.434222093" cy="381.710384209" fill="rgb(0%,0%,100%)" r="0.7" /><circle cx="217.148670386" cy="384.420990696" fill="rgb(0%,0%,100%)" r="0.7" /><circle cx="215.848400252" cy="387.124508504" fill="rgb(0%,0%,100%)" r="0.7" /><circle cx="214.5343509" cy="389.821411732" fill="rgb(0%,0%,100%)" r="0.7" /><circle cx="213.207421709" cy="392.511994884" fill="rgb(0%,0%,100%)" r="0.7" /><circle cx="211.868395217" cy="395.196572284" fill="rgb(0%,0%,100%)" r="0.7" /><circle cx="210.517951426" cy="397.87547717" fill="rgb(0%,0%,100%)" r="0.7" /><circle cx="209.156769439" cy="400.548885505" fill="rgb(0%,0%,100%)" r="0.7" /><circle cx="207.785406246" cy="403.217077348" fill="rgb(0%,0%,100%)" r="0.7" /><circle cx="206.404366469" cy="405.880314061" fill="rgb(0%,0%,100%)" r="0.7" /><circle cx="205.014153053" cy="408.538756043" fill="rgb(0%,0%,100%)" r="0.7" /><circle cx="203.615211362" cy="411.192583676" fill="rgb(0%,0%,100%)" r="0.7" /><circle cx="202.207912565" cy="413.842037149" fill="rgb(0%,0%,100%)" r="0.7" /><circle cx="200.792663956" cy="416.487216972" fill="rgb(0%,0%,100%)" r="0.7" /><circle cx="199.244864819" cy="417.837578203" fill="rgb(0%,0%,100%)" r="0.7" /></svg>