<?xml version="1.0" encoding="utf-8" ?>
<svg baseProfile="full" height="100%" version="1.1" width="100%" xmlns="http://www.w3.org/2000/svg" xmlns:ev="http://www.w3.org/2001/xml-events" xmlns:xlink="http://www.w3.org/1999/xlink"><defs /><circle cx="169.793312921" cy="175.161081032" fill="rgb(100%,0%,0%)" r="0.7" /><circle cx="166.795635597" cy="175.250710987" fill="rgb(100%,0%,0%)" r="0.7" /><circle cx="163.887344985" cy="175.944565786" fill="rgb(100%,0%,0%)" r="0.7" /><circle cx="161.297362084" cy="177.438332487" fill="rgb(100%,0%,0%)" r="0.7" /><circle cx="159.177195322" cy="179.551259502" fill="rgb(100%,0%,0%)" r="0.7" /><circle cx="157.520673064" cy="182.048019338" fill="rgb(100%,0%,0%)" r="0.7" /><circle cx="156.249188875" cy="184.763047319" fill="rgb(100%,0%,0%)" r="0.7" /><circle cx="155.284014124" cy="187.602325492" fill="rgb(100%,0%,0%)" r="0.7" /><circle cx="154.566544181" cy="190.514501522" fill="rgb(100%,0%,0%)" r="0.7" /><circle cx="154.059563621" cy="193.470782124" fill="rgb(100%,0%,0%)" r="0.7" /><circle cx="153.753408201" cy="196.454483576" fill="rgb(100%,0%,0%)" r="0.7" /><circle cx="153.69519776" cy="199.453335218" fill="rgb(100%,0%,0%)" r="0.7" /><circle cx="153.798715135" cy="202.451231971" fill="rgb(100%,0%,0%)" r="0.7" /><circle cx="154.044087051" cy="205.440922638" fill="rgb(100%,0%,0%)" r="0.7" /><circle cx="154.419042116" cy="208.417183246" fill="rgb(100%,0%,0%)" r="0.7" /><circle cx="154.912175775" cy="211.37619673" fill="rgb(100%,0%,0%)" r="0.7" /><circle cx="155.513047053" cy="214.315258185" fill="rgb(100%,0%,0%)" r="0.7" /><circle cx="156.212192894" cy="217.232523313" fill="rgb(100%,0%,0%)" r="0.7" /><circle cx="157.001094498" cy="220.126811473" fill="rgb(100%,0%,0%)" r="0.7" /><circle cx="157.872127656" cy="222.997483232" fill="rgb(100%,0%,0%)" r="0.7" /><circle cx="158.818462765" cy="225.844226369" fill="rgb(100%,0%,0%)" r="0.7" /><circle cx="159.834008503" cy="228.667037503" fill="rgb(100%,0%,0%)" r="0.7" /><circle cx="160.913318939" cy="231.46609717" fill="rgb(100%,0%,0%)" r="0.7" /><circle cx="162.051529411" cy="234.2417379" fill="rgb(100%,0%,0%)" r="0.7" /><circle cx="163.244287201" cy="236.994391757" fill="rgb(100%,0%,0%)" r="0.7" /><circle cx="164.487682083" cy="239.724536475" fill="rgb(100%,0%,0%)" r="0.7" /><circle cx="165.778222049" cy="242.432734123" fill="rgb(100%,0%,0%)" r="0.7" /><circle cx="167.112746258" cy="245.1195242" fill="rgb(100%,0%,0%)" r="0.7" /><circle cx="168.488420262" cy="247.785487236" fill="rgb(100%,0%,0%)" r="0.7" /><circle cx="169.902678672" cy="250.431189238" fill="rgb(100%,0%,0%)" r="0.7" /><circle cx="171.353199507" cy="253.057186299" fill="rgb(100%,0%,0%)" r="0.7" /><circle cx="172.837880296" cy="255.664024937" fill="rgb(100%,0%,0%)" r="0.7" /><circle cx="174.3548116" cy="258.252232795" fill="rgb(100%,0%,0%)" r="0.7" /><circle cx="175.902255391" cy="260.822314276" fill="rgb(100%,0%,0%)" r="0.7" /><circle cx="177.478630378" cy="263.374754123" fill="rgb(100%,0%,0%)" r="0.7" /><circle cx="179.082497282" cy="265.910017096" fill="rgb(100%,0%,0%)" r="0.7" /><circle cx="180.712530881" cy="268.428524637" fill="rgb(100%,0%,0%)" r="0.7" /><circle cx="182.367542565" cy="270.930707595" fill="rgb(100%,0%,0%)" r="0.7" /><circle cx="184.046419703" cy="273.416928259" fill="rgb(100%,0%,0%)" r="0.7" /><circle cx="185.748163901" cy="275.887551848" fill="rgb(100%,0%,0%)" r="0.7" /><circle cx="187.471864889" cy="278.342917063" fill="rgb(100%,0%,0%)" r="0.7" /><circle cx="189.216687585" cy="280.783326485" fill="rgb(100%,0%,0%)" r="0.7" /><circle cx="190.981855202" cy="283.209030795" fill="rgb(100%,0%,0%)" r="0.7" /><circle cx="192.766711316" cy="285.620318537" fill="rgb(100%,0%,0%)" r="0.7" /><circle cx="194.570607604" cy="288.017365366" fill="rgb(100%,0%,0%)" r="0.7" /><circle cx="196.393030464" cy="290.400405426" fill="rgb(100%,0%,0%)" r="0.7" /><circle cx="198.233456941" cy="292.769538319" fill="rgb(100%,0%,0%)" r="0.7" /><circle cx="200.091482077" cy="295.124891796" fill="rgb(100%,0%,0%)" r="0.7" /><circle cx="201.966765723" cy="297.466541683" fill="rgb(100%,0%,0%)" r="0.7" /><circle cx="203.859023532" cy="299.7944866" fill="rgb(100%,0%,0%)" r="0.7" /><circle cx="205.768073199" cy="302.108682172" fill="rgb(100%,0%,0%)" r="0.7" /><circle cx="207.693818614" cy="304.408984318" fill="rgb(100%,0%,0%)" r="0.7" /><circle cx="209.636331554" cy="306.695187482" fill="rgb(100%,0%,0%)" r="0.7" /><circle cx="211.595787021" cy="308.966847795" fill="rgb(100%,0%,0%)" r="0.7" /><circle cx="213.5726846" cy="311.223359246" fill="rgb(100%,0%,0%)" r="0.7" /><circle cx="215.567938227" cy="313.463673761" fill="rgb(100%,0%,0%)" r="0.7" /><circle cx="217.583318634" cy="315.68583099" fill="rgb(100%,0%,0%)" r="0.7" /><circle cx="219.623556644" cy="317.885240759" fill="rgb(100%,0%,0%)" r="0.7" /><circle cx="221.658852782" cy="320.088977889" fill="rgb(100%,0%,0%)" r="0.7" /><circle cx="223.642277008" cy="322.339699089" fill="rgb(100%,0%,0%)" r="0.7" /><circle cx="225.587115357" cy="324.623872271" fill="rgb(100%,0%,0%)" r="0.7" /><circle cx="227.5005796" cy="326.934423852" fill="rgb(100%,0%,0%)" r="0.7" /><circle cx="229.387817017" cy="329.266411791" fill="rgb(100%,0%,0%)" r="0.7" /><circle cx="231.252729012" cy="331.61632574" fill="rgb(100%,0%,0%)" r="0.7" /><circle cx="233.098272746" cy="333.981476777" fill="rgb(100%,0%,0%)" r="0.7" /><circle cx="234.92679305" cy="336.359805635" fill="rgb(100%,0%,0%)" r="0.7" /><circle cx="236.740185523" cy="338.749699354" fill="rgb(100%,0%,0%)" r="0.7" /><circle cx="238.539989903" cy="341.14984736" fill="rgb(100%,0%,0%)" r="0.7" /><circle cx="240.327479595" cy="343.559174393" fill="rgb(100%,0%,0%)" r="0.7" /><circle cx="242.103731999" cy="345.976802818" fill="rgb(100%,0%,0%)" r="0.7" /><circle cx="243.869651667" cy="348.401987585" fill="rgb(100%,0%,0%)" r="0.7" /><circle cx="245.626013928" cy="350.834103724" fill="rgb(100%,0%,0%)" r="0.7" /><circle cx="247.373483941" cy="353.272618342" fill="rgb(100%,0%,0%)" r="0.7" /><circle cx="249.112631396" cy="355.717069321" fill="rgb(100%,0%,0%)" r="0.7" /><circle cx="250.843960286" cy="358.167075017" fill="rgb(100%,0%,0%)" r="0.7" /><circle cx="252.567892061" cy="360.622285748" fill="rgb(100%,0%,0%)" r="0.7" /><circle cx="254.284798768" cy="363.082411575" fill="rgb(100%,0%,0%)" r="0.7" /><circle cx="255.995002078" cy="365.547207046" fill="rgb(100%,0%,0%)" r="0.7" /><circle cx="257.698763014" cy="368.016446427" fill="rgb(100%,0%,0%)" r="0.7" /><circle cx="259.396323771" cy="370.489978643" fill="rgb(100%,0%,0%)" r="0.7" /><circle cx="261.087844846" cy="372.967635094" fill="rgb(100%,0%,0%)" r="0.7" /><circle cx="262.773452713" cy="375.449303884" fill="rgb(100%,0%,0%)" r="0.7" /><circle cx="264.453226469" cy="377.93492506" fill="rgb(100%,0%,0%)" r="0.7" /><circle cx="266.127174319" cy="380.42448656" fill="rgb(100%,0%,0%)" r="0.7" /><circle cx="267.795200841" cy="382.918039023" fill="rgb(100%,0%,0%)" r="0.7" /><circle cx="269.457018636" cy="385.415708495" fill="rgb(100%,0%,0%)" r="0.7" /><circle cx="271.111998407" cy="387.917888045" fill="rgb(100%,0%,0%)" r="0.7" /><circle cx="272.758" cy="390.426" fill="rgb(100%,0%,0%)" r="0.7" /><circle cx="169.793312921" cy="175.161081032" fill="rgb(0%,0%,100%)" r="0.7" /><circle cx="172.792713594" cy="175.203469992" fill="rgb(0%,0%,100%)" r="0.7" /><circle cx="175.785702799" cy="175.402406069" fill="rgb(0%,0%,100%)" r="0.7" /><circle cx="178.758300236" cy="175.801124054" fill="rgb(0%,0%,100%)" r="0.7" /><circle cx="181.67442061" cy="176.496729776" fill="rgb(0%,0%,100%)" r="0.7" /><circle cx="184.407307993" cy="177.713303583" fill="rgb(0%,0%,100%)" r="0.7" /><circle cx="186.626247388" cy="179.721199697" fill="rgb(0%,0%,100%)" r="0.7" /><circle cx="188.735955359" cy="181.854051903" fill="rgb(0%,0%,100%)" r="0.7" /><circle cx="190.825186537" cy="184.006973614" fill="rgb(0%,0%,100%)" r="0.7" /><circle cx="192.893517974" cy="186.179970631" fill="rgb(0%,0%,100%)" r="0.7" /><circle cx="194.938571213" cy="188.374893016" fill="rgb(0%,0%,100%)" r="0.7" /><circle cx="196.956249134" cy="190.594992488" fill="rgb(0%,0%,100%)" r="0.7" /><circle cx="198.940130437" cy="192.845327889" fill="rgb(0%,0%,100%)" r="0.7" /><circle cx="200.879879463" cy="195.133776672" fill="rgb(0%,0%,100%)" r="0.7" /><circle cx="202.757536189" cy="197.473361413" fill="rgb(0%,0%,100%)" r="0.7" /><circle cx="204.537152203" cy="199.888083729" fill="rgb(0%,0%,100%)" r="0.7" /><circle cx="206.124569276" cy="202.431820705" fill="rgb(0%,0%,100%)" r="0.7" /><circle cx="207.853976498" cy="204.761559088" fill="rgb(0%,0%,100%)" r="0.7" /><circle cx="208.767593306" cy="207.609333422" fill="rgb(0%,0%,100%)" r="0.7" /><circle cx="209.192750551" cy="210.57770985" fill="rgb(0%,0%,100%)" r="0.7" /><circle cx="209.385662822" cy="213.571067271" fill="rgb(0%,0%,100%)" r="0.7" /><circle cx="209.423020302" cy="216.570099393" fill="rgb(0%,0%,100%)" r="0.7" /><circle cx="209.307164071" cy="219.567711134" fill="rgb(0%,0%,100%)" r="0.7" /><circle cx="209.276715971" cy="222.567476438" fill="rgb(0%,0%,100%)" r="0.7" /><circle cx="209.321063431" cy="225.567071419" fill="rgb(0%,0%,100%)" r="0.7" /><circle cx="209.440917175" cy="228.564593956" fill="rgb(0%,0%,100%)" r="0.7" /><circle cx="209.640932491" cy="231.557823415" fill="rgb(0%,0%,100%)" r="0.7" /><circle cx="209.928693962" cy="234.543871205" fill="rgb(0%,0%,100%)" r="0.7" /><circle cx="210.314781501" cy="237.518769935" fill="rgb(0%,0%,100%)" r="0.7" /><circle cx="210.813351495" cy="240.476839793" fill="rgb(0%,0%,100%)" r="0.7" /><circle cx="211.443178035" cy="243.409680843" fill="rgb(0%,0%,100%)" r="0.7" /><circle cx="212.229230344" cy="246.304418282" fill="rgb(0%,0%,100%)" r="0.7" /><circle cx="213.204893243" cy="249.140611406" fill="rgb(0%,0%,100%)" r="0.7" /><circle cx="214.41468617" cy="251.88462579" fill="rgb(0%,0%,100%)" r="0.7" /><circle cx="215.912787558" cy="254.481758878" fill="rgb(0%,0%,100%)" r="0.7" /><circle cx="217.535746343" cy="257.004880654" fill="rgb(0%,0%,100%)" r="0.7" /><circle cx="219.161762142" cy="259.525972517" fill="rgb(0%,0%,100%)" r="0.7" /><circle cx="220.790211776" cy="262.045525613" fill="rgb(0%,0%,100%)" r="0.7" /><circle cx="222.420837539" cy="264.563679122" fill="rgb(0%,0%,100%)" r="0.7" /><circle cx="224.05350514" cy="267.080499372" fill="rgb(0%,0%,100%)" r="0.7" /><circle cx="225.688157132" cy="269.596047061" fill="rgb(0%,0%,100%)" r="0.7" /><circle cx="227.324741572" cy="272.110319392" fill="rgb(0%,0%,100%)" r="0.7" /><circle cx="228.963258732" cy="274.623346326" fill="rgb(0%,0%,100%)" r="0.7" /><circle cx="230.603698077" cy="277.135106709" fill="rgb(0%,0%,100%)" r="0.7" /><circle cx="232.246078822" cy="279.645597974" fill="rgb(0%,0%,100%)" r="0.7" /><circle cx="233.890431958" cy="282.15481295" fill="rgb(0%,0%,100%)" r="0.7" /><circle cx="235.536777798" cy="284.662708333" fill="rgb(0%,0%,100%)" r="0.7" /><circle cx="237.185161178" cy="287.169259957" fill="rgb(0%,0%,100%)" r="0.7" /><circle cx="238.83563702" cy="289.674441447" fill="rgb(0%,0%,100%)" r="0.7" /><circle cx="240.488265425" cy="292.178216915" fill="rgb(0%,0%,100%)" r="0.7" /><circle cx="242.143096472" cy="294.680517772" fill="rgb(0%,0%,100%)" r="0.7" /><circle cx="243.800215752" cy="297.181310932" fill="rgb(0%,0%,100%)" r="0.7" /><circle cx="245.459698441" cy="299.680528263" fill="rgb(0%,0%,100%)" r="0.7" /><circle cx="247.121644479" cy="302.178118271" fill="rgb(0%,0%,100%)" r="0.7" /><circle cx="248.786150716" cy="304.674002303" fill="rgb(0%,0%,100%)" r="0.7" /><circle cx="250.453328601" cy="307.168098965" fill="rgb(0%,0%,100%)" r="0.7" /><circle cx="252.123304815" cy="309.660322288" fill="rgb(0%,0%,100%)" r="0.7" /><circle cx="253.796218791" cy="312.150574693" fill="rgb(0%,0%,100%)" r="0.7" /><circle cx="255.472225753" cy="314.638747555" fill="rgb(0%,0%,100%)" r="0.7" /><circle cx="257.151498025" cy="317.124718355" fill="rgb(0%,0%,100%)" r="0.7" /><circle cx="258.834228279" cy="319.6083497" fill="rgb(0%,0%,100%)" r="0.7" /><circle cx="260.520633029" cy="322.089487428" fill="rgb(0%,0%,100%)" r="0.7" /><circle cx="262.210956255" cy="324.567957316" fill="rgb(0%,0%,100%)" r="0.7" /><circle cx="263.905472821" cy="327.043559458" fill="rgb(0%,0%,100%)" r="0.7" /><circle cx="265.604499406" cy="329.516070992" fill="rgb(0%,0%,100%)" r="0.7" /><circle cx="267.308392477" cy="331.985226478" fill="rgb(0%,0%,100%)" r="0.7" /><circle cx="269.017571737" cy="334.450730741" fill="rgb(0%,0%,100%)" r="0.7" /><circle cx="270.732518152" cy="336.912228582" fill="rgb(0%,0%,100%)" r="0.7" /><circle cx="272.433325467" cy="339.383441276" fill="rgb(0%,0%,100%)" r="0.7" /><circle cx="274.121865594" cy="341.863129319" fill="rgb(0%,0%,100%)" r="0.7" /><circle cx="275.80913564" cy="344.343668326" fill="rgb(0%,0%,100%)" r="0.7" /><circle cx="277.495199171" cy="346.825034597" fill="rgb(0%,0%,100%)" r="0.7" /><circle cx="279.180020481" cy="349.307251005" fill="rgb(0%,0%,100%)" r="0.7" /><circle cx="280.863511584" cy="351.790372032" fill="rgb(0%,0%,100%)" r="0.7" /><circle cx="282.545535745" cy="354.274477225" fill="rgb(0%,0%,100%)" r="0.7" /><circle cx="284.225917769" cy="356.759699638" fill="rgb(0%,0%,100%)" r="0.7" /><circle cx="285.904404755" cy="359.246201047" fill="rgb(0%,0%,100%)" r="0.7" /><circle cx="287.580652895" cy="361.734212631" fill="rgb(0%,0%,100%)" r="0.7" /><circle cx="289.25417255" cy="364.224061251" fill="rgb(0%,0%,100%)" r="0.7" /><circle cx="290.924230223" cy="366.716226794" fill="rgb(0%,0%,100%)" r="0.7" /><circle cx="292.589667256" cy="369.211494281" fill="rgb(0%,0%,100%)" r="0.7" /><circle cx="294.248395936" cy="371.711220956" fill="rgb(0%,0%,100%)" r="0.7" /><circle cx="295.895944182" cy="374.218309908" fill="rgb(0%,0%,100%)" r="0.7" /><circle cx="295.982464831" cy="375.778348593" fill="rgb(0%,0%,100%)" r="0.7" /><circle cx="293.002425967" cy="375.432851312" fill="rgb(0%,0%,100%)" r="0.7" /><circle cx="290.022387104" cy="375.087354032" fill="rgb(0%,0%,100%)" r="0.7" /><circle cx="287.04234824" cy="374.741856751" fill="rgb(0%,0%,100%)" r="0.7" /><circle cx="284.062309376" cy="374.39635947" fill="rgb(0%,0%,100%)" r="0.7" /><circle cx="281.082270513" cy="374.05086219" fill="rgb(0%,0%,100%)" r="0.7" /><circle cx="278.102231649" cy="373.705364909" fill="rgb(0%,0%,100%)" r="0.7" /><circle cx="275.122192785" cy="373.359867628" fill="rgb(0%,0%,100%)" r="0.7" /><circle cx="273.085561971" cy="374.095100569" fill="rgb(0%,0%,100%)" r="0.7" /><circle cx="273.025400662" cy="377.094497278" fill="rgb(0%,0%,100%)" r="0.7" /><circle cx="272.965239352" cy="380.093893987" fill="rgb(0%,0%,100%)" r="0.7" /><circle cx="272.905078042" cy="383.093290695" fill="rgb(0%,0%,100%)" r="0.7" /><circle cx="272.844916732" cy="386.092687404" fill="rgb(0%,0%,100%)" r="0.7" /><circle cx="272.784755423" cy="389.092084113" fill="rgb(0%,0%,100%)" r="0.7" /><circle cx="272.758" cy="390.426" fill="rgb(0%,0%,100%)" r="0.7" /></svg>