<?xml version="1.0" encoding="utf-8" ?>
<svg baseProfile="full" height="100%" version="1.1" width="100%" xmlns="http://www.w3.org/2000/svg" xmlns:ev="http://www.w3.org/2001/xml-events" xmlns:xlink="http://www.w3.org/1999/xlink"><defs /><circle cx="304.715235048" cy="322.187016139" fill="rgb(100%,0%,0%)" r="0.7" /><circle cx="301.808785247" cy="322.84629123" fill="rgb(100%,0%,0%)" r="0.7" /><circle cx="299.539660067" cy="324.75525006" fill="rgb(100%,0%,0%)" r="0.7" /><circle cx="298.360959391" cy="327.493285176" fill="rgb(100%,0%,0%)" r="0.7" /><circle cx="296.945971429" cy="330.133970093" fill="rgb(100%,0%,0%)" r="0.7" /><circle cx="295.209352805" cy="332.579026023" fill="rgb(100%,0%,0%)" r="0.7" /><circle cx="293.302139412" cy="334.894187694" fill="rgb(100%,0%,0%)" r="0.7" /><circle cx="291.282616598" cy="337.11234507" fill="rgb(100%,0%,0%)" r="0.7" /><circle cx="289.181528504" cy="339.253510038" fill="rgb(100%,0%,0%)" r="0.7" /><circle cx="287.017571432" cy="341.331202029" fill="rgb(100%,0%,0%)" r="0.7" /><circle cx="284.803213216" cy="343.355104167" fill="rgb(100%,0%,0%)" r="0.7" /><circle cx="282.54722547" cy="345.332531647" fill="rgb(100%,0%,0%)" r="0.7" /><circle cx="280.256101601" cy="347.269156415" fill="rgb(100%,0%,0%)" r="0.7" /><circle cx="277.934792981" cy="349.169514428" fill="rgb(100%,0%,0%)" r="0.7" /><circle cx="275.587189807" cy="351.037300415" fill="rgb(100%,0%,0%)" r="0.7" /><circle cx="273.216407721" cy="352.875584165" fill="rgb(100%,0%,0%)" r="0.7" /><circle cx="271.130995935" cy="354.585" fill="rgb(100%,0%,0%)" r="0.7" /><circle cx="274.130995935" cy="354.585" fill="rgb(100%,0%,0%)" r="0.7" /><circle cx="277.130995935" cy="354.585" fill="rgb(100%,0%,0%)" r="0.7" /><circle cx="280.130995935" cy="354.585" fill="rgb(100%,0%,0%)" r="0.7" /><circle cx="283.130995935" cy="354.585" fill="rgb(100%,0%,0%)" r="0.7" /><circle cx="286.130995935" cy="354.585" fill="rgb(100%,0%,0%)" r="0.7" /><circle cx="289.130995935" cy="354.585" fill="rgb(100%,0%,0%)" r="0.7" /><circle cx="291.060961781" cy="356.217280551" fill="rgb(100%,0%,0%)" r="0.7" /><circle cx="292.257529313" cy="358.968321471" fill="rgb(100%,0%,0%)" r="0.7" /><circle cx="293.454096845" cy="361.719362391" fill="rgb(100%,0%,0%)" r="0.7" /><circle cx="294.650664377" cy="364.47040331" fill="rgb(100%,0%,0%)" r="0.7" /><circle cx="295.847231909" cy="367.22144423" fill="rgb(100%,0%,0%)" r="0.7" /><circle cx="297.043799441" cy="369.972485149" fill="rgb(100%,0%,0%)" r="0.7" /><circle cx="298.240366973" cy="372.723526069" fill="rgb(100%,0%,0%)" r="0.7" /><circle cx="298.445" cy="373.194" fill="rgb(100%,0%,0%)" r="0.7" /><circle cx="304.715235048" cy="322.187016139" fill="rgb(0%,0%,100%)" r="0.7" /><circle cx="307.695909851" cy="322.454584059" fill="rgb(0%,0%,100%)" r="0.7" /><circle cx="310.54734933" cy="323.368111221" fill="rgb(0%,0%,100%)" r="0.7" /><circle cx="313.265055394" cy="324.636767655" fill="rgb(0%,0%,100%)" r="0.7" /><circle cx="315.885031372" cy="326.097066701" fill="rgb(0%,0%,100%)" r="0.7" /><circle cx="318.41085282" cy="327.715025868" fill="rgb(0%,0%,100%)" r="0.7" /><circle cx="320.84539464" cy="329.467453752" fill="rgb(0%,0%,100%)" r="0.7" /><circle cx="323.187780421" cy="331.341303146" fill="rgb(0%,0%,100%)" r="0.7" /><circle cx="325.42028941" cy="333.344395035" fill="rgb(0%,0%,100%)" r="0.7" /><circle cx="327.493462044" cy="335.511356571" fill="rgb(0%,0%,100%)" r="0.7" /><circle cx="329.315662252" cy="337.891800933" fill="rgb(0%,0%,100%)" r="0.7" /><circle cx="330.716313778" cy="340.538607467" fill="rgb(0%,0%,100%)" r="0.7" /><circle cx="331.33080324" cy="343.45773586" fill="rgb(0%,0%,100%)" r="0.7" /><circle cx="330.536501672" cy="346.314335063" fill="rgb(0%,0%,100%)" r="0.7" /><circle cx="328.726507188" cy="348.70067797" fill="rgb(0%,0%,100%)" r="0.7" /><circle cx="326.646254488" cy="350.861468077" fill="rgb(0%,0%,100%)" r="0.7" /><circle cx="324.458404676" cy="352.913841165" fill="rgb(0%,0%,100%)" r="0.7" /><circle cx="322.209234557" cy="354.898995115" fill="rgb(0%,0%,100%)" r="0.7" /><circle cx="319.919215446" cy="356.836920637" fill="rgb(0%,0%,100%)" r="0.7" /><circle cx="317.59937936" cy="358.739087674" fill="rgb(0%,0%,100%)" r="0.7" /><circle cx="315.25643695" cy="360.612732207" fill="rgb(0%,0%,100%)" r="0.7" /><circle cx="312.894771281" cy="362.462727293" fill="rgb(0%,0%,100%)" r="0.7" /><circle cx="310.51738434" cy="364.292479375" fill="rgb(0%,0%,100%)" r="0.7" /><circle cx="308.126377576" cy="366.104401321" fill="rgb(0%,0%,100%)" r="0.7" /><circle cx="305.72320136" cy="367.900154818" fill="rgb(0%,0%,100%)" r="0.7" /><circle cx="303.308747673" cy="369.680723367" fill="rgb(0%,0%,100%)" r="0.7" /><circle cx="300.883254275" cy="371.446205263" fill="rgb(0%,0%,100%)" r="0.7" /><circle cx="298.445" cy="373.194" fill="rgb(0%,0%,100%)" r="0.7" /></svg>