<?xml version="1.0" encoding="utf-8" ?>
<svg baseProfile="full" height="100%" version="1.1" width="100%" xmlns="http://www.w3.org/2000/svg" xmlns:ev="http://www.w3.org/2001/xml-events" xmlns:xlink="http://www.w3.org/1999/xlink"><defs /><circle cx="289.788221035" cy="321.840964588" fill="rgb(100%,0%,0%)" r="0.7" /><circle cx="286.902122588" cy="322.615465961" fill="rgb(100%,0%,0%)" r="0.7" /><circle cx="284.27226219" cy="324.049789626" fill="rgb(100%,0%,0%)" r="0.7" /><circle cx="281.904528852" cy="325.888180095" fill="rgb(100%,0%,0%)" r="0.7" /><circle cx="279.708722284" cy="327.928399011" fill="rgb(100%,0%,0%)" r="0.7" /><circle cx="277.504007691" cy="329.961816235" fill="rgb(100%,0%,0%)" r="0.7" /><circle cx="275.433225275" cy="332.131988849" fill="rgb(100%,0%,0%)" r="0.7" /><circle cx="273.476430897" cy="334.405586112" fill="rgb(100%,0%,0%)" r="0.7" /><circle cx="271.626550661" cy="336.7670419" fill="rgb(100%,0%,0%)" r="0.7" /><circle cx="269.880211768" cy="339.206092909" fill="rgb(100%,0%,0%)" r="0.7" /><circle cx="268.235608308" cy="341.714890362" fill="rgb(100%,0%,0%)" r="0.7" /><circle cx="266.691691236" cy="344.286869787" fill="rgb(100%,0%,0%)" r="0.7" /><circle cx="265.247729555" cy="346.916295989" fill="rgb(100%,0%,0%)" r="0.7" /><circle cx="263.903131906" cy="349.597924761" fill="rgb(100%,0%,0%)" r="0.7" /><circle cx="262.657314503" cy="352.326840168" fill="rgb(100%,0%,0%)" r="0.7" /><circle cx="261.509586949" cy="355.098434933" fill="rgb(100%,0%,0%)" r="0.7" /><circle cx="260.45911655" cy="357.90834239" fill="rgb(100%,0%,0%)" r="0.7" /><circle cx="259.50490747" cy="360.752392992" fill="rgb(100%,0%,0%)" r="0.7" /><circle cx="258.645783649" cy="363.626609219" fill="rgb(100%,0%,0%)" r="0.7" /><circle cx="257.880384682" cy="366.527206451" fill="rgb(100%,0%,0%)" r="0.7" /><circle cx="257.207179492" cy="369.45055703" fill="rgb(100%,0%,0%)" r="0.7" /><circle cx="256.624453081" cy="372.393297983" fill="rgb(100%,0%,0%)" r="0.7" /><circle cx="256.130347487" cy="375.35224022" fill="rgb(100%,0%,0%)" r="0.7" /><circle cx="255.72288297" cy="378.3243164" fill="rgb(100%,0%,0%)" r="0.7" /><circle cx="255.399946025" cy="381.306803298" fill="rgb(100%,0%,0%)" r="0.7" /><circle cx="255.1593502" cy="384.297024029" fill="rgb(100%,0%,0%)" r="0.7" /><circle cx="254.998823344" cy="387.292650354" fill="rgb(100%,0%,0%)" r="0.7" /><circle cx="254.916051761" cy="390.2914119" fill="rgb(100%,0%,0%)" r="0.7" /><circle cx="254.908684017" cy="393.291339381" fill="rgb(100%,0%,0%)" r="0.7" /><circle cx="254.974354864" cy="396.290537648" fill="rgb(100%,0%,0%)" r="0.7" /><circle cx="255.110700086" cy="399.28738802" fill="rgb(100%,0%,0%)" r="0.7" /><circle cx="255.315365888" cy="402.280331403" fill="rgb(100%,0%,0%)" r="0.7" /><circle cx="255.586026664" cy="405.268030832" fill="rgb(100%,0%,0%)" r="0.7" /><circle cx="255.920394621" cy="408.249294549" fill="rgb(100%,0%,0%)" r="0.7" /><circle cx="256.316221835" cy="411.223020549" fill="rgb(100%,0%,0%)" r="0.7" /><circle cx="256.771309199" cy="414.18822635" fill="rgb(100%,0%,0%)" r="0.7" /><circle cx="257.283533867" cy="417.144160523" fill="rgb(100%,0%,0%)" r="0.7" /><circle cx="257.850804916" cy="420.089996976" fill="rgb(100%,0%,0%)" r="0.7" /><circle cx="258.471108291" cy="423.025092989" fill="rgb(100%,0%,0%)" r="0.7" /><circle cx="259.142516727" cy="425.948978382" fill="rgb(100%,0%,0%)" r="0.7" /><circle cx="259.86313296" cy="428.861091624" fill="rgb(100%,0%,0%)" r="0.7" /><circle cx="260.631162663" cy="431.761092044" fill="rgb(100%,0%,0%)" r="0.7" /><circle cx="261.4448533" cy="434.648598079" fill="rgb(100%,0%,0%)" r="0.7" /><circle cx="262.524622456" cy="435.19574843" fill="rgb(100%,0%,0%)" r="0.7" /><circle cx="289.788221035" cy="321.840964588" fill="rgb(0%,0%,100%)" r="0.7" /><circle cx="292.783382193" cy="321.867296792" fill="rgb(0%,0%,100%)" r="0.7" /><circle cx="295.672284234" cy="322.634697957" fill="rgb(0%,0%,100%)" r="0.7" /><circle cx="298.179633416" cy="324.257879737" fill="rgb(0%,0%,100%)" r="0.7" /><circle cx="300.08473963" cy="326.562638409" fill="rgb(0%,0%,100%)" r="0.7" /><circle cx="301.366360026" cy="329.2684572" fill="rgb(0%,0%,100%)" r="0.7" /><circle cx="302.148571314" cy="332.156934319" fill="rgb(0%,0%,100%)" r="0.7" /><circle cx="303.119622942" cy="334.993672768" fill="rgb(0%,0%,100%)" r="0.7" /><circle cx="303.631754404" cy="337.943810944" fill="rgb(0%,0%,100%)" r="0.7" /><circle cx="303.130950468" cy="340.867026838" fill="rgb(0%,0%,100%)" r="0.7" /><circle cx="300.963484057" cy="342.891378961" fill="rgb(0%,0%,100%)" r="0.7" /><circle cx="298.655117771" cy="344.807480495" fill="rgb(0%,0%,100%)" r="0.7" /><circle cx="296.346751484" cy="346.723582028" fill="rgb(0%,0%,100%)" r="0.7" /><circle cx="294.038385197" cy="348.639683562" fill="rgb(0%,0%,100%)" r="0.7" /><circle cx="291.767231165" cy="350.598873638" fill="rgb(0%,0%,100%)" r="0.7" /><circle cx="289.632368711" cy="352.705811351" fill="rgb(0%,0%,100%)" r="0.7" /><circle cx="287.641017195" cy="354.9488354" fill="rgb(0%,0%,100%)" r="0.7" /><circle cx="285.803500317" cy="357.319535699" fill="rgb(0%,0%,100%)" r="0.7" /><circle cx="284.127737168" cy="359.80720481" fill="rgb(0%,0%,100%)" r="0.7" /><circle cx="282.61879622" cy="362.399489179" fill="rgb(0%,0%,100%)" r="0.7" /><circle cx="281.278808676" cy="365.083041551" fill="rgb(0%,0%,100%)" r="0.7" /><circle cx="280.107091206" cy="367.844263292" fill="rgb(0%,0%,100%)" r="0.7" /><circle cx="279.100510376" cy="370.669912177" fill="rgb(0%,0%,100%)" r="0.7" /><circle cx="278.253957751" cy="373.547606633" fill="rgb(0%,0%,100%)" r="0.7" /><circle cx="277.560889028" cy="376.46611353" fill="rgb(0%,0%,100%)" r="0.7" /><circle cx="277.0138257" cy="379.415517534" fill="rgb(0%,0%,100%)" r="0.7" /><circle cx="276.604796834" cy="382.387246735" fill="rgb(0%,0%,100%)" r="0.7" /><circle cx="276.325693238" cy="385.374013388" fill="rgb(0%,0%,100%)" r="0.7" /><circle cx="276.168533862" cy="388.369700764" fill="rgb(0%,0%,100%)" r="0.7" /><circle cx="276.125653742" cy="391.369221411" fill="rgb(0%,0%,100%)" r="0.7" /><circle cx="276.189828266" cy="394.368390718" fill="rgb(0%,0%,100%)" r="0.7" /><circle cx="276.3543485" cy="397.363745778" fill="rgb(0%,0%,100%)" r="0.7" /><circle cx="276.613061771" cy="400.352449422" fill="rgb(0%,0%,100%)" r="0.7" /><circle cx="276.960391598" cy="403.332169651" fill="rgb(0%,0%,100%)" r="0.7" /><circle cx="277.391344098" cy="406.300968324" fill="rgb(0%,0%,100%)" r="0.7" /><circle cx="277.901507007" cy="409.257184577" fill="rgb(0%,0%,100%)" r="0.7" /><circle cx="278.487067657" cy="412.199404537" fill="rgb(0%,0%,100%)" r="0.7" /><circle cx="279.144832584" cy="415.126332641" fill="rgb(0%,0%,100%)" r="0.7" /><circle cx="279.872293285" cy="418.036730445" fill="rgb(0%,0%,100%)" r="0.7" /><circle cx="280.667748092" cy="420.929281957" fill="rgb(0%,0%,100%)" r="0.7" /><circle cx="281.530581008" cy="423.802460753" fill="rgb(0%,0%,100%)" r="0.7" /><circle cx="282.461870992" cy="426.654150615" fill="rgb(0%,0%,100%)" r="0.7" /><circle cx="283.466262983" cy="429.480948839" fill="rgb(0%,0%,100%)" r="0.7" /><circle cx="284.563" cy="432.273" fill="rgb(0%,0%,100%)" r="0.7" /><circle cx="283.036491347" cy="431.724434474" fill="rgb(0%,0%,100%)" r="0.7" /><circle cx="280.213253353" cy="430.709876821" fill="rgb(0%,0%,100%)" r="0.7" /><circle cx="277.390015359" cy="429.695319169" fill="rgb(0%,0%,100%)" r="0.7" /><circle cx="274.566777365" cy="428.680761516" fill="rgb(0%,0%,100%)" r="0.7" /><circle cx="271.743539371" cy="427.666203864" fill="rgb(0%,0%,100%)" r="0.7" /><circle cx="268.920301378" cy="426.651646211" fill="rgb(0%,0%,100%)" r="0.7" /><circle cx="266.716725149" cy="427.231686966" fill="rgb(0%,0%,100%)" r="0.7" /><circle cx="265.319357585" cy="429.886374121" fill="rgb(0%,0%,100%)" r="0.7" /><circle cx="263.92199002" cy="432.541061275" fill="rgb(0%,0%,100%)" r="0.7" /><circle cx="262.524622456" cy="435.19574843" fill="rgb(0%,0%,100%)" r="0.7" /></svg>