<?xml version="1.0" encoding="utf-8" ?>
<svg baseProfile="full" height="100%" version="1.1" width="100%" xmlns="http://www.w3.org/2000/svg" xmlns:ev="http://www.w3.org/2001/xml-events" xmlns:xlink="http://www.w3.org/1999/xlink"><defs /><circle cx="320.435277667" cy="306.241551977" fill="rgb(100%,0%,0%)" r="0.7" /><circle cx="317.488203132" cy="306.500875685" fill="rgb(100%,0%,0%)" r="0.7" /><circle cx="315.422211653" cy="308.577185093" fill="rgb(100%,0%,0%)" r="0.7" /><circle cx="314.95619323" cy="311.521905654" fill="rgb(100%,0%,0%)" r="0.7" /><circle cx="315.261214965" cy="314.502670377" fill="rgb(100%,0%,0%)" r="0.7" /><circle cx="315.954461483" cy="317.420183534" fill="rgb(100%,0%,0%)" r="0.7" /><circle cx="316.781212353" cy="320.300331428" fill="rgb(100%,0%,0%)" r="0.7" /><circle cx="316.862246572" cy="323.293281504" fill="rgb(100%,0%,0%)" r="0.7" /><circle cx="316.450107532" cy="326.262800673" fill="rgb(100%,0%,0%)" r="0.7" /><circle cx="315.723796176" cy="329.172510781" fill="rgb(100%,0%,0%)" r="0.7" /><circle cx="314.770968782" cy="332.016549522" fill="rgb(100%,0%,0%)" r="0.7" /><circle cx="313.644777275" cy="334.796730196" fill="rgb(100%,0%,0%)" r="0.7" /><circle cx="312.380656089" cy="337.517106986" fill="rgb(100%,0%,0%)" r="0.7" /><circle cx="311.00366625" cy="340.182209376" fill="rgb(100%,0%,0%)" r="0.7" /><circle cx="309.544361878" cy="342.803297677" fill="rgb(100%,0%,0%)" r="0.7" /><circle cx="308.036912797" cy="345.39699171" fill="rgb(100%,0%,0%)" r="0.7" /><circle cx="306.482739316" cy="347.962990447" fill="rgb(100%,0%,0%)" r="0.7" /><circle cx="304.889760372" cy="350.505088803" fill="rgb(100%,0%,0%)" r="0.7" /><circle cx="303.260957643" cy="353.024397182" fill="rgb(100%,0%,0%)" r="0.7" /><circle cx="301.597707369" cy="355.521078502" fill="rgb(100%,0%,0%)" r="0.7" /><circle cx="299.900544922" cy="357.994848821" fill="rgb(100%,0%,0%)" r="0.7" /><circle cx="298.169540002" cy="360.44504705" fill="rgb(100%,0%,0%)" r="0.7" /><circle cx="296.404402201" cy="362.870769544" fill="rgb(100%,0%,0%)" r="0.7" /><circle cx="294.604581812" cy="365.270867708" fill="rgb(100%,0%,0%)" r="0.7" /><circle cx="292.769305628" cy="367.64396844" fill="rgb(100%,0%,0%)" r="0.7" /><circle cx="290.897615268" cy="369.988452718" fill="rgb(100%,0%,0%)" r="0.7" /><circle cx="288.988376082" cy="372.30244932" fill="rgb(100%,0%,0%)" r="0.7" /><circle cx="287.0402725" cy="374.583826597" fill="rgb(100%,0%,0%)" r="0.7" /><circle cx="285.051838971" cy="376.830129126" fill="rgb(100%,0%,0%)" r="0.7" /><circle cx="283.021437909" cy="379.038566948" fill="rgb(100%,0%,0%)" r="0.7" /><circle cx="280.947277879" cy="381.20594791" fill="rgb(100%,0%,0%)" r="0.7" /><circle cx="278.827405366" cy="383.328631" fill="rgb(100%,0%,0%)" r="0.7" /><circle cx="276.665297199" cy="385.408292209" fill="rgb(100%,0%,0%)" r="0.7" /><circle cx="274.493265241" cy="387.477662458" fill="rgb(100%,0%,0%)" r="0.7" /><circle cx="272.312096942" cy="389.537398919" fill="rgb(100%,0%,0%)" r="0.7" /><circle cx="270.12290504" cy="391.588599734" fill="rgb(100%,0%,0%)" r="0.7" /><circle cx="267.925838713" cy="393.631375629" fill="rgb(100%,0%,0%)" r="0.7" /><circle cx="265.720714328" cy="395.665441277" fill="rgb(100%,0%,0%)" r="0.7" /><circle cx="263.507108385" cy="397.690265706" fill="rgb(100%,0%,0%)" r="0.7" /><circle cx="261.284388894" cy="399.705088852" fill="rgb(100%,0%,0%)" r="0.7" /><circle cx="259.051720111" cy="401.708882417" fill="rgb(100%,0%,0%)" r="0.7" /><circle cx="256.808011557" cy="403.700301262" fill="rgb(100%,0%,0%)" r="0.7" /><circle cx="254.551840394" cy="405.677588835" fill="rgb(100%,0%,0%)" r="0.7" /><circle cx="252.281343851" cy="407.638407562" fill="rgb(100%,0%,0%)" r="0.7" /><circle cx="249.994029459" cy="409.579572795" fill="rgb(100%,0%,0%)" r="0.7" /><circle cx="247.686447227" cy="411.496599076" fill="rgb(100%,0%,0%)" r="0.7" /><circle cx="245.353641122" cy="413.382825168" fill="rgb(100%,0%,0%)" r="0.7" /><circle cx="242.98801003" cy="415.227680284" fill="rgb(100%,0%,0%)" r="0.7" /><circle cx="240.57686365" cy="417.012528766" fill="rgb(100%,0%,0%)" r="0.7" /><circle cx="241.346200724" cy="416.987819607" fill="rgb(100%,0%,0%)" r="0.7" /><circle cx="244.130002863" cy="415.869586334" fill="rgb(100%,0%,0%)" r="0.7" /><circle cx="246.913805002" cy="414.751353062" fill="rgb(100%,0%,0%)" r="0.7" /><circle cx="249.697607141" cy="413.63311979" fill="rgb(100%,0%,0%)" r="0.7" /><circle cx="252.48140928" cy="412.514886518" fill="rgb(100%,0%,0%)" r="0.7" /><circle cx="255.265211419" cy="411.396653246" fill="rgb(100%,0%,0%)" r="0.7" /><circle cx="258.049013558" cy="410.278419974" fill="rgb(100%,0%,0%)" r="0.7" /><circle cx="260.832815697" cy="409.160186701" fill="rgb(100%,0%,0%)" r="0.7" /><circle cx="260.35194028" cy="411.371953736" fill="rgb(100%,0%,0%)" r="0.7" /><circle cx="259.289070213" cy="414.17736052" fill="rgb(100%,0%,0%)" r="0.7" /><circle cx="258.226200146" cy="416.982767303" fill="rgb(100%,0%,0%)" r="0.7" /><circle cx="257.163330079" cy="419.788174087" fill="rgb(100%,0%,0%)" r="0.7" /><circle cx="256.100460012" cy="422.59358087" fill="rgb(100%,0%,0%)" r="0.7" /><circle cx="255.037589945" cy="425.398987653" fill="rgb(100%,0%,0%)" r="0.7" /><circle cx="253.974719879" cy="428.204394437" fill="rgb(100%,0%,0%)" r="0.7" /><circle cx="252.911849812" cy="431.00980122" fill="rgb(100%,0%,0%)" r="0.7" /><circle cx="251.848979745" cy="433.815208004" fill="rgb(100%,0%,0%)" r="0.7" /><circle cx="250.786109678" cy="436.620614787" fill="rgb(100%,0%,0%)" r="0.7" /><circle cx="249.846" cy="439.102" fill="rgb(100%,0%,0%)" r="0.7" /><circle cx="320.435277667" cy="306.241551977" fill="rgb(0%,0%,100%)" r="0.7" /><circle cx="323.293356118" cy="307.128504591" fill="rgb(0%,0%,100%)" r="0.7" /><circle cx="325.956228694" cy="308.505907748" fill="rgb(0%,0%,100%)" r="0.7" /><circle cx="328.469418259" cy="310.142722555" fill="rgb(0%,0%,100%)" r="0.7" /><circle cx="330.866608953" cy="311.945767446" fill="rgb(0%,0%,100%)" r="0.7" /><circle cx="333.164321609" cy="313.87413774" fill="rgb(0%,0%,100%)" r="0.7" /><circle cx="335.129755744" cy="316.095706187" fill="rgb(0%,0%,100%)" r="0.7" /><circle cx="335.521687283" cy="319.049052138" fill="rgb(0%,0%,100%)" r="0.7" /><circle cx="335.164526539" cy="322.024890745" fill="rgb(0%,0%,100%)" r="0.7" /><circle cx="334.482982366" cy="324.945630068" fill="rgb(0%,0%,100%)" r="0.7" /><circle cx="333.614815611" cy="327.816915128" fill="rgb(0%,0%,100%)" r="0.7" /><circle cx="332.620542767" cy="330.647172447" fill="rgb(0%,0%,100%)" r="0.7" /><circle cx="331.53121908" cy="333.442288357" fill="rgb(0%,0%,100%)" r="0.7" /><circle cx="330.362520858" cy="336.205182419" fill="rgb(0%,0%,100%)" r="0.7" /><circle cx="329.131421785" cy="338.940704957" fill="rgb(0%,0%,100%)" r="0.7" /><circle cx="327.933529425" cy="341.691135501" fill="rgb(0%,0%,100%)" r="0.7" /><circle cx="326.69358383" cy="344.422862751" fill="rgb(0%,0%,100%)" r="0.7" /><circle cx="325.412678268" cy="347.135638207" fill="rgb(0%,0%,100%)" r="0.7" /><circle cx="324.091899722" cy="349.829219421" fill="rgb(0%,0%,100%)" r="0.7" /><circle cx="322.732302952" cy="352.50341883" fill="rgb(0%,0%,100%)" r="0.7" /><circle cx="321.334922499" cy="355.158071866" fill="rgb(0%,0%,100%)" r="0.7" /><circle cx="319.9007674" cy="357.793042611" fill="rgb(0%,0%,100%)" r="0.7" /><circle cx="318.430825679" cy="360.408211252" fill="rgb(0%,0%,100%)" r="0.7" /><circle cx="316.926048246" cy="363.00349879" fill="rgb(0%,0%,100%)" r="0.7" /><circle cx="315.387365611" cy="365.57883327" fill="rgb(0%,0%,100%)" r="0.7" /><circle cx="313.815681199" cy="368.13415921" fill="rgb(0%,0%,100%)" r="0.7" /><circle cx="312.211867542" cy="370.669440914" fill="rgb(0%,0%,100%)" r="0.7" /><circle cx="310.57676717" cy="373.184658038" fill="rgb(0%,0%,100%)" r="0.7" /><circle cx="308.911187514" cy="375.679810601" fill="rgb(0%,0%,100%)" r="0.7" /><circle cx="307.215927124" cy="378.154877971" fill="rgb(0%,0%,100%)" r="0.7" /><circle cx="305.491727733" cy="380.609888" fill="rgb(0%,0%,100%)" r="0.7" /><circle cx="303.739327657" cy="383.044836972" fill="rgb(0%,0%,100%)" r="0.7" /><circle cx="301.959417367" cy="385.459751707" fill="rgb(0%,0%,100%)" r="0.7" /><circle cx="300.15266148" cy="387.854655905" fill="rgb(0%,0%,100%)" r="0.7" /><circle cx="298.319702024" cy="390.229564706" fill="rgb(0%,0%,100%)" r="0.7" /><circle cx="296.461155269" cy="392.584487688" fill="rgb(0%,0%,100%)" r="0.7" /><circle cx="294.577584973" cy="394.919460022" fill="rgb(0%,0%,100%)" r="0.7" /><circle cx="292.669549668" cy="397.234480373" fill="rgb(0%,0%,100%)" r="0.7" /><circle cx="290.737566094" cy="399.52955449" fill="rgb(0%,0%,100%)" r="0.7" /><circle cx="288.78212036" cy="401.804677908" fill="rgb(0%,0%,100%)" r="0.7" /><circle cx="286.803673968" cy="404.059825704" fill="rgb(0%,0%,100%)" r="0.7" /><circle cx="284.802662129" cy="406.294951017" fill="rgb(0%,0%,100%)" r="0.7" /><circle cx="282.779442008" cy="408.510036821" fill="rgb(0%,0%,100%)" r="0.7" /><circle cx="280.734406066" cy="410.704964624" fill="rgb(0%,0%,100%)" r="0.7" /><circle cx="278.667840363" cy="412.879662084" fill="rgb(0%,0%,100%)" r="0.7" /><circle cx="276.580048912" cy="415.033959277" fill="rgb(0%,0%,100%)" r="0.7" /><circle cx="274.471235034" cy="417.167701291" fill="rgb(0%,0%,100%)" r="0.7" /><circle cx="272.341579422" cy="419.280649915" fill="rgb(0%,0%,100%)" r="0.7" /><circle cx="270.191217207" cy="421.37248692" fill="rgb(0%,0%,100%)" r="0.7" /><circle cx="268.020156739" cy="423.442862139" fill="rgb(0%,0%,100%)" r="0.7" /><circle cx="265.828361385" cy="425.491269783" fill="rgb(0%,0%,100%)" r="0.7" /><circle cx="263.615653262" cy="427.517076203" fill="rgb(0%,0%,100%)" r="0.7" /><circle cx="261.381720299" cy="429.519411309" fill="rgb(0%,0%,100%)" r="0.7" /><circle cx="259.125946689" cy="431.497149912" fill="rgb(0%,0%,100%)" r="0.7" /><circle cx="256.847402079" cy="433.448602426" fill="rgb(0%,0%,100%)" r="0.7" /><circle cx="254.544446872" cy="435.37117886" fill="rgb(0%,0%,100%)" r="0.7" /><circle cx="252.213933867" cy="437.260180061" fill="rgb(0%,0%,100%)" r="0.7" /><circle cx="249.846" cy="439.102" fill="rgb(0%,0%,100%)" r="0.7" /></svg>