<?xml version="1.0" encoding="utf-8" ?>
<svg baseProfile="full" height="100%" version="1.1" width="100%" xmlns="http://www.w3.org/2000/svg" xmlns:ev="http://www.w3.org/2001/xml-events" xmlns:xlink="http://www.w3.org/1999/xlink"><defs /><circle cx="296.895972824" cy="335.682613312" fill="rgb(100%,0%,0%)" r="0.7" /><circle cx="293.903148467" cy="335.798644042" fill="rgb(100%,0%,0%)" r="0.7" /><circle cx="291.031054464" cy="336.628399593" fill="rgb(100%,0%,0%)" r="0.7" /><circle cx="288.582335705" cy="338.334150156" fill="rgb(100%,0%,0%)" r="0.7" /><circle cx="286.846458809" cy="340.765673945" fill="rgb(100%,0%,0%)" r="0.7" /><circle cx="285.815898599" cy="343.576558112" fill="rgb(100%,0%,0%)" r="0.7" /><circle cx="285.455472498" cy="346.540393392" fill="rgb(100%,0%,0%)" r="0.7" /><circle cx="285.325181515" cy="349.537266388" fill="rgb(100%,0%,0%)" r="0.7" /><circle cx="285.068233021" cy="352.526057008" fill="rgb(100%,0%,0%)" r="0.7" /><circle cx="284.700655725" cy="355.503297265" fill="rgb(100%,0%,0%)" r="0.7" /><circle cx="284.227601412" cy="358.46560797" fill="rgb(100%,0%,0%)" r="0.7" /><circle cx="283.650460079" cy="361.409407098" fill="rgb(100%,0%,0%)" r="0.7" /><circle cx="282.968746792" cy="364.330760251" fill="rgb(100%,0%,0%)" r="0.7" /><circle cx="282.180889135" cy="367.225281136" fill="rgb(100%,0%,0%)" r="0.7" /><circle cx="281.284642753" cy="370.088085015" fill="rgb(100%,0%,0%)" r="0.7" /><circle cx="280.277370872" cy="372.913722702" fill="rgb(100%,0%,0%)" r="0.7" /><circle cx="279.156265077" cy="375.696137631" fill="rgb(100%,0%,0%)" r="0.7" /><circle cx="277.918541962" cy="378.428653777" fill="rgb(100%,0%,0%)" r="0.7" /><circle cx="276.561645235" cy="381.103972431" fill="rgb(100%,0%,0%)" r="0.7" /><circle cx="275.083455908" cy="383.714205207" fill="rgb(100%,0%,0%)" r="0.7" /><circle cx="273.482499277" cy="386.250968357" fill="rgb(100%,0%,0%)" r="0.7" /><circle cx="271.715505318" cy="388.671007355" fill="rgb(100%,0%,0%)" r="0.7" /><circle cx="269.709783746" cy="390.901932444" fill="rgb(100%,0%,0%)" r="0.7" /><circle cx="267.689985312" cy="393.120134078" fill="rgb(100%,0%,0%)" r="0.7" /><circle cx="265.655823278" cy="395.325162346" fill="rgb(100%,0%,0%)" r="0.7" /><circle cx="263.604931474" cy="397.514636475" fill="rgb(100%,0%,0%)" r="0.7" /><circle cx="261.532931708" cy="399.684137407" fill="rgb(100%,0%,0%)" r="0.7" /><circle cx="259.431887088" cy="401.825496289" fill="rgb(100%,0%,0%)" r="0.7" /><circle cx="257.285456941" cy="403.921269279" fill="rgb(100%,0%,0%)" r="0.7" /><circle cx="255.0476687" cy="405.918396313" fill="rgb(100%,0%,0%)" r="0.7" /><circle cx="253.0589238" cy="408.163706051" fill="rgb(100%,0%,0%)" r="0.7" /><circle cx="251.08563888" cy="410.423386513" fill="rgb(100%,0%,0%)" r="0.7" /><circle cx="249.122413013" cy="412.691804325" fill="rgb(100%,0%,0%)" r="0.7" /><circle cx="247.170344817" cy="414.969838053" fill="rgb(100%,0%,0%)" r="0.7" /><circle cx="245.231614296" cy="417.259225642" fill="rgb(100%,0%,0%)" r="0.7" /><circle cx="243.309879153" cy="419.562895545" fill="rgb(100%,0%,0%)" r="0.7" /><circle cx="241.411562544" cy="421.885886503" fill="rgb(100%,0%,0%)" r="0.7" /><circle cx="239.549473756" cy="424.237983927" fill="rgb(100%,0%,0%)" r="0.7" /><circle cx="237.757328302" cy="426.64355461" fill="rgb(100%,0%,0%)" r="0.7" /><circle cx="236.680898792" cy="428.834340143" fill="rgb(100%,0%,0%)" r="0.7" /><circle cx="239.53518812" cy="427.910742593" fill="rgb(100%,0%,0%)" r="0.7" /><circle cx="242.389477447" cy="426.987145043" fill="rgb(100%,0%,0%)" r="0.7" /><circle cx="245.243766775" cy="426.063547493" fill="rgb(100%,0%,0%)" r="0.7" /><circle cx="247.51990346" cy="426.585805661" fill="rgb(100%,0%,0%)" r="0.7" /><circle cx="248.950435204" cy="429.222769622" fill="rgb(100%,0%,0%)" r="0.7" /><circle cx="250.380966948" cy="431.859733582" fill="rgb(100%,0%,0%)" r="0.7" /><circle cx="251.811498692" cy="434.496697543" fill="rgb(100%,0%,0%)" r="0.7" /><circle cx="253.242030436" cy="437.133661503" fill="rgb(100%,0%,0%)" r="0.7" /><circle cx="253.348" cy="437.329" fill="rgb(100%,0%,0%)" r="0.7" /><circle cx="296.895972824" cy="335.682613312" fill="rgb(0%,0%,100%)" r="0.7" /><circle cx="299.870003636" cy="336.058787769" fill="rgb(0%,0%,100%)" r="0.7" /><circle cx="302.782886013" cy="336.771652121" fill="rgb(0%,0%,100%)" r="0.7" /><circle cx="305.626521991" cy="337.725480288" fill="rgb(0%,0%,100%)" r="0.7" /><circle cx="308.402658524" cy="338.861516108" fill="rgb(0%,0%,100%)" r="0.7" /><circle cx="311.114672164" cy="340.143392248" fill="rgb(0%,0%,100%)" r="0.7" /><circle cx="313.764067284" cy="341.550234969" fill="rgb(0%,0%,100%)" r="0.7" /><circle cx="316.343972099" cy="343.080591751" fill="rgb(0%,0%,100%)" r="0.7" /><circle cx="318.596789429" cy="345.05112307" fill="rgb(0%,0%,100%)" r="0.7" /><circle cx="320.266716306" cy="347.529492906" fill="rgb(0%,0%,100%)" r="0.7" /><circle cx="321.006345994" cy="350.419232348" fill="rgb(0%,0%,100%)" r="0.7" /><circle cx="320.683834227" cy="353.387764449" fill="rgb(0%,0%,100%)" r="0.7" /><circle cx="319.496887488" cy="356.132993471" fill="rgb(0%,0%,100%)" r="0.7" /><circle cx="317.755860236" cy="358.574964605" fill="rgb(0%,0%,100%)" r="0.7" /><circle cx="315.985728656" cy="360.997078183" fill="rgb(0%,0%,100%)" r="0.7" /><circle cx="314.215597076" cy="363.419191762" fill="rgb(0%,0%,100%)" r="0.7" /><circle cx="312.445465496" cy="365.841305341" fill="rgb(0%,0%,100%)" r="0.7" /><circle cx="310.675333916" cy="368.26341892" fill="rgb(0%,0%,100%)" r="0.7" /><circle cx="308.905202336" cy="370.685532499" fill="rgb(0%,0%,100%)" r="0.7" /><circle cx="307.135070756" cy="373.107646078" fill="rgb(0%,0%,100%)" r="0.7" /><circle cx="305.364939176" cy="375.529759657" fill="rgb(0%,0%,100%)" r="0.7" /><circle cx="303.594807596" cy="377.951873236" fill="rgb(0%,0%,100%)" r="0.7" /><circle cx="301.824676016" cy="380.373986815" fill="rgb(0%,0%,100%)" r="0.7" /><circle cx="300.054544436" cy="382.796100394" fill="rgb(0%,0%,100%)" r="0.7" /><circle cx="298.370553348" cy="385.277803585" fill="rgb(0%,0%,100%)" r="0.7" /><circle cx="296.701106127" cy="387.770360028" fill="rgb(0%,0%,100%)" r="0.7" /><circle cx="295.000369001" cy="390.24167081" fill="rgb(0%,0%,100%)" r="0.7" /><circle cx="293.269437495" cy="392.691930541" fill="rgb(0%,0%,100%)" r="0.7" /><circle cx="291.509341568" cy="395.12131814" fill="rgb(0%,0%,100%)" r="0.7" /><circle cx="289.721027714" cy="397.53002212" fill="rgb(0%,0%,100%)" r="0.7" /><circle cx="287.905392498" cy="399.918194487" fill="rgb(0%,0%,100%)" r="0.7" /><circle cx="286.063254195" cy="402.285988436" fill="rgb(0%,0%,100%)" r="0.7" /><circle cx="284.195376495" cy="404.633524986" fill="rgb(0%,0%,100%)" r="0.7" /><circle cx="282.302448155" cy="406.960915867" fill="rgb(0%,0%,100%)" r="0.7" /><circle cx="280.385100238" cy="409.268236713" fill="rgb(0%,0%,100%)" r="0.7" /><circle cx="278.443904445" cy="411.555522995" fill="rgb(0%,0%,100%)" r="0.7" /><circle cx="276.479356488" cy="413.822780092" fill="rgb(0%,0%,100%)" r="0.7" /><circle cx="274.491880536" cy="416.069963901" fill="rgb(0%,0%,100%)" r="0.7" /><circle cx="272.481811028" cy="418.296982013" fill="rgb(0%,0%,100%)" r="0.7" /><circle cx="270.449421975" cy="420.503634181" fill="rgb(0%,0%,100%)" r="0.7" /><circle cx="268.394860833" cy="422.689645934" fill="rgb(0%,0%,100%)" r="0.7" /><circle cx="266.318127788" cy="424.854628443" fill="rgb(0%,0%,100%)" r="0.7" /><circle cx="264.219080847" cy="426.997977839" fill="rgb(0%,0%,100%)" r="0.7" /><circle cx="262.097320256" cy="429.118834017" fill="rgb(0%,0%,100%)" r="0.7" /><circle cx="259.95205197" cy="431.215916007" fill="rgb(0%,0%,100%)" r="0.7" /><circle cx="257.781817459" cy="433.287141433" fill="rgb(0%,0%,100%)" r="0.7" /><circle cx="255.583644594" cy="435.32865352" fill="rgb(0%,0%,100%)" r="0.7" /><circle cx="253.348" cy="437.329" fill="rgb(0%,0%,100%)" r="0.7" /></svg>