<?xml version="1.0" encoding="utf-8" ?>
<svg baseProfile="full" height="100%" version="1.1" width="100%" xmlns="http://www.w3.org/2000/svg" xmlns:ev="http://www.w3.org/2001/xml-events" xmlns:xlink="http://www.w3.org/1999/xlink"><defs /><circle cx="293.522276169" cy="295.539282698" fill="rgb(100%,0%,0%)" r="0.7" /><circle cx="290.724969779" cy="296.202209415" fill="rgb(100%,0%,0%)" r="0.7" /><circle cx="288.668352365" cy="298.355249772" fill="rgb(100%,0%,0%)" r="0.7" /><circle cx="287.446228115" cy="301.085403704" fill="rgb(100%,0%,0%)" r="0.7" /><circle cx="286.820935967" cy="304.016044665" fill="rgb(100%,0%,0%)" r="0.7" /><circle cx="286.595064204" cy="307.006029679" fill="rgb(100%,0%,0%)" r="0.7" /><circle cx="286.520962291" cy="310.005058137" fill="rgb(100%,0%,0%)" r="0.7" /><circle cx="286.410687959" cy="313.003017502" fill="rgb(100%,0%,0%)" r="0.7" /><circle cx="286.272317983" cy="315.999817545" fill="rgb(100%,0%,0%)" r="0.7" /><circle cx="286.108197568" cy="318.99533067" fill="rgb(100%,0%,0%)" r="0.7" /><circle cx="285.91916949" cy="321.989363691" fill="rgb(100%,0%,0%)" r="0.7" /><circle cx="285.705370346" cy="324.981716902" fill="rgb(100%,0%,0%)" r="0.7" /><circle cx="285.466498948" cy="327.972195597" fill="rgb(100%,0%,0%)" r="0.7" /><circle cx="285.20193914" cy="330.960493645" fill="rgb(100%,0%,0%)" r="0.7" /><circle cx="284.910799922" cy="333.946320497" fill="rgb(100%,0%,0%)" r="0.7" /><circle cx="284.591939482" cy="336.929319303" fill="rgb(100%,0%,0%)" r="0.7" /><circle cx="284.243964795" cy="339.909057716" fill="rgb(100%,0%,0%)" r="0.7" /><circle cx="283.86521323" cy="342.885044804" fill="rgb(100%,0%,0%)" r="0.7" /><circle cx="283.453729985" cy="345.856673544" fill="rgb(100%,0%,0%)" r="0.7" /><circle cx="283.007222611" cy="348.823241735" fill="rgb(100%,0%,0%)" r="0.7" /><circle cx="282.523011707" cy="351.783885561" fill="rgb(100%,0%,0%)" r="0.7" /><circle cx="281.997957334" cy="354.73755607" fill="rgb(100%,0%,0%)" r="0.7" /><circle cx="281.428366794" cy="357.682957513" fill="rgb(100%,0%,0%)" r="0.7" /><circle cx="280.809872571" cy="360.618472011" fill="rgb(100%,0%,0%)" r="0.7" /><circle cx="280.137271872" cy="363.54205191" fill="rgb(100%,0%,0%)" r="0.7" /><circle cx="279.404310382" cy="366.4510773" fill="rgb(100%,0%,0%)" r="0.7" /><circle cx="278.603400448" cy="369.34211006" fill="rgb(100%,0%,0%)" r="0.7" /><circle cx="277.725221514" cy="372.21059309" fill="rgb(100%,0%,0%)" r="0.7" /><circle cx="276.75818816" cy="375.050313951" fill="rgb(100%,0%,0%)" r="0.7" /><circle cx="275.687700464" cy="377.852608973" fill="rgb(100%,0%,0%)" r="0.7" /><circle cx="274.495104483" cy="380.605058897" fill="rgb(100%,0%,0%)" r="0.7" /><circle cx="273.156299286" cy="383.28925465" fill="rgb(100%,0%,0%)" r="0.7" /><circle cx="274.34730091" cy="382.660328236" fill="rgb(100%,0%,0%)" r="0.7" /><circle cx="276.617704618" cy="380.699393" fill="rgb(100%,0%,0%)" r="0.7" /><circle cx="278.888108326" cy="378.738457763" fill="rgb(100%,0%,0%)" r="0.7" /><circle cx="281.158512034" cy="376.777522526" fill="rgb(100%,0%,0%)" r="0.7" /><circle cx="283.141683953" cy="375.93488099" fill="rgb(100%,0%,0%)" r="0.7" /><circle cx="284.186081234" cy="378.747217086" fill="rgb(100%,0%,0%)" r="0.7" /><circle cx="285.230478516" cy="381.559553183" fill="rgb(100%,0%,0%)" r="0.7" /><circle cx="286.274875797" cy="384.371889279" fill="rgb(100%,0%,0%)" r="0.7" /><circle cx="287.319273078" cy="387.184225375" fill="rgb(100%,0%,0%)" r="0.7" /><circle cx="288.363670359" cy="389.996561472" fill="rgb(100%,0%,0%)" r="0.7" /><circle cx="289.40806764" cy="392.808897568" fill="rgb(100%,0%,0%)" r="0.7" /><circle cx="289.521" cy="393.113" fill="rgb(100%,0%,0%)" r="0.7" /><circle cx="293.522276169" cy="295.539282698" fill="rgb(0%,0%,100%)" r="0.7" /><circle cx="295.950648477" cy="297.263409818" fill="rgb(0%,0%,100%)" r="0.7" /><circle cx="297.708243097" cy="299.685580801" fill="rgb(0%,0%,100%)" r="0.7" /><circle cx="298.987273313" cy="302.396487759" fill="rgb(0%,0%,100%)" r="0.7" /><circle cx="299.949334013" cy="305.236943107" fill="rgb(0%,0%,100%)" r="0.7" /><circle cx="300.690875886" cy="308.143324785" fill="rgb(0%,0%,100%)" r="0.7" /><circle cx="301.269976217" cy="311.086603838" fill="rgb(0%,0%,100%)" r="0.7" /><circle cx="301.723590197" cy="314.051935304" fill="rgb(0%,0%,100%)" r="0.7" /><circle cx="302.076494995" cy="317.030991001" fill="rgb(0%,0%,100%)" r="0.7" /><circle cx="302.346025836" cy="320.018778768" fill="rgb(0%,0%,100%)" r="0.7" /><circle cx="302.544699464" cy="323.012135196" fill="rgb(0%,0%,100%)" r="0.7" /><circle cx="302.68173723" cy="326.00895989" fill="rgb(0%,0%,100%)" r="0.7" /><circle cx="302.76396865" cy="329.007794644" fill="rgb(0%,0%,100%)" r="0.7" /><circle cx="302.796344773" cy="332.007587906" fill="rgb(0%,0%,100%)" r="0.7" /><circle cx="302.782136252" cy="335.007533179" fill="rgb(0%,0%,100%)" r="0.7" /><circle cx="302.722700215" cy="338.006921965" fill="rgb(0%,0%,100%)" r="0.7" /><circle cx="302.615900064" cy="341.004964874" fill="rgb(0%,0%,100%)" r="0.7" /><circle cx="302.445900433" cy="344.000057925" fill="rgb(0%,0%,100%)" r="0.7" /><circle cx="302.187091652" cy="346.988755854" fill="rgb(0%,0%,100%)" r="0.7" /><circle cx="301.840637856" cy="349.968585143" fill="rgb(0%,0%,100%)" r="0.7" /><circle cx="301.414400995" cy="352.938067996" fill="rgb(0%,0%,100%)" r="0.7" /><circle cx="300.915155257" cy="355.896166011" fill="rgb(0%,0%,100%)" r="0.7" /><circle cx="300.348742152" cy="358.842150068" fill="rgb(0%,0%,100%)" r="0.7" /><circle cx="299.720198709" cy="361.775511231" fill="rgb(0%,0%,100%)" r="0.7" /><circle cx="299.033860058" cy="364.695900164" fill="rgb(0%,0%,100%)" r="0.7" /><circle cx="298.293446438" cy="367.60305462" fill="rgb(0%,0%,100%)" r="0.7" /><circle cx="297.502121547" cy="370.496773014" fill="rgb(0%,0%,100%)" r="0.7" /><circle cx="296.662539314" cy="373.376855534" fill="rgb(0%,0%,100%)" r="0.7" /><circle cx="295.776849692" cy="376.243106469" fill="rgb(0%,0%,100%)" r="0.7" /><circle cx="294.846699134" cy="379.095238814" fill="rgb(0%,0%,100%)" r="0.7" /><circle cx="293.873153421" cy="381.932852981" fill="rgb(0%,0%,100%)" r="0.7" /><circle cx="292.856538614" cy="384.755317551" fill="rgb(0%,0%,100%)" r="0.7" /><circle cx="291.796029267" cy="387.561584098" fill="rgb(0%,0%,100%)" r="0.7" /><circle cx="290.688460559" cy="390.349601819" fill="rgb(0%,0%,100%)" r="0.7" /><circle cx="289.521" cy="393.113" fill="rgb(0%,0%,100%)" r="0.7" /></svg>