<?xml version="1.0" encoding="utf-8" ?>
<svg baseProfile="full" height="100%" version="1.1" width="100%" xmlns="http://www.w3.org/2000/svg" xmlns:ev="http://www.w3.org/2001/xml-events" xmlns:xlink="http://www.w3.org/1999/xlink"><defs /><circle cx="347.234688397" cy="327.647169992" fill="rgb(100%,0%,0%)" r="0.7" /><circle cx="344.239372861" cy="327.744526416" fill="rgb(100%,0%,0%)" r="0.7" /><circle cx="341.295301359" cy="328.305495715" fill="rgb(100%,0%,0%)" r="0.7" /><circle cx="338.468654404" cy="329.302436001" fill="rgb(100%,0%,0%)" r="0.7" /><circle cx="335.810675862" cy="330.688561975" fill="rgb(100%,0%,0%)" r="0.7" /><circle cx="333.351938208" cy="332.40424664" fill="rgb(100%,0%,0%)" r="0.7" /><circle cx="331.102987224" cy="334.387635586" fill="rgb(100%,0%,0%)" r="0.7" /><circle cx="329.059613141" cy="336.582708737" fill="rgb(100%,0%,0%)" r="0.7" /><circle cx="327.208981372" cy="338.942918277" fill="rgb(100%,0%,0%)" r="0.7" /><circle cx="325.501805561" cy="341.409543004" fill="rgb(100%,0%,0%)" r="0.7" /><circle cx="323.77832262" cy="343.865068723" fill="rgb(100%,0%,0%)" r="0.7" /><circle cx="322.05483968" cy="346.320594442" fill="rgb(100%,0%,0%)" r="0.7" /><circle cx="320.33135674" cy="348.77612016" fill="rgb(100%,0%,0%)" r="0.7" /><circle cx="318.6078738" cy="351.231645879" fill="rgb(100%,0%,0%)" r="0.7" /><circle cx="316.884390859" cy="353.687171597" fill="rgb(100%,0%,0%)" r="0.7" /><circle cx="315.160907919" cy="356.142697316" fill="rgb(100%,0%,0%)" r="0.7" /><circle cx="313.437424979" cy="358.598223034" fill="rgb(100%,0%,0%)" r="0.7" /><circle cx="311.713942038" cy="361.053748753" fill="rgb(100%,0%,0%)" r="0.7" /><circle cx="309.990459098" cy="363.509274471" fill="rgb(100%,0%,0%)" r="0.7" /><circle cx="308.266976158" cy="365.96480019" fill="rgb(100%,0%,0%)" r="0.7" /><circle cx="306.543493217" cy="368.420325909" fill="rgb(100%,0%,0%)" r="0.7" /><circle cx="304.820010277" cy="370.875851627" fill="rgb(100%,0%,0%)" r="0.7" /><circle cx="303.096527337" cy="373.331377346" fill="rgb(100%,0%,0%)" r="0.7" /><circle cx="301.373044396" cy="375.786903064" fill="rgb(100%,0%,0%)" r="0.7" /><circle cx="299.649561456" cy="378.242428783" fill="rgb(100%,0%,0%)" r="0.7" /><circle cx="297.926078516" cy="380.697954501" fill="rgb(100%,0%,0%)" r="0.7" /><circle cx="296.202595576" cy="383.15348022" fill="rgb(100%,0%,0%)" r="0.7" /><circle cx="294.479112635" cy="385.609005938" fill="rgb(100%,0%,0%)" r="0.7" /><circle cx="292.755629695" cy="388.064531657" fill="rgb(100%,0%,0%)" r="0.7" /><circle cx="291.032146755" cy="390.520057376" fill="rgb(100%,0%,0%)" r="0.7" /><circle cx="289.308663814" cy="392.975583094" fill="rgb(100%,0%,0%)" r="0.7" /><circle cx="287.585180874" cy="395.431108813" fill="rgb(100%,0%,0%)" r="0.7" /><circle cx="288.577262741" cy="395.508857645" fill="rgb(100%,0%,0%)" r="0.7" /><circle cx="291.238882918" cy="394.124741309" fill="rgb(100%,0%,0%)" r="0.7" /><circle cx="293.900503095" cy="392.740624973" fill="rgb(100%,0%,0%)" r="0.7" /><circle cx="296.562123272" cy="391.356508637" fill="rgb(100%,0%,0%)" r="0.7" /><circle cx="299.223743449" cy="389.9723923" fill="rgb(100%,0%,0%)" r="0.7" /><circle cx="301.885363627" cy="388.588275964" fill="rgb(100%,0%,0%)" r="0.7" /><circle cx="304.2902456" cy="387.721166932" fill="rgb(100%,0%,0%)" r="0.7" /><circle cx="304.796110259" cy="390.678209533" fill="rgb(100%,0%,0%)" r="0.7" /><circle cx="305.301974917" cy="393.635252135" fill="rgb(100%,0%,0%)" r="0.7" /><circle cx="305.807839576" cy="396.592294736" fill="rgb(100%,0%,0%)" r="0.7" /><circle cx="306.313704235" cy="399.549337338" fill="rgb(100%,0%,0%)" r="0.7" /><circle cx="306.819568894" cy="402.506379939" fill="rgb(100%,0%,0%)" r="0.7" /><circle cx="307.325433553" cy="405.463422541" fill="rgb(100%,0%,0%)" r="0.7" /><circle cx="307.831298212" cy="408.420465142" fill="rgb(100%,0%,0%)" r="0.7" /><circle cx="308.337162871" cy="411.377507744" fill="rgb(100%,0%,0%)" r="0.7" /><circle cx="308.729" cy="413.668" fill="rgb(100%,0%,0%)" r="0.7" /><circle cx="347.234688397" cy="327.647169992" fill="rgb(0%,0%,100%)" r="0.7" /><circle cx="350.206364747" cy="328.032061848" fill="rgb(0%,0%,100%)" r="0.7" /><circle cx="353.020228335" cy="329.039921985" fill="rgb(0%,0%,100%)" r="0.7" /><circle cx="355.673684026" cy="330.438641502" fill="rgb(0%,0%,100%)" r="0.7" /><circle cx="358.235532229" cy="331.998752273" fill="rgb(0%,0%,100%)" r="0.7" /><circle cx="360.691664513" cy="333.720434119" fill="rgb(0%,0%,100%)" r="0.7" /><circle cx="363.026856964" cy="335.602813786" fill="rgb(0%,0%,100%)" r="0.7" /><circle cx="365.224010729" cy="337.644529628" fill="rgb(0%,0%,100%)" r="0.7" /><circle cx="367.261944804" cy="339.845039185" fill="rgb(0%,0%,100%)" r="0.7" /><circle cx="369.107927756" cy="342.208527019" fill="rgb(0%,0%,100%)" r="0.7" /><circle cx="370.768730486" cy="344.702782876" fill="rgb(0%,0%,100%)" r="0.7" /><circle cx="372.435011903" cy="347.195579978" fill="rgb(0%,0%,100%)" r="0.7" /><circle cx="373.750451389" cy="349.888213341" fill="rgb(0%,0%,100%)" r="0.7" /><circle cx="374.516138379" cy="352.781722191" fill="rgb(0%,0%,100%)" r="0.7" /><circle cx="374.455160891" cy="355.768128795" fill="rgb(0%,0%,100%)" r="0.7" /><circle cx="373.387908076" cy="358.554936105" fill="rgb(0%,0%,100%)" r="0.7" /><circle cx="371.459317969" cy="360.837202635" fill="rgb(0%,0%,100%)" r="0.7" /><circle cx="368.992328565" cy="362.534597463" fill="rgb(0%,0%,100%)" r="0.7" /><circle cx="366.24846037" cy="363.723357684" fill="rgb(0%,0%,100%)" r="0.7" /><circle cx="363.290828976" cy="364.186103245" fill="rgb(0%,0%,100%)" r="0.7" /><circle cx="360.297294605" cy="364.05747841" fill="rgb(0%,0%,100%)" r="0.7" /><circle cx="357.356890759" cy="363.474346868" fill="rgb(0%,0%,100%)" r="0.7" /><circle cx="354.519609256" cy="362.507210195" fill="rgb(0%,0%,100%)" r="0.7" /><circle cx="351.672091111" cy="361.590006283" fill="rgb(0%,0%,100%)" r="0.7" /><circle cx="348.691189218" cy="361.610357721" fill="rgb(0%,0%,100%)" r="0.7" /><circle cx="346.082135879" cy="363.044829814" fill="rgb(0%,0%,100%)" r="0.7" /><circle cx="343.879648027" cy="365.077868092" fill="rgb(0%,0%,100%)" r="0.7" /><circle cx="341.911584896" cy="367.340953402" fill="rgb(0%,0%,100%)" r="0.7" /><circle cx="340.107602855" cy="369.73737393" fill="rgb(0%,0%,100%)" r="0.7" /><circle cx="338.343285585" cy="372.161088869" fill="rgb(0%,0%,100%)" r="0.7" /><circle cx="336.498135784" cy="374.526543162" fill="rgb(0%,0%,100%)" r="0.7" /><circle cx="334.673760922" cy="376.908057244" fill="rgb(0%,0%,100%)" r="0.7" /><circle cx="332.867206388" cy="379.303120309" fill="rgb(0%,0%,100%)" r="0.7" /><circle cx="331.076203154" cy="381.709838372" fill="rgb(0%,0%,100%)" r="0.7" /><circle cx="329.298971975" cy="384.126743294" fill="rgb(0%,0%,100%)" r="0.7" /><circle cx="327.534088604" cy="386.552681607" fill="rgb(0%,0%,100%)" r="0.7" /><circle cx="325.780404058" cy="388.986726662" fill="rgb(0%,0%,100%)" r="0.7" /><circle cx="324.03698078" cy="391.428131325" fill="rgb(0%,0%,100%)" r="0.7" /><circle cx="322.303052391" cy="393.876290115" fill="rgb(0%,0%,100%)" r="0.7" /><circle cx="320.57799506" cy="396.330715045" fill="rgb(0%,0%,100%)" r="0.7" /><circle cx="318.861319637" cy="398.791005498" fill="rgb(0%,0%,100%)" r="0.7" /><circle cx="317.152652396" cy="401.256856022" fill="rgb(0%,0%,100%)" r="0.7" /><circle cx="315.451733974" cy="403.728064384" fill="rgb(0%,0%,100%)" r="0.7" /><circle cx="313.758461373" cy="406.204518727" fill="rgb(0%,0%,100%)" r="0.7" /><circle cx="312.072938221" cy="408.686264974" fill="rgb(0%,0%,100%)" r="0.7" /><circle cx="310.395709718" cy="411.173601868" fill="rgb(0%,0%,100%)" r="0.7" /><circle cx="308.729" cy="413.668" fill="rgb(0%,0%,100%)" r="0.7" /></svg>