<?xml version="1.0" encoding="utf-8" ?>
<svg baseProfile="full" height="100%" version="1.1" width="100%" xmlns="http://www.w3.org/2000/svg" xmlns:ev="http://www.w3.org/2001/xml-events" xmlns:xlink="http://www.w3.org/1999/xlink"><defs /><circle cx="309.519962774" cy="322.591282843" fill="rgb(100%,0%,0%)" r="0.7" /><circle cx="306.535593797" cy="322.868353296" fill="rgb(100%,0%,0%)" r="0.7" /><circle cx="303.634989403" cy="323.618053535" fill="rgb(100%,0%,0%)" r="0.7" /><circle cx="300.973405623" cy="324.982610326" fill="rgb(100%,0%,0%)" r="0.7" /><circle cx="298.899785984" cy="327.124754839" fill="rgb(100%,0%,0%)" r="0.7" /><circle cx="297.840883913" cy="329.910117416" fill="rgb(100%,0%,0%)" r="0.7" /><circle cx="297.783952595" cy="332.900277982" fill="rgb(100%,0%,0%)" r="0.7" /><circle cx="298.075317635" cy="335.886008008" fill="rgb(100%,0%,0%)" r="0.7" /><circle cx="298.451423367" cy="338.862214619" fill="rgb(100%,0%,0%)" r="0.7" /><circle cx="298.941620138" cy="341.821606573" fill="rgb(100%,0%,0%)" r="0.7" /><circle cx="299.63447967" cy="344.739222631" fill="rgb(100%,0%,0%)" r="0.7" /><circle cx="300.71936681" cy="347.526209912" fill="rgb(100%,0%,0%)" r="0.7" /><circle cx="301.253239071" cy="350.474779329" fill="rgb(100%,0%,0%)" r="0.7" /><circle cx="301.429262162" cy="353.468655288" fill="rgb(100%,0%,0%)" r="0.7" /><circle cx="301.392253222" cy="356.468007567" fill="rgb(100%,0%,0%)" r="0.7" /><circle cx="301.20679013" cy="359.462038824" fill="rgb(100%,0%,0%)" r="0.7" /><circle cx="300.837104153" cy="362.438999381" fill="rgb(100%,0%,0%)" r="0.7" /><circle cx="300.404434537" cy="365.407611288" fill="rgb(100%,0%,0%)" r="0.7" /><circle cx="299.925860689" cy="368.369158234" fill="rgb(100%,0%,0%)" r="0.7" /><circle cx="299.405591483" cy="371.323675875" fill="rgb(100%,0%,0%)" r="0.7" /><circle cx="298.84538991" cy="374.270894539" fill="rgb(100%,0%,0%)" r="0.7" /><circle cx="298.245903208" cy="377.210362336" fill="rgb(100%,0%,0%)" r="0.7" /><circle cx="297.607112273" cy="380.141545212" fill="rgb(100%,0%,0%)" r="0.7" /><circle cx="296.92854877" cy="383.06377643" fill="rgb(100%,0%,0%)" r="0.7" /><circle cx="296.209395398" cy="385.976271897" fill="rgb(100%,0%,0%)" r="0.7" /><circle cx="295.448530624" cy="388.878158322" fill="rgb(100%,0%,0%)" r="0.7" /><circle cx="294.644572131" cy="391.76839626" fill="rgb(100%,0%,0%)" r="0.7" /><circle cx="293.795875176" cy="394.645815037" fill="rgb(100%,0%,0%)" r="0.7" /><circle cx="292.900541922" cy="397.509059697" fill="rgb(100%,0%,0%)" r="0.7" /><circle cx="291.956409328" cy="400.356582994" fill="rgb(100%,0%,0%)" r="0.7" /><circle cx="290.961040398" cy="403.186599823" fill="rgb(100%,0%,0%)" r="0.7" /><circle cx="289.911707532" cy="405.997046513" fill="rgb(100%,0%,0%)" r="0.7" /><circle cx="288.805368741" cy="408.785539647" fill="rgb(100%,0%,0%)" r="0.7" /><circle cx="287.638648828" cy="411.549303366" fill="rgb(100%,0%,0%)" r="0.7" /><circle cx="286.407811516" cy="414.285103664" fill="rgb(100%,0%,0%)" r="0.7" /><circle cx="285.108735814" cy="416.989156038" fill="rgb(100%,0%,0%)" r="0.7" /><circle cx="283.736895685" cy="419.657014231" fill="rgb(100%,0%,0%)" r="0.7" /><circle cx="282.287346386" cy="422.283438417" fill="rgb(100%,0%,0%)" r="0.7" /><circle cx="280.754720949" cy="424.8622438" fill="rgb(100%,0%,0%)" r="0.7" /><circle cx="279.133260626" cy="427.386102913" fill="rgb(100%,0%,0%)" r="0.7" /><circle cx="277.416866421" cy="429.846347845" fill="rgb(100%,0%,0%)" r="0.7" /><circle cx="275.599226835" cy="432.232718759" fill="rgb(100%,0%,0%)" r="0.7" /><circle cx="275.43390523" cy="433.203237312" fill="rgb(100%,0%,0%)" r="0.7" /><circle cx="278.154075873" cy="431.938060773" fill="rgb(100%,0%,0%)" r="0.7" /><circle cx="280.874246516" cy="430.672884235" fill="rgb(100%,0%,0%)" r="0.7" /><circle cx="283.594417159" cy="429.407707697" fill="rgb(100%,0%,0%)" r="0.7" /><circle cx="285.009850009" cy="431.130465667" fill="rgb(100%,0%,0%)" r="0.7" /><circle cx="285.930805714" cy="433.985608499" fill="rgb(100%,0%,0%)" r="0.7" /><circle cx="286.851761418" cy="436.840751331" fill="rgb(100%,0%,0%)" r="0.7" /><circle cx="287.772717123" cy="439.695894162" fill="rgb(100%,0%,0%)" r="0.7" /><circle cx="288.693672827" cy="442.551036994" fill="rgb(100%,0%,0%)" r="0.7" /><circle cx="288.943" cy="443.324" fill="rgb(100%,0%,0%)" r="0.7" /><circle cx="309.519962774" cy="322.591282843" fill="rgb(0%,0%,100%)" r="0.7" /><circle cx="312.517824591" cy="322.681552016" fill="rgb(0%,0%,100%)" r="0.7" /><circle cx="315.492026796" cy="323.061312229" fill="rgb(0%,0%,100%)" r="0.7" /><circle cx="318.383329962" cy="323.848447628" fill="rgb(0%,0%,100%)" r="0.7" /><circle cx="321.047066614" cy="325.210851217" fill="rgb(0%,0%,100%)" r="0.7" /><circle cx="323.137724823" cy="327.334901566" fill="rgb(0%,0%,100%)" r="0.7" /><circle cx="324.148969823" cy="330.138624293" fill="rgb(0%,0%,100%)" r="0.7" /><circle cx="324.316435962" cy="333.130519529" fill="rgb(0%,0%,100%)" r="0.7" /><circle cx="324.171302292" cy="336.126479928" fill="rgb(0%,0%,100%)" r="0.7" /><circle cx="323.879497186" cy="339.112091672" fill="rgb(0%,0%,100%)" r="0.7" /><circle cx="323.498223045" cy="342.087694479" fill="rgb(0%,0%,100%)" r="0.7" /><circle cx="323.055010657" cy="345.054732207" fill="rgb(0%,0%,100%)" r="0.7" /><circle cx="322.565538814" cy="348.014506404" fill="rgb(0%,0%,100%)" r="0.7" /><circle cx="322.039705997" cy="350.968051244" fill="rgb(0%,0%,100%)" r="0.7" /><circle cx="321.484212494" cy="353.916164382" fill="rgb(0%,0%,100%)" r="0.7" /><circle cx="320.903819762" cy="356.85948121" fill="rgb(0%,0%,100%)" r="0.7" /><circle cx="320.302036095" cy="359.79849943" fill="rgb(0%,0%,100%)" r="0.7" /><circle cx="319.681510942" cy="362.733617568" fill="rgb(0%,0%,100%)" r="0.7" /><circle cx="319.044275092" cy="365.665159335" fill="rgb(0%,0%,100%)" r="0.7" /><circle cx="318.39189556" cy="368.593365501" fill="rgb(0%,0%,100%)" r="0.7" /><circle cx="317.72555982" cy="371.518432166" fill="rgb(0%,0%,100%)" r="0.7" /><circle cx="317.046127523" cy="374.440479918" fill="rgb(0%,0%,100%)" r="0.7" /><circle cx="316.354117318" cy="377.3595745" fill="rgb(0%,0%,100%)" r="0.7" /><circle cx="315.649608863" cy="380.275682531" fill="rgb(0%,0%,100%)" r="0.7" /><circle cx="314.931825592" cy="383.188550935" fill="rgb(0%,0%,100%)" r="0.7" /><circle cx="314.242331419" cy="386.107436394" fill="rgb(0%,0%,100%)" r="0.7" /><circle cx="313.608902123" cy="389.039732762" fill="rgb(0%,0%,100%)" r="0.7" /><circle cx="312.907622462" cy="391.956548806" fill="rgb(0%,0%,100%)" r="0.7" /><circle cx="312.140744153" cy="394.856807977" fill="rgb(0%,0%,100%)" r="0.7" /><circle cx="311.310439266" cy="397.73955823" fill="rgb(0%,0%,100%)" r="0.7" /><circle cx="310.418794906" cy="400.603934972" fill="rgb(0%,0%,100%)" r="0.7" /><circle cx="309.467801437" cy="403.449155939" fill="rgb(0%,0%,100%)" r="0.7" /><circle cx="308.459335999" cy="406.274527766" fill="rgb(0%,0%,100%)" r="0.7" /><circle cx="307.395167506" cy="409.079391011" fill="rgb(0%,0%,100%)" r="0.7" /><circle cx="306.276933609" cy="411.863144926" fill="rgb(0%,0%,100%)" r="0.7" /><circle cx="305.106140061" cy="414.625204866" fill="rgb(0%,0%,100%)" r="0.7" /><circle cx="303.884144341" cy="417.364995206" fill="rgb(0%,0%,100%)" r="0.7" /><circle cx="302.612136608" cy="420.081934067" fill="rgb(0%,0%,100%)" r="0.7" /><circle cx="301.291125203" cy="422.775390499" fill="rgb(0%,0%,100%)" r="0.7" /><circle cx="299.921905899" cy="425.444650125" fill="rgb(0%,0%,100%)" r="0.7" /><circle cx="298.504985738" cy="428.088920124" fill="rgb(0%,0%,100%)" r="0.7" /><circle cx="297.040557786" cy="430.707156751" fill="rgb(0%,0%,100%)" r="0.7" /><circle cx="295.52830291" cy="433.298067528" fill="rgb(0%,0%,100%)" r="0.7" /><circle cx="293.967170649" cy="435.8598292" fill="rgb(0%,0%,100%)" r="0.7" /><circle cx="292.354816338" cy="438.3896434" fill="rgb(0%,0%,100%)" r="0.7" /><circle cx="290.68597717" cy="440.882552464" fill="rgb(0%,0%,100%)" r="0.7" /><circle cx="288.943" cy="443.324" fill="rgb(0%,0%,100%)" r="0.7" /></svg>