<?xml version="1.0" encoding="utf-8" ?>
<svg baseProfile="full" height="100%" version="1.1" width="100%" xmlns="http://www.w3.org/2000/svg" xmlns:ev="http://www.w3.org/2001/xml-events" xmlns:xlink="http://www.w3.org/1999/xlink"><defs /><circle cx="335.419107029" cy="355.032273361" fill="rgb(100%,0%,0%)" r="0.7" /><circle cx="332.438108786" cy="355.185167321" fill="rgb(100%,0%,0%)" r="0.7" /><circle cx="329.555918875" cy="356.008135528" fill="rgb(100%,0%,0%)" r="0.7" /><circle cx="326.779180203" cy="357.141540902" fill="rgb(100%,0%,0%)" r="0.7" /><circle cx="324.086302081" cy="358.462881454" fill="rgb(100%,0%,0%)" r="0.7" /><circle cx="321.466102833" cy="359.923273228" fill="rgb(100%,0%,0%)" r="0.7" /><circle cx="319.150734274" cy="361.802883898" fill="rgb(100%,0%,0%)" r="0.7" /><circle cx="317.089200473" cy="363.981837304" fill="rgb(100%,0%,0%)" r="0.7" /><circle cx="315.147244905" cy="366.268047601" fill="rgb(100%,0%,0%)" r="0.7" /><circle cx="313.324339775" cy="368.650307884" fill="rgb(100%,0%,0%)" r="0.7" /><circle cx="311.618619008" cy="371.117870459" fill="rgb(100%,0%,0%)" r="0.7" /><circle cx="310.02717541" cy="373.660671924" fill="rgb(100%,0%,0%)" r="0.7" /><circle cx="308.546342565" cy="376.269471789" fill="rgb(100%,0%,0%)" r="0.7" /><circle cx="307.171949087" cy="378.935911346" fill="rgb(100%,0%,0%)" r="0.7" /><circle cx="305.899531855" cy="381.652516674" fill="rgb(100%,0%,0%)" r="0.7" /><circle cx="304.724505131" cy="384.412667142" fill="rgb(100%,0%,0%)" r="0.7" /><circle cx="303.642294868" cy="387.210529647" fill="rgb(100%,0%,0%)" r="0.7" /><circle cx="302.648431768" cy="390.040996751" fill="rgb(100%,0%,0%)" r="0.7" /><circle cx="301.738622862" cy="392.899605246" fill="rgb(100%,0%,0%)" r="0.7" /><circle cx="300.908799058" cy="395.782458942" fill="rgb(100%,0%,0%)" r="0.7" /><circle cx="300.155143843" cy="398.686164118" fill="rgb(100%,0%,0%)" r="0.7" /><circle cx="299.474111883" cy="401.607768631" fill="rgb(100%,0%,0%)" r="0.7" /><circle cx="298.862445631" cy="404.544681741" fill="rgb(100%,0%,0%)" r="0.7" /><circle cx="298.317175022" cy="407.494656371" fill="rgb(100%,0%,0%)" r="0.7" /><circle cx="297.835632706" cy="410.455699722" fill="rgb(100%,0%,0%)" r="0.7" /><circle cx="297.415454226" cy="413.426076863" fill="rgb(100%,0%,0%)" r="0.7" /><circle cx="297.0545976" cy="416.404246298" fill="rgb(100%,0%,0%)" r="0.7" /><circle cx="296.751366931" cy="419.388833345" fill="rgb(100%,0%,0%)" r="0.7" /><circle cx="296.504455108" cy="422.378610349" fill="rgb(100%,0%,0%)" r="0.7" /><circle cx="296.313021832" cy="425.372460062" fill="rgb(100%,0%,0%)" r="0.7" /><circle cx="296.176834061" cy="428.36933618" fill="rgb(100%,0%,0%)" r="0.7" /><circle cx="296.096539644" cy="431.368216886" fill="rgb(100%,0%,0%)" r="0.7" /><circle cx="296.074276536" cy="434.368089396" fill="rgb(100%,0%,0%)" r="0.7" /><circle cx="296.115410956" cy="437.367745004" fill="rgb(100%,0%,0%)" r="0.7" /><circle cx="296.239" cy="440.365" fill="rgb(100%,0%,0%)" r="0.7" /><circle cx="296.26978996" cy="440.284250747" fill="rgb(100%,0%,0%)" r="0.7" /><circle cx="297.33863499" cy="437.481114949" fill="rgb(100%,0%,0%)" r="0.7" /><circle cx="298.407480021" cy="434.677979151" fill="rgb(100%,0%,0%)" r="0.7" /><circle cx="299.476325052" cy="431.874843354" fill="rgb(100%,0%,0%)" r="0.7" /><circle cx="300.79200342" cy="430.89993144" fill="rgb(100%,0%,0%)" r="0.7" /><circle cx="302.565946475" cy="433.319254907" fill="rgb(100%,0%,0%)" r="0.7" /><circle cx="304.33988953" cy="435.738578373" fill="rgb(100%,0%,0%)" r="0.7" /><circle cx="306.113832586" cy="438.15790184" fill="rgb(100%,0%,0%)" r="0.7" /><circle cx="307.887775641" cy="440.577225307" fill="rgb(100%,0%,0%)" r="0.7" /><circle cx="335.419107029" cy="355.032273361" fill="rgb(0%,0%,100%)" r="0.7" /><circle cx="337.86710622" cy="356.589970077" fill="rgb(0%,0%,100%)" r="0.7" /><circle cx="339.505101101" cy="359.101554756" fill="rgb(0%,0%,100%)" r="0.7" /><circle cx="340.853073529" cy="361.779636993" fill="rgb(0%,0%,100%)" r="0.7" /><circle cx="341.811313895" cy="364.618858289" fill="rgb(0%,0%,100%)" r="0.7" /><circle cx="342.172454915" cy="367.589203759" fill="rgb(0%,0%,100%)" r="0.7" /><circle cx="341.674005508" cy="370.534256489" fill="rgb(0%,0%,100%)" r="0.7" /><circle cx="339.826618469" cy="372.817527032" fill="rgb(0%,0%,100%)" r="0.7" /><circle cx="336.908417048" cy="373.20227959" fill="rgb(0%,0%,100%)" r="0.7" /><circle cx="333.968670867" cy="373.360343956" fill="rgb(0%,0%,100%)" r="0.7" /><circle cx="331.084062739" cy="374.179902329" fill="rgb(0%,0%,100%)" r="0.7" /><circle cx="328.294348552" cy="375.279874749" fill="rgb(0%,0%,100%)" r="0.7" /><circle cx="325.6355586" cy="376.666136776" fill="rgb(0%,0%,100%)" r="0.7" /><circle cx="323.157018906" cy="378.352950556" fill="rgb(0%,0%,100%)" r="0.7" /><circle cx="320.9203673" cy="380.348724338" fill="rgb(0%,0%,100%)" r="0.7" /><circle cx="318.993252878" cy="382.644279655" fill="rgb(0%,0%,100%)" r="0.7" /><circle cx="317.435598433" cy="385.204759212" fill="rgb(0%,0%,100%)" r="0.7" /><circle cx="316.090947359" cy="387.88547192" fill="rgb(0%,0%,100%)" r="0.7" /><circle cx="314.896296796" cy="390.636856817" fill="rgb(0%,0%,100%)" r="0.7" /><circle cx="313.844509176" cy="393.446176404" fill="rgb(0%,0%,100%)" r="0.7" /><circle cx="312.909171266" cy="396.2964403" fill="rgb(0%,0%,100%)" r="0.7" /><circle cx="312.075835311" cy="399.178237903" fill="rgb(0%,0%,100%)" r="0.7" /><circle cx="311.334811843" cy="402.085150756" fill="rgb(0%,0%,100%)" r="0.7" /><circle cx="310.678865454" cy="405.01246269" fill="rgb(0%,0%,100%)" r="0.7" /><circle cx="310.102258962" cy="407.95644023" fill="rgb(0%,0%,100%)" r="0.7" /><circle cx="309.600234088" cy="410.914061161" fill="rgb(0%,0%,100%)" r="0.7" /><circle cx="309.168726571" cy="413.882800839" fill="rgb(0%,0%,100%)" r="0.7" /><circle cx="308.804184535" cy="416.860519856" fill="rgb(0%,0%,100%)" r="0.7" /><circle cx="308.503453222" cy="419.845353196" fill="rgb(0%,0%,100%)" r="0.7" /><circle cx="308.263688153" cy="422.835693829" fill="rgb(0%,0%,100%)" r="0.7" /><circle cx="308.082298263" cy="425.830160798" fill="rgb(0%,0%,100%)" r="0.7" /><circle cx="307.956907952" cy="428.827496109" fill="rgb(0%,0%,100%)" r="0.7" /><circle cx="307.88531976" cy="431.826602981" fill="rgb(0%,0%,100%)" r="0.7" /><circle cx="307.865491117" cy="434.826504982" fill="rgb(0%,0%,100%)" r="0.7" /><circle cx="307.895514391" cy="437.826324629" fill="rgb(0%,0%,100%)" r="0.7" /><circle cx="307.887775641" cy="440.577225307" fill="rgb(0%,0%,100%)" r="0.7" /></svg>