<?xml version="1.0" encoding="utf-8" ?>
<svg baseProfile="full" height="100%" version="1.1" width="100%" xmlns="http://www.w3.org/2000/svg" xmlns:ev="http://www.w3.org/2001/xml-events" xmlns:xlink="http://www.w3.org/1999/xlink"><defs /><circle cx="299.399170306" cy="277.942652512" fill="rgb(100%,0%,0%)" r="0.7" /><circle cx="296.626402545" cy="278.899688077" fill="rgb(100%,0%,0%)" r="0.7" /><circle cx="294.346269785" cy="280.83307808" fill="rgb(100%,0%,0%)" r="0.7" /><circle cx="292.662405755" cy="283.306667746" fill="rgb(100%,0%,0%)" r="0.7" /><circle cx="291.563748296" cy="286.093075423" fill="rgb(100%,0%,0%)" r="0.7" /><circle cx="290.988934953" cy="289.031961068" fill="rgb(100%,0%,0%)" r="0.7" /><circle cx="290.933909397" cy="292.0305026" fill="rgb(100%,0%,0%)" r="0.7" /><circle cx="291.099561332" cy="295.02539714" fill="rgb(100%,0%,0%)" r="0.7" /><circle cx="291.449959125" cy="298.004422717" fill="rgb(100%,0%,0%)" r="0.7" /><circle cx="291.972845678" cy="300.95808624" fill="rgb(100%,0%,0%)" r="0.7" /><circle cx="292.662124473" cy="303.877421211" fill="rgb(100%,0%,0%)" r="0.7" /><circle cx="293.513937146" cy="306.753541977" fill="rgb(100%,0%,0%)" r="0.7" /><circle cx="294.525095052" cy="309.577588325" fill="rgb(100%,0%,0%)" r="0.7" /><circle cx="295.692274802" cy="312.34080157" fill="rgb(100%,0%,0%)" r="0.7" /><circle cx="297.011573195" cy="315.034706199" fill="rgb(100%,0%,0%)" r="0.7" /><circle cx="298.47039663" cy="317.655778378" fill="rgb(100%,0%,0%)" r="0.7" /><circle cx="299.870394251" cy="320.308950532" fill="rgb(100%,0%,0%)" r="0.7" /><circle cx="301.194722671" cy="323.000729338" fill="rgb(100%,0%,0%)" r="0.7" /><circle cx="302.449491129" cy="325.725623448" fill="rgb(100%,0%,0%)" r="0.7" /><circle cx="303.635832798" cy="328.481003338" fill="rgb(100%,0%,0%)" r="0.7" /><circle cx="304.752723805" cy="331.265258977" fill="rgb(100%,0%,0%)" r="0.7" /><circle cx="305.79781489" cy="334.077247769" fill="rgb(100%,0%,0%)" r="0.7" /><circle cx="306.767749044" cy="336.916031742" fill="rgb(100%,0%,0%)" r="0.7" /><circle cx="307.658285504" cy="339.780699809" fill="rgb(100%,0%,0%)" r="0.7" /><circle cx="308.464351051" cy="342.670265902" fill="rgb(100%,0%,0%)" r="0.7" /><circle cx="309.180029267" cy="345.583516492" fill="rgb(100%,0%,0%)" r="0.7" /><circle cx="309.798546715" cy="348.518912687" fill="rgb(100%,0%,0%)" r="0.7" /><circle cx="310.312240006" cy="351.47443336" fill="rgb(100%,0%,0%)" r="0.7" /><circle cx="310.712535168" cy="354.44741008" fill="rgb(100%,0%,0%)" r="0.7" /><circle cx="310.989949977" cy="357.434325742" fill="rgb(100%,0%,0%)" r="0.7" /><circle cx="311.144105037" cy="360.429747356" fill="rgb(100%,0%,0%)" r="0.7" /><circle cx="311.442831253" cy="363.414305661" fill="rgb(100%,0%,0%)" r="0.7" /><circle cx="311.576977059" cy="366.410982642" fill="rgb(100%,0%,0%)" r="0.7" /><circle cx="311.55780751" cy="369.410580231" fill="rgb(100%,0%,0%)" r="0.7" /><circle cx="311.373406901" cy="372.404480556" fill="rgb(100%,0%,0%)" r="0.7" /><circle cx="311.001545457" cy="375.380767778" fill="rgb(100%,0%,0%)" r="0.7" /><circle cx="310.410429413" cy="378.321116953" fill="rgb(100%,0%,0%)" r="0.7" /><circle cx="309.705583404" cy="381.236957961" fill="rgb(100%,0%,0%)" r="0.7" /><circle cx="309.113474313" cy="384.177703099" fill="rgb(100%,0%,0%)" r="0.7" /><circle cx="308.707675132" cy="387.149052712" fill="rgb(100%,0%,0%)" r="0.7" /><circle cx="309.187812711" cy="388.600914375" fill="rgb(100%,0%,0%)" r="0.7" /><circle cx="310.71409431" cy="386.018190138" fill="rgb(100%,0%,0%)" r="0.7" /><circle cx="312.240375909" cy="383.435465902" fill="rgb(100%,0%,0%)" r="0.7" /><circle cx="313.766566244" cy="384.767312264" fill="rgb(100%,0%,0%)" r="0.7" /><circle cx="315.292727414" cy="387.350107665" fill="rgb(100%,0%,0%)" r="0.7" /><circle cx="316.452" cy="389.312" fill="rgb(100%,0%,0%)" r="0.7" /><circle cx="299.399170306" cy="277.942652512" fill="rgb(0%,0%,100%)" r="0.7" /><circle cx="302.109624138" cy="279.147269781" fill="rgb(0%,0%,100%)" r="0.7" /><circle cx="303.539734038" cy="281.718152729" fill="rgb(0%,0%,100%)" r="0.7" /><circle cx="303.497099813" cy="284.701606553" fill="rgb(0%,0%,100%)" r="0.7" /><circle cx="302.670286912" cy="287.580331549" fill="rgb(0%,0%,100%)" r="0.7" /><circle cx="301.684020772" cy="290.404726178" fill="rgb(0%,0%,100%)" r="0.7" /><circle cx="301.696223977" cy="293.386142637" fill="rgb(0%,0%,100%)" r="0.7" /><circle cx="302.836544785" cy="296.143429969" fill="rgb(0%,0%,100%)" r="0.7" /><circle cx="304.125204558" cy="298.852312013" fill="rgb(0%,0%,100%)" r="0.7" /><circle cx="305.343860438" cy="301.593608265" fill="rgb(0%,0%,100%)" r="0.7" /><circle cx="306.529641776" cy="304.349305855" fill="rgb(0%,0%,100%)" r="0.7" /><circle cx="307.694374494" cy="307.113972419" fill="rgb(0%,0%,100%)" r="0.7" /><circle cx="308.843036444" cy="309.885356234" fill="rgb(0%,0%,100%)" r="0.7" /><circle cx="309.844611607" cy="312.704523064" fill="rgb(0%,0%,100%)" r="0.7" /><circle cx="310.523129375" cy="315.62677947" fill="rgb(0%,0%,100%)" r="0.7" /><circle cx="311.22094038" cy="318.544478801" fill="rgb(0%,0%,100%)" r="0.7" /><circle cx="311.940955257" cy="321.456793781" fill="rgb(0%,0%,100%)" r="0.7" /><circle cx="312.687070307" cy="324.362517355" fill="rgb(0%,0%,100%)" r="0.7" /><circle cx="313.464826258" cy="327.259927751" fill="rgb(0%,0%,100%)" r="0.7" /><circle cx="314.282746929" cy="330.146235469" fill="rgb(0%,0%,100%)" r="0.7" /><circle cx="315.15592777" cy="333.016279662" fill="rgb(0%,0%,100%)" r="0.7" /><circle cx="316.121275484" cy="335.856443444" fill="rgb(0%,0%,100%)" r="0.7" /><circle cx="317.021161179" cy="338.71479903" fill="rgb(0%,0%,100%)" r="0.7" /><circle cx="317.711893784" cy="341.633903226" fill="rgb(0%,0%,100%)" r="0.7" /><circle cx="318.269815912" cy="344.581335798" fill="rgb(0%,0%,100%)" r="0.7" /><circle cx="318.708031033" cy="347.548973047" fill="rgb(0%,0%,100%)" r="0.7" /><circle cx="319.037976065" cy="350.530624223" fill="rgb(0%,0%,100%)" r="0.7" /><circle cx="319.269560314" cy="353.521550076" fill="rgb(0%,0%,100%)" r="0.7" /><circle cx="319.411329229" cy="356.518096376" fill="rgb(0%,0%,100%)" r="0.7" /><circle cx="319.470625204" cy="359.517424541" fill="rgb(0%,0%,100%)" r="0.7" /><circle cx="319.453730334" cy="362.517303386" fill="rgb(0%,0%,100%)" r="0.7" /><circle cx="319.365984932" cy="365.515955607" fill="rgb(0%,0%,100%)" r="0.7" /><circle cx="319.21187704" cy="368.511938122" fill="rgb(0%,0%,100%)" r="0.7" /><circle cx="318.995098076" cy="371.504043934" fill="rgb(0%,0%,100%)" r="0.7" /><circle cx="318.718553941" cy="374.491222903" fill="rgb(0%,0%,100%)" r="0.7" /><circle cx="318.38430842" cy="377.472500804" fill="rgb(0%,0%,100%)" r="0.7" /><circle cx="317.993399835" cy="380.446881546" fill="rgb(0%,0%,100%)" r="0.7" /><circle cx="317.545359354" cy="383.413177184" fill="rgb(0%,0%,100%)" r="0.7" /><circle cx="317.036730754" cy="386.369698115" fill="rgb(0%,0%,100%)" r="0.7" /><circle cx="316.452" cy="389.312" fill="rgb(0%,0%,100%)" r="0.7" /></svg>