<?xml version="1.0" encoding="utf-8" ?>
<svg baseProfile="full" height="100%" version="1.1" width="100%" xmlns="http://www.w3.org/2000/svg" xmlns:ev="http://www.w3.org/2001/xml-events" xmlns:xlink="http://www.w3.org/1999/xlink"><defs /><circle cx="347.270143619" cy="370.150590706" fill="rgb(100%,0%,0%)" r="0.7" /><circle cx="344.413364266" cy="371.00971956" fill="rgb(100%,0%,0%)" r="0.7" /><circle cx="341.948216932" cy="372.705263131" fill="rgb(100%,0%,0%)" r="0.7" /><circle cx="339.985948635" cy="374.972088431" fill="rgb(100%,0%,0%)" r="0.7" /><circle cx="338.236731223" cy="377.40844204" fill="rgb(100%,0%,0%)" r="0.7" /><circle cx="336.668930669" cy="379.965463328" fill="rgb(100%,0%,0%)" r="0.7" /><circle cx="335.278926812" cy="382.623383243" fill="rgb(100%,0%,0%)" r="0.7" /><circle cx="334.0685394" cy="385.367776028" fill="rgb(100%,0%,0%)" r="0.7" /><circle cx="333.04115646" cy="388.185798302" fill="rgb(100%,0%,0%)" r="0.7" /><circle cx="332.20012704" cy="391.064944773" fill="rgb(100%,0%,0%)" r="0.7" /><circle cx="331.547850086" cy="393.992637651" fill="rgb(100%,0%,0%)" r="0.7" /><circle cx="331.171332776" cy="396.93697283" fill="rgb(100%,0%,0%)" r="0.7" /><circle cx="330.026631768" cy="399.70630381" fill="rgb(100%,0%,0%)" r="0.7" /><circle cx="328.601691161" cy="402.345706809" fill="rgb(100%,0%,0%)" r="0.7" /><circle cx="327.048335283" cy="404.912030274" fill="rgb(100%,0%,0%)" r="0.7" /><circle cx="325.415801784" cy="407.428843254" fill="rgb(100%,0%,0%)" r="0.7" /><circle cx="323.758304245" cy="409.929383577" fill="rgb(100%,0%,0%)" r="0.7" /><circle cx="322.100806707" cy="412.429923901" fill="rgb(100%,0%,0%)" r="0.7" /><circle cx="320.443309168" cy="414.930464224" fill="rgb(100%,0%,0%)" r="0.7" /><circle cx="318.785811629" cy="417.431004548" fill="rgb(100%,0%,0%)" r="0.7" /><circle cx="317.128314091" cy="419.931544871" fill="rgb(100%,0%,0%)" r="0.7" /><circle cx="315.470816552" cy="422.432085195" fill="rgb(100%,0%,0%)" r="0.7" /><circle cx="313.813319013" cy="424.932625518" fill="rgb(100%,0%,0%)" r="0.7" /><circle cx="312.155821475" cy="427.433165841" fill="rgb(100%,0%,0%)" r="0.7" /><circle cx="309.944130287" cy="429.458670344" fill="rgb(100%,0%,0%)" r="0.7" /><circle cx="307.860363683" cy="431.615594354" fill="rgb(100%,0%,0%)" r="0.7" /><circle cx="305.9363381" cy="433.917004876" fill="rgb(100%,0%,0%)" r="0.7" /><circle cx="304.104640131" cy="436.292545325" fill="rgb(100%,0%,0%)" r="0.7" /><circle cx="302.402315518" cy="438.762218596" fill="rgb(100%,0%,0%)" r="0.7" /><circle cx="300.821594366" cy="441.310623467" fill="rgb(100%,0%,0%)" r="0.7" /><circle cx="299.1163005" cy="443.778785288" fill="rgb(100%,0%,0%)" r="0.7" /><circle cx="297.376095535" cy="446.222462375" fill="rgb(100%,0%,0%)" r="0.7" /><circle cx="295.605420456" cy="448.644162006" fill="rgb(100%,0%,0%)" r="0.7" /><circle cx="293.805203502" cy="451.043977964" fill="rgb(100%,0%,0%)" r="0.7" /><circle cx="291.97509783" cy="453.421074037" fill="rgb(100%,0%,0%)" r="0.7" /><circle cx="290.113987991" cy="455.773972579" fill="rgb(100%,0%,0%)" r="0.7" /><circle cx="288.220142993" cy="458.100605458" fill="rgb(100%,0%,0%)" r="0.7" /><circle cx="286.291247952" cy="460.398253243" fill="rgb(100%,0%,0%)" r="0.7" /><circle cx="284.324343357" cy="462.66343511" fill="rgb(100%,0%,0%)" r="0.7" /><circle cx="282.315721681" cy="464.891698185" fill="rgb(100%,0%,0%)" r="0.7" /><circle cx="280.260770551" cy="467.077288269" fill="rgb(100%,0%,0%)" r="0.7" /><circle cx="278.153723091" cy="469.212670776" fill="rgb(100%,0%,0%)" r="0.7" /><circle cx="275.987320312" cy="471.287762036" fill="rgb(100%,0%,0%)" r="0.7" /><circle cx="273.752323659" cy="473.288703909" fill="rgb(100%,0%,0%)" r="0.7" /><circle cx="271.436847705" cy="475.195796905" fill="rgb(100%,0%,0%)" r="0.7" /><circle cx="269.025507911" cy="476.979847357" fill="rgb(100%,0%,0%)" r="0.7" /><circle cx="269.320404429" cy="477.620558684" fill="rgb(100%,0%,0%)" r="0.7" /><circle cx="272.300352981" cy="477.274283321" fill="rgb(100%,0%,0%)" r="0.7" /><circle cx="275.280301534" cy="476.928007958" fill="rgb(100%,0%,0%)" r="0.7" /><circle cx="277.84908776" cy="477.160947854" fill="rgb(100%,0%,0%)" r="0.7" /><circle cx="278.505200603" cy="480.08832141" fill="rgb(100%,0%,0%)" r="0.7" /><circle cx="279.161313446" cy="483.015694967" fill="rgb(100%,0%,0%)" r="0.7" /><circle cx="279.817426288" cy="485.943068523" fill="rgb(100%,0%,0%)" r="0.7" /><circle cx="280.473539131" cy="488.870442079" fill="rgb(100%,0%,0%)" r="0.7" /><circle cx="280.735" cy="490.037" fill="rgb(100%,0%,0%)" r="0.7" /><circle cx="347.270143619" cy="370.150590706" fill="rgb(0%,0%,100%)" r="0.7" /><circle cx="350.231325464" cy="370.470079688" fill="rgb(0%,0%,100%)" r="0.7" /><circle cx="352.666245146" cy="372.084161627" fill="rgb(0%,0%,100%)" r="0.7" /><circle cx="353.189552531" cy="375.01114969" fill="rgb(0%,0%,100%)" r="0.7" /><circle cx="352.908938304" cy="377.995082671" fill="rgb(0%,0%,100%)" r="0.7" /><circle cx="352.305282098" cy="380.932963251" fill="rgb(0%,0%,100%)" r="0.7" /><circle cx="351.523124263" cy="383.828909666" fill="rgb(0%,0%,100%)" r="0.7" /><circle cx="350.624796773" cy="386.691107102" fill="rgb(0%,0%,100%)" r="0.7" /><circle cx="349.643271124" cy="389.525917602" fill="rgb(0%,0%,100%)" r="0.7" /><circle cx="348.598287684" cy="392.337982951" fill="rgb(0%,0%,100%)" r="0.7" /><circle cx="347.502667575" cy="395.130729309" fill="rgb(0%,0%,100%)" r="0.7" /><circle cx="346.365227404" cy="397.906715793" fill="rgb(0%,0%,100%)" r="0.7" /><circle cx="345.192269596" cy="400.667889473" fill="rgb(0%,0%,100%)" r="0.7" /><circle cx="343.98841332" cy="403.415736538" fill="rgb(0%,0%,100%)" r="0.7" /><circle cx="342.757075946" cy="406.151374379" fill="rgb(0%,0%,100%)" r="0.7" /><circle cx="341.500728889" cy="408.875635019" fill="rgb(0%,0%,100%)" r="0.7" /><circle cx="340.22104455" cy="411.588994999" fill="rgb(0%,0%,100%)" r="0.7" /><circle cx="338.918763712" cy="414.291602859" fill="rgb(0%,0%,100%)" r="0.7" /><circle cx="337.593125675" cy="416.982819708" fill="rgb(0%,0%,100%)" r="0.7" /><circle cx="336.233825775" cy="419.657110019" fill="rgb(0%,0%,100%)" r="0.7" /><circle cx="334.820914174" cy="422.30351161" fill="rgb(0%,0%,100%)" r="0.7" /><circle cx="333.361477188" cy="424.92454617" fill="rgb(0%,0%,100%)" r="0.7" /><circle cx="331.858521896" cy="427.520877636" fill="rgb(0%,0%,100%)" r="0.7" /><circle cx="330.314771991" cy="430.093164477" fill="rgb(0%,0%,100%)" r="0.7" /><circle cx="328.732692825" cy="432.642060361" fill="rgb(0%,0%,100%)" r="0.7" /><circle cx="327.114522858" cy="435.168199916" fill="rgb(0%,0%,100%)" r="0.7" /><circle cx="325.462293321" cy="437.672200357" fill="rgb(0%,0%,100%)" r="0.7" /><circle cx="323.777856267" cy="440.154646915" fill="rgb(0%,0%,100%)" r="0.7" /><circle cx="322.062889691" cy="442.616109794" fill="rgb(0%,0%,100%)" r="0.7" /><circle cx="320.318930821" cy="445.05711675" fill="rgb(0%,0%,100%)" r="0.7" /><circle cx="318.547376378" cy="447.478171651" fill="rgb(0%,0%,100%)" r="0.7" /><circle cx="316.749499666" cy="449.879745884" fill="rgb(0%,0%,100%)" r="0.7" /><circle cx="314.926464981" cy="452.262272216" fill="rgb(0%,0%,100%)" r="0.7" /><circle cx="313.079318146" cy="454.626167568" fill="rgb(0%,0%,100%)" r="0.7" /><circle cx="311.209028647" cy="456.971786942" fill="rgb(0%,0%,100%)" r="0.7" /><circle cx="309.316453004" cy="459.299476522" fill="rgb(0%,0%,100%)" r="0.7" /><circle cx="307.402383788" cy="461.609516114" fill="rgb(0%,0%,100%)" r="0.7" /><circle cx="305.467519461" cy="463.902158221" fill="rgb(0%,0%,100%)" r="0.7" /><circle cx="303.512464545" cy="466.177624846" fill="rgb(0%,0%,100%)" r="0.7" /><circle cx="301.537767282" cy="468.436058157" fill="rgb(0%,0%,100%)" r="0.7" /><circle cx="299.543875189" cy="470.677562365" fill="rgb(0%,0%,100%)" r="0.7" /><circle cx="297.531153759" cy="472.902164722" fill="rgb(0%,0%,100%)" r="0.7" /><circle cx="295.499845352" cy="475.109833661" fill="rgb(0%,0%,100%)" r="0.7" /><circle cx="293.450119539" cy="477.300380575" fill="rgb(0%,0%,100%)" r="0.7" /><circle cx="291.381930834" cy="479.473542113" fill="rgb(0%,0%,100%)" r="0.7" /><circle cx="289.29509299" cy="481.628777295" fill="rgb(0%,0%,100%)" r="0.7" /><circle cx="287.189059899" cy="483.765265968" fill="rgb(0%,0%,100%)" r="0.7" /><circle cx="285.062758649" cy="485.881576128" fill="rgb(0%,0%,100%)" r="0.7" /><circle cx="282.913893106" cy="487.974966651" fill="rgb(0%,0%,100%)" r="0.7" /><circle cx="280.735" cy="490.037" fill="rgb(0%,0%,100%)" r="0.7" /></svg>