<?xml version="1.0" encoding="utf-8" ?>
<svg baseProfile="full" height="100%" version="1.1" width="100%" xmlns="http://www.w3.org/2000/svg" xmlns:ev="http://www.w3.org/2001/xml-events" xmlns:xlink="http://www.w3.org/1999/xlink"><defs /><circle cx="371.402926459" cy="372.02982589" fill="rgb(100%,0%,0%)" r="0.7" /><circle cx="370.746015659" cy="374.956840838" fill="rgb(100%,0%,0%)" r="0.7" /><circle cx="369.997199486" cy="377.861781033" fill="rgb(100%,0%,0%)" r="0.7" /><circle cx="369.168134615" cy="380.744853189" fill="rgb(100%,0%,0%)" r="0.7" /><circle cx="368.259749617" cy="383.60391419" fill="rgb(100%,0%,0%)" r="0.7" /><circle cx="367.269321037" cy="386.435593921" fill="rgb(100%,0%,0%)" r="0.7" /><circle cx="366.191810448" cy="389.235270753" fill="rgb(100%,0%,0%)" r="0.7" /><circle cx="365.020187201" cy="391.99685521" fill="rgb(100%,0%,0%)" r="0.7" /><circle cx="363.745427539" cy="394.712329177" fill="rgb(100%,0%,0%)" r="0.7" /><circle cx="362.356351326" cy="397.371074294" fill="rgb(100%,0%,0%)" r="0.7" /><circle cx="360.839395332" cy="399.95889048" fill="rgb(100%,0%,0%)" r="0.7" /><circle cx="359.315643687" cy="402.541967521" fill="rgb(100%,0%,0%)" r="0.7" /><circle cx="357.756914006" cy="405.105125283" fill="rgb(100%,0%,0%)" r="0.7" /><circle cx="356.136494692" cy="407.629787634" fill="rgb(100%,0%,0%)" r="0.7" /><circle cx="354.466415472" cy="410.12188433" fill="rgb(100%,0%,0%)" r="0.7" /><circle cx="352.753039979" cy="412.584432358" fill="rgb(100%,0%,0%)" r="0.7" /><circle cx="351.000513131" cy="415.019283963" fill="rgb(100%,0%,0%)" r="0.7" /><circle cx="349.211828003" cy="417.4276908" fill="rgb(100%,0%,0%)" r="0.7" /><circle cx="347.389268815" cy="419.810573748" fill="rgb(100%,0%,0%)" r="0.7" /><circle cx="345.534672157" cy="422.168616723" fill="rgb(100%,0%,0%)" r="0.7" /><circle cx="343.649568319" cy="424.502334857" fill="rgb(100%,0%,0%)" r="0.7" /><circle cx="341.735242152" cy="426.812149841" fill="rgb(100%,0%,0%)" r="0.7" /><circle cx="339.924669086" cy="429.203994653" fill="rgb(100%,0%,0%)" r="0.7" /><circle cx="338.120649741" cy="431.600982579" fill="rgb(100%,0%,0%)" r="0.7" /><circle cx="336.318467938" cy="433.999342042" fill="rgb(100%,0%,0%)" r="0.7" /><circle cx="334.518220223" cy="436.399157778" fill="rgb(100%,0%,0%)" r="0.7" /><circle cx="332.720152723" cy="438.800608106" fill="rgb(100%,0%,0%)" r="0.7" /><circle cx="330.924660596" cy="441.203982616" fill="rgb(100%,0%,0%)" r="0.7" /><circle cx="329.132354186" cy="443.60973444" fill="rgb(100%,0%,0%)" r="0.7" /><circle cx="327.34422113" cy="446.018589462" fill="rgb(100%,0%,0%)" r="0.7" /><circle cx="325.562006608" cy="448.431823802" fill="rgb(100%,0%,0%)" r="0.7" /><circle cx="323.79012041" cy="450.852633476" fill="rgb(100%,0%,0%)" r="0.7" /><circle cx="322.02664052" cy="453.279584525" fill="rgb(100%,0%,0%)" r="0.7" /><circle cx="320.210565691" cy="455.667280985" fill="rgb(100%,0%,0%)" r="0.7" /><circle cx="318.306429443" cy="457.985243239" fill="rgb(100%,0%,0%)" r="0.7" /><circle cx="316.300213339" cy="460.215362981" fill="rgb(100%,0%,0%)" r="0.7" /><circle cx="314.188692662" cy="462.346003414" fill="rgb(100%,0%,0%)" r="0.7" /><circle cx="311.974578961" cy="464.369832237" fill="rgb(100%,0%,0%)" r="0.7" /><circle cx="309.663940705" cy="466.282730073" fill="rgb(100%,0%,0%)" r="0.7" /><circle cx="307.264591151" cy="468.083135288" fill="rgb(100%,0%,0%)" r="0.7" /><circle cx="304.7850833" cy="469.771489992" fill="rgb(100%,0%,0%)" r="0.7" /><circle cx="302.234068748" cy="471.349761386" fill="rgb(100%,0%,0%)" r="0.7" /><circle cx="299.619854355" cy="472.821054285" fill="rgb(100%,0%,0%)" r="0.7" /><circle cx="296.950212623" cy="474.189235165" fill="rgb(100%,0%,0%)" r="0.7" /><circle cx="294.232206671" cy="475.45867987" fill="rgb(100%,0%,0%)" r="0.7" /><circle cx="291.472186791" cy="476.634029046" fill="rgb(100%,0%,0%)" r="0.7" /><circle cx="288.67578139" cy="477.72002754" fill="rgb(100%,0%,0%)" r="0.7" /><circle cx="285.84794979" cy="478.721394183" fill="rgb(100%,0%,0%)" r="0.7" /><circle cx="282.993030012" cy="479.642737537" fill="rgb(100%,0%,0%)" r="0.7" /><circle cx="280.114798732" cy="480.488497478" fill="rgb(100%,0%,0%)" r="0.7" /><circle cx="277.216548857" cy="481.262904187" fill="rgb(100%,0%,0%)" r="0.7" /><circle cx="274.301129257" cy="481.969963775" fill="rgb(100%,0%,0%)" r="0.7" /><circle cx="273.323" cy="484.189" fill="rgb(100%,0%,0%)" r="0.7" /><circle cx="273.323" cy="487.189" fill="rgb(100%,0%,0%)" r="0.7" /><circle cx="273.323" cy="490.189" fill="rgb(100%,0%,0%)" r="0.7" /><circle cx="273.323" cy="493.189" fill="rgb(100%,0%,0%)" r="0.7" /><circle cx="273.323" cy="496.189" fill="rgb(100%,0%,0%)" r="0.7" /><circle cx="273.323" cy="499.189" fill="rgb(100%,0%,0%)" r="0.7" /><circle cx="273.323" cy="502.189" fill="rgb(100%,0%,0%)" r="0.7" /><circle cx="273.323" cy="505.189" fill="rgb(100%,0%,0%)" r="0.7" /><circle cx="273.323" cy="508.189" fill="rgb(100%,0%,0%)" r="0.7" /><circle cx="273.323" cy="511.189" fill="rgb(100%,0%,0%)" r="0.7" /><circle cx="273.323" cy="514.189" fill="rgb(100%,0%,0%)" r="0.7" /><circle cx="274.134894042" cy="513.808774559" fill="rgb(100%,0%,0%)" r="0.7" /><circle cx="277.079003994" cy="513.259129851" fill="rgb(100%,0%,0%)" r="0.7" /><circle cx="280.070466041" cy="513.03942035" fill="rgb(100%,0%,0%)" r="0.7" /><circle cx="283.069114489" cy="512.953851329" fill="rgb(100%,0%,0%)" r="0.7" /><circle cx="286.069057294" cy="512.94783487" fill="rgb(100%,0%,0%)" r="0.7" /><circle cx="289.068621268" cy="512.997124666" fill="rgb(100%,0%,0%)" r="0.7" /><circle cx="292.067212519" cy="513.088621794" fill="rgb(100%,0%,0%)" r="0.7" /><circle cx="295.064555264" cy="513.21446915" fill="rgb(100%,0%,0%)" r="0.7" /><circle cx="298.060526721" cy="513.369693976" fill="rgb(100%,0%,0%)" r="0.7" /><circle cx="301.055029743" cy="513.551114137" fill="rgb(100%,0%,0%)" r="0.7" /><circle cx="304.047963645" cy="513.756795616" fill="rgb(100%,0%,0%)" r="0.7" /><circle cx="307.039203839" cy="513.985794196" fill="rgb(100%,0%,0%)" r="0.7" /><circle cx="310.028573399" cy="514.238080959" fill="rgb(100%,0%,0%)" r="0.7" /><circle cx="313.015791571" cy="514.514635443" fill="rgb(100%,0%,0%)" r="0.7" /><circle cx="316.000427085" cy="514.817774721" fill="rgb(100%,0%,0%)" r="0.7" /><circle cx="318.981744896" cy="515.151929654" fill="rgb(100%,0%,0%)" r="0.7" /><circle cx="321.958364179" cy="515.525545677" fill="rgb(100%,0%,0%)" r="0.7" /><circle cx="324.927136399" cy="515.956674207" fill="rgb(100%,0%,0%)" r="0.7" /><circle cx="327.877493343" cy="516.498025557" fill="rgb(100%,0%,0%)" r="0.7" /><circle cx="330.798534077" cy="517.180273315" fill="rgb(100%,0%,0%)" r="0.7" /><circle cx="333.766030719" cy="517.606504062" fill="rgb(100%,0%,0%)" r="0.7" /><circle cx="371.402926459" cy="372.02982589" fill="rgb(0%,0%,100%)" r="0.7" /><circle cx="372.934791055" cy="373.718112632" fill="rgb(0%,0%,100%)" r="0.7" /><circle cx="374.628782645" cy="376.194075575" fill="rgb(0%,0%,100%)" r="0.7" /><circle cx="376.261763999" cy="376.298484191" fill="rgb(0%,0%,100%)" r="0.7" /><circle cx="377.826206623" cy="373.738695279" fill="rgb(0%,0%,100%)" r="0.7" /><circle cx="379.026633451" cy="372.76904045" fill="rgb(0%,0%,100%)" r="0.7" /><circle cx="378.987618617" cy="375.765779852" fill="rgb(0%,0%,100%)" r="0.7" /><circle cx="378.564694807" cy="378.734407879" fill="rgb(0%,0%,100%)" r="0.7" /><circle cx="377.875740677" cy="381.653469168" fill="rgb(0%,0%,100%)" r="0.7" /><circle cx="376.991571737" cy="384.519759457" fill="rgb(0%,0%,100%)" r="0.7" /><circle cx="375.956080898" cy="387.335081365" fill="rgb(0%,0%,100%)" r="0.7" /><circle cx="374.796909191" cy="390.101861892" fill="rgb(0%,0%,100%)" r="0.7" /><circle cx="373.530264576" cy="392.82115402" fill="rgb(0%,0%,100%)" r="0.7" /><circle cx="372.159090171" cy="395.489224542" fill="rgb(0%,0%,100%)" r="0.7" /><circle cx="370.915329964" cy="398.215898946" fill="rgb(0%,0%,100%)" r="0.7" /><circle cx="369.693933256" cy="400.955955746" fill="rgb(0%,0%,100%)" r="0.7" /><circle cx="368.418789827" cy="403.671414632" fill="rgb(0%,0%,100%)" r="0.7" /><circle cx="367.089781213" cy="406.360916689" fill="rgb(0%,0%,100%)" r="0.7" /><circle cx="365.706313954" cy="409.02281718" fill="rgb(0%,0%,100%)" r="0.7" /><circle cx="364.267073134" cy="411.654971799" fill="rgb(0%,0%,100%)" r="0.7" /><circle cx="362.769484399" cy="414.254361626" fill="rgb(0%,0%,100%)" r="0.7" /><circle cx="361.208374933" cy="416.816083968" fill="rgb(0%,0%,100%)" r="0.7" /><circle cx="359.570492727" cy="419.32931783" fill="rgb(0%,0%,100%)" r="0.7" /><circle cx="358.016438766" cy="421.891966744" fill="rgb(0%,0%,100%)" r="0.7" /><circle cx="356.436829815" cy="424.442378735" fill="rgb(0%,0%,100%)" r="0.7" /><circle cx="354.825438807" cy="426.972866535" fill="rgb(0%,0%,100%)" r="0.7" /><circle cx="353.19830677" cy="429.49327929" fill="rgb(0%,0%,100%)" r="0.7" /><circle cx="351.561256776" cy="432.007247713" fill="rgb(0%,0%,100%)" r="0.7" /><circle cx="349.917161747" cy="434.516623764" fill="rgb(0%,0%,100%)" r="0.7" /><circle cx="348.267700677" cy="437.022473987" fill="rgb(0%,0%,100%)" r="0.7" /><circle cx="346.613940228" cy="439.5254886" fill="rgb(0%,0%,100%)" r="0.7" /><circle cx="344.956601483" cy="442.026138285" fill="rgb(0%,0%,100%)" r="0.7" /><circle cx="343.296193648" cy="444.524748853" fill="rgb(0%,0%,100%)" r="0.7" /><circle cx="341.633073374" cy="447.021557589" fill="rgb(0%,0%,100%)" r="0.7" /><circle cx="339.967490405" cy="449.516718242" fill="rgb(0%,0%,100%)" r="0.7" /><circle cx="338.299578077" cy="452.010331945" fill="rgb(0%,0%,100%)" r="0.7" /><circle cx="336.629345293" cy="454.50237641" fill="rgb(0%,0%,100%)" r="0.7" /><circle cx="334.949475231" cy="456.987794744" fill="rgb(0%,0%,100%)" r="0.7" /><circle cx="333.331413447" cy="459.51342375" fill="rgb(0%,0%,100%)" r="0.7" /><circle cx="331.81838826" cy="462.103837522" fill="rgb(0%,0%,100%)" r="0.7" /><circle cx="330.357020722" cy="464.72380433" fill="rgb(0%,0%,100%)" r="0.7" /><circle cx="328.928380995" cy="467.361779842" fill="rgb(0%,0%,100%)" r="0.7" /><circle cx="327.523208091" cy="470.012337143" fill="rgb(0%,0%,100%)" r="0.7" /><circle cx="326.136240603" cy="472.672470035" fill="rgb(0%,0%,100%)" r="0.7" /><circle cx="324.764281897" cy="475.340370604" fill="rgb(0%,0%,100%)" r="0.7" /><circle cx="323.405431652" cy="478.014981738" fill="rgb(0%,0%,100%)" r="0.7" /><circle cx="322.059011395" cy="480.695869643" fill="rgb(0%,0%,100%)" r="0.7" /><circle cx="320.91634885" cy="483.453788652" fill="rgb(0%,0%,100%)" r="0.7" /><circle cx="320.652113502" cy="486.436349371" fill="rgb(0%,0%,100%)" r="0.7" /><circle cx="320.904479018" cy="489.423312598" fill="rgb(0%,0%,100%)" r="0.7" /><circle cx="321.51018263" cy="492.360139533" fill="rgb(0%,0%,100%)" r="0.7" /><circle cx="322.432388809" cy="495.212177647" fill="rgb(0%,0%,100%)" r="0.7" /><circle cx="323.971044618" cy="497.780680975" fill="rgb(0%,0%,100%)" r="0.7" /><circle cx="325.893131945" cy="500.082060869" fill="rgb(0%,0%,100%)" r="0.7" /><circle cx="328.010531724" cy="502.206442719" fill="rgb(0%,0%,100%)" r="0.7" /><circle cx="330.249175705" cy="504.203094264" fill="rgb(0%,0%,100%)" r="0.7" /><circle cx="332.573867919" cy="506.099052635" fill="rgb(0%,0%,100%)" r="0.7" /><circle cx="334.967814816" cy="507.906826734" fill="rgb(0%,0%,100%)" r="0.7" /><circle cx="337.317168195" cy="509.762003232" fill="rgb(0%,0%,100%)" r="0.7" /><circle cx="338.915152618" cy="512.268447024" fill="rgb(0%,0%,100%)" r="0.7" /><circle cx="338.711029553" cy="515.190900554" fill="rgb(0%,0%,100%)" r="0.7" /><circle cx="336.735302683" cy="517.353802811" fill="rgb(0%,0%,100%)" r="0.7" /><circle cx="333.766030719" cy="517.606504062" fill="rgb(0%,0%,100%)" r="0.7" /></svg>