<?xml version="1.0" encoding="utf-8" ?>
<svg baseProfile="full" height="100%" version="1.1" width="100%" xmlns="http://www.w3.org/2000/svg" xmlns:ev="http://www.w3.org/2001/xml-events" xmlns:xlink="http://www.w3.org/1999/xlink"><defs /><circle cx="318.197134088" cy="282.178196083" fill="rgb(100%,0%,0%)" r="0.7" /><circle cx="315.287826067" cy="282.752592535" fill="rgb(100%,0%,0%)" r="0.7" /><circle cx="313.212079641" cy="284.886770317" fill="rgb(100%,0%,0%)" r="0.7" /><circle cx="311.714964508" cy="287.483649907" fill="rgb(100%,0%,0%)" r="0.7" /><circle cx="310.494870847" cy="290.223514864" fill="rgb(100%,0%,0%)" r="0.7" /><circle cx="309.463830908" cy="293.040223268" fill="rgb(100%,0%,0%)" r="0.7" /><circle cx="308.717326603" cy="295.945402122" fill="rgb(100%,0%,0%)" r="0.7" /><circle cx="307.908279275" cy="298.834167993" fill="rgb(100%,0%,0%)" r="0.7" /><circle cx="307.032421813" cy="301.703415784" fill="rgb(100%,0%,0%)" r="0.7" /><circle cx="306.097624461" cy="304.554003069" fill="rgb(100%,0%,0%)" r="0.7" /><circle cx="305.110362777" cy="307.386861687" fill="rgb(100%,0%,0%)" r="0.7" /><circle cx="304.076039943" cy="310.202885054" fill="rgb(100%,0%,0%)" r="0.7" /><circle cx="302.999202381" cy="313.002932256" fill="rgb(100%,0%,0%)" r="0.7" /><circle cx="301.883709832" cy="315.787813524" fill="rgb(100%,0%,0%)" r="0.7" /><circle cx="300.732869712" cy="318.558273586" fill="rgb(100%,0%,0%)" r="0.7" /><circle cx="299.549528298" cy="321.315013063" fill="rgb(100%,0%,0%)" r="0.7" /><circle cx="298.336157064" cy="324.05867015" fill="rgb(100%,0%,0%)" r="0.7" /><circle cx="297.094911201" cy="326.789831438" fill="rgb(100%,0%,0%)" r="0.7" /><circle cx="295.827678874" cy="329.509034846" fill="rgb(100%,0%,0%)" r="0.7" /><circle cx="294.536122356" cy="332.216769319" fill="rgb(100%,0%,0%)" r="0.7" /><circle cx="293.221707302" cy="334.913483469" fill="rgb(100%,0%,0%)" r="0.7" /><circle cx="291.885730431" cy="337.599584354" fill="rgb(100%,0%,0%)" r="0.7" /><circle cx="290.529343082" cy="340.275434875" fill="rgb(100%,0%,0%)" r="0.7" /><circle cx="289.153564724" cy="342.941362842" fill="rgb(100%,0%,0%)" r="0.7" /><circle cx="287.759290032" cy="345.597674529" fill="rgb(100%,0%,0%)" r="0.7" /><circle cx="286.347322108" cy="348.244612402" fill="rgb(100%,0%,0%)" r="0.7" /><circle cx="284.918343724" cy="350.88242471" fill="rgb(100%,0%,0%)" r="0.7" /><circle cx="283.472972794" cy="353.511271135" fill="rgb(100%,0%,0%)" r="0.7" /><circle cx="282.011704173" cy="356.131332695" fill="rgb(100%,0%,0%)" r="0.7" /><circle cx="280.53496684" cy="358.742702206" fill="rgb(100%,0%,0%)" r="0.7" /><circle cx="279.043088596" cy="361.345433604" fill="rgb(100%,0%,0%)" r="0.7" /><circle cx="277.536268181" cy="363.939559298" fill="rgb(100%,0%,0%)" r="0.7" /><circle cx="276.014595242" cy="366.525000236" fill="rgb(100%,0%,0%)" r="0.7" /><circle cx="274.477974829" cy="369.101596178" fill="rgb(100%,0%,0%)" r="0.7" /><circle cx="272.92608314" cy="371.668987762" fill="rgb(100%,0%,0%)" r="0.7" /><circle cx="271.358113814" cy="374.226615393" fill="rgb(100%,0%,0%)" r="0.7" /><circle cx="269.772344157" cy="376.773244018" fill="rgb(100%,0%,0%)" r="0.7" /><circle cx="268.163" cy="379.305" fill="rgb(100%,0%,0%)" r="0.7" /><circle cx="269.956393617" cy="378.897908427" fill="rgb(100%,0%,0%)" r="0.7" /><circle cx="272.915570298" cy="378.404680926" fill="rgb(100%,0%,0%)" r="0.7" /><circle cx="275.87474698" cy="377.911453425" fill="rgb(100%,0%,0%)" r="0.7" /><circle cx="278.833923661" cy="377.418225923" fill="rgb(100%,0%,0%)" r="0.7" /><circle cx="281.793100343" cy="376.924998422" fill="rgb(100%,0%,0%)" r="0.7" /><circle cx="283.060701964" cy="378.231103542" fill="rgb(100%,0%,0%)" r="0.7" /><circle cx="282.750927702" cy="381.215067333" fill="rgb(100%,0%,0%)" r="0.7" /><circle cx="282.44115344" cy="384.199031124" fill="rgb(100%,0%,0%)" r="0.7" /><circle cx="282.131379177" cy="387.182994915" fill="rgb(100%,0%,0%)" r="0.7" /><circle cx="281.821604915" cy="390.166958706" fill="rgb(100%,0%,0%)" r="0.7" /><circle cx="281.511830653" cy="393.150922497" fill="rgb(100%,0%,0%)" r="0.7" /><circle cx="281.202056391" cy="396.134886288" fill="rgb(100%,0%,0%)" r="0.7" /><circle cx="280.892282129" cy="399.118850079" fill="rgb(100%,0%,0%)" r="0.7" /><circle cx="280.582507866" cy="402.10281387" fill="rgb(100%,0%,0%)" r="0.7" /><circle cx="280.272733604" cy="405.086777661" fill="rgb(100%,0%,0%)" r="0.7" /><circle cx="279.962959342" cy="408.070741453" fill="rgb(100%,0%,0%)" r="0.7" /><circle cx="279.65318508" cy="411.054705244" fill="rgb(100%,0%,0%)" r="0.7" /><circle cx="318.197134088" cy="282.178196083" fill="rgb(0%,0%,100%)" r="0.7" /><circle cx="320.893975052" cy="283.346980522" fill="rgb(0%,0%,100%)" r="0.7" /><circle cx="322.449868715" cy="285.879549049" fill="rgb(0%,0%,100%)" r="0.7" /><circle cx="323.09416562" cy="288.80300224" fill="rgb(0%,0%,100%)" r="0.7" /><circle cx="323.237400014" cy="291.797637118" fill="rgb(0%,0%,100%)" r="0.7" /><circle cx="323.076953438" cy="294.792399311" fill="rgb(0%,0%,100%)" r="0.7" /><circle cx="322.763427437" cy="297.775903534" fill="rgb(0%,0%,100%)" r="0.7" /><circle cx="322.388537483" cy="300.752351256" fill="rgb(0%,0%,100%)" r="0.7" /><circle cx="321.965239494" cy="303.72231334" fill="rgb(0%,0%,100%)" r="0.7" /><circle cx="321.49922111" cy="306.685871716" fill="rgb(0%,0%,100%)" r="0.7" /><circle cx="320.9938127" cy="309.642965452" fill="rgb(0%,0%,100%)" r="0.7" /><circle cx="320.451210506" cy="312.593466478" fill="rgb(0%,0%,100%)" r="0.7" /><circle cx="319.872963176" cy="315.537193428" fill="rgb(0%,0%,100%)" r="0.7" /><circle cx="319.260204434" cy="318.473944383" fill="rgb(0%,0%,100%)" r="0.7" /><circle cx="318.613792524" cy="321.403464572" fill="rgb(0%,0%,100%)" r="0.7" /><circle cx="317.934379239" cy="324.325501496" fill="rgb(0%,0%,100%)" r="0.7" /><circle cx="317.222462493" cy="327.239797454" fill="rgb(0%,0%,100%)" r="0.7" /><circle cx="316.478433547" cy="330.146041472" fill="rgb(0%,0%,100%)" r="0.7" /><circle cx="315.702577336" cy="333.043967549" fill="rgb(0%,0%,100%)" r="0.7" /><circle cx="314.895118954" cy="335.933243521" fill="rgb(0%,0%,100%)" r="0.7" /><circle cx="314.056217377" cy="338.813548722" fill="rgb(0%,0%,100%)" r="0.7" /><circle cx="313.18598314" cy="341.68454624" fill="rgb(0%,0%,100%)" r="0.7" /><circle cx="312.284490923" cy="344.545870209" fill="rgb(0%,0%,100%)" r="0.7" /><circle cx="311.351769429" cy="347.397179123" fill="rgb(0%,0%,100%)" r="0.7" /><circle cx="310.387831351" cy="350.238078346" fill="rgb(0%,0%,100%)" r="0.7" /><circle cx="309.392651696" cy="353.06820029" fill="rgb(0%,0%,100%)" r="0.7" /><circle cx="308.366198724" cy="355.887124553" fill="rgb(0%,0%,100%)" r="0.7" /><circle cx="307.30842061" cy="358.694427923" fill="rgb(0%,0%,100%)" r="0.7" /><circle cx="306.219238726" cy="361.489707069" fill="rgb(0%,0%,100%)" r="0.7" /><circle cx="305.098575383" cy="364.27251179" fill="rgb(0%,0%,100%)" r="0.7" /><circle cx="303.946336981" cy="367.042395607" fill="rgb(0%,0%,100%)" r="0.7" /><circle cx="302.762426789" cy="369.798888773" fill="rgb(0%,0%,100%)" r="0.7" /><circle cx="301.546735543" cy="372.541525075" fill="rgb(0%,0%,100%)" r="0.7" /><circle cx="300.299167271" cy="375.269787719" fill="rgb(0%,0%,100%)" r="0.7" /><circle cx="299.019597549" cy="377.983205819" fill="rgb(0%,0%,100%)" r="0.7" /><circle cx="297.707923273" cy="380.681248398" fill="rgb(0%,0%,100%)" r="0.7" /><circle cx="296.364037743" cy="383.363383458" fill="rgb(0%,0%,100%)" r="0.7" /><circle cx="294.987832941" cy="386.029075177" fill="rgb(0%,0%,100%)" r="0.7" /><circle cx="293.579201606" cy="388.677781864" fill="rgb(0%,0%,100%)" r="0.7" /><circle cx="292.138047718" cy="391.308939117" fill="rgb(0%,0%,100%)" r="0.7" /><circle cx="290.664286309" cy="393.921964528" fill="rgb(0%,0%,100%)" r="0.7" /><circle cx="289.157834114" cy="396.51627733" fill="rgb(0%,0%,100%)" r="0.7" /><circle cx="287.618615457" cy="399.091289727" fill="rgb(0%,0%,100%)" r="0.7" /><circle cx="286.046571765" cy="401.646393905" fill="rgb(0%,0%,100%)" r="0.7" /><circle cx="284.441654543" cy="404.180977072" fill="rgb(0%,0%,100%)" r="0.7" /><circle cx="282.803826832" cy="406.694421384" fill="rgb(0%,0%,100%)" r="0.7" /><circle cx="281.13306457" cy="409.18610415" fill="rgb(0%,0%,100%)" r="0.7" /><circle cx="279.65318508" cy="411.054705244" fill="rgb(0%,0%,100%)" r="0.7" /></svg>