<?xml version="1.0" encoding="utf-8" ?>
<svg baseProfile="full" height="100%" version="1.1" width="100%" xmlns="http://www.w3.org/2000/svg" xmlns:ev="http://www.w3.org/2001/xml-events" xmlns:xlink="http://www.w3.org/1999/xlink"><defs /><circle cx="324.419474887" cy="248.736561247" fill="rgb(100%,0%,0%)" r="0.7" /><circle cx="322.202585838" cy="250.689553785" fill="rgb(100%,0%,0%)" r="0.7" /><circle cx="320.469013325" cy="253.135314089" fill="rgb(100%,0%,0%)" r="0.7" /><circle cx="319.00606262" cy="255.753273694" fill="rgb(100%,0%,0%)" r="0.7" /><circle cx="317.912372895" cy="258.541330921" fill="rgb(100%,0%,0%)" r="0.7" /><circle cx="317.046169189" cy="261.413391643" fill="rgb(100%,0%,0%)" r="0.7" /><circle cx="316.264998574" cy="264.309828356" fill="rgb(100%,0%,0%)" r="0.7" /><circle cx="315.544363033" cy="267.221948439" fill="rgb(100%,0%,0%)" r="0.7" /><circle cx="314.870381055" cy="270.145234157" fill="rgb(100%,0%,0%)" r="0.7" /><circle cx="314.234596939" cy="273.077071143" fill="rgb(100%,0%,0%)" r="0.7" /><circle cx="313.63191011" cy="276.015898856" fill="rgb(100%,0%,0%)" r="0.7" /><circle cx="313.060115204" cy="278.960890376" fill="rgb(100%,0%,0%)" r="0.7" /><circle cx="312.548459828" cy="281.9162551" fill="rgb(100%,0%,0%)" r="0.7" /><circle cx="312.120487456" cy="284.885501853" fill="rgb(100%,0%,0%)" r="0.7" /><circle cx="311.636626815" cy="287.846201378" fill="rgb(100%,0%,0%)" r="0.7" /><circle cx="311.115260265" cy="290.80053678" fill="rgb(100%,0%,0%)" r="0.7" /><circle cx="310.566361986" cy="293.749888827" fill="rgb(100%,0%,0%)" r="0.7" /><circle cx="309.996045312" cy="296.695173205" fill="rgb(100%,0%,0%)" r="0.7" /><circle cx="309.408358886" cy="299.637046121" fill="rgb(100%,0%,0%)" r="0.7" /><circle cx="308.806134367" cy="302.57597729" fill="rgb(100%,0%,0%)" r="0.7" /><circle cx="308.191424134" cy="305.512321578" fill="rgb(100%,0%,0%)" r="0.7" /><circle cx="307.565749132" cy="308.446353481" fill="rgb(100%,0%,0%)" r="0.7" /><circle cx="306.930247831" cy="311.378270314" fill="rgb(100%,0%,0%)" r="0.7" /><circle cx="306.285754749" cy="314.308224987" fill="rgb(100%,0%,0%)" r="0.7" /><circle cx="305.632840138" cy="317.236312271" fill="rgb(100%,0%,0%)" r="0.7" /><circle cx="304.971786464" cy="320.162576489" fill="rgb(100%,0%,0%)" r="0.7" /><circle cx="304.302439786" cy="323.086953312" fill="rgb(100%,0%,0%)" r="0.7" /><circle cx="303.623116404" cy="326.009023615" fill="rgb(100%,0%,0%)" r="0.7" /><circle cx="303.087229373" cy="328.960740798" fill="rgb(100%,0%,0%)" r="0.7" /><circle cx="302.543861767" cy="331.91112745" fill="rgb(100%,0%,0%)" r="0.7" /><circle cx="301.99539063" cy="334.860558866" fill="rgb(100%,0%,0%)" r="0.7" /><circle cx="301.443267342" cy="337.809320589" fill="rgb(100%,0%,0%)" r="0.7" /><circle cx="300.888354514" cy="340.757551556" fill="rgb(100%,0%,0%)" r="0.7" /><circle cx="300.331206393" cy="343.705362465" fill="rgb(100%,0%,0%)" r="0.7" /><circle cx="299.772205335" cy="346.652823767" fill="rgb(100%,0%,0%)" r="0.7" /><circle cx="299.211626049" cy="349.599984369" fill="rgb(100%,0%,0%)" r="0.7" /><circle cx="298.649670537" cy="352.546884123" fill="rgb(100%,0%,0%)" r="0.7" /><circle cx="298.086490631" cy="355.493549362" fill="rgb(100%,0%,0%)" r="0.7" /><circle cx="297.522198571" cy="358.440004198" fill="rgb(100%,0%,0%)" r="0.7" /><circle cx="296.956877551" cy="361.386250338" fill="rgb(100%,0%,0%)" r="0.7" /><circle cx="296.39057157" cy="364.33232505" fill="rgb(100%,0%,0%)" r="0.7" /><circle cx="295.823295226" cy="367.278204733" fill="rgb(100%,0%,0%)" r="0.7" /><circle cx="295.254973716" cy="370.223888352" fill="rgb(100%,0%,0%)" r="0.7" /><circle cx="294.607696783" cy="373.152129034" fill="rgb(100%,0%,0%)" r="0.7" /><circle cx="293.891508746" cy="376.06539259" fill="rgb(100%,0%,0%)" r="0.7" /><circle cx="293.187866623" cy="378.981706322" fill="rgb(100%,0%,0%)" r="0.7" /><circle cx="292.498256908" cy="381.901360047" fill="rgb(100%,0%,0%)" r="0.7" /><circle cx="291.824547878" cy="384.824731517" fill="rgb(100%,0%,0%)" r="0.7" /><circle cx="291.16917881" cy="387.752259794" fill="rgb(100%,0%,0%)" r="0.7" /><circle cx="290.535450648" cy="390.684562168" fill="rgb(100%,0%,0%)" r="0.7" /><circle cx="289.928135455" cy="393.622427193" fill="rgb(100%,0%,0%)" r="0.7" /><circle cx="289.354768541" cy="396.567100943" fill="rgb(100%,0%,0%)" r="0.7" /><circle cx="288.829476488" cy="399.520705548" fill="rgb(100%,0%,0%)" r="0.7" /><circle cx="288.397" cy="402.489" fill="rgb(100%,0%,0%)" r="0.7" /><circle cx="289.367816017" cy="401.373024409" fill="rgb(100%,0%,0%)" r="0.7" /><circle cx="291.336816924" cy="399.109612068" fill="rgb(100%,0%,0%)" r="0.7" /><circle cx="293.305817832" cy="396.846199727" fill="rgb(100%,0%,0%)" r="0.7" /><circle cx="295.27481874" cy="394.582787386" fill="rgb(100%,0%,0%)" r="0.7" /><circle cx="297.353232401" cy="396.644472108" fill="rgb(100%,0%,0%)" r="0.7" /><circle cx="299.434157462" cy="398.805432749" fill="rgb(100%,0%,0%)" r="0.7" /><circle cx="301.515082523" cy="400.966393389" fill="rgb(100%,0%,0%)" r="0.7" /><circle cx="303.596007584" cy="403.12735403" fill="rgb(100%,0%,0%)" r="0.7" /><circle cx="324.419474887" cy="248.736561247" fill="rgb(0%,0%,100%)" r="0.7" /><circle cx="327.382285224" cy="248.920220382" fill="rgb(0%,0%,100%)" r="0.7" /><circle cx="330.096806848" cy="250.175550995" fill="rgb(0%,0%,100%)" r="0.7" /><circle cx="332.486006141" cy="251.984066413" fill="rgb(0%,0%,100%)" r="0.7" /><circle cx="334.606341989" cy="254.104144558" fill="rgb(0%,0%,100%)" r="0.7" /><circle cx="336.669350182" cy="256.27861271" fill="rgb(0%,0%,100%)" r="0.7" /><circle cx="338.70529993" cy="258.481474892" fill="rgb(0%,0%,100%)" r="0.7" /><circle cx="340.614053736" cy="260.795361616" fill="rgb(0%,0%,100%)" r="0.7" /><circle cx="342.369740162" cy="263.227187007" fill="rgb(0%,0%,100%)" r="0.7" /><circle cx="343.921749605" cy="265.793264987" fill="rgb(0%,0%,100%)" r="0.7" /><circle cx="345.180162191" cy="268.514198473" fill="rgb(0%,0%,100%)" r="0.7" /><circle cx="346.123334189" cy="271.357412013" fill="rgb(0%,0%,100%)" r="0.7" /><circle cx="346.76889406" cy="274.277343706" fill="rgb(0%,0%,100%)" r="0.7" /><circle cx="346.35112172" cy="277.221057928" fill="rgb(0%,0%,100%)" r="0.7" /><circle cx="344.467244913" cy="279.500156445" fill="rgb(0%,0%,100%)" r="0.7" /><circle cx="341.713796613" cy="280.64862406" fill="rgb(0%,0%,100%)" r="0.7" /><circle cx="338.742404817" cy="281.027356414" fill="rgb(0%,0%,100%)" r="0.7" /><circle cx="335.779086022" cy="281.346026884" fill="rgb(0%,0%,100%)" r="0.7" /><circle cx="333.234918495" cy="282.882151983" fill="rgb(0%,0%,100%)" r="0.7" /><circle cx="331.798385471" cy="285.475431678" fill="rgb(0%,0%,100%)" r="0.7" /><circle cx="330.977313409" cy="288.356824391" fill="rgb(0%,0%,100%)" r="0.7" /><circle cx="330.077359018" cy="291.218670278" fill="rgb(0%,0%,100%)" r="0.7" /><circle cx="329.180598004" cy="294.081487664" fill="rgb(0%,0%,100%)" r="0.7" /><circle cx="328.28680237" cy="296.945249658" fill="rgb(0%,0%,100%)" r="0.7" /><circle cx="327.395957797" cy="299.809943445" fill="rgb(0%,0%,100%)" r="0.7" /><circle cx="326.508153521" cy="302.675566267" fill="rgb(0%,0%,100%)" r="0.7" /><circle cx="325.623536827" cy="305.542174222" fill="rgb(0%,0%,100%)" r="0.7" /><circle cx="324.742320718" cy="308.409834431" fill="rgb(0%,0%,100%)" r="0.7" /><circle cx="323.864787531" cy="311.27862514" fill="rgb(0%,0%,100%)" r="0.7" /><circle cx="322.991297344" cy="314.148646255" fill="rgb(0%,0%,100%)" r="0.7" /><circle cx="322.122303891" cy="317.020033174" fill="rgb(0%,0%,100%)" r="0.7" /><circle cx="321.25838727" cy="319.892952352" fill="rgb(0%,0%,100%)" r="0.7" /><circle cx="320.400297626" cy="322.767616363" fill="rgb(0%,0%,100%)" r="0.7" /><circle cx="319.54902512" cy="325.644303932" fill="rgb(0%,0%,100%)" r="0.7" /><circle cx="318.705914399" cy="328.52339399" fill="rgb(0%,0%,100%)" r="0.7" /><circle cx="317.872867886" cy="331.405410575" fill="rgb(0%,0%,100%)" r="0.7" /><circle cx="317.052720082" cy="334.291135171" fill="rgb(0%,0%,100%)" r="0.7" /><circle cx="316.250047468" cy="337.18175491" fill="rgb(0%,0%,100%)" r="0.7" /><circle cx="315.473113773" cy="340.079395906" fill="rgb(0%,0%,100%)" r="0.7" /><circle cx="314.740214935" cy="342.988434573" fill="rgb(0%,0%,100%)" r="0.7" /><circle cx="314.116247456" cy="345.922247633" fill="rgb(0%,0%,100%)" r="0.7" /><circle cx="313.610742036" cy="348.870995279" fill="rgb(0%,0%,100%)" r="0.7" /><circle cx="312.960443128" cy="351.799667649" fill="rgb(0%,0%,100%)" r="0.7" /><circle cx="312.317839556" cy="354.730034122" fill="rgb(0%,0%,100%)" r="0.7" /><circle cx="311.682389669" cy="357.661967015" fill="rgb(0%,0%,100%)" r="0.7" /><circle cx="311.054105069" cy="360.595437394" fill="rgb(0%,0%,100%)" r="0.7" /><circle cx="310.433255223" cy="363.530497436" fill="rgb(0%,0%,100%)" r="0.7" /><circle cx="309.82031058" cy="366.467214723" fill="rgb(0%,0%,100%)" r="0.7" /><circle cx="309.215926609" cy="369.405707566" fill="rgb(0%,0%,100%)" r="0.7" /><circle cx="308.620972412" cy="372.34611992" fill="rgb(0%,0%,100%)" r="0.7" /><circle cx="308.036575931" cy="375.288647999" fill="rgb(0%,0%,100%)" r="0.7" /><circle cx="307.464208645" cy="378.23354108" fill="rgb(0%,0%,100%)" r="0.7" /><circle cx="306.905819217" cy="381.181115532" fill="rgb(0%,0%,100%)" r="0.7" /><circle cx="306.364052184" cy="384.131782068" fill="rgb(0%,0%,100%)" r="0.7" /><circle cx="305.842621033" cy="387.086115307" fill="rgb(0%,0%,100%)" r="0.7" /><circle cx="305.347015186" cy="390.044892128" fill="rgb(0%,0%,100%)" r="0.7" /><circle cx="304.88593572" cy="393.009219792" fill="rgb(0%,0%,100%)" r="0.7" /><circle cx="304.47469325" cy="395.980842988" fill="rgb(0%,0%,100%)" r="0.7" /><circle cx="304.145429125" cy="398.962562166" fill="rgb(0%,0%,100%)" r="0.7" /><circle cx="303.995793554" cy="401.957648662" fill="rgb(0%,0%,100%)" r="0.7" /><circle cx="303.596007584" cy="403.12735403" fill="rgb(0%,0%,100%)" r="0.7" /></svg>