<?xml version="1.0" encoding="utf-8" ?>
<svg baseProfile="full" height="100%" version="1.1" width="100%" xmlns="http://www.w3.org/2000/svg" xmlns:ev="http://www.w3.org/2001/xml-events" xmlns:xlink="http://www.w3.org/1999/xlink"><defs /><circle cx="255.961522676" cy="306.254947961" fill="rgb(100%,0%,0%)" r="0.7" /><circle cx="253.00712308" cy="306.738582087" fill="rgb(100%,0%,0%)" r="0.7" /><circle cx="250.199425782" cy="307.785481565" fill="rgb(100%,0%,0%)" r="0.7" /><circle cx="247.569635563" cy="309.225185869" fill="rgb(100%,0%,0%)" r="0.7" /><circle cx="245.108444567" cy="310.93868781" fill="rgb(100%,0%,0%)" r="0.7" /><circle cx="242.795442478" cy="312.848175601" fill="rgb(100%,0%,0%)" r="0.7" /><circle cx="240.609883192" cy="314.902642712" fill="rgb(100%,0%,0%)" r="0.7" /><circle cx="238.533704204" cy="317.067775104" fill="rgb(100%,0%,0%)" r="0.7" /><circle cx="236.535173529" cy="319.302853922" fill="rgb(100%,0%,0%)" r="0.7" /><circle cx="234.953833697" cy="321.846872196" fill="rgb(100%,0%,0%)" r="0.7" /><circle cx="233.832414828" cy="324.626017632" fill="rgb(100%,0%,0%)" r="0.7" /><circle cx="233.133857276" cy="327.541076396" fill="rgb(100%,0%,0%)" r="0.7" /><circle cx="232.81991506" cy="330.522739589" fill="rgb(100%,0%,0%)" r="0.7" /><circle cx="232.846686492" cy="333.521215901" fill="rgb(100%,0%,0%)" r="0.7" /><circle cx="233.168970488" cy="336.502790875" fill="rgb(100%,0%,0%)" r="0.7" /><circle cx="233.74431014" cy="339.446301002" fill="rgb(100%,0%,0%)" r="0.7" /><circle cx="234.535155593" cy="342.339573704" fill="rgb(100%,0%,0%)" r="0.7" /><circle cx="235.509476748" cy="345.176481067" fill="rgb(100%,0%,0%)" r="0.7" /><circle cx="236.640486518" cy="347.954746288" fill="rgb(100%,0%,0%)" r="0.7" /><circle cx="237.90600249" cy="350.674476049" fill="rgb(100%,0%,0%)" r="0.7" /><circle cx="239.215483556" cy="353.37351715" fill="rgb(100%,0%,0%)" r="0.7" /><circle cx="240.473452392" cy="356.096987346" fill="rgb(100%,0%,0%)" r="0.7" /><circle cx="241.695464199" cy="358.83681179" fill="rgb(100%,0%,0%)" r="0.7" /><circle cx="242.886798404" cy="361.590087922" fill="rgb(100%,0%,0%)" r="0.7" /><circle cx="244.050306452" cy="364.35526247" fill="rgb(100%,0%,0%)" r="0.7" /><circle cx="245.187766054" cy="367.131257171" fill="rgb(100%,0%,0%)" r="0.7" /><circle cx="246.300395039" cy="369.917288505" fill="rgb(100%,0%,0%)" r="0.7" /><circle cx="247.389078018" cy="372.712778293" fill="rgb(100%,0%,0%)" r="0.7" /><circle cx="248.454452623" cy="375.517220989" fill="rgb(100%,0%,0%)" r="0.7" /><circle cx="249.497008838" cy="378.330230764" fill="rgb(100%,0%,0%)" r="0.7" /><circle cx="250.5171095" cy="381.151463466" fill="rgb(100%,0%,0%)" r="0.7" /><circle cx="251.515026964" cy="383.980624298" fill="rgb(100%,0%,0%)" r="0.7" /><circle cx="252.490954866" cy="386.817435606" fill="rgb(100%,0%,0%)" r="0.7" /><circle cx="253.44503584" cy="389.661668835" fill="rgb(100%,0%,0%)" r="0.7" /><circle cx="254.377363597" cy="392.513116554" fill="rgb(100%,0%,0%)" r="0.7" /><circle cx="255.287982385" cy="395.371561781" fill="rgb(100%,0%,0%)" r="0.7" /><circle cx="256.176910983" cy="398.236829881" fill="rgb(100%,0%,0%)" r="0.7" /><circle cx="257.044137314" cy="401.108756117" fill="rgb(100%,0%,0%)" r="0.7" /><circle cx="257.889611015" cy="403.987144765" fill="rgb(100%,0%,0%)" r="0.7" /><circle cx="258.713270328" cy="406.871846363" fill="rgb(100%,0%,0%)" r="0.7" /><circle cx="259.515033452" cy="409.762721471" fill="rgb(100%,0%,0%)" r="0.7" /><circle cx="260.294791399" cy="412.659605451" fill="rgb(100%,0%,0%)" r="0.7" /><circle cx="261.052422059" cy="415.562350817" fill="rgb(100%,0%,0%)" r="0.7" /><circle cx="261.78778975" cy="418.470821024" fill="rgb(100%,0%,0%)" r="0.7" /><circle cx="262.500739628" cy="421.3848628" fill="rgb(100%,0%,0%)" r="0.7" /><circle cx="263.191108625" cy="424.304344783" fill="rgb(100%,0%,0%)" r="0.7" /><circle cx="263.85871441" cy="427.229107448" fill="rgb(100%,0%,0%)" r="0.7" /><circle cx="264.503369977" cy="430.159021044" fill="rgb(100%,0%,0%)" r="0.7" /><circle cx="265.124870662" cy="433.093925164" fill="rgb(100%,0%,0%)" r="0.7" /><circle cx="265.72300731" cy="436.033685063" fill="rgb(100%,0%,0%)" r="0.7" /><circle cx="266.297557951" cy="438.978150618" fill="rgb(100%,0%,0%)" r="0.7" /><circle cx="266.848288538" cy="441.927154118" fill="rgb(100%,0%,0%)" r="0.7" /><circle cx="267.374961878" cy="444.880554849" fill="rgb(100%,0%,0%)" r="0.7" /><circle cx="267.877327327" cy="447.838181495" fill="rgb(100%,0%,0%)" r="0.7" /><circle cx="268.551801398" cy="449.59700821" fill="rgb(100%,0%,0%)" r="0.7" /><circle cx="255.961522676" cy="306.254947961" fill="rgb(0%,0%,100%)" r="0.7" /><circle cx="258.939414399" cy="306.525997781" fill="rgb(0%,0%,100%)" r="0.7" /><circle cx="261.706962856" cy="307.653068397" fill="rgb(0%,0%,100%)" r="0.7" /><circle cx="263.974537762" cy="309.591866706" fill="rgb(0%,0%,100%)" r="0.7" /><circle cx="264.911700913" cy="312.405161029" fill="rgb(0%,0%,100%)" r="0.7" /><circle cx="264.539525361" cy="315.366630731" fill="rgb(0%,0%,100%)" r="0.7" /><circle cx="263.4024002" cy="318.137662596" fill="rgb(0%,0%,100%)" r="0.7" /><circle cx="261.854428848" cy="320.705355436" fill="rgb(0%,0%,100%)" r="0.7" /><circle cx="260.057888081" cy="323.106863327" fill="rgb(0%,0%,100%)" r="0.7" /><circle cx="258.089877442" cy="325.370429144" fill="rgb(0%,0%,100%)" r="0.7" /><circle cx="255.982896016" cy="327.505276929" fill="rgb(0%,0%,100%)" r="0.7" /><circle cx="254.249937561" cy="329.935325149" fill="rgb(0%,0%,100%)" r="0.7" /><circle cx="253.09744277" cy="332.698206685" fill="rgb(0%,0%,100%)" r="0.7" /><circle cx="252.694527049" cy="335.660100613" fill="rgb(0%,0%,100%)" r="0.7" /><circle cx="253.279946286" cy="338.583863883" fill="rgb(0%,0%,100%)" r="0.7" /><circle cx="254.64023038" cy="341.257285768" fill="rgb(0%,0%,100%)" r="0.7" /><circle cx="255.913223072" cy="343.973653168" fill="rgb(0%,0%,100%)" r="0.7" /><circle cx="257.104795688" cy="346.726780642" fill="rgb(0%,0%,100%)" r="0.7" /><circle cx="258.229110157" cy="349.508059107" fill="rgb(0%,0%,100%)" r="0.7" /><circle cx="259.296712267" cy="352.31162037" fill="rgb(0%,0%,100%)" r="0.7" /><circle cx="260.315660268" cy="355.133248015" fill="rgb(0%,0%,100%)" r="0.7" /><circle cx="261.292263261" cy="357.969810447" fill="rgb(0%,0%,100%)" r="0.7" /><circle cx="262.231574485" cy="360.818953755" fill="rgb(0%,0%,100%)" r="0.7" /><circle cx="263.137694603" cy="363.678821365" fill="rgb(0%,0%,100%)" r="0.7" /><circle cx="264.014016537" cy="366.547967551" fill="rgb(0%,0%,100%)" r="0.7" /><circle cx="264.863374457" cy="369.425223304" fill="rgb(0%,0%,100%)" r="0.7" /><circle cx="265.688154625" cy="372.309602597" fill="rgb(0%,0%,100%)" r="0.7" /><circle cx="266.490407544" cy="375.200338846" fill="rgb(0%,0%,100%)" r="0.7" /><circle cx="267.271888615" cy="378.096761305" fill="rgb(0%,0%,100%)" r="0.7" /><circle cx="268.03412109" cy="380.998309851" fill="rgb(0%,0%,100%)" r="0.7" /><circle cx="268.778433641" cy="383.904507798" fill="rgb(0%,0%,100%)" r="0.7" /><circle cx="269.505991131" cy="386.814944611" fill="rgb(0%,0%,100%)" r="0.7" /><circle cx="270.21782082" cy="389.729269324" fill="rgb(0%,0%,100%)" r="0.7" /><circle cx="270.914830732" cy="392.647174797" fill="rgb(0%,0%,100%)" r="0.7" /><circle cx="271.597826292" cy="395.568392178" fill="rgb(0%,0%,100%)" r="0.7" /><circle cx="272.267523981" cy="398.492687344" fill="rgb(0%,0%,100%)" r="0.7" /><circle cx="272.924561189" cy="401.419852779" fill="rgb(0%,0%,100%)" r="0.7" /><circle cx="273.569503659" cy="404.349698095" fill="rgb(0%,0%,100%)" r="0.7" /><circle cx="274.202860958" cy="407.282086251" fill="rgb(0%,0%,100%)" r="0.7" /><circle cx="274.825074497" cy="410.216851123" fill="rgb(0%,0%,100%)" r="0.7" /><circle cx="275.436538537" cy="413.153873078" fill="rgb(0%,0%,100%)" r="0.7" /><circle cx="276.037594782" cy="416.093039886" fill="rgb(0%,0%,100%)" r="0.7" /><circle cx="276.628539561" cy="419.034274002" fill="rgb(0%,0%,100%)" r="0.7" /><circle cx="277.209608142" cy="421.977454421" fill="rgb(0%,0%,100%)" r="0.7" /><circle cx="277.780995754" cy="424.922531942" fill="rgb(0%,0%,100%)" r="0.7" /><circle cx="278.342835621" cy="427.869444531" fill="rgb(0%,0%,100%)" r="0.7" /><circle cx="278.895201956" cy="430.818181225" fill="rgb(0%,0%,100%)" r="0.7" /><circle cx="279.438068198" cy="433.768647141" fill="rgb(0%,0%,100%)" r="0.7" /><circle cx="279.971317822" cy="436.720881681" fill="rgb(0%,0%,100%)" r="0.7" /><circle cx="280.494653341" cy="439.674881065" fill="rgb(0%,0%,100%)" r="0.7" /><circle cx="281.007492223" cy="442.630729018" fill="rgb(0%,0%,100%)" r="0.7" /><circle cx="281.508603361" cy="445.588584519" fill="rgb(0%,0%,100%)" r="0.7" /><circle cx="281.994" cy="448.549" fill="rgb(0%,0%,100%)" r="0.7" /><circle cx="279.419858253" cy="447.427176924" fill="rgb(0%,0%,100%)" r="0.7" /><circle cx="276.669676948" cy="446.228634981" fill="rgb(0%,0%,100%)" r="0.7" /><circle cx="273.919495643" cy="445.030093038" fill="rgb(0%,0%,100%)" r="0.7" /><circle cx="271.326727952" cy="444.27725421" fill="rgb(0%,0%,100%)" r="0.7" /><circle cx="269.939264675" cy="446.93713121" fill="rgb(0%,0%,100%)" r="0.7" /><circle cx="268.551801398" cy="449.59700821" fill="rgb(0%,0%,100%)" r="0.7" /></svg>