<?xml version="1.0" encoding="utf-8" ?>
<svg baseProfile="full" height="100%" version="1.1" width="100%" xmlns="http://www.w3.org/2000/svg" xmlns:ev="http://www.w3.org/2001/xml-events" xmlns:xlink="http://www.w3.org/1999/xlink"><defs /><circle cx="268.32438198" cy="335.818753364" fill="rgb(100%,0%,0%)" r="0.7" /><circle cx="265.641743681" cy="336.64266951" fill="rgb(100%,0%,0%)" r="0.7" /><circle cx="263.879383359" cy="339.058498063" fill="rgb(100%,0%,0%)" r="0.7" /><circle cx="262.671468318" cy="341.804220588" fill="rgb(100%,0%,0%)" r="0.7" /><circle cx="261.929369052" cy="344.681244847" fill="rgb(100%,0%,0%)" r="0.7" /><circle cx="261.676688117" cy="347.670182479" fill="rgb(100%,0%,0%)" r="0.7" /><circle cx="261.600797841" cy="350.668723234" fill="rgb(100%,0%,0%)" r="0.7" /><circle cx="261.739252648" cy="353.664696913" fill="rgb(100%,0%,0%)" r="0.7" /><circle cx="262.168284763" cy="356.6321451" fill="rgb(100%,0%,0%)" r="0.7" /><circle cx="262.79370501" cy="359.566175515" fill="rgb(100%,0%,0%)" r="0.7" /><circle cx="263.387550542" cy="362.506804371" fill="rgb(100%,0%,0%)" r="0.7" /><circle cx="263.953632148" cy="365.452901942" fill="rgb(100%,0%,0%)" r="0.7" /><circle cx="264.487587738" cy="368.404985425" fill="rgb(100%,0%,0%)" r="0.7" /><circle cx="264.980636151" cy="371.364160822" fill="rgb(100%,0%,0%)" r="0.7" /><circle cx="265.416262481" cy="374.332296321" fill="rgb(100%,0%,0%)" r="0.7" /><circle cx="265.75885052" cy="377.312456625" fill="rgb(100%,0%,0%)" r="0.7" /><circle cx="266.109427859" cy="379.685429521" fill="rgb(100%,0%,0%)" r="0.7" /><circle cx="267.909427859" cy="377.285429521" fill="rgb(100%,0%,0%)" r="0.7" /><circle cx="270.589922287" cy="378.104833324" fill="rgb(100%,0%,0%)" r="0.7" /><circle cx="273.360801314" cy="379.254715674" fill="rgb(100%,0%,0%)" r="0.7" /><circle cx="274.482" cy="379.72" fill="rgb(100%,0%,0%)" r="0.7" /><circle cx="268.32438198" cy="335.818753364" fill="rgb(0%,0%,100%)" r="0.7" /><circle cx="269.875872815" cy="338.254003345" fill="rgb(0%,0%,100%)" r="0.7" /><circle cx="270.085585862" cy="341.24050406" fill="rgb(0%,0%,100%)" r="0.7" /><circle cx="269.77531837" cy="344.218769434" fill="rgb(0%,0%,100%)" r="0.7" /><circle cx="269.47694696" cy="347.200065944" fill="rgb(0%,0%,100%)" r="0.7" /><circle cx="269.56978984" cy="350.197444831" fill="rgb(0%,0%,100%)" r="0.7" /><circle cx="269.900231251" cy="353.178660703" fill="rgb(0%,0%,100%)" r="0.7" /><circle cx="270.398991754" cy="356.136593836" fill="rgb(0%,0%,100%)" r="0.7" /><circle cx="271.037934042" cy="359.067474893" fill="rgb(0%,0%,100%)" r="0.7" /><circle cx="271.864134979" cy="361.950942963" fill="rgb(0%,0%,100%)" r="0.7" /><circle cx="272.631828176" cy="364.850798394" fill="rgb(0%,0%,100%)" r="0.7" /><circle cx="273.237685134" cy="367.788458064" fill="rgb(0%,0%,100%)" r="0.7" /><circle cx="273.663428366" cy="370.75773555" fill="rgb(0%,0%,100%)" r="0.7" /><circle cx="273.972320621" cy="373.741704077" fill="rgb(0%,0%,100%)" r="0.7" /><circle cx="274.233043439" cy="376.730343622" fill="rgb(0%,0%,100%)" r="0.7" /><circle cx="274.482" cy="379.72" fill="rgb(0%,0%,100%)" r="0.7" /></svg>