<?xml version="1.0" encoding="utf-8" ?>
<svg baseProfile="full" height="100%" version="1.1" width="100%" xmlns="http://www.w3.org/2000/svg" xmlns:ev="http://www.w3.org/2001/xml-events" xmlns:xlink="http://www.w3.org/1999/xlink"><defs /><circle cx="264.352037266" cy="332.409734768" fill="rgb(100%,0%,0%)" r="0.7" /><circle cx="261.530325402" cy="333.267935154" fill="rgb(100%,0%,0%)" r="0.7" /><circle cx="259.421580791" cy="335.379353179" fill="rgb(100%,0%,0%)" r="0.7" /><circle cx="257.901199848" cy="337.961163613" fill="rgb(100%,0%,0%)" r="0.7" /><circle cx="256.739217999" cy="340.72554684" fill="rgb(100%,0%,0%)" r="0.7" /><circle cx="255.818802034" cy="343.580183004" fill="rgb(100%,0%,0%)" r="0.7" /><circle cx="255.08548102" cy="346.488710794" fill="rgb(100%,0%,0%)" r="0.7" /><circle cx="254.474108176" cy="349.425400291" fill="rgb(100%,0%,0%)" r="0.7" /><circle cx="253.956278764" cy="352.380027307" fill="rgb(100%,0%,0%)" r="0.7" /><circle cx="253.57032933" cy="355.354927285" fill="rgb(100%,0%,0%)" r="0.7" /><circle cx="253.283103841" cy="358.341055461" fill="rgb(100%,0%,0%)" r="0.7" /><circle cx="253.07319289" cy="361.333618456" fill="rgb(100%,0%,0%)" r="0.7" /><circle cx="252.925892271" cy="364.329973124" fill="rgb(100%,0%,0%)" r="0.7" /><circle cx="252.830632973" cy="367.328415757" fill="rgb(100%,0%,0%)" r="0.7" /><circle cx="252.779526733" cy="370.327971974" fill="rgb(100%,0%,0%)" r="0.7" /><circle cx="252.766517935" cy="373.32792572" fill="rgb(100%,0%,0%)" r="0.7" /><circle cx="252.786842764" cy="376.327834327" fill="rgb(100%,0%,0%)" r="0.7" /><circle cx="252.836680735" cy="379.327411551" fill="rgb(100%,0%,0%)" r="0.7" /><circle cx="252.912916486" cy="382.326437031" fill="rgb(100%,0%,0%)" r="0.7" /><circle cx="253.012974283" cy="385.324764035" fill="rgb(100%,0%,0%)" r="0.7" /><circle cx="253.134699368" cy="388.322288022" fill="rgb(100%,0%,0%)" r="0.7" /><circle cx="253.276271619" cy="391.318942092" fill="rgb(100%,0%,0%)" r="0.7" /><circle cx="253.436140518" cy="394.314676153" fill="rgb(100%,0%,0%)" r="0.7" /><circle cx="253.612976603" cy="397.309457993" fill="rgb(100%,0%,0%)" r="0.7" /><circle cx="253.805633828" cy="400.303264109" fill="rgb(100%,0%,0%)" r="0.7" /><circle cx="254.013120942" cy="403.296080529" fill="rgb(100%,0%,0%)" r="0.7" /><circle cx="254.234578764" cy="406.287894734" fill="rgb(100%,0%,0%)" r="0.7" /><circle cx="254.469263259" cy="409.278698469" fill="rgb(100%,0%,0%)" r="0.7" /><circle cx="254.716533156" cy="412.268493384" fill="rgb(100%,0%,0%)" r="0.7" /><circle cx="254.975837274" cy="415.257250761" fill="rgb(100%,0%,0%)" r="0.7" /><circle cx="255.246716848" cy="418.245006097" fill="rgb(100%,0%,0%)" r="0.7" /><circle cx="255.528791255" cy="421.231720987" fill="rgb(100%,0%,0%)" r="0.7" /><circle cx="255.821768555" cy="424.217380007" fill="rgb(100%,0%,0%)" r="0.7" /><circle cx="256.125452591" cy="427.201973211" fill="rgb(100%,0%,0%)" r="0.7" /><circle cx="256.439758345" cy="430.185464283" fill="rgb(100%,0%,0%)" r="0.7" /><circle cx="256.764751703" cy="433.167811638" fill="rgb(100%,0%,0%)" r="0.7" /><circle cx="257.100725298" cy="436.148926773" fill="rgb(100%,0%,0%)" r="0.7" /><circle cx="257.448403516" cy="439.128720122" fill="rgb(100%,0%,0%)" r="0.7" /><circle cx="257.809630128" cy="442.106891477" fill="rgb(100%,0%,0%)" r="0.7" /><circle cx="258.248724907" cy="445.073834293" fill="rgb(100%,0%,0%)" r="0.7" /><circle cx="258.72674138" cy="448.035481433" fill="rgb(100%,0%,0%)" r="0.7" /><circle cx="259.162490223" cy="451.00363654" fill="rgb(100%,0%,0%)" r="0.7" /><circle cx="259.545289558" cy="453.979061623" fill="rgb(100%,0%,0%)" r="0.7" /><circle cx="259.857119992" cy="456.962708512" fill="rgb(100%,0%,0%)" r="0.7" /><circle cx="260.059262121" cy="459.955597758" fill="rgb(100%,0%,0%)" r="0.7" /><circle cx="260.089072623" cy="462.954967242" fill="rgb(100%,0%,0%)" r="0.7" /><circle cx="260.040223295" cy="465.954381157" fill="rgb(100%,0%,0%)" r="0.7" /><circle cx="259.874643037" cy="468.949616726" fill="rgb(100%,0%,0%)" r="0.7" /><circle cx="259.592547369" cy="471.936133176" fill="rgb(100%,0%,0%)" r="0.7" /><circle cx="259.194615295" cy="474.909437898" fill="rgb(100%,0%,0%)" r="0.7" /><circle cx="258.681946849" cy="477.865112395" fill="rgb(100%,0%,0%)" r="0.7" /><circle cx="258.055993423" cy="480.798902117" fill="rgb(100%,0%,0%)" r="0.7" /><circle cx="257.318499383" cy="483.706654062" fill="rgb(100%,0%,0%)" r="0.7" /><circle cx="256.471405173" cy="486.584383499" fill="rgb(100%,0%,0%)" r="0.7" /><circle cx="255.51674507" cy="489.428254168" fill="rgb(100%,0%,0%)" r="0.7" /><circle cx="254.45654574" cy="492.234489025" fill="rgb(100%,0%,0%)" r="0.7" /><circle cx="253.292672496" cy="494.999331707" fill="rgb(100%,0%,0%)" r="0.7" /><circle cx="252.026639806" cy="497.718912555" fill="rgb(100%,0%,0%)" r="0.7" /><circle cx="250.659337796" cy="500.389010603" fill="rgb(100%,0%,0%)" r="0.7" /><circle cx="249.190558498" cy="503.00463648" fill="rgb(100%,0%,0%)" r="0.7" /><circle cx="247.617988651" cy="505.559190397" fill="rgb(100%,0%,0%)" r="0.7" /><circle cx="245.93452035" cy="508.041993074" fill="rgb(100%,0%,0%)" r="0.7" /><circle cx="244.112" cy="510.424" fill="rgb(100%,0%,0%)" r="0.7" /><circle cx="244.486845202" cy="510.150897066" fill="rgb(100%,0%,0%)" r="0.7" /><circle cx="246.911550289" cy="508.384316969" fill="rgb(100%,0%,0%)" r="0.7" /><circle cx="249.336255377" cy="506.617736872" fill="rgb(100%,0%,0%)" r="0.7" /><circle cx="251.760960464" cy="504.851156775" fill="rgb(100%,0%,0%)" r="0.7" /><circle cx="254.185665551" cy="503.084576678" fill="rgb(100%,0%,0%)" r="0.7" /><circle cx="255.209781529" cy="503.791426386" fill="rgb(100%,0%,0%)" r="0.7" /><circle cx="254.94216492" cy="506.779466103" fill="rgb(100%,0%,0%)" r="0.7" /><circle cx="254.67454831" cy="509.76750582" fill="rgb(100%,0%,0%)" r="0.7" /><circle cx="254.4069317" cy="512.755545537" fill="rgb(100%,0%,0%)" r="0.7" /><circle cx="254.139315091" cy="515.743585254" fill="rgb(100%,0%,0%)" r="0.7" /><circle cx="253.871698481" cy="518.731624971" fill="rgb(100%,0%,0%)" r="0.7" /><circle cx="264.352037266" cy="332.409734768" fill="rgb(0%,0%,100%)" r="0.7" /><circle cx="266.905189158" cy="333.490905818" fill="rgb(0%,0%,100%)" r="0.7" /><circle cx="268.218119832" cy="336.175334171" fill="rgb(0%,0%,100%)" r="0.7" /><circle cx="268.991336223" cy="339.072083942" fill="rgb(0%,0%,100%)" r="0.7" /><circle cx="269.498844085" cy="342.028255937" fill="rgb(0%,0%,100%)" r="0.7" /><circle cx="269.842618877" cy="345.008246654" fill="rgb(0%,0%,100%)" r="0.7" /><circle cx="270.072685477" cy="347.999272368" fill="rgb(0%,0%,100%)" r="0.7" /><circle cx="270.217826287" cy="350.995696592" fill="rgb(0%,0%,100%)" r="0.7" /><circle cx="270.296361139" cy="353.994609046" fill="rgb(0%,0%,100%)" r="0.7" /><circle cx="270.342490013" cy="356.994233641" fill="rgb(0%,0%,100%)" r="0.7" /><circle cx="270.396307376" cy="359.993778052" fill="rgb(0%,0%,100%)" r="0.7" /><circle cx="270.452995285" cy="362.993214357" fill="rgb(0%,0%,100%)" r="0.7" /><circle cx="270.512204446" cy="365.99263873" fill="rgb(0%,0%,100%)" r="0.7" /><circle cx="270.573798456" cy="368.992005821" fill="rgb(0%,0%,100%)" r="0.7" /><circle cx="270.637728037" cy="371.991327507" fill="rgb(0%,0%,100%)" r="0.7" /><circle cx="270.703991434" cy="374.990596624" fill="rgb(0%,0%,100%)" r="0.7" /><circle cx="270.772619412" cy="377.98981067" fill="rgb(0%,0%,100%)" r="0.7" /><circle cx="270.843668211" cy="380.988974887" fill="rgb(0%,0%,100%)" r="0.7" /><circle cx="270.91721581" cy="383.988083001" fill="rgb(0%,0%,100%)" r="0.7" /><circle cx="270.993360674" cy="386.987115425" fill="rgb(0%,0%,100%)" r="0.7" /><circle cx="271.072222823" cy="389.986073353" fill="rgb(0%,0%,100%)" r="0.7" /><circle cx="271.153944769" cy="392.98496259" fill="rgb(0%,0%,100%)" r="0.7" /><circle cx="271.238693052" cy="395.98376782" fill="rgb(0%,0%,100%)" r="0.7" /><circle cx="271.326662175" cy="398.982478363" fill="rgb(0%,0%,100%)" r="0.7" /><circle cx="271.418078988" cy="401.981085805" fill="rgb(0%,0%,100%)" r="0.7" /><circle cx="271.513208413" cy="404.979578867" fill="rgb(0%,0%,100%)" r="0.7" /><circle cx="271.612361106" cy="407.9779411" fill="rgb(0%,0%,100%)" r="0.7" /><circle cx="271.715903714" cy="410.976151504" fill="rgb(0%,0%,100%)" r="0.7" /><circle cx="271.824273158" cy="413.974199623" fill="rgb(0%,0%,100%)" r="0.7" /><circle cx="271.937993783" cy="416.972042985" fill="rgb(0%,0%,100%)" r="0.7" /><circle cx="272.057705064" cy="419.969656897" fill="rgb(0%,0%,100%)" r="0.7" /><circle cx="272.184196492" cy="422.966983338" fill="rgb(0%,0%,100%)" r="0.7" /><circle cx="272.318463715" cy="425.963985683" fill="rgb(0%,0%,100%)" r="0.7" /><circle cx="272.461786302" cy="428.960558168" fill="rgb(0%,0%,100%)" r="0.7" /><circle cx="272.615859325" cy="431.9565836" fill="rgb(0%,0%,100%)" r="0.7" /><circle cx="272.783009773" cy="434.951937901" fill="rgb(0%,0%,100%)" r="0.7" /><circle cx="272.966572166" cy="437.946312169" fill="rgb(0%,0%,100%)" r="0.7" /><circle cx="273.171645909" cy="440.939290448" fill="rgb(0%,0%,100%)" r="0.7" /><circle cx="273.406746942" cy="443.930027993" fill="rgb(0%,0%,100%)" r="0.7" /><circle cx="273.626399375" cy="446.921928057" fill="rgb(0%,0%,100%)" r="0.7" /><circle cx="273.808920233" cy="449.916357933" fill="rgb(0%,0%,100%)" r="0.7" /><circle cx="273.959039551" cy="452.912592436" fill="rgb(0%,0%,100%)" r="0.7" /><circle cx="274.075790967" cy="455.910300661" fill="rgb(0%,0%,100%)" r="0.7" /><circle cx="274.156142648" cy="458.909206973" fill="rgb(0%,0%,100%)" r="0.7" /><circle cx="274.195221192" cy="461.908926859" fill="rgb(0%,0%,100%)" r="0.7" /><circle cx="274.185869583" cy="464.908874337" fill="rgb(0%,0%,100%)" r="0.7" /><circle cx="274.117595731" cy="467.908038892" fill="rgb(0%,0%,100%)" r="0.7" /><circle cx="273.974474267" cy="470.904522507" fill="rgb(0%,0%,100%)" r="0.7" /><circle cx="273.730728448" cy="473.894406059" fill="rgb(0%,0%,100%)" r="0.7" /><circle cx="273.340125371" cy="476.868405108" fill="rgb(0%,0%,100%)" r="0.7" /><circle cx="272.704459686" cy="479.798676718" fill="rgb(0%,0%,100%)" r="0.7" /><circle cx="271.849762548" cy="482.673588924" fill="rgb(0%,0%,100%)" r="0.7" /><circle cx="270.944730388" cy="485.533711737" fill="rgb(0%,0%,100%)" r="0.7" /><circle cx="269.964378973" cy="488.368932009" fill="rgb(0%,0%,100%)" r="0.7" /><circle cx="268.917929783" cy="491.180435439" fill="rgb(0%,0%,100%)" r="0.7" /><circle cx="267.809232119" cy="493.967979679" fill="rgb(0%,0%,100%)" r="0.7" /><circle cx="266.640013645" cy="496.730695025" fill="rgb(0%,0%,100%)" r="0.7" /><circle cx="265.41088816" cy="499.467276925" fill="rgb(0%,0%,100%)" r="0.7" /><circle cx="264.121761752" cy="502.176114838" fill="rgb(0%,0%,100%)" r="0.7" /><circle cx="262.772069567" cy="504.855281381" fill="rgb(0%,0%,100%)" r="0.7" /><circle cx="261.360887077" cy="507.502572512" fill="rgb(0%,0%,100%)" r="0.7" /><circle cx="259.887021032" cy="510.115482056" fill="rgb(0%,0%,100%)" r="0.7" /><circle cx="258.349071311" cy="512.691183718" fill="rgb(0%,0%,100%)" r="0.7" /><circle cx="256.745472394" cy="515.226522905" fill="rgb(0%,0%,100%)" r="0.7" /><circle cx="255.074537071" cy="517.717991866" fill="rgb(0%,0%,100%)" r="0.7" /><circle cx="253.871698481" cy="518.731624971" fill="rgb(0%,0%,100%)" r="0.7" /></svg>