<?xml version="1.0" encoding="utf-8" ?>
<svg baseProfile="full" height="100%" version="1.1" width="100%" xmlns="http://www.w3.org/2000/svg" xmlns:ev="http://www.w3.org/2001/xml-events" xmlns:xlink="http://www.w3.org/1999/xlink"><defs /><circle cx="279.956108088" cy="313.626751419" fill="rgb(100%,0%,0%)" r="0.7" /><circle cx="277.068390536" cy="314.374418179" fill="rgb(100%,0%,0%)" r="0.7" /><circle cx="274.560907561" cy="315.944870385" fill="rgb(100%,0%,0%)" r="0.7" /><circle cx="273.67539451" cy="318.772420065" fill="rgb(100%,0%,0%)" r="0.7" /><circle cx="273.784467314" cy="321.765036034" fill="rgb(100%,0%,0%)" r="0.7" /><circle cx="274.472344226" cy="324.678943304" fill="rgb(100%,0%,0%)" r="0.7" /><circle cx="275.217908113" cy="327.584357246" fill="rgb(100%,0%,0%)" r="0.7" /><circle cx="275.780477189" cy="330.530600978" fill="rgb(100%,0%,0%)" r="0.7" /><circle cx="276.14333549" cy="333.507962008" fill="rgb(100%,0%,0%)" r="0.7" /><circle cx="276.290683373" cy="336.5036486" fill="rgb(100%,0%,0%)" r="0.7" /><circle cx="276.208762673" cy="339.501760312" fill="rgb(100%,0%,0%)" r="0.7" /><circle cx="275.886843865" cy="342.483599594" fill="rgb(100%,0%,0%)" r="0.7" /><circle cx="275.318468043" cy="345.428359331" fill="rgb(100%,0%,0%)" r="0.7" /><circle cx="274.502226285" cy="348.314233955" fill="rgb(100%,0%,0%)" r="0.7" /><circle cx="273.441610288" cy="351.119506694" fill="rgb(100%,0%,0%)" r="0.7" /><circle cx="272.144248214" cy="353.823452807" fill="rgb(100%,0%,0%)" r="0.7" /><circle cx="270.620366651" cy="356.406533206" fill="rgb(100%,0%,0%)" r="0.7" /><circle cx="268.880383493" cy="358.849239107" fill="rgb(100%,0%,0%)" r="0.7" /><circle cx="266.930377101" cy="361.127637794" fill="rgb(100%,0%,0%)" r="0.7" /><circle cx="264.751" cy="363.186" fill="rgb(100%,0%,0%)" r="0.7" /><circle cx="265.124936147" cy="363.059562635" fill="rgb(100%,0%,0%)" r="0.7" /><circle cx="267.966873893" cy="362.098630875" fill="rgb(100%,0%,0%)" r="0.7" /><circle cx="270.808811639" cy="361.137699115" fill="rgb(100%,0%,0%)" r="0.7" /><circle cx="273.650749386" cy="360.176767355" fill="rgb(100%,0%,0%)" r="0.7" /><circle cx="275.064345156" cy="362.607526237" fill="rgb(100%,0%,0%)" r="0.7" /><circle cx="276.362654792" cy="365.312039518" fill="rgb(100%,0%,0%)" r="0.7" /><circle cx="279.956108088" cy="313.626751419" fill="rgb(0%,0%,100%)" r="0.7" /><circle cx="282.746051985" cy="314.508444724" fill="rgb(0%,0%,100%)" r="0.7" /><circle cx="284.151671061" cy="317.0774868" fill="rgb(0%,0%,100%)" r="0.7" /><circle cx="284.462735795" cy="320.060522298" fill="rgb(0%,0%,100%)" r="0.7" /><circle cx="284.986720961" cy="323.01380944" fill="rgb(0%,0%,100%)" r="0.7" /><circle cx="285.718822465" cy="325.922401399" fill="rgb(0%,0%,100%)" r="0.7" /><circle cx="286.679507262" cy="328.76345757" fill="rgb(0%,0%,100%)" r="0.7" /><circle cx="287.899089771" cy="331.50300971" fill="rgb(0%,0%,100%)" r="0.7" /><circle cx="288.871712257" cy="334.338108634" fill="rgb(0%,0%,100%)" r="0.7" /><circle cx="289.445856025" cy="337.280140948" fill="rgb(0%,0%,100%)" r="0.7" /><circle cx="289.554215501" cy="340.274332419" fill="rgb(0%,0%,100%)" r="0.7" /><circle cx="289.064448078" cy="343.227553555" fill="rgb(0%,0%,100%)" r="0.7" /><circle cx="287.855076683" cy="345.962755691" fill="rgb(0%,0%,100%)" r="0.7" /><circle cx="286.061629486" cy="348.36160489" fill="rgb(0%,0%,100%)" r="0.7" /><circle cx="284.54388233" cy="350.948892914" fill="rgb(0%,0%,100%)" r="0.7" /><circle cx="283.112380246" cy="353.585272054" fill="rgb(0%,0%,100%)" r="0.7" /><circle cx="281.721232771" cy="356.243204298" fill="rgb(0%,0%,100%)" r="0.7" /><circle cx="280.355944342" cy="358.914521945" fill="rgb(0%,0%,100%)" r="0.7" /><circle cx="279.009376847" cy="361.595328699" fill="rgb(0%,0%,100%)" r="0.7" /><circle cx="277.67731432" cy="364.283375905" fill="rgb(0%,0%,100%)" r="0.7" /><circle cx="276.362654792" cy="365.312039518" fill="rgb(0%,0%,100%)" r="0.7" /></svg>