<?xml version="1.0" encoding="utf-8" ?>
<svg baseProfile="full" height="100%" version="1.1" width="100%" xmlns="http://www.w3.org/2000/svg" xmlns:ev="http://www.w3.org/2001/xml-events" xmlns:xlink="http://www.w3.org/1999/xlink"><defs /><circle cx="313.967174476" cy="360.164888692" fill="rgb(100%,0%,0%)" r="0.7" /><circle cx="311.009505062" cy="360.578430827" fill="rgb(100%,0%,0%)" r="0.7" /><circle cx="308.229746695" cy="361.696365477" fill="rgb(100%,0%,0%)" r="0.7" /><circle cx="305.443641007" cy="362.807964344" fill="rgb(100%,0%,0%)" r="0.7" /><circle cx="302.70273953" cy="364.027284272" fill="rgb(100%,0%,0%)" r="0.7" /><circle cx="299.999276552" cy="365.327547787" fill="rgb(100%,0%,0%)" r="0.7" /><circle cx="297.331662626" cy="366.69990853" fill="rgb(100%,0%,0%)" r="0.7" /><circle cx="294.699878977" cy="368.139780383" fill="rgb(100%,0%,0%)" r="0.7" /><circle cx="292.104609942" cy="369.644472804" fill="rgb(100%,0%,0%)" r="0.7" /><circle cx="289.546977685" cy="371.212317405" fill="rgb(100%,0%,0%)" r="0.7" /><circle cx="287.028467913" cy="372.84222747" fill="rgb(100%,0%,0%)" r="0.7" /><circle cx="284.550758017" cy="374.533540549" fill="rgb(100%,0%,0%)" r="0.7" /><circle cx="282.115786795" cy="376.285811931" fill="rgb(100%,0%,0%)" r="0.7" /><circle cx="279.725659522" cy="378.098767416" fill="rgb(100%,0%,0%)" r="0.7" /><circle cx="277.382656455" cy="379.972218132" fill="rgb(100%,0%,0%)" r="0.7" /><circle cx="275.089207768" cy="381.906015531" fill="rgb(100%,0%,0%)" r="0.7" /><circle cx="272.847889456" cy="383.899999897" fill="rgb(100%,0%,0%)" r="0.7" /><circle cx="270.66141364" cy="385.953956753" fill="rgb(100%,0%,0%)" r="0.7" /><circle cx="268.532585584" cy="388.06760774" fill="rgb(100%,0%,0%)" r="0.7" /><circle cx="266.464321361" cy="390.240545325" fill="rgb(100%,0%,0%)" r="0.7" /><circle cx="264.459593117" cy="392.472236738" fill="rgb(100%,0%,0%)" r="0.7" /><circle cx="262.521434069" cy="394.761966275" fill="rgb(100%,0%,0%)" r="0.7" /><circle cx="260.652881048" cy="397.108844089" fill="rgb(100%,0%,0%)" r="0.7" /><circle cx="258.856969867" cy="399.511753757" fill="rgb(100%,0%,0%)" r="0.7" /><circle cx="257.086967088" cy="401.933747717" fill="rgb(100%,0%,0%)" r="0.7" /><circle cx="255.356876628" cy="404.384535406" fill="rgb(100%,0%,0%)" r="0.7" /><circle cx="253.68232063" cy="406.873610627" fill="rgb(100%,0%,0%)" r="0.7" /><circle cx="252.060170353" cy="409.397158692" fill="rgb(100%,0%,0%)" r="0.7" /><circle cx="250.491097023" cy="411.95405578" fill="rgb(100%,0%,0%)" r="0.7" /><circle cx="248.977653126" cy="414.544255019" fill="rgb(100%,0%,0%)" r="0.7" /><circle cx="247.523793696" cy="417.168344613" fill="rgb(100%,0%,0%)" r="0.7" /><circle cx="246.134817176" cy="419.827341692" fill="rgb(100%,0%,0%)" r="0.7" /><circle cx="244.817506403" cy="422.522545019" fill="rgb(100%,0%,0%)" r="0.7" /><circle cx="243.580380695" cy="425.255454617" fill="rgb(100%,0%,0%)" r="0.7" /><circle cx="242.434095066" cy="428.027658773" fill="rgb(100%,0%,0%)" r="0.7" /><circle cx="241.392011063" cy="430.840643217" fill="rgb(100%,0%,0%)" r="0.7" /><circle cx="240.470970449" cy="433.695483912" fill="rgb(100%,0%,0%)" r="0.7" /><circle cx="239.692328281" cy="436.592306847" fill="rgb(100%,0%,0%)" r="0.7" /><circle cx="239.083280312" cy="439.529322855" fill="rgb(100%,0%,0%)" r="0.7" /><circle cx="238.678417903" cy="442.501163778" fill="rgb(100%,0%,0%)" r="0.7" /><circle cx="238.521178752" cy="445.496005488" fill="rgb(100%,0%,0%)" r="0.7" /><circle cx="313.967174476" cy="360.164888692" fill="rgb(0%,0%,100%)" r="0.7" /><circle cx="316.792621733" cy="361.053064643" fill="rgb(0%,0%,100%)" r="0.7" /><circle cx="318.724109102" cy="363.305969253" fill="rgb(0%,0%,100%)" r="0.7" /><circle cx="319.848343107" cy="366.07323181" fill="rgb(0%,0%,100%)" r="0.7" /><circle cx="320.676581186" cy="368.94901446" fill="rgb(0%,0%,100%)" r="0.7" /><circle cx="320.958766168" cy="371.933209354" fill="rgb(0%,0%,100%)" r="0.7" /><circle cx="320.896858739" cy="374.931481471" fill="rgb(0%,0%,100%)" r="0.7" /><circle cx="320.595034416" cy="377.915660489" fill="rgb(0%,0%,100%)" r="0.7" /><circle cx="320.105804429" cy="380.87506587" fill="rgb(0%,0%,100%)" r="0.7" /><circle cx="319.489152681" cy="383.809776285" fill="rgb(0%,0%,100%)" r="0.7" /><circle cx="318.294562693" cy="386.541586791" fill="rgb(0%,0%,100%)" r="0.7" /><circle cx="316.282016823" cy="388.754558308" fill="rgb(0%,0%,100%)" r="0.7" /><circle cx="313.843762835" cy="390.496370932" fill="rgb(0%,0%,100%)" r="0.7" /><circle cx="311.188877032" cy="391.890047002" fill="rgb(0%,0%,100%)" r="0.7" /><circle cx="308.414351684" cy="393.029055344" fill="rgb(0%,0%,100%)" r="0.7" /><circle cx="305.56780685" cy="393.97483965" fill="rgb(0%,0%,100%)" r="0.7" /><circle cx="302.674724348" cy="394.767547703" fill="rgb(0%,0%,100%)" r="0.7" /><circle cx="299.749814502" cy="395.43364965" fill="rgb(0%,0%,100%)" r="0.7" /><circle cx="296.802020657" cy="395.990087913" fill="rgb(0%,0%,100%)" r="0.7" /><circle cx="293.836907848" cy="396.445310352" fill="rgb(0%,0%,100%)" r="0.7" /><circle cx="290.857336814" cy="396.792805299" fill="rgb(0%,0%,100%)" r="0.7" /><circle cx="287.968297601" cy="397.565814939" fill="rgb(0%,0%,100%)" r="0.7" /><circle cx="285.412060506" cy="399.114650199" fill="rgb(0%,0%,100%)" r="0.7" /><circle cx="283.319868201" cy="401.262835077" fill="rgb(0%,0%,100%)" r="0.7" /><circle cx="281.339715092" cy="403.516182549" fill="rgb(0%,0%,100%)" r="0.7" /><circle cx="279.461011746" cy="405.854765676" fill="rgb(0%,0%,100%)" r="0.7" /><circle cx="277.689970926" cy="408.275884748" fill="rgb(0%,0%,100%)" r="0.7" /><circle cx="276.032482608" cy="410.776112057" fill="rgb(0%,0%,100%)" r="0.7" /><circle cx="274.494042966" cy="413.351287453" fill="rgb(0%,0%,100%)" r="0.7" /><circle cx="273.079652131" cy="415.996618331" fill="rgb(0%,0%,100%)" r="0.7" /><circle cx="271.79378445" cy="418.706749807" fill="rgb(0%,0%,100%)" r="0.7" /><circle cx="270.64040136" cy="421.475847503" fill="rgb(0%,0%,100%)" r="0.7" /><circle cx="269.622997239" cy="424.297752359" fill="rgb(0%,0%,100%)" r="0.7" /><circle cx="268.744774886" cy="427.166008777" fill="rgb(0%,0%,100%)" r="0.7" /><circle cx="268.008874082" cy="430.074033973" fill="rgb(0%,0%,100%)" r="0.7" /><circle cx="267.418834537" cy="433.015119287" fill="rgb(0%,0%,100%)" r="0.7" /><circle cx="266.979395402" cy="435.982421445" fill="rgb(0%,0%,100%)" r="0.7" /><circle cx="266.698165331" cy="438.968836723" fill="rgb(0%,0%,100%)" r="0.7" /><circle cx="266.590192794" cy="441.966406119" fill="rgb(0%,0%,100%)" r="0.7" /><circle cx="266.705" cy="444.963" fill="rgb(0%,0%,100%)" r="0.7" /><circle cx="265.80680438" cy="444.506784951" fill="rgb(0%,0%,100%)" r="0.7" /><circle cx="263.132054193" cy="443.148215323" fill="rgb(0%,0%,100%)" r="0.7" /><circle cx="260.457304005" cy="441.789645695" fill="rgb(0%,0%,100%)" r="0.7" /><circle cx="257.782553817" cy="440.431076067" fill="rgb(0%,0%,100%)" r="0.7" /><circle cx="255.10780363" cy="439.072506439" fill="rgb(0%,0%,100%)" r="0.7" /><circle cx="252.433053442" cy="437.713936812" fill="rgb(0%,0%,100%)" r="0.7" /><circle cx="249.758303254" cy="436.355367184" fill="rgb(0%,0%,100%)" r="0.7" /><circle cx="247.284592558" cy="435.948784953" fill="rgb(0%,0%,100%)" r="0.7" /><circle cx="245.387531001" cy="438.27282399" fill="rgb(0%,0%,100%)" r="0.7" /><circle cx="243.490469443" cy="440.596863027" fill="rgb(0%,0%,100%)" r="0.7" /><circle cx="241.593407885" cy="442.920902064" fill="rgb(0%,0%,100%)" r="0.7" /><circle cx="239.696346328" cy="445.244941102" fill="rgb(0%,0%,100%)" r="0.7" /><circle cx="238.521178752" cy="445.496005488" fill="rgb(0%,0%,100%)" r="0.7" /></svg>