<?xml version="1.0" encoding="utf-8" ?>
<svg baseProfile="full" height="100%" version="1.1" width="100%" xmlns="http://www.w3.org/2000/svg" xmlns:ev="http://www.w3.org/2001/xml-events" xmlns:xlink="http://www.w3.org/1999/xlink"><defs /><circle cx="380.213517723" cy="324.850077901" fill="rgb(100%,0%,0%)" r="0.7" /><circle cx="378.507365697" cy="327.317297637" fill="rgb(100%,0%,0%)" r="0.7" /><circle cx="376.728989526" cy="329.733318767" fill="rgb(100%,0%,0%)" r="0.7" /><circle cx="374.920413427" cy="332.126863287" fill="rgb(100%,0%,0%)" r="0.7" /><circle cx="373.093999692" cy="334.506823238" fill="rgb(100%,0%,0%)" r="0.7" /><circle cx="371.255400613" cy="336.877378431" fill="rgb(100%,0%,0%)" r="0.7" /><circle cx="369.40775409" cy="339.24089255" fill="rgb(100%,0%,0%)" r="0.7" /><circle cx="367.553018069" cy="341.598845132" fill="rgb(100%,0%,0%)" r="0.7" /><circle cx="365.692498529" cy="343.952242114" fill="rgb(100%,0%,0%)" r="0.7" /><circle cx="363.827122071" cy="346.301788674" fill="rgb(100%,0%,0%)" r="0.7" /><circle cx="361.957558515" cy="348.648009918" fill="rgb(100%,0%,0%)" r="0.7" /><circle cx="360.084313274" cy="350.991291594" fill="rgb(100%,0%,0%)" r="0.7" /><circle cx="358.207768101" cy="353.331921951" fill="rgb(100%,0%,0%)" r="0.7" /><circle cx="356.328193373" cy="355.67013001" fill="rgb(100%,0%,0%)" r="0.7" /><circle cx="354.445788447" cy="358.006059618" fill="rgb(100%,0%,0%)" r="0.7" /><circle cx="352.560655226" cy="360.339793212" fill="rgb(100%,0%,0%)" r="0.7" /><circle cx="350.672772141" cy="362.671302302" fill="rgb(100%,0%,0%)" r="0.7" /><circle cx="348.781771748" cy="365.00027125" fill="rgb(100%,0%,0%)" r="0.7" /><circle cx="346.886404513" cy="367.325585827" fill="rgb(100%,0%,0%)" r="0.7" /><circle cx="344.919543525" cy="369.590656799" fill="rgb(100%,0%,0%)" r="0.7" /><circle cx="342.873474887" cy="371.78441979" fill="rgb(100%,0%,0%)" r="0.7" /><circle cx="340.747899014" cy="373.901229703" fill="rgb(100%,0%,0%)" r="0.7" /><circle cx="338.542918158" cy="375.935166658" fill="rgb(100%,0%,0%)" r="0.7" /><circle cx="336.259036849" cy="377.880080897" fill="rgb(100%,0%,0%)" r="0.7" /><circle cx="333.897233546" cy="379.729556356" fill="rgb(100%,0%,0%)" r="0.7" /><circle cx="331.458938233" cy="381.476932494" fill="rgb(100%,0%,0%)" r="0.7" /><circle cx="328.946076189" cy="383.115228711" fill="rgb(100%,0%,0%)" r="0.7" /><circle cx="326.361042472" cy="384.637055111" fill="rgb(100%,0%,0%)" r="0.7" /><circle cx="323.706672639" cy="386.034403358" fill="rgb(100%,0%,0%)" r="0.7" /><circle cx="320.986229078" cy="387.298216764" fill="rgb(100%,0%,0%)" r="0.7" /><circle cx="318.203276817" cy="388.417574115" fill="rgb(100%,0%,0%)" r="0.7" /><circle cx="315.361550028" cy="389.377778094" fill="rgb(100%,0%,0%)" r="0.7" /><circle cx="312.464582443" cy="390.154941287" fill="rgb(100%,0%,0%)" r="0.7" /><circle cx="309.513266249" cy="390.684274031" fill="rgb(100%,0%,0%)" r="0.7" /><circle cx="309.436754398" cy="393.658196215" fill="rgb(100%,0%,0%)" r="0.7" /><circle cx="309.388047508" cy="396.657800796" fill="rgb(100%,0%,0%)" r="0.7" /><circle cx="309.339340618" cy="399.657405376" fill="rgb(100%,0%,0%)" r="0.7" /><circle cx="309.290633728" cy="402.657009956" fill="rgb(100%,0%,0%)" r="0.7" /><circle cx="309.241926838" cy="405.656614537" fill="rgb(100%,0%,0%)" r="0.7" /><circle cx="309.193219948" cy="408.656219117" fill="rgb(100%,0%,0%)" r="0.7" /><circle cx="309.144513058" cy="411.655823698" fill="rgb(100%,0%,0%)" r="0.7" /><circle cx="309.095806167" cy="414.655428278" fill="rgb(100%,0%,0%)" r="0.7" /><circle cx="309.09" cy="415.013" fill="rgb(100%,0%,0%)" r="0.7" /><circle cx="380.213517723" cy="324.850077901" fill="rgb(0%,0%,100%)" r="0.7" /><circle cx="380.193464438" cy="325.84581135" fill="rgb(0%,0%,100%)" r="0.7" /><circle cx="379.350932161" cy="328.725071561" fill="rgb(0%,0%,100%)" r="0.7" /><circle cx="378.508399883" cy="331.604331772" fill="rgb(0%,0%,100%)" r="0.7" /><circle cx="377.665867606" cy="334.483591983" fill="rgb(0%,0%,100%)" r="0.7" /><circle cx="379.687248113" cy="333.864494518" fill="rgb(0%,0%,100%)" r="0.7" /><circle cx="382.343429139" cy="332.469968665" fill="rgb(0%,0%,100%)" r="0.7" /><circle cx="384.999610166" cy="331.075442811" fill="rgb(0%,0%,100%)" r="0.7" /><circle cx="387.655791192" cy="329.680916958" fill="rgb(0%,0%,100%)" r="0.7" /><circle cx="387.219845979" cy="331.370028761" fill="rgb(0%,0%,100%)" r="0.7" /><circle cx="385.788314458" cy="334.006432377" fill="rgb(0%,0%,100%)" r="0.7" /><circle cx="384.325705728" cy="336.625722093" fill="rgb(0%,0%,100%)" r="0.7" /><circle cx="382.828304533" cy="339.225267305" fill="rgb(0%,0%,100%)" r="0.7" /><circle cx="381.288275436" cy="341.799768814" fill="rgb(0%,0%,100%)" r="0.7" /><circle cx="379.69159965" cy="344.339475192" fill="rgb(0%,0%,100%)" r="0.7" /><circle cx="378.011230288" cy="346.824437881" fill="rgb(0%,0%,100%)" r="0.7" /><circle cx="376.182678628" cy="349.201535565" fill="rgb(0%,0%,100%)" r="0.7" /><circle cx="374.473322681" cy="351.656350371" fill="rgb(0%,0%,100%)" r="0.7" /><circle cx="372.874376271" cy="354.194728914" fill="rgb(0%,0%,100%)" r="0.7" /><circle cx="371.273658053" cy="356.731998349" fill="rgb(0%,0%,100%)" r="0.7" /><circle cx="369.671116719" cy="359.268109473" fill="rgb(0%,0%,100%)" r="0.7" /><circle cx="368.066543101" cy="361.802937846" fill="rgb(0%,0%,100%)" r="0.7" /><circle cx="366.459596766" cy="364.336262525" fill="rgb(0%,0%,100%)" r="0.7" /><circle cx="364.849747219" cy="366.867742307" fill="rgb(0%,0%,100%)" r="0.7" /><circle cx="363.236148392" cy="369.396831736" fill="rgb(0%,0%,100%)" r="0.7" /><circle cx="361.617337902" cy="371.922589798" fill="rgb(0%,0%,100%)" r="0.7" /><circle cx="359.990397234" cy="374.443124607" fill="rgb(0%,0%,100%)" r="0.7" /><circle cx="358.347496097" cy="376.953264054" fill="rgb(0%,0%,100%)" r="0.7" /><circle cx="356.681130448" cy="379.447745581" fill="rgb(0%,0%,100%)" r="0.7" /><circle cx="355.085647299" cy="381.988190118" fill="rgb(0%,0%,100%)" r="0.7" /><circle cx="353.562296785" cy="384.572527111" fill="rgb(0%,0%,100%)" r="0.7" /><circle cx="352.119579243" cy="387.202687752" fill="rgb(0%,0%,100%)" r="0.7" /><circle cx="350.774094979" cy="389.883816339" fill="rgb(0%,0%,100%)" r="0.7" /><circle cx="349.553377517" cy="392.623852631" fill="rgb(0%,0%,100%)" r="0.7" /><circle cx="348.504092417" cy="395.433665511" fill="rgb(0%,0%,100%)" r="0.7" /><circle cx="347.712005935" cy="398.325607607" fill="rgb(0%,0%,100%)" r="0.7" /><circle cx="347.355321334" cy="401.299550061" fill="rgb(0%,0%,100%)" r="0.7" /><circle cx="347.84242621" cy="404.23976312" fill="rgb(0%,0%,100%)" r="0.7" /><circle cx="349.742383463" cy="406.494334008" fill="rgb(0%,0%,100%)" r="0.7" /><circle cx="351.501504573" cy="408.877584781" fill="rgb(0%,0%,100%)" r="0.7" /><circle cx="352.277437495" cy="411.744737052" fill="rgb(0%,0%,100%)" r="0.7" /><circle cx="350.909274852" cy="414.28725178" fill="rgb(0%,0%,100%)" r="0.7" /><circle cx="348.09" cy="415.013" fill="rgb(0%,0%,100%)" r="0.7" /><circle cx="345.09" cy="415.013" fill="rgb(0%,0%,100%)" r="0.7" /><circle cx="342.09" cy="415.013" fill="rgb(0%,0%,100%)" r="0.7" /><circle cx="339.09" cy="415.013" fill="rgb(0%,0%,100%)" r="0.7" /><circle cx="336.09" cy="415.013" fill="rgb(0%,0%,100%)" r="0.7" /><circle cx="333.09" cy="415.013" fill="rgb(0%,0%,100%)" r="0.7" /><circle cx="330.09" cy="415.013" fill="rgb(0%,0%,100%)" r="0.7" /><circle cx="327.09" cy="415.013" fill="rgb(0%,0%,100%)" r="0.7" /><circle cx="324.09" cy="415.013" fill="rgb(0%,0%,100%)" r="0.7" /><circle cx="321.09" cy="415.013" fill="rgb(0%,0%,100%)" r="0.7" /><circle cx="318.09" cy="415.013" fill="rgb(0%,0%,100%)" r="0.7" /><circle cx="315.09" cy="415.013" fill="rgb(0%,0%,100%)" r="0.7" /><circle cx="312.09" cy="415.013" fill="rgb(0%,0%,100%)" r="0.7" /><circle cx="309.09" cy="415.013" fill="rgb(0%,0%,100%)" r="0.7" /></svg>