<?xml version="1.0" encoding="utf-8" ?>
<svg baseProfile="full" height="100%" version="1.1" width="100%" xmlns="http://www.w3.org/2000/svg" xmlns:ev="http://www.w3.org/2001/xml-events" xmlns:xlink="http://www.w3.org/1999/xlink"><defs /><circle cx="301.95828387" cy="289.200558524" fill="rgb(100%,0%,0%)" r="0.7" /><circle cx="299.006646053" cy="289.569046182" fill="rgb(100%,0%,0%)" r="0.7" /><circle cx="296.654345284" cy="291.342362015" fill="rgb(100%,0%,0%)" r="0.7" /><circle cx="295.877976578" cy="294.197914083" fill="rgb(100%,0%,0%)" r="0.7" /><circle cx="296.405428282" cy="297.138478781" fill="rgb(100%,0%,0%)" r="0.7" /><circle cx="297.21606877" cy="300.026859671" fill="rgb(100%,0%,0%)" r="0.7" /><circle cx="298.050733326" cy="302.908411614" fill="rgb(100%,0%,0%)" r="0.7" /><circle cx="298.898894733" cy="305.786016015" fill="rgb(100%,0%,0%)" r="0.7" /><circle cx="299.756127716" cy="308.660934465" fill="rgb(100%,0%,0%)" r="0.7" /><circle cx="300.620095555" cy="311.533836758" fill="rgb(100%,0%,0%)" r="0.7" /><circle cx="301.489417858" cy="314.405119818" fill="rgb(100%,0%,0%)" r="0.7" /><circle cx="302.363250343" cy="317.275041344" fill="rgb(100%,0%,0%)" r="0.7" /><circle cx="303.241113886" cy="320.143726326" fill="rgb(100%,0%,0%)" r="0.7" /><circle cx="304.122980978" cy="323.011184249" fill="rgb(100%,0%,0%)" r="0.7" /><circle cx="304.956170617" cy="325.892914997" fill="rgb(100%,0%,0%)" r="0.7" /><circle cx="305.748110708" cy="328.786491584" fill="rgb(100%,0%,0%)" r="0.7" /><circle cx="306.523606426" cy="331.684525304" fill="rgb(100%,0%,0%)" r="0.7" /><circle cx="307.282074931" cy="334.587025012" fill="rgb(100%,0%,0%)" r="0.7" /><circle cx="308.022927128" cy="337.494117787" fill="rgb(100%,0%,0%)" r="0.7" /><circle cx="308.745496927" cy="340.405791021" fill="rgb(100%,0%,0%)" r="0.7" /><circle cx="309.449097057" cy="343.322124979" fill="rgb(100%,0%,0%)" r="0.7" /><circle cx="310.132973048" cy="346.243128085" fill="rgb(100%,0%,0%)" r="0.7" /><circle cx="310.796328577" cy="349.168863866" fill="rgb(100%,0%,0%)" r="0.7" /><circle cx="311.438297964" cy="352.099362688" fill="rgb(100%,0%,0%)" r="0.7" /><circle cx="312.057948745" cy="355.034664449" fill="rgb(100%,0%,0%)" r="0.7" /><circle cx="312.654266562" cy="357.974789132" fill="rgb(100%,0%,0%)" r="0.7" /><circle cx="313.226152975" cy="360.919776185" fill="rgb(100%,0%,0%)" r="0.7" /><circle cx="313.772398252" cy="363.869608243" fill="rgb(100%,0%,0%)" r="0.7" /><circle cx="314.29168577" cy="366.82431005" fill="rgb(100%,0%,0%)" r="0.7" /><circle cx="314.782559561" cy="369.783873925" fill="rgb(100%,0%,0%)" r="0.7" /><circle cx="315.243401257" cy="372.7482472" fill="rgb(100%,0%,0%)" r="0.7" /><circle cx="315.672411569" cy="375.717385658" fill="rgb(100%,0%,0%)" r="0.7" /><circle cx="316.067572868" cy="378.691245689" fill="rgb(100%,0%,0%)" r="0.7" /><circle cx="316.426589231" cy="381.669667057" fill="rgb(100%,0%,0%)" r="0.7" /><circle cx="316.746844534" cy="384.652488354" fill="rgb(100%,0%,0%)" r="0.7" /><circle cx="317.025317917" cy="387.639514937" fill="rgb(100%,0%,0%)" r="0.7" /><circle cx="317.258465395" cy="390.630416048" fill="rgb(100%,0%,0%)" r="0.7" /><circle cx="317.442069927" cy="393.62475401" fill="rgb(100%,0%,0%)" r="0.7" /><circle cx="317.571007366" cy="396.621931465" fill="rgb(100%,0%,0%)" r="0.7" /><circle cx="317.638881086" cy="399.621108391" fill="rgb(100%,0%,0%)" r="0.7" /><circle cx="317.637410495" cy="402.621027339" fill="rgb(100%,0%,0%)" r="0.7" /><circle cx="317.555304228" cy="405.6197993" fill="rgb(100%,0%,0%)" r="0.7" /><circle cx="317.375851094" cy="408.614256121" fill="rgb(100%,0%,0%)" r="0.7" /><circle cx="317.07027812" cy="411.598346869" fill="rgb(100%,0%,0%)" r="0.7" /><circle cx="316.559" cy="414.553" fill="rgb(100%,0%,0%)" r="0.7" /><circle cx="301.95828387" cy="289.200558524" fill="rgb(0%,0%,100%)" r="0.7" /><circle cx="304.609015206" cy="290.474758167" fill="rgb(0%,0%,100%)" r="0.7" /><circle cx="306.613403368" cy="292.673446097" fill="rgb(0%,0%,100%)" r="0.7" /><circle cx="307.977584387" cy="295.333318279" fill="rgb(0%,0%,100%)" r="0.7" /><circle cx="308.738462573" cy="298.231892438" fill="rgb(0%,0%,100%)" r="0.7" /><circle cx="309.118353005" cy="301.206367441" fill="rgb(0%,0%,100%)" r="0.7" /><circle cx="309.234642996" cy="304.203420999" fill="rgb(0%,0%,100%)" r="0.7" /><circle cx="309.156386431" cy="307.201996594" fill="rgb(0%,0%,100%)" r="0.7" /><circle cx="308.927643685" cy="310.19302326" fill="rgb(0%,0%,100%)" r="0.7" /><circle cx="308.578332394" cy="313.172442492" fill="rgb(0%,0%,100%)" r="0.7" /><circle cx="308.756240934" cy="316.149275222" fill="rgb(0%,0%,100%)" r="0.7" /><circle cx="309.261017691" cy="319.106217055" fill="rgb(0%,0%,100%)" r="0.7" /><circle cx="309.897547177" cy="322.037677519" fill="rgb(0%,0%,100%)" r="0.7" /><circle cx="310.656327694" cy="324.939913271" fill="rgb(0%,0%,100%)" r="0.7" /><circle cx="311.535096974" cy="327.808092996" fill="rgb(0%,0%,100%)" r="0.7" /><circle cx="312.534599197" cy="330.636448613" fill="rgb(0%,0%,100%)" r="0.7" /><circle cx="313.450805375" cy="333.485407772" fill="rgb(0%,0%,100%)" r="0.7" /><circle cx="314.123281349" cy="336.409055101" fill="rgb(0%,0%,100%)" r="0.7" /><circle cx="314.775075893" cy="339.337394855" fill="rgb(0%,0%,100%)" r="0.7" /><circle cx="315.408927543" cy="342.269648996" fill="rgb(0%,0%,100%)" r="0.7" /><circle cx="316.025797516" cy="345.205558983" fill="rgb(0%,0%,100%)" r="0.7" /><circle cx="316.625952716" cy="348.144895189" fill="rgb(0%,0%,100%)" r="0.7" /><circle cx="317.209319779" cy="351.087632973" fill="rgb(0%,0%,100%)" r="0.7" /><circle cx="317.775556212" cy="354.033704686" fill="rgb(0%,0%,100%)" r="0.7" /><circle cx="318.324128452" cy="356.983121013" fill="rgb(0%,0%,100%)" r="0.7" /><circle cx="318.854320476" cy="359.935904325" fill="rgb(0%,0%,100%)" r="0.7" /><circle cx="319.36523459" cy="362.892065564" fill="rgb(0%,0%,100%)" r="0.7" /><circle cx="319.855797459" cy="365.851681044" fill="rgb(0%,0%,100%)" r="0.7" /><circle cx="320.324726798" cy="368.814800309" fill="rgb(0%,0%,100%)" r="0.7" /><circle cx="320.77051209" cy="371.781487534" fill="rgb(0%,0%,100%)" r="0.7" /><circle cx="321.191375635" cy="374.75181238" fill="rgb(0%,0%,100%)" r="0.7" /><circle cx="321.585220441" cy="377.725837877" fill="rgb(0%,0%,100%)" r="0.7" /><circle cx="321.949562867" cy="380.703618565" fill="rgb(0%,0%,100%)" r="0.7" /><circle cx="322.281441172" cy="383.685189172" fill="rgb(0%,0%,100%)" r="0.7" /><circle cx="322.577292048" cy="386.670549662" fill="rgb(0%,0%,100%)" r="0.7" /><circle cx="322.832779654" cy="389.659626886" fill="rgb(0%,0%,100%)" r="0.7" /><circle cx="323.042559494" cy="392.652250607" fill="rgb(0%,0%,100%)" r="0.7" /><circle cx="323.199936072" cy="395.648078265" fill="rgb(0%,0%,100%)" r="0.7" /><circle cx="323.296358593" cy="398.64647045" fill="rgb(0%,0%,100%)" r="0.7" /><circle cx="323.320652896" cy="401.646283167" fill="rgb(0%,0%,100%)" r="0.7" /><circle cx="323.257802876" cy="404.64550127" fill="rgb(0%,0%,100%)" r="0.7" /><circle cx="323.086930176" cy="407.640422317" fill="rgb(0%,0%,100%)" r="0.7" /><circle cx="322.777759673" cy="410.624102146" fill="rgb(0%,0%,100%)" r="0.7" /><circle cx="322.284077528" cy="413.582536391" fill="rgb(0%,0%,100%)" r="0.7" /><circle cx="320.836027081" cy="412.223746876" fill="rgb(0%,0%,100%)" r="0.7" /><circle cx="319.127141891" cy="411.176476143" fill="rgb(0%,0%,100%)" r="0.7" /><circle cx="317.311002968" cy="413.564286732" fill="rgb(0%,0%,100%)" r="0.7" /><circle cx="316.559" cy="414.553" fill="rgb(0%,0%,100%)" r="0.7" /></svg>