<?xml version="1.0" encoding="utf-8" ?>
<svg baseProfile="full" height="100%" version="1.1" width="100%" xmlns="http://www.w3.org/2000/svg" xmlns:ev="http://www.w3.org/2001/xml-events" xmlns:xlink="http://www.w3.org/1999/xlink"><defs /><circle cx="295.727267943" cy="265.299955326" fill="rgb(100%,0%,0%)" r="0.7" /><circle cx="292.74214927" cy="265.575857805" fill="rgb(100%,0%,0%)" r="0.7" /><circle cx="289.82337272" cy="266.257991972" fill="rgb(100%,0%,0%)" r="0.7" /><circle cx="287.038860061" cy="267.36642193" fill="rgb(100%,0%,0%)" r="0.7" /><circle cx="284.4622565" cy="268.896860319" fill="rgb(100%,0%,0%)" r="0.7" /><circle cx="282.156827495" cy="270.811831613" fill="rgb(100%,0%,0%)" r="0.7" /><circle cx="280.159612994" cy="273.047037169" fill="rgb(100%,0%,0%)" r="0.7" /><circle cx="278.476873808" cy="275.528301491" fill="rgb(100%,0%,0%)" r="0.7" /><circle cx="277.091188922" cy="278.187500642" fill="rgb(100%,0%,0%)" r="0.7" /><circle cx="275.972821718" cy="280.970151857" fill="rgb(100%,0%,0%)" r="0.7" /><circle cx="275.088644021" cy="283.836145321" fill="rgb(100%,0%,0%)" r="0.7" /><circle cx="274.407163631" cy="286.757196743" fill="rgb(100%,0%,0%)" r="0.7" /><circle cx="273.900584582" cy="289.713714538" fill="rgb(100%,0%,0%)" r="0.7" /><circle cx="273.777303879" cy="292.641952441" fill="rgb(100%,0%,0%)" r="0.7" /><circle cx="275.479145629" cy="295.07271593" fill="rgb(100%,0%,0%)" r="0.7" /><circle cx="277.504080119" cy="297.108591198" fill="rgb(100%,0%,0%)" r="0.7" /><circle cx="278.208666094" cy="300.024373837" fill="rgb(100%,0%,0%)" r="0.7" /><circle cx="278.792137421" cy="302.966934922" fill="rgb(100%,0%,0%)" r="0.7" /><circle cx="279.277227187" cy="305.927324094" fill="rgb(100%,0%,0%)" r="0.7" /><circle cx="279.673021975" cy="308.90098329" fill="rgb(100%,0%,0%)" r="0.7" /><circle cx="279.984415851" cy="311.88468499" fill="rgb(100%,0%,0%)" r="0.7" /><circle cx="280.214346507" cy="314.875770048" fill="rgb(100%,0%,0%)" r="0.7" /><circle cx="280.364673225" cy="317.87192115" fill="rgb(100%,0%,0%)" r="0.7" /><circle cx="280.436596766" cy="320.870975561" fill="rgb(100%,0%,0%)" r="0.7" /><circle cx="280.430898462" cy="323.870891389" fill="rgb(100%,0%,0%)" r="0.7" /><circle cx="280.348085356" cy="326.869657639" fill="rgb(100%,0%,0%)" r="0.7" /><circle cx="280.188486286" cy="329.865327983" fill="rgb(100%,0%,0%)" r="0.7" /><circle cx="279.952320812" cy="332.855947289" fill="rgb(100%,0%,0%)" r="0.7" /><circle cx="279.639754001" cy="335.839528945" fill="rgb(100%,0%,0%)" r="0.7" /><circle cx="279.250926471" cy="338.814142458" fill="rgb(100%,0%,0%)" r="0.7" /><circle cx="278.785993563" cy="341.777818541" fill="rgb(100%,0%,0%)" r="0.7" /><circle cx="278.245150175" cy="344.728574802" fill="rgb(100%,0%,0%)" r="0.7" /><circle cx="277.62864294" cy="347.664463229" fill="rgb(100%,0%,0%)" r="0.7" /><circle cx="276.936799614" cy="350.58350781" fill="rgb(100%,0%,0%)" r="0.7" /><circle cx="276.170029112" cy="353.483777551" fill="rgb(100%,0%,0%)" r="0.7" /><circle cx="275.328839824" cy="356.363356147" fill="rgb(100%,0%,0%)" r="0.7" /><circle cx="274.413855799" cy="359.220330106" fill="rgb(100%,0%,0%)" r="0.7" /><circle cx="273.425804784" cy="362.052858211" fill="rgb(100%,0%,0%)" r="0.7" /><circle cx="272.365522802" cy="364.859166885" fill="rgb(100%,0%,0%)" r="0.7" /><circle cx="271.233981678" cy="367.637491607" fill="rgb(100%,0%,0%)" r="0.7" /><circle cx="270.032249131" cy="370.386189613" fill="rgb(100%,0%,0%)" r="0.7" /><circle cx="268.761512561" cy="373.103677762" fill="rgb(100%,0%,0%)" r="0.7" /><circle cx="267.423060316" cy="375.788474068" fill="rgb(100%,0%,0%)" r="0.7" /><circle cx="266.018299114" cy="378.43915795" fill="rgb(100%,0%,0%)" r="0.7" /><circle cx="264.53876762" cy="381.048659439" fill="rgb(100%,0%,0%)" r="0.7" /><circle cx="262.953321949" cy="383.595357228" fill="rgb(100%,0%,0%)" r="0.7" /><circle cx="261.298255277" cy="386.097425412" fill="rgb(100%,0%,0%)" r="0.7" /><circle cx="259.585946631" cy="388.560672901" fill="rgb(100%,0%,0%)" r="0.7" /><circle cx="257.821957133" cy="390.987201744" fill="rgb(100%,0%,0%)" r="0.7" /><circle cx="256.009510828" cy="393.377757208" fill="rgb(100%,0%,0%)" r="0.7" /><circle cx="254.150652122" cy="395.732438244" fill="rgb(100%,0%,0%)" r="0.7" /><circle cx="252.246816071" cy="398.050858545" fill="rgb(100%,0%,0%)" r="0.7" /><circle cx="250.29895766" cy="400.332420567" fill="rgb(100%,0%,0%)" r="0.7" /><circle cx="248.307773584" cy="402.576280513" fill="rgb(100%,0%,0%)" r="0.7" /><circle cx="246.273764593" cy="404.78142111" fill="rgb(100%,0%,0%)" r="0.7" /><circle cx="244.19734693" cy="406.946623137" fill="rgb(100%,0%,0%)" r="0.7" /><circle cx="242.078770212" cy="409.070614806" fill="rgb(100%,0%,0%)" r="0.7" /><circle cx="239.918267495" cy="411.151957633" fill="rgb(100%,0%,0%)" r="0.7" /><circle cx="237.716053653" cy="413.189088852" fill="rgb(100%,0%,0%)" r="0.7" /><circle cx="235.472285688" cy="415.180384965" fill="rgb(100%,0%,0%)" r="0.7" /><circle cx="233.187178019" cy="417.124079655" fill="rgb(100%,0%,0%)" r="0.7" /><circle cx="230.860945909" cy="419.018338209" fill="rgb(100%,0%,0%)" r="0.7" /><circle cx="228.493817188" cy="420.861263262" fill="rgb(100%,0%,0%)" r="0.7" /><circle cx="226.086119336" cy="422.650845238" fill="rgb(100%,0%,0%)" r="0.7" /><circle cx="223.638223563" cy="424.385027355" fill="rgb(100%,0%,0%)" r="0.7" /><circle cx="221.150574408" cy="426.061700643" fill="rgb(100%,0%,0%)" r="0.7" /><circle cx="218.623736218" cy="427.678692961" fill="rgb(100%,0%,0%)" r="0.7" /><circle cx="216.058359509" cy="429.233813254" fill="rgb(100%,0%,0%)" r="0.7" /><circle cx="213.455222205" cy="430.724846171" fill="rgb(100%,0%,0%)" r="0.7" /><circle cx="210.815218453" cy="432.149581349" fill="rgb(100%,0%,0%)" r="0.7" /><circle cx="208.139379611" cy="433.505823781" fill="rgb(100%,0%,0%)" r="0.7" /><circle cx="205.428886152" cy="434.791411668" fill="rgb(100%,0%,0%)" r="0.7" /><circle cx="202.68507294" cy="436.004238632" fill="rgb(100%,0%,0%)" r="0.7" /><circle cx="199.909417507" cy="437.142282906" fill="rgb(100%,0%,0%)" r="0.7" /><circle cx="197.10353949" cy="438.203629542" fill="rgb(100%,0%,0%)" r="0.7" /><circle cx="194.269206949" cy="439.186489604" fill="rgb(100%,0%,0%)" r="0.7" /><circle cx="191.408355529" cy="440.08921606" fill="rgb(100%,0%,0%)" r="0.7" /><circle cx="188.523027331" cy="440.910344179" fill="rgb(100%,0%,0%)" r="0.7" /><circle cx="185.615387762" cy="441.64860137" fill="rgb(100%,0%,0%)" r="0.7" /><circle cx="182.687710377" cy="442.302926229" fill="rgb(100%,0%,0%)" r="0.7" /><circle cx="179.742392716" cy="442.872478735" fill="rgb(100%,0%,0%)" r="0.7" /><circle cx="176.781819175" cy="443.356675427" fill="rgb(100%,0%,0%)" r="0.7" /><circle cx="173.808509133" cy="443.755165697" fill="rgb(100%,0%,0%)" r="0.7" /><circle cx="170.824952763" cy="444.067862055" fill="rgb(100%,0%,0%)" r="0.7" /><circle cx="169.23001362" cy="444.576978855" fill="rgb(100%,0%,0%)" r="0.7" /><circle cx="171.913340652" cy="445.918528719" fill="rgb(100%,0%,0%)" r="0.7" /><circle cx="174.596667684" cy="447.260078583" fill="rgb(100%,0%,0%)" r="0.7" /><circle cx="177.279994717" cy="448.601628447" fill="rgb(100%,0%,0%)" r="0.7" /><circle cx="179.963321749" cy="449.943178311" fill="rgb(100%,0%,0%)" r="0.7" /><circle cx="178.894848883" cy="452.212836075" fill="rgb(100%,0%,0%)" r="0.7" /><circle cx="177.146458226" cy="454.650689662" fill="rgb(100%,0%,0%)" r="0.7" /><circle cx="175.398067569" cy="457.088543249" fill="rgb(100%,0%,0%)" r="0.7" /><circle cx="173.649676913" cy="459.526396836" fill="rgb(100%,0%,0%)" r="0.7" /><circle cx="171.901286256" cy="461.964250422" fill="rgb(100%,0%,0%)" r="0.7" /><circle cx="170.152895599" cy="464.402104009" fill="rgb(100%,0%,0%)" r="0.7" /><circle cx="170.125" cy="464.441" fill="rgb(100%,0%,0%)" r="0.7" /><circle cx="173.118134258" cy="464.579528377" fill="rgb(100%,0%,0%)" r="0.7" /><circle cx="295.727267943" cy="265.299955326" fill="rgb(0%,0%,100%)" r="0.7" /><circle cx="298.723537265" cy="265.404410179" fill="rgb(0%,0%,100%)" r="0.7" /><circle cx="301.680302681" cy="265.895866986" fill="rgb(0%,0%,100%)" r="0.7" /><circle cx="304.070326153" cy="267.600371245" fill="rgb(0%,0%,100%)" r="0.7" /><circle cx="305.416256541" cy="270.269678106" fill="rgb(0%,0%,100%)" r="0.7" /><circle cx="306.20599389" cy="273.16149796" fill="rgb(0%,0%,100%)" r="0.7" /><circle cx="306.693112337" cy="276.120914699" fill="rgb(0%,0%,100%)" r="0.7" /><circle cx="306.989035102" cy="279.105936494" fill="rgb(0%,0%,100%)" r="0.7" /><circle cx="307.151199229" cy="282.10136251" fill="rgb(0%,0%,100%)" r="0.7" /><circle cx="307.213123382" cy="285.10061749" fill="rgb(0%,0%,100%)" r="0.7" /><circle cx="307.196144447" cy="288.100501596" fill="rgb(0%,0%,100%)" r="0.7" /><circle cx="307.114714127" cy="291.099350751" fill="rgb(0%,0%,100%)" r="0.7" /><circle cx="306.979070227" cy="294.096250238" fill="rgb(0%,0%,100%)" r="0.7" /><circle cx="306.796703357" cy="297.090675643" fill="rgb(0%,0%,100%)" r="0.7" /><circle cx="306.573213499" cy="300.082320016" fill="rgb(0%,0%,100%)" r="0.7" /><circle cx="306.312834069" cy="303.070983237" fill="rgb(0%,0%,100%)" r="0.7" /><circle cx="306.018757716" cy="306.056522068" fill="rgb(0%,0%,100%)" r="0.7" /><circle cx="305.693336409" cy="309.038806088" fill="rgb(0%,0%,100%)" r="0.7" /><circle cx="305.338187144" cy="312.017701948" fill="rgb(0%,0%,100%)" r="0.7" /><circle cx="304.954220041" cy="314.993018605" fill="rgb(0%,0%,100%)" r="0.7" /><circle cx="304.541564863" cy="317.964489084" fill="rgb(0%,0%,100%)" r="0.7" /><circle cx="304.099346128" cy="320.931707331" fill="rgb(0%,0%,100%)" r="0.7" /><circle cx="303.625147642" cy="323.893976724" fill="rgb(0%,0%,100%)" r="0.7" /><circle cx="303.128880691" cy="326.852610829" fill="rgb(0%,0%,100%)" r="0.7" /><circle cx="302.672377955" cy="329.817662272" fill="rgb(0%,0%,100%)" r="0.7" /><circle cx="302.23344632" cy="332.785374513" fill="rgb(0%,0%,100%)" r="0.7" /><circle cx="301.786614" cy="335.751906836" fill="rgb(0%,0%,100%)" r="0.7" /><circle cx="301.313526242" cy="338.714358625" fill="rgb(0%,0%,100%)" r="0.7" /><circle cx="300.801108769" cy="341.670236518" fill="rgb(0%,0%,100%)" r="0.7" /><circle cx="300.240216873" cy="344.617303989" fill="rgb(0%,0%,100%)" r="0.7" /><circle cx="299.624673125" cy="347.553429137" fill="rgb(0%,0%,100%)" r="0.7" /><circle cx="298.950534633" cy="350.47664476" fill="rgb(0%,0%,100%)" r="0.7" /><circle cx="298.215549658" cy="353.385165306" fill="rgb(0%,0%,100%)" r="0.7" /><circle cx="297.418759083" cy="356.27734968" fill="rgb(0%,0%,100%)" r="0.7" /><circle cx="296.560157062" cy="359.15179739" fill="rgb(0%,0%,100%)" r="0.7" /><circle cx="295.64046003" cy="362.007290173" fill="rgb(0%,0%,100%)" r="0.7" /><circle cx="294.660908347" cy="364.842811801" fill="rgb(0%,0%,100%)" r="0.7" /><circle cx="293.623120444" cy="367.657526992" fill="rgb(0%,0%,100%)" r="0.7" /><circle cx="292.528953164" cy="370.450827596" fill="rgb(0%,0%,100%)" r="0.7" /><circle cx="291.380441784" cy="373.222232024" fill="rgb(0%,0%,100%)" r="0.7" /><circle cx="290.179717923" cy="375.971405314" fill="rgb(0%,0%,100%)" r="0.7" /><circle cx="288.928938174" cy="378.698180744" fill="rgb(0%,0%,100%)" r="0.7" /><circle cx="287.630266185" cy="381.402489684" fill="rgb(0%,0%,100%)" r="0.7" /><circle cx="286.285853742" cy="384.084328158" fill="rgb(0%,0%,100%)" r="0.7" /><circle cx="284.89776512" cy="386.743850402" fill="rgb(0%,0%,100%)" r="0.7" /><circle cx="283.468034764" cy="389.381209958" fill="rgb(0%,0%,100%)" r="0.7" /><circle cx="281.998598249" cy="391.996663192" fill="rgb(0%,0%,100%)" r="0.7" /><circle cx="280.491321886" cy="394.59049048" fill="rgb(0%,0%,100%)" r="0.7" /><circle cx="278.947969456" cy="397.163039666" fill="rgb(0%,0%,100%)" r="0.7" /><circle cx="277.370254266" cy="399.714628815" fill="rgb(0%,0%,100%)" r="0.7" /><circle cx="275.759750307" cy="402.24568602" fill="rgb(0%,0%,100%)" r="0.7" /><circle cx="274.118008307" cy="404.756559105" fill="rgb(0%,0%,100%)" r="0.7" /><circle cx="272.44643386" cy="407.247705979" fill="rgb(0%,0%,100%)" r="0.7" /><circle cx="270.746408313" cy="409.71950911" fill="rgb(0%,0%,100%)" r="0.7" /><circle cx="269.019216086" cy="412.172388494" fill="rgb(0%,0%,100%)" r="0.7" /><circle cx="267.266050399" cy="414.606791969" fill="rgb(0%,0%,100%)" r="0.7" /><circle cx="265.488053243" cy="417.023141222" fill="rgb(0%,0%,100%)" r="0.7" /><circle cx="263.686282352" cy="419.421839036" fill="rgb(0%,0%,100%)" r="0.7" /><circle cx="261.841434679" cy="421.787452113" fill="rgb(0%,0%,100%)" r="0.7" /><circle cx="259.942116043" cy="424.109540678" fill="rgb(0%,0%,100%)" r="0.7" /><circle cx="257.988115154" cy="426.385819215" fill="rgb(0%,0%,100%)" r="0.7" /><circle cx="255.979371835" cy="428.613930203" fill="rgb(0%,0%,100%)" r="0.7" /><circle cx="253.915936944" cy="430.791512471" fill="rgb(0%,0%,100%)" r="0.7" /><circle cx="251.798046751" cy="432.916142133" fill="rgb(0%,0%,100%)" r="0.7" /><circle cx="249.626058301" cy="434.985422783" fill="rgb(0%,0%,100%)" r="0.7" /><circle cx="247.400481971" cy="436.996968002" fill="rgb(0%,0%,100%)" r="0.7" /><circle cx="245.12201577" cy="438.948389781" fill="rgb(0%,0%,100%)" r="0.7" /><circle cx="242.791517822" cy="440.837342622" fill="rgb(0%,0%,100%)" r="0.7" /><circle cx="240.40998812" cy="442.661550633" fill="rgb(0%,0%,100%)" r="0.7" /><circle cx="237.978607392" cy="444.418787733" fill="rgb(0%,0%,100%)" r="0.7" /><circle cx="235.498744599" cy="446.106886494" fill="rgb(0%,0%,100%)" r="0.7" /><circle cx="232.971896866" cy="447.723788298" fill="rgb(0%,0%,100%)" r="0.7" /><circle cx="230.399695468" cy="449.267538518" fill="rgb(0%,0%,100%)" r="0.7" /><circle cx="227.783928621" cy="450.736272392" fill="rgb(0%,0%,100%)" r="0.7" /><circle cx="225.126519037" cy="452.128226952" fill="rgb(0%,0%,100%)" r="0.7" /><circle cx="222.429484132" cy="453.44175365" fill="rgb(0%,0%,100%)" r="0.7" /><circle cx="219.694953055" cy="454.675295171" fill="rgb(0%,0%,100%)" r="0.7" /><circle cx="216.925106446" cy="455.827393567" fill="rgb(0%,0%,100%)" r="0.7" /><circle cx="214.122236461" cy="456.896637767" fill="rgb(0%,0%,100%)" r="0.7" /><circle cx="211.28867687" cy="457.881660437" fill="rgb(0%,0%,100%)" r="0.7" /><circle cx="208.426807891" cy="458.781089492" fill="rgb(0%,0%,100%)" r="0.7" /><circle cx="205.539013349" cy="459.593499801" fill="rgb(0%,0%,100%)" r="0.7" /><circle cx="202.627759306" cy="460.317306848" fill="rgb(0%,0%,100%)" r="0.7" /><circle cx="199.695503753" cy="460.950674034" fill="rgb(0%,0%,100%)" r="0.7" /><circle cx="196.744759731" cy="461.49131441" fill="rgb(0%,0%,100%)" r="0.7" /><circle cx="193.77806168" cy="461.936200585" fill="rgb(0%,0%,100%)" r="0.7" /><circle cx="190.798099909" cy="462.281006612" fill="rgb(0%,0%,100%)" r="0.7" /><circle cx="187.807725891" cy="462.518991654" fill="rgb(0%,0%,100%)" r="0.7" /><circle cx="184.810300143" cy="462.638011185" fill="rgb(0%,0%,100%)" r="0.7" /><circle cx="181.810932092" cy="462.606847966" fill="rgb(0%,0%,100%)" r="0.7" /><circle cx="179.004838744" cy="463.535397119" fill="rgb(0%,0%,100%)" r="0.7" /><circle cx="176.099919248" cy="464.27302448" fill="rgb(0%,0%,100%)" r="0.7" /><circle cx="173.118134258" cy="464.579528377" fill="rgb(0%,0%,100%)" r="0.7" /></svg>