<?xml version="1.0" encoding="utf-8" ?>
<svg baseProfile="full" height="100%" version="1.1" width="100%" xmlns="http://www.w3.org/2000/svg" xmlns:ev="http://www.w3.org/2001/xml-events" xmlns:xlink="http://www.w3.org/1999/xlink"><defs /><circle cx="210.332717369" cy="328.024939757" fill="rgb(100%,0%,0%)" r="0.7" /><circle cx="211.209028999" cy="330.167776563" fill="rgb(100%,0%,0%)" r="0.7" /><circle cx="212.564931438" cy="332.843879808" fill="rgb(100%,0%,0%)" r="0.7" /><circle cx="213.920833877" cy="335.519983052" fill="rgb(100%,0%,0%)" r="0.7" /><circle cx="215.276736316" cy="338.196086297" fill="rgb(100%,0%,0%)" r="0.7" /><circle cx="216.632638755" cy="340.872189542" fill="rgb(100%,0%,0%)" r="0.7" /><circle cx="217.988541193" cy="343.548292787" fill="rgb(100%,0%,0%)" r="0.7" /><circle cx="219.344443632" cy="346.224396031" fill="rgb(100%,0%,0%)" r="0.7" /><circle cx="220.700346071" cy="348.900499276" fill="rgb(100%,0%,0%)" r="0.7" /><circle cx="218.604244574" cy="350.979556791" fill="rgb(100%,0%,0%)" r="0.7" /><circle cx="216.428295802" cy="353.044804219" fill="rgb(100%,0%,0%)" r="0.7" /><circle cx="214.252347029" cy="355.110051647" fill="rgb(100%,0%,0%)" r="0.7" /><circle cx="212.076398256" cy="357.175299075" fill="rgb(100%,0%,0%)" r="0.7" /><circle cx="209.900449484" cy="359.240546503" fill="rgb(100%,0%,0%)" r="0.7" /><circle cx="207.724500711" cy="361.305793931" fill="rgb(100%,0%,0%)" r="0.7" /><circle cx="205.548551938" cy="363.371041359" fill="rgb(100%,0%,0%)" r="0.7" /><circle cx="205.085859394" cy="364.952042606" fill="rgb(100%,0%,0%)" r="0.7" /><circle cx="208.009542702" cy="365.624116676" fill="rgb(100%,0%,0%)" r="0.7" /><circle cx="210.919808669" cy="366.352214434" fill="rgb(100%,0%,0%)" r="0.7" /><circle cx="213.816887529" cy="367.131130566" fill="rgb(100%,0%,0%)" r="0.7" /><circle cx="216.699830152" cy="367.960841869" fill="rgb(100%,0%,0%)" r="0.7" /><circle cx="219.567002019" cy="368.843482806" fill="rgb(100%,0%,0%)" r="0.7" /><circle cx="222.416124929" cy="369.782738628" fill="rgb(100%,0%,0%)" r="0.7" /><circle cx="225.244119987" cy="370.783763263" fill="rgb(100%,0%,0%)" r="0.7" /><circle cx="228.046879222" cy="371.853361261" fill="rgb(100%,0%,0%)" r="0.7" /><circle cx="230.81883676" cy="373.000353795" fill="rgb(100%,0%,0%)" r="0.7" /><circle cx="233.552301752" cy="374.236174963" fill="rgb(100%,0%,0%)" r="0.7" /><circle cx="236.236358632" cy="375.575776348" fill="rgb(100%,0%,0%)" r="0.7" /><circle cx="238.854962331" cy="377.038962555" fill="rgb(100%,0%,0%)" r="0.7" /><circle cx="241.383553195" cy="378.652339501" fill="rgb(100%,0%,0%)" r="0.7" /><circle cx="243.823068301" cy="380.398286839" fill="rgb(100%,0%,0%)" r="0.7" /><circle cx="246.259799404" cy="382.148241563" fill="rgb(100%,0%,0%)" r="0.7" /><circle cx="248.814583209" cy="383.684229754" fill="rgb(100%,0%,0%)" r="0.7" /><circle cx="251.594370037" cy="384.812407572" fill="rgb(100%,0%,0%)" r="0.7" /><circle cx="254.374156865" cy="385.940585391" fill="rgb(100%,0%,0%)" r="0.7" /><circle cx="257.153943693" cy="387.068763209" fill="rgb(100%,0%,0%)" r="0.7" /><circle cx="259.933730522" cy="388.196941027" fill="rgb(100%,0%,0%)" r="0.7" /><circle cx="262.71351735" cy="389.325118845" fill="rgb(100%,0%,0%)" r="0.7" /><circle cx="265.493304178" cy="390.453296663" fill="rgb(100%,0%,0%)" r="0.7" /><circle cx="268.273091007" cy="391.581474482" fill="rgb(100%,0%,0%)" r="0.7" /><circle cx="271.052877835" cy="392.7096523" fill="rgb(100%,0%,0%)" r="0.7" /><circle cx="273.832664663" cy="393.837830118" fill="rgb(100%,0%,0%)" r="0.7" /><circle cx="276.607832983" cy="394.977035229" fill="rgb(100%,0%,0%)" r="0.7" /><circle cx="279.387223497" cy="396.105748633" fill="rgb(100%,0%,0%)" r="0.7" /><circle cx="282.233124953" cy="397.048535047" fill="rgb(100%,0%,0%)" r="0.7" /><circle cx="285.156853765" cy="397.712511835" fill="rgb(100%,0%,0%)" r="0.7" /><circle cx="288.066438334" cy="398.443439962" fill="rgb(100%,0%,0%)" r="0.7" /><circle cx="290.967508477" cy="399.207419076" fill="rgb(100%,0%,0%)" r="0.7" /><circle cx="293.855150714" cy="400.020544757" fill="rgb(100%,0%,0%)" r="0.7" /><circle cx="296.712796642" cy="400.932510095" fill="rgb(100%,0%,0%)" r="0.7" /><circle cx="299.50663244" cy="402.021266764" fill="rgb(100%,0%,0%)" r="0.7" /><circle cx="302.390315234" cy="402.846531742" fill="rgb(100%,0%,0%)" r="0.7" /><circle cx="305.310374226" cy="403.533796385" fill="rgb(100%,0%,0%)" r="0.7" /><circle cx="308.249820241" cy="404.133084858" fill="rgb(100%,0%,0%)" r="0.7" /><circle cx="311.202795435" cy="404.661837569" fill="rgb(100%,0%,0%)" r="0.7" /><circle cx="314.16632741" cy="405.127840619" fill="rgb(100%,0%,0%)" r="0.7" /><circle cx="317.138572263" cy="405.53462952" fill="rgb(100%,0%,0%)" r="0.7" /><circle cx="320.118183427" cy="405.883383941" fill="rgb(100%,0%,0%)" r="0.7" /><circle cx="323.104051955" cy="406.173736016" fill="rgb(100%,0%,0%)" r="0.7" /><circle cx="326.095139038" cy="406.404139071" fill="rgb(100%,0%,0%)" r="0.7" /><circle cx="329.090380568" cy="406.572030876" fill="rgb(100%,0%,0%)" r="0.7" /><circle cx="332.087262998" cy="406.69106931" fill="rgb(100%,0%,0%)" r="0.7" /><circle cx="210.332717369" cy="328.024939757" fill="rgb(0%,0%,100%)" r="0.7" /><circle cx="212.937234409" cy="329.512612306" fill="rgb(0%,0%,100%)" r="0.7" /><circle cx="215.597544668" cy="330.899111968" fill="rgb(0%,0%,100%)" r="0.7" /><circle cx="218.280454607" cy="332.241456682" fill="rgb(0%,0%,100%)" r="0.7" /><circle cx="220.97699599" cy="333.556224663" fill="rgb(0%,0%,100%)" r="0.7" /><circle cx="223.683588771" cy="334.850180757" fill="rgb(0%,0%,100%)" r="0.7" /><circle cx="226.402617187" cy="336.117671027" fill="rgb(0%,0%,100%)" r="0.7" /><circle cx="229.143723112" cy="337.336798535" fill="rgb(0%,0%,100%)" r="0.7" /><circle cx="231.89671533" cy="338.528830859" fill="rgb(0%,0%,100%)" r="0.7" /><circle cx="234.657043515" cy="339.703793579" fill="rgb(0%,0%,100%)" r="0.7" /><circle cx="237.42248545" cy="340.866696036" fill="rgb(0%,0%,100%)" r="0.7" /><circle cx="240.191751767" cy="342.020464352" fill="rgb(0%,0%,100%)" r="0.7" /><circle cx="242.964024697" cy="343.166986199" fill="rgb(0%,0%,100%)" r="0.7" /><circle cx="245.738749553" cy="344.307562858" fill="rgb(0%,0%,100%)" r="0.7" /><circle cx="248.51552703" cy="345.443133753" fill="rgb(0%,0%,100%)" r="0.7" /><circle cx="251.294058248" cy="346.574401788" fill="rgb(0%,0%,100%)" r="0.7" /><circle cx="254.074117833" cy="347.701909683" fill="rgb(0%,0%,100%)" r="0.7" /><circle cx="256.855526861" cy="348.826083452" fill="rgb(0%,0%,100%)" r="0.7" /><circle cx="259.638144628" cy="349.947264568" fill="rgb(0%,0%,100%)" r="0.7" /><circle cx="262.421852722" cy="351.065727387" fill="rgb(0%,0%,100%)" r="0.7" /><circle cx="265.206567319" cy="352.181700482" fill="rgb(0%,0%,100%)" r="0.7" /><circle cx="267.992202088" cy="353.295363081" fill="rgb(0%,0%,100%)" r="0.7" /><circle cx="270.778701242" cy="354.406865971" fill="rgb(0%,0%,100%)" r="0.7" /><circle cx="273.566014497" cy="355.516326141" fill="rgb(0%,0%,100%)" r="0.7" /><circle cx="276.354105308" cy="356.62383187" fill="rgb(0%,0%,100%)" r="0.7" /><circle cx="279.142949826" cy="357.729440452" fill="rgb(0%,0%,100%)" r="0.7" /><circle cx="281.932537599" cy="358.833170341" fill="rgb(0%,0%,100%)" r="0.7" /><circle cx="284.72288187" cy="359.934982227" fill="rgb(0%,0%,100%)" r="0.7" /><circle cx="287.514030322" cy="361.034707984" fill="rgb(0%,0%,100%)" r="0.7" /><circle cx="289.263538635" cy="361.706098618" fill="rgb(0%,0%,100%)" r="0.7" /><circle cx="288.094352653" cy="361.392667286" fill="rgb(0%,0%,100%)" r="0.7" /><circle cx="290.792209869" cy="362.70464093" fill="rgb(0%,0%,100%)" r="0.7" /><circle cx="293.480546508" cy="364.036059287" fill="rgb(0%,0%,100%)" r="0.7" /><circle cx="296.153049748" cy="365.399022674" fill="rgb(0%,0%,100%)" r="0.7" /><circle cx="298.816114767" cy="366.780352119" fill="rgb(0%,0%,100%)" r="0.7" /><circle cx="301.472578782" cy="368.174337949" fill="rgb(0%,0%,100%)" r="0.7" /><circle cx="304.123945376" cy="369.577990937" fill="rgb(0%,0%,100%)" r="0.7" /><circle cx="306.771039308" cy="370.989688274" fill="rgb(0%,0%,100%)" r="0.7" /><circle cx="309.414115745" cy="372.408901874" fill="rgb(0%,0%,100%)" r="0.7" /><circle cx="312.110082947" cy="373.721507364" fill="rgb(0%,0%,100%)" r="0.7" /><circle cx="314.846017774" cy="374.952198604" fill="rgb(0%,0%,100%)" r="0.7" /><circle cx="317.593406913" cy="376.157091134" fill="rgb(0%,0%,100%)" r="0.7" /><circle cx="320.35339749" cy="377.332833316" fill="rgb(0%,0%,100%)" r="0.7" /><circle cx="323.127509555" cy="378.474828189" fill="rgb(0%,0%,100%)" r="0.7" /><circle cx="325.917968561" cy="379.576253882" fill="rgb(0%,0%,100%)" r="0.7" /><circle cx="328.72849006" cy="380.625358562" fill="rgb(0%,0%,100%)" r="0.7" /><circle cx="331.568397485" cy="381.591579927" fill="rgb(0%,0%,100%)" r="0.7" /><circle cx="334.414013632" cy="382.540929663" fill="rgb(0%,0%,100%)" r="0.7" /><circle cx="337.219827397" cy="383.602086802" fill="rgb(0%,0%,100%)" r="0.7" /><circle cx="339.972507881" cy="384.794019567" fill="rgb(0%,0%,100%)" r="0.7" /><circle cx="342.650037526" cy="386.145876688" fill="rgb(0%,0%,100%)" r="0.7" /><circle cx="345.215689282" cy="387.69879271" fill="rgb(0%,0%,100%)" r="0.7" /><circle cx="347.602363096" cy="389.513144987" fill="rgb(0%,0%,100%)" r="0.7" /><circle cx="349.669310841" cy="391.680536972" fill="rgb(0%,0%,100%)" r="0.7" /><circle cx="351.0" cy="394.339" fill="rgb(0%,0%,100%)" r="0.7" /><circle cx="350.926835884" cy="395.744151564" fill="rgb(0%,0%,100%)" r="0.7" /><circle cx="350.213576417" cy="398.648100555" fill="rgb(0%,0%,100%)" r="0.7" /><circle cx="348.675913922" cy="401.210005019" fill="rgb(0%,0%,100%)" r="0.7" /><circle cx="346.459363615" cy="403.218131594" fill="rgb(0%,0%,100%)" r="0.7" /><circle cx="343.833460279" cy="404.658526671" fill="rgb(0%,0%,100%)" r="0.7" /><circle cx="340.999248857" cy="405.634119927" fill="rgb(0%,0%,100%)" r="0.7" /><circle cx="338.064972199" cy="406.251733864" fill="rgb(0%,0%,100%)" r="0.7" /><circle cx="335.084836084" cy="406.588530885" fill="rgb(0%,0%,100%)" r="0.7" /><circle cx="332.087262998" cy="406.69106931" fill="rgb(0%,0%,100%)" r="0.7" /></svg>