<?xml version="1.0" encoding="utf-8" ?>
<svg baseProfile="full" height="100%" version="1.1" width="100%" xmlns="http://www.w3.org/2000/svg" xmlns:ev="http://www.w3.org/2001/xml-events" xmlns:xlink="http://www.w3.org/1999/xlink"><defs /><circle cx="324.21417319" cy="275.178940916" fill="rgb(100%,0%,0%)" r="0.7" /><circle cx="321.317590237" cy="275.49951009" fill="rgb(100%,0%,0%)" r="0.7" /><circle cx="319.019652086" cy="277.40227326" fill="rgb(100%,0%,0%)" r="0.7" /><circle cx="317.22612304" cy="279.80536735" fill="rgb(100%,0%,0%)" r="0.7" /><circle cx="315.539385219" cy="282.286016294" fill="rgb(100%,0%,0%)" r="0.7" /><circle cx="313.95616598" cy="284.83399082" fill="rgb(100%,0%,0%)" r="0.7" /><circle cx="312.476400834" cy="287.443422137" fill="rgb(100%,0%,0%)" r="0.7" /><circle cx="311.099892452" cy="290.108771737" fill="rgb(100%,0%,0%)" r="0.7" /><circle cx="309.826491914" cy="292.824907607" fill="rgb(100%,0%,0%)" r="0.7" /><circle cx="308.656366746" cy="295.58710954" fill="rgb(100%,0%,0%)" r="0.7" /><circle cx="307.590350263" cy="298.391129893" fill="rgb(100%,0%,0%)" r="0.7" /><circle cx="306.63054775" cy="301.233261025" fill="rgb(100%,0%,0%)" r="0.7" /><circle cx="305.781600182" cy="304.110435177" fill="rgb(100%,0%,0%)" r="0.7" /><circle cx="305.054168308" cy="307.020643469" fill="rgb(100%,0%,0%)" r="0.7" /><circle cx="304.490617657" cy="309.966350133" fill="rgb(100%,0%,0%)" r="0.7" /><circle cx="304.336226149" cy="312.960166437" fill="rgb(100%,0%,0%)" r="0.7" /><circle cx="304.49667251" cy="315.955015663" fill="rgb(100%,0%,0%)" r="0.7" /><circle cx="304.861402472" cy="318.932366428" fill="rgb(100%,0%,0%)" r="0.7" /><circle cx="305.370530992" cy="321.888621776" fill="rgb(100%,0%,0%)" r="0.7" /><circle cx="305.988176806" cy="324.824219502" fill="rgb(100%,0%,0%)" r="0.7" /><circle cx="306.691137654" cy="327.740611208" fill="rgb(100%,0%,0%)" r="0.7" /><circle cx="307.46353923" cy="330.63941368" fill="rgb(100%,0%,0%)" r="0.7" /><circle cx="308.294048245" cy="333.522121253" fill="rgb(100%,0%,0%)" r="0.7" /><circle cx="309.174316768" cy="336.390037447" fill="rgb(100%,0%,0%)" r="0.7" /><circle cx="310.098058267" cy="339.244255486" fill="rgb(100%,0%,0%)" r="0.7" /><circle cx="311.060482555" cy="342.085667194" fill="rgb(100%,0%,0%)" r="0.7" /><circle cx="312.057948178" cy="344.914972113" fill="rgb(100%,0%,0%)" r="0.7" /><circle cx="313.087762917" cy="347.732667745" fill="rgb(100%,0%,0%)" r="0.7" /><circle cx="314.148117589" cy="350.539006718" fill="rgb(100%,0%,0%)" r="0.7" /><circle cx="315.238236508" cy="353.33393317" fill="rgb(100%,0%,0%)" r="0.7" /><circle cx="316.359035632" cy="356.11667128" fill="rgb(100%,0%,0%)" r="0.7" /><circle cx="317.514165357" cy="358.885341749" fill="rgb(100%,0%,0%)" r="0.7" /><circle cx="318.623693587" cy="361.672557295" fill="rgb(100%,0%,0%)" r="0.7" /><circle cx="319.66913426" cy="364.484428128" fill="rgb(100%,0%,0%)" r="0.7" /><circle cx="320.647715385" cy="367.320262766" fill="rgb(100%,0%,0%)" r="0.7" /><circle cx="321.55658097" cy="370.17920412" fill="rgb(100%,0%,0%)" r="0.7" /><circle cx="322.392801378" cy="373.060218167" fill="rgb(100%,0%,0%)" r="0.7" /><circle cx="323.153387795" cy="375.962094015" fill="rgb(100%,0%,0%)" r="0.7" /><circle cx="323.835314371" cy="378.883482979" fill="rgb(100%,0%,0%)" r="0.7" /><circle cx="324.435493351" cy="381.822732305" fill="rgb(100%,0%,0%)" r="0.7" /><circle cx="324.950827842" cy="384.778030494" fill="rgb(100%,0%,0%)" r="0.7" /><circle cx="325.378205899" cy="387.747313688" fill="rgb(100%,0%,0%)" r="0.7" /><circle cx="325.714518366" cy="390.728269141" fill="rgb(100%,0%,0%)" r="0.7" /><circle cx="325.956674138" cy="393.718364273" fill="rgb(100%,0%,0%)" r="0.7" /><circle cx="326.101599801" cy="396.714728527" fill="rgb(100%,0%,0%)" r="0.7" /><circle cx="326.146254945" cy="399.714251911" fill="rgb(100%,0%,0%)" r="0.7" /><circle cx="326.087623344" cy="402.713513629" fill="rgb(100%,0%,0%)" r="0.7" /><circle cx="325.922695038" cy="405.708819281" fill="rgb(100%,0%,0%)" r="0.7" /><circle cx="325.648432102" cy="408.696091727" fill="rgb(100%,0%,0%)" r="0.7" /><circle cx="325.261703806" cy="411.670871566" fill="rgb(100%,0%,0%)" r="0.7" /><circle cx="324.759164328" cy="414.628284924" fill="rgb(100%,0%,0%)" r="0.7" /><circle cx="324.137062028" cy="417.562852211" fill="rgb(100%,0%,0%)" r="0.7" /><circle cx="323.390877277" cy="420.468315209" fill="rgb(100%,0%,0%)" r="0.7" /><circle cx="322.514632475" cy="423.3372126" fill="rgb(100%,0%,0%)" r="0.7" /><circle cx="321.49940067" cy="426.15987282" fill="rgb(100%,0%,0%)" r="0.7" /><circle cx="320.329086099" cy="428.921673529" fill="rgb(100%,0%,0%)" r="0.7" /><circle cx="318.955" cy="431.587" fill="rgb(100%,0%,0%)" r="0.7" /><circle cx="319.974015725" cy="430.478324825" fill="rgb(100%,0%,0%)" r="0.7" /><circle cx="322.004143398" cy="428.269573678" fill="rgb(100%,0%,0%)" r="0.7" /><circle cx="324.03427107" cy="426.06082253" fill="rgb(100%,0%,0%)" r="0.7" /><circle cx="326.064398743" cy="423.852071382" fill="rgb(100%,0%,0%)" r="0.7" /><circle cx="328.094526416" cy="421.643320234" fill="rgb(100%,0%,0%)" r="0.7" /><circle cx="330.124654089" cy="419.434569087" fill="rgb(100%,0%,0%)" r="0.7" /><circle cx="331.891721223" cy="419.403197772" fill="rgb(100%,0%,0%)" r="0.7" /><circle cx="333.337413421" cy="422.031880725" fill="rgb(100%,0%,0%)" r="0.7" /><circle cx="334.783105619" cy="424.660563679" fill="rgb(100%,0%,0%)" r="0.7" /><circle cx="336.228797816" cy="427.289246632" fill="rgb(100%,0%,0%)" r="0.7" /><circle cx="337.674490014" cy="429.917929586" fill="rgb(100%,0%,0%)" r="0.7" /><circle cx="339.125629166" cy="432.254543623" fill="rgb(100%,0%,0%)" r="0.7" /><circle cx="324.21417319" cy="275.178940916" fill="rgb(0%,0%,100%)" r="0.7" /><circle cx="326.534178216" cy="277.012828276" fill="rgb(0%,0%,100%)" r="0.7" /><circle cx="328.038763804" cy="279.60094566" fill="rgb(0%,0%,100%)" r="0.7" /><circle cx="329.299052195" cy="282.323274783" fill="rgb(0%,0%,100%)" r="0.7" /><circle cx="330.489957332" cy="285.076683414" fill="rgb(0%,0%,100%)" r="0.7" /><circle cx="331.60047277" cy="287.863425872" fill="rgb(0%,0%,100%)" r="0.7" /><circle cx="332.594950576" cy="290.693448247" fill="rgb(0%,0%,100%)" r="0.7" /><circle cx="333.379903233" cy="293.587548267" fill="rgb(0%,0%,100%)" r="0.7" /><circle cx="333.498652388" cy="296.550312024" fill="rgb(0%,0%,100%)" r="0.7" /><circle cx="332.019059808" cy="299.160061048" fill="rgb(0%,0%,100%)" r="0.7" /><circle cx="330.519977351" cy="301.758657366" fill="rgb(0%,0%,100%)" r="0.7" /><circle cx="328.983639176" cy="304.335336436" fill="rgb(0%,0%,100%)" r="0.7" /><circle cx="327.476441655" cy="306.924722495" fill="rgb(0%,0%,100%)" r="0.7" /><circle cx="326.419870256" cy="309.729925508" fill="rgb(0%,0%,100%)" r="0.7" /><circle cx="325.727377992" cy="312.647104593" fill="rgb(0%,0%,100%)" r="0.7" /><circle cx="325.369972846" cy="315.624232118" fill="rgb(0%,0%,100%)" r="0.7" /><circle cx="325.328965606" cy="318.622642928" fill="rgb(0%,0%,100%)" r="0.7" /><circle cx="325.584517897" cy="321.61059575" fill="rgb(0%,0%,100%)" r="0.7" /><circle cx="326.11381777" cy="324.56253188" fill="rgb(0%,0%,100%)" r="0.7" /><circle cx="326.891825204" cy="327.459040215" fill="rgb(0%,0%,100%)" r="0.7" /><circle cx="327.902677472" cy="330.282408508" fill="rgb(0%,0%,100%)" r="0.7" /><circle cx="329.016569169" cy="333.0679442" fill="rgb(0%,0%,100%)" r="0.7" /><circle cx="330.099699673" cy="335.865578702" fill="rgb(0%,0%,100%)" r="0.7" /><circle cx="331.157055275" cy="338.673075226" fill="rgb(0%,0%,100%)" r="0.7" /><circle cx="332.189970339" cy="341.489621208" fill="rgb(0%,0%,100%)" r="0.7" /><circle cx="333.198679018" cy="344.314948069" fill="rgb(0%,0%,100%)" r="0.7" /><circle cx="334.18278057" cy="347.148936891" fill="rgb(0%,0%,100%)" r="0.7" /><circle cx="335.141455101" cy="349.991627139" fill="rgb(0%,0%,100%)" r="0.7" /><circle cx="336.073521845" cy="352.843155265" fill="rgb(0%,0%,100%)" r="0.7" /><circle cx="336.97745005" cy="355.70372398" fill="rgb(0%,0%,100%)" r="0.7" /><circle cx="337.851346124" cy="358.573604414" fill="rgb(0%,0%,100%)" r="0.7" /><circle cx="338.692911918" cy="361.453132142" fill="rgb(0%,0%,100%)" r="0.7" /><circle cx="339.499371964" cy="364.342683235" fill="rgb(0%,0%,100%)" r="0.7" /><circle cx="340.267382639" cy="367.242686486" fill="rgb(0%,0%,100%)" r="0.7" /><circle cx="340.992896142" cy="370.153607252" fill="rgb(0%,0%,100%)" r="0.7" /><circle cx="341.670975812" cy="373.075934108" fill="rgb(0%,0%,100%)" r="0.7" /><circle cx="342.295537586" cy="376.010151593" fill="rgb(0%,0%,100%)" r="0.7" /><circle cx="342.858985521" cy="378.956703292" fill="rgb(0%,0%,100%)" r="0.7" /><circle cx="343.351676955" cy="381.915889734" fill="rgb(0%,0%,100%)" r="0.7" /><circle cx="343.761131261" cy="384.88769661" fill="rgb(0%,0%,100%)" r="0.7" /><circle cx="344.070821674" cy="387.871505203" fill="rgb(0%,0%,100%)" r="0.7" /><circle cx="344.258247588" cy="390.865383586" fill="rgb(0%,0%,100%)" r="0.7" /><circle cx="344.29179758" cy="393.864773697" fill="rgb(0%,0%,100%)" r="0.7" /><circle cx="344.171655713" cy="396.86170848" fill="rgb(0%,0%,100%)" r="0.7" /><circle cx="344.13598953" cy="399.86149646" fill="rgb(0%,0%,100%)" r="0.7" /><circle cx="344.100323346" cy="402.861284439" fill="rgb(0%,0%,100%)" r="0.7" /><circle cx="344.064657163" cy="405.861072419" fill="rgb(0%,0%,100%)" r="0.7" /><circle cx="344.028990979" cy="408.860860399" fill="rgb(0%,0%,100%)" r="0.7" /><circle cx="343.885111733" cy="411.851271073" fill="rgb(0%,0%,100%)" r="0.7" /><circle cx="343.381296157" cy="414.808647773" fill="rgb(0%,0%,100%)" r="0.7" /><circle cx="342.846473711" cy="417.760579038" fill="rgb(0%,0%,100%)" r="0.7" /><circle cx="342.277381568" cy="420.706087715" fill="rgb(0%,0%,100%)" r="0.7" /><circle cx="341.66455757" cy="423.642792475" fill="rgb(0%,0%,100%)" r="0.7" /><circle cx="340.988774061" cy="426.565597964" fill="rgb(0%,0%,100%)" r="0.7" /><circle cx="340.204423588" cy="429.460898506" fill="rgb(0%,0%,100%)" r="0.7" /><circle cx="339.125629166" cy="432.254543623" fill="rgb(0%,0%,100%)" r="0.7" /></svg>