<?xml version="1.0" encoding="utf-8" ?>
<svg baseProfile="full" height="100%" version="1.1" width="100%" xmlns="http://www.w3.org/2000/svg" xmlns:ev="http://www.w3.org/2001/xml-events" xmlns:xlink="http://www.w3.org/1999/xlink"><defs /><circle cx="374.679460438" cy="337.579555102" fill="rgb(100%,0%,0%)" r="0.7" /><circle cx="373.061856975" cy="340.10608613" fill="rgb(100%,0%,0%)" r="0.7" /><circle cx="371.444253512" cy="342.632617159" fill="rgb(100%,0%,0%)" r="0.7" /><circle cx="369.826650049" cy="345.159148187" fill="rgb(100%,0%,0%)" r="0.7" /><circle cx="368.209046586" cy="347.685679215" fill="rgb(100%,0%,0%)" r="0.7" /><circle cx="366.591443123" cy="350.212210243" fill="rgb(100%,0%,0%)" r="0.7" /><circle cx="364.97383966" cy="352.738741271" fill="rgb(100%,0%,0%)" r="0.7" /><circle cx="363.356236197" cy="355.2652723" fill="rgb(100%,0%,0%)" r="0.7" /><circle cx="361.738632734" cy="357.791803328" fill="rgb(100%,0%,0%)" r="0.7" /><circle cx="360.121029271" cy="360.318334356" fill="rgb(100%,0%,0%)" r="0.7" /><circle cx="358.503425808" cy="362.844865384" fill="rgb(100%,0%,0%)" r="0.7" /><circle cx="356.885822345" cy="365.371396412" fill="rgb(100%,0%,0%)" r="0.7" /><circle cx="355.268218882" cy="367.89792744" fill="rgb(100%,0%,0%)" r="0.7" /><circle cx="353.650615419" cy="370.424458469" fill="rgb(100%,0%,0%)" r="0.7" /><circle cx="352.033011956" cy="372.950989497" fill="rgb(100%,0%,0%)" r="0.7" /><circle cx="350.415408493" cy="375.477520525" fill="rgb(100%,0%,0%)" r="0.7" /><circle cx="348.79780503" cy="378.004051553" fill="rgb(100%,0%,0%)" r="0.7" /><circle cx="347.180201567" cy="380.530582581" fill="rgb(100%,0%,0%)" r="0.7" /><circle cx="345.562598104" cy="383.05711361" fill="rgb(100%,0%,0%)" r="0.7" /><circle cx="343.944994641" cy="385.583644638" fill="rgb(100%,0%,0%)" r="0.7" /><circle cx="342.327391178" cy="388.110175666" fill="rgb(100%,0%,0%)" r="0.7" /><circle cx="340.709787714" cy="390.636706694" fill="rgb(100%,0%,0%)" r="0.7" /><circle cx="339.081664839" cy="393.156329142" fill="rgb(100%,0%,0%)" r="0.7" /><circle cx="337.407999241" cy="395.646073066" fill="rgb(100%,0%,0%)" r="0.7" /><circle cx="335.719021658" cy="398.125478257" fill="rgb(100%,0%,0%)" r="0.7" /><circle cx="334.022409453" cy="400.599632399" fill="rgb(100%,0%,0%)" r="0.7" /><circle cx="332.320956888" cy="403.070483255" fill="rgb(100%,0%,0%)" r="0.7" /><circle cx="330.61609182" cy="405.538973362" fill="rgb(100%,0%,0%)" r="0.7" /><circle cx="328.908634765" cy="408.005680107" fill="rgb(100%,0%,0%)" r="0.7" /><circle cx="327.19912836" cy="410.470957435" fill="rgb(100%,0%,0%)" r="0.7" /><circle cx="325.487937632" cy="412.935062186" fill="rgb(100%,0%,0%)" r="0.7" /><circle cx="323.775325881" cy="415.398180592" fill="rgb(100%,0%,0%)" r="0.7" /><circle cx="322.061489884" cy="417.860452587" fill="rgb(100%,0%,0%)" r="0.7" /><circle cx="320.346585327" cy="420.32197964" fill="rgb(100%,0%,0%)" r="0.7" /><circle cx="318.630731576" cy="422.782845621" fill="rgb(100%,0%,0%)" r="0.7" /><circle cx="316.914025266" cy="425.24311533" fill="rgb(100%,0%,0%)" r="0.7" /><circle cx="315.196541403" cy="427.702844989" fill="rgb(100%,0%,0%)" r="0.7" /><circle cx="313.47834365" cy="430.162075703" fill="rgb(100%,0%,0%)" r="0.7" /><circle cx="311.759484658" cy="432.620838505" fill="rgb(100%,0%,0%)" r="0.7" /><circle cx="310.039997077" cy="435.079170644" fill="rgb(100%,0%,0%)" r="0.7" /><circle cx="308.319917546" cy="437.537082811" fill="rgb(100%,0%,0%)" r="0.7" /><circle cx="306.599264452" cy="439.994590206" fill="rgb(100%,0%,0%)" r="0.7" /><circle cx="304.878049765" cy="442.451691032" fill="rgb(100%,0%,0%)" r="0.7" /><circle cx="303.156241597" cy="444.908406181" fill="rgb(100%,0%,0%)" r="0.7" /><circle cx="301.433805494" cy="447.364672532" fill="rgb(100%,0%,0%)" r="0.7" /><circle cx="299.627578808" cy="449.754199785" fill="rgb(100%,0%,0%)" r="0.7" /><circle cx="297.345540823" cy="451.694507359" fill="rgb(100%,0%,0%)" r="0.7" /><circle cx="294.777177105" cy="453.240297968" fill="rgb(100%,0%,0%)" r="0.7" /><circle cx="292.044742878" cy="454.475755254" fill="rgb(100%,0%,0%)" r="0.7" /><circle cx="289.215047887" cy="455.470040926" fill="rgb(100%,0%,0%)" r="0.7" /><circle cx="286.325192661" cy="456.273864595" fill="rgb(100%,0%,0%)" r="0.7" /><circle cx="283.396702554" cy="456.923680937" fill="rgb(100%,0%,0%)" r="0.7" /><circle cx="280.44270039" cy="457.445893611" fill="rgb(100%,0%,0%)" r="0.7" /><circle cx="277.471544601" cy="457.859884691" fill="rgb(100%,0%,0%)" r="0.7" /><circle cx="274.488780471" cy="458.180009057" fill="rgb(100%,0%,0%)" r="0.7" /><circle cx="271.498229523" cy="458.416850811" fill="rgb(100%,0%,0%)" r="0.7" /><circle cx="268.502628025" cy="458.577921832" fill="rgb(100%,0%,0%)" r="0.7" /><circle cx="265.504043887" cy="458.667791163" fill="rgb(100%,0%,0%)" r="0.7" /><circle cx="262.504175816" cy="458.687086898" fill="rgb(100%,0%,0%)" r="0.7" /><circle cx="259.505" cy="458.624" fill="rgb(100%,0%,0%)" r="0.7" /><circle cx="260.064963648" cy="459.055026743" fill="rgb(100%,0%,0%)" r="0.7" /><circle cx="262.442249786" cy="460.884920352" fill="rgb(100%,0%,0%)" r="0.7" /><circle cx="264.764226938" cy="462.72528984" fill="rgb(100%,0%,0%)" r="0.7" /><circle cx="263.220783575" cy="465.297794959" fill="rgb(100%,0%,0%)" r="0.7" /><circle cx="261.677340211" cy="467.870300077" fill="rgb(100%,0%,0%)" r="0.7" /><circle cx="260.133896848" cy="470.442805196" fill="rgb(100%,0%,0%)" r="0.7" /><circle cx="261.60931193" cy="471.318390667" fill="rgb(100%,0%,0%)" r="0.7" /><circle cx="264.609276358" cy="471.334781585" fill="rgb(100%,0%,0%)" r="0.7" /><circle cx="267.609241332" cy="471.348668662" fill="rgb(100%,0%,0%)" r="0.7" /><circle cx="270.609223949" cy="471.35970097" fill="rgb(100%,0%,0%)" r="0.7" /><circle cx="273.609216574" cy="471.367122654" fill="rgb(100%,0%,0%)" r="0.7" /><circle cx="276.609217705" cy="471.369497124" fill="rgb(100%,0%,0%)" r="0.7" /><circle cx="279.609212644" cy="471.363706618" fill="rgb(100%,0%,0%)" r="0.7" /><circle cx="282.60910941" cy="471.339849596" fill="rgb(100%,0%,0%)" r="0.7" /><circle cx="285.580257814" cy="471.039316862" fill="rgb(100%,0%,0%)" r="0.7" /><circle cx="287.4656959" cy="469.173348041" fill="rgb(100%,0%,0%)" r="0.7" /><circle cx="290.461766602" cy="469.326841845" fill="rgb(100%,0%,0%)" r="0.7" /><circle cx="293.042401292" cy="470.141275489" fill="rgb(100%,0%,0%)" r="0.7" /><circle cx="295.693351995" cy="471.392691725" fill="rgb(100%,0%,0%)" r="0.7" /><circle cx="298.687183165" cy="471.49746011" fill="rgb(100%,0%,0%)" r="0.7" /><circle cx="374.679460438" cy="337.579555102" fill="rgb(0%,0%,100%)" r="0.7" /><circle cx="375.400466228" cy="339.614310731" fill="rgb(0%,0%,100%)" r="0.7" /><circle cx="375.941402503" cy="342.56513908" fill="rgb(0%,0%,100%)" r="0.7" /><circle cx="377.531482159" cy="343.821978764" fill="rgb(0%,0%,100%)" r="0.7" /><circle cx="380.414262842" cy="342.991571914" fill="rgb(0%,0%,100%)" r="0.7" /><circle cx="383.297043524" cy="342.161165065" fill="rgb(0%,0%,100%)" r="0.7" /><circle cx="383.966515432" cy="343.082710714" fill="rgb(0%,0%,100%)" r="0.7" /><circle cx="382.48945334" cy="345.693904296" fill="rgb(0%,0%,100%)" r="0.7" /><circle cx="381.005504026" cy="348.301189445" fill="rgb(0%,0%,100%)" r="0.7" /><circle cx="379.51530139" cy="350.904896664" fill="rgb(0%,0%,100%)" r="0.7" /><circle cx="378.018936475" cy="353.505065009" fill="rgb(0%,0%,100%)" r="0.7" /><circle cx="376.516268294" cy="356.101601013" fill="rgb(0%,0%,100%)" r="0.7" /><circle cx="375.007006286" cy="358.694308926" fill="rgb(0%,0%,100%)" r="0.7" /><circle cx="373.49072318" cy="361.282912038" fill="rgb(0%,0%,100%)" r="0.7" /><circle cx="371.96684475" cy="363.867057487" fill="rgb(0%,0%,100%)" r="0.7" /><circle cx="370.434644689" cy="366.446274138" fill="rgb(0%,0%,100%)" r="0.7" /><circle cx="368.893192234" cy="369.019971594" fill="rgb(0%,0%,100%)" r="0.7" /><circle cx="367.341300078" cy="371.587386752" fill="rgb(0%,0%,100%)" r="0.7" /><circle cx="365.777429929" cy="374.14752372" fill="rgb(0%,0%,100%)" r="0.7" /><circle cx="364.199548144" cy="376.699048967" fill="rgb(0%,0%,100%)" r="0.7" /><circle cx="362.604887067" cy="379.240116915" fill="rgb(0%,0%,100%)" r="0.7" /><circle cx="360.989523275" cy="381.768065719" fill="rgb(0%,0%,100%)" r="0.7" /><circle cx="359.347575568" cy="384.27882886" fill="rgb(0%,0%,100%)" r="0.7" /><circle cx="357.669546223" cy="386.765582172" fill="rgb(0%,0%,100%)" r="0.7" /><circle cx="356.012610204" cy="389.265167589" fill="rgb(0%,0%,100%)" r="0.7" /><circle cx="354.432650092" cy="391.815407749" fill="rgb(0%,0%,100%)" r="0.7" /><circle cx="352.853362453" cy="394.366055332" fill="rgb(0%,0%,100%)" r="0.7" /><circle cx="351.274661379" cy="396.91707089" fill="rgb(0%,0%,100%)" r="0.7" /><circle cx="349.696523792" cy="399.468441175" fill="rgb(0%,0%,100%)" r="0.7" /><circle cx="348.118953047" cy="402.020159398" fill="rgb(0%,0%,100%)" r="0.7" /><circle cx="346.541953959" cy="404.572245298" fill="rgb(0%,0%,100%)" r="0.7" /><circle cx="344.96556538" cy="407.124685238" fill="rgb(0%,0%,100%)" r="0.7" /><circle cx="343.389801523" cy="409.677524819" fill="rgb(0%,0%,100%)" r="0.7" /><circle cx="341.814707215" cy="412.230779542" fill="rgb(0%,0%,100%)" r="0.7" /><circle cx="340.240336908" cy="414.784470561" fill="rgb(0%,0%,100%)" r="0.7" /><circle cx="338.666743221" cy="417.338646615" fill="rgb(0%,0%,100%)" r="0.7" /><circle cx="337.094002768" cy="419.893347232" fill="rgb(0%,0%,100%)" r="0.7" /><circle cx="335.522204909" cy="422.448628324" fill="rgb(0%,0%,100%)" r="0.7" /><circle cx="333.951461318" cy="425.004557263" fill="rgb(0%,0%,100%)" r="0.7" /><circle cx="332.381912294" cy="427.561218047" fill="rgb(0%,0%,100%)" r="0.7" /><circle cx="330.813733755" cy="430.118723014" fill="rgb(0%,0%,100%)" r="0.7" /><circle cx="329.247160681" cy="432.677210367" fill="rgb(0%,0%,100%)" r="0.7" /><circle cx="327.682504749" cy="435.236873256" fill="rgb(0%,0%,100%)" r="0.7" /><circle cx="326.120206604" cy="437.7979737" fill="rgb(0%,0%,100%)" r="0.7" /><circle cx="324.56091341" cy="440.360899676" fill="rgb(0%,0%,100%)" r="0.7" /><circle cx="323.005640912" cy="442.926277578" fill="rgb(0%,0%,100%)" r="0.7" /><circle cx="321.354441164" cy="445.430869415" fill="rgb(0%,0%,100%)" r="0.7" /><circle cx="319.69990968" cy="447.933373275" fill="rgb(0%,0%,100%)" r="0.7" /><circle cx="318.045378196" cy="450.435877135" fill="rgb(0%,0%,100%)" r="0.7" /><circle cx="316.390846713" cy="452.938380995" fill="rgb(0%,0%,100%)" r="0.7" /><circle cx="314.736315229" cy="455.440884855" fill="rgb(0%,0%,100%)" r="0.7" /><circle cx="313.081783745" cy="457.943388715" fill="rgb(0%,0%,100%)" r="0.7" /><circle cx="311.427252261" cy="460.445892575" fill="rgb(0%,0%,100%)" r="0.7" /><circle cx="309.772720777" cy="462.948396435" fill="rgb(0%,0%,100%)" r="0.7" /><circle cx="308.118189294" cy="465.450900295" fill="rgb(0%,0%,100%)" r="0.7" /><circle cx="306.46365781" cy="467.953404155" fill="rgb(0%,0%,100%)" r="0.7" /><circle cx="304.450232961" cy="470.107344566" fill="rgb(0%,0%,100%)" r="0.7" /><circle cx="301.664148499" cy="471.189435004" fill="rgb(0%,0%,100%)" r="0.7" /><circle cx="298.687183165" cy="471.49746011" fill="rgb(0%,0%,100%)" r="0.7" /></svg>