<?xml version="1.0" encoding="utf-8" ?>
<svg baseProfile="full" height="100%" version="1.1" width="100%" xmlns="http://www.w3.org/2000/svg" xmlns:ev="http://www.w3.org/2001/xml-events" xmlns:xlink="http://www.w3.org/1999/xlink"><defs /><circle cx="302.694357235" cy="288.175208324" fill="rgb(100%,0%,0%)" r="0.7" /><circle cx="299.893373819" cy="289.154178021" fill="rgb(100%,0%,0%)" r="0.7" /><circle cx="297.503742642" cy="290.957419931" fill="rgb(100%,0%,0%)" r="0.7" /><circle cx="295.575056499" cy="293.247048514" fill="rgb(100%,0%,0%)" r="0.7" /><circle cx="294.197435268" cy="295.905413912" fill="rgb(100%,0%,0%)" r="0.7" /><circle cx="293.391700548" cy="298.790370476" fill="rgb(100%,0%,0%)" r="0.7" /><circle cx="293.1047147" cy="301.773403222" fill="rgb(100%,0%,0%)" r="0.7" /><circle cx="293.24801435" cy="304.76792265" fill="rgb(100%,0%,0%)" r="0.7" /><circle cx="293.656114926" cy="307.73986112" fill="rgb(100%,0%,0%)" r="0.7" /><circle cx="294.013886664" cy="310.718395098" fill="rgb(100%,0%,0%)" r="0.7" /><circle cx="294.309235999" cy="313.703766861" fill="rgb(100%,0%,0%)" r="0.7" /><circle cx="294.534824598" cy="316.695192749" fill="rgb(100%,0%,0%)" r="0.7" /><circle cx="294.673777412" cy="319.691839191" fill="rgb(100%,0%,0%)" r="0.7" /><circle cx="294.695028358" cy="322.691490872" fill="rgb(100%,0%,0%)" r="0.7" /><circle cx="294.536757759" cy="325.686583288" fill="rgb(100%,0%,0%)" r="0.7" /><circle cx="294.046081409" cy="328.64286118" fill="rgb(100%,0%,0%)" r="0.7" /><circle cx="292.810918788" cy="331.362188062" fill="rgb(100%,0%,0%)" r="0.7" /><circle cx="291.260831596" cy="333.930174692" fill="rgb(100%,0%,0%)" r="0.7" /><circle cx="289.58483223" cy="336.41807448" fill="rgb(100%,0%,0%)" r="0.7" /><circle cx="287.811016657" cy="338.837273765" fill="rgb(100%,0%,0%)" r="0.7" /><circle cx="285.994917265" cy="341.223014892" fill="rgb(100%,0%,0%)" r="0.7" /><circle cx="284.452944652" cy="343.795968021" fill="rgb(100%,0%,0%)" r="0.7" /><circle cx="283.036148357" cy="346.440058489" fill="rgb(100%,0%,0%)" r="0.7" /><circle cx="281.737717666" cy="349.144240641" fill="rgb(100%,0%,0%)" r="0.7" /><circle cx="280.564530659" cy="351.905028945" fill="rgb(100%,0%,0%)" r="0.7" /><circle cx="279.529790233" cy="354.720570907" fill="rgb(100%,0%,0%)" r="0.7" /><circle cx="278.652150824" cy="357.588876149" fill="rgb(100%,0%,0%)" r="0.7" /><circle cx="277.956052518" cy="360.506422391" fill="rgb(100%,0%,0%)" r="0.7" /><circle cx="277.47238284" cy="363.466411901" fill="rgb(100%,0%,0%)" r="0.7" /><circle cx="277.703758271" cy="365.155610917" fill="rgb(100%,0%,0%)" r="0.7" /><circle cx="279.503669193" cy="362.755544111" fill="rgb(100%,0%,0%)" r="0.7" /><circle cx="281.303580114" cy="360.355477305" fill="rgb(100%,0%,0%)" r="0.7" /><circle cx="283.103491036" cy="357.955410499" fill="rgb(100%,0%,0%)" r="0.7" /><circle cx="284.903401958" cy="355.555343693" fill="rgb(100%,0%,0%)" r="0.7" /><circle cx="286.70331288" cy="353.155276887" fill="rgb(100%,0%,0%)" r="0.7" /><circle cx="287.822289288" cy="355.21160085" fill="rgb(100%,0%,0%)" r="0.7" /><circle cx="288.823345787" cy="358.039654224" fill="rgb(100%,0%,0%)" r="0.7" /><circle cx="289.824402287" cy="360.867707598" fill="rgb(100%,0%,0%)" r="0.7" /><circle cx="290.825458786" cy="363.695760972" fill="rgb(100%,0%,0%)" r="0.7" /><circle cx="291.826515285" cy="366.523814345" fill="rgb(100%,0%,0%)" r="0.7" /><circle cx="292.827571785" cy="369.351867719" fill="rgb(100%,0%,0%)" r="0.7" /><circle cx="293.828628284" cy="372.179921093" fill="rgb(100%,0%,0%)" r="0.7" /><circle cx="294.612" cy="374.393" fill="rgb(100%,0%,0%)" r="0.7" /><circle cx="302.694357235" cy="288.175208324" fill="rgb(0%,0%,100%)" r="0.7" /><circle cx="305.682891313" cy="288.247403857" fill="rgb(0%,0%,100%)" r="0.7" /><circle cx="308.494696913" cy="289.252087482" fill="rgb(0%,0%,100%)" r="0.7" /><circle cx="310.853919993" cy="291.088164917" fill="rgb(0%,0%,100%)" r="0.7" /><circle cx="312.691741386" cy="293.452462281" fill="rgb(0%,0%,100%)" r="0.7" /><circle cx="314.091461128" cy="296.102929905" fill="rgb(0%,0%,100%)" r="0.7" /><circle cx="315.153213931" cy="298.907275575" fill="rgb(0%,0%,100%)" r="0.7" /><circle cx="315.951291943" cy="301.798312332" fill="rgb(0%,0%,100%)" r="0.7" /><circle cx="316.532883893" cy="304.740807717" fill="rgb(0%,0%,100%)" r="0.7" /><circle cx="316.917462677" cy="307.715489964" fill="rgb(0%,0%,100%)" r="0.7" /><circle cx="317.274027027" cy="310.692656138" fill="rgb(0%,0%,100%)" r="0.7" /><circle cx="317.498011921" cy="313.683525776" fill="rgb(0%,0%,100%)" r="0.7" /><circle cx="317.488302145" cy="316.682746318" fill="rgb(0%,0%,100%)" r="0.7" /><circle cx="317.244859882" cy="319.672092704" fill="rgb(0%,0%,100%)" r="0.7" /><circle cx="316.771175697" cy="322.633715448" fill="rgb(0%,0%,100%)" r="0.7" /><circle cx="316.073324761" cy="325.550686094" fill="rgb(0%,0%,100%)" r="0.7" /><circle cx="315.158558535" cy="328.407084212" fill="rgb(0%,0%,100%)" r="0.7" /><circle cx="314.03326477" cy="331.187281833" fill="rgb(0%,0%,100%)" r="0.7" /><circle cx="312.699194855" cy="333.873480747" fill="rgb(0%,0%,100%)" r="0.7" /><circle cx="311.139738492" cy="336.434904793" fill="rgb(0%,0%,100%)" r="0.7" /><circle cx="309.407273427" cy="338.88398323" fill="rgb(0%,0%,100%)" r="0.7" /><circle cx="307.722787034" cy="341.36636065" fill="rgb(0%,0%,100%)" r="0.7" /><circle cx="306.092342888" cy="343.884547242" fill="rgb(0%,0%,100%)" r="0.7" /><circle cx="304.521235441" cy="346.440164878" fill="rgb(0%,0%,100%)" r="0.7" /><circle cx="303.015652464" cy="349.034905397" fill="rgb(0%,0%,100%)" r="0.7" /><circle cx="301.58289628" cy="351.670532995" fill="rgb(0%,0%,100%)" r="0.7" /><circle cx="300.231697617" cy="354.348875753" fill="rgb(0%,0%,100%)" r="0.7" /><circle cx="298.972702604" cy="357.07173622" fill="rgb(0%,0%,100%)" r="0.7" /><circle cx="297.819149168" cy="359.840862493" fill="rgb(0%,0%,100%)" r="0.7" /><circle cx="296.788015883" cy="362.657788595" fill="rgb(0%,0%,100%)" r="0.7" /><circle cx="295.902048726" cy="365.523581038" fill="rgb(0%,0%,100%)" r="0.7" /><circle cx="295.193975614" cy="368.438213721" fill="rgb(0%,0%,100%)" r="0.7" /><circle cx="294.717709533" cy="371.399110512" fill="rgb(0%,0%,100%)" r="0.7" /><circle cx="294.612" cy="374.393" fill="rgb(0%,0%,100%)" r="0.7" /></svg>