<?xml version="1.0" encoding="utf-8" ?>
<svg baseProfile="full" height="100%" version="1.1" width="100%" xmlns="http://www.w3.org/2000/svg" xmlns:ev="http://www.w3.org/2001/xml-events" xmlns:xlink="http://www.w3.org/1999/xlink"><defs /><circle cx="322.595932566" cy="334.538330974" fill="rgb(100%,0%,0%)" r="0.7" /><circle cx="319.613109574" cy="334.835949758" fill="rgb(100%,0%,0%)" r="0.7" /><circle cx="316.696008644" cy="335.527403733" fill="rgb(100%,0%,0%)" r="0.7" /><circle cx="313.88559143" cy="336.572020566" fill="rgb(100%,0%,0%)" r="0.7" /><circle cx="311.208177768" cy="337.922278128" fill="rgb(100%,0%,0%)" r="0.7" /><circle cx="308.676632835" cy="339.530024098" fill="rgb(100%,0%,0%)" r="0.7" /><circle cx="306.293559305" cy="341.351023646" fill="rgb(100%,0%,0%)" r="0.7" /><circle cx="304.057711129" cy="343.350224936" fill="rgb(100%,0%,0%)" r="0.7" /><circle cx="301.973589126" cy="345.507242154" fill="rgb(100%,0%,0%)" r="0.7" /><circle cx="300.039629201" cy="347.799983788" fill="rgb(100%,0%,0%)" r="0.7" /><circle cx="298.251354776" cy="350.208185042" fill="rgb(100%,0%,0%)" r="0.7" /><circle cx="296.602766985" cy="352.714167047" fill="rgb(100%,0%,0%)" r="0.7" /><circle cx="295.087219126" cy="355.302839337" fill="rgb(100%,0%,0%)" r="0.7" /><circle cx="293.69806389" cy="357.961532041" fill="rgb(100%,0%,0%)" r="0.7" /><circle cx="292.429160788" cy="360.679711037" fill="rgb(100%,0%,0%)" r="0.7" /><circle cx="291.275287851" cy="363.448707206" fill="rgb(100%,0%,0%)" r="0.7" /><circle cx="290.232595832" cy="366.261473512" fill="rgb(100%,0%,0%)" r="0.7" /><circle cx="289.299322275" cy="369.112415692" fill="rgb(100%,0%,0%)" r="0.7" /><circle cx="288.477373258" cy="371.997418055" fill="rgb(100%,0%,0%)" r="0.7" /><circle cx="287.777597684" cy="374.914388591" fill="rgb(100%,0%,0%)" r="0.7" /><circle cx="287.278590623" cy="377.870602222" fill="rgb(100%,0%,0%)" r="0.7" /><circle cx="287.084155504" cy="380.86405531" fill="rgb(100%,0%,0%)" r="0.7" /><circle cx="286.996875178" cy="383.862679094" fill="rgb(100%,0%,0%)" r="0.7" /><circle cx="286.996277751" cy="386.862575718" fill="rgb(100%,0%,0%)" r="0.7" /><circle cx="287.075625668" cy="389.861449324" fill="rgb(100%,0%,0%)" r="0.7" /><circle cx="287.232052946" cy="392.857285088" fill="rgb(100%,0%,0%)" r="0.7" /><circle cx="287.464510149" cy="395.848181546" fill="rgb(100%,0%,0%)" r="0.7" /><circle cx="287.772996899" cy="398.832200006" fill="rgb(100%,0%,0%)" r="0.7" /><circle cx="288.158193917" cy="401.807280999" fill="rgb(100%,0%,0%)" r="0.7" /><circle cx="288.621265549" cy="404.771244365" fill="rgb(100%,0%,0%)" r="0.7" /><circle cx="289.163725373" cy="407.721697862" fill="rgb(100%,0%,0%)" r="0.7" /><circle cx="289.787354969" cy="410.656059149" fill="rgb(100%,0%,0%)" r="0.7" /><circle cx="290.494132624" cy="413.571509732" fill="rgb(100%,0%,0%)" r="0.7" /><circle cx="291.286168445" cy="416.464954003" fill="rgb(100%,0%,0%)" r="0.7" /><circle cx="292.16565073" cy="419.333017825" fill="rgb(100%,0%,0%)" r="0.7" /><circle cx="293.134789274" cy="422.172035276" fill="rgb(100%,0%,0%)" r="0.7" /><circle cx="294.195746159" cy="424.978016323" fill="rgb(100%,0%,0%)" r="0.7" /><circle cx="322.595932566" cy="334.538330974" fill="rgb(0%,0%,100%)" r="0.7" /><circle cx="325.590694163" cy="334.663573357" fill="rgb(0%,0%,100%)" r="0.7" /><circle cx="328.533245777" cy="335.232333537" fill="rgb(0%,0%,100%)" r="0.7" /><circle cx="331.317680678" cy="336.32167593" fill="rgb(0%,0%,100%)" r="0.7" /><circle cx="333.259024351" cy="338.581104238" fill="rgb(0%,0%,100%)" r="0.7" /><circle cx="334.047163711" cy="341.450885126" fill="rgb(0%,0%,100%)" r="0.7" /><circle cx="333.759850752" cy="344.426937376" fill="rgb(0%,0%,100%)" r="0.7" /><circle cx="332.836050915" cy="347.277795749" fill="rgb(0%,0%,100%)" r="0.7" /><circle cx="331.570032127" cy="349.996441942" fill="rgb(0%,0%,100%)" r="0.7" /><circle cx="330.122991302" cy="352.624071582" fill="rgb(0%,0%,100%)" r="0.7" /><circle cx="328.606411815" cy="355.21249527" fill="rgb(0%,0%,100%)" r="0.7" /><circle cx="327.137818022" cy="357.828098315" fill="rgb(0%,0%,100%)" r="0.7" /><circle cx="325.119469272" cy="360.012702357" fill="rgb(0%,0%,100%)" r="0.7" /><circle cx="322.259875046" cy="360.714331141" fill="rgb(0%,0%,100%)" r="0.7" /><circle cx="319.487794916" cy="359.669018992" fill="rgb(0%,0%,100%)" r="0.7" /><circle cx="316.642739497" cy="358.983655749" fill="rgb(0%,0%,100%)" r="0.7" /><circle cx="314.062333858" cy="360.447655524" fill="rgb(0%,0%,100%)" r="0.7" /><circle cx="312.113619337" cy="362.718575042" fill="rgb(0%,0%,100%)" r="0.7" /><circle cx="310.528782207" cy="365.26454115" fill="rgb(0%,0%,100%)" r="0.7" /><circle cx="309.117977018" cy="367.91178696" fill="rgb(0%,0%,100%)" r="0.7" /><circle cx="307.802556979" cy="370.607935321" fill="rgb(0%,0%,100%)" r="0.7" /><circle cx="306.511662245" cy="373.315957488" fill="rgb(0%,0%,100%)" r="0.7" /><circle cx="305.770912262" cy="376.185891171" fill="rgb(0%,0%,100%)" r="0.7" /><circle cx="305.654248669" cy="379.183156444" fill="rgb(0%,0%,100%)" r="0.7" /><circle cx="305.655875942" cy="382.183077228" fill="rgb(0%,0%,100%)" r="0.7" /><circle cx="305.715999522" cy="385.1824501" fill="rgb(0%,0%,100%)" r="0.7" /><circle cx="305.813602279" cy="388.180849925" fill="rgb(0%,0%,100%)" r="0.7" /><circle cx="305.938630508" cy="391.178236746" fill="rgb(0%,0%,100%)" r="0.7" /><circle cx="306.085709982" cy="394.174626353" fill="rgb(0%,0%,100%)" r="0.7" /><circle cx="306.252196088" cy="397.16999751" fill="rgb(0%,0%,100%)" r="0.7" /><circle cx="306.43809868" cy="400.164232309" fill="rgb(0%,0%,100%)" r="0.7" /><circle cx="306.651244564" cy="403.156630549" fill="rgb(0%,0%,100%)" r="0.7" /><circle cx="307.30537699" cy="406.071474735" fill="rgb(0%,0%,100%)" r="0.7" /><circle cx="308.387095614" cy="408.869249657" fill="rgb(0%,0%,100%)" r="0.7" /><circle cx="309.573643424" cy="411.624540368" fill="rgb(0%,0%,100%)" r="0.7" /><circle cx="310.816174164" cy="414.355094984" fill="rgb(0%,0%,100%)" r="0.7" /><circle cx="312.101" cy="417.066" fill="rgb(0%,0%,100%)" r="0.7" /><circle cx="309.369183745" cy="416.334195593" fill="rgb(0%,0%,100%)" r="0.7" /><circle cx="306.471357595" cy="415.557920122" fill="rgb(0%,0%,100%)" r="0.7" /><circle cx="303.573531446" cy="414.781644652" fill="rgb(0%,0%,100%)" r="0.7" /><circle cx="300.675705296" cy="414.005369181" fill="rgb(0%,0%,100%)" r="0.7" /><circle cx="297.777879146" cy="413.229093711" fill="rgb(0%,0%,100%)" r="0.7" /><circle cx="296.608419483" cy="415.198370583" fill="rgb(0%,0%,100%)" r="0.7" /><circle cx="296.055457505" cy="418.146969072" fill="rgb(0%,0%,100%)" r="0.7" /><circle cx="295.502495527" cy="421.095567561" fill="rgb(0%,0%,100%)" r="0.7" /><circle cx="294.949533549" cy="424.044166051" fill="rgb(0%,0%,100%)" r="0.7" /><circle cx="294.195746159" cy="424.978016323" fill="rgb(0%,0%,100%)" r="0.7" /></svg>