<?xml version="1.0" encoding="utf-8" ?>
<svg baseProfile="full" height="100%" version="1.1" width="100%" xmlns="http://www.w3.org/2000/svg" xmlns:ev="http://www.w3.org/2001/xml-events" xmlns:xlink="http://www.w3.org/1999/xlink"><defs /><circle cx="268.623820353" cy="299.39704806" fill="rgb(100%,0%,0%)" r="0.7" /><circle cx="265.985643129" cy="300.775046729" fill="rgb(100%,0%,0%)" r="0.7" /><circle cx="264.233815452" cy="303.143140516" fill="rgb(100%,0%,0%)" r="0.7" /><circle cx="263.936862852" cy="306.109287102" fill="rgb(100%,0%,0%)" r="0.7" /><circle cx="264.476107431" cy="309.055499589" fill="rgb(100%,0%,0%)" r="0.7" /><circle cx="265.465978788" cy="311.885434216" fill="rgb(100%,0%,0%)" r="0.7" /><circle cx="266.664935401" cy="314.632215581" fill="rgb(100%,0%,0%)" r="0.7" /><circle cx="267.654602746" cy="317.464222648" fill="rgb(100%,0%,0%)" r="0.7" /><circle cx="268.602643286" cy="320.310473419" fill="rgb(100%,0%,0%)" r="0.7" /><circle cx="269.525852668" cy="323.164883275" fill="rgb(100%,0%,0%)" r="0.7" /><circle cx="270.431557974" cy="326.024896354" fill="rgb(100%,0%,0%)" r="0.7" /><circle cx="271.323436066" cy="328.889256448" fill="rgb(100%,0%,0%)" r="0.7" /><circle cx="272.202813026" cy="331.757472343" fill="rgb(100%,0%,0%)" r="0.7" /><circle cx="273.26991621" cy="334.557866382" fill="rgb(100%,0%,0%)" r="0.7" /><circle cx="274.434006105" cy="337.322806423" fill="rgb(100%,0%,0%)" r="0.7" /><circle cx="275.601090124" cy="340.086487193" fill="rgb(100%,0%,0%)" r="0.7" /><circle cx="276.767471265" cy="342.850467478" fill="rgb(100%,0%,0%)" r="0.7" /><circle cx="277.93135052" cy="345.615500877" fill="rgb(100%,0%,0%)" r="0.7" /><circle cx="279.091465394" cy="348.382107149" fill="rgb(100%,0%,0%)" r="0.7" /><circle cx="280.246696118" cy="351.150762447" fill="rgb(100%,0%,0%)" r="0.7" /><circle cx="281.395858014" cy="353.921941668" fill="rgb(100%,0%,0%)" r="0.7" /><circle cx="282.537564423" cy="356.696199624" fill="rgb(100%,0%,0%)" r="0.7" /><circle cx="283.670054851" cy="359.474229323" fill="rgb(100%,0%,0%)" r="0.7" /><circle cx="284.790941981" cy="362.256961637" fill="rgb(100%,0%,0%)" r="0.7" /><circle cx="285.896753323" cy="365.045717467" fill="rgb(100%,0%,0%)" r="0.7" /><circle cx="286.982007644" cy="367.84253942" fill="rgb(100%,0%,0%)" r="0.7" /><circle cx="288.03696921" cy="370.65090675" fill="rgb(100%,0%,0%)" r="0.7" /><circle cx="289.040717243" cy="373.477920226" fill="rgb(100%,0%,0%)" r="0.7" /><circle cx="289.924728081" cy="376.344066399" fill="rgb(100%,0%,0%)" r="0.7" /><circle cx="290.617033851" cy="379.262831608" fill="rgb(100%,0%,0%)" r="0.7" /><circle cx="291.405019806" cy="382.15741674" fill="rgb(100%,0%,0%)" r="0.7" /><circle cx="292.241878232" cy="385.038317574" fill="rgb(100%,0%,0%)" r="0.7" /><circle cx="293.09871528" cy="387.913351602" fill="rgb(100%,0%,0%)" r="0.7" /><circle cx="293.959564709" cy="390.787188249" fill="rgb(100%,0%,0%)" r="0.7" /><circle cx="294.814171423" cy="393.662885736" fill="rgb(100%,0%,0%)" r="0.7" /><circle cx="295.655175617" cy="396.542589155" fill="rgb(100%,0%,0%)" r="0.7" /><circle cx="296.476804618" cy="399.427877982" fill="rgb(100%,0%,0%)" r="0.7" /><circle cx="297.274186289" cy="402.319955036" fill="rgb(100%,0%,0%)" r="0.7" /><circle cx="298.042955458" cy="405.219768171" fill="rgb(100%,0%,0%)" r="0.7" /><circle cx="298.77899852" cy="408.12805488" fill="rgb(100%,0%,0%)" r="0.7" /><circle cx="299.484971664" cy="411.043810975" fill="rgb(100%,0%,0%)" r="0.7" /><circle cx="300.211330105" cy="413.954529065" fill="rgb(100%,0%,0%)" r="0.7" /><circle cx="300.980002311" cy="416.854342319" fill="rgb(100%,0%,0%)" r="0.7" /><circle cx="301.813300307" cy="419.736175079" fill="rgb(100%,0%,0%)" r="0.7" /><circle cx="302.771097655" cy="422.578590937" fill="rgb(100%,0%,0%)" r="0.7" /><circle cx="304.134495979" cy="425.236989579" fill="rgb(100%,0%,0%)" r="0.7" /><circle cx="305.299165848" cy="427.999426936" fill="rgb(100%,0%,0%)" r="0.7" /><circle cx="306.131557923" cy="430.880131852" fill="rgb(100%,0%,0%)" r="0.7" /><circle cx="306.670006377" cy="433.830254029" fill="rgb(100%,0%,0%)" r="0.7" /><circle cx="306.912862885" cy="436.818797124" fill="rgb(100%,0%,0%)" r="0.7" /><circle cx="306.82352659" cy="439.816302849" fill="rgb(100%,0%,0%)" r="0.7" /><circle cx="307.097168335" cy="442.800826611" fill="rgb(100%,0%,0%)" r="0.7" /><circle cx="308.053301486" cy="445.625206009" fill="rgb(100%,0%,0%)" r="0.7" /><circle cx="309.038559935" cy="448.45846816" fill="rgb(100%,0%,0%)" r="0.7" /><circle cx="309.835521347" cy="451.349700269" fill="rgb(100%,0%,0%)" r="0.7" /><circle cx="310.177654188" cy="454.31948348" fill="rgb(100%,0%,0%)" r="0.7" /><circle cx="309.488482534" cy="457.237766545" fill="rgb(100%,0%,0%)" r="0.7" /><circle cx="309.168331937" cy="460.216796985" fill="rgb(100%,0%,0%)" r="0.7" /><circle cx="309.668542047" cy="463.156038142" fill="rgb(100%,0%,0%)" r="0.7" /><circle cx="310.229299457" cy="466.102558011" fill="rgb(100%,0%,0%)" r="0.7" /><circle cx="310.617035662" cy="469.077088523" fill="rgb(100%,0%,0%)" r="0.7" /><circle cx="310.875875652" cy="472.065722312" fill="rgb(100%,0%,0%)" r="0.7" /><circle cx="311.032961134" cy="475.061489312" fill="rgb(100%,0%,0%)" r="0.7" /><circle cx="311.105689752" cy="478.060525914" fill="rgb(100%,0%,0%)" r="0.7" /><circle cx="311.105010117" cy="481.060459491" fill="rgb(100%,0%,0%)" r="0.7" /><circle cx="311.036259344" cy="484.059607325" fill="rgb(100%,0%,0%)" r="0.7" /><circle cx="310.892" cy="487.056" fill="rgb(100%,0%,0%)" r="0.7" /><circle cx="268.623820353" cy="299.39704806" fill="rgb(0%,0%,100%)" r="0.7" /><circle cx="271.591652013" cy="299.424253384" fill="rgb(0%,0%,100%)" r="0.7" /><circle cx="274.27474338" cy="300.728787159" fill="rgb(0%,0%,100%)" r="0.7" /><circle cx="276.490873996" cy="302.742192294" fill="rgb(0%,0%,100%)" r="0.7" /><circle cx="278.334058072" cy="305.106344087" fill="rgb(0%,0%,100%)" r="0.7" /><circle cx="279.93469297" cy="307.643323353" fill="rgb(0%,0%,100%)" r="0.7" /><circle cx="281.521220976" cy="310.189481711" fill="rgb(0%,0%,100%)" r="0.7" /><circle cx="283.112527307" cy="312.732656688" fill="rgb(0%,0%,100%)" r="0.7" /><circle cx="284.709658125" cy="315.272180494" fill="rgb(0%,0%,100%)" r="0.7" /><circle cx="286.314822614" cy="317.806631135" fill="rgb(0%,0%,100%)" r="0.7" /><circle cx="287.932958981" cy="320.332817843" fill="rgb(0%,0%,100%)" r="0.7" /><circle cx="289.580207358" cy="322.840061944" fill="rgb(0%,0%,100%)" r="0.7" /><circle cx="291.215589309" cy="325.35257706" fill="rgb(0%,0%,100%)" r="0.7" /><circle cx="292.664711714" cy="327.979289038" fill="rgb(0%,0%,100%)" r="0.7" /><circle cx="294.069880661" cy="330.62982939" fill="rgb(0%,0%,100%)" r="0.7" /><circle cx="295.450896875" cy="333.293062307" fill="rgb(0%,0%,100%)" r="0.7" /><circle cx="296.813866419" cy="335.965567864" fill="rgb(0%,0%,100%)" r="0.7" /><circle cx="298.161289045" cy="338.645941578" fill="rgb(0%,0%,100%)" r="0.7" /><circle cx="299.494095869" cy="341.33361886" fill="rgb(0%,0%,100%)" r="0.7" /><circle cx="300.812281996" cy="344.028499987" fill="rgb(0%,0%,100%)" r="0.7" /><circle cx="302.115112989" cy="346.730833396" fill="rgb(0%,0%,100%)" r="0.7" /><circle cx="303.401127158" cy="349.441210341" fill="rgb(0%,0%,100%)" r="0.7" /><circle cx="304.667957094" cy="352.160602677" fill="rgb(0%,0%,100%)" r="0.7" /><circle cx="305.911944089" cy="354.890522783" fill="rgb(0%,0%,100%)" r="0.7" /><circle cx="307.127309939" cy="357.633287296" fill="rgb(0%,0%,100%)" r="0.7" /><circle cx="308.304388823" cy="360.392696028" fill="rgb(0%,0%,100%)" r="0.7" /><circle cx="309.424992274" cy="363.175460476" fill="rgb(0%,0%,100%)" r="0.7" /><circle cx="310.446746112" cy="365.995773581" fill="rgb(0%,0%,100%)" r="0.7" /><circle cx="311.389824319" cy="368.843329575" fill="rgb(0%,0%,100%)" r="0.7" /><circle cx="312.34702044" cy="371.686524823" fill="rgb(0%,0%,100%)" r="0.7" /><circle cx="313.289143094" cy="374.534758519" fill="rgb(0%,0%,100%)" r="0.7" /><circle cx="314.216400901" cy="377.387854346" fill="rgb(0%,0%,100%)" r="0.7" /><circle cx="315.127875028" cy="380.246036421" fill="rgb(0%,0%,100%)" r="0.7" /><circle cx="316.021863228" cy="383.109732481" fill="rgb(0%,0%,100%)" r="0.7" /><circle cx="316.895828006" cy="385.979602416" fill="rgb(0%,0%,100%)" r="0.7" /><circle cx="317.74610567" cy="388.856574523" fill="rgb(0%,0%,100%)" r="0.7" /><circle cx="318.567328509" cy="391.74197096" fill="rgb(0%,0%,100%)" r="0.7" /><circle cx="319.351264228" cy="394.637708259" fill="rgb(0%,0%,100%)" r="0.7" /><circle cx="320.084300756" cy="397.546718586" fill="rgb(0%,0%,100%)" r="0.7" /><circle cx="320.740992765" cy="400.473823359" fill="rgb(0%,0%,100%)" r="0.7" /><circle cx="321.339541493" cy="403.413297048" fill="rgb(0%,0%,100%)" r="0.7" /><circle cx="321.964637434" cy="406.347453383" fill="rgb(0%,0%,100%)" r="0.7" /><circle cx="322.589189706" cy="409.281728137" fill="rgb(0%,0%,100%)" r="0.7" /><circle cx="323.213237644" cy="412.216105466" fill="rgb(0%,0%,100%)" r="0.7" /><circle cx="323.836784115" cy="415.150603893" fill="rgb(0%,0%,100%)" r="0.7" /><circle cx="324.459800626" cy="418.085190648" fill="rgb(0%,0%,100%)" r="0.7" /><circle cx="325.082259568" cy="421.019909219" fill="rgb(0%,0%,100%)" r="0.7" /><circle cx="325.70410787" cy="423.954753612" fill="rgb(0%,0%,100%)" r="0.7" /><circle cx="326.325280598" cy="426.889742524" fill="rgb(0%,0%,100%)" r="0.7" /><circle cx="326.945690819" cy="429.824892518" fill="rgb(0%,0%,100%)" r="0.7" /><circle cx="327.565224108" cy="432.760227324" fill="rgb(0%,0%,100%)" r="0.7" /><circle cx="328.183726608" cy="435.695779538" fill="rgb(0%,0%,100%)" r="0.7" /><circle cx="328.800984651" cy="438.631592971" fill="rgb(0%,0%,100%)" r="0.7" /><circle cx="329.416689737" cy="441.567735184" fill="rgb(0%,0%,100%)" r="0.7" /><circle cx="330.030365468" cy="444.504302944" fill="rgb(0%,0%,100%)" r="0.7" /><circle cx="330.641208066" cy="447.441453714" fill="rgb(0%,0%,100%)" r="0.7" /><circle cx="331.247654526" cy="450.379505949" fill="rgb(0%,0%,100%)" r="0.7" /><circle cx="331.845694533" cy="453.319317543" fill="rgb(0%,0%,100%)" r="0.7" /><circle cx="332.382112647" cy="456.268789205" fill="rgb(0%,0%,100%)" r="0.7" /><circle cx="332.516140534" cy="459.26579135" fill="rgb(0%,0%,100%)" r="0.7" /><circle cx="332.651034992" cy="462.262761378" fill="rgb(0%,0%,100%)" r="0.7" /><circle cx="332.786769171" cy="465.259688344" fill="rgb(0%,0%,100%)" r="0.7" /><circle cx="332.923450051" cy="468.25657708" fill="rgb(0%,0%,100%)" r="0.7" /><circle cx="333.061279758" cy="471.253410684" fill="rgb(0%,0%,100%)" r="0.7" /><circle cx="333.200605815" cy="474.250175679" fill="rgb(0%,0%,100%)" r="0.7" /><circle cx="333.342064278" cy="477.246839557" fill="rgb(0%,0%,100%)" r="0.7" /><circle cx="333.487038802" cy="480.243340874" fill="rgb(0%,0%,100%)" r="0.7" /><circle cx="333.64009103" cy="483.239435563" fill="rgb(0%,0%,100%)" r="0.7" /><circle cx="332.79856462" cy="483.94856462" fill="rgb(0%,0%,100%)" r="0.7" /><circle cx="330.677244277" cy="481.827244277" fill="rgb(0%,0%,100%)" r="0.7" /><circle cx="328.555923933" cy="479.705923933" fill="rgb(0%,0%,100%)" r="0.7" /><circle cx="326.43460359" cy="477.58460359" fill="rgb(0%,0%,100%)" r="0.7" /><circle cx="324.313283246" cy="475.463283246" fill="rgb(0%,0%,100%)" r="0.7" /><circle cx="322.191962903" cy="473.341962903" fill="rgb(0%,0%,100%)" r="0.7" /><circle cx="320.070642559" cy="471.220642559" fill="rgb(0%,0%,100%)" r="0.7" /><circle cx="318.458278163" cy="472.356056755" fill="rgb(0%,0%,100%)" r="0.7" /><circle cx="317.085329089" cy="475.023454521" fill="rgb(0%,0%,100%)" r="0.7" /><circle cx="315.712380015" cy="477.690852286" fill="rgb(0%,0%,100%)" r="0.7" /><circle cx="314.339430941" cy="480.358250052" fill="rgb(0%,0%,100%)" r="0.7" /><circle cx="312.966481867" cy="483.025647818" fill="rgb(0%,0%,100%)" r="0.7" /><circle cx="311.593532793" cy="485.693045583" fill="rgb(0%,0%,100%)" r="0.7" /><circle cx="310.892" cy="487.056" fill="rgb(0%,0%,100%)" r="0.7" /></svg>