<?xml version="1.0" encoding="utf-8" ?>
<svg baseProfile="full" height="100%" version="1.1" width="100%" xmlns="http://www.w3.org/2000/svg" xmlns:ev="http://www.w3.org/2001/xml-events" xmlns:xlink="http://www.w3.org/1999/xlink"><defs /><circle cx="309.075117437" cy="247.173734546" fill="rgb(100%,0%,0%)" r="0.7" /><circle cx="307.105576547" cy="249.346413214" fill="rgb(100%,0%,0%)" r="0.7" /><circle cx="305.899366964" cy="252.091642741" fill="rgb(100%,0%,0%)" r="0.7" /><circle cx="304.968588844" cy="254.942684364" fill="rgb(100%,0%,0%)" r="0.7" /><circle cx="304.238184779" cy="257.851964015" fill="rgb(100%,0%,0%)" r="0.7" /><circle cx="303.662732126" cy="260.795965598" fill="rgb(100%,0%,0%)" r="0.7" /><circle cx="303.21689639" cy="263.762438536" fill="rgb(100%,0%,0%)" r="0.7" /><circle cx="302.883518165" cy="266.743714384" fill="rgb(100%,0%,0%)" r="0.7" /><circle cx="302.649849686" cy="269.734466947" fill="rgb(100%,0%,0%)" r="0.7" /><circle cx="302.505871651" cy="272.730905229" fill="rgb(100%,0%,0%)" r="0.7" /><circle cx="302.443426607" cy="275.730170824" fill="rgb(100%,0%,0%)" r="0.7" /><circle cx="302.455697786" cy="278.730089565" fill="rgb(100%,0%,0%)" r="0.7" /><circle cx="302.536877694" cy="281.728909086" fill="rgb(100%,0%,0%)" r="0.7" /><circle cx="302.681948345" cy="284.725349802" fill="rgb(100%,0%,0%)" r="0.7" /><circle cx="302.886519252" cy="287.718321573" fill="rgb(100%,0%,0%)" r="0.7" /><circle cx="303.14671502" cy="290.706988438" fill="rgb(100%,0%,0%)" r="0.7" /><circle cx="303.459083264" cy="293.690650564" fill="rgb(100%,0%,0%)" r="0.7" /><circle cx="303.820530115" cy="296.668756708" fill="rgb(100%,0%,0%)" r="0.7" /><circle cx="304.228268037" cy="299.640878356" fill="rgb(100%,0%,0%)" r="0.7" /><circle cx="304.679772342" cy="302.606679047" fill="rgb(100%,0%,0%)" r="0.7" /><circle cx="305.17274302" cy="305.565878576" fill="rgb(100%,0%,0%)" r="0.7" /><circle cx="305.705077528" cy="308.518254929" fill="rgb(100%,0%,0%)" r="0.7" /><circle cx="306.27484398" cy="311.463620321" fill="rgb(100%,0%,0%)" r="0.7" /><circle cx="306.880277109" cy="314.401893295" fill="rgb(100%,0%,0%)" r="0.7" /><circle cx="307.519727851" cy="317.332925719" fill="rgb(100%,0%,0%)" r="0.7" /><circle cx="308.191687936" cy="320.256689231" fill="rgb(100%,0%,0%)" r="0.7" /><circle cx="308.894750102" cy="323.1731391" fill="rgb(100%,0%,0%)" r="0.7" /><circle cx="309.627596525" cy="326.082216807" fill="rgb(100%,0%,0%)" r="0.7" /><circle cx="310.519569985" cy="328.945503351" fill="rgb(100%,0%,0%)" r="0.7" /><circle cx="311.363263694" cy="331.824330262" fill="rgb(100%,0%,0%)" r="0.7" /><circle cx="312.131738938" cy="334.724157731" fill="rgb(100%,0%,0%)" r="0.7" /><circle cx="312.826908152" cy="337.642420491" fill="rgb(100%,0%,0%)" r="0.7" /><circle cx="313.446267355" cy="340.577702655" fill="rgb(100%,0%,0%)" r="0.7" /><circle cx="313.984714663" cy="343.528887743" fill="rgb(100%,0%,0%)" r="0.7" /><circle cx="314.434915369" cy="346.494791095" fill="rgb(100%,0%,0%)" r="0.7" /><circle cx="314.787194952" cy="349.473884857" fill="rgb(100%,0%,0%)" r="0.7" /><circle cx="315.029151642" cy="352.463918216" fill="rgb(100%,0%,0%)" r="0.7" /><circle cx="315.145041295" cy="355.461424875" fill="rgb(100%,0%,0%)" r="0.7" /><circle cx="315.114917418" cy="358.460929456" fill="rgb(100%,0%,0%)" r="0.7" /><circle cx="314.913532109" cy="361.453680558" fill="rgb(100%,0%,0%)" r="0.7" /><circle cx="314.509093793" cy="364.425595814" fill="rgb(100%,0%,0%)" r="0.7" /><circle cx="313.862270211" cy="367.353990656" fill="rgb(100%,0%,0%)" r="0.7" /><circle cx="312.926532095" cy="370.202726467" fill="rgb(100%,0%,0%)" r="0.7" /><circle cx="312.124879093" cy="372.313066916" fill="rgb(100%,0%,0%)" r="0.7" /><circle cx="314.340335574" cy="370.290258823" fill="rgb(100%,0%,0%)" r="0.7" /><circle cx="316.555792056" cy="368.267450731" fill="rgb(100%,0%,0%)" r="0.7" /><circle cx="318.777813314" cy="368.062115005" fill="rgb(100%,0%,0%)" r="0.7" /><circle cx="321.007824708" cy="370.068865906" fill="rgb(100%,0%,0%)" r="0.7" /><circle cx="323.237836103" cy="372.075616807" fill="rgb(100%,0%,0%)" r="0.7" /><circle cx="325.467847498" cy="374.082367709" fill="rgb(100%,0%,0%)" r="0.7" /><circle cx="327.697858892" cy="376.08911861" fill="rgb(100%,0%,0%)" r="0.7" /><circle cx="328.09" cy="376.442" fill="rgb(100%,0%,0%)" r="0.7" /><circle cx="309.075117437" cy="247.173734546" fill="rgb(0%,0%,100%)" r="0.7" /><circle cx="311.713615511" cy="248.203115335" fill="rgb(0%,0%,100%)" r="0.7" /><circle cx="313.469925521" cy="250.626934413" fill="rgb(0%,0%,100%)" r="0.7" /><circle cx="314.849361553" cy="253.289736312" fill="rgb(0%,0%,100%)" r="0.7" /><circle cx="316.035978886" cy="256.044695663" fill="rgb(0%,0%,100%)" r="0.7" /><circle cx="317.100150497" cy="258.849436369" fill="rgb(0%,0%,100%)" r="0.7" /><circle cx="318.07651558" cy="261.686015884" fill="rgb(0%,0%,100%)" r="0.7" /><circle cx="318.984444242" cy="264.545266346" fill="rgb(0%,0%,100%)" r="0.7" /><circle cx="319.835080626" cy="267.422104071" fill="rgb(0%,0%,100%)" r="0.7" /><circle cx="320.633249886" cy="270.313925294" fill="rgb(0%,0%,100%)" r="0.7" /><circle cx="321.422451799" cy="273.207712813" fill="rgb(0%,0%,100%)" r="0.7" /><circle cx="322.270893477" cy="276.085196726" fill="rgb(0%,0%,100%)" r="0.7" /><circle cx="323.094896113" cy="278.969835087" fill="rgb(0%,0%,100%)" r="0.7" /><circle cx="323.893717313" cy="281.861517865" fill="rgb(0%,0%,100%)" r="0.7" /><circle cx="324.666612368" cy="284.76023473" fill="rgb(0%,0%,100%)" r="0.7" /><circle cx="325.412786957" cy="287.665916363" fill="rgb(0%,0%,100%)" r="0.7" /><circle cx="326.13143227" cy="290.578579334" fill="rgb(0%,0%,100%)" r="0.7" /><circle cx="326.821661172" cy="293.498082748" fill="rgb(0%,0%,100%)" r="0.7" /><circle cx="327.482562958" cy="296.424355215" fill="rgb(0%,0%,100%)" r="0.7" /><circle cx="328.113180215" cy="299.35732053" fill="rgb(0%,0%,100%)" r="0.7" /><circle cx="328.712491226" cy="302.2968301" fill="rgb(0%,0%,100%)" r="0.7" /><circle cx="329.279428129" cy="305.242765059" fill="rgb(0%,0%,100%)" r="0.7" /><circle cx="329.81285068" cy="308.19492827" fill="rgb(0%,0%,100%)" r="0.7" /><circle cx="330.31156746" cy="311.15318575" fill="rgb(0%,0%,100%)" r="0.7" /><circle cx="330.774290931" cy="314.117242246" fill="rgb(0%,0%,100%)" r="0.7" /><circle cx="331.199678236" cy="317.086927237" fill="rgb(0%,0%,100%)" r="0.7" /><circle cx="331.586273553" cy="320.061874045" fill="rgb(0%,0%,100%)" r="0.7" /><circle cx="331.932542086" cy="323.041816466" fill="rgb(0%,0%,100%)" r="0.7" /><circle cx="332.236823013" cy="326.026311234" fill="rgb(0%,0%,100%)" r="0.7" /><circle cx="332.497343711" cy="329.014961592" fill="rgb(0%,0%,100%)" r="0.7" /><circle cx="332.712183081" cy="332.007206852" fill="rgb(0%,0%,100%)" r="0.7" /><circle cx="332.879269665" cy="335.002517631" fill="rgb(0%,0%,100%)" r="0.7" /><circle cx="332.996343175" cy="338.000193193" fill="rgb(0%,0%,100%)" r="0.7" /><circle cx="333.060933115" cy="340.999465439" fill="rgb(0%,0%,100%)" r="0.7" /><circle cx="333.070317971" cy="343.999404633" fill="rgb(0%,0%,100%)" r="0.7" /><circle cx="333.021477509" cy="346.998965837" fill="rgb(0%,0%,100%)" r="0.7" /><circle cx="332.911027501" cy="349.996872528" fill="rgb(0%,0%,100%)" r="0.7" /><circle cx="332.735129075" cy="352.991652348" fill="rgb(0%,0%,100%)" r="0.7" /><circle cx="332.489363679" cy="355.98150427" fill="rgb(0%,0%,100%)" r="0.7" /><circle cx="332.168547899" cy="358.964207437" fill="rgb(0%,0%,100%)" r="0.7" /><circle cx="331.766436258" cy="361.937020225" fill="rgb(0%,0%,100%)" r="0.7" /><circle cx="331.275227622" cy="364.896425197" fill="rgb(0%,0%,100%)" r="0.7" /><circle cx="330.684680008" cy="367.837554532" fill="rgb(0%,0%,100%)" r="0.7" /><circle cx="329.980134568" cy="370.753428218" fill="rgb(0%,0%,100%)" r="0.7" /><circle cx="329.137170635" cy="373.632170163" fill="rgb(0%,0%,100%)" r="0.7" /><circle cx="328.09" cy="376.442" fill="rgb(0%,0%,100%)" r="0.7" /></svg>