<?xml version="1.0" encoding="utf-8" ?>
<svg baseProfile="full" height="100%" version="1.1" width="100%" xmlns="http://www.w3.org/2000/svg" xmlns:ev="http://www.w3.org/2001/xml-events" xmlns:xlink="http://www.w3.org/1999/xlink"><defs /><circle cx="331.355264978" cy="362.189093082" fill="rgb(100%,0%,0%)" r="0.7" /><circle cx="328.558833065" cy="363.178164699" fill="rgb(100%,0%,0%)" r="0.7" /><circle cx="326.246568818" cy="365.079852643" fill="rgb(100%,0%,0%)" r="0.7" /><circle cx="324.2762837" cy="367.339350721" fill="rgb(100%,0%,0%)" r="0.7" /><circle cx="322.581969694" cy="369.813988719" fill="rgb(100%,0%,0%)" r="0.7" /><circle cx="321.063594429" cy="372.400865144" fill="rgb(100%,0%,0%)" r="0.7" /><circle cx="319.685713975" cy="375.065380374" fill="rgb(100%,0%,0%)" r="0.7" /><circle cx="318.431597899" cy="377.790415041" fill="rgb(100%,0%,0%)" r="0.7" /><circle cx="317.290481021" cy="380.564712339" fill="rgb(100%,0%,0%)" r="0.7" /><circle cx="316.254418565" cy="383.379945103" fill="rgb(100%,0%,0%)" r="0.7" /><circle cx="315.317042262" cy="386.229591021" fill="rgb(100%,0%,0%)" r="0.7" /><circle cx="314.472998161" cy="389.10828237" fill="rgb(100%,0%,0%)" r="0.7" /><circle cx="313.717615412" cy="392.011505137" fill="rgb(100%,0%,0%)" r="0.7" /><circle cx="313.046709702" cy="394.935434388" fill="rgb(100%,0%,0%)" r="0.7" /><circle cx="312.456487728" cy="397.876708181" fill="rgb(100%,0%,0%)" r="0.7" /><circle cx="311.943447934" cy="400.832421592" fill="rgb(100%,0%,0%)" r="0.7" /><circle cx="311.504335566" cy="403.800033341" fill="rgb(100%,0%,0%)" r="0.7" /><circle cx="311.136110011" cy="406.777280869" fill="rgb(100%,0%,0%)" r="0.7" /><circle cx="310.835912818" cy="409.76216197" fill="rgb(100%,0%,0%)" r="0.7" /><circle cx="310.601047715" cy="412.752897225" fill="rgb(100%,0%,0%)" r="0.7" /><circle cx="310.428964534" cy="415.74790224" fill="rgb(100%,0%,0%)" r="0.7" /><circle cx="310.317246095" cy="418.745775098" fill="rgb(100%,0%,0%)" r="0.7" /><circle cx="310.263598914" cy="421.745251285" fill="rgb(100%,0%,0%)" r="0.7" /><circle cx="310.265843235" cy="424.745215781" fill="rgb(100%,0%,0%)" r="0.7" /><circle cx="310.32190548" cy="427.744642997" fill="rgb(100%,0%,0%)" r="0.7" /><circle cx="310.429813176" cy="430.742680219" fill="rgb(100%,0%,0%)" r="0.7" /><circle cx="310.587685776" cy="433.73849314" fill="rgb(100%,0%,0%)" r="0.7" /><circle cx="311.483192442" cy="433.257754018" fill="rgb(100%,0%,0%)" r="0.7" /><circle cx="312.824924008" cy="430.574517837" fill="rgb(100%,0%,0%)" r="0.7" /><circle cx="314.166655574" cy="427.891281655" fill="rgb(100%,0%,0%)" r="0.7" /><circle cx="315.50838714" cy="425.208045474" fill="rgb(100%,0%,0%)" r="0.7" /><circle cx="316.953861646" cy="423.563683929" fill="rgb(100%,0%,0%)" r="0.7" /><circle cx="318.799706748" cy="425.928605886" fill="rgb(100%,0%,0%)" r="0.7" /><circle cx="320.645551849" cy="428.293527843" fill="rgb(100%,0%,0%)" r="0.7" /><circle cx="322.491396951" cy="430.658449799" fill="rgb(100%,0%,0%)" r="0.7" /><circle cx="324.337242053" cy="433.023371756" fill="rgb(100%,0%,0%)" r="0.7" /><circle cx="326.033" cy="435.196" fill="rgb(100%,0%,0%)" r="0.7" /><circle cx="331.355264978" cy="362.189093082" fill="rgb(0%,0%,100%)" r="0.7" /><circle cx="334.115641554" cy="363.113822947" fill="rgb(0%,0%,100%)" r="0.7" /><circle cx="337.019602056" cy="363.843261705" fill="rgb(0%,0%,100%)" r="0.7" /><circle cx="339.775722768" cy="365.023882052" fill="rgb(0%,0%,100%)" r="0.7" /><circle cx="342.412822474" cy="366.45276658" fill="rgb(0%,0%,100%)" r="0.7" /><circle cx="344.957173593" cy="368.041556981" fill="rgb(0%,0%,100%)" r="0.7" /><circle cx="347.426180989" cy="369.745312157" fill="rgb(0%,0%,100%)" r="0.7" /><circle cx="349.830297654" cy="371.539560359" fill="rgb(0%,0%,100%)" r="0.7" /><circle cx="352.17294694" cy="373.413376229" fill="rgb(0%,0%,100%)" r="0.7" /><circle cx="354.502652891" cy="375.302192858" fill="rgb(0%,0%,100%)" r="0.7" /><circle cx="356.691425236" cy="377.350622819" fill="rgb(0%,0%,100%)" r="0.7" /><circle cx="358.501652862" cy="379.735733695" fill="rgb(0%,0%,100%)" r="0.7" /><circle cx="359.548120679" cy="382.527349421" fill="rgb(0%,0%,100%)" r="0.7" /><circle cx="359.282770418" cy="385.484807821" fill="rgb(0%,0%,100%)" r="0.7" /><circle cx="357.826185148" cy="388.083599432" fill="rgb(0%,0%,100%)" r="0.7" /><circle cx="355.402601406" cy="389.799985764" fill="rgb(0%,0%,100%)" r="0.7" /><circle cx="352.451773445" cy="390.170637473" fill="rgb(0%,0%,100%)" r="0.7" /><circle cx="349.550831713" cy="389.446763344" fill="rgb(0%,0%,100%)" r="0.7" /><circle cx="346.702899982" cy="388.513472178" fill="rgb(0%,0%,100%)" r="0.7" /><circle cx="343.741879525" cy="388.0532648" fill="rgb(0%,0%,100%)" r="0.7" /><circle cx="340.745469293" cy="388.087446598" fill="rgb(0%,0%,100%)" r="0.7" /><circle cx="337.794616843" cy="388.609464281" fill="rgb(0%,0%,100%)" r="0.7" /><circle cx="334.980028848" cy="389.633404009" fill="rgb(0%,0%,100%)" r="0.7" /><circle cx="332.719148276" cy="391.589578057" fill="rgb(0%,0%,100%)" r="0.7" /><circle cx="330.953316728" cy="394.009403542" fill="rgb(0%,0%,100%)" r="0.7" /><circle cx="329.588005814" cy="396.678309428" fill="rgb(0%,0%,100%)" r="0.7" /><circle cx="328.527911643" cy="399.483570693" fill="rgb(0%,0%,100%)" r="0.7" /><circle cx="327.700906423" cy="402.366677773" fill="rgb(0%,0%,100%)" r="0.7" /><circle cx="327.056123692" cy="405.296176653" fill="rgb(0%,0%,100%)" r="0.7" /><circle cx="326.557718551" cy="408.254234915" fill="rgb(0%,0%,100%)" r="0.7" /><circle cx="326.179979962" cy="411.230187612" fill="rgb(0%,0%,100%)" r="0.7" /><circle cx="325.904088066" cy="414.217351888" fill="rgb(0%,0%,100%)" r="0.7" /><circle cx="325.716043538" cy="417.211361084" fill="rgb(0%,0%,100%)" r="0.7" /><circle cx="325.605356872" cy="420.209245856" fill="rgb(0%,0%,100%)" r="0.7" /><circle cx="325.564244409" cy="423.208906099" fill="rgb(0%,0%,100%)" r="0.7" /><circle cx="325.587214868" cy="426.208759581" fill="rgb(0%,0%,100%)" r="0.7" /><circle cx="325.671092703" cy="429.207546005" fill="rgb(0%,0%,100%)" r="0.7" /><circle cx="325.816001508" cy="432.203994643" fill="rgb(0%,0%,100%)" r="0.7" /><circle cx="326.033" cy="435.196" fill="rgb(0%,0%,100%)" r="0.7" /></svg>