<?xml version="1.0" encoding="utf-8" ?>
<svg baseProfile="full" height="100%" version="1.1" width="100%" xmlns="http://www.w3.org/2000/svg" xmlns:ev="http://www.w3.org/2001/xml-events" xmlns:xlink="http://www.w3.org/1999/xlink"><defs /><circle cx="374.698000556" cy="333.335317988" fill="rgb(100%,0%,0%)" r="0.7" /><circle cx="371.739915228" cy="333.391220671" fill="rgb(100%,0%,0%)" r="0.7" /><circle cx="368.964972939" cy="334.504122997" fill="rgb(100%,0%,0%)" r="0.7" /><circle cx="366.525173476" cy="336.241269288" fill="rgb(100%,0%,0%)" r="0.7" /><circle cx="364.420017551" cy="338.374667257" fill="rgb(100%,0%,0%)" r="0.7" /><circle cx="362.614292553" cy="340.768248548" fill="rgb(100%,0%,0%)" r="0.7" /><circle cx="361.065134929" cy="343.336090555" fill="rgb(100%,0%,0%)" r="0.7" /><circle cx="359.732960759" cy="346.023314156" fill="rgb(100%,0%,0%)" r="0.7" /><circle cx="358.543431975" cy="348.777332553" fill="rgb(100%,0%,0%)" r="0.7" /><circle cx="357.391153737" cy="351.547208868" fill="rgb(100%,0%,0%)" r="0.7" /><circle cx="356.24480387" cy="354.3195542" fill="rgb(100%,0%,0%)" r="0.7" /><circle cx="355.083980023" cy="357.085854811" fill="rgb(100%,0%,0%)" r="0.7" /><circle cx="353.894390068" cy="359.8399015" fill="rgb(100%,0%,0%)" r="0.7" /><circle cx="352.665783687" cy="362.576752054" fill="rgb(100%,0%,0%)" r="0.7" /><circle cx="351.390707595" cy="365.292246836" fill="rgb(100%,0%,0%)" r="0.7" /><circle cx="350.063731428" cy="367.98275312" fill="rgb(100%,0%,0%)" r="0.7" /><circle cx="348.680956238" cy="370.645004473" fill="rgb(100%,0%,0%)" r="0.7" /><circle cx="347.239670859" cy="373.276035168" fill="rgb(100%,0%,0%)" r="0.7" /><circle cx="345.738116504" cy="375.873133825" fill="rgb(100%,0%,0%)" r="0.7" /><circle cx="344.175306232" cy="378.433832881" fill="rgb(100%,0%,0%)" r="0.7" /><circle cx="342.550887432" cy="380.955903765" fill="rgb(100%,0%,0%)" r="0.7" /><circle cx="340.865050643" cy="383.437329405" fill="rgb(100%,0%,0%)" r="0.7" /><circle cx="339.118410718" cy="385.876349526" fill="rgb(100%,0%,0%)" r="0.7" /><circle cx="337.311970514" cy="388.271403358" fill="rgb(100%,0%,0%)" r="0.7" /><circle cx="335.447010867" cy="390.621190087" fill="rgb(100%,0%,0%)" r="0.7" /><circle cx="333.525078717" cy="392.924604417" fill="rgb(100%,0%,0%)" r="0.7" /><circle cx="331.547900299" cy="395.180777262" fill="rgb(100%,0%,0%)" r="0.7" /><circle cx="329.517352407" cy="397.38904613" fill="rgb(100%,0%,0%)" r="0.7" /><circle cx="327.435421608" cy="399.548946461" fill="rgb(100%,0%,0%)" r="0.7" /><circle cx="325.304171364" cy="401.660197823" fill="rgb(100%,0%,0%)" r="0.7" /><circle cx="323.12570229" cy="403.722699797" fill="rgb(100%,0%,0%)" r="0.7" /><circle cx="323.477826423" cy="403.868994077" fill="rgb(100%,0%,0%)" r="0.7" /><circle cx="326.075515902" cy="402.368324438" fill="rgb(100%,0%,0%)" r="0.7" /><circle cx="328.673205382" cy="400.867654798" fill="rgb(100%,0%,0%)" r="0.7" /><circle cx="331.270894862" cy="399.366985159" fill="rgb(100%,0%,0%)" r="0.7" /><circle cx="332.664791567" cy="399.3793686" fill="rgb(100%,0%,0%)" r="0.7" /><circle cx="331.786342476" cy="402.247874692" fill="rgb(100%,0%,0%)" r="0.7" /><circle cx="330.907893386" cy="405.116380783" fill="rgb(100%,0%,0%)" r="0.7" /><circle cx="330.029444295" cy="407.984886874" fill="rgb(100%,0%,0%)" r="0.7" /><circle cx="329.150995205" cy="410.853392965" fill="rgb(100%,0%,0%)" r="0.7" /><circle cx="328.527" cy="412.891" fill="rgb(100%,0%,0%)" r="0.7" /><circle cx="374.698000556" cy="333.335317988" fill="rgb(0%,0%,100%)" r="0.7" /><circle cx="376.158770437" cy="335.775040669" fill="rgb(0%,0%,100%)" r="0.7" /><circle cx="375.307706995" cy="338.524740157" fill="rgb(0%,0%,100%)" r="0.7" /><circle cx="373.220021144" cy="340.677413447" fill="rgb(0%,0%,100%)" r="0.7" /><circle cx="371.006712988" cy="342.702330985" fill="rgb(0%,0%,100%)" r="0.7" /><circle cx="369.593474282" cy="344.756373092" fill="rgb(0%,0%,100%)" r="0.7" /><circle cx="369.466322627" cy="347.723218684" fill="rgb(0%,0%,100%)" r="0.7" /><circle cx="368.676819321" cy="350.616218838" fill="rgb(0%,0%,100%)" r="0.7" /><circle cx="367.691448993" cy="353.449480328" fill="rgb(0%,0%,100%)" r="0.7" /><circle cx="366.601105969" cy="356.244209172" fill="rgb(0%,0%,100%)" r="0.7" /><circle cx="365.441236093" cy="359.01086241" fill="rgb(0%,0%,100%)" r="0.7" /><circle cx="364.228997212" cy="361.754997304" fill="rgb(0%,0%,100%)" r="0.7" /><circle cx="362.972117829" cy="364.478975053" fill="rgb(0%,0%,100%)" r="0.7" /><circle cx="361.682260582" cy="367.187523683" fill="rgb(0%,0%,100%)" r="0.7" /><circle cx="360.372068026" cy="369.886271621" fill="rgb(0%,0%,100%)" r="0.7" /><circle cx="359.026513781" cy="372.56756718" fill="rgb(0%,0%,100%)" r="0.7" /><circle cx="357.644193939" cy="375.230103233" fill="rgb(0%,0%,100%)" r="0.7" /><circle cx="356.223615844" cy="377.87239395" fill="rgb(0%,0%,100%)" r="0.7" /><circle cx="354.763123911" cy="380.492862958" fill="rgb(0%,0%,100%)" r="0.7" /><circle cx="353.260967306" cy="383.089656565" fill="rgb(0%,0%,100%)" r="0.7" /><circle cx="351.715213891" cy="385.660727163" fill="rgb(0%,0%,100%)" r="0.7" /><circle cx="350.123742279" cy="388.203750434" fill="rgb(0%,0%,100%)" r="0.7" /><circle cx="348.484215893" cy="390.716051827" fill="rgb(0%,0%,100%)" r="0.7" /><circle cx="346.794033822" cy="393.194534485" fill="rgb(0%,0%,100%)" r="0.7" /><circle cx="345.050237141" cy="395.635615659" fill="rgb(0%,0%,100%)" r="0.7" /><circle cx="343.249501049" cy="398.034962045" fill="rgb(0%,0%,100%)" r="0.7" /><circle cx="341.38791113" cy="400.387401454" fill="rgb(0%,0%,100%)" r="0.7" /><circle cx="339.460847271" cy="402.686465876" fill="rgb(0%,0%,100%)" r="0.7" /><circle cx="337.462582954" cy="404.923905863" fill="rgb(0%,0%,100%)" r="0.7" /><circle cx="335.385752957" cy="407.088548539" fill="rgb(0%,0%,100%)" r="0.7" /><circle cx="333.220011819" cy="409.164119541" fill="rgb(0%,0%,100%)" r="0.7" /><circle cx="330.948503858" cy="411.123077408" fill="rgb(0%,0%,100%)" r="0.7" /><circle cx="328.527" cy="412.891" fill="rgb(0%,0%,100%)" r="0.7" /></svg>