<?xml version="1.0" encoding="utf-8" ?>
<svg baseProfile="full" height="100%" version="1.1" width="100%" xmlns="http://www.w3.org/2000/svg" xmlns:ev="http://www.w3.org/2001/xml-events" xmlns:xlink="http://www.w3.org/1999/xlink"><defs /><circle cx="302.202316625" cy="388.753231561" fill="rgb(100%,0%,0%)" r="0.7" /><circle cx="299.416177952" cy="389.055889967" fill="rgb(100%,0%,0%)" r="0.7" /><circle cx="297.55912778" cy="391.390504459" fill="rgb(100%,0%,0%)" r="0.7" /><circle cx="296.253646143" cy="394.089263041" fill="rgb(100%,0%,0%)" r="0.7" /><circle cx="295.199339663" cy="396.897385421" fill="rgb(100%,0%,0%)" r="0.7" /><circle cx="294.55347939" cy="399.815775159" fill="rgb(100%,0%,0%)" r="0.7" /><circle cx="294.16619159" cy="402.790613178" fill="rgb(100%,0%,0%)" r="0.7" /><circle cx="293.837334352" cy="405.772490812" fill="rgb(100%,0%,0%)" r="0.7" /><circle cx="293.562343696" cy="408.75982212" fill="rgb(100%,0%,0%)" r="0.7" /><circle cx="293.340671706" cy="411.751584354" fill="rgb(100%,0%,0%)" r="0.7" /><circle cx="293.173580264" cy="414.746883565" fill="rgb(100%,0%,0%)" r="0.7" /><circle cx="293.063541988" cy="417.744818378" fill="rgb(100%,0%,0%)" r="0.7" /><circle cx="293.014058192" cy="420.744354912" fill="rgb(100%,0%,0%)" r="0.7" /><circle cx="293.029644045" cy="423.744252483" fill="rgb(100%,0%,0%)" r="0.7" /><circle cx="293.115912972" cy="426.742935569" fill="rgb(100%,0%,0%)" r="0.7" /><circle cx="293.238641182" cy="429.740146955" fill="rgb(100%,0%,0%)" r="0.7" /><circle cx="293.273365413" cy="432.739927676" fill="rgb(100%,0%,0%)" r="0.7" /><circle cx="293.267774393" cy="435.739902414" fill="rgb(100%,0%,0%)" r="0.7" /><circle cx="293.225049837" cy="438.739582981" fill="rgb(100%,0%,0%)" r="0.7" /><circle cx="293.144661352" cy="441.738482779" fill="rgb(100%,0%,0%)" r="0.7" /><circle cx="293.024389896" cy="444.73605091" fill="rgb(100%,0%,0%)" r="0.7" /><circle cx="292.860669567" cy="447.731551756" fill="rgb(100%,0%,0%)" r="0.7" /><circle cx="292.648505035" cy="450.724004275" fill="rgb(100%,0%,0%)" r="0.7" /><circle cx="292.3811352" cy="453.712018096" fill="rgb(100%,0%,0%)" r="0.7" /><circle cx="292.049409184" cy="456.693553519" fill="rgb(100%,0%,0%)" r="0.7" /><circle cx="291.640722027" cy="459.665482699" fill="rgb(100%,0%,0%)" r="0.7" /><circle cx="291.137165446" cy="462.622760014" fill="rgb(100%,0%,0%)" r="0.7" /><circle cx="290.512150999" cy="465.556646158" fill="rgb(100%,0%,0%)" r="0.7" /><circle cx="289.72374246" cy="468.450626189" fill="rgb(100%,0%,0%)" r="0.7" /><circle cx="288.690558805" cy="471.264983511" fill="rgb(100%,0%,0%)" r="0.7" /><circle cx="287.413817919" cy="473.979733132" fill="rgb(100%,0%,0%)" r="0.7" /><circle cx="286.103129367" cy="476.678249803" fill="rgb(100%,0%,0%)" r="0.7" /><circle cx="284.762574362" cy="479.362055361" fill="rgb(100%,0%,0%)" r="0.7" /><circle cx="283.391980336" cy="482.030646049" fill="rgb(100%,0%,0%)" r="0.7" /><circle cx="281.989604615" cy="484.682671984" fill="rgb(100%,0%,0%)" r="0.7" /><circle cx="280.552506946" cy="487.316041776" fill="rgb(100%,0%,0%)" r="0.7" /><circle cx="279.076481892" cy="489.927776328" fill="rgb(100%,0%,0%)" r="0.7" /><circle cx="277.555715886" cy="492.513704127" fill="rgb(100%,0%,0%)" r="0.7" /><circle cx="275.982169097" cy="495.06783299" fill="rgb(100%,0%,0%)" r="0.7" /><circle cx="274.344439526" cy="497.581247709" fill="rgb(100%,0%,0%)" r="0.7" /><circle cx="272.625696594" cy="500.039876287" fill="rgb(100%,0%,0%)" r="0.7" /><circle cx="270.799545653" cy="502.419610812" fill="rgb(100%,0%,0%)" r="0.7" /><circle cx="268.821011157" cy="504.673575601" fill="rgb(100%,0%,0%)" r="0.7" /><circle cx="266.604233214" cy="506.690650515" fill="rgb(100%,0%,0%)" r="0.7" /><circle cx="266.041699116" cy="507.150789017" fill="rgb(100%,0%,0%)" r="0.7" /><circle cx="268.684476721" cy="505.731026174" fill="rgb(100%,0%,0%)" r="0.7" /><circle cx="271.327254326" cy="504.311263331" fill="rgb(100%,0%,0%)" r="0.7" /><circle cx="273.970031931" cy="502.891500488" fill="rgb(100%,0%,0%)" r="0.7" /><circle cx="276.612809536" cy="501.471737645" fill="rgb(100%,0%,0%)" r="0.7" /><circle cx="279.255587142" cy="500.051974802" fill="rgb(100%,0%,0%)" r="0.7" /><circle cx="280.64038517" cy="500.945513208" fill="rgb(100%,0%,0%)" r="0.7" /><circle cx="280.885121236" cy="503.93551392" fill="rgb(100%,0%,0%)" r="0.7" /><circle cx="281.129857301" cy="506.925514632" fill="rgb(100%,0%,0%)" r="0.7" /><circle cx="281.374593366" cy="509.915515344" fill="rgb(100%,0%,0%)" r="0.7" /><circle cx="281.619329432" cy="512.905516056" fill="rgb(100%,0%,0%)" r="0.7" /><circle cx="281.864065497" cy="515.895516769" fill="rgb(100%,0%,0%)" r="0.7" /><circle cx="282.008" cy="517.654" fill="rgb(100%,0%,0%)" r="0.7" /><circle cx="302.202316625" cy="388.753231561" fill="rgb(0%,0%,100%)" r="0.7" /><circle cx="304.249833288" cy="390.908571224" fill="rgb(0%,0%,100%)" r="0.7" /><circle cx="305.661609462" cy="393.55247329" fill="rgb(0%,0%,100%)" r="0.7" /><circle cx="306.656799304" cy="396.379521375" fill="rgb(0%,0%,100%)" r="0.7" /><circle cx="307.342874785" cy="399.299291072" fill="rgb(0%,0%,100%)" r="0.7" /><circle cx="307.856064245" cy="402.254794434" fill="rgb(0%,0%,100%)" r="0.7" /><circle cx="308.255798009" cy="405.227929019" fill="rgb(0%,0%,100%)" r="0.7" /><circle cx="308.57377282" cy="408.210952983" fill="rgb(0%,0%,100%)" r="0.7" /><circle cx="308.829135461" cy="411.200022395" fill="rgb(0%,0%,100%)" r="0.7" /><circle cx="309.034435301" cy="414.192964722" fill="rgb(0%,0%,100%)" r="0.7" /><circle cx="309.198390196" cy="417.188463597" fill="rgb(0%,0%,100%)" r="0.7" /><circle cx="309.327318032" cy="420.185677486" fill="rgb(0%,0%,100%)" r="0.7" /><circle cx="309.425942102" cy="423.184045198" fill="rgb(0%,0%,100%)" r="0.7" /><circle cx="309.497872571" cy="426.183176765" fill="rgb(0%,0%,100%)" r="0.7" /><circle cx="309.545906729" cy="429.182787176" fill="rgb(0%,0%,100%)" r="0.7" /><circle cx="309.572219916" cy="432.182661242" fill="rgb(0%,0%,100%)" r="0.7" /><circle cx="309.578483434" cy="435.182659627" fill="rgb(0%,0%,100%)" r="0.7" /><circle cx="309.565924929" cy="438.182624294" fill="rgb(0%,0%,100%)" r="0.7" /><circle cx="309.535327939" cy="441.182471574" fill="rgb(0%,0%,100%)" r="0.7" /><circle cx="309.486927003" cy="444.182078529" fill="rgb(0%,0%,100%)" r="0.7" /><circle cx="309.419998031" cy="447.18132878" fill="rgb(0%,0%,100%)" r="0.7" /><circle cx="309.333404914" cy="450.179981067" fill="rgb(0%,0%,100%)" r="0.7" /><circle cx="309.366144398" cy="453.179684401" fill="rgb(0%,0%,100%)" r="0.7" /><circle cx="309.305827897" cy="456.178946736" fill="rgb(0%,0%,100%)" r="0.7" /><circle cx="309.150987346" cy="459.174826439" fill="rgb(0%,0%,100%)" r="0.7" /><circle cx="308.900420529" cy="462.164208484" fill="rgb(0%,0%,100%)" r="0.7" /><circle cx="308.553205674" cy="465.143916017" fill="rgb(0%,0%,100%)" r="0.7" /><circle cx="308.108719854" cy="468.110666898" fill="rgb(0%,0%,100%)" r="0.7" /><circle cx="307.566640891" cy="471.061153425" fill="rgb(0%,0%,100%)" r="0.7" /><circle cx="306.926956386" cy="473.992019237" fill="rgb(0%,0%,100%)" r="0.7" /><circle cx="306.189951402" cy="476.899927644" fill="rgb(0%,0%,100%)" r="0.7" /><circle cx="305.356187632" cy="479.781603982" fill="rgb(0%,0%,100%)" r="0.7" /><circle cx="304.426506829" cy="482.6337718" fill="rgb(0%,0%,100%)" r="0.7" /><circle cx="303.401979754" cy="485.453258026" fill="rgb(0%,0%,100%)" r="0.7" /><circle cx="302.283883874" cy="488.236960274" fill="rgb(0%,0%,100%)" r="0.7" /><circle cx="301.07365653" cy="490.981866186" fill="rgb(0%,0%,100%)" r="0.7" /><circle cx="299.772852221" cy="493.685032988" fill="rgb(0%,0%,100%)" r="0.7" /><circle cx="298.3830958" cy="496.343553629" fill="rgb(0%,0%,100%)" r="0.7" /><circle cx="296.905993665" cy="498.9545677" fill="rgb(0%,0%,100%)" r="0.7" /><circle cx="295.343092621" cy="501.515132445" fill="rgb(0%,0%,100%)" r="0.7" /><circle cx="293.695739294" cy="504.022200494" fill="rgb(0%,0%,100%)" r="0.7" /><circle cx="291.964966201" cy="506.472422902" fill="rgb(0%,0%,100%)" r="0.7" /><circle cx="290.151278707" cy="508.861894829" fill="rgb(0%,0%,100%)" r="0.7" /><circle cx="288.254231398" cy="511.185739944" fill="rgb(0%,0%,100%)" r="0.7" /><circle cx="286.27166803" cy="513.437043583" fill="rgb(0%,0%,100%)" r="0.7" /><circle cx="284.197470443" cy="515.604091445" fill="rgb(0%,0%,100%)" r="0.7" /><circle cx="282.008" cy="517.654" fill="rgb(0%,0%,100%)" r="0.7" /></svg>