<?xml version="1.0" encoding="utf-8" ?>
<svg baseProfile="full" height="100%" version="1.1" width="100%" xmlns="http://www.w3.org/2000/svg" xmlns:ev="http://www.w3.org/2001/xml-events" xmlns:xlink="http://www.w3.org/1999/xlink"><defs /><circle cx="262.674360485" cy="286.745350672" fill="rgb(100%,0%,0%)" r="0.7" /><circle cx="260.088489963" cy="288.199036687" fill="rgb(100%,0%,0%)" r="0.7" /><circle cx="258.083588736" cy="290.424383007" fill="rgb(100%,0%,0%)" r="0.7" /><circle cx="256.408476067" cy="292.911614003" fill="rgb(100%,0%,0%)" r="0.7" /><circle cx="254.940740352" cy="295.527436154" fill="rgb(100%,0%,0%)" r="0.7" /><circle cx="253.62407485" cy="298.222716014" fill="rgb(100%,0%,0%)" r="0.7" /><circle cx="252.440442983" cy="300.978994061" fill="rgb(100%,0%,0%)" r="0.7" /><circle cx="251.644114276" cy="303.870432688" fill="rgb(100%,0%,0%)" r="0.7" /><circle cx="250.864193856" cy="306.767279963" fill="rgb(100%,0%,0%)" r="0.7" /><circle cx="250.084273436" cy="309.664127239" fill="rgb(100%,0%,0%)" r="0.7" /><circle cx="249.304353015" cy="312.560974515" fill="rgb(100%,0%,0%)" r="0.7" /><circle cx="248.524432595" cy="315.45782179" fill="rgb(100%,0%,0%)" r="0.7" /><circle cx="247.744512175" cy="318.354669066" fill="rgb(100%,0%,0%)" r="0.7" /><circle cx="246.964591754" cy="321.251516341" fill="rgb(100%,0%,0%)" r="0.7" /><circle cx="246.184671334" cy="324.148363617" fill="rgb(100%,0%,0%)" r="0.7" /><circle cx="245.395720937" cy="327.042656836" fill="rgb(100%,0%,0%)" r="0.7" /><circle cx="244.853607307" cy="329.98890364" fill="rgb(100%,0%,0%)" r="0.7" /><circle cx="244.859052562" cy="332.984850252" fill="rgb(100%,0%,0%)" r="0.7" /><circle cx="245.375325068" cy="335.936789342" fill="rgb(100%,0%,0%)" r="0.7" /><circle cx="246.326140856" cy="338.779627372" fill="rgb(100%,0%,0%)" r="0.7" /><circle cx="247.627852448" cy="341.480657085" fill="rgb(100%,0%,0%)" r="0.7" /><circle cx="249.208670602" cy="344.028965819" fill="rgb(100%,0%,0%)" r="0.7" /><circle cx="251.014607679" cy="346.42337129" fill="rgb(100%,0%,0%)" r="0.7" /><circle cx="253.010457402" cy="348.662077594" fill="rgb(100%,0%,0%)" r="0.7" /><circle cx="255.168014084" cy="350.743736204" fill="rgb(100%,0%,0%)" r="0.7" /><circle cx="257.124550251" cy="353.017858804" fill="rgb(100%,0%,0%)" r="0.7" /><circle cx="259.032853045" cy="355.332601708" fill="rgb(100%,0%,0%)" r="0.7" /><circle cx="260.891632967" cy="357.687291513" fill="rgb(100%,0%,0%)" r="0.7" /><circle cx="262.69963723" cy="360.081200553" fill="rgb(100%,0%,0%)" r="0.7" /><circle cx="264.455628143" cy="362.513518059" fill="rgb(100%,0%,0%)" r="0.7" /><circle cx="266.158402738" cy="364.983374995" fill="rgb(100%,0%,0%)" r="0.7" /><circle cx="267.806798917" cy="367.489856516" fill="rgb(100%,0%,0%)" r="0.7" /><circle cx="269.399676155" cy="370.031977596" fill="rgb(100%,0%,0%)" r="0.7" /><circle cx="270.935926948" cy="372.608705099" fill="rgb(100%,0%,0%)" r="0.7" /><circle cx="272.414477919" cy="375.218970006" fill="rgb(100%,0%,0%)" r="0.7" /><circle cx="273.83428126" cy="377.861667196" fill="rgb(100%,0%,0%)" r="0.7" /><circle cx="275.194282672" cy="380.535610132" fill="rgb(100%,0%,0%)" r="0.7" /><circle cx="276.493465852" cy="383.239636919" fill="rgb(100%,0%,0%)" r="0.7" /><circle cx="277.730787657" cy="385.972513044" fill="rgb(100%,0%,0%)" r="0.7" /><circle cx="278.905202642" cy="388.733019325" fill="rgb(100%,0%,0%)" r="0.7" /><circle cx="280.015609725" cy="391.519886198" fill="rgb(100%,0%,0%)" r="0.7" /><circle cx="281.060842884" cy="394.331838318" fill="rgb(100%,0%,0%)" r="0.7" /><circle cx="282.039633365" cy="397.167602306" fill="rgb(100%,0%,0%)" r="0.7" /><circle cx="282.950546578" cy="400.025880446" fill="rgb(100%,0%,0%)" r="0.7" /><circle cx="283.791925398" cy="402.905409823" fill="rgb(100%,0%,0%)" r="0.7" /><circle cx="284.561749318" cy="405.804866614" fill="rgb(100%,0%,0%)" r="0.7" /><circle cx="285.257497776" cy="408.722998014" fill="rgb(100%,0%,0%)" r="0.7" /><circle cx="285.875821855" cy="411.658493079" fill="rgb(100%,0%,0%)" r="0.7" /><circle cx="286.412023552" cy="414.610077589" fill="rgb(100%,0%,0%)" r="0.7" /><circle cx="286.85886892" cy="417.576469105" fill="rgb(100%,0%,0%)" r="0.7" /><circle cx="287.203316196" cy="420.556450672" fill="rgb(100%,0%,0%)" r="0.7" /><circle cx="287.407" cy="423.549" fill="rgb(100%,0%,0%)" r="0.7" /><circle cx="262.674360485" cy="286.745350672" fill="rgb(0%,0%,100%)" r="0.7" /><circle cx="265.522644496" cy="287.399856555" fill="rgb(0%,0%,100%)" r="0.7" /><circle cx="267.450975916" cy="289.650271352" fill="rgb(0%,0%,100%)" r="0.7" /><circle cx="268.243074258" cy="292.529034086" fill="rgb(0%,0%,100%)" r="0.7" /><circle cx="268.272841515" cy="295.524232842" fill="rgb(0%,0%,100%)" r="0.7" /><circle cx="267.845166409" cy="298.491758416" fill="rgb(0%,0%,100%)" r="0.7" /><circle cx="267.1248486" cy="301.403131775" fill="rgb(0%,0%,100%)" r="0.7" /><circle cx="266.202521853" cy="304.257374126" fill="rgb(0%,0%,100%)" r="0.7" /><circle cx="265.127939959" cy="307.057682888" fill="rgb(0%,0%,100%)" r="0.7" /><circle cx="263.773340568" cy="309.734327996" fill="rgb(0%,0%,100%)" r="0.7" /><circle cx="262.488961555" cy="312.44539696" fill="rgb(0%,0%,100%)" r="0.7" /><circle cx="261.279030195" cy="315.190467004" fill="rgb(0%,0%,100%)" r="0.7" /><circle cx="260.163911812" cy="317.975308886" fill="rgb(0%,0%,100%)" r="0.7" /><circle cx="259.18522453" cy="320.810714762" fill="rgb(0%,0%,100%)" r="0.7" /><circle cx="258.437976545" cy="323.714640478" fill="rgb(0%,0%,100%)" r="0.7" /><circle cx="258.23082935" cy="326.696139657" fill="rgb(0%,0%,100%)" r="0.7" /><circle cx="258.378251265" cy="329.678415871" fill="rgb(0%,0%,100%)" r="0.7" /><circle cx="259.194043783" cy="332.560903461" fill="rgb(0%,0%,100%)" r="0.7" /><circle cx="260.445104176" cy="335.285288963" fill="rgb(0%,0%,100%)" r="0.7" /><circle cx="261.994570863" cy="337.852777981" fill="rgb(0%,0%,100%)" r="0.7" /><circle cx="263.761120849" cy="340.276591251" fill="rgb(0%,0%,100%)" r="0.7" /><circle cx="265.691899908" cy="342.572047636" fill="rgb(0%,0%,100%)" r="0.7" /><circle cx="267.70056594" cy="344.800173534" fill="rgb(0%,0%,100%)" r="0.7" /><circle cx="269.655184796" cy="347.075942926" fill="rgb(0%,0%,100%)" r="0.7" /><circle cx="271.566987211" cy="349.38780203" fill="rgb(0%,0%,100%)" r="0.7" /><circle cx="273.439743026" cy="351.731437019" fill="rgb(0%,0%,100%)" r="0.7" /><circle cx="275.274922577" cy="354.104611637" fill="rgb(0%,0%,100%)" r="0.7" /><circle cx="277.072986323" cy="356.506031494" fill="rgb(0%,0%,100%)" r="0.7" /><circle cx="278.833787092" cy="358.93489342" fill="rgb(0%,0%,100%)" r="0.7" /><circle cx="280.556787018" cy="361.390730861" fill="rgb(0%,0%,100%)" r="0.7" /><circle cx="282.241103277" cy="363.873240469" fill="rgb(0%,0%,100%)" r="0.7" /><circle cx="283.885615518" cy="366.382299619" fill="rgb(0%,0%,100%)" r="0.7" /><circle cx="285.488955025" cy="368.917870667" fill="rgb(0%,0%,100%)" r="0.7" /><circle cx="287.04952497" cy="371.479979471" fill="rgb(0%,0%,100%)" r="0.7" /><circle cx="288.565519072" cy="374.068714988" fill="rgb(0%,0%,100%)" r="0.7" /><circle cx="290.034902565" cy="376.68418059" fill="rgb(0%,0%,100%)" r="0.7" /><circle cx="291.455421994" cy="379.326502063" fill="rgb(0%,0%,100%)" r="0.7" /><circle cx="292.824585009" cy="381.995789822" fill="rgb(0%,0%,100%)" r="0.7" /><circle cx="294.139657649" cy="384.692135857" fill="rgb(0%,0%,100%)" r="0.7" /><circle cx="295.397642764" cy="387.415575972" fill="rgb(0%,0%,100%)" r="0.7" /><circle cx="296.595275559" cy="390.166085969" fill="rgb(0%,0%,100%)" r="0.7" /><circle cx="297.72900143" cy="392.943537915" fill="rgb(0%,0%,100%)" r="0.7" /><circle cx="298.794969914" cy="395.747686615" fill="rgb(0%,0%,100%)" r="0.7" /><circle cx="299.789017593" cy="398.578121236" fill="rgb(0%,0%,100%)" r="0.7" /><circle cx="300.706662708" cy="401.434231028" fill="rgb(0%,0%,100%)" r="0.7" /><circle cx="301.543102165" cy="404.315158246" fill="rgb(0%,0%,100%)" r="0.7" /><circle cx="302.293216477" cy="407.219744903" fill="rgb(0%,0%,100%)" r="0.7" /><circle cx="302.951586606" cy="410.146478247" fill="rgb(0%,0%,100%)" r="0.7" /><circle cx="303.512522876" cy="413.093422983" fill="rgb(0%,0%,100%)" r="0.7" /><circle cx="303.970113886" cy="416.058156938" fill="rgb(0%,0%,100%)" r="0.7" /><circle cx="304.318296957" cy="419.03770406" fill="rgb(0%,0%,100%)" r="0.7" /><circle cx="303.056419004" cy="419.176956169" fill="rgb(0%,0%,100%)" r="0.7" /><circle cx="300.713795122" cy="417.302892844" fill="rgb(0%,0%,100%)" r="0.7" /><circle cx="298.371171239" cy="415.42882952" fill="rgb(0%,0%,100%)" r="0.7" /><circle cx="296.028547356" cy="413.554766195" fill="rgb(0%,0%,100%)" r="0.7" /><circle cx="293.685923474" cy="411.680702871" fill="rgb(0%,0%,100%)" r="0.7" /><circle cx="291.343299591" cy="409.806639546" fill="rgb(0%,0%,100%)" r="0.7" /><circle cx="290.513811736" cy="412.674367983" fill="rgb(0%,0%,100%)" r="0.7" /><circle cx="289.689703773" cy="415.55895566" fill="rgb(0%,0%,100%)" r="0.7" /><circle cx="288.865595809" cy="418.443543336" fill="rgb(0%,0%,100%)" r="0.7" /><circle cx="288.041487845" cy="421.328131013" fill="rgb(0%,0%,100%)" r="0.7" /><circle cx="287.407" cy="423.549" fill="rgb(0%,0%,100%)" r="0.7" /></svg>