<?xml version="1.0" encoding="utf-8" ?>
<svg baseProfile="full" height="100%" version="1.1" width="100%" xmlns="http://www.w3.org/2000/svg" xmlns:ev="http://www.w3.org/2001/xml-events" xmlns:xlink="http://www.w3.org/1999/xlink"><defs /><circle cx="309.971066575" cy="335.128647573" fill="rgb(100%,0%,0%)" r="0.7" /><circle cx="306.993143144" cy="335.276763694" fill="rgb(100%,0%,0%)" r="0.7" /><circle cx="304.334257513" cy="336.614437633" fill="rgb(100%,0%,0%)" r="0.7" /><circle cx="302.394041166" cy="338.883170625" fill="rgb(100%,0%,0%)" r="0.7" /><circle cx="301.15058724" cy="341.606698549" fill="rgb(100%,0%,0%)" r="0.7" /><circle cx="300.433484603" cy="344.514878736" fill="rgb(100%,0%,0%)" r="0.7" /><circle cx="299.747181744" cy="347.433374014" fill="rgb(100%,0%,0%)" r="0.7" /><circle cx="298.749987421" cy="350.261482233" fill="rgb(100%,0%,0%)" r="0.7" /><circle cx="297.483232306" cy="352.979653948" fill="rgb(100%,0%,0%)" r="0.7" /><circle cx="295.962476278" cy="355.564302881" fill="rgb(100%,0%,0%)" r="0.7" /><circle cx="294.200446891" cy="357.990880244" fill="rgb(100%,0%,0%)" r="0.7" /><circle cx="292.212541498" cy="360.236148176" fill="rgb(100%,0%,0%)" r="0.7" /><circle cx="290.019124062" cy="362.281205535" fill="rgb(100%,0%,0%)" r="0.7" /><circle cx="287.759249814" cy="364.254244234" fill="rgb(100%,0%,0%)" r="0.7" /><circle cx="285.484512414" cy="366.210160243" fill="rgb(100%,0%,0%)" r="0.7" /><circle cx="283.197430296" cy="368.151607372" fill="rgb(100%,0%,0%)" r="0.7" /><circle cx="280.898262595" cy="370.078726291" fill="rgb(100%,0%,0%)" r="0.7" /><circle cx="278.586628631" cy="371.990879873" fill="rgb(100%,0%,0%)" r="0.7" /><circle cx="276.261740207" cy="373.886894565" fill="rgb(100%,0%,0%)" r="0.7" /><circle cx="273.922430042" cy="375.765078671" fill="rgb(100%,0%,0%)" r="0.7" /><circle cx="271.567100546" cy="377.623133261" fill="rgb(100%,0%,0%)" r="0.7" /><circle cx="269.19362625" cy="379.457948129" fill="rgb(100%,0%,0%)" r="0.7" /><circle cx="266.799158351" cy="381.265266676" fill="rgb(100%,0%,0%)" r="0.7" /><circle cx="264.379789954" cy="383.03910553" fill="rgb(100%,0%,0%)" r="0.7" /><circle cx="261.930010117" cy="384.770662964" fill="rgb(100%,0%,0%)" r="0.7" /><circle cx="259.441622193" cy="386.446193182" fill="rgb(100%,0%,0%)" r="0.7" /><circle cx="256.901580424" cy="388.04216506" fill="rgb(100%,0%,0%)" r="0.7" /><circle cx="254.373783398" cy="389.654992816" fill="rgb(100%,0%,0%)" r="0.7" /><circle cx="251.899802718" cy="391.351869277" fill="rgb(100%,0%,0%)" r="0.7" /><circle cx="249.437753437" cy="393.066010732" fill="rgb(100%,0%,0%)" r="0.7" /><circle cx="246.98681596" cy="394.796002893" fill="rgb(100%,0%,0%)" r="0.7" /><circle cx="244.547016382" cy="396.541668533" fill="rgb(100%,0%,0%)" r="0.7" /><circle cx="242.118785761" cy="398.303390779" fill="rgb(100%,0%,0%)" r="0.7" /><circle cx="243.705933265" cy="398.586486618" fill="rgb(100%,0%,0%)" r="0.7" /><circle cx="246.69645208" cy="398.348164951" fill="rgb(100%,0%,0%)" r="0.7" /><circle cx="249.686970895" cy="398.109843284" fill="rgb(100%,0%,0%)" r="0.7" /><circle cx="252.67748971" cy="397.871521617" fill="rgb(100%,0%,0%)" r="0.7" /><circle cx="255.668008525" cy="397.63319995" fill="rgb(100%,0%,0%)" r="0.7" /><circle cx="258.65852734" cy="397.394878283" fill="rgb(100%,0%,0%)" r="0.7" /><circle cx="261.517314606" cy="397.298459839" fill="rgb(100%,0%,0%)" r="0.7" /><circle cx="261.501673672" cy="400.298419066" fill="rgb(100%,0%,0%)" r="0.7" /><circle cx="261.486032739" cy="403.298378293" fill="rgb(100%,0%,0%)" r="0.7" /><circle cx="261.470391805" cy="406.298337519" fill="rgb(100%,0%,0%)" r="0.7" /><circle cx="261.454750872" cy="409.298296746" fill="rgb(100%,0%,0%)" r="0.7" /><circle cx="261.439109938" cy="412.298255972" fill="rgb(100%,0%,0%)" r="0.7" /><circle cx="261.423469005" cy="415.298215199" fill="rgb(100%,0%,0%)" r="0.7" /><circle cx="261.407828071" cy="418.298174426" fill="rgb(100%,0%,0%)" r="0.7" /><circle cx="261.407" cy="418.457" fill="rgb(100%,0%,0%)" r="0.7" /><circle cx="309.971066575" cy="335.128647573" fill="rgb(0%,0%,100%)" r="0.7" /><circle cx="312.779381824" cy="336.121685314" fill="rgb(0%,0%,100%)" r="0.7" /><circle cx="315.473072389" cy="337.442303027" fill="rgb(0%,0%,100%)" r="0.7" /><circle cx="318.166762953" cy="338.76292074" fill="rgb(0%,0%,100%)" r="0.7" /><circle cx="320.852250611" cy="340.099244575" fill="rgb(0%,0%,100%)" r="0.7" /><circle cx="323.090665116" cy="342.064046039" fill="rgb(0%,0%,100%)" r="0.7" /><circle cx="324.261519466" cy="344.799252736" fill="rgb(0%,0%,100%)" r="0.7" /><circle cx="324.330108336" cy="347.786291435" fill="rgb(0%,0%,100%)" r="0.7" /><circle cx="323.635520141" cy="350.698891242" fill="rgb(0%,0%,100%)" r="0.7" /><circle cx="322.529671053" cy="353.486533066" fill="rgb(0%,0%,100%)" r="0.7" /><circle cx="321.651733883" cy="356.354513633" fill="rgb(0%,0%,100%)" r="0.7" /><circle cx="320.935583761" cy="359.267537451" fill="rgb(0%,0%,100%)" r="0.7" /><circle cx="320.327733825" cy="362.205184416" fill="rgb(0%,0%,100%)" r="0.7" /><circle cx="319.808864134" cy="365.159857858" fill="rgb(0%,0%,100%)" r="0.7" /><circle cx="319.328362518" cy="368.119312409" fill="rgb(0%,0%,100%)" r="0.7" /><circle cx="318.452949838" cy="370.986297532" fill="rgb(0%,0%,100%)" r="0.7" /><circle cx="317.221439295" cy="373.719995647" fill="rgb(0%,0%,100%)" r="0.7" /><circle cx="315.701972068" cy="376.305299106" fill="rgb(0%,0%,100%)" r="0.7" /><circle cx="313.950458538" cy="378.739781765" fill="rgb(0%,0%,100%)" r="0.7" /><circle cx="312.008882412" cy="381.025821561" fill="rgb(0%,0%,100%)" r="0.7" /><circle cx="309.905500913" cy="383.16404231" fill="rgb(0%,0%,100%)" r="0.7" /><circle cx="307.649375021" cy="385.14012592" fill="rgb(0%,0%,100%)" r="0.7" /><circle cx="305.298219758" cy="387.002946094" fill="rgb(0%,0%,100%)" r="0.7" /><circle cx="302.901944964" cy="388.80786134" fill="rgb(0%,0%,100%)" r="0.7" /><circle cx="300.488463496" cy="390.589739619" fill="rgb(0%,0%,100%)" r="0.7" /><circle cx="298.06587275" cy="392.359225015" fill="rgb(0%,0%,100%)" r="0.7" /><circle cx="295.637391989" cy="394.120610457" fill="rgb(0%,0%,100%)" r="0.7" /><circle cx="293.204673738" cy="395.876149992" fill="rgb(0%,0%,100%)" r="0.7" /><circle cx="290.76871972" cy="397.627184307" fill="rgb(0%,0%,100%)" r="0.7" /><circle cx="288.330166848" cy="399.374602455" fill="rgb(0%,0%,100%)" r="0.7" /><circle cx="285.8894628" cy="401.119017194" fill="rgb(0%,0%,100%)" r="0.7" /><circle cx="283.446932578" cy="402.860871579" fill="rgb(0%,0%,100%)" r="0.7" /><circle cx="281.002815909" cy="404.600498222" fill="rgb(0%,0%,100%)" r="0.7" /><circle cx="278.557292891" cy="406.338151956" fill="rgb(0%,0%,100%)" r="0.7" /><circle cx="276.110508506" cy="408.07402373" fill="rgb(0%,0%,100%)" r="0.7" /><circle cx="273.66256476" cy="409.808265344" fill="rgb(0%,0%,100%)" r="0.7" /><circle cx="271.213553844" cy="411.540976393" fill="rgb(0%,0%,100%)" r="0.7" /><circle cx="268.763499306" cy="413.272248015" fill="rgb(0%,0%,100%)" r="0.7" /><circle cx="266.312447174" cy="415.002087705" fill="rgb(0%,0%,100%)" r="0.7" /><circle cx="263.860345598" cy="416.730458187" fill="rgb(0%,0%,100%)" r="0.7" /><circle cx="261.407" cy="418.457" fill="rgb(0%,0%,100%)" r="0.7" /></svg>