<?xml version="1.0" encoding="utf-8" ?>
<svg baseProfile="full" height="100%" version="1.1" width="100%" xmlns="http://www.w3.org/2000/svg" xmlns:ev="http://www.w3.org/2001/xml-events" xmlns:xlink="http://www.w3.org/1999/xlink"><defs /><circle cx="296.71806013" cy="283.855940806" fill="rgb(100%,0%,0%)" r="0.7" /><circle cx="293.718727298" cy="283.877668557" fill="rgb(100%,0%,0%)" r="0.7" /><circle cx="290.72909675" cy="284.117736095" fill="rgb(100%,0%,0%)" r="0.7" /><circle cx="287.769402628" cy="284.602019031" fill="rgb(100%,0%,0%)" r="0.7" /><circle cx="284.867221629" cy="285.357127043" fill="rgb(100%,0%,0%)" r="0.7" /><circle cx="282.058387152" cy="286.406724759" fill="rgb(100%,0%,0%)" r="0.7" /><circle cx="279.38603329" cy="287.766207956" fill="rgb(100%,0%,0%)" r="0.7" /><circle cx="276.900243983" cy="289.441731017" fill="rgb(100%,0%,0%)" r="0.7" /><circle cx="274.573454112" cy="291.335154881" fill="rgb(100%,0%,0%)" r="0.7" /><circle cx="272.304930937" cy="293.298131712" fill="rgb(100%,0%,0%)" r="0.7" /><circle cx="270.085236865" cy="295.316193616" fill="rgb(100%,0%,0%)" r="0.7" /><circle cx="267.911747596" cy="297.383941617" fill="rgb(100%,0%,0%)" r="0.7" /><circle cx="265.783850238" cy="299.498587486" fill="rgb(100%,0%,0%)" r="0.7" /><circle cx="263.701953582" cy="301.658530012" fill="rgb(100%,0%,0%)" r="0.7" /><circle cx="261.667095463" cy="303.862843866" fill="rgb(100%,0%,0%)" r="0.7" /><circle cx="259.680788667" cy="306.11100881" fill="rgb(100%,0%,0%)" r="0.7" /><circle cx="257.744943043" cy="308.402756012" fill="rgb(100%,0%,0%)" r="0.7" /><circle cx="255.861796511" cy="310.73800429" fill="rgb(100%,0%,0%)" r="0.7" /><circle cx="254.033923619" cy="313.116756834" fill="rgb(100%,0%,0%)" r="0.7" /><circle cx="252.264202616" cy="315.53907486" fill="rgb(100%,0%,0%)" r="0.7" /><circle cx="250.555816973" cy="318.005025435" fill="rgb(100%,0%,0%)" r="0.7" /><circle cx="248.912251035" cy="320.514643587" fill="rgb(100%,0%,0%)" r="0.7" /><circle cx="247.337302008" cy="323.067869648" fill="rgb(100%,0%,0%)" r="0.7" /><circle cx="245.835061404" cy="325.664527957" fill="rgb(100%,0%,0%)" r="0.7" /><circle cx="244.409911388" cy="328.304276378" fill="rgb(100%,0%,0%)" r="0.7" /><circle cx="243.065676974" cy="330.986098752" fill="rgb(100%,0%,0%)" r="0.7" /><circle cx="241.74454307" cy="333.678971135" fill="rgb(100%,0%,0%)" r="0.7" /><circle cx="240.544483733" cy="336.428330954" fill="rgb(100%,0%,0%)" r="0.7" /><circle cx="239.42914031" cy="339.213196136" fill="rgb(100%,0%,0%)" r="0.7" /><circle cx="238.385437052" cy="342.025704152" fill="rgb(100%,0%,0%)" r="0.7" /><circle cx="237.40577592" cy="344.86118203" fill="rgb(100%,0%,0%)" r="0.7" /><circle cx="236.48500769" cy="347.716349655" fill="rgb(100%,0%,0%)" r="0.7" /><circle cx="235.619334542" cy="350.588673115" fill="rgb(100%,0%,0%)" r="0.7" /><circle cx="234.805757658" cy="353.476208792" fill="rgb(100%,0%,0%)" r="0.7" /><circle cx="234.041851358" cy="356.377288445" fill="rgb(100%,0%,0%)" r="0.7" /><circle cx="233.325578734" cy="359.290492101" fill="rgb(100%,0%,0%)" r="0.7" /><circle cx="232.655187441" cy="362.214594873" fill="rgb(100%,0%,0%)" r="0.7" /><circle cx="232.029143472" cy="365.148517768" fill="rgb(100%,0%,0%)" r="0.7" /><circle cx="231.446085639" cy="368.091286969" fill="rgb(100%,0%,0%)" r="0.7" /><circle cx="230.90478832" cy="371.042024321" fill="rgb(100%,0%,0%)" r="0.7" /><circle cx="230.404136077" cy="373.999931499" fill="rgb(100%,0%,0%)" r="0.7" /><circle cx="229.943102468" cy="376.964291203" fill="rgb(100%,0%,0%)" r="0.7" /><circle cx="229.520747236" cy="379.934375609" fill="rgb(100%,0%,0%)" r="0.7" /><circle cx="229.13617941" cy="382.909608305" fill="rgb(100%,0%,0%)" r="0.7" /><circle cx="228.788574317" cy="385.889378889" fill="rgb(100%,0%,0%)" r="0.7" /><circle cx="228.477149686" cy="388.873155082" fill="rgb(100%,0%,0%)" r="0.7" /><circle cx="228.201167624" cy="391.860412987" fill="rgb(100%,0%,0%)" r="0.7" /><circle cx="227.959924549" cy="394.850680033" fill="rgb(100%,0%,0%)" r="0.7" /><circle cx="227.752749582" cy="397.843509985" fill="rgb(100%,0%,0%)" r="0.7" /><circle cx="227.579002324" cy="400.83845376" fill="rgb(100%,0%,0%)" r="0.7" /><circle cx="227.438064749" cy="403.835143313" fill="rgb(100%,0%,0%)" r="0.7" /><circle cx="227.329346455" cy="406.833139553" fill="rgb(100%,0%,0%)" r="0.7" /><circle cx="227.252273394" cy="409.832135664" fill="rgb(100%,0%,0%)" r="0.7" /><circle cx="227.206293603" cy="412.831789358" fill="rgb(100%,0%,0%)" r="0.7" /><circle cx="227.190872779" cy="415.831717155" fill="rgb(100%,0%,0%)" r="0.7" /><circle cx="227.205491708" cy="418.8316681" fill="rgb(100%,0%,0%)" r="0.7" /><circle cx="227.452050199" cy="420.731825807" fill="rgb(100%,0%,0%)" r="0.7" /><circle cx="228.572478161" cy="417.948906264" fill="rgb(100%,0%,0%)" r="0.7" /><circle cx="229.692906123" cy="415.165986722" fill="rgb(100%,0%,0%)" r="0.7" /><circle cx="230.813334085" cy="412.383067179" fill="rgb(100%,0%,0%)" r="0.7" /><circle cx="231.933762047" cy="409.600147636" fill="rgb(100%,0%,0%)" r="0.7" /><circle cx="233.088313204" cy="408.398170202" fill="rgb(100%,0%,0%)" r="0.7" /><circle cx="234.327775322" cy="411.130153667" fill="rgb(100%,0%,0%)" r="0.7" /><circle cx="235.567237441" cy="413.862137133" fill="rgb(100%,0%,0%)" r="0.7" /><circle cx="236.80669956" cy="416.594120598" fill="rgb(100%,0%,0%)" r="0.7" /><circle cx="238.046161679" cy="419.326104064" fill="rgb(100%,0%,0%)" r="0.7" /><circle cx="239.285623797" cy="422.058087529" fill="rgb(100%,0%,0%)" r="0.7" /><circle cx="240.525085916" cy="424.790070995" fill="rgb(100%,0%,0%)" r="0.7" /><circle cx="241.381" cy="426.354" fill="rgb(100%,0%,0%)" r="0.7" /><circle cx="296.71806013" cy="283.855940806" fill="rgb(0%,0%,100%)" r="0.7" /><circle cx="299.712557934" cy="284.02950939" fill="rgb(0%,0%,100%)" r="0.7" /><circle cx="302.691703525" cy="284.379256443" fill="rgb(0%,0%,100%)" r="0.7" /><circle cx="305.647410934" cy="284.890785795" fill="rgb(0%,0%,100%)" r="0.7" /><circle cx="308.57238422" cy="285.556004782" fill="rgb(0%,0%,100%)" r="0.7" /><circle cx="311.456609325" cy="286.379827073" fill="rgb(0%,0%,100%)" r="0.7" /><circle cx="314.120643098" cy="287.718841121" fill="rgb(0%,0%,100%)" r="0.7" /><circle cx="316.421434181" cy="289.635030875" fill="rgb(0%,0%,100%)" r="0.7" /><circle cx="318.070121392" cy="292.119831324" fill="rgb(0%,0%,100%)" r="0.7" /><circle cx="318.424629364" cy="295.063661363" fill="rgb(0%,0%,100%)" r="0.7" /><circle cx="317.346995405" cy="297.839220754" fill="rgb(0%,0%,100%)" r="0.7" /><circle cx="315.178941384" cy="299.839101172" fill="rgb(0%,0%,100%)" r="0.7" /><circle cx="312.287903483" cy="300.5698374" fill="rgb(0%,0%,100%)" r="0.7" /><circle cx="309.307991136" cy="300.333426497" fill="rgb(0%,0%,100%)" r="0.7" /><circle cx="306.311562749" cy="300.28134448" fill="rgb(0%,0%,100%)" r="0.7" /><circle cx="303.311671961" cy="300.255746462" fill="rgb(0%,0%,100%)" r="0.7" /><circle cx="300.314937574" cy="300.378352315" fill="rgb(0%,0%,100%)" r="0.7" /><circle cx="297.33474396" cy="300.716839263" fill="rgb(0%,0%,100%)" r="0.7" /><circle cx="294.38731025" cy="301.272283726" fill="rgb(0%,0%,100%)" r="0.7" /><circle cx="291.489514572" cy="302.045937339" fill="rgb(0%,0%,100%)" r="0.7" /><circle cx="288.658117468" cy="303.035340257" fill="rgb(0%,0%,100%)" r="0.7" /><circle cx="285.909017919" cy="304.234619062" fill="rgb(0%,0%,100%)" r="0.7" /><circle cx="283.25677202" cy="305.635150666" fill="rgb(0%,0%,100%)" r="0.7" /><circle cx="280.714440448" cy="307.226549196" fill="rgb(0%,0%,100%)" r="0.7" /><circle cx="278.294009285" cy="308.997880594" fill="rgb(0%,0%,100%)" r="0.7" /><circle cx="276.007672436" cy="310.939203704" fill="rgb(0%,0%,100%)" r="0.7" /><circle cx="273.871147268" cy="313.044174521" fill="rgb(0%,0%,100%)" r="0.7" /><circle cx="271.917004846" cy="315.318957074" fill="rgb(0%,0%,100%)" r="0.7" /><circle cx="270.045659303" cy="317.66258204" fill="rgb(0%,0%,100%)" r="0.7" /><circle cx="268.237074527" cy="320.055823523" fill="rgb(0%,0%,100%)" r="0.7" /><circle cx="266.529644664" cy="322.522306585" fill="rgb(0%,0%,100%)" r="0.7" /><circle cx="264.917564922" cy="325.05216024" fill="rgb(0%,0%,100%)" r="0.7" /><circle cx="263.395068084" cy="327.636954523" fill="rgb(0%,0%,100%)" r="0.7" /><circle cx="261.9566031" cy="330.26946621" fill="rgb(0%,0%,100%)" r="0.7" /><circle cx="260.59690258" cy="332.943532297" fill="rgb(0%,0%,100%)" r="0.7" /><circle cx="259.311032477" cy="335.653884173" fill="rgb(0%,0%,100%)" r="0.7" /><circle cx="258.094400956" cy="338.3960281" fill="rgb(0%,0%,100%)" r="0.7" /><circle cx="256.942766519" cy="341.16611053" fill="rgb(0%,0%,100%)" r="0.7" /><circle cx="255.852225787" cy="343.960818628" fill="rgb(0%,0%,100%)" r="0.7" /><circle cx="254.819194073" cy="346.777300048" fill="rgb(0%,0%,100%)" r="0.7" /><circle cx="253.840386824" cy="349.613086172" fill="rgb(0%,0%,100%)" r="0.7" /><circle cx="252.912795123" cy="352.46603978" fill="rgb(0%,0%,100%)" r="0.7" /><circle cx="252.033664844" cy="355.334303412" fill="rgb(0%,0%,100%)" r="0.7" /><circle cx="251.200477679" cy="358.216251379" fill="rgb(0%,0%,100%)" r="0.7" /><circle cx="250.410929039" cy="361.110462991" fill="rgb(0%,0%,100%)" r="0.7" /><circle cx="249.66291224" cy="364.015685714" fill="rgb(0%,0%,100%)" r="0.7" /><circle cx="248.954498938" cy="366.930823018" fill="rgb(0%,0%,100%)" r="0.7" /><circle cx="248.28392794" cy="369.854900778" fill="rgb(0%,0%,100%)" r="0.7" /><circle cx="247.649591399" cy="372.787052203" fill="rgb(0%,0%,100%)" r="0.7" /><circle cx="247.050022813" cy="375.726505742" fill="rgb(0%,0%,100%)" r="0.7" /><circle cx="246.48388277" cy="378.672597006" fill="rgb(0%,0%,100%)" r="0.7" /><circle cx="245.949965491" cy="381.624682303" fill="rgb(0%,0%,100%)" r="0.7" /><circle cx="245.44717193" cy="384.582236202" fill="rgb(0%,0%,100%)" r="0.7" /><circle cx="244.974519761" cy="387.544767172" fill="rgb(0%,0%,100%)" r="0.7" /><circle cx="244.531139477" cy="390.511809613" fill="rgb(0%,0%,100%)" r="0.7" /><circle cx="244.116264974" cy="393.482974141" fill="rgb(0%,0%,100%)" r="0.7" /><circle cx="243.729242865" cy="396.457896293" fill="rgb(0%,0%,100%)" r="0.7" /><circle cx="243.369535494" cy="399.436247034" fill="rgb(0%,0%,100%)" r="0.7" /><circle cx="243.036733984" cy="402.417703184" fill="rgb(0%,0%,100%)" r="0.7" /><circle cx="242.730565283" cy="405.40203864" fill="rgb(0%,0%,100%)" r="0.7" /><circle cx="242.450939183" cy="408.388952782" fill="rgb(0%,0%,100%)" r="0.7" /><circle cx="242.197976838" cy="411.378261046" fill="rgb(0%,0%,100%)" r="0.7" /><circle cx="241.972109071" cy="414.36976759" fill="rgb(0%,0%,100%)" r="0.7" /><circle cx="241.774240198" cy="417.363221761" fill="rgb(0%,0%,100%)" r="0.7" /><circle cx="241.606091831" cy="420.35849327" fill="rgb(0%,0%,100%)" r="0.7" /><circle cx="241.471218209" cy="423.355408727" fill="rgb(0%,0%,100%)" r="0.7" /><circle cx="241.381" cy="426.354" fill="rgb(0%,0%,100%)" r="0.7" /></svg>