<?xml version="1.0" encoding="utf-8" ?>
<svg baseProfile="full" height="100%" version="1.1" width="100%" xmlns="http://www.w3.org/2000/svg" xmlns:ev="http://www.w3.org/2001/xml-events" xmlns:xlink="http://www.w3.org/1999/xlink"><defs /><circle cx="313.228565063" cy="245.836724184" fill="rgb(100%,0%,0%)" r="0.7" /><circle cx="310.230139157" cy="245.854845701" fill="rgb(100%,0%,0%)" r="0.7" /><circle cx="307.25588588" cy="246.213189065" fill="rgb(100%,0%,0%)" r="0.7" /><circle cx="304.381590629" cy="247.061115406" fill="rgb(100%,0%,0%)" r="0.7" /><circle cx="301.685819207" cy="248.369278049" fill="rgb(100%,0%,0%)" r="0.7" /><circle cx="299.256702069" cy="250.12312044" fill="rgb(100%,0%,0%)" r="0.7" /><circle cx="297.17361866" cy="252.276678151" fill="rgb(100%,0%,0%)" r="0.7" /><circle cx="295.482893996" cy="254.750890771" fill="rgb(100%,0%,0%)" r="0.7" /><circle cx="294.187546142" cy="257.454010707" fill="rgb(100%,0%,0%)" r="0.7" /><circle cx="293.257453373" cy="260.304204209" fill="rgb(100%,0%,0%)" r="0.7" /><circle cx="292.604324576" cy="263.232237594" fill="rgb(100%,0%,0%)" r="0.7" /><circle cx="291.928162197" cy="266.155073228" fill="rgb(100%,0%,0%)" r="0.7" /><circle cx="291.23496545" cy="269.073860458" fill="rgb(100%,0%,0%)" r="0.7" /><circle cx="290.526620851" cy="271.989050749" fill="rgb(100%,0%,0%)" r="0.7" /><circle cx="289.804097688" cy="274.900729201" fill="rgb(100%,0%,0%)" r="0.7" /><circle cx="289.067901603" cy="277.809022943" fill="rgb(100%,0%,0%)" r="0.7" /><circle cx="288.318335591" cy="280.713843425" fill="rgb(100%,0%,0%)" r="0.7" /><circle cx="287.555500318" cy="283.615240153" fill="rgb(100%,0%,0%)" r="0.7" /><circle cx="286.77941358" cy="286.513118164" fill="rgb(100%,0%,0%)" r="0.7" /><circle cx="285.989995921" cy="289.407398885" fill="rgb(100%,0%,0%)" r="0.7" /><circle cx="285.187104158" cy="292.297954654" fill="rgb(100%,0%,0%)" r="0.7" /><circle cx="284.370517373" cy="295.184694625" fill="rgb(100%,0%,0%)" r="0.7" /><circle cx="283.539982555" cy="298.067422556" fill="rgb(100%,0%,0%)" r="0.7" /><circle cx="282.695165206" cy="300.946021495" fill="rgb(100%,0%,0%)" r="0.7" /><circle cx="281.835706659" cy="303.820258324" fill="rgb(100%,0%,0%)" r="0.7" /><circle cx="280.961172684" cy="306.68995774" fill="rgb(100%,0%,0%)" r="0.7" /><circle cx="280.071088529" cy="309.554877183" fill="rgb(100%,0%,0%)" r="0.7" /><circle cx="279.164925338" cy="312.414743593" fill="rgb(100%,0%,0%)" r="0.7" /><circle cx="278.242087266" cy="315.269280266" fill="rgb(100%,0%,0%)" r="0.7" /><circle cx="277.301924759" cy="318.11814802" fill="rgb(100%,0%,0%)" r="0.7" /><circle cx="276.343710664" cy="320.960998369" fill="rgb(100%,0%,0%)" r="0.7" /><circle cx="275.366647496" cy="323.797426058" fill="rgb(100%,0%,0%)" r="0.7" /><circle cx="274.369854189" cy="326.626979856" fill="rgb(100%,0%,0%)" r="0.7" /><circle cx="273.352357352" cy="329.449153611" fill="rgb(100%,0%,0%)" r="0.7" /><circle cx="272.313080193" cy="332.263377674" fill="rgb(100%,0%,0%)" r="0.7" /><circle cx="271.250828624" cy="335.069010441" fill="rgb(100%,0%,0%)" r="0.7" /><circle cx="270.164277286" cy="337.865321219" fill="rgb(100%,0%,0%)" r="0.7" /><circle cx="269.051950196" cy="340.651476796" fill="rgb(100%,0%,0%)" r="0.7" /><circle cx="267.912198796" cy="343.426521467" fill="rgb(100%,0%,0%)" r="0.7" /><circle cx="266.743168946" cy="346.189367772" fill="rgb(100%,0%,0%)" r="0.7" /><circle cx="265.542784663" cy="348.938728029" fill="rgb(100%,0%,0%)" r="0.7" /><circle cx="264.308690069" cy="351.673120794" fill="rgb(100%,0%,0%)" r="0.7" /><circle cx="263.038213706" cy="354.390792798" fill="rgb(100%,0%,0%)" r="0.7" /><circle cx="261.728299505" cy="357.089677074" fill="rgb(100%,0%,0%)" r="0.7" /><circle cx="260.375451457" cy="359.767272761" fill="rgb(100%,0%,0%)" r="0.7" /><circle cx="258.975603648" cy="362.420611385" fill="rgb(100%,0%,0%)" r="0.7" /><circle cx="257.524055893" cy="365.046008327" fill="rgb(100%,0%,0%)" r="0.7" /><circle cx="256.015299022" cy="367.63892088" fill="rgb(100%,0%,0%)" r="0.7" /><circle cx="254.442811961" cy="370.193695685" fill="rgb(100%,0%,0%)" r="0.7" /><circle cx="253.462395452" cy="372.113150701" fill="rgb(100%,0%,0%)" r="0.7" /><circle cx="256.129375313" cy="370.739390016" fill="rgb(100%,0%,0%)" r="0.7" /><circle cx="258.796355174" cy="369.365629331" fill="rgb(100%,0%,0%)" r="0.7" /><circle cx="261.463335036" cy="367.991868647" fill="rgb(100%,0%,0%)" r="0.7" /><circle cx="264.130314897" cy="366.618107962" fill="rgb(100%,0%,0%)" r="0.7" /><circle cx="266.369279679" cy="366.554559357" fill="rgb(100%,0%,0%)" r="0.7" /><circle cx="267.710920465" cy="369.23784093" fill="rgb(100%,0%,0%)" r="0.7" /><circle cx="269.052561252" cy="371.921122503" fill="rgb(100%,0%,0%)" r="0.7" /><circle cx="270.394202038" cy="374.604404076" fill="rgb(100%,0%,0%)" r="0.7" /><circle cx="271.735842825" cy="377.287685649" fill="rgb(100%,0%,0%)" r="0.7" /><circle cx="273.077483611" cy="379.970967222" fill="rgb(100%,0%,0%)" r="0.7" /><circle cx="274.419124398" cy="382.654248795" fill="rgb(100%,0%,0%)" r="0.7" /><circle cx="275.760765184" cy="385.337530368" fill="rgb(100%,0%,0%)" r="0.7" /><circle cx="276.085" cy="385.986" fill="rgb(100%,0%,0%)" r="0.7" /><circle cx="313.228565063" cy="245.836724184" fill="rgb(0%,0%,100%)" r="0.7" /><circle cx="316.200156256" cy="246.224340668" fill="rgb(0%,0%,100%)" r="0.7" /><circle cx="319.048491911" cy="247.148764504" fill="rgb(0%,0%,100%)" r="0.7" /><circle cx="321.610855405" cy="248.6942826" fill="rgb(0%,0%,100%)" r="0.7" /><circle cx="323.706486183" cy="250.829923319" fill="rgb(0%,0%,100%)" r="0.7" /><circle cx="325.242373902" cy="253.399936801" fill="rgb(0%,0%,100%)" r="0.7" /><circle cx="326.244928396" cy="256.223366307" fill="rgb(0%,0%,100%)" r="0.7" /><circle cx="326.794526818" cy="259.170114864" fill="rgb(0%,0%,100%)" r="0.7" /><circle cx="326.962903226" cy="262.16360998" fill="rgb(0%,0%,100%)" r="0.7" /><circle cx="326.809003526" cy="265.158149658" fill="rgb(0%,0%,100%)" r="0.7" /><circle cx="326.617903855" cy="268.151783776" fill="rgb(0%,0%,100%)" r="0.7" /><circle cx="326.292444815" cy="271.133839036" fill="rgb(0%,0%,100%)" r="0.7" /><circle cx="325.853192265" cy="274.101362756" fill="rgb(0%,0%,100%)" r="0.7" /><circle cx="325.316460102" cy="277.05283988" fill="rgb(0%,0%,100%)" r="0.7" /><circle cx="324.695318491" cy="279.987732196" fill="rgb(0%,0%,100%)" r="0.7" /><circle cx="324.00035995" cy="282.906056736" fill="rgb(0%,0%,100%)" r="0.7" /><circle cx="323.240271846" cy="285.808127972" fill="rgb(0%,0%,100%)" r="0.7" /><circle cx="322.422262506" cy="288.694406887" fill="rgb(0%,0%,100%)" r="0.7" /><circle cx="321.552362815" cy="291.565467282" fill="rgb(0%,0%,100%)" r="0.7" /><circle cx="320.63565607" cy="294.421961812" fill="rgb(0%,0%,100%)" r="0.7" /><circle cx="319.676498749" cy="297.264468587" fill="rgb(0%,0%,100%)" r="0.7" /><circle cx="318.67861275" cy="300.093624158" fill="rgb(0%,0%,100%)" r="0.7" /><circle cx="317.645232393" cy="302.90999824" fill="rgb(0%,0%,100%)" r="0.7" /><circle cx="316.57915974" cy="305.714175959" fill="rgb(0%,0%,100%)" r="0.7" /><circle cx="315.482862521" cy="308.506674622" fill="rgb(0%,0%,100%)" r="0.7" /><circle cx="314.358506828" cy="311.288003039" fill="rgb(0%,0%,100%)" r="0.7" /><circle cx="313.208018671" cy="314.05861837" fill="rgb(0%,0%,100%)" r="0.7" /><circle cx="312.033104431" cy="316.818966714" fill="rgb(0%,0%,100%)" r="0.7" /><circle cx="310.835291325" cy="319.569458357" fill="rgb(0%,0%,100%)" r="0.7" /><circle cx="309.615949932" cy="322.310475236" fill="rgb(0%,0%,100%)" r="0.7" /><circle cx="308.376314281" cy="325.042374009" fill="rgb(0%,0%,100%)" r="0.7" /><circle cx="307.117499649" cy="327.765486765" fill="rgb(0%,0%,100%)" r="0.7" /><circle cx="305.840513225" cy="330.480131108" fill="rgb(0%,0%,100%)" r="0.7" /><circle cx="304.5462747" cy="333.18659424" fill="rgb(0%,0%,100%)" r="0.7" /><circle cx="303.235626312" cy="335.885136439" fill="rgb(0%,0%,100%)" r="0.7" /><circle cx="301.909319964" cy="338.576037427" fill="rgb(0%,0%,100%)" r="0.7" /><circle cx="300.568066964" cy="341.2595121" fill="rgb(0%,0%,100%)" r="0.7" /><circle cx="299.21250794" cy="343.935787776" fill="rgb(0%,0%,100%)" r="0.7" /><circle cx="297.843237494" cy="346.605067889" fill="rgb(0%,0%,100%)" r="0.7" /><circle cx="296.460795055" cy="349.267562156" fill="rgb(0%,0%,100%)" r="0.7" /><circle cx="295.065695087" cy="351.923439574" fill="rgb(0%,0%,100%)" r="0.7" /><circle cx="293.658407219" cy="354.572878317" fill="rgb(0%,0%,100%)" r="0.7" /><circle cx="292.2393705" cy="357.216049871" fill="rgb(0%,0%,100%)" r="0.7" /><circle cx="290.809018939" cy="359.853085324" fill="rgb(0%,0%,100%)" r="0.7" /><circle cx="289.367724581" cy="362.484197056" fill="rgb(0%,0%,100%)" r="0.7" /><circle cx="287.915906836" cy="365.109501077" fill="rgb(0%,0%,100%)" r="0.7" /><circle cx="286.453962283" cy="367.729182283" fill="rgb(0%,0%,100%)" r="0.7" /><circle cx="284.982326099" cy="370.343443062" fill="rgb(0%,0%,100%)" r="0.7" /><circle cx="283.501529464" cy="372.952513988" fill="rgb(0%,0%,100%)" r="0.7" /><circle cx="282.01227196" cy="375.556757876" fill="rgb(0%,0%,100%)" r="0.7" /><circle cx="280.515680579" cy="378.156763346" fill="rgb(0%,0%,100%)" r="0.7" /><circle cx="279.013918784" cy="380.753871256" fill="rgb(0%,0%,100%)" r="0.7" /><circle cx="277.513225107" cy="383.351546122" fill="rgb(0%,0%,100%)" r="0.7" /><circle cx="276.085" cy="385.986" fill="rgb(0%,0%,100%)" r="0.7" /></svg>