<?xml version="1.0" encoding="utf-8" ?>
<svg baseProfile="full" height="100%" version="1.1" width="100%" xmlns="http://www.w3.org/2000/svg" xmlns:ev="http://www.w3.org/2001/xml-events" xmlns:xlink="http://www.w3.org/1999/xlink"><defs /><circle cx="328.462629645" cy="329.47402976" fill="rgb(100%,0%,0%)" r="0.7" /><circle cx="325.467502826" cy="329.570489235" fill="rgb(100%,0%,0%)" r="0.7" /><circle cx="322.510601434" cy="330.067884361" fill="rgb(100%,0%,0%)" r="0.7" /><circle cx="319.617065731" cy="330.856156032" fill="rgb(100%,0%,0%)" r="0.7" /><circle cx="316.80496332" cy="331.898197346" fill="rgb(100%,0%,0%)" r="0.7" /><circle cx="314.132624069" cy="333.254573663" fill="rgb(100%,0%,0%)" r="0.7" /><circle cx="311.987783531" cy="335.303741649" fill="rgb(100%,0%,0%)" r="0.7" /><circle cx="310.65422126" cy="337.98600512" fill="rgb(100%,0%,0%)" r="0.7" /><circle cx="309.690097991" cy="340.825676878" fill="rgb(100%,0%,0%)" r="0.7" /><circle cx="308.943069862" cy="343.730717881" fill="rgb(100%,0%,0%)" r="0.7" /><circle cx="308.344988645" cy="346.670253293" fill="rgb(100%,0%,0%)" r="0.7" /><circle cx="307.857940969" cy="349.63031291" fill="rgb(100%,0%,0%)" r="0.7" /><circle cx="307.458134307" cy="352.603469619" fill="rgb(100%,0%,0%)" r="0.7" /><circle cx="307.129421746" cy="355.585339895" fill="rgb(100%,0%,0%)" r="0.7" /><circle cx="306.774766636" cy="358.564185666" fill="rgb(100%,0%,0%)" r="0.7" /><circle cx="306.35352842" cy="361.534408634" fill="rgb(100%,0%,0%)" r="0.7" /><circle cx="305.882408433" cy="364.497157165" fill="rgb(100%,0%,0%)" r="0.7" /><circle cx="305.365650036" cy="367.452286562" fill="rgb(100%,0%,0%)" r="0.7" /><circle cx="304.804830297" cy="370.399375825" fill="rgb(100%,0%,0%)" r="0.7" /><circle cx="304.200298328" cy="373.337808263" fill="rgb(100%,0%,0%)" r="0.7" /><circle cx="303.551661214" cy="376.266818956" fill="rgb(100%,0%,0%)" r="0.7" /><circle cx="302.857996628" cy="379.185492715" fill="rgb(100%,0%,0%)" r="0.7" /><circle cx="302.117952896" cy="382.092757921" fill="rgb(100%,0%,0%)" r="0.7" /><circle cx="301.329805991" cy="384.987333512" fill="rgb(100%,0%,0%)" r="0.7" /><circle cx="300.491458502" cy="387.867775321" fill="rgb(100%,0%,0%)" r="0.7" /><circle cx="299.60046025" cy="390.732362631" fill="rgb(100%,0%,0%)" r="0.7" /><circle cx="298.653983548" cy="393.579097314" fill="rgb(100%,0%,0%)" r="0.7" /><circle cx="297.648806672" cy="396.40562767" fill="rgb(100%,0%,0%)" r="0.7" /><circle cx="296.581277704" cy="399.209195791" fill="rgb(100%,0%,0%)" r="0.7" /><circle cx="295.447283942" cy="401.986533741" fill="rgb(100%,0%,0%)" r="0.7" /><circle cx="294.242209169" cy="404.733762035" fill="rgb(100%,0%,0%)" r="0.7" /><circle cx="292.960893431" cy="407.446251398" fill="rgb(100%,0%,0%)" r="0.7" /><circle cx="291.597595834" cy="410.118453757" fill="rgb(100%,0%,0%)" r="0.7" /><circle cx="290.145970022" cy="412.743691655" fill="rgb(100%,0%,0%)" r="0.7" /><circle cx="288.599066161" cy="415.313898585" fill="rgb(100%,0%,0%)" r="0.7" /><circle cx="286.949369136" cy="417.819322616" fill="rgb(100%,0%,0%)" r="0.7" /><circle cx="285.18893393" cy="420.248146529" fill="rgb(100%,0%,0%)" r="0.7" /><circle cx="285.774753603" cy="420.12450208" fill="rgb(100%,0%,0%)" r="0.7" /><circle cx="288.095044349" cy="418.222857829" fill="rgb(100%,0%,0%)" r="0.7" /><circle cx="290.415335094" cy="416.321213578" fill="rgb(100%,0%,0%)" r="0.7" /><circle cx="292.73562584" cy="414.419569327" fill="rgb(100%,0%,0%)" r="0.7" /><circle cx="295.055916585" cy="412.517925077" fill="rgb(100%,0%,0%)" r="0.7" /><circle cx="297.376207331" cy="410.616280826" fill="rgb(100%,0%,0%)" r="0.7" /><circle cx="299.696498076" cy="408.714636575" fill="rgb(100%,0%,0%)" r="0.7" /><circle cx="302.016788822" cy="406.812992324" fill="rgb(100%,0%,0%)" r="0.7" /><circle cx="303.473044605" cy="407.671846173" fill="rgb(100%,0%,0%)" r="0.7" /><circle cx="304.29505948" cy="410.55703101" fill="rgb(100%,0%,0%)" r="0.7" /><circle cx="305.117074356" cy="413.442215847" fill="rgb(100%,0%,0%)" r="0.7" /><circle cx="305.939089232" cy="416.327400684" fill="rgb(100%,0%,0%)" r="0.7" /><circle cx="306.761104108" cy="419.212585521" fill="rgb(100%,0%,0%)" r="0.7" /><circle cx="307.583118983" cy="422.097770359" fill="rgb(100%,0%,0%)" r="0.7" /><circle cx="308.405133859" cy="424.982955196" fill="rgb(100%,0%,0%)" r="0.7" /><circle cx="309.114" cy="427.471" fill="rgb(100%,0%,0%)" r="0.7" /><circle cx="328.462629645" cy="329.47402976" fill="rgb(0%,0%,100%)" r="0.7" /><circle cx="331.404207949" cy="330.012620247" fill="rgb(0%,0%,100%)" r="0.7" /><circle cx="333.933627304" cy="331.572749686" fill="rgb(0%,0%,100%)" r="0.7" /><circle cx="335.447570567" cy="334.125615191" fill="rgb(0%,0%,100%)" r="0.7" /><circle cx="335.278632631" cy="337.074459103" fill="rgb(0%,0%,100%)" r="0.7" /><circle cx="333.746879305" cy="339.635890909" fill="rgb(0%,0%,100%)" r="0.7" /><circle cx="331.569680289" cy="341.690247224" fill="rgb(0%,0%,100%)" r="0.7" /><circle cx="329.677660012" cy="344.007516822" fill="rgb(0%,0%,100%)" r="0.7" /><circle cx="328.434141797" cy="346.729260927" fill="rgb(0%,0%,100%)" r="0.7" /><circle cx="327.84095033" cy="349.664418612" fill="rgb(0%,0%,100%)" r="0.7" /><circle cx="327.820395672" cy="352.660383524" fill="rgb(0%,0%,100%)" r="0.7" /><circle cx="328.295689329" cy="355.619995565" fill="rgb(0%,0%,100%)" r="0.7" /><circle cx="328.60125699" cy="358.602777927" fill="rgb(0%,0%,100%)" r="0.7" /><circle cx="328.624798118" cy="361.60192104" fill="rgb(0%,0%,100%)" r="0.7" /><circle cx="328.448645605" cy="364.596358291" fill="rgb(0%,0%,100%)" r="0.7" /><circle cx="328.123615454" cy="367.578445936" fill="rgb(0%,0%,100%)" r="0.7" /><circle cx="327.682891525" cy="370.545753454" fill="rgb(0%,0%,100%)" r="0.7" /><circle cx="327.149268005" cy="373.497805461" fill="rgb(0%,0%,100%)" r="0.7" /><circle cx="326.539050173" cy="376.435026398" fill="rgb(0%,0%,100%)" r="0.7" /><circle cx="325.864319859" cy="379.358107962" fill="rgb(0%,0%,100%)" r="0.7" /><circle cx="325.134266145" cy="382.267886614" fill="rgb(0%,0%,100%)" r="0.7" /><circle cx="324.356053664" cy="385.16516055" fill="rgb(0%,0%,100%)" r="0.7" /><circle cx="323.535365306" cy="388.050699582" fill="rgb(0%,0%,100%)" r="0.7" /><circle cx="322.676784896" cy="390.925196421" fill="rgb(0%,0%,100%)" r="0.7" /><circle cx="321.784053259" cy="393.789275228" fill="rgb(0%,0%,100%)" r="0.7" /><circle cx="320.860254135" cy="396.643484856" fill="rgb(0%,0%,100%)" r="0.7" /><circle cx="319.907942131" cy="399.488313977" fill="rgb(0%,0%,100%)" r="0.7" /><circle cx="318.929246869" cy="402.324167539" fill="rgb(0%,0%,100%)" r="0.7" /><circle cx="317.925923872" cy="405.151419283" fill="rgb(0%,0%,100%)" r="0.7" /><circle cx="316.899431533" cy="407.970325108" fill="rgb(0%,0%,100%)" r="0.7" /><circle cx="315.850919361" cy="410.781129721" fill="rgb(0%,0%,100%)" r="0.7" /><circle cx="314.781270733" cy="413.583958036" fill="rgb(0%,0%,100%)" r="0.7" /><circle cx="313.691064084" cy="416.378845614" fill="rgb(0%,0%,100%)" r="0.7" /><circle cx="312.580500026" cy="419.165703644" fill="rgb(0%,0%,100%)" r="0.7" /><circle cx="311.449216648" cy="421.944224712" fill="rgb(0%,0%,100%)" r="0.7" /><circle cx="310.295735193" cy="424.713606852" fill="rgb(0%,0%,100%)" r="0.7" /><circle cx="309.114" cy="427.471" fill="rgb(0%,0%,100%)" r="0.7" /></svg>