<?xml version="1.0" encoding="utf-8" ?>
<svg baseProfile="full" height="100%" version="1.1" width="100%" xmlns="http://www.w3.org/2000/svg" xmlns:ev="http://www.w3.org/2001/xml-events" xmlns:xlink="http://www.w3.org/1999/xlink"><defs /><circle cx="311.294804707" cy="304.639154002" fill="rgb(100%,0%,0%)" r="0.7" /><circle cx="308.390107024" cy="305.338653618" fill="rgb(100%,0%,0%)" r="0.7" /><circle cx="305.741833528" cy="306.738032527" fill="rgb(100%,0%,0%)" r="0.7" /><circle cx="303.338122854" cy="308.529149237" fill="rgb(100%,0%,0%)" r="0.7" /><circle cx="301.058026852" cy="310.462492835" fill="rgb(100%,0%,0%)" r="0.7" /><circle cx="299.276112882" cy="312.870059232" fill="rgb(100%,0%,0%)" r="0.7" /><circle cx="297.944795236" cy="315.554876989" fill="rgb(100%,0%,0%)" r="0.7" /><circle cx="297.02049949" cy="318.406587858" fill="rgb(100%,0%,0%)" r="0.7" /><circle cx="296.451192602" cy="321.350487225" fill="rgb(100%,0%,0%)" r="0.7" /><circle cx="296.073821899" cy="324.325000034" fill="rgb(100%,0%,0%)" r="0.7" /><circle cx="296.096263673" cy="327.322156945" fill="rgb(100%,0%,0%)" r="0.7" /><circle cx="296.564565808" cy="330.282445363" fill="rgb(100%,0%,0%)" r="0.7" /><circle cx="296.446412982" cy="333.27119194" fill="rgb(100%,0%,0%)" r="0.7" /><circle cx="296.193873723" cy="336.260472128" fill="rgb(100%,0%,0%)" r="0.7" /><circle cx="295.861071158" cy="339.241841822" fill="rgb(100%,0%,0%)" r="0.7" /><circle cx="295.419613" cy="342.208936213" fill="rgb(100%,0%,0%)" r="0.7" /><circle cx="294.802803013" cy="345.144031006" fill="rgb(100%,0%,0%)" r="0.7" /><circle cx="293.796" cy="347.963" fill="rgb(100%,0%,0%)" r="0.7" /><circle cx="293.988651906" cy="347.905758556" fill="rgb(100%,0%,0%)" r="0.7" /><circle cx="296.864397318" cy="347.051306492" fill="rgb(100%,0%,0%)" r="0.7" /><circle cx="299.740142729" cy="346.196854428" fill="rgb(100%,0%,0%)" r="0.7" /><circle cx="302.61588814" cy="345.342402364" fill="rgb(100%,0%,0%)" r="0.7" /><circle cx="304.919267233" cy="345.987664632" fill="rgb(100%,0%,0%)" r="0.7" /><circle cx="306.494494173" cy="348.540831311" fill="rgb(100%,0%,0%)" r="0.7" /><circle cx="308.069721112" cy="351.09399799" fill="rgb(100%,0%,0%)" r="0.7" /><circle cx="309.644948051" cy="353.647164669" fill="rgb(100%,0%,0%)" r="0.7" /><circle cx="311.220174991" cy="356.200331347" fill="rgb(100%,0%,0%)" r="0.7" /><circle cx="312.902317577" cy="357.548333867" fill="rgb(100%,0%,0%)" r="0.7" /><circle cx="311.294804707" cy="304.639154002" fill="rgb(0%,0%,100%)" r="0.7" /><circle cx="314.236936583" cy="305.078212619" fill="rgb(0%,0%,100%)" r="0.7" /><circle cx="316.638735996" cy="306.819321555" fill="rgb(0%,0%,100%)" r="0.7" /><circle cx="318.185846596" cy="309.257348897" fill="rgb(0%,0%,100%)" r="0.7" /><circle cx="318.595253086" cy="312.225357599" fill="rgb(0%,0%,100%)" r="0.7" /><circle cx="318.638326912" cy="315.22406281" fill="rgb(0%,0%,100%)" r="0.7" /><circle cx="318.789241253" cy="318.210402745" fill="rgb(0%,0%,100%)" r="0.7" /><circle cx="318.470317609" cy="321.189569624" fill="rgb(0%,0%,100%)" r="0.7" /><circle cx="317.742188001" cy="324.098237923" fill="rgb(0%,0%,100%)" r="0.7" /><circle cx="316.622103807" cy="326.867842406" fill="rgb(0%,0%,100%)" r="0.7" /><circle cx="316.396724846" cy="329.84282251" fill="rgb(0%,0%,100%)" r="0.7" /><circle cx="316.938850605" cy="332.708619165" fill="rgb(0%,0%,100%)" r="0.7" /><circle cx="318.3353439" cy="335.305890244" fill="rgb(0%,0%,100%)" r="0.7" /><circle cx="319.06964416" cy="338.211263365" fill="rgb(0%,0%,100%)" r="0.7" /><circle cx="319.354862201" cy="341.194996729" fill="rgb(0%,0%,100%)" r="0.7" /><circle cx="319.208795014" cy="344.188902027" fill="rgb(0%,0%,100%)" r="0.7" /><circle cx="318.644489745" cy="347.132905006" fill="rgb(0%,0%,100%)" r="0.7" /><circle cx="317.687794213" cy="349.973980143" fill="rgb(0%,0%,100%)" r="0.7" /><circle cx="316.378900378" cy="352.6713325" fill="rgb(0%,0%,100%)" r="0.7" /><circle cx="314.766864182" cy="355.199627144" fill="rgb(0%,0%,100%)" r="0.7" /><circle cx="312.902317577" cy="357.548333867" fill="rgb(0%,0%,100%)" r="0.7" /></svg>