<?xml version="1.0" encoding="utf-8" ?>
<svg baseProfile="full" height="100%" version="1.1" width="100%" xmlns="http://www.w3.org/2000/svg" xmlns:ev="http://www.w3.org/2001/xml-events" xmlns:xlink="http://www.w3.org/1999/xlink"><defs /><circle cx="255.230946565" cy="304.665814427" fill="rgb(100%,0%,0%)" r="0.7" /><circle cx="252.237127921" cy="304.837672882" fill="rgb(100%,0%,0%)" r="0.7" /><circle cx="249.240335672" cy="304.937365467" fill="rgb(100%,0%,0%)" r="0.7" /><circle cx="246.267577489" cy="305.332352415" fill="rgb(100%,0%,0%)" r="0.7" /><circle cx="243.348000106" cy="306.016530538" fill="rgb(100%,0%,0%)" r="0.7" /><circle cx="240.522197949" cy="307.018652514" fill="rgb(100%,0%,0%)" r="0.7" /><circle cx="237.849382669" cy="308.375658528" fill="rgb(100%,0%,0%)" r="0.7" /><circle cx="235.410600197" cy="310.117186004" fill="rgb(100%,0%,0%)" r="0.7" /><circle cx="233.301366359" cy="312.24500907" fill="rgb(100%,0%,0%)" r="0.7" /><circle cx="231.607054059" cy="314.715804794" fill="rgb(100%,0%,0%)" r="0.7" /><circle cx="230.434342987" cy="317.46797306" fill="rgb(100%,0%,0%)" r="0.7" /><circle cx="229.279608157" cy="320.235920732" fill="rgb(100%,0%,0%)" r="0.7" /><circle cx="227.948250336" cy="322.923926604" fill="rgb(100%,0%,0%)" r="0.7" /><circle cx="226.496972509" cy="325.549321765" fill="rgb(100%,0%,0%)" r="0.7" /><circle cx="224.952733448" cy="328.121194441" fill="rgb(100%,0%,0%)" r="0.7" /><circle cx="223.332141757" cy="330.645691399" fill="rgb(100%,0%,0%)" r="0.7" /><circle cx="221.646698593" cy="333.127387754" fill="rgb(100%,0%,0%)" r="0.7" /><circle cx="219.904922506" cy="335.569899664" fill="rgb(100%,0%,0%)" r="0.7" /><circle cx="218.113425785" cy="337.976177348" fill="rgb(100%,0%,0%)" r="0.7" /><circle cx="216.277464816" cy="340.348751727" fill="rgb(100%,0%,0%)" r="0.7" /><circle cx="214.401400261" cy="342.68972754" fill="rgb(100%,0%,0%)" r="0.7" /><circle cx="212.488842615" cy="345.000984725" fill="rgb(100%,0%,0%)" r="0.7" /><circle cx="210.542849471" cy="347.284186955" fill="rgb(100%,0%,0%)" r="0.7" /><circle cx="208.566086549" cy="349.540771054" fill="rgb(100%,0%,0%)" r="0.7" /><circle cx="206.560811261" cy="351.772094746" fill="rgb(100%,0%,0%)" r="0.7" /><circle cx="204.529053755" cy="353.979325788" fill="rgb(100%,0%,0%)" r="0.7" /><circle cx="202.472576352" cy="356.16356167" fill="rgb(100%,0%,0%)" r="0.7" /><circle cx="200.392975707" cy="358.325774543" fill="rgb(100%,0%,0%)" r="0.7" /><circle cx="198.291659738" cy="360.466880327" fill="rgb(100%,0%,0%)" r="0.7" /><circle cx="196.1698723" cy="362.587745902" fill="rgb(100%,0%,0%)" r="0.7" /><circle cx="194.028808073" cy="364.689102976" fill="rgb(100%,0%,0%)" r="0.7" /><circle cx="191.869478437" cy="366.77170516" fill="rgb(100%,0%,0%)" r="0.7" /><circle cx="189.6928331" cy="368.836225683" fill="rgb(100%,0%,0%)" r="0.7" /><circle cx="187.499774013" cy="370.883262581" fill="rgb(100%,0%,0%)" r="0.7" /><circle cx="185.291073364" cy="372.913428889" fill="rgb(100%,0%,0%)" r="0.7" /><circle cx="183.0674715" cy="374.927271606" fill="rgb(100%,0%,0%)" r="0.7" /><circle cx="180.829653465" cy="376.925304115" fill="rgb(100%,0%,0%)" r="0.7" /><circle cx="178.578240695" cy="378.908021608" fill="rgb(100%,0%,0%)" r="0.7" /><circle cx="176.313829976" cy="380.875873692" fill="rgb(100%,0%,0%)" r="0.7" /><circle cx="174.036983544" cy="382.829280085" fill="rgb(100%,0%,0%)" r="0.7" /><circle cx="171.748154637" cy="384.768698902" fill="rgb(100%,0%,0%)" r="0.7" /><circle cx="169.447873629" cy="386.694472747" fill="rgb(100%,0%,0%)" r="0.7" /><circle cx="167.136534828" cy="388.607013731" fill="rgb(100%,0%,0%)" r="0.7" /><circle cx="164.814621857" cy="390.506618674" fill="rgb(100%,0%,0%)" r="0.7" /><circle cx="162.48242738" cy="392.39370323" fill="rgb(100%,0%,0%)" r="0.7" /><circle cx="160.140423979" cy="394.268502177" fill="rgb(100%,0%,0%)" r="0.7" /><circle cx="157.7888849" cy="396.131379496" fill="rgb(100%,0%,0%)" r="0.7" /><circle cx="158.078646421" cy="396.901752272" fill="rgb(100%,0%,0%)" r="0.7" /><circle cx="161.060307875" cy="396.570549957" fill="rgb(100%,0%,0%)" r="0.7" /><circle cx="164.041969329" cy="396.239347642" fill="rgb(100%,0%,0%)" r="0.7" /><circle cx="167.023630783" cy="395.908145326" fill="rgb(100%,0%,0%)" r="0.7" /><circle cx="168.511183906" cy="398.358313725" fill="rgb(100%,0%,0%)" r="0.7" /><circle cx="169.881248309" cy="401.027194302" fill="rgb(100%,0%,0%)" r="0.7" /><circle cx="171.251312712" cy="403.696074878" fill="rgb(100%,0%,0%)" r="0.7" /><circle cx="172.621377115" cy="406.364955455" fill="rgb(100%,0%,0%)" r="0.7" /><circle cx="172.856" cy="406.822" fill="rgb(100%,0%,0%)" r="0.7" /><circle cx="255.230946565" cy="304.665814427" fill="rgb(0%,0%,100%)" r="0.7" /><circle cx="258.229366253" cy="304.721884962" fill="rgb(0%,0%,100%)" r="0.7" /><circle cx="261.205184652" cy="305.088274011" fill="rgb(0%,0%,100%)" r="0.7" /><circle cx="264.104338759" cy="305.848229343" fill="rgb(0%,0%,100%)" r="0.7" /><circle cx="266.825264014" cy="307.099950007" fill="rgb(0%,0%,100%)" r="0.7" /><circle cx="269.188628211" cy="308.933942672" fill="rgb(0%,0%,100%)" r="0.7" /><circle cx="270.762034281" cy="311.433406281" fill="rgb(0%,0%,100%)" r="0.7" /><circle cx="270.829931776" cy="314.422037713" fill="rgb(0%,0%,100%)" r="0.7" /><circle cx="269.894563326" cy="317.253183614" fill="rgb(0%,0%,100%)" r="0.7" /><circle cx="267.980737811" cy="319.543351987" fill="rgb(0%,0%,100%)" r="0.7" /><circle cx="265.471793181" cy="321.174411467" fill="rgb(0%,0%,100%)" r="0.7" /><circle cx="262.683839225" cy="322.273214357" fill="rgb(0%,0%,100%)" r="0.7" /><circle cx="259.769653925" cy="322.978395625" fill="rgb(0%,0%,100%)" r="0.7" /><circle cx="256.797056749" cy="323.374266656" fill="rgb(0%,0%,100%)" r="0.7" /><circle cx="253.828542974" cy="323.721863691" fill="rgb(0%,0%,100%)" r="0.7" /><circle cx="251.209562618" cy="325.149225969" fill="rgb(0%,0%,100%)" r="0.7" /><circle cx="249.132476471" cy="327.30359098" fill="rgb(0%,0%,100%)" r="0.7" /><circle cx="247.543344799" cy="329.843061747" fill="rgb(0%,0%,100%)" r="0.7" /><circle cx="246.091849916" cy="332.467166721" fill="rgb(0%,0%,100%)" r="0.7" /><circle cx="244.546856686" cy="335.0386493" fill="rgb(0%,0%,100%)" r="0.7" /><circle cx="242.93989341" cy="337.571877367" fill="rgb(0%,0%,100%)" r="0.7" /><circle cx="241.276506838" cy="340.068439983" fill="rgb(0%,0%,100%)" r="0.7" /><circle cx="239.56157514" cy="342.529880597" fill="rgb(0%,0%,100%)" r="0.7" /><circle cx="237.799373893" cy="344.957718006" fill="rgb(0%,0%,100%)" r="0.7" /><circle cx="235.993683632" cy="347.353393714" fill="rgb(0%,0%,100%)" r="0.7" /><circle cx="234.147847336" cy="349.718281182" fill="rgb(0%,0%,100%)" r="0.7" /><circle cx="232.264831422" cy="352.053678641" fill="rgb(0%,0%,100%)" r="0.7" /><circle cx="230.347276968" cy="354.36080634" fill="rgb(0%,0%,100%)" r="0.7" /><circle cx="228.397542649" cy="356.640806744" fill="rgb(0%,0%,100%)" r="0.7" /><circle cx="226.417738541" cy="358.894749091" fill="rgb(0%,0%,100%)" r="0.7" /><circle cx="224.409758294" cy="361.123630105" fill="rgb(0%,0%,100%)" r="0.7" /><circle cx="222.375306119" cy="363.328376061" fill="rgb(0%,0%,100%)" r="0.7" /><circle cx="220.315916903" cy="365.509848237" fill="rgb(0%,0%,100%)" r="0.7" /><circle cx="218.232975059" cy="367.668845978" fill="rgb(0%,0%,100%)" r="0.7" /><circle cx="216.127731731" cy="369.806108425" fill="rgb(0%,0%,100%)" r="0.7" /><circle cx="214.001321562" cy="371.922314212" fill="rgb(0%,0%,100%)" r="0.7" /><circle cx="211.854776034" cy="374.018082426" fill="rgb(0%,0%,100%)" r="0.7" /><circle cx="209.689011412" cy="376.093995673" fill="rgb(0%,0%,100%)" r="0.7" /><circle cx="207.504875371" cy="378.150564114" fill="rgb(0%,0%,100%)" r="0.7" /><circle cx="205.303109261" cy="380.188268788" fill="rgb(0%,0%,100%)" r="0.7" /><circle cx="203.084411421" cy="382.207507458" fill="rgb(0%,0%,100%)" r="0.7" /><circle cx="200.849376886" cy="384.208653355" fill="rgb(0%,0%,100%)" r="0.7" /><circle cx="198.598543358" cy="386.1920129" fill="rgb(0%,0%,100%)" r="0.7" /><circle cx="196.332379" cy="388.157834245" fill="rgb(0%,0%,100%)" r="0.7" /><circle cx="194.051279777" cy="390.106302728" fill="rgb(0%,0%,100%)" r="0.7" /><circle cx="191.755561137" cy="392.03753551" fill="rgb(0%,0%,100%)" r="0.7" /><circle cx="189.445486361" cy="393.951537728" fill="rgb(0%,0%,100%)" r="0.7" /><circle cx="187.121155702" cy="395.848261375" fill="rgb(0%,0%,100%)" r="0.7" /><circle cx="184.782634566" cy="397.727444614" fill="rgb(0%,0%,100%)" r="0.7" /><circle cx="182.429791979" cy="399.588649394" fill="rgb(0%,0%,100%)" r="0.7" /><circle cx="180.062270537" cy="401.431103744" fill="rgb(0%,0%,100%)" r="0.7" /><circle cx="177.679221224" cy="403.253515484" fill="rgb(0%,0%,100%)" r="0.7" /><circle cx="175.279012066" cy="405.053199008" fill="rgb(0%,0%,100%)" r="0.7" /><circle cx="172.856" cy="406.822" fill="rgb(0%,0%,100%)" r="0.7" /></svg>