<?xml version="1.0" encoding="utf-8" ?>
<svg baseProfile="full" height="100%" version="1.1" width="100%" xmlns="http://www.w3.org/2000/svg" xmlns:ev="http://www.w3.org/2001/xml-events" xmlns:xlink="http://www.w3.org/1999/xlink"><defs /><circle cx="287.85195037" cy="358.769543348" fill="rgb(100%,0%,0%)" r="0.7" /><circle cx="284.873596373" cy="359.077497177" fill="rgb(100%,0%,0%)" r="0.7" /><circle cx="281.996152674" cy="359.915194638" fill="rgb(100%,0%,0%)" r="0.7" /><circle cx="279.271209446" cy="361.146196261" fill="rgb(100%,0%,0%)" r="0.7" /><circle cx="277.055585477" cy="363.153556074" fill="rgb(100%,0%,0%)" r="0.7" /><circle cx="275.360084893" cy="365.623259012" fill="rgb(100%,0%,0%)" r="0.7" /><circle cx="274.060642672" cy="368.325027708" fill="rgb(100%,0%,0%)" r="0.7" /><circle cx="273.06104514" cy="371.152430262" fill="rgb(100%,0%,0%)" r="0.7" /><circle cx="272.308645016" cy="374.05569556" fill="rgb(100%,0%,0%)" r="0.7" /><circle cx="271.578158013" cy="376.959448947" fill="rgb(100%,0%,0%)" r="0.7" /><circle cx="270.665885119" cy="379.817377947" fill="rgb(100%,0%,0%)" r="0.7" /><circle cx="269.753612225" cy="382.675306946" fill="rgb(100%,0%,0%)" r="0.7" /><circle cx="268.961321015" cy="385.566669875" fill="rgb(100%,0%,0%)" r="0.7" /><circle cx="268.414085114" cy="388.515797426" fill="rgb(100%,0%,0%)" r="0.7" /><circle cx="268.051502919" cy="391.493356933" fill="rgb(100%,0%,0%)" r="0.7" /><circle cx="267.86047921" cy="394.486886733" fill="rgb(100%,0%,0%)" r="0.7" /><circle cx="267.831070824" cy="397.486396362" fill="rgb(100%,0%,0%)" r="0.7" /><circle cx="267.958362936" cy="400.483353336" fill="rgb(100%,0%,0%)" r="0.7" /><circle cx="268.248661164" cy="403.468849854" fill="rgb(100%,0%,0%)" r="0.7" /><circle cx="268.677905258" cy="406.437038623" fill="rgb(100%,0%,0%)" r="0.7" /><circle cx="269.370795071" cy="409.355043724" fill="rgb(100%,0%,0%)" r="0.7" /><circle cx="270.226865464" cy="412.230131455" fill="rgb(100%,0%,0%)" r="0.7" /><circle cx="271.167295488" cy="415.078849684" fill="rgb(100%,0%,0%)" r="0.7" /><circle cx="272.161567792" cy="417.909262799" fill="rgb(100%,0%,0%)" r="0.7" /><circle cx="273.194132951" cy="420.725953892" fill="rgb(100%,0%,0%)" r="0.7" /><circle cx="274.255816702" cy="423.531796962" fill="rgb(100%,0%,0%)" r="0.7" /><circle cx="275.340698668" cy="426.328759025" fill="rgb(100%,0%,0%)" r="0.7" /><circle cx="276.444703675" cy="429.118231808" fill="rgb(100%,0%,0%)" r="0.7" /><circle cx="277.564901439" cy="431.901242687" fill="rgb(100%,0%,0%)" r="0.7" /><circle cx="278.699117519" cy="434.678570553" fill="rgb(100%,0%,0%)" r="0.7" /><circle cx="279.845703876" cy="437.450815178" fill="rgb(100%,0%,0%)" r="0.7" /><circle cx="281.003396727" cy="440.218436289" fill="rgb(100%,0%,0%)" r="0.7" /><circle cx="282.171238826" cy="442.981799752" fill="rgb(100%,0%,0%)" r="0.7" /><circle cx="283.348515506" cy="445.741152552" fill="rgb(100%,0%,0%)" r="0.7" /><circle cx="284.534759434" cy="448.496663109" fill="rgb(100%,0%,0%)" r="0.7" /><circle cx="285.729776776" cy="451.248363986" fill="rgb(100%,0%,0%)" r="0.7" /><circle cx="286.933856738" cy="453.996120026" fill="rgb(100%,0%,0%)" r="0.7" /><circle cx="288.149" cy="456.739" fill="rgb(100%,0%,0%)" r="0.7" /><circle cx="287.85195037" cy="358.769543348" fill="rgb(0%,0%,100%)" r="0.7" /><circle cx="290.788816954" cy="359.296837529" fill="rgb(0%,0%,100%)" r="0.7" /><circle cx="293.200297355" cy="361.02614041" fill="rgb(0%,0%,100%)" r="0.7" /><circle cx="294.860282296" cy="363.522742004" fill="rgb(0%,0%,100%)" r="0.7" /><circle cx="296.300231171" cy="366.153142481" fill="rgb(0%,0%,100%)" r="0.7" /><circle cx="297.353919204" cy="368.956518336" fill="rgb(0%,0%,100%)" r="0.7" /><circle cx="296.90674044" cy="371.776432833" fill="rgb(0%,0%,100%)" r="0.7" /><circle cx="295.116561717" cy="374.180992321" fill="rgb(0%,0%,100%)" r="0.7" /><circle cx="293.09299088" cy="376.394744091" fill="rgb(0%,0%,100%)" r="0.7" /><circle cx="290.929503527" cy="378.472496124" fill="rgb(0%,0%,100%)" r="0.7" /><circle cx="289.002307829" cy="380.768723695" fill="rgb(0%,0%,100%)" r="0.7" /><circle cx="287.238677593" cy="383.195061707" fill="rgb(0%,0%,100%)" r="0.7" /><circle cx="285.61854733" cy="385.719455836" fill="rgb(0%,0%,100%)" r="0.7" /><circle cx="284.157689445" cy="388.339133268" fill="rgb(0%,0%,100%)" r="0.7" /><circle cx="282.813795074" cy="391.020464312" fill="rgb(0%,0%,100%)" r="0.7" /><circle cx="281.700280767" cy="393.805151092" fill="rgb(0%,0%,100%)" r="0.7" /><circle cx="280.819208268" cy="396.672024759" fill="rgb(0%,0%,100%)" r="0.7" /><circle cx="280.167846245" cy="399.599653194" fill="rgb(0%,0%,100%)" r="0.7" /><circle cx="279.753524514" cy="402.570071831" fill="rgb(0%,0%,100%)" r="0.7" /><circle cx="279.586129622" cy="405.564510918" fill="rgb(0%,0%,100%)" r="0.7" /><circle cx="279.674702466" cy="408.562266515" fill="rgb(0%,0%,100%)" r="0.7" /><circle cx="280.025035388" cy="411.540756362" fill="rgb(0%,0%,100%)" r="0.7" /><circle cx="280.637888913" cy="414.476481855" fill="rgb(0%,0%,100%)" r="0.7" /><circle cx="281.507987154" cy="417.346520738" fill="rgb(0%,0%,100%)" r="0.7" /><circle cx="282.623979973" cy="420.130237041" fill="rgb(0%,0%,100%)" r="0.7" /><circle cx="283.881553296" cy="422.853925244" fill="rgb(0%,0%,100%)" r="0.7" /><circle cx="285.133923237" cy="425.580010515" fill="rgb(0%,0%,100%)" r="0.7" /><circle cx="286.38056716" cy="428.308730056" fill="rgb(0%,0%,100%)" r="0.7" /><circle cx="287.621357533" cy="431.040106612" fill="rgb(0%,0%,100%)" r="0.7" /><circle cx="288.855774084" cy="433.774372822" fill="rgb(0%,0%,100%)" r="0.7" /><circle cx="290.082944708" cy="436.511900363" fill="rgb(0%,0%,100%)" r="0.7" /><circle cx="291.301565375" cy="439.253244139" fill="rgb(0%,0%,100%)" r="0.7" /><circle cx="292.509687894" cy="441.999229991" fill="rgb(0%,0%,100%)" r="0.7" /><circle cx="293.70427417" cy="444.751131092" fill="rgb(0%,0%,100%)" r="0.7" /><circle cx="294.880187441" cy="447.511048642" fill="rgb(0%,0%,100%)" r="0.7" /><circle cx="296.027503867" cy="450.282979617" fill="rgb(0%,0%,100%)" r="0.7" /><circle cx="297.121253711" cy="453.076387854" fill="rgb(0%,0%,100%)" r="0.7" /><circle cx="296.801553851" cy="454.039351647" fill="rgb(0%,0%,100%)" r="0.7" /><circle cx="294.477441825" cy="452.142379509" fill="rgb(0%,0%,100%)" r="0.7" /><circle cx="292.153329799" cy="450.245407372" fill="rgb(0%,0%,100%)" r="0.7" /><circle cx="289.829217773" cy="448.348435234" fill="rgb(0%,0%,100%)" r="0.7" /><circle cx="288.842990278" cy="449.66765374" fill="rgb(0%,0%,100%)" r="0.7" /><circle cx="288.54997447" cy="452.653309738" fill="rgb(0%,0%,100%)" r="0.7" /><circle cx="288.256958663" cy="455.638965735" fill="rgb(0%,0%,100%)" r="0.7" /><circle cx="288.149" cy="456.739" fill="rgb(0%,0%,100%)" r="0.7" /></svg>