<?xml version="1.0" encoding="utf-8" ?>
<svg baseProfile="full" height="100%" version="1.1" width="100%" xmlns="http://www.w3.org/2000/svg" xmlns:ev="http://www.w3.org/2001/xml-events" xmlns:xlink="http://www.w3.org/1999/xlink"><defs /><circle cx="304.958765249" cy="344.107504873" fill="rgb(100%,0%,0%)" r="0.7" /><circle cx="302.824412337" cy="346.099721466" fill="rgb(100%,0%,0%)" r="0.7" /><circle cx="301.964911027" cy="348.961560082" fill="rgb(100%,0%,0%)" r="0.7" /><circle cx="301.722294846" cy="351.94923926" fill="rgb(100%,0%,0%)" r="0.7" /><circle cx="301.33083547" cy="354.862876795" fill="rgb(100%,0%,0%)" r="0.7" /><circle cx="299.91610184" cy="357.507051396" fill="rgb(100%,0%,0%)" r="0.7" /><circle cx="298.298973682" cy="360.033237402" fill="rgb(100%,0%,0%)" r="0.7" /><circle cx="296.534841202" cy="362.4592848" fill="rgb(100%,0%,0%)" r="0.7" /><circle cx="294.651505801" cy="364.794102509" fill="rgb(100%,0%,0%)" r="0.7" /><circle cx="292.667185338" cy="367.043807108" fill="rgb(100%,0%,0%)" r="0.7" /><circle cx="290.595279561" cy="369.213170802" fill="rgb(100%,0%,0%)" r="0.7" /><circle cx="288.446266611" cy="371.30622726" fill="rgb(100%,0%,0%)" r="0.7" /><circle cx="286.228695703" cy="373.326510412" fill="rgb(100%,0%,0%)" r="0.7" /><circle cx="283.949674482" cy="375.277252949" fill="rgb(100%,0%,0%)" r="0.7" /><circle cx="281.615266038" cy="377.161414668" fill="rgb(100%,0%,0%)" r="0.7" /><circle cx="279.230750261" cy="378.981712436" fill="rgb(100%,0%,0%)" r="0.7" /><circle cx="276.800659325" cy="380.740750365" fill="rgb(100%,0%,0%)" r="0.7" /><circle cx="274.329036468" cy="382.440932955" fill="rgb(100%,0%,0%)" r="0.7" /><circle cx="271.819428607" cy="384.084554376" fill="rgb(100%,0%,0%)" r="0.7" /><circle cx="269.275010903" cy="385.673771744" fill="rgb(100%,0%,0%)" r="0.7" /><circle cx="266.698615848" cy="387.210633439" fill="rgb(100%,0%,0%)" r="0.7" /><circle cx="264.092809497" cy="388.697068967" fill="rgb(100%,0%,0%)" r="0.7" /><circle cx="261.459875289" cy="390.134927368" fill="rgb(100%,0%,0%)" r="0.7" /><circle cx="258.801904566" cy="391.525949379" fill="rgb(100%,0%,0%)" r="0.7" /><circle cx="256.120764006" cy="392.871805123" fill="rgb(100%,0%,0%)" r="0.7" /><circle cx="253.41819288" cy="394.174060737" fill="rgb(100%,0%,0%)" r="0.7" /><circle cx="250.695719613" cy="395.434233952" fill="rgb(100%,0%,0%)" r="0.7" /><circle cx="247.95481978" cy="396.653731415" fill="rgb(100%,0%,0%)" r="0.7" /><circle cx="245.196743878" cy="397.833938304" fill="rgb(100%,0%,0%)" r="0.7" /><circle cx="242.422715154" cy="398.976138741" fill="rgb(100%,0%,0%)" r="0.7" /><circle cx="239.633830111" cy="400.081568928" fill="rgb(100%,0%,0%)" r="0.7" /><circle cx="236.831093882" cy="401.151408635" fill="rgb(100%,0%,0%)" r="0.7" /><circle cx="234.289698909" cy="402.202849455" fill="rgb(100%,0%,0%)" r="0.7" /><circle cx="236.972980482" cy="403.544490241" fill="rgb(100%,0%,0%)" r="0.7" /><circle cx="239.263513287" cy="405.092786382" fill="rgb(100%,0%,0%)" r="0.7" /><circle cx="238.849606928" cy="408.064096115" fill="rgb(100%,0%,0%)" r="0.7" /><circle cx="238.435700568" cy="411.035405847" fill="rgb(100%,0%,0%)" r="0.7" /><circle cx="238.208" cy="412.67" fill="rgb(100%,0%,0%)" r="0.7" /><circle cx="304.958765249" cy="344.107504873" fill="rgb(0%,0%,100%)" r="0.7" /><circle cx="307.814139591" cy="344.50505151" fill="rgb(0%,0%,100%)" r="0.7" /><circle cx="309.520241751" cy="346.966833819" fill="rgb(0%,0%,100%)" r="0.7" /><circle cx="310.706299204" cy="349.717012352" fill="rgb(0%,0%,100%)" r="0.7" /><circle cx="311.335984963" cy="352.645551695" fill="rgb(0%,0%,100%)" r="0.7" /><circle cx="311.41118397" cy="355.640303414" fill="rgb(0%,0%,100%)" r="0.7" /><circle cx="310.835471113" cy="358.576082259" fill="rgb(0%,0%,100%)" r="0.7" /><circle cx="309.83292508" cy="361.402333683" fill="rgb(0%,0%,100%)" r="0.7" /><circle cx="308.574700259" cy="364.124707005" fill="rgb(0%,0%,100%)" r="0.7" /><circle cx="307.100827849" cy="366.736874701" fill="rgb(0%,0%,100%)" r="0.7" /><circle cx="305.446731504" cy="369.23902917" fill="rgb(0%,0%,100%)" r="0.7" /><circle cx="303.642343173" cy="371.635207173" fill="rgb(0%,0%,100%)" r="0.7" /><circle cx="301.712258671" cy="373.931488508" fill="rgb(0%,0%,100%)" r="0.7" /><circle cx="299.676485099" cy="376.134708948" fill="rgb(0%,0%,100%)" r="0.7" /><circle cx="297.551207908" cy="378.251796917" fill="rgb(0%,0%,100%)" r="0.7" /><circle cx="295.349534634" cy="380.289386622" fill="rgb(0%,0%,100%)" r="0.7" /><circle cx="293.082139718" cy="382.253619094" fill="rgb(0%,0%,100%)" r="0.7" /><circle cx="290.75775132" cy="384.150092954" fill="rgb(0%,0%,100%)" r="0.7" /><circle cx="288.383550659" cy="385.983857214" fill="rgb(0%,0%,100%)" r="0.7" /><circle cx="285.965500285" cy="387.759424747" fill="rgb(0%,0%,100%)" r="0.7" /><circle cx="283.508578381" cy="389.480820466" fill="rgb(0%,0%,100%)" r="0.7" /><circle cx="281.016967035" cy="391.151626836" fill="rgb(0%,0%,100%)" r="0.7" /><circle cx="278.494204815" cy="392.775024816" fill="rgb(0%,0%,100%)" r="0.7" /><circle cx="275.943293432" cy="394.353840536" fill="rgb(0%,0%,100%)" r="0.7" /><circle cx="273.366808849" cy="395.890568853" fill="rgb(0%,0%,100%)" r="0.7" /><circle cx="270.766946867" cy="397.387420327" fill="rgb(0%,0%,100%)" r="0.7" /><circle cx="268.145603053" cy="398.846332287" fill="rgb(0%,0%,100%)" r="0.7" /><circle cx="265.504407631" cy="400.268994151" fill="rgb(0%,0%,100%)" r="0.7" /><circle cx="262.844762938" cy="401.656858803" fill="rgb(0%,0%,100%)" r="0.7" /><circle cx="260.167863441" cy="403.011151218" fill="rgb(0%,0%,100%)" r="0.7" /><circle cx="257.474727339" cy="404.332857582" fill="rgb(0%,0%,100%)" r="0.7" /><circle cx="254.766198202" cy="405.622712232" fill="rgb(0%,0%,100%)" r="0.7" /><circle cx="252.042916801" cy="406.881171136" fill="rgb(0%,0%,100%)" r="0.7" /><circle cx="249.305391942" cy="408.108293614" fill="rgb(0%,0%,100%)" r="0.7" /><circle cx="246.553822454" cy="409.303644678" fill="rgb(0%,0%,100%)" r="0.7" /><circle cx="243.788136468" cy="410.465868" fill="rgb(0%,0%,100%)" r="0.7" /><circle cx="241.007421028" cy="411.591758218" fill="rgb(0%,0%,100%)" r="0.7" /><circle cx="238.208" cy="412.67" fill="rgb(0%,0%,100%)" r="0.7" /></svg>