<?xml version="1.0" encoding="utf-8" ?>
<svg baseProfile="full" height="100%" version="1.1" width="100%" xmlns="http://www.w3.org/2000/svg" xmlns:ev="http://www.w3.org/2001/xml-events" xmlns:xlink="http://www.w3.org/1999/xlink"><defs /><circle cx="336.184438881" cy="258.422080647" fill="rgb(100%,0%,0%)" r="0.7" /><circle cx="333.234916575" cy="258.880679435" fill="rgb(100%,0%,0%)" r="0.7" /><circle cx="330.466767446" cy="260.026270217" fill="rgb(100%,0%,0%)" r="0.7" /><circle cx="328.127968157" cy="261.886010305" fill="rgb(100%,0%,0%)" r="0.7" /><circle cx="326.261896341" cy="264.230782533" fill="rgb(100%,0%,0%)" r="0.7" /><circle cx="324.707011047" cy="266.794965751" fill="rgb(100%,0%,0%)" r="0.7" /><circle cx="323.365847069" cy="269.47785571" fill="rgb(100%,0%,0%)" r="0.7" /><circle cx="322.182136612" cy="272.234115437" fill="rgb(100%,0%,0%)" r="0.7" /><circle cx="321.121883206" cy="275.040303994" fill="rgb(100%,0%,0%)" r="0.7" /><circle cx="320.164163565" cy="277.88318289" fill="rgb(100%,0%,0%)" r="0.7" /><circle cx="319.297443308" cy="280.755125972" fill="rgb(100%,0%,0%)" r="0.7" /><circle cx="318.522912249" cy="283.653271386" fill="rgb(100%,0%,0%)" r="0.7" /><circle cx="317.898932412" cy="286.587446456" fill="rgb(100%,0%,0%)" r="0.7" /><circle cx="317.261927845" cy="289.51903228" fill="rgb(100%,0%,0%)" r="0.7" /><circle cx="316.651043725" cy="292.456136275" fill="rgb(100%,0%,0%)" r="0.7" /><circle cx="316.095346416" cy="295.404169944" fill="rgb(100%,0%,0%)" r="0.7" /><circle cx="315.591310339" cy="298.36150274" fill="rgb(100%,0%,0%)" r="0.7" /><circle cx="315.127079073" cy="301.325337617" fill="rgb(100%,0%,0%)" r="0.7" /><circle cx="314.692532489" cy="304.293685063" fill="rgb(100%,0%,0%)" r="0.7" /><circle cx="314.280436889" cy="307.265241755" fill="rgb(100%,0%,0%)" r="0.7" /><circle cx="313.885744909" cy="310.239156664" fill="rgb(100%,0%,0%)" r="0.7" /><circle cx="313.504879442" cy="313.214886196" fill="rgb(100%,0%,0%)" r="0.7" /><circle cx="313.13524869" cy="316.192030104" fill="rgb(100%,0%,0%)" r="0.7" /><circle cx="312.774925142" cy="319.17029301" fill="rgb(100%,0%,0%)" r="0.7" /><circle cx="312.42243203" cy="322.149527715" fill="rgb(100%,0%,0%)" r="0.7" /><circle cx="312.076631812" cy="325.129529237" fill="rgb(100%,0%,0%)" r="0.7" /><circle cx="311.73661552" cy="328.110199377" fill="rgb(100%,0%,0%)" r="0.7" /><circle cx="311.40165226" cy="331.091448553" fill="rgb(100%,0%,0%)" r="0.7" /><circle cx="311.071148259" cy="334.073170958" fill="rgb(100%,0%,0%)" r="0.7" /><circle cx="310.744606332" cy="337.055328951" fill="rgb(100%,0%,0%)" r="0.7" /><circle cx="310.421610357" cy="340.037889703" fill="rgb(100%,0%,0%)" r="0.7" /><circle cx="310.101811653" cy="343.020794449" fill="rgb(100%,0%,0%)" r="0.7" /><circle cx="309.784910377" cy="346.004012473" fill="rgb(100%,0%,0%)" r="0.7" /><circle cx="309.470648881" cy="348.987512795" fill="rgb(100%,0%,0%)" r="0.7" /><circle cx="309.158804008" cy="351.971265429" fill="rgb(100%,0%,0%)" r="0.7" /><circle cx="308.849182602" cy="354.955227375" fill="rgb(100%,0%,0%)" r="0.7" /><circle cx="308.541608978" cy="357.939418284" fill="rgb(100%,0%,0%)" r="0.7" /><circle cx="308.235931895" cy="360.923817164" fill="rgb(100%,0%,0%)" r="0.7" /><circle cx="307.925583785" cy="363.907760353" fill="rgb(100%,0%,0%)" r="0.7" /><circle cx="307.597712287" cy="366.889801193" fill="rgb(100%,0%,0%)" r="0.7" /><circle cx="307.252283644" cy="369.869827658" fill="rgb(100%,0%,0%)" r="0.7" /><circle cx="306.888966195" cy="372.847741847" fill="rgb(100%,0%,0%)" r="0.7" /><circle cx="306.507418877" cy="375.823391138" fill="rgb(100%,0%,0%)" r="0.7" /><circle cx="306.107292449" cy="378.796560374" fill="rgb(100%,0%,0%)" r="0.7" /><circle cx="305.688204714" cy="381.767145649" fill="rgb(100%,0%,0%)" r="0.7" /><circle cx="305.249768119" cy="384.73493438" fill="rgb(100%,0%,0%)" r="0.7" /><circle cx="304.791570763" cy="387.699734358" fill="rgb(100%,0%,0%)" r="0.7" /><circle cx="304.313178906" cy="390.661338996" fill="rgb(100%,0%,0%)" r="0.7" /><circle cx="303.814133308" cy="393.619534549" fill="rgb(100%,0%,0%)" r="0.7" /><circle cx="303.293950662" cy="396.574074719" fill="rgb(100%,0%,0%)" r="0.7" /><circle cx="302.752108362" cy="399.52474746" fill="rgb(100%,0%,0%)" r="0.7" /><circle cx="302.188066478" cy="402.471231994" fill="rgb(100%,0%,0%)" r="0.7" /><circle cx="301.601230615" cy="405.413275791" fill="rgb(100%,0%,0%)" r="0.7" /><circle cx="300.990974682" cy="408.350543495" fill="rgb(100%,0%,0%)" r="0.7" /><circle cx="300.356621405" cy="411.282685688" fill="rgb(100%,0%,0%)" r="0.7" /><circle cx="299.697426175" cy="414.209370902" fill="rgb(100%,0%,0%)" r="0.7" /><circle cx="299.012596902" cy="417.130150438" fill="rgb(100%,0%,0%)" r="0.7" /><circle cx="298.301254078" cy="420.044582822" fill="rgb(100%,0%,0%)" r="0.7" /><circle cx="297.562430194" cy="422.952164471" fill="rgb(100%,0%,0%)" r="0.7" /><circle cx="296.795046813" cy="425.852339311" fill="rgb(100%,0%,0%)" r="0.7" /><circle cx="295.997890492" cy="428.744484912" fill="rgb(100%,0%,0%)" r="0.7" /><circle cx="295.169592234" cy="431.627854134" fill="rgb(100%,0%,0%)" r="0.7" /><circle cx="294.308567766" cy="434.501608287" fill="rgb(100%,0%,0%)" r="0.7" /><circle cx="293.412952902" cy="437.364782847" fill="rgb(100%,0%,0%)" r="0.7" /><circle cx="292.480522079" cy="440.216193644" fill="rgb(100%,0%,0%)" r="0.7" /><circle cx="291.50855149" cy="443.054329925" fill="rgb(100%,0%,0%)" r="0.7" /><circle cx="290.49351583" cy="445.877379795" fill="rgb(100%,0%,0%)" r="0.7" /><circle cx="289.430701662" cy="448.68276358" fill="rgb(100%,0%,0%)" r="0.7" /><circle cx="288.313154915" cy="451.466777663" fill="rgb(100%,0%,0%)" r="0.7" /><circle cx="287.128955323" cy="454.223055226" fill="rgb(100%,0%,0%)" r="0.7" /><circle cx="285.845" cy="456.934" fill="rgb(100%,0%,0%)" r="0.7" /><circle cx="287.545848292" cy="454.845650503" fill="rgb(100%,0%,0%)" r="0.7" /><circle cx="289.440351771" cy="452.519525707" fill="rgb(100%,0%,0%)" r="0.7" /><circle cx="291.33485525" cy="450.193400911" fill="rgb(100%,0%,0%)" r="0.7" /><circle cx="293.22935873" cy="447.867276114" fill="rgb(100%,0%,0%)" r="0.7" /><circle cx="295.123862209" cy="445.541151318" fill="rgb(100%,0%,0%)" r="0.7" /><circle cx="297.018365688" cy="443.215026522" fill="rgb(100%,0%,0%)" r="0.7" /><circle cx="298.912869167" cy="440.888901726" fill="rgb(100%,0%,0%)" r="0.7" /><circle cx="300.194610297" cy="441.246031607" fill="rgb(100%,0%,0%)" r="0.7" /><circle cx="300.891555329" cy="444.163953406" fill="rgb(100%,0%,0%)" r="0.7" /><circle cx="301.588500361" cy="447.081875205" fill="rgb(100%,0%,0%)" r="0.7" /><circle cx="302.285445392" cy="449.999797003" fill="rgb(100%,0%,0%)" r="0.7" /><circle cx="302.982390424" cy="452.917718802" fill="rgb(100%,0%,0%)" r="0.7" /><circle cx="303.679335455" cy="455.835640601" fill="rgb(100%,0%,0%)" r="0.7" /><circle cx="304.731031633" cy="457.01637104" fill="rgb(100%,0%,0%)" r="0.7" /><circle cx="336.184438881" cy="258.422080647" fill="rgb(0%,0%,100%)" r="0.7" /><circle cx="338.95868195" cy="259.411977996" fill="rgb(0%,0%,100%)" r="0.7" /><circle cx="340.550023056" cy="261.908206657" fill="rgb(0%,0%,100%)" r="0.7" /><circle cx="341.390687562" cy="264.786858439" fill="rgb(0%,0%,100%)" r="0.7" /><circle cx="342.079451108" cy="267.70637697" fill="rgb(0%,0%,100%)" r="0.7" /><circle cx="342.637623211" cy="270.6538144" fill="rgb(0%,0%,100%)" r="0.7" /><circle cx="343.093228266" cy="273.618887553" fill="rgb(0%,0%,100%)" r="0.7" /><circle cx="343.461661225" cy="276.596081922" fill="rgb(0%,0%,100%)" r="0.7" /><circle cx="343.75318898" cy="279.581796212" fill="rgb(0%,0%,100%)" r="0.7" /><circle cx="343.975362545" cy="282.573493429" fill="rgb(0%,0%,100%)" r="0.7" /><circle cx="344.134070802" cy="285.569252779" fill="rgb(0%,0%,100%)" r="0.7" /><circle cx="344.234094336" cy="288.567533103" fill="rgb(0%,0%,100%)" r="0.7" /><circle cx="344.279431378" cy="291.567146145" fill="rgb(0%,0%,100%)" r="0.7" /><circle cx="344.273495585" cy="294.567122909" fill="rgb(0%,0%,100%)" r="0.7" /><circle cx="344.219252358" cy="297.566608345" fill="rgb(0%,0%,100%)" r="0.7" /><circle cx="344.119313343" cy="300.564910206" fill="rgb(0%,0%,100%)" r="0.7" /><circle cx="343.976002657" cy="303.561455838" fill="rgb(0%,0%,100%)" r="0.7" /><circle cx="343.791407597" cy="306.555753973" fill="rgb(0%,0%,100%)" r="0.7" /><circle cx="343.567419755" cy="309.547351524" fill="rgb(0%,0%,100%)" r="0.7" /><circle cx="343.305760499" cy="312.53589172" fill="rgb(0%,0%,100%)" r="0.7" /><circle cx="343.008007502" cy="315.521056596" fill="rgb(0%,0%,100%)" r="0.7" /><circle cx="342.67561212" cy="318.502580718" fill="rgb(0%,0%,100%)" r="0.7" /><circle cx="342.309922711" cy="321.480181135" fill="rgb(0%,0%,100%)" r="0.7" /><circle cx="341.912181788" cy="324.45368716" fill="rgb(0%,0%,100%)" r="0.7" /><circle cx="341.483553635" cy="327.422894854" fill="rgb(0%,0%,100%)" r="0.7" /><circle cx="341.025123394" cy="330.387646548" fill="rgb(0%,0%,100%)" r="0.7" /><circle cx="340.537906974" cy="333.347808565" fill="rgb(0%,0%,100%)" r="0.7" /><circle cx="340.022858818" cy="336.303261902" fill="rgb(0%,0%,100%)" r="0.7" /><circle cx="339.4808797" cy="339.253890421" fill="rgb(0%,0%,100%)" r="0.7" /><circle cx="338.912819102" cy="342.199595553" fill="rgb(0%,0%,100%)" r="0.7" /><circle cx="338.319470826" cy="345.140336582" fill="rgb(0%,0%,100%)" r="0.7" /><circle cx="337.701599958" cy="348.076012705" fill="rgb(0%,0%,100%)" r="0.7" /><circle cx="337.059926979" cy="351.00656219" fill="rgb(0%,0%,100%)" r="0.7" /><circle cx="336.395121024" cy="353.931998263" fill="rgb(0%,0%,100%)" r="0.7" /><circle cx="335.707851604" cy="356.852192413" fill="rgb(0%,0%,100%)" r="0.7" /><circle cx="334.998720929" cy="359.767181461" fill="rgb(0%,0%,100%)" r="0.7" /><circle cx="334.268333023" cy="362.676879893" fill="rgb(0%,0%,100%)" r="0.7" /><circle cx="333.517231375" cy="365.581343304" fill="rgb(0%,0%,100%)" r="0.7" /><circle cx="332.745971848" cy="368.480485419" fill="rgb(0%,0%,100%)" r="0.7" /><circle cx="331.978517911" cy="371.38063852" fill="rgb(0%,0%,100%)" r="0.7" /><circle cx="331.204918923" cy="374.279188937" fill="rgb(0%,0%,100%)" r="0.7" /><circle cx="330.425883448" cy="377.176278988" fill="rgb(0%,0%,100%)" r="0.7" /><circle cx="329.641889355" cy="380.072055235" fill="rgb(0%,0%,100%)" r="0.7" /><circle cx="328.853142369" cy="382.966494469" fill="rgb(0%,0%,100%)" r="0.7" /><circle cx="328.059676563" cy="385.859662363" fill="rgb(0%,0%,100%)" r="0.7" /><circle cx="327.261464777" cy="388.751520301" fill="rgb(0%,0%,100%)" r="0.7" /><circle cx="326.458410586" cy="391.642045636" fill="rgb(0%,0%,100%)" r="0.7" /><circle cx="325.650372599" cy="394.531184266" fill="rgb(0%,0%,100%)" r="0.7" /><circle cx="324.837166179" cy="397.418861396" fill="rgb(0%,0%,100%)" r="0.7" /><circle cx="324.018552491" cy="400.305022374" fill="rgb(0%,0%,100%)" r="0.7" /><circle cx="323.194259931" cy="403.189548875" fill="rgb(0%,0%,100%)" r="0.7" /><circle cx="322.363950804" cy="406.072359704" fill="rgb(0%,0%,100%)" r="0.7" /><circle cx="321.527239742" cy="408.953320917" fill="rgb(0%,0%,100%)" r="0.7" /><circle cx="320.683674355" cy="411.832279118" fill="rgb(0%,0%,100%)" r="0.7" /><circle cx="319.832721401" cy="414.709062906" fill="rgb(0%,0%,100%)" r="0.7" /><circle cx="318.973754888" cy="417.583462744" fill="rgb(0%,0%,100%)" r="0.7" /><circle cx="318.106031175" cy="420.455234849" fill="rgb(0%,0%,100%)" r="0.7" /><circle cx="317.228665299" cy="423.324073245" fill="rgb(0%,0%,100%)" r="0.7" /><circle cx="316.340585827" cy="426.189613624" fill="rgb(0%,0%,100%)" r="0.7" /><circle cx="315.440487211" cy="429.051387904" fill="rgb(0%,0%,100%)" r="0.7" /><circle cx="314.526734995" cy="431.908843473" fill="rgb(0%,0%,100%)" r="0.7" /><circle cx="313.597267388" cy="434.761237898" fill="rgb(0%,0%,100%)" r="0.7" /><circle cx="312.649423451" cy="437.607546897" fill="rgb(0%,0%,100%)" r="0.7" /><circle cx="311.679612475" cy="440.446475916" fill="rgb(0%,0%,100%)" r="0.7" /><circle cx="310.682898248" cy="443.27603839" fill="rgb(0%,0%,100%)" r="0.7" /><circle cx="309.652044388" cy="446.093352496" fill="rgb(0%,0%,100%)" r="0.7" /><circle cx="308.575796223" cy="448.893603228" fill="rgb(0%,0%,100%)" r="0.7" /><circle cx="307.434729667" cy="451.668032472" fill="rgb(0%,0%,100%)" r="0.7" /><circle cx="306.189559934" cy="454.397079328" fill="rgb(0%,0%,100%)" r="0.7" /><circle cx="304.731031633" cy="457.01637104" fill="rgb(0%,0%,100%)" r="0.7" /></svg>