<?xml version="1.0" encoding="utf-8" ?>
<svg baseProfile="full" height="100%" version="1.1" width="100%" xmlns="http://www.w3.org/2000/svg" xmlns:ev="http://www.w3.org/2001/xml-events" xmlns:xlink="http://www.w3.org/1999/xlink"><defs /><circle cx="233.085438353" cy="318.197418414" fill="rgb(100%,0%,0%)" r="0.7" /><circle cx="230.10188095" cy="318.377466061" fill="rgb(100%,0%,0%)" r="0.7" /><circle cx="227.21172478" cy="319.160205714" fill="rgb(100%,0%,0%)" r="0.7" /><circle cx="224.604064216" cy="320.62402226" fill="rgb(100%,0%,0%)" r="0.7" /><circle cx="222.519638814" cy="322.7670579" fill="rgb(100%,0%,0%)" r="0.7" /><circle cx="221.074527452" cy="325.387806655" fill="rgb(100%,0%,0%)" r="0.7" /><circle cx="220.373355225" cy="328.289140866" fill="rgb(100%,0%,0%)" r="0.7" /><circle cx="220.534967503" cy="331.278657668" fill="rgb(100%,0%,0%)" r="0.7" /><circle cx="221.208640991" cy="334.199761508" fill="rgb(100%,0%,0%)" r="0.7" /><circle cx="222.198435195" cy="337.030699579" fill="rgb(100%,0%,0%)" r="0.7" /><circle cx="223.405411212" cy="339.776571074" fill="rgb(100%,0%,0%)" r="0.7" /><circle cx="224.776795737" cy="342.444347194" fill="rgb(100%,0%,0%)" r="0.7" /><circle cx="226.285035365" cy="345.037291794" fill="rgb(100%,0%,0%)" r="0.7" /><circle cx="227.921415741" cy="347.551302101" fill="rgb(100%,0%,0%)" r="0.7" /><circle cx="229.704557072" cy="349.963082506" fill="rgb(100%,0%,0%)" r="0.7" /><circle cx="229.267686768" cy="349.229727584" fill="rgb(100%,0%,0%)" r="0.7" /><circle cx="230.988364628" cy="351.687166122" fill="rgb(100%,0%,0%)" r="0.7" /><circle cx="232.724254195" cy="354.13394564" fill="rgb(100%,0%,0%)" r="0.7" /><circle cx="234.464968018" cy="356.577283303" fill="rgb(100%,0%,0%)" r="0.7" /><circle cx="236.208472733" cy="359.018614154" fill="rgb(100%,0%,0%)" r="0.7" /><circle cx="237.953910672" cy="361.458588865" fill="rgb(100%,0%,0%)" r="0.7" /><circle cx="239.700793421" cy="363.897541768" fill="rgb(100%,0%,0%)" r="0.7" /><circle cx="241.448786938" cy="366.335642461" fill="rgb(100%,0%,0%)" r="0.7" /><circle cx="243.197730027" cy="368.773097793" fill="rgb(100%,0%,0%)" r="0.7" /><circle cx="244.94745796" cy="371.20998844" fill="rgb(100%,0%,0%)" r="0.7" /><circle cx="246.697890059" cy="373.646434675" fill="rgb(100%,0%,0%)" r="0.7" /><circle cx="248.44321036" cy="376.086518878" fill="rgb(100%,0%,0%)" r="0.7" /><circle cx="250.155492837" cy="378.54983149" fill="rgb(100%,0%,0%)" r="0.7" /><circle cx="251.828634829" cy="381.039884932" fill="rgb(100%,0%,0%)" r="0.7" /><circle cx="253.459529664" cy="383.557791479" fill="rgb(100%,0%,0%)" r="0.7" /><circle cx="255.044708539" cy="386.104763056" fill="rgb(100%,0%,0%)" r="0.7" /><circle cx="256.580174929" cy="388.681950455" fill="rgb(100%,0%,0%)" r="0.7" /><circle cx="258.061475496" cy="391.290686736" fill="rgb(100%,0%,0%)" r="0.7" /><circle cx="259.483436738" cy="393.932205757" fill="rgb(100%,0%,0%)" r="0.7" /><circle cx="260.840139458" cy="396.607789994" fill="rgb(100%,0%,0%)" r="0.7" /><circle cx="262.124751579" cy="399.31873602" fill="rgb(100%,0%,0%)" r="0.7" /><circle cx="263.329268881" cy="402.066188326" fill="rgb(100%,0%,0%)" r="0.7" /><circle cx="264.444289107" cy="404.85112035" fill="rgb(100%,0%,0%)" r="0.7" /><circle cx="265.458678578" cy="407.674229875" fill="rgb(100%,0%,0%)" r="0.7" /><circle cx="266.359094933" cy="410.535678895" fill="rgb(100%,0%,0%)" r="0.7" /><circle cx="267.129380355" cy="413.434792996" fill="rgb(100%,0%,0%)" r="0.7" /><circle cx="267.74970102" cy="416.369570091" fill="rgb(100%,0%,0%)" r="0.7" /><circle cx="268.195260836" cy="419.335794461" fill="rgb(100%,0%,0%)" r="0.7" /><circle cx="268.434270275" cy="422.325541413" fill="rgb(100%,0%,0%)" r="0.7" /><circle cx="268.424241464" cy="425.324471737" fill="rgb(100%,0%,0%)" r="0.7" /><circle cx="268.10328614" cy="428.305501728" fill="rgb(100%,0%,0%)" r="0.7" /><circle cx="267.354855432" cy="431.206268964" fill="rgb(100%,0%,0%)" r="0.7" /><circle cx="268.315431465" cy="429.956944118" fill="rgb(100%,0%,0%)" r="0.7" /><circle cx="269.951548098" cy="427.442362172" fill="rgb(100%,0%,0%)" r="0.7" /><circle cx="271.587664731" cy="424.927780226" fill="rgb(100%,0%,0%)" r="0.7" /><circle cx="273.223781364" cy="422.41319828" fill="rgb(100%,0%,0%)" r="0.7" /><circle cx="275.114585303" cy="423.539100504" fill="rgb(100%,0%,0%)" r="0.7" /><circle cx="277.084889768" cy="425.801378187" fill="rgb(100%,0%,0%)" r="0.7" /><circle cx="279.055194232" cy="428.063655871" fill="rgb(100%,0%,0%)" r="0.7" /><circle cx="281.025498697" cy="430.325933554" fill="rgb(100%,0%,0%)" r="0.7" /><circle cx="282.995803161" cy="432.588211238" fill="rgb(100%,0%,0%)" r="0.7" /><circle cx="283.182" cy="432.802" fill="rgb(100%,0%,0%)" r="0.7" /><circle cx="233.085438353" cy="318.197418414" fill="rgb(0%,0%,100%)" r="0.7" /><circle cx="236.020292169" cy="318.802572126" fill="rgb(0%,0%,100%)" r="0.7" /><circle cx="238.763968053" cy="319.993598348" fill="rgb(0%,0%,100%)" r="0.7" /><circle cx="240.805129501" cy="322.13729609" fill="rgb(0%,0%,100%)" r="0.7" /><circle cx="240.817475617" cy="325.01273509" fill="rgb(0%,0%,100%)" r="0.7" /><circle cx="238.291374416" cy="326.420023368" fill="rgb(0%,0%,100%)" r="0.7" /><circle cx="236.000565518" cy="328.061780584" fill="rgb(0%,0%,100%)" r="0.7" /><circle cx="234.603002447" cy="330.702685497" fill="rgb(0%,0%,100%)" r="0.7" /><circle cx="234.19640537" cy="333.656462612" fill="rgb(0%,0%,100%)" r="0.7" /><circle cx="234.913326561" cy="336.553082341" fill="rgb(0%,0%,100%)" r="0.7" /><circle cx="236.474969839" cy="339.105165238" fill="rgb(0%,0%,100%)" r="0.7" /><circle cx="238.365463485" cy="341.43453432" fill="rgb(0%,0%,100%)" r="0.7" /><circle cx="240.272661863" cy="343.750260477" fill="rgb(0%,0%,100%)" r="0.7" /><circle cx="242.195792421" cy="346.052763373" fill="rgb(0%,0%,100%)" r="0.7" /><circle cx="244.138154666" cy="348.339063931" fill="rgb(0%,0%,100%)" r="0.7" /><circle cx="246.106363569" cy="350.603134185" fill="rgb(0%,0%,100%)" r="0.7" /><circle cx="248.114219462" cy="352.832066671" fill="rgb(0%,0%,100%)" r="0.7" /><circle cx="250.155007182" cy="355.030659313" fill="rgb(0%,0%,100%)" r="0.7" /><circle cx="252.094363542" cy="357.319339024" fill="rgb(0%,0%,100%)" r="0.7" /><circle cx="253.975726549" cy="359.65603989" fill="rgb(0%,0%,100%)" r="0.7" /><circle cx="255.81732519" cy="362.024241796" fill="rgb(0%,0%,100%)" r="0.7" /><circle cx="257.62525697" cy="364.418242309" fill="rgb(0%,0%,100%)" r="0.7" /><circle cx="259.401677535" cy="366.835720047" fill="rgb(0%,0%,100%)" r="0.7" /><circle cx="261.146771205" cy="369.275908176" fill="rgb(0%,0%,100%)" r="0.7" /><circle cx="262.859408119" cy="371.738984471" fill="rgb(0%,0%,100%)" r="0.7" /><circle cx="264.537330309" cy="374.225835709" fill="rgb(0%,0%,100%)" r="0.7" /><circle cx="266.177105665" cy="376.737996425" fill="rgb(0%,0%,100%)" r="0.7" /><circle cx="267.773893815" cy="379.277687495" fill="rgb(0%,0%,100%)" r="0.7" /><circle cx="269.320987032" cy="381.847935545" fill="rgb(0%,0%,100%)" r="0.7" /><circle cx="270.809016673" cy="384.452798849" fill="rgb(0%,0%,100%)" r="0.7" /><circle cx="272.224548077" cy="387.09770857" fill="rgb(0%,0%,100%)" r="0.7" /><circle cx="273.547516088" cy="389.790038221" fill="rgb(0%,0%,100%)" r="0.7" /><circle cx="274.746051786" cy="392.539831188" fill="rgb(0%,0%,100%)" r="0.7" /><circle cx="275.76505457" cy="395.360673032" fill="rgb(0%,0%,100%)" r="0.7" /><circle cx="276.663251453" cy="398.210271744" fill="rgb(0%,0%,100%)" r="0.7" /><circle cx="278.327453412" cy="400.701728492" fill="rgb(0%,0%,100%)" r="0.7" /><circle cx="279.682189903" cy="403.377178707" fill="rgb(0%,0%,100%)" r="0.7" /><circle cx="280.808101004" cy="406.157106234" fill="rgb(0%,0%,100%)" r="0.7" /><circle cx="281.732692576" cy="409.010475417" fill="rgb(0%,0%,100%)" r="0.7" /><circle cx="282.470724536" cy="411.917772993" fill="rgb(0%,0%,100%)" r="0.7" /><circle cx="283.032839692" cy="414.86421655" fill="rgb(0%,0%,100%)" r="0.7" /><circle cx="283.428029603" cy="417.837694071" fill="rgb(0%,0%,100%)" r="0.7" /><circle cx="283.664593912" cy="420.828016834" fill="rgb(0%,0%,100%)" r="0.7" /><circle cx="283.75052026" cy="423.826488723" fill="rgb(0%,0%,100%)" r="0.7" /><circle cx="283.693630848" cy="426.825680155" fill="rgb(0%,0%,100%)" r="0.7" /><circle cx="283.501613638" cy="429.81928631" fill="rgb(0%,0%,100%)" r="0.7" /><circle cx="283.182" cy="432.802" fill="rgb(0%,0%,100%)" r="0.7" /></svg>