<?xml version="1.0" encoding="utf-8" ?>
<svg baseProfile="full" height="100%" version="1.1" width="100%" xmlns="http://www.w3.org/2000/svg" xmlns:ev="http://www.w3.org/2001/xml-events" xmlns:xlink="http://www.w3.org/1999/xlink"><defs /><circle cx="306.271912967" cy="255.673194306" fill="rgb(100%,0%,0%)" r="0.7" /><circle cx="303.359206404" cy="256.301970406" fill="rgb(100%,0%,0%)" r="0.7" /><circle cx="300.817734034" cy="257.877423376" fill="rgb(100%,0%,0%)" r="0.7" /><circle cx="298.692121422" cy="259.988675426" fill="rgb(100%,0%,0%)" r="0.7" /><circle cx="296.899904273" cy="262.392237641" fill="rgb(100%,0%,0%)" r="0.7" /><circle cx="295.360317621" cy="264.965986718" fill="rgb(100%,0%,0%)" r="0.7" /><circle cx="294.01253499" cy="267.6457107" fill="rgb(100%,0%,0%)" r="0.7" /><circle cx="292.719629806" cy="270.352816271" fill="rgb(100%,0%,0%)" r="0.7" /><circle cx="291.410806785" cy="273.052231004" fill="rgb(100%,0%,0%)" r="0.7" /><circle cx="291.331966702" cy="272.87116375" fill="rgb(100%,0%,0%)" r="0.7" /><circle cx="292.544264952" cy="270.127025557" fill="rgb(100%,0%,0%)" r="0.7" /><circle cx="293.772984368" cy="267.390189013" fill="rgb(100%,0%,0%)" r="0.7" /><circle cx="293.349515913" cy="268.133212789" fill="rgb(100%,0%,0%)" r="0.7" /><circle cx="292.021597706" cy="270.823306831" fill="rgb(100%,0%,0%)" r="0.7" /><circle cx="290.712833806" cy="273.522769603" fill="rgb(100%,0%,0%)" r="0.7" /><circle cx="289.422481124" cy="276.23107858" fill="rgb(100%,0%,0%)" r="0.7" /><circle cx="288.151130012" cy="278.948365023" fill="rgb(100%,0%,0%)" r="0.7" /><circle cx="286.900145649" cy="281.675083648" fill="rgb(100%,0%,0%)" r="0.7" /><circle cx="285.671579885" cy="284.411979081" fill="rgb(100%,0%,0%)" r="0.7" /><circle cx="284.468283713" cy="287.16006943" fill="rgb(100%,0%,0%)" r="0.7" /><circle cx="283.294132775" cy="289.920736442" fill="rgb(100%,0%,0%)" r="0.7" /><circle cx="282.154468194" cy="292.69580933" fill="rgb(100%,0%,0%)" r="0.7" /><circle cx="281.056845442" cy="295.487766672" fill="rgb(100%,0%,0%)" r="0.7" /><circle cx="280.012437673" cy="298.30003901" fill="rgb(100%,0%,0%)" r="0.7" /><circle cx="279.03885957" cy="301.137559043" fill="rgb(100%,0%,0%)" r="0.7" /><circle cx="278.166671746" cy="304.007731591" fill="rgb(100%,0%,0%)" r="0.7" /><circle cx="277.202575843" cy="306.840260228" fill="rgb(100%,0%,0%)" r="0.7" /><circle cx="276.00707762" cy="309.591757921" fill="rgb(100%,0%,0%)" r="0.7" /><circle cx="274.788048192" cy="312.332922153" fill="rgb(100%,0%,0%)" r="0.7" /><circle cx="273.54871805" cy="315.064954597" fill="rgb(100%,0%,0%)" r="0.7" /><circle cx="272.290317869" cy="317.78827079" fill="rgb(100%,0%,0%)" r="0.7" /><circle cx="271.013353182" cy="320.502925999" fill="rgb(100%,0%,0%)" r="0.7" /><circle cx="269.717924977" cy="323.208806906" fill="rgb(100%,0%,0%)" r="0.7" /><circle cx="268.403861505" cy="325.905696566" fill="rgb(100%,0%,0%)" r="0.7" /><circle cx="267.07080487" cy="328.593250774" fill="rgb(100%,0%,0%)" r="0.7" /><circle cx="265.718227786" cy="331.271037349" fill="rgb(100%,0%,0%)" r="0.7" /><circle cx="264.345458647" cy="333.938514537" fill="rgb(100%,0%,0%)" r="0.7" /><circle cx="262.951659814" cy="336.595074367" fill="rgb(100%,0%,0%)" r="0.7" /><circle cx="261.535859913" cy="339.239961818" fill="rgb(100%,0%,0%)" r="0.7" /><circle cx="260.096905152" cy="341.872332956" fill="rgb(100%,0%,0%)" r="0.7" /><circle cx="258.633477025" cy="344.491171163" fill="rgb(100%,0%,0%)" r="0.7" /><circle cx="257.144046146" cy="347.095305041" fill="rgb(100%,0%,0%)" r="0.7" /><circle cx="255.626850145" cy="349.683360364" fill="rgb(100%,0%,0%)" r="0.7" /><circle cx="254.079857384" cy="352.253713102" fill="rgb(100%,0%,0%)" r="0.7" /><circle cx="252.500716321" cy="354.804435391" fill="rgb(100%,0%,0%)" r="0.7" /><circle cx="250.886690813" cy="357.333223218" fill="rgb(100%,0%,0%)" r="0.7" /><circle cx="249.23458064" cy="359.837293118" fill="rgb(100%,0%,0%)" r="0.7" /><circle cx="247.540625953" cy="362.313231455" fill="rgb(100%,0%,0%)" r="0.7" /><circle cx="245.800355193" cy="364.756827097" fill="rgb(100%,0%,0%)" r="0.7" /><circle cx="244.008417914" cy="367.162781682" fill="rgb(100%,0%,0%)" r="0.7" /><circle cx="242.158361053" cy="369.524299057" fill="rgb(100%,0%,0%)" r="0.7" /><circle cx="240.242288679" cy="371.832531456" fill="rgb(100%,0%,0%)" r="0.7" /><circle cx="238.250454352" cy="374.075661982" fill="rgb(100%,0%,0%)" r="0.7" /><circle cx="236.170735711" cy="376.237458618" fill="rgb(100%,0%,0%)" r="0.7" /><circle cx="235.509090085" cy="377.235897776" fill="rgb(100%,0%,0%)" r="0.7" /><circle cx="238.170772841" cy="375.851901784" fill="rgb(100%,0%,0%)" r="0.7" /><circle cx="240.832455596" cy="374.467905791" fill="rgb(100%,0%,0%)" r="0.7" /><circle cx="243.494138352" cy="373.083909798" fill="rgb(100%,0%,0%)" r="0.7" /><circle cx="246.155821108" cy="371.699913806" fill="rgb(100%,0%,0%)" r="0.7" /><circle cx="247.95296755" cy="371.389089296" fill="rgb(100%,0%,0%)" r="0.7" /><circle cx="247.167297378" cy="374.284382439" fill="rgb(100%,0%,0%)" r="0.7" /><circle cx="246.381627207" cy="377.179675581" fill="rgb(100%,0%,0%)" r="0.7" /><circle cx="245.595957035" cy="380.074968724" fill="rgb(100%,0%,0%)" r="0.7" /><circle cx="244.810286864" cy="382.970261867" fill="rgb(100%,0%,0%)" r="0.7" /><circle cx="244.024616693" cy="385.865555009" fill="rgb(100%,0%,0%)" r="0.7" /><circle cx="243.238946521" cy="388.760848152" fill="rgb(100%,0%,0%)" r="0.7" /><circle cx="242.57" cy="391.226" fill="rgb(100%,0%,0%)" r="0.7" /><circle cx="306.271912967" cy="255.673194306" fill="rgb(0%,0%,100%)" r="0.7" /><circle cx="309.17361472" cy="256.326142456" fill="rgb(0%,0%,100%)" r="0.7" /><circle cx="311.603296949" cy="258.06839835" fill="rgb(0%,0%,100%)" r="0.7" /><circle cx="314.264157466" cy="259.448475199" fill="rgb(0%,0%,100%)" r="0.7" /><circle cx="316.807698099" cy="260.980005235" fill="rgb(0%,0%,100%)" r="0.7" /><circle cx="318.731118463" cy="263.270646241" fill="rgb(0%,0%,100%)" r="0.7" /><circle cx="320.008875482" cy="265.976812519" fill="rgb(0%,0%,100%)" r="0.7" /><circle cx="320.666551955" cy="268.898882743" fill="rgb(0%,0%,100%)" r="0.7" /><circle cx="320.801883098" cy="271.892706732" fill="rgb(0%,0%,100%)" r="0.7" /><circle cx="320.490744282" cy="274.873833579" fill="rgb(0%,0%,100%)" r="0.7" /><circle cx="319.98788537" cy="277.82907235" fill="rgb(0%,0%,100%)" r="0.7" /><circle cx="319.187468374" cy="280.718979904" fill="rgb(0%,0%,100%)" r="0.7" /><circle cx="318.152364955" cy="283.534172911" fill="rgb(0%,0%,100%)" r="0.7" /><circle cx="316.961569559" cy="286.287417446" fill="rgb(0%,0%,100%)" r="0.7" /><circle cx="315.658634792" cy="288.989525671" fill="rgb(0%,0%,100%)" r="0.7" /><circle cx="314.270063957" cy="291.648712404" fill="rgb(0%,0%,100%)" r="0.7" /><circle cx="312.813159873" cy="294.271121071" fill="rgb(0%,0%,100%)" r="0.7" /><circle cx="311.299781034" cy="296.861369107" fill="rgb(0%,0%,100%)" r="0.7" /><circle cx="309.738307138" cy="299.422928862" fill="rgb(0%,0%,100%)" r="0.7" /><circle cx="308.134727784" cy="301.958349553" fill="rgb(0%,0%,100%)" r="0.7" /><circle cx="306.493205831" cy="304.469379298" fill="rgb(0%,0%,100%)" r="0.7" /><circle cx="304.816260324" cy="306.956889923" fill="rgb(0%,0%,100%)" r="0.7" /><circle cx="303.104267789" cy="309.420414349" fill="rgb(0%,0%,100%)" r="0.7" /><circle cx="301.359589" cy="311.860672752" fill="rgb(0%,0%,100%)" r="0.7" /><circle cx="299.700720948" cy="314.360309003" fill="rgb(0%,0%,100%)" r="0.7" /><circle cx="298.04834807" cy="316.86423372" fill="rgb(0%,0%,100%)" r="0.7" /><circle cx="296.400304108" cy="319.371016772" fill="rgb(0%,0%,100%)" r="0.7" /><circle cx="294.75543023" cy="321.879882861" fill="rgb(0%,0%,100%)" r="0.7" /><circle cx="293.113019189" cy="324.390360251" fill="rgb(0%,0%,100%)" r="0.7" /><circle cx="291.47260143" cy="326.902139879" fill="rgb(0%,0%,100%)" r="0.7" /><circle cx="289.83384878" cy="329.415005555" fill="rgb(0%,0%,100%)" r="0.7" /><circle cx="288.196522278" cy="331.928800731" fill="rgb(0%,0%,100%)" r="0.7" /><circle cx="286.560442997" cy="334.443409399" fill="rgb(0%,0%,100%)" r="0.7" /><circle cx="284.925476192" cy="336.958742468" fill="rgb(0%,0%,100%)" r="0.7" /><circle cx="283.291520972" cy="339.474730691" fill="rgb(0%,0%,100%)" r="0.7" /><circle cx="281.658500868" cy="341.99132621" fill="rgb(0%,0%,100%)" r="0.7" /><circle cx="280.026365442" cy="344.508495635" fill="rgb(0%,0%,100%)" r="0.7" /><circle cx="278.395090521" cy="347.026226947" fill="rgb(0%,0%,100%)" r="0.7" /><circle cx="276.764707798" cy="349.544521259" fill="rgb(0%,0%,100%)" r="0.7" /><circle cx="275.135379029" cy="352.063521887" fill="rgb(0%,0%,100%)" r="0.7" /><circle cx="273.465722599" cy="354.555844878" fill="rgb(0%,0%,100%)" r="0.7" /><circle cx="271.743155901" cy="357.011956405" fill="rgb(0%,0%,100%)" r="0.7" /><circle cx="269.976379894" cy="359.436476742" fill="rgb(0%,0%,100%)" r="0.7" /><circle cx="268.171727281" cy="361.832947659" fill="rgb(0%,0%,100%)" r="0.7" /><circle cx="266.334099207" cy="364.204234448" fill="rgb(0%,0%,100%)" r="0.7" /><circle cx="264.467360635" cy="366.552678542" fill="rgb(0%,0%,100%)" r="0.7" /><circle cx="262.574603128" cy="368.880207532" fill="rgb(0%,0%,100%)" r="0.7" /><circle cx="260.658325966" cy="371.188412176" fill="rgb(0%,0%,100%)" r="0.7" /><circle cx="258.720557192" cy="373.478606652" fill="rgb(0%,0%,100%)" r="0.7" /><circle cx="256.762940668" cy="375.751865366" fill="rgb(0%,0%,100%)" r="0.7" /><circle cx="254.78679905" cy="378.009038716" fill="rgb(0%,0%,100%)" r="0.7" /><circle cx="252.793162824" cy="380.250763012" fill="rgb(0%,0%,100%)" r="0.7" /><circle cx="250.782750754" cy="382.477471635" fill="rgb(0%,0%,100%)" r="0.7" /><circle cx="248.755972437" cy="384.68929749" fill="rgb(0%,0%,100%)" r="0.7" /><circle cx="246.712779284" cy="386.885960197" fill="rgb(0%,0%,100%)" r="0.7" /><circle cx="244.652243758" cy="389.066361047" fill="rgb(0%,0%,100%)" r="0.7" /><circle cx="242.57" cy="391.226" fill="rgb(0%,0%,100%)" r="0.7" /></svg>