<?xml version="1.0" encoding="utf-8" ?>
<svg baseProfile="full" height="100%" version="1.1" width="100%" xmlns="http://www.w3.org/2000/svg" xmlns:ev="http://www.w3.org/2001/xml-events" xmlns:xlink="http://www.w3.org/1999/xlink"><defs /><circle cx="309.822917036" cy="388.205594283" fill="rgb(100%,0%,0%)" r="0.7" /><circle cx="308.326613801" cy="390.805797513" fill="rgb(100%,0%,0%)" r="0.7" /><circle cx="306.827707567" cy="393.404509024" fill="rgb(100%,0%,0%)" r="0.7" /><circle cx="305.326666818" cy="396.001989808" fill="rgb(100%,0%,0%)" r="0.7" /><circle cx="303.823642588" cy="398.598320288" fill="rgb(100%,0%,0%)" r="0.7" /><circle cx="302.318680084" cy="401.193541772" fill="rgb(100%,0%,0%)" r="0.7" /><circle cx="300.811791823" cy="403.787639642" fill="rgb(100%,0%,0%)" r="0.7" /><circle cx="299.302960058" cy="406.380578901" fill="rgb(100%,0%,0%)" r="0.7" /><circle cx="297.792112085" cy="408.972363445" fill="rgb(100%,0%,0%)" r="0.7" /><circle cx="296.279182798" cy="411.562935759" fill="rgb(100%,0%,0%)" r="0.7" /><circle cx="294.764076077" cy="414.152245346" fill="rgb(100%,0%,0%)" r="0.7" /><circle cx="293.246692228" cy="416.740200503" fill="rgb(100%,0%,0%)" r="0.7" /><circle cx="291.726882711" cy="419.326741667" fill="rgb(100%,0%,0%)" r="0.7" /><circle cx="290.204492706" cy="421.911762276" fill="rgb(100%,0%,0%)" r="0.7" /><circle cx="288.679331187" cy="424.495150589" fill="rgb(100%,0%,0%)" r="0.7" /><circle cx="287.151176703" cy="427.0767672" fill="rgb(100%,0%,0%)" r="0.7" /><circle cx="285.619762268" cy="429.656453652" fill="rgb(100%,0%,0%)" r="0.7" /><circle cx="284.084772655" cy="432.234014024" fill="rgb(100%,0%,0%)" r="0.7" /><circle cx="282.545826182" cy="434.809214287" fill="rgb(100%,0%,0%)" r="0.7" /><circle cx="281.002461139" cy="437.381761525" fill="rgb(100%,0%,0%)" r="0.7" /><circle cx="279.454094489" cy="439.95131094" fill="rgb(100%,0%,0%)" r="0.7" /><circle cx="277.900005431" cy="442.517402554" fill="rgb(100%,0%,0%)" r="0.7" /><circle cx="276.339259076" cy="445.079450582" fill="rgb(100%,0%,0%)" r="0.7" /><circle cx="274.770626192" cy="447.636658841" fill="rgb(100%,0%,0%)" r="0.7" /><circle cx="273.192386846" cy="450.187980107" fill="rgb(100%,0%,0%)" r="0.7" /><circle cx="271.602128782" cy="452.731798341" fill="rgb(100%,0%,0%)" r="0.7" /><circle cx="269.996106303" cy="455.265699599" fill="rgb(100%,0%,0%)" r="0.7" /><circle cx="268.368075383" cy="457.785521262" fill="rgb(100%,0%,0%)" r="0.7" /><circle cx="266.705992332" cy="460.282961596" fill="rgb(100%,0%,0%)" r="0.7" /><circle cx="265.012831184" cy="462.759432569" fill="rgb(100%,0%,0%)" r="0.7" /><circle cx="263.300091671" cy="465.222444174" fill="rgb(100%,0%,0%)" r="0.7" /><circle cx="261.569169713" cy="467.672726365" fill="rgb(100%,0%,0%)" r="0.7" /><circle cx="259.822707494" cy="470.111961148" fill="rgb(100%,0%,0%)" r="0.7" /><circle cx="258.061946585" cy="472.540913596" fill="rgb(100%,0%,0%)" r="0.7" /><circle cx="256.287613399" cy="474.959927556" fill="rgb(100%,0%,0%)" r="0.7" /><circle cx="254.50007896" cy="477.369235745" fill="rgb(100%,0%,0%)" r="0.7" /><circle cx="252.699590204" cy="479.768870042" fill="rgb(100%,0%,0%)" r="0.7" /><circle cx="250.886259525" cy="482.158790797" fill="rgb(100%,0%,0%)" r="0.7" /><circle cx="249.060080636" cy="484.538927282" fill="rgb(100%,0%,0%)" r="0.7" /><circle cx="247.22100399" cy="486.909115629" fill="rgb(100%,0%,0%)" r="0.7" /><circle cx="245.368910224" cy="489.269156892" fill="rgb(100%,0%,0%)" r="0.7" /><circle cx="243.503651537" cy="491.618778188" fill="rgb(100%,0%,0%)" r="0.7" /><circle cx="241.624993295" cy="493.957714758" fill="rgb(100%,0%,0%)" r="0.7" /><circle cx="239.732681301" cy="496.28562895" fill="rgb(100%,0%,0%)" r="0.7" /><circle cx="237.826428798" cy="498.602129044" fill="rgb(100%,0%,0%)" r="0.7" /><circle cx="235.905894835" cy="500.906794861" fill="rgb(100%,0%,0%)" r="0.7" /><circle cx="233.970689735" cy="503.199167582" fill="rgb(100%,0%,0%)" r="0.7" /><circle cx="232.020400028" cy="505.478715782" fill="rgb(100%,0%,0%)" r="0.7" /><circle cx="230.054559646" cy="507.744863865" fill="rgb(100%,0%,0%)" r="0.7" /><circle cx="228.072653473" cy="509.996979774" fill="rgb(100%,0%,0%)" r="0.7" /><circle cx="226.074127447" cy="512.234354289" fill="rgb(100%,0%,0%)" r="0.7" /><circle cx="224.058365353" cy="514.456216268" fill="rgb(100%,0%,0%)" r="0.7" /><circle cx="222.024703662" cy="516.661702871" fill="rgb(100%,0%,0%)" r="0.7" /><circle cx="219.972413636" cy="518.849864137" fill="rgb(100%,0%,0%)" r="0.7" /><circle cx="217.900701139" cy="521.019645105" fill="rgb(100%,0%,0%)" r="0.7" /><circle cx="215.808701062" cy="523.169870963" fill="rgb(100%,0%,0%)" r="0.7" /><circle cx="213.695469255" cy="525.299231176" fill="rgb(100%,0%,0%)" r="0.7" /><circle cx="211.559974243" cy="527.406259491" fill="rgb(100%,0%,0%)" r="0.7" /><circle cx="209.40108419" cy="529.489313381" fill="rgb(100%,0%,0%)" r="0.7" /><circle cx="207.215327481" cy="531.544013847" fill="rgb(100%,0%,0%)" r="0.7" /><circle cx="204.884988606" cy="533.432733258" fill="rgb(100%,0%,0%)" r="0.7" /><circle cx="202.475708016" cy="535.220028942" fill="rgb(100%,0%,0%)" r="0.7" /><circle cx="200.008788319" cy="536.926947619" fill="rgb(100%,0%,0%)" r="0.7" /><circle cx="197.492128587" cy="538.559680621" fill="rgb(100%,0%,0%)" r="0.7" /><circle cx="194.930378189" cy="540.12071777" fill="rgb(100%,0%,0%)" r="0.7" /><circle cx="192.326759088" cy="541.610896006" fill="rgb(100%,0%,0%)" r="0.7" /><circle cx="189.683787326" cy="543.030107523" fill="rgb(100%,0%,0%)" r="0.7" /><circle cx="187.003562958" cy="544.37766227" fill="rgb(100%,0%,0%)" r="0.7" /><circle cx="184.287988032" cy="545.652456021" fill="rgb(100%,0%,0%)" r="0.7" /><circle cx="181.538836224" cy="546.853107871" fill="rgb(100%,0%,0%)" r="0.7" /><circle cx="178.757834183" cy="547.97803421" fill="rgb(100%,0%,0%)" r="0.7" /><circle cx="175.946741383" cy="549.025497235" fill="rgb(100%,0%,0%)" r="0.7" /><circle cx="173.107364487" cy="549.993664469" fill="rgb(100%,0%,0%)" r="0.7" /><circle cx="170.241588482" cy="550.880649783" fill="rgb(100%,0%,0%)" r="0.7" /><circle cx="167.35141834" cy="551.68454683" fill="rgb(100%,0%,0%)" r="0.7" /><circle cx="164.438945303" cy="552.403480532" fill="rgb(100%,0%,0%)" r="0.7" /><circle cx="161.506419027" cy="553.035626145" fill="rgb(100%,0%,0%)" r="0.7" /><circle cx="158.55619839" cy="553.579258955" fill="rgb(100%,0%,0%)" r="0.7" /><circle cx="155.590795187" cy="554.032779647" fill="rgb(100%,0%,0%)" r="0.7" /><circle cx="152.612838137" cy="554.394754731" fill="rgb(100%,0%,0%)" r="0.7" /><circle cx="149.62506221" cy="554.663947193" fill="rgb(100%,0%,0%)" r="0.7" /><circle cx="151.871149935" cy="555.716060635" fill="rgb(100%,0%,0%)" r="0.7" /><circle cx="154.647527873" cy="556.852601678" fill="rgb(100%,0%,0%)" r="0.7" /><circle cx="157.423905812" cy="557.989142721" fill="rgb(100%,0%,0%)" r="0.7" /><circle cx="157.770427279" cy="559.715181272" fill="rgb(100%,0%,0%)" r="0.7" /><circle cx="155.823514135" cy="561.997620583" fill="rgb(100%,0%,0%)" r="0.7" /><circle cx="153.876600991" cy="564.280059894" fill="rgb(100%,0%,0%)" r="0.7" /><circle cx="151.929687846" cy="566.562499205" fill="rgb(100%,0%,0%)" r="0.7" /><circle cx="149.982774702" cy="568.844938517" fill="rgb(100%,0%,0%)" r="0.7" /><circle cx="151.194553005" cy="569.66996244" fill="rgb(100%,0%,0%)" r="0.7" /><circle cx="154.194553005" cy="569.669903617" fill="rgb(100%,0%,0%)" r="0.7" /><circle cx="157.194553004" cy="569.669844793" fill="rgb(100%,0%,0%)" r="0.7" /><circle cx="160.194553004" cy="569.66978597" fill="rgb(100%,0%,0%)" r="0.7" /><circle cx="163.194553003" cy="569.669727146" fill="rgb(100%,0%,0%)" r="0.7" /><circle cx="166.194553003" cy="569.669668322" fill="rgb(100%,0%,0%)" r="0.7" /><circle cx="169.194553002" cy="569.669609499" fill="rgb(100%,0%,0%)" r="0.7" /><circle cx="172.194553001" cy="569.669550675" fill="rgb(100%,0%,0%)" r="0.7" /><circle cx="175.194553001" cy="569.669491852" fill="rgb(100%,0%,0%)" r="0.7" /><circle cx="178.194553" cy="569.669433028" fill="rgb(100%,0%,0%)" r="0.7" /><circle cx="181.194553" cy="569.669374205" fill="rgb(100%,0%,0%)" r="0.7" /><circle cx="184.194552999" cy="569.669315381" fill="rgb(100%,0%,0%)" r="0.7" /><circle cx="187.194552999" cy="569.669256558" fill="rgb(100%,0%,0%)" r="0.7" /><circle cx="190.194552998" cy="569.669197734" fill="rgb(100%,0%,0%)" r="0.7" /><circle cx="193.194552997" cy="569.669138911" fill="rgb(100%,0%,0%)" r="0.7" /><circle cx="196.194552997" cy="569.669080087" fill="rgb(100%,0%,0%)" r="0.7" /><circle cx="199.194552996" cy="569.669021264" fill="rgb(100%,0%,0%)" r="0.7" /><circle cx="200.279" cy="569.669" fill="rgb(100%,0%,0%)" r="0.7" /><circle cx="203.2765295" cy="569.711539262" fill="rgb(100%,0%,0%)" r="0.7" /><circle cx="309.822917036" cy="388.205594283" fill="rgb(0%,0%,100%)" r="0.7" /><circle cx="310.448668501" cy="390.170605945" fill="rgb(0%,0%,100%)" r="0.7" /><circle cx="310.899442453" cy="393.136544089" fill="rgb(0%,0%,100%)" r="0.7" /><circle cx="311.371111302" cy="396.099225083" fill="rgb(0%,0%,100%)" r="0.7" /><circle cx="311.87764663" cy="399.056120035" fill="rgb(0%,0%,100%)" r="0.7" /><circle cx="312.486338402" cy="401.993019958" fill="rgb(0%,0%,100%)" r="0.7" /><circle cx="314.455655272" cy="401.08927929" fill="rgb(0%,0%,100%)" r="0.7" /><circle cx="316.551876881" cy="398.943215774" fill="rgb(0%,0%,100%)" r="0.7" /><circle cx="318.621014978" cy="396.77097507" fill="rgb(0%,0%,100%)" r="0.7" /><circle cx="320.676493232" cy="394.585795519" fill="rgb(0%,0%,100%)" r="0.7" /><circle cx="322.722596729" cy="392.391838095" fill="rgb(0%,0%,100%)" r="0.7" /><circle cx="323.466655589" cy="392.260570745" fill="rgb(0%,0%,100%)" r="0.7" /><circle cx="322.219107837" cy="394.988763852" fill="rgb(0%,0%,100%)" r="0.7" /><circle cx="320.922583517" cy="397.694142378" fill="rgb(0%,0%,100%)" r="0.7" /><circle cx="319.606195572" cy="400.389873838" fill="rgb(0%,0%,100%)" r="0.7" /><circle cx="318.278170062" cy="403.079909957" fill="rgb(0%,0%,100%)" r="0.7" /><circle cx="316.942250251" cy="405.766048255" fill="rgb(0%,0%,100%)" r="0.7" /><circle cx="315.600512746" cy="408.44929164" fill="rgb(0%,0%,100%)" r="0.7" /><circle cx="314.254256647" cy="411.130256925" fill="rgb(0%,0%,100%)" r="0.7" /><circle cx="312.904340561" cy="413.809390748" fill="rgb(0%,0%,100%)" r="0.7" /><circle cx="311.551385327" cy="416.486989551" fill="rgb(0%,0%,100%)" r="0.7" /><circle cx="310.195848211" cy="419.163277636" fill="rgb(0%,0%,100%)" r="0.7" /><circle cx="308.838074436" cy="421.838434709" fill="rgb(0%,0%,100%)" r="0.7" /><circle cx="307.478334986" cy="424.512600588" fill="rgb(0%,0%,100%)" r="0.7" /><circle cx="306.116856229" cy="427.185867992" fill="rgb(0%,0%,100%)" r="0.7" /><circle cx="304.753807579" cy="429.85834087" fill="rgb(0%,0%,100%)" r="0.7" /><circle cx="303.389336813" cy="432.530088558" fill="rgb(0%,0%,100%)" r="0.7" /><circle cx="302.023566268" cy="435.201169986" fill="rgb(0%,0%,100%)" r="0.7" /><circle cx="300.656596145" cy="437.871639227" fill="rgb(0%,0%,100%)" r="0.7" /><circle cx="299.288513446" cy="440.541536854" fill="rgb(0%,0%,100%)" r="0.7" /><circle cx="297.919389728" cy="443.210900815" fill="rgb(0%,0%,100%)" r="0.7" /><circle cx="296.549281691" cy="445.879769994" fill="rgb(0%,0%,100%)" r="0.7" /><circle cx="295.178247799" cy="448.548155151" fill="rgb(0%,0%,100%)" r="0.7" /><circle cx="293.806327629" cy="451.2160812" fill="rgb(0%,0%,100%)" r="0.7" /><circle cx="292.433558949" cy="453.88355471" fill="rgb(0%,0%,100%)" r="0.7" /><circle cx="291.059945447" cy="456.55062573" fill="rgb(0%,0%,100%)" r="0.7" /><circle cx="289.685516325" cy="459.217268706" fill="rgb(0%,0%,100%)" r="0.7" /><circle cx="288.310269937" cy="461.883483988" fill="rgb(0%,0%,100%)" r="0.7" /><circle cx="286.934176466" cy="464.549273585" fill="rgb(0%,0%,100%)" r="0.7" /><circle cx="285.55719555" cy="467.214553398" fill="rgb(0%,0%,100%)" r="0.7" /><circle cx="284.179058194" cy="469.879301931" fill="rgb(0%,0%,100%)" r="0.7" /><circle cx="282.669166031" cy="472.470961439" fill="rgb(0%,0%,100%)" r="0.7" /><circle cx="281.085241867" cy="475.018710328" fill="rgb(0%,0%,100%)" r="0.7" /><circle cx="279.472631741" cy="477.548422881" fill="rgb(0%,0%,100%)" r="0.7" /><circle cx="277.842384651" cy="480.066810366" fill="rgb(0%,0%,100%)" r="0.7" /><circle cx="276.199258292" cy="482.576815795" fill="rgb(0%,0%,100%)" r="0.7" /><circle cx="274.545029505" cy="485.07952049" fill="rgb(0%,0%,100%)" r="0.7" /><circle cx="272.687837585" cy="487.430966493" fill="rgb(0%,0%,100%)" r="0.7" /><circle cx="270.882238267" cy="489.826606397" fill="rgb(0%,0%,100%)" r="0.7" /><circle cx="269.126797386" cy="492.259369082" fill="rgb(0%,0%,100%)" r="0.7" /><circle cx="267.399042781" cy="494.711876685" fill="rgb(0%,0%,100%)" r="0.7" /><circle cx="265.689539328" cy="497.177164462" fill="rgb(0%,0%,100%)" r="0.7" /><circle cx="263.993290745" cy="499.65156719" fill="rgb(0%,0%,100%)" r="0.7" /><circle cx="262.307222131" cy="502.132948498" fill="rgb(0%,0%,100%)" r="0.7" /><circle cx="260.629344706" cy="504.619845818" fill="rgb(0%,0%,100%)" r="0.7" /><circle cx="258.958218216" cy="507.111307023" fill="rgb(0%,0%,100%)" r="0.7" /><circle cx="257.292820634" cy="509.606588336" fill="rgb(0%,0%,100%)" r="0.7" /><circle cx="255.632351991" cy="512.10516578" fill="rgb(0%,0%,100%)" r="0.7" /><circle cx="253.976209954" cy="514.606602137" fill="rgb(0%,0%,100%)" r="0.7" /><circle cx="252.323900132" cy="517.110573698" fill="rgb(0%,0%,100%)" r="0.7" /><circle cx="250.675026721" cy="519.616812829" fill="rgb(0%,0%,100%)" r="0.7" /><circle cx="249.029267642" cy="522.125096308" fill="rgb(0%,0%,100%)" r="0.7" /><circle cx="247.386352765" cy="524.635243735" fill="rgb(0%,0%,100%)" r="0.7" /><circle cx="245.746055905" cy="527.147104782" fill="rgb(0%,0%,100%)" r="0.7" /><circle cx="244.1081897" cy="529.660548735" fill="rgb(0%,0%,100%)" r="0.7" /><circle cx="242.472591332" cy="532.175472959" fill="rgb(0%,0%,100%)" r="0.7" /><circle cx="240.839129535" cy="534.691782338" fill="rgb(0%,0%,100%)" r="0.7" /><circle cx="239.20769488" cy="537.209397261" fill="rgb(0%,0%,100%)" r="0.7" /><circle cx="237.578182755" cy="539.728275586" fill="rgb(0%,0%,100%)" r="0.7" /><circle cx="235.950541052" cy="542.24833712" fill="rgb(0%,0%,100%)" r="0.7" /><circle cx="234.324693792" cy="544.769583058" fill="rgb(0%,0%,100%)" r="0.7" /><circle cx="232.700622065" cy="547.291976765" fill="rgb(0%,0%,100%)" r="0.7" /><circle cx="231.078337909" cy="549.81549892" fill="rgb(0%,0%,100%)" r="0.7" /><circle cx="229.457879147" cy="552.340191036" fill="rgb(0%,0%,100%)" r="0.7" /><circle cx="227.839378737" cy="554.866147394" fill="rgb(0%,0%,100%)" r="0.7" /><circle cx="226.223275689" cy="557.393674772" fill="rgb(0%,0%,100%)" r="0.7" /><circle cx="224.391078437" cy="559.765777497" fill="rgb(0%,0%,100%)" r="0.7" /><circle cx="222.310989982" cy="561.92565581" fill="rgb(0%,0%,100%)" r="0.7" /><circle cx="220.014574477" cy="563.853841868" fill="rgb(0%,0%,100%)" r="0.7" /><circle cx="217.524870691" cy="565.524998344" fill="rgb(0%,0%,100%)" r="0.7" /><circle cx="214.871890677" cy="566.922647617" fill="rgb(0%,0%,100%)" r="0.7" /><circle cx="212.088927102" cy="568.039531437" fill="rgb(0%,0%,100%)" r="0.7" /><circle cx="209.208999585" cy="568.875564541" fill="rgb(0%,0%,100%)" r="0.7" /><circle cx="206.262479085" cy="569.433583193" fill="rgb(0%,0%,100%)" r="0.7" /><circle cx="203.2765295" cy="569.711539262" fill="rgb(0%,0%,100%)" r="0.7" /></svg>