<?xml version="1.0" encoding="utf-8" ?>
<svg baseProfile="full" height="100%" version="1.1" width="100%" xmlns="http://www.w3.org/2000/svg" xmlns:ev="http://www.w3.org/2001/xml-events" xmlns:xlink="http://www.w3.org/1999/xlink"><defs /><circle cx="288.662597238" cy="311.073850906" fill="rgb(100%,0%,0%)" r="0.7" /><circle cx="285.684306686" cy="311.185214551" fill="rgb(100%,0%,0%)" r="0.7" /><circle cx="283.075241667" cy="312.601385471" fill="rgb(100%,0%,0%)" r="0.7" /><circle cx="282.090644934" cy="315.23724003" fill="rgb(100%,0%,0%)" r="0.7" /><circle cx="282.816985327" cy="318.1348825" fill="rgb(100%,0%,0%)" r="0.7" /><circle cx="284.367533419" cy="320.691759382" fill="rgb(100%,0%,0%)" r="0.7" /><circle cx="286.508821769" cy="322.78399565" fill="rgb(100%,0%,0%)" r="0.7" /><circle cx="288.680561222" cy="324.421001716" fill="rgb(100%,0%,0%)" r="0.7" /><circle cx="289.077687442" cy="327.383965127" fill="rgb(100%,0%,0%)" r="0.7" /><circle cx="288.970000665" cy="330.380848145" fill="rgb(100%,0%,0%)" r="0.7" /><circle cx="288.648207777" cy="333.363175933" fill="rgb(100%,0%,0%)" r="0.7" /><circle cx="288.200349294" cy="336.329414048" fill="rgb(100%,0%,0%)" r="0.7" /><circle cx="287.666757887" cy="339.28152799" fill="rgb(100%,0%,0%)" r="0.7" /><circle cx="287.069891481" cy="342.221467079" fill="rgb(100%,0%,0%)" r="0.7" /><circle cx="286.423740658" cy="345.151028336" fill="rgb(100%,0%,0%)" r="0.7" /><circle cx="285.737761352" cy="348.071529346" fill="rgb(100%,0%,0%)" r="0.7" /><circle cx="285.018680963" cy="350.984082718" fill="rgb(100%,0%,0%)" r="0.7" /><circle cx="284.271513721" cy="353.889524191" fill="rgb(100%,0%,0%)" r="0.7" /><circle cx="283.500085509" cy="356.788631687" fill="rgb(100%,0%,0%)" r="0.7" /><circle cx="282.707423518" cy="359.681997206" fill="rgb(100%,0%,0%)" r="0.7" /><circle cx="281.895952305" cy="362.570162437" fill="rgb(100%,0%,0%)" r="0.7" /><circle cx="281.067662481" cy="365.453571052" fill="rgb(100%,0%,0%)" r="0.7" /><circle cx="280.224225827" cy="368.332550009" fill="rgb(100%,0%,0%)" r="0.7" /><circle cx="279.367020027" cy="371.207491038" fill="rgb(100%,0%,0%)" r="0.7" /><circle cx="278.497249204" cy="374.078633493" fill="rgb(100%,0%,0%)" r="0.7" /><circle cx="277.615934005" cy="376.94624288" fill="rgb(100%,0%,0%)" r="0.7" /><circle cx="276.723946785" cy="379.810598157" fill="rgb(100%,0%,0%)" r="0.7" /><circle cx="275.822101411" cy="382.671785665" fill="rgb(100%,0%,0%)" r="0.7" /><circle cx="274.911042689" cy="385.530115346" fill="rgb(100%,0%,0%)" r="0.7" /><circle cx="273.991404797" cy="388.385666919" fill="rgb(100%,0%,0%)" r="0.7" /><circle cx="273.063716292" cy="391.23863005" fill="rgb(100%,0%,0%)" r="0.7" /><circle cx="272.721244824" cy="393.180498777" fill="rgb(100%,0%,0%)" r="0.7" /><circle cx="274.951178071" cy="391.173661037" fill="rgb(100%,0%,0%)" r="0.7" /><circle cx="277.181111317" cy="389.166823296" fill="rgb(100%,0%,0%)" r="0.7" /><circle cx="279.411044563" cy="387.159985556" fill="rgb(100%,0%,0%)" r="0.7" /><circle cx="281.64097781" cy="385.153147815" fill="rgb(100%,0%,0%)" r="0.7" /><circle cx="283.870911056" cy="383.146310075" fill="rgb(100%,0%,0%)" r="0.7" /><circle cx="285.963116148" cy="382.53010626" fill="rgb(100%,0%,0%)" r="0.7" /><circle cx="287.756075529" cy="384.935370623" fill="rgb(100%,0%,0%)" r="0.7" /><circle cx="289.549034911" cy="387.340634985" fill="rgb(100%,0%,0%)" r="0.7" /><circle cx="291.341994293" cy="389.745899348" fill="rgb(100%,0%,0%)" r="0.7" /><circle cx="293.134953675" cy="392.151163711" fill="rgb(100%,0%,0%)" r="0.7" /><circle cx="294.927913056" cy="394.556428074" fill="rgb(100%,0%,0%)" r="0.7" /><circle cx="296.720872438" cy="396.961692437" fill="rgb(100%,0%,0%)" r="0.7" /><circle cx="298.51383182" cy="399.3669568" fill="rgb(100%,0%,0%)" r="0.7" /><circle cx="298.818" cy="399.775" fill="rgb(100%,0%,0%)" r="0.7" /><circle cx="288.662597238" cy="311.073850906" fill="rgb(0%,0%,100%)" r="0.7" /><circle cx="291.51546352" cy="311.964070696" fill="rgb(0%,0%,100%)" r="0.7" /><circle cx="294.416047274" cy="311.842450809" fill="rgb(0%,0%,100%)" r="0.7" /><circle cx="297.246463482" cy="311.268465248" fill="rgb(0%,0%,100%)" r="0.7" /><circle cx="300.111279196" cy="312.115152353" fill="rgb(0%,0%,100%)" r="0.7" /><circle cx="302.685806153" cy="313.646241566" fill="rgb(0%,0%,100%)" r="0.7" /><circle cx="304.985270182" cy="315.569399699" fill="rgb(0%,0%,100%)" r="0.7" /><circle cx="306.948741336" cy="317.829794475" fill="rgb(0%,0%,100%)" r="0.7" /><circle cx="308.396416653" cy="320.452489378" fill="rgb(0%,0%,100%)" r="0.7" /><circle cx="309.417359109" cy="323.271129871" fill="rgb(0%,0%,100%)" r="0.7" /><circle cx="310.116421304" cy="326.187376855" fill="rgb(0%,0%,100%)" r="0.7" /><circle cx="310.572110832" cy="329.151934772" fill="rgb(0%,0%,100%)" r="0.7" /><circle cx="310.839626243" cy="332.139583422" fill="rgb(0%,0%,100%)" r="0.7" /><circle cx="310.957853439" cy="335.137010816" fill="rgb(0%,0%,100%)" r="0.7" /><circle cx="310.954746278" cy="338.136836602" fill="rgb(0%,0%,100%)" r="0.7" /><circle cx="310.850912161" cy="341.134919247" fill="rgb(0%,0%,100%)" r="0.7" /><circle cx="310.661911433" cy="344.128883551" fill="rgb(0%,0%,100%)" r="0.7" /><circle cx="310.399756215" cy="347.117340674" fill="rgb(0%,0%,100%)" r="0.7" /><circle cx="310.073895597" cy="350.099539274" fill="rgb(0%,0%,100%)" r="0.7" /><circle cx="309.691888756" cy="353.075080251" fill="rgb(0%,0%,100%)" r="0.7" /><circle cx="309.259869929" cy="356.043780837" fill="rgb(0%,0%,100%)" r="0.7" /><circle cx="308.782876745" cy="359.00559369" fill="rgb(0%,0%,100%)" r="0.7" /><circle cx="308.265087402" cy="361.960551888" fill="rgb(0%,0%,100%)" r="0.7" /><circle cx="307.709994328" cy="364.908733697" fill="rgb(0%,0%,100%)" r="0.7" /><circle cx="307.120533883" cy="367.850233796" fill="rgb(0%,0%,100%)" r="0.7" /><circle cx="306.499176589" cy="370.785173626" fill="rgb(0%,0%,100%)" r="0.7" /><circle cx="305.848010058" cy="373.713631075" fill="rgb(0%,0%,100%)" r="0.7" /><circle cx="305.168771111" cy="376.635717795" fill="rgb(0%,0%,100%)" r="0.7" /><circle cx="304.462897806" cy="379.551485127" fill="rgb(0%,0%,100%)" r="0.7" /><circle cx="303.731531869" cy="382.460974604" fill="rgb(0%,0%,100%)" r="0.7" /><circle cx="302.975527548" cy="385.364149585" fill="rgb(0%,0%,100%)" r="0.7" /><circle cx="302.195404351" cy="388.260921667" fill="rgb(0%,0%,100%)" r="0.7" /><circle cx="301.391245778" cy="391.151135602" fill="rgb(0%,0%,100%)" r="0.7" /><circle cx="300.562493484" cy="394.03438828" fill="rgb(0%,0%,100%)" r="0.7" /><circle cx="299.70724074" cy="396.909863709" fill="rgb(0%,0%,100%)" r="0.7" /><circle cx="298.818" cy="399.775" fill="rgb(0%,0%,100%)" r="0.7" /></svg>