<?xml version="1.0" encoding="utf-8" ?>
<svg baseProfile="full" height="100%" version="1.1" width="100%" xmlns="http://www.w3.org/2000/svg" xmlns:ev="http://www.w3.org/2001/xml-events" xmlns:xlink="http://www.w3.org/1999/xlink"><defs /><circle cx="335.128894695" cy="347.388872196" fill="rgb(100%,0%,0%)" r="0.7" /><circle cx="332.423311356" cy="348.516802606" fill="rgb(100%,0%,0%)" r="0.7" /><circle cx="330.520957694" cy="350.823412559" fill="rgb(100%,0%,0%)" r="0.7" /><circle cx="329.098100871" cy="353.462096407" fill="rgb(100%,0%,0%)" r="0.7" /><circle cx="327.945604111" cy="356.231090539" fill="rgb(100%,0%,0%)" r="0.7" /><circle cx="326.966888541" cy="359.06661412" fill="rgb(100%,0%,0%)" r="0.7" /><circle cx="326.225214613" cy="361.965013083" fill="rgb(100%,0%,0%)" r="0.7" /><circle cx="325.860015577" cy="364.942726758" fill="rgb(100%,0%,0%)" r="0.7" /><circle cx="325.507121617" cy="367.921878122" fill="rgb(100%,0%,0%)" r="0.7" /><circle cx="325.16437342" cy="370.90224508" fill="rgb(100%,0%,0%)" r="0.7" /><circle cx="324.831001575" cy="373.883666559" fill="rgb(100%,0%,0%)" r="0.7" /><circle cx="324.50667194" cy="376.866087621" fill="rgb(100%,0%,0%)" r="0.7" /><circle cx="324.191273295" cy="379.849465725" fill="rgb(100%,0%,0%)" r="0.7" /><circle cx="323.884830758" cy="382.833789001" fill="rgb(100%,0%,0%)" r="0.7" /><circle cx="323.587475377" cy="385.818993109" fill="rgb(100%,0%,0%)" r="0.7" /><circle cx="323.299407316" cy="388.805135674" fill="rgb(100%,0%,0%)" r="0.7" /><circle cx="323.020907571" cy="391.792185925" fill="rgb(100%,0%,0%)" r="0.7" /><circle cx="322.752323427" cy="394.780131399" fill="rgb(100%,0%,0%)" r="0.7" /><circle cx="322.494067142" cy="397.768999317" fill="rgb(100%,0%,0%)" r="0.7" /><circle cx="322.246626522" cy="400.758774467" fill="rgb(100%,0%,0%)" r="0.7" /><circle cx="322.010564302" cy="403.749473843" fill="rgb(100%,0%,0%)" r="0.7" /><circle cx="321.786531061" cy="406.741095861" fill="rgb(100%,0%,0%)" r="0.7" /><circle cx="321.575274511" cy="409.73364852" fill="rgb(100%,0%,0%)" r="0.7" /><circle cx="321.377655883" cy="412.727132471" fill="rgb(100%,0%,0%)" r="0.7" /><circle cx="321.194669029" cy="415.721544748" fill="rgb(100%,0%,0%)" r="0.7" /><circle cx="321.027465416" cy="418.716878747" fill="rgb(100%,0%,0%)" r="0.7" /><circle cx="320.877386821" cy="421.7131179" fill="rgb(100%,0%,0%)" r="0.7" /><circle cx="320.746007432" cy="424.710237789" fill="rgb(100%,0%,0%)" r="0.7" /><circle cx="320.635190687" cy="427.708182344" fill="rgb(100%,0%,0%)" r="0.7" /><circle cx="320.547163253" cy="430.706889533" fill="rgb(100%,0%,0%)" r="0.7" /><circle cx="320.484619997" cy="433.706222224" fill="rgb(100%,0%,0%)" r="0.7" /><circle cx="320.450866353" cy="436.706030047" fill="rgb(100%,0%,0%)" r="0.7" /><circle cx="320.450027931" cy="439.706011677" fill="rgb(100%,0%,0%)" r="0.7" /><circle cx="320.487356768" cy="442.705748832" fill="rgb(100%,0%,0%)" r="0.7" /><circle cx="320.569706652" cy="445.704600894" fill="rgb(100%,0%,0%)" r="0.7" /><circle cx="320.706291853" cy="448.701432006" fill="rgb(100%,0%,0%)" r="0.7" /><circle cx="320.909987652" cy="451.694442344" fill="rgb(100%,0%,0%)" r="0.7" /><circle cx="321.199683243" cy="454.680288233" fill="rgb(100%,0%,0%)" r="0.7" /><circle cx="321.604995529" cy="457.652523595" fill="rgb(100%,0%,0%)" r="0.7" /><circle cx="322.176863588" cy="460.596905012" fill="rgb(100%,0%,0%)" r="0.7" /><circle cx="323.328501234" cy="461.858632383" fill="rgb(100%,0%,0%)" r="0.7" /><circle cx="325.280693571" cy="459.580706774" fill="rgb(100%,0%,0%)" r="0.7" /><circle cx="327.232885909" cy="457.302781166" fill="rgb(100%,0%,0%)" r="0.7" /><circle cx="329.162574286" cy="455.70116767" fill="rgb(100%,0%,0%)" r="0.7" /><circle cx="330.959022397" cy="458.103827485" fill="rgb(100%,0%,0%)" r="0.7" /><circle cx="332.755470508" cy="460.506487299" fill="rgb(100%,0%,0%)" r="0.7" /><circle cx="334.551918619" cy="462.909147114" fill="rgb(100%,0%,0%)" r="0.7" /><circle cx="336.34836673" cy="465.311806928" fill="rgb(100%,0%,0%)" r="0.7" /><circle cx="338.144814841" cy="467.714466743" fill="rgb(100%,0%,0%)" r="0.7" /><circle cx="339.186" cy="469.107" fill="rgb(100%,0%,0%)" r="0.7" /><circle cx="335.128894695" cy="347.388872196" fill="rgb(0%,0%,100%)" r="0.7" /><circle cx="337.838914304" cy="348.53748848" fill="rgb(0%,0%,100%)" r="0.7" /><circle cx="339.844472646" cy="350.757412469" fill="rgb(0%,0%,100%)" r="0.7" /><circle cx="341.419201894" cy="353.308529831" fill="rgb(0%,0%,100%)" r="0.7" /><circle cx="342.730713498" cy="356.005779471" fill="rgb(0%,0%,100%)" r="0.7" /><circle cx="343.850235054" cy="358.788535537" fill="rgb(0%,0%,100%)" r="0.7" /><circle cx="344.715407797" cy="361.65846828" fill="rgb(0%,0%,100%)" r="0.7" /><circle cx="345.323905212" cy="364.595649458" fill="rgb(0%,0%,100%)" r="0.7" /><circle cx="345.782098937" cy="367.560228722" fill="rgb(0%,0%,100%)" r="0.7" /><circle cx="346.126663662" cy="370.54021667" fill="rgb(0%,0%,100%)" r="0.7" /><circle cx="346.381771713" cy="373.529262771" fill="rgb(0%,0%,100%)" r="0.7" /><circle cx="346.564218162" cy="376.523651388" fill="rgb(0%,0%,100%)" r="0.7" /><circle cx="346.686184615" cy="379.521132479" fill="rgb(0%,0%,100%)" r="0.7" /><circle cx="346.756809709" cy="382.520269453" fill="rgb(0%,0%,100%)" r="0.7" /><circle cx="346.783141898" cy="385.520148462" fill="rgb(0%,0%,100%)" r="0.7" /><circle cx="346.770742262" cy="388.520103868" fill="rgb(0%,0%,100%)" r="0.7" /><circle cx="346.724084206" cy="391.519715391" fill="rgb(0%,0%,100%)" r="0.7" /><circle cx="346.64682337" cy="394.518712994" fill="rgb(0%,0%,100%)" r="0.7" /><circle cx="346.541990134" cy="397.516871844" fill="rgb(0%,0%,100%)" r="0.7" /><circle cx="346.412125532" cy="400.514053924" fill="rgb(0%,0%,100%)" r="0.7" /><circle cx="346.259382596" cy="403.510160385" fill="rgb(0%,0%,100%)" r="0.7" /><circle cx="346.0856021" cy="406.505117135" fill="rgb(0%,0%,100%)" r="0.7" /><circle cx="345.89236893" cy="409.498884135" fill="rgb(0%,0%,100%)" r="0.7" /><circle cx="345.681057413" cy="412.491429651" fill="rgb(0%,0%,100%)" r="0.7" /><circle cx="345.452865204" cy="415.482737222" fill="rgb(0%,0%,100%)" r="0.7" /><circle cx="345.208841079" cy="418.472794424" fill="rgb(0%,0%,100%)" r="0.7" /><circle cx="344.949906032" cy="421.461597555" fill="rgb(0%,0%,100%)" r="0.7" /><circle cx="344.676871431" cy="424.449139155" fill="rgb(0%,0%,100%)" r="0.7" /><circle cx="344.390450158" cy="427.435434791" fill="rgb(0%,0%,100%)" r="0.7" /><circle cx="344.091271014" cy="430.420483075" fill="rgb(0%,0%,100%)" r="0.7" /><circle cx="343.779886043" cy="433.404278986" fill="rgb(0%,0%,100%)" r="0.7" /><circle cx="343.45677565" cy="436.386824305" fill="rgb(0%,0%,100%)" r="0.7" /><circle cx="343.122351522" cy="439.36813708" fill="rgb(0%,0%,100%)" r="0.7" /><circle cx="342.776966545" cy="442.348181799" fill="rgb(0%,0%,100%)" r="0.7" /><circle cx="342.420903415" cy="445.3269673" fill="rgb(0%,0%,100%)" r="0.7" /><circle cx="342.054376941" cy="448.304492206" fill="rgb(0%,0%,100%)" r="0.7" /><circle cx="341.677525244" cy="451.280749582" fill="rgb(0%,0%,100%)" r="0.7" /><circle cx="341.290402412" cy="454.255661948" fill="rgb(0%,0%,100%)" r="0.7" /><circle cx="340.892932225" cy="457.229211201" fill="rgb(0%,0%,100%)" r="0.7" /><circle cx="340.484867084" cy="460.201302883" fill="rgb(0%,0%,100%)" r="0.7" /><circle cx="340.065642453" cy="463.171878181" fill="rgb(0%,0%,100%)" r="0.7" /><circle cx="339.634036027" cy="466.140702508" fill="rgb(0%,0%,100%)" r="0.7" /><circle cx="339.186" cy="469.107" fill="rgb(0%,0%,100%)" r="0.7" /></svg>