<?xml version="1.0" encoding="utf-8" ?>
<svg baseProfile="full" height="100%" version="1.1" width="100%" xmlns="http://www.w3.org/2000/svg" xmlns:ev="http://www.w3.org/2001/xml-events" xmlns:xlink="http://www.w3.org/1999/xlink"><defs /><circle cx="346.080971608" cy="302.302418982" fill="rgb(100%,0%,0%)" r="0.7" /><circle cx="344.800158523" cy="304.534301737" fill="rgb(100%,0%,0%)" r="0.7" /><circle cx="343.571791634" cy="307.271302" fill="rgb(100%,0%,0%)" r="0.7" /><circle cx="342.323781185" cy="309.999383964" fill="rgb(100%,0%,0%)" r="0.7" /><circle cx="341.05905088" cy="312.719745066" fill="rgb(100%,0%,0%)" r="0.7" /><circle cx="339.779167165" cy="315.433041283" fill="rgb(100%,0%,0%)" r="0.7" /><circle cx="338.485158711" cy="318.139600476" fill="rgb(100%,0%,0%)" r="0.7" /><circle cx="337.177696624" cy="320.839712546" fill="rgb(100%,0%,0%)" r="0.7" /><circle cx="335.857304954" cy="323.533490892" fill="rgb(100%,0%,0%)" r="0.7" /><circle cx="334.524332929" cy="326.221087827" fill="rgb(100%,0%,0%)" r="0.7" /><circle cx="333.179068708" cy="328.902553115" fill="rgb(100%,0%,0%)" r="0.7" /><circle cx="331.821719438" cy="331.577932264" fill="rgb(100%,0%,0%)" r="0.7" /><circle cx="330.452449067" cy="334.247228384" fill="rgb(100%,0%,0%)" r="0.7" /><circle cx="329.071382124" cy="336.910421008" fill="rgb(100%,0%,0%)" r="0.7" /><circle cx="327.678595552" cy="339.567499561" fill="rgb(100%,0%,0%)" r="0.7" /><circle cx="326.274136764" cy="342.218440975" fill="rgb(100%,0%,0%)" r="0.7" /><circle cx="324.858041766" cy="344.863185509" fill="rgb(100%,0%,0%)" r="0.7" /><circle cx="323.430322505" cy="347.501668496" fill="rgb(100%,0%,0%)" r="0.7" /><circle cx="321.990962277" cy="350.133833907" fill="rgb(100%,0%,0%)" r="0.7" /><circle cx="320.53994775" cy="352.759579983" fill="rgb(100%,0%,0%)" r="0.7" /><circle cx="319.077238492" cy="355.378818716" fill="rgb(100%,0%,0%)" r="0.7" /><circle cx="317.602768531" cy="357.991474509" fill="rgb(100%,0%,0%)" r="0.7" /><circle cx="316.116483882" cy="360.597419632" fill="rgb(100%,0%,0%)" r="0.7" /><circle cx="314.618308031" cy="363.196537623" fill="rgb(100%,0%,0%)" r="0.7" /><circle cx="313.10814153" cy="365.788724156" fill="rgb(100%,0%,0%)" r="0.7" /><circle cx="311.585901051" cy="368.373820901" fill="rgb(100%,0%,0%)" r="0.7" /><circle cx="310.051466717" cy="370.951706589" fill="rgb(100%,0%,0%)" r="0.7" /><circle cx="308.50472278" cy="373.522227821" fill="rgb(100%,0%,0%)" r="0.7" /><circle cx="306.945538926" cy="376.08523114" fill="rgb(100%,0%,0%)" r="0.7" /><circle cx="305.373792758" cy="378.640526338" fill="rgb(100%,0%,0%)" r="0.7" /><circle cx="303.789319338" cy="381.187968637" fill="rgb(100%,0%,0%)" r="0.7" /><circle cx="302.19197509" cy="383.727354523" fill="rgb(100%,0%,0%)" r="0.7" /><circle cx="300.581595894" cy="386.258489719" fill="rgb(100%,0%,0%)" r="0.7" /><circle cx="298.958005525" cy="388.781174746" fill="rgb(100%,0%,0%)" r="0.7" /><circle cx="297.321022646" cy="391.295193524" fill="rgb(100%,0%,0%)" r="0.7" /><circle cx="295.670463785" cy="393.800308693" fill="rgb(100%,0%,0%)" r="0.7" /><circle cx="294.006122463" cy="396.29629274" fill="rgb(100%,0%,0%)" r="0.7" /><circle cx="292.327787703" cy="398.782898789" fill="rgb(100%,0%,0%)" r="0.7" /><circle cx="290.63525377" cy="401.259846094" fill="rgb(100%,0%,0%)" r="0.7" /><circle cx="288.940416207" cy="403.735222745" fill="rgb(100%,0%,0%)" r="0.7" /><circle cx="287.236422907" cy="406.204311832" fill="rgb(100%,0%,0%)" r="0.7" /><circle cx="285.520944392" cy="408.66543796" fill="rgb(100%,0%,0%)" r="0.7" /><circle cx="283.792293994" cy="411.117324472" fill="rgb(100%,0%,0%)" r="0.7" /><circle cx="282.04699346" cy="413.557382032" fill="rgb(100%,0%,0%)" r="0.7" /><circle cx="280.278508938" cy="415.980680683" fill="rgb(100%,0%,0%)" r="0.7" /><circle cx="278.472835193" cy="418.376349911" fill="rgb(100%,0%,0%)" r="0.7" /><circle cx="276.586652045" cy="420.708722104" fill="rgb(100%,0%,0%)" r="0.7" /><circle cx="274.334080316" cy="422.669180361" fill="rgb(100%,0%,0%)" r="0.7" /><circle cx="271.683587428" cy="424.069350801" fill="rgb(100%,0%,0%)" r="0.7" /><circle cx="268.896372322" cy="425.176596707" fill="rgb(100%,0%,0%)" r="0.7" /><circle cx="266.035953422" cy="426.079421714" fill="rgb(100%,0%,0%)" r="0.7" /><circle cx="263.130243343" cy="426.824463697" fill="rgb(100%,0%,0%)" r="0.7" /><circle cx="260.194573357" cy="427.441455243" fill="rgb(100%,0%,0%)" r="0.7" /><circle cx="257.238340423" cy="427.951177793" fill="rgb(100%,0%,0%)" r="0.7" /><circle cx="254.267675073" cy="428.369008977" fill="rgb(100%,0%,0%)" r="0.7" /><circle cx="251.286840014" cy="428.706772832" fill="rgb(100%,0%,0%)" r="0.7" /><circle cx="248.298808219" cy="428.973844767" fill="rgb(100%,0%,0%)" r="0.7" /><circle cx="245.305807231" cy="429.177817772" fill="rgb(100%,0%,0%)" r="0.7" /><circle cx="242.309450072" cy="429.324964746" fill="rgb(100%,0%,0%)" r="0.7" /><circle cx="239.311012602" cy="429.42054104" fill="rgb(100%,0%,0%)" r="0.7" /><circle cx="238.577647316" cy="430.606867178" fill="rgb(100%,0%,0%)" r="0.7" /><circle cx="240.255160966" cy="433.094023779" fill="rgb(100%,0%,0%)" r="0.7" /><circle cx="240.116205185" cy="435.816236373" fill="rgb(100%,0%,0%)" r="0.7" /><circle cx="239.127034703" cy="438.648469018" fill="rgb(100%,0%,0%)" r="0.7" /><circle cx="238.137864221" cy="441.480701663" fill="rgb(100%,0%,0%)" r="0.7" /><circle cx="237.463" cy="443.413" fill="rgb(100%,0%,0%)" r="0.7" /><circle cx="346.080971608" cy="302.302418982" fill="rgb(0%,0%,100%)" r="0.7" /><circle cx="348.049499908" cy="304.56624237" fill="rgb(0%,0%,100%)" r="0.7" /><circle cx="350.018028209" cy="306.830065758" fill="rgb(0%,0%,100%)" r="0.7" /><circle cx="351.986556509" cy="309.093889145" fill="rgb(0%,0%,100%)" r="0.7" /><circle cx="354.709217856" cy="308.11161583" fill="rgb(0%,0%,100%)" r="0.7" /><circle cx="357.4741328" cy="306.947465773" fill="rgb(0%,0%,100%)" r="0.7" /><circle cx="357.033870363" cy="308.969261591" fill="rgb(0%,0%,100%)" r="0.7" /><circle cx="355.80214505" cy="311.704712721" fill="rgb(0%,0%,100%)" r="0.7" /><circle cx="354.539898727" cy="314.426237864" fill="rgb(0%,0%,100%)" r="0.7" /><circle cx="353.258307954" cy="317.138711911" fill="rgb(0%,0%,100%)" r="0.7" /><circle cx="351.962981452" cy="319.844656048" fill="rgb(0%,0%,100%)" r="0.7" /><circle cx="350.657202489" cy="322.54556996" fill="rgb(0%,0%,100%)" r="0.7" /><circle cx="349.343079128" cy="325.242435813" fill="rgb(0%,0%,100%)" r="0.7" /><circle cx="348.022056024" cy="327.935929093" fill="rgb(0%,0%,100%)" r="0.7" /><circle cx="346.695165551" cy="330.626536283" fill="rgb(0%,0%,100%)" r="0.7" /><circle cx="345.363166748" cy="333.314616568" fill="rgb(0%,0%,100%)" r="0.7" /><circle cx="344.026624672" cy="336.00043947" fill="rgb(0%,0%,100%)" r="0.7" /><circle cx="342.685952295" cy="338.684215042" fill="rgb(0%,0%,100%)" r="0.7" /><circle cx="341.341452381" cy="341.366067541" fill="rgb(0%,0%,100%)" r="0.7" /><circle cx="339.993296502" cy="344.046078595" fill="rgb(0%,0%,100%)" r="0.7" /><circle cx="338.641486137" cy="346.724260061" fill="rgb(0%,0%,100%)" r="0.7" /><circle cx="337.285646658" cy="349.40040131" fill="rgb(0%,0%,100%)" r="0.7" /><circle cx="335.809427834" cy="352.010534914" fill="rgb(0%,0%,100%)" r="0.7" /><circle cx="334.281606296" cy="354.592348491" fill="rgb(0%,0%,100%)" r="0.7" /><circle cx="332.753784758" cy="357.174162068" fill="rgb(0%,0%,100%)" r="0.7" /><circle cx="331.22596322" cy="359.755975646" fill="rgb(0%,0%,100%)" r="0.7" /><circle cx="329.698141682" cy="362.337789223" fill="rgb(0%,0%,100%)" r="0.7" /><circle cx="328.170320144" cy="364.9196028" fill="rgb(0%,0%,100%)" r="0.7" /><circle cx="326.642498606" cy="367.501416378" fill="rgb(0%,0%,100%)" r="0.7" /><circle cx="325.114677068" cy="370.083229955" fill="rgb(0%,0%,100%)" r="0.7" /><circle cx="323.58685553" cy="372.665043532" fill="rgb(0%,0%,100%)" r="0.7" /><circle cx="322.059033992" cy="375.24685711" fill="rgb(0%,0%,100%)" r="0.7" /><circle cx="320.531212454" cy="377.828670687" fill="rgb(0%,0%,100%)" r="0.7" /><circle cx="319.003390916" cy="380.410484264" fill="rgb(0%,0%,100%)" r="0.7" /><circle cx="317.475569378" cy="382.992297842" fill="rgb(0%,0%,100%)" r="0.7" /><circle cx="315.94774784" cy="385.574111419" fill="rgb(0%,0%,100%)" r="0.7" /><circle cx="314.419926302" cy="388.155924996" fill="rgb(0%,0%,100%)" r="0.7" /><circle cx="312.892104764" cy="390.737738574" fill="rgb(0%,0%,100%)" r="0.7" /><circle cx="311.364283226" cy="393.319552151" fill="rgb(0%,0%,100%)" r="0.7" /><circle cx="309.836461688" cy="395.901365728" fill="rgb(0%,0%,100%)" r="0.7" /><circle cx="308.30864015" cy="398.483179306" fill="rgb(0%,0%,100%)" r="0.7" /><circle cx="306.780818612" cy="401.064992883" fill="rgb(0%,0%,100%)" r="0.7" /><circle cx="305.252997074" cy="403.64680646" fill="rgb(0%,0%,100%)" r="0.7" /><circle cx="303.725175536" cy="406.228620038" fill="rgb(0%,0%,100%)" r="0.7" /><circle cx="302.197353998" cy="408.810433615" fill="rgb(0%,0%,100%)" r="0.7" /><circle cx="300.66953246" cy="411.392247192" fill="rgb(0%,0%,100%)" r="0.7" /><circle cx="299.141710922" cy="413.97406077" fill="rgb(0%,0%,100%)" r="0.7" /><circle cx="297.613889384" cy="416.555874347" fill="rgb(0%,0%,100%)" r="0.7" /><circle cx="296.086067846" cy="419.137687924" fill="rgb(0%,0%,100%)" r="0.7" /><circle cx="294.558246308" cy="421.719501502" fill="rgb(0%,0%,100%)" r="0.7" /><circle cx="293.03042477" cy="424.301315079" fill="rgb(0%,0%,100%)" r="0.7" /><circle cx="291.502603232" cy="426.883128656" fill="rgb(0%,0%,100%)" r="0.7" /><circle cx="289.974781694" cy="429.464942234" fill="rgb(0%,0%,100%)" r="0.7" /><circle cx="288.446960156" cy="432.046755811" fill="rgb(0%,0%,100%)" r="0.7" /><circle cx="286.90326438" cy="434.619051238" fill="rgb(0%,0%,100%)" r="0.7" /><circle cx="285.306600428" cy="437.158797255" fill="rgb(0%,0%,100%)" r="0.7" /><circle cx="283.633459206" cy="439.648654201" fill="rgb(0%,0%,100%)" r="0.7" /><circle cx="281.81426906" cy="442.032827904" fill="rgb(0%,0%,100%)" r="0.7" /><circle cx="279.463" cy="443.413" fill="rgb(0%,0%,100%)" r="0.7" /><circle cx="276.463" cy="443.413" fill="rgb(0%,0%,100%)" r="0.7" /><circle cx="273.463" cy="443.413" fill="rgb(0%,0%,100%)" r="0.7" /><circle cx="270.463" cy="443.413" fill="rgb(0%,0%,100%)" r="0.7" /><circle cx="267.463" cy="443.413" fill="rgb(0%,0%,100%)" r="0.7" /><circle cx="264.463" cy="443.413" fill="rgb(0%,0%,100%)" r="0.7" /><circle cx="261.463" cy="443.413" fill="rgb(0%,0%,100%)" r="0.7" /><circle cx="258.463" cy="443.413" fill="rgb(0%,0%,100%)" r="0.7" /><circle cx="255.463" cy="443.413" fill="rgb(0%,0%,100%)" r="0.7" /><circle cx="252.463" cy="443.413" fill="rgb(0%,0%,100%)" r="0.7" /><circle cx="249.463" cy="443.413" fill="rgb(0%,0%,100%)" r="0.7" /><circle cx="246.463" cy="443.413" fill="rgb(0%,0%,100%)" r="0.7" /><circle cx="243.463" cy="443.413" fill="rgb(0%,0%,100%)" r="0.7" /><circle cx="240.463" cy="443.413" fill="rgb(0%,0%,100%)" r="0.7" /><circle cx="237.463" cy="443.413" fill="rgb(0%,0%,100%)" r="0.7" /></svg>