<?xml version="1.0" encoding="utf-8" ?>
<svg baseProfile="full" height="100%" version="1.1" width="100%" xmlns="http://www.w3.org/2000/svg" xmlns:ev="http://www.w3.org/2001/xml-events" xmlns:xlink="http://www.w3.org/1999/xlink"><defs /><circle cx="233.76404238" cy="291.451679502" fill="rgb(100%,0%,0%)" r="0.7" /><circle cx="230.899121665" cy="292.285407133" fill="rgb(100%,0%,0%)" r="0.7" /><circle cx="228.398675622" cy="293.929982851" fill="rgb(100%,0%,0%)" r="0.7" /><circle cx="226.261428093" cy="296.030897012" fill="rgb(100%,0%,0%)" r="0.7" /><circle cx="224.412871731" cy="298.39188399" fill="rgb(100%,0%,0%)" r="0.7" /><circle cx="222.786521596" cy="300.911913676" fill="rgb(100%,0%,0%)" r="0.7" /><circle cx="221.33375512" cy="303.536199859" fill="rgb(100%,0%,0%)" r="0.7" /><circle cx="220.019845668" cy="306.232854773" fill="rgb(100%,0%,0%)" r="0.7" /><circle cx="218.324095652" cy="308.70451516" fill="rgb(100%,0%,0%)" r="0.7" /><circle cx="216.603403785" cy="311.162004664" fill="rgb(100%,0%,0%)" r="0.7" /><circle cx="214.883665934" cy="313.620161923" fill="rgb(100%,0%,0%)" r="0.7" /><circle cx="213.164975326" cy="316.079045042" fill="rgb(100%,0%,0%)" r="0.7" /><circle cx="211.447513387" cy="318.538786973" fill="rgb(100%,0%,0%)" r="0.7" /><circle cx="209.731588694" cy="320.999601114" fill="rgb(100%,0%,0%)" r="0.7" /><circle cx="208.017725575" cy="323.461853301" fill="rgb(100%,0%,0%)" r="0.7" /><circle cx="206.306923821" cy="325.92622849" fill="rgb(100%,0%,0%)" r="0.7" /><circle cx="204.601538609" cy="328.394365439" fill="rgb(100%,0%,0%)" r="0.7" /><circle cx="202.912163032" cy="330.873452039" fill="rgb(100%,0%,0%)" r="0.7" /><circle cx="204.679078174" cy="331.974357707" fill="rgb(100%,0%,0%)" r="0.7" /><circle cx="207.666050648" cy="332.252030158" fill="rgb(100%,0%,0%)" r="0.7" /><circle cx="210.658595651" cy="332.463061978" fill="rgb(100%,0%,0%)" r="0.7" /><circle cx="213.653411603" cy="332.639189827" fill="rgb(100%,0%,0%)" r="0.7" /><circle cx="214.298775896" cy="334.683594415" fill="rgb(100%,0%,0%)" r="0.7" /><circle cx="213.805639061" cy="337.642786207" fill="rgb(100%,0%,0%)" r="0.7" /><circle cx="213.312502225" cy="340.601977999" fill="rgb(100%,0%,0%)" r="0.7" /><circle cx="212.81936539" cy="343.561169791" fill="rgb(100%,0%,0%)" r="0.7" /><circle cx="212.326228555" cy="346.520361583" fill="rgb(100%,0%,0%)" r="0.7" /><circle cx="211.675" cy="349.538" fill="rgb(100%,0%,0%)" r="0.7" /><circle cx="214.103040275" cy="347.780009303" fill="rgb(100%,0%,0%)" r="0.7" /><circle cx="216.707197624" cy="346.292782243" fill="rgb(100%,0%,0%)" r="0.7" /><circle cx="219.433588197" cy="345.043314048" fill="rgb(100%,0%,0%)" r="0.7" /><circle cx="222.256355583" cy="344.030043118" fill="rgb(100%,0%,0%)" r="0.7" /><circle cx="225.153976837" cy="343.256386585" fill="rgb(100%,0%,0%)" r="0.7" /><circle cx="228.105784331" cy="342.725589943" fill="rgb(100%,0%,0%)" r="0.7" /><circle cx="231.09117989" cy="342.438497068" fill="rgb(100%,0%,0%)" r="0.7" /><circle cx="234.090034468" cy="342.392420565" fill="rgb(100%,0%,0%)" r="0.7" /><circle cx="237.083376284" cy="342.580814506" fill="rgb(100%,0%,0%)" r="0.7" /><circle cx="240.054164789" cy="342.993546901" fill="rgb(100%,0%,0%)" r="0.7" /><circle cx="242.987923644" cy="343.617609963" fill="rgb(100%,0%,0%)" r="0.7" /><circle cx="245.873003927" cy="344.438036912" fill="rgb(100%,0%,0%)" r="0.7" /><circle cx="248.700643998" cy="345.438855502" fill="rgb(100%,0%,0%)" r="0.7" /><circle cx="251.464743241" cy="346.603916215" fill="rgb(100%,0%,0%)" r="0.7" /><circle cx="254.161478517" cy="347.917517666" fill="rgb(100%,0%,0%)" r="0.7" /><circle cx="256.788927369" cy="349.364856373" fill="rgb(100%,0%,0%)" r="0.7" /><circle cx="259.346610869" cy="350.932256901" fill="rgb(100%,0%,0%)" r="0.7" /><circle cx="261.83517157" cy="352.607310485" fill="rgb(100%,0%,0%)" r="0.7" /><circle cx="264.256022697" cy="354.378865388" fill="rgb(100%,0%,0%)" r="0.7" /><circle cx="266.326362538" cy="356.533314235" fill="rgb(100%,0%,0%)" r="0.7" /><circle cx="268.285531859" cy="358.805242981" fill="rgb(100%,0%,0%)" r="0.7" /><circle cx="270.243656269" cy="361.078070549" fill="rgb(100%,0%,0%)" r="0.7" /><circle cx="272.200830417" cy="363.351720666" fill="rgb(100%,0%,0%)" r="0.7" /><circle cx="274.15708191" cy="365.626173524" fill="rgb(100%,0%,0%)" r="0.7" /><circle cx="276.112393969" cy="367.901418095" fill="rgb(100%,0%,0%)" r="0.7" /><circle cx="278.066757696" cy="370.177490678" fill="rgb(100%,0%,0%)" r="0.7" /><circle cx="280.020124954" cy="372.454411843" fill="rgb(100%,0%,0%)" r="0.7" /><circle cx="281.972445556" cy="374.732227176" fill="rgb(100%,0%,0%)" r="0.7" /><circle cx="283.923658412" cy="377.010997536" fill="rgb(100%,0%,0%)" r="0.7" /><circle cx="285.873677162" cy="379.290785054" fill="rgb(100%,0%,0%)" r="0.7" /><circle cx="287.822406814" cy="381.571677472" fill="rgb(100%,0%,0%)" r="0.7" /><circle cx="289.769725319" cy="383.853773949" fill="rgb(100%,0%,0%)" r="0.7" /><circle cx="291.715486469" cy="386.137198995" fill="rgb(100%,0%,0%)" r="0.7" /><circle cx="293.65950875" cy="388.422104457" fill="rgb(100%,0%,0%)" r="0.7" /><circle cx="295.601562236" cy="390.708675915" fill="rgb(100%,0%,0%)" r="0.7" /><circle cx="297.541369318" cy="392.997165899" fill="rgb(100%,0%,0%)" r="0.7" /><circle cx="299.478546727" cy="395.287875131" fill="rgb(100%,0%,0%)" r="0.7" /><circle cx="301.412602246" cy="397.581227968" fill="rgb(100%,0%,0%)" r="0.7" /><circle cx="303.3428357" cy="399.877789546" fill="rgb(100%,0%,0%)" r="0.7" /><circle cx="305.268248217" cy="402.178402247" fill="rgb(100%,0%,0%)" r="0.7" /><circle cx="307.187267646" cy="404.484347459" fill="rgb(100%,0%,0%)" r="0.7" /><circle cx="309.09719952" cy="406.797810233" fill="rgb(100%,0%,0%)" r="0.7" /><circle cx="310.992638404" cy="409.123153865" fill="rgb(100%,0%,0%)" r="0.7" /><circle cx="312.858636386" cy="411.472159255" fill="rgb(100%,0%,0%)" r="0.7" /><circle cx="314.560729876" cy="413.937711674" fill="rgb(100%,0%,0%)" r="0.7" /><circle cx="314.956237651" cy="414.221253699" fill="rgb(100%,0%,0%)" r="0.7" /><circle cx="233.76404238" cy="291.451679502" fill="rgb(0%,0%,100%)" r="0.7" /><circle cx="236.714895265" cy="291.828562789" fill="rgb(0%,0%,100%)" r="0.7" /><circle cx="239.342782452" cy="293.260972784" fill="rgb(0%,0%,100%)" r="0.7" /><circle cx="241.651579442" cy="295.171258461" fill="rgb(0%,0%,100%)" r="0.7" /><circle cx="243.722708295" cy="297.340428757" fill="rgb(0%,0%,100%)" r="0.7" /><circle cx="245.647511725" cy="299.641104835" fill="rgb(0%,0%,100%)" r="0.7" /><circle cx="247.470901928" cy="302.023178109" fill="rgb(0%,0%,100%)" r="0.7" /><circle cx="249.21814306" cy="304.461741535" fill="rgb(0%,0%,100%)" r="0.7" /><circle cx="250.904788766" cy="306.942641211" fill="rgb(0%,0%,100%)" r="0.7" /><circle cx="252.540896103" cy="309.457178362" fill="rgb(0%,0%,100%)" r="0.7" /><circle cx="254.132950872" cy="311.999852651" fill="rgb(0%,0%,100%)" r="0.7" /><circle cx="255.684534444" cy="314.5674227" fill="rgb(0%,0%,100%)" r="0.7" /><circle cx="257.19522783" cy="317.159254907" fill="rgb(0%,0%,100%)" r="0.7" /><circle cx="258.744542322" cy="319.727158988" fill="rgb(0%,0%,100%)" r="0.7" /><circle cx="260.421906375" cy="322.214235862" fill="rgb(0%,0%,100%)" r="0.7" /><circle cx="262.17465038" cy="324.648849122" fill="rgb(0%,0%,100%)" r="0.7" /><circle cx="263.985944545" cy="327.040263315" fill="rgb(0%,0%,100%)" r="0.7" /><circle cx="265.844710983" cy="329.394991245" fill="rgb(0%,0%,100%)" r="0.7" /><circle cx="267.743359644" cy="331.717694115" fill="rgb(0%,0%,100%)" r="0.7" /><circle cx="269.676618181" cy="334.011678095" fill="rgb(0%,0%,100%)" r="0.7" /><circle cx="271.640948709" cy="336.279119836" fill="rgb(0%,0%,100%)" r="0.7" /><circle cx="273.634420106" cy="338.520983509" fill="rgb(0%,0%,100%)" r="0.7" /><circle cx="275.657560038" cy="340.736102499" fill="rgb(0%,0%,100%)" r="0.7" /><circle cx="277.883557025" cy="342.72873122" fill="rgb(0%,0%,100%)" r="0.7" /><circle cx="280.149780303" cy="344.6935109" fill="rgb(0%,0%,100%)" r="0.7" /><circle cx="282.31166813" cy="346.773215354" fill="rgb(0%,0%,100%)" r="0.7" /><circle cx="284.411598332" cy="348.91562111" fill="rgb(0%,0%,100%)" r="0.7" /><circle cx="286.46902942" cy="351.098919302" fill="rgb(0%,0%,100%)" r="0.7" /><circle cx="288.494794322" cy="353.311646956" fill="rgb(0%,0%,100%)" r="0.7" /><circle cx="290.495638753" cy="355.546945614" fill="rgb(0%,0%,100%)" r="0.7" /><circle cx="292.476073681" cy="357.800351427" fill="rgb(0%,0%,100%)" r="0.7" /><circle cx="294.439269154" cy="360.068795543" fill="rgb(0%,0%,100%)" r="0.7" /><circle cx="296.387519885" cy="362.350084891" fill="rgb(0%,0%,100%)" r="0.7" /><circle cx="298.322518889" cy="364.64263064" fill="rgb(0%,0%,100%)" r="0.7" /><circle cx="300.24549633" cy="366.945277609" fill="rgb(0%,0%,100%)" r="0.7" /><circle cx="302.157281124" cy="369.2572147" fill="rgb(0%,0%,100%)" r="0.7" /><circle cx="304.05831744" cy="371.578008971" fill="rgb(0%,0%,100%)" r="0.7" /><circle cx="305.948415652" cy="373.907701254" fill="rgb(0%,0%,100%)" r="0.7" /><circle cx="307.788546207" cy="376.268959179" fill="rgb(0%,0%,100%)" r="0.7" /><circle cx="309.233334049" cy="378.894731275" fill="rgb(0%,0%,100%)" r="0.7" /><circle cx="310.862913959" cy="381.413397955" fill="rgb(0%,0%,100%)" r="0.7" /><circle cx="312.55016505" cy="383.893923183" fill="rgb(0%,0%,100%)" r="0.7" /><circle cx="314.269065306" cy="386.352647571" fill="rgb(0%,0%,100%)" r="0.7" /><circle cx="316.008899671" cy="388.796611664" fill="rgb(0%,0%,100%)" r="0.7" /><circle cx="317.764056744" cy="391.229594499" fill="rgb(0%,0%,100%)" r="0.7" /><circle cx="319.53120928" cy="393.653882618" fill="rgb(0%,0%,100%)" r="0.7" /><circle cx="321.308239265" cy="396.070940025" fill="rgb(0%,0%,100%)" r="0.7" /><circle cx="323.093778959" cy="398.481719512" fill="rgb(0%,0%,100%)" r="0.7" /><circle cx="324.887018641" cy="400.886774714" fill="rgb(0%,0%,100%)" r="0.7" /><circle cx="326.68778794" cy="403.286185754" fill="rgb(0%,0%,100%)" r="0.7" /><circle cx="326.777430686" cy="404.590429441" fill="rgb(0%,0%,100%)" r="0.7" /><circle cx="323.841038344" cy="403.97593777" fill="rgb(0%,0%,100%)" r="0.7" /><circle cx="320.904646002" cy="403.361446099" fill="rgb(0%,0%,100%)" r="0.7" /><circle cx="317.96825366" cy="402.746954428" fill="rgb(0%,0%,100%)" r="0.7" /><circle cx="315.127499041" cy="402.25323335" fill="rgb(0%,0%,100%)" r="0.7" /><circle cx="315.052668233" cy="405.25229993" fill="rgb(0%,0%,100%)" r="0.7" /><circle cx="314.977837425" cy="408.25136651" fill="rgb(0%,0%,100%)" r="0.7" /><circle cx="314.903006617" cy="411.25043309" fill="rgb(0%,0%,100%)" r="0.7" /><circle cx="314.956237651" cy="414.221253699" fill="rgb(0%,0%,100%)" r="0.7" /></svg>