<?xml version="1.0" encoding="utf-8" ?>
<svg baseProfile="full" height="100%" version="1.1" width="100%" xmlns="http://www.w3.org/2000/svg" xmlns:ev="http://www.w3.org/2001/xml-events" xmlns:xlink="http://www.w3.org/1999/xlink"><defs /><circle cx="319.639304544" cy="364.260272993" fill="rgb(100%,0%,0%)" r="0.7" /><circle cx="318.190669261" cy="366.542106937" fill="rgb(100%,0%,0%)" r="0.7" /><circle cx="316.676569777" cy="369.131999971" fill="rgb(100%,0%,0%)" r="0.7" /><circle cx="315.157451151" cy="371.718926988" fill="rgb(100%,0%,0%)" r="0.7" /><circle cx="313.633619664" cy="374.303097917" fill="rgb(100%,0%,0%)" r="0.7" /><circle cx="312.105137746" cy="376.884527872" fill="rgb(100%,0%,0%)" r="0.7" /><circle cx="310.571930854" cy="379.463156665" fill="rgb(100%,0%,0%)" r="0.7" /><circle cx="309.033838565" cy="382.038856179" fill="rgb(100%,0%,0%)" r="0.7" /><circle cx="307.490597363" cy="384.611489537" fill="rgb(100%,0%,0%)" r="0.7" /><circle cx="305.941891936" cy="387.180827329" fill="rgb(100%,0%,0%)" r="0.7" /><circle cx="304.387306618" cy="389.746612864" fill="rgb(100%,0%,0%)" r="0.7" /><circle cx="302.826332102" cy="392.308519215" fill="rgb(100%,0%,0%)" r="0.7" /><circle cx="301.25834256" cy="394.866137918" fill="rgb(100%,0%,0%)" r="0.7" /><circle cx="299.682561892" cy="397.41896211" fill="rgb(100%,0%,0%)" r="0.7" /><circle cx="298.098017798" cy="399.966355841" fill="rgb(100%,0%,0%)" r="0.7" /><circle cx="296.503474929" cy="402.507505766" fill="rgb(100%,0%,0%)" r="0.7" /><circle cx="294.89733887" cy="405.041336695" fill="rgb(100%,0%,0%)" r="0.7" /><circle cx="293.277476812" cy="407.566417379" fill="rgb(100%,0%,0%)" r="0.7" /><circle cx="291.640961755" cy="410.080727586" fill="rgb(100%,0%,0%)" r="0.7" /><circle cx="289.98355871" cy="412.581316377" fill="rgb(100%,0%,0%)" r="0.7" /><circle cx="288.298766855" cy="415.06352355" fill="rgb(100%,0%,0%)" r="0.7" /><circle cx="286.576092306" cy="417.519535861" fill="rgb(100%,0%,0%)" r="0.7" /><circle cx="284.85670586" cy="419.977931879" fill="rgb(100%,0%,0%)" r="0.7" /><circle cx="283.116763298" cy="422.421817611" fill="rgb(100%,0%,0%)" r="0.7" /><circle cx="281.358136491" cy="424.852287453" fill="rgb(100%,0%,0%)" r="0.7" /><circle cx="279.5795218" cy="427.268167508" fill="rgb(100%,0%,0%)" r="0.7" /><circle cx="277.778106015" cy="429.667092873" fill="rgb(100%,0%,0%)" r="0.7" /><circle cx="275.949350139" cy="432.045230665" fill="rgb(100%,0%,0%)" r="0.7" /><circle cx="274.086042633" cy="434.396377014" fill="rgb(100%,0%,0%)" r="0.7" /><circle cx="272.176082552" cy="436.709734242" fill="rgb(100%,0%,0%)" r="0.7" /><circle cx="270.196624151" cy="438.963762141" fill="rgb(100%,0%,0%)" r="0.7" /><circle cx="268.09370589" cy="441.102158019" fill="rgb(100%,0%,0%)" r="0.7" /><circle cx="265.642377835" cy="442.787844366" fill="rgb(100%,0%,0%)" r="0.7" /><circle cx="262.693302391" cy="443.338059416" fill="rgb(100%,0%,0%)" r="0.7" /><circle cx="259.736607431" cy="443.845792789" fill="rgb(100%,0%,0%)" r="0.7" /><circle cx="256.773331152" cy="444.313633836" fill="rgb(100%,0%,0%)" r="0.7" /><circle cx="253.803453768" cy="444.737467882" fill="rgb(100%,0%,0%)" r="0.7" /><circle cx="250.826626849" cy="445.109262934" fill="rgb(100%,0%,0%)" r="0.7" /><circle cx="247.842400679" cy="445.415755922" fill="rgb(100%,0%,0%)" r="0.7" /><circle cx="244.850536759" cy="445.634526047" fill="rgb(100%,0%,0%)" r="0.7" /><circle cx="241.852229424" cy="445.723728915" fill="rgb(100%,0%,0%)" r="0.7" /><circle cx="239.127671368" cy="445.885674369" fill="rgb(100%,0%,0%)" r="0.7" /><circle cx="239.146195507" cy="448.885617178" fill="rgb(100%,0%,0%)" r="0.7" /><circle cx="239.164719646" cy="451.885559987" fill="rgb(100%,0%,0%)" r="0.7" /><circle cx="239.183243785" cy="454.885502796" fill="rgb(100%,0%,0%)" r="0.7" /><circle cx="239.201767924" cy="457.885445605" fill="rgb(100%,0%,0%)" r="0.7" /><circle cx="239.220292062" cy="460.885388413" fill="rgb(100%,0%,0%)" r="0.7" /><circle cx="239.238816201" cy="463.885331222" fill="rgb(100%,0%,0%)" r="0.7" /><circle cx="239.25734034" cy="466.885274031" fill="rgb(100%,0%,0%)" r="0.7" /><circle cx="239.26" cy="467.316" fill="rgb(100%,0%,0%)" r="0.7" /><circle cx="242.26" cy="467.316" fill="rgb(100%,0%,0%)" r="0.7" /><circle cx="245.26" cy="467.316" fill="rgb(100%,0%,0%)" r="0.7" /><circle cx="248.26" cy="467.316" fill="rgb(100%,0%,0%)" r="0.7" /><circle cx="251.26" cy="467.316" fill="rgb(100%,0%,0%)" r="0.7" /><circle cx="254.26" cy="467.316" fill="rgb(100%,0%,0%)" r="0.7" /><circle cx="257.26" cy="467.316" fill="rgb(100%,0%,0%)" r="0.7" /><circle cx="260.26" cy="467.316" fill="rgb(100%,0%,0%)" r="0.7" /><circle cx="263.26" cy="467.316" fill="rgb(100%,0%,0%)" r="0.7" /><circle cx="266.26" cy="467.316" fill="rgb(100%,0%,0%)" r="0.7" /><circle cx="269.26" cy="467.316" fill="rgb(100%,0%,0%)" r="0.7" /><circle cx="272.26" cy="467.316" fill="rgb(100%,0%,0%)" r="0.7" /><circle cx="275.207853292" cy="467.425673088" fill="rgb(100%,0%,0%)" r="0.7" /><circle cx="277.21633672" cy="465.258233246" fill="rgb(100%,0%,0%)" r="0.7" /><circle cx="279.551621222" cy="463.811705066" fill="rgb(100%,0%,0%)" r="0.7" /><circle cx="282.541682025" cy="463.636433014" fill="rgb(100%,0%,0%)" r="0.7" /><circle cx="285.49401291" cy="464.122275653" fill="rgb(100%,0%,0%)" r="0.7" /><circle cx="288.175889615" cy="465.433629365" fill="rgb(100%,0%,0%)" r="0.7" /><circle cx="290.641922153" cy="467.141827818" fill="rgb(100%,0%,0%)" r="0.7" /><circle cx="293.157750301" cy="468.775834047" fill="rgb(100%,0%,0%)" r="0.7" /><circle cx="295.724687999" cy="470.3282179" fill="rgb(100%,0%,0%)" r="0.7" /><circle cx="298.352288405" cy="471.775311868" fill="rgb(100%,0%,0%)" r="0.7" /><circle cx="301.058114204" cy="473.069461722" fill="rgb(100%,0%,0%)" r="0.7" /><circle cx="303.872336043" cy="474.103038233" fill="rgb(100%,0%,0%)" r="0.7" /><circle cx="306.826494047" cy="474.545599206" fill="rgb(100%,0%,0%)" r="0.7" /><circle cx="319.639304544" cy="364.260272993" fill="rgb(0%,0%,100%)" r="0.7" /><circle cx="320.090667706" cy="367.226123849" fill="rgb(0%,0%,100%)" r="0.7" /><circle cx="320.542030868" cy="370.191974704" fill="rgb(0%,0%,100%)" r="0.7" /><circle cx="320.993394031" cy="373.157825559" fill="rgb(0%,0%,100%)" r="0.7" /><circle cx="321.554990915" cy="375.866904371" fill="rgb(0%,0%,100%)" r="0.7" /><circle cx="324.016090891" cy="374.151390773" fill="rgb(0%,0%,100%)" r="0.7" /><circle cx="326.477190868" cy="372.435877175" fill="rgb(0%,0%,100%)" r="0.7" /><circle cx="328.938290844" cy="370.720363577" fill="rgb(0%,0%,100%)" r="0.7" /><circle cx="329.467462282" cy="371.750809594" fill="rgb(0%,0%,100%)" r="0.7" /><circle cx="328.383934399" cy="374.547614212" fill="rgb(0%,0%,100%)" r="0.7" /><circle cx="327.169431642" cy="377.290668575" fill="rgb(0%,0%,100%)" r="0.7" /><circle cx="325.890398179" cy="380.00429938" fill="rgb(0%,0%,100%)" r="0.7" /><circle cx="324.570887432" cy="382.698513801" fill="rgb(0%,0%,100%)" r="0.7" /><circle cx="323.222808252" cy="385.37855639" fill="rgb(0%,0%,100%)" r="0.7" /><circle cx="321.853051097" cy="388.047590005" fill="rgb(0%,0%,100%)" r="0.7" /><circle cx="320.466003802" cy="390.70768124" fill="rgb(0%,0%,100%)" r="0.7" /><circle cx="319.064637244" cy="393.360257995" fill="rgb(0%,0%,100%)" r="0.7" /><circle cx="317.651042474" cy="396.006340686" fill="rgb(0%,0%,100%)" r="0.7" /><circle cx="316.22671962" cy="398.646663879" fill="rgb(0%,0%,100%)" r="0.7" /><circle cx="314.792729855" cy="401.281747948" fill="rgb(0%,0%,100%)" r="0.7" /><circle cx="313.349760406" cy="403.911923445" fill="rgb(0%,0%,100%)" r="0.7" /><circle cx="311.898079335" cy="406.537307377" fill="rgb(0%,0%,100%)" r="0.7" /><circle cx="310.437166218" cy="409.157570943" fill="rgb(0%,0%,100%)" r="0.7" /><circle cx="308.816816991" cy="411.677596489" fill="rgb(0%,0%,100%)" r="0.7" /><circle cx="307.133300619" cy="414.160625756" fill="rgb(0%,0%,100%)" r="0.7" /><circle cx="305.495981299" cy="416.674392223" fill="rgb(0%,0%,100%)" r="0.7" /><circle cx="303.893439927" cy="419.210481487" fill="rgb(0%,0%,100%)" r="0.7" /><circle cx="302.318473183" cy="421.7637949" fill="rgb(0%,0%,100%)" r="0.7" /><circle cx="300.766226205" cy="424.330989146" fill="rgb(0%,0%,100%)" r="0.7" /><circle cx="299.233277963" cy="426.909757071" fill="rgb(0%,0%,100%)" r="0.7" /><circle cx="297.717155957" cy="429.498451498" fill="rgb(0%,0%,100%)" r="0.7" /><circle cx="296.216057789" cy="432.09589231" fill="rgb(0%,0%,100%)" r="0.7" /><circle cx="294.728721878" cy="434.701231342" fill="rgb(0%,0%,100%)" r="0.7" /><circle cx="293.254364668" cy="437.313951906" fill="rgb(0%,0%,100%)" r="0.7" /><circle cx="291.792838001" cy="439.933862235" fill="rgb(0%,0%,100%)" r="0.7" /><circle cx="290.345389696" cy="442.561576031" fill="rgb(0%,0%,100%)" r="0.7" /><circle cx="290.057200064" cy="445.405674933" fill="rgb(0%,0%,100%)" r="0.7" /><circle cx="291.518795173" cy="448.01587406" fill="rgb(0%,0%,100%)" r="0.7" /><circle cx="293.390380625" cy="450.358834482" fill="rgb(0%,0%,100%)" r="0.7" /><circle cx="295.43609696" cy="452.552590965" fill="rgb(0%,0%,100%)" r="0.7" /><circle cx="297.583983735" cy="454.646732767" fill="rgb(0%,0%,100%)" r="0.7" /><circle cx="299.803456702" cy="456.664957021" fill="rgb(0%,0%,100%)" r="0.7" /><circle cx="302.082448093" cy="458.615736258" fill="rgb(0%,0%,100%)" r="0.7" /><circle cx="304.559826971" cy="460.298574025" fill="rgb(0%,0%,100%)" r="0.7" /><circle cx="306.921841843" cy="462.147275539" fill="rgb(0%,0%,100%)" r="0.7" /><circle cx="309.19266503" cy="464.107485592" fill="rgb(0%,0%,100%)" r="0.7" /><circle cx="311.405029094" cy="466.133567205" fill="rgb(0%,0%,100%)" r="0.7" /><circle cx="313.570447675" cy="468.209765752" fill="rgb(0%,0%,100%)" r="0.7" /><circle cx="314.576089228" cy="470.900676158" fill="rgb(0%,0%,100%)" r="0.7" /><circle cx="312.596372965" cy="473.02857593" fill="rgb(0%,0%,100%)" r="0.7" /><circle cx="309.780926158" cy="474.043988082" fill="rgb(0%,0%,100%)" r="0.7" /><circle cx="306.826494047" cy="474.545599206" fill="rgb(0%,0%,100%)" r="0.7" /></svg>