<?xml version="1.0" encoding="utf-8" ?>
<svg baseProfile="full" height="100%" version="1.1" width="100%" xmlns="http://www.w3.org/2000/svg" xmlns:ev="http://www.w3.org/2001/xml-events" xmlns:xlink="http://www.w3.org/1999/xlink"><defs /><circle cx="263.937311823" cy="286.092008106" fill="rgb(100%,0%,0%)" r="0.7" /><circle cx="260.941078526" cy="286.165577829" fill="rgb(100%,0%,0%)" r="0.7" /><circle cx="257.986457036" cy="286.671503514" fill="rgb(100%,0%,0%)" r="0.7" /><circle cx="255.115843308" cy="287.530605357" fill="rgb(100%,0%,0%)" r="0.7" /><circle cx="252.394745914" cy="288.789188197" fill="rgb(100%,0%,0%)" r="0.7" /><circle cx="249.836812564" cy="290.35385442" fill="rgb(100%,0%,0%)" r="0.7" /><circle cx="247.452006415" cy="292.171995415" fill="rgb(100%,0%,0%)" r="0.7" /><circle cx="245.244777372" cy="294.20236067" fill="rgb(100%,0%,0%)" r="0.7" /><circle cx="243.2145403" cy="296.409935483" fill="rgb(100%,0%,0%)" r="0.7" /><circle cx="241.356730277" cy="298.764646004" fill="rgb(100%,0%,0%)" r="0.7" /><circle cx="239.664015313" cy="301.240848604" fill="rgb(100%,0%,0%)" r="0.7" /><circle cx="238.127378203" cy="303.816929347" fill="rgb(100%,0%,0%)" r="0.7" /><circle cx="236.736975025" cy="306.474860033" fill="rgb(100%,0%,0%)" r="0.7" /><circle cx="235.482733395" cy="309.19977252" fill="rgb(100%,0%,0%)" r="0.7" /><circle cx="234.354811774" cy="311.979402217" fill="rgb(100%,0%,0%)" r="0.7" /><circle cx="233.302432062" cy="314.788771208" fill="rgb(100%,0%,0%)" r="0.7" /><circle cx="232.263532267" cy="317.603140269" fill="rgb(100%,0%,0%)" r="0.7" /><circle cx="231.237567406" cy="320.422250679" fill="rgb(100%,0%,0%)" r="0.7" /><circle cx="230.224528918" cy="323.246031849" fill="rgb(100%,0%,0%)" r="0.7" /><circle cx="229.224512957" cy="326.074450906" fill="rgb(100%,0%,0%)" r="0.7" /><circle cx="228.237725225" cy="328.907512367" fill="rgb(100%,0%,0%)" r="0.7" /><circle cx="227.26449106" cy="331.745256172" fill="rgb(100%,0%,0%)" r="0.7" /><circle cx="226.305267086" cy="334.587767368" fill="rgb(100%,0%,0%)" r="0.7" /><circle cx="225.360664153" cy="337.435173507" fill="rgb(100%,0%,0%)" r="0.7" /><circle cx="224.431478713" cy="340.287644041" fill="rgb(100%,0%,0%)" r="0.7" /><circle cx="223.518728313" cy="343.145416504" fill="rgb(100%,0%,0%)" r="0.7" /><circle cx="222.623715399" cy="346.00879319" fill="rgb(100%,0%,0%)" r="0.7" /><circle cx="221.748110945" cy="348.87816151" fill="rgb(100%,0%,0%)" r="0.7" /><circle cx="220.894077966" cy="351.754024962" fill="rgb(100%,0%,0%)" r="0.7" /><circle cx="220.064467247" cy="354.637025769" fill="rgb(100%,0%,0%)" r="0.7" /><circle cx="219.263121632" cy="357.528001602" fill="rgb(100%,0%,0%)" r="0.7" /><circle cx="218.495385391" cy="360.428081373" fill="rgb(100%,0%,0%)" r="0.7" /><circle cx="217.769033131" cy="363.338792645" fill="rgb(100%,0%,0%)" r="0.7" /><circle cx="217.096082181" cy="366.262286118" fill="rgb(100%,0%,0%)" r="0.7" /><circle cx="216.496842702" cy="369.201705355" fill="rgb(100%,0%,0%)" r="0.7" /><circle cx="216.010851291" cy="372.161779126" fill="rgb(100%,0%,0%)" r="0.7" /><circle cx="215.690707588" cy="375.144406868" fill="rgb(100%,0%,0%)" r="0.7" /><circle cx="215.397212609" cy="378.130019212" fill="rgb(100%,0%,0%)" r="0.7" /><circle cx="215.108139428" cy="381.116062379" fill="rgb(100%,0%,0%)" r="0.7" /><circle cx="214.824523339" cy="384.102627534" fill="rgb(100%,0%,0%)" r="0.7" /><circle cx="214.548628689" cy="387.089915711" fill="rgb(100%,0%,0%)" r="0.7" /><circle cx="214.28584132" cy="390.07837766" fill="rgb(100%,0%,0%)" r="0.7" /><circle cx="214.057725118" cy="393.069638489" fill="rgb(100%,0%,0%)" r="0.7" /><circle cx="214.830541232" cy="391.895452869" fill="rgb(100%,0%,0%)" r="0.7" /><circle cx="215.949636361" cy="389.111997087" fill="rgb(100%,0%,0%)" r="0.7" /><circle cx="217.06873149" cy="386.328541305" fill="rgb(100%,0%,0%)" r="0.7" /><circle cx="218.187826619" cy="383.545085523" fill="rgb(100%,0%,0%)" r="0.7" /><circle cx="219.306921749" cy="380.76162974" fill="rgb(100%,0%,0%)" r="0.7" /><circle cx="220.426016878" cy="377.978173958" fill="rgb(100%,0%,0%)" r="0.7" /><circle cx="221.545112007" cy="375.194718176" fill="rgb(100%,0%,0%)" r="0.7" /><circle cx="222.82973203" cy="373.79400658" fill="rgb(100%,0%,0%)" r="0.7" /><circle cx="224.574193936" cy="376.234673017" fill="rgb(100%,0%,0%)" r="0.7" /><circle cx="226.318655842" cy="378.675339454" fill="rgb(100%,0%,0%)" r="0.7" /><circle cx="228.063117748" cy="381.116005892" fill="rgb(100%,0%,0%)" r="0.7" /><circle cx="229.807579654" cy="383.556672329" fill="rgb(100%,0%,0%)" r="0.7" /><circle cx="231.552041559" cy="385.997338767" fill="rgb(100%,0%,0%)" r="0.7" /><circle cx="233.296503465" cy="388.438005204" fill="rgb(100%,0%,0%)" r="0.7" /><circle cx="235.040965371" cy="390.878671642" fill="rgb(100%,0%,0%)" r="0.7" /><circle cx="236.785427277" cy="393.319338079" fill="rgb(100%,0%,0%)" r="0.7" /><circle cx="237.823" cy="394.771" fill="rgb(100%,0%,0%)" r="0.7" /><circle cx="263.937311823" cy="286.092008106" fill="rgb(0%,0%,100%)" r="0.7" /><circle cx="266.910146594" cy="286.472041289" fill="rgb(0%,0%,100%)" r="0.7" /><circle cx="269.783973626" cy="287.320820768" fill="rgb(0%,0%,100%)" r="0.7" /><circle cx="272.470204447" cy="288.647798093" fill="rgb(0%,0%,100%)" r="0.7" /><circle cx="274.879623747" cy="290.428560198" fill="rgb(0%,0%,100%)" r="0.7" /><circle cx="276.947099037" cy="292.59758599" fill="rgb(0%,0%,100%)" r="0.7" /><circle cx="278.598589128" cy="295.094560159" fill="rgb(0%,0%,100%)" r="0.7" /><circle cx="279.462874276" cy="297.95272546" fill="rgb(0%,0%,100%)" r="0.7" /><circle cx="279.325487888" cy="300.935949552" fill="rgb(0%,0%,100%)" r="0.7" /><circle cx="278.328900184" cy="303.75707195" fill="rgb(0%,0%,100%)" r="0.7" /><circle cx="276.750443107" cy="306.303419294" fill="rgb(0%,0%,100%)" r="0.7" /><circle cx="274.789312255" cy="308.570414732" fill="rgb(0%,0%,100%)" r="0.7" /><circle cx="272.55651757" cy="310.572018697" fill="rgb(0%,0%,100%)" r="0.7" /><circle cx="270.424296693" cy="312.68086055" fill="rgb(0%,0%,100%)" r="0.7" /><circle cx="268.4741083" cy="314.959543915" fill="rgb(0%,0%,100%)" r="0.7" /><circle cx="266.855766398" cy="317.471732056" fill="rgb(0%,0%,100%)" r="0.7" /><circle cx="265.302920783" cy="320.03652447" fill="rgb(0%,0%,100%)" r="0.7" /><circle cx="263.416493174" cy="322.36512092" fill="rgb(0%,0%,100%)" r="0.7" /><circle cx="261.225330454" cy="324.403735482" fill="rgb(0%,0%,100%)" r="0.7" /><circle cx="259.545519281" cy="326.886406522" fill="rgb(0%,0%,100%)" r="0.7" /><circle cx="258.073576355" cy="329.500162312" fill="rgb(0%,0%,100%)" r="0.7" /><circle cx="256.694975136" cy="332.16454317" fill="rgb(0%,0%,100%)" r="0.7" /><circle cx="255.373256967" cy="334.857656263" fill="rgb(0%,0%,100%)" r="0.7" /><circle cx="254.091342921" cy="337.569959663" fill="rgb(0%,0%,100%)" r="0.7" /><circle cx="252.839701835" cy="340.296374331" fill="rgb(0%,0%,100%)" r="0.7" /><circle cx="251.612505651" cy="343.033878933" fill="rgb(0%,0%,100%)" r="0.7" /><circle cx="250.406067189" cy="345.780598531" fill="rgb(0%,0%,100%)" r="0.7" /><circle cx="249.218218559" cy="348.535420778" fill="rgb(0%,0%,100%)" r="0.7" /><circle cx="248.0484596" cy="351.297965384" fill="rgb(0%,0%,100%)" r="0.7" /><circle cx="246.907282832" cy="354.072393387" fill="rgb(0%,0%,100%)" r="0.7" /><circle cx="245.813989948" cy="356.866039526" fill="rgb(0%,0%,100%)" r="0.7" /><circle cx="244.767147951" cy="359.677429937" fill="rgb(0%,0%,100%)" r="0.7" /><circle cx="243.769829787" cy="362.506767678" fill="rgb(0%,0%,100%)" r="0.7" /><circle cx="242.825506338" cy="365.354211644" fill="rgb(0%,0%,100%)" r="0.7" /><circle cx="241.938122185" cy="368.219904243" fill="rgb(0%,0%,100%)" r="0.7" /><circle cx="241.11222703" cy="371.103928946" fill="rgb(0%,0%,100%)" r="0.7" /><circle cx="240.3531619" cy="374.006226606" fill="rgb(0%,0%,100%)" r="0.7" /><circle cx="239.667274502" cy="376.926687502" fill="rgb(0%,0%,100%)" r="0.7" /><circle cx="239.062344935" cy="379.864956446" fill="rgb(0%,0%,100%)" r="0.7" /><circle cx="238.548209388" cy="382.820426848" fill="rgb(0%,0%,100%)" r="0.7" /><circle cx="238.137951622" cy="385.792066437" fill="rgb(0%,0%,100%)" r="0.7" /><circle cx="237.850436175" cy="388.778002189" fill="rgb(0%,0%,100%)" r="0.7" /><circle cx="237.71723239" cy="391.774606082" fill="rgb(0%,0%,100%)" r="0.7" /><circle cx="237.823" cy="394.771" fill="rgb(0%,0%,100%)" r="0.7" /></svg>