<?xml version="1.0" encoding="utf-8" ?>
<svg baseProfile="full" height="100%" version="1.1" width="100%" xmlns="http://www.w3.org/2000/svg" xmlns:ev="http://www.w3.org/2001/xml-events" xmlns:xlink="http://www.w3.org/1999/xlink"><defs /><circle cx="306.449412139" cy="322.378342355" fill="rgb(100%,0%,0%)" r="0.7" /><circle cx="303.753172607" cy="323.639867197" fill="rgb(100%,0%,0%)" r="0.7" /><circle cx="301.478666202" cy="325.590383139" fill="rgb(100%,0%,0%)" r="0.7" /><circle cx="299.477578327" cy="327.823786614" fill="rgb(100%,0%,0%)" r="0.7" /><circle cx="297.666854174" cy="330.214985623" fill="rgb(100%,0%,0%)" r="0.7" /><circle cx="296.053223079" cy="332.742524869" fill="rgb(100%,0%,0%)" r="0.7" /><circle cx="294.611704553" cy="335.373100879" fill="rgb(100%,0%,0%)" r="0.7" /><circle cx="293.317374555" cy="338.079046422" fill="rgb(100%,0%,0%)" r="0.7" /><circle cx="292.201327305" cy="340.863017353" fill="rgb(100%,0%,0%)" r="0.7" /><circle cx="291.323843414" cy="343.730561422" fill="rgb(100%,0%,0%)" r="0.7" /><circle cx="290.703818412" cy="346.662482213" fill="rgb(100%,0%,0%)" r="0.7" /><circle cx="289.599447356" cy="349.449286111" fill="rgb(100%,0%,0%)" r="0.7" /><circle cx="288.134239636" cy="352.064495053" fill="rgb(100%,0%,0%)" r="0.7" /><circle cx="286.303498115" cy="354.437155277" fill="rgb(100%,0%,0%)" r="0.7" /><circle cx="284.493079827" cy="356.817519794" fill="rgb(100%,0%,0%)" r="0.7" /><circle cx="283.065419273" cy="359.454803301" fill="rgb(100%,0%,0%)" r="0.7" /><circle cx="281.833051885" cy="362.18954541" fill="rgb(100%,0%,0%)" r="0.7" /><circle cx="280.734170617" cy="364.980818498" fill="rgb(100%,0%,0%)" r="0.7" /><circle cx="279.613880721" cy="367.763304282" fill="rgb(100%,0%,0%)" r="0.7" /><circle cx="278.551469454" cy="370.568787414" fill="rgb(100%,0%,0%)" r="0.7" /><circle cx="277.562942453" cy="373.40115991" fill="rgb(100%,0%,0%)" r="0.7" /><circle cx="276.649089671" cy="376.258489035" fill="rgb(100%,0%,0%)" r="0.7" /><circle cx="275.815531504" cy="379.140251265" fill="rgb(100%,0%,0%)" r="0.7" /><circle cx="275.071496177" cy="382.046383656" fill="rgb(100%,0%,0%)" r="0.7" /><circle cx="274.430111116" cy="384.976838189" fill="rgb(100%,0%,0%)" r="0.7" /><circle cx="273.909487574" cy="387.931066076" fill="rgb(100%,0%,0%)" r="0.7" /><circle cx="273.534642479" cy="390.90718747" fill="rgb(100%,0%,0%)" r="0.7" /><circle cx="273.340624829" cy="393.900334233" fill="rgb(100%,0%,0%)" r="0.7" /><circle cx="273.404999582" cy="396.899273548" fill="rgb(100%,0%,0%)" r="0.7" /><circle cx="273.41181497" cy="399.899217783" fill="rgb(100%,0%,0%)" r="0.7" /><circle cx="273.360470529" cy="402.898734916" fill="rgb(100%,0%,0%)" r="0.7" /><circle cx="273.252595764" cy="405.896750753" fill="rgb(100%,0%,0%)" r="0.7" /><circle cx="273.086698587" cy="408.892109366" fill="rgb(100%,0%,0%)" r="0.7" /><circle cx="272.859427287" cy="411.883432787" fill="rgb(100%,0%,0%)" r="0.7" /><circle cx="272.565848764" cy="414.86896974" fill="rgb(100%,0%,0%)" r="0.7" /><circle cx="272.19938533" cy="417.846418687" fill="rgb(100%,0%,0%)" r="0.7" /><circle cx="271.751539961" cy="420.81269732" fill="rgb(100%,0%,0%)" r="0.7" /><circle cx="271.211429513" cy="423.763535783" fill="rgb(100%,0%,0%)" r="0.7" /><circle cx="270.565073318" cy="426.692884894" fill="rgb(100%,0%,0%)" r="0.7" /><circle cx="269.79436101" cy="429.591917174" fill="rgb(100%,0%,0%)" r="0.7" /><circle cx="268.87558259" cy="432.447338129" fill="rgb(100%,0%,0%)" r="0.7" /><circle cx="267.777416943" cy="435.238440103" fill="rgb(100%,0%,0%)" r="0.7" /><circle cx="266.458505699" cy="437.931814196" fill="rgb(100%,0%,0%)" r="0.7" /><circle cx="264.748133708" cy="440.376506378" fill="rgb(100%,0%,0%)" r="0.7" /><circle cx="262.573524662" cy="442.442527556" fill="rgb(100%,0%,0%)" r="0.7" /><circle cx="260.29735588" cy="444.396388677" fill="rgb(100%,0%,0%)" r="0.7" /><circle cx="257.940936514" cy="446.252766241" fill="rgb(100%,0%,0%)" r="0.7" /><circle cx="255.514272073" cy="448.016340945" fill="rgb(100%,0%,0%)" r="0.7" /><circle cx="253.023803016" cy="449.68862972" fill="rgb(100%,0%,0%)" r="0.7" /><circle cx="250.474404201" cy="451.26964965" fill="rgb(100%,0%,0%)" r="0.7" /><circle cx="247.870167618" cy="452.758603297" fill="rgb(100%,0%,0%)" r="0.7" /><circle cx="245.214745381" cy="454.154251071" fill="rgb(100%,0%,0%)" r="0.7" /><circle cx="242.511625914" cy="455.455085254" fill="rgb(100%,0%,0%)" r="0.7" /><circle cx="239.764182342" cy="456.659512346" fill="rgb(100%,0%,0%)" r="0.7" /><circle cx="236.975828032" cy="457.765920224" fill="rgb(100%,0%,0%)" r="0.7" /><circle cx="234.150008686" cy="458.772787521" fill="rgb(100%,0%,0%)" r="0.7" /><circle cx="231.290231951" cy="459.678747627" fill="rgb(100%,0%,0%)" r="0.7" /><circle cx="228.4001111" cy="460.48263519" fill="rgb(100%,0%,0%)" r="0.7" /><circle cx="225.48330354" cy="461.18355163" fill="rgb(100%,0%,0%)" r="0.7" /><circle cx="222.542728063" cy="461.777258416" fill="rgb(100%,0%,0%)" r="0.7" /><circle cx="219.594415439" cy="462.331684294" fill="rgb(100%,0%,0%)" r="0.7" /><circle cx="216.640675237" cy="462.856426748" fill="rgb(100%,0%,0%)" r="0.7" /><circle cx="213.681489062" cy="463.349501513" fill="rgb(100%,0%,0%)" r="0.7" /><circle cx="210.716490188" cy="463.806294575" fill="rgb(100%,0%,0%)" r="0.7" /><circle cx="207.745079074" cy="464.219237286" fill="rgb(100%,0%,0%)" r="0.7" /><circle cx="204.76644531" cy="464.576162388" fill="rgb(100%,0%,0%)" r="0.7" /><circle cx="201.779672243" cy="464.856324995" fill="rgb(100%,0%,0%)" r="0.7" /><circle cx="198.784432154" cy="465.019734856" fill="rgb(100%,0%,0%)" r="0.7" /><circle cx="199.252105876" cy="466.190895368" fill="rgb(100%,0%,0%)" r="0.7" /><circle cx="201.652056569" cy="467.990961108" fill="rgb(100%,0%,0%)" r="0.7" /><circle cx="203.279746726" cy="469.978610482" fill="rgb(100%,0%,0%)" r="0.7" /><circle cx="201.972976843" cy="472.679046089" fill="rgb(100%,0%,0%)" r="0.7" /><circle cx="200.666206959" cy="475.379481697" fill="rgb(100%,0%,0%)" r="0.7" /><circle cx="199.359437075" cy="478.079917305" fill="rgb(100%,0%,0%)" r="0.7" /><circle cx="198.454" cy="479.951" fill="rgb(100%,0%,0%)" r="0.7" /><circle cx="306.449412139" cy="322.378342355" fill="rgb(0%,0%,100%)" r="0.7" /><circle cx="309.421462627" cy="322.401111936" fill="rgb(0%,0%,100%)" r="0.7" /><circle cx="311.763020979" cy="324.17811906" fill="rgb(0%,0%,100%)" r="0.7" /><circle cx="312.71685379" cy="326.981949511" fill="rgb(0%,0%,100%)" r="0.7" /><circle cx="312.55293346" cy="329.973832762" fill="rgb(0%,0%,100%)" r="0.7" /><circle cx="312.082326515" cy="332.936213844" fill="rgb(0%,0%,100%)" r="0.7" /><circle cx="311.475476102" cy="335.874042142" fill="rgb(0%,0%,100%)" r="0.7" /><circle cx="310.784948526" cy="338.793418786" fill="rgb(0%,0%,100%)" r="0.7" /><circle cx="310.033810282" cy="341.697819614" fill="rgb(0%,0%,100%)" r="0.7" /><circle cx="309.231722978" cy="344.588567004" fill="rgb(0%,0%,100%)" r="0.7" /><circle cx="308.440357131" cy="347.482004995" fill="rgb(0%,0%,100%)" r="0.7" /><circle cx="307.678823388" cy="350.383741661" fill="rgb(0%,0%,100%)" r="0.7" /><circle cx="306.916249506" cy="353.285205866" fill="rgb(0%,0%,100%)" r="0.7" /><circle cx="306.275798203" cy="356.21495873" fill="rgb(0%,0%,100%)" r="0.7" /><circle cx="305.573637579" cy="359.131432983" fill="rgb(0%,0%,100%)" r="0.7" /><circle cx="304.765517452" cy="362.020390182" fill="rgb(0%,0%,100%)" r="0.7" /><circle cx="303.865081926" cy="364.881951017" fill="rgb(0%,0%,100%)" r="0.7" /><circle cx="302.882096631" cy="367.716236642" fill="rgb(0%,0%,100%)" r="0.7" /><circle cx="301.822855246" cy="370.522920046" fill="rgb(0%,0%,100%)" r="0.7" /><circle cx="300.689420832" cy="373.300471657" fill="rgb(0%,0%,100%)" r="0.7" /><circle cx="299.472507917" cy="376.042391931" fill="rgb(0%,0%,100%)" r="0.7" /><circle cx="298.347142041" cy="378.820982533" fill="rgb(0%,0%,100%)" r="0.7" /><circle cx="297.528275221" cy="381.706065715" fill="rgb(0%,0%,100%)" r="0.7" /><circle cx="296.924370767" cy="384.644161541" fill="rgb(0%,0%,100%)" r="0.7" /><circle cx="296.480267834" cy="387.610829043" fill="rgb(0%,0%,100%)" r="0.7" /><circle cx="296.161350076" cy="390.593653086" fill="rgb(0%,0%,100%)" r="0.7" /><circle cx="295.944962529" cy="393.585715057" fill="rgb(0%,0%,100%)" r="0.7" /><circle cx="295.816109558" cy="396.582855398" fill="rgb(0%,0%,100%)" r="0.7" /><circle cx="295.765512255" cy="399.582346594" fill="rgb(0%,0%,100%)" r="0.7" /><circle cx="295.789966273" cy="402.582174097" fill="rgb(0%,0%,100%)" r="0.7" /><circle cx="295.962420581" cy="405.574219378" fill="rgb(0%,0%,100%)" r="0.7" /><circle cx="296.118778166" cy="408.569514586" fill="rgb(0%,0%,100%)" r="0.7" /><circle cx="296.156426106" cy="411.569218803" fill="rgb(0%,0%,100%)" r="0.7" /><circle cx="296.145452727" cy="414.56918331" fill="rgb(0%,0%,100%)" r="0.7" /><circle cx="296.105156627" cy="417.568906887" fill="rgb(0%,0%,100%)" r="0.7" /><circle cx="296.043826294" cy="420.568277631" fill="rgb(0%,0%,100%)" r="0.7" /><circle cx="295.965120238" cy="423.56724447" fill="rgb(0%,0%,100%)" r="0.7" /><circle cx="295.867879393" cy="426.565398907" fill="rgb(0%,0%,100%)" r="0.7" /><circle cx="295.465852952" cy="429.536219075" fill="rgb(0%,0%,100%)" r="0.7" /><circle cx="294.719936859" cy="432.440590404" fill="rgb(0%,0%,100%)" r="0.7" /><circle cx="293.703014337" cy="435.262018183" fill="rgb(0%,0%,100%)" r="0.7" /><circle cx="292.471669831" cy="437.997002512" fill="rgb(0%,0%,100%)" r="0.7" /><circle cx="291.068262072" cy="440.648021349" fill="rgb(0%,0%,100%)" r="0.7" /><circle cx="289.524211697" cy="443.219804422" fill="rgb(0%,0%,100%)" r="0.7" /><circle cx="287.862860103" cy="445.71750474" fill="rgb(0%,0%,100%)" r="0.7" /><circle cx="286.101566741" cy="448.145830673" fill="rgb(0%,0%,100%)" r="0.7" /><circle cx="284.253136545" cy="450.50854683" fill="rgb(0%,0%,100%)" r="0.7" /><circle cx="282.32661286" cy="452.808050914" fill="rgb(0%,0%,100%)" r="0.7" /><circle cx="280.327301009" cy="455.044553038" fill="rgb(0%,0%,100%)" r="0.7" /><circle cx="278.25456366" cy="457.213168184" fill="rgb(0%,0%,100%)" r="0.7" /><circle cx="276.124858302" cy="459.324586431" fill="rgb(0%,0%,100%)" r="0.7" /><circle cx="273.733691585" cy="461.131775705" fill="rgb(0%,0%,100%)" r="0.7" /><circle cx="271.148532693" cy="462.65193054" fill="rgb(0%,0%,100%)" r="0.7" /><circle cx="268.458069172" cy="463.97807413" fill="rgb(0%,0%,100%)" r="0.7" /><circle cx="265.70269096" cy="465.164022446" fill="rgb(0%,0%,100%)" r="0.7" /><circle cx="262.903670474" cy="466.24321604" fill="rgb(0%,0%,100%)" r="0.7" /><circle cx="260.073436268" cy="467.237822639" fill="rgb(0%,0%,100%)" r="0.7" /><circle cx="257.219825581" cy="468.163318697" fill="rgb(0%,0%,100%)" r="0.7" /><circle cx="254.348069054" cy="469.030964139" fill="rgb(0%,0%,100%)" r="0.7" /><circle cx="251.46184709" cy="469.849216569" fill="rgb(0%,0%,100%)" r="0.7" /><circle cx="248.563809658" cy="470.62461126" fill="rgb(0%,0%,100%)" r="0.7" /><circle cx="245.655938542" cy="471.362303104" fill="rgb(0%,0%,100%)" r="0.7" /><circle cx="242.739757448" cy="472.066430302" fill="rgb(0%,0%,100%)" r="0.7" /><circle cx="239.816446405" cy="472.740367541" fill="rgb(0%,0%,100%)" r="0.7" /><circle cx="236.886950299" cy="473.386895315" fill="rgb(0%,0%,100%)" r="0.7" /><circle cx="233.952023907" cy="474.008328316" fill="rgb(0%,0%,100%)" r="0.7" /><circle cx="231.012289302" cy="474.606602832" fill="rgb(0%,0%,100%)" r="0.7" /><circle cx="228.068259617" cy="475.183344764" fill="rgb(0%,0%,100%)" r="0.7" /><circle cx="225.12034248" cy="475.739921527" fill="rgb(0%,0%,100%)" r="0.7" /><circle cx="222.168893456" cy="476.277469077" fill="rgb(0%,0%,100%)" r="0.7" /><circle cx="219.214222348" cy="476.796915603" fill="rgb(0%,0%,100%)" r="0.7" /><circle cx="216.256541441" cy="477.299002016" fill="rgb(0%,0%,100%)" r="0.7" /><circle cx="213.296032917" cy="477.784266184" fill="rgb(0%,0%,100%)" r="0.7" /><circle cx="210.332884489" cy="478.253012118" fill="rgb(0%,0%,100%)" r="0.7" /><circle cx="207.367164737" cy="478.705262694" fill="rgb(0%,0%,100%)" r="0.7" /><circle cx="204.398923484" cy="479.140576996" fill="rgb(0%,0%,100%)" r="0.7" /><circle cx="201.428038303" cy="479.557581803" fill="rgb(0%,0%,100%)" r="0.7" /><circle cx="198.454" cy="479.951" fill="rgb(0%,0%,100%)" r="0.7" /></svg>