<?xml version="1.0" encoding="utf-8" ?>
<svg baseProfile="full" height="100%" version="1.1" width="100%" xmlns="http://www.w3.org/2000/svg" xmlns:ev="http://www.w3.org/2001/xml-events" xmlns:xlink="http://www.w3.org/1999/xlink"><defs /><circle cx="304.357059023" cy="308.830713135" fill="rgb(100%,0%,0%)" r="0.7" /><circle cx="301.369624197" cy="309.035582385" fill="rgb(100%,0%,0%)" r="0.7" /><circle cx="298.495372714" cy="309.874226728" fill="rgb(100%,0%,0%)" r="0.7" /><circle cx="295.859348814" cy="311.295854791" fill="rgb(100%,0%,0%)" r="0.7" /><circle cx="293.531277397" cy="313.182206116" fill="rgb(100%,0%,0%)" r="0.7" /><circle cx="291.518239891" cy="315.403366779" fill="rgb(100%,0%,0%)" r="0.7" /><circle cx="289.790991615" cy="317.8544378" fill="rgb(100%,0%,0%)" r="0.7" /><circle cx="288.692074222" cy="320.602931788" fill="rgb(100%,0%,0%)" r="0.7" /><circle cx="288.195545283" cy="323.56123688" fill="rgb(100%,0%,0%)" r="0.7" /><circle cx="287.835885615" cy="326.539358793" fill="rgb(100%,0%,0%)" r="0.7" /><circle cx="287.602856828" cy="329.530076275" fill="rgb(100%,0%,0%)" r="0.7" /><circle cx="287.496160342" cy="332.527952303" fill="rgb(100%,0%,0%)" r="0.7" /><circle cx="287.51948738" cy="335.527618567" fill="rgb(100%,0%,0%)" r="0.7" /><circle cx="287.678863481" cy="338.523110294" fill="rgb(100%,0%,0%)" r="0.7" /><circle cx="287.981916527" cy="341.507454981" fill="rgb(100%,0%,0%)" r="0.7" /><circle cx="288.437405504" cy="344.472320434" fill="rgb(100%,0%,0%)" r="0.7" /><circle cx="289.05478144" cy="347.407697787" fill="rgb(100%,0%,0%)" r="0.7" /><circle cx="289.84366862" cy="350.301635632" fill="rgb(100%,0%,0%)" r="0.7" /><circle cx="290.294687695" cy="353.252860377" fill="rgb(100%,0%,0%)" r="0.7" /><circle cx="290.36829552" cy="356.251496801" fill="rgb(100%,0%,0%)" r="0.7" /><circle cx="290.283966366" cy="359.250036023" fill="rgb(100%,0%,0%)" r="0.7" /><circle cx="290.070684896" cy="362.242247076" fill="rgb(100%,0%,0%)" r="0.7" /><circle cx="289.744600403" cy="365.224313301" fill="rgb(100%,0%,0%)" r="0.7" /><circle cx="289.3166942" cy="368.19350042" fill="rgb(100%,0%,0%)" r="0.7" /><circle cx="288.795227676" cy="371.14773235" fill="rgb(100%,0%,0%)" r="0.7" /><circle cx="288.186832705" cy="374.085286291" fill="rgb(100%,0%,0%)" r="0.7" /><circle cx="287.49704446" cy="377.004805989" fill="rgb(100%,0%,0%)" r="0.7" /><circle cx="286.730627088" cy="379.905176748" fill="rgb(100%,0%,0%)" r="0.7" /><circle cx="285.891788332" cy="382.785422657" fill="rgb(100%,0%,0%)" r="0.7" /><circle cx="284.984273722" cy="385.644802534" fill="rgb(100%,0%,0%)" r="0.7" /><circle cx="284.011494006" cy="388.482649832" fill="rgb(100%,0%,0%)" r="0.7" /><circle cx="282.976568571" cy="391.29842601" fill="rgb(100%,0%,0%)" r="0.7" /><circle cx="281.88237499" cy="394.091693634" fill="rgb(100%,0%,0%)" r="0.7" /><circle cx="280.73157331" cy="396.862128583" fill="rgb(100%,0%,0%)" r="0.7" /><circle cx="279.526642453" cy="399.609482013" fill="rgb(100%,0%,0%)" r="0.7" /><circle cx="278.269922233" cy="402.333528078" fill="rgb(100%,0%,0%)" r="0.7" /><circle cx="276.963601027" cy="405.034125819" fill="rgb(100%,0%,0%)" r="0.7" /><circle cx="275.609729326" cy="407.711207775" fill="rgb(100%,0%,0%)" r="0.7" /><circle cx="274.210246615" cy="410.364741587" fill="rgb(100%,0%,0%)" r="0.7" /><circle cx="272.766992772" cy="412.994724247" fill="rgb(100%,0%,0%)" r="0.7" /><circle cx="271.281703358" cy="415.601202248" fill="rgb(100%,0%,0%)" r="0.7" /><circle cx="269.756025038" cy="418.184251639" fill="rgb(100%,0%,0%)" r="0.7" /><circle cx="268.191520226" cy="420.743977586" fill="rgb(100%,0%,0%)" r="0.7" /><circle cx="266.589687783" cy="423.28048751" fill="rgb(100%,0%,0%)" r="0.7" /><circle cx="264.951913192" cy="425.793974507" fill="rgb(100%,0%,0%)" r="0.7" /><circle cx="263.279564425" cy="428.284571326" fill="rgb(100%,0%,0%)" r="0.7" /><circle cx="261.573907964" cy="430.752484897" fill="rgb(100%,0%,0%)" r="0.7" /><circle cx="259.836168005" cy="433.197909366" fill="rgb(100%,0%,0%)" r="0.7" /><circle cx="258.067499446" cy="435.621068934" fill="rgb(100%,0%,0%)" r="0.7" /><circle cx="258.342469696" cy="436.477998407" fill="rgb(100%,0%,0%)" r="0.7" /><circle cx="261.154684232" cy="435.433273848" fill="rgb(100%,0%,0%)" r="0.7" /><circle cx="263.966898768" cy="434.388549289" fill="rgb(100%,0%,0%)" r="0.7" /><circle cx="266.779113304" cy="433.34382473" fill="rgb(100%,0%,0%)" r="0.7" /><circle cx="269.59132784" cy="432.299100172" fill="rgb(100%,0%,0%)" r="0.7" /><circle cx="270.471108599" cy="434.768427754" fill="rgb(100%,0%,0%)" r="0.7" /><circle cx="271.095150946" cy="437.702805226" fill="rgb(100%,0%,0%)" r="0.7" /><circle cx="271.719193293" cy="440.637182698" fill="rgb(100%,0%,0%)" r="0.7" /><circle cx="272.34323564" cy="443.571560171" fill="rgb(100%,0%,0%)" r="0.7" /><circle cx="272.967277987" cy="446.505937643" fill="rgb(100%,0%,0%)" r="0.7" /><circle cx="273.587" cy="449.42" fill="rgb(100%,0%,0%)" r="0.7" /><circle cx="304.357059023" cy="308.830713135" fill="rgb(0%,0%,100%)" r="0.7" /><circle cx="307.326491934" cy="309.225143947" fill="rgb(0%,0%,100%)" r="0.7" /><circle cx="310.178410762" cy="310.144061012" fill="rgb(0%,0%,100%)" r="0.7" /><circle cx="312.714700875" cy="311.693605853" fill="rgb(0%,0%,100%)" r="0.7" /><circle cx="314.703703505" cy="313.935610776" fill="rgb(0%,0%,100%)" r="0.7" /><circle cx="316.201339618" cy="316.525135117" fill="rgb(0%,0%,100%)" r="0.7" /><circle cx="316.704233553" cy="319.456328928" fill="rgb(0%,0%,100%)" r="0.7" /><circle cx="315.6948315" cy="322.242963518" fill="rgb(0%,0%,100%)" r="0.7" /><circle cx="313.447378546" cy="324.157720107" fill="rgb(0%,0%,100%)" r="0.7" /><circle cx="310.83728178" cy="325.623662657" fill="rgb(0%,0%,100%)" r="0.7" /><circle cx="308.676377942" cy="327.691206101" fill="rgb(0%,0%,100%)" r="0.7" /><circle cx="307.163770696" cy="330.271104032" fill="rgb(0%,0%,100%)" r="0.7" /><circle cx="306.347576728" cy="333.151020038" fill="rgb(0%,0%,100%)" r="0.7" /><circle cx="306.134762306" cy="336.139376881" fill="rgb(0%,0%,100%)" r="0.7" /><circle cx="306.407441823" cy="339.124245012" fill="rgb(0%,0%,100%)" r="0.7" /><circle cx="307.161879325" cy="342.019531404" fill="rgb(0%,0%,100%)" r="0.7" /><circle cx="308.217886217" cy="344.8269452" fill="rgb(0%,0%,100%)" r="0.7" /><circle cx="309.09004851" cy="347.696842404" fill="rgb(0%,0%,100%)" r="0.7" /><circle cx="309.782409683" cy="350.615384026" fill="rgb(0%,0%,100%)" r="0.7" /><circle cx="310.301424592" cy="353.569726292" fill="rgb(0%,0%,100%)" r="0.7" /><circle cx="310.655312064" cy="356.548416729" fill="rgb(0%,0%,100%)" r="0.7" /><circle cx="310.853413816" cy="359.541552417" fill="rgb(0%,0%,100%)" r="0.7" /><circle cx="310.905640623" cy="362.54082132" fill="rgb(0%,0%,100%)" r="0.7" /><circle cx="310.822025759" cy="365.53942074" fill="rgb(0%,0%,100%)" r="0.7" /><circle cx="310.612397374" cy="368.531877647" fill="rgb(0%,0%,100%)" r="0.7" /><circle cx="310.286154293" cy="371.513908326" fill="rgb(0%,0%,100%)" r="0.7" /><circle cx="309.852131936" cy="374.482193566" fill="rgb(0%,0%,100%)" r="0.7" /><circle cx="309.318530098" cy="377.43422871" fill="rgb(0%,0%,100%)" r="0.7" /><circle cx="308.692892765" cy="380.368148578" fill="rgb(0%,0%,100%)" r="0.7" /><circle cx="307.982109263" cy="383.282628928" fill="rgb(0%,0%,100%)" r="0.7" /><circle cx="307.192446962" cy="386.176747706" fill="rgb(0%,0%,100%)" r="0.7" /><circle cx="306.329588257" cy="389.049904504" fill="rgb(0%,0%,100%)" r="0.7" /><circle cx="305.398674673" cy="391.901747109" fill="rgb(0%,0%,100%)" r="0.7" /><circle cx="304.404352036" cy="394.732113807" fill="rgb(0%,0%,100%)" r="0.7" /><circle cx="303.350815513" cy="397.540984984" fill="rgb(0%,0%,100%)" r="0.7" /><circle cx="302.241852313" cy="400.328444476" fill="rgb(0%,0%,100%)" r="0.7" /><circle cx="301.080880443" cy="403.094650453" fill="rgb(0%,0%,100%)" r="0.7" /><circle cx="299.870983235" cy="405.839813276" fill="rgb(0%,0%,100%)" r="0.7" /><circle cx="298.614937482" cy="408.564183062" fill="rgb(0%,0%,100%)" r="0.7" /><circle cx="297.315259037" cy="411.267995878" fill="rgb(0%,0%,100%)" r="0.7" /><circle cx="295.97419098" cy="413.951536625" fill="rgb(0%,0%,100%)" r="0.7" /><circle cx="294.593765001" cy="416.615041801" fill="rgb(0%,0%,100%)" r="0.7" /><circle cx="293.175782556" cy="419.258761314" fill="rgb(0%,0%,100%)" r="0.7" /><circle cx="291.721864382" cy="421.882878722" fill="rgb(0%,0%,100%)" r="0.7" /><circle cx="290.23342222" cy="424.487570978" fill="rgb(0%,0%,100%)" r="0.7" /><circle cx="288.711684104" cy="427.072957083" fill="rgb(0%,0%,100%)" r="0.7" /><circle cx="287.157695795" cy="429.63908008" fill="rgb(0%,0%,100%)" r="0.7" /><circle cx="285.572299748" cy="432.185907764" fill="rgb(0%,0%,100%)" r="0.7" /><circle cx="283.956091425" cy="434.713338317" fill="rgb(0%,0%,100%)" r="0.7" /><circle cx="282.309461533" cy="437.221026702" fill="rgb(0%,0%,100%)" r="0.7" /><circle cx="280.632420422" cy="439.708467563" fill="rgb(0%,0%,100%)" r="0.7" /><circle cx="278.924490556" cy="442.174787219" fill="rgb(0%,0%,100%)" r="0.7" /><circle cx="277.184322737" cy="444.618510704" fill="rgb(0%,0%,100%)" r="0.7" /><circle cx="275.408781293" cy="447.036659833" fill="rgb(0%,0%,100%)" r="0.7" /><circle cx="273.587" cy="449.42" fill="rgb(0%,0%,100%)" r="0.7" /></svg>