<?xml version="1.0" encoding="utf-8" ?>
<svg baseProfile="full" height="100%" version="1.1" width="100%" xmlns="http://www.w3.org/2000/svg" xmlns:ev="http://www.w3.org/2001/xml-events" xmlns:xlink="http://www.w3.org/1999/xlink"><defs /><circle cx="337.095884409" cy="260.509403001" fill="rgb(100%,0%,0%)" r="0.7" /><circle cx="334.742612027" cy="262.357175099" fill="rgb(100%,0%,0%)" r="0.7" /><circle cx="332.686408735" cy="264.540420081" fill="rgb(100%,0%,0%)" r="0.7" /><circle cx="330.766267612" cy="266.845138643" fill="rgb(100%,0%,0%)" r="0.7" /><circle cx="328.921407965" cy="269.210738764" fill="rgb(100%,0%,0%)" r="0.7" /><circle cx="327.121410917" cy="271.610707719" fill="rgb(100%,0%,0%)" r="0.7" /><circle cx="325.348167445" cy="274.030530966" fill="rgb(100%,0%,0%)" r="0.7" /><circle cx="323.589503064" cy="276.460983783" fill="rgb(100%,0%,0%)" r="0.7" /><circle cx="321.83641699" cy="278.895461832" fill="rgb(100%,0%,0%)" r="0.7" /><circle cx="320.081671351" cy="281.328745362" fill="rgb(100%,0%,0%)" r="0.7" /><circle cx="318.339592176" cy="283.770868091" fill="rgb(100%,0%,0%)" r="0.7" /><circle cx="316.646884835" cy="286.247695033" fill="rgb(100%,0%,0%)" r="0.7" /><circle cx="314.962758757" cy="288.73039409" fill="rgb(100%,0%,0%)" r="0.7" /><circle cx="313.286406637" cy="291.218321658" fill="rgb(100%,0%,0%)" r="0.7" /><circle cx="311.617797196" cy="293.711466925" fill="rgb(100%,0%,0%)" r="0.7" /><circle cx="309.957274214" cy="296.209996801" fill="rgb(100%,0%,0%)" r="0.7" /><circle cx="308.305413142" cy="298.714262945" fill="rgb(100%,0%,0%)" r="0.7" /><circle cx="306.663038101" cy="301.22476017" fill="rgb(100%,0%,0%)" r="0.7" /><circle cx="305.031254775" cy="303.742154953" fill="rgb(100%,0%,0%)" r="0.7" /><circle cx="303.411532496" cy="306.267325854" fill="rgb(100%,0%,0%)" r="0.7" /><circle cx="301.805840539" cy="308.801438216" fill="rgb(100%,0%,0%)" r="0.7" /><circle cx="300.216874506" cy="311.346073606" fill="rgb(100%,0%,0%)" r="0.7" /><circle cx="298.648469691" cy="313.903425828" fill="rgb(100%,0%,0%)" r="0.7" /><circle cx="297.106349086" cy="316.476705735" fill="rgb(100%,0%,0%)" r="0.7" /><circle cx="295.599714712" cy="319.070906266" fill="rgb(100%,0%,0%)" r="0.7" /><circle cx="293.996805222" cy="321.601625083" fill="rgb(100%,0%,0%)" r="0.7" /><circle cx="292.222418737" cy="324.020633327" fill="rgb(100%,0%,0%)" r="0.7" /><circle cx="290.417498108" cy="326.416887707" fill="rgb(100%,0%,0%)" r="0.7" /><circle cx="288.586852939" cy="328.793578839" fill="rgb(100%,0%,0%)" r="0.7" /><circle cx="286.732617518" cy="331.151915895" fill="rgb(100%,0%,0%)" r="0.7" /><circle cx="284.855913836" cy="333.492422296" fill="rgb(100%,0%,0%)" r="0.7" /><circle cx="282.95736991" cy="335.815230443" fill="rgb(100%,0%,0%)" r="0.7" /><circle cx="281.037275559" cy="338.120272005" fill="rgb(100%,0%,0%)" r="0.7" /><circle cx="279.095742984" cy="340.40726812" fill="rgb(100%,0%,0%)" r="0.7" /><circle cx="277.132697974" cy="342.675840043" fill="rgb(100%,0%,0%)" r="0.7" /><circle cx="275.147963184" cy="344.925467043" fill="rgb(100%,0%,0%)" r="0.7" /><circle cx="273.141268181" cy="347.155508945" fill="rgb(100%,0%,0%)" r="0.7" /><circle cx="271.112236046" cy="349.365238839" fill="rgb(100%,0%,0%)" r="0.7" /><circle cx="269.060405035" cy="351.553826247" fill="rgb(100%,0%,0%)" r="0.7" /><circle cx="266.985246588" cy="353.720319493" fill="rgb(100%,0%,0%)" r="0.7" /><circle cx="264.886175298" cy="355.863633063" fill="rgb(100%,0%,0%)" r="0.7" /><circle cx="262.762508714" cy="357.982581479" fill="rgb(100%,0%,0%)" r="0.7" /><circle cx="260.613509853" cy="360.075824145" fill="rgb(100%,0%,0%)" r="0.7" /><circle cx="258.438354326" cy="362.141883575" fill="rgb(100%,0%,0%)" r="0.7" /><circle cx="256.236164761" cy="364.179094126" fill="rgb(100%,0%,0%)" r="0.7" /><circle cx="254.005978072" cy="366.185612191" fill="rgb(100%,0%,0%)" r="0.7" /><circle cx="251.746757266" cy="368.159379631" fill="rgb(100%,0%,0%)" r="0.7" /><circle cx="249.457390942" cy="370.098095571" fill="rgb(100%,0%,0%)" r="0.7" /><circle cx="247.136690611" cy="371.99918575" fill="rgb(100%,0%,0%)" r="0.7" /><circle cx="244.783391786" cy="373.859763872" fill="rgb(100%,0%,0%)" r="0.7" /><circle cx="242.396156882" cy="375.676586542" fill="rgb(100%,0%,0%)" r="0.7" /><circle cx="239.973581435" cy="377.446000293" fill="rgb(100%,0%,0%)" r="0.7" /><circle cx="237.514205476" cy="379.163879371" fill="rgb(100%,0%,0%)" r="0.7" /><circle cx="235.016524153" cy="380.825558282" fill="rgb(100%,0%,0%)" r="0.7" /><circle cx="232.479020287" cy="382.425744007" fill="rgb(100%,0%,0%)" r="0.7" /><circle cx="229.900195055" cy="383.958425962" fill="rgb(100%,0%,0%)" r="0.7" /><circle cx="227.278632666" cy="385.416763214" fill="rgb(100%,0%,0%)" r="0.7" /><circle cx="224.613070433" cy="386.792971912" fill="rgb(100%,0%,0%)" r="0.7" /><circle cx="221.9024842" cy="388.078210532" fill="rgb(100%,0%,0%)" r="0.7" /><circle cx="221.174788697" cy="388.616628799" fill="rgb(100%,0%,0%)" r="0.7" /><circle cx="224.100429197" cy="387.95283089" fill="rgb(100%,0%,0%)" r="0.7" /><circle cx="227.026069697" cy="387.289032981" fill="rgb(100%,0%,0%)" r="0.7" /><circle cx="229.951710198" cy="386.625235072" fill="rgb(100%,0%,0%)" r="0.7" /><circle cx="232.877350698" cy="385.961437163" fill="rgb(100%,0%,0%)" r="0.7" /><circle cx="235.802991198" cy="385.297639254" fill="rgb(100%,0%,0%)" r="0.7" /><circle cx="236.598782437" cy="386.383953184" fill="rgb(100%,0%,0%)" r="0.7" /><circle cx="235.380340803" cy="389.125376169" fill="rgb(100%,0%,0%)" r="0.7" /><circle cx="234.161899169" cy="391.866799155" fill="rgb(100%,0%,0%)" r="0.7" /><circle cx="232.943457535" cy="394.60822214" fill="rgb(100%,0%,0%)" r="0.7" /><circle cx="231.725015901" cy="397.349645125" fill="rgb(100%,0%,0%)" r="0.7" /><circle cx="230.506574266" cy="400.09106811" fill="rgb(100%,0%,0%)" r="0.7" /><circle cx="229.288132632" cy="402.832491096" fill="rgb(100%,0%,0%)" r="0.7" /><circle cx="228.429" cy="404.811" fill="rgb(100%,0%,0%)" r="0.7" /><circle cx="337.095884409" cy="260.509403001" fill="rgb(0%,0%,100%)" r="0.7" /><circle cx="339.799617406" cy="260.692557031" fill="rgb(0%,0%,100%)" r="0.7" /><circle cx="340.284491539" cy="263.61408113" fill="rgb(0%,0%,100%)" r="0.7" /><circle cx="340.017652861" cy="266.600634134" fill="rgb(0%,0%,100%)" r="0.7" /><circle cx="339.52260694" cy="269.559161182" fill="rgb(0%,0%,100%)" r="0.7" /><circle cx="338.906182564" cy="272.495017432" fill="rgb(0%,0%,100%)" r="0.7" /><circle cx="338.210662536" cy="275.413215883" fill="rgb(0%,0%,100%)" r="0.7" /><circle cx="337.457465398" cy="278.317087118" fill="rgb(0%,0%,100%)" r="0.7" /><circle cx="336.658775943" cy="281.208793917" fill="rgb(0%,0%,100%)" r="0.7" /><circle cx="335.821633828" cy="284.089602422" fill="rgb(0%,0%,100%)" r="0.7" /><circle cx="334.948898133" cy="286.959835878" fill="rgb(0%,0%,100%)" r="0.7" /><circle cx="334.080276488" cy="289.830879163" fill="rgb(0%,0%,100%)" r="0.7" /><circle cx="333.150294556" cy="292.682696478" fill="rgb(0%,0%,100%)" r="0.7" /><circle cx="332.078768659" cy="295.484533914" fill="rgb(0%,0%,100%)" r="0.7" /><circle cx="330.892193013" cy="298.23971158" fill="rgb(0%,0%,100%)" r="0.7" /><circle cx="329.610257598" cy="300.951877583" fill="rgb(0%,0%,100%)" r="0.7" /><circle cx="328.24789096" cy="303.624591605" fill="rgb(0%,0%,100%)" r="0.7" /><circle cx="326.816656186" cy="306.261089946" fill="rgb(0%,0%,100%)" r="0.7" /><circle cx="325.325653359" cy="308.864276367" fill="rgb(0%,0%,100%)" r="0.7" /><circle cx="323.782165323" cy="311.436702094" fill="rgb(0%,0%,100%)" r="0.7" /><circle cx="322.192092309" cy="313.980606662" fill="rgb(0%,0%,100%)" r="0.7" /><circle cx="320.560271204" cy="316.497943303" fill="rgb(0%,0%,100%)" r="0.7" /><circle cx="318.89070412" cy="318.990410434" fill="rgb(0%,0%,100%)" r="0.7" /><circle cx="317.186723869" cy="321.459482574" fill="rgb(0%,0%,100%)" r="0.7" /><circle cx="315.451116157" cy="323.906435364" fill="rgb(0%,0%,100%)" r="0.7" /><circle cx="313.686221559" cy="326.33234842" fill="rgb(0%,0%,100%)" r="0.7" /><circle cx="311.893987853" cy="328.738136897" fill="rgb(0%,0%,100%)" r="0.7" /><circle cx="310.076026539" cy="331.124540761" fill="rgb(0%,0%,100%)" r="0.7" /><circle cx="308.233625682" cy="333.492137413" fill="rgb(0%,0%,100%)" r="0.7" /><circle cx="306.367775277" cy="335.84129504" fill="rgb(0%,0%,100%)" r="0.7" /><circle cx="304.479118888" cy="338.172156245" fill="rgb(0%,0%,100%)" r="0.7" /><circle cx="302.567879002" cy="340.484529736" fill="rgb(0%,0%,100%)" r="0.7" /><circle cx="300.633619745" cy="342.777682548" fill="rgb(0%,0%,100%)" r="0.7" /><circle cx="298.674534665" cy="345.049677084" fill="rgb(0%,0%,100%)" r="0.7" /><circle cx="296.688833113" cy="347.298379638" fill="rgb(0%,0%,100%)" r="0.7" /><circle cx="294.721441539" cy="349.563181868" fill="rgb(0%,0%,100%)" r="0.7" /><circle cx="292.739444295" cy="351.815195546" fill="rgb(0%,0%,100%)" r="0.7" /><circle cx="290.74241361" cy="354.053924673" fill="rgb(0%,0%,100%)" r="0.7" /><circle cx="288.729955531" cy="356.278774074" fill="rgb(0%,0%,100%)" r="0.7" /><circle cx="286.701609195" cy="358.489156883" fill="rgb(0%,0%,100%)" r="0.7" /><circle cx="284.656922028" cy="360.684404393" fill="rgb(0%,0%,100%)" r="0.7" /><circle cx="282.595356376" cy="362.86385928" fill="rgb(0%,0%,100%)" r="0.7" /><circle cx="280.516440697" cy="365.026706276" fill="rgb(0%,0%,100%)" r="0.7" /><circle cx="278.419550575" cy="367.17219278" fill="rgb(0%,0%,100%)" r="0.7" /><circle cx="276.304141558" cy="369.299375116" fill="rgb(0%,0%,100%)" r="0.7" /><circle cx="274.169532694" cy="371.407327581" fill="rgb(0%,0%,100%)" r="0.7" /><circle cx="272.015075252" cy="373.494956462" fill="rgb(0%,0%,100%)" r="0.7" /><circle cx="269.84000492" cy="375.561128156" fill="rgb(0%,0%,100%)" r="0.7" /><circle cx="267.64357153" cy="377.60452194" fill="rgb(0%,0%,100%)" r="0.7" /><circle cx="265.424875358" cy="379.623758445" fill="rgb(0%,0%,100%)" r="0.7" /><circle cx="263.183014681" cy="381.617229705" fill="rgb(0%,0%,100%)" r="0.7" /><circle cx="260.916965272" cy="383.583171077" fill="rgb(0%,0%,100%)" r="0.7" /><circle cx="258.625628691" cy="385.519568296" fill="rgb(0%,0%,100%)" r="0.7" /><circle cx="256.307766559" cy="387.424151797" fill="rgb(0%,0%,100%)" r="0.7" /><circle cx="253.96204159" cy="389.294281698" fill="rgb(0%,0%,100%)" r="0.7" /><circle cx="251.586922312" cy="391.126919161" fill="rgb(0%,0%,100%)" r="0.7" /><circle cx="249.180663819" cy="392.918492901" fill="rgb(0%,0%,100%)" r="0.7" /><circle cx="246.741297719" cy="394.664702397" fill="rgb(0%,0%,100%)" r="0.7" /><circle cx="244.266514829" cy="396.360304989" fill="rgb(0%,0%,100%)" r="0.7" /><circle cx="241.75353004" cy="397.998743519" fill="rgb(0%,0%,100%)" r="0.7" /><circle cx="239.198935626" cy="399.571473527" fill="rgb(0%,0%,100%)" r="0.7" /><circle cx="236.598331078" cy="401.066796611" fill="rgb(0%,0%,100%)" r="0.7" /><circle cx="233.945550438" cy="402.467357527" fill="rgb(0%,0%,100%)" r="0.7" /><circle cx="231.230748925" cy="403.743151902" fill="rgb(0%,0%,100%)" r="0.7" /><circle cx="228.429" cy="404.811" fill="rgb(0%,0%,100%)" r="0.7" /></svg>