<?xml version="1.0" encoding="utf-8" ?>
<svg baseProfile="full" height="100%" version="1.1" width="100%" xmlns="http://www.w3.org/2000/svg" xmlns:ev="http://www.w3.org/2001/xml-events" xmlns:xlink="http://www.w3.org/1999/xlink"><defs /><circle cx="341.080477927" cy="344.853633332" fill="rgb(100%,0%,0%)" r="0.7" /><circle cx="338.085072719" cy="344.963138729" fill="rgb(100%,0%,0%)" r="0.7" /><circle cx="335.136580078" cy="345.502486609" fill="rgb(100%,0%,0%)" r="0.7" /><circle cx="332.292846265" cy="346.450680936" fill="rgb(100%,0%,0%)" r="0.7" /><circle cx="329.574112227" cy="347.717310741" fill="rgb(100%,0%,0%)" r="0.7" /><circle cx="326.90320174" cy="349.083055892" fill="rgb(100%,0%,0%)" r="0.7" /><circle cx="324.277390577" cy="350.533737083" fill="rgb(100%,0%,0%)" r="0.7" /><circle cx="321.692703116" cy="352.056521702" fill="rgb(100%,0%,0%)" r="0.7" /><circle cx="319.149034606" cy="353.646881954" fill="rgb(100%,0%,0%)" r="0.7" /><circle cx="316.647720258" cy="355.303064208" fill="rgb(100%,0%,0%)" r="0.7" /><circle cx="314.190998227" cy="357.024681361" fill="rgb(100%,0%,0%)" r="0.7" /><circle cx="311.781788953" cy="358.812179021" fill="rgb(100%,0%,0%)" r="0.7" /><circle cx="309.423663749" cy="360.666535313" fill="rgb(100%,0%,0%)" r="0.7" /><circle cx="307.120822" cy="362.589104959" fill="rgb(100%,0%,0%)" r="0.7" /><circle cx="304.87813173" cy="364.581485113" fill="rgb(100%,0%,0%)" r="0.7" /><circle cx="302.701141093" cy="366.645437732" fill="rgb(100%,0%,0%)" r="0.7" /><circle cx="300.596163245" cy="368.782754932" fill="rgb(100%,0%,0%)" r="0.7" /><circle cx="298.570293372" cy="370.995175467" fill="rgb(100%,0%,0%)" r="0.7" /><circle cx="296.631471076" cy="373.284230849" fill="rgb(100%,0%,0%)" r="0.7" /><circle cx="294.788488968" cy="375.651099863" fill="rgb(100%,0%,0%)" r="0.7" /><circle cx="293.050986805" cy="378.096412694" fill="rgb(100%,0%,0%)" r="0.7" /><circle cx="291.426242667" cy="380.618083921" fill="rgb(100%,0%,0%)" r="0.7" /><circle cx="289.865863047" cy="383.18031886" fill="rgb(100%,0%,0%)" r="0.7" /><circle cx="288.340314403" cy="385.763450726" fill="rgb(100%,0%,0%)" r="0.7" /><circle cx="286.845869764" cy="388.364704543" fill="rgb(100%,0%,0%)" r="0.7" /><circle cx="285.382828045" cy="390.983754474" fill="rgb(100%,0%,0%)" r="0.7" /><circle cx="283.953063158" cy="393.621112785" fill="rgb(100%,0%,0%)" r="0.7" /><circle cx="282.559650992" cy="396.277849881" fill="rgb(100%,0%,0%)" r="0.7" /><circle cx="281.206936837" cy="398.955528344" fill="rgb(100%,0%,0%)" r="0.7" /><circle cx="279.900838935" cy="401.656242157" fill="rgb(100%,0%,0%)" r="0.7" /><circle cx="278.649426717" cy="404.382706833" fill="rgb(100%,0%,0%)" r="0.7" /><circle cx="277.463905421" cy="407.138431995" fill="rgb(100%,0%,0%)" r="0.7" /><circle cx="276.360361135" cy="409.927944868" fill="rgb(100%,0%,0%)" r="0.7" /><circle cx="275.363012214" cy="412.757059944" fill="rgb(100%,0%,0%)" r="0.7" /><circle cx="274.46663378" cy="415.619759244" fill="rgb(100%,0%,0%)" r="0.7" /><circle cx="273.590627949" cy="418.488957609" fill="rgb(100%,0%,0%)" r="0.7" /><circle cx="272.769091651" cy="421.374243429" fill="rgb(100%,0%,0%)" r="0.7" /><circle cx="271.993920722" cy="424.272331256" fill="rgb(100%,0%,0%)" r="0.7" /><circle cx="271.262386461" cy="427.181757374" fill="rgb(100%,0%,0%)" r="0.7" /><circle cx="270.573606917" cy="430.101582245" fill="rgb(100%,0%,0%)" r="0.7" /><circle cx="269.92764397" cy="433.031189131" fill="rgb(100%,0%,0%)" r="0.7" /><circle cx="269.325196468" cy="435.970043779" fill="rgb(100%,0%,0%)" r="0.7" /><circle cx="268.767430018" cy="438.917712815" fill="rgb(100%,0%,0%)" r="0.7" /><circle cx="268.255920054" cy="441.873750758" fill="rgb(100%,0%,0%)" r="0.7" /><circle cx="267.792609757" cy="444.837726764" fill="rgb(100%,0%,0%)" r="0.7" /><circle cx="267.379811676" cy="447.809151089" fill="rgb(100%,0%,0%)" r="0.7" /><circle cx="267.02021218" cy="450.787479907" fill="rgb(100%,0%,0%)" r="0.7" /><circle cx="266.716897437" cy="453.772057513" fill="rgb(100%,0%,0%)" r="0.7" /><circle cx="266.473382989" cy="456.762105446" fill="rgb(100%,0%,0%)" r="0.7" /><circle cx="266.293658154" cy="459.75665696" fill="rgb(100%,0%,0%)" r="0.7" /><circle cx="266.182235473" cy="462.754518708" fill="rgb(100%,0%,0%)" r="0.7" /><circle cx="266.144210585" cy="465.754197206" fill="rgb(100%,0%,0%)" r="0.7" /><circle cx="267.2245917" cy="465.547235738" fill="rgb(100%,0%,0%)" r="0.7" /><circle cx="269.030796809" cy="463.151902128" fill="rgb(100%,0%,0%)" r="0.7" /><circle cx="270.837001918" cy="460.756568517" fill="rgb(100%,0%,0%)" r="0.7" /><circle cx="272.643207027" cy="458.361234907" fill="rgb(100%,0%,0%)" r="0.7" /><circle cx="275.096508549" cy="459.765838005" fill="rgb(100%,0%,0%)" r="0.7" /><circle cx="277.593727292" cy="461.428335689" fill="rgb(100%,0%,0%)" r="0.7" /><circle cx="280.090946035" cy="463.090833373" fill="rgb(100%,0%,0%)" r="0.7" /><circle cx="282.588164778" cy="464.753331056" fill="rgb(100%,0%,0%)" r="0.7" /><circle cx="285.085383521" cy="466.41582874" fill="rgb(100%,0%,0%)" r="0.7" /><circle cx="285.344" cy="466.588" fill="rgb(100%,0%,0%)" r="0.7" /><circle cx="341.080477927" cy="344.853633332" fill="rgb(0%,0%,100%)" r="0.7" /><circle cx="344.061521667" cy="345.168200111" fill="rgb(0%,0%,100%)" r="0.7" /><circle cx="346.973526107" cy="345.880539233" fill="rgb(0%,0%,100%)" r="0.7" /><circle cx="349.771435253" cy="346.957565341" fill="rgb(0%,0%,100%)" r="0.7" /><circle cx="352.408568128" cy="348.382940565" fill="rgb(0%,0%,100%)" r="0.7" /><circle cx="354.474031087" cy="350.522681172" fill="rgb(0%,0%,100%)" r="0.7" /><circle cx="355.917317355" cy="353.142570271" fill="rgb(0%,0%,100%)" r="0.7" /><circle cx="356.367447172" cy="356.084048789" fill="rgb(0%,0%,100%)" r="0.7" /><circle cx="355.417557557" cy="358.900143695" fill="rgb(0%,0%,100%)" r="0.7" /><circle cx="353.451321009" cy="361.150345666" fill="rgb(0%,0%,100%)" r="0.7" /><circle cx="351.001964285" cy="362.875336058" fill="rgb(0%,0%,100%)" r="0.7" /><circle cx="348.320626251" cy="364.216613595" fill="rgb(0%,0%,100%)" r="0.7" /><circle cx="345.505713119" cy="365.249847316" fill="rgb(0%,0%,100%)" r="0.7" /><circle cx="342.599014312" cy="365.981858064" fill="rgb(0%,0%,100%)" r="0.7" /><circle cx="339.757192161" cy="366.942136929" fill="rgb(0%,0%,100%)" r="0.7" /><circle cx="336.952068659" cy="368.005507978" fill="rgb(0%,0%,100%)" r="0.7" /><circle cx="334.170715789" cy="369.129713186" fill="rgb(0%,0%,100%)" r="0.7" /><circle cx="331.408864417" cy="370.301028598" fill="rgb(0%,0%,100%)" r="0.7" /><circle cx="328.794190229" cy="371.767058436" fill="rgb(0%,0%,100%)" r="0.7" /><circle cx="326.318860078" cy="373.460761273" fill="rgb(0%,0%,100%)" r="0.7" /><circle cx="323.961942739" cy="375.316085318" fill="rgb(0%,0%,100%)" r="0.7" /><circle cx="321.71029676" cy="377.298059212" fill="rgb(0%,0%,100%)" r="0.7" /><circle cx="319.552249006" cy="379.381682804" fill="rgb(0%,0%,100%)" r="0.7" /><circle cx="317.477941378" cy="381.548764055" fill="rgb(0%,0%,100%)" r="0.7" /><circle cx="315.479275025" cy="383.785852305" fill="rgb(0%,0%,100%)" r="0.7" /><circle cx="313.549765324" cy="386.082889504" fill="rgb(0%,0%,100%)" r="0.7" /><circle cx="311.684425022" cy="388.432351761" fill="rgb(0%,0%,100%)" r="0.7" /><circle cx="309.879762243" cy="390.828754584" fill="rgb(0%,0%,100%)" r="0.7" /><circle cx="308.134082458" cy="393.268462171" fill="rgb(0%,0%,100%)" r="0.7" /><circle cx="306.448602377" cy="395.750137189" fill="rgb(0%,0%,100%)" r="0.7" /><circle cx="304.834152268" cy="398.278513379" fill="rgb(0%,0%,100%)" r="0.7" /><circle cx="303.199222862" cy="400.793594878" fill="rgb(0%,0%,100%)" r="0.7" /><circle cx="301.639853178" cy="403.356324747" fill="rgb(0%,0%,100%)" r="0.7" /><circle cx="300.162546121" cy="405.967234431" fill="rgb(0%,0%,100%)" r="0.7" /><circle cx="298.765804512" cy="408.622123656" fill="rgb(0%,0%,100%)" r="0.7" /><circle cx="297.447959153" cy="411.317056498" fill="rgb(0%,0%,100%)" r="0.7" /><circle cx="296.207225821" cy="414.04835657" fill="rgb(0%,0%,100%)" r="0.7" /><circle cx="295.041747609" cy="416.81261292" fill="rgb(0%,0%,100%)" r="0.7" /><circle cx="293.949634541" cy="419.606677603" fill="rgb(0%,0%,100%)" r="0.7" /><circle cx="292.9290044" cy="422.427643542" fill="rgb(0%,0%,100%)" r="0.7" /><circle cx="291.978010138" cy="425.272841994" fill="rgb(0%,0%,100%)" r="0.7" /><circle cx="291.094865868" cy="428.139837567" fill="rgb(0%,0%,100%)" r="0.7" /><circle cx="290.277883447" cy="431.026379847" fill="rgb(0%,0%,100%)" r="0.7" /><circle cx="289.525481684" cy="433.930442151" fill="rgb(0%,0%,100%)" r="0.7" /><circle cx="288.836234387" cy="436.8501255" fill="rgb(0%,0%,100%)" r="0.7" /><circle cx="288.208872966" cy="439.78374842" fill="rgb(0%,0%,100%)" r="0.7" /><circle cx="287.642350222" cy="442.729712936" fill="rgb(0%,0%,100%)" r="0.7" /><circle cx="287.135863083" cy="445.686604534" fill="rgb(0%,0%,100%)" r="0.7" /><circle cx="286.688941035" cy="448.653076931" fill="rgb(0%,0%,100%)" r="0.7" /><circle cx="286.301539203" cy="451.62791054" fill="rgb(0%,0%,100%)" r="0.7" /><circle cx="285.974225879" cy="454.609949705" fill="rgb(0%,0%,100%)" r="0.7" /><circle cx="285.708516217" cy="457.598103523" fill="rgb(0%,0%,100%)" r="0.7" /><circle cx="285.507605898" cy="460.591310231" fill="rgb(0%,0%,100%)" r="0.7" /><circle cx="285.37843141" cy="463.588443645" fill="rgb(0%,0%,100%)" r="0.7" /><circle cx="285.344" cy="466.588" fill="rgb(0%,0%,100%)" r="0.7" /></svg>