<?xml version="1.0" encoding="utf-8" ?>
<svg baseProfile="full" height="100%" version="1.1" width="100%" xmlns="http://www.w3.org/2000/svg" xmlns:ev="http://www.w3.org/2001/xml-events" xmlns:xlink="http://www.w3.org/1999/xlink"><defs /><circle cx="251.380968779" cy="247.596752204" fill="rgb(100%,0%,0%)" r="0.7" /><circle cx="248.40994873" cy="247.709872579" fill="rgb(100%,0%,0%)" r="0.7" /><circle cx="245.732687392" cy="249.023733038" fill="rgb(100%,0%,0%)" r="0.7" /><circle cx="243.582533966" cy="251.06441533" fill="rgb(100%,0%,0%)" r="0.7" /><circle cx="242.701687095" cy="253.904842832" fill="rgb(100%,0%,0%)" r="0.7" /><circle cx="242.996289602" cy="256.868651908" fill="rgb(100%,0%,0%)" r="0.7" /><circle cx="244.159975065" cy="259.629018577" fill="rgb(100%,0%,0%)" r="0.7" /><circle cx="245.807210275" cy="262.115774501" fill="rgb(100%,0%,0%)" r="0.7" /><circle cx="247.549936556" cy="264.540773696" fill="rgb(100%,0%,0%)" r="0.7" /><circle cx="248.608253804" cy="267.341860076" fill="rgb(100%,0%,0%)" r="0.7" /><circle cx="249.13871362" cy="270.291440135" fill="rgb(100%,0%,0%)" r="0.7" /><circle cx="249.258705741" cy="273.287231912" fill="rgb(100%,0%,0%)" r="0.7" /><circle cx="249.059059258" cy="276.279464812" fill="rgb(100%,0%,0%)" r="0.7" /><circle cx="248.697072398" cy="279.257416857" fill="rgb(100%,0%,0%)" r="0.7" /><circle cx="248.331356542" cy="282.235030581" fill="rgb(100%,0%,0%)" r="0.7" /><circle cx="247.953223169" cy="285.21110813" fill="rgb(100%,0%,0%)" r="0.7" /><circle cx="247.564584775" cy="288.185848066" fill="rgb(100%,0%,0%)" r="0.7" /><circle cx="247.166359731" cy="291.159284695" fill="rgb(100%,0%,0%)" r="0.7" /><circle cx="246.759061735" cy="294.131521327" fill="rgb(100%,0%,0%)" r="0.7" /><circle cx="246.343016986" cy="297.102520959" fill="rgb(100%,0%,0%)" r="0.7" /><circle cx="245.918414169" cy="300.072331735" fill="rgb(100%,0%,0%)" r="0.7" /><circle cx="245.485366556" cy="303.040933895" fill="rgb(100%,0%,0%)" r="0.7" /><circle cx="245.043929709" cy="306.008281864" fill="rgb(100%,0%,0%)" r="0.7" /><circle cx="244.594110246" cy="308.974340673" fill="rgb(100%,0%,0%)" r="0.7" /><circle cx="244.135861865" cy="311.939167387" fill="rgb(100%,0%,0%)" r="0.7" /><circle cx="243.669135804" cy="314.902621762" fill="rgb(100%,0%,0%)" r="0.7" /><circle cx="243.193828315" cy="317.864732312" fill="rgb(100%,0%,0%)" r="0.7" /><circle cx="242.709825521" cy="320.825424491" fill="rgb(100%,0%,0%)" r="0.7" /><circle cx="242.216982295" cy="323.784664971" fill="rgb(100%,0%,0%)" r="0.7" /><circle cx="241.715132337" cy="326.742404265" fill="rgb(100%,0%,0%)" r="0.7" /><circle cx="241.204095356" cy="329.698538897" fill="rgb(100%,0%,0%)" r="0.7" /><circle cx="240.683652747" cy="332.653052515" fill="rgb(100%,0%,0%)" r="0.7" /><circle cx="240.153575243" cy="335.605852568" fill="rgb(100%,0%,0%)" r="0.7" /><circle cx="239.613607468" cy="338.55685623" fill="rgb(100%,0%,0%)" r="0.7" /><circle cx="239.063467613" cy="341.505984969" fill="rgb(100%,0%,0%)" r="0.7" /><circle cx="238.50284972" cy="344.453144308" fill="rgb(100%,0%,0%)" r="0.7" /><circle cx="237.9314244" cy="347.398212109" fill="rgb(100%,0%,0%)" r="0.7" /><circle cx="237.34882461" cy="350.341101262" fill="rgb(100%,0%,0%)" r="0.7" /><circle cx="236.754659763" cy="353.281674177" fill="rgb(100%,0%,0%)" r="0.7" /><circle cx="236.148502923" cy="356.219794409" fill="rgb(100%,0%,0%)" r="0.7" /><circle cx="235.529888482" cy="359.155320658" fill="rgb(100%,0%,0%)" r="0.7" /><circle cx="234.898312658" cy="362.088085785" fill="rgb(100%,0%,0%)" r="0.7" /><circle cx="234.253226948" cy="365.017907168" fill="rgb(100%,0%,0%)" r="0.7" /><circle cx="233.594032861" cy="367.94458678" fill="rgb(100%,0%,0%)" r="0.7" /><circle cx="232.920077625" cy="370.867903121" fill="rgb(100%,0%,0%)" r="0.7" /><circle cx="232.230648109" cy="373.787607164" fill="rgb(100%,0%,0%)" r="0.7" /><circle cx="231.524963287" cy="376.703419498" fill="rgb(100%,0%,0%)" r="0.7" /><circle cx="230.802160544" cy="379.615046183" fill="rgb(100%,0%,0%)" r="0.7" /><circle cx="230.061297751" cy="382.5221236" fill="rgb(100%,0%,0%)" r="0.7" /><circle cx="229.30132882" cy="385.424262817" fill="rgb(100%,0%,0%)" r="0.7" /><circle cx="228.521095125" cy="388.321018417" fill="rgb(100%,0%,0%)" r="0.7" /><circle cx="227.719305503" cy="391.211889846" fill="rgb(100%,0%,0%)" r="0.7" /><circle cx="226.894524468" cy="394.096278417" fill="rgb(100%,0%,0%)" r="0.7" /><circle cx="226.04513563" cy="396.973515332" fill="rgb(100%,0%,0%)" r="0.7" /><circle cx="225.169320313" cy="399.842811537" fill="rgb(100%,0%,0%)" r="0.7" /><circle cx="224.265014307" cy="402.703254721" fill="rgb(100%,0%,0%)" r="0.7" /><circle cx="223.329867451" cy="405.553760089" fill="rgb(100%,0%,0%)" r="0.7" /><circle cx="222.36118061" cy="408.393047133" fill="rgb(100%,0%,0%)" r="0.7" /><circle cx="221.355842697" cy="411.219557428" fill="rgb(100%,0%,0%)" r="0.7" /><circle cx="220.310225569" cy="414.031418512" fill="rgb(100%,0%,0%)" r="0.7" /><circle cx="219.220080539" cy="416.826300095" fill="rgb(100%,0%,0%)" r="0.7" /><circle cx="218.080358824" cy="419.601336412" fill="rgb(100%,0%,0%)" r="0.7" /><circle cx="216.885032527" cy="422.352857244" fill="rgb(100%,0%,0%)" r="0.7" /><circle cx="215.62680444" cy="425.076136637" fill="rgb(100%,0%,0%)" r="0.7" /><circle cx="214.296681905" cy="427.765061981" fill="rgb(100%,0%,0%)" r="0.7" /><circle cx="212.883567526" cy="430.411248243" fill="rgb(100%,0%,0%)" r="0.7" /><circle cx="214.351572186" cy="429.482475994" fill="rgb(100%,0%,0%)" r="0.7" /><circle cx="216.648937247" cy="427.553197948" fill="rgb(100%,0%,0%)" r="0.7" /><circle cx="218.946302308" cy="425.623919903" fill="rgb(100%,0%,0%)" r="0.7" /><circle cx="221.243667369" cy="423.694641857" fill="rgb(100%,0%,0%)" r="0.7" /><circle cx="223.54103243" cy="421.765363812" fill="rgb(100%,0%,0%)" r="0.7" /><circle cx="225.83839749" cy="419.836085766" fill="rgb(100%,0%,0%)" r="0.7" /><circle cx="227.391367137" cy="420.94194485" fill="rgb(100%,0%,0%)" r="0.7" /><circle cx="228.535379617" cy="423.715252523" fill="rgb(100%,0%,0%)" r="0.7" /><circle cx="229.679392097" cy="426.488560195" fill="rgb(100%,0%,0%)" r="0.7" /><circle cx="230.823404576" cy="429.261867868" fill="rgb(100%,0%,0%)" r="0.7" /><circle cx="231.967417056" cy="432.03517554" fill="rgb(100%,0%,0%)" r="0.7" /><circle cx="233.111429536" cy="434.808483213" fill="rgb(100%,0%,0%)" r="0.7" /><circle cx="234.255442015" cy="437.581790885" fill="rgb(100%,0%,0%)" r="0.7" /><circle cx="235.399454495" cy="440.355098558" fill="rgb(100%,0%,0%)" r="0.7" /><circle cx="235.953" cy="441.697" fill="rgb(100%,0%,0%)" r="0.7" /><circle cx="251.380968779" cy="247.596752204" fill="rgb(0%,0%,100%)" r="0.7" /><circle cx="254.229847712" cy="248.511392075" fill="rgb(0%,0%,100%)" r="0.7" /><circle cx="256.849163464" cy="249.967787533" fill="rgb(0%,0%,100%)" r="0.7" /><circle cx="259.11657168" cy="251.902212534" fill="rgb(0%,0%,100%)" r="0.7" /><circle cx="260.794885504" cy="254.385433155" fill="rgb(0%,0%,100%)" r="0.7" /><circle cx="262.138219936" cy="257.066128484" fill="rgb(0%,0%,100%)" r="0.7" /><circle cx="263.215102224" cy="259.86523201" fill="rgb(0%,0%,100%)" r="0.7" /><circle cx="264.079619781" cy="262.737395825" fill="rgb(0%,0%,100%)" r="0.7" /><circle cx="264.772071604" cy="265.656022453" fill="rgb(0%,0%,100%)" r="0.7" /><circle cx="265.322201933" cy="268.604904582" fill="rgb(0%,0%,100%)" r="0.7" /><circle cx="265.752096943" cy="271.573767279" fill="rgb(0%,0%,100%)" r="0.7" /><circle cx="266.07828114" cy="274.555849209" fill="rgb(0%,0%,100%)" r="0.7" /><circle cx="266.313122756" cy="277.546543334" fill="rgb(0%,0%,100%)" r="0.7" /><circle cx="266.465699793" cy="280.542573095" fill="rgb(0%,0%,100%)" r="0.7" /><circle cx="266.542186002" cy="283.541526938" fill="rgb(0%,0%,100%)" r="0.7" /><circle cx="266.54554227" cy="286.541449049" fill="rgb(0%,0%,100%)" r="0.7" /><circle cx="266.473046339" cy="289.540489605" fill="rgb(0%,0%,100%)" r="0.7" /><circle cx="266.407994684" cy="292.538327033" fill="rgb(0%,0%,100%)" r="0.7" /><circle cx="266.379939924" cy="295.538097354" fill="rgb(0%,0%,100%)" r="0.7" /><circle cx="266.279992966" cy="298.536385989" fill="rgb(0%,0%,100%)" r="0.7" /><circle cx="266.12238804" cy="301.532210734" fill="rgb(0%,0%,100%)" r="0.7" /><circle cx="265.917211106" cy="304.525159549" fill="rgb(0%,0%,100%)" r="0.7" /><circle cx="265.6719005" cy="307.515097933" fill="rgb(0%,0%,100%)" r="0.7" /><circle cx="265.392121447" cy="310.501998352" fill="rgb(0%,0%,100%)" r="0.7" /><circle cx="265.08229484" cy="313.48594943" fill="rgb(0%,0%,100%)" r="0.7" /><circle cx="264.745950909" cy="316.467026676" fill="rgb(0%,0%,100%)" r="0.7" /><circle cx="264.385953349" cy="319.445343468" fill="rgb(0%,0%,100%)" r="0.7" /><circle cx="264.004661941" cy="322.42100951" fill="rgb(0%,0%,100%)" r="0.7" /><circle cx="263.604044075" cy="325.394139597" fill="rgb(0%,0%,100%)" r="0.7" /><circle cx="263.185759582" cy="328.364831237" fill="rgb(0%,0%,100%)" r="0.7" /><circle cx="262.75121787" cy="331.333191157" fill="rgb(0%,0%,100%)" r="0.7" /><circle cx="262.301627158" cy="334.299310303" fill="rgb(0%,0%,100%)" r="0.7" /><circle cx="261.83802878" cy="337.263269742" fill="rgb(0%,0%,100%)" r="0.7" /><circle cx="261.361321981" cy="340.225154717" fill="rgb(0%,0%,100%)" r="0.7" /><circle cx="260.872289208" cy="343.185027419" fill="rgb(0%,0%,100%)" r="0.7" /><circle cx="260.371609397" cy="346.14294641" fill="rgb(0%,0%,100%)" r="0.7" /><circle cx="259.859867501" cy="349.098983202" fill="rgb(0%,0%,100%)" r="0.7" /><circle cx="259.337574552" cy="352.053160009" fill="rgb(0%,0%,100%)" r="0.7" /><circle cx="258.805158756" cy="355.00553824" fill="rgb(0%,0%,100%)" r="0.7" /><circle cx="258.262981753" cy="357.956145815" fill="rgb(0%,0%,100%)" r="0.7" /><circle cx="257.711336309" cy="360.904993983" fill="rgb(0%,0%,100%)" r="0.7" /><circle cx="257.150441864" cy="363.852082011" fill="rgb(0%,0%,100%)" r="0.7" /><circle cx="256.580429008" cy="366.797426878" fill="rgb(0%,0%,100%)" r="0.7" /><circle cx="256.001326719" cy="369.741023543" fill="rgb(0%,0%,100%)" r="0.7" /><circle cx="255.413036397" cy="372.682772371" fill="rgb(0%,0%,100%)" r="0.7" /><circle cx="254.815217056" cy="375.622611359" fill="rgb(0%,0%,100%)" r="0.7" /><circle cx="254.207091048" cy="378.560314127" fill="rgb(0%,0%,100%)" r="0.7" /><circle cx="253.586452918" cy="381.495416651" fill="rgb(0%,0%,100%)" r="0.7" /><circle cx="253.009520906" cy="384.439210739" fill="rgb(0%,0%,100%)" r="0.7" /><circle cx="252.438009165" cy="387.38429316" fill="rgb(0%,0%,100%)" r="0.7" /><circle cx="251.850678871" cy="390.326216126" fill="rgb(0%,0%,100%)" r="0.7" /><circle cx="251.246580557" cy="393.264752616" fill="rgb(0%,0%,100%)" r="0.7" /><circle cx="250.62466646" cy="396.199585454" fill="rgb(0%,0%,100%)" r="0.7" /><circle cx="249.98376545" cy="399.130332064" fill="rgb(0%,0%,100%)" r="0.7" /><circle cx="249.322554468" cy="402.056555996" fill="rgb(0%,0%,100%)" r="0.7" /><circle cx="248.639526594" cy="404.97775822" fill="rgb(0%,0%,100%)" r="0.7" /><circle cx="247.932956583" cy="407.893337314" fill="rgb(0%,0%,100%)" r="0.7" /><circle cx="247.200831839" cy="410.80263471" fill="rgb(0%,0%,100%)" r="0.7" /><circle cx="246.440820876" cy="413.704748977" fill="rgb(0%,0%,100%)" r="0.7" /><circle cx="245.650133235" cy="416.598668666" fill="rgb(0%,0%,100%)" r="0.7" /><circle cx="244.825422048" cy="419.483062077" fill="rgb(0%,0%,100%)" r="0.7" /><circle cx="243.962566806" cy="422.356257707" fill="rgb(0%,0%,100%)" r="0.7" /><circle cx="243.056373568" cy="425.21608484" fill="rgb(0%,0%,100%)" r="0.7" /><circle cx="242.100110243" cy="428.059560971" fill="rgb(0%,0%,100%)" r="0.7" /><circle cx="241.084684554" cy="430.882416152" fill="rgb(0%,0%,100%)" r="0.7" /><circle cx="239.99706049" cy="433.678206858" fill="rgb(0%,0%,100%)" r="0.7" /><circle cx="238.81683752" cy="436.436094615" fill="rgb(0%,0%,100%)" r="0.7" /><circle cx="237.506511546" cy="439.13431661" fill="rgb(0%,0%,100%)" r="0.7" /><circle cx="235.953" cy="441.697" fill="rgb(0%,0%,100%)" r="0.7" /></svg>