<?xml version="1.0" encoding="utf-8" ?>
<svg baseProfile="full" height="100%" version="1.1" width="100%" xmlns="http://www.w3.org/2000/svg" xmlns:ev="http://www.w3.org/2001/xml-events" xmlns:xlink="http://www.w3.org/1999/xlink"><defs /><circle cx="304.723699523" cy="340.021089702" fill="rgb(100%,0%,0%)" r="0.7" /><circle cx="301.729956777" cy="340.177380769" fill="rgb(100%,0%,0%)" r="0.7" /><circle cx="298.771957173" cy="340.670415625" fill="rgb(100%,0%,0%)" r="0.7" /><circle cx="295.870552383" cy="341.429495143" fill="rgb(100%,0%,0%)" r="0.7" /><circle cx="293.057981018" cy="342.467936112" fill="rgb(100%,0%,0%)" r="0.7" /><circle cx="290.353828004" cy="343.761791549" fill="rgb(100%,0%,0%)" r="0.7" /><circle cx="287.803103549" cy="345.339023572" fill="rgb(100%,0%,0%)" r="0.7" /><circle cx="285.391180625" cy="347.12179078" fill="rgb(100%,0%,0%)" r="0.7" /><circle cx="283.114670278" cy="349.074717315" fill="rgb(100%,0%,0%)" r="0.7" /><circle cx="280.972667439" cy="351.174419677" fill="rgb(100%,0%,0%)" r="0.7" /><circle cx="278.964486621" cy="353.402543302" fill="rgb(100%,0%,0%)" r="0.7" /><circle cx="277.090130833" cy="355.744306358" fill="rgb(100%,0%,0%)" r="0.7" /><circle cx="275.418493503" cy="358.235407445" fill="rgb(100%,0%,0%)" r="0.7" /><circle cx="273.765870196" cy="360.739178377" fill="rgb(100%,0%,0%)" r="0.7" /><circle cx="272.129275952" cy="363.253440563" fill="rgb(100%,0%,0%)" r="0.7" /><circle cx="270.508555052" cy="365.777970671" fill="rgb(100%,0%,0%)" r="0.7" /><circle cx="268.904426962" cy="368.313073955" fill="rgb(100%,0%,0%)" r="0.7" /><circle cx="267.318198716" cy="370.859415216" fill="rgb(100%,0%,0%)" r="0.7" /><circle cx="265.751762719" cy="373.41797299" fill="rgb(100%,0%,0%)" r="0.7" /><circle cx="264.20769479" cy="375.990093404" fill="rgb(100%,0%,0%)" r="0.7" /><circle cx="262.68949116" cy="378.577559001" fill="rgb(100%,0%,0%)" r="0.7" /><circle cx="261.201948728" cy="381.182764319" fill="rgb(100%,0%,0%)" r="0.7" /><circle cx="259.751850025" cy="383.80898206" fill="rgb(100%,0%,0%)" r="0.7" /><circle cx="258.349221477" cy="386.460839986" fill="rgb(100%,0%,0%)" r="0.7" /><circle cx="257.009893587" cy="389.145173682" fill="rgb(100%,0%,0%)" r="0.7" /><circle cx="255.761370691" cy="391.872803633" fill="rgb(100%,0%,0%)" r="0.7" /><circle cx="254.635041087" cy="394.65276067" fill="rgb(100%,0%,0%)" r="0.7" /><circle cx="253.467312611" cy="397.416137144" fill="rgb(100%,0%,0%)" r="0.7" /><circle cx="252.339041005" cy="400.195868986" fill="rgb(100%,0%,0%)" r="0.7" /><circle cx="251.248612542" cy="402.990654565" fill="rgb(100%,0%,0%)" r="0.7" /><circle cx="250.199606154" cy="405.801239717" fill="rgb(100%,0%,0%)" r="0.7" /><circle cx="249.198850567" cy="408.629356002" fill="rgb(100%,0%,0%)" r="0.7" /><circle cx="248.25729387" cy="411.477701268" fill="rgb(100%,0%,0%)" r="0.7" /><circle cx="247.392594923" cy="414.350258592" fill="rgb(100%,0%,0%)" r="0.7" /><circle cx="246.63530511" cy="417.252845246" fill="rgb(100%,0%,0%)" r="0.7" /><circle cx="246.045709091" cy="420.193650307" fill="rgb(100%,0%,0%)" r="0.7" /><circle cx="245.775565248" cy="423.178404783" fill="rgb(100%,0%,0%)" r="0.7" /><circle cx="247.342546157" cy="420.802061733" fill="rgb(100%,0%,0%)" r="0.7" /><circle cx="248.954000555" cy="418.271604319" fill="rgb(100%,0%,0%)" r="0.7" /><circle cx="250.565454952" cy="415.741146904" fill="rgb(100%,0%,0%)" r="0.7" /><circle cx="252.17690935" cy="413.21068949" fill="rgb(100%,0%,0%)" r="0.7" /><circle cx="253.788363747" cy="410.680232076" fill="rgb(100%,0%,0%)" r="0.7" /><circle cx="255.220606289" cy="410.389171153" fill="rgb(100%,0%,0%)" r="0.7" /><circle cx="256.409119768" cy="413.143701187" fill="rgb(100%,0%,0%)" r="0.7" /><circle cx="257.597633248" cy="415.898231221" fill="rgb(100%,0%,0%)" r="0.7" /><circle cx="258.786146727" cy="418.652761255" fill="rgb(100%,0%,0%)" r="0.7" /><circle cx="259.974660207" cy="421.40729129" fill="rgb(100%,0%,0%)" r="0.7" /><circle cx="260.935" cy="423.633" fill="rgb(100%,0%,0%)" r="0.7" /><circle cx="304.723699523" cy="340.021089702" fill="rgb(0%,0%,100%)" r="0.7" /><circle cx="307.699513755" cy="340.357413525" fill="rgb(0%,0%,100%)" r="0.7" /><circle cx="310.469549818" cy="341.469952094" fill="rgb(0%,0%,100%)" r="0.7" /><circle cx="312.677219604" cy="343.487133458" fill="rgb(0%,0%,100%)" r="0.7" /><circle cx="314.276475569" cy="346.011462" fill="rgb(0%,0%,100%)" r="0.7" /><circle cx="314.840293318" cy="348.93250237" fill="rgb(0%,0%,100%)" r="0.7" /><circle cx="314.469991795" cy="351.902242254" fill="rgb(0%,0%,100%)" r="0.7" /><circle cx="313.195169877" cy="354.594083099" fill="rgb(0%,0%,100%)" r="0.7" /><circle cx="310.967965873" cy="356.578898696" fill="rgb(0%,0%,100%)" r="0.7" /><circle cx="308.233071232" cy="357.791331518" fill="rgb(0%,0%,100%)" r="0.7" /><circle cx="305.32005356" cy="358.478692407" fill="rgb(0%,0%,100%)" r="0.7" /><circle cx="302.610405112" cy="359.762868333" fill="rgb(0%,0%,100%)" r="0.7" /><circle cx="299.930324093" cy="361.104232159" fill="rgb(0%,0%,100%)" r="0.7" /><circle cx="297.449032444" cy="362.787484477" fill="rgb(0%,0%,100%)" r="0.7" /><circle cx="295.135234285" cy="364.695889804" fill="rgb(0%,0%,100%)" r="0.7" /><circle cx="292.949248084" cy="366.749963604" fill="rgb(0%,0%,100%)" r="0.7" /><circle cx="290.864072197" cy="368.906520058" fill="rgb(0%,0%,100%)" r="0.7" /><circle cx="288.861163591" cy="371.13979608" fill="rgb(0%,0%,100%)" r="0.7" /><circle cx="286.927510547" cy="373.433354833" fill="rgb(0%,0%,100%)" r="0.7" /><circle cx="285.053882056" cy="375.776235464" fill="rgb(0%,0%,100%)" r="0.7" /><circle cx="283.233846877" cy="378.161000933" fill="rgb(0%,0%,100%)" r="0.7" /><circle cx="281.463369237" cy="380.58280301" fill="rgb(0%,0%,100%)" r="0.7" /><circle cx="279.741254879" cy="383.039239176" fill="rgb(0%,0%,100%)" r="0.7" /><circle cx="278.07369111" cy="385.53298089" fill="rgb(0%,0%,100%)" r="0.7" /><circle cx="276.484370637" cy="388.077344237" fill="rgb(0%,0%,100%)" r="0.7" /><circle cx="274.935051505" cy="390.646274745" fill="rgb(0%,0%,100%)" r="0.7" /><circle cx="273.427103636" cy="393.239708685" fill="rgb(0%,0%,100%)" r="0.7" /><circle cx="271.963231344" cy="395.858269748" fill="rgb(0%,0%,100%)" r="0.7" /><circle cx="270.546505485" cy="398.502627115" fill="rgb(0%,0%,100%)" r="0.7" /><circle cx="269.180454887" cy="401.173510003" fill="rgb(0%,0%,100%)" r="0.7" /><circle cx="267.869207471" cy="403.871705627" fill="rgb(0%,0%,100%)" r="0.7" /><circle cx="266.617670532" cy="406.598113017" fill="rgb(0%,0%,100%)" r="0.7" /><circle cx="265.431863999" cy="409.353718228" fill="rgb(0%,0%,100%)" r="0.7" /><circle cx="264.319396943" cy="412.139728767" fill="rgb(0%,0%,100%)" r="0.7" /><circle cx="263.29043991" cy="414.95761708" fill="rgb(0%,0%,100%)" r="0.7" /><circle cx="262.359723176" cy="417.809396875" fill="rgb(0%,0%,100%)" r="0.7" /><circle cx="261.55208559" cy="420.698332898" fill="rgb(0%,0%,100%)" r="0.7" /><circle cx="260.935" cy="423.633" fill="rgb(0%,0%,100%)" r="0.7" /></svg>