<?xml version="1.0" encoding="utf-8" ?>
<svg baseProfile="full" height="100%" version="1.1" width="100%" xmlns="http://www.w3.org/2000/svg" xmlns:ev="http://www.w3.org/2001/xml-events" xmlns:xlink="http://www.w3.org/1999/xlink"><defs /><circle cx="231.433228175" cy="299.671522892" fill="rgb(100%,0%,0%)" r="0.7" /><circle cx="228.469361051" cy="300.113831568" fill="rgb(100%,0%,0%)" r="0.7" /><circle cx="225.60099118" cy="300.985296718" fill="rgb(100%,0%,0%)" r="0.7" /><circle cx="222.854019282" cy="302.187667648" fill="rgb(100%,0%,0%)" r="0.7" /><circle cx="220.173408557" cy="303.527009821" fill="rgb(100%,0%,0%)" r="0.7" /><circle cx="217.681983783" cy="305.195654731" fill="rgb(100%,0%,0%)" r="0.7" /><circle cx="215.366835751" cy="307.101865124" fill="rgb(100%,0%,0%)" r="0.7" /><circle cx="213.229315617" cy="309.20557734" fill="rgb(100%,0%,0%)" r="0.7" /><circle cx="211.271297586" cy="311.477461824" fill="rgb(100%,0%,0%)" r="0.7" /><circle cx="209.492972152" cy="313.892710379" fill="rgb(100%,0%,0%)" r="0.7" /><circle cx="207.892322108" cy="316.429303521" fill="rgb(100%,0%,0%)" r="0.7" /><circle cx="206.465194988" cy="319.067521903" fill="rgb(100%,0%,0%)" r="0.7" /><circle cx="205.121038446" cy="321.745584417" fill="rgb(100%,0%,0%)" r="0.7" /><circle cx="203.922344403" cy="324.492547523" fill="rgb(100%,0%,0%)" r="0.7" /><circle cx="203.036507883" cy="327.357841517" fill="rgb(100%,0%,0%)" r="0.7" /><circle cx="202.357683081" cy="330.279557742" fill="rgb(100%,0%,0%)" r="0.7" /><circle cx="201.837231742" cy="333.233778823" fill="rgb(100%,0%,0%)" r="0.7" /><circle cx="201.44533073" cy="336.207870218" fill="rgb(100%,0%,0%)" r="0.7" /><circle cx="201.161439357" cy="339.194267089" fill="rgb(100%,0%,0%)" r="0.7" /><circle cx="200.970442438" cy="342.188077312" fill="rgb(100%,0%,0%)" r="0.7" /><circle cx="200.857361726" cy="345.185892738" fill="rgb(100%,0%,0%)" r="0.7" /><circle cx="200.792504081" cy="348.185171059" fill="rgb(100%,0%,0%)" r="0.7" /><circle cx="200.764396479" cy="351.185021753" fill="rgb(100%,0%,0%)" r="0.7" /><circle cx="200.77556441" cy="354.184978153" fill="rgb(100%,0%,0%)" r="0.7" /><circle cx="200.833828462" cy="357.184374347" fill="rgb(100%,0%,0%)" r="0.7" /><circle cx="200.953486212" cy="360.181915805" fill="rgb(100%,0%,0%)" r="0.7" /><circle cx="201.161485092" cy="363.174531856" fill="rgb(100%,0%,0%)" r="0.7" /><circle cx="201.681333738" cy="366.128389184" fill="rgb(100%,0%,0%)" r="0.7" /><circle cx="202.249694614" cy="369.074043069" fill="rgb(100%,0%,0%)" r="0.7" /><circle cx="202.845130266" cy="372.014352476" fill="rgb(100%,0%,0%)" r="0.7" /><circle cx="203.467319952" cy="374.949112603" fill="rgb(100%,0%,0%)" r="0.7" /><circle cx="204.117486523" cy="377.877801848" fill="rgb(100%,0%,0%)" r="0.7" /><circle cx="204.797898999" cy="380.799608874" fill="rgb(100%,0%,0%)" r="0.7" /><circle cx="205.51186105" cy="383.713396443" fill="rgb(100%,0%,0%)" r="0.7" /><circle cx="206.263917172" cy="386.617577544" fill="rgb(100%,0%,0%)" r="0.7" /><circle cx="207.060281434" cy="389.509913068" fill="rgb(100%,0%,0%)" r="0.7" /><circle cx="207.909590766" cy="392.387128543" fill="rgb(100%,0%,0%)" r="0.7" /><circle cx="208.824255881" cy="395.244204608" fill="rgb(100%,0%,0%)" r="0.7" /><circle cx="209.823034349" cy="398.072913133" fill="rgb(100%,0%,0%)" r="0.7" /><circle cx="210.952414354" cy="400.851514888" fill="rgb(100%,0%,0%)" r="0.7" /><circle cx="212.165321259" cy="403.595374451" fill="rgb(100%,0%,0%)" r="0.7" /><circle cx="213.391818728" cy="406.333202434" fill="rgb(100%,0%,0%)" r="0.7" /><circle cx="214.631624517" cy="409.065033745" fill="rgb(100%,0%,0%)" r="0.7" /><circle cx="215.885812593" cy="411.790283415" fill="rgb(100%,0%,0%)" r="0.7" /><circle cx="217.156393989" cy="414.507930415" fill="rgb(100%,0%,0%)" r="0.7" /><circle cx="218.446490292" cy="417.216364725" fill="rgb(100%,0%,0%)" r="0.7" /><circle cx="219.760924394" cy="419.913066657" fill="rgb(100%,0%,0%)" r="0.7" /><circle cx="221.107521863" cy="422.593837372" fill="rgb(100%,0%,0%)" r="0.7" /><circle cx="222.500309736" cy="425.25086419" fill="rgb(100%,0%,0%)" r="0.7" /><circle cx="223.969404441" cy="427.866329124" fill="rgb(100%,0%,0%)" r="0.7" /><circle cx="225.611781406" cy="430.37479502" fill="rgb(100%,0%,0%)" r="0.7" /><circle cx="231.433228175" cy="299.671522892" fill="rgb(0%,0%,100%)" r="0.7" /><circle cx="234.426942872" cy="299.765444776" fill="rgb(0%,0%,100%)" r="0.7" /><circle cx="237.332391234" cy="300.486403887" fill="rgb(0%,0%,100%)" r="0.7" /><circle cx="239.974402376" cy="301.888585754" fill="rgb(0%,0%,100%)" r="0.7" /><circle cx="242.223783999" cy="303.869871557" fill="rgb(0%,0%,100%)" r="0.7" /><circle cx="244.182308516" cy="306.139439924" fill="rgb(0%,0%,100%)" r="0.7" /><circle cx="245.857800994" cy="308.626260056" fill="rgb(0%,0%,100%)" r="0.7" /><circle cx="247.28850823" cy="311.262080844" fill="rgb(0%,0%,100%)" r="0.7" /><circle cx="248.509169559" cy="314.001825403" fill="rgb(0%,0%,100%)" r="0.7" /><circle cx="249.54751876" cy="316.815906963" fill="rgb(0%,0%,100%)" r="0.7" /><circle cx="250.423484735" cy="319.684794446" fill="rgb(0%,0%,100%)" r="0.7" /><circle cx="251.147795983" cy="322.595697103" fill="rgb(0%,0%,100%)" r="0.7" /><circle cx="251.710862698" cy="325.541892515" fill="rgb(0%,0%,100%)" r="0.7" /><circle cx="252.073644338" cy="328.51372206" fill="rgb(0%,0%,100%)" r="0.7" /><circle cx="251.633169161" cy="331.469816965" fill="rgb(0%,0%,100%)" r="0.7" /><circle cx="250.339774384" cy="334.165102347" fill="rgb(0%,0%,100%)" r="0.7" /><circle cx="248.392216505" cy="336.4382784" fill="rgb(0%,0%,100%)" r="0.7" /><circle cx="246.029992354" cy="338.281598313" fill="rgb(0%,0%,100%)" r="0.7" /><circle cx="243.41715457" cy="339.751326397" fill="rgb(0%,0%,100%)" r="0.7" /><circle cx="240.647195295" cy="340.899513846" fill="rgb(0%,0%,100%)" r="0.7" /><circle cx="237.771052264" cy="341.747700848" fill="rgb(0%,0%,100%)" r="0.7" /><circle cx="234.857107829" cy="342.440416175" fill="rgb(0%,0%,100%)" r="0.7" /><circle cx="232.329326904" cy="344.028910853" fill="rgb(0%,0%,100%)" r="0.7" /><circle cx="230.303318045" cy="346.234433514" fill="rgb(0%,0%,100%)" r="0.7" /><circle cx="228.662136799" cy="348.743132956" fill="rgb(0%,0%,100%)" r="0.7" /><circle cx="227.314419581" cy="351.421993269" fill="rgb(0%,0%,100%)" r="0.7" /><circle cx="226.383198717" cy="354.255572247" fill="rgb(0%,0%,100%)" r="0.7" /><circle cx="226.147964114" cy="357.245296438" fill="rgb(0%,0%,100%)" r="0.7" /><circle cx="226.163255169" cy="360.244521598" fill="rgb(0%,0%,100%)" r="0.7" /><circle cx="226.389249414" cy="363.235479163" fill="rgb(0%,0%,100%)" r="0.7" /><circle cx="226.792746987" cy="366.207841054" fill="rgb(0%,0%,100%)" r="0.7" /><circle cx="227.346725785" cy="369.155969923" fill="rgb(0%,0%,100%)" r="0.7" /><circle cx="228.029370959" cy="372.07705683" fill="rgb(0%,0%,100%)" r="0.7" /><circle cx="228.823073027" cy="374.969992411" fill="rgb(0%,0%,100%)" r="0.7" /><circle cx="229.713555491" cy="377.834656113" fill="rgb(0%,0%,100%)" r="0.7" /><circle cx="230.689170091" cy="380.671483443" fill="rgb(0%,0%,100%)" r="0.7" /><circle cx="231.740347809" cy="383.481207283" fill="rgb(0%,0%,100%)" r="0.7" /><circle cx="232.859176063" cy="386.264699047" fill="rgb(0%,0%,100%)" r="0.7" /><circle cx="234.039074744" cy="389.022869921" fill="rgb(0%,0%,100%)" r="0.7" /><circle cx="235.274550536" cy="391.756612319" fill="rgb(0%,0%,100%)" r="0.7" /><circle cx="236.561001697" cy="394.46674326" fill="rgb(0%,0%,100%)" r="0.7" /><circle cx="237.894587886" cy="397.15399868" fill="rgb(0%,0%,100%)" r="0.7" /><circle cx="239.272123264" cy="399.818996214" fill="rgb(0%,0%,100%)" r="0.7" /><circle cx="240.691011705" cy="402.462210745" fill="rgb(0%,0%,100%)" r="0.7" /><circle cx="242.149219976" cy="405.083939897" fill="rgb(0%,0%,100%)" r="0.7" /><circle cx="243.645304757" cy="407.684252333" fill="rgb(0%,0%,100%)" r="0.7" /><circle cx="245.178500487" cy="410.262839609" fill="rgb(0%,0%,100%)" r="0.7" /><circle cx="246.749063154" cy="412.818834221" fill="rgb(0%,0%,100%)" r="0.7" /><circle cx="248.359218742" cy="415.350109038" fill="rgb(0%,0%,100%)" r="0.7" /><circle cx="250.019" cy="417.849" fill="rgb(0%,0%,100%)" r="0.7" /><circle cx="248.020881681" cy="417.975992455" fill="rgb(0%,0%,100%)" r="0.7" /><circle cx="245.026922438" cy="418.166276599" fill="rgb(0%,0%,100%)" r="0.7" /><circle cx="242.032963196" cy="418.356560744" fill="rgb(0%,0%,100%)" r="0.7" /><circle cx="239.039003954" cy="418.546844888" fill="rgb(0%,0%,100%)" r="0.7" /><circle cx="236.045044712" cy="418.737129032" fill="rgb(0%,0%,100%)" r="0.7" /><circle cx="233.051085469" cy="418.927413177" fill="rgb(0%,0%,100%)" r="0.7" /><circle cx="230.057126227" cy="419.117697321" fill="rgb(0%,0%,100%)" r="0.7" /><circle cx="228.006845686" cy="420.342609305" fill="rgb(0%,0%,100%)" r="0.7" /><circle cx="227.542660843" cy="423.306480495" fill="rgb(0%,0%,100%)" r="0.7" /><circle cx="227.078476001" cy="426.270351686" fill="rgb(0%,0%,100%)" r="0.7" /><circle cx="226.614291158" cy="429.234222876" fill="rgb(0%,0%,100%)" r="0.7" /><circle cx="225.611781406" cy="430.37479502" fill="rgb(0%,0%,100%)" r="0.7" /></svg>