<?xml version="1.0" encoding="utf-8" ?>
<svg baseProfile="full" height="100%" version="1.1" width="100%" xmlns="http://www.w3.org/2000/svg" xmlns:ev="http://www.w3.org/2001/xml-events" xmlns:xlink="http://www.w3.org/1999/xlink"><defs /><circle cx="317.573454922" cy="319.615982348" fill="rgb(100%,0%,0%)" r="0.7" /><circle cx="314.62041083" cy="320.115621627" fill="rgb(100%,0%,0%)" r="0.7" /><circle cx="311.848806458" cy="321.245260859" fill="rgb(100%,0%,0%)" r="0.7" /><circle cx="309.469718004" cy="323.05291196" fill="rgb(100%,0%,0%)" r="0.7" /><circle cx="307.697401123" cy="325.462458316" fill="rgb(100%,0%,0%)" r="0.7" /><circle cx="306.619112398" cy="328.25266203" fill="rgb(100%,0%,0%)" r="0.7" /><circle cx="306.275018901" cy="331.225641238" fill="rgb(100%,0%,0%)" r="0.7" /><circle cx="306.583275449" cy="334.204939728" fill="rgb(100%,0%,0%)" r="0.7" /><circle cx="307.19898397" cy="337.138598387" fill="rgb(100%,0%,0%)" r="0.7" /><circle cx="308.100205416" cy="339.998941854" fill="rgb(100%,0%,0%)" r="0.7" /><circle cx="309.201882961" cy="342.78891893" fill="rgb(100%,0%,0%)" r="0.7" /><circle cx="310.435093235" cy="345.523501427" fill="rgb(100%,0%,0%)" r="0.7" /><circle cx="311.766288883" cy="348.211835477" fill="rgb(100%,0%,0%)" r="0.7" /><circle cx="313.175212618" cy="350.860311399" fill="rgb(100%,0%,0%)" r="0.7" /><circle cx="314.64823442" cy="353.473702869" fill="rgb(100%,0%,0%)" r="0.7" /><circle cx="316.183284358" cy="356.050868494" fill="rgb(100%,0%,0%)" r="0.7" /><circle cx="317.520961451" cy="358.732737241" fill="rgb(100%,0%,0%)" r="0.7" /><circle cx="318.551239842" cy="361.549307348" fill="rgb(100%,0%,0%)" r="0.7" /><circle cx="319.371395802" cy="364.434482085" fill="rgb(100%,0%,0%)" r="0.7" /><circle cx="320.02343571" cy="367.362422198" fill="rgb(100%,0%,0%)" r="0.7" /><circle cx="320.533762795" cy="370.318445258" fill="rgb(100%,0%,0%)" r="0.7" /><circle cx="320.921254954" cy="373.293130743" fill="rgb(100%,0%,0%)" r="0.7" /><circle cx="321.200343429" cy="376.279967086" fill="rgb(100%,0%,0%)" r="0.7" /><circle cx="321.382537319" cy="379.274308707" fill="rgb(100%,0%,0%)" r="0.7" /><circle cx="321.477275852" cy="382.272726365" fill="rgb(100%,0%,0%)" r="0.7" /><circle cx="321.492463471" cy="385.272596425" fill="rgb(100%,0%,0%)" r="0.7" /><circle cx="321.434826727" cy="388.271983774" fill="rgb(100%,0%,0%)" r="0.7" /><circle cx="321.310162061" cy="391.269325084" fill="rgb(100%,0%,0%)" r="0.7" /><circle cx="321.123514634" cy="394.263462108" fill="rgb(100%,0%,0%)" r="0.7" /><circle cx="320.879315509" cy="397.253468437" fill="rgb(100%,0%,0%)" r="0.7" /><circle cx="320.581486385" cy="400.238608943" fill="rgb(100%,0%,0%)" r="0.7" /><circle cx="320.669668322" cy="402.183190315" fill="rgb(100%,0%,0%)" r="0.7" /><circle cx="322.543817936" cy="399.840635465" fill="rgb(100%,0%,0%)" r="0.7" /><circle cx="324.417967551" cy="397.498080616" fill="rgb(100%,0%,0%)" r="0.7" /><circle cx="326.292117165" cy="395.155525766" fill="rgb(100%,0%,0%)" r="0.7" /><circle cx="328.454784655" cy="394.410293774" fill="rgb(100%,0%,0%)" r="0.7" /><circle cx="331.030021986" cy="395.949174111" fill="rgb(100%,0%,0%)" r="0.7" /><circle cx="333.605259316" cy="397.488054448" fill="rgb(100%,0%,0%)" r="0.7" /><circle cx="336.180496647" cy="399.026934784" fill="rgb(100%,0%,0%)" r="0.7" /><circle cx="338.755733977" cy="400.565815121" fill="rgb(100%,0%,0%)" r="0.7" /><circle cx="341.330971308" cy="402.104695458" fill="rgb(100%,0%,0%)" r="0.7" /><circle cx="343.906208638" cy="403.643575795" fill="rgb(100%,0%,0%)" r="0.7" /><circle cx="345.572" cy="404.639" fill="rgb(100%,0%,0%)" r="0.7" /><circle cx="317.573454922" cy="319.615982348" fill="rgb(0%,0%,100%)" r="0.7" /><circle cx="320.570105516" cy="319.649848885" fill="rgb(0%,0%,100%)" r="0.7" /><circle cx="323.532583562" cy="320.10964948" fill="rgb(0%,0%,100%)" r="0.7" /><circle cx="326.419787316" cy="320.918663637" fill="rgb(0%,0%,100%)" r="0.7" /><circle cx="329.158734671" cy="322.126413737" fill="rgb(0%,0%,100%)" r="0.7" /><circle cx="331.525273463" cy="323.96257686" fill="rgb(0%,0%,100%)" r="0.7" /><circle cx="333.59994838" cy="326.127315983" fill="rgb(0%,0%,100%)" r="0.7" /><circle cx="335.389472498" cy="328.530024775" fill="rgb(0%,0%,100%)" r="0.7" /><circle cx="336.902183359" cy="331.120153694" fill="rgb(0%,0%,100%)" r="0.7" /><circle cx="338.259567021" cy="333.795071619" fill="rgb(0%,0%,100%)" r="0.7" /><circle cx="339.474367537" cy="336.537777957" fill="rgb(0%,0%,100%)" r="0.7" /><circle cx="340.558885469" cy="339.334620173" fill="rgb(0%,0%,100%)" r="0.7" /><circle cx="341.524579224" cy="342.174735933" fill="rgb(0%,0%,100%)" r="0.7" /><circle cx="342.381868658" cy="345.049464636" fill="rgb(0%,0%,100%)" r="0.7" /><circle cx="343.140110272" cy="347.951925234" fill="rgb(0%,0%,100%)" r="0.7" /><circle cx="343.807625353" cy="350.876607919" fill="rgb(0%,0%,100%)" r="0.7" /><circle cx="344.391781521" cy="353.819092407" fill="rgb(0%,0%,100%)" r="0.7" /><circle cx="344.899082448" cy="356.775811082" fill="rgb(0%,0%,100%)" r="0.7" /><circle cx="345.33525991" cy="359.743866905" fill="rgb(0%,0%,100%)" r="0.7" /><circle cx="345.705360515" cy="362.720893749" fill="rgb(0%,0%,100%)" r="0.7" /><circle cx="346.013823033" cy="365.704945526" fill="rgb(0%,0%,100%)" r="0.7" /><circle cx="346.26454511" cy="368.694403167" fill="rgb(0%,0%,100%)" r="0.7" /><circle cx="346.460941674" cy="371.687929154" fill="rgb(0%,0%,100%)" r="0.7" /><circle cx="346.605988454" cy="374.684392577" fill="rgb(0%,0%,100%)" r="0.7" /><circle cx="346.702256778" cy="377.682809637" fill="rgb(0%,0%,100%)" r="0.7" /><circle cx="346.751938546" cy="380.682375315" fill="rgb(0%,0%,100%)" r="0.7" /><circle cx="346.756851841" cy="383.682349467" fill="rgb(0%,0%,100%)" r="0.7" /><circle cx="346.718432647" cy="386.682079473" fill="rgb(0%,0%,100%)" r="0.7" /><circle cx="346.637695717" cy="389.680967611" fill="rgb(0%,0%,100%)" r="0.7" /><circle cx="346.515146143" cy="392.67844393" fill="rgb(0%,0%,100%)" r="0.7" /><circle cx="346.350591671" cy="395.673903513" fill="rgb(0%,0%,100%)" r="0.7" /><circle cx="346.142704749" cy="398.666668837" fill="rgb(0%,0%,100%)" r="0.7" /><circle cx="345.887764308" cy="401.655765164" fill="rgb(0%,0%,100%)" r="0.7" /><circle cx="345.572" cy="404.639" fill="rgb(0%,0%,100%)" r="0.7" /></svg>