<?xml version="1.0" encoding="utf-8" ?>
<svg baseProfile="full" height="100%" version="1.1" width="100%" xmlns="http://www.w3.org/2000/svg" xmlns:ev="http://www.w3.org/2001/xml-events" xmlns:xlink="http://www.w3.org/1999/xlink"><defs /><circle cx="289.438710651" cy="338.37841752" fill="rgb(100%,0%,0%)" r="0.7" /><circle cx="286.440637941" cy="338.403643117" fill="rgb(100%,0%,0%)" r="0.7" /><circle cx="283.468608532" cy="338.797558971" fill="rgb(100%,0%,0%)" r="0.7" /><circle cx="280.570725938" cy="339.565623751" fill="rgb(100%,0%,0%)" r="0.7" /><circle cx="277.794603444" cy="340.697453806" fill="rgb(100%,0%,0%)" r="0.7" /><circle cx="275.180420997" cy="342.165447528" fill="rgb(100%,0%,0%)" r="0.7" /><circle cx="272.734929425" cy="343.901971296" fill="rgb(100%,0%,0%)" r="0.7" /><circle cx="270.375420281" cy="345.754442645" fill="rgb(100%,0%,0%)" r="0.7" /><circle cx="268.080806902" cy="347.686805486" fill="rgb(100%,0%,0%)" r="0.7" /><circle cx="265.842115918" cy="349.683741107" fill="rgb(100%,0%,0%)" r="0.7" /><circle cx="263.652531897" cy="351.734435026" fill="rgb(100%,0%,0%)" r="0.7" /><circle cx="261.506872488" cy="353.831062462" fill="rgb(100%,0%,0%)" r="0.7" /><circle cx="259.401254384" cy="355.967914318" fill="rgb(100%,0%,0%)" r="0.7" /><circle cx="257.332934992" cy="358.140899728" fill="rgb(100%,0%,0%)" r="0.7" /><circle cx="255.30035379" cy="360.347350803" fill="rgb(100%,0%,0%)" r="0.7" /><circle cx="253.303596898" cy="362.586272735" fill="rgb(100%,0%,0%)" r="0.7" /><circle cx="251.346999135" cy="364.860345786" fill="rgb(100%,0%,0%)" r="0.7" /><circle cx="253.012505388" cy="364.535478732" fill="rgb(100%,0%,0%)" r="0.7" /><circle cx="255.788020166" cy="363.396831413" fill="rgb(100%,0%,0%)" r="0.7" /><circle cx="258.563534943" cy="362.258184094" fill="rgb(100%,0%,0%)" r="0.7" /><circle cx="261.339049721" cy="361.119536774" fill="rgb(100%,0%,0%)" r="0.7" /><circle cx="262.777803792" cy="362.881562014" fill="rgb(100%,0%,0%)" r="0.7" /><circle cx="263.715280152" cy="365.731323069" fill="rgb(100%,0%,0%)" r="0.7" /><circle cx="264.652756513" cy="368.581084125" fill="rgb(100%,0%,0%)" r="0.7" /><circle cx="265.590232873" cy="371.430845181" fill="rgb(100%,0%,0%)" r="0.7" /><circle cx="289.438710651" cy="338.37841752" fill="rgb(0%,0%,100%)" r="0.7" /><circle cx="292.418890701" cy="338.707614185" fill="rgb(0%,0%,100%)" r="0.7" /><circle cx="295.340368077" cy="339.381687379" fill="rgb(0%,0%,100%)" r="0.7" /><circle cx="298.038013821" cy="340.615687708" fill="rgb(0%,0%,100%)" r="0.7" /><circle cx="300.0675207" cy="342.813052729" fill="rgb(0%,0%,100%)" r="0.7" /><circle cx="301.279922269" cy="345.53676673" fill="rgb(0%,0%,100%)" r="0.7" /><circle cx="301.319691126" cy="348.516415852" fill="rgb(0%,0%,100%)" r="0.7" /><circle cx="300.332481933" cy="351.337927279" fill="rgb(0%,0%,100%)" r="0.7" /><circle cx="298.686348577" cy="353.839639819" fill="rgb(0%,0%,100%)" r="0.7" /><circle cx="296.586315787" cy="355.973415004" fill="rgb(0%,0%,100%)" r="0.7" /><circle cx="293.902117934" cy="357.281188604" fill="rgb(0%,0%,100%)" r="0.7" /><circle cx="290.969064632" cy="357.892190497" fill="rgb(0%,0%,100%)" r="0.7" /><circle cx="287.976813726" cy="358.084804297" fill="rgb(0%,0%,100%)" r="0.7" /><circle cx="284.979216821" cy="357.989555935" fill="rgb(0%,0%,100%)" r="0.7" /><circle cx="282.084704299" cy="358.235020423" fill="rgb(0%,0%,100%)" r="0.7" /><circle cx="279.461439648" cy="359.687632297" fill="rgb(0%,0%,100%)" r="0.7" /><circle cx="276.973571383" cy="361.362956336" fill="rgb(0%,0%,100%)" r="0.7" /><circle cx="274.592443192" cy="363.187283474" fill="rgb(0%,0%,100%)" r="0.7" /><circle cx="272.29866245" cy="365.12049019" fill="rgb(0%,0%,100%)" r="0.7" /><circle cx="270.079793571" cy="367.139330004" fill="rgb(0%,0%,100%)" r="0.7" /><circle cx="267.929441901" cy="369.231029796" fill="rgb(0%,0%,100%)" r="0.7" /><circle cx="265.853" cy="371.396" fill="rgb(0%,0%,100%)" r="0.7" /><circle cx="265.590232873" cy="371.430845181" fill="rgb(0%,0%,100%)" r="0.7" /></svg>