<?xml version="1.0" encoding="utf-8" ?>
<svg baseProfile="full" height="100%" version="1.1" width="100%" xmlns="http://www.w3.org/2000/svg" xmlns:ev="http://www.w3.org/2001/xml-events" xmlns:xlink="http://www.w3.org/1999/xlink"><defs /><circle cx="236.359532319" cy="464.234639038" fill="rgb(100%,0%,0%)" r="0.7" /><circle cx="233.965023802" cy="466.018001222" fill="rgb(100%,0%,0%)" r="0.7" /><circle cx="231.961161541" cy="468.248194609" fill="rgb(100%,0%,0%)" r="0.7" /><circle cx="230.169114776" cy="470.653368648" fill="rgb(100%,0%,0%)" r="0.7" /><circle cx="228.519841995" cy="473.158990782" fill="rgb(100%,0%,0%)" r="0.7" /><circle cx="226.976529878" cy="475.731383285" fill="rgb(100%,0%,0%)" r="0.7" /><circle cx="225.516478794" cy="478.352009381" fill="rgb(100%,0%,0%)" r="0.7" /><circle cx="224.124417908" cy="481.009400376" fill="rgb(100%,0%,0%)" r="0.7" /><circle cx="222.768209322" cy="483.685205168" fill="rgb(100%,0%,0%)" r="0.7" /><circle cx="221.512524948" cy="486.409327203" fill="rgb(100%,0%,0%)" r="0.7" /><circle cx="220.406168821" cy="489.197495068" fill="rgb(100%,0%,0%)" r="0.7" /><circle cx="219.455538425" cy="492.042453552" fill="rgb(100%,0%,0%)" r="0.7" /><circle cx="218.683105116" cy="494.940731899" fill="rgb(100%,0%,0%)" r="0.7" /><circle cx="218.124359275" cy="497.887425632" fill="rgb(100%,0%,0%)" r="0.7" /><circle cx="217.830233606" cy="500.871739019" fill="rgb(100%,0%,0%)" r="0.7" /><circle cx="217.870597067" cy="503.869502625" fill="rgb(100%,0%,0%)" r="0.7" /><circle cx="218.334230791" cy="506.830247931" fill="rgb(100%,0%,0%)" r="0.7" /><circle cx="219.314073956" cy="509.660622244" fill="rgb(100%,0%,0%)" r="0.7" /><circle cx="220.863684929" cy="512.222191168" fill="rgb(100%,0%,0%)" r="0.7" /><circle cx="222.964962601" cy="514.350744989" fill="rgb(100%,0%,0%)" r="0.7" /><circle cx="225.261294324" cy="516.281214376" fill="rgb(100%,0%,0%)" r="0.7" /><circle cx="227.530978925" cy="518.242955916" fill="rgb(100%,0%,0%)" r="0.7" /><circle cx="229.775468187" cy="520.233483815" fill="rgb(100%,0%,0%)" r="0.7" /><circle cx="231.993539336" cy="522.253387064" fill="rgb(100%,0%,0%)" r="0.7" /><circle cx="234.182596099" cy="524.304696275" fill="rgb(100%,0%,0%)" r="0.7" /><circle cx="236.338678511" cy="526.390623095" fill="rgb(100%,0%,0%)" r="0.7" /><circle cx="238.456142031" cy="528.515725658" fill="rgb(100%,0%,0%)" r="0.7" /><circle cx="240.526924019" cy="530.686312375" fill="rgb(100%,0%,0%)" r="0.7" /><circle cx="242.539188916" cy="532.911203035" fill="rgb(100%,0%,0%)" r="0.7" /><circle cx="244.474694203" cy="535.203080177" fill="rgb(100%,0%,0%)" r="0.7" /><circle cx="246.303195971" cy="537.580973154" fill="rgb(100%,0%,0%)" r="0.7" /><circle cx="247.968882677" cy="540.075057281" fill="rgb(100%,0%,0%)" r="0.7" /><circle cx="248.924629022" cy="541.099686963" fill="rgb(100%,0%,0%)" r="0.7" /><circle cx="236.359532319" cy="464.234639038" fill="rgb(0%,0%,100%)" r="0.7" /><circle cx="239.306296113" cy="464.439039017" fill="rgb(0%,0%,100%)" r="0.7" /><circle cx="241.272091867" cy="466.537871947" fill="rgb(0%,0%,100%)" r="0.7" /><circle cx="241.179785396" cy="469.50634182" fill="rgb(0%,0%,100%)" r="0.7" /><circle cx="239.894938309" cy="472.167441153" fill="rgb(0%,0%,100%)" r="0.7" /><circle cx="238.049381582" cy="474.532406086" fill="rgb(0%,0%,100%)" r="0.7" /><circle cx="236.288771078" cy="476.961236052" fill="rgb(0%,0%,100%)" r="0.7" /><circle cx="234.624070316" cy="479.456738233" fill="rgb(0%,0%,100%)" r="0.7" /><circle cx="233.068957325" cy="482.021901496" fill="rgb(0%,0%,100%)" r="0.7" /><circle cx="231.641232512" cy="484.659998109" fill="rgb(0%,0%,100%)" r="0.7" /><circle cx="230.365759861" cy="487.374825455" fill="rgb(0%,0%,100%)" r="0.7" /><circle cx="229.282301411" cy="490.171510696" fill="rgb(0%,0%,100%)" r="0.7" /><circle cx="228.485618701" cy="493.061372565" fill="rgb(0%,0%,100%)" r="0.7" /><circle cx="227.632924814" cy="495.935212158" fill="rgb(0%,0%,100%)" r="0.7" /><circle cx="227.036101907" cy="498.873649239" fill="rgb(0%,0%,100%)" r="0.7" /><circle cx="226.81939701" cy="501.863145955" fill="rgb(0%,0%,100%)" r="0.7" /><circle cx="227.106132575" cy="504.844743507" fill="rgb(0%,0%,100%)" r="0.7" /><circle cx="228.045978078" cy="507.684965195" fill="rgb(0%,0%,100%)" r="0.7" /><circle cx="229.87862266" cy="510.001290212" fill="rgb(0%,0%,100%)" r="0.7" /><circle cx="232.427166333" cy="511.583000359" fill="rgb(0%,0%,100%)" r="0.7" /><circle cx="234.876686299" cy="513.314345332" fill="rgb(0%,0%,100%)" r="0.7" /><circle cx="237.233857539" cy="515.169613898" fill="rgb(0%,0%,100%)" r="0.7" /><circle cx="239.505481256" cy="517.128799599" fill="rgb(0%,0%,100%)" r="0.7" /><circle cx="241.697917107" cy="519.176283686" fill="rgb(0%,0%,100%)" r="0.7" /><circle cx="243.816824412" cy="521.299817279" fill="rgb(0%,0%,100%)" r="0.7" /><circle cx="245.867051778" cy="523.489768994" fill="rgb(0%,0%,100%)" r="0.7" /><circle cx="247.852567186" cy="525.738576999" fill="rgb(0%,0%,100%)" r="0.7" /><circle cx="249.776389367" cy="528.04040364" fill="rgb(0%,0%,100%)" r="0.7" /><circle cx="251.640388822" cy="530.390936038" fill="rgb(0%,0%,100%)" r="0.7" /><circle cx="253.444844217" cy="532.787491035" fill="rgb(0%,0%,100%)" r="0.7" /><circle cx="255.18698123" cy="535.229711322" fill="rgb(0%,0%,100%)" r="0.7" /><circle cx="256.852" cy="537.725" fill="rgb(0%,0%,100%)" r="0.7" /><circle cx="256.624235674" cy="537.646888603" fill="rgb(0%,0%,100%)" r="0.7" /><circle cx="253.786477241" cy="536.673684062" fill="rgb(0%,0%,100%)" r="0.7" /><circle cx="250.948718809" cy="535.700479521" fill="rgb(0%,0%,100%)" r="0.7" /><circle cx="248.418168112" cy="535.121100396" fill="rgb(0%,0%,100%)" r="0.7" /><circle cx="248.671398567" cy="538.110393679" fill="rgb(0%,0%,100%)" r="0.7" /><circle cx="248.924629022" cy="541.099686963" fill="rgb(0%,0%,100%)" r="0.7" /></svg>