<?xml version="1.0" encoding="utf-8" ?>
<svg baseProfile="full" height="100%" version="1.1" width="100%" xmlns="http://www.w3.org/2000/svg" xmlns:ev="http://www.w3.org/2001/xml-events" xmlns:xlink="http://www.w3.org/1999/xlink"><defs /><circle cx="309.63196111" cy="279.180697861" fill="rgb(100%,0%,0%)" r="0.7" /><circle cx="306.71548959" cy="279.865862321" fill="rgb(100%,0%,0%)" r="0.7" /><circle cx="303.991738862" cy="281.069415023" fill="rgb(100%,0%,0%)" r="0.7" /><circle cx="302.409067942" cy="283.572236535" fill="rgb(100%,0%,0%)" r="0.7" /><circle cx="301.943157376" cy="286.525728856" fill="rgb(100%,0%,0%)" r="0.7" /><circle cx="302.108134282" cy="289.518149156" fill="rgb(100%,0%,0%)" r="0.7" /><circle cx="302.641963311" cy="292.469051148" fill="rgb(100%,0%,0%)" r="0.7" /><circle cx="303.415074825" cy="295.367127225" fill="rgb(100%,0%,0%)" r="0.7" /><circle cx="304.41282894" cy="298.196001118" fill="rgb(100%,0%,0%)" r="0.7" /><circle cx="305.31169062" cy="301.058081039" fill="rgb(100%,0%,0%)" r="0.7" /><circle cx="306.131745262" cy="303.943727794" fill="rgb(100%,0%,0%)" r="0.7" /><circle cx="306.878879429" cy="306.849127649" fill="rgb(100%,0%,0%)" r="0.7" /><circle cx="307.555089128" cy="309.771851366" fill="rgb(100%,0%,0%)" r="0.7" /><circle cx="308.160576081" cy="312.710040032" fill="rgb(100%,0%,0%)" r="0.7" /><circle cx="308.694473877" cy="315.662073936" fill="rgb(100%,0%,0%)" r="0.7" /><circle cx="309.155176507" cy="318.626410406" fill="rgb(100%,0%,0%)" r="0.7" /><circle cx="309.540509409" cy="321.601484141" fill="rgb(100%,0%,0%)" r="0.7" /><circle cx="309.847825857" cy="324.585610744" fill="rgb(100%,0%,0%)" r="0.7" /><circle cx="310.074075402" cy="327.576970106" fill="rgb(100%,0%,0%)" r="0.7" /><circle cx="310.215844591" cy="330.573515802" fill="rgb(100%,0%,0%)" r="0.7" /><circle cx="310.26939642" cy="333.572929386" fill="rgb(100%,0%,0%)" r="0.7" /><circle cx="310.23070868" cy="336.572555054" fill="rgb(100%,0%,0%)" r="0.7" /><circle cx="310.095517238" cy="339.569373035" fill="rgb(100%,0%,0%)" r="0.7" /><circle cx="309.8593692" cy="342.559914538" fill="rgb(100%,0%,0%)" r="0.7" /><circle cx="309.517689208" cy="345.540232279" fill="rgb(100%,0%,0%)" r="0.7" /><circle cx="309.065866809" cy="348.505828096" fill="rgb(100%,0%,0%)" r="0.7" /><circle cx="308.499356814" cy="351.45165447" fill="rgb(100%,0%,0%)" r="0.7" /><circle cx="307.813812207" cy="354.372055027" fill="rgb(100%,0%,0%)" r="0.7" /><circle cx="307.005229995" cy="357.260790031" fill="rgb(100%,0%,0%)" r="0.7" /><circle cx="306.070118617" cy="360.111066329" fill="rgb(100%,0%,0%)" r="0.7" /><circle cx="305.005684364" cy="362.915588347" fill="rgb(100%,0%,0%)" r="0.7" /><circle cx="303.810002265" cy="365.666701042" fill="rgb(100%,0%,0%)" r="0.7" /><circle cx="302.482193365" cy="368.356519709" fill="rgb(100%,0%,0%)" r="0.7" /><circle cx="301.022565508" cy="370.977127029" fill="rgb(100%,0%,0%)" r="0.7" /><circle cx="302.792509687" cy="369.700130862" fill="rgb(100%,0%,0%)" r="0.7" /><circle cx="305.105486757" cy="367.78959767" fill="rgb(100%,0%,0%)" r="0.7" /><circle cx="307.418463826" cy="365.879064479" fill="rgb(100%,0%,0%)" r="0.7" /><circle cx="308.950130031" cy="366.825570454" fill="rgb(100%,0%,0%)" r="0.7" /><circle cx="309.968992812" cy="369.64725765" fill="rgb(100%,0%,0%)" r="0.7" /><circle cx="310.987855594" cy="372.468944846" fill="rgb(100%,0%,0%)" r="0.7" /><circle cx="312.006718376" cy="375.290632042" fill="rgb(100%,0%,0%)" r="0.7" /><circle cx="312.59" cy="376.906" fill="rgb(100%,0%,0%)" r="0.7" /><circle cx="309.63196111" cy="279.180697861" fill="rgb(0%,0%,100%)" r="0.7" /><circle cx="312.619481523" cy="279.212490994" fill="rgb(0%,0%,100%)" r="0.7" /><circle cx="315.322523506" cy="280.434718265" fill="rgb(0%,0%,100%)" r="0.7" /><circle cx="316.852716206" cy="282.953193021" fill="rgb(0%,0%,100%)" r="0.7" /><circle cx="317.778454291" cy="285.80669527" fill="rgb(0%,0%,100%)" r="0.7" /><circle cx="318.629677924" cy="288.683307892" fill="rgb(0%,0%,100%)" r="0.7" /><circle cx="319.406393812" cy="291.580932048" fill="rgb(0%,0%,100%)" r="0.7" /><circle cx="320.108766202" cy="294.49746647" fill="rgb(0%,0%,100%)" r="0.7" /><circle cx="320.737115151" cy="297.430852123" fill="rgb(0%,0%,100%)" r="0.7" /><circle cx="321.291892352" cy="300.37902478" fill="rgb(0%,0%,100%)" r="0.7" /><circle cx="321.773685744" cy="303.340005465" fill="rgb(0%,0%,100%)" r="0.7" /><circle cx="322.183194024" cy="306.311854077" fill="rgb(0%,0%,100%)" r="0.7" /><circle cx="322.521215274" cy="309.29268518" fill="rgb(0%,0%,100%)" r="0.7" /><circle cx="322.788632782" cy="312.280668765" fill="rgb(0%,0%,100%)" r="0.7" /><circle cx="322.986403755" cy="315.274074304" fill="rgb(0%,0%,100%)" r="0.7" /><circle cx="323.11553998" cy="318.271235433" fill="rgb(0%,0%,100%)" r="0.7" /><circle cx="323.177094059" cy="321.270535375" fill="rgb(0%,0%,100%)" r="0.7" /><circle cx="323.172146753" cy="324.27047364" fill="rgb(0%,0%,100%)" r="0.7" /><circle cx="323.101790496" cy="327.269590197" fill="rgb(0%,0%,100%)" r="0.7" /><circle cx="322.967116061" cy="330.266508016" fill="rgb(0%,0%,100%)" r="0.7" /><circle cx="322.769197725" cy="333.259916445" fill="rgb(0%,0%,100%)" r="0.7" /><circle cx="322.509078176" cy="336.248569537" fill="rgb(0%,0%,100%)" r="0.7" /><circle cx="322.187755499" cy="339.231255822" fill="rgb(0%,0%,100%)" r="0.7" /><circle cx="321.806162438" cy="342.206834492" fill="rgb(0%,0%,100%)" r="0.7" /><circle cx="321.365148823" cy="345.174202526" fill="rgb(0%,0%,100%)" r="0.7" /><circle cx="320.865465636" cy="348.132247921" fill="rgb(0%,0%,100%)" r="0.7" /><circle cx="320.307729336" cy="351.07989384" fill="rgb(0%,0%,100%)" r="0.7" /><circle cx="319.692386165" cy="354.016068078" fill="rgb(0%,0%,100%)" r="0.7" /><circle cx="319.019675925" cy="356.939617954" fill="rgb(0%,0%,100%)" r="0.7" /><circle cx="318.289541552" cy="359.849363951" fill="rgb(0%,0%,100%)" r="0.7" /><circle cx="317.501537907" cy="362.743956641" fill="rgb(0%,0%,100%)" r="0.7" /><circle cx="316.654616369" cy="365.621893089" fill="rgb(0%,0%,100%)" r="0.7" /><circle cx="315.746828204" cy="368.481169062" fill="rgb(0%,0%,100%)" r="0.7" /><circle cx="314.774493671" cy="371.319176991" fill="rgb(0%,0%,100%)" r="0.7" /><circle cx="313.730179381" cy="374.131436171" fill="rgb(0%,0%,100%)" r="0.7" /><circle cx="312.59" cy="376.906" fill="rgb(0%,0%,100%)" r="0.7" /></svg>