<?xml version="1.0" encoding="utf-8" ?>
<svg baseProfile="full" height="100%" version="1.1" width="100%" xmlns="http://www.w3.org/2000/svg" xmlns:ev="http://www.w3.org/2001/xml-events" xmlns:xlink="http://www.w3.org/1999/xlink"><defs /><circle cx="287.46046565" cy="324.550534647" fill="rgb(100%,0%,0%)" r="0.7" /><circle cx="284.562533526" cy="325.285784028" fill="rgb(100%,0%,0%)" r="0.7" /><circle cx="281.895302129" cy="326.650811171" fill="rgb(100%,0%,0%)" r="0.7" /><circle cx="279.548657299" cy="328.500833998" fill="rgb(100%,0%,0%)" r="0.7" /><circle cx="277.800218312" cy="330.930561649" fill="rgb(100%,0%,0%)" r="0.7" /><circle cx="276.574432444" cy="333.664305408" fill="rgb(100%,0%,0%)" r="0.7" /><circle cx="275.804164164" cy="336.561011858" fill="rgb(100%,0%,0%)" r="0.7" /><circle cx="275.419319954" cy="339.534464307" fill="rgb(100%,0%,0%)" r="0.7" /><circle cx="275.354201768" cy="342.532593927" fill="rgb(100%,0%,0%)" r="0.7" /><circle cx="275.302333184" cy="345.530765442" fill="rgb(100%,0%,0%)" r="0.7" /><circle cx="275.006785753" cy="348.515539811" fill="rgb(100%,0%,0%)" r="0.7" /><circle cx="274.497918686" cy="351.471382093" fill="rgb(100%,0%,0%)" r="0.7" /><circle cx="273.761656323" cy="354.37875951" fill="rgb(100%,0%,0%)" r="0.7" /><circle cx="272.77150378" cy="357.209446677" fill="rgb(100%,0%,0%)" r="0.7" /><circle cx="271.494003646" cy="359.922104114" fill="rgb(100%,0%,0%)" r="0.7" /><circle cx="269.894874614" cy="362.457759313" fill="rgb(100%,0%,0%)" r="0.7" /><circle cx="267.95035015" cy="364.738358689" fill="rgb(100%,0%,0%)" r="0.7" /><circle cx="265.535711151" cy="366.498735001" fill="rgb(100%,0%,0%)" r="0.7" /><circle cx="263.985936946" cy="369.004241281" fill="rgb(100%,0%,0%)" r="0.7" /><circle cx="262.024889353" cy="371.274039242" fill="rgb(100%,0%,0%)" r="0.7" /><circle cx="259.930355826" cy="373.420965508" fill="rgb(100%,0%,0%)" r="0.7" /><circle cx="257.646562778" cy="375.363261819" fill="rgb(100%,0%,0%)" r="0.7" /><circle cx="258.364554976" cy="375.395793956" fill="rgb(100%,0%,0%)" r="0.7" /><circle cx="261.179611708" cy="374.358752205" fill="rgb(100%,0%,0%)" r="0.7" /><circle cx="263.99466844" cy="373.321710453" fill="rgb(100%,0%,0%)" r="0.7" /><circle cx="265.334387866" cy="374.248168096" fill="rgb(100%,0%,0%)" r="0.7" /><circle cx="265.121754869" cy="377.240623143" fill="rgb(100%,0%,0%)" r="0.7" /><circle cx="264.909121872" cy="380.23307819" fill="rgb(100%,0%,0%)" r="0.7" /><circle cx="264.838" cy="381.234" fill="rgb(100%,0%,0%)" r="0.7" /><circle cx="287.46046565" cy="324.550534647" fill="rgb(0%,0%,100%)" r="0.7" /><circle cx="290.398609754" cy="324.962038125" fill="rgb(0%,0%,100%)" r="0.7" /><circle cx="292.333302577" cy="327.151818629" fill="rgb(0%,0%,100%)" r="0.7" /><circle cx="292.028455285" cy="330.07192101" fill="rgb(0%,0%,100%)" r="0.7" /><circle cx="290.387173133" cy="332.569397315" fill="rgb(0%,0%,100%)" r="0.7" /><circle cx="288.046951607" cy="334.413971623" fill="rgb(0%,0%,100%)" r="0.7" /><circle cx="286.432093247" cy="336.917966781" fill="rgb(0%,0%,100%)" r="0.7" /><circle cx="285.823945513" cy="339.840171857" fill="rgb(0%,0%,100%)" r="0.7" /><circle cx="285.538428823" cy="342.826314472" fill="rgb(0%,0%,100%)" r="0.7" /><circle cx="285.134591362" cy="345.798811586" fill="rgb(0%,0%,100%)" r="0.7" /><circle cx="284.607808093" cy="348.751967541" fill="rgb(0%,0%,100%)" r="0.7" /><circle cx="283.952687434" cy="351.67930439" fill="rgb(0%,0%,100%)" r="0.7" /><circle cx="283.164169611" cy="354.573535238" fill="rgb(0%,0%,100%)" r="0.7" /><circle cx="282.23766678" cy="357.42657163" fill="rgb(0%,0%,100%)" r="0.7" /><circle cx="281.169217283" cy="360.229506089" fill="rgb(0%,0%,100%)" r="0.7" /><circle cx="279.955603427" cy="362.972681312" fill="rgb(0%,0%,100%)" r="0.7" /><circle cx="278.59446463" cy="365.645682457" fill="rgb(0%,0%,100%)" r="0.7" /><circle cx="277.084312811" cy="368.237395439" fill="rgb(0%,0%,100%)" r="0.7" /><circle cx="275.424512813" cy="370.735873623" fill="rgb(0%,0%,100%)" r="0.7" /><circle cx="273.615054703" cy="373.128139461" fill="rgb(0%,0%,100%)" r="0.7" /><circle cx="271.656083853" cy="375.399522689" fill="rgb(0%,0%,100%)" r="0.7" /><circle cx="269.546846388" cy="377.531963208" fill="rgb(0%,0%,100%)" r="0.7" /><circle cx="267.282742933" cy="379.498920202" fill="rgb(0%,0%,100%)" r="0.7" /><circle cx="264.838" cy="381.234" fill="rgb(0%,0%,100%)" r="0.7" /></svg>