<?xml version="1.0" encoding="utf-8" ?>
<svg baseProfile="full" height="100%" version="1.1" width="100%" xmlns="http://www.w3.org/2000/svg" xmlns:ev="http://www.w3.org/2001/xml-events" xmlns:xlink="http://www.w3.org/1999/xlink"><defs /><circle cx="328.29210954" cy="259.964065305" fill="rgb(100%,0%,0%)" r="0.7" /><circle cx="325.334395185" cy="260.163792744" fill="rgb(100%,0%,0%)" r="0.7" /><circle cx="323.499402341" cy="262.375263977" fill="rgb(100%,0%,0%)" r="0.7" /><circle cx="323.90443433" cy="265.3427904" fill="rgb(100%,0%,0%)" r="0.7" /><circle cx="324.931353477" cy="268.15337382" fill="rgb(100%,0%,0%)" r="0.7" /><circle cx="326.762247617" cy="270.506993858" fill="rgb(100%,0%,0%)" r="0.7" /><circle cx="327.655324388" cy="273.194403654" fill="rgb(100%,0%,0%)" r="0.7" /><circle cx="327.454444425" cy="276.186092534" fill="rgb(100%,0%,0%)" r="0.7" /><circle cx="327.030019002" cy="279.155599118" fill="rgb(100%,0%,0%)" r="0.7" /><circle cx="326.364957626" cy="282.075764942" fill="rgb(100%,0%,0%)" r="0.7" /><circle cx="325.387734337" cy="284.911871685" fill="rgb(100%,0%,0%)" r="0.7" /><circle cx="324.298977686" cy="287.707163459" fill="rgb(100%,0%,0%)" r="0.7" /><circle cx="323.117873348" cy="290.464747745" fill="rgb(100%,0%,0%)" r="0.7" /><circle cx="321.853102525" cy="293.184980695" fill="rgb(100%,0%,0%)" r="0.7" /><circle cx="320.509726784" cy="295.867282833" fill="rgb(100%,0%,0%)" r="0.7" /><circle cx="319.091088687" cy="298.510551675" fill="rgb(100%,0%,0%)" r="0.7" /><circle cx="317.599561677" cy="301.113391618" fill="rgb(100%,0%,0%)" r="0.7" /><circle cx="316.036947685" cy="303.674187648" fill="rgb(100%,0%,0%)" r="0.7" /><circle cx="314.404695681" cy="306.191167791" fill="rgb(100%,0%,0%)" r="0.7" /><circle cx="312.704039032" cy="308.662443884" fill="rgb(100%,0%,0%)" r="0.7" /><circle cx="310.936092662" cy="311.086035636" fill="rgb(100%,0%,0%)" r="0.7" /><circle cx="309.10191688" cy="313.459899677" fill="rgb(100%,0%,0%)" r="0.7" /><circle cx="307.111614865" cy="315.698999479" fill="rgb(100%,0%,0%)" r="0.7" /><circle cx="304.940466414" cy="317.769159308" fill="rgb(100%,0%,0%)" r="0.7" /><circle cx="302.725408142" cy="319.792351182" fill="rgb(100%,0%,0%)" r="0.7" /><circle cx="300.476332632" cy="321.777667124" fill="rgb(100%,0%,0%)" r="0.7" /><circle cx="298.198076866" cy="323.729426399" fill="rgb(100%,0%,0%)" r="0.7" /><circle cx="295.89367711" cy="325.650265262" fill="rgb(100%,0%,0%)" r="0.7" /><circle cx="293.565292079" cy="327.541969591" fill="rgb(100%,0%,0%)" r="0.7" /><circle cx="291.214565851" cy="329.405832656" fill="rgb(100%,0%,0%)" r="0.7" /><circle cx="288.842796843" cy="331.242842984" fill="rgb(100%,0%,0%)" r="0.7" /><circle cx="286.451054247" cy="333.053772958" fill="rgb(100%,0%,0%)" r="0.7" /><circle cx="284.04023293" cy="334.839245967" fill="rgb(100%,0%,0%)" r="0.7" /><circle cx="281.611131852" cy="336.599748797" fill="rgb(100%,0%,0%)" r="0.7" /><circle cx="279.164423318" cy="338.335702266" fill="rgb(100%,0%,0%)" r="0.7" /><circle cx="276.700720356" cy="340.047445533" fill="rgb(100%,0%,0%)" r="0.7" /><circle cx="274.220557641" cy="341.73527405" fill="rgb(100%,0%,0%)" r="0.7" /><circle cx="271.724454701" cy="343.399414433" fill="rgb(100%,0%,0%)" r="0.7" /><circle cx="269.212846489" cy="345.04008524" fill="rgb(100%,0%,0%)" r="0.7" /><circle cx="266.686171393" cy="346.657448802" fill="rgb(100%,0%,0%)" r="0.7" /><circle cx="264.144825537" cy="348.251650352" fill="rgb(100%,0%,0%)" r="0.7" /><circle cx="261.538532645" cy="349.733988607" fill="rgb(100%,0%,0%)" r="0.7" /><circle cx="258.882737485" cy="351.129254256" fill="rgb(100%,0%,0%)" r="0.7" /><circle cx="256.221996763" cy="352.515083356" fill="rgb(100%,0%,0%)" r="0.7" /><circle cx="253.556689961" cy="353.892070317" fill="rgb(100%,0%,0%)" r="0.7" /><circle cx="250.886780676" cy="355.260130312" fill="rgb(100%,0%,0%)" r="0.7" /><circle cx="248.212084734" cy="356.618815315" fill="rgb(100%,0%,0%)" r="0.7" /><circle cx="245.53228988" cy="357.967399216" fill="rgb(100%,0%,0%)" r="0.7" /><circle cx="242.846934017" cy="359.304882679" fill="rgb(100%,0%,0%)" r="0.7" /><circle cx="240.155417389" cy="360.629923002" fill="rgb(100%,0%,0%)" r="0.7" /><circle cx="237.45694621" cy="361.940739576" fill="rgb(100%,0%,0%)" r="0.7" /><circle cx="234.750470321" cy="363.234938184" fill="rgb(100%,0%,0%)" r="0.7" /><circle cx="232.03456069" cy="364.509223225" fill="rgb(100%,0%,0%)" r="0.7" /><circle cx="229.307235754" cy="365.758869965" fill="rgb(100%,0%,0%)" r="0.7" /><circle cx="226.565584015" cy="366.976743265" fill="rgb(100%,0%,0%)" r="0.7" /><circle cx="223.805067579" cy="368.151167746" fill="rgb(100%,0%,0%)" r="0.7" /><circle cx="221.017850073" cy="369.260579695" fill="rgb(100%,0%,0%)" r="0.7" /><circle cx="220.251569031" cy="369.859099053" fill="rgb(100%,0%,0%)" r="0.7" /><circle cx="223.246107666" cy="369.678161592" fill="rgb(100%,0%,0%)" r="0.7" /><circle cx="226.240646301" cy="369.497224132" fill="rgb(100%,0%,0%)" r="0.7" /><circle cx="229.235184936" cy="369.316286671" fill="rgb(100%,0%,0%)" r="0.7" /><circle cx="232.22972357" cy="369.135349211" fill="rgb(100%,0%,0%)" r="0.7" /><circle cx="235.224262205" cy="368.95441175" fill="rgb(100%,0%,0%)" r="0.7" /><circle cx="238.155481602" cy="368.811925589" fill="rgb(100%,0%,0%)" r="0.7" /><circle cx="236.613941405" cy="371.385571607" fill="rgb(100%,0%,0%)" r="0.7" /><circle cx="235.072401208" cy="373.959217624" fill="rgb(100%,0%,0%)" r="0.7" /><circle cx="233.530861012" cy="376.532863641" fill="rgb(100%,0%,0%)" r="0.7" /><circle cx="231.989320815" cy="379.106509659" fill="rgb(100%,0%,0%)" r="0.7" /><circle cx="230.447780619" cy="381.680155676" fill="rgb(100%,0%,0%)" r="0.7" /><circle cx="228.906240422" cy="384.253801693" fill="rgb(100%,0%,0%)" r="0.7" /><circle cx="227.364700225" cy="386.82744771" fill="rgb(100%,0%,0%)" r="0.7" /><circle cx="225.945" cy="389.052" fill="rgb(100%,0%,0%)" r="0.7" /><circle cx="328.29210954" cy="259.964065305" fill="rgb(0%,0%,100%)" r="0.7" /><circle cx="331.170058151" cy="260.788258022" fill="rgb(0%,0%,100%)" r="0.7" /><circle cx="333.883705177" cy="262.061823268" fill="rgb(0%,0%,100%)" r="0.7" /><circle cx="336.713186696" cy="263.056048752" fill="rgb(0%,0%,100%)" r="0.7" /><circle cx="339.639424402" cy="263.649440039" fill="rgb(0%,0%,100%)" r="0.7" /><circle cx="342.477089437" cy="264.595223921" fill="rgb(0%,0%,100%)" r="0.7" /><circle cx="345.072470595" cy="266.094118185" fill="rgb(0%,0%,100%)" r="0.7" /><circle cx="347.459360522" cy="267.90908732" fill="rgb(0%,0%,100%)" r="0.7" /><circle cx="349.291848404" cy="270.213280681" fill="rgb(0%,0%,100%)" r="0.7" /><circle cx="349.806509617" cy="273.145338987" fill="rgb(0%,0%,100%)" r="0.7" /><circle cx="348.992885504" cy="276.007721615" fill="rgb(0%,0%,100%)" r="0.7" /><circle cx="347.170257532" cy="278.374703418" fill="rgb(0%,0%,100%)" r="0.7" /><circle cx="345.040031562" cy="280.463161203" fill="rgb(0%,0%,100%)" r="0.7" /><circle cx="343.388869334" cy="282.96542342" fill="rgb(0%,0%,100%)" r="0.7" /><circle cx="342.022845412" cy="285.635092065" fill="rgb(0%,0%,100%)" r="0.7" /><circle cx="340.89887521" cy="288.41559305" fill="rgb(0%,0%,100%)" r="0.7" /><circle cx="340.233526083" cy="291.333423877" fill="rgb(0%,0%,100%)" r="0.7" /><circle cx="339.117312232" cy="294.097588995" fill="rgb(0%,0%,100%)" r="0.7" /><circle cx="336.846615073" cy="296.016029659" fill="rgb(0%,0%,100%)" r="0.7" /><circle cx="336.44590849" cy="298.650892419" fill="rgb(0%,0%,100%)" r="0.7" /><circle cx="336.219312276" cy="301.401465595" fill="rgb(0%,0%,100%)" r="0.7" /><circle cx="335.075126408" cy="304.093477252" fill="rgb(0%,0%,100%)" r="0.7" /><circle cx="333.797270955" cy="306.805786339" fill="rgb(0%,0%,100%)" r="0.7" /><circle cx="332.28331951" cy="309.395081046" fill="rgb(0%,0%,100%)" r="0.7" /><circle cx="330.646643379" cy="311.908993867" fill="rgb(0%,0%,100%)" r="0.7" /><circle cx="328.925572306" cy="314.365891141" fill="rgb(0%,0%,100%)" r="0.7" /><circle cx="327.123666695" cy="316.764372735" fill="rgb(0%,0%,100%)" r="0.7" /><circle cx="325.275211859" cy="319.127217619" fill="rgb(0%,0%,100%)" r="0.7" /><circle cx="323.395227923" cy="321.465072414" fill="rgb(0%,0%,100%)" r="0.7" /><circle cx="321.491780507" cy="323.783872968" fill="rgb(0%,0%,100%)" r="0.7" /><circle cx="319.569687857" cy="326.087243742" fill="rgb(0%,0%,100%)" r="0.7" /><circle cx="317.631945595" cy="328.37747194" fill="rgb(0%,0%,100%)" r="0.7" /><circle cx="315.680309475" cy="330.655868023" fill="rgb(0%,0%,100%)" r="0.7" /><circle cx="313.715182839" cy="332.922648681" fill="rgb(0%,0%,100%)" r="0.7" /><circle cx="311.682043823" cy="335.12716559" fill="rgb(0%,0%,100%)" r="0.7" /><circle cx="309.543763558" cy="337.231267888" fill="rgb(0%,0%,100%)" r="0.7" /><circle cx="307.355228421" cy="339.283083865" fill="rgb(0%,0%,100%)" r="0.7" /><circle cx="305.125392918" cy="341.289965732" fill="rgb(0%,0%,100%)" r="0.7" /><circle cx="302.86081128" cy="343.257572914" fill="rgb(0%,0%,100%)" r="0.7" /><circle cx="300.566413336" cy="345.190340295" fill="rgb(0%,0%,100%)" r="0.7" /><circle cx="298.245985771" cy="347.091785546" fill="rgb(0%,0%,100%)" r="0.7" /><circle cx="295.902478619" cy="348.964716826" fill="rgb(0%,0%,100%)" r="0.7" /><circle cx="293.538206545" cy="350.811370764" fill="rgb(0%,0%,100%)" r="0.7" /><circle cx="291.154976203" cy="352.633502172" fill="rgb(0%,0%,100%)" r="0.7" /><circle cx="288.754174634" cy="354.432418929" fill="rgb(0%,0%,100%)" r="0.7" /><circle cx="286.336788309" cy="356.208980962" fill="rgb(0%,0%,100%)" r="0.7" /><circle cx="283.903363895" cy="357.963504363" fill="rgb(0%,0%,100%)" r="0.7" /><circle cx="281.453802696" cy="359.695451854" fill="rgb(0%,0%,100%)" r="0.7" /><circle cx="278.986563325" cy="361.4020995" fill="rgb(0%,0%,100%)" r="0.7" /><circle cx="276.518615642" cy="363.10753261" fill="rgb(0%,0%,100%)" r="0.7" /><circle cx="274.041460434" cy="364.799725521" fill="rgb(0%,0%,100%)" r="0.7" /><circle cx="271.538648036" cy="366.453743379" fill="rgb(0%,0%,100%)" r="0.7" /><circle cx="269.011461206" cy="368.070271053" fill="rgb(0%,0%,100%)" r="0.7" /><circle cx="266.461077231" cy="369.649952535" fill="rgb(0%,0%,100%)" r="0.7" /><circle cx="263.888587571" cy="371.193375505" fill="rgb(0%,0%,100%)" r="0.7" /><circle cx="261.294996056" cy="372.701068854" fill="rgb(0%,0%,100%)" r="0.7" /><circle cx="258.681220666" cy="374.173495966" fill="rgb(0%,0%,100%)" r="0.7" /><circle cx="256.048099382" cy="375.61104341" fill="rgb(0%,0%,100%)" r="0.7" /><circle cx="253.396389883" cy="377.014009949" fill="rgb(0%,0%,100%)" r="0.7" /><circle cx="250.726768733" cy="378.382590899" fill="rgb(0%,0%,100%)" r="0.7" /><circle cx="248.039839244" cy="379.716851078" fill="rgb(0%,0%,100%)" r="0.7" /><circle cx="245.336085467" cy="381.016713109" fill="rgb(0%,0%,100%)" r="0.7" /><circle cx="242.615935055" cy="382.281873999" fill="rgb(0%,0%,100%)" r="0.7" /><circle cx="239.879659267" cy="383.511769046" fill="rgb(0%,0%,100%)" r="0.7" /><circle cx="237.12737374" cy="384.705425785" fill="rgb(0%,0%,100%)" r="0.7" /><circle cx="234.35897532" cy="385.861222067" fill="rgb(0%,0%,100%)" r="0.7" /><circle cx="231.573968341" cy="386.97637513" fill="rgb(0%,0%,100%)" r="0.7" /><circle cx="228.770984236" cy="388.045502787" fill="rgb(0%,0%,100%)" r="0.7" /><circle cx="225.945" cy="389.052" fill="rgb(0%,0%,100%)" r="0.7" /></svg>