<?xml version="1.0" encoding="utf-8" ?>
<svg baseProfile="full" height="100%" version="1.1" width="100%" xmlns="http://www.w3.org/2000/svg" xmlns:ev="http://www.w3.org/2001/xml-events" xmlns:xlink="http://www.w3.org/1999/xlink"><defs /><circle cx="310.612732219" cy="344.390561735" fill="rgb(100%,0%,0%)" r="0.7" /><circle cx="307.701466841" cy="344.926190617" fill="rgb(100%,0%,0%)" r="0.7" /><circle cx="305.287518884" cy="346.680773432" fill="rgb(100%,0%,0%)" r="0.7" /><circle cx="303.46165211" cy="349.053137704" fill="rgb(100%,0%,0%)" r="0.7" /><circle cx="302.096379356" cy="351.721449419" fill="rgb(100%,0%,0%)" r="0.7" /><circle cx="301.067047296" cy="354.537948177" fill="rgb(100%,0%,0%)" r="0.7" /><circle cx="300.286680675" cy="357.43396638" fill="rgb(100%,0%,0%)" r="0.7" /><circle cx="299.696956003" cy="360.375011375" fill="rgb(100%,0%,0%)" r="0.7" /><circle cx="299.550999631" cy="363.367332909" fill="rgb(100%,0%,0%)" r="0.7" /><circle cx="299.37156275" cy="366.361819318" fill="rgb(100%,0%,0%)" r="0.7" /><circle cx="299.085823265" cy="369.348003428" fill="rgb(100%,0%,0%)" r="0.7" /><circle cx="298.675393559" cy="372.319520253" fill="rgb(100%,0%,0%)" r="0.7" /><circle cx="298.104412033" cy="375.264175182" fill="rgb(100%,0%,0%)" r="0.7" /><circle cx="297.307247774" cy="378.155153172" fill="rgb(100%,0%,0%)" r="0.7" /><circle cx="296.153406144" cy="380.9206338" fill="rgb(100%,0%,0%)" r="0.7" /><circle cx="294.40702146" cy="383.349319691" fill="rgb(100%,0%,0%)" r="0.7" /><circle cx="292.446926701" cy="385.62044213" fill="rgb(100%,0%,0%)" r="0.7" /><circle cx="290.462776028" cy="387.870555405" fill="rgb(100%,0%,0%)" r="0.7" /><circle cx="288.45714777" cy="390.101569089" fill="rgb(100%,0%,0%)" r="0.7" /><circle cx="286.430552265" cy="392.313552618" fill="rgb(100%,0%,0%)" r="0.7" /><circle cx="284.382657323" cy="394.505820547" fill="rgb(100%,0%,0%)" r="0.7" /><circle cx="282.312587392" cy="396.677166627" fill="rgb(100%,0%,0%)" r="0.7" /><circle cx="280.219036922" cy="398.825878604" fill="rgb(100%,0%,0%)" r="0.7" /><circle cx="278.100259313" cy="400.949711042" fill="rgb(100%,0%,0%)" r="0.7" /><circle cx="275.954015492" cy="403.04578196" fill="rgb(100%,0%,0%)" r="0.7" /><circle cx="273.777493335" cy="405.110382454" fill="rgb(100%,0%,0%)" r="0.7" /><circle cx="271.56714507" cy="407.138715821" fill="rgb(100%,0%,0%)" r="0.7" /><circle cx="269.318475715" cy="409.124459454" fill="rgb(100%,0%,0%)" r="0.7" /><circle cx="267.025711355" cy="411.059081658" fill="rgb(100%,0%,0%)" r="0.7" /><circle cx="264.681286532" cy="412.930710712" fill="rgb(100%,0%,0%)" r="0.7" /><circle cx="262.275081754" cy="414.72211611" fill="rgb(100%,0%,0%)" r="0.7" /><circle cx="259.793225258" cy="416.406906959" fill="rgb(100%,0%,0%)" r="0.7" /><circle cx="257.216256269" cy="417.941699305" fill="rgb(100%,0%,0%)" r="0.7" /><circle cx="254.600467729" cy="419.408727847" fill="rgb(100%,0%,0%)" r="0.7" /><circle cx="252.003636891" cy="420.910890397" fill="rgb(100%,0%,0%)" r="0.7" /><circle cx="249.399060402" cy="422.399584463" fill="rgb(100%,0%,0%)" r="0.7" /><circle cx="246.787466727" cy="423.875912269" fill="rgb(100%,0%,0%)" r="0.7" /><circle cx="244.1690104" cy="425.340036663" fill="rgb(100%,0%,0%)" r="0.7" /><circle cx="241.543608265" cy="426.791689169" fill="rgb(100%,0%,0%)" r="0.7" /><circle cx="238.911052548" cy="428.230293367" fill="rgb(100%,0%,0%)" r="0.7" /><circle cx="236.270962767" cy="429.655044823" fill="rgb(100%,0%,0%)" r="0.7" /><circle cx="233.6228685" cy="431.064862826" fill="rgb(100%,0%,0%)" r="0.7" /><circle cx="230.966161354" cy="432.458377759" fill="rgb(100%,0%,0%)" r="0.7" /><circle cx="228.300077567" cy="433.833867503" fill="rgb(100%,0%,0%)" r="0.7" /><circle cx="225.623672058" cy="435.18915759" fill="rgb(100%,0%,0%)" r="0.7" /><circle cx="222.935760884" cy="436.521479962" fill="rgb(100%,0%,0%)" r="0.7" /><circle cx="220.23485727" cy="437.827246092" fill="rgb(100%,0%,0%)" r="0.7" /><circle cx="217.51904242" cy="439.101706299" fill="rgb(100%,0%,0%)" r="0.7" /><circle cx="214.785814737" cy="440.338364274" fill="rgb(100%,0%,0%)" r="0.7" /><circle cx="212.031806989" cy="441.527976551" fill="rgb(100%,0%,0%)" r="0.7" /><circle cx="209.252320006" cy="442.656658895" fill="rgb(100%,0%,0%)" r="0.7" /><circle cx="206.440471663" cy="443.701924911" fill="rgb(100%,0%,0%)" r="0.7" /><circle cx="203.585736897" cy="444.622990216" fill="rgb(100%,0%,0%)" r="0.7" /><circle cx="205.305653556" cy="444.970510469" fill="rgb(100%,0%,0%)" r="0.7" /><circle cx="208.297659328" cy="445.189374494" fill="rgb(100%,0%,0%)" r="0.7" /><circle cx="211.2896651" cy="445.408238519" fill="rgb(100%,0%,0%)" r="0.7" /><circle cx="214.281670871" cy="445.627102544" fill="rgb(100%,0%,0%)" r="0.7" /><circle cx="217.273676643" cy="445.845966569" fill="rgb(100%,0%,0%)" r="0.7" /><circle cx="220.265682415" cy="446.064830593" fill="rgb(100%,0%,0%)" r="0.7" /><circle cx="223.257688187" cy="446.283694618" fill="rgb(100%,0%,0%)" r="0.7" /><circle cx="226.249693959" cy="446.502558643" fill="rgb(100%,0%,0%)" r="0.7" /><circle cx="226.656179173" cy="448.546916422" fill="rgb(100%,0%,0%)" r="0.7" /><circle cx="225.861092641" cy="451.439637875" fill="rgb(100%,0%,0%)" r="0.7" /><circle cx="225.066006108" cy="454.332359328" fill="rgb(100%,0%,0%)" r="0.7" /><circle cx="224.270919575" cy="457.225080781" fill="rgb(100%,0%,0%)" r="0.7" /><circle cx="223.475833042" cy="460.117802234" fill="rgb(100%,0%,0%)" r="0.7" /><circle cx="222.680746509" cy="463.010523687" fill="rgb(100%,0%,0%)" r="0.7" /><circle cx="221.885659976" cy="465.90324514" fill="rgb(100%,0%,0%)" r="0.7" /><circle cx="221.090573444" cy="468.795966594" fill="rgb(100%,0%,0%)" r="0.7" /><circle cx="220.295486911" cy="471.688688047" fill="rgb(100%,0%,0%)" r="0.7" /><circle cx="219.622" cy="474.139" fill="rgb(100%,0%,0%)" r="0.7" /><circle cx="310.612732219" cy="344.390561735" fill="rgb(0%,0%,100%)" r="0.7" /><circle cx="313.581017485" cy="344.806498911" fill="rgb(0%,0%,100%)" r="0.7" /><circle cx="316.450013567" cy="345.672423378" fill="rgb(0%,0%,100%)" r="0.7" /><circle cx="319.143072271" cy="346.986951143" fill="rgb(0%,0%,100%)" r="0.7" /><circle cx="321.597528328" cy="348.70693446" fill="rgb(0%,0%,100%)" r="0.7" /><circle cx="323.779942897" cy="350.761993471" fill="rgb(0%,0%,100%)" r="0.7" /><circle cx="325.686185225" cy="353.076285141" fill="rgb(0%,0%,100%)" r="0.7" /><circle cx="327.331240581" cy="355.58353779" fill="rgb(0%,0%,100%)" r="0.7" /><circle cx="328.738185253" cy="358.232133297" fill="rgb(0%,0%,100%)" r="0.7" /><circle cx="329.930739869" cy="360.984175693" fill="rgb(0%,0%,100%)" r="0.7" /><circle cx="330.929145938" cy="363.812596572" fill="rgb(0%,0%,100%)" r="0.7" /><circle cx="331.747397407" cy="366.698370807" fill="rgb(0%,0%,100%)" r="0.7" /><circle cx="332.387943872" cy="369.628693113" fill="rgb(0%,0%,100%)" r="0.7" /><circle cx="332.687102413" cy="372.605027817" fill="rgb(0%,0%,100%)" r="0.7" /><circle cx="332.554390015" cy="375.601522315" fill="rgb(0%,0%,100%)" r="0.7" /><circle cx="332.222879082" cy="378.582606241" fill="rgb(0%,0%,100%)" r="0.7" /><circle cx="331.700095621" cy="381.536195044" fill="rgb(0%,0%,100%)" r="0.7" /><circle cx="330.996004608" cy="384.451933462" fill="rgb(0%,0%,100%)" r="0.7" /><circle cx="330.12224076" cy="387.321451639" fill="rgb(0%,0%,100%)" r="0.7" /><circle cx="329.091362429" cy="390.138393142" fill="rgb(0%,0%,100%)" r="0.7" /><circle cx="327.916199494" cy="392.898303196" fill="rgb(0%,0%,100%)" r="0.7" /><circle cx="326.609351061" cy="395.598390024" fill="rgb(0%,0%,100%)" r="0.7" /><circle cx="325.182820988" cy="398.237264888" fill="rgb(0%,0%,100%)" r="0.7" /><circle cx="323.647838592" cy="400.81458488" fill="rgb(0%,0%,100%)" r="0.7" /><circle cx="322.014691863" cy="403.330892726" fill="rgb(0%,0%,100%)" r="0.7" /><circle cx="320.292738263" cy="405.787311223" fill="rgb(0%,0%,100%)" r="0.7" /><circle cx="318.490397049" cy="408.185401683" fill="rgb(0%,0%,100%)" r="0.7" /><circle cx="316.615216234" cy="410.526993592" fill="rgb(0%,0%,100%)" r="0.7" /><circle cx="314.673924867" cy="412.814093226" fill="rgb(0%,0%,100%)" r="0.7" /><circle cx="312.67251827" cy="415.048786173" fill="rgb(0%,0%,100%)" r="0.7" /><circle cx="310.616319923" cy="417.233191554" fill="rgb(0%,0%,100%)" r="0.7" /><circle cx="308.510075211" cy="419.369395074" fill="rgb(0%,0%,100%)" r="0.7" /><circle cx="306.358003984" cy="421.459435631" fill="rgb(0%,0%,100%)" r="0.7" /><circle cx="304.163864148" cy="423.505282181" fill="rgb(0%,0%,100%)" r="0.7" /><circle cx="301.931013671" cy="425.508814476" fill="rgb(0%,0%,100%)" r="0.7" /><circle cx="299.662454967" cy="427.47182026" fill="rgb(0%,0%,100%)" r="0.7" /><circle cx="297.360860847" cy="429.396005753" fill="rgb(0%,0%,100%)" r="0.7" /><circle cx="295.028650415" cy="431.282962224" fill="rgb(0%,0%,100%)" r="0.7" /><circle cx="292.667980669" cy="433.134201879" fill="rgb(0%,0%,100%)" r="0.7" /><circle cx="290.280804653" cy="434.95113577" fill="rgb(0%,0%,100%)" r="0.7" /><circle cx="287.868880507" cy="436.735089769" fill="rgb(0%,0%,100%)" r="0.7" /><circle cx="285.43379632" cy="438.487305375" fill="rgb(0%,0%,100%)" r="0.7" /><circle cx="282.976995871" cy="440.208938612" fill="rgb(0%,0%,100%)" r="0.7" /><circle cx="280.499782387" cy="441.901072855" fill="rgb(0%,0%,100%)" r="0.7" /><circle cx="278.003340062" cy="443.564717144" fill="rgb(0%,0%,100%)" r="0.7" /><circle cx="275.488756936" cy="445.200802987" fill="rgb(0%,0%,100%)" r="0.7" /><circle cx="272.957012508" cy="446.810202941" fill="rgb(0%,0%,100%)" r="0.7" /><circle cx="270.408997107" cy="448.393726409" fill="rgb(0%,0%,100%)" r="0.7" /><circle cx="267.845524533" cy="449.952119262" fill="rgb(0%,0%,100%)" r="0.7" /><circle cx="265.267347549" cy="451.486061028" fill="rgb(0%,0%,100%)" r="0.7" /><circle cx="262.675158535" cy="452.996170138" fill="rgb(0%,0%,100%)" r="0.7" /><circle cx="260.069551693" cy="454.48302931" fill="rgb(0%,0%,100%)" r="0.7" /><circle cx="257.451101134" cy="455.947142678" fill="rgb(0%,0%,100%)" r="0.7" /><circle cx="254.820283661" cy="457.388980916" fill="rgb(0%,0%,100%)" r="0.7" /><circle cx="252.17761729" cy="458.808904732" fill="rgb(0%,0%,100%)" r="0.7" /><circle cx="249.523448969" cy="460.207278089" fill="rgb(0%,0%,100%)" r="0.7" /><circle cx="246.858200678" cy="461.584331172" fill="rgb(0%,0%,100%)" r="0.7" /><circle cx="244.182102262" cy="462.94029251" fill="rgb(0%,0%,100%)" r="0.7" /><circle cx="241.495481875" cy="464.275226055" fill="rgb(0%,0%,100%)" r="0.7" /><circle cx="238.798518713" cy="465.589137593" fill="rgb(0%,0%,100%)" r="0.7" /><circle cx="236.091352959" cy="466.881886449" fill="rgb(0%,0%,100%)" r="0.7" /><circle cx="233.374041511" cy="468.1531554" fill="rgb(0%,0%,100%)" r="0.7" /><circle cx="230.646512682" cy="469.402381587" fill="rgb(0%,0%,100%)" r="0.7" /><circle cx="227.908594388" cy="470.628574203" fill="rgb(0%,0%,100%)" r="0.7" /><circle cx="225.159678945" cy="471.830095733" fill="rgb(0%,0%,100%)" r="0.7" /><circle cx="222.398795308" cy="473.003597371" fill="rgb(0%,0%,100%)" r="0.7" /><circle cx="219.622" cy="474.139" fill="rgb(0%,0%,100%)" r="0.7" /></svg>