<?xml version="1.0" encoding="utf-8" ?>
<svg baseProfile="full" height="100%" version="1.1" width="100%" xmlns="http://www.w3.org/2000/svg" xmlns:ev="http://www.w3.org/2001/xml-events" xmlns:xlink="http://www.w3.org/1999/xlink"><defs /><circle cx="261.692530121" cy="323.142766695" fill="rgb(100%,0%,0%)" r="0.7" /><circle cx="258.955593311" cy="324.169116776" fill="rgb(100%,0%,0%)" r="0.7" /><circle cx="257.017997555" cy="326.444045233" fill="rgb(100%,0%,0%)" r="0.7" /><circle cx="255.634426564" cy="329.099120673" fill="rgb(100%,0%,0%)" r="0.7" /><circle cx="254.735129481" cy="331.959370823" fill="rgb(100%,0%,0%)" r="0.7" /><circle cx="254.081871558" cy="334.88689546" fill="rgb(100%,0%,0%)" r="0.7" /><circle cx="253.573581353" cy="337.843325594" fill="rgb(100%,0%,0%)" r="0.7" /><circle cx="253.164002689" cy="340.815136583" fill="rgb(100%,0%,0%)" r="0.7" /><circle cx="252.82778556" cy="343.796178881" fill="rgb(100%,0%,0%)" r="0.7" /><circle cx="252.549510692" cy="346.783208909" fill="rgb(100%,0%,0%)" r="0.7" /><circle cx="252.319244892" cy="349.774329811" fill="rgb(100%,0%,0%)" r="0.7" /><circle cx="252.130528821" cy="352.768370119" fill="rgb(100%,0%,0%)" r="0.7" /><circle cx="251.97958537" cy="355.764554809" fill="rgb(100%,0%,0%)" r="0.7" /><circle cx="251.865861748" cy="358.762383674" fill="rgb(100%,0%,0%)" r="0.7" /><circle cx="251.877677322" cy="361.760325645" fill="rgb(100%,0%,0%)" r="0.7" /><circle cx="252.131424865" cy="364.74942662" fill="rgb(100%,0%,0%)" r="0.7" /><circle cx="252.457755509" cy="367.73158846" fill="rgb(100%,0%,0%)" r="0.7" /><circle cx="252.821658735" cy="370.70942196" fill="rgb(100%,0%,0%)" r="0.7" /><circle cx="253.209556007" cy="373.6842349" fill="rgb(100%,0%,0%)" r="0.7" /><circle cx="253.614476101" cy="376.656782154" fill="rgb(100%,0%,0%)" r="0.7" /><circle cx="254.032268119" cy="379.627551396" fill="rgb(100%,0%,0%)" r="0.7" /><circle cx="254.46021222" cy="382.596870082" fill="rgb(100%,0%,0%)" r="0.7" /><circle cx="254.896402386" cy="385.564991866" fill="rgb(100%,0%,0%)" r="0.7" /><circle cx="255.339423918" cy="388.532101857" fill="rgb(100%,0%,0%)" r="0.7" /><circle cx="255.7881727" cy="391.4983488" fill="rgb(100%,0%,0%)" r="0.7" /><circle cx="256.241739109" cy="394.463868162" fill="rgb(100%,0%,0%)" r="0.7" /><circle cx="256.69931391" cy="397.4287673" fill="rgb(100%,0%,0%)" r="0.7" /><circle cx="257.160101123" cy="400.393173574" fill="rgb(100%,0%,0%)" r="0.7" /><circle cx="257.62316948" cy="403.357219182" fill="rgb(100%,0%,0%)" r="0.7" /><circle cx="258.087117207" cy="406.321120318" fill="rgb(100%,0%,0%)" r="0.7" /><circle cx="258.548774178" cy="409.285403395" fill="rgb(100%,0%,0%)" r="0.7" /><circle cx="258.979" cy="412.254" fill="rgb(100%,0%,0%)" r="0.7" /><circle cx="261.692530121" cy="323.142766695" fill="rgb(0%,0%,100%)" r="0.7" /><circle cx="264.247300281" cy="324.581475084" fill="rgb(0%,0%,100%)" r="0.7" /><circle cx="265.936351692" cy="327.050839301" fill="rgb(0%,0%,100%)" r="0.7" /><circle cx="267.168071724" cy="329.784381868" fill="rgb(0%,0%,100%)" r="0.7" /><circle cx="268.067119056" cy="332.638443579" fill="rgb(0%,0%,100%)" r="0.7" /><circle cx="268.505950656" cy="335.606156431" fill="rgb(0%,0%,100%)" r="0.7" /><circle cx="268.918727166" cy="338.577617204" fill="rgb(0%,0%,100%)" r="0.7" /><circle cx="269.307232621" cy="341.552347884" fill="rgb(0%,0%,100%)" r="0.7" /><circle cx="269.670206067" cy="344.530301135" fill="rgb(0%,0%,100%)" r="0.7" /><circle cx="270.004839571" cy="347.511567134" fill="rgb(0%,0%,100%)" r="0.7" /><circle cx="270.306748754" cy="350.496320713" fill="rgb(0%,0%,100%)" r="0.7" /><circle cx="270.569417291" cy="353.484774423" fill="rgb(0%,0%,100%)" r="0.7" /><circle cx="270.782987176" cy="356.477121003" fill="rgb(0%,0%,100%)" r="0.7" /><circle cx="270.931706368" cy="359.473352859" fill="rgb(0%,0%,100%)" r="0.7" /><circle cx="271.014232411" cy="362.469230766" fill="rgb(0%,0%,100%)" r="0.7" /><circle cx="271.612372735" cy="365.408427319" fill="rgb(0%,0%,100%)" r="0.7" /><circle cx="272.095521402" cy="368.369194246" fill="rgb(0%,0%,100%)" r="0.7" /><circle cx="272.52039265" cy="371.338919383" fill="rgb(0%,0%,100%)" r="0.7" /><circle cx="272.905002582" cy="374.31415689" fill="rgb(0%,0%,100%)" r="0.7" /><circle cx="273.25879524" cy="377.293205133" fill="rgb(0%,0%,100%)" r="0.7" /><circle cx="273.587656734" cy="380.275115021" fill="rgb(0%,0%,100%)" r="0.7" /><circle cx="273.895616968" cy="383.259256044" fill="rgb(0%,0%,100%)" r="0.7" /><circle cx="274.185614301" cy="386.245204683" fill="rgb(0%,0%,100%)" r="0.7" /><circle cx="274.459884638" cy="389.232638659" fill="rgb(0%,0%,100%)" r="0.7" /><circle cx="274.720187768" cy="392.221319755" fill="rgb(0%,0%,100%)" r="0.7" /><circle cx="274.967944355" cy="395.211066442" fill="rgb(0%,0%,100%)" r="0.7" /><circle cx="275.204325576" cy="398.201745855" fill="rgb(0%,0%,100%)" r="0.7" /><circle cx="275.430310552" cy="401.193225837" fill="rgb(0%,0%,100%)" r="0.7" /><circle cx="275.646730965" cy="404.185392731" fill="rgb(0%,0%,100%)" r="0.7" /><circle cx="275.85430612" cy="407.178211412" fill="rgb(0%,0%,100%)" r="0.7" /><circle cx="276.053656226" cy="410.171590286" fill="rgb(0%,0%,100%)" r="0.7" /><circle cx="273.799951369" cy="408.828512814" fill="rgb(0%,0%,100%)" r="0.7" /><circle cx="271.337245214" cy="407.115305764" fill="rgb(0%,0%,100%)" r="0.7" /><circle cx="268.874539059" cy="405.402098715" fill="rgb(0%,0%,100%)" r="0.7" /><circle cx="266.411832904" cy="403.688891666" fill="rgb(0%,0%,100%)" r="0.7" /><circle cx="264.400201122" cy="404.510744276" fill="rgb(0%,0%,100%)" r="0.7" /><circle cx="262.679617677" cy="406.968302538" fill="rgb(0%,0%,100%)" r="0.7" /><circle cx="260.959034233" cy="409.4258608" fill="rgb(0%,0%,100%)" r="0.7" /><circle cx="259.238450788" cy="411.883419062" fill="rgb(0%,0%,100%)" r="0.7" /><circle cx="258.979" cy="412.254" fill="rgb(0%,0%,100%)" r="0.7" /></svg>