<?xml version="1.0" encoding="utf-8" ?>
<svg baseProfile="full" height="100%" version="1.1" width="100%" xmlns="http://www.w3.org/2000/svg" xmlns:ev="http://www.w3.org/2001/xml-events" xmlns:xlink="http://www.w3.org/1999/xlink"><defs /><circle cx="311.182265571" cy="251.571976497" fill="rgb(100%,0%,0%)" r="0.7" /><circle cx="308.210710521" cy="251.963332208" fill="rgb(100%,0%,0%)" r="0.7" /><circle cx="305.3194912" cy="252.756573488" fill="rgb(100%,0%,0%)" r="0.7" /><circle cx="302.535645914" cy="253.871192374" fill="rgb(100%,0%,0%)" r="0.7" /><circle cx="299.866691126" cy="255.239179101" fill="rgb(100%,0%,0%)" r="0.7" /><circle cx="297.310146893" cy="256.80775279" fill="rgb(100%,0%,0%)" r="0.7" /><circle cx="294.859449688" cy="258.537338987" fill="rgb(100%,0%,0%)" r="0.7" /><circle cx="292.507044727" cy="260.3985925" fill="rgb(100%,0%,0%)" r="0.7" /><circle cx="290.245899329" cy="262.369819995" fill="rgb(100%,0%,0%)" r="0.7" /><circle cx="288.070280512" cy="264.435116709" fill="rgb(100%,0%,0%)" r="0.7" /><circle cx="285.976365966" cy="266.583249272" fill="rgb(100%,0%,0%)" r="0.7" /><circle cx="283.963415566" cy="268.807440452" fill="rgb(100%,0%,0%)" r="0.7" /><circle cx="282.038249707" cy="271.107959139" fill="rgb(100%,0%,0%)" r="0.7" /><circle cx="280.168272661" cy="273.453670326" fill="rgb(100%,0%,0%)" r="0.7" /><circle cx="278.32472798" cy="275.820315742" fill="rgb(100%,0%,0%)" r="0.7" /><circle cx="276.532301351" cy="278.225898234" fill="rgb(100%,0%,0%)" r="0.7" /><circle cx="274.792804658" cy="280.670036191" fill="rgb(100%,0%,0%)" r="0.7" /><circle cx="273.108106326" cy="283.152250226" fill="rgb(100%,0%,0%)" r="0.7" /><circle cx="271.48009881" cy="285.672012261" fill="rgb(100%,0%,0%)" r="0.7" /><circle cx="269.910729779" cy="288.22870817" fill="rgb(100%,0%,0%)" r="0.7" /><circle cx="268.402002989" cy="290.821646506" fill="rgb(100%,0%,0%)" r="0.7" /><circle cx="266.955985754" cy="293.450065362" fill="rgb(100%,0%,0%)" r="0.7" /><circle cx="265.574825238" cy="296.113134481" fill="rgb(100%,0%,0%)" r="0.7" /><circle cx="264.260777139" cy="298.809946703" fill="rgb(100%,0%,0%)" r="0.7" /><circle cx="263.016234155" cy="301.539528493" fill="rgb(100%,0%,0%)" r="0.7" /><circle cx="261.843780184" cy="304.300827238" fill="rgb(100%,0%,0%)" r="0.7" /><circle cx="260.746240231" cy="307.092760683" fill="rgb(100%,0%,0%)" r="0.7" /><circle cx="259.726819046" cy="309.914135741" fill="rgb(100%,0%,0%)" r="0.7" /><circle cx="258.789227945" cy="312.763738592" fill="rgb(100%,0%,0%)" r="0.7" /><circle cx="257.937962682" cy="315.640316751" fill="rgb(100%,0%,0%)" r="0.7" /><circle cx="257.178793029" cy="318.542517992" fill="rgb(100%,0%,0%)" r="0.7" /><circle cx="256.519655933" cy="321.469047201" fill="rgb(100%,0%,0%)" r="0.7" /><circle cx="255.972904536" cy="324.418603058" fill="rgb(100%,0%,0%)" r="0.7" /><circle cx="255.562841701" cy="327.390089604" fill="rgb(100%,0%,0%)" r="0.7" /><circle cx="255.164114307" cy="330.358593973" fill="rgb(100%,0%,0%)" r="0.7" /><circle cx="254.750384222" cy="333.329137049" fill="rgb(100%,0%,0%)" r="0.7" /><circle cx="254.573386375" cy="336.323120848" fill="rgb(100%,0%,0%)" r="0.7" /><circle cx="254.633112941" cy="339.321754923" fill="rgb(100%,0%,0%)" r="0.7" /><circle cx="254.924108745" cy="342.306883163" fill="rgb(100%,0%,0%)" r="0.7" /><circle cx="255.43623188" cy="345.262178067" fill="rgb(100%,0%,0%)" r="0.7" /><circle cx="256.155852188" cy="348.173984378" fill="rgb(100%,0%,0%)" r="0.7" /><circle cx="257.067195753" cy="351.031669956" fill="rgb(100%,0%,0%)" r="0.7" /><circle cx="258.153585448" cy="353.827576803" fill="rgb(100%,0%,0%)" r="0.7" /><circle cx="259.398428253" cy="356.556696076" fill="rgb(100%,0%,0%)" r="0.7" /><circle cx="260.785902886" cy="359.21620461" fill="rgb(100%,0%,0%)" r="0.7" /><circle cx="262.301373106" cy="361.804971519" fill="rgb(100%,0%,0%)" r="0.7" /><circle cx="263.931589013" cy="364.323106839" fill="rgb(100%,0%,0%)" r="0.7" /><circle cx="265.664738106" cy="366.771576605" fill="rgb(100%,0%,0%)" r="0.7" /><circle cx="267.490405521" cy="369.151897216" fill="rgb(100%,0%,0%)" r="0.7" /><circle cx="269.399478551" cy="371.465892723" fill="rgb(100%,0%,0%)" r="0.7" /><circle cx="271.384029528" cy="373.715510876" fill="rgb(100%,0%,0%)" r="0.7" /><circle cx="273.437213571" cy="375.902701036" fill="rgb(100%,0%,0%)" r="0.7" /><circle cx="275.553126459" cy="378.029266948" fill="rgb(100%,0%,0%)" r="0.7" /><circle cx="277.726766229" cy="380.096824852" fill="rgb(100%,0%,0%)" r="0.7" /><circle cx="279.953899535" cy="382.106636922" fill="rgb(100%,0%,0%)" r="0.7" /><circle cx="282.231109337" cy="384.059559928" fill="rgb(100%,0%,0%)" r="0.7" /><circle cx="284.555744724" cy="385.955780504" fill="rgb(100%,0%,0%)" r="0.7" /><circle cx="286.926118385" cy="387.794502764" fill="rgb(100%,0%,0%)" r="0.7" /><circle cx="289.341917964" cy="389.573095733" fill="rgb(100%,0%,0%)" r="0.7" /><circle cx="291.805802918" cy="391.284430741" fill="rgb(100%,0%,0%)" r="0.7" /><circle cx="294.303238358" cy="392.945776786" fill="rgb(100%,0%,0%)" r="0.7" /><circle cx="296.761498413" cy="394.665363682" fill="rgb(100%,0%,0%)" r="0.7" /><circle cx="299.213145207" cy="396.394349115" fill="rgb(100%,0%,0%)" r="0.7" /><circle cx="301.658613472" cy="398.132080743" fill="rgb(100%,0%,0%)" r="0.7" /><circle cx="304.098259209" cy="399.877962324" fill="rgb(100%,0%,0%)" r="0.7" /><circle cx="306.532424504" cy="401.631482785" fill="rgb(100%,0%,0%)" r="0.7" /><circle cx="308.961405158" cy="403.392179499" fill="rgb(100%,0%,0%)" r="0.7" /><circle cx="311.385468807" cy="405.159639963" fill="rgb(100%,0%,0%)" r="0.7" /><circle cx="313.804857553" cy="406.933494431" fill="rgb(100%,0%,0%)" r="0.7" /><circle cx="316.219790674" cy="408.713410166" fill="rgb(100%,0%,0%)" r="0.7" /><circle cx="318.630467113" cy="410.499086808" fill="rgb(100%,0%,0%)" r="0.7" /><circle cx="321.037067486" cy="412.290252419" fill="rgb(100%,0%,0%)" r="0.7" /><circle cx="323.439755265" cy="414.086659776" fill="rgb(100%,0%,0%)" r="0.7" /><circle cx="325.838685408" cy="415.888088972" fill="rgb(100%,0%,0%)" r="0.7" /><circle cx="328.233990483" cy="417.694333754" fill="rgb(100%,0%,0%)" r="0.7" /><circle cx="330.625795988" cy="419.505210246" fill="rgb(100%,0%,0%)" r="0.7" /><circle cx="333.014213212" cy="421.320549282" fill="rgb(100%,0%,0%)" r="0.7" /><circle cx="335.399349986" cy="423.140202671" fill="rgb(100%,0%,0%)" r="0.7" /><circle cx="337.781291719" cy="424.964027209" fill="rgb(100%,0%,0%)" r="0.7" /><circle cx="340.160132411" cy="426.791907183" fill="rgb(100%,0%,0%)" r="0.7" /><circle cx="342.535933486" cy="428.623721968" fill="rgb(100%,0%,0%)" r="0.7" /><circle cx="344.908775362" cy="430.459385192" fill="rgb(100%,0%,0%)" r="0.7" /><circle cx="347.278699056" cy="432.298799598" fill="rgb(100%,0%,0%)" r="0.7" /><circle cx="349.645763739" cy="434.141901929" fill="rgb(100%,0%,0%)" r="0.7" /><circle cx="352.009997529" cy="435.988625732" fill="rgb(100%,0%,0%)" r="0.7" /><circle cx="354.371429012" cy="437.838927587" fill="rgb(100%,0%,0%)" r="0.7" /><circle cx="356.730085349" cy="439.692788612" fill="rgb(100%,0%,0%)" r="0.7" /><circle cx="359.085947778" cy="441.550184012" fill="rgb(100%,0%,0%)" r="0.7" /><circle cx="361.438989501" cy="443.411119945" fill="rgb(100%,0%,0%)" r="0.7" /><circle cx="363.789208172" cy="445.27567136" fill="rgb(100%,0%,0%)" r="0.7" /><circle cx="366.136497128" cy="447.143900625" fill="rgb(100%,0%,0%)" r="0.7" /><circle cx="368.480705254" cy="449.015943681" fill="rgb(100%,0%,0%)" r="0.7" /><circle cx="370.821647666" cy="450.892104257" fill="rgb(100%,0%,0%)" r="0.7" /><circle cx="373.158893496" cy="452.772924222" fill="rgb(100%,0%,0%)" r="0.7" /><circle cx="375.491" cy="454.66" fill="rgb(100%,0%,0%)" r="0.7" /><circle cx="311.182265571" cy="251.571976497" fill="rgb(0%,0%,100%)" r="0.7" /><circle cx="314.176198132" cy="251.683744299" fill="rgb(0%,0%,100%)" r="0.7" /><circle cx="317.132904201" cy="252.182647442" fill="rgb(0%,0%,100%)" r="0.7" /><circle cx="320.012888866" cy="253.016051908" fill="rgb(0%,0%,100%)" r="0.7" /><circle cx="322.754931365" cy="254.226372472" fill="rgb(0%,0%,100%)" r="0.7" /><circle cx="325.260874553" cy="255.868165205" fill="rgb(0%,0%,100%)" r="0.7" /><circle cx="327.3917513" cy="257.971679148" fill="rgb(0%,0%,100%)" r="0.7" /><circle cx="329.001443907" cy="260.495451662" fill="rgb(0%,0%,100%)" r="0.7" /><circle cx="330.011014978" cy="263.314375212" fill="rgb(0%,0%,100%)" r="0.7" /><circle cx="330.448612065" cy="266.278238022" fill="rgb(0%,0%,100%)" r="0.7" /><circle cx="330.409378122" cy="269.275495659" fill="rgb(0%,0%,100%)" r="0.7" /><circle cx="329.99776319" cy="272.245626651" fill="rgb(0%,0%,100%)" r="0.7" /><circle cx="329.300286216" cy="275.162459016" fill="rgb(0%,0%,100%)" r="0.7" /><circle cx="328.474982172" cy="278.046338559" fill="rgb(0%,0%,100%)" r="0.7" /><circle cx="327.485992668" cy="280.878096154" fill="rgb(0%,0%,100%)" r="0.7" /><circle cx="326.300253319" cy="283.632971851" fill="rgb(0%,0%,100%)" r="0.7" /><circle cx="324.859000768" cy="286.262230648" fill="rgb(0%,0%,100%)" r="0.7" /><circle cx="323.04691909" cy="288.647387892" fill="rgb(0%,0%,100%)" r="0.7" /><circle cx="320.674400633" cy="290.455445272" fill="rgb(0%,0%,100%)" r="0.7" /><circle cx="317.75521251" cy="290.911489738" fill="rgb(0%,0%,100%)" r="0.7" /><circle cx="315.010488916" cy="289.763689653" fill="rgb(0%,0%,100%)" r="0.7" /><circle cx="312.762761183" cy="287.786428039" fill="rgb(0%,0%,100%)" r="0.7" /><circle cx="310.790352299" cy="285.540604941" fill="rgb(0%,0%,100%)" r="0.7" /><circle cx="308.091026845" cy="284.262883618" fill="rgb(0%,0%,100%)" r="0.7" /><circle cx="305.125278392" cy="283.906365061" fill="rgb(0%,0%,100%)" r="0.7" /><circle cx="302.189938283" cy="284.472138113" fill="rgb(0%,0%,100%)" r="0.7" /><circle cx="299.494919738" cy="285.775370738" fill="rgb(0%,0%,100%)" r="0.7" /><circle cx="297.099858984" cy="287.576336426" fill="rgb(0%,0%,100%)" r="0.7" /><circle cx="294.979695491" cy="289.69629391" fill="rgb(0%,0%,100%)" r="0.7" /><circle cx="293.089026964" cy="292.024255232" fill="rgb(0%,0%,100%)" r="0.7" /><circle cx="291.370327724" cy="294.482804443" fill="rgb(0%,0%,100%)" r="0.7" /><circle cx="289.706811851" cy="296.979323245" fill="rgb(0%,0%,100%)" r="0.7" /><circle cx="288.074525692" cy="299.496369963" fill="rgb(0%,0%,100%)" r="0.7" /><circle cx="286.473249141" cy="302.033259528" fill="rgb(0%,0%,100%)" r="0.7" /><circle cx="284.90571426" cy="304.591127572" fill="rgb(0%,0%,100%)" r="0.7" /><circle cx="283.376779103" cy="307.172245756" fill="rgb(0%,0%,100%)" r="0.7" /><circle cx="281.893889885" cy="309.780072968" fill="rgb(0%,0%,100%)" r="0.7" /><circle cx="280.468380395" cy="312.419671013" fill="rgb(0%,0%,100%)" r="0.7" /><circle cx="279.11826099" cy="315.098549165" fill="rgb(0%,0%,100%)" r="0.7" /><circle cx="277.874594389" cy="317.828315812" fill="rgb(0%,0%,100%)" r="0.7" /><circle cx="276.835331242" cy="320.637224152" fill="rgb(0%,0%,100%)" r="0.7" /><circle cx="276.505124265" cy="323.618047635" fill="rgb(0%,0%,100%)" r="0.7" /><circle cx="276.409947563" cy="326.615817325" fill="rgb(0%,0%,100%)" r="0.7" /><circle cx="276.552981391" cy="329.611520869" fill="rgb(0%,0%,100%)" r="0.7" /><circle cx="276.96963474" cy="332.581179742" fill="rgb(0%,0%,100%)" r="0.7" /><circle cx="277.713679251" cy="335.48547402" fill="rgb(0%,0%,100%)" r="0.7" /><circle cx="278.851964634" cy="338.257897391" fill="rgb(0%,0%,100%)" r="0.7" /><circle cx="280.448040551" cy="340.792762001" fill="rgb(0%,0%,100%)" r="0.7" /><circle cx="282.506439305" cy="342.969747772" fill="rgb(0%,0%,100%)" r="0.7" /><circle cx="284.678043709" cy="345.039562816" fill="rgb(0%,0%,100%)" r="0.7" /><circle cx="286.849648112" cy="347.10937786" fill="rgb(0%,0%,100%)" r="0.7" /><circle cx="289.021252516" cy="349.179192904" fill="rgb(0%,0%,100%)" r="0.7" /><circle cx="291.192856919" cy="351.249007947" fill="rgb(0%,0%,100%)" r="0.7" /><circle cx="293.364461323" cy="353.318822991" fill="rgb(0%,0%,100%)" r="0.7" /><circle cx="295.536065726" cy="355.388638035" fill="rgb(0%,0%,100%)" r="0.7" /><circle cx="297.707670129" cy="357.458453078" fill="rgb(0%,0%,100%)" r="0.7" /><circle cx="299.879274533" cy="359.528268122" fill="rgb(0%,0%,100%)" r="0.7" /><circle cx="302.050878936" cy="361.598083166" fill="rgb(0%,0%,100%)" r="0.7" /><circle cx="304.221663921" cy="363.668700036" fill="rgb(0%,0%,100%)" r="0.7" /><circle cx="306.281771079" cy="365.849432995" fill="rgb(0%,0%,100%)" r="0.7" /><circle cx="308.388521997" cy="367.985128712" fill="rgb(0%,0%,100%)" r="0.7" /><circle cx="310.557173188" cy="370.05778305" fill="rgb(0%,0%,100%)" r="0.7" /><circle cx="312.580181518" cy="372.266711771" fill="rgb(0%,0%,100%)" r="0.7" /><circle cx="314.532556204" cy="374.544482237" fill="rgb(0%,0%,100%)" r="0.7" /><circle cx="316.707633531" cy="376.595292476" fill="rgb(0%,0%,100%)" r="0.7" /><circle cx="319.001274377" cy="378.528972338" fill="rgb(0%,0%,100%)" r="0.7" /><circle cx="321.270129942" cy="380.491666776" fill="rgb(0%,0%,100%)" r="0.7" /><circle cx="323.508268423" cy="382.489292158" fill="rgb(0%,0%,100%)" r="0.7" /><circle cx="325.702535369" cy="384.534937325" fill="rgb(0%,0%,100%)" r="0.7" /><circle cx="327.821604217" cy="386.658089448" fill="rgb(0%,0%,100%)" r="0.7" /><circle cx="329.809179868" cy="388.901659644" fill="rgb(0%,0%,100%)" r="0.7" /><circle cx="332.00741722" cy="390.942852233" fill="rgb(0%,0%,100%)" r="0.7" /><circle cx="334.290895758" cy="392.888123838" fill="rgb(0%,0%,100%)" r="0.7" /><circle cx="336.682470457" cy="394.698235199" fill="rgb(0%,0%,100%)" r="0.7" /><circle cx="339.246008515" cy="396.251227732" fill="rgb(0%,0%,100%)" r="0.7" /><circle cx="341.620171852" cy="398.050868665" fill="rgb(0%,0%,100%)" r="0.7" /><circle cx="343.890527378" cy="400.011875341" fill="rgb(0%,0%,100%)" r="0.7" /><circle cx="346.158526776" cy="401.975584929" fill="rgb(0%,0%,100%)" r="0.7" /><circle cx="348.424355539" cy="403.941812838" fill="rgb(0%,0%,100%)" r="0.7" /><circle cx="350.68802509" cy="405.910511547" fill="rgb(0%,0%,100%)" r="0.7" /><circle cx="352.949504718" cy="407.881735119" fill="rgb(0%,0%,100%)" r="0.7" /><circle cx="355.208704628" cy="409.855580847" fill="rgb(0%,0%,100%)" r="0.7" /><circle cx="357.465482932" cy="411.832181801" fill="rgb(0%,0%,100%)" r="0.7" /><circle cx="359.719677064" cy="413.811734266" fill="rgb(0%,0%,100%)" r="0.7" /><circle cx="361.971063764" cy="415.794471291" fill="rgb(0%,0%,100%)" r="0.7" /><circle cx="364.219379163" cy="417.780696761" fill="rgb(0%,0%,100%)" r="0.7" /><circle cx="366.464281915" cy="419.770778705" fill="rgb(0%,0%,100%)" r="0.7" /><circle cx="368.705346255" cy="421.765181655" fill="rgb(0%,0%,100%)" r="0.7" /><circle cx="370.942025299" cy="423.764491892" fill="rgb(0%,0%,100%)" r="0.7" /><circle cx="373.17362377" cy="425.769481966" fill="rgb(0%,0%,100%)" r="0.7" /><circle cx="375.39919844" cy="427.78116304" fill="rgb(0%,0%,100%)" r="0.7" /><circle cx="377.617441061" cy="429.800916335" fill="rgb(0%,0%,100%)" r="0.7" /><circle cx="379.826471005" cy="431.830730303" fill="rgb(0%,0%,100%)" r="0.7" /><circle cx="382.023407645" cy="433.873644933" fill="rgb(0%,0%,100%)" r="0.7" /><circle cx="384.203345261" cy="435.934665219" fill="rgb(0%,0%,100%)" r="0.7" /><circle cx="386.356755423" cy="438.023359849" fill="rgb(0%,0%,100%)" r="0.7" /><circle cx="388.45914938" cy="440.163206681" fill="rgb(0%,0%,100%)" r="0.7" /><circle cx="390.345020806" cy="442.485612085" fill="rgb(0%,0%,100%)" r="0.7" /><circle cx="387.485316966" cy="442.012982413" fill="rgb(0%,0%,100%)" r="0.7" /><circle cx="384.535437455" cy="441.46689554" fill="rgb(0%,0%,100%)" r="0.7" /><circle cx="381.585557945" cy="440.920808666" fill="rgb(0%,0%,100%)" r="0.7" /><circle cx="378.635678434" cy="440.374721793" fill="rgb(0%,0%,100%)" r="0.7" /><circle cx="375.685798923" cy="439.82863492" fill="rgb(0%,0%,100%)" r="0.7" /><circle cx="372.735919413" cy="439.282548047" fill="rgb(0%,0%,100%)" r="0.7" /><circle cx="372.143519706" cy="440.964003379" fill="rgb(0%,0%,100%)" r="0.7" /><circle cx="372.855792643" cy="443.878221501" fill="rgb(0%,0%,100%)" r="0.7" /><circle cx="373.56806558" cy="446.792439623" fill="rgb(0%,0%,100%)" r="0.7" /><circle cx="374.280338517" cy="449.706657746" fill="rgb(0%,0%,100%)" r="0.7" /><circle cx="374.992611453" cy="452.620875868" fill="rgb(0%,0%,100%)" r="0.7" /><circle cx="375.491" cy="454.66" fill="rgb(0%,0%,100%)" r="0.7" /></svg>