<?xml version="1.0" encoding="utf-8" ?>
<svg baseProfile="full" height="100%" version="1.1" width="100%" xmlns="http://www.w3.org/2000/svg" xmlns:ev="http://www.w3.org/2001/xml-events" xmlns:xlink="http://www.w3.org/1999/xlink"><defs /><circle cx="303.780642915" cy="345.041993494" fill="rgb(100%,0%,0%)" r="0.7" /><circle cx="300.850300424" cy="345.56503784" fill="rgb(100%,0%,0%)" r="0.7" /><circle cx="298.4372235" cy="347.307929921" fill="rgb(100%,0%,0%)" r="0.7" /><circle cx="296.720401011" cy="349.762275518" fill="rgb(100%,0%,0%)" r="0.7" /><circle cx="295.106630843" cy="352.291256706" fill="rgb(100%,0%,0%)" r="0.7" /><circle cx="293.492860676" cy="354.820237894" fill="rgb(100%,0%,0%)" r="0.7" /><circle cx="291.879090509" cy="357.349219082" fill="rgb(100%,0%,0%)" r="0.7" /><circle cx="290.265320342" cy="359.878200269" fill="rgb(100%,0%,0%)" r="0.7" /><circle cx="288.651550175" cy="362.407181457" fill="rgb(100%,0%,0%)" r="0.7" /><circle cx="287.037780008" cy="364.936162645" fill="rgb(100%,0%,0%)" r="0.7" /><circle cx="285.426100344" cy="367.466437371" fill="rgb(100%,0%,0%)" r="0.7" /><circle cx="283.856593889" cy="370.023127643" fill="rgb(100%,0%,0%)" r="0.7" /><circle cx="282.309523228" cy="372.593449838" fill="rgb(100%,0%,0%)" r="0.7" /><circle cx="280.782679994" cy="375.175824773" fill="rgb(100%,0%,0%)" r="0.7" /><circle cx="279.276808803" cy="377.770493826" fill="rgb(100%,0%,0%)" r="0.7" /><circle cx="277.793927165" cy="380.378370579" fill="rgb(100%,0%,0%)" r="0.7" /><circle cx="276.337224109" cy="383.000952869" fill="rgb(100%,0%,0%)" r="0.7" /><circle cx="274.91137157" cy="385.640428154" fill="rgb(100%,0%,0%)" r="0.7" /><circle cx="273.52324567" cy="388.299926845" fill="rgb(100%,0%,0%)" r="0.7" /><circle cx="272.183366684" cy="390.9840277" fill="rgb(100%,0%,0%)" r="0.7" /><circle cx="270.908973672" cy="393.699786758" fill="rgb(100%,0%,0%)" r="0.7" /><circle cx="269.731704054" cy="396.45887908" fill="rgb(100%,0%,0%)" r="0.7" /><circle cx="268.721986889" cy="399.282977577" fill="rgb(100%,0%,0%)" r="0.7" /><circle cx="268.117286324" cy="402.214240537" fill="rgb(100%,0%,0%)" r="0.7" /><circle cx="268.221596069" cy="405.21143424" fill="rgb(100%,0%,0%)" r="0.7" /><circle cx="268.49754241" cy="408.198426283" fill="rgb(100%,0%,0%)" r="0.7" /><circle cx="268.915937108" cy="411.168810556" fill="rgb(100%,0%,0%)" r="0.7" /><circle cx="269.482964573" cy="414.114384662" fill="rgb(100%,0%,0%)" r="0.7" /><circle cx="270.214197541" cy="417.023441" fill="rgb(100%,0%,0%)" r="0.7" /><circle cx="271.132662866" cy="419.878735258" fill="rgb(100%,0%,0%)" r="0.7" /><circle cx="272.268905043" cy="422.654263299" fill="rgb(100%,0%,0%)" r="0.7" /><circle cx="273.580244818" cy="424.756943516" fill="rgb(100%,0%,0%)" r="0.7" /><circle cx="274.298312521" cy="421.844147819" fill="rgb(100%,0%,0%)" r="0.7" /><circle cx="275.016380223" cy="418.931352122" fill="rgb(100%,0%,0%)" r="0.7" /><circle cx="275.734447926" cy="416.018556424" fill="rgb(100%,0%,0%)" r="0.7" /><circle cx="277.34645511" cy="415.371396517" fill="rgb(100%,0%,0%)" r="0.7" /><circle cx="279.859994172" cy="417.009114865" fill="rgb(100%,0%,0%)" r="0.7" /><circle cx="282.373533233" cy="418.646833213" fill="rgb(100%,0%,0%)" r="0.7" /><circle cx="284.887072294" cy="420.284551561" fill="rgb(100%,0%,0%)" r="0.7" /><circle cx="287.400611356" cy="421.922269909" fill="rgb(100%,0%,0%)" r="0.7" /><circle cx="289.914150417" cy="423.559988257" fill="rgb(100%,0%,0%)" r="0.7" /><circle cx="292.427689478" cy="425.197706605" fill="rgb(100%,0%,0%)" r="0.7" /><circle cx="294.94122854" cy="426.835424953" fill="rgb(100%,0%,0%)" r="0.7" /><circle cx="297.298" cy="428.371" fill="rgb(100%,0%,0%)" r="0.7" /><circle cx="303.780642915" cy="345.041993494" fill="rgb(0%,0%,100%)" r="0.7" /><circle cx="306.720425692" cy="345.586688429" fill="rgb(0%,0%,100%)" r="0.7" /><circle cx="309.467532058" cy="346.782286076" fill="rgb(0%,0%,100%)" r="0.7" /><circle cx="312.005953132" cy="348.377281945" fill="rgb(0%,0%,100%)" r="0.7" /><circle cx="314.256612468" cy="350.347481474" fill="rgb(0%,0%,100%)" r="0.7" /><circle cx="315.889520528" cy="352.850983617" fill="rgb(0%,0%,100%)" r="0.7" /><circle cx="316.498995841" cy="355.763726066" fill="rgb(0%,0%,100%)" r="0.7" /><circle cx="315.796174463" cy="358.65782358" fill="rgb(0%,0%,100%)" r="0.7" /><circle cx="314.14704368" cy="361.152563102" fill="rgb(0%,0%,100%)" r="0.7" /><circle cx="311.982251781" cy="363.223543717" fill="rgb(0%,0%,100%)" r="0.7" /><circle cx="309.437544252" cy="364.749979767" fill="rgb(0%,0%,100%)" r="0.7" /><circle cx="306.692213307" cy="365.940892453" fill="rgb(0%,0%,100%)" r="0.7" /><circle cx="304.248373556" cy="367.674415754" fill="rgb(0%,0%,100%)" r="0.7" /><circle cx="302.084397617" cy="369.749399963" fill="rgb(0%,0%,100%)" r="0.7" /><circle cx="300.157760139" cy="372.047512928" fill="rgb(0%,0%,100%)" r="0.7" /><circle cx="298.435562038" cy="374.502990563" fill="rgb(0%,0%,100%)" r="0.7" /><circle cx="296.909785575" cy="377.085047924" fill="rgb(0%,0%,100%)" r="0.7" /><circle cx="295.287471836" cy="379.605556763" fill="rgb(0%,0%,100%)" r="0.7" /><circle cx="293.742131614" cy="382.176564623" fill="rgb(0%,0%,100%)" r="0.7" /><circle cx="292.322442081" cy="384.819070625" fill="rgb(0%,0%,100%)" r="0.7" /><circle cx="291.025706442" cy="387.524057625" fill="rgb(0%,0%,100%)" r="0.7" /><circle cx="289.85079672" cy="390.284152771" fill="rgb(0%,0%,100%)" r="0.7" /><circle cx="288.799765523" cy="393.093745867" fill="rgb(0%,0%,100%)" r="0.7" /><circle cx="287.882705229" cy="395.949802505" fill="rgb(0%,0%,100%)" r="0.7" /><circle cx="287.116099141" cy="398.849885826" fill="rgb(0%,0%,100%)" r="0.7" /><circle cx="286.544058473" cy="401.79367822" fill="rgb(0%,0%,100%)" r="0.7" /><circle cx="286.267463338" cy="404.779564224" fill="rgb(0%,0%,100%)" r="0.7" /><circle cx="286.308213697" cy="407.777815453" fill="rgb(0%,0%,100%)" r="0.7" /><circle cx="286.677598133" cy="410.753440595" fill="rgb(0%,0%,100%)" r="0.7" /><circle cx="287.374054496" cy="413.669910048" fill="rgb(0%,0%,100%)" r="0.7" /><circle cx="288.383725515" cy="416.493369188" fill="rgb(0%,0%,100%)" r="0.7" /><circle cx="289.683684118" cy="419.195635312" fill="rgb(0%,0%,100%)" r="0.7" /><circle cx="291.246638337" cy="421.754950798" fill="rgb(0%,0%,100%)" r="0.7" /><circle cx="293.045937202" cy="424.154113278" fill="rgb(0%,0%,100%)" r="0.7" /><circle cx="295.061277425" cy="426.374852623" fill="rgb(0%,0%,100%)" r="0.7" /><circle cx="297.298" cy="428.371" fill="rgb(0%,0%,100%)" r="0.7" /></svg>