<?xml version="1.0" encoding="utf-8" ?>
<svg baseProfile="full" height="100%" version="1.1" width="100%" xmlns="http://www.w3.org/2000/svg" xmlns:ev="http://www.w3.org/2001/xml-events" xmlns:xlink="http://www.w3.org/1999/xlink"><defs /><circle cx="262.455614845" cy="299.601232338" fill="rgb(100%,0%,0%)" r="0.7" /><circle cx="259.52496261" cy="300.037316504" fill="rgb(100%,0%,0%)" r="0.7" /><circle cx="257.185311459" cy="301.874054567" fill="rgb(100%,0%,0%)" r="0.7" /><circle cx="255.609325286" cy="304.416895284" fill="rgb(100%,0%,0%)" r="0.7" /><circle cx="254.27272444" cy="307.095704499" fill="rgb(100%,0%,0%)" r="0.7" /><circle cx="253.323601263" cy="309.938933301" fill="rgb(100%,0%,0%)" r="0.7" /><circle cx="252.708699056" cy="312.874086919" fill="rgb(100%,0%,0%)" r="0.7" /><circle cx="252.337394008" cy="315.850374529" fill="rgb(100%,0%,0%)" r="0.7" /><circle cx="252.157806989" cy="318.844576908" fill="rgb(100%,0%,0%)" r="0.7" /><circle cx="251.899064009" cy="321.818878826" fill="rgb(100%,0%,0%)" r="0.7" /><circle cx="251.069450737" cy="324.701332184" fill="rgb(100%,0%,0%)" r="0.7" /><circle cx="250.091647756" cy="327.537279373" fill="rgb(100%,0%,0%)" r="0.7" /><circle cx="249.007924029" cy="330.334541196" fill="rgb(100%,0%,0%)" r="0.7" /><circle cx="247.838434261" cy="333.097093005" fill="rgb(100%,0%,0%)" r="0.7" /><circle cx="246.595841832" cy="335.827564452" fill="rgb(100%,0%,0%)" r="0.7" /><circle cx="245.289099529" cy="338.527943956" fill="rgb(100%,0%,0%)" r="0.7" /><circle cx="243.924998228" cy="341.199817112" fill="rgb(100%,0%,0%)" r="0.7" /><circle cx="242.508916982" cy="343.844525761" fill="rgb(100%,0%,0%)" r="0.7" /><circle cx="241.045272393" cy="346.46320541" fill="rgb(100%,0%,0%)" r="0.7" /><circle cx="239.537752196" cy="349.056886924" fill="rgb(100%,0%,0%)" r="0.7" /><circle cx="237.989514326" cy="351.626477928" fill="rgb(100%,0%,0%)" r="0.7" /><circle cx="236.403293742" cy="354.172805145" fill="rgb(100%,0%,0%)" r="0.7" /><circle cx="234.781495457" cy="356.696615868" fill="rgb(100%,0%,0%)" r="0.7" /><circle cx="233.126242106" cy="359.198612441" fill="rgb(100%,0%,0%)" r="0.7" /><circle cx="232.438409214" cy="360.758040519" fill="rgb(100%,0%,0%)" r="0.7" /><circle cx="235.040198574" cy="359.264490345" fill="rgb(100%,0%,0%)" r="0.7" /><circle cx="237.641987935" cy="357.770940171" fill="rgb(100%,0%,0%)" r="0.7" /><circle cx="240.243777296" cy="356.277389998" fill="rgb(100%,0%,0%)" r="0.7" /><circle cx="242.845566657" cy="354.783839824" fill="rgb(100%,0%,0%)" r="0.7" /><circle cx="245.447356018" cy="353.29028965" fill="rgb(100%,0%,0%)" r="0.7" /><circle cx="247.480154078" cy="353.433385195" fill="rgb(100%,0%,0%)" r="0.7" /><circle cx="248.594326107" cy="356.218815267" fill="rgb(100%,0%,0%)" r="0.7" /><circle cx="249.708498136" cy="359.00424534" fill="rgb(100%,0%,0%)" r="0.7" /><circle cx="250.822670165" cy="361.789675413" fill="rgb(100%,0%,0%)" r="0.7" /><circle cx="251.936842194" cy="364.575105485" fill="rgb(100%,0%,0%)" r="0.7" /><circle cx="253.051014223" cy="367.360535558" fill="rgb(100%,0%,0%)" r="0.7" /><circle cx="254.165186252" cy="370.145965631" fill="rgb(100%,0%,0%)" r="0.7" /><circle cx="254.946" cy="372.098" fill="rgb(100%,0%,0%)" r="0.7" /><circle cx="262.455614845" cy="299.601232338" fill="rgb(0%,0%,100%)" r="0.7" /><circle cx="265.062056461" cy="300.854439177" fill="rgb(0%,0%,100%)" r="0.7" /><circle cx="267.146960697" cy="303.009364528" fill="rgb(0%,0%,100%)" r="0.7" /><circle cx="269.371206495" cy="304.97197488" fill="rgb(0%,0%,100%)" r="0.7" /><circle cx="270.818795208" cy="307.597732368" fill="rgb(0%,0%,100%)" r="0.7" /><circle cx="271.962338218" cy="310.369604779" fill="rgb(0%,0%,100%)" r="0.7" /><circle cx="272.806735109" cy="313.246974427" fill="rgb(0%,0%,100%)" r="0.7" /><circle cx="273.369114295" cy="316.19271684" fill="rgb(0%,0%,100%)" r="0.7" /><circle cx="273.673899357" cy="319.176350968" fill="rgb(0%,0%,100%)" r="0.7" /><circle cx="273.748280935" cy="322.174775956" fill="rgb(0%,0%,100%)" r="0.7" /><circle cx="273.619063285" cy="325.171487292" fill="rgb(0%,0%,100%)" r="0.7" /><circle cx="273.310917631" cy="328.155225921" fill="rgb(0%,0%,100%)" r="0.7" /><circle cx="272.845657809" cy="331.118615111" fill="rgb(0%,0%,100%)" r="0.7" /><circle cx="272.242124403" cy="334.057031312" fill="rgb(0%,0%,100%)" r="0.7" /><circle cx="271.51638095" cy="336.967724384" fill="rgb(0%,0%,100%)" r="0.7" /><circle cx="270.6820297" cy="339.849202272" fill="rgb(0%,0%,100%)" r="0.7" /><circle cx="269.750551104" cy="342.700794478" fill="rgb(0%,0%,100%)" r="0.7" /><circle cx="268.731621029" cy="345.522344588" fill="rgb(0%,0%,100%)" r="0.7" /><circle cx="267.633385769" cy="348.313994828" fill="rgb(0%,0%,100%)" r="0.7" /><circle cx="266.462679663" cy="351.076053491" fill="rgb(0%,0%,100%)" r="0.7" /><circle cx="265.225208341" cy="353.80886271" fill="rgb(0%,0%,100%)" r="0.7" /><circle cx="263.925665006" cy="356.512729001" fill="rgb(0%,0%,100%)" r="0.7" /><circle cx="262.567823938" cy="359.187788623" fill="rgb(0%,0%,100%)" r="0.7" /><circle cx="261.154508755" cy="361.833964347" fill="rgb(0%,0%,100%)" r="0.7" /><circle cx="259.68749469" cy="364.450746653" fill="rgb(0%,0%,100%)" r="0.7" /><circle cx="258.167098035" cy="367.036885321" fill="rgb(0%,0%,100%)" r="0.7" /><circle cx="256.590942828" cy="369.589401392" fill="rgb(0%,0%,100%)" r="0.7" /><circle cx="254.946" cy="372.098" fill="rgb(0%,0%,100%)" r="0.7" /></svg>