<?xml version="1.0" encoding="utf-8" ?>
<svg baseProfile="full" height="100%" version="1.1" width="100%" xmlns="http://www.w3.org/2000/svg" xmlns:ev="http://www.w3.org/2001/xml-events" xmlns:xlink="http://www.w3.org/1999/xlink"><defs /><circle cx="339.952332838" cy="323.926474472" fill="rgb(100%,0%,0%)" r="0.7" /><circle cx="338.855724857" cy="323.973951975" fill="rgb(100%,0%,0%)" r="0.7" /><circle cx="337.764061922" cy="326.767923159" fill="rgb(100%,0%,0%)" r="0.7" /><circle cx="336.541155178" cy="329.507089489" fill="rgb(100%,0%,0%)" r="0.7" /><circle cx="335.198680466" cy="332.189688643" fill="rgb(100%,0%,0%)" r="0.7" /><circle cx="333.738890347" cy="334.810282055" fill="rgb(100%,0%,0%)" r="0.7" /><circle cx="332.16053683" cy="337.361189852" fill="rgb(100%,0%,0%)" r="0.7" /><circle cx="330.460640433" cy="339.83272424" fill="rgb(100%,0%,0%)" r="0.7" /><circle cx="328.63539553" cy="342.213131719" fill="rgb(100%,0%,0%)" r="0.7" /><circle cx="326.6808474" cy="344.488489965" fill="rgb(100%,0%,0%)" r="0.7" /><circle cx="324.593574554" cy="346.64264599" fill="rgb(100%,0%,0%)" r="0.7" /><circle cx="322.371464935" cy="348.657304215" fill="rgb(100%,0%,0%)" r="0.7" /><circle cx="320.014605152" cy="350.512381516" fill="rgb(100%,0%,0%)" r="0.7" /><circle cx="317.526221123" cy="352.186752307" fill="rgb(100%,0%,0%)" r="0.7" /><circle cx="314.913519344" cy="353.65946218" fill="rgb(100%,0%,0%)" r="0.7" /><circle cx="312.066659992" cy="354.452039311" fill="rgb(100%,0%,0%)" r="0.7" /><circle cx="309.150489607" cy="355.143493094" fill="rgb(100%,0%,0%)" r="0.7" /><circle cx="306.391071838" cy="356.30976425" fill="rgb(100%,0%,0%)" r="0.7" /><circle cx="303.747666929" cy="357.608118301" fill="rgb(100%,0%,0%)" r="0.7" /><circle cx="300.752845398" cy="357.735264167" fill="rgb(100%,0%,0%)" r="0.7" /><circle cx="297.762" cy="357.517" fill="rgb(100%,0%,0%)" r="0.7" /><circle cx="298.150501315" cy="357.538736377" fill="rgb(100%,0%,0%)" r="0.7" /><circle cx="299.681159647" cy="360.118869139" fill="rgb(100%,0%,0%)" r="0.7" /><circle cx="301.211817979" cy="362.699001901" fill="rgb(100%,0%,0%)" r="0.7" /><circle cx="302.742476312" cy="365.279134663" fill="rgb(100%,0%,0%)" r="0.7" /><circle cx="303.731750546" cy="367.75836361" fill="rgb(100%,0%,0%)" r="0.7" /><circle cx="301.374377984" cy="369.61384053" fill="rgb(100%,0%,0%)" r="0.7" /><circle cx="300.355295273" cy="371.144679865" fill="rgb(100%,0%,0%)" r="0.7" /><circle cx="303.344160192" cy="371.329848541" fill="rgb(100%,0%,0%)" r="0.7" /><circle cx="339.952332838" cy="323.926474472" fill="rgb(0%,0%,100%)" r="0.7" /><circle cx="341.266836553" cy="326.622472747" fill="rgb(0%,0%,100%)" r="0.7" /><circle cx="343.508870956" cy="325.764728534" fill="rgb(0%,0%,100%)" r="0.7" /><circle cx="343.960873577" cy="326.962374323" fill="rgb(0%,0%,100%)" r="0.7" /><circle cx="343.186241821" cy="329.860444584" fill="rgb(0%,0%,100%)" r="0.7" /><circle cx="342.299770466" cy="332.726280459" fill="rgb(0%,0%,100%)" r="0.7" /><circle cx="341.303257304" cy="335.555746511" fill="rgb(0%,0%,100%)" r="0.7" /><circle cx="340.198796805" cy="338.344843544" fill="rgb(0%,0%,100%)" r="0.7" /><circle cx="338.988680675" cy="341.08975561" fill="rgb(0%,0%,100%)" r="0.7" /><circle cx="337.675316903" cy="343.786788925" fill="rgb(0%,0%,100%)" r="0.7" /><circle cx="336.261110699" cy="346.432342805" fill="rgb(0%,0%,100%)" r="0.7" /><circle cx="334.748343173" cy="349.022798712" fill="rgb(0%,0%,100%)" r="0.7" /><circle cx="333.138993527" cy="351.554386839" fill="rgb(0%,0%,100%)" r="0.7" /><circle cx="331.434508124" cy="354.022912047" fill="rgb(0%,0%,100%)" r="0.7" /><circle cx="329.635372319" cy="356.423323638" fill="rgb(0%,0%,100%)" r="0.7" /><circle cx="327.740310887" cy="358.748710872" fill="rgb(0%,0%,100%)" r="0.7" /><circle cx="325.744045916" cy="360.987734704" fill="rgb(0%,0%,100%)" r="0.7" /><circle cx="323.625634938" cy="363.11107323" fill="rgb(0%,0%,100%)" r="0.7" /><circle cx="321.561871681" cy="365.275531139" fill="rgb(0%,0%,100%)" r="0.7" /><circle cx="321.409654604" cy="368.166394458" fill="rgb(0%,0%,100%)" r="0.7" /><circle cx="319.509440473" cy="370.213808301" fill="rgb(0%,0%,100%)" r="0.7" /><circle cx="316.527118982" cy="370.288178258" fill="rgb(0%,0%,100%)" r="0.7" /><circle cx="313.588589918" cy="369.695350659" fill="rgb(0%,0%,100%)" r="0.7" /><circle cx="310.724424519" cy="368.805466447" fill="rgb(0%,0%,100%)" r="0.7" /><circle cx="308.329302047" cy="368.606895145" fill="rgb(0%,0%,100%)" r="0.7" /><circle cx="306.253619933" cy="370.679813573" fill="rgb(0%,0%,100%)" r="0.7" /><circle cx="303.344160192" cy="371.329848541" fill="rgb(0%,0%,100%)" r="0.7" /></svg>