<?xml version="1.0" encoding="utf-8" ?>
<svg baseProfile="full" height="100%" version="1.1" width="100%" xmlns="http://www.w3.org/2000/svg" xmlns:ev="http://www.w3.org/2001/xml-events" xmlns:xlink="http://www.w3.org/1999/xlink"><defs /><circle cx="225.874192578" cy="295.145220433" fill="rgb(100%,0%,0%)" r="0.7" /><circle cx="222.934311568" cy="295.696209194" fill="rgb(100%,0%,0%)" r="0.7" /><circle cx="220.207962613" cy="296.934446035" fill="rgb(100%,0%,0%)" r="0.7" /><circle cx="217.75115025" cy="298.650769411" fill="rgb(100%,0%,0%)" r="0.7" /><circle cx="215.541223524" cy="300.677511389" fill="rgb(100%,0%,0%)" r="0.7" /><circle cx="213.438338826" cy="302.817034514" fill="rgb(100%,0%,0%)" r="0.7" /><circle cx="211.377116745" cy="304.996775551" fill="rgb(100%,0%,0%)" r="0.7" /><circle cx="209.352023234" cy="307.210075782" fill="rgb(100%,0%,0%)" r="0.7" /><circle cx="207.361279239" cy="309.454343846" fill="rgb(100%,0%,0%)" r="0.7" /><circle cx="205.404504185" cy="311.728300482" fill="rgb(100%,0%,0%)" r="0.7" /><circle cx="203.482043363" cy="314.031349989" fill="rgb(100%,0%,0%)" r="0.7" /><circle cx="201.594746031" cy="316.363291089" fill="rgb(100%,0%,0%)" r="0.7" /><circle cx="199.743837897" cy="318.724212511" fill="rgb(100%,0%,0%)" r="0.7" /><circle cx="197.930890624" cy="321.114401499" fill="rgb(100%,0%,0%)" r="0.7" /><circle cx="196.157797947" cy="323.534310673" fill="rgb(100%,0%,0%)" r="0.7" /><circle cx="194.426802319" cy="325.984496948" fill="rgb(100%,0%,0%)" r="0.7" /><circle cx="192.74047809" cy="328.465646373" fill="rgb(100%,0%,0%)" r="0.7" /><circle cx="191.101799708" cy="330.978498623" fill="rgb(100%,0%,0%)" r="0.7" /><circle cx="189.514137987" cy="333.523891104" fill="rgb(100%,0%,0%)" r="0.7" /><circle cx="187.981345005" cy="336.102683776" fill="rgb(100%,0%,0%)" r="0.7" /><circle cx="186.507789282" cy="338.715771082" fill="rgb(100%,0%,0%)" r="0.7" /><circle cx="185.098439138" cy="341.364026802" fill="rgb(100%,0%,0%)" r="0.7" /><circle cx="183.75893533" cy="344.048273969" fill="rgb(100%,0%,0%)" r="0.7" /><circle cx="182.495684567" cy="346.769222681" fill="rgb(100%,0%,0%)" r="0.7" /><circle cx="181.315959676" cy="349.527392293" fill="rgb(100%,0%,0%)" r="0.7" /><circle cx="180.228005293" cy="352.323009054" fill="rgb(100%,0%,0%)" r="0.7" /><circle cx="179.241147031" cy="355.155860736" fill="rgb(100%,0%,0%)" r="0.7" /><circle cx="178.3658835" cy="358.025124771" fill="rgb(100%,0%,0%)" r="0.7" /><circle cx="177.613960948" cy="360.929107745" fill="rgb(100%,0%,0%)" r="0.7" /><circle cx="176.998376005" cy="363.864967927" fill="rgb(100%,0%,0%)" r="0.7" /><circle cx="176.533290752" cy="366.828340675" fill="rgb(100%,0%,0%)" r="0.7" /><circle cx="176.233788705" cy="369.812929901" fill="rgb(100%,0%,0%)" r="0.7" /><circle cx="176.115412366" cy="372.810096315" fill="rgb(100%,0%,0%)" r="0.7" /><circle cx="176.193425042" cy="375.808504194" fill="rgb(100%,0%,0%)" r="0.7" /><circle cx="176.481769693" cy="378.793953077" fill="rgb(100%,0%,0%)" r="0.7" /><circle cx="176.876632368" cy="381.766284811" fill="rgb(100%,0%,0%)" r="0.7" /><circle cx="177.576476084" cy="384.682187954" fill="rgb(100%,0%,0%)" r="0.7" /><circle cx="178.571017187" cy="387.511081283" fill="rgb(100%,0%,0%)" r="0.7" /><circle cx="179.869135613" cy="390.213852711" fill="rgb(100%,0%,0%)" r="0.7" /><circle cx="181.484113043" cy="392.739656996" fill="rgb(100%,0%,0%)" r="0.7" /><circle cx="183.420337543" cy="395.028008497" fill="rgb(100%,0%,0%)" r="0.7" /><circle cx="185.662909892" cy="397.01667642" fill="rgb(100%,0%,0%)" r="0.7" /><circle cx="188.17274293" cy="398.655148594" fill="rgb(100%,0%,0%)" r="0.7" /><circle cx="190.857355496" cy="399.991976103" fill="rgb(100%,0%,0%)" r="0.7" /><circle cx="193.523125924" cy="401.368057083" fill="rgb(100%,0%,0%)" r="0.7" /><circle cx="196.186138774" cy="402.749519294" fill="rgb(100%,0%,0%)" r="0.7" /><circle cx="198.846878474" cy="404.135226776" fill="rgb(100%,0%,0%)" r="0.7" /><circle cx="201.505698838" cy="405.524767111" fill="rgb(100%,0%,0%)" r="0.7" /><circle cx="204.162654932" cy="406.917830226" fill="rgb(100%,0%,0%)" r="0.7" /><circle cx="206.817840104" cy="408.314250949" fill="rgb(100%,0%,0%)" r="0.7" /><circle cx="209.471299755" cy="409.713911495" fill="rgb(100%,0%,0%)" r="0.7" /><circle cx="212.123135454" cy="411.116770819" fill="rgb(100%,0%,0%)" r="0.7" /><circle cx="214.773251306" cy="412.522716259" fill="rgb(100%,0%,0%)" r="0.7" /><circle cx="217.421760378" cy="413.931770165" fill="rgb(100%,0%,0%)" r="0.7" /><circle cx="220.068644875" cy="415.343904537" fill="rgb(100%,0%,0%)" r="0.7" /><circle cx="222.713867352" cy="416.759096061" fill="rgb(100%,0%,0%)" r="0.7" /><circle cx="225.357448444" cy="418.177365269" fill="rgb(100%,0%,0%)" r="0.7" /><circle cx="227.999361663" cy="419.598718575" fill="rgb(100%,0%,0%)" r="0.7" /><circle cx="230.639612202" cy="421.023189279" fill="rgb(100%,0%,0%)" r="0.7" /><circle cx="233.278195309" cy="422.450814396" fill="rgb(100%,0%,0%)" r="0.7" /><circle cx="235.914994666" cy="423.881578758" fill="rgb(100%,0%,0%)" r="0.7" /><circle cx="238.550074931" cy="425.315573162" fill="rgb(100%,0%,0%)" r="0.7" /><circle cx="241.183381613" cy="426.752831518" fill="rgb(100%,0%,0%)" r="0.7" /><circle cx="243.814883786" cy="428.193408006" fill="rgb(100%,0%,0%)" r="0.7" /><circle cx="246.44454037" cy="429.637358722" fill="rgb(100%,0%,0%)" r="0.7" /><circle cx="249.072279425" cy="431.084730243" fill="rgb(100%,0%,0%)" r="0.7" /><circle cx="251.698107715" cy="432.53562015" fill="rgb(100%,0%,0%)" r="0.7" /><circle cx="254.321959957" cy="433.990094267" fill="rgb(100%,0%,0%)" r="0.7" /><circle cx="256.943754387" cy="435.448217288" fill="rgb(100%,0%,0%)" r="0.7" /><circle cx="259.563468127" cy="436.910095132" fill="rgb(100%,0%,0%)" r="0.7" /><circle cx="262.181036059" cy="438.375819245" fill="rgb(100%,0%,0%)" r="0.7" /><circle cx="264.796392411" cy="439.845490153" fill="rgb(100%,0%,0%)" r="0.7" /><circle cx="267.409468116" cy="441.319216596" fill="rgb(100%,0%,0%)" r="0.7" /><circle cx="270.020184853" cy="442.797112836" fill="rgb(100%,0%,0%)" r="0.7" /><circle cx="272.628457597" cy="444.279300842" fill="rgb(100%,0%,0%)" r="0.7" /><circle cx="275.234212379" cy="445.765921302" fill="rgb(100%,0%,0%)" r="0.7" /><circle cx="277.837355514" cy="447.257117159" fill="rgb(100%,0%,0%)" r="0.7" /><circle cx="280.43778422" cy="448.753040718" fill="rgb(100%,0%,0%)" r="0.7" /><circle cx="283.035389002" cy="450.253856287" fill="rgb(100%,0%,0%)" r="0.7" /><circle cx="285.630058695" cy="451.759744588" fill="rgb(100%,0%,0%)" r="0.7" /><circle cx="288.221664335" cy="453.270895095" fill="rgb(100%,0%,0%)" r="0.7" /><circle cx="290.81007411" cy="454.787516604" fill="rgb(100%,0%,0%)" r="0.7" /><circle cx="293.395142685" cy="456.30983322" fill="rgb(100%,0%,0%)" r="0.7" /><circle cx="295.976704657" cy="457.838082946" fill="rgb(100%,0%,0%)" r="0.7" /><circle cx="298.554585309" cy="459.372526874" fill="rgb(100%,0%,0%)" r="0.7" /><circle cx="301.128595452" cy="460.913449492" fill="rgb(100%,0%,0%)" r="0.7" /><circle cx="303.698529116" cy="462.461161194" fill="rgb(100%,0%,0%)" r="0.7" /><circle cx="306.264160447" cy="464.016000935" fill="rgb(100%,0%,0%)" r="0.7" /><circle cx="308.82523962" cy="465.57833904" fill="rgb(100%,0%,0%)" r="0.7" /><circle cx="311.381487493" cy="467.148580149" fill="rgb(100%,0%,0%)" r="0.7" /><circle cx="313.9325887" cy="468.727166271" fill="rgb(100%,0%,0%)" r="0.7" /><circle cx="316.478182762" cy="470.314579923" fill="rgb(100%,0%,0%)" r="0.7" /><circle cx="319.017916772" cy="471.911387743" fill="rgb(100%,0%,0%)" r="0.7" /><circle cx="321.551321117" cy="473.518175509" fill="rgb(100%,0%,0%)" r="0.7" /><circle cx="324.077953876" cy="475.13565479" fill="rgb(100%,0%,0%)" r="0.7" /><circle cx="326.597213836" cy="476.764563435" fill="rgb(100%,0%,0%)" r="0.7" /><circle cx="329.108469571" cy="478.405771496" fill="rgb(100%,0%,0%)" r="0.7" /><circle cx="331.610962616" cy="480.060248956" fill="rgb(100%,0%,0%)" r="0.7" /><circle cx="334.103931071" cy="481.72918655" fill="rgb(100%,0%,0%)" r="0.7" /><circle cx="336.586264136" cy="483.413815078" fill="rgb(100%,0%,0%)" r="0.7" /><circle cx="339.056820816" cy="485.115682558" fill="rgb(100%,0%,0%)" r="0.7" /><circle cx="341.514142787" cy="486.836547186" fill="rgb(100%,0%,0%)" r="0.7" /><circle cx="343.956566797" cy="488.578572738" fill="rgb(100%,0%,0%)" r="0.7" /><circle cx="346.381879596" cy="490.344248033" fill="rgb(100%,0%,0%)" r="0.7" /><circle cx="348.787505147" cy="492.13675365" fill="rgb(100%,0%,0%)" r="0.7" /><circle cx="351.169911095" cy="493.959868103" fill="rgb(100%,0%,0%)" r="0.7" /><circle cx="353.52470907" cy="495.818559686" fill="rgb(100%,0%,0%)" r="0.7" /><circle cx="355.845824997" cy="497.719175641" fill="rgb(100%,0%,0%)" r="0.7" /><circle cx="358.124703831" cy="499.670169947" fill="rgb(100%,0%,0%)" r="0.7" /><circle cx="360.348794555" cy="501.683283924" fill="rgb(100%,0%,0%)" r="0.7" /><circle cx="362.498464906" cy="503.775582075" fill="rgb(100%,0%,0%)" r="0.7" /><circle cx="363.95475551" cy="504.757006574" fill="rgb(100%,0%,0%)" r="0.7" /><circle cx="225.874192578" cy="295.145220433" fill="rgb(0%,0%,100%)" r="0.7" /><circle cx="228.85118373" cy="295.424281725" fill="rgb(0%,0%,100%)" r="0.7" /><circle cx="231.652758487" cy="296.476261037" fill="rgb(0%,0%,100%)" r="0.7" /><circle cx="234.167208557" cy="298.104513087" fill="rgb(0%,0%,100%)" r="0.7" /><circle cx="236.384422145" cy="300.121659369" fill="rgb(0%,0%,100%)" r="0.7" /><circle cx="238.330399404" cy="302.402799389" fill="rgb(0%,0%,100%)" r="0.7" /><circle cx="240.021940584" cy="304.878788414" fill="rgb(0%,0%,100%)" r="0.7" /><circle cx="240.761165492" cy="307.724531063" fill="rgb(0%,0%,100%)" r="0.7" /><circle cx="240.331255215" cy="310.679500829" fill="rgb(0%,0%,100%)" r="0.7" /><circle cx="238.952583009" cy="313.32928748" fill="rgb(0%,0%,100%)" r="0.7" /><circle cx="236.881738894" cy="315.489680618" fill="rgb(0%,0%,100%)" r="0.7" /><circle cx="234.412285289" cy="317.186826512" fill="rgb(0%,0%,100%)" r="0.7" /><circle cx="231.723615366" cy="318.513469855" fill="rgb(0%,0%,100%)" r="0.7" /><circle cx="228.90836115" cy="319.546786073" fill="rgb(0%,0%,100%)" r="0.7" /><circle cx="226.013683711" cy="320.33148067" fill="rgb(0%,0%,100%)" r="0.7" /><circle cx="223.199003077" cy="321.258205881" fill="rgb(0%,0%,100%)" r="0.7" /><circle cx="220.946765724" cy="323.233439892" fill="rgb(0%,0%,100%)" r="0.7" /><circle cx="218.9340713" cy="325.457241468" fill="rgb(0%,0%,100%)" r="0.7" /><circle cx="217.042083663" cy="327.785160137" fill="rgb(0%,0%,100%)" r="0.7" /><circle cx="215.22701819" cy="330.173677556" fill="rgb(0%,0%,100%)" r="0.7" /><circle cx="213.467426243" cy="332.603400617" fill="rgb(0%,0%,100%)" r="0.7" /><circle cx="211.751306987" cy="335.064037893" fill="rgb(0%,0%,100%)" r="0.7" /><circle cx="210.071747137" cy="337.549792259" fill="rgb(0%,0%,100%)" r="0.7" /><circle cx="208.425775855" cy="340.057904094" fill="rgb(0%,0%,100%)" r="0.7" /><circle cx="206.790377672" cy="342.572662824" fill="rgb(0%,0%,100%)" r="0.7" /><circle cx="205.162321097" cy="345.092307937" fill="rgb(0%,0%,100%)" r="0.7" /><circle cx="203.626882599" cy="347.669366316" fill="rgb(0%,0%,100%)" r="0.7" /><circle cx="202.207348896" cy="350.311923541" fill="rgb(0%,0%,100%)" r="0.7" /><circle cx="200.938781538" cy="353.029947564" fill="rgb(0%,0%,100%)" r="0.7" /><circle cx="199.878893665" cy="355.835424018" fill="rgb(0%,0%,100%)" r="0.7" /><circle cx="199.138791554" cy="358.740133054" fill="rgb(0%,0%,100%)" r="0.7" /><circle cx="199.046309921" cy="361.723562698" fill="rgb(0%,0%,100%)" r="0.7" /><circle cx="200.100737993" cy="364.511523625" fill="rgb(0%,0%,100%)" r="0.7" /><circle cx="201.841003762" cy="366.951079887" fill="rgb(0%,0%,100%)" r="0.7" /><circle cx="203.865389038" cy="369.16375375" fill="rgb(0%,0%,100%)" r="0.7" /><circle cx="206.043635365" cy="371.225978173" fill="rgb(0%,0%,100%)" r="0.7" /><circle cx="208.319568049" cy="373.180170186" fill="rgb(0%,0%,100%)" r="0.7" /><circle cx="210.664012663" cy="375.051762613" fill="rgb(0%,0%,100%)" r="0.7" /><circle cx="213.059915712" cy="376.85708392" fill="rgb(0%,0%,100%)" r="0.7" /><circle cx="215.496524627" cy="378.607119133" fill="rgb(0%,0%,100%)" r="0.7" /><circle cx="217.966745562" cy="380.309401069" fill="rgb(0%,0%,100%)" r="0.7" /><circle cx="220.465881887" cy="381.96896468" fill="rgb(0%,0%,100%)" r="0.7" /><circle cx="222.991082349" cy="383.588594537" fill="rgb(0%,0%,100%)" r="0.7" /><circle cx="225.541702992" cy="385.167879273" fill="rgb(0%,0%,100%)" r="0.7" /><circle cx="228.10442106" cy="386.727159718" fill="rgb(0%,0%,100%)" r="0.7" /><circle cx="230.648668598" cy="388.316763715" fill="rgb(0%,0%,100%)" r="0.7" /><circle cx="233.191180102" cy="389.909136494" fill="rgb(0%,0%,100%)" r="0.7" /><circle cx="235.732496881" cy="391.503431512" fill="rgb(0%,0%,100%)" r="0.7" /><circle cx="238.272913688" cy="393.099157082" fill="rgb(0%,0%,100%)" r="0.7" /><circle cx="240.812604723" cy="394.695993284" fill="rgb(0%,0%,100%)" r="0.7" /><circle cx="243.351739035" cy="396.293753847" fill="rgb(0%,0%,100%)" r="0.7" /><circle cx="245.890386532" cy="397.892272885" fill="rgb(0%,0%,100%)" r="0.7" /><circle cx="248.428624853" cy="399.491442745" fill="rgb(0%,0%,100%)" r="0.7" /><circle cx="250.96651608" cy="401.091182203" fill="rgb(0%,0%,100%)" r="0.7" /><circle cx="253.504084888" cy="402.691412026" fill="rgb(0%,0%,100%)" r="0.7" /><circle cx="256.04137409" cy="404.292083078" fill="rgb(0%,0%,100%)" r="0.7" /><circle cx="258.578418221" cy="405.893155" fill="rgb(0%,0%,100%)" r="0.7" /><circle cx="261.115231465" cy="407.494585343" fill="rgb(0%,0%,100%)" r="0.7" /><circle cx="263.651837849" cy="409.096346301" fill="rgb(0%,0%,100%)" r="0.7" /><circle cx="266.18825141" cy="410.698410505" fill="rgb(0%,0%,100%)" r="0.7" /><circle cx="268.724488293" cy="412.300757411" fill="rgb(0%,0%,100%)" r="0.7" /><circle cx="271.26055961" cy="413.90336785" fill="rgb(0%,0%,100%)" r="0.7" /><circle cx="273.796466927" cy="415.506220477" fill="rgb(0%,0%,100%)" r="0.7" /><circle cx="276.332237861" cy="417.109313748" fill="rgb(0%,0%,100%)" r="0.7" /><circle cx="278.867866528" cy="418.712627905" fill="rgb(0%,0%,100%)" r="0.7" /><circle cx="281.403357969" cy="420.31615282" fill="rgb(0%,0%,100%)" r="0.7" /><circle cx="283.938718091" cy="421.919881531" fill="rgb(0%,0%,100%)" r="0.7" /><circle cx="286.473953861" cy="423.523810429" fill="rgb(0%,0%,100%)" r="0.7" /><circle cx="289.009063748" cy="425.127933497" fill="rgb(0%,0%,100%)" r="0.7" /><circle cx="291.544052627" cy="426.732252434" fill="rgb(0%,0%,100%)" r="0.7" /><circle cx="294.078929004" cy="428.33677643" fill="rgb(0%,0%,100%)" r="0.7" /><circle cx="296.613647806" cy="429.941489627" fill="rgb(0%,0%,100%)" r="0.7" /><circle cx="299.148255252" cy="431.54645444" fill="rgb(0%,0%,100%)" r="0.7" /><circle cx="301.680682921" cy="433.154605688" fill="rgb(0%,0%,100%)" r="0.7" /><circle cx="304.133267725" cy="434.881663175" fill="rgb(0%,0%,100%)" r="0.7" /><circle cx="306.522055171" cy="436.69644068" fill="rgb(0%,0%,100%)" r="0.7" /><circle cx="308.876138897" cy="438.556006466" fill="rgb(0%,0%,100%)" r="0.7" /><circle cx="311.20753911" cy="440.444015913" fill="rgb(0%,0%,100%)" r="0.7" /><circle cx="313.522517669" cy="442.352111576" fill="rgb(0%,0%,100%)" r="0.7" /><circle cx="315.82490866" cy="444.275407768" fill="rgb(0%,0%,100%)" r="0.7" /><circle cx="318.117197576" cy="446.210707028" fill="rgb(0%,0%,100%)" r="0.7" /><circle cx="320.401158639" cy="448.155828245" fill="rgb(0%,0%,100%)" r="0.7" /><circle cx="322.678078395" cy="450.109180413" fill="rgb(0%,0%,100%)" r="0.7" /><circle cx="324.948953378" cy="452.069586335" fill="rgb(0%,0%,100%)" r="0.7" /><circle cx="327.214519096" cy="454.03610058" fill="rgb(0%,0%,100%)" r="0.7" /><circle cx="329.475403608" cy="456.008011443" fill="rgb(0%,0%,100%)" r="0.7" /><circle cx="331.732085347" cy="457.984718252" fill="rgb(0%,0%,100%)" r="0.7" /><circle cx="333.984982073" cy="459.965749862" fill="rgb(0%,0%,100%)" r="0.7" /><circle cx="336.234421375" cy="461.950697327" fill="rgb(0%,0%,100%)" r="0.7" /><circle cx="338.480694685" cy="463.939231381" fill="rgb(0%,0%,100%)" r="0.7" /><circle cx="340.724041027" cy="465.931066104" fill="rgb(0%,0%,100%)" r="0.7" /><circle cx="342.964665503" cy="467.925958735" fill="rgb(0%,0%,100%)" r="0.7" /><circle cx="345.202751778" cy="469.923708324" fill="rgb(0%,0%,100%)" r="0.7" /><circle cx="347.438445432" cy="471.924131378" fill="rgb(0%,0%,100%)" r="0.7" /><circle cx="349.671877829" cy="473.927075912" fill="rgb(0%,0%,100%)" r="0.7" /><circle cx="351.903162749" cy="475.9324131" fill="rgb(0%,0%,100%)" r="0.7" /><circle cx="354.132396794" cy="477.940033807" fill="rgb(0%,0%,100%)" r="0.7" /><circle cx="356.359655244" cy="479.949842465" fill="rgb(0%,0%,100%)" r="0.7" /><circle cx="358.585003403" cy="481.961766443" fill="rgb(0%,0%,100%)" r="0.7" /><circle cx="360.808475358" cy="483.975737876" fill="rgb(0%,0%,100%)" r="0.7" /><circle cx="363.030129115" cy="485.991747406" fill="rgb(0%,0%,100%)" r="0.7" /><circle cx="365.249946532" cy="488.009761967" fill="rgb(0%,0%,100%)" r="0.7" /><circle cx="367.467934828" cy="490.029834868" fill="rgb(0%,0%,100%)" r="0.7" /><circle cx="369.683972757" cy="492.052007146" fill="rgb(0%,0%,100%)" r="0.7" /><circle cx="371.897897825" cy="494.076505766" fill="rgb(0%,0%,100%)" r="0.7" /><circle cx="374.109" cy="496.104" fill="rgb(0%,0%,100%)" r="0.7" /><circle cx="373.235485419" cy="496.20994778" fill="rgb(0%,0%,100%)" r="0.7" /><circle cx="370.257311461" cy="496.571167758" fill="rgb(0%,0%,100%)" r="0.7" /><circle cx="367.279137502" cy="496.932387736" fill="rgb(0%,0%,100%)" r="0.7" /><circle cx="364.300963544" cy="497.293607714" fill="rgb(0%,0%,100%)" r="0.7" /><circle cx="362.926112942" cy="498.845839644" fill="rgb(0%,0%,100%)" r="0.7" /><circle cx="363.440434226" cy="501.801423109" fill="rgb(0%,0%,100%)" r="0.7" /><circle cx="363.95475551" cy="504.757006574" fill="rgb(0%,0%,100%)" r="0.7" /></svg>