<?xml version="1.0" encoding="utf-8" ?>
<svg baseProfile="full" height="100%" version="1.1" width="100%" xmlns="http://www.w3.org/2000/svg" xmlns:ev="http://www.w3.org/2001/xml-events" xmlns:xlink="http://www.w3.org/1999/xlink"><defs /><circle cx="292.584985555" cy="302.791544048" fill="rgb(100%,0%,0%)" r="0.7" /><circle cx="290.19191644" cy="304.452809205" fill="rgb(100%,0%,0%)" r="0.7" /><circle cx="288.875627359" cy="307.137726426" fill="rgb(100%,0%,0%)" r="0.7" /><circle cx="288.053287722" cy="310.021854561" fill="rgb(100%,0%,0%)" r="0.7" /><circle cx="287.440444697" cy="312.958073023" fill="rgb(100%,0%,0%)" r="0.7" /><circle cx="287.007755768" cy="315.926265585" fill="rgb(100%,0%,0%)" r="0.7" /><circle cx="286.748850407" cy="318.914653217" fill="rgb(100%,0%,0%)" r="0.7" /><circle cx="286.663305029" cy="321.913014278" fill="rgb(100%,0%,0%)" r="0.7" /><circle cx="286.752944788" cy="324.911240521" fill="rgb(100%,0%,0%)" r="0.7" /><circle cx="287.021424863" cy="327.898631856" fill="rgb(100%,0%,0%)" r="0.7" /><circle cx="287.56971781" cy="330.848140774" fill="rgb(100%,0%,0%)" r="0.7" /><circle cx="288.124198042" cy="333.796437096" fill="rgb(100%,0%,0%)" r="0.7" /><circle cx="288.683499713" cy="336.743836273" fill="rgb(100%,0%,0%)" r="0.7" /><circle cx="289.247256715" cy="339.690412042" fill="rgb(100%,0%,0%)" r="0.7" /><circle cx="289.815337308" cy="342.636126829" fill="rgb(100%,0%,0%)" r="0.7" /><circle cx="290.387746541" cy="345.581009367" fill="rgb(100%,0%,0%)" r="0.7" /><circle cx="290.964560495" cy="348.525044917" fill="rgb(100%,0%,0%)" r="0.7" /><circle cx="291.545907192" cy="351.468172693" fill="rgb(100%,0%,0%)" r="0.7" /><circle cx="292.131976472" cy="354.410372918" fill="rgb(100%,0%,0%)" r="0.7" /><circle cx="292.723002325" cy="357.351583825" fill="rgb(100%,0%,0%)" r="0.7" /><circle cx="293.319270317" cy="360.291726914" fill="rgb(100%,0%,0%)" r="0.7" /><circle cx="293.921129549" cy="363.230737004" fill="rgb(100%,0%,0%)" r="0.7" /><circle cx="294.528991922" cy="366.168513542" fill="rgb(100%,0%,0%)" r="0.7" /><circle cx="295.143347516" cy="369.104933006" fill="rgb(100%,0%,0%)" r="0.7" /><circle cx="295.764785461" cy="372.039863137" fill="rgb(100%,0%,0%)" r="0.7" /><circle cx="296.394013005" cy="374.973136418" fill="rgb(100%,0%,0%)" r="0.7" /><circle cx="297.03188702" cy="377.904538536" fill="rgb(100%,0%,0%)" r="0.7" /><circle cx="297.67946323" cy="380.833813941" fill="rgb(100%,0%,0%)" r="0.7" /><circle cx="298.33805625" cy="383.760623146" fill="rgb(100%,0%,0%)" r="0.7" /><circle cx="299.009345015" cy="386.6845517" fill="rgb(100%,0%,0%)" r="0.7" /><circle cx="299.695513071" cy="389.605022865" fill="rgb(100%,0%,0%)" r="0.7" /><circle cx="300.399497853" cy="392.52125432" fill="rgb(100%,0%,0%)" r="0.7" /><circle cx="301.125401875" cy="395.43210877" fill="rgb(100%,0%,0%)" r="0.7" /><circle cx="301.879256346" cy="398.335823838" fill="rgb(100%,0%,0%)" r="0.7" /><circle cx="302.670619056" cy="401.229551583" fill="rgb(100%,0%,0%)" r="0.7" /><circle cx="303.516282596" cy="404.107825195" fill="rgb(100%,0%,0%)" r="0.7" /><circle cx="304.451585439" cy="406.958053707" fill="rgb(100%,0%,0%)" r="0.7" /><circle cx="305.584952966" cy="409.733894695" fill="rgb(100%,0%,0%)" r="0.7" /><circle cx="292.584985555" cy="302.791544048" fill="rgb(0%,0%,100%)" r="0.7" /><circle cx="295.356042251" cy="303.726399164" fill="rgb(0%,0%,100%)" r="0.7" /><circle cx="297.632527056" cy="305.670476238" fill="rgb(0%,0%,100%)" r="0.7" /><circle cx="299.726611141" cy="307.815535823" fill="rgb(0%,0%,100%)" r="0.7" /><circle cx="301.589243207" cy="310.166265296" fill="rgb(0%,0%,100%)" r="0.7" /><circle cx="303.295520076" cy="312.63334571" fill="rgb(0%,0%,100%)" r="0.7" /><circle cx="304.886889072" cy="315.176253203" fill="rgb(0%,0%,100%)" r="0.7" /><circle cx="306.388083331" cy="317.773500845" fill="rgb(0%,0%,100%)" r="0.7" /><circle cx="307.814420811" cy="320.412639078" fill="rgb(0%,0%,100%)" r="0.7" /><circle cx="309.17483438" cy="323.086377043" fill="rgb(0%,0%,100%)" r="0.7" /><circle cx="310.471476518" cy="325.791610924" fill="rgb(0%,0%,100%)" r="0.7" /><circle cx="311.620854068" cy="328.561138744" fill="rgb(0%,0%,100%)" r="0.7" /><circle cx="312.648082127" cy="331.379739376" fill="rgb(0%,0%,100%)" r="0.7" /><circle cx="313.620633489" cy="334.217675892" fill="rgb(0%,0%,100%)" r="0.7" /><circle cx="314.540549687" cy="337.073111587" fill="rgb(0%,0%,100%)" r="0.7" /><circle cx="315.409769167" cy="339.944389078" fill="rgb(0%,0%,100%)" r="0.7" /><circle cx="316.2301256" cy="342.830010735" fill="rgb(0%,0%,100%)" r="0.7" /><circle cx="317.003347664" cy="345.728621112" fill="rgb(0%,0%,100%)" r="0.7" /><circle cx="317.731059383" cy="348.638989501" fill="rgb(0%,0%,100%)" r="0.7" /><circle cx="318.41478547" cy="351.560012859" fill="rgb(0%,0%,100%)" r="0.7" /><circle cx="319.055945105" cy="354.490671604" fill="rgb(0%,0%,100%)" r="0.7" /><circle cx="319.655861763" cy="357.430053583" fill="rgb(0%,0%,100%)" r="0.7" /><circle cx="320.215757964" cy="360.377315091" fill="rgb(0%,0%,100%)" r="0.7" /><circle cx="320.736763306" cy="363.33170948" fill="rgb(0%,0%,100%)" r="0.7" /><circle cx="321.219905199" cy="366.292530237" fill="rgb(0%,0%,100%)" r="0.7" /><circle cx="321.666114549" cy="369.259139145" fill="rgb(0%,0%,100%)" r="0.7" /><circle cx="322.076223285" cy="372.23096487" fill="rgb(0%,0%,100%)" r="0.7" /><circle cx="322.450952892" cy="375.207446046" fill="rgb(0%,0%,100%)" r="0.7" /><circle cx="322.790917363" cy="378.188099729" fill="rgb(0%,0%,100%)" r="0.7" /><circle cx="323.096605994" cy="381.172476151" fill="rgb(0%,0%,100%)" r="0.7" /><circle cx="323.368364864" cy="384.160132868" fill="rgb(0%,0%,100%)" r="0.7" /><circle cx="323.606374703" cy="387.150662058" fill="rgb(0%,0%,100%)" r="0.7" /><circle cx="323.810609859" cy="390.143683645" fill="rgb(0%,0%,100%)" r="0.7" /><circle cx="323.980772313" cy="393.13884236" fill="rgb(0%,0%,100%)" r="0.7" /><circle cx="324.116175573" cy="396.135750364" fill="rgb(0%,0%,100%)" r="0.7" /><circle cx="324.215535396" cy="399.134092058" fill="rgb(0%,0%,100%)" r="0.7" /><circle cx="324.276494648" cy="402.133465234" fill="rgb(0%,0%,100%)" r="0.7" /><circle cx="324.294311512" cy="405.133385114" fill="rgb(0%,0%,100%)" r="0.7" /><circle cx="324.254" cy="408.133" fill="rgb(0%,0%,100%)" r="0.7" /><circle cx="321.511169383" cy="407.012500603" fill="rgb(0%,0%,100%)" r="0.7" /><circle cx="318.733972584" cy="405.877961956" fill="rgb(0%,0%,100%)" r="0.7" /><circle cx="315.956775786" cy="404.743423309" fill="rgb(0%,0%,100%)" r="0.7" /><circle cx="313.179578987" cy="403.608884662" fill="rgb(0%,0%,100%)" r="0.7" /><circle cx="310.402382188" cy="402.474346015" fill="rgb(0%,0%,100%)" r="0.7" /><circle cx="308.707474902" cy="404.630732602" fill="rgb(0%,0%,100%)" r="0.7" /><circle cx="307.145788137" cy="407.192203752" fill="rgb(0%,0%,100%)" r="0.7" /><circle cx="305.584952966" cy="409.733894695" fill="rgb(0%,0%,100%)" r="0.7" /></svg>