<?xml version="1.0" encoding="utf-8" ?>
<svg baseProfile="full" height="100%" version="1.1" width="100%" xmlns="http://www.w3.org/2000/svg" xmlns:ev="http://www.w3.org/2001/xml-events" xmlns:xlink="http://www.w3.org/1999/xlink"><defs /><circle cx="283.250003251" cy="332.56914232" fill="rgb(100%,0%,0%)" r="0.7" /><circle cx="280.270322353" cy="332.642014009" fill="rgb(100%,0%,0%)" r="0.7" /><circle cx="277.629627887" cy="334.003791523" fill="rgb(100%,0%,0%)" r="0.7" /><circle cx="275.772274462" cy="336.340447147" fill="rgb(100%,0%,0%)" r="0.7" /><circle cx="274.611755352" cy="339.101609557" fill="rgb(100%,0%,0%)" r="0.7" /><circle cx="273.450513513" cy="341.867512636" fill="rgb(100%,0%,0%)" r="0.7" /><circle cx="272.184824732" cy="344.587269743" fill="rgb(100%,0%,0%)" r="0.7" /><circle cx="270.830260462" cy="347.263923263" fill="rgb(100%,0%,0%)" r="0.7" /><circle cx="269.394340048" cy="349.897817139" fill="rgb(100%,0%,0%)" r="0.7" /><circle cx="267.881522492" cy="352.488329635" fill="rgb(100%,0%,0%)" r="0.7" /><circle cx="266.294787682" cy="355.03424654" fill="rgb(100%,0%,0%)" r="0.7" /><circle cx="264.636278324" cy="357.533995469" fill="rgb(100%,0%,0%)" r="0.7" /><circle cx="262.907629173" cy="359.985767575" fill="rgb(100%,0%,0%)" r="0.7" /><circle cx="261.110186496" cy="362.387552213" fill="rgb(100%,0%,0%)" r="0.7" /><circle cx="259.245111347" cy="364.737216321" fill="rgb(100%,0%,0%)" r="0.7" /><circle cx="257.313510486" cy="367.032484823" fill="rgb(100%,0%,0%)" r="0.7" /><circle cx="255.316443648" cy="369.271042166" fill="rgb(100%,0%,0%)" r="0.7" /><circle cx="253.255042271" cy="371.450478357" fill="rgb(100%,0%,0%)" r="0.7" /><circle cx="251.130472586" cy="373.56840052" fill="rgb(100%,0%,0%)" r="0.7" /><circle cx="248.94404243" cy="375.622378982" fill="rgb(100%,0%,0%)" r="0.7" /><circle cx="246.697153855" cy="377.610046558" fill="rgb(100%,0%,0%)" r="0.7" /><circle cx="244.391371278" cy="379.529077123" fill="rgb(100%,0%,0%)" r="0.7" /><circle cx="242.028403683" cy="381.377241483" fill="rgb(100%,0%,0%)" r="0.7" /><circle cx="239.610132199" cy="383.15241814" fill="rgb(100%,0%,0%)" r="0.7" /><circle cx="239.869330809" cy="384.138292176" fill="rgb(100%,0%,0%)" r="0.7" /><circle cx="242.85896566" cy="384.3874577" fill="rgb(100%,0%,0%)" r="0.7" /><circle cx="245.848600511" cy="384.636623224" fill="rgb(100%,0%,0%)" r="0.7" /><circle cx="246.748436774" cy="386.678243985" fill="rgb(100%,0%,0%)" r="0.7" /><circle cx="246.539412206" cy="389.670953247" fill="rgb(100%,0%,0%)" r="0.7" /><circle cx="246.330387637" cy="392.66366251" fill="rgb(100%,0%,0%)" r="0.7" /><circle cx="246.121363068" cy="395.656371772" fill="rgb(100%,0%,0%)" r="0.7" /><circle cx="246.085" cy="396.177" fill="rgb(100%,0%,0%)" r="0.7" /><circle cx="283.250003251" cy="332.56914232" fill="rgb(0%,0%,100%)" r="0.7" /><circle cx="286.11541045" cy="333.431390869" fill="rgb(0%,0%,100%)" r="0.7" /><circle cx="288.742382581" cy="334.871318115" fill="rgb(0%,0%,100%)" r="0.7" /><circle cx="290.850398567" cy="336.955792957" fill="rgb(0%,0%,100%)" r="0.7" /><circle cx="291.734814683" cy="339.802635721" fill="rgb(0%,0%,100%)" r="0.7" /><circle cx="291.7140875" cy="342.794231095" fill="rgb(0%,0%,100%)" r="0.7" /><circle cx="290.8988497" cy="345.666640985" fill="rgb(0%,0%,100%)" r="0.7" /><circle cx="289.204897319" cy="348.1285505" fill="rgb(0%,0%,100%)" r="0.7" /><circle cx="286.914510127" cy="350.05562297" fill="rgb(0%,0%,100%)" r="0.7" /><circle cx="284.276813652" cy="351.475826018" fill="rgb(0%,0%,100%)" r="0.7" /><circle cx="281.777386988" cy="353.038216157" fill="rgb(0%,0%,100%)" r="0.7" /><circle cx="280.425978826" cy="355.716584228" fill="rgb(0%,0%,100%)" r="0.7" /><circle cx="279.066962011" cy="358.391110031" fill="rgb(0%,0%,100%)" r="0.7" /><circle cx="277.704820076" cy="361.064044856" fill="rgb(0%,0%,100%)" r="0.7" /><circle cx="276.340795429" cy="363.736019491" fill="rgb(0%,0%,100%)" r="0.7" /><circle cx="274.975430147" cy="366.40730698" fill="rgb(0%,0%,100%)" r="0.7" /><circle cx="273.608982093" cy="369.078039972" fill="rgb(0%,0%,100%)" r="0.7" /><circle cx="272.232898126" cy="371.743678937" fill="rgb(0%,0%,100%)" r="0.7" /><circle cx="270.600631432" cy="374.25863871" fill="rgb(0%,0%,100%)" r="0.7" /><circle cx="268.738069747" cy="376.609541211" fill="rgb(0%,0%,100%)" r="0.7" /><circle cx="266.733546115" cy="378.841111342" fill="rgb(0%,0%,100%)" r="0.7" /><circle cx="264.631758279" cy="380.981530396" fill="rgb(0%,0%,100%)" r="0.7" /><circle cx="262.458323839" cy="383.049259442" fill="rgb(0%,0%,100%)" r="0.7" /><circle cx="260.22922523" cy="385.05691268" fill="rgb(0%,0%,100%)" r="0.7" /><circle cx="257.955028751" cy="387.013364473" fill="rgb(0%,0%,100%)" r="0.7" /><circle cx="255.642955371" cy="388.924930271" fill="rgb(0%,0%,100%)" r="0.7" /><circle cx="253.297970424" cy="390.795979728" fill="rgb(0%,0%,100%)" r="0.7" /><circle cx="250.923248525" cy="392.629160782" fill="rgb(0%,0%,100%)" r="0.7" /><circle cx="248.520102562" cy="394.424910562" fill="rgb(0%,0%,100%)" r="0.7" /><circle cx="246.085" cy="396.177" fill="rgb(0%,0%,100%)" r="0.7" /></svg>