<?xml version="1.0" encoding="utf-8" ?>
<svg baseProfile="full" height="100%" version="1.1" width="100%" xmlns="http://www.w3.org/2000/svg" xmlns:ev="http://www.w3.org/2001/xml-events" xmlns:xlink="http://www.w3.org/1999/xlink"><defs /><circle cx="315.514016647" cy="269.190633542" fill="rgb(100%,0%,0%)" r="0.7" /><circle cx="312.787000329" cy="270.367296982" fill="rgb(100%,0%,0%)" r="0.7" /><circle cx="310.913024277" cy="272.679412825" fill="rgb(100%,0%,0%)" r="0.7" /><circle cx="309.929364462" cy="275.504537699" fill="rgb(100%,0%,0%)" r="0.7" /><circle cx="309.531721085" cy="278.475105543" fill="rgb(100%,0%,0%)" r="0.7" /><circle cx="309.498870357" cy="281.473829157" fill="rgb(100%,0%,0%)" r="0.7" /><circle cx="309.596073724" cy="284.472094274" fill="rgb(100%,0%,0%)" r="0.7" /><circle cx="309.774103663" cy="287.466747467" fill="rgb(100%,0%,0%)" r="0.7" /><circle cx="310.011243248" cy="290.457327331" fill="rgb(100%,0%,0%)" r="0.7" /><circle cx="310.29959338" cy="293.443396684" fill="rgb(100%,0%,0%)" r="0.7" /><circle cx="310.634738226" cy="296.424595222" fill="rgb(100%,0%,0%)" r="0.7" /><circle cx="311.01381516" cy="299.400516742" fill="rgb(100%,0%,0%)" r="0.7" /><circle cx="311.43482623" cy="302.370804852" fill="rgb(100%,0%,0%)" r="0.7" /><circle cx="311.896302823" cy="305.335076544" fill="rgb(100%,0%,0%)" r="0.7" /><circle cx="312.397133935" cy="308.292956525" fill="rgb(100%,0%,0%)" r="0.7" /><circle cx="312.936458378" cy="311.244055932" fill="rgb(100%,0%,0%)" r="0.7" /><circle cx="313.513603292" cy="314.188000321" fill="rgb(100%,0%,0%)" r="0.7" /><circle cx="314.075060055" cy="317.133147048" fill="rgb(100%,0%,0%)" r="0.7" /><circle cx="314.381769971" cy="320.117396868" fill="rgb(100%,0%,0%)" r="0.7" /><circle cx="314.639808099" cy="323.106248366" fill="rgb(100%,0%,0%)" r="0.7" /><circle cx="314.85789923" cy="326.0982845" fill="rgb(100%,0%,0%)" r="0.7" /><circle cx="315.038927123" cy="329.092800766" fill="rgb(100%,0%,0%)" r="0.7" /><circle cx="315.183998989" cy="332.089282707" fill="rgb(100%,0%,0%)" r="0.7" /><circle cx="315.293338064" cy="335.087280001" fill="rgb(100%,0%,0%)" r="0.7" /><circle cx="315.36661425" cy="338.086364422" fill="rgb(100%,0%,0%)" r="0.7" /><circle cx="315.40309263" cy="341.086113568" fill="rgb(100%,0%,0%)" r="0.7" /><circle cx="315.401704606" cy="344.086097839" fill="rgb(100%,0%,0%)" r="0.7" /><circle cx="315.361081312" cy="347.085802389" fill="rgb(100%,0%,0%)" r="0.7" /><circle cx="315.279565485" cy="350.08467021" fill="rgb(100%,0%,0%)" r="0.7" /><circle cx="315.155207409" cy="353.082066652" fill="rgb(100%,0%,0%)" r="0.7" /><circle cx="314.985750581" cy="356.077248406" fill="rgb(100%,0%,0%)" r="0.7" /><circle cx="314.768607283" cy="359.06934625" fill="rgb(100%,0%,0%)" r="0.7" /><circle cx="314.500825174" cy="362.057333614" fill="rgb(100%,0%,0%)" r="0.7" /><circle cx="314.179045173" cy="365.039983188" fill="rgb(100%,0%,0%)" r="0.7" /><circle cx="313.799448907" cy="368.015821248" fill="rgb(100%,0%,0%)" r="0.7" /><circle cx="313.357696375" cy="370.983059967" fill="rgb(100%,0%,0%)" r="0.7" /><circle cx="312.84885092" cy="373.939520578" fill="rgb(100%,0%,0%)" r="0.7" /><circle cx="312.267291467" cy="376.882531028" fill="rgb(100%,0%,0%)" r="0.7" /><circle cx="311.6066161" cy="379.808773147" fill="rgb(100%,0%,0%)" r="0.7" /><circle cx="310.859523278" cy="382.714138904" fill="rgb(100%,0%,0%)" r="0.7" /><circle cx="310.017703604" cy="385.593451767" fill="rgb(100%,0%,0%)" r="0.7" /><circle cx="309.071711619" cy="388.440207696" fill="rgb(100%,0%,0%)" r="0.7" /><circle cx="308.010882026" cy="391.246139958" fill="rgb(100%,0%,0%)" r="0.7" /><circle cx="306.823281197" cy="394.000745968" fill="rgb(100%,0%,0%)" r="0.7" /><circle cx="305.495793351" cy="396.690643021" fill="rgb(100%,0%,0%)" r="0.7" /><circle cx="304.014419682" cy="399.29883736" fill="rgb(100%,0%,0%)" r="0.7" /><circle cx="302.57624192" cy="401.595816697" fill="rgb(100%,0%,0%)" r="0.7" /><circle cx="305.050532094" cy="399.89938275" fill="rgb(100%,0%,0%)" r="0.7" /><circle cx="307.524822268" cy="398.202948804" fill="rgb(100%,0%,0%)" r="0.7" /><circle cx="309.999112442" cy="396.506514858" fill="rgb(100%,0%,0%)" r="0.7" /><circle cx="312.346815109" cy="395.106341557" fill="rgb(100%,0%,0%)" r="0.7" /><circle cx="312.831213167" cy="398.066976375" fill="rgb(100%,0%,0%)" r="0.7" /><circle cx="313.315611225" cy="401.027611192" fill="rgb(100%,0%,0%)" r="0.7" /><circle cx="313.800009283" cy="403.988246009" fill="rgb(100%,0%,0%)" r="0.7" /><circle cx="314.28440734" cy="406.948880827" fill="rgb(100%,0%,0%)" r="0.7" /><circle cx="314.768805398" cy="409.909515644" fill="rgb(100%,0%,0%)" r="0.7" /><circle cx="314.852" cy="410.418" fill="rgb(100%,0%,0%)" r="0.7" /><circle cx="315.514016647" cy="269.190633542" fill="rgb(0%,0%,100%)" r="0.7" /><circle cx="318.499796791" cy="269.217736549" fill="rgb(0%,0%,100%)" r="0.7" /><circle cx="321.368057014" cy="270.069868692" fill="rgb(0%,0%,100%)" r="0.7" /><circle cx="323.897436285" cy="271.612647925" fill="rgb(0%,0%,100%)" r="0.7" /><circle cx="325.718917152" cy="273.98781852" fill="rgb(0%,0%,100%)" r="0.7" /><circle cx="327.118068069" cy="276.639527358" fill="rgb(0%,0%,100%)" r="0.7" /><circle cx="328.26090399" cy="279.41257997" fill="rgb(0%,0%,100%)" r="0.7" /><circle cx="329.230643215" cy="282.251181507" fill="rgb(0%,0%,100%)" r="0.7" /><circle cx="330.07355228" cy="285.130139737" fill="rgb(0%,0%,100%)" r="0.7" /><circle cx="330.817744403" cy="288.03625381" fill="rgb(0%,0%,100%)" r="0.7" /><circle cx="331.481314381" cy="290.96186754" fill="rgb(0%,0%,100%)" r="0.7" /><circle cx="332.076161448" cy="293.902244284" fill="rgb(0%,0%,100%)" r="0.7" /><circle cx="332.609708518" cy="296.854362028" fill="rgb(0%,0%,100%)" r="0.7" /><circle cx="333.084914316" cy="299.816447834" fill="rgb(0%,0%,100%)" r="0.7" /><circle cx="333.497924851" cy="302.787811281" fill="rgb(0%,0%,100%)" r="0.7" /><circle cx="333.885716416" cy="305.762603655" fill="rgb(0%,0%,100%)" r="0.7" /><circle cx="334.222663859" cy="308.743574317" fill="rgb(0%,0%,100%)" r="0.7" /><circle cx="334.508709176" cy="311.729883009" fill="rgb(0%,0%,100%)" r="0.7" /><circle cx="334.743826402" cy="314.720605693" fill="rgb(0%,0%,100%)" r="0.7" /><circle cx="334.928036996" cy="317.71491857" fill="rgb(0%,0%,100%)" r="0.7" /><circle cx="335.061393231" cy="320.711917939" fill="rgb(0%,0%,100%)" r="0.7" /><circle cx="335.143985606" cy="323.710737943" fill="rgb(0%,0%,100%)" r="0.7" /><circle cx="335.175937928" cy="326.710541071" fill="rgb(0%,0%,100%)" r="0.7" /><circle cx="335.15740431" cy="329.710440436" fill="rgb(0%,0%,100%)" r="0.7" /><circle cx="335.088567636" cy="332.709622561" fill="rgb(0%,0%,100%)" r="0.7" /><circle cx="334.96963723" cy="335.707227404" fill="rgb(0%,0%,100%)" r="0.7" /><circle cx="334.800844893" cy="338.702437932" fill="rgb(0%,0%,100%)" r="0.7" /><circle cx="334.582441561" cy="341.694449822" fill="rgb(0%,0%,100%)" r="0.7" /><circle cx="334.314696273" cy="344.682446607" fill="rgb(0%,0%,100%)" r="0.7" /><circle cx="333.997890329" cy="347.665636421" fill="rgb(0%,0%,100%)" r="0.7" /><circle cx="333.63231398" cy="350.643239253" fill="rgb(0%,0%,100%)" r="0.7" /><circle cx="333.218261395" cy="353.614491955" fill="rgb(0%,0%,100%)" r="0.7" /><circle cx="332.75602773" cy="356.578634622" fill="rgb(0%,0%,100%)" r="0.7" /><circle cx="332.245901926" cy="359.534924868" fill="rgb(0%,0%,100%)" r="0.7" /><circle cx="331.688169059" cy="362.482592699" fill="rgb(0%,0%,100%)" r="0.7" /><circle cx="331.083095329" cy="365.420893131" fill="rgb(0%,0%,100%)" r="0.7" /><circle cx="330.430915788" cy="368.349118728" fill="rgb(0%,0%,100%)" r="0.7" /><circle cx="329.731845602" cy="371.266505529" fill="rgb(0%,0%,100%)" r="0.7" /><circle cx="328.986056995" cy="374.172296362" fill="rgb(0%,0%,100%)" r="0.7" /><circle cx="328.193671984" cy="377.065715137" fill="rgb(0%,0%,100%)" r="0.7" /><circle cx="327.354735377" cy="379.94600246" fill="rgb(0%,0%,100%)" r="0.7" /><circle cx="326.469229694" cy="382.812289713" fill="rgb(0%,0%,100%)" r="0.7" /><circle cx="325.537001121" cy="385.663753785" fill="rgb(0%,0%,100%)" r="0.7" /><circle cx="324.557788055" cy="388.499400668" fill="rgb(0%,0%,100%)" r="0.7" /><circle cx="323.531114551" cy="391.318224201" fill="rgb(0%,0%,100%)" r="0.7" /><circle cx="322.456269355" cy="394.119022762" fill="rgb(0%,0%,100%)" r="0.7" /><circle cx="321.332166782" cy="396.900423098" fill="rgb(0%,0%,100%)" r="0.7" /><circle cx="320.157191388" cy="399.660701645" fill="rgb(0%,0%,100%)" r="0.7" /><circle cx="318.928834624" cy="402.397641482" fill="rgb(0%,0%,100%)" r="0.7" /><circle cx="317.642983432" cy="405.108041772" fill="rgb(0%,0%,100%)" r="0.7" /><circle cx="316.291890693" cy="407.786465251" fill="rgb(0%,0%,100%)" r="0.7" /><circle cx="314.852" cy="410.418" fill="rgb(0%,0%,100%)" r="0.7" /></svg>