<?xml version="1.0" encoding="utf-8" ?>
<svg baseProfile="full" height="100%" version="1.1" width="100%" xmlns="http://www.w3.org/2000/svg" xmlns:ev="http://www.w3.org/2001/xml-events" xmlns:xlink="http://www.w3.org/1999/xlink"><defs /><circle cx="262.813911539" cy="331.433104127" fill="rgb(100%,0%,0%)" r="0.7" /><circle cx="259.930428521" cy="332.172473842" fill="rgb(100%,0%,0%)" r="0.7" /><circle cx="257.512646253" cy="333.927315849" fill="rgb(100%,0%,0%)" r="0.7" /><circle cx="255.617350682" cy="336.246002092" fill="rgb(100%,0%,0%)" r="0.7" /><circle cx="254.133793684" cy="338.850863632" fill="rgb(100%,0%,0%)" r="0.7" /><circle cx="253.252673275" cy="341.689753911" fill="rgb(100%,0%,0%)" r="0.7" /><circle cx="252.919773821" cy="344.670924272" fill="rgb(100%,0%,0%)" r="0.7" /><circle cx="252.718327864" cy="347.663948694" fill="rgb(100%,0%,0%)" r="0.7" /><circle cx="252.63325774" cy="350.662570941" fill="rgb(100%,0%,0%)" r="0.7" /><circle cx="252.659723651" cy="353.662279982" fill="rgb(100%,0%,0%)" r="0.7" /><circle cx="252.796559361" cy="356.658993139" fill="rgb(100%,0%,0%)" r="0.7" /><circle cx="253.044441383" cy="359.648555061" fill="rgb(100%,0%,0%)" r="0.7" /><circle cx="253.40511242" cy="362.626612971" fill="rgb(100%,0%,0%)" r="0.7" /><circle cx="253.88095207" cy="365.588438952" fill="rgb(100%,0%,0%)" r="0.7" /><circle cx="254.47469652" cy="368.528888043" fill="rgb(100%,0%,0%)" r="0.7" /><circle cx="255.189212289" cy="371.442330501" fill="rgb(100%,0%,0%)" r="0.7" /><circle cx="256.027299505" cy="374.322645576" fill="rgb(100%,0%,0%)" r="0.7" /><circle cx="256.914366457" cy="377.184192968" fill="rgb(100%,0%,0%)" r="0.7" /><circle cx="257.45524997" cy="380.135046521" fill="rgb(100%,0%,0%)" r="0.7" /><circle cx="257.980639531" cy="383.088673491" fill="rgb(100%,0%,0%)" r="0.7" /><circle cx="258.492684114" cy="386.044648643" fill="rgb(100%,0%,0%)" r="0.7" /><circle cx="258.991720811" cy="389.002852652" fill="rgb(100%,0%,0%)" r="0.7" /><circle cx="259.477474226" cy="391.963264648" fill="rgb(100%,0%,0%)" r="0.7" /><circle cx="259.949289512" cy="394.925934219" fill="rgb(100%,0%,0%)" r="0.7" /><circle cx="260.406182442" cy="397.890933145" fill="rgb(100%,0%,0%)" r="0.7" /><circle cx="260.846833958" cy="400.858391939" fill="rgb(100%,0%,0%)" r="0.7" /><circle cx="261.269527687" cy="403.828461188" fill="rgb(100%,0%,0%)" r="0.7" /><circle cx="261.672050305" cy="406.801329817" fill="rgb(100%,0%,0%)" r="0.7" /><circle cx="262.051526797" cy="409.777224578" fill="rgb(100%,0%,0%)" r="0.7" /><circle cx="262.404160057" cy="412.756419351" fill="rgb(100%,0%,0%)" r="0.7" /><circle cx="262.724801603" cy="415.739217525" fill="rgb(100%,0%,0%)" r="0.7" /><circle cx="263.006219784" cy="418.72596654" fill="rgb(100%,0%,0%)" r="0.7" /><circle cx="263.237739173" cy="421.716975249" fill="rgb(100%,0%,0%)" r="0.7" /><circle cx="263.402478275" cy="424.712365046" fill="rgb(100%,0%,0%)" r="0.7" /><circle cx="263.470865569" cy="427.711390133" fill="rgb(100%,0%,0%)" r="0.7" /><circle cx="263.381740206" cy="430.70946702" fill="rgb(100%,0%,0%)" r="0.7" /><circle cx="263.060888596" cy="433.691835899" fill="rgb(100%,0%,0%)" r="0.7" /><circle cx="262.699102527" cy="436.669931717" fill="rgb(100%,0%,0%)" r="0.7" /><circle cx="262.302706126" cy="439.643605138" fill="rgb(100%,0%,0%)" r="0.7" /><circle cx="261.858494865" cy="442.610494661" fill="rgb(100%,0%,0%)" r="0.7" /><circle cx="261.358128827" cy="445.568424141" fill="rgb(100%,0%,0%)" r="0.7" /><circle cx="260.795739858" cy="448.515178523" fill="rgb(100%,0%,0%)" r="0.7" /><circle cx="260.166864146" cy="451.448456552" fill="rgb(100%,0%,0%)" r="0.7" /><circle cx="259.467921826" cy="454.365820844" fill="rgb(100%,0%,0%)" r="0.7" /><circle cx="258.695935651" cy="457.264710696" fill="rgb(100%,0%,0%)" r="0.7" /><circle cx="257.848390599" cy="460.142403889" fill="rgb(100%,0%,0%)" r="0.7" /><circle cx="256.923143919" cy="462.996058267" fill="rgb(100%,0%,0%)" r="0.7" /><circle cx="255.91839206" cy="465.822695062" fill="rgb(100%,0%,0%)" r="0.7" /><circle cx="254.832652671" cy="468.619221102" fill="rgb(100%,0%,0%)" r="0.7" /><circle cx="253.664769127" cy="471.382434247" fill="rgb(100%,0%,0%)" r="0.7" /><circle cx="252.413900116" cy="474.109088732" fill="rgb(100%,0%,0%)" r="0.7" /><circle cx="251.079552818" cy="476.795870689" fill="rgb(100%,0%,0%)" r="0.7" /><circle cx="249.66158103" cy="479.439464294" fill="rgb(100%,0%,0%)" r="0.7" /><circle cx="248.160191142" cy="482.036592729" fill="rgb(100%,0%,0%)" r="0.7" /><circle cx="246.575963964" cy="484.584029399" fill="rgb(100%,0%,0%)" r="0.7" /><circle cx="244.909838446" cy="487.078669108" fill="rgb(100%,0%,0%)" r="0.7" /><circle cx="243.163114613" cy="489.51755354" fill="rgb(100%,0%,0%)" r="0.7" /><circle cx="241.337438932" cy="491.897914205" fill="rgb(100%,0%,0%)" r="0.7" /><circle cx="239.434791198" cy="494.217201054" fill="rgb(100%,0%,0%)" r="0.7" /><circle cx="238.624405349" cy="495.397313062" fill="rgb(100%,0%,0%)" r="0.7" /><circle cx="241.011914615" cy="493.580778035" fill="rgb(100%,0%,0%)" r="0.7" /><circle cx="243.399423881" cy="491.764243008" fill="rgb(100%,0%,0%)" r="0.7" /><circle cx="245.786933148" cy="489.947707981" fill="rgb(100%,0%,0%)" r="0.7" /><circle cx="248.174442414" cy="488.131172954" fill="rgb(100%,0%,0%)" r="0.7" /><circle cx="249.787868753" cy="487.734097965" fill="rgb(100%,0%,0%)" r="0.7" /><circle cx="249.553737114" cy="490.724947739" fill="rgb(100%,0%,0%)" r="0.7" /><circle cx="249.319605475" cy="493.715797514" fill="rgb(100%,0%,0%)" r="0.7" /><circle cx="249.085473837" cy="496.706647289" fill="rgb(100%,0%,0%)" r="0.7" /><circle cx="248.851342198" cy="499.697497064" fill="rgb(100%,0%,0%)" r="0.7" /><circle cx="248.763" cy="500.826" fill="rgb(100%,0%,0%)" r="0.7" /><circle cx="262.813911539" cy="331.433104127" fill="rgb(0%,0%,100%)" r="0.7" /><circle cx="265.653821388" cy="332.183935888" fill="rgb(0%,0%,100%)" r="0.7" /><circle cx="267.551889521" cy="334.465188867" fill="rgb(0%,0%,100%)" r="0.7" /><circle cx="268.170300859" cy="337.377781952" fill="rgb(0%,0%,100%)" r="0.7" /><circle cx="267.789975114" cy="340.345066787" fill="rgb(0%,0%,100%)" r="0.7" /><circle cx="266.678671667" cy="343.098028749" fill="rgb(0%,0%,100%)" r="0.7" /><circle cx="265.635041961" cy="345.887587493" fill="rgb(0%,0%,100%)" r="0.7" /><circle cx="265.290292706" cy="348.859195915" fill="rgb(0%,0%,100%)" r="0.7" /><circle cx="265.388797745" cy="351.857055544" fill="rgb(0%,0%,100%)" r="0.7" /><circle cx="265.61873415" cy="354.848127496" fill="rgb(0%,0%,100%)" r="0.7" /><circle cx="265.919064012" cy="357.833018488" fill="rgb(0%,0%,100%)" r="0.7" /><circle cx="266.265116193" cy="360.812970669" fill="rgb(0%,0%,100%)" r="0.7" /><circle cx="266.644028509" cy="363.788938152" fill="rgb(0%,0%,100%)" r="0.7" /><circle cx="267.04809929" cy="366.761596466" fill="rgb(0%,0%,100%)" r="0.7" /><circle cx="267.472295139" cy="369.731448152" fill="rgb(0%,0%,100%)" r="0.7" /><circle cx="267.913122109" cy="372.698884057" fill="rgb(0%,0%,100%)" r="0.7" /><circle cx="268.368042289" cy="375.664189535" fill="rgb(0%,0%,100%)" r="0.7" /><circle cx="268.835154664" cy="378.627601224" fill="rgb(0%,0%,100%)" r="0.7" /><circle cx="269.312998121" cy="381.589299284" fill="rgb(0%,0%,100%)" r="0.7" /><circle cx="269.800433641" cy="384.549438857" fill="rgb(0%,0%,100%)" r="0.7" /><circle cx="270.29656164" cy="387.508129233" fill="rgb(0%,0%,100%)" r="0.7" /><circle cx="270.800676701" cy="390.465470946" fill="rgb(0%,0%,100%)" r="0.7" /><circle cx="271.312232898" cy="393.421536355" fill="rgb(0%,0%,100%)" r="0.7" /><circle cx="271.830828604" cy="396.376365873" fill="rgb(0%,0%,100%)" r="0.7" /><circle cx="272.356220893" cy="399.330017008" fill="rgb(0%,0%,100%)" r="0.7" /><circle cx="272.88834705" cy="402.282446846" fill="rgb(0%,0%,100%)" r="0.7" /><circle cx="273.427486106" cy="405.23359016" fill="rgb(0%,0%,100%)" r="0.7" /><circle cx="273.975048916" cy="408.183219923" fill="rgb(0%,0%,100%)" r="0.7" /><circle cx="274.483574852" cy="411.139665578" fill="rgb(0%,0%,100%)" r="0.7" /><circle cx="274.904889493" cy="414.109827762" fill="rgb(0%,0%,100%)" r="0.7" /><circle cx="275.239027372" cy="417.091056885" fill="rgb(0%,0%,100%)" r="0.7" /><circle cx="275.485609855" cy="420.080792138" fill="rgb(0%,0%,100%)" r="0.7" /><circle cx="275.644511229" cy="423.076468225" fill="rgb(0%,0%,100%)" r="0.7" /><circle cx="275.715852268" cy="426.0755191" fill="rgb(0%,0%,100%)" r="0.7" /><circle cx="275.699993083" cy="429.075377404" fill="rgb(0%,0%,100%)" r="0.7" /><circle cx="275.597523671" cy="432.073520654" fill="rgb(0%,0%,100%)" r="0.7" /><circle cx="275.409247464" cy="435.067504145" fill="rgb(0%,0%,100%)" r="0.7" /><circle cx="275.136163559" cy="438.054953265" fill="rgb(0%,0%,100%)" r="0.7" /><circle cx="274.779449565" cy="441.033561839" fill="rgb(0%,0%,100%)" r="0.7" /><circle cx="274.340430981" cy="444.001175598" fill="rgb(0%,0%,100%)" r="0.7" /><circle cx="273.820571628" cy="446.955691114" fill="rgb(0%,0%,100%)" r="0.7" /><circle cx="273.221433019" cy="449.89517527" fill="rgb(0%,0%,100%)" r="0.7" /><circle cx="272.544669968" cy="452.817755116" fill="rgb(0%,0%,100%)" r="0.7" /><circle cx="271.791988213" cy="455.721712803" fill="rgb(0%,0%,100%)" r="0.7" /><circle cx="270.96513107" cy="458.605429508" fill="rgb(0%,0%,100%)" r="0.7" /><circle cx="270.065853035" cy="461.467394481" fill="rgb(0%,0%,100%)" r="0.7" /><circle cx="269.095902925" cy="464.30617883" fill="rgb(0%,0%,100%)" r="0.7" /><circle cx="268.056984596" cy="467.120473404" fill="rgb(0%,0%,100%)" r="0.7" /><circle cx="266.950764164" cy="469.90899034" fill="rgb(0%,0%,100%)" r="0.7" /><circle cx="265.778813494" cy="472.670536721" fill="rgb(0%,0%,100%)" r="0.7" /><circle cx="264.542613056" cy="475.403920252" fill="rgb(0%,0%,100%)" r="0.7" /><circle cx="263.24349756" cy="478.107982619" fill="rgb(0%,0%,100%)" r="0.7" /><circle cx="261.882655111" cy="480.781491245" fill="rgb(0%,0%,100%)" r="0.7" /><circle cx="260.461033084" cy="483.423191393" fill="rgb(0%,0%,100%)" r="0.7" /><circle cx="258.979305101" cy="486.031672075" fill="rgb(0%,0%,100%)" r="0.7" /><circle cx="257.437781523" cy="488.605254598" fill="rgb(0%,0%,100%)" r="0.7" /><circle cx="255.836205927" cy="491.141895861" fill="rgb(0%,0%,100%)" r="0.7" /><circle cx="254.173462926" cy="493.638860281" fill="rgb(0%,0%,100%)" r="0.7" /><circle cx="252.4468963" cy="496.092106892" fill="rgb(0%,0%,100%)" r="0.7" /><circle cx="250.650408014" cy="498.494566297" fill="rgb(0%,0%,100%)" r="0.7" /><circle cx="248.763" cy="500.826" fill="rgb(0%,0%,100%)" r="0.7" /></svg>