<?xml version="1.0" encoding="utf-8" ?>
<svg baseProfile="full" height="100%" version="1.1" width="100%" xmlns="http://www.w3.org/2000/svg" xmlns:ev="http://www.w3.org/2001/xml-events" xmlns:xlink="http://www.w3.org/1999/xlink"><defs /><circle cx="285.235775163" cy="269.054362129" fill="rgb(100%,0%,0%)" r="0.7" /><circle cx="282.341632563" cy="269.670431909" fill="rgb(100%,0%,0%)" r="0.7" /><circle cx="280.24645881" cy="271.757616792" fill="rgb(100%,0%,0%)" r="0.7" /><circle cx="279.271168852" cy="274.580243576" fill="rgb(100%,0%,0%)" r="0.7" /><circle cx="278.921553124" cy="277.558762458" fill="rgb(100%,0%,0%)" r="0.7" /><circle cx="278.603172313" cy="280.541822228" fill="rgb(100%,0%,0%)" r="0.7" /><circle cx="278.281492165" cy="283.524539637" fill="rgb(100%,0%,0%)" r="0.7" /><circle cx="277.956869266" cy="286.506924315" fill="rgb(100%,0%,0%)" r="0.7" /><circle cx="277.629381805" cy="289.488993478" fill="rgb(100%,0%,0%)" r="0.7" /><circle cx="277.298997928" cy="292.470749664" fill="rgb(100%,0%,0%)" r="0.7" /><circle cx="276.965618679" cy="295.452171727" fill="rgb(100%,0%,0%)" r="0.7" /><circle cx="276.629088463" cy="298.433240224" fill="rgb(100%,0%,0%)" r="0.7" /><circle cx="276.289198433" cy="301.413925506" fill="rgb(100%,0%,0%)" r="0.7" /><circle cx="275.945681396" cy="304.394193824" fill="rgb(100%,0%,0%)" r="0.7" /><circle cx="275.598202153" cy="307.374006116" fill="rgb(100%,0%,0%)" r="0.7" /><circle cx="275.246343686" cy="310.353300987" fill="rgb(100%,0%,0%)" r="0.7" /><circle cx="274.889581069" cy="313.332014149" fill="rgb(100%,0%,0%)" r="0.7" /><circle cx="274.527248668" cy="316.310053771" fill="rgb(100%,0%,0%)" r="0.7" /><circle cx="274.158485097" cy="319.28730474" fill="rgb(100%,0%,0%)" r="0.7" /><circle cx="273.78214918" cy="322.263609949" fill="rgb(100%,0%,0%)" r="0.7" /><circle cx="273.396679997" cy="325.238743356" fill="rgb(100%,0%,0%)" r="0.7" /><circle cx="272.999848257" cy="328.212369487" fill="rgb(100%,0%,0%)" r="0.7" /><circle cx="272.588270505" cy="331.184007513" fill="rgb(100%,0%,0%)" r="0.7" /><circle cx="272.156380687" cy="334.152743915" fill="rgb(100%,0%,0%)" r="0.7" /><circle cx="271.693702553" cy="337.116830873" fill="rgb(100%,0%,0%)" r="0.7" /><circle cx="271.175219201" cy="340.071597834" fill="rgb(100%,0%,0%)" r="0.7" /><circle cx="270.492327486" cy="342.991381938" fill="rgb(100%,0%,0%)" r="0.7" /><circle cx="269.646062894" cy="345.869509773" fill="rgb(100%,0%,0%)" r="0.7" /><circle cx="268.753100057" cy="348.733494152" fill="rgb(100%,0%,0%)" r="0.7" /><circle cx="267.808131407" cy="351.580728808" fill="rgb(100%,0%,0%)" r="0.7" /><circle cx="266.796469204" cy="354.404905513" fill="rgb(100%,0%,0%)" r="0.7" /><circle cx="265.688238867" cy="357.192455282" fill="rgb(100%,0%,0%)" r="0.7" /><circle cx="264.412228023" cy="359.906537287" fill="rgb(100%,0%,0%)" r="0.7" /><circle cx="263.139844594" cy="361.977379389" fill="rgb(100%,0%,0%)" r="0.7" /><circle cx="265.608469705" cy="360.272712248" fill="rgb(100%,0%,0%)" r="0.7" /><circle cx="268.077094816" cy="358.568045107" fill="rgb(100%,0%,0%)" r="0.7" /><circle cx="270.545719927" cy="356.863377966" fill="rgb(100%,0%,0%)" r="0.7" /><circle cx="273.014345038" cy="355.158710825" fill="rgb(100%,0%,0%)" r="0.7" /><circle cx="275.133977274" cy="355.569417304" fill="rgb(100%,0%,0%)" r="0.7" /><circle cx="276.924214335" cy="357.976708576" fill="rgb(100%,0%,0%)" r="0.7" /><circle cx="278.714451395" cy="360.383999848" fill="rgb(100%,0%,0%)" r="0.7" /><circle cx="280.504688455" cy="362.791291119" fill="rgb(100%,0%,0%)" r="0.7" /><circle cx="281.559" cy="364.209" fill="rgb(100%,0%,0%)" r="0.7" /><circle cx="285.235775163" cy="269.054362129" fill="rgb(0%,0%,100%)" r="0.7" /><circle cx="287.609520512" cy="270.794997435" fill="rgb(0%,0%,100%)" r="0.7" /><circle cx="289.290069861" cy="273.276034964" fill="rgb(0%,0%,100%)" r="0.7" /><circle cx="290.677781473" cy="275.934887436" fill="rgb(0%,0%,100%)" r="0.7" /><circle cx="291.891299395" cy="278.678109719" fill="rgb(0%,0%,100%)" r="0.7" /><circle cx="292.926020185" cy="281.491768805" fill="rgb(0%,0%,100%)" r="0.7" /><circle cx="293.519719386" cy="284.430567617" fill="rgb(0%,0%,100%)" r="0.7" /><circle cx="293.831562755" cy="287.41363557" fill="rgb(0%,0%,100%)" r="0.7" /><circle cx="293.958174293" cy="290.410634442" fill="rgb(0%,0%,100%)" r="0.7" /><circle cx="293.952614409" cy="293.410434376" fill="rgb(0%,0%,100%)" r="0.7" /><circle cx="293.847123616" cy="296.408483093" fill="rgb(0%,0%,100%)" r="0.7" /><circle cx="293.662826336" cy="299.402750985" fill="rgb(0%,0%,100%)" r="0.7" /><circle cx="293.41436854" cy="302.392394802" fill="rgb(0%,0%,100%)" r="0.7" /><circle cx="293.112354898" cy="305.377123532" fill="rgb(0%,0%,100%)" r="0.7" /><circle cx="292.764734946" cy="308.356885136" fill="rgb(0%,0%,100%)" r="0.7" /><circle cx="292.377629292" cy="311.331789318" fill="rgb(0%,0%,100%)" r="0.7" /><circle cx="291.955862517" cy="314.301979178" fill="rgb(0%,0%,100%)" r="0.7" /><circle cx="291.503304019" cy="317.26763973" fill="rgb(0%,0%,100%)" r="0.7" /><circle cx="291.023107737" cy="320.22894875" fill="rgb(0%,0%,100%)" r="0.7" /><circle cx="290.517873069" cy="323.186092291" fill="rgb(0%,0%,100%)" r="0.7" /><circle cx="289.989765945" cy="326.139239279" fill="rgb(0%,0%,100%)" r="0.7" /><circle cx="289.440604387" cy="329.088542176" fill="rgb(0%,0%,100%)" r="0.7" /><circle cx="288.871919517" cy="332.034147946" fill="rgb(0%,0%,100%)" r="0.7" /><circle cx="288.285006764" cy="334.976174275" fill="rgb(0%,0%,100%)" r="0.7" /><circle cx="287.680956481" cy="337.914728548" fill="rgb(0%,0%,100%)" r="0.7" /><circle cx="287.060679187" cy="340.849900645" fill="rgb(0%,0%,100%)" r="0.7" /><circle cx="286.424920343" cy="343.781762259" fill="rgb(0%,0%,100%)" r="0.7" /><circle cx="285.77427004" cy="346.710345499" fill="rgb(0%,0%,100%)" r="0.7" /><circle cx="285.109144885" cy="349.635691259" fill="rgb(0%,0%,100%)" r="0.7" /><circle cx="284.429783335" cy="352.557751064" fill="rgb(0%,0%,100%)" r="0.7" /><circle cx="283.736161385" cy="355.476476643" fill="rgb(0%,0%,100%)" r="0.7" /><circle cx="283.027881491" cy="358.391638299" fill="rgb(0%,0%,100%)" r="0.7" /><circle cx="282.303697115" cy="361.302927664" fill="rgb(0%,0%,100%)" r="0.7" /><circle cx="281.559" cy="364.209" fill="rgb(0%,0%,100%)" r="0.7" /></svg>