<?xml version="1.0" encoding="utf-8" ?>
<svg baseProfile="full" height="100%" version="1.1" width="100%" xmlns="http://www.w3.org/2000/svg" xmlns:ev="http://www.w3.org/2001/xml-events" xmlns:xlink="http://www.w3.org/1999/xlink"><defs /><circle cx="289.223926855" cy="328.258623621" fill="rgb(100%,0%,0%)" r="0.7" /><circle cx="286.264699195" cy="328.669816766" fill="rgb(100%,0%,0%)" r="0.7" /><circle cx="283.474453295" cy="329.758128787" fill="rgb(100%,0%,0%)" r="0.7" /><circle cx="280.917307895" cy="331.321225487" fill="rgb(100%,0%,0%)" r="0.7" /><circle cx="278.59120573" cy="333.213092133" fill="rgb(100%,0%,0%)" r="0.7" /><circle cx="276.468651155" cy="335.331778988" fill="rgb(100%,0%,0%)" r="0.7" /><circle cx="274.518701046" cy="337.610834167" fill="rgb(100%,0%,0%)" r="0.7" /><circle cx="272.714236482" cy="340.006994877" fill="rgb(100%,0%,0%)" r="0.7" /><circle cx="271.033199449" cy="342.491459723" fill="rgb(100%,0%,0%)" r="0.7" /><circle cx="269.458070111" cy="345.044467" fill="rgb(100%,0%,0%)" r="0.7" /><circle cx="267.974975094" cy="347.652075444" fill="rgb(100%,0%,0%)" r="0.7" /><circle cx="266.572912513" cy="350.304171625" fill="rgb(100%,0%,0%)" r="0.7" /><circle cx="265.243125459" cy="352.99325956" fill="rgb(100%,0%,0%)" r="0.7" /><circle cx="263.97864749" cy="355.713682567" fill="rgb(100%,0%,0%)" r="0.7" /><circle cx="262.773981475" cy="358.461131351" fill="rgb(100%,0%,0%)" r="0.7" /><circle cx="261.62491455" cy="361.232301638" fill="rgb(100%,0%,0%)" r="0.7" /><circle cx="260.528457518" cy="364.0246939" fill="rgb(100%,0%,0%)" r="0.7" /><circle cx="259.482961695" cy="366.836596434" fill="rgb(100%,0%,0%)" r="0.7" /><circle cx="258.488796682" cy="369.667032859" fill="rgb(100%,0%,0%)" r="0.7" /><circle cx="257.550974602" cy="372.51660689" fill="rgb(100%,0%,0%)" r="0.7" /><circle cx="256.776819963" cy="375.413280162" fill="rgb(100%,0%,0%)" r="0.7" /><circle cx="256.167660393" cy="378.350605551" fill="rgb(100%,0%,0%)" r="0.7" /><circle cx="255.668032267" cy="381.308529243" fill="rgb(100%,0%,0%)" r="0.7" /><circle cx="255.285033263" cy="384.283757701" fill="rgb(100%,0%,0%)" r="0.7" /><circle cx="255.025837338" cy="387.272325702" fill="rgb(100%,0%,0%)" r="0.7" /><circle cx="254.897573719" cy="390.26933387" fill="rgb(100%,0%,0%)" r="0.7" /><circle cx="254.907128373" cy="393.2690407" fill="rgb(100%,0%,0%)" r="0.7" /><circle cx="255.060937131" cy="396.26478838" fill="rgb(100%,0%,0%)" r="0.7" /><circle cx="255.364746353" cy="399.249026957" fill="rgb(100%,0%,0%)" r="0.7" /><circle cx="255.823369155" cy="402.213419305" fill="rgb(100%,0%,0%)" r="0.7" /><circle cx="256.440435882" cy="405.148892775" fill="rgb(100%,0%,0%)" r="0.7" /><circle cx="257.218203882" cy="408.045918635" fill="rgb(100%,0%,0%)" r="0.7" /><circle cx="258.157407343" cy="410.894687092" fill="rgb(100%,0%,0%)" r="0.7" /><circle cx="259.25720511" cy="413.685386595" fill="rgb(100%,0%,0%)" r="0.7" /><circle cx="260.515209379" cy="416.408423268" fill="rgb(100%,0%,0%)" r="0.7" /><circle cx="261.927638988" cy="419.054662681" fill="rgb(100%,0%,0%)" r="0.7" /><circle cx="263.489533701" cy="421.615523967" fill="rgb(100%,0%,0%)" r="0.7" /><circle cx="265.195086121" cy="424.083041277" fill="rgb(100%,0%,0%)" r="0.7" /><circle cx="267.03802066" cy="426.449727629" fill="rgb(100%,0%,0%)" r="0.7" /><circle cx="269.012042572" cy="428.70822373" fill="rgb(100%,0%,0%)" r="0.7" /><circle cx="271.111478844" cy="430.850642383" fill="rgb(100%,0%,0%)" r="0.7" /><circle cx="273.332198578" cy="432.866999369" fill="rgb(100%,0%,0%)" r="0.7" /><circle cx="275.674020734" cy="434.741200217" fill="rgb(100%,0%,0%)" r="0.7" /><circle cx="278.154" cy="436.427" fill="rgb(100%,0%,0%)" r="0.7" /><circle cx="289.223926855" cy="328.258623621" fill="rgb(0%,0%,100%)" r="0.7" /><circle cx="292.168218196" cy="328.794846745" fill="rgb(0%,0%,100%)" r="0.7" /><circle cx="294.779480055" cy="330.22330074" fill="rgb(0%,0%,100%)" r="0.7" /><circle cx="296.144716663" cy="332.825559989" fill="rgb(0%,0%,100%)" r="0.7" /><circle cx="295.941707303" cy="335.799433133" fill="rgb(0%,0%,100%)" r="0.7" /><circle cx="294.694821317" cy="338.515018808" fill="rgb(0%,0%,100%)" r="0.7" /><circle cx="292.779555635" cy="340.81592752" fill="rgb(0%,0%,100%)" r="0.7" /><circle cx="290.468310151" cy="342.724432956" fill="rgb(0%,0%,100%)" r="0.7" /><circle cx="288.413208858" cy="344.903020291" fill="rgb(0%,0%,100%)" r="0.7" /><circle cx="286.706654721" cy="347.368248494" fill="rgb(0%,0%,100%)" r="0.7" /><circle cx="285.256661174" cy="349.993473775" fill="rgb(0%,0%,100%)" r="0.7" /><circle cx="284.015116993" cy="352.723847577" fill="rgb(0%,0%,100%)" r="0.7" /><circle cx="282.949008647" cy="355.527575887" fill="rgb(0%,0%,100%)" r="0.7" /><circle cx="281.968231038" cy="358.362705413" fill="rgb(0%,0%,100%)" r="0.7" /><circle cx="281.010229621" cy="361.205624706" fill="rgb(0%,0%,100%)" r="0.7" /><circle cx="280.076150723" cy="364.056495731" fill="rgb(0%,0%,100%)" r="0.7" /><circle cx="279.167068763" cy="366.915433379" fill="rgb(0%,0%,100%)" r="0.7" /><circle cx="278.286000138" cy="369.78312127" fill="rgb(0%,0%,100%)" r="0.7" /><circle cx="277.437882191" cy="372.660721115" fill="rgb(0%,0%,100%)" r="0.7" /><circle cx="276.630373928" cy="375.549967424" fill="rgb(0%,0%,100%)" r="0.7" /><circle cx="275.875724534" cy="378.453444952" fill="rgb(0%,0%,100%)" r="0.7" /><circle cx="275.195169563" cy="381.375114228" fill="rgb(0%,0%,100%)" r="0.7" /><circle cx="274.631244634" cy="384.321303383" fill="rgb(0%,0%,100%)" r="0.7" /><circle cx="274.365436203" cy="387.305339721" fill="rgb(0%,0%,100%)" r="0.7" /><circle cx="274.333410173" cy="390.305058152" fill="rgb(0%,0%,100%)" r="0.7" /><circle cx="274.390336395" cy="393.304411418" fill="rgb(0%,0%,100%)" r="0.7" /><circle cx="274.539517955" cy="396.300568289" fill="rgb(0%,0%,100%)" r="0.7" /><circle cx="274.793237673" cy="399.28964208" fill="rgb(0%,0%,100%)" r="0.7" /><circle cx="275.172052817" cy="402.265356027" fill="rgb(0%,0%,100%)" r="0.7" /><circle cx="275.708129429" cy="405.216606341" fill="rgb(0%,0%,100%)" r="0.7" /><circle cx="276.452787693" cy="408.121814601" fill="rgb(0%,0%,100%)" r="0.7" /><circle cx="277.491903768" cy="410.933984747" fill="rgb(0%,0%,100%)" r="0.7" /><circle cx="278.974430526" cy="413.535694611" fill="rgb(0%,0%,100%)" r="0.7" /><circle cx="280.990512777" cy="415.753523869" fill="rgb(0%,0%,100%)" r="0.7" /><circle cx="283.137680049" cy="417.848438155" fill="rgb(0%,0%,100%)" r="0.7" /><circle cx="285.369741707" cy="419.852483679" fill="rgb(0%,0%,100%)" r="0.7" /><circle cx="287.718327296" cy="421.717877832" fill="rgb(0%,0%,100%)" r="0.7" /><circle cx="290.264224126" cy="423.297702127" fill="rgb(0%,0%,100%)" r="0.7" /><circle cx="289.841098697" cy="424.329304089" fill="rgb(0%,0%,100%)" r="0.7" /><circle cx="287.01208775" cy="425.327651253" fill="rgb(0%,0%,100%)" r="0.7" /><circle cx="284.183076802" cy="426.325998417" fill="rgb(0%,0%,100%)" r="0.7" /><circle cx="281.354065855" cy="427.32434558" fill="rgb(0%,0%,100%)" r="0.7" /><circle cx="278.525054907" cy="428.322692744" fill="rgb(0%,0%,100%)" r="0.7" /><circle cx="277.284553316" cy="430.28506687" fill="rgb(0%,0%,100%)" r="0.7" /><circle cx="277.705038542" cy="433.255452733" fill="rgb(0%,0%,100%)" r="0.7" /><circle cx="278.125523767" cy="436.225838596" fill="rgb(0%,0%,100%)" r="0.7" /><circle cx="278.154" cy="436.427" fill="rgb(0%,0%,100%)" r="0.7" /></svg>