<?xml version="1.0" encoding="utf-8" ?>
<svg baseProfile="full" height="100%" version="1.1" width="100%" xmlns="http://www.w3.org/2000/svg" xmlns:ev="http://www.w3.org/2001/xml-events" xmlns:xlink="http://www.w3.org/1999/xlink"><defs /><circle cx="288.961338248" cy="310.153183998" fill="rgb(100%,0%,0%)" r="0.7" /><circle cx="285.99708265" cy="310.399022257" fill="rgb(100%,0%,0%)" r="0.7" /><circle cx="283.404533862" cy="311.8776268" fill="rgb(100%,0%,0%)" r="0.7" /><circle cx="281.276349836" cy="313.985696799" fill="rgb(100%,0%,0%)" r="0.7" /><circle cx="279.478543723" cy="316.385343789" fill="rgb(100%,0%,0%)" r="0.7" /><circle cx="277.909147264" cy="318.941269136" fill="rgb(100%,0%,0%)" r="0.7" /><circle cx="276.505706991" cy="321.592342604" fill="rgb(100%,0%,0%)" r="0.7" /><circle cx="275.229075964" cy="324.306921085" fill="rgb(100%,0%,0%)" r="0.7" /><circle cx="274.053479181" cy="327.06684336" fill="rgb(100%,0%,0%)" r="0.7" /><circle cx="272.961215755" cy="329.860839631" fill="rgb(100%,0%,0%)" r="0.7" /><circle cx="271.93975623" cy="332.681513842" fill="rgb(100%,0%,0%)" r="0.7" /><circle cx="270.980107456" cy="335.523835229" fill="rgb(100%,0%,0%)" r="0.7" /><circle cx="270.075925157" cy="338.384293503" fill="rgb(100%,0%,0%)" r="0.7" /><circle cx="269.223138625" cy="341.26049301" fill="rgb(100%,0%,0%)" r="0.7" /><circle cx="268.420277033" cy="344.151031573" fill="rgb(100%,0%,0%)" r="0.7" /><circle cx="267.671468183" cy="347.056030799" fill="rgb(100%,0%,0%)" r="0.7" /><circle cx="267.519332561" cy="350.034549107" fill="rgb(100%,0%,0%)" r="0.7" /><circle cx="267.754816528" cy="353.024654238" fill="rgb(100%,0%,0%)" r="0.7" /><circle cx="268.183762751" cy="355.993389684" fill="rgb(100%,0%,0%)" r="0.7" /><circle cx="268.772654048" cy="358.934707986" fill="rgb(100%,0%,0%)" r="0.7" /><circle cx="269.495432219" cy="361.846113986" fill="rgb(100%,0%,0%)" r="0.7" /><circle cx="270.331734769" cy="364.727018575" fill="rgb(100%,0%,0%)" r="0.7" /><circle cx="271.265509694" cy="367.577860071" fill="rgb(100%,0%,0%)" r="0.7" /><circle cx="272.283969433" cy="370.399589889" fill="rgb(100%,0%,0%)" r="0.7" /><circle cx="273.376814734" cy="373.193373782" fill="rgb(100%,0%,0%)" r="0.7" /><circle cx="274.535672246" cy="375.960444062" fill="rgb(100%,0%,0%)" r="0.7" /><circle cx="275.753676359" cy="378.702005939" fill="rgb(100%,0%,0%)" r="0.7" /><circle cx="277.025159652" cy="381.419184079" fill="rgb(100%,0%,0%)" r="0.7" /><circle cx="278.345429932" cy="384.113004315" fill="rgb(100%,0%,0%)" r="0.7" /><circle cx="279.710596549" cy="386.784362042" fill="rgb(100%,0%,0%)" r="0.7" /><circle cx="281.117448789" cy="389.434005234" fill="rgb(100%,0%,0%)" r="0.7" /><circle cx="282.563376981" cy="392.06251834" fill="rgb(100%,0%,0%)" r="0.7" /><circle cx="284.046356599" cy="394.67033468" fill="rgb(100%,0%,0%)" r="0.7" /><circle cx="285.564899496" cy="397.257579543" fill="rgb(100%,0%,0%)" r="0.7" /><circle cx="287.118229806" cy="399.824113426" fill="rgb(100%,0%,0%)" r="0.7" /><circle cx="288.706485797" cy="402.369173033" fill="rgb(100%,0%,0%)" r="0.7" /><circle cx="290.331647583" cy="404.89081395" fill="rgb(100%,0%,0%)" r="0.7" /><circle cx="292.003" cy="407.382" fill="rgb(100%,0%,0%)" r="0.7" /><circle cx="288.961338248" cy="310.153183998" fill="rgb(0%,0%,100%)" r="0.7" /><circle cx="291.933690147" cy="310.54618039" fill="rgb(0%,0%,100%)" r="0.7" /><circle cx="294.834250776" cy="311.303250158" fill="rgb(0%,0%,100%)" r="0.7" /><circle cx="297.577424435" cy="312.506963751" fill="rgb(0%,0%,100%)" r="0.7" /><circle cx="299.97334016" cy="314.296685807" fill="rgb(0%,0%,100%)" r="0.7" /><circle cx="301.672115102" cy="316.748989848" fill="rgb(0%,0%,100%)" r="0.7" /><circle cx="302.482631832" cy="319.626505856" fill="rgb(0%,0%,100%)" r="0.7" /><circle cx="302.755887903" cy="322.592617797" fill="rgb(0%,0%,100%)" r="0.7" /><circle cx="301.4945942" cy="325.256050554" fill="rgb(0%,0%,100%)" r="0.7" /><circle cx="299.131378704" cy="327.099985101" fill="rgb(0%,0%,100%)" r="0.7" /><circle cx="296.819908101" cy="329.011935601" fill="rgb(0%,0%,100%)" r="0.7" /><circle cx="294.594821918" cy="331.023801188" fill="rgb(0%,0%,100%)" r="0.7" /><circle cx="292.45992585" cy="333.13110773" fill="rgb(0%,0%,100%)" r="0.7" /><circle cx="290.425235499" cy="335.335256722" fill="rgb(0%,0%,100%)" r="0.7" /><circle cx="288.505599065" cy="337.640213948" fill="rgb(0%,0%,100%)" r="0.7" /><circle cx="286.721107459" cy="340.051189042" fill="rgb(0%,0%,100%)" r="0.7" /><circle cx="285.098115763" cy="342.573532316" fill="rgb(0%,0%,100%)" r="0.7" /><circle cx="283.670556614" cy="345.211162653" fill="rgb(0%,0%,100%)" r="0.7" /><circle cx="282.481040617" cy="347.964025875" fill="rgb(0%,0%,100%)" r="0.7" /><circle cx="281.580712833" cy="350.824131932" fill="rgb(0%,0%,100%)" r="0.7" /><circle cx="281.025957273" cy="353.770347772" fill="rgb(0%,0%,100%)" r="0.7" /><circle cx="280.846143775" cy="356.761977852" fill="rgb(0%,0%,100%)" r="0.7" /><circle cx="281.126931731" cy="359.746825283" fill="rgb(0%,0%,100%)" r="0.7" /><circle cx="281.721803036" cy="362.686204219" fill="rgb(0%,0%,100%)" r="0.7" /><circle cx="282.554336199" cy="365.567668081" fill="rgb(0%,0%,100%)" r="0.7" /><circle cx="283.580294236" cy="368.386263284" fill="rgb(0%,0%,100%)" r="0.7" /><circle cx="284.768804998" cy="371.140394095" fill="rgb(0%,0%,100%)" r="0.7" /><circle cx="286.096522318" cy="373.830263935" fill="rgb(0%,0%,100%)" r="0.7" /><circle cx="287.545024034" cy="376.457137262" fill="rgb(0%,0%,100%)" r="0.7" /><circle cx="289.038530592" cy="379.058798189" fill="rgb(0%,0%,100%)" r="0.7" /><circle cx="290.512973947" cy="381.67146288" fill="rgb(0%,0%,100%)" r="0.7" /><circle cx="291.987417303" cy="384.284127572" fill="rgb(0%,0%,100%)" r="0.7" /><circle cx="293.461860658" cy="386.896792264" fill="rgb(0%,0%,100%)" r="0.7" /><circle cx="294.936304014" cy="389.509456955" fill="rgb(0%,0%,100%)" r="0.7" /><circle cx="296.410747369" cy="392.122121647" fill="rgb(0%,0%,100%)" r="0.7" /><circle cx="297.885190725" cy="394.734786339" fill="rgb(0%,0%,100%)" r="0.7" /><circle cx="299.35963408" cy="397.347451031" fill="rgb(0%,0%,100%)" r="0.7" /><circle cx="300.834077436" cy="399.960115722" fill="rgb(0%,0%,100%)" r="0.7" /><circle cx="302.308520791" cy="402.572780414" fill="rgb(0%,0%,100%)" r="0.7" /><circle cx="301.211566335" cy="402.485603889" fill="rgb(0%,0%,100%)" r="0.7" /><circle cx="298.673814697" cy="400.885661196" fill="rgb(0%,0%,100%)" r="0.7" /><circle cx="296.136063059" cy="399.285718502" fill="rgb(0%,0%,100%)" r="0.7" /><circle cx="293.598311421" cy="397.685775808" fill="rgb(0%,0%,100%)" r="0.7" /><circle cx="291.060559783" cy="396.085833114" fill="rgb(0%,0%,100%)" r="0.7" /><circle cx="291.233877053" cy="398.913441615" fill="rgb(0%,0%,100%)" r="0.7" /><circle cx="291.50522326" cy="401.901144953" fill="rgb(0%,0%,100%)" r="0.7" /><circle cx="291.776569467" cy="404.888848291" fill="rgb(0%,0%,100%)" r="0.7" /><circle cx="292.003" cy="407.382" fill="rgb(0%,0%,100%)" r="0.7" /></svg>