<?xml version="1.0" encoding="utf-8" ?>
<svg baseProfile="full" height="100%" version="1.1" width="100%" xmlns="http://www.w3.org/2000/svg" xmlns:ev="http://www.w3.org/2001/xml-events" xmlns:xlink="http://www.w3.org/1999/xlink"><defs /><circle cx="331.049779431" cy="351.219098135" fill="rgb(100%,0%,0%)" r="0.7" /><circle cx="328.056277207" cy="351.389065541" fill="rgb(100%,0%,0%)" r="0.7" /><circle cx="325.098257005" cy="351.881391217" fill="rgb(100%,0%,0%)" r="0.7" /><circle cx="322.202751811" cy="352.66176918" fill="rgb(100%,0%,0%)" r="0.7" /><circle cx="319.324839539" cy="353.260310466" fill="rgb(100%,0%,0%)" r="0.7" /><circle cx="316.325215956" cy="353.250619492" fill="rgb(100%,0%,0%)" r="0.7" /><circle cx="313.326548177" cy="353.338507371" fill="rgb(100%,0%,0%)" r="0.7" /><circle cx="310.329457036" cy="353.470359125" fill="rgb(100%,0%,0%)" r="0.7" /><circle cx="307.333663697" cy="353.629048674" fill="rgb(100%,0%,0%)" r="0.7" /><circle cx="304.338918356" cy="353.806516499" fill="rgb(100%,0%,0%)" r="0.7" /><circle cx="301.345051459" cy="353.998246448" fill="rgb(100%,0%,0%)" r="0.7" /><circle cx="298.351944359" cy="354.201456872" fill="rgb(100%,0%,0%)" r="0.7" /><circle cx="295.359504326" cy="354.414361405" fill="rgb(100%,0%,0%)" r="0.7" /><circle cx="292.367693054" cy="354.635846486" fill="rgb(100%,0%,0%)" r="0.7" /><circle cx="289.376483269" cy="354.86542152" fill="rgb(100%,0%,0%)" r="0.7" /><circle cx="286.386" cy="355.104" fill="rgb(100%,0%,0%)" r="0.7" /><circle cx="286.417940677" cy="356.376115736" fill="rgb(100%,0%,0%)" r="0.7" /><circle cx="286.493241876" cy="359.375170542" fill="rgb(100%,0%,0%)" r="0.7" /><circle cx="286.568543074" cy="362.374225348" fill="rgb(100%,0%,0%)" r="0.7" /><circle cx="286.74528088" cy="365.304319753" fill="rgb(100%,0%,0%)" r="0.7" /><circle cx="289.613244148" cy="366.171091181" fill="rgb(100%,0%,0%)" r="0.7" /><circle cx="292.569312275" cy="366.677222882" fill="rgb(100%,0%,0%)" r="0.7" /><circle cx="295.55324922" cy="366.983884089" fill="rgb(100%,0%,0%)" r="0.7" /><circle cx="298.547894409" cy="367.160325079" fill="rgb(100%,0%,0%)" r="0.7" /><circle cx="301.546664772" cy="367.243009682" fill="rgb(100%,0%,0%)" r="0.7" /><circle cx="304.546590474" cy="367.253653724" fill="rgb(100%,0%,0%)" r="0.7" /><circle cx="331.049779431" cy="351.219098135" fill="rgb(0%,0%,100%)" r="0.7" /><circle cx="334.04037287" cy="351.425294202" fill="rgb(0%,0%,100%)" r="0.7" /><circle cx="336.967702879" cy="352.067155099" fill="rgb(0%,0%,100%)" r="0.7" /><circle cx="339.745743042" cy="353.189231388" fill="rgb(0%,0%,100%)" r="0.7" /><circle cx="342.275442301" cy="354.793988698" fill="rgb(0%,0%,100%)" r="0.7" /><circle cx="343.389579192" cy="357.206830319" fill="rgb(0%,0%,100%)" r="0.7" /><circle cx="342.88392332" cy="360.162837632" fill="rgb(0%,0%,100%)" r="0.7" /><circle cx="342.013513394" cy="363.029761624" fill="rgb(0%,0%,100%)" r="0.7" /><circle cx="340.216803614" cy="365.353488807" fill="rgb(0%,0%,100%)" r="0.7" /><circle cx="337.655624236" cy="364.397553776" fill="rgb(0%,0%,100%)" r="0.7" /><circle cx="335.622558998" cy="362.19366053" fill="rgb(0%,0%,100%)" r="0.7" /><circle cx="333.216763227" cy="361.535552559" fill="rgb(0%,0%,100%)" r="0.7" /><circle cx="330.869425964" cy="363.400981834" fill="rgb(0%,0%,100%)" r="0.7" /><circle cx="328.302676283" cy="364.948648072" fill="rgb(0%,0%,100%)" r="0.7" /><circle cx="325.495424093" cy="365.9862085" fill="rgb(0%,0%,100%)" r="0.7" /><circle cx="322.518683168" cy="366.339503508" fill="rgb(0%,0%,100%)" r="0.7" /><circle cx="319.528814533" cy="366.585592334" fill="rgb(0%,0%,100%)" r="0.7" /><circle cx="316.536244674" cy="366.796461942" fill="rgb(0%,0%,100%)" r="0.7" /><circle cx="313.541418557" cy="366.97218288" fill="rgb(0%,0%,100%)" r="0.7" /><circle cx="310.544616456" cy="367.110244871" fill="rgb(0%,0%,100%)" r="0.7" /><circle cx="307.546178427" cy="367.206245535" fill="rgb(0%,0%,100%)" r="0.7" /><circle cx="304.546590474" cy="367.253653724" fill="rgb(0%,0%,100%)" r="0.7" /></svg>