<?xml version="1.0" encoding="utf-8" ?>
<svg baseProfile="full" height="100%" version="1.1" width="100%" xmlns="http://www.w3.org/2000/svg" xmlns:ev="http://www.w3.org/2001/xml-events" xmlns:xlink="http://www.w3.org/1999/xlink"><defs /><circle cx="309.678998935" cy="320.150630677" fill="rgb(100%,0%,0%)" r="0.7" /><circle cx="306.692491301" cy="320.279471459" fill="rgb(100%,0%,0%)" r="0.7" /><circle cx="303.903365304" cy="321.342730682" fill="rgb(100%,0%,0%)" r="0.7" /><circle cx="301.634455318" cy="323.286551377" fill="rgb(100%,0%,0%)" r="0.7" /><circle cx="299.68236413" cy="325.564057983" fill="rgb(100%,0%,0%)" r="0.7" /><circle cx="297.834635001" cy="327.927272116" fill="rgb(100%,0%,0%)" r="0.7" /><circle cx="296.072220385" cy="330.354836375" fill="rgb(100%,0%,0%)" r="0.7" /><circle cx="294.388618243" cy="332.837730191" fill="rgb(100%,0%,0%)" r="0.7" /><circle cx="292.78086066" cy="335.370410428" fill="rgb(100%,0%,0%)" r="0.7" /><circle cx="291.247600594" cy="337.948875381" fill="rgb(100%,0%,0%)" r="0.7" /><circle cx="289.759671146" cy="340.553842138" fill="rgb(100%,0%,0%)" r="0.7" /><circle cx="288.235072655" cy="343.137541343" fill="rgb(100%,0%,0%)" r="0.7" /><circle cx="286.679748911" cy="345.702864071" fill="rgb(100%,0%,0%)" r="0.7" /><circle cx="285.095243301" cy="348.250263161" fill="rgb(100%,0%,0%)" r="0.7" /><circle cx="283.480822376" cy="350.778808157" fill="rgb(100%,0%,0%)" r="0.7" /><circle cx="281.834530359" cy="353.286715436" fill="rgb(100%,0%,0%)" r="0.7" /><circle cx="280.153352839" cy="355.771365234" fill="rgb(100%,0%,0%)" r="0.7" /><circle cx="278.433100393" cy="358.229112795" fill="rgb(100%,0%,0%)" r="0.7" /><circle cx="276.668089588" cy="360.654900088" fill="rgb(100%,0%,0%)" r="0.7" /><circle cx="274.8505662" cy="363.041567106" fill="rgb(100%,0%,0%)" r="0.7" /><circle cx="272.969712879" cy="365.378599363" fill="rgb(100%,0%,0%)" r="0.7" /><circle cx="271.023725564" cy="367.661781274" fill="rgb(100%,0%,0%)" r="0.7" /><circle cx="269.055251336" cy="369.925649539" fill="rgb(100%,0%,0%)" r="0.7" /><circle cx="267.069638164" cy="372.174485945" fill="rgb(100%,0%,0%)" r="0.7" /><circle cx="265.067918759" cy="374.409004921" fill="rgb(100%,0%,0%)" r="0.7" /><circle cx="263.050236547" cy="376.62912979" fill="rgb(100%,0%,0%)" r="0.7" /><circle cx="261.016284381" cy="378.834349466" fill="rgb(100%,0%,0%)" r="0.7" /><circle cx="258.965419196" cy="381.023843846" fill="rgb(100%,0%,0%)" r="0.7" /><circle cx="256.89671129" cy="383.19649608" fill="rgb(100%,0%,0%)" r="0.7" /><circle cx="254.808962221" cy="385.350852079" fill="rgb(100%,0%,0%)" r="0.7" /><circle cx="252.700656714" cy="387.48508819" fill="rgb(100%,0%,0%)" r="0.7" /><circle cx="250.569910831" cy="389.596921166" fill="rgb(100%,0%,0%)" r="0.7" /><circle cx="248.414399968" cy="391.683464837" fill="rgb(100%,0%,0%)" r="0.7" /><circle cx="246.23122954" cy="393.741039951" fill="rgb(100%,0%,0%)" r="0.7" /><circle cx="244.016754353" cy="395.764875754" fill="rgb(100%,0%,0%)" r="0.7" /><circle cx="241.766324014" cy="397.748630348" fill="rgb(100%,0%,0%)" r="0.7" /><circle cx="239.473869594" cy="399.68363236" fill="rgb(100%,0%,0%)" r="0.7" /><circle cx="237.131271339" cy="401.557555555" fill="rgb(100%,0%,0%)" r="0.7" /><circle cx="234.727326913" cy="403.351973837" fill="rgb(100%,0%,0%)" r="0.7" /><circle cx="235.817622886" cy="403.428178428" fill="rgb(100%,0%,0%)" r="0.7" /><circle cx="238.717855852" cy="402.66094395" fill="rgb(100%,0%,0%)" r="0.7" /><circle cx="241.618088818" cy="401.893709472" fill="rgb(100%,0%,0%)" r="0.7" /><circle cx="244.518321783" cy="401.126474994" fill="rgb(100%,0%,0%)" r="0.7" /><circle cx="245.487069664" cy="402.196221482" fill="rgb(100%,0%,0%)" r="0.7" /><circle cx="244.575429189" cy="405.054352278" fill="rgb(100%,0%,0%)" r="0.7" /><circle cx="243.663788714" cy="407.912483073" fill="rgb(100%,0%,0%)" r="0.7" /><circle cx="242.75214824" cy="410.770613869" fill="rgb(100%,0%,0%)" r="0.7" /><circle cx="241.840507765" cy="413.628744665" fill="rgb(100%,0%,0%)" r="0.7" /><circle cx="240.92886729" cy="416.48687546" fill="rgb(100%,0%,0%)" r="0.7" /><circle cx="240.925" cy="416.499" fill="rgb(100%,0%,0%)" r="0.7" /><circle cx="309.678998935" cy="320.150630677" fill="rgb(0%,0%,100%)" r="0.7" /><circle cx="312.532348811" cy="320.969997674" fill="rgb(0%,0%,100%)" r="0.7" /><circle cx="313.744129867" cy="323.616823161" fill="rgb(0%,0%,100%)" r="0.7" /><circle cx="313.553004242" cy="326.602598767" fill="rgb(0%,0%,100%)" r="0.7" /><circle cx="312.851697788" cy="329.517778202" fill="rgb(0%,0%,100%)" r="0.7" /><circle cx="311.893004091" cy="332.359836117" fill="rgb(0%,0%,100%)" r="0.7" /><circle cx="310.767883193" cy="335.14051321" fill="rgb(0%,0%,100%)" r="0.7" /><circle cx="309.506124428" cy="337.86188845" fill="rgb(0%,0%,100%)" r="0.7" /><circle cx="308.059232611" cy="340.489847123" fill="rgb(0%,0%,100%)" r="0.7" /><circle cx="306.567580784" cy="343.092684881" fill="rgb(0%,0%,100%)" r="0.7" /><circle cx="305.033476674" cy="345.670734031" fill="rgb(0%,0%,100%)" r="0.7" /><circle cx="303.458845504" cy="348.224233661" fill="rgb(0%,0%,100%)" r="0.7" /><circle cx="301.845497244" cy="350.753448946" fill="rgb(0%,0%,100%)" r="0.7" /><circle cx="300.195128099" cy="353.258670895" fill="rgb(0%,0%,100%)" r="0.7" /><circle cx="298.509335592" cy="355.740196057" fill="rgb(0%,0%,100%)" r="0.7" /><circle cx="296.789616968" cy="358.198332825" fill="rgb(0%,0%,100%)" r="0.7" /><circle cx="295.037375876" cy="360.633394883" fill="rgb(0%,0%,100%)" r="0.7" /><circle cx="293.253928504" cy="363.045695967" fill="rgb(0%,0%,100%)" r="0.7" /><circle cx="291.440509513" cy="365.435545209" fill="rgb(0%,0%,100%)" r="0.7" /><circle cx="289.598266651" cy="367.803257022" fill="rgb(0%,0%,100%)" r="0.7" /><circle cx="287.728288877" cy="370.149117517" fill="rgb(0%,0%,100%)" r="0.7" /><circle cx="285.831575456" cy="372.473426485" fill="rgb(0%,0%,100%)" r="0.7" /><circle cx="283.909076465" cy="374.776448575" fill="rgb(0%,0%,100%)" r="0.7" /><circle cx="281.961671889" cy="377.058441329" fill="rgb(0%,0%,100%)" r="0.7" /><circle cx="279.990163539" cy="379.319664386" fill="rgb(0%,0%,100%)" r="0.7" /><circle cx="277.995325941" cy="381.560321172" fill="rgb(0%,0%,100%)" r="0.7" /><circle cx="275.977851817" cy="383.780621478" fill="rgb(0%,0%,100%)" r="0.7" /><circle cx="273.938391006" cy="385.980735691" fill="rgb(0%,0%,100%)" r="0.7" /><circle cx="271.877523541" cy="388.160821905" fill="rgb(0%,0%,100%)" r="0.7" /><circle cx="269.795795529" cy="390.320983634" fill="rgb(0%,0%,100%)" r="0.7" /><circle cx="267.693671135" cy="392.461314615" fill="rgb(0%,0%,100%)" r="0.7" /><circle cx="265.571579972" cy="394.581841244" fill="rgb(0%,0%,100%)" r="0.7" /><circle cx="263.429861209" cy="396.682567608" fill="rgb(0%,0%,100%)" r="0.7" /><circle cx="261.268820489" cy="398.763402337" fill="rgb(0%,0%,100%)" r="0.7" /><circle cx="259.088671916" cy="400.824192702" fill="rgb(0%,0%,100%)" r="0.7" /><circle cx="256.889518056" cy="402.864707593" fill="rgb(0%,0%,100%)" r="0.7" /><circle cx="254.671381502" cy="404.884555648" fill="rgb(0%,0%,100%)" r="0.7" /><circle cx="252.434106431" cy="406.883193213" fill="rgb(0%,0%,100%)" r="0.7" /><circle cx="250.177345129" cy="408.859794486" fill="rgb(0%,0%,100%)" r="0.7" /><circle cx="247.900405457" cy="410.813123836" fill="rgb(0%,0%,100%)" r="0.7" /><circle cx="245.602043658" cy="412.741149342" fill="rgb(0%,0%,100%)" r="0.7" /><circle cx="243.279613002" cy="414.640190417" fill="rgb(0%,0%,100%)" r="0.7" /><circle cx="240.925" cy="416.499" fill="rgb(0%,0%,100%)" r="0.7" /></svg>