<?xml version="1.0" encoding="utf-8" ?>
<svg baseProfile="full" height="100%" version="1.1" width="100%" xmlns="http://www.w3.org/2000/svg" xmlns:ev="http://www.w3.org/2001/xml-events" xmlns:xlink="http://www.w3.org/1999/xlink"><defs /><circle cx="370.811857046" cy="306.337436803" fill="rgb(100%,0%,0%)" r="0.7" /><circle cx="367.848032492" cy="306.600709394" fill="rgb(100%,0%,0%)" r="0.7" /><circle cx="365.095988267" cy="307.780261844" fill="rgb(100%,0%,0%)" r="0.7" /><circle cx="362.700375329" cy="309.569600621" fill="rgb(100%,0%,0%)" r="0.7" /><circle cx="360.338106016" cy="311.418191843" fill="rgb(100%,0%,0%)" r="0.7" /><circle cx="357.594493367" cy="312.37697088" fill="rgb(100%,0%,0%)" r="0.7" /><circle cx="354.60500883" cy="312.626871734" fill="rgb(100%,0%,0%)" r="0.7" /><circle cx="351.624286422" cy="312.965186678" fill="rgb(100%,0%,0%)" r="0.7" /><circle cx="348.660770012" cy="313.429308583" fill="rgb(100%,0%,0%)" r="0.7" /><circle cx="345.745856138" cy="314.130871751" fill="rgb(100%,0%,0%)" r="0.7" /><circle cx="342.980072105" cy="315.285981045" fill="rgb(100%,0%,0%)" r="0.7" /><circle cx="340.24523147" cy="316.518907714" fill="rgb(100%,0%,0%)" r="0.7" /><circle cx="337.543013501" cy="317.82181616" fill="rgb(100%,0%,0%)" r="0.7" /><circle cx="334.874228826" cy="319.191889455" fill="rgb(100%,0%,0%)" r="0.7" /><circle cx="332.242609055" cy="320.632035528" fill="rgb(100%,0%,0%)" r="0.7" /><circle cx="329.65415939" cy="322.148350582" fill="rgb(100%,0%,0%)" r="0.7" /><circle cx="327.117597358" cy="323.749882127" fill="rgb(100%,0%,0%)" r="0.7" /><circle cx="324.645485731" cy="325.449091566" fill="rgb(100%,0%,0%)" r="0.7" /><circle cx="322.256281152" cy="327.262835309" fill="rgb(100%,0%,0%)" r="0.7" /><circle cx="319.978070684" cy="329.2138529" fill="rgb(100%,0%,0%)" r="0.7" /><circle cx="317.855573946" cy="331.332634263" fill="rgb(100%,0%,0%)" r="0.7" /><circle cx="315.963622557" cy="333.658462236" fill="rgb(100%,0%,0%)" r="0.7" /><circle cx="314.403994493" cy="336.218642442" fill="rgb(100%,0%,0%)" r="0.7" /><circle cx="312.982298385" cy="338.860257362" fill="rgb(100%,0%,0%)" r="0.7" /><circle cx="311.631072221" cy="341.538637407" fill="rgb(100%,0%,0%)" r="0.7" /><circle cx="310.340359433" cy="344.246724217" fill="rgb(100%,0%,0%)" r="0.7" /><circle cx="309.108002089" cy="346.981856166" fill="rgb(100%,0%,0%)" r="0.7" /><circle cx="307.934359499" cy="349.74269563" fill="rgb(100%,0%,0%)" r="0.7" /><circle cx="306.82121034" cy="352.528467393" fill="rgb(100%,0%,0%)" r="0.7" /><circle cx="305.771358917" cy="355.338706271" fill="rgb(100%,0%,0%)" r="0.7" /><circle cx="304.788517954" cy="358.173059299" fill="rgb(100%,0%,0%)" r="0.7" /><circle cx="303.877266232" cy="361.031227697" fill="rgb(100%,0%,0%)" r="0.7" /><circle cx="303.043103543" cy="363.91282482" fill="rgb(100%,0%,0%)" r="0.7" /><circle cx="302.292523431" cy="366.817295493" fill="rgb(100%,0%,0%)" r="0.7" /><circle cx="301.633126474" cy="369.743796" fill="rgb(100%,0%,0%)" r="0.7" /><circle cx="301.073762668" cy="372.691025834" fill="rgb(100%,0%,0%)" r="0.7" /><circle cx="300.624686445" cy="375.657031326" fill="rgb(100%,0%,0%)" r="0.7" /><circle cx="300.635573032" cy="377.917426968" fill="rgb(100%,0%,0%)" r="0.7" /><circle cx="302.756893376" cy="375.796106624" fill="rgb(100%,0%,0%)" r="0.7" /><circle cx="304.878213719" cy="373.674786281" fill="rgb(100%,0%,0%)" r="0.7" /><circle cx="306.999534063" cy="371.553465937" fill="rgb(100%,0%,0%)" r="0.7" /><circle cx="309.254185998" cy="371.627278365" fill="rgb(100%,0%,0%)" r="0.7" /><circle cx="311.616660756" cy="373.476254573" fill="rgb(100%,0%,0%)" r="0.7" /><circle cx="313.979135514" cy="375.325230781" fill="rgb(100%,0%,0%)" r="0.7" /><circle cx="316.341610272" cy="377.17420699" fill="rgb(100%,0%,0%)" r="0.7" /><circle cx="318.189" cy="378.648" fill="rgb(100%,0%,0%)" r="0.7" /><circle cx="370.811857046" cy="306.337436803" fill="rgb(0%,0%,100%)" r="0.7" /><circle cx="373.421054932" cy="307.70744967" fill="rgb(0%,0%,100%)" r="0.7" /><circle cx="374.959378276" cy="310.258617169" fill="rgb(0%,0%,100%)" r="0.7" /><circle cx="375.660770195" cy="313.168633443" fill="rgb(0%,0%,100%)" r="0.7" /><circle cx="375.693780318" cy="316.164291129" fill="rgb(0%,0%,100%)" r="0.7" /><circle cx="375.465706259" cy="319.154988206" fill="rgb(0%,0%,100%)" r="0.7" /><circle cx="375.000601779" cy="322.117687567" fill="rgb(0%,0%,100%)" r="0.7" /><circle cx="374.227998557" cy="325.014551916" fill="rgb(0%,0%,100%)" r="0.7" /><circle cx="373.021609739" cy="327.756049711" fill="rgb(0%,0%,100%)" r="0.7" /><circle cx="371.185285673" cy="330.109992547" fill="rgb(0%,0%,100%)" r="0.7" /><circle cx="368.46158942" cy="331.284967124" fill="rgb(0%,0%,100%)" r="0.7" /><circle cx="365.471461608" cy="331.342570669" fill="rgb(0%,0%,100%)" r="0.7" /><circle cx="362.526595971" cy="330.785864094" fill="rgb(0%,0%,100%)" r="0.7" /><circle cx="359.675638698" cy="329.856806783" fill="rgb(0%,0%,100%)" r="0.7" /><circle cx="356.840088285" cy="329.360707375" fill="rgb(0%,0%,100%)" r="0.7" /><circle cx="354.056591634" cy="330.474460794" fill="rgb(0%,0%,100%)" r="0.7" /><circle cx="351.356104852" cy="331.780688279" fill="rgb(0%,0%,100%)" r="0.7" /><circle cx="348.694315137" cy="333.164357988" fill="rgb(0%,0%,100%)" r="0.7" /><circle cx="346.057526913" cy="334.595158425" fill="rgb(0%,0%,100%)" r="0.7" /><circle cx="343.440529803" cy="336.06185459" fill="rgb(0%,0%,100%)" r="0.7" /><circle cx="340.877354653" cy="337.617530392" fill="rgb(0%,0%,100%)" r="0.7" /><circle cx="338.472402127" cy="339.410201245" fill="rgb(0%,0%,100%)" r="0.7" /><circle cx="336.142204243" cy="341.29953132" fill="rgb(0%,0%,100%)" r="0.7" /><circle cx="333.857681216" cy="343.243916825" fill="rgb(0%,0%,100%)" r="0.7" /><circle cx="331.756433603" cy="345.368762886" fill="rgb(0%,0%,100%)" r="0.7" /><circle cx="330.228856413" cy="347.948527801" fill="rgb(0%,0%,100%)" r="0.7" /><circle cx="328.902625021" cy="350.639151863" fill="rgb(0%,0%,100%)" r="0.7" /><circle cx="327.673799808" cy="353.375833861" fill="rgb(0%,0%,100%)" r="0.7" /><circle cx="326.505846273" cy="356.139103017" fill="rgb(0%,0%,100%)" r="0.7" /><circle cx="325.380941212" cy="358.920194717" fill="rgb(0%,0%,100%)" r="0.7" /><circle cx="324.288873236" cy="361.71435236" fill="rgb(0%,0%,100%)" r="0.7" /><circle cx="323.223224881" cy="364.518697827" fill="rgb(0%,0%,100%)" r="0.7" /><circle cx="322.179750139" cy="367.331372275" fill="rgb(0%,0%,100%)" r="0.7" /><circle cx="321.155609472" cy="370.151140851" fill="rgb(0%,0%,100%)" r="0.7" /><circle cx="320.149031126" cy="372.977231158" fill="rgb(0%,0%,100%)" r="0.7" /><circle cx="319.159381816" cy="375.809297255" fill="rgb(0%,0%,100%)" r="0.7" /><circle cx="318.189" cy="378.648" fill="rgb(0%,0%,100%)" r="0.7" /></svg>