<?xml version="1.0" encoding="utf-8" ?>
<svg baseProfile="full" height="100%" version="1.1" width="100%" xmlns="http://www.w3.org/2000/svg" xmlns:ev="http://www.w3.org/2001/xml-events" xmlns:xlink="http://www.w3.org/1999/xlink"><defs /><circle cx="291.671630413" cy="235.672298407" fill="rgb(100%,0%,0%)" r="0.7" /><circle cx="288.705670934" cy="236.097995697" fill="rgb(100%,0%,0%)" r="0.7" /><circle cx="285.8526116" cy="237.012494657" fill="rgb(100%,0%,0%)" r="0.7" /><circle cx="283.304284397" cy="238.574730618" fill="rgb(100%,0%,0%)" r="0.7" /><circle cx="281.429625588" cy="240.894335444" fill="rgb(100%,0%,0%)" r="0.7" /><circle cx="280.499903349" cy="243.731922092" fill="rgb(100%,0%,0%)" r="0.7" /><circle cx="280.402740703" cy="246.723483011" fill="rgb(100%,0%,0%)" r="0.7" /><circle cx="280.885341331" cy="249.681193803" fill="rgb(100%,0%,0%)" r="0.7" /><circle cx="281.766353374" cy="252.547110803" fill="rgb(100%,0%,0%)" r="0.7" /><circle cx="282.953183441" cy="255.300873914" fill="rgb(100%,0%,0%)" r="0.7" /><circle cx="284.116593667" cy="258.061775207" fill="rgb(100%,0%,0%)" r="0.7" /><circle cx="285.001014796" cy="260.927727306" fill="rgb(100%,0%,0%)" r="0.7" /><circle cx="285.692019305" cy="263.846597098" fill="rgb(100%,0%,0%)" r="0.7" /><circle cx="286.221792301" cy="266.799132573" fill="rgb(100%,0%,0%)" r="0.7" /><circle cx="286.614837938" cy="269.773046117" fill="rgb(100%,0%,0%)" r="0.7" /><circle cx="286.889778129" cy="272.760251367" fill="rgb(100%,0%,0%)" r="0.7" /><circle cx="287.060689932" cy="275.755243622" fill="rgb(100%,0%,0%)" r="0.7" /><circle cx="287.13797409" cy="278.754139436" fill="rgb(100%,0%,0%)" r="0.7" /><circle cx="287.128728117" cy="281.754026076" fill="rgb(100%,0%,0%)" r="0.7" /><circle cx="287.036335586" cy="284.752511538" fill="rgb(100%,0%,0%)" r="0.7" /><circle cx="286.857386175" cy="287.747047376" fill="rgb(100%,0%,0%)" r="0.7" /><circle cx="286.736862604" cy="290.74132221" fill="rgb(100%,0%,0%)" r="0.7" /><circle cx="286.717050936" cy="293.741222851" fill="rgb(100%,0%,0%)" r="0.7" /><circle cx="286.649189621" cy="296.740425569" fill="rgb(100%,0%,0%)" r="0.7" /><circle cx="286.535055989" cy="299.738223783" fill="rgb(100%,0%,0%)" r="0.7" /><circle cx="286.376285112" cy="302.733993064" fill="rgb(100%,0%,0%)" r="0.7" /><circle cx="286.17437349" cy="305.727168102" fill="rgb(100%,0%,0%)" r="0.7" /><circle cx="285.930681599" cy="308.717231121" fill="rgb(100%,0%,0%)" r="0.7" /><circle cx="285.646433662" cy="311.703712866" fill="rgb(100%,0%,0%)" r="0.7" /><circle cx="285.322716539" cy="314.686175017" fill="rgb(100%,0%,0%)" r="0.7" /><circle cx="284.960474883" cy="317.66420378" fill="rgb(100%,0%,0%)" r="0.7" /><circle cx="284.560501829" cy="320.637403449" fill="rgb(100%,0%,0%)" r="0.7" /><circle cx="284.12342637" cy="323.605369229" fill="rgb(100%,0%,0%)" r="0.7" /><circle cx="283.649683351" cy="326.567713843" fill="rgb(100%,0%,0%)" r="0.7" /><circle cx="283.139482591" cy="329.52399402" fill="rgb(100%,0%,0%)" r="0.7" /><circle cx="282.592736463" cy="332.473732553" fill="rgb(100%,0%,0%)" r="0.7" /><circle cx="282.008947522" cy="335.416362701" fill="rgb(100%,0%,0%)" r="0.7" /><circle cx="281.386989715" cy="338.351155113" fill="rgb(100%,0%,0%)" r="0.7" /><circle cx="280.724619105" cy="341.277094969" fill="rgb(100%,0%,0%)" r="0.7" /><circle cx="280.017101856" cy="344.19244217" fill="rgb(100%,0%,0%)" r="0.7" /><circle cx="279.259443675" cy="347.094599252" fill="rgb(100%,0%,0%)" r="0.7" /><circle cx="278.797407682" cy="350.058802" fill="rgb(100%,0%,0%)" r="0.7" /><circle cx="278.31870043" cy="353.020341959" fill="rgb(100%,0%,0%)" r="0.7" /><circle cx="277.822417321" cy="355.979016193" fill="rgb(100%,0%,0%)" r="0.7" /><circle cx="277.307576325" cy="358.934499626" fill="rgb(100%,0%,0%)" r="0.7" /><circle cx="276.773080623" cy="361.886478312" fill="rgb(100%,0%,0%)" r="0.7" /><circle cx="276.21769999" cy="364.834637124" fill="rgb(100%,0%,0%)" r="0.7" /><circle cx="275.640080248" cy="367.778483762" fill="rgb(100%,0%,0%)" r="0.7" /><circle cx="275.038669837" cy="370.71757992" fill="rgb(100%,0%,0%)" r="0.7" /><circle cx="274.411723519" cy="373.65132462" fill="rgb(100%,0%,0%)" r="0.7" /><circle cx="273.757232962" cy="376.579056713" fill="rgb(100%,0%,0%)" r="0.7" /><circle cx="273.072888499" cy="379.499932222" fill="rgb(100%,0%,0%)" r="0.7" /><circle cx="272.355974887" cy="382.413000172" fill="rgb(100%,0%,0%)" r="0.7" /><circle cx="271.603292495" cy="385.317027541" fill="rgb(100%,0%,0%)" r="0.7" /><circle cx="270.81099338" cy="388.210483151" fill="rgb(100%,0%,0%)" r="0.7" /><circle cx="269.974359732" cy="391.091430763" fill="rgb(100%,0%,0%)" r="0.7" /><circle cx="269.087489076" cy="393.957292011" fill="rgb(100%,0%,0%)" r="0.7" /><circle cx="268.142753948" cy="396.804591926" fill="rgb(100%,0%,0%)" r="0.7" /><circle cx="267.129920581" cy="399.628359895" fill="rgb(100%,0%,0%)" r="0.7" /><circle cx="266.034468639" cy="402.421041182" fill="rgb(100%,0%,0%)" r="0.7" /><circle cx="264.833903046" cy="405.170091225" fill="rgb(100%,0%,0%)" r="0.7" /><circle cx="263.487620182" cy="407.850420632" fill="rgb(100%,0%,0%)" r="0.7" /><circle cx="261.877" cy="410.377" fill="rgb(100%,0%,0%)" r="0.7" /><circle cx="263.741465357" cy="408.726454196" fill="rgb(100%,0%,0%)" r="0.7" /><circle cx="265.987730812" cy="406.737914152" fill="rgb(100%,0%,0%)" r="0.7" /><circle cx="268.233996268" cy="404.749374109" fill="rgb(100%,0%,0%)" r="0.7" /><circle cx="270.480261723" cy="402.760834065" fill="rgb(100%,0%,0%)" r="0.7" /><circle cx="272.726527178" cy="400.772294021" fill="rgb(100%,0%,0%)" r="0.7" /><circle cx="274.972792633" cy="398.783753978" fill="rgb(100%,0%,0%)" r="0.7" /><circle cx="277.219058088" cy="396.795213934" fill="rgb(100%,0%,0%)" r="0.7" /><circle cx="279.465323544" cy="394.806673891" fill="rgb(100%,0%,0%)" r="0.7" /><circle cx="281.262171276" cy="394.703425466" fill="rgb(100%,0%,0%)" r="0.7" /><circle cx="282.36979018" cy="397.491467855" fill="rgb(100%,0%,0%)" r="0.7" /><circle cx="283.477409084" cy="400.279510244" fill="rgb(100%,0%,0%)" r="0.7" /><circle cx="284.585027988" cy="403.067552633" fill="rgb(100%,0%,0%)" r="0.7" /><circle cx="285.692646891" cy="405.855595023" fill="rgb(100%,0%,0%)" r="0.7" /><circle cx="286.800265795" cy="408.643637412" fill="rgb(100%,0%,0%)" r="0.7" /><circle cx="287.907884699" cy="411.431679801" fill="rgb(100%,0%,0%)" r="0.7" /><circle cx="289.015503603" cy="414.21972219" fill="rgb(100%,0%,0%)" r="0.7" /><circle cx="290.169299804" cy="415.572344304" fill="rgb(100%,0%,0%)" r="0.7" /><circle cx="291.671630413" cy="235.672298407" fill="rgb(0%,0%,100%)" r="0.7" /><circle cx="294.663350655" cy="235.806131533" fill="rgb(0%,0%,100%)" r="0.7" /><circle cx="297.547532864" cy="236.604316132" fill="rgb(0%,0%,100%)" r="0.7" /><circle cx="300.140074311" cy="238.097464532" fill="rgb(0%,0%,100%)" r="0.7" /><circle cx="302.29261384" cy="240.17755863" fill="rgb(0%,0%,100%)" r="0.7" /><circle cx="303.971644785" cy="242.658589937" fill="rgb(0%,0%,100%)" r="0.7" /><circle cx="305.231614382" cy="245.378488848" fill="rgb(0%,0%,100%)" r="0.7" /><circle cx="306.418629559" cy="248.132500763" fill="rgb(0%,0%,100%)" r="0.7" /><circle cx="307.472830922" cy="250.9408858" fill="rgb(0%,0%,100%)" r="0.7" /><circle cx="308.40962137" cy="253.790689634" fill="rgb(0%,0%,100%)" r="0.7" /><circle cx="309.244695035" cy="256.671973936" fill="rgb(0%,0%,100%)" r="0.7" /><circle cx="309.986584615" cy="259.578675534" fill="rgb(0%,0%,100%)" r="0.7" /><circle cx="310.640829201" cy="262.506350456" fill="rgb(0%,0%,100%)" r="0.7" /><circle cx="311.211418677" cy="265.451498762" fill="rgb(0%,0%,100%)" r="0.7" /><circle cx="311.701412111" cy="268.41111355" fill="rgb(0%,0%,100%)" r="0.7" /><circle cx="312.113298798" cy="271.382620767" fill="rgb(0%,0%,100%)" r="0.7" /><circle cx="312.449177882" cy="274.363686168" fill="rgb(0%,0%,100%)" r="0.7" /><circle cx="312.710886461" cy="277.352173663" fill="rgb(0%,0%,100%)" r="0.7" /><circle cx="312.900081777" cy="280.346123731" fill="rgb(0%,0%,100%)" r="0.7" /><circle cx="313.018294319" cy="283.34372736" fill="rgb(0%,0%,100%)" r="0.7" /><circle cx="313.066964097" cy="286.343266272" fill="rgb(0%,0%,100%)" r="0.7" /><circle cx="313.04747002" cy="289.343137569" fill="rgb(0%,0%,100%)" r="0.7" /><circle cx="312.961148233" cy="292.341835318" fill="rgb(0%,0%,100%)" r="0.7" /><circle cx="312.814836445" cy="295.33819405" fill="rgb(0%,0%,100%)" r="0.7" /><circle cx="312.686759539" cy="298.335409432" fill="rgb(0%,0%,100%)" r="0.7" /><circle cx="312.531610843" cy="301.331383705" fill="rgb(0%,0%,100%)" r="0.7" /><circle cx="312.355878672" cy="304.326230205" fill="rgb(0%,0%,100%)" r="0.7" /><circle cx="312.161829107" cy="307.319953854" fill="rgb(0%,0%,100%)" r="0.7" /><circle cx="311.950626543" cy="310.312505275" fill="rgb(0%,0%,100%)" r="0.7" /><circle cx="311.722927829" cy="313.303850715" fill="rgb(0%,0%,100%)" r="0.7" /><circle cx="311.479102549" cy="316.293941727" fill="rgb(0%,0%,100%)" r="0.7" /><circle cx="311.21933959" cy="319.282659263" fill="rgb(0%,0%,100%)" r="0.7" /><circle cx="310.94368894" cy="322.269958967" fill="rgb(0%,0%,100%)" r="0.7" /><circle cx="310.65210216" cy="325.255756894" fill="rgb(0%,0%,100%)" r="0.7" /><circle cx="310.344451544" cy="328.239936595" fill="rgb(0%,0%,100%)" r="0.7" /><circle cx="310.020536929" cy="331.222401357" fill="rgb(0%,0%,100%)" r="0.7" /><circle cx="309.680099324" cy="334.203015251" fill="rgb(0%,0%,100%)" r="0.7" /><circle cx="309.322817351" cy="337.181676036" fill="rgb(0%,0%,100%)" r="0.7" /><circle cx="308.948322458" cy="340.158206114" fill="rgb(0%,0%,100%)" r="0.7" /><circle cx="308.556188306" cy="343.132451791" fill="rgb(0%,0%,100%)" r="0.7" /><circle cx="308.145930557" cy="346.104274312" fill="rgb(0%,0%,100%)" r="0.7" /><circle cx="307.717019743" cy="349.073446467" fill="rgb(0%,0%,100%)" r="0.7" /><circle cx="307.268861071" cy="352.039782964" fill="rgb(0%,0%,100%)" r="0.7" /><circle cx="306.800806585" cy="355.003032011" fill="rgb(0%,0%,100%)" r="0.7" /><circle cx="306.312138061" cy="357.962960937" fill="rgb(0%,0%,100%)" r="0.7" /><circle cx="305.802074543" cy="360.919275072" fill="rgb(0%,0%,100%)" r="0.7" /><circle cx="305.269758144" cy="363.87166794" fill="rgb(0%,0%,100%)" r="0.7" /><circle cx="304.714254011" cy="366.819779114" fill="rgb(0%,0%,100%)" r="0.7" /><circle cx="304.134536091" cy="369.763225433" fill="rgb(0%,0%,100%)" r="0.7" /><circle cx="303.52948296" cy="372.701568542" fill="rgb(0%,0%,100%)" r="0.7" /><circle cx="302.897866136" cy="375.634315213" fill="rgb(0%,0%,100%)" r="0.7" /><circle cx="302.23833793" cy="378.5609092" fill="rgb(0%,0%,100%)" r="0.7" /><circle cx="301.549417113" cy="381.480722238" fill="rgb(0%,0%,100%)" r="0.7" /><circle cx="300.829472238" cy="384.393042756" fill="rgb(0%,0%,100%)" r="0.7" /><circle cx="300.07670586" cy="387.297047971" fill="rgb(0%,0%,100%)" r="0.7" /><circle cx="299.289128464" cy="390.191801673" fill="rgb(0%,0%,100%)" r="0.7" /><circle cx="298.464532552" cy="393.076230079" fill="rgb(0%,0%,100%)" r="0.7" /><circle cx="297.60046649" cy="395.949078719" fill="rgb(0%,0%,100%)" r="0.7" /><circle cx="296.694196359" cy="398.808887323" fill="rgb(0%,0%,100%)" r="0.7" /><circle cx="295.742662241" cy="401.653951175" fill="rgb(0%,0%,100%)" r="0.7" /><circle cx="294.742435233" cy="404.482246849" fill="rgb(0%,0%,100%)" r="0.7" /><circle cx="293.689641669" cy="407.291411482" fill="rgb(0%,0%,100%)" r="0.7" /><circle cx="292.579928247" cy="410.078561547" fill="rgb(0%,0%,100%)" r="0.7" /><circle cx="291.408353891" cy="412.840257841" fill="rgb(0%,0%,100%)" r="0.7" /><circle cx="290.169299804" cy="415.572344304" fill="rgb(0%,0%,100%)" r="0.7" /></svg>