<?xml version="1.0" encoding="utf-8" ?>
<svg baseProfile="full" height="100%" version="1.1" width="100%" xmlns="http://www.w3.org/2000/svg" xmlns:ev="http://www.w3.org/2001/xml-events" xmlns:xlink="http://www.w3.org/1999/xlink"><defs /><circle cx="348.340892614" cy="319.181533329" fill="rgb(100%,0%,0%)" r="0.7" /><circle cx="346.824345377" cy="321.769991789" fill="rgb(100%,0%,0%)" r="0.7" /><circle cx="345.305231663" cy="324.356930655" fill="rgb(100%,0%,0%)" r="0.7" /><circle cx="343.784053263" cy="326.942665543" fill="rgb(100%,0%,0%)" r="0.7" /><circle cx="342.261054433" cy="329.527326934" fill="rgb(100%,0%,0%)" r="0.7" /><circle cx="340.736376901" cy="332.111000879" fill="rgb(100%,0%,0%)" r="0.7" /><circle cx="339.210118997" cy="334.693738684" fill="rgb(100%,0%,0%)" r="0.7" /><circle cx="337.682345697" cy="337.275584861" fill="rgb(100%,0%,0%)" r="0.7" /><circle cx="336.153113736" cy="339.856556994" fill="rgb(100%,0%,0%)" r="0.7" /><circle cx="334.622452523" cy="342.436690485" fill="rgb(100%,0%,0%)" r="0.7" /><circle cx="333.090396371" cy="345.015991808" fill="rgb(100%,0%,0%)" r="0.7" /><circle cx="331.579259419" cy="347.607441967" fill="rgb(100%,0%,0%)" r="0.7" /><circle cx="330.073807722" cy="350.202338916" fill="rgb(100%,0%,0%)" r="0.7" /><circle cx="328.542533096" cy="352.782093864" fill="rgb(100%,0%,0%)" r="0.7" /><circle cx="326.986004403" cy="355.346690579" fill="rgb(100%,0%,0%)" r="0.7" /><circle cx="325.402417837" cy="357.894665787" fill="rgb(100%,0%,0%)" r="0.7" /><circle cx="323.788391188" cy="360.423458593" fill="rgb(100%,0%,0%)" r="0.7" /><circle cx="322.138736564" cy="362.929145721" fill="rgb(100%,0%,0%)" r="0.7" /><circle cx="320.445679392" cy="365.405689501" fill="rgb(100%,0%,0%)" r="0.7" /><circle cx="318.697166234" cy="367.84335398" fill="rgb(100%,0%,0%)" r="0.7" /><circle cx="316.873157595" cy="370.224931748" fill="rgb(100%,0%,0%)" r="0.7" /><circle cx="314.936060956" cy="372.515081523" fill="rgb(100%,0%,0%)" r="0.7" /><circle cx="312.854731518" cy="374.672261957" fill="rgb(100%,0%,0%)" r="0.7" /><circle cx="310.41651664" cy="376.412404765" fill="rgb(100%,0%,0%)" r="0.7" /><circle cx="307.711623063" cy="377.702219217" fill="rgb(100%,0%,0%)" r="0.7" /><circle cx="304.84003883" cy="378.561343681" fill="rgb(100%,0%,0%)" r="0.7" /><circle cx="301.877295452" cy="379.019252059" fill="rgb(100%,0%,0%)" r="0.7" /><circle cx="299.762" cy="380.004582311" fill="rgb(100%,0%,0%)" r="0.7" /><circle cx="299.762" cy="383.004582311" fill="rgb(100%,0%,0%)" r="0.7" /><circle cx="299.762" cy="386.004582311" fill="rgb(100%,0%,0%)" r="0.7" /><circle cx="299.762" cy="389.004582311" fill="rgb(100%,0%,0%)" r="0.7" /><circle cx="299.762" cy="392.004582311" fill="rgb(100%,0%,0%)" r="0.7" /><circle cx="299.762" cy="395.004582311" fill="rgb(100%,0%,0%)" r="0.7" /><circle cx="299.762" cy="398.004582311" fill="rgb(100%,0%,0%)" r="0.7" /><circle cx="299.945" cy="399.476" fill="rgb(100%,0%,0%)" r="0.7" /><circle cx="302.940853752" cy="399.63330259" fill="rgb(100%,0%,0%)" r="0.7" /><circle cx="305.934691277" cy="399.825208881" fill="rgb(100%,0%,0%)" r="0.7" /><circle cx="308.924979241" cy="400.065728465" fill="rgb(100%,0%,0%)" r="0.7" /><circle cx="311.898483041" cy="400.436340048" fill="rgb(100%,0%,0%)" r="0.7" /><circle cx="314.818947212" cy="401.105427131" fill="rgb(100%,0%,0%)" r="0.7" /><circle cx="317.810867" cy="401.252895941" fill="rgb(100%,0%,0%)" r="0.7" /><circle cx="320.760535554" cy="400.750595179" fill="rgb(100%,0%,0%)" r="0.7" /><circle cx="323.610927367" cy="400.054017661" fill="rgb(100%,0%,0%)" r="0.7" /><circle cx="326.540017739" cy="400.676872666" fill="rgb(100%,0%,0%)" r="0.7" /><circle cx="329.323236038" cy="401.789718985" fill="rgb(100%,0%,0%)" r="0.7" /><circle cx="331.996829253" cy="403.150456804" fill="rgb(100%,0%,0%)" r="0.7" /><circle cx="334.651472088" cy="404.547853287" fill="rgb(100%,0%,0%)" r="0.7" /><circle cx="337.279188939" cy="405.994928962" fill="rgb(100%,0%,0%)" r="0.7" /><circle cx="340.044945105" cy="407.156828455" fill="rgb(100%,0%,0%)" r="0.7" /><circle cx="342.837563422" cy="408.252693815" fill="rgb(100%,0%,0%)" r="0.7" /><circle cx="345.655127696" cy="409.282694558" fill="rgb(100%,0%,0%)" r="0.7" /><circle cx="348.499953589" cy="410.234671004" fill="rgb(100%,0%,0%)" r="0.7" /><circle cx="351.376546947" cy="411.085535608" fill="rgb(100%,0%,0%)" r="0.7" /><circle cx="354.291645839" cy="411.792250999" fill="rgb(100%,0%,0%)" r="0.7" /><circle cx="357.253018936" cy="412.263350562" fill="rgb(100%,0%,0%)" r="0.7" /><circle cx="348.340892614" cy="319.181533329" fill="rgb(0%,0%,100%)" r="0.7" /><circle cx="349.326683045" cy="319.736849363" fill="rgb(0%,0%,100%)" r="0.7" /><circle cx="349.911840002" cy="322.67922788" fill="rgb(0%,0%,100%)" r="0.7" /><circle cx="350.496996959" cy="325.621606397" fill="rgb(0%,0%,100%)" r="0.7" /><circle cx="351.082153916" cy="328.563984913" fill="rgb(0%,0%,100%)" r="0.7" /><circle cx="351.667310873" cy="331.50636343" fill="rgb(0%,0%,100%)" r="0.7" /><circle cx="352.428507719" cy="334.083957375" fill="rgb(0%,0%,100%)" r="0.7" /><circle cx="355.096047622" cy="332.711284482" fill="rgb(0%,0%,100%)" r="0.7" /><circle cx="357.763587524" cy="331.33861159" fill="rgb(0%,0%,100%)" r="0.7" /><circle cx="360.431127426" cy="329.965938697" fill="rgb(0%,0%,100%)" r="0.7" /><circle cx="363.098667328" cy="328.593265805" fill="rgb(0%,0%,100%)" r="0.7" /><circle cx="364.300157595" cy="328.553542966" fill="rgb(0%,0%,100%)" r="0.7" /><circle cx="362.640782365" cy="331.052787409" fill="rgb(0%,0%,100%)" r="0.7" /><circle cx="360.946931391" cy="333.528828184" fill="rgb(0%,0%,100%)" r="0.7" /><circle cx="359.232431057" cy="335.990629548" fill="rgb(0%,0%,100%)" r="0.7" /><circle cx="357.503621675" cy="338.442406105" fill="rgb(0%,0%,100%)" r="0.7" /><circle cx="355.763992856" cy="340.886519715" fill="rgb(0%,0%,100%)" r="0.7" /><circle cx="354.01565976" cy="343.32441312" fill="rgb(0%,0%,100%)" r="0.7" /><circle cx="352.259941376" cy="345.756994599" fill="rgb(0%,0%,100%)" r="0.7" /><circle cx="350.497586134" cy="348.184777806" fill="rgb(0%,0%,100%)" r="0.7" /><circle cx="348.728673404" cy="350.607776176" fill="rgb(0%,0%,100%)" r="0.7" /><circle cx="346.917343581" cy="352.998900877" fill="rgb(0%,0%,100%)" r="0.7" /><circle cx="345.123176818" cy="355.403176668" fill="rgb(0%,0%,100%)" r="0.7" /><circle cx="343.392098632" cy="357.853234489" fill="rgb(0%,0%,100%)" r="0.7" /><circle cx="341.737109168" cy="360.355262641" fill="rgb(0%,0%,100%)" r="0.7" /><circle cx="340.179175848" cy="362.918739637" fill="rgb(0%,0%,100%)" r="0.7" /><circle cx="338.762133496" cy="365.562309604" fill="rgb(0%,0%,100%)" r="0.7" /><circle cx="337.434105978" cy="368.25062864" fill="rgb(0%,0%,100%)" r="0.7" /><circle cx="336.254563855" cy="371.007549227" fill="rgb(0%,0%,100%)" r="0.7" /><circle cx="335.402745202" cy="373.881895237" fill="rgb(0%,0%,100%)" r="0.7" /><circle cx="334.971248266" cy="376.84752746" fill="rgb(0%,0%,100%)" r="0.7" /><circle cx="335.054688125" cy="379.842069031" fill="rgb(0%,0%,100%)" r="0.7" /><circle cx="335.714508633" cy="382.763446086" fill="rgb(0%,0%,100%)" r="0.7" /><circle cx="336.941958421" cy="385.495537292" fill="rgb(0%,0%,100%)" r="0.7" /><circle cx="338.658670919" cy="387.950997559" fill="rgb(0%,0%,100%)" r="0.7" /><circle cx="340.757412965" cy="390.090515057" fill="rgb(0%,0%,100%)" r="0.7" /><circle cx="343.142638084" cy="391.906217667" fill="rgb(0%,0%,100%)" r="0.7" /><circle cx="345.755632739" cy="393.374192996" fill="rgb(0%,0%,100%)" r="0.7" /><circle cx="348.480594561" cy="394.628939532" fill="rgb(0%,0%,100%)" r="0.7" /><circle cx="351.204544748" cy="395.88595798" fill="rgb(0%,0%,100%)" r="0.7" /><circle cx="353.928494935" cy="397.142976429" fill="rgb(0%,0%,100%)" r="0.7" /><circle cx="356.652445122" cy="398.399994877" fill="rgb(0%,0%,100%)" r="0.7" /><circle cx="359.376395309" cy="399.657013325" fill="rgb(0%,0%,100%)" r="0.7" /><circle cx="362.091470321" cy="400.932142263" fill="rgb(0%,0%,100%)" r="0.7" /><circle cx="364.374050926" cy="402.842465714" fill="rgb(0%,0%,100%)" r="0.7" /><circle cx="365.348028506" cy="405.628445878" fill="rgb(0%,0%,100%)" r="0.7" /><circle cx="364.685475455" cy="408.496768817" fill="rgb(0%,0%,100%)" r="0.7" /><circle cx="362.816861084" cy="410.830415426" fill="rgb(0%,0%,100%)" r="0.7" /><circle cx="360.244882047" cy="412.241622154" fill="rgb(0%,0%,100%)" r="0.7" /><circle cx="357.253018936" cy="412.263350562" fill="rgb(0%,0%,100%)" r="0.7" /></svg>