<?xml version="1.0" encoding="utf-8" ?>
<svg baseProfile="full" height="100%" version="1.1" width="100%" xmlns="http://www.w3.org/2000/svg" xmlns:ev="http://www.w3.org/2001/xml-events" xmlns:xlink="http://www.w3.org/1999/xlink"><defs /><circle cx="303.682840261" cy="354.0259263" fill="rgb(100%,0%,0%)" r="0.7" /><circle cx="300.804179852" cy="354.815428155" fill="rgb(100%,0%,0%)" r="0.7" /><circle cx="298.262337315" cy="356.396063201" fill="rgb(100%,0%,0%)" r="0.7" /><circle cx="296.063585398" cy="358.432602903" fill="rgb(100%,0%,0%)" r="0.7" /><circle cx="294.151542356" cy="360.742242797" fill="rgb(100%,0%,0%)" r="0.7" /><circle cx="292.494767646" cy="363.241620602" fill="rgb(100%,0%,0%)" r="0.7" /><circle cx="291.247921946" cy="365.966702894" fill="rgb(100%,0%,0%)" r="0.7" /><circle cx="290.394265159" cy="368.839860585" fill="rgb(100%,0%,0%)" r="0.7" /><circle cx="290.016770275" cy="371.811999605" fill="rgb(100%,0%,0%)" r="0.7" /><circle cx="290.22963903" cy="374.798448671" fill="rgb(100%,0%,0%)" r="0.7" /><circle cx="291.272689788" cy="377.582732591" fill="rgb(100%,0%,0%)" r="0.7" /><circle cx="292.653320254" cy="380.239693294" fill="rgb(100%,0%,0%)" r="0.7" /><circle cx="293.410988306" cy="383.13568727" fill="rgb(100%,0%,0%)" r="0.7" /><circle cx="293.507062711" cy="386.128333928" fill="rgb(100%,0%,0%)" r="0.7" /><circle cx="293.001452162" cy="389.080988145" fill="rgb(100%,0%,0%)" r="0.7" /><circle cx="291.99353836" cy="391.903142422" fill="rgb(100%,0%,0%)" r="0.7" /><circle cx="290.542" cy="394.524" fill="rgb(100%,0%,0%)" r="0.7" /><circle cx="292.295295372" cy="393.265520762" fill="rgb(100%,0%,0%)" r="0.7" /><circle cx="294.732462096" cy="391.51617278" fill="rgb(100%,0%,0%)" r="0.7" /><circle cx="296.536236146" cy="391.703008004" fill="rgb(100%,0%,0%)" r="0.7" /><circle cx="297.468293499" cy="394.554546026" fill="rgb(100%,0%,0%)" r="0.7" /><circle cx="298.400350852" cy="397.406084048" fill="rgb(100%,0%,0%)" r="0.7" /><circle cx="303.682840261" cy="354.0259263" fill="rgb(0%,0%,100%)" r="0.7" /><circle cx="306.648495838" cy="354.280385909" fill="rgb(0%,0%,100%)" r="0.7" /><circle cx="307.98348676" cy="356.702745071" fill="rgb(0%,0%,100%)" r="0.7" /><circle cx="307.006850127" cy="359.521079808" fill="rgb(0%,0%,100%)" r="0.7" /><circle cx="305.418029962" cy="362.062953253" fill="rgb(0%,0%,100%)" r="0.7" /><circle cx="303.666220903" cy="364.498351582" fill="rgb(0%,0%,100%)" r="0.7" /><circle cx="301.914411845" cy="366.933749911" fill="rgb(0%,0%,100%)" r="0.7" /><circle cx="300.162602786" cy="369.369148241" fill="rgb(0%,0%,100%)" r="0.7" /><circle cx="299.648292765" cy="372.229172423" fill="rgb(0%,0%,100%)" r="0.7" /><circle cx="299.703358294" cy="375.228012009" fill="rgb(0%,0%,100%)" r="0.7" /><circle cx="300.07951" cy="378.20101513" fill="rgb(0%,0%,100%)" r="0.7" /><circle cx="300.703912646" cy="381.131962423" fill="rgb(0%,0%,100%)" r="0.7" /><circle cx="301.078630623" cy="384.107947274" fill="rgb(0%,0%,100%)" r="0.7" /><circle cx="301.249060316" cy="387.102416301" fill="rgb(0%,0%,100%)" r="0.7" /><circle cx="301.16765882" cy="390.100161241" fill="rgb(0%,0%,100%)" r="0.7" /><circle cx="300.744749632" cy="393.067859227" fill="rgb(0%,0%,100%)" r="0.7" /><circle cx="299.82703311" cy="395.918264556" fill="rgb(0%,0%,100%)" r="0.7" /><circle cx="298.400350852" cy="397.406084048" fill="rgb(0%,0%,100%)" r="0.7" /></svg>