<?xml version="1.0" encoding="utf-8" ?>
<svg baseProfile="full" height="100%" version="1.1" width="100%" xmlns="http://www.w3.org/2000/svg" xmlns:ev="http://www.w3.org/2001/xml-events" xmlns:xlink="http://www.w3.org/1999/xlink"><defs /><circle cx="288.91511922" cy="353.242177" fill="rgb(100%,0%,0%)" r="0.7" /><circle cx="286.148322729" cy="353.31838971" fill="rgb(100%,0%,0%)" r="0.7" /><circle cx="283.807051599" cy="355.182651916" fill="rgb(100%,0%,0%)" r="0.7" /><circle cx="281.772185091" cy="357.385434424" fill="rgb(100%,0%,0%)" r="0.7" /><circle cx="279.911948191" cy="359.738422241" fill="rgb(100%,0%,0%)" r="0.7" /><circle cx="278.25468789" cy="362.234870722" fill="rgb(100%,0%,0%)" r="0.7" /><circle cx="277.202633382" cy="365.037349758" fill="rgb(100%,0%,0%)" r="0.7" /><circle cx="276.718616746" cy="367.994530923" fill="rgb(100%,0%,0%)" r="0.7" /><circle cx="276.659251451" cy="370.992118881" fill="rgb(100%,0%,0%)" r="0.7" /><circle cx="276.913545612" cy="373.980297115" fill="rgb(100%,0%,0%)" r="0.7" /><circle cx="277.405671412" cy="376.939027177" fill="rgb(100%,0%,0%)" r="0.7" /><circle cx="278.085113735" cy="379.860651768" fill="rgb(100%,0%,0%)" r="0.7" /><circle cx="278.918556972" cy="382.742242949" fill="rgb(100%,0%,0%)" r="0.7" /><circle cx="279.885452434" cy="385.5818969" fill="rgb(100%,0%,0%)" r="0.7" /><circle cx="280.979091349" cy="388.375155815" fill="rgb(100%,0%,0%)" r="0.7" /><circle cx="282.340535623" cy="391.043945523" fill="rgb(100%,0%,0%)" r="0.7" /><circle cx="283.794964088" cy="393.667784126" fill="rgb(100%,0%,0%)" r="0.7" /><circle cx="285.218567079" cy="396.308478952" fill="rgb(100%,0%,0%)" r="0.7" /><circle cx="286.612052132" cy="398.96518769" fill="rgb(100%,0%,0%)" r="0.7" /><circle cx="287.97607137" cy="401.637147908" fill="rgb(100%,0%,0%)" r="0.7" /><circle cx="289.311210891" cy="404.323655226" fill="rgb(100%,0%,0%)" r="0.7" /><circle cx="290.617992133" cy="407.024066241" fill="rgb(100%,0%,0%)" r="0.7" /><circle cx="291.896875303" cy="409.737810506" fill="rgb(100%,0%,0%)" r="0.7" /><circle cx="293.148233898" cy="412.464345586" fill="rgb(100%,0%,0%)" r="0.7" /><circle cx="294.372377559" cy="415.203220902" fill="rgb(100%,0%,0%)" r="0.7" /><circle cx="295.569506605" cy="417.954002293" fill="rgb(100%,0%,0%)" r="0.7" /><circle cx="296.739727709" cy="420.716343655" fill="rgb(100%,0%,0%)" r="0.7" /><circle cx="297.883005736" cy="423.489934798" fill="rgb(100%,0%,0%)" r="0.7" /><circle cx="298.999152836" cy="426.274569204" fill="rgb(100%,0%,0%)" r="0.7" /><circle cx="300.087740336" cy="429.070084469" fill="rgb(100%,0%,0%)" r="0.7" /><circle cx="301.148026107" cy="431.876453284" fill="rgb(100%,0%,0%)" r="0.7" /><circle cx="302.178754996" cy="434.693801727" fill="rgb(100%,0%,0%)" r="0.7" /><circle cx="303.177768173" cy="437.522562293" fill="rgb(100%,0%,0%)" r="0.7" /><circle cx="304.140853085" cy="440.363755909" fill="rgb(100%,0%,0%)" r="0.7" /><circle cx="305.055" cy="443.221" fill="rgb(100%,0%,0%)" r="0.7" /><circle cx="288.91511922" cy="353.242177" fill="rgb(0%,0%,100%)" r="0.7" /><circle cx="289.90292234" cy="356.03425682" fill="rgb(0%,0%,100%)" r="0.7" /><circle cx="290.661183266" cy="358.936850009" fill="rgb(0%,0%,100%)" r="0.7" /><circle cx="291.430840609" cy="361.836441422" fill="rgb(0%,0%,100%)" r="0.7" /><circle cx="292.213892983" cy="364.732442292" fill="rgb(0%,0%,100%)" r="0.7" /><circle cx="293.014502939" cy="367.623634166" fill="rgb(0%,0%,100%)" r="0.7" /><circle cx="293.841038642" cy="370.507512007" fill="rgb(0%,0%,100%)" r="0.7" /><circle cx="294.714263516" cy="373.377540966" fill="rgb(0%,0%,100%)" r="0.7" /><circle cx="295.69618524" cy="376.211421123" fill="rgb(0%,0%,100%)" r="0.7" /><circle cx="296.608356878" cy="379.069382443" fill="rgb(0%,0%,100%)" r="0.7" /><circle cx="297.520528516" cy="381.927343762" fill="rgb(0%,0%,100%)" r="0.7" /><circle cx="298.432700154" cy="384.785305081" fill="rgb(0%,0%,100%)" r="0.7" /><circle cx="299.344871793" cy="387.6432664" fill="rgb(0%,0%,100%)" r="0.7" /><circle cx="300.257043431" cy="390.50122772" fill="rgb(0%,0%,100%)" r="0.7" /><circle cx="301.169215069" cy="393.359189039" fill="rgb(0%,0%,100%)" r="0.7" /><circle cx="302.081386707" cy="396.217150358" fill="rgb(0%,0%,100%)" r="0.7" /><circle cx="302.993558345" cy="399.075111677" fill="rgb(0%,0%,100%)" r="0.7" /><circle cx="303.905729984" cy="401.933072997" fill="rgb(0%,0%,100%)" r="0.7" /><circle cx="304.817901622" cy="404.791034316" fill="rgb(0%,0%,100%)" r="0.7" /><circle cx="305.73007326" cy="407.648995635" fill="rgb(0%,0%,100%)" r="0.7" /><circle cx="306.642244898" cy="410.506956955" fill="rgb(0%,0%,100%)" r="0.7" /><circle cx="307.554416536" cy="413.364918274" fill="rgb(0%,0%,100%)" r="0.7" /><circle cx="308.466588175" cy="416.222879593" fill="rgb(0%,0%,100%)" r="0.7" /><circle cx="309.378759813" cy="419.080840912" fill="rgb(0%,0%,100%)" r="0.7" /><circle cx="310.290931451" cy="421.938802232" fill="rgb(0%,0%,100%)" r="0.7" /><circle cx="311.203103089" cy="424.796763551" fill="rgb(0%,0%,100%)" r="0.7" /><circle cx="312.115274727" cy="427.65472487" fill="rgb(0%,0%,100%)" r="0.7" /><circle cx="313.027446366" cy="430.512686189" fill="rgb(0%,0%,100%)" r="0.7" /><circle cx="313.939618004" cy="433.370647509" fill="rgb(0%,0%,100%)" r="0.7" /><circle cx="314.851789642" cy="436.228608828" fill="rgb(0%,0%,100%)" r="0.7" /><circle cx="313.385347031" cy="437.012980909" fill="rgb(0%,0%,100%)" r="0.7" /><circle cx="310.429685839" cy="436.49910649" fill="rgb(0%,0%,100%)" r="0.7" /><circle cx="307.604623983" cy="436.210750934" fill="rgb(0%,0%,100%)" r="0.7" /><circle cx="306.579237617" cy="439.030074044" fill="rgb(0%,0%,100%)" r="0.7" /><circle cx="305.55385125" cy="441.849397154" fill="rgb(0%,0%,100%)" r="0.7" /><circle cx="305.055" cy="443.221" fill="rgb(0%,0%,100%)" r="0.7" /></svg>