<?xml version="1.0" encoding="utf-8" ?>
<svg baseProfile="full" height="100%" version="1.1" width="100%" xmlns="http://www.w3.org/2000/svg" xmlns:ev="http://www.w3.org/2001/xml-events" xmlns:xlink="http://www.w3.org/1999/xlink"><defs /><circle cx="313.287785139" cy="345.013896554" fill="rgb(100%,0%,0%)" r="0.7" /><circle cx="310.684953707" cy="345.411078585" fill="rgb(100%,0%,0%)" r="0.7" /><circle cx="308.711623007" cy="347.665894591" fill="rgb(100%,0%,0%)" r="0.7" /><circle cx="306.96590849" cy="350.105193104" fill="rgb(100%,0%,0%)" r="0.7" /><circle cx="305.322332022" cy="352.614760167" fill="rgb(100%,0%,0%)" r="0.7" /><circle cx="303.741286554" cy="355.164271775" fill="rgb(100%,0%,0%)" r="0.7" /><circle cx="302.21085984" cy="357.744419027" fill="rgb(100%,0%,0%)" r="0.7" /><circle cx="300.680776308" cy="360.324896757" fill="rgb(100%,0%,0%)" r="0.7" /><circle cx="299.124188802" cy="362.889455459" fill="rgb(100%,0%,0%)" r="0.7" /><circle cx="297.545642001" cy="365.440542695" fill="rgb(100%,0%,0%)" r="0.7" /><circle cx="295.946888458" cy="367.979036303" fill="rgb(100%,0%,0%)" r="0.7" /><circle cx="294.328777177" cy="370.505237819" fill="rgb(100%,0%,0%)" r="0.7" /><circle cx="292.691685742" cy="373.019181833" fill="rgb(100%,0%,0%)" r="0.7" /><circle cx="291.035707634" cy="375.520724625" fill="rgb(100%,0%,0%)" r="0.7" /><circle cx="289.360740155" cy="378.009586347" fill="rgb(100%,0%,0%)" r="0.7" /><circle cx="287.666523464" cy="380.485382041" fill="rgb(100%,0%,0%)" r="0.7" /><circle cx="285.952664468" cy="382.947632391" fill="rgb(100%,0%,0%)" r="0.7" /><circle cx="284.218673621" cy="385.395733093" fill="rgb(100%,0%,0%)" r="0.7" /><circle cx="282.463931529" cy="387.829009545" fill="rgb(100%,0%,0%)" r="0.7" /><circle cx="280.687725643" cy="390.246660584" fill="rgb(100%,0%,0%)" r="0.7" /><circle cx="278.889229778" cy="392.64777487" fill="rgb(100%,0%,0%)" r="0.7" /><circle cx="277.067502277" cy="395.03131283" fill="rgb(100%,0%,0%)" r="0.7" /><circle cx="275.221483083" cy="397.396083152" fill="rgb(100%,0%,0%)" r="0.7" /><circle cx="273.349976347" cy="399.740730279" fill="rgb(100%,0%,0%)" r="0.7" /><circle cx="271.4516393" cy="402.063704429" fill="rgb(100%,0%,0%)" r="0.7" /><circle cx="269.524965397" cy="404.363228603" fill="rgb(100%,0%,0%)" r="0.7" /><circle cx="267.568266258" cy="406.637254739" fill="rgb(100%,0%,0%)" r="0.7" /><circle cx="265.579646106" cy="408.883413739" fill="rgb(100%,0%,0%)" r="0.7" /><circle cx="263.556972374" cy="411.098950945" fill="rgb(100%,0%,0%)" r="0.7" /><circle cx="261.497843173" cy="413.28064162" fill="rgb(100%,0%,0%)" r="0.7" /><circle cx="260.438537577" cy="414.569974949" fill="rgb(100%,0%,0%)" r="0.7" /><circle cx="262.93468846" cy="412.90587436" fill="rgb(100%,0%,0%)" r="0.7" /><circle cx="265.430839343" cy="411.241773771" fill="rgb(100%,0%,0%)" r="0.7" /><circle cx="267.926990226" cy="409.577673183" fill="rgb(100%,0%,0%)" r="0.7" /><circle cx="267.726678534" cy="411.620776106" fill="rgb(100%,0%,0%)" r="0.7" /><circle cx="266.912298039" cy="414.508125134" fill="rgb(100%,0%,0%)" r="0.7" /><circle cx="266.097917544" cy="417.395474162" fill="rgb(100%,0%,0%)" r="0.7" /><circle cx="265.552" cy="419.331" fill="rgb(100%,0%,0%)" r="0.7" /><circle cx="313.287785139" cy="345.013896554" fill="rgb(0%,0%,100%)" r="0.7" /><circle cx="313.901538644" cy="347.789626708" fill="rgb(0%,0%,100%)" r="0.7" /><circle cx="313.302578974" cy="350.726606741" fill="rgb(0%,0%,100%)" r="0.7" /><circle cx="312.414140237" cy="353.591334886" fill="rgb(0%,0%,100%)" r="0.7" /><circle cx="311.231885025" cy="356.347184585" fill="rgb(0%,0%,100%)" r="0.7" /><circle cx="309.913484521" cy="359.041767249" fill="rgb(0%,0%,100%)" r="0.7" /><circle cx="308.507911717" cy="361.691994935" fill="rgb(0%,0%,100%)" r="0.7" /><circle cx="307.033113613" cy="364.304380101" fill="rgb(0%,0%,100%)" r="0.7" /><circle cx="305.501737026" cy="366.884031053" fill="rgb(0%,0%,100%)" r="0.7" /><circle cx="303.923041468" cy="369.435013627" fill="rgb(0%,0%,100%)" r="0.7" /><circle cx="302.304019514" cy="371.960609662" fill="rgb(0%,0%,100%)" r="0.7" /><circle cx="300.650096533" cy="374.463489225" fill="rgb(0%,0%,100%)" r="0.7" /><circle cx="298.965555784" cy="376.94587511" fill="rgb(0%,0%,100%)" r="0.7" /><circle cx="297.25385462" cy="379.409611533" fill="rgb(0%,0%,100%)" r="0.7" /><circle cx="295.517811965" cy="381.856261997" fill="rgb(0%,0%,100%)" r="0.7" /><circle cx="293.759762225" cy="384.287149786" fill="rgb(0%,0%,100%)" r="0.7" /><circle cx="291.981654545" cy="386.703406474" fill="rgb(0%,0%,100%)" r="0.7" /><circle cx="290.185130062" cy="389.106002516" fill="rgb(0%,0%,100%)" r="0.7" /><circle cx="288.371579722" cy="391.49577043" fill="rgb(0%,0%,100%)" r="0.7" /><circle cx="286.542182041" cy="393.873429869" fill="rgb(0%,0%,100%)" r="0.7" /><circle cx="284.69793446" cy="396.239602042" fill="rgb(0%,0%,100%)" r="0.7" /><circle cx="282.839695506" cy="398.594795907" fill="rgb(0%,0%,100%)" r="0.7" /><circle cx="280.968174612" cy="400.939448593" fill="rgb(0%,0%,100%)" r="0.7" /><circle cx="279.083955158" cy="403.273910401" fill="rgb(0%,0%,100%)" r="0.7" /><circle cx="277.187504189" cy="405.598433518" fill="rgb(0%,0%,100%)" r="0.7" /><circle cx="275.279133883" cy="407.913200975" fill="rgb(0%,0%,100%)" r="0.7" /><circle cx="273.359039987" cy="410.218231109" fill="rgb(0%,0%,100%)" r="0.7" /><circle cx="271.427166354" cy="412.513432792" fill="rgb(0%,0%,100%)" r="0.7" /><circle cx="269.483200799" cy="414.798357307" fill="rgb(0%,0%,100%)" r="0.7" /><circle cx="267.52607073" cy="417.072065296" fill="rgb(0%,0%,100%)" r="0.7" /><circle cx="265.552" cy="419.331" fill="rgb(0%,0%,100%)" r="0.7" /></svg>