<?xml version="1.0" encoding="utf-8" ?>
<svg baseProfile="full" height="100%" version="1.1" width="100%" xmlns="http://www.w3.org/2000/svg" xmlns:ev="http://www.w3.org/2001/xml-events" xmlns:xlink="http://www.w3.org/1999/xlink"><defs /><circle cx="336.902305282" cy="336.97914986" fill="rgb(100%,0%,0%)" r="0.7" /><circle cx="333.93185075" cy="337.31783177" fill="rgb(100%,0%,0%)" r="0.7" /><circle cx="331.094037328" cy="338.286775319" fill="rgb(100%,0%,0%)" r="0.7" /><circle cx="328.311086988" cy="339.406581289" fill="rgb(100%,0%,0%)" r="0.7" /><circle cx="325.57400197" cy="340.634287659" fill="rgb(100%,0%,0%)" r="0.7" /><circle cx="322.888412456" cy="341.970810525" fill="rgb(100%,0%,0%)" r="0.7" /><circle cx="320.263986027" cy="343.423666899" fill="rgb(100%,0%,0%)" r="0.7" /><circle cx="317.714922706" cy="345.004854128" fill="rgb(100%,0%,0%)" r="0.7" /><circle cx="315.261562282" cy="346.730562776" fill="rgb(100%,0%,0%)" r="0.7" /><circle cx="312.933206069" cy="348.621185114" fill="rgb(100%,0%,0%)" r="0.7" /><circle cx="310.77246949" cy="350.700770071" fill="rgb(100%,0%,0%)" r="0.7" /><circle cx="308.84967621" cy="353.000674473" fill="rgb(100%,0%,0%)" r="0.7" /><circle cx="307.115954829" cy="355.448819054" fill="rgb(100%,0%,0%)" r="0.7" /><circle cx="305.449984511" cy="357.943634731" fill="rgb(100%,0%,0%)" r="0.7" /><circle cx="303.842976311" cy="360.476846996" fill="rgb(100%,0%,0%)" r="0.7" /><circle cx="302.293028438" cy="363.045378339" fill="rgb(100%,0%,0%)" r="0.7" /><circle cx="300.800599455" cy="365.647731855" fill="rgb(100%,0%,0%)" r="0.7" /><circle cx="299.367449308" cy="368.283198395" fill="rgb(100%,0%,0%)" r="0.7" /><circle cx="297.996319232" cy="370.951456421" fill="rgb(100%,0%,0%)" r="0.7" /><circle cx="296.690792501" cy="373.652404647" fill="rgb(100%,0%,0%)" r="0.7" /><circle cx="295.455251129" cy="376.386070307" fill="rgb(100%,0%,0%)" r="0.7" /><circle cx="294.294915336" cy="379.152482143" fill="rgb(100%,0%,0%)" r="0.7" /><circle cx="293.215894499" cy="381.951592468" fill="rgb(100%,0%,0%)" r="0.7" /><circle cx="292.225269568" cy="384.783176656" fill="rgb(100%,0%,0%)" r="0.7" /><circle cx="291.331199388" cy="387.646690282" fill="rgb(100%,0%,0%)" r="0.7" /><circle cx="290.543026805" cy="390.541113076" fill="rgb(100%,0%,0%)" r="0.7" /><circle cx="289.871383735" cy="393.464738727" fill="rgb(100%,0%,0%)" r="0.7" /><circle cx="289.328272301" cy="396.414901864" fill="rgb(100%,0%,0%)" r="0.7" /><circle cx="288.927088023" cy="399.387639365" fill="rgb(100%,0%,0%)" r="0.7" /><circle cx="288.682538589" cy="402.377276884" fill="rgb(100%,0%,0%)" r="0.7" /><circle cx="288.550402295" cy="405.374041161" fill="rgb(100%,0%,0%)" r="0.7" /><circle cx="288.549453371" cy="408.373755474" fill="rgb(100%,0%,0%)" r="0.7" /><circle cx="288.662573771" cy="411.371497751" fill="rgb(100%,0%,0%)" r="0.7" /><circle cx="288.855882834" cy="414.365192419" fill="rgb(100%,0%,0%)" r="0.7" /><circle cx="289.112850623" cy="417.35412227" fill="rgb(100%,0%,0%)" r="0.7" /><circle cx="289.423188577" cy="420.337997202" fill="rgb(100%,0%,0%)" r="0.7" /><circle cx="289.779727284" cy="423.316707338" fill="rgb(100%,0%,0%)" r="0.7" /><circle cx="290.177125023" cy="426.290248915" fill="rgb(100%,0%,0%)" r="0.7" /><circle cx="290.611215173" cy="429.258652646" fill="rgb(100%,0%,0%)" r="0.7" /><circle cx="291.078645719" cy="432.222005983" fill="rgb(100%,0%,0%)" r="0.7" /><circle cx="291.576643333" cy="435.180369319" fill="rgb(100%,0%,0%)" r="0.7" /><circle cx="292.102878724" cy="438.133846968" fill="rgb(100%,0%,0%)" r="0.7" /><circle cx="292.655355586" cy="441.082517714" fill="rgb(100%,0%,0%)" r="0.7" /><circle cx="293.232351866" cy="444.026500732" fill="rgb(100%,0%,0%)" r="0.7" /><circle cx="293.832355441" cy="446.965887037" fill="rgb(100%,0%,0%)" r="0.7" /><circle cx="294.45402659" cy="449.900750686" fill="rgb(100%,0%,0%)" r="0.7" /><circle cx="295.096182946" cy="452.831217274" fill="rgb(100%,0%,0%)" r="0.7" /><circle cx="295.757752708" cy="455.757353131" fill="rgb(100%,0%,0%)" r="0.7" /><circle cx="336.902305282" cy="336.97914986" fill="rgb(0%,0%,100%)" r="0.7" /><circle cx="339.826939071" cy="337.580917665" fill="rgb(0%,0%,100%)" r="0.7" /><circle cx="342.412555661" cy="339.080227447" fill="rgb(0%,0%,100%)" r="0.7" /><circle cx="344.528486114" cy="341.19817704" fill="rgb(0%,0%,100%)" r="0.7" /><circle cx="346.202438985" cy="343.683574116" fill="rgb(0%,0%,100%)" r="0.7" /><circle cx="347.469574933" cy="346.39938644" fill="rgb(0%,0%,100%)" r="0.7" /><circle cx="348.279886887" cy="349.283266763" fill="rgb(0%,0%,100%)" r="0.7" /><circle cx="348.532656881" cy="352.268298986" fill="rgb(0%,0%,100%)" r="0.7" /><circle cx="348.258634629" cy="355.252287113" fill="rgb(0%,0%,100%)" r="0.7" /><circle cx="347.521606044" cy="358.157509382" fill="rgb(0%,0%,100%)" r="0.7" /><circle cx="346.370806339" cy="360.925054429" fill="rgb(0%,0%,100%)" r="0.7" /><circle cx="344.194467071" cy="362.88203807" fill="rgb(0%,0%,100%)" r="0.7" /><circle cx="341.696332218" cy="364.543158853" fill="rgb(0%,0%,100%)" r="0.7" /><circle cx="339.198197365" cy="366.204279636" fill="rgb(0%,0%,100%)" r="0.7" /><circle cx="336.695126181" cy="367.85777786" fill="rgb(0%,0%,100%)" r="0.7" /><circle cx="334.271584442" cy="369.623241573" fill="rgb(0%,0%,100%)" r="0.7" /><circle cx="332.044330944" cy="371.631348414" fill="rgb(0%,0%,100%)" r="0.7" /><circle cx="330.002238875" cy="373.827919844" fill="rgb(0%,0%,100%)" r="0.7" /><circle cx="328.130912228" cy="376.171953485" fill="rgb(0%,0%,100%)" r="0.7" /><circle cx="326.416627673" cy="378.633338148" fill="rgb(0%,0%,100%)" r="0.7" /><circle cx="324.848648853" cy="381.190509364" fill="rgb(0%,0%,100%)" r="0.7" /><circle cx="323.421645065" cy="383.828979789" fill="rgb(0%,0%,100%)" r="0.7" /><circle cx="322.143581815" cy="386.542617234" fill="rgb(0%,0%,100%)" r="0.7" /><circle cx="320.967884437" cy="389.302312998" fill="rgb(0%,0%,100%)" r="0.7" /><circle cx="319.934550987" cy="392.118218289" fill="rgb(0%,0%,100%)" r="0.7" /><circle cx="319.06961696" cy="394.990414544" fill="rgb(0%,0%,100%)" r="0.7" /><circle cx="318.359476736" cy="397.904823788" fill="rgb(0%,0%,100%)" r="0.7" /><circle cx="317.791019873" cy="400.850204412" fill="rgb(0%,0%,100%)" r="0.7" /><circle cx="317.352030421" cy="403.817693144" fill="rgb(0%,0%,100%)" r="0.7" /><circle cx="317.031380864" cy="406.800327744" fill="rgb(0%,0%,100%)" r="0.7" /><circle cx="316.81908321" cy="409.792656512" fill="rgb(0%,0%,100%)" r="0.7" /><circle cx="316.706263003" cy="412.790408902" fill="rgb(0%,0%,100%)" r="0.7" /><circle cx="316.68509273" cy="415.790227685" fill="rgb(0%,0%,100%)" r="0.7" /><circle cx="316.748708803" cy="418.789461256" fill="rgb(0%,0%,100%)" r="0.7" /><circle cx="316.891127699" cy="421.785998873" fill="rgb(0%,0%,100%)" r="0.7" /><circle cx="317.107170278" cy="424.778140767" fill="rgb(0%,0%,100%)" r="0.7" /><circle cx="317.392399747" cy="427.764487165" fill="rgb(0%,0%,100%)" r="0.7" /><circle cx="317.743080522" cy="430.743860126" fill="rgb(0%,0%,100%)" r="0.7" /><circle cx="318.156165048" cy="433.715234247" fill="rgb(0%,0%,100%)" r="0.7" /><circle cx="318.629314977" cy="436.677633117" fill="rgb(0%,0%,100%)" r="0.7" /><circle cx="319.160999553" cy="439.630095144" fill="rgb(0%,0%,100%)" r="0.7" /><circle cx="319.750705975" cy="442.571513441" fill="rgb(0%,0%,100%)" r="0.7" /><circle cx="320.399452011" cy="445.500490267" fill="rgb(0%,0%,100%)" r="0.7" /><circle cx="321.111077611" cy="448.414799148" fill="rgb(0%,0%,100%)" r="0.7" /><circle cx="321.896901214" cy="451.309944715" fill="rgb(0%,0%,100%)" r="0.7" /><circle cx="322.837" cy="454.156" fill="rgb(0%,0%,100%)" r="0.7" /><circle cx="320.93875284" cy="452.768704382" fill="rgb(0%,0%,100%)" r="0.7" /><circle cx="318.837108812" cy="450.627888561" fill="rgb(0%,0%,100%)" r="0.7" /><circle cx="316.735464785" cy="448.487072739" fill="rgb(0%,0%,100%)" r="0.7" /><circle cx="314.633820758" cy="446.346256917" fill="rgb(0%,0%,100%)" r="0.7" /><circle cx="312.532176731" cy="444.205441095" fill="rgb(0%,0%,100%)" r="0.7" /><circle cx="310.430532703" cy="442.064625274" fill="rgb(0%,0%,100%)" r="0.7" /><circle cx="308.328888676" cy="439.923809452" fill="rgb(0%,0%,100%)" r="0.7" /><circle cx="306.227244649" cy="437.78299363" fill="rgb(0%,0%,100%)" r="0.7" /><circle cx="304.125600622" cy="435.642177808" fill="rgb(0%,0%,100%)" r="0.7" /><circle cx="302.023956594" cy="433.501361987" fill="rgb(0%,0%,100%)" r="0.7" /><circle cx="299.922312567" cy="431.360546165" fill="rgb(0%,0%,100%)" r="0.7" /><circle cx="298.868787425" cy="432.346043018" fill="rgb(0%,0%,100%)" r="0.7" /><circle cx="298.482255783" cy="435.321037688" fill="rgb(0%,0%,100%)" r="0.7" /><circle cx="298.095724141" cy="438.296032359" fill="rgb(0%,0%,100%)" r="0.7" /><circle cx="297.709192499" cy="441.271027029" fill="rgb(0%,0%,100%)" r="0.7" /><circle cx="297.322660858" cy="444.2460217" fill="rgb(0%,0%,100%)" r="0.7" /><circle cx="296.936129216" cy="447.221016371" fill="rgb(0%,0%,100%)" r="0.7" /><circle cx="296.549597574" cy="450.196011041" fill="rgb(0%,0%,100%)" r="0.7" /><circle cx="296.163065932" cy="453.171005712" fill="rgb(0%,0%,100%)" r="0.7" /><circle cx="295.757752708" cy="455.757353131" fill="rgb(0%,0%,100%)" r="0.7" /></svg>