<?xml version="1.0" encoding="utf-8" ?>
<svg baseProfile="full" height="100%" version="1.1" width="100%" xmlns="http://www.w3.org/2000/svg" xmlns:ev="http://www.w3.org/2001/xml-events" xmlns:xlink="http://www.w3.org/1999/xlink"><defs /><circle cx="271.439001997" cy="270.327821929" fill="rgb(100%,0%,0%)" r="0.7" /><circle cx="268.439854084" cy="270.380432339" fill="rgb(100%,0%,0%)" r="0.7" /><circle cx="265.443454047" cy="270.516609661" fill="rgb(100%,0%,0%)" r="0.7" /><circle cx="262.46269598" cy="270.849558315" fill="rgb(100%,0%,0%)" r="0.7" /><circle cx="259.515542804" cy="271.406196676" fill="rgb(100%,0%,0%)" r="0.7" /><circle cx="256.623336882" cy="272.199674266" fill="rgb(100%,0%,0%)" r="0.7" /><circle cx="253.817518961" cy="273.257895564" fill="rgb(100%,0%,0%)" r="0.7" /><circle cx="251.144678319" cy="274.616299142" fill="rgb(100%,0%,0%)" r="0.7" /><circle cx="248.671606621" cy="276.310077144" fill="rgb(100%,0%,0%)" r="0.7" /><circle cx="246.485828606" cy="278.360028192" fill="rgb(100%,0%,0%)" r="0.7" /><circle cx="244.683123426" cy="280.753012165" fill="rgb(100%,0%,0%)" r="0.7" /><circle cx="243.338255667" cy="283.430170001" fill="rgb(100%,0%,0%)" r="0.7" /><circle cx="242.475573839" cy="286.299867086" fill="rgb(100%,0%,0%)" r="0.7" /><circle cx="242.065580052" cy="289.269135664" fill="rgb(100%,0%,0%)" r="0.7" /><circle cx="241.947369048" cy="292.266460369" fill="rgb(100%,0%,0%)" r="0.7" /><circle cx="241.971498832" cy="295.266085238" fill="rgb(100%,0%,0%)" r="0.7" /><circle cx="242.122920591" cy="298.26208252" fill="rgb(100%,0%,0%)" r="0.7" /><circle cx="242.385068481" cy="301.250440284" fill="rgb(100%,0%,0%)" r="0.7" /><circle cx="242.750739769" cy="304.227926168" fill="rgb(100%,0%,0%)" r="0.7" /><circle cx="243.216186983" cy="307.19146462" fill="rgb(100%,0%,0%)" r="0.7" /><circle cx="243.77935727" cy="310.137988248" fill="rgb(100%,0%,0%)" r="0.7" /><circle cx="244.439143399" cy="313.064403789" fill="rgb(100%,0%,0%)" r="0.7" /><circle cx="245.194972281" cy="315.967488064" fill="rgb(100%,0%,0%)" r="0.7" /><circle cx="246.046577705" cy="318.843934348" fill="rgb(100%,0%,0%)" r="0.7" /><circle cx="246.99382907" cy="321.690308601" fill="rgb(100%,0%,0%)" r="0.7" /><circle cx="248.036623709" cy="324.503090062" fill="rgb(100%,0%,0%)" r="0.7" /><circle cx="249.174782082" cy="327.278647542" fill="rgb(100%,0%,0%)" r="0.7" /><circle cx="250.407984125" cy="330.013292939" fill="rgb(100%,0%,0%)" r="0.7" /><circle cx="251.735715808" cy="332.703321236" fill="rgb(100%,0%,0%)" r="0.7" /><circle cx="253.157193998" cy="335.344992504" fill="rgb(100%,0%,0%)" r="0.7" /><circle cx="254.671367185" cy="337.934650668" fill="rgb(100%,0%,0%)" r="0.7" /><circle cx="256.276858908" cy="340.468709566" fill="rgb(100%,0%,0%)" r="0.7" /><circle cx="257.971959046" cy="342.943717383" fill="rgb(100%,0%,0%)" r="0.7" /><circle cx="259.754629631" cy="345.356419539" fill="rgb(100%,0%,0%)" r="0.7" /><circle cx="261.624459806" cy="347.702139362" fill="rgb(100%,0%,0%)" r="0.7" /><circle cx="263.443987523" cy="350.08649738" fill="rgb(100%,0%,0%)" r="0.7" /><circle cx="265.125390283" cy="352.57070261" fill="rgb(100%,0%,0%)" r="0.7" /><circle cx="266.69942658" cy="355.124375132" fill="rgb(100%,0%,0%)" r="0.7" /><circle cx="268.176657711" cy="357.735277625" fill="rgb(100%,0%,0%)" r="0.7" /><circle cx="269.562658576" cy="360.395761188" fill="rgb(100%,0%,0%)" r="0.7" /><circle cx="270.873399273" cy="363.094235213" fill="rgb(100%,0%,0%)" r="0.7" /><circle cx="272.17518372" cy="365.797077652" fill="rgb(100%,0%,0%)" r="0.7" /><circle cx="273.476968168" cy="368.499920092" fill="rgb(100%,0%,0%)" r="0.7" /><circle cx="274.778752615" cy="371.202762531" fill="rgb(100%,0%,0%)" r="0.7" /><circle cx="276.080537062" cy="373.905604971" fill="rgb(100%,0%,0%)" r="0.7" /><circle cx="277.38232151" cy="376.60844741" fill="rgb(100%,0%,0%)" r="0.7" /><circle cx="278.684105957" cy="379.31128985" fill="rgb(100%,0%,0%)" r="0.7" /><circle cx="279.985890405" cy="382.014132289" fill="rgb(100%,0%,0%)" r="0.7" /><circle cx="281.287674852" cy="384.716974729" fill="rgb(100%,0%,0%)" r="0.7" /><circle cx="282.589459299" cy="387.419817168" fill="rgb(100%,0%,0%)" r="0.7" /><circle cx="283.891243747" cy="390.122659608" fill="rgb(100%,0%,0%)" r="0.7" /><circle cx="285.193028194" cy="392.825502047" fill="rgb(100%,0%,0%)" r="0.7" /><circle cx="286.494812641" cy="395.528344486" fill="rgb(100%,0%,0%)" r="0.7" /><circle cx="287.796597089" cy="398.231186926" fill="rgb(100%,0%,0%)" r="0.7" /><circle cx="289.098381536" cy="400.934029365" fill="rgb(100%,0%,0%)" r="0.7" /><circle cx="290.400165983" cy="403.636871805" fill="rgb(100%,0%,0%)" r="0.7" /><circle cx="291.701950431" cy="406.339714244" fill="rgb(100%,0%,0%)" r="0.7" /><circle cx="293.003734878" cy="409.042556684" fill="rgb(100%,0%,0%)" r="0.7" /><circle cx="294.305519326" cy="411.745399123" fill="rgb(100%,0%,0%)" r="0.7" /><circle cx="295.607303773" cy="414.448241563" fill="rgb(100%,0%,0%)" r="0.7" /><circle cx="296.90908822" cy="417.151084002" fill="rgb(100%,0%,0%)" r="0.7" /><circle cx="298.210872668" cy="419.853926442" fill="rgb(100%,0%,0%)" r="0.7" /><circle cx="299.512657115" cy="422.556768881" fill="rgb(100%,0%,0%)" r="0.7" /><circle cx="300.814441562" cy="425.259611321" fill="rgb(100%,0%,0%)" r="0.7" /><circle cx="302.11622601" cy="427.96245376" fill="rgb(100%,0%,0%)" r="0.7" /><circle cx="303.418010457" cy="430.6652962" fill="rgb(100%,0%,0%)" r="0.7" /><circle cx="304.719794904" cy="433.368138639" fill="rgb(100%,0%,0%)" r="0.7" /><circle cx="306.021579352" cy="436.070981079" fill="rgb(100%,0%,0%)" r="0.7" /><circle cx="307.323363799" cy="438.773823518" fill="rgb(100%,0%,0%)" r="0.7" /><circle cx="308.625148247" cy="441.476665957" fill="rgb(100%,0%,0%)" r="0.7" /><circle cx="271.439001997" cy="270.327821929" fill="rgb(0%,0%,100%)" r="0.7" /><circle cx="274.436257085" cy="270.445886603" fill="rgb(0%,0%,100%)" r="0.7" /><circle cx="277.421192416" cy="270.741524145" fill="rgb(0%,0%,100%)" r="0.7" /><circle cx="280.382267595" cy="271.220184505" fill="rgb(0%,0%,100%)" r="0.7" /><circle cx="283.307006211" cy="271.885610039" fill="rgb(0%,0%,100%)" r="0.7" /><circle cx="286.182292476" cy="272.739710942" fill="rgb(0%,0%,100%)" r="0.7" /><circle cx="288.994588869" cy="273.782610579" fill="rgb(0%,0%,100%)" r="0.7" /><circle cx="291.730067181" cy="275.012927652" fill="rgb(0%,0%,100%)" r="0.7" /><circle cx="294.374471716" cy="276.42837617" fill="rgb(0%,0%,100%)" r="0.7" /><circle cx="296.912365525" cy="278.026870541" fill="rgb(0%,0%,100%)" r="0.7" /><circle cx="299.324847044" cy="279.808875995" fill="rgb(0%,0%,100%)" r="0.7" /><circle cx="301.580765075" cy="281.784850442" fill="rgb(0%,0%,100%)" r="0.7" /><circle cx="303.763732099" cy="283.836403585" fill="rgb(0%,0%,100%)" r="0.7" /><circle cx="305.792714656" cy="286.04201988" fill="rgb(0%,0%,100%)" r="0.7" /><circle cx="307.468140862" cy="288.527492316" fill="rgb(0%,0%,100%)" r="0.7" /><circle cx="308.796138126" cy="291.215374325" fill="rgb(0%,0%,100%)" r="0.7" /><circle cx="309.805136404" cy="294.03909581" fill="rgb(0%,0%,100%)" r="0.7" /><circle cx="310.532113624" cy="296.94862644" fill="rgb(0%,0%,100%)" r="0.7" /><circle cx="311.013493118" cy="299.908999388" fill="rgb(0%,0%,100%)" r="0.7" /><circle cx="311.280827698" cy="302.896499032" fill="rgb(0%,0%,100%)" r="0.7" /><circle cx="311.359242497" cy="305.895033765" fill="rgb(0%,0%,100%)" r="0.7" /><circle cx="311.266673223" cy="308.893225184" fill="rgb(0%,0%,100%)" r="0.7" /><circle cx="311.011658213" cy="311.882005559" fill="rgb(0%,0%,100%)" r="0.7" /><circle cx="310.588227721" cy="314.850743344" fill="rgb(0%,0%,100%)" r="0.7" /><circle cx="310.675200418" cy="317.848406098" fill="rgb(0%,0%,100%)" r="0.7" /><circle cx="310.988397877" cy="320.831536407" fill="rgb(0%,0%,100%)" r="0.7" /><circle cx="311.456702213" cy="323.794513331" fill="rgb(0%,0%,100%)" r="0.7" /><circle cx="312.039566063" cy="326.737201973" fill="rgb(0%,0%,100%)" r="0.7" /><circle cx="312.711740576" cy="329.660834124" fill="rgb(0%,0%,100%)" r="0.7" /><circle cx="313.456518452" cy="332.566850331" fill="rgb(0%,0%,100%)" r="0.7" /><circle cx="314.262410864" cy="335.45653204" fill="rgb(0%,0%,100%)" r="0.7" /><circle cx="315.121412304" cy="338.330879191" fill="rgb(0%,0%,100%)" r="0.7" /><circle cx="316.028132824" cy="341.190547291" fill="rgb(0%,0%,100%)" r="0.7" /><circle cx="316.979587168" cy="344.035637452" fill="rgb(0%,0%,100%)" r="0.7" /><circle cx="317.976372439" cy="346.865163255" fill="rgb(0%,0%,100%)" r="0.7" /><circle cx="318.953983309" cy="349.700336064" fill="rgb(0%,0%,100%)" r="0.7" /><circle cx="319.872903131" cy="352.556117078" fill="rgb(0%,0%,100%)" r="0.7" /><circle cx="320.824982447" cy="355.401016634" fill="rgb(0%,0%,100%)" r="0.7" /><circle cx="321.807981261" cy="358.235382945" fill="rgb(0%,0%,100%)" r="0.7" /><circle cx="322.819921612" cy="361.059548147" fill="rgb(0%,0%,100%)" r="0.7" /><circle cx="323.859050582" cy="363.873824044" fill="rgb(0%,0%,100%)" r="0.7" /><circle cx="324.923811325" cy="366.678502829" fill="rgb(0%,0%,100%)" r="0.7" /><circle cx="326.012819528" cy="369.473858246" fill="rgb(0%,0%,100%)" r="0.7" /><circle cx="327.124841371" cy="372.260139642" fill="rgb(0%,0%,100%)" r="0.7" /><circle cx="328.258778051" cy="375.037573844" fill="rgb(0%,0%,100%)" r="0.7" /><circle cx="329.413653657" cy="377.806367164" fill="rgb(0%,0%,100%)" r="0.7" /><circle cx="330.588605657" cy="380.566706473" fill="rgb(0%,0%,100%)" r="0.7" /><circle cx="331.782870238" cy="383.318742044" fill="rgb(0%,0%,100%)" r="0.7" /><circle cx="332.995784228" cy="386.062603024" fill="rgb(0%,0%,100%)" r="0.7" /><circle cx="334.226789329" cy="388.798409273" fill="rgb(0%,0%,100%)" r="0.7" /><circle cx="335.475410025" cy="391.526216483" fill="rgb(0%,0%,100%)" r="0.7" /><circle cx="336.741275755" cy="394.246049818" fill="rgb(0%,0%,100%)" r="0.7" /><circle cx="338.024145303" cy="396.957922585" fill="rgb(0%,0%,100%)" r="0.7" /><circle cx="339.323893359" cy="399.661749141" fill="rgb(0%,0%,100%)" r="0.7" /><circle cx="340.640561123" cy="402.35735067" fill="rgb(0%,0%,100%)" r="0.7" /><circle cx="341.974468747" cy="405.044495444" fill="rgb(0%,0%,100%)" r="0.7" /><circle cx="343.326286722" cy="407.722653173" fill="rgb(0%,0%,100%)" r="0.7" /><circle cx="344.697494559" cy="410.390946807" fill="rgb(0%,0%,100%)" r="0.7" /><circle cx="346.091766141" cy="413.047245265" fill="rgb(0%,0%,100%)" r="0.7" /><circle cx="347.558525146" cy="415.663814455" fill="rgb(0%,0%,100%)" r="0.7" /><circle cx="349.019365422" cy="418.284052462" fill="rgb(0%,0%,100%)" r="0.7" /><circle cx="350.424284189" cy="420.934676706" fill="rgb(0%,0%,100%)" r="0.7" /><circle cx="351.757863393" cy="423.621843636" fill="rgb(0%,0%,100%)" r="0.7" /><circle cx="352.99187581" cy="426.356016748" fill="rgb(0%,0%,100%)" r="0.7" /><circle cx="354.041" cy="429.165" fill="rgb(0%,0%,100%)" r="0.7" /><circle cx="353.35532051" cy="429.079959918" fill="rgb(0%,0%,100%)" r="0.7" /><circle cx="350.37813029" cy="428.710719621" fill="rgb(0%,0%,100%)" r="0.7" /><circle cx="347.400940071" cy="428.341479323" fill="rgb(0%,0%,100%)" r="0.7" /><circle cx="344.423749851" cy="427.972239026" fill="rgb(0%,0%,100%)" r="0.7" /><circle cx="341.446559632" cy="427.602998728" fill="rgb(0%,0%,100%)" r="0.7" /><circle cx="338.469369413" cy="427.23375843" fill="rgb(0%,0%,100%)" r="0.7" /><circle cx="335.492179193" cy="426.864518133" fill="rgb(0%,0%,100%)" r="0.7" /><circle cx="332.514988974" cy="426.495277835" fill="rgb(0%,0%,100%)" r="0.7" /><circle cx="329.537798754" cy="426.126037538" fill="rgb(0%,0%,100%)" r="0.7" /><circle cx="326.560608535" cy="425.75679724" fill="rgb(0%,0%,100%)" r="0.7" /><circle cx="323.583418315" cy="425.387556942" fill="rgb(0%,0%,100%)" r="0.7" /><circle cx="320.606228096" cy="425.018316645" fill="rgb(0%,0%,100%)" r="0.7" /><circle cx="317.629037877" cy="424.649076347" fill="rgb(0%,0%,100%)" r="0.7" /><circle cx="315.432908976" cy="425.61127902" fill="rgb(0%,0%,100%)" r="0.7" /><circle cx="314.302491415" cy="428.390155796" fill="rgb(0%,0%,100%)" r="0.7" /><circle cx="313.172073854" cy="431.169032572" fill="rgb(0%,0%,100%)" r="0.7" /><circle cx="312.041656292" cy="433.947909349" fill="rgb(0%,0%,100%)" r="0.7" /><circle cx="310.911238731" cy="436.726786125" fill="rgb(0%,0%,100%)" r="0.7" /><circle cx="309.78082117" cy="439.505662901" fill="rgb(0%,0%,100%)" r="0.7" /><circle cx="308.625148247" cy="441.476665957" fill="rgb(0%,0%,100%)" r="0.7" /></svg>