<?xml version="1.0" encoding="utf-8" ?>
<svg baseProfile="full" height="100%" version="1.1" width="100%" xmlns="http://www.w3.org/2000/svg" xmlns:ev="http://www.w3.org/2001/xml-events" xmlns:xlink="http://www.w3.org/1999/xlink"><defs /><circle cx="322.333794755" cy="308.678821748" fill="rgb(100%,0%,0%)" r="0.7" /><circle cx="319.355548885" cy="308.925457749" fill="rgb(100%,0%,0%)" r="0.7" /><circle cx="316.616449376" cy="310.111044415" fill="rgb(100%,0%,0%)" r="0.7" /><circle cx="314.460882867" cy="312.175832158" fill="rgb(100%,0%,0%)" r="0.7" /><circle cx="313.028911867" cy="314.802534457" fill="rgb(100%,0%,0%)" r="0.7" /><circle cx="311.779515706" cy="317.530011489" fill="rgb(100%,0%,0%)" r="0.7" /><circle cx="310.521940594" cy="320.253671604" fill="rgb(100%,0%,0%)" r="0.7" /><circle cx="309.257876052" cy="322.974375018" fill="rgb(100%,0%,0%)" r="0.7" /><circle cx="307.987835392" cy="325.692272505" fill="rgb(100%,0%,0%)" r="0.7" /><circle cx="306.711968278" cy="328.407454403" fill="rgb(100%,0%,0%)" r="0.7" /><circle cx="305.430292598" cy="331.119881578" fill="rgb(100%,0%,0%)" r="0.7" /><circle cx="304.142698491" cy="333.829523509" fill="rgb(100%,0%,0%)" r="0.7" /><circle cx="302.849026986" cy="336.536252118" fill="rgb(100%,0%,0%)" r="0.7" /><circle cx="301.54902704" cy="339.23995617" fill="rgb(100%,0%,0%)" r="0.7" /><circle cx="300.242394352" cy="341.940464343" fill="rgb(100%,0%,0%)" r="0.7" /><circle cx="298.92875633" cy="344.637568911" fill="rgb(100%,0%,0%)" r="0.7" /><circle cx="297.60766544" cy="347.331021161" fill="rgb(100%,0%,0%)" r="0.7" /><circle cx="296.278578651" cy="350.020544635" fill="rgb(100%,0%,0%)" r="0.7" /><circle cx="294.940862011" cy="352.705785356" fill="rgb(100%,0%,0%)" r="0.7" /><circle cx="293.593755709" cy="355.386327458" fill="rgb(100%,0%,0%)" r="0.7" /><circle cx="292.236349284" cy="358.061667544" fill="rgb(100%,0%,0%)" r="0.7" /><circle cx="290.867543229" cy="360.731188028" fill="rgb(100%,0%,0%)" r="0.7" /><circle cx="289.485983947" cy="363.394141336" fill="rgb(100%,0%,0%)" r="0.7" /><circle cx="288.090006729" cy="366.049556955" fill="rgb(100%,0%,0%)" r="0.7" /><circle cx="286.677495108" cy="368.696213314" fill="rgb(100%,0%,0%)" r="0.7" /><circle cx="285.245720872" cy="371.332487962" fill="rgb(100%,0%,0%)" r="0.7" /><circle cx="283.791040248" cy="373.956207339" fill="rgb(100%,0%,0%)" r="0.7" /><circle cx="282.308460257" cy="376.564244951" fill="rgb(100%,0%,0%)" r="0.7" /><circle cx="280.790745948" cy="379.151980523" fill="rgb(100%,0%,0%)" r="0.7" /><circle cx="279.226760292" cy="381.711988915" fill="rgb(100%,0%,0%)" r="0.7" /><circle cx="277.597695951" cy="384.230989666" fill="rgb(100%,0%,0%)" r="0.7" /><circle cx="275.866717101" cy="386.68081401" fill="rgb(100%,0%,0%)" r="0.7" /><circle cx="277.746730711" cy="386.003634645" fill="rgb(100%,0%,0%)" r="0.7" /><circle cx="280.430012284" cy="384.661993858" fill="rgb(100%,0%,0%)" r="0.7" /><circle cx="283.113293857" cy="383.320353072" fill="rgb(100%,0%,0%)" r="0.7" /><circle cx="285.79657543" cy="381.978712285" fill="rgb(100%,0%,0%)" r="0.7" /><circle cx="287.861254069" cy="383.056944074" fill="rgb(100%,0%,0%)" r="0.7" /><circle cx="289.571484649" cy="385.521718174" fill="rgb(100%,0%,0%)" r="0.7" /><circle cx="291.281715228" cy="387.986492275" fill="rgb(100%,0%,0%)" r="0.7" /><circle cx="292.991945807" cy="390.451266375" fill="rgb(100%,0%,0%)" r="0.7" /><circle cx="294.702176386" cy="392.916040475" fill="rgb(100%,0%,0%)" r="0.7" /><circle cx="296.412406965" cy="395.380814576" fill="rgb(100%,0%,0%)" r="0.7" /><circle cx="296.824" cy="395.974" fill="rgb(100%,0%,0%)" r="0.7" /><circle cx="322.333794755" cy="308.678821748" fill="rgb(0%,0%,100%)" r="0.7" /><circle cx="325.297005135" cy="309.130387213" fill="rgb(0%,0%,100%)" r="0.7" /><circle cx="328.120659886" cy="310.125362295" fill="rgb(0%,0%,100%)" r="0.7" /><circle cx="330.628148472" cy="311.757999289" fill="rgb(0%,0%,100%)" r="0.7" /><circle cx="332.655503479" cy="313.959266756" fill="rgb(0%,0%,100%)" r="0.7" /><circle cx="334.136085645" cy="316.562157528" fill="rgb(0%,0%,100%)" r="0.7" /><circle cx="335.093847469" cy="319.40108179" fill="rgb(0%,0%,100%)" r="0.7" /><circle cx="335.545688727" cy="322.362414145" fill="rgb(0%,0%,100%)" r="0.7" /><circle cx="335.17361112" cy="325.338405484" fill="rgb(0%,0%,100%)" r="0.7" /><circle cx="334.599819901" cy="328.282548052" fill="rgb(0%,0%,100%)" r="0.7" /><circle cx="333.865692639" cy="331.191025459" fill="rgb(0%,0%,100%)" r="0.7" /><circle cx="333.000912348" cy="334.063459504" fill="rgb(0%,0%,100%)" r="0.7" /><circle cx="332.0277474" cy="336.901071202" fill="rgb(0%,0%,100%)" r="0.7" /><circle cx="330.963204927" cy="339.705727216" fill="rgb(0%,0%,100%)" r="0.7" /><circle cx="329.820506896" cy="342.479485729" fill="rgb(0%,0%,100%)" r="0.7" /><circle cx="328.610099282" cy="345.224394495" fill="rgb(0%,0%,100%)" r="0.7" /><circle cx="327.340361671" cy="347.942383869" fill="rgb(0%,0%,100%)" r="0.7" /><circle cx="326.018107809" cy="350.635225729" fill="rgb(0%,0%,100%)" r="0.7" /><circle cx="324.648941877" cy="353.304528859" fill="rgb(0%,0%,100%)" r="0.7" /><circle cx="323.237521495" cy="355.951740178" fill="rgb(0%,0%,100%)" r="0.7" /><circle cx="321.787753551" cy="358.578151296" fill="rgb(0%,0%,100%)" r="0.7" /><circle cx="320.302938189" cy="361.184913564" fill="rgb(0%,0%,100%)" r="0.7" /><circle cx="318.785880201" cy="363.773048115" fill="rgb(0%,0%,100%)" r="0.7" /><circle cx="317.238976049" cy="366.343452277" fill="rgb(0%,0%,100%)" r="0.7" /><circle cx="315.664270491" cy="368.896921899" fill="rgb(0%,0%,100%)" r="0.7" /><circle cx="314.063507802" cy="371.434154011" fill="rgb(0%,0%,100%)" r="0.7" /><circle cx="312.438189681" cy="373.955717982" fill="rgb(0%,0%,100%)" r="0.7" /><circle cx="310.789567921" cy="376.462109164" fill="rgb(0%,0%,100%)" r="0.7" /><circle cx="309.118681403" cy="378.953711105" fill="rgb(0%,0%,100%)" r="0.7" /><circle cx="307.426350773" cy="381.430799795" fill="rgb(0%,0%,100%)" r="0.7" /><circle cx="305.713172948" cy="383.893514247" fill="rgb(0%,0%,100%)" r="0.7" /><circle cx="303.979482654" cy="386.341820485" fill="rgb(0%,0%,100%)" r="0.7" /><circle cx="302.225248361" cy="388.775459305" fill="rgb(0%,0%,100%)" r="0.7" /><circle cx="300.449884026" cy="391.193748236" fill="rgb(0%,0%,100%)" r="0.7" /><circle cx="298.651657698" cy="393.595077865" fill="rgb(0%,0%,100%)" r="0.7" /><circle cx="296.824" cy="395.974" fill="rgb(0%,0%,100%)" r="0.7" /></svg>