<?xml version="1.0" encoding="utf-8" ?>
<svg baseProfile="full" height="100%" version="1.1" width="100%" xmlns="http://www.w3.org/2000/svg" xmlns:ev="http://www.w3.org/2001/xml-events" xmlns:xlink="http://www.w3.org/1999/xlink"><defs /><circle cx="313.516159827" cy="268.490119917" fill="rgb(100%,0%,0%)" r="0.7" /><circle cx="310.535437726" cy="268.791919203" fill="rgb(100%,0%,0%)" r="0.7" /><circle cx="307.64024732" cy="269.568111568" fill="rgb(100%,0%,0%)" r="0.7" /><circle cx="304.867023633" cy="270.708069616" fill="rgb(100%,0%,0%)" r="0.7" /><circle cx="302.223987974" cy="272.125144582" fill="rgb(100%,0%,0%)" r="0.7" /><circle cx="299.665292723" cy="273.688593203" fill="rgb(100%,0%,0%)" r="0.7" /><circle cx="297.27020448" cy="275.49360355" fill="rgb(100%,0%,0%)" r="0.7" /><circle cx="295.02044359" cy="277.477263737" fill="rgb(100%,0%,0%)" r="0.7" /><circle cx="292.904490546" cy="279.603279547" fill="rgb(100%,0%,0%)" r="0.7" /><circle cx="290.916209443" cy="281.849262665" fill="rgb(100%,0%,0%)" r="0.7" /><circle cx="289.051181973" cy="284.198648387" fill="rgb(100%,0%,0%)" r="0.7" /><circle cx="287.305558364" cy="286.638134921" fill="rgb(100%,0%,0%)" r="0.7" /><circle cx="285.675700024" cy="289.156466627" fill="rgb(100%,0%,0%)" r="0.7" /><circle cx="284.15794497" cy="291.743946133" fill="rgb(100%,0%,0%)" r="0.7" /><circle cx="282.748581805" cy="294.392062816" fill="rgb(100%,0%,0%)" r="0.7" /><circle cx="281.443846702" cy="297.093272476" fill="rgb(100%,0%,0%)" r="0.7" /><circle cx="280.239905589" cy="299.840928426" fill="rgb(100%,0%,0%)" r="0.7" /><circle cx="279.132935026" cy="302.629063531" fill="rgb(100%,0%,0%)" r="0.7" /><circle cx="278.119097077" cy="305.452433384" fill="rgb(100%,0%,0%)" r="0.7" /><circle cx="277.194622355" cy="308.306309807" fill="rgb(100%,0%,0%)" r="0.7" /><circle cx="276.355793449" cy="311.186530617" fill="rgb(100%,0%,0%)" r="0.7" /><circle cx="275.598980836" cy="314.089415457" fill="rgb(100%,0%,0%)" r="0.7" /><circle cx="274.918705062" cy="317.011153326" fill="rgb(100%,0%,0%)" r="0.7" /><circle cx="274.328507152" cy="319.952435387" fill="rgb(100%,0%,0%)" r="0.7" /><circle cx="273.807634123" cy="322.906815741" fill="rgb(100%,0%,0%)" r="0.7" /><circle cx="273.343161824" cy="325.870608371" fill="rgb(100%,0%,0%)" r="0.7" /><circle cx="272.930023721" cy="328.841987066" fill="rgb(100%,0%,0%)" r="0.7" /><circle cx="272.565625898" cy="331.819745687" fill="rgb(100%,0%,0%)" r="0.7" /><circle cx="272.248572637" cy="334.80291145" fill="rgb(100%,0%,0%)" r="0.7" /><circle cx="271.978160511" cy="337.790677411" fill="rgb(100%,0%,0%)" r="0.7" /><circle cx="271.754145657" cy="340.782266547" fill="rgb(100%,0%,0%)" r="0.7" /><circle cx="271.576604411" cy="343.77698667" fill="rgb(100%,0%,0%)" r="0.7" /><circle cx="271.445862268" cy="346.77410849" fill="rgb(100%,0%,0%)" r="0.7" /><circle cx="271.362438953" cy="349.772909195" fill="rgb(100%,0%,0%)" r="0.7" /><circle cx="271.327015934" cy="352.772672384" fill="rgb(100%,0%,0%)" r="0.7" /><circle cx="271.340414322" cy="355.772608819" fill="rgb(100%,0%,0%)" r="0.7" /><circle cx="271.403576293" cy="358.771909541" fill="rgb(100%,0%,0%)" r="0.7" /><circle cx="271.517552542" cy="361.769707175" fill="rgb(100%,0%,0%)" r="0.7" /><circle cx="271.683491941" cy="364.765077395" fill="rgb(100%,0%,0%)" r="0.7" /><circle cx="271.902632228" cy="367.757020771" fill="rgb(100%,0%,0%)" r="0.7" /><circle cx="272.176293424" cy="370.744473106" fill="rgb(100%,0%,0%)" r="0.7" /><circle cx="272.50586828" cy="373.726270659" fill="rgb(100%,0%,0%)" r="0.7" /><circle cx="272.89281695" cy="376.701167834" fill="rgb(100%,0%,0%)" r="0.7" /><circle cx="273.338655864" cy="379.667802487" fill="rgb(100%,0%,0%)" r="0.7" /><circle cx="273.844952511" cy="382.624715988" fill="rgb(100%,0%,0%)" r="0.7" /><circle cx="274.413312523" cy="385.570323524" fill="rgb(100%,0%,0%)" r="0.7" /><circle cx="275.04537245" cy="388.502928234" fill="rgb(100%,0%,0%)" r="0.7" /><circle cx="275.742777661" cy="391.420671072" fill="rgb(100%,0%,0%)" r="0.7" /><circle cx="276.507179485" cy="394.321580443" fill="rgb(100%,0%,0%)" r="0.7" /><circle cx="277.340210169" cy="397.203528889" fill="rgb(100%,0%,0%)" r="0.7" /><circle cx="278.243466265" cy="400.064241028" fill="rgb(100%,0%,0%)" r="0.7" /><circle cx="279.218487921" cy="402.901293279" fill="rgb(100%,0%,0%)" r="0.7" /><circle cx="280.266730703" cy="405.712101787" fill="rgb(100%,0%,0%)" r="0.7" /><circle cx="281.389552438" cy="408.493959709" fill="rgb(100%,0%,0%)" r="0.7" /><circle cx="282.588169926" cy="411.244001163" fill="rgb(100%,0%,0%)" r="0.7" /><circle cx="283.86364509" cy="413.95924964" fill="rgb(100%,0%,0%)" r="0.7" /><circle cx="285.128278685" cy="416.679574746" fill="rgb(100%,0%,0%)" r="0.7" /><circle cx="286.412954341" cy="419.390580671" fill="rgb(100%,0%,0%)" r="0.7" /><circle cx="287.720610095" cy="422.090581689" fill="rgb(100%,0%,0%)" r="0.7" /><circle cx="289.050960222" cy="424.779462349" fill="rgb(100%,0%,0%)" r="0.7" /><circle cx="290.405087024" cy="427.456456444" fill="rgb(100%,0%,0%)" r="0.7" /><circle cx="291.784983455" cy="430.120255418" fill="rgb(100%,0%,0%)" r="0.7" /><circle cx="293.193568578" cy="432.768990398" fill="rgb(100%,0%,0%)" r="0.7" /><circle cx="294.634887944" cy="435.400050081" fill="rgb(100%,0%,0%)" r="0.7" /><circle cx="296.114525295" cy="438.009741937" fill="rgb(100%,0%,0%)" r="0.7" /><circle cx="297.640347875" cy="440.592682901" fill="rgb(100%,0%,0%)" r="0.7" /><circle cx="299.223870188" cy="443.140613289" fill="rgb(100%,0%,0%)" r="0.7" /><circle cx="300.882975855" cy="445.639909208" fill="rgb(100%,0%,0%)" r="0.7" /><circle cx="302.647926908" cy="448.065377898" fill="rgb(100%,0%,0%)" r="0.7" /><circle cx="304.577352356" cy="450.36123491" fill="rgb(100%,0%,0%)" r="0.7" /><circle cx="306.726713337" cy="452.1451675" fill="rgb(100%,0%,0%)" r="0.7" /><circle cx="313.516159827" cy="268.490119917" fill="rgb(0%,0%,100%)" r="0.7" /><circle cx="316.495158983" cy="268.787811029" fill="rgb(0%,0%,100%)" r="0.7" /><circle cx="319.304699594" cy="269.810697151" fill="rgb(0%,0%,100%)" r="0.7" /><circle cx="321.982121742" cy="271.14120471" fill="rgb(0%,0%,100%)" r="0.7" /><circle cx="324.601993309" cy="272.599238847" fill="rgb(0%,0%,100%)" r="0.7" /><circle cx="327.031915184" cy="274.355665193" fill="rgb(0%,0%,100%)" r="0.7" /><circle cx="329.23760919" cy="276.386514581" fill="rgb(0%,0%,100%)" r="0.7" /><circle cx="331.18044605" cy="278.669796587" fill="rgb(0%,0%,100%)" r="0.7" /><circle cx="332.601474085" cy="281.281773022" fill="rgb(0%,0%,100%)" r="0.7" /><circle cx="333.306427508" cy="284.19626502" fill="rgb(0%,0%,100%)" r="0.7" /><circle cx="333.582053853" cy="287.178870277" fill="rgb(0%,0%,100%)" r="0.7" /><circle cx="332.969304388" cy="290.089820093" fill="rgb(0%,0%,100%)" r="0.7" /><circle cx="330.606033392" cy="291.688620744" fill="rgb(0%,0%,100%)" r="0.7" /><circle cx="327.756481684" cy="292.61908945" fill="rgb(0%,0%,100%)" r="0.7" /><circle cx="325.061156926" cy="293.931107001" fill="rgb(0%,0%,100%)" r="0.7" /><circle cx="322.561784119" cy="295.586693636" fill="rgb(0%,0%,100%)" r="0.7" /><circle cx="320.280640007" cy="297.532593172" fill="rgb(0%,0%,100%)" r="0.7" /><circle cx="318.221436313" cy="299.712522487" fill="rgb(0%,0%,100%)" r="0.7" /><circle cx="316.374874966" cy="302.07568787" fill="rgb(0%,0%,100%)" r="0.7" /><circle cx="314.724792522" cy="304.580291158" fill="rgb(0%,0%,100%)" r="0.7" /><circle cx="313.252679225" cy="307.193672357" fill="rgb(0%,0%,100%)" r="0.7" /><circle cx="311.940323749" cy="309.890963174" fill="rgb(0%,0%,100%)" r="0.7" /><circle cx="310.771091811" cy="312.65340734" fill="rgb(0%,0%,100%)" r="0.7" /><circle cx="309.730393402" cy="315.466864975" fill="rgb(0%,0%,100%)" r="0.7" /><circle cx="308.80574577" cy="318.32062091" fill="rgb(0%,0%,100%)" r="0.7" /><circle cx="307.986667339" cy="321.206479112" fill="rgb(0%,0%,100%)" r="0.7" /><circle cx="307.26451954" cy="324.118137357" fill="rgb(0%,0%,100%)" r="0.7" /><circle cx="306.632404982" cy="327.050679411" fill="rgb(0%,0%,100%)" r="0.7" /><circle cx="306.085157448" cy="330.000247356" fill="rgb(0%,0%,100%)" r="0.7" /><circle cx="305.619562366" cy="332.963801558" fill="rgb(0%,0%,100%)" r="0.7" /><circle cx="305.235153034" cy="335.938983312" fill="rgb(0%,0%,100%)" r="0.7" /><circle cx="304.937263118" cy="338.924033686" fill="rgb(0%,0%,100%)" r="0.7" /><circle cx="304.735193395" cy="341.917128166" fill="rgb(0%,0%,100%)" r="0.7" /><circle cx="304.583967385" cy="344.913244176" fill="rgb(0%,0%,100%)" r="0.7" /><circle cx="304.494165929" cy="347.911856509" fill="rgb(0%,0%,100%)" r="0.7" /><circle cx="304.466628992" cy="350.91167056" fill="rgb(0%,0%,100%)" r="0.7" /><circle cx="304.502133845" cy="353.911414067" fill="rgb(0%,0%,100%)" r="0.7" /><circle cx="304.60139244" cy="356.909700268" fill="rgb(0%,0%,100%)" r="0.7" /><circle cx="304.765050145" cy="359.905177709" fill="rgb(0%,0%,100%)" r="0.7" /><circle cx="304.993680167" cy="362.89640675" fill="rgb(0%,0%,100%)" r="0.7" /><circle cx="305.287778788" cy="365.881888914" fill="rgb(0%,0%,100%)" r="0.7" /><circle cx="305.647772153" cy="368.860153251" fill="rgb(0%,0%,100%)" r="0.7" /><circle cx="306.074005737" cy="371.82965321" fill="rgb(0%,0%,100%)" r="0.7" /><circle cx="306.566753271" cy="374.78884911" fill="rgb(0%,0%,100%)" r="0.7" /><circle cx="307.126208045" cy="377.736143969" fill="rgb(0%,0%,100%)" r="0.7" /><circle cx="307.752503317" cy="380.66998529" fill="rgb(0%,0%,100%)" r="0.7" /><circle cx="308.445688242" cy="383.588726578" fill="rgb(0%,0%,100%)" r="0.7" /><circle cx="309.205765629" cy="386.490783279" fill="rgb(0%,0%,100%)" r="0.7" /><circle cx="310.032667053" cy="389.374497662" fill="rgb(0%,0%,100%)" r="0.7" /><circle cx="310.926285672" cy="392.238237458" fill="rgb(0%,0%,100%)" r="0.7" /><circle cx="311.886482416" cy="395.080368481" fill="rgb(0%,0%,100%)" r="0.7" /><circle cx="312.913071192" cy="397.899173305" fill="rgb(0%,0%,100%)" r="0.7" /><circle cx="314.005879368" cy="400.692976768" fill="rgb(0%,0%,100%)" r="0.7" /><circle cx="315.164735678" cy="403.460041586" fill="rgb(0%,0%,100%)" r="0.7" /><circle cx="316.38949911" cy="406.198570257" fill="rgb(0%,0%,100%)" r="0.7" /><circle cx="317.6800924" cy="408.906689083" fill="rgb(0%,0%,100%)" r="0.7" /><circle cx="319.036550946" cy="411.582429238" fill="rgb(0%,0%,100%)" r="0.7" /><circle cx="320.459062494" cy="414.223641477" fill="rgb(0%,0%,100%)" r="0.7" /><circle cx="321.948061048" cy="416.827944776" fill="rgb(0%,0%,100%)" r="0.7" /><circle cx="323.504348285" cy="419.392594437" fill="rgb(0%,0%,100%)" r="0.7" /><circle cx="325.129315299" cy="421.914292104" fill="rgb(0%,0%,100%)" r="0.7" /><circle cx="326.825292434" cy="424.388737737" fill="rgb(0%,0%,100%)" r="0.7" /><circle cx="328.596486994" cy="426.809937574" fill="rgb(0%,0%,100%)" r="0.7" /><circle cx="330.451199679" cy="429.167686319" fill="rgb(0%,0%,100%)" r="0.7" /><circle cx="332.416" cy="431.434" fill="rgb(0%,0%,100%)" r="0.7" /><circle cx="331.254894445" cy="431.620028921" fill="rgb(0%,0%,100%)" r="0.7" /><circle cx="328.292672925" cy="432.094627352" fill="rgb(0%,0%,100%)" r="0.7" /><circle cx="325.330451406" cy="432.569225782" fill="rgb(0%,0%,100%)" r="0.7" /><circle cx="322.368229886" cy="433.043824213" fill="rgb(0%,0%,100%)" r="0.7" /><circle cx="319.406008367" cy="433.518422643" fill="rgb(0%,0%,100%)" r="0.7" /><circle cx="316.443786848" cy="433.993021073" fill="rgb(0%,0%,100%)" r="0.7" /><circle cx="313.481565328" cy="434.467619504" fill="rgb(0%,0%,100%)" r="0.7" /><circle cx="310.519343809" cy="434.942217934" fill="rgb(0%,0%,100%)" r="0.7" /><circle cx="309.490473429" cy="437.401978219" fill="rgb(0%,0%,100%)" r="0.7" /><circle cx="308.937721411" cy="440.350616075" fill="rgb(0%,0%,100%)" r="0.7" /><circle cx="308.384969392" cy="443.299253932" fill="rgb(0%,0%,100%)" r="0.7" /><circle cx="307.832217374" cy="446.247891788" fill="rgb(0%,0%,100%)" r="0.7" /><circle cx="307.279465355" cy="449.196529644" fill="rgb(0%,0%,100%)" r="0.7" /><circle cx="306.726713337" cy="452.1451675" fill="rgb(0%,0%,100%)" r="0.7" /></svg>