<?xml version="1.0" encoding="utf-8" ?>
<svg baseProfile="full" height="100%" version="1.1" width="100%" xmlns="http://www.w3.org/2000/svg" xmlns:ev="http://www.w3.org/2001/xml-events" xmlns:xlink="http://www.w3.org/1999/xlink"><defs /><circle cx="324.185328039" cy="323.736170618" fill="rgb(100%,0%,0%)" r="0.7" /><circle cx="321.331596461" cy="324.60772222" fill="rgb(100%,0%,0%)" r="0.7" /><circle cx="318.759841042" cy="326.145270698" fill="rgb(100%,0%,0%)" r="0.7" /><circle cx="316.425575429" cy="328.027139651" fill="rgb(100%,0%,0%)" r="0.7" /><circle cx="314.285100613" cy="330.127891364" fill="rgb(100%,0%,0%)" r="0.7" /><circle cx="312.304269173" cy="332.380257634" fill="rgb(100%,0%,0%)" r="0.7" /><circle cx="310.457019231" cy="334.743669851" fill="rgb(100%,0%,0%)" r="0.7" /><circle cx="308.723341801" cy="337.191729114" fill="rgb(100%,0%,0%)" r="0.7" /><circle cx="307.087597606" cy="339.706336243" fill="rgb(100%,0%,0%)" r="0.7" /><circle cx="305.537333579" cy="342.274593571" fill="rgb(100%,0%,0%)" r="0.7" /><circle cx="304.06251404" cy="344.886939061" fill="rgb(100%,0%,0%)" r="0.7" /><circle cx="302.654896763" cy="347.53613682" fill="rgb(100%,0%,0%)" r="0.7" /><circle cx="301.307652323" cy="350.216531207" fill="rgb(100%,0%,0%)" r="0.7" /><circle cx="300.015003005" cy="352.923711918" fill="rgb(100%,0%,0%)" r="0.7" /><circle cx="298.7715713" cy="355.653826092" fill="rgb(100%,0%,0%)" r="0.7" /><circle cx="297.623391383" cy="358.424784041" fill="rgb(100%,0%,0%)" r="0.7" /><circle cx="296.618830064" cy="361.251347196" fill="rgb(100%,0%,0%)" r="0.7" /><circle cx="295.721875972" cy="364.113959572" fill="rgb(100%,0%,0%)" r="0.7" /><circle cx="294.920622656" cy="367.004853995" fill="rgb(100%,0%,0%)" r="0.7" /><circle cx="294.208743512" cy="369.919052429" fill="rgb(100%,0%,0%)" r="0.7" /><circle cx="293.582326198" cy="372.852815496" fill="rgb(100%,0%,0%)" r="0.7" /><circle cx="293.038742568" cy="375.803064697" fill="rgb(100%,0%,0%)" r="0.7" /><circle cx="292.576125528" cy="378.767099912" fill="rgb(100%,0%,0%)" r="0.7" /><circle cx="292.193084443" cy="381.742447555" fill="rgb(100%,0%,0%)" r="0.7" /><circle cx="291.888524198" cy="384.726871024" fill="rgb(100%,0%,0%)" r="0.7" /><circle cx="291.661553901" cy="387.718182243" fill="rgb(100%,0%,0%)" r="0.7" /><circle cx="291.511398975" cy="390.714336112" fill="rgb(100%,0%,0%)" r="0.7" /><circle cx="291.437356589" cy="393.713349208" fill="rgb(100%,0%,0%)" r="0.7" /><circle cx="291.438756355" cy="396.713272281" fill="rgb(100%,0%,0%)" r="0.7" /><circle cx="291.514930523" cy="399.712220592" fill="rgb(100%,0%,0%)" r="0.7" /><circle cx="291.665196062" cy="402.708395891" fill="rgb(100%,0%,0%)" r="0.7" /><circle cx="291.888833665" cy="405.699972279" fill="rgb(100%,0%,0%)" r="0.7" /><circle cx="292.185080736" cy="408.685221796" fill="rgb(100%,0%,0%)" r="0.7" /><circle cx="292.553125613" cy="411.662491013" fill="rgb(100%,0%,0%)" r="0.7" /><circle cx="292.992092579" cy="414.630127485" fill="rgb(100%,0%,0%)" r="0.7" /><circle cx="293.501047838" cy="417.586568406" fill="rgb(100%,0%,0%)" r="0.7" /><circle cx="294.078996652" cy="420.530318319" fill="rgb(100%,0%,0%)" r="0.7" /><circle cx="294.724871229" cy="423.459896166" fill="rgb(100%,0%,0%)" r="0.7" /><circle cx="295.437552443" cy="426.373940474" fill="rgb(100%,0%,0%)" r="0.7" /><circle cx="296.215866156" cy="429.271167141" fill="rgb(100%,0%,0%)" r="0.7" /><circle cx="297.058569205" cy="432.150311279" fill="rgb(100%,0%,0%)" r="0.7" /><circle cx="297.964376244" cy="435.010217141" fill="rgb(100%,0%,0%)" r="0.7" /><circle cx="298.931967665" cy="437.849836341" fill="rgb(100%,0%,0%)" r="0.7" /><circle cx="299.959967037" cy="440.668144731" fill="rgb(100%,0%,0%)" r="0.7" /><circle cx="301.046979265" cy="443.464239761" fill="rgb(100%,0%,0%)" r="0.7" /><circle cx="302.191560669" cy="446.237243779" fill="rgb(100%,0%,0%)" r="0.7" /><circle cx="303.392272808" cy="448.986424301" fill="rgb(100%,0%,0%)" r="0.7" /><circle cx="304.647650755" cy="451.711096141" fill="rgb(100%,0%,0%)" r="0.7" /><circle cx="324.185328039" cy="323.736170618" fill="rgb(0%,0%,100%)" r="0.7" /><circle cx="327.182556416" cy="323.765342375" fill="rgb(0%,0%,100%)" r="0.7" /><circle cx="330.128297637" cy="324.306791296" fill="rgb(0%,0%,100%)" r="0.7" /><circle cx="332.878185829" cy="325.486684986" fill="rgb(0%,0%,100%)" r="0.7" /><circle cx="335.225103281" cy="327.340311528" fill="rgb(0%,0%,100%)" r="0.7" /><circle cx="336.991595204" cy="329.754323899" fill="rgb(0%,0%,100%)" r="0.7" /><circle cx="338.07768176" cy="332.541176399" fill="rgb(0%,0%,100%)" r="0.7" /><circle cx="338.044260126" cy="335.532171454" fill="rgb(0%,0%,100%)" r="0.7" /><circle cx="337.378455297" cy="338.450499887" fill="rgb(0%,0%,100%)" r="0.7" /><circle cx="335.99090474" cy="341.099138972" fill="rgb(0%,0%,100%)" r="0.7" /><circle cx="333.905724523" cy="343.241369426" fill="rgb(0%,0%,100%)" r="0.7" /><circle cx="331.312807404" cy="344.733115236" fill="rgb(0%,0%,100%)" r="0.7" /><circle cx="328.409448335" cy="345.357685908" fill="rgb(0%,0%,100%)" r="0.7" /><circle cx="325.536779683" cy="346.126390837" fill="rgb(0%,0%,100%)" r="0.7" /><circle cx="323.537598152" cy="348.288734787" fill="rgb(0%,0%,100%)" r="0.7" /><circle cx="322.201512255" cy="350.97472284" fill="rgb(0%,0%,100%)" r="0.7" /><circle cx="320.925302417" cy="353.689653852" fill="rgb(0%,0%,100%)" r="0.7" /><circle cx="319.711551561" cy="356.433089712" fill="rgb(0%,0%,100%)" r="0.7" /><circle cx="318.562922945" cy="359.204408644" fill="rgb(0%,0%,100%)" r="0.7" /><circle cx="317.482113368" cy="362.002870961" fill="rgb(0%,0%,100%)" r="0.7" /><circle cx="316.471857951" cy="364.827566871" fill="rgb(0%,0%,100%)" r="0.7" /><circle cx="315.534911095" cy="367.677411487" fill="rgb(0%,0%,100%)" r="0.7" /><circle cx="314.674029143" cy="370.55113053" fill="rgb(0%,0%,100%)" r="0.7" /><circle cx="313.891938028" cy="373.447294743" fill="rgb(0%,0%,100%)" r="0.7" /><circle cx="313.191331879" cy="376.364244322" fill="rgb(0%,0%,100%)" r="0.7" /><circle cx="312.574839334" cy="379.300109729" fill="rgb(0%,0%,100%)" r="0.7" /><circle cx="312.044995652" cy="382.252820536" fill="rgb(0%,0%,100%)" r="0.7" /><circle cx="311.604212884" cy="385.22014284" fill="rgb(0%,0%,100%)" r="0.7" /><circle cx="311.254767445" cy="388.199619291" fill="rgb(0%,0%,100%)" r="0.7" /><circle cx="310.998774139" cy="391.188551072" fill="rgb(0%,0%,100%)" r="0.7" /><circle cx="310.838152431" cy="394.184114248" fill="rgb(0%,0%,100%)" r="0.7" /><circle cx="310.774617248" cy="397.183312935" fill="rgb(0%,0%,100%)" r="0.7" /><circle cx="310.809663693" cy="400.182971283" fill="rgb(0%,0%,100%)" r="0.7" /><circle cx="310.94455635" cy="403.179787009" fill="rgb(0%,0%,100%)" r="0.7" /><circle cx="311.180331598" cy="406.170373127" fill="rgb(0%,0%,100%)" r="0.7" /><circle cx="311.517797418" cy="409.151177463" fill="rgb(0%,0%,100%)" r="0.7" /><circle cx="311.957557755" cy="412.118610541" fill="rgb(0%,0%,100%)" r="0.7" /><circle cx="312.50004108" cy="415.069012671" fill="rgb(0%,0%,100%)" r="0.7" /><circle cx="313.145530099" cy="417.998593965" fill="rgb(0%,0%,100%)" r="0.7" /><circle cx="313.894234967" cy="420.903501474" fill="rgb(0%,0%,100%)" r="0.7" /><circle cx="314.746377312" cy="423.779764285" fill="rgb(0%,0%,100%)" r="0.7" /><circle cx="315.702305011" cy="426.623201222" fill="rgb(0%,0%,100%)" r="0.7" /><circle cx="316.762700969" cy="429.429371976" fill="rgb(0%,0%,100%)" r="0.7" /><circle cx="317.928843317" cy="432.193247266" fill="rgb(0%,0%,100%)" r="0.7" /><circle cx="319.203184312" cy="434.908896303" fill="rgb(0%,0%,100%)" r="0.7" /><circle cx="320.590516596" cy="437.568586686" fill="rgb(0%,0%,100%)" r="0.7" /><circle cx="322.101124751" cy="440.160138625" fill="rgb(0%,0%,100%)" r="0.7" /><circle cx="323.77" cy="442.652" fill="rgb(0%,0%,100%)" r="0.7" /><circle cx="322.980952267" cy="442.340995672" fill="rgb(0%,0%,100%)" r="0.7" /><circle cx="320.189928993" cy="441.240909729" fill="rgb(0%,0%,100%)" r="0.7" /><circle cx="317.398905718" cy="440.140823787" fill="rgb(0%,0%,100%)" r="0.7" /><circle cx="314.607882444" cy="439.040737845" fill="rgb(0%,0%,100%)" r="0.7" /><circle cx="311.816859169" cy="437.940651902" fill="rgb(0%,0%,100%)" r="0.7" /><circle cx="309.025835894" cy="436.84056596" fill="rgb(0%,0%,100%)" r="0.7" /><circle cx="306.23481262" cy="435.740480018" fill="rgb(0%,0%,100%)" r="0.7" /><circle cx="305.273008961" cy="437.42200137" fill="rgb(0%,0%,100%)" r="0.7" /><circle cx="305.177247963" cy="440.420472619" fill="rgb(0%,0%,100%)" r="0.7" /><circle cx="305.081486965" cy="443.418943868" fill="rgb(0%,0%,100%)" r="0.7" /><circle cx="304.985725967" cy="446.417415117" fill="rgb(0%,0%,100%)" r="0.7" /><circle cx="304.889964969" cy="449.415886366" fill="rgb(0%,0%,100%)" r="0.7" /><circle cx="304.647650755" cy="451.711096141" fill="rgb(0%,0%,100%)" r="0.7" /></svg>