<?xml version="1.0" encoding="utf-8" ?>
<svg baseProfile="full" height="100%" version="1.1" width="100%" xmlns="http://www.w3.org/2000/svg" xmlns:ev="http://www.w3.org/2001/xml-events" xmlns:xlink="http://www.w3.org/1999/xlink"><defs /><circle cx="299.668453703" cy="300.526183" fill="rgb(100%,0%,0%)" r="0.7" /><circle cx="297.014036039" cy="301.797576466" fill="rgb(100%,0%,0%)" r="0.7" /><circle cx="295.848882439" cy="304.502118382" fill="rgb(100%,0%,0%)" r="0.7" /><circle cx="296.001097717" cy="307.49100465" fill="rgb(100%,0%,0%)" r="0.7" /><circle cx="296.295295119" cy="310.476530378" fill="rgb(100%,0%,0%)" r="0.7" /><circle cx="296.555886995" cy="313.465181449" fill="rgb(100%,0%,0%)" r="0.7" /><circle cx="296.781471959" cy="316.456668196" fill="rgb(100%,0%,0%)" r="0.7" /><circle cx="296.967074331" cy="319.450897045" fill="rgb(100%,0%,0%)" r="0.7" /><circle cx="297.104129204" cy="322.44772524" fill="rgb(100%,0%,0%)" r="0.7" /><circle cx="297.178495031" cy="325.446732182" fill="rgb(100%,0%,0%)" r="0.7" /><circle cx="297.16531572" cy="328.446548416" fill="rgb(100%,0%,0%)" r="0.7" /><circle cx="297.014336193" cy="331.442304071" fill="rgb(100%,0%,0%)" r="0.7" /><circle cx="296.590521492" cy="334.409780893" fill="rgb(100%,0%,0%)" r="0.7" /><circle cx="295.475303519" cy="337.184103922" fill="rgb(100%,0%,0%)" r="0.7" /><circle cx="294.10973152" cy="339.855179287" fill="rgb(100%,0%,0%)" r="0.7" /><circle cx="292.662120041" cy="342.482649149" fill="rgb(100%,0%,0%)" r="0.7" /><circle cx="291.229080058" cy="345.118187292" fill="rgb(100%,0%,0%)" r="0.7" /><circle cx="289.862379212" cy="347.788665879" fill="rgb(100%,0%,0%)" r="0.7" /><circle cx="288.61294217" cy="350.515556704" fill="rgb(100%,0%,0%)" r="0.7" /><circle cx="287.67617872" cy="353.362756687" fill="rgb(100%,0%,0%)" r="0.7" /><circle cx="286.838266237" cy="356.243364231" fill="rgb(100%,0%,0%)" r="0.7" /><circle cx="285.985934943" cy="359.119737784" fill="rgb(100%,0%,0%)" r="0.7" /><circle cx="285.117667064" cy="361.991339073" fill="rgb(100%,0%,0%)" r="0.7" /><circle cx="284.229452533" cy="364.856829903" fill="rgb(100%,0%,0%)" r="0.7" /><circle cx="283.313512577" cy="367.713567656" fill="rgb(100%,0%,0%)" r="0.7" /><circle cx="282.352922725" cy="370.555566957" fill="rgb(100%,0%,0%)" r="0.7" /><circle cx="281.303556251" cy="373.36582258" fill="rgb(100%,0%,0%)" r="0.7" /><circle cx="280.220449639" cy="376.163485271" fill="rgb(100%,0%,0%)" r="0.7" /><circle cx="279.138102381" cy="378.961432378" fill="rgb(100%,0%,0%)" r="0.7" /><circle cx="278.056625963" cy="381.759722005" fill="rgb(100%,0%,0%)" r="0.7" /><circle cx="276.976301242" cy="384.558456109" fill="rgb(100%,0%,0%)" r="0.7" /><circle cx="275.897715917" cy="387.357860609" fill="rgb(100%,0%,0%)" r="0.7" /><circle cx="274.822446983" cy="390.158539421" fill="rgb(100%,0%,0%)" r="0.7" /><circle cx="273.783288428" cy="392.971439417" fill="rgb(100%,0%,0%)" r="0.7" /><circle cx="272.980704011" cy="395.861769131" fill="rgb(100%,0%,0%)" r="0.7" /><circle cx="272.055119012" cy="398.715209101" fill="rgb(100%,0%,0%)" r="0.7" /><circle cx="271.016855144" cy="401.529595566" fill="rgb(100%,0%,0%)" r="0.7" /><circle cx="269.859639677" cy="404.297146285" fill="rgb(100%,0%,0%)" r="0.7" /><circle cx="268.57007854" cy="407.005466861" fill="rgb(100%,0%,0%)" r="0.7" /><circle cx="267.353856902" cy="409.747235947" fill="rgb(100%,0%,0%)" r="0.7" /><circle cx="266.180374646" cy="412.50817506" fill="rgb(100%,0%,0%)" r="0.7" /><circle cx="265.219947209" cy="415.343185397" fill="rgb(100%,0%,0%)" r="0.7" /><circle cx="263.688854793" cy="417.912521045" fill="rgb(100%,0%,0%)" r="0.7" /><circle cx="261.577529113" cy="420.034997374" fill="rgb(100%,0%,0%)" r="0.7" /><circle cx="261.602286529" cy="421.682496255" fill="rgb(100%,0%,0%)" r="0.7" /><circle cx="264.314050401" cy="420.399436258" fill="rgb(100%,0%,0%)" r="0.7" /><circle cx="267.018172688" cy="419.100313794" fill="rgb(100%,0%,0%)" r="0.7" /><circle cx="269.719512012" cy="417.795408277" fill="rgb(100%,0%,0%)" r="0.7" /><circle cx="272.419196644" cy="416.487082073" fill="rgb(100%,0%,0%)" r="0.7" /><circle cx="275.117652987" cy="415.176235425" fill="rgb(100%,0%,0%)" r="0.7" /><circle cx="276.671481009" cy="415.665451868" fill="rgb(100%,0%,0%)" r="0.7" /><circle cx="276.631948044" cy="418.665191381" fill="rgb(100%,0%,0%)" r="0.7" /><circle cx="276.592415079" cy="421.664930894" fill="rgb(100%,0%,0%)" r="0.7" /><circle cx="276.552882114" cy="424.664670407" fill="rgb(100%,0%,0%)" r="0.7" /><circle cx="276.513349149" cy="427.664409919" fill="rgb(100%,0%,0%)" r="0.7" /><circle cx="276.473816184" cy="430.664149432" fill="rgb(100%,0%,0%)" r="0.7" /><circle cx="276.434283219" cy="433.663888945" fill="rgb(100%,0%,0%)" r="0.7" /><circle cx="276.394750254" cy="436.663628458" fill="rgb(100%,0%,0%)" r="0.7" /><circle cx="276.355217289" cy="439.663367971" fill="rgb(100%,0%,0%)" r="0.7" /><circle cx="276.315684324" cy="442.663107483" fill="rgb(100%,0%,0%)" r="0.7" /><circle cx="276.276151359" cy="445.662846996" fill="rgb(100%,0%,0%)" r="0.7" /><circle cx="276.236618394" cy="448.662586509" fill="rgb(100%,0%,0%)" r="0.7" /><circle cx="276.197085429" cy="451.662326022" fill="rgb(100%,0%,0%)" r="0.7" /><circle cx="276.182" cy="452.807" fill="rgb(100%,0%,0%)" r="0.7" /><circle cx="299.668453703" cy="300.526183" fill="rgb(0%,0%,100%)" r="0.7" /><circle cx="302.632280106" cy="300.675957151" fill="rgb(0%,0%,100%)" r="0.7" /><circle cx="305.506445109" cy="301.530584775" fill="rgb(0%,0%,100%)" r="0.7" /><circle cx="308.309126827" cy="302.599661555" fill="rgb(0%,0%,100%)" r="0.7" /><circle cx="311.065079807" cy="303.784525423" fill="rgb(0%,0%,100%)" r="0.7" /><circle cx="313.786234893" cy="305.047403886" fill="rgb(0%,0%,100%)" r="0.7" /><circle cx="316.477859315" cy="306.37209583" fill="rgb(0%,0%,100%)" r="0.7" /><circle cx="318.712324017" cy="308.246622785" fill="rgb(0%,0%,100%)" r="0.7" /><circle cx="319.771627361" cy="311.043417232" fill="rgb(0%,0%,100%)" r="0.7" /><circle cx="320.273599174" cy="313.998819215" fill="rgb(0%,0%,100%)" r="0.7" /><circle cx="320.464306273" cy="316.99193895" fill="rgb(0%,0%,100%)" r="0.7" /><circle cx="320.455961831" cy="319.991558734" fill="rgb(0%,0%,100%)" r="0.7" /><circle cx="320.307457327" cy="322.987682797" fill="rgb(0%,0%,100%)" r="0.7" /><circle cx="320.053417771" cy="325.976787583" fill="rgb(0%,0%,100%)" r="0.7" /><circle cx="319.715898181" cy="328.95766301" fill="rgb(0%,0%,100%)" r="0.7" /><circle cx="319.309741407" cy="331.929984871" fill="rgb(0%,0%,100%)" r="0.7" /><circle cx="318.845278098" cy="334.893774222" fill="rgb(0%,0%,100%)" r="0.7" /><circle cx="318.329766809" cy="337.849119979" fill="rgb(0%,0%,100%)" r="0.7" /><circle cx="317.768114392" cy="340.796048408" fill="rgb(0%,0%,100%)" r="0.7" /><circle cx="317.163007081" cy="343.734363577" fill="rgb(0%,0%,100%)" r="0.7" /><circle cx="316.513823955" cy="346.663241173" fill="rgb(0%,0%,100%)" r="0.7" /><circle cx="315.862880743" cy="349.591233382" fill="rgb(0%,0%,100%)" r="0.7" /><circle cx="315.255067898" cy="352.52899691" fill="rgb(0%,0%,100%)" r="0.7" /><circle cx="314.612385017" cy="355.459330482" fill="rgb(0%,0%,100%)" r="0.7" /><circle cx="313.936053705" cy="358.382083463" fill="rgb(0%,0%,100%)" r="0.7" /><circle cx="313.227229145" cy="361.29712825" fill="rgb(0%,0%,100%)" r="0.7" /><circle cx="312.487003089" cy="364.204358895" fill="rgb(0%,0%,100%)" r="0.7" /><circle cx="311.716407295" cy="367.103687345" fill="rgb(0%,0%,100%)" r="0.7" /><circle cx="310.916416794" cy="369.995040123" fill="rgb(0%,0%,100%)" r="0.7" /><circle cx="310.087948438" cy="372.878370896" fill="rgb(0%,0%,100%)" r="0.7" /><circle cx="309.231874448" cy="375.753620093" fill="rgb(0%,0%,100%)" r="0.7" /><circle cx="308.34901034" cy="378.620763482" fill="rgb(0%,0%,100%)" r="0.7" /><circle cx="307.440131846" cy="381.479760987" fill="rgb(0%,0%,100%)" r="0.7" /><circle cx="306.505964666" cy="384.330595633" fill="rgb(0%,0%,100%)" r="0.7" /><circle cx="305.547191646" cy="387.173254114" fill="rgb(0%,0%,100%)" r="0.7" /><circle cx="304.564455604" cy="390.007722229" fill="rgb(0%,0%,100%)" r="0.7" /><circle cx="303.558362633" cy="392.833978968" fill="rgb(0%,0%,100%)" r="0.7" /><circle cx="302.529474698" cy="395.652019635" fill="rgb(0%,0%,100%)" r="0.7" /><circle cx="301.47832045" cy="398.461826743" fill="rgb(0%,0%,100%)" r="0.7" /><circle cx="300.405385952" cy="401.263395972" fill="rgb(0%,0%,100%)" r="0.7" /><circle cx="299.311128808" cy="404.056698627" fill="rgb(0%,0%,100%)" r="0.7" /><circle cx="298.195959735" cy="406.84172834" fill="rgb(0%,0%,100%)" r="0.7" /><circle cx="297.060264574" cy="409.618442853" fill="rgb(0%,0%,100%)" r="0.7" /><circle cx="295.904381084" cy="412.386818625" fill="rgb(0%,0%,100%)" r="0.7" /><circle cx="294.728613817" cy="415.146808714" fill="rgb(0%,0%,100%)" r="0.7" /><circle cx="293.533230938" cy="417.898344467" fill="rgb(0%,0%,100%)" r="0.7" /><circle cx="292.318438217" cy="420.641385219" fill="rgb(0%,0%,100%)" r="0.7" /><circle cx="291.084417617" cy="423.375816939" fill="rgb(0%,0%,100%)" r="0.7" /><circle cx="289.831271825" cy="426.101559506" fill="rgb(0%,0%,100%)" r="0.7" /><circle cx="288.559066066" cy="428.81844939" fill="rgb(0%,0%,100%)" r="0.7" /><circle cx="287.267781" cy="431.526309114" fill="rgb(0%,0%,100%)" r="0.7" /><circle cx="285.957290386" cy="434.224942908" fill="rgb(0%,0%,100%)" r="0.7" /><circle cx="284.627372387" cy="436.914039775" fill="rgb(0%,0%,100%)" r="0.7" /><circle cx="283.2776192" cy="439.593243315" fill="rgb(0%,0%,100%)" r="0.7" /><circle cx="281.907402152" cy="442.262026302" fill="rgb(0%,0%,100%)" r="0.7" /><circle cx="280.515698858" cy="444.919672809" fill="rgb(0%,0%,100%)" r="0.7" /><circle cx="279.100799285" cy="447.565077499" fill="rgb(0%,0%,100%)" r="0.7" /><circle cx="277.659503945" cy="450.196156649" fill="rgb(0%,0%,100%)" r="0.7" /><circle cx="276.182" cy="452.807" fill="rgb(0%,0%,100%)" r="0.7" /></svg>