<?xml version="1.0" encoding="utf-8" ?>
<svg baseProfile="full" height="100%" version="1.1" width="100%" xmlns="http://www.w3.org/2000/svg" xmlns:ev="http://www.w3.org/2001/xml-events" xmlns:xlink="http://www.w3.org/1999/xlink"><defs /><circle cx="299.916105664" cy="297.979325173" fill="rgb(100%,0%,0%)" r="0.7" /><circle cx="296.923643469" cy="298.142909646" fill="rgb(100%,0%,0%)" r="0.7" /><circle cx="294.004325799" cy="298.81388122" fill="rgb(100%,0%,0%)" r="0.7" /><circle cx="291.306352569" cy="300.107263039" fill="rgb(100%,0%,0%)" r="0.7" /><circle cx="289.081477842" cy="302.101818439" fill="rgb(100%,0%,0%)" r="0.7" /><circle cx="287.484437633" cy="304.629914264" fill="rgb(100%,0%,0%)" r="0.7" /><circle cx="285.992595701" cy="307.228119355" fill="rgb(100%,0%,0%)" r="0.7" /><circle cx="284.868789113" cy="310.008037271" fill="rgb(100%,0%,0%)" r="0.7" /><circle cx="284.020847068" cy="312.884724627" fill="rgb(100%,0%,0%)" r="0.7" /><circle cx="283.402901541" cy="315.8197296" fill="rgb(100%,0%,0%)" r="0.7" /><circle cx="282.983019342" cy="318.789714315" fill="rgb(100%,0%,0%)" r="0.7" /><circle cx="282.736490216" cy="321.779190513" fill="rgb(100%,0%,0%)" r="0.7" /><circle cx="282.643268109" cy="324.777454918" fill="rgb(100%,0%,0%)" r="0.7" /><circle cx="282.686676056" cy="327.776906692" fill="rgb(100%,0%,0%)" r="0.7" /><circle cx="282.852619917" cy="330.772128202" fill="rgb(100%,0%,0%)" r="0.7" /><circle cx="283.129058477" cy="333.75920722" fill="rgb(100%,0%,0%)" r="0.7" /><circle cx="283.505619933" cy="336.735349434" fill="rgb(100%,0%,0%)" r="0.7" /><circle cx="284.001720635" cy="339.693652434" fill="rgb(100%,0%,0%)" r="0.7" /><circle cx="284.549502776" cy="342.643223488" fill="rgb(100%,0%,0%)" r="0.7" /><circle cx="285.106396733" cy="345.591077812" fill="rgb(100%,0%,0%)" r="0.7" /><circle cx="285.671117149" cy="348.537439618" fill="rgb(100%,0%,0%)" r="0.7" /><circle cx="286.243119273" cy="351.482403918" fill="rgb(100%,0%,0%)" r="0.7" /><circle cx="286.822137734" cy="354.425995617" fill="rgb(100%,0%,0%)" r="0.7" /><circle cx="287.408059224" cy="357.368222412" fill="rgb(100%,0%,0%)" r="0.7" /><circle cx="288.000865379" cy="360.309073236" fill="rgb(100%,0%,0%)" r="0.7" /><circle cx="288.600604295" cy="363.248514935" fill="rgb(100%,0%,0%)" r="0.7" /><circle cx="289.207379099" cy="366.186508799" fill="rgb(100%,0%,0%)" r="0.7" /><circle cx="289.821340797" cy="369.123014351" fill="rgb(100%,0%,0%)" r="0.7" /><circle cx="290.442678369" cy="372.05796162" fill="rgb(100%,0%,0%)" r="0.7" /><circle cx="291.071625512" cy="374.991290859" fill="rgb(100%,0%,0%)" r="0.7" /><circle cx="291.708454091" cy="377.922920116" fill="rgb(100%,0%,0%)" r="0.7" /><circle cx="292.353478061" cy="380.852755865" fill="rgb(100%,0%,0%)" r="0.7" /><circle cx="293.007057247" cy="383.780696195" fill="rgb(100%,0%,0%)" r="0.7" /><circle cx="293.668624356" cy="386.706844957" fill="rgb(100%,0%,0%)" r="0.7" /><circle cx="294.335349244" cy="389.631820031" fill="rgb(100%,0%,0%)" r="0.7" /><circle cx="295.007383347" cy="392.555579503" fill="rgb(100%,0%,0%)" r="0.7" /><circle cx="295.685207201" cy="395.477999704" fill="rgb(100%,0%,0%)" r="0.7" /><circle cx="296.369398472" cy="398.398939518" fill="rgb(100%,0%,0%)" r="0.7" /><circle cx="297.060654632" cy="401.318213984" fill="rgb(100%,0%,0%)" r="0.7" /><circle cx="297.759834805" cy="404.235599931" fill="rgb(100%,0%,0%)" r="0.7" /><circle cx="298.468012684" cy="407.150811555" fill="rgb(100%,0%,0%)" r="0.7" /><circle cx="299.186562489" cy="410.063492215" fill="rgb(100%,0%,0%)" r="0.7" /><circle cx="299.91727742" cy="412.973139229" fill="rgb(100%,0%,0%)" r="0.7" /><circle cx="300.662587699" cy="415.879080031" fill="rgb(100%,0%,0%)" r="0.7" /><circle cx="301.425917456" cy="418.78033808" fill="rgb(100%,0%,0%)" r="0.7" /><circle cx="302.212365498" cy="421.675408329" fill="rgb(100%,0%,0%)" r="0.7" /><circle cx="303.030141351" cy="424.56177774" fill="rgb(100%,0%,0%)" r="0.7" /><circle cx="303.894104407" cy="427.434618703" fill="rgb(100%,0%,0%)" r="0.7" /><circle cx="304.837249472" cy="430.282325176" fill="rgb(100%,0%,0%)" r="0.7" /><circle cx="305.977893239" cy="433.054763316" fill="rgb(100%,0%,0%)" r="0.7" /><circle cx="307.409574451" cy="435.690782321" fill="rgb(100%,0%,0%)" r="0.7" /><circle cx="308.79501042" cy="438.351714246" fill="rgb(100%,0%,0%)" r="0.7" /><circle cx="310.175437049" cy="441.01526122" fill="rgb(100%,0%,0%)" r="0.7" /><circle cx="311.558928808" cy="443.677210542" fill="rgb(100%,0%,0%)" r="0.7" /><circle cx="312.948675034" cy="446.335889745" fill="rgb(100%,0%,0%)" r="0.7" /><circle cx="314.346467324" cy="448.990349486" fill="rgb(100%,0%,0%)" r="0.7" /><circle cx="315.753555842" cy="451.639895606" fill="rgb(100%,0%,0%)" r="0.7" /><circle cx="317.170964641" cy="454.283935431" fill="rgb(100%,0%,0%)" r="0.7" /><circle cx="318.599633277" cy="456.921907827" fill="rgb(100%,0%,0%)" r="0.7" /><circle cx="320.040492886" cy="459.553244537" fill="rgb(100%,0%,0%)" r="0.7" /><circle cx="321.494507987" cy="462.177331999" fill="rgb(100%,0%,0%)" r="0.7" /><circle cx="322.962717243" cy="464.793497437" fill="rgb(100%,0%,0%)" r="0.7" /><circle cx="324.446271423" cy="467.400996689" fill="rgb(100%,0%,0%)" r="0.7" /><circle cx="325.946450728" cy="469.998962088" fill="rgb(100%,0%,0%)" r="0.7" /><circle cx="327.464717037" cy="472.58639997" fill="rgb(100%,0%,0%)" r="0.7" /><circle cx="329.002748346" cy="475.162136046" fill="rgb(100%,0%,0%)" r="0.7" /><circle cx="330.562499699" cy="477.724775739" fill="rgb(100%,0%,0%)" r="0.7" /><circle cx="332.14627412" cy="480.272636381" fill="rgb(100%,0%,0%)" r="0.7" /><circle cx="333.756818322" cy="482.803655926" fill="rgb(100%,0%,0%)" r="0.7" /><circle cx="335.397455656" cy="485.315266988" fill="rgb(100%,0%,0%)" r="0.7" /><circle cx="337.072270336" cy="487.804209085" fill="rgb(100%,0%,0%)" r="0.7" /><circle cx="338.786375108" cy="490.266247961" fill="rgb(100%,0%,0%)" r="0.7" /><circle cx="299.916105664" cy="297.979325173" fill="rgb(0%,0%,100%)" r="0.7" /><circle cx="302.62892549" cy="298.980871179" fill="rgb(0%,0%,100%)" r="0.7" /><circle cx="304.649460854" cy="301.182417685" fill="rgb(0%,0%,100%)" r="0.7" /><circle cx="305.914331611" cy="303.890644147" fill="rgb(0%,0%,100%)" r="0.7" /><circle cx="306.391294291" cy="306.843960506" fill="rgb(0%,0%,100%)" r="0.7" /><circle cx="306.149913144" cy="309.823771983" fill="rgb(0%,0%,100%)" r="0.7" /><circle cx="305.015178207" cy="312.593734055" fill="rgb(0%,0%,100%)" r="0.7" /><circle cx="303.455572215" cy="315.154773613" fill="rgb(0%,0%,100%)" r="0.7" /><circle cx="301.684314687" cy="317.575371855" fill="rgb(0%,0%,100%)" r="0.7" /><circle cx="299.775787966" cy="319.889582516" fill="rgb(0%,0%,100%)" r="0.7" /><circle cx="297.950289252" cy="322.243329624" fill="rgb(0%,0%,100%)" r="0.7" /><circle cx="297.312318663" cy="325.16470527" fill="rgb(0%,0%,100%)" r="0.7" /><circle cx="297.196425097" cy="328.160940341" fill="rgb(0%,0%,100%)" r="0.7" /><circle cx="297.337261419" cy="331.157059333" fill="rgb(0%,0%,100%)" r="0.7" /><circle cx="297.925736547" cy="334.066959704" fill="rgb(0%,0%,100%)" r="0.7" /><circle cx="298.764277633" cy="336.945036176" fill="rgb(0%,0%,100%)" r="0.7" /><circle cx="299.574820862" cy="339.828255482" fill="rgb(0%,0%,100%)" r="0.7" /><circle cx="300.520867702" cy="342.675180826" fill="rgb(0%,0%,100%)" r="0.7" /><circle cx="301.466692878" cy="345.522184157" fill="rgb(0%,0%,100%)" r="0.7" /><circle cx="302.412418207" cy="348.369218068" fill="rgb(0%,0%,100%)" r="0.7" /><circle cx="303.358083487" cy="351.216273537" fill="rgb(0%,0%,100%)" r="0.7" /><circle cx="304.303706291" cy="354.063343694" fill="rgb(0%,0%,100%)" r="0.7" /><circle cx="305.249296386" cy="356.910425195" fill="rgb(0%,0%,100%)" r="0.7" /><circle cx="306.1948583" cy="359.757512609" fill="rgb(0%,0%,100%)" r="0.7" /><circle cx="307.140398486" cy="362.604615551" fill="rgb(0%,0%,100%)" r="0.7" /><circle cx="308.085913745" cy="365.451729012" fill="rgb(0%,0%,100%)" r="0.7" /><circle cx="309.073266002" cy="368.284565202" fill="rgb(0%,0%,100%)" r="0.7" /><circle cx="310.056080031" cy="371.119014498" fill="rgb(0%,0%,100%)" r="0.7" /><circle cx="311.037110065" cy="373.95407834" fill="rgb(0%,0%,100%)" r="0.7" /><circle cx="312.017099026" cy="376.789503729" fill="rgb(0%,0%,100%)" r="0.7" /><circle cx="312.996372395" cy="379.625174964" fill="rgb(0%,0%,100%)" r="0.7" /><circle cx="313.97510612" cy="382.461033013" fill="rgb(0%,0%,100%)" r="0.7" /><circle cx="314.953403777" cy="385.29704286" fill="rgb(0%,0%,100%)" r="0.7" /><circle cx="315.931324525" cy="388.133179736" fill="rgb(0%,0%,100%)" r="0.7" /><circle cx="316.908894507" cy="390.969443988" fill="rgb(0%,0%,100%)" r="0.7" /><circle cx="317.928514142" cy="393.790180608" fill="rgb(0%,0%,100%)" r="0.7" /><circle cx="319.010989602" cy="396.58807327" fill="rgb(0%,0%,100%)" r="0.7" /><circle cx="320.071283327" cy="399.394445829" fill="rgb(0%,0%,100%)" r="0.7" /><circle cx="321.109350555" cy="402.209117322" fill="rgb(0%,0%,100%)" r="0.7" /><circle cx="322.124606017" cy="405.032095125" fill="rgb(0%,0%,100%)" r="0.7" /><circle cx="323.115417594" cy="407.863745427" fill="rgb(0%,0%,100%)" r="0.7" /><circle cx="324.07688773" cy="410.705482188" fill="rgb(0%,0%,100%)" r="0.7" /><circle cx="325.083837976" cy="413.531052404" fill="rgb(0%,0%,100%)" r="0.7" /><circle cx="326.1657507" cy="416.329129309" fill="rgb(0%,0%,100%)" r="0.7" /><circle cx="327.290093042" cy="419.110447888" fill="rgb(0%,0%,100%)" r="0.7" /><circle cx="328.446803009" cy="421.878469763" fill="rgb(0%,0%,100%)" r="0.7" /><circle cx="329.629821822" cy="424.635355707" fill="rgb(0%,0%,100%)" r="0.7" /><circle cx="330.835516397" cy="427.38240057" fill="rgb(0%,0%,100%)" r="0.7" /><circle cx="332.062314586" cy="430.120085457" fill="rgb(0%,0%,100%)" r="0.7" /><circle cx="333.2838074" cy="432.859589763" fill="rgb(0%,0%,100%)" r="0.7" /><circle cx="334.414929856" cy="435.638177729" fill="rgb(0%,0%,100%)" r="0.7" /><circle cx="335.556841427" cy="438.412351767" fill="rgb(0%,0%,100%)" r="0.7" /><circle cx="336.709427202" cy="441.182104004" fill="rgb(0%,0%,100%)" r="0.7" /><circle cx="337.872594874" cy="443.947428671" fill="rgb(0%,0%,100%)" r="0.7" /><circle cx="339.046272429" cy="446.708311614" fill="rgb(0%,0%,100%)" r="0.7" /><circle cx="340.230408596" cy="449.464725254" fill="rgb(0%,0%,100%)" r="0.7" /><circle cx="341.42497708" cy="452.216630328" fill="rgb(0%,0%,100%)" r="0.7" /><circle cx="342.62998635" cy="454.963987101" fill="rgb(0%,0%,100%)" r="0.7" /><circle cx="343.845470814" cy="457.706719836" fill="rgb(0%,0%,100%)" r="0.7" /><circle cx="345.071511586" cy="460.444742838" fill="rgb(0%,0%,100%)" r="0.7" /><circle cx="346.308250245" cy="463.177959808" fill="rgb(0%,0%,100%)" r="0.7" /><circle cx="347.555892274" cy="465.906225072" fill="rgb(0%,0%,100%)" r="0.7" /><circle cx="348.814733667" cy="468.629330076" fill="rgb(0%,0%,100%)" r="0.7" /><circle cx="350.085225416" cy="471.347021048" fill="rgb(0%,0%,100%)" r="0.7" /><circle cx="351.368041055" cy="474.058916593" fill="rgb(0%,0%,100%)" r="0.7" /><circle cx="352.664263265" cy="476.764418321" fill="rgb(0%,0%,100%)" r="0.7" /><circle cx="353.975916143" cy="479.462482562" fill="rgb(0%,0%,100%)" r="0.7" /><circle cx="355.309" cy="482.15" fill="rgb(0%,0%,100%)" r="0.7" /><circle cx="355.211439555" cy="482.11668252" fill="rgb(0%,0%,100%)" r="0.7" /><circle cx="352.372426982" cy="481.147142624" fill="rgb(0%,0%,100%)" r="0.7" /><circle cx="349.533414409" cy="480.177602728" fill="rgb(0%,0%,100%)" r="0.7" /><circle cx="346.694401836" cy="479.208062832" fill="rgb(0%,0%,100%)" r="0.7" /><circle cx="343.855389263" cy="478.238522936" fill="rgb(0%,0%,100%)" r="0.7" /><circle cx="341.01637669" cy="477.26898304" fill="rgb(0%,0%,100%)" r="0.7" /><circle cx="338.733719748" cy="477.042238397" fill="rgb(0%,0%,100%)" r="0.7" /><circle cx="338.865726782" cy="480.03933268" fill="rgb(0%,0%,100%)" r="0.7" /><circle cx="338.997733817" cy="483.036426964" fill="rgb(0%,0%,100%)" r="0.7" /><circle cx="339.129740851" cy="486.033521247" fill="rgb(0%,0%,100%)" r="0.7" /><circle cx="339.261747885" cy="489.03061553" fill="rgb(0%,0%,100%)" r="0.7" /><circle cx="338.786375108" cy="490.266247961" fill="rgb(0%,0%,100%)" r="0.7" /></svg>