<?xml version="1.0" encoding="utf-8" ?>
<svg baseProfile="full" height="100%" version="1.1" width="100%" xmlns="http://www.w3.org/2000/svg" xmlns:ev="http://www.w3.org/2001/xml-events" xmlns:xlink="http://www.w3.org/1999/xlink"><defs /><circle cx="298.417073425" cy="320.615536505" fill="rgb(100%,0%,0%)" r="0.7" /><circle cx="297.375850891" cy="323.421741512" fill="rgb(100%,0%,0%)" r="0.7" /><circle cx="296.643864492" cy="326.330726916" fill="rgb(100%,0%,0%)" r="0.7" /><circle cx="296.019581516" cy="329.264956592" fill="rgb(100%,0%,0%)" r="0.7" /><circle cx="295.457500379" cy="332.211803122" fill="rgb(100%,0%,0%)" r="0.7" /><circle cx="294.937775839" cy="335.166424149" fill="rgb(100%,0%,0%)" r="0.7" /><circle cx="294.449513604" cy="338.1263987" fill="rgb(100%,0%,0%)" r="0.7" /><circle cx="293.985923266" cy="341.090355253" fill="rgb(100%,0%,0%)" r="0.7" /><circle cx="293.587100496" cy="344.063412964" fill="rgb(100%,0%,0%)" r="0.7" /><circle cx="293.114620728" cy="347.025858266" fill="rgb(100%,0%,0%)" r="0.7" /><circle cx="292.561582397" cy="349.97435002" fill="rgb(100%,0%,0%)" r="0.7" /><circle cx="291.939240463" cy="352.909041312" fill="rgb(100%,0%,0%)" r="0.7" /><circle cx="291.253053321" cy="355.829440808" fill="rgb(100%,0%,0%)" r="0.7" /><circle cx="290.506152931" cy="358.734921712" fill="rgb(100%,0%,0%)" r="0.7" /><circle cx="289.700485419" cy="361.624662462" fill="rgb(100%,0%,0%)" r="0.7" /><circle cx="288.837278091" cy="364.497751407" fill="rgb(100%,0%,0%)" r="0.7" /><circle cx="287.917304612" cy="367.353152941" fill="rgb(100%,0%,0%)" r="0.7" /><circle cx="286.941004213" cy="370.189800116" fill="rgb(100%,0%,0%)" r="0.7" /><circle cx="285.908603665" cy="373.006504943" fill="rgb(100%,0%,0%)" r="0.7" /><circle cx="284.820155411" cy="375.802033438" fill="rgb(100%,0%,0%)" r="0.7" /><circle cx="283.675595715" cy="378.575067674" fill="rgb(100%,0%,0%)" r="0.7" /><circle cx="282.474782959" cy="381.324199614" fill="rgb(100%,0%,0%)" r="0.7" /><circle cx="281.21750649" cy="384.047974787" fill="rgb(100%,0%,0%)" r="0.7" /><circle cx="279.903531813" cy="386.744841446" fill="rgb(100%,0%,0%)" r="0.7" /><circle cx="278.532592512" cy="389.413210713" fill="rgb(100%,0%,0%)" r="0.7" /><circle cx="277.104438773" cy="392.051394607" fill="rgb(100%,0%,0%)" r="0.7" /><circle cx="275.618829392" cy="394.657657351" fill="rgb(100%,0%,0%)" r="0.7" /><circle cx="274.075559949" cy="397.230193658" fill="rgb(100%,0%,0%)" r="0.7" /><circle cx="272.474470919" cy="399.767144873" fill="rgb(100%,0%,0%)" r="0.7" /><circle cx="270.815459952" cy="402.266606128" fill="rgb(100%,0%,0%)" r="0.7" /><circle cx="269.581402532" cy="404.19773095" fill="rgb(100%,0%,0%)" r="0.7" /><circle cx="271.855370556" cy="402.240930136" fill="rgb(100%,0%,0%)" r="0.7" /><circle cx="274.129338581" cy="400.284129322" fill="rgb(100%,0%,0%)" r="0.7" /><circle cx="276.403306605" cy="398.327328508" fill="rgb(100%,0%,0%)" r="0.7" /><circle cx="278.677274629" cy="396.370527694" fill="rgb(100%,0%,0%)" r="0.7" /><circle cx="280.951242653" cy="394.413726881" fill="rgb(100%,0%,0%)" r="0.7" /><circle cx="282.615861122" cy="393.676439252" fill="rgb(100%,0%,0%)" r="0.7" /><circle cx="282.416400022" cy="396.66980112" fill="rgb(100%,0%,0%)" r="0.7" /><circle cx="282.216938922" cy="399.663162987" fill="rgb(100%,0%,0%)" r="0.7" /><circle cx="282.017477822" cy="402.656524855" fill="rgb(100%,0%,0%)" r="0.7" /><circle cx="281.818016723" cy="405.649886722" fill="rgb(100%,0%,0%)" r="0.7" /><circle cx="281.618555623" cy="408.64324859" fill="rgb(100%,0%,0%)" r="0.7" /><circle cx="281.423" cy="411.578" fill="rgb(100%,0%,0%)" r="0.7" /><circle cx="298.417073425" cy="320.615536505" fill="rgb(0%,0%,100%)" r="0.7" /><circle cx="301.016902688" cy="320.770076862" fill="rgb(0%,0%,100%)" r="0.7" /><circle cx="302.445151378" cy="323.385056949" fill="rgb(0%,0%,100%)" r="0.7" /><circle cx="303.241307302" cy="326.275316397" fill="rgb(0%,0%,100%)" r="0.7" /><circle cx="303.758272693" cy="329.229792316" fill="rgb(0%,0%,100%)" r="0.7" /><circle cx="304.088817815" cy="332.211083386" fill="rgb(0%,0%,100%)" r="0.7" /><circle cx="304.143998137" cy="335.21028731" fill="rgb(0%,0%,100%)" r="0.7" /><circle cx="304.132170749" cy="338.210223012" fill="rgb(0%,0%,100%)" r="0.7" /><circle cx="304.060028002" cy="341.209304524" fill="rgb(0%,0%,100%)" r="0.7" /><circle cx="303.926987916" cy="344.206299554" fill="rgb(0%,0%,100%)" r="0.7" /><circle cx="303.732519353" cy="347.199935791" fill="rgb(0%,0%,100%)" r="0.7" /><circle cx="303.476142591" cy="350.188907759" fill="rgb(0%,0%,100%)" r="0.7" /><circle cx="303.157430226" cy="353.171869613" fill="rgb(0%,0%,100%)" r="0.7" /><circle cx="302.77600285" cy="356.147468397" fill="rgb(0%,0%,100%)" r="0.7" /><circle cx="302.331531506" cy="359.114303849" fill="rgb(0%,0%,100%)" r="0.7" /><circle cx="301.823732147" cy="362.070955774" fill="rgb(0%,0%,100%)" r="0.7" /><circle cx="301.252361092" cy="365.015983538" fill="rgb(0%,0%,100%)" r="0.7" /><circle cx="300.617212483" cy="367.947910589" fill="rgb(0%,0%,100%)" r="0.7" /><circle cx="299.918103096" cy="370.865260292" fill="rgb(0%,0%,100%)" r="0.7" /><circle cx="299.154878671" cy="373.766486249" fill="rgb(0%,0%,100%)" r="0.7" /><circle cx="298.327384444" cy="376.65004441" fill="rgb(0%,0%,100%)" r="0.7" /><circle cx="297.435467115" cy="379.514322312" fill="rgb(0%,0%,100%)" r="0.7" /><circle cx="296.47894462" cy="382.357672801" fill="rgb(0%,0%,100%)" r="0.7" /><circle cx="295.45758465" cy="385.178387964" fill="rgb(0%,0%,100%)" r="0.7" /><circle cx="294.371080033" cy="387.974659474" fill="rgb(0%,0%,100%)" r="0.7" /><circle cx="293.219006576" cy="390.744550929" fill="rgb(0%,0%,100%)" r="0.7" /><circle cx="292.000751517" cy="393.485980772" fill="rgb(0%,0%,100%)" r="0.7" /><circle cx="290.715442743" cy="396.196611522" fill="rgb(0%,0%,100%)" r="0.7" /><circle cx="289.361801753" cy="398.873763556" fill="rgb(0%,0%,100%)" r="0.7" /><circle cx="287.937915995" cy="401.514219812" fill="rgb(0%,0%,100%)" r="0.7" /><circle cx="286.440825927" cy="404.113847023" fill="rgb(0%,0%,100%)" r="0.7" /><circle cx="284.865586383" cy="406.666863233" fill="rgb(0%,0%,100%)" r="0.7" /><circle cx="283.202741178" cy="409.163627775" fill="rgb(0%,0%,100%)" r="0.7" /><circle cx="281.423" cy="411.578" fill="rgb(0%,0%,100%)" r="0.7" /></svg>