<?xml version="1.0" encoding="utf-8" ?>
<svg baseProfile="full" height="100%" version="1.1" width="100%" xmlns="http://www.w3.org/2000/svg" xmlns:ev="http://www.w3.org/2001/xml-events" xmlns:xlink="http://www.w3.org/1999/xlink"><defs /><circle cx="284.658631604" cy="206.060661637" fill="rgb(100%,0%,0%)" r="0.7" /><circle cx="282.036175512" cy="207.487168578" fill="rgb(100%,0%,0%)" r="0.7" /><circle cx="279.791920958" cy="209.473984471" fill="rgb(100%,0%,0%)" r="0.7" /><circle cx="277.777241423" cy="211.695700082" fill="rgb(100%,0%,0%)" r="0.7" /><circle cx="275.914780505" cy="214.047093759" fill="rgb(100%,0%,0%)" r="0.7" /><circle cx="274.163288554" cy="216.482479858" fill="rgb(100%,0%,0%)" r="0.7" /><circle cx="272.49899171" cy="218.978349797" fill="rgb(100%,0%,0%)" r="0.7" /><circle cx="270.908098677" cy="221.521683839" fill="rgb(100%,0%,0%)" r="0.7" /><circle cx="269.384941125" cy="224.106152281" fill="rgb(100%,0%,0%)" r="0.7" /><circle cx="267.877884885" cy="226.699205415" fill="rgb(100%,0%,0%)" r="0.7" /><circle cx="266.455681157" cy="229.339891942" fill="rgb(100%,0%,0%)" r="0.7" /><circle cx="265.208010087" cy="232.067698611" fill="rgb(100%,0%,0%)" r="0.7" /><circle cx="264.098293713" cy="234.854640183" fill="rgb(100%,0%,0%)" r="0.7" /><circle cx="263.100443156" cy="237.683653532" fill="rgb(100%,0%,0%)" r="0.7" /><circle cx="262.195354602" cy="240.543757924" fill="rgb(100%,0%,0%)" r="0.7" /><circle cx="261.368682382" cy="243.427523446" fill="rgb(100%,0%,0%)" r="0.7" /><circle cx="260.609379735" cy="246.32978748" fill="rgb(100%,0%,0%)" r="0.7" /><circle cx="259.908783001" cy="249.246788818" fill="rgb(100%,0%,0%)" r="0.7" /><circle cx="259.25996357" cy="252.17575705" fill="rgb(100%,0%,0%)" r="0.7" /><circle cx="258.657305001" cy="255.114570825" fill="rgb(100%,0%,0%)" r="0.7" /><circle cx="258.09618817" cy="258.061607573" fill="rgb(100%,0%,0%)" r="0.7" /><circle cx="257.572779734" cy="261.01557757" fill="rgb(100%,0%,0%)" r="0.7" /><circle cx="257.08386757" cy="263.975455709" fill="rgb(100%,0%,0%)" r="0.7" /><circle cx="256.626743139" cy="266.940413819" fill="rgb(100%,0%,0%)" r="0.7" /><circle cx="256.199113716" cy="269.90976867" fill="rgb(100%,0%,0%)" r="0.7" /><circle cx="255.799033563" cy="272.882964619" fill="rgb(100%,0%,0%)" r="0.7" /><circle cx="255.42485787" cy="275.859526266" fill="rgb(100%,0%,0%)" r="0.7" /><circle cx="255.075202627" cy="278.83907866" fill="rgb(100%,0%,0%)" r="0.7" /><circle cx="254.748929419" cy="281.82127347" fill="rgb(100%,0%,0%)" r="0.7" /><circle cx="254.445128521" cy="284.80583935" fill="rgb(100%,0%,0%)" r="0.7" /><circle cx="254.163127368" cy="287.792561308" fill="rgb(100%,0%,0%)" r="0.7" /><circle cx="253.90252651" cy="290.781212325" fill="rgb(100%,0%,0%)" r="0.7" /><circle cx="253.663263679" cy="293.771660316" fill="rgb(100%,0%,0%)" r="0.7" /><circle cx="253.445797722" cy="296.763765134" fill="rgb(100%,0%,0%)" r="0.7" /><circle cx="253.251578827" cy="299.757464445" fill="rgb(100%,0%,0%)" r="0.7" /><circle cx="253.085131937" cy="302.752813648" fill="rgb(100%,0%,0%)" r="0.7" /><circle cx="253.161429918" cy="305.749291928" fill="rgb(100%,0%,0%)" r="0.7" /><circle cx="253.357939239" cy="308.742805548" fill="rgb(100%,0%,0%)" r="0.7" /><circle cx="253.610111298" cy="311.732145474" fill="rgb(100%,0%,0%)" r="0.7" /><circle cx="253.915888023" cy="314.716484297" fill="rgb(100%,0%,0%)" r="0.7" /><circle cx="254.273302839" cy="317.695079352" fill="rgb(100%,0%,0%)" r="0.7" /><circle cx="254.680483853" cy="320.66728705" fill="rgb(100%,0%,0%)" r="0.7" /><circle cx="255.135650085" cy="323.632524817" fill="rgb(100%,0%,0%)" r="0.7" /><circle cx="255.637113632" cy="326.590286608" fill="rgb(100%,0%,0%)" r="0.7" /><circle cx="256.183277115" cy="329.540124896" fill="rgb(100%,0%,0%)" r="0.7" /><circle cx="256.772631463" cy="332.481640906" fill="rgb(100%,0%,0%)" r="0.7" /><circle cx="257.403753027" cy="335.414473968" fill="rgb(100%,0%,0%)" r="0.7" /><circle cx="258.07530854" cy="338.338325985" fill="rgb(100%,0%,0%)" r="0.7" /><circle cx="258.786040819" cy="341.252898733" fill="rgb(100%,0%,0%)" r="0.7" /><circle cx="259.53477856" cy="344.157939918" fill="rgb(100%,0%,0%)" r="0.7" /><circle cx="260.32043033" cy="347.053216068" fill="rgb(100%,0%,0%)" r="0.7" /><circle cx="261.141984208" cy="349.938509699" fill="rgb(100%,0%,0%)" r="0.7" /><circle cx="261.998511391" cy="352.81362705" fill="rgb(100%,0%,0%)" r="0.7" /><circle cx="262.889153586" cy="355.678349139" fill="rgb(100%,0%,0%)" r="0.7" /><circle cx="263.813146379" cy="358.53249878" fill="rgb(100%,0%,0%)" r="0.7" /><circle cx="264.769800231" cy="361.375863483" fill="rgb(100%,0%,0%)" r="0.7" /><circle cx="265.758518607" cy="364.208232329" fill="rgb(100%,0%,0%)" r="0.7" /><circle cx="266.778806929" cy="367.029390979" fill="rgb(100%,0%,0%)" r="0.7" /><circle cx="267.830271319" cy="369.839078065" fill="rgb(100%,0%,0%)" r="0.7" /><circle cx="268.912640039" cy="372.636989443" fill="rgb(100%,0%,0%)" r="0.7" /><circle cx="270.025810258" cy="375.422816738" fill="rgb(100%,0%,0%)" r="0.7" /><circle cx="271.169838852" cy="378.196102031" fill="rgb(100%,0%,0%)" r="0.7" /><circle cx="272.345053261" cy="380.956323738" fill="rgb(100%,0%,0%)" r="0.7" /><circle cx="273.552117175" cy="383.702732331" fill="rgb(100%,0%,0%)" r="0.7" /><circle cx="274.792297978" cy="386.434377886" fill="rgb(100%,0%,0%)" r="0.7" /><circle cx="276.067838355" cy="389.149676427" fill="rgb(100%,0%,0%)" r="0.7" /><circle cx="277.383321004" cy="391.8458478" fill="rgb(100%,0%,0%)" r="0.7" /><circle cx="278.749060311" cy="394.516806755" fill="rgb(100%,0%,0%)" r="0.7" /><circle cx="280.237342007" cy="397.119939817" fill="rgb(100%,0%,0%)" r="0.7" /><circle cx="281.966384409" cy="399.570482666" fill="rgb(100%,0%,0%)" r="0.7" /><circle cx="283.873342737" cy="401.885700697" fill="rgb(100%,0%,0%)" r="0.7" /><circle cx="285.91506575" cy="404.083245621" fill="rgb(100%,0%,0%)" r="0.7" /><circle cx="288.061507106" cy="406.178805255" fill="rgb(100%,0%,0%)" r="0.7" /><circle cx="290.291237729" cy="408.18561184" fill="rgb(100%,0%,0%)" r="0.7" /><circle cx="292.588621889" cy="410.114665791" fill="rgb(100%,0%,0%)" r="0.7" /><circle cx="294.941984925" cy="411.975080162" fill="rgb(100%,0%,0%)" r="0.7" /><circle cx="297.342398831" cy="413.774407379" fill="rgb(100%,0%,0%)" r="0.7" /><circle cx="299.782929138" cy="415.51896368" fill="rgb(100%,0%,0%)" r="0.7" /><circle cx="302.258087318" cy="417.214057339" fill="rgb(100%,0%,0%)" r="0.7" /><circle cx="304.763459572" cy="418.864177894" fill="rgb(100%,0%,0%)" r="0.7" /><circle cx="307.295460047" cy="420.473154949" fill="rgb(100%,0%,0%)" r="0.7" /><circle cx="309.851131224" cy="422.044267483" fill="rgb(100%,0%,0%)" r="0.7" /><circle cx="312.428019095" cy="423.58034419" fill="rgb(100%,0%,0%)" r="0.7" /><circle cx="315.024059901" cy="425.083829547" fill="rgb(100%,0%,0%)" r="0.7" /><circle cx="317.637511252" cy="426.55684654" fill="rgb(100%,0%,0%)" r="0.7" /><circle cx="320.266894396" cy="428.001242707" fill="rgb(100%,0%,0%)" r="0.7" /><circle cx="322.910940972" cy="429.418621663" fill="rgb(100%,0%,0%)" r="0.7" /><circle cx="325.568560773" cy="430.810372742" fill="rgb(100%,0%,0%)" r="0.7" /><circle cx="328.238839121" cy="432.177704391" fill="rgb(100%,0%,0%)" r="0.7" /><circle cx="330.920957456" cy="433.521628276" fill="rgb(100%,0%,0%)" r="0.7" /><circle cx="333.614274803" cy="434.843016043" fill="rgb(100%,0%,0%)" r="0.7" /><circle cx="336.318199265" cy="436.142540313" fill="rgb(100%,0%,0%)" r="0.7" /><circle cx="339.032280399" cy="437.420713214" fill="rgb(100%,0%,0%)" r="0.7" /><circle cx="341.75616851" cy="438.677840099" fill="rgb(100%,0%,0%)" r="0.7" /><circle cx="344.489655309" cy="439.913980581" fill="rgb(100%,0%,0%)" r="0.7" /><circle cx="347.232665085" cy="441.128822528" fill="rgb(100%,0%,0%)" r="0.7" /><circle cx="349.985411489" cy="442.321472835" fill="rgb(100%,0%,0%)" r="0.7" /><circle cx="352.748568278" cy="443.489730774" fill="rgb(100%,0%,0%)" r="0.7" /><circle cx="355.525" cy="444.626" fill="rgb(100%,0%,0%)" r="0.7" /><circle cx="284.658631604" cy="206.060661637" fill="rgb(0%,0%,100%)" r="0.7" /><circle cx="287.547350995" cy="206.346531735" fill="rgb(0%,0%,100%)" r="0.7" /><circle cx="290.422817531" cy="207.082525778" fill="rgb(0%,0%,100%)" r="0.7" /><circle cx="293.410020047" cy="206.92667422" fill="rgb(0%,0%,100%)" r="0.7" /><circle cx="296.346840803" cy="207.452728727" fill="rgb(0%,0%,100%)" r="0.7" /><circle cx="298.933427415" cy="208.814252776" fill="rgb(0%,0%,100%)" r="0.7" /><circle cx="301.852345957" cy="209.267522051" fill="rgb(0%,0%,100%)" r="0.7" /><circle cx="304.204319887" cy="211.080669746" fill="rgb(0%,0%,100%)" r="0.7" /><circle cx="305.201730126" cy="213.862325596" fill="rgb(0%,0%,100%)" r="0.7" /><circle cx="304.746652404" cy="216.806410609" fill="rgb(0%,0%,100%)" r="0.7" /><circle cx="303.178062202" cy="219.342709394" fill="rgb(0%,0%,100%)" r="0.7" /><circle cx="300.817923282" cy="221.172538817" fill="rgb(0%,0%,100%)" r="0.7" /><circle cx="298.029266067" cy="222.258057124" fill="rgb(0%,0%,100%)" r="0.7" /><circle cx="295.073622363" cy="222.750326891" fill="rgb(0%,0%,100%)" r="0.7" /><circle cx="292.136165363" cy="223.033521268" fill="rgb(0%,0%,100%)" r="0.7" /><circle cx="289.917215555" cy="225.043381932" fill="rgb(0%,0%,100%)" r="0.7" /><circle cx="288.044390483" cy="227.384662082" fill="rgb(0%,0%,100%)" r="0.7" /><circle cx="286.419274165" cy="229.905245352" fill="rgb(0%,0%,100%)" r="0.7" /><circle cx="284.991434226" cy="232.543019838" fill="rgb(0%,0%,100%)" r="0.7" /><circle cx="283.727139165" cy="235.263178604" fill="rgb(0%,0%,100%)" r="0.7" /><circle cx="282.601755403" cy="238.043805343" fill="rgb(0%,0%,100%)" r="0.7" /><circle cx="281.596431877" cy="240.870134999" fill="rgb(0%,0%,100%)" r="0.7" /><circle cx="280.696287606" cy="243.731760462" fill="rgb(0%,0%,100%)" r="0.7" /><circle cx="279.889311918" cy="246.621068266" fill="rgb(0%,0%,100%)" r="0.7" /><circle cx="279.165620843" cy="249.532381957" fill="rgb(0%,0%,100%)" r="0.7" /><circle cx="278.516973785" cy="252.461329183" fill="rgb(0%,0%,100%)" r="0.7" /><circle cx="277.936394876" cy="255.404561909" fill="rgb(0%,0%,100%)" r="0.7" /><circle cx="277.417942271" cy="258.359356744" fill="rgb(0%,0%,100%)" r="0.7" /><circle cx="276.956473769" cy="261.323638647" fill="rgb(0%,0%,100%)" r="0.7" /><circle cx="276.547543929" cy="264.295573799" fill="rgb(0%,0%,100%)" r="0.7" /><circle cx="276.18723438" cy="267.273823155" fill="rgb(0%,0%,100%)" r="0.7" /><circle cx="275.872100764" cy="270.257229168" fill="rgb(0%,0%,100%)" r="0.7" /><circle cx="275.599097544" cy="273.244725228" fill="rgb(0%,0%,100%)" r="0.7" /><circle cx="275.365490594" cy="276.235598203" fill="rgb(0%,0%,100%)" r="0.7" /><circle cx="275.168841771" cy="279.22912437" fill="rgb(0%,0%,100%)" r="0.7" /><circle cx="275.006950466" cy="282.224761912" fill="rgb(0%,0%,100%)" r="0.7" /><circle cx="274.877832099" cy="285.221955055" fill="rgb(0%,0%,100%)" r="0.7" /><circle cx="274.779679479" cy="288.22034208" fill="rgb(0%,0%,100%)" r="0.7" /><circle cx="274.710849579" cy="291.219554741" fill="rgb(0%,0%,100%)" r="0.7" /><circle cx="274.779312905" cy="294.216032382" fill="rgb(0%,0%,100%)" r="0.7" /><circle cx="275.013724958" cy="297.206852475" fill="rgb(0%,0%,100%)" r="0.7" /><circle cx="275.273441955" cy="300.195599644" fill="rgb(0%,0%,100%)" r="0.7" /><circle cx="275.555525984" cy="303.182302507" fill="rgb(0%,0%,100%)" r="0.7" /><circle cx="275.859167769" cy="306.166887474" fill="rgb(0%,0%,100%)" r="0.7" /><circle cx="276.184384909" cy="309.149208427" fill="rgb(0%,0%,100%)" r="0.7" /><circle cx="276.531679503" cy="312.129022511" fill="rgb(0%,0%,100%)" r="0.7" /><circle cx="276.901929526" cy="315.106085374" fill="rgb(0%,0%,100%)" r="0.7" /><circle cx="277.29633801" cy="318.080037518" fill="rgb(0%,0%,100%)" r="0.7" /><circle cx="277.716444481" cy="321.050466653" fill="rgb(0%,0%,100%)" r="0.7" /><circle cx="278.164152628" cy="324.016861853" fill="rgb(0%,0%,100%)" r="0.7" /><circle cx="278.641785995" cy="326.978583646" fill="rgb(0%,0%,100%)" r="0.7" /><circle cx="279.152173907" cy="329.934833514" fill="rgb(0%,0%,100%)" r="0.7" /><circle cx="279.69877293" cy="332.884598859" fill="rgb(0%,0%,100%)" r="0.7" /><circle cx="280.285838468" cy="335.826570013" fill="rgb(0%,0%,100%)" r="0.7" /><circle cx="280.918673306" cy="338.759030997" fill="rgb(0%,0%,100%)" r="0.7" /><circle cx="281.603983615" cy="341.679656645" fill="rgb(0%,0%,100%)" r="0.7" /><circle cx="282.350427167" cy="344.585251494" fill="rgb(0%,0%,100%)" r="0.7" /><circle cx="283.16943642" cy="347.471189019" fill="rgb(0%,0%,100%)" r="0.7" /><circle cx="284.076595023" cy="350.330599119" fill="rgb(0%,0%,100%)" r="0.7" /><circle cx="285.093918592" cy="353.152586483" fill="rgb(0%,0%,100%)" r="0.7" /><circle cx="286.254004789" cy="355.918732371" fill="rgb(0%,0%,100%)" r="0.7" /><circle cx="287.607898182" cy="358.594833035" fill="rgb(0%,0%,100%)" r="0.7" /><circle cx="289.220688066" cy="361.122971713" fill="rgb(0%,0%,100%)" r="0.7" /><circle cx="290.920929588" cy="363.594631686" fill="rgb(0%,0%,100%)" r="0.7" /><circle cx="292.641457479" cy="366.052227621" fill="rgb(0%,0%,100%)" r="0.7" /><circle cx="294.380036703" cy="368.4970791" fill="rgb(0%,0%,100%)" r="0.7" /><circle cx="296.136102344" cy="370.929405106" fill="rgb(0%,0%,100%)" r="0.7" /><circle cx="297.909743031" cy="373.348943913" fill="rgb(0%,0%,100%)" r="0.7" /><circle cx="299.70145262" cy="375.755131622" fill="rgb(0%,0%,100%)" r="0.7" /><circle cx="301.512041814" cy="378.147149127" fill="rgb(0%,0%,100%)" r="0.7" /><circle cx="303.342604572" cy="380.523908993" fill="rgb(0%,0%,100%)" r="0.7" /><circle cx="305.194546299" cy="382.884049126" fill="rgb(0%,0%,100%)" r="0.7" /><circle cx="307.0696048" cy="385.225857517" fill="rgb(0%,0%,100%)" r="0.7" /><circle cx="308.969930051" cy="387.547209966" fill="rgb(0%,0%,100%)" r="0.7" /><circle cx="310.898162964" cy="389.84542718" fill="rgb(0%,0%,100%)" r="0.7" /><circle cx="312.857582675" cy="392.117105483" fill="rgb(0%,0%,100%)" r="0.7" /><circle cx="314.852302629" cy="394.357838569" fill="rgb(0%,0%,100%)" r="0.7" /><circle cx="316.887568098" cy="396.561794287" fill="rgb(0%,0%,100%)" r="0.7" /><circle cx="318.970197152" cy="398.721017108" fill="rgb(0%,0%,100%)" r="0.7" /><circle cx="321.109287195" cy="400.824255436" fill="rgb(0%,0%,100%)" r="0.7" /><circle cx="323.317384538" cy="402.854838832" fill="rgb(0%,0%,100%)" r="0.7" /><circle cx="325.612404382" cy="404.786409177" fill="rgb(0%,0%,100%)" r="0.7" /><circle cx="327.995615958" cy="406.608214814" fill="rgb(0%,0%,100%)" r="0.7" /><circle cx="330.376888155" cy="408.432919983" fill="rgb(0%,0%,100%)" r="0.7" /><circle cx="332.763875006" cy="410.250144633" fill="rgb(0%,0%,100%)" r="0.7" /><circle cx="335.156131009" cy="412.060437215" fill="rgb(0%,0%,100%)" r="0.7" /><circle cx="337.553735776" cy="413.863626697" fill="rgb(0%,0%,100%)" r="0.7" /><circle cx="339.957034952" cy="415.659216499" fill="rgb(0%,0%,100%)" r="0.7" /><circle cx="342.366578452" cy="417.446418707" fill="rgb(0%,0%,100%)" r="0.7" /><circle cx="344.783144798" cy="419.224115988" fill="rgb(0%,0%,100%)" r="0.7" /><circle cx="347.207806694" cy="420.990754047" fill="rgb(0%,0%,100%)" r="0.7" /><circle cx="349.642061805" cy="422.744146358" fill="rgb(0%,0%,100%)" r="0.7" /><circle cx="352.088064472" cy="424.481108984" fill="rgb(0%,0%,100%)" r="0.7" /><circle cx="354.549066515" cy="426.196737031" fill="rgb(0%,0%,100%)" r="0.7" /><circle cx="357.030395135" cy="427.882827035" fill="rgb(0%,0%,100%)" r="0.7" /><circle cx="359.541845489" cy="429.523622762" fill="rgb(0%,0%,100%)" r="0.7" /><circle cx="362.106002902" cy="431.080353031" fill="rgb(0%,0%,100%)" r="0.7" /><circle cx="362.341171154" cy="432.348530209" fill="rgb(0%,0%,100%)" r="0.7" /><circle cx="359.546503091" cy="433.439323692" fill="rgb(0%,0%,100%)" r="0.7" /><circle cx="356.751835029" cy="434.530117174" fill="rgb(0%,0%,100%)" r="0.7" /><circle cx="353.957166967" cy="435.620910657" fill="rgb(0%,0%,100%)" r="0.7" /><circle cx="353.02647561" cy="437.56495281" fill="rgb(0%,0%,100%)" r="0.7" /><circle cx="354.027211561" cy="440.393119629" fill="rgb(0%,0%,100%)" r="0.7" /><circle cx="355.027947512" cy="443.221286447" fill="rgb(0%,0%,100%)" r="0.7" /><circle cx="355.525" cy="444.626" fill="rgb(0%,0%,100%)" r="0.7" /></svg>