<?xml version="1.0" encoding="utf-8" ?>
<svg baseProfile="full" height="100%" version="1.1" width="100%" xmlns="http://www.w3.org/2000/svg" xmlns:ev="http://www.w3.org/2001/xml-events" xmlns:xlink="http://www.w3.org/1999/xlink"><defs /><circle cx="289.2761178" cy="347.295640537" fill="rgb(100%,0%,0%)" r="0.7" /><circle cx="286.346142131" cy="347.670879439" fill="rgb(100%,0%,0%)" r="0.7" /><circle cx="283.998298598" cy="349.510288371" fill="rgb(100%,0%,0%)" r="0.7" /><circle cx="282.183006884" cy="351.894228217" fill="rgb(100%,0%,0%)" r="0.7" /><circle cx="280.687386351" cy="354.493467106" fill="rgb(100%,0%,0%)" r="0.7" /><circle cx="279.403381339" cy="357.204206614" fill="rgb(100%,0%,0%)" r="0.7" /><circle cx="278.276945395" cy="359.98435527" fill="rgb(100%,0%,0%)" r="0.7" /><circle cx="277.285485757" cy="362.815483509" fill="rgb(100%,0%,0%)" r="0.7" /><circle cx="276.490364109" cy="365.707320845" fill="rgb(100%,0%,0%)" r="0.7" /><circle cx="275.82535735" cy="368.632547574" fill="rgb(100%,0%,0%)" r="0.7" /><circle cx="275.25112138" cy="371.576972906" fill="rgb(100%,0%,0%)" r="0.7" /><circle cx="274.756968208" cy="374.535913381" fill="rgb(100%,0%,0%)" r="0.7" /><circle cx="274.334131044" cy="377.505901279" fill="rgb(100%,0%,0%)" r="0.7" /><circle cx="273.975358805" cy="380.484318979" fill="rgb(100%,0%,0%)" r="0.7" /><circle cx="273.674608027" cy="383.469163038" fill="rgb(100%,0%,0%)" r="0.7" /><circle cx="273.426810535" cy="386.458877425" fill="rgb(100%,0%,0%)" r="0.7" /><circle cx="273.227697236" cy="389.452233113" fill="rgb(100%,0%,0%)" r="0.7" /><circle cx="273.073663952" cy="392.448246928" fill="rgb(100%,0%,0%)" r="0.7" /><circle cx="272.96167039" cy="395.446136797" fill="rgb(100%,0%,0%)" r="0.7" /><circle cx="272.889168433" cy="398.445242854" fill="rgb(100%,0%,0%)" r="0.7" /><circle cx="272.854051549" cy="401.44501351" fill="rgb(100%,0%,0%)" r="0.7" /><circle cx="272.854629876" cy="404.445004353" fill="rgb(100%,0%,0%)" r="0.7" /><circle cx="272.889634149" cy="407.444780854" fill="rgb(100%,0%,0%)" r="0.7" /><circle cx="272.95826214" cy="410.443984248" fill="rgb(100%,0%,0%)" r="0.7" /><circle cx="273.060304995" cy="413.442234303" fill="rgb(100%,0%,0%)" r="0.7" /><circle cx="273.196464937" cy="416.439125793" fill="rgb(100%,0%,0%)" r="0.7" /><circle cx="273.369298369" cy="419.434114144" fill="rgb(100%,0%,0%)" r="0.7" /><circle cx="273.589" cy="422.426" fill="rgb(100%,0%,0%)" r="0.7" /><circle cx="289.2761178" cy="347.295640537" fill="rgb(0%,0%,100%)" r="0.7" /><circle cx="292.251319219" cy="347.671999986" fill="rgb(0%,0%,100%)" r="0.7" /><circle cx="295.178228185" cy="348.324720006" fill="rgb(0%,0%,100%)" r="0.7" /><circle cx="298.016168609" cy="349.291605524" fill="rgb(0%,0%,100%)" r="0.7" /><circle cx="300.686871717" cy="350.65061214" fill="rgb(0%,0%,100%)" r="0.7" /><circle cx="303.040216486" cy="352.50064419" fill="rgb(0%,0%,100%)" r="0.7" /><circle cx="304.745486294" cy="354.93992096" fill="rgb(0%,0%,100%)" r="0.7" /><circle cx="305.516565891" cy="357.829606695" fill="rgb(0%,0%,100%)" r="0.7" /><circle cx="305.319185971" cy="360.803680112" fill="rgb(0%,0%,100%)" r="0.7" /><circle cx="303.861657688" cy="363.393755857" fill="rgb(0%,0%,100%)" r="0.7" /><circle cx="301.468521623" cy="365.179639211" fill="rgb(0%,0%,100%)" r="0.7" /><circle cx="298.866264849" cy="366.672374762" fill="rgb(0%,0%,100%)" r="0.7" /><circle cx="296.267024244" cy="368.170356706" fill="rgb(0%,0%,100%)" r="0.7" /><circle cx="293.666674194" cy="369.666405463" fill="rgb(0%,0%,100%)" r="0.7" /><circle cx="291.046490831" cy="371.127214534" fill="rgb(0%,0%,100%)" r="0.7" /><circle cx="288.81105559" cy="373.029200094" fill="rgb(0%,0%,100%)" r="0.7" /><circle cx="287.717469954" cy="375.812352415" fill="rgb(0%,0%,100%)" r="0.7" /><circle cx="287.18484198" cy="378.762327791" fill="rgb(0%,0%,100%)" r="0.7" /><circle cx="286.970886269" cy="381.753804864" fill="rgb(0%,0%,100%)" r="0.7" /><circle cx="286.901120771" cy="384.752837185" fill="rgb(0%,0%,100%)" r="0.7" /><circle cx="286.807461245" cy="387.751374811" fill="rgb(0%,0%,100%)" r="0.7" /><circle cx="286.713801719" cy="390.749912436" fill="rgb(0%,0%,100%)" r="0.7" /><circle cx="286.620142193" cy="393.748450062" fill="rgb(0%,0%,100%)" r="0.7" /><circle cx="286.526482667" cy="396.746987688" fill="rgb(0%,0%,100%)" r="0.7" /><circle cx="286.432823141" cy="399.745525314" fill="rgb(0%,0%,100%)" r="0.7" /><circle cx="286.339163615" cy="402.74406294" fill="rgb(0%,0%,100%)" r="0.7" /><circle cx="286.245504089" cy="405.742600565" fill="rgb(0%,0%,100%)" r="0.7" /><circle cx="286.151844563" cy="408.741138191" fill="rgb(0%,0%,100%)" r="0.7" /><circle cx="286.058185037" cy="411.739675817" fill="rgb(0%,0%,100%)" r="0.7" /><circle cx="285.964525511" cy="414.738213443" fill="rgb(0%,0%,100%)" r="0.7" /><circle cx="285.870865985" cy="417.736751068" fill="rgb(0%,0%,100%)" r="0.7" /><circle cx="285.777206459" cy="420.735288694" fill="rgb(0%,0%,100%)" r="0.7" /><circle cx="285.427271505" cy="422.418463994" fill="rgb(0%,0%,100%)" r="0.7" /><circle cx="284.214767968" cy="419.67440948" fill="rgb(0%,0%,100%)" r="0.7" /><circle cx="283.002264432" cy="416.930354967" fill="rgb(0%,0%,100%)" r="0.7" /><circle cx="281.789760895" cy="414.186300453" fill="rgb(0%,0%,100%)" r="0.7" /><circle cx="280.577257358" cy="411.44224594" fill="rgb(0%,0%,100%)" r="0.7" /><circle cx="279.327528276" cy="410.664510441" fill="rgb(0%,0%,100%)" r="0.7" /><circle cx="278.012032155" cy="413.360705901" fill="rgb(0%,0%,100%)" r="0.7" /><circle cx="276.696536035" cy="416.056901361" fill="rgb(0%,0%,100%)" r="0.7" /><circle cx="275.381039915" cy="418.753096821" fill="rgb(0%,0%,100%)" r="0.7" /><circle cx="274.065543795" cy="421.44929228" fill="rgb(0%,0%,100%)" r="0.7" /><circle cx="273.589" cy="422.426" fill="rgb(0%,0%,100%)" r="0.7" /></svg>