<?xml version="1.0" encoding="utf-8" ?>
<svg baseProfile="full" height="100%" version="1.1" width="100%" xmlns="http://www.w3.org/2000/svg" xmlns:ev="http://www.w3.org/2001/xml-events" xmlns:xlink="http://www.w3.org/1999/xlink"><defs /><circle cx="182.585847213" cy="132.417648867" fill="rgb(100%,0%,0%)" r="0.7" /><circle cx="179.725758098" cy="132.988175403" fill="rgb(100%,0%,0%)" r="0.7" /><circle cx="177.364730397" cy="134.832602976" fill="rgb(100%,0%,0%)" r="0.7" /><circle cx="175.219597602" cy="136.929001799" fill="rgb(100%,0%,0%)" r="0.7" /><circle cx="173.186001619" cy="139.134297881" fill="rgb(100%,0%,0%)" r="0.7" /><circle cx="171.225638173" cy="141.405071554" fill="rgb(100%,0%,0%)" r="0.7" /><circle cx="169.32093771" cy="143.722784319" fill="rgb(100%,0%,0%)" r="0.7" /><circle cx="167.466513367" cy="146.080903594" fill="rgb(100%,0%,0%)" r="0.7" /><circle cx="165.825112804" cy="148.590660639" fill="rgb(100%,0%,0%)" r="0.7" /><circle cx="164.284900973" cy="151.164976349" fill="rgb(100%,0%,0%)" r="0.7" /><circle cx="162.817788548" cy="153.781663878" fill="rgb(100%,0%,0%)" r="0.7" /><circle cx="161.415693073" cy="156.433780739" fill="rgb(100%,0%,0%)" r="0.7" /><circle cx="160.071904584" cy="159.115929934" fill="rgb(100%,0%,0%)" r="0.7" /><circle cx="158.780807918" cy="161.823845702" fill="rgb(100%,0%,0%)" r="0.7" /><circle cx="157.537663649" cy="164.554118778" fill="rgb(100%,0%,0%)" r="0.7" /><circle cx="156.338451762" cy="167.303976693" fill="rgb(100%,0%,0%)" r="0.7" /><circle cx="155.179739105" cy="170.071148958" fill="rgb(100%,0%,0%)" r="0.7" /><circle cx="154.058583578" cy="172.853753439" fill="rgb(100%,0%,0%)" r="0.7" /><circle cx="152.972457168" cy="175.650216753" fill="rgb(100%,0%,0%)" r="0.7" /><circle cx="151.919181813" cy="178.459226514" fill="rgb(100%,0%,0%)" r="0.7" /><circle cx="150.896894712" cy="181.279657188" fill="rgb(100%,0%,0%)" r="0.7" /><circle cx="149.903998169" cy="184.11057992" fill="rgb(100%,0%,0%)" r="0.7" /><circle cx="148.939159086" cy="186.951173602" fill="rgb(100%,0%,0%)" r="0.7" /><circle cx="148.001266106" cy="189.800794636" fill="rgb(100%,0%,0%)" r="0.7" /><circle cx="147.089465744" cy="192.658859611" fill="rgb(100%,0%,0%)" r="0.7" /><circle cx="146.203146717" cy="195.524941699" fill="rgb(100%,0%,0%)" r="0.7" /><circle cx="145.342016184" cy="198.398682171" fill="rgb(100%,0%,0%)" r="0.7" /><circle cx="144.50618221" cy="201.279872601" fill="rgb(100%,0%,0%)" r="0.7" /><circle cx="143.696385787" cy="204.168521189" fill="rgb(100%,0%,0%)" r="0.7" /><circle cx="142.914688313" cy="207.064868684" fill="rgb(100%,0%,0%)" r="0.7" /><circle cx="142.167518744" cy="209.970323077" fill="rgb(100%,0%,0%)" r="0.7" /><circle cx="141.556742783" cy="212.907107517" fill="rgb(100%,0%,0%)" r="0.7" /><circle cx="141.005900759" cy="215.856071987" fill="rgb(100%,0%,0%)" r="0.7" /><circle cx="140.500942655" cy="218.813232119" fill="rgb(100%,0%,0%)" r="0.7" /><circle cx="140.043091173" cy="221.778069454" fill="rgb(100%,0%,0%)" r="0.7" /><circle cx="139.633616476" cy="224.749957163" fill="rgb(100%,0%,0%)" r="0.7" /><circle cx="139.273821362" cy="227.728266663" fill="rgb(100%,0%,0%)" r="0.7" /><circle cx="138.965054873" cy="230.712298833" fill="rgb(100%,0%,0%)" r="0.7" /><circle cx="138.708714364" cy="233.701287857" fill="rgb(100%,0%,0%)" r="0.7" /><circle cx="138.506250032" cy="236.694394071" fill="rgb(100%,0%,0%)" r="0.7" /><circle cx="138.359168164" cy="239.690754084" fill="rgb(100%,0%,0%)" r="0.7" /><circle cx="138.269046124" cy="242.689353894" fill="rgb(100%,0%,0%)" r="0.7" /><circle cx="138.237535613" cy="245.689139094" fill="rgb(100%,0%,0%)" r="0.7" /><circle cx="138.266379449" cy="248.688948407" fill="rgb(100%,0%,0%)" r="0.7" /><circle cx="138.357428549" cy="251.687510146" fill="rgb(100%,0%,0%)" r="0.7" /><circle cx="138.512665063" cy="254.683422161" fill="rgb(100%,0%,0%)" r="0.7" /><circle cx="138.734237476" cy="257.675175473" fill="rgb(100%,0%,0%)" r="0.7" /><circle cx="139.024498641" cy="260.661027801" fill="rgb(100%,0%,0%)" r="0.7" /><circle cx="139.386077223" cy="263.639081617" fill="rgb(100%,0%,0%)" r="0.7" /><circle cx="139.821964887" cy="266.607152768" fill="rgb(100%,0%,0%)" r="0.7" /><circle cx="140.335667881" cy="269.56275546" fill="rgb(100%,0%,0%)" r="0.7" /><circle cx="140.931428336" cy="272.502907534" fill="rgb(100%,0%,0%)" r="0.7" /><circle cx="141.614628013" cy="275.423943729" fill="rgb(100%,0%,0%)" r="0.7" /><circle cx="142.392582177" cy="278.321180909" fill="rgb(100%,0%,0%)" r="0.7" /><circle cx="143.276263179" cy="281.187867884" fill="rgb(100%,0%,0%)" r="0.7" /><circle cx="144.285734739" cy="284.012604517" fill="rgb(100%,0%,0%)" r="0.7" /><circle cx="145.789802919" cy="285.789974465" fill="rgb(100%,0%,0%)" r="0.7" /><circle cx="182.585847213" cy="132.417648867" fill="rgb(0%,0%,100%)" r="0.7" /><circle cx="185.490601316" cy="133.141547002" fill="rgb(0%,0%,100%)" r="0.7" /><circle cx="188.193234045" cy="134.434066304" fill="rgb(0%,0%,100%)" r="0.7" /><circle cx="190.638514109" cy="136.166662059" fill="rgb(0%,0%,100%)" r="0.7" /><circle cx="192.805496695" cy="138.238017947" fill="rgb(0%,0%,100%)" r="0.7" /><circle cx="193.989992474" cy="140.989587949" fill="rgb(0%,0%,100%)" r="0.7" /><circle cx="194.879470307" cy="143.85308038" fill="rgb(0%,0%,100%)" r="0.7" /><circle cx="195.351093261" cy="146.811395564" fill="rgb(0%,0%,100%)" r="0.7" /><circle cx="194.987656334" cy="149.768102474" fill="rgb(0%,0%,100%)" r="0.7" /><circle cx="193.02994071" cy="151.93944674" fill="rgb(0%,0%,100%)" r="0.7" /><circle cx="190.42668019" cy="153.411327658" fill="rgb(0%,0%,100%)" r="0.7" /><circle cx="187.629901517" cy="154.493702564" fill="rgb(0%,0%,100%)" r="0.7" /><circle cx="184.761934484" cy="155.372576568" fill="rgb(0%,0%,100%)" r="0.7" /><circle cx="182.000291753" cy="156.499576473" fill="rgb(0%,0%,100%)" r="0.7" /><circle cx="179.626923994" cy="158.327631449" fill="rgb(0%,0%,100%)" r="0.7" /><circle cx="177.543178099" cy="160.483512405" fill="rgb(0%,0%,100%)" r="0.7" /><circle cx="175.681384836" cy="162.834784381" fill="rgb(0%,0%,100%)" r="0.7" /><circle cx="173.996062962" cy="165.316051127" fill="rgb(0%,0%,100%)" r="0.7" /><circle cx="172.455123023" cy="167.889667575" fill="rgb(0%,0%,100%)" r="0.7" /><circle cx="171.035004467" cy="170.53199833" fill="rgb(0%,0%,100%)" r="0.7" /><circle cx="169.717883641" cy="173.227225565" fill="rgb(0%,0%,100%)" r="0.7" /><circle cx="168.489913152" cy="175.964265901" fill="rgb(0%,0%,100%)" r="0.7" /><circle cx="167.340090067" cy="178.735075974" fill="rgb(0%,0%,100%)" r="0.7" /><circle cx="166.444197929" cy="181.597380107" fill="rgb(0%,0%,100%)" r="0.7" /><circle cx="165.521570333" cy="184.451944012" fill="rgb(0%,0%,100%)" r="0.7" /><circle cx="164.536569884" cy="187.2855287" fill="rgb(0%,0%,100%)" r="0.7" /><circle cx="163.430023777" cy="190.073385107" fill="rgb(0%,0%,100%)" r="0.7" /><circle cx="162.354100982" cy="192.866513306" fill="rgb(0%,0%,100%)" r="0.7" /><circle cx="161.478102212" cy="195.735711687" fill="rgb(0%,0%,100%)" r="0.7" /><circle cx="160.658490482" cy="198.621537477" fill="rgb(0%,0%,100%)" r="0.7" /><circle cx="159.891561788" cy="201.521806166" fill="rgb(0%,0%,100%)" r="0.7" /><circle cx="159.177426225" cy="204.435527522" fill="rgb(0%,0%,100%)" r="0.7" /><circle cx="158.518019693" cy="207.36211624" fill="rgb(0%,0%,100%)" r="0.7" /><circle cx="157.916590349" cy="210.301160509" fill="rgb(0%,0%,100%)" r="0.7" /><circle cx="157.377590135" cy="213.252280924" fill="rgb(0%,0%,100%)" r="0.7" /><circle cx="156.906742794" cy="216.215030246" fill="rgb(0%,0%,100%)" r="0.7" /><circle cx="156.511239708" cy="219.188754618" fill="rgb(0%,0%,100%)" r="0.7" /><circle cx="156.200047137" cy="222.172459023" fill="rgb(0%,0%,100%)" r="0.7" /><circle cx="155.984359758" cy="225.164550381" fill="rgb(0%,0%,100%)" r="0.7" /><circle cx="155.878228843" cy="228.162481551" fill="rgb(0%,0%,100%)" r="0.7" /><circle cx="155.89942873" cy="231.162143815" fill="rgb(0%,0%,100%)" r="0.7" /><circle cx="156.070623382" cy="234.156881226" fill="rgb(0%,0%,100%)" r="0.7" /><circle cx="156.26932142" cy="237.148819507" fill="rgb(0%,0%,100%)" r="0.7" /><circle cx="156.450567362" cy="240.143273267" fill="rgb(0%,0%,100%)" r="0.7" /><circle cx="156.699630238" cy="243.132856878" fill="rgb(0%,0%,100%)" r="0.7" /><circle cx="157.014109886" cy="246.116267352" fill="rgb(0%,0%,100%)" r="0.7" /><circle cx="157.396791349" cy="249.091686103" fill="rgb(0%,0%,100%)" r="0.7" /><circle cx="157.853441262" cy="252.056642782" fill="rgb(0%,0%,100%)" r="0.7" /><circle cx="158.39259183" cy="255.007687782" fill="rgb(0%,0%,100%)" r="0.7" /><circle cx="159.026002529" cy="257.939905918" fill="rgb(0%,0%,100%)" r="0.7" /><circle cx="159.769651606" cy="260.846057256" fill="rgb(0%,0%,100%)" r="0.7" /><circle cx="160.645401351" cy="263.715053664" fill="rgb(0%,0%,100%)" r="0.7" /><circle cx="161.683665793" cy="266.529106768" fill="rgb(0%,0%,100%)" r="0.7" /><circle cx="162.927552733" cy="269.258078603" fill="rgb(0%,0%,100%)" r="0.7" /><circle cx="164.438615222" cy="271.847721086" fill="rgb(0%,0%,100%)" r="0.7" /><circle cx="166.301" cy="274.195" fill="rgb(0%,0%,100%)" r="0.7" /><circle cx="164.070977586" cy="275.4556311" fill="rgb(0%,0%,100%)" r="0.7" /><circle cx="161.459381205" cy="276.931965867" fill="rgb(0%,0%,100%)" r="0.7" /><circle cx="158.847784824" cy="278.408300633" fill="rgb(0%,0%,100%)" r="0.7" /><circle cx="156.236188443" cy="279.8846354" fill="rgb(0%,0%,100%)" r="0.7" /><circle cx="153.624592062" cy="281.360970166" fill="rgb(0%,0%,100%)" r="0.7" /><circle cx="151.012995681" cy="282.837304932" fill="rgb(0%,0%,100%)" r="0.7" /><circle cx="148.4013993" cy="284.313639699" fill="rgb(0%,0%,100%)" r="0.7" /><circle cx="145.789802919" cy="285.789974465" fill="rgb(0%,0%,100%)" r="0.7" /></svg>