<?xml version="1.0" encoding="utf-8" ?>
<svg baseProfile="full" height="100%" version="1.1" width="100%" xmlns="http://www.w3.org/2000/svg" xmlns:ev="http://www.w3.org/2001/xml-events" xmlns:xlink="http://www.w3.org/1999/xlink"><defs /><circle cx="301.128873578" cy="304.057524107" fill="rgb(100%,0%,0%)" r="0.7" /><circle cx="298.134799158" cy="304.140363709" fill="rgb(100%,0%,0%)" r="0.7" /><circle cx="295.220647626" cy="304.82917625" fill="rgb(100%,0%,0%)" r="0.7" /><circle cx="292.511861987" cy="306.106495525" fill="rgb(100%,0%,0%)" r="0.7" /><circle cx="290.121842588" cy="307.907588191" fill="rgb(100%,0%,0%)" r="0.7" /><circle cx="287.977978414" cy="310.005818878" fill="rgb(100%,0%,0%)" r="0.7" /><circle cx="285.92792425" cy="312.195696135" fill="rgb(100%,0%,0%)" r="0.7" /><circle cx="284.007598057" cy="314.499751188" fill="rgb(100%,0%,0%)" r="0.7" /><circle cx="282.315927714" cy="316.974760568" fill="rgb(100%,0%,0%)" r="0.7" /><circle cx="281.223952785" cy="319.74959137" fill="rgb(100%,0%,0%)" r="0.7" /><circle cx="281.152187585" cy="322.74786916" fill="rgb(100%,0%,0%)" r="0.7" /><circle cx="281.13453183" cy="325.747806401" fill="rgb(100%,0%,0%)" r="0.7" /><circle cx="281.148255331" cy="328.747765308" fill="rgb(100%,0%,0%)" r="0.7" /><circle cx="281.196198379" cy="331.747363535" fill="rgb(100%,0%,0%)" r="0.7" /><circle cx="281.28428466" cy="334.746044026" fill="rgb(100%,0%,0%)" r="0.7" /><circle cx="281.42236337" cy="337.74282111" fill="rgb(100%,0%,0%)" r="0.7" /><circle cx="281.627038591" cy="340.735747554" fill="rgb(100%,0%,0%)" r="0.7" /><circle cx="281.929098021" cy="343.720297254" fill="rgb(100%,0%,0%)" r="0.7" /><circle cx="282.397724931" cy="346.682714955" fill="rgb(100%,0%,0%)" r="0.7" /><circle cx="282.819802353" cy="349.652760854" fill="rgb(100%,0%,0%)" r="0.7" /><circle cx="283.227872419" cy="352.624884372" fill="rgb(100%,0%,0%)" r="0.7" /><circle cx="283.626864267" cy="355.598240294" fill="rgb(100%,0%,0%)" r="0.7" /><circle cx="284.017191768" cy="358.572738588" fill="rgb(100%,0%,0%)" r="0.7" /><circle cx="284.398803297" cy="361.54836178" fill="rgb(100%,0%,0%)" r="0.7" /><circle cx="284.771390286" cy="364.52513482" fill="rgb(100%,0%,0%)" r="0.7" /><circle cx="285.134442024" cy="367.503086475" fill="rgb(100%,0%,0%)" r="0.7" /><circle cx="285.487257486" cy="370.482270358" fill="rgb(100%,0%,0%)" r="0.7" /><circle cx="285.82892539" cy="373.462748531" fill="rgb(100%,0%,0%)" r="0.7" /><circle cx="286.158286282" cy="376.444613023" fill="rgb(100%,0%,0%)" r="0.7" /><circle cx="286.473863857" cy="379.427966704" fill="rgb(100%,0%,0%)" r="0.7" /><circle cx="286.773763429" cy="382.412935725" fill="rgb(100%,0%,0%)" r="0.7" /><circle cx="287.055512197" cy="385.399673583" fill="rgb(100%,0%,0%)" r="0.7" /><circle cx="287.315801817" cy="388.388351013" fill="rgb(100%,0%,0%)" r="0.7" /><circle cx="287.550059594" cy="391.379181561" fill="rgb(100%,0%,0%)" r="0.7" /><circle cx="287.7516712" cy="394.372384707" fill="rgb(100%,0%,0%)" r="0.7" /><circle cx="287.910458104" cy="397.368144607" fill="rgb(100%,0%,0%)" r="0.7" /><circle cx="287.92400647" cy="400.366405069" fill="rgb(100%,0%,0%)" r="0.7" /><circle cx="287.798544903" cy="403.363741817" fill="rgb(100%,0%,0%)" r="0.7" /><circle cx="287.631596676" cy="406.359080247" fill="rgb(100%,0%,0%)" r="0.7" /><circle cx="287.427197388" cy="409.352087678" fill="rgb(100%,0%,0%)" r="0.7" /><circle cx="287.186189565" cy="412.342380591" fill="rgb(100%,0%,0%)" r="0.7" /><circle cx="286.90808716" cy="415.329436304" fill="rgb(100%,0%,0%)" r="0.7" /><circle cx="286.591557072" cy="418.312671527" fill="rgb(100%,0%,0%)" r="0.7" /><circle cx="286.234584843" cy="421.291341718" fill="rgb(100%,0%,0%)" r="0.7" /><circle cx="285.834505273" cy="424.264513234" fill="rgb(100%,0%,0%)" r="0.7" /><circle cx="285.387954086" cy="427.231059257" fill="rgb(100%,0%,0%)" r="0.7" /><circle cx="284.890775933" cy="430.189535674" fill="rgb(100%,0%,0%)" r="0.7" /><circle cx="284.337866446" cy="433.138095506" fill="rgb(100%,0%,0%)" r="0.7" /><circle cx="283.722947102" cy="436.074334662" fill="rgb(100%,0%,0%)" r="0.7" /><circle cx="283.038245159" cy="438.995071653" fill="rgb(100%,0%,0%)" r="0.7" /><circle cx="282.274044251" cy="441.895997787" fill="rgb(100%,0%,0%)" r="0.7" /><circle cx="281.418045009" cy="444.771130817" fill="rgb(100%,0%,0%)" r="0.7" /><circle cx="280.454441882" cy="447.611941784" fill="rgb(100%,0%,0%)" r="0.7" /><circle cx="279.362595756" cy="450.405854902" fill="rgb(100%,0%,0%)" r="0.7" /><circle cx="278.11512349" cy="453.133650554" fill="rgb(100%,0%,0%)" r="0.7" /><circle cx="276.675363588" cy="455.764631731" fill="rgb(100%,0%,0%)" r="0.7" /><circle cx="274.994594036" cy="458.24781842" fill="rgb(100%,0%,0%)" r="0.7" /><circle cx="277.232109065" cy="457.419810776" fill="rgb(100%,0%,0%)" r="0.7" /><circle cx="279.971814794" cy="456.197512728" fill="rgb(100%,0%,0%)" r="0.7" /><circle cx="282.686315007" cy="455.062701131" fill="rgb(100%,0%,0%)" r="0.7" /><circle cx="284.355730354" cy="457.555300657" fill="rgb(100%,0%,0%)" r="0.7" /><circle cx="286.025145701" cy="460.047900183" fill="rgb(100%,0%,0%)" r="0.7" /><circle cx="287.694561048" cy="462.54049971" fill="rgb(100%,0%,0%)" r="0.7" /><circle cx="288.804" cy="464.197" fill="rgb(100%,0%,0%)" r="0.7" /><circle cx="301.128873578" cy="304.057524107" fill="rgb(0%,0%,100%)" r="0.7" /><circle cx="304.089707014" cy="304.518351554" fill="rgb(0%,0%,100%)" r="0.7" /><circle cx="306.946233221" cy="305.426960297" fill="rgb(0%,0%,100%)" r="0.7" /><circle cx="309.662671499" cy="306.695929512" fill="rgb(0%,0%,100%)" r="0.7" /><circle cx="312.215079561" cy="308.269256505" fill="rgb(0%,0%,100%)" r="0.7" /><circle cx="314.471820083" cy="310.22583379" fill="rgb(0%,0%,100%)" r="0.7" /><circle cx="315.222050226" cy="313.05835626" fill="rgb(0%,0%,100%)" r="0.7" /><circle cx="314.245467787" cy="315.87261962" fill="rgb(0%,0%,100%)" r="0.7" /><circle cx="312.49157454" cy="318.299979819" fill="rgb(0%,0%,100%)" r="0.7" /><circle cx="310.186941746" cy="320.181361166" fill="rgb(0%,0%,100%)" r="0.7" /><circle cx="307.870963164" cy="322.086484458" fill="rgb(0%,0%,100%)" r="0.7" /><circle cx="305.68066177" cy="324.136088443" fill="rgb(0%,0%,100%)" r="0.7" /><circle cx="303.878125324" cy="326.522224127" fill="rgb(0%,0%,100%)" r="0.7" /><circle cx="302.659715282" cy="329.259024336" fill="rgb(0%,0%,100%)" r="0.7" /><circle cx="301.868419477" cy="332.150798567" fill="rgb(0%,0%,100%)" r="0.7" /><circle cx="301.382968116" cy="335.110288286" fill="rgb(0%,0%,100%)" r="0.7" /><circle cx="301.123598143" cy="338.098513951" fill="rgb(0%,0%,100%)" r="0.7" /><circle cx="301.038252119" cy="341.096970278" fill="rgb(0%,0%,100%)" r="0.7" /><circle cx="301.092093029" cy="344.096269612" fill="rgb(0%,0%,100%)" r="0.7" /><circle cx="301.261233256" cy="347.09134345" fill="rgb(0%,0%,100%)" r="0.7" /><circle cx="301.529173249" cy="350.079234146" fill="rgb(0%,0%,100%)" r="0.7" /><circle cx="301.884959447" cy="353.057967103" fill="rgb(0%,0%,100%)" r="0.7" /><circle cx="302.322887246" cy="356.025739828" fill="rgb(0%,0%,100%)" r="0.7" /><circle cx="302.846468647" cy="358.979567311" fill="rgb(0%,0%,100%)" r="0.7" /><circle cx="303.366967824" cy="361.933729242" fill="rgb(0%,0%,100%)" r="0.7" /><circle cx="303.820761116" cy="364.8991839" fill="rgb(0%,0%,100%)" r="0.7" /><circle cx="304.225630776" cy="367.871698533" fill="rgb(0%,0%,100%)" r="0.7" /><circle cx="304.581239597" cy="370.850519755" fill="rgb(0%,0%,100%)" r="0.7" /><circle cx="304.887275425" cy="373.834832942" fill="rgb(0%,0%,100%)" r="0.7" /><circle cx="305.143460977" cy="376.82384079" fill="rgb(0%,0%,100%)" r="0.7" /><circle cx="305.34954772" cy="379.816711426" fill="rgb(0%,0%,100%)" r="0.7" /><circle cx="305.505319661" cy="382.812635922" fill="rgb(0%,0%,100%)" r="0.7" /><circle cx="305.610587539" cy="385.810749996" fill="rgb(0%,0%,100%)" r="0.7" /><circle cx="305.665192416" cy="388.810220075" fill="rgb(0%,0%,100%)" r="0.7" /><circle cx="305.669001445" cy="391.810175737" fill="rgb(0%,0%,100%)" r="0.7" /><circle cx="305.62190704" cy="394.809776873" fill="rgb(0%,0%,100%)" r="0.7" /><circle cx="305.523824871" cy="397.808137024" fill="rgb(0%,0%,100%)" r="0.7" /><circle cx="305.374691455" cy="400.804382666" fill="rgb(0%,0%,100%)" r="0.7" /><circle cx="305.174458846" cy="403.797665722" fill="rgb(0%,0%,100%)" r="0.7" /><circle cx="304.923096495" cy="406.787079669" fill="rgb(0%,0%,100%)" r="0.7" /><circle cx="304.620583423" cy="409.771737466" fill="rgb(0%,0%,100%)" r="0.7" /><circle cx="304.266900333" cy="412.750781298" fill="rgb(0%,0%,100%)" r="0.7" /><circle cx="303.862032162" cy="415.723306866" fill="rgb(0%,0%,100%)" r="0.7" /><circle cx="303.405960746" cy="418.688390676" fill="rgb(0%,0%,100%)" r="0.7" /><circle cx="302.89864533" cy="421.645160966" fill="rgb(0%,0%,100%)" r="0.7" /><circle cx="302.340035795" cy="424.592656061" fill="rgb(0%,0%,100%)" r="0.7" /><circle cx="301.730045238" cy="427.529929491" fill="rgb(0%,0%,100%)" r="0.7" /><circle cx="301.068528897" cy="430.456065521" fill="rgb(0%,0%,100%)" r="0.7" /><circle cx="300.355303117" cy="433.370011778" fill="rgb(0%,0%,100%)" r="0.7" /><circle cx="299.590088656" cy="436.270734528" fill="rgb(0%,0%,100%)" r="0.7" /><circle cx="298.772500721" cy="439.157122316" fill="rgb(0%,0%,100%)" r="0.7" /><circle cx="297.901995606" cy="442.028019548" fill="rgb(0%,0%,100%)" r="0.7" /><circle cx="296.977849863" cy="444.882085666" fill="rgb(0%,0%,100%)" r="0.7" /><circle cx="295.999046102" cy="447.717867166" fill="rgb(0%,0%,100%)" r="0.7" /><circle cx="294.964166269" cy="450.533663335" fill="rgb(0%,0%,100%)" r="0.7" /><circle cx="293.871180935" cy="453.327406724" fill="rgb(0%,0%,100%)" r="0.7" /><circle cx="292.717053337" cy="456.096444348" fill="rgb(0%,0%,100%)" r="0.7" /><circle cx="291.496904871" cy="458.837013349" fill="rgb(0%,0%,100%)" r="0.7" /><circle cx="290.201639548" cy="461.542889301" fill="rgb(0%,0%,100%)" r="0.7" /><circle cx="288.804" cy="464.197" fill="rgb(0%,0%,100%)" r="0.7" /></svg>