<?xml version="1.0" encoding="utf-8" ?>
<svg baseProfile="full" height="100%" version="1.1" width="100%" xmlns="http://www.w3.org/2000/svg" xmlns:ev="http://www.w3.org/2001/xml-events" xmlns:xlink="http://www.w3.org/1999/xlink"><defs /><circle cx="302.83353006" cy="261.841054894" fill="rgb(100%,0%,0%)" r="0.7" /><circle cx="300.151930709" cy="263.130460253" fill="rgb(100%,0%,0%)" r="0.7" /><circle cx="297.910977225" cy="265.119620198" fill="rgb(100%,0%,0%)" r="0.7" /><circle cx="295.932313745" cy="267.373228168" fill="rgb(100%,0%,0%)" r="0.7" /><circle cx="294.122936145" cy="269.765618582" fill="rgb(100%,0%,0%)" r="0.7" /><circle cx="292.433528458" cy="272.244446049" fill="rgb(100%,0%,0%)" r="0.7" /><circle cx="290.834794792" cy="274.782818338" fill="rgb(100%,0%,0%)" r="0.7" /><circle cx="289.394650289" cy="277.410407804" fill="rgb(100%,0%,0%)" r="0.7" /><circle cx="288.171312489" cy="280.149592597" fill="rgb(100%,0%,0%)" r="0.7" /><circle cx="286.991065401" cy="282.907647632" fill="rgb(100%,0%,0%)" r="0.7" /><circle cx="285.844959339" cy="285.68007853" fill="rgb(100%,0%,0%)" r="0.7" /><circle cx="284.728921505" cy="288.464749777" fill="rgb(100%,0%,0%)" r="0.7" /><circle cx="283.640520263" cy="291.26033127" fill="rgb(100%,0%,0%)" r="0.7" /><circle cx="282.578116738" cy="294.065907613" fill="rgb(100%,0%,0%)" r="0.7" /><circle cx="281.54054532" cy="296.880764156" fill="rgb(100%,0%,0%)" r="0.7" /><circle cx="280.526937903" cy="299.704327143" fill="rgb(100%,0%,0%)" r="0.7" /><circle cx="279.536614614" cy="302.53616446" fill="rgb(100%,0%,0%)" r="0.7" /><circle cx="278.569065777" cy="305.375848758" fill="rgb(100%,0%,0%)" r="0.7" /><circle cx="277.6238789" cy="308.22304128" fill="rgb(100%,0%,0%)" r="0.7" /><circle cx="276.700720438" cy="311.077463482" fill="rgb(100%,0%,0%)" r="0.7" /><circle cx="275.799330967" cy="313.938849759" fill="rgb(100%,0%,0%)" r="0.7" /><circle cx="274.919517751" cy="316.806920545" fill="rgb(100%,0%,0%)" r="0.7" /><circle cx="274.061112812" cy="319.681481813" fill="rgb(100%,0%,0%)" r="0.7" /><circle cx="273.223997353" cy="322.562319742" fill="rgb(100%,0%,0%)" r="0.7" /><circle cx="272.40808698" cy="325.449224982" fill="rgb(100%,0%,0%)" r="0.7" /><circle cx="271.613315974" cy="328.342030351" fill="rgb(100%,0%,0%)" r="0.7" /><circle cx="270.839652815" cy="331.240540634" fill="rgb(100%,0%,0%)" r="0.7" /><circle cx="270.087076734" cy="334.144605529" fill="rgb(100%,0%,0%)" r="0.7" /><circle cx="269.355591777" cy="337.054057437" fill="rgb(100%,0%,0%)" r="0.7" /><circle cx="268.64521926" cy="339.968729482" fill="rgb(100%,0%,0%)" r="0.7" /><circle cx="267.955990407" cy="342.888478117" fill="rgb(100%,0%,0%)" r="0.7" /><circle cx="267.287952512" cy="345.813151608" fill="rgb(100%,0%,0%)" r="0.7" /><circle cx="266.641165486" cy="348.74259741" fill="rgb(100%,0%,0%)" r="0.7" /><circle cx="266.113024246" cy="351.694439772" fill="rgb(100%,0%,0%)" r="0.7" /><circle cx="265.647011893" cy="354.658025176" fill="rgb(100%,0%,0%)" r="0.7" /><circle cx="265.170877526" cy="357.619998174" fill="rgb(100%,0%,0%)" r="0.7" /><circle cx="264.684200311" cy="360.580256699" fill="rgb(100%,0%,0%)" r="0.7" /><circle cx="264.185566466" cy="363.538525019" fill="rgb(100%,0%,0%)" r="0.7" /><circle cx="263.672568578" cy="366.494337147" fill="rgb(100%,0%,0%)" r="0.7" /><circle cx="263.141291972" cy="369.446914229" fill="rgb(100%,0%,0%)" r="0.7" /><circle cx="262.58500521" cy="372.39487865" fill="rgb(100%,0%,0%)" r="0.7" /><circle cx="261.990552546" cy="375.335358636" fill="rgb(100%,0%,0%)" r="0.7" /><circle cx="261.324476324" cy="378.260313015" fill="rgb(100%,0%,0%)" r="0.7" /><circle cx="260.416962145" cy="381.116121905" fill="rgb(100%,0%,0%)" r="0.7" /><circle cx="259.296738555" cy="383.899113608" fill="rgb(100%,0%,0%)" r="0.7" /><circle cx="258.153497187" cy="386.672728332" fill="rgb(100%,0%,0%)" r="0.7" /><circle cx="256.985734213" cy="389.436109105" fill="rgb(100%,0%,0%)" r="0.7" /><circle cx="255.788257637" cy="392.18673525" fill="rgb(100%,0%,0%)" r="0.7" /><circle cx="254.551257258" cy="394.91979557" fill="rgb(100%,0%,0%)" r="0.7" /><circle cx="253.255227838" cy="397.625296992" fill="rgb(100%,0%,0%)" r="0.7" /><circle cx="254.065783562" cy="397.519072674" fill="rgb(100%,0%,0%)" r="0.7" /><circle cx="256.329612449" cy="395.550550698" fill="rgb(100%,0%,0%)" r="0.7" /><circle cx="258.593441336" cy="393.582028722" fill="rgb(100%,0%,0%)" r="0.7" /><circle cx="260.857270224" cy="391.613506747" fill="rgb(100%,0%,0%)" r="0.7" /><circle cx="263.121099111" cy="389.644984771" fill="rgb(100%,0%,0%)" r="0.7" /><circle cx="265.102011472" cy="389.312096527" fill="rgb(100%,0%,0%)" r="0.7" /><circle cx="266.573103129" cy="391.926649899" fill="rgb(100%,0%,0%)" r="0.7" /><circle cx="268.044194786" cy="394.541203272" fill="rgb(100%,0%,0%)" r="0.7" /><circle cx="269.515286443" cy="397.155756644" fill="rgb(100%,0%,0%)" r="0.7" /><circle cx="270.986378099" cy="399.770310017" fill="rgb(100%,0%,0%)" r="0.7" /><circle cx="272.457469756" cy="402.384863389" fill="rgb(100%,0%,0%)" r="0.7" /><circle cx="273.876" cy="404.906" fill="rgb(100%,0%,0%)" r="0.7" /><circle cx="302.83353006" cy="261.841054894" fill="rgb(0%,0%,100%)" r="0.7" /><circle cx="305.514758764" cy="262.821572796" fill="rgb(0%,0%,100%)" r="0.7" /><circle cx="306.989559526" cy="265.376679483" fill="rgb(0%,0%,100%)" r="0.7" /><circle cx="307.102376152" cy="268.36012301" fill="rgb(0%,0%,100%)" r="0.7" /><circle cx="306.479159189" cy="271.290670011" fill="rgb(0%,0%,100%)" r="0.7" /><circle cx="305.444246633" cy="274.104664719" fill="rgb(0%,0%,100%)" r="0.7" /><circle cx="304.241837229" cy="276.850992906" fill="rgb(0%,0%,100%)" r="0.7" /><circle cx="303.24521066" cy="279.680317442" fill="rgb(0%,0%,100%)" r="0.7" /><circle cx="302.362643268" cy="282.547409096" fill="rgb(0%,0%,100%)" r="0.7" /><circle cx="301.566195394" cy="285.439667521" fill="rgb(0%,0%,100%)" r="0.7" /><circle cx="300.838068379" cy="288.349908855" fill="rgb(0%,0%,100%)" r="0.7" /><circle cx="300.166234704" cy="291.273675583" fill="rgb(0%,0%,100%)" r="0.7" /><circle cx="299.542247319" cy="294.20803757" fill="rgb(0%,0%,100%)" r="0.7" /><circle cx="298.960064989" cy="297.150982927" fill="rgb(0%,0%,100%)" r="0.7" /><circle cx="298.415412562" cy="300.101109032" fill="rgb(0%,0%,100%)" r="0.7" /><circle cx="297.905507016" cy="303.057446233" fill="rgb(0%,0%,100%)" r="0.7" /><circle cx="297.429205908" cy="306.019379844" fill="rgb(0%,0%,100%)" r="0.7" /><circle cx="296.988478525" cy="308.98681133" fill="rgb(0%,0%,100%)" r="0.7" /><circle cx="296.622412487" cy="311.964179989" fill="rgb(0%,0%,100%)" r="0.7" /><circle cx="296.269053623" cy="314.943298049" fill="rgb(0%,0%,100%)" r="0.7" /><circle cx="295.895345695" cy="317.919924844" fill="rgb(0%,0%,100%)" r="0.7" /><circle cx="295.501157527" cy="320.893900067" fill="rgb(0%,0%,100%)" r="0.7" /><circle cx="295.086347763" cy="323.865086083" fill="rgb(0%,0%,100%)" r="0.7" /><circle cx="294.65077582" cy="326.833283615" fill="rgb(0%,0%,100%)" r="0.7" /><circle cx="294.194284916" cy="329.798346892" fill="rgb(0%,0%,100%)" r="0.7" /><circle cx="293.716714673" cy="332.760088441" fill="rgb(0%,0%,100%)" r="0.7" /><circle cx="293.217894258" cy="335.718319977" fill="rgb(0%,0%,100%)" r="0.7" /><circle cx="292.697639642" cy="338.672859356" fill="rgb(0%,0%,100%)" r="0.7" /><circle cx="292.155757084" cy="341.623501424" fill="rgb(0%,0%,100%)" r="0.7" /><circle cx="291.592033646" cy="344.570060687" fill="rgb(0%,0%,100%)" r="0.7" /><circle cx="291.006248707" cy="347.512299149" fill="rgb(0%,0%,100%)" r="0.7" /><circle cx="290.398152581" cy="350.450024291" fill="rgb(0%,0%,100%)" r="0.7" /><circle cx="289.767486337" cy="353.382975301" fill="rgb(0%,0%,100%)" r="0.7" /><circle cx="289.113958528" cy="356.310920363" fill="rgb(0%,0%,100%)" r="0.7" /><circle cx="288.437253922" cy="359.233594565" fill="rgb(0%,0%,100%)" r="0.7" /><circle cx="287.737023537" cy="362.150722847" fill="rgb(0%,0%,100%)" r="0.7" /><circle cx="287.012884644" cy="365.06199381" fill="rgb(0%,0%,100%)" r="0.7" /><circle cx="286.264396437" cy="367.967125025" fill="rgb(0%,0%,100%)" r="0.7" /><circle cx="285.491083459" cy="370.865730711" fill="rgb(0%,0%,100%)" r="0.7" /><circle cx="284.692392818" cy="373.7574399" fill="rgb(0%,0%,100%)" r="0.7" /><circle cx="283.867688574" cy="376.641848505" fill="rgb(0%,0%,100%)" r="0.7" /><circle cx="283.016240016" cy="379.518479217" fill="rgb(0%,0%,100%)" r="0.7" /><circle cx="282.13718894" cy="382.386785793" fill="rgb(0%,0%,100%)" r="0.7" /><circle cx="281.229498863" cy="385.246166349" fill="rgb(0%,0%,100%)" r="0.7" /><circle cx="280.291912654" cy="388.095875573" fill="rgb(0%,0%,100%)" r="0.7" /><circle cx="279.322840345" cy="390.935033391" fill="rgb(0%,0%,100%)" r="0.7" /><circle cx="278.320215907" cy="393.762495825" fill="rgb(0%,0%,100%)" r="0.7" /><circle cx="277.281165872" cy="396.576804049" fill="rgb(0%,0%,100%)" r="0.7" /><circle cx="276.201425918" cy="399.375711408" fill="rgb(0%,0%,100%)" r="0.7" /><circle cx="275.073469055" cy="402.15554968" fill="rgb(0%,0%,100%)" r="0.7" /><circle cx="273.876" cy="404.906" fill="rgb(0%,0%,100%)" r="0.7" /></svg>