<?xml version="1.0" encoding="utf-8" ?>
<svg baseProfile="full" height="100%" version="1.1" width="100%" xmlns="http://www.w3.org/2000/svg" xmlns:ev="http://www.w3.org/2001/xml-events" xmlns:xlink="http://www.w3.org/1999/xlink"><defs /><circle cx="387.358893382" cy="359.182672506" fill="rgb(100%,0%,0%)" r="0.7" /><circle cx="384.412723844" cy="359.46793935" fill="rgb(100%,0%,0%)" r="0.7" /><circle cx="382.014084577" cy="361.22514959" fill="rgb(100%,0%,0%)" r="0.7" /><circle cx="380.357772145" cy="363.716686953" fill="rgb(100%,0%,0%)" r="0.7" /><circle cx="379.331248993" cy="366.504476037" fill="rgb(100%,0%,0%)" r="0.7" /><circle cx="376.863399396" cy="368.018493586" fill="rgb(100%,0%,0%)" r="0.7" /><circle cx="373.913247271" cy="368.502033154" fill="rgb(100%,0%,0%)" r="0.7" /><circle cx="371.108862712" cy="369.558994271" fill="rgb(100%,0%,0%)" r="0.7" /><circle cx="368.464747296" cy="370.973060549" fill="rgb(100%,0%,0%)" r="0.7" /><circle cx="365.96845813" cy="372.635344388" fill="rgb(100%,0%,0%)" r="0.7" /><circle cx="363.60489997" cy="374.481996866" fill="rgb(100%,0%,0%)" r="0.7" /><circle cx="361.359714295" cy="376.47116856" fill="rgb(100%,0%,0%)" r="0.7" /><circle cx="359.220175401" cy="378.573702937" fill="rgb(100%,0%,0%)" r="0.7" /><circle cx="357.175237972" cy="380.768468251" fill="rgb(100%,0%,0%)" r="0.7" /><circle cx="355.012555662" cy="382.84549935" fill="rgb(100%,0%,0%)" r="0.7" /><circle cx="352.998818128" cy="385.068582301" fill="rgb(100%,0%,0%)" r="0.7" /><circle cx="351.114112636" cy="387.402204983" fill="rgb(100%,0%,0%)" r="0.7" /><circle cx="349.351338986" cy="389.829292263" fill="rgb(100%,0%,0%)" r="0.7" /><circle cx="347.708380208" cy="392.339073834" fill="rgb(100%,0%,0%)" r="0.7" /><circle cx="346.185085936" cy="394.923248609" fill="rgb(100%,0%,0%)" r="0.7" /><circle cx="344.78213759" cy="397.574697008" fill="rgb(100%,0%,0%)" r="0.7" /><circle cx="343.500518658" cy="400.286876006" fill="rgb(100%,0%,0%)" r="0.7" /><circle cx="342.341190928" cy="403.053552467" fill="rgb(100%,0%,0%)" r="0.7" /><circle cx="341.304905554" cy="405.868637084" fill="rgb(100%,0%,0%)" r="0.7" /><circle cx="340.392063305" cy="408.726132202" fill="rgb(100%,0%,0%)" r="0.7" /><circle cx="339.602613961" cy="411.620164406" fill="rgb(100%,0%,0%)" r="0.7" /><circle cx="338.936023968" cy="414.544943869" fill="rgb(100%,0%,0%)" r="0.7" /><circle cx="338.391239039" cy="417.49485277" fill="rgb(100%,0%,0%)" r="0.7" /><circle cx="337.966695514" cy="420.464455814" fill="rgb(100%,0%,0%)" r="0.7" /><circle cx="337.660338374" cy="423.448576201" fill="rgb(100%,0%,0%)" r="0.7" /><circle cx="337.469664388" cy="426.442329759" fill="rgb(100%,0%,0%)" r="0.7" /><circle cx="337.311720877" cy="429.436930242" fill="rgb(100%,0%,0%)" r="0.7" /><circle cx="337.384954753" cy="432.435184356" fill="rgb(100%,0%,0%)" r="0.7" /><circle cx="337.652550958" cy="435.422883418" fill="rgb(100%,0%,0%)" r="0.7" /><circle cx="338.053932011" cy="438.39571874" fill="rgb(100%,0%,0%)" r="0.7" /><circle cx="338.558968212" cy="441.352785137" fill="rgb(100%,0%,0%)" r="0.7" /><circle cx="339.148909894" cy="444.294114955" fill="rgb(100%,0%,0%)" r="0.7" /><circle cx="339.810782627" cy="447.220120363" fill="rgb(100%,0%,0%)" r="0.7" /><circle cx="340.535006913" cy="450.131340066" fill="rgb(100%,0%,0%)" r="0.7" /><circle cx="341.314190644" cy="453.028342792" fill="rgb(100%,0%,0%)" r="0.7" /><circle cx="342.142448739" cy="455.911707292" fill="rgb(100%,0%,0%)" r="0.7" /><circle cx="343.014982054" cy="458.782003803" fill="rgb(100%,0%,0%)" r="0.7" /><circle cx="343.927783573" cy="461.639727782" fill="rgb(100%,0%,0%)" r="0.7" /><circle cx="344.877487745" cy="464.485417321" fill="rgb(100%,0%,0%)" r="0.7" /><circle cx="345.670893586" cy="465.839801608" fill="rgb(100%,0%,0%)" r="0.7" /><circle cx="387.358893382" cy="359.182672506" fill="rgb(0%,0%,100%)" r="0.7" /><circle cx="390.145016312" cy="360.252830274" fill="rgb(0%,0%,100%)" r="0.7" /><circle cx="392.01047088" cy="362.51012598" fill="rgb(0%,0%,100%)" r="0.7" /><circle cx="392.599627911" cy="365.441325193" fill="rgb(0%,0%,100%)" r="0.7" /><circle cx="392.606004932" cy="368.439122027" fill="rgb(0%,0%,100%)" r="0.7" /><circle cx="392.305135349" cy="371.423207605" fill="rgb(0%,0%,100%)" r="0.7" /><circle cx="391.806925227" cy="374.381155423" fill="rgb(0%,0%,100%)" r="0.7" /><circle cx="391.160967673" cy="377.310519762" fill="rgb(0%,0%,100%)" r="0.7" /><circle cx="390.248722273" cy="380.153851509" fill="rgb(0%,0%,100%)" r="0.7" /><circle cx="388.777048691" cy="382.76782612" fill="rgb(0%,0%,100%)" r="0.7" /><circle cx="387.177252041" cy="385.305138119" fill="rgb(0%,0%,100%)" r="0.7" /><circle cx="385.383687031" cy="387.708316266" fill="rgb(0%,0%,100%)" r="0.7" /><circle cx="383.242423805" cy="389.799501639" fill="rgb(0%,0%,100%)" r="0.7" /><circle cx="380.448468473" cy="390.545407731" fill="rgb(0%,0%,100%)" r="0.7" /><circle cx="377.56272384" cy="391.333589169" fill="rgb(0%,0%,100%)" r="0.7" /><circle cx="375.191716956" cy="393.11165408" fill="rgb(0%,0%,100%)" r="0.7" /><circle cx="373.372227296" cy="395.493570317" fill="rgb(0%,0%,100%)" r="0.7" /><circle cx="371.617500113" cy="397.926589901" fill="rgb(0%,0%,100%)" r="0.7" /><circle cx="369.974704731" cy="400.436475241" fill="rgb(0%,0%,100%)" r="0.7" /><circle cx="368.456268446" cy="403.023456453" fill="rgb(0%,0%,100%)" r="0.7" /><circle cx="367.075657353" cy="405.686469913" fill="rgb(0%,0%,100%)" r="0.7" /><circle cx="365.847128629" cy="408.422924423" fill="rgb(0%,0%,100%)" r="0.7" /><circle cx="364.785465235" cy="411.22827844" fill="rgb(0%,0%,100%)" r="0.7" /><circle cx="363.905515484" cy="414.095752717" fill="rgb(0%,0%,100%)" r="0.7" /><circle cx="363.221618999" cy="417.016143197" fill="rgb(0%,0%,100%)" r="0.7" /><circle cx="362.746991044" cy="419.977688498" fill="rgb(0%,0%,100%)" r="0.7" /><circle cx="362.493111403" cy="422.966208718" fill="rgb(0%,0%,100%)" r="0.7" /><circle cx="362.469312271" cy="425.965356711" fill="rgb(0%,0%,100%)" r="0.7" /><circle cx="362.682742937" cy="428.956942243" fill="rgb(0%,0%,100%)" r="0.7" /><circle cx="363.139015654" cy="431.921177545" fill="rgb(0%,0%,100%)" r="0.7" /><circle cx="363.844147914" cy="434.836164801" fill="rgb(0%,0%,100%)" r="0.7" /><circle cx="364.810123072" cy="437.67518228" fill="rgb(0%,0%,100%)" r="0.7" /><circle cx="366.087" cy="440.387" fill="rgb(0%,0%,100%)" r="0.7" /><circle cx="365.463562856" cy="440.566060349" fill="rgb(0%,0%,100%)" r="0.7" /><circle cx="362.580136635" cy="441.394222912" fill="rgb(0%,0%,100%)" r="0.7" /><circle cx="359.696710415" cy="442.222385476" fill="rgb(0%,0%,100%)" r="0.7" /><circle cx="356.813284195" cy="443.05054804" fill="rgb(0%,0%,100%)" r="0.7" /><circle cx="353.929857974" cy="443.878710604" fill="rgb(0%,0%,100%)" r="0.7" /><circle cx="351.046431754" cy="444.706873168" fill="rgb(0%,0%,100%)" r="0.7" /><circle cx="348.163005534" cy="445.535035732" fill="rgb(0%,0%,100%)" r="0.7" /><circle cx="347.155019197" cy="447.901090083" fill="rgb(0%,0%,100%)" r="0.7" /><circle cx="346.907664928" cy="450.890875337" fill="rgb(0%,0%,100%)" r="0.7" /><circle cx="346.66031066" cy="453.880660591" fill="rgb(0%,0%,100%)" r="0.7" /><circle cx="346.412956391" cy="456.870445845" fill="rgb(0%,0%,100%)" r="0.7" /><circle cx="346.165602123" cy="459.8602311" fill="rgb(0%,0%,100%)" r="0.7" /><circle cx="345.918247855" cy="462.850016354" fill="rgb(0%,0%,100%)" r="0.7" /><circle cx="345.670893586" cy="465.839801608" fill="rgb(0%,0%,100%)" r="0.7" /></svg>