<?xml version="1.0" encoding="utf-8" ?>
<svg baseProfile="full" height="100%" version="1.1" width="100%" xmlns="http://www.w3.org/2000/svg" xmlns:ev="http://www.w3.org/2001/xml-events" xmlns:xlink="http://www.w3.org/1999/xlink"><defs /><circle cx="258.537930709" cy="285.019895867" fill="rgb(100%,0%,0%)" r="0.7" /><circle cx="255.550553162" cy="285.127890157" fill="rgb(100%,0%,0%)" r="0.7" /><circle cx="252.638911324" cy="285.840524112" fill="rgb(100%,0%,0%)" r="0.7" /><circle cx="249.953369917" cy="287.174402554" fill="rgb(100%,0%,0%)" r="0.7" /><circle cx="247.360016423" cy="288.681723746" fill="rgb(100%,0%,0%)" r="0.7" /><circle cx="244.860853579" cy="290.340439002" fill="rgb(100%,0%,0%)" r="0.7" /><circle cx="242.476656357" cy="292.16028594" fill="rgb(100%,0%,0%)" r="0.7" /><circle cx="240.241256998" cy="294.159666873" fill="rgb(100%,0%,0%)" r="0.7" /><circle cx="238.20652914" cy="296.362264084" fill="rgb(100%,0%,0%)" r="0.7" /><circle cx="236.450513572" cy="298.791824507" fill="rgb(100%,0%,0%)" r="0.7" /><circle cx="235.084995967" cy="301.458916073" fill="rgb(100%,0%,0%)" r="0.7" /><circle cx="234.248702238" cy="304.334349344" fill="rgb(100%,0%,0%)" r="0.7" /><circle cx="234.061241095" cy="307.321927891" fill="rgb(100%,0%,0%)" r="0.7" /><circle cx="234.547926175" cy="310.276124614" fill="rgb(100%,0%,0%)" r="0.7" /><circle cx="235.58330676" cy="313.089563411" fill="rgb(100%,0%,0%)" r="0.7" /><circle cx="236.697311114" cy="315.875060548" fill="rgb(100%,0%,0%)" r="0.7" /><circle cx="237.811315468" cy="318.660557685" fill="rgb(100%,0%,0%)" r="0.7" /><circle cx="238.925319821" cy="321.446054822" fill="rgb(100%,0%,0%)" r="0.7" /><circle cx="240.087127938" cy="324.21119186" fill="rgb(100%,0%,0%)" r="0.7" /><circle cx="241.118370399" cy="327.027712787" fill="rgb(100%,0%,0%)" r="0.7" /><circle cx="241.967035435" cy="329.904702071" fill="rgb(100%,0%,0%)" r="0.7" /><circle cx="242.647795759" cy="332.826032461" fill="rgb(100%,0%,0%)" r="0.7" /><circle cx="243.163454095" cy="335.780984193" fill="rgb(100%,0%,0%)" r="0.7" /><circle cx="243.512823799" cy="338.760178322" fill="rgb(100%,0%,0%)" r="0.7" /><circle cx="243.693111074" cy="341.754344845" fill="rgb(100%,0%,0%)" r="0.7" /><circle cx="243.701090798" cy="344.753917335" fill="rgb(100%,0%,0%)" r="0.7" /><circle cx="243.533857628" cy="347.748816897" fill="rgb(100%,0%,0%)" r="0.7" /><circle cx="243.189392023" cy="350.728527104" fill="rgb(100%,0%,0%)" r="0.7" /><circle cx="242.6669958" cy="353.68223311" fill="rgb(100%,0%,0%)" r="0.7" /><circle cx="241.967602377" cy="356.599103543" fill="rgb(100%,0%,0%)" r="0.7" /><circle cx="241.093956875" cy="359.46860277" fill="rgb(100%,0%,0%)" r="0.7" /><circle cx="240.050637882" cy="362.280874031" fill="rgb(100%,0%,0%)" r="0.7" /><circle cx="238.84395793" cy="365.027028336" fill="rgb(100%,0%,0%)" r="0.7" /><circle cx="240.331422457" cy="364.463603206" fill="rgb(100%,0%,0%)" r="0.7" /><circle cx="242.798030332" cy="362.75601848" fill="rgb(100%,0%,0%)" r="0.7" /><circle cx="245.264638206" cy="361.048433755" fill="rgb(100%,0%,0%)" r="0.7" /><circle cx="247.774672916" cy="360.261636988" fill="rgb(100%,0%,0%)" r="0.7" /><circle cx="250.391043196" cy="361.7294948" fill="rgb(100%,0%,0%)" r="0.7" /><circle cx="253.007413476" cy="363.197352613" fill="rgb(100%,0%,0%)" r="0.7" /><circle cx="255.623783756" cy="364.665210425" fill="rgb(100%,0%,0%)" r="0.7" /><circle cx="258.240154037" cy="366.133068237" fill="rgb(100%,0%,0%)" r="0.7" /><circle cx="260.436" cy="367.365" fill="rgb(100%,0%,0%)" r="0.7" /><circle cx="258.537930709" cy="285.019895867" fill="rgb(0%,0%,100%)" r="0.7" /><circle cx="261.204999679" cy="286.260017006" fill="rgb(0%,0%,100%)" r="0.7" /><circle cx="262.375914422" cy="288.96783479" fill="rgb(0%,0%,100%)" r="0.7" /><circle cx="262.317672675" cy="291.958391973" fill="rgb(0%,0%,100%)" r="0.7" /><circle cx="261.692848173" cy="294.890295358" fill="rgb(0%,0%,100%)" r="0.7" /><circle cx="260.758909111" cy="297.740268537" fill="rgb(0%,0%,100%)" r="0.7" /><circle cx="259.617037825" cy="300.513880093" fill="rgb(0%,0%,100%)" r="0.7" /><circle cx="258.388561482" cy="303.24891251" fill="rgb(0%,0%,100%)" r="0.7" /><circle cx="257.524606749" cy="306.119529686" fill="rgb(0%,0%,100%)" r="0.7" /><circle cx="257.052896721" cy="309.079880524" fill="rgb(0%,0%,100%)" r="0.7" /><circle cx="256.987248407" cy="312.076845322" fill="rgb(0%,0%,100%)" r="0.7" /><circle cx="257.329321002" cy="315.05492321" fill="rgb(0%,0%,100%)" r="0.7" /><circle cx="258.089894877" cy="317.953925413" fill="rgb(0%,0%,100%)" r="0.7" /><circle cx="259.430082539" cy="320.630477912" fill="rgb(0%,0%,100%)" r="0.7" /><circle cx="260.728545601" cy="323.334138472" fill="rgb(0%,0%,100%)" r="0.7" /><circle cx="261.825024779" cy="326.125889423" fill="rgb(0%,0%,100%)" r="0.7" /><circle cx="262.723712814" cy="328.987513413" fill="rgb(0%,0%,100%)" r="0.7" /><circle cx="263.431865284" cy="331.902210668" fill="rgb(0%,0%,100%)" r="0.7" /><circle cx="263.958795279" cy="334.855121262" fill="rgb(0%,0%,100%)" r="0.7" /><circle cx="264.314940018" cy="337.833518633" fill="rgb(0%,0%,100%)" r="0.7" /><circle cx="264.511089672" cy="340.826766162" fill="rgb(0%,0%,100%)" r="0.7" /><circle cx="264.55780005" cy="343.826113968" fill="rgb(0%,0%,100%)" r="0.7" /><circle cx="264.464971052" cy="346.824422869" fill="rgb(0%,0%,100%)" r="0.7" /><circle cx="264.241544811" cy="349.815864653" fill="rgb(0%,0%,100%)" r="0.7" /><circle cx="263.895264467" cy="352.795617961" fill="rgb(0%,0%,100%)" r="0.7" /><circle cx="263.432424732" cy="355.759512611" fill="rgb(0%,0%,100%)" r="0.7" /><circle cx="262.857469618" cy="358.703714254" fill="rgb(0%,0%,100%)" r="0.7" /><circle cx="262.172131511" cy="361.624209914" fill="rgb(0%,0%,100%)" r="0.7" /><circle cx="261.372965492" cy="364.515594173" fill="rgb(0%,0%,100%)" r="0.7" /><circle cx="260.436" cy="367.365" fill="rgb(0%,0%,100%)" r="0.7" /></svg>