<?xml version="1.0" encoding="utf-8" ?>
<svg baseProfile="full" height="100%" version="1.1" width="100%" xmlns="http://www.w3.org/2000/svg" xmlns:ev="http://www.w3.org/2001/xml-events" xmlns:xlink="http://www.w3.org/1999/xlink"><defs /><circle cx="299.882936378" cy="310.400514702" fill="rgb(100%,0%,0%)" r="0.7" /><circle cx="296.915153888" cy="310.782458661" fill="rgb(100%,0%,0%)" r="0.7" /><circle cx="294.086704466" cy="311.770410341" fill="rgb(100%,0%,0%)" r="0.7" /><circle cx="291.450436186" cy="313.196836855" fill="rgb(100%,0%,0%)" r="0.7" /><circle cx="289.020611334" cy="314.953416805" fill="rgb(100%,0%,0%)" r="0.7" /><circle cx="286.791887952" cy="316.959830568" fill="rgb(100%,0%,0%)" r="0.7" /><circle cx="284.749838575" cy="319.156450515" fill="rgb(100%,0%,0%)" r="0.7" /><circle cx="282.876975637" cy="321.499274438" fill="rgb(100%,0%,0%)" r="0.7" /><circle cx="281.155750074" cy="323.955872246" fill="rgb(100%,0%,0%)" r="0.7" /><circle cx="279.59092229" cy="326.514688854" fill="rgb(100%,0%,0%)" r="0.7" /><circle cx="278.127213364" cy="329.133294766" fill="rgb(100%,0%,0%)" r="0.7" /><circle cx="276.719674416" cy="331.782547091" fill="rgb(100%,0%,0%)" r="0.7" /><circle cx="275.36269926" cy="334.458075233" fill="rgb(100%,0%,0%)" r="0.7" /><circle cx="274.054699381" cy="337.157868441" fill="rgb(100%,0%,0%)" r="0.7" /><circle cx="272.795704733" cy="339.88085669" fill="rgb(100%,0%,0%)" r="0.7" /><circle cx="271.586712993" cy="342.626408268" fill="rgb(100%,0%,0%)" r="0.7" /><circle cx="270.429413791" cy="345.394158285" fill="rgb(100%,0%,0%)" r="0.7" /><circle cx="269.326097043" cy="348.183853283" fill="rgb(100%,0%,0%)" r="0.7" /><circle cx="268.279586431" cy="350.995341568" fill="rgb(100%,0%,0%)" r="0.7" /><circle cx="267.293247965" cy="353.828498418" fill="rgb(100%,0%,0%)" r="0.7" /><circle cx="266.371019763" cy="356.683161295" fill="rgb(100%,0%,0%)" r="0.7" /><circle cx="265.517450659" cy="359.559090821" fill="rgb(100%,0%,0%)" r="0.7" /><circle cx="264.73776019" cy="362.455909386" fill="rgb(100%,0%,0%)" r="0.7" /><circle cx="264.037910355" cy="365.373032679" fill="rgb(100%,0%,0%)" r="0.7" /><circle cx="263.424691439" cy="368.309571484" fill="rgb(100%,0%,0%)" r="0.7" /><circle cx="262.905812797" cy="371.264217661" fill="rgb(100%,0%,0%)" r="0.7" /><circle cx="262.489996327" cy="374.235095472" fill="rgb(100%,0%,0%)" r="0.7" /><circle cx="262.187062747" cy="377.219565124" fill="rgb(100%,0%,0%)" r="0.7" /><circle cx="262.007992012" cy="380.21398139" fill="rgb(100%,0%,0%)" r="0.7" /><circle cx="261.964933148" cy="383.213391183" fill="rgb(100%,0%,0%)" r="0.7" /><circle cx="262.771747374" cy="384.149806521" fill="rgb(100%,0%,0%)" r="0.7" /><circle cx="299.882936378" cy="310.400514702" fill="rgb(0%,0%,100%)" r="0.7" /><circle cx="302.880259551" cy="310.47059063" fill="rgb(0%,0%,100%)" r="0.7" /><circle cx="305.857323308" cy="310.822408885" fill="rgb(0%,0%,100%)" r="0.7" /><circle cx="308.747340925" cy="311.614162801" fill="rgb(0%,0%,100%)" r="0.7" /><circle cx="311.441217589" cy="312.92279208" fill="rgb(0%,0%,100%)" r="0.7" /><circle cx="313.794053465" cy="314.773853489" fill="rgb(0%,0%,100%)" r="0.7" /><circle cx="315.671279138" cy="317.10579929" fill="rgb(0%,0%,100%)" r="0.7" /><circle cx="316.996209039" cy="319.791041519" fill="rgb(0%,0%,100%)" r="0.7" /><circle cx="317.716211453" cy="322.696887388" fill="rgb(0%,0%,100%)" r="0.7" /><circle cx="317.781864743" cy="325.680567653" fill="rgb(0%,0%,100%)" r="0.7" /><circle cx="316.544372748" cy="328.374159072" fill="rgb(0%,0%,100%)" r="0.7" /><circle cx="314.148770364" cy="330.140520109" fill="rgb(0%,0%,100%)" r="0.7" /><circle cx="311.286682928" cy="331.011286971" fill="rgb(0%,0%,100%)" r="0.7" /><circle cx="308.313548793" cy="331.356866143" fill="rgb(0%,0%,100%)" r="0.7" /><circle cx="305.51899263" cy="332.434780707" fill="rgb(0%,0%,100%)" r="0.7" /><circle cx="302.88747734" cy="333.873229243" fill="rgb(0%,0%,100%)" r="0.7" /><circle cx="300.365245919" cy="335.496733179" fill="rgb(0%,0%,100%)" r="0.7" /><circle cx="297.995492795" cy="337.323172978" fill="rgb(0%,0%,100%)" r="0.7" /><circle cx="296.330381479" cy="339.813248049" fill="rgb(0%,0%,100%)" r="0.7" /><circle cx="294.936872008" cy="342.469471806" fill="rgb(0%,0%,100%)" r="0.7" /><circle cx="293.659566622" cy="345.183828251" fill="rgb(0%,0%,100%)" r="0.7" /><circle cx="292.45285948" cy="347.930378511" fill="rgb(0%,0%,100%)" r="0.7" /><circle cx="291.296663128" cy="350.698595751" fill="rgb(0%,0%,100%)" r="0.7" /><circle cx="290.181380944" cy="353.483556164" fill="rgb(0%,0%,100%)" r="0.7" /><circle cx="289.114123195" cy="356.287147197" fill="rgb(0%,0%,100%)" r="0.7" /><circle cx="288.168111937" cy="359.13390393" fill="rgb(0%,0%,100%)" r="0.7" /><circle cx="287.336960637" cy="362.016218583" fill="rgb(0%,0%,100%)" r="0.7" /><circle cx="286.64086536" cy="364.934025532" fill="rgb(0%,0%,100%)" r="0.7" /><circle cx="286.106006768" cy="367.885507074" fill="rgb(0%,0%,100%)" r="0.7" /><circle cx="285.76710471" cy="370.865629676" fill="rgb(0%,0%,100%)" r="0.7" /><circle cx="285.671584727" cy="373.863080376" fill="rgb(0%,0%,100%)" r="0.7" /><circle cx="285.886919909" cy="376.853582837" fill="rgb(0%,0%,100%)" r="0.7" /><circle cx="286.51658111" cy="379.783251046" fill="rgb(0%,0%,100%)" r="0.7" /><circle cx="287.777" cy="382.491" fill="rgb(0%,0%,100%)" r="0.7" /><circle cx="287.528837108" cy="382.393898883" fill="rgb(0%,0%,100%)" r="0.7" /><circle cx="284.735085459" cy="381.300760408" fill="rgb(0%,0%,100%)" r="0.7" /><circle cx="281.941333811" cy="380.207621933" fill="rgb(0%,0%,100%)" r="0.7" /><circle cx="279.147582162" cy="379.114483457" fill="rgb(0%,0%,100%)" r="0.7" /><circle cx="276.353830513" cy="378.021344982" fill="rgb(0%,0%,100%)" r="0.7" /><circle cx="273.560078865" cy="376.928206507" fill="rgb(0%,0%,100%)" r="0.7" /><circle cx="270.766327216" cy="375.835068032" fill="rgb(0%,0%,100%)" r="0.7" /><circle cx="268.614986402" cy="377.304621522" fill="rgb(0%,0%,100%)" r="0.7" /><circle cx="266.667240059" cy="379.586349855" fill="rgb(0%,0%,100%)" r="0.7" /><circle cx="264.719493717" cy="381.868078188" fill="rgb(0%,0%,100%)" r="0.7" /><circle cx="262.771747374" cy="384.149806521" fill="rgb(0%,0%,100%)" r="0.7" /></svg>