<?xml version="1.0" encoding="utf-8" ?>
<svg baseProfile="full" height="100%" version="1.1" width="100%" xmlns="http://www.w3.org/2000/svg" xmlns:ev="http://www.w3.org/2001/xml-events" xmlns:xlink="http://www.w3.org/1999/xlink"><defs /><circle cx="245.6892537" cy="339.337924006" fill="rgb(100%,0%,0%)" r="0.7" /><circle cx="243.213373112" cy="340.912050013" fill="rgb(100%,0%,0%)" r="0.7" /><circle cx="241.61207271" cy="343.437654907" fill="rgb(100%,0%,0%)" r="0.7" /><circle cx="240.413836251" cy="346.186594813" fill="rgb(100%,0%,0%)" r="0.7" /><circle cx="239.527966198" cy="349.050858848" fill="rgb(100%,0%,0%)" r="0.7" /><circle cx="239.033637004" cy="352.007129781" fill="rgb(100%,0%,0%)" r="0.7" /><circle cx="239.010808411" cy="355.003471884" fill="rgb(100%,0%,0%)" r="0.7" /><circle cx="239.515644315" cy="357.956433405" fill="rgb(100%,0%,0%)" r="0.7" /><circle cx="240.553910795" cy="360.766526046" fill="rgb(100%,0%,0%)" r="0.7" /><circle cx="242.076336153" cy="363.347188623" fill="rgb(100%,0%,0%)" r="0.7" /><circle cx="244.003414229" cy="365.642316422" fill="rgb(100%,0%,0%)" r="0.7" /><circle cx="246.261254417" cy="367.613176052" fill="rgb(100%,0%,0%)" r="0.7" /><circle cx="248.802895729" cy="369.20152352" fill="rgb(100%,0%,0%)" r="0.7" /><circle cx="251.121897385" cy="371.096342579" fill="rgb(100%,0%,0%)" r="0.7" /><circle cx="253.014196688" cy="373.418122154" fill="rgb(100%,0%,0%)" r="0.7" /><circle cx="254.44878682" cy="376.048603914" fill="rgb(100%,0%,0%)" r="0.7" /><circle cx="255.436899652" cy="378.878041421" fill="rgb(100%,0%,0%)" r="0.7" /><circle cx="255.966" cy="381.827" fill="rgb(100%,0%,0%)" r="0.7" /><circle cx="245.6892537" cy="339.337924006" fill="rgb(0%,0%,100%)" r="0.7" /><circle cx="248.246350613" cy="340.643332422" fill="rgb(0%,0%,100%)" r="0.7" /><circle cx="249.051688349" cy="343.45904305" fill="rgb(0%,0%,100%)" r="0.7" /><circle cx="249.354923344" cy="346.443396291" fill="rgb(0%,0%,100%)" r="0.7" /><circle cx="249.505363531" cy="349.439225726" fill="rgb(0%,0%,100%)" r="0.7" /><circle cx="249.410652126" cy="352.428942183" fill="rgb(0%,0%,100%)" r="0.7" /><circle cx="250.121352523" cy="355.331605896" fill="rgb(0%,0%,100%)" r="0.7" /><circle cx="251.60364129" cy="357.930752413" fill="rgb(0%,0%,100%)" r="0.7" /><circle cx="253.625771611" cy="360.140395096" fill="rgb(0%,0%,100%)" r="0.7" /><circle cx="255.690216378" cy="362.31599984" fill="rgb(0%,0%,100%)" r="0.7" /><circle cx="257.607722785" cy="364.622599345" fill="rgb(0%,0%,100%)" r="0.7" /><circle cx="259.376712172" cy="367.044880069" fill="rgb(0%,0%,100%)" r="0.7" /><circle cx="260.969865459" cy="369.586033497" fill="rgb(0%,0%,100%)" r="0.7" /><circle cx="262.341886019" cy="372.252670947" fill="rgb(0%,0%,100%)" r="0.7" /><circle cx="263.424422041" cy="375.048652048" fill="rgb(0%,0%,100%)" r="0.7" /><circle cx="264.119068733" cy="377.964096692" fill="rgb(0%,0%,100%)" r="0.7" /><circle cx="262.468431936" cy="377.354010415" fill="rgb(0%,0%,100%)" r="0.7" /><circle cx="260.109318281" cy="375.500747681" fill="rgb(0%,0%,100%)" r="0.7" /><circle cx="257.750204626" cy="373.647484946" fill="rgb(0%,0%,100%)" r="0.7" /><circle cx="256.757993947" cy="375.081979709" fill="rgb(0%,0%,100%)" r="0.7" /><circle cx="256.408140266" cy="378.061510277" fill="rgb(0%,0%,100%)" r="0.7" /><circle cx="256.058286586" cy="381.041040844" fill="rgb(0%,0%,100%)" r="0.7" /><circle cx="255.966" cy="381.827" fill="rgb(0%,0%,100%)" r="0.7" /></svg>