<?xml version="1.0" encoding="utf-8" ?>
<svg baseProfile="full" height="100%" version="1.1" width="100%" xmlns="http://www.w3.org/2000/svg" xmlns:ev="http://www.w3.org/2001/xml-events" xmlns:xlink="http://www.w3.org/1999/xlink"><defs /><circle cx="277.100987254" cy="212.413209247" fill="rgb(100%,0%,0%)" r="0.7" /><circle cx="274.12004781" cy="212.735609885" fill="rgb(100%,0%,0%)" r="0.7" /><circle cx="271.186045118" cy="213.356661296" fill="rgb(100%,0%,0%)" r="0.7" /><circle cx="268.312707693" cy="214.21665027" fill="rgb(100%,0%,0%)" r="0.7" /><circle cx="265.507953014" cy="215.279624711" fill="rgb(100%,0%,0%)" r="0.7" /><circle cx="262.776442431" cy="216.519030748" fill="rgb(100%,0%,0%)" r="0.7" /><circle cx="260.12065481" cy="217.913517458" fill="rgb(100%,0%,0%)" r="0.7" /><circle cx="257.54150667" cy="219.445199157" fill="rgb(100%,0%,0%)" r="0.7" /><circle cx="255.03870554" cy="221.098822295" fill="rgb(100%,0%,0%)" r="0.7" /><circle cx="252.611205904" cy="222.861156851" fill="rgb(100%,0%,0%)" r="0.7" /><circle cx="250.257310071" cy="224.720733852" fill="rgb(100%,0%,0%)" r="0.7" /><circle cx="247.974963674" cy="226.667506071" fill="rgb(100%,0%,0%)" r="0.7" /><circle cx="245.761850639" cy="228.692669853" fill="rgb(100%,0%,0%)" r="0.7" /><circle cx="243.615506577" cy="230.788487757" fill="rgb(100%,0%,0%)" r="0.7" /><circle cx="241.533387785" cy="232.948154154" fill="rgb(100%,0%,0%)" r="0.7" /><circle cx="239.512953238" cy="235.165647423" fill="rgb(100%,0%,0%)" r="0.7" /><circle cx="237.494807433" cy="237.384243062" fill="rgb(100%,0%,0%)" r="0.7" /><circle cx="235.507117951" cy="239.630931436" fill="rgb(100%,0%,0%)" r="0.7" /><circle cx="233.606902417" cy="241.952198927" fill="rgb(100%,0%,0%)" r="0.7" /><circle cx="231.78542784" cy="244.33578554" fill="rgb(100%,0%,0%)" r="0.7" /><circle cx="230.040718941" cy="246.776119903" fill="rgb(100%,0%,0%)" r="0.7" /><circle cx="228.373300414" cy="249.269914907" fill="rgb(100%,0%,0%)" r="0.7" /><circle cx="226.785096776" cy="251.814876789" fill="rgb(100%,0%,0%)" r="0.7" /><circle cx="225.278934222" cy="254.409235865" fill="rgb(100%,0%,0%)" r="0.7" /><circle cx="223.858343051" cy="257.051413839" fill="rgb(100%,0%,0%)" r="0.7" /><circle cx="222.527408371" cy="259.739863596" fill="rgb(100%,0%,0%)" r="0.7" /><circle cx="221.290685543" cy="262.472914182" fill="rgb(100%,0%,0%)" r="0.7" /><circle cx="220.153107559" cy="265.248685824" fill="rgb(100%,0%,0%)" r="0.7" /><circle cx="219.119917347" cy="268.064966585" fill="rgb(100%,0%,0%)" r="0.7" /><circle cx="218.196572413" cy="270.919138375" fill="rgb(100%,0%,0%)" r="0.7" /><circle cx="217.388646464" cy="273.80807876" fill="rgb(100%,0%,0%)" r="0.7" /><circle cx="216.701692837" cy="276.728138896" fill="rgb(100%,0%,0%)" r="0.7" /><circle cx="216.141112596" cy="279.675056788" fill="rgb(100%,0%,0%)" r="0.7" /><circle cx="215.711985869" cy="282.64395153" fill="rgb(100%,0%,0%)" r="0.7" /><circle cx="215.447774356" cy="285.630646654" fill="rgb(100%,0%,0%)" r="0.7" /><circle cx="215.451701127" cy="288.630598248" fill="rgb(100%,0%,0%)" r="0.7" /><circle cx="215.509912865" cy="291.629997382" fill="rgb(100%,0%,0%)" r="0.7" /><circle cx="215.616844706" cy="294.628065412" fill="rgb(100%,0%,0%)" r="0.7" /><circle cx="215.773303625" cy="297.623940889" fill="rgb(100%,0%,0%)" r="0.7" /><circle cx="215.982656029" cy="300.616586802" fill="rgb(100%,0%,0%)" r="0.7" /><circle cx="216.250323147" cy="303.60457063" fill="rgb(100%,0%,0%)" r="0.7" /><circle cx="216.583983085" cy="306.585888233" fill="rgb(100%,0%,0%)" r="0.7" /><circle cx="216.994213674" cy="309.557610282" fill="rgb(100%,0%,0%)" r="0.7" /><circle cx="217.49567427" cy="312.515259119" fill="rgb(100%,0%,0%)" r="0.7" /><circle cx="218.10916839" cy="315.451626293" fill="rgb(100%,0%,0%)" r="0.7" /><circle cx="218.865346447" cy="318.35435964" fill="rgb(100%,0%,0%)" r="0.7" /><circle cx="219.811668883" cy="321.200396656" fill="rgb(100%,0%,0%)" r="0.7" /><circle cx="220.892463365" cy="323.995344645" fill="rgb(100%,0%,0%)" r="0.7" /><circle cx="221.842375507" cy="326.840924236" fill="rgb(100%,0%,0%)" r="0.7" /><circle cx="222.847578038" cy="329.667468517" fill="rgb(100%,0%,0%)" r="0.7" /><circle cx="223.901376695" cy="332.476253133" fill="rgb(100%,0%,0%)" r="0.7" /><circle cx="225.0024147" cy="335.266862635" fill="rgb(100%,0%,0%)" r="0.7" /><circle cx="226.151287738" cy="338.03812057" fill="rgb(100%,0%,0%)" r="0.7" /><circle cx="227.349774" cy="340.788282169" fill="rgb(100%,0%,0%)" r="0.7" /><circle cx="228.60058876" cy="343.5150355" fill="rgb(100%,0%,0%)" r="0.7" /><circle cx="229.907330914" cy="346.215419986" fill="rgb(100%,0%,0%)" r="0.7" /><circle cx="231.274535376" cy="348.885689957" fill="rgb(100%,0%,0%)" r="0.7" /><circle cx="232.707786723" cy="351.521080482" fill="rgb(100%,0%,0%)" r="0.7" /><circle cx="234.21390663" cy="354.115487968" fill="rgb(100%,0%,0%)" r="0.7" /><circle cx="235.801209778" cy="356.660998665" fill="rgb(100%,0%,0%)" r="0.7" /><circle cx="237.47982815" cy="359.147181129" fill="rgb(100%,0%,0%)" r="0.7" /><circle cx="239.262110758" cy="361.560037913" fill="rgb(100%,0%,0%)" r="0.7" /><circle cx="241.163060966" cy="363.880415332" fill="rgb(100%,0%,0%)" r="0.7" /><circle cx="243.200644477" cy="366.081532539" fill="rgb(100%,0%,0%)" r="0.7" /><circle cx="277.100987254" cy="212.413209247" fill="rgb(0%,0%,100%)" r="0.7" /><circle cx="280.07965071" cy="212.647616021" fill="rgb(0%,0%,100%)" r="0.7" /><circle cx="283.000833471" cy="213.328176186" fill="rgb(0%,0%,100%)" r="0.7" /><circle cx="285.861802175" cy="214.227952491" fill="rgb(0%,0%,100%)" r="0.7" /><circle cx="288.626024446" cy="215.390269345" fill="rgb(0%,0%,100%)" r="0.7" /><circle cx="291.236800994" cy="216.863833137" fill="rgb(0%,0%,100%)" r="0.7" /><circle cx="293.609883276" cy="218.694080798" fill="rgb(0%,0%,100%)" r="0.7" /><circle cx="295.632860224" cy="220.90349903" fill="rgb(0%,0%,100%)" r="0.7" /><circle cx="297.184585503" cy="223.464874106" fill="rgb(0%,0%,100%)" r="0.7" /><circle cx="298.176040746" cy="226.290630318" fill="rgb(0%,0%,100%)" r="0.7" /><circle cx="298.578148739" cy="229.258625453" fill="rgb(0%,0%,100%)" r="0.7" /><circle cx="298.387335202" cy="232.24722059" fill="rgb(0%,0%,100%)" r="0.7" /><circle cx="297.429785282" cy="235.079764864" fill="rgb(0%,0%,100%)" r="0.7" /><circle cx="295.794071977" cy="237.586981595" fill="rgb(0%,0%,100%)" r="0.7" /><circle cx="293.690895925" cy="239.720909979" fill="rgb(0%,0%,100%)" r="0.7" /><circle cx="291.281558396" cy="241.504383851" fill="rgb(0%,0%,100%)" r="0.7" /><circle cx="288.662116795" cy="242.962764498" fill="rgb(0%,0%,100%)" r="0.7" /><circle cx="285.79017662" cy="243.768878886" fill="rgb(0%,0%,100%)" r="0.7" /><circle cx="282.802015145" cy="243.99493697" fill="rgb(0%,0%,100%)" r="0.7" /><circle cx="279.825998128" cy="243.663815224" fill="rgb(0%,0%,100%)" r="0.7" /><circle cx="277.02171408" cy="242.625769659" fill="rgb(0%,0%,100%)" r="0.7" /><circle cx="274.648768697" cy="240.804563044" fill="rgb(0%,0%,100%)" r="0.7" /><circle cx="271.997392135" cy="239.430144395" fill="rgb(0%,0%,100%)" r="0.7" /><circle cx="269.047112995" cy="238.949191128" fill="rgb(0%,0%,100%)" r="0.7" /><circle cx="266.066829479" cy="239.234603477" fill="rgb(0%,0%,100%)" r="0.7" /><circle cx="263.192013835" cy="240.08025182" fill="rgb(0%,0%,100%)" r="0.7" /><circle cx="260.47818235" cy="241.352529252" fill="rgb(0%,0%,100%)" r="0.7" /><circle cx="258.009485381" cy="243.054550588" fill="rgb(0%,0%,100%)" r="0.7" /><circle cx="255.638152369" cy="244.891690825" fill="rgb(0%,0%,100%)" r="0.7" /><circle cx="253.356153692" cy="246.838697974" fill="rgb(0%,0%,100%)" r="0.7" /><circle cx="251.168752995" cy="248.891394896" fill="rgb(0%,0%,100%)" r="0.7" /><circle cx="249.080590797" cy="251.044980487" fill="rgb(0%,0%,100%)" r="0.7" /><circle cx="247.095707098" cy="253.294116772" fill="rgb(0%,0%,100%)" r="0.7" /><circle cx="245.21753014" cy="255.633097291" fill="rgb(0%,0%,100%)" r="0.7" /><circle cx="243.448929497" cy="258.056010345" fill="rgb(0%,0%,100%)" r="0.7" /><circle cx="241.792352432" cy="260.556855314" fill="rgb(0%,0%,100%)" r="0.7" /><circle cx="240.249975571" cy="263.129708034" fill="rgb(0%,0%,100%)" r="0.7" /><circle cx="238.823970612" cy="265.768833181" fill="rgb(0%,0%,100%)" r="0.7" /><circle cx="237.516872824" cy="268.468843649" fill="rgb(0%,0%,100%)" r="0.7" /><circle cx="236.332261023" cy="271.224771657" fill="rgb(0%,0%,100%)" r="0.7" /><circle cx="235.27597991" cy="274.032367675" fill="rgb(0%,0%,100%)" r="0.7" /><circle cx="234.359379129" cy="276.888560848" fill="rgb(0%,0%,100%)" r="0.7" /><circle cx="233.613932718" cy="279.793816381" fill="rgb(0%,0%,100%)" r="0.7" /><circle cx="232.89881121" cy="282.705526411" fill="rgb(0%,0%,100%)" r="0.7" /><circle cx="232.454571945" cy="285.671311452" fill="rgb(0%,0%,100%)" r="0.7" /><circle cx="232.256702271" cy="288.664136773" fill="rgb(0%,0%,100%)" r="0.7" /><circle cx="232.248953962" cy="291.663735109" fill="rgb(0%,0%,100%)" r="0.7" /><circle cx="232.392404368" cy="294.660048199" fill="rgb(0%,0%,100%)" r="0.7" /><circle cx="232.659506559" cy="297.647956935" fill="rgb(0%,0%,100%)" r="0.7" /><circle cx="233.030315062" cy="300.62482278" fill="rgb(0%,0%,100%)" r="0.7" /><circle cx="233.490136558" cy="303.589276568" fill="rgb(0%,0%,100%)" r="0.7" /><circle cx="234.028072113" cy="306.540577449" fill="rgb(0%,0%,100%)" r="0.7" /><circle cx="234.636146011" cy="309.478239307" fill="rgb(0%,0%,100%)" r="0.7" /><circle cx="235.308900715" cy="312.401775787" fill="rgb(0%,0%,100%)" r="0.7" /><circle cx="236.043565259" cy="315.310374414" fill="rgb(0%,0%,100%)" r="0.7" /><circle cx="236.841850634" cy="318.202135277" fill="rgb(0%,0%,100%)" r="0.7" /><circle cx="237.625929837" cy="321.095870409" fill="rgb(0%,0%,100%)" r="0.7" /><circle cx="238.350786528" cy="324.006804802" fill="rgb(0%,0%,100%)" r="0.7" /><circle cx="239.186160988" cy="326.887955607" fill="rgb(0%,0%,100%)" r="0.7" /><circle cx="240.134092494" cy="329.734043421" fill="rgb(0%,0%,100%)" r="0.7" /><circle cx="241.196234764" cy="332.539503729" fill="rgb(0%,0%,100%)" r="0.7" /><circle cx="242.373819646" cy="335.298482557" fill="rgb(0%,0%,100%)" r="0.7" /><circle cx="243.667655934" cy="338.004878558" fill="rgb(0%,0%,100%)" r="0.7" /><circle cx="245.078144538" cy="340.652346274" fill="rgb(0%,0%,100%)" r="0.7" /><circle cx="246.605309256" cy="343.234248184" fill="rgb(0%,0%,100%)" r="0.7" /><circle cx="248.248909306" cy="345.743629615" fill="rgb(0%,0%,100%)" r="0.7" /><circle cx="250.008559518" cy="348.173010483" fill="rgb(0%,0%,100%)" r="0.7" /><circle cx="251.884028921" cy="350.514126286" fill="rgb(0%,0%,100%)" r="0.7" /><circle cx="253.87565331" cy="352.757195358" fill="rgb(0%,0%,100%)" r="0.7" /><circle cx="255.985377669" cy="354.889501669" fill="rgb(0%,0%,100%)" r="0.7" /><circle cx="258.219358041" cy="356.891040141" fill="rgb(0%,0%,100%)" r="0.7" /><circle cx="260.604" cy="358.709" fill="rgb(0%,0%,100%)" r="0.7" /><circle cx="258.195527807" cy="358.13544135" fill="rgb(0%,0%,100%)" r="0.7" /><circle cx="255.277139988" cy="357.440450316" fill="rgb(0%,0%,100%)" r="0.7" /><circle cx="252.358752169" cy="356.745459283" fill="rgb(0%,0%,100%)" r="0.7" /><circle cx="249.440364349" cy="356.05046825" fill="rgb(0%,0%,100%)" r="0.7" /><circle cx="246.52197653" cy="355.355477216" fill="rgb(0%,0%,100%)" r="0.7" /><circle cx="244.315713142" cy="355.603533233" fill="rgb(0%,0%,100%)" r="0.7" /><circle cx="244.185390509" cy="358.600701231" fill="rgb(0%,0%,100%)" r="0.7" /><circle cx="244.055067875" cy="361.59786923" fill="rgb(0%,0%,100%)" r="0.7" /><circle cx="243.924745242" cy="364.595037228" fill="rgb(0%,0%,100%)" r="0.7" /><circle cx="243.200644477" cy="366.081532539" fill="rgb(0%,0%,100%)" r="0.7" /></svg>