<?xml version="1.0" encoding="utf-8" ?>
<svg baseProfile="full" height="100%" version="1.1" width="100%" xmlns="http://www.w3.org/2000/svg" xmlns:ev="http://www.w3.org/2001/xml-events" xmlns:xlink="http://www.w3.org/1999/xlink"><defs /><circle cx="302.190541625" cy="351.113058661" fill="rgb(100%,0%,0%)" r="0.7" /><circle cx="299.271330991" cy="351.775550294" fill="rgb(100%,0%,0%)" r="0.7" /><circle cx="296.532774936" cy="352.992234909" fill="rgb(100%,0%,0%)" r="0.7" /><circle cx="293.987528217" cy="354.576989877" fill="rgb(100%,0%,0%)" r="0.7" /><circle cx="291.61482153" cy="356.411263834" fill="rgb(100%,0%,0%)" r="0.7" /><circle cx="289.389870352" cy="358.422767763" fill="rgb(100%,0%,0%)" r="0.7" /><circle cx="287.291894008" cy="360.56664549" fill="rgb(100%,0%,0%)" r="0.7" /><circle cx="285.305513867" cy="362.814452772" fill="rgb(100%,0%,0%)" r="0.7" /><circle cx="283.421075051" cy="365.148449141" fill="rgb(100%,0%,0%)" r="0.7" /><circle cx="281.637109779" cy="367.560105971" fill="rgb(100%,0%,0%)" r="0.7" /><circle cx="279.926404029" cy="370.02378261" fill="rgb(100%,0%,0%)" r="0.7" /><circle cx="278.407005029" cy="372.609524728" fill="rgb(100%,0%,0%)" r="0.7" /><circle cx="277.043434921" cy="375.281492104" fill="rgb(100%,0%,0%)" r="0.7" /><circle cx="275.76802796" cy="377.996791732" fill="rgb(100%,0%,0%)" r="0.7" /><circle cx="274.551685616" cy="380.73910261" fill="rgb(100%,0%,0%)" r="0.7" /><circle cx="273.378824637" cy="383.50031058" fill="rgb(100%,0%,0%)" r="0.7" /><circle cx="272.240028369" cy="386.275749875" fill="rgb(100%,0%,0%)" r="0.7" /><circle cx="271.129177774" cy="389.062496957" fill="rgb(100%,0%,0%)" r="0.7" /><circle cx="270.042144664" cy="391.858623639" fill="rgb(100%,0%,0%)" r="0.7" /><circle cx="268.976157029" cy="394.662840306" fill="rgb(100%,0%,0%)" r="0.7" /><circle cx="267.929545338" cy="397.474351611" fill="rgb(100%,0%,0%)" r="0.7" /><circle cx="266.901957631" cy="400.292872487" fill="rgb(100%,0%,0%)" r="0.7" /><circle cx="265.89784198" cy="403.119808162" fill="rgb(100%,0%,0%)" r="0.7" /><circle cx="264.981653927" cy="405.976235979" fill="rgb(100%,0%,0%)" r="0.7" /><circle cx="264.188353818" cy="408.869220255" fill="rgb(100%,0%,0%)" r="0.7" /><circle cx="263.515035631" cy="411.792472886" fill="rgb(100%,0%,0%)" r="0.7" /><circle cx="262.958586255" cy="414.740224029" fill="rgb(100%,0%,0%)" r="0.7" /><circle cx="262.515860854" cy="417.707192243" fill="rgb(100%,0%,0%)" r="0.7" /><circle cx="262.183845347" cy="420.688599477" fill="rgb(100%,0%,0%)" r="0.7" /><circle cx="261.959845412" cy="423.680065858" fill="rgb(100%,0%,0%)" r="0.7" /><circle cx="261.841696739" cy="426.677581815" fill="rgb(100%,0%,0%)" r="0.7" /><circle cx="261.828070451" cy="429.677403759" fill="rgb(100%,0%,0%)" r="0.7" /><circle cx="261.91898191" cy="432.67587181" fill="rgb(100%,0%,0%)" r="0.7" /><circle cx="262.116841314" cy="435.669169266" fill="rgb(100%,0%,0%)" r="0.7" /><circle cx="262.429362989" cy="438.65263937" fill="rgb(100%,0%,0%)" r="0.7" /><circle cx="262.887" cy="441.617" fill="rgb(100%,0%,0%)" r="0.7" /><circle cx="263.631458577" cy="440.281161875" fill="rgb(100%,0%,0%)" r="0.7" /><circle cx="265.702930892" cy="438.11113827" fill="rgb(100%,0%,0%)" r="0.7" /><circle cx="267.774403207" cy="435.941114665" fill="rgb(100%,0%,0%)" r="0.7" /><circle cx="269.845875522" cy="433.771091059" fill="rgb(100%,0%,0%)" r="0.7" /><circle cx="271.917347837" cy="431.601067454" fill="rgb(100%,0%,0%)" r="0.7" /><circle cx="273.988820152" cy="429.431043848" fill="rgb(100%,0%,0%)" r="0.7" /><circle cx="276.060292467" cy="427.261020243" fill="rgb(100%,0%,0%)" r="0.7" /><circle cx="278.131764782" cy="425.090996637" fill="rgb(100%,0%,0%)" r="0.7" /><circle cx="280.214915601" cy="426.687809435" fill="rgb(100%,0%,0%)" r="0.7" /><circle cx="282.299803622" cy="428.844946876" fill="rgb(100%,0%,0%)" r="0.7" /><circle cx="284.384691642" cy="431.002084318" fill="rgb(100%,0%,0%)" r="0.7" /><circle cx="286.469579663" cy="433.159221759" fill="rgb(100%,0%,0%)" r="0.7" /><circle cx="288.554467684" cy="435.316359201" fill="rgb(100%,0%,0%)" r="0.7" /><circle cx="290.639355704" cy="437.473496642" fill="rgb(100%,0%,0%)" r="0.7" /><circle cx="292.724243725" cy="439.630634084" fill="rgb(100%,0%,0%)" r="0.7" /><circle cx="294.809131746" cy="441.787771525" fill="rgb(100%,0%,0%)" r="0.7" /><circle cx="296.894019766" cy="443.944908967" fill="rgb(100%,0%,0%)" r="0.7" /><circle cx="298.978907787" cy="446.102046408" fill="rgb(100%,0%,0%)" r="0.7" /><circle cx="301.063795808" cy="448.25918385" fill="rgb(100%,0%,0%)" r="0.7" /><circle cx="303.148683828" cy="450.416321291" fill="rgb(100%,0%,0%)" r="0.7" /><circle cx="302.190541625" cy="351.113058661" fill="rgb(0%,0%,100%)" r="0.7" /><circle cx="305.174859385" cy="351.247665192" fill="rgb(0%,0%,100%)" r="0.7" /><circle cx="308.041715353" cy="352.118985347" fill="rgb(0%,0%,100%)" r="0.7" /><circle cx="310.704369097" cy="353.49044467" fill="rgb(0%,0%,100%)" r="0.7" /><circle cx="312.985503615" cy="355.425807074" fill="rgb(0%,0%,100%)" r="0.7" /><circle cx="314.614199162" cy="357.93032586" fill="rgb(0%,0%,100%)" r="0.7" /><circle cx="315.651024402" cy="360.744262542" fill="rgb(0%,0%,100%)" r="0.7" /><circle cx="316.428566168" cy="363.640587117" fill="rgb(0%,0%,100%)" r="0.7" /><circle cx="316.880909919" cy="366.604122784" fill="rgb(0%,0%,100%)" r="0.7" /><circle cx="316.837798198" cy="369.598342558" fill="rgb(0%,0%,100%)" r="0.7" /><circle cx="315.970038801" cy="372.452663038" fill="rgb(0%,0%,100%)" r="0.7" /><circle cx="313.955991173" cy="374.631322171" fill="rgb(0%,0%,100%)" r="0.7" /><circle cx="311.160544254" cy="375.665367355" fill="rgb(0%,0%,100%)" r="0.7" /><circle cx="308.425818318" cy="376.853191908" fill="rgb(0%,0%,100%)" r="0.7" /><circle cx="306.112649761" cy="378.753734832" fill="rgb(0%,0%,100%)" r="0.7" /><circle cx="304.212853569" cy="381.070731292" fill="rgb(0%,0%,100%)" r="0.7" /><circle cx="302.68859544" cy="383.651980152" fill="rgb(0%,0%,100%)" r="0.7" /><circle cx="301.487620747" cy="386.399501351" fill="rgb(0%,0%,100%)" r="0.7" /><circle cx="300.5586242" cy="389.251045914" fill="rgb(0%,0%,100%)" r="0.7" /><circle cx="299.857320646" cy="392.167271494" fill="rgb(0%,0%,100%)" r="0.7" /><circle cx="299.347412899" cy="395.123164109" fill="rgb(0%,0%,100%)" r="0.7" /><circle cx="298.999701834" cy="398.10262553" fill="rgb(0%,0%,100%)" r="0.7" /><circle cx="298.554390806" cy="401.066908608" fill="rgb(0%,0%,100%)" r="0.7" /><circle cx="298.230878728" cy="404.049070728" fill="rgb(0%,0%,100%)" r="0.7" /><circle cx="298.041528262" cy="407.04289972" fill="rgb(0%,0%,100%)" r="0.7" /><circle cx="297.959498249" cy="410.041639998" fill="rgb(0%,0%,100%)" r="0.7" /><circle cx="297.969757722" cy="413.041517658" fill="rgb(0%,0%,100%)" r="0.7" /><circle cx="298.062164892" cy="416.040012452" fill="rgb(0%,0%,100%)" r="0.7" /><circle cx="298.229192173" cy="419.035284925" fill="rgb(0%,0%,100%)" r="0.7" /><circle cx="298.464916165" cy="422.025950074" fill="rgb(0%,0%,100%)" r="0.7" /><circle cx="298.680096036" cy="425.016561585" fill="rgb(0%,0%,100%)" r="0.7" /><circle cx="298.720597275" cy="428.016248292" fill="rgb(0%,0%,100%)" r="0.7" /><circle cx="298.705376791" cy="431.016163294" fill="rgb(0%,0%,100%)" r="0.7" /><circle cx="298.622458145" cy="434.014932012" fill="rgb(0%,0%,100%)" r="0.7" /><circle cx="298.442376893" cy="437.009318399" fill="rgb(0%,0%,100%)" r="0.7" /><circle cx="299.270567032" cy="439.801882363" fill="rgb(0%,0%,100%)" r="0.7" /><circle cx="300.509108448" cy="442.534235785" fill="rgb(0%,0%,100%)" r="0.7" /><circle cx="301.684566396" cy="445.294256201" fill="rgb(0%,0%,100%)" r="0.7" /><circle cx="302.7483154" cy="448.098888331" fill="rgb(0%,0%,100%)" r="0.7" /><circle cx="303.148683828" cy="450.416321291" fill="rgb(0%,0%,100%)" r="0.7" /></svg>