<?xml version="1.0" encoding="utf-8" ?>
<svg baseProfile="full" height="100%" version="1.1" width="100%" xmlns="http://www.w3.org/2000/svg" xmlns:ev="http://www.w3.org/2001/xml-events" xmlns:xlink="http://www.w3.org/1999/xlink"><defs /><circle cx="273.797629705" cy="337.7567164" fill="rgb(100%,0%,0%)" r="0.7" /><circle cx="270.831392429" cy="338.069209936" fill="rgb(100%,0%,0%)" r="0.7" /><circle cx="268.119971155" cy="339.329546583" fill="rgb(100%,0%,0%)" r="0.7" /><circle cx="265.772323542" cy="341.189931414" fill="rgb(100%,0%,0%)" r="0.7" /><circle cx="263.721322307" cy="343.377433365" fill="rgb(100%,0%,0%)" r="0.7" /><circle cx="261.884708798" cy="345.748403775" fill="rgb(100%,0%,0%)" r="0.7" /><circle cx="260.232005511" cy="348.251447887" fill="rgb(100%,0%,0%)" r="0.7" /><circle cx="258.728029917" cy="350.846861247" fill="rgb(100%,0%,0%)" r="0.7" /><circle cx="257.333322347" cy="353.502792811" fill="rgb(100%,0%,0%)" r="0.7" /><circle cx="256.000019054" cy="356.190205817" fill="rgb(100%,0%,0%)" r="0.7" /><circle cx="254.657410765" cy="358.872929666" fill="rgb(100%,0%,0%)" r="0.7" /><circle cx="253.159425275" cy="361.470372876" fill="rgb(100%,0%,0%)" r="0.7" /><circle cx="251.341871962" cy="363.85641208" fill="rgb(100%,0%,0%)" r="0.7" /><circle cx="249.451855446" cy="366.186108548" fill="rgb(100%,0%,0%)" r="0.7" /><circle cx="247.507943632" cy="368.471003706" fill="rgb(100%,0%,0%)" r="0.7" /><circle cx="245.503397987" cy="370.702852778" fill="rgb(100%,0%,0%)" r="0.7" /><circle cx="243.424360484" cy="372.865367867" fill="rgb(100%,0%,0%)" r="0.7" /><circle cx="241.246296605" cy="374.927801772" fill="rgb(100%,0%,0%)" r="0.7" /><circle cx="238.9231057" cy="376.824106372" fill="rgb(100%,0%,0%)" r="0.7" /><circle cx="238.919352723" cy="377.541849483" fill="rgb(100%,0%,0%)" r="0.7" /><circle cx="241.890172297" cy="377.124439542" fill="rgb(100%,0%,0%)" r="0.7" /><circle cx="244.343713379" cy="377.410740768" fill="rgb(100%,0%,0%)" r="0.7" /><circle cx="244.831881498" cy="380.370756289" fill="rgb(100%,0%,0%)" r="0.7" /><circle cx="245.320049618" cy="383.330771811" fill="rgb(100%,0%,0%)" r="0.7" /><circle cx="245.533" cy="384.622" fill="rgb(100%,0%,0%)" r="0.7" /><circle cx="273.797629705" cy="337.7567164" fill="rgb(0%,0%,100%)" r="0.7" /><circle cx="276.658066389" cy="338.593135527" fill="rgb(0%,0%,100%)" r="0.7" /><circle cx="279.065760062" cy="340.348607119" fill="rgb(0%,0%,100%)" r="0.7" /><circle cx="280.088632748" cy="343.119900293" fill="rgb(0%,0%,100%)" r="0.7" /><circle cx="279.795220887" cy="346.092486878" fill="rgb(0%,0%,100%)" r="0.7" /><circle cx="279.661887075" cy="346.422558501" fill="rgb(0%,0%,100%)" r="0.7" /><circle cx="278.019597402" cy="348.864945405" fill="rgb(0%,0%,100%)" r="0.7" /><circle cx="275.211103762" cy="348.486284975" fill="rgb(0%,0%,100%)" r="0.7" /><circle cx="272.387835106" cy="348.801158524" fill="rgb(0%,0%,100%)" r="0.7" /><circle cx="270.227533699" cy="350.873427342" fill="rgb(0%,0%,100%)" r="0.7" /><circle cx="268.357864278" cy="353.218612241" fill="rgb(0%,0%,100%)" r="0.7" /><circle cx="266.624878605" cy="355.667168116" fill="rgb(0%,0%,100%)" r="0.7" /><circle cx="264.978096796" cy="358.174656557" fill="rgb(0%,0%,100%)" r="0.7" /><circle cx="263.395321306" cy="360.723073975" fill="rgb(0%,0%,100%)" r="0.7" /><circle cx="261.869383855" cy="363.305924801" fill="rgb(0%,0%,100%)" r="0.7" /><circle cx="260.356546568" cy="365.896478518" fill="rgb(0%,0%,100%)" r="0.7" /><circle cx="258.787733565" cy="368.453518918" fill="rgb(0%,0%,100%)" r="0.7" /><circle cx="257.158325499" cy="370.97235935" fill="rgb(0%,0%,100%)" r="0.7" /><circle cx="255.462105073" cy="373.446677453" fill="rgb(0%,0%,100%)" r="0.7" /><circle cx="253.691240825" cy="375.86808815" fill="rgb(0%,0%,100%)" r="0.7" /><circle cx="251.835370164" cy="378.224913213" fill="rgb(0%,0%,100%)" r="0.7" /><circle cx="249.879723444" cy="380.49948822" fill="rgb(0%,0%,100%)" r="0.7" /><circle cx="247.799987413" cy="382.660838891" fill="rgb(0%,0%,100%)" r="0.7" /><circle cx="245.533" cy="384.622" fill="rgb(0%,0%,100%)" r="0.7" /></svg>