<?xml version="1.0" encoding="utf-8" ?>
<svg baseProfile="full" height="100%" version="1.1" width="100%" xmlns="http://www.w3.org/2000/svg" xmlns:ev="http://www.w3.org/2001/xml-events" xmlns:xlink="http://www.w3.org/1999/xlink"><defs /><circle cx="241.322366967" cy="284.521412288" fill="rgb(100%,0%,0%)" r="0.7" /><circle cx="238.73795024" cy="286.011846464" fill="rgb(100%,0%,0%)" r="0.7" /><circle cx="236.650842796" cy="288.154532487" fill="rgb(100%,0%,0%)" r="0.7" /><circle cx="235.162735334" cy="290.751137638" fill="rgb(100%,0%,0%)" r="0.7" /><circle cx="234.295548965" cy="293.617170949" fill="rgb(100%,0%,0%)" r="0.7" /><circle cx="234.034292851" cy="296.600236186" fill="rgb(100%,0%,0%)" r="0.7" /><circle cx="234.050495385" cy="299.598335181" fill="rgb(100%,0%,0%)" r="0.7" /><circle cx="234.35116206" cy="302.582215239" fill="rgb(100%,0%,0%)" r="0.7" /><circle cx="234.879047782" cy="305.534872274" fill="rgb(100%,0%,0%)" r="0.7" /><circle cx="235.573610007" cy="308.453048532" fill="rgb(100%,0%,0%)" r="0.7" /><circle cx="236.396231415" cy="311.337861595" fill="rgb(100%,0%,0%)" r="0.7" /><circle cx="237.32099847" cy="314.191636843" fill="rgb(100%,0%,0%)" r="0.7" /><circle cx="238.329790206" cy="317.01684284" fill="rgb(100%,0%,0%)" r="0.7" /><circle cx="239.409530567" cy="319.815727835" fill="rgb(100%,0%,0%)" r="0.7" /><circle cx="240.550581834" cy="322.590200787" fill="rgb(100%,0%,0%)" r="0.7" /><circle cx="241.745780771" cy="325.341790766" fill="rgb(100%,0%,0%)" r="0.7" /><circle cx="242.989879385" cy="328.071624698" fill="rgb(100%,0%,0%)" r="0.7" /><circle cx="244.279287653" cy="330.780351949" fill="rgb(100%,0%,0%)" r="0.7" /><circle cx="245.612201376" cy="333.467952472" fill="rgb(100%,0%,0%)" r="0.7" /><circle cx="246.989701201" cy="336.132954751" fill="rgb(100%,0%,0%)" r="0.7" /><circle cx="248.445022406" cy="338.755673328" fill="rgb(100%,0%,0%)" r="0.7" /><circle cx="249.940154332" cy="341.356471333" fill="rgb(100%,0%,0%)" r="0.7" /><circle cx="251.370413868" cy="343.993484871" fill="rgb(100%,0%,0%)" r="0.7" /><circle cx="252.732568402" cy="346.66630579" fill="rgb(100%,0%,0%)" r="0.7" /><circle cx="254.02326276" cy="349.374361526" fill="rgb(100%,0%,0%)" r="0.7" /><circle cx="255.23901268" cy="352.116875444" fill="rgb(100%,0%,0%)" r="0.7" /><circle cx="256.376221687" cy="354.892873699" fill="rgb(100%,0%,0%)" r="0.7" /><circle cx="257.431177684" cy="357.701149428" fill="rgb(100%,0%,0%)" r="0.7" /><circle cx="258.400062502" cy="360.540258771" fill="rgb(100%,0%,0%)" r="0.7" /><circle cx="259.278948608" cy="363.408490905" fill="rgb(100%,0%,0%)" r="0.7" /><circle cx="260.063801413" cy="366.303868379" fill="rgb(100%,0%,0%)" r="0.7" /><circle cx="260.750454807" cy="369.224078186" fill="rgb(100%,0%,0%)" r="0.7" /><circle cx="261.334601056" cy="372.16649174" fill="rgb(100%,0%,0%)" r="0.7" /><circle cx="261.811743203" cy="375.128125684" fill="rgb(100%,0%,0%)" r="0.7" /><circle cx="262.177118156" cy="378.105605852" fill="rgb(100%,0%,0%)" r="0.7" /><circle cx="262.425563897" cy="381.095108032" fill="rgb(100%,0%,0%)" r="0.7" /><circle cx="262.551290464" cy="384.092242947" fill="rgb(100%,0%,0%)" r="0.7" /><circle cx="262.547472079" cy="387.092003458" fill="rgb(100%,0%,0%)" r="0.7" /><circle cx="262.405440566" cy="390.088353903" fill="rgb(100%,0%,0%)" r="0.7" /><circle cx="262.112914338" cy="393.073706013" fill="rgb(100%,0%,0%)" r="0.7" /><circle cx="261.648979621" cy="396.037110629" fill="rgb(100%,0%,0%)" r="0.7" /><circle cx="260.954" cy="398.954" fill="rgb(100%,0%,0%)" r="0.7" /><circle cx="263.021119112" cy="397.520899119" fill="rgb(100%,0%,0%)" r="0.7" /><circle cx="265.486568503" cy="395.811642176" fill="rgb(100%,0%,0%)" r="0.7" /><circle cx="267.932357942" cy="394.436689329" fill="rgb(100%,0%,0%)" r="0.7" /><circle cx="270.18046774" cy="396.423144044" fill="rgb(100%,0%,0%)" r="0.7" /><circle cx="272.428577539" cy="398.409598759" fill="rgb(100%,0%,0%)" r="0.7" /><circle cx="274.676687337" cy="400.396053474" fill="rgb(100%,0%,0%)" r="0.7" /><circle cx="241.322366967" cy="284.521412288" fill="rgb(0%,0%,100%)" r="0.7" /><circle cx="244.270642003" cy="284.593796417" fill="rgb(0%,0%,100%)" r="0.7" /><circle cx="246.776731634" cy="286.203990733" fill="rgb(0%,0%,100%)" r="0.7" /><circle cx="248.684397661" cy="288.511106112" fill="rgb(0%,0%,100%)" r="0.7" /><circle cx="250.24157283" cy="291.075196235" fill="rgb(0%,0%,100%)" r="0.7" /><circle cx="251.793893952" cy="293.642354028" fill="rgb(0%,0%,100%)" r="0.7" /><circle cx="253.346215074" cy="296.209511821" fill="rgb(0%,0%,100%)" r="0.7" /><circle cx="254.898536196" cy="298.776669614" fill="rgb(0%,0%,100%)" r="0.7" /><circle cx="256.450857318" cy="301.343827407" fill="rgb(0%,0%,100%)" r="0.7" /><circle cx="257.999432323" cy="303.913017096" fill="rgb(0%,0%,100%)" r="0.7" /><circle cx="257.93019042" cy="306.839804142" fill="rgb(0%,0%,100%)" r="0.7" /><circle cx="256.265745039" cy="309.311592116" fill="rgb(0%,0%,100%)" r="0.7" /><circle cx="254.12003607" cy="311.405238389" fill="rgb(0%,0%,100%)" r="0.7" /><circle cx="254.477866331" cy="314.233023707" fill="rgb(0%,0%,100%)" r="0.7" /><circle cx="255.782580477" cy="316.931780524" fill="rgb(0%,0%,100%)" r="0.7" /><circle cx="257.189959493" cy="319.581173035" fill="rgb(0%,0%,100%)" r="0.7" /><circle cx="258.581086304" cy="322.239135185" fill="rgb(0%,0%,100%)" r="0.7" /><circle cx="259.957376784" cy="324.904809165" fill="rgb(0%,0%,100%)" r="0.7" /><circle cx="261.318914105" cy="327.578054792" fill="rgb(0%,0%,100%)" r="0.7" /><circle cx="262.665190577" cy="330.25901167" fill="rgb(0%,0%,100%)" r="0.7" /><circle cx="263.995291135" cy="332.948023153" fill="rgb(0%,0%,100%)" r="0.7" /><circle cx="265.307923606" cy="335.645613174" fill="rgb(0%,0%,100%)" r="0.7" /><circle cx="266.601362188" cy="338.352450634" fill="rgb(0%,0%,100%)" r="0.7" /><circle cx="267.873380938" cy="341.069420949" fill="rgb(0%,0%,100%)" r="0.7" /><circle cx="269.121086942" cy="343.797638188" fill="rgb(0%,0%,100%)" r="0.7" /><circle cx="270.340686963" cy="346.538531629" fill="rgb(0%,0%,100%)" r="0.7" /><circle cx="271.5270946" cy="349.293944881" fill="rgb(0%,0%,100%)" r="0.7" /><circle cx="272.673285386" cy="352.066319854" fill="rgb(0%,0%,100%)" r="0.7" /><circle cx="273.7691333" cy="354.858957757" fill="rgb(0%,0%,100%)" r="0.7" /><circle cx="274.799179677" cy="357.676485796" fill="rgb(0%,0%,100%)" r="0.7" /><circle cx="275.73780859" cy="360.525666888" fill="rgb(0%,0%,100%)" r="0.7" /><circle cx="276.536949091" cy="363.416783923" fill="rgb(0%,0%,100%)" r="0.7" /><circle cx="277.096302481" cy="366.362894639" fill="rgb(0%,0%,100%)" r="0.7" /><circle cx="277.546305338" cy="369.328950566" fill="rgb(0%,0%,100%)" r="0.7" /><circle cx="277.976387878" cy="372.297944541" fill="rgb(0%,0%,100%)" r="0.7" /><circle cx="278.351682377" cy="375.27429107" fill="rgb(0%,0%,100%)" r="0.7" /><circle cx="278.625504427" cy="378.261540663" fill="rgb(0%,0%,100%)" r="0.7" /><circle cx="278.747847309" cy="381.25862267" fill="rgb(0%,0%,100%)" r="0.7" /><circle cx="278.682634434" cy="384.257372327" fill="rgb(0%,0%,100%)" r="0.7" /><circle cx="278.422181359" cy="387.245540998" fill="rgb(0%,0%,100%)" r="0.7" /><circle cx="277.985523903" cy="390.213215496" fill="rgb(0%,0%,100%)" r="0.7" /><circle cx="277.404603504" cy="393.156196821" fill="rgb(0%,0%,100%)" r="0.7" /><circle cx="276.711764029" cy="396.074951685" fill="rgb(0%,0%,100%)" r="0.7" /><circle cx="275.934022715" cy="398.972301928" fill="rgb(0%,0%,100%)" r="0.7" /><circle cx="274.676687337" cy="400.396053474" fill="rgb(0%,0%,100%)" r="0.7" /></svg>