<?xml version="1.0" encoding="utf-8" ?>
<svg baseProfile="full" height="100%" version="1.1" width="100%" xmlns="http://www.w3.org/2000/svg" xmlns:ev="http://www.w3.org/2001/xml-events" xmlns:xlink="http://www.w3.org/1999/xlink"><defs /><circle cx="250.887109375" cy="376.378741943" fill="rgb(100%,0%,0%)" r="0.7" /><circle cx="248.079097377" cy="376.715381134" fill="rgb(100%,0%,0%)" r="0.7" /><circle cx="246.159527523" cy="378.998321275" fill="rgb(100%,0%,0%)" r="0.7" /><circle cx="244.811524751" cy="381.675542329" fill="rgb(100%,0%,0%)" r="0.7" /><circle cx="243.765480721" cy="384.486261095" fill="rgb(100%,0%,0%)" r="0.7" /><circle cx="242.892745684" cy="387.356248381" fill="rgb(100%,0%,0%)" r="0.7" /><circle cx="242.163908324" cy="390.265673151" fill="rgb(100%,0%,0%)" r="0.7" /><circle cx="241.657801237" cy="393.221897945" fill="rgb(100%,0%,0%)" r="0.7" /><circle cx="241.390587954" cy="396.209121212" fill="rgb(100%,0%,0%)" r="0.7" /><circle cx="241.375431342" cy="399.208162438" fill="rgb(100%,0%,0%)" r="0.7" /><circle cx="241.621630945" cy="402.197059813" fill="rgb(100%,0%,0%)" r="0.7" /><circle cx="242.134401082" cy="405.151869733" fill="rgb(100%,0%,0%)" r="0.7" /><circle cx="242.91571233" cy="408.047221291" fill="rgb(100%,0%,0%)" r="0.7" /><circle cx="243.966977678" cy="410.855750586" fill="rgb(100%,0%,0%)" r="0.7" /><circle cx="245.2968313" cy="413.543278174" fill="rgb(100%,0%,0%)" r="0.7" /><circle cx="246.923349412" cy="416.062271684" fill="rgb(100%,0%,0%)" r="0.7" /><circle cx="248.528362094" cy="418.596685898" fill="rgb(100%,0%,0%)" r="0.7" /><circle cx="250.059013433" cy="421.17670945" fill="rgb(100%,0%,0%)" r="0.7" /><circle cx="251.519357543" cy="423.797183889" fill="rgb(100%,0%,0%)" r="0.7" /><circle cx="252.913183166" cy="426.453649418" fill="rgb(100%,0%,0%)" r="0.7" /><circle cx="254.244002486" cy="429.142242751" fill="rgb(100%,0%,0%)" r="0.7" /><circle cx="255.515051186" cy="431.859611173" fill="rgb(100%,0%,0%)" r="0.7" /><circle cx="256.729294987" cy="434.602840872" fill="rgb(100%,0%,0%)" r="0.7" /><circle cx="257.889436903" cy="437.369391386" fill="rgb(100%,0%,0%)" r="0.7" /><circle cx="258.997927229" cy="440.157043196" fill="rgb(100%,0%,0%)" r="0.7" /><circle cx="260.056974915" cy="442.963859143" fill="rgb(100%,0%,0%)" r="0.7" /><circle cx="261.068549159" cy="445.788132274" fill="rgb(100%,0%,0%)" r="0.7" /><circle cx="262.034390633" cy="448.628373353" fill="rgb(100%,0%,0%)" r="0.7" /><circle cx="262.956006678" cy="451.483273919" fill="rgb(100%,0%,0%)" r="0.7" /><circle cx="263.834664837" cy="454.351687081" fill="rgb(100%,0%,0%)" r="0.7" /><circle cx="264.671377737" cy="457.232618548" fill="rgb(100%,0%,0%)" r="0.7" /><circle cx="265.466864434" cy="460.125196325" fill="rgb(100%,0%,0%)" r="0.7" /><circle cx="266.22150144" cy="463.028705489" fill="rgb(100%,0%,0%)" r="0.7" /><circle cx="266.93520345" cy="465.942562752" fill="rgb(100%,0%,0%)" r="0.7" /><circle cx="267.607197129" cy="468.866290198" fill="rgb(100%,0%,0%)" r="0.7" /><circle cx="268.235576151" cy="471.799726891" fill="rgb(100%,0%,0%)" r="0.7" /><circle cx="268.815892359" cy="474.743018009" fill="rgb(100%,0%,0%)" r="0.7" /><circle cx="269.333" cy="477.698" fill="rgb(100%,0%,0%)" r="0.7" /><circle cx="250.887109375" cy="376.378741943" fill="rgb(0%,0%,100%)" r="0.7" /><circle cx="252.995939042" cy="378.469539942" fill="rgb(0%,0%,100%)" r="0.7" /><circle cx="254.207491103" cy="381.178755502" fill="rgb(0%,0%,100%)" r="0.7" /><circle cx="254.603538738" cy="384.150830408" fill="rgb(0%,0%,100%)" r="0.7" /><circle cx="254.703811276" cy="387.148191517" fill="rgb(0%,0%,100%)" r="0.7" /><circle cx="254.558548484" cy="390.143934049" fill="rgb(0%,0%,100%)" r="0.7" /><circle cx="254.13914343" cy="393.110792521" fill="rgb(0%,0%,100%)" r="0.7" /><circle cx="253.800841401" cy="396.089148285" fill="rgb(0%,0%,100%)" r="0.7" /><circle cx="253.858444908" cy="399.086527757" fill="rgb(0%,0%,100%)" r="0.7" /><circle cx="254.30610385" cy="402.050690799" fill="rgb(0%,0%,100%)" r="0.7" /><circle cx="255.153779071" cy="404.925885164" fill="rgb(0%,0%,100%)" r="0.7" /><circle cx="256.400306436" cy="407.651814426" fill="rgb(0%,0%,100%)" r="0.7" /><circle cx="258.022999982" cy="410.172092329" fill="rgb(0%,0%,100%)" r="0.7" /><circle cx="259.389960526" cy="412.836596124" fill="rgb(0%,0%,100%)" r="0.7" /><circle cx="260.668522443" cy="415.550478525" fill="rgb(0%,0%,100%)" r="0.7" /><circle cx="261.917458425" cy="418.27813176" fill="rgb(0%,0%,100%)" r="0.7" /><circle cx="263.139648254" cy="421.017877219" fill="rgb(0%,0%,100%)" r="0.7" /><circle cx="264.336283445" cy="423.76887781" fill="rgb(0%,0%,100%)" r="0.7" /><circle cx="265.50780536" cy="426.530670927" fill="rgb(0%,0%,100%)" r="0.7" /><circle cx="266.654211375" cy="429.302983799" fill="rgb(0%,0%,100%)" r="0.7" /><circle cx="267.775197296" cy="432.085670474" fill="rgb(0%,0%,100%)" r="0.7" /><circle cx="268.87022068" cy="434.87866208" fill="rgb(0%,0%,100%)" r="0.7" /><circle cx="269.938550158" cy="437.681982896" fill="rgb(0%,0%,100%)" r="0.7" /><circle cx="270.979257887" cy="440.495676012" fill="rgb(0%,0%,100%)" r="0.7" /><circle cx="271.99123798" cy="443.319828215" fill="rgb(0%,0%,100%)" r="0.7" /><circle cx="272.973199115" cy="446.154552213" fill="rgb(0%,0%,100%)" r="0.7" /><circle cx="273.923659644" cy="448.999995286" fill="rgb(0%,0%,100%)" r="0.7" /><circle cx="274.840922335" cy="451.856305732" fill="rgb(0%,0%,100%)" r="0.7" /><circle cx="275.723063329" cy="454.723658179" fill="rgb(0%,0%,100%)" r="0.7" /><circle cx="276.567896098" cy="457.602221224" fill="rgb(0%,0%,100%)" r="0.7" /><circle cx="277.372941037" cy="460.492161786" fill="rgb(0%,0%,100%)" r="0.7" /><circle cx="278.135381436" cy="463.393629791" fill="rgb(0%,0%,100%)" r="0.7" /><circle cx="278.852011844" cy="466.306746057" fill="rgb(0%,0%,100%)" r="0.7" /><circle cx="279.519173892" cy="469.231582358" fill="rgb(0%,0%,100%)" r="0.7" /><circle cx="280.132677934" cy="472.168134763" fill="rgb(0%,0%,100%)" r="0.7" /><circle cx="280.687707819" cy="475.116291059" fill="rgb(0%,0%,100%)" r="0.7" /><circle cx="278.598382442" cy="473.40314508" fill="rgb(0%,0%,100%)" r="0.7" /><circle cx="276.353861986" cy="471.412635616" fill="rgb(0%,0%,100%)" r="0.7" /><circle cx="274.109341531" cy="469.422126153" fill="rgb(0%,0%,100%)" r="0.7" /><circle cx="271.864821075" cy="467.431616689" fill="rgb(0%,0%,100%)" r="0.7" /><circle cx="270.909154933" cy="469.191038214" fill="rgb(0%,0%,100%)" r="0.7" /><circle cx="270.362621755" cy="472.140835069" fill="rgb(0%,0%,100%)" r="0.7" /><circle cx="269.816088576" cy="475.090631924" fill="rgb(0%,0%,100%)" r="0.7" /><circle cx="269.333" cy="477.698" fill="rgb(0%,0%,100%)" r="0.7" /></svg>