<?xml version="1.0" encoding="utf-8" ?>
<svg baseProfile="full" height="100%" version="1.1" width="100%" xmlns="http://www.w3.org/2000/svg" xmlns:ev="http://www.w3.org/2001/xml-events" xmlns:xlink="http://www.w3.org/1999/xlink"><defs /><circle cx="327.2349925" cy="302.274651826" fill="rgb(100%,0%,0%)" r="0.7" /><circle cx="324.669907257" cy="303.676212354" fill="rgb(100%,0%,0%)" r="0.7" /><circle cx="322.934885283" cy="306.115105199" fill="rgb(100%,0%,0%)" r="0.7" /><circle cx="321.609146579" cy="308.804658584" fill="rgb(100%,0%,0%)" r="0.7" /><circle cx="320.510527993" cy="311.595709293" fill="rgb(100%,0%,0%)" r="0.7" /><circle cx="319.457924598" cy="314.404922791" fill="rgb(100%,0%,0%)" r="0.7" /><circle cx="318.422968735" cy="317.220742071" fill="rgb(100%,0%,0%)" r="0.7" /><circle cx="317.411316923" cy="320.045012553" fill="rgb(100%,0%,0%)" r="0.7" /><circle cx="316.424850187" cy="322.878177783" fill="rgb(100%,0%,0%)" r="0.7" /><circle cx="315.467655241" cy="325.721362051" fill="rgb(100%,0%,0%)" r="0.7" /><circle cx="314.546487345" cy="328.576410804" fill="rgb(100%,0%,0%)" r="0.7" /><circle cx="313.672516962" cy="331.446237675" fill="rgb(100%,0%,0%)" r="0.7" /><circle cx="312.865765414" cy="334.335622859" fill="rgb(100%,0%,0%)" r="0.7" /><circle cx="312.168456171" cy="337.253144576" fill="rgb(100%,0%,0%)" r="0.7" /><circle cx="311.706949958" cy="340.21537276" fill="rgb(100%,0%,0%)" r="0.7" /><circle cx="310.875683455" cy="343.089075162" fill="rgb(100%,0%,0%)" r="0.7" /><circle cx="309.983056232" cy="345.953201546" fill="rgb(100%,0%,0%)" r="0.7" /><circle cx="309.105742126" cy="348.822053276" fill="rgb(100%,0%,0%)" r="0.7" /><circle cx="308.247846858" cy="351.696767072" fill="rgb(100%,0%,0%)" r="0.7" /><circle cx="307.418191087" cy="354.579747548" fill="rgb(100%,0%,0%)" r="0.7" /><circle cx="306.638787814" cy="357.476657465" fill="rgb(100%,0%,0%)" r="0.7" /><circle cx="306.019589435" cy="360.410151508" fill="rgb(100%,0%,0%)" r="0.7" /><circle cx="305.236500557" cy="363.298801957" fill="rgb(100%,0%,0%)" r="0.7" /><circle cx="304.39427752" cy="366.178158356" fill="rgb(100%,0%,0%)" r="0.7" /><circle cx="303.560817017" cy="369.060053289" fill="rgb(100%,0%,0%)" r="0.7" /><circle cx="302.73723405" cy="371.94479218" fill="rgb(100%,0%,0%)" r="0.7" /><circle cx="301.925763024" cy="374.83295978" fill="rgb(100%,0%,0%)" r="0.7" /><circle cx="301.130346483" cy="377.725587805" fill="rgb(100%,0%,0%)" r="0.7" /><circle cx="300.358508431" cy="380.624587815" fill="rgb(100%,0%,0%)" r="0.7" /><circle cx="299.627926772" cy="383.534223646" fill="rgb(100%,0%,0%)" r="0.7" /><circle cx="299.013321388" cy="386.469798158" fill="rgb(100%,0%,0%)" r="0.7" /><circle cx="298.154020055" cy="389.32678284" fill="rgb(100%,0%,0%)" r="0.7" /><circle cx="297.101054083" cy="392.135903064" fill="rgb(100%,0%,0%)" r="0.7" /><circle cx="296.00765433" cy="394.929516386" fill="rgb(100%,0%,0%)" r="0.7" /><circle cx="294.858386527" cy="397.700568485" fill="rgb(100%,0%,0%)" r="0.7" /><circle cx="293.613355637" cy="400.429688358" fill="rgb(100%,0%,0%)" r="0.7" /><circle cx="292.340764465" cy="403.132543936" fill="rgb(100%,0%,0%)" r="0.7" /><circle cx="291.484799471" cy="406.007771932" fill="rgb(100%,0%,0%)" r="0.7" /><circle cx="290.766349503" cy="408.919086509" fill="rgb(100%,0%,0%)" r="0.7" /><circle cx="289.278492998" cy="411.518495465" fill="rgb(100%,0%,0%)" r="0.7" /><circle cx="287.83637437" cy="414.14890833" fill="rgb(100%,0%,0%)" r="0.7" /><circle cx="288.031957956" cy="415.873831128" fill="rgb(100%,0%,0%)" r="0.7" /><circle cx="290.838877438" cy="414.818051814" fill="rgb(100%,0%,0%)" r="0.7" /><circle cx="293.593195694" cy="413.62922672" fill="rgb(100%,0%,0%)" r="0.7" /><circle cx="296.326065442" cy="412.391763842" fill="rgb(100%,0%,0%)" r="0.7" /><circle cx="299.045555049" cy="411.125150941" fill="rgb(100%,0%,0%)" r="0.7" /><circle cx="301.754349612" cy="409.83581127" fill="rgb(100%,0%,0%)" r="0.7" /><circle cx="303.032680146" cy="412.148010838" fill="rgb(100%,0%,0%)" r="0.7" /><circle cx="304.120684544" cy="414.943765912" fill="rgb(100%,0%,0%)" r="0.7" /><circle cx="305.208688942" cy="417.739520985" fill="rgb(100%,0%,0%)" r="0.7" /><circle cx="306.29669334" cy="420.535276058" fill="rgb(100%,0%,0%)" r="0.7" /><circle cx="307.384697738" cy="423.331031131" fill="rgb(100%,0%,0%)" r="0.7" /><circle cx="308.472702136" cy="426.126786205" fill="rgb(100%,0%,0%)" r="0.7" /><circle cx="309.560706534" cy="428.922541278" fill="rgb(100%,0%,0%)" r="0.7" /><circle cx="310.648710932" cy="431.718296351" fill="rgb(100%,0%,0%)" r="0.7" /><circle cx="311.065" cy="432.788" fill="rgb(100%,0%,0%)" r="0.7" /><circle cx="327.2349925" cy="302.274651826" fill="rgb(0%,0%,100%)" r="0.7" /><circle cx="329.769924275" cy="303.673079421" fill="rgb(0%,0%,100%)" r="0.7" /><circle cx="331.091376593" cy="306.343965663" fill="rgb(0%,0%,100%)" r="0.7" /><circle cx="331.714876049" cy="309.276030382" fill="rgb(0%,0%,100%)" r="0.7" /><circle cx="332.052103463" cy="312.256450027" fill="rgb(0%,0%,100%)" r="0.7" /><circle cx="332.231447463" cy="315.250868574" fill="rgb(0%,0%,100%)" r="0.7" /><circle cx="332.307558923" cy="318.249799735" fill="rgb(0%,0%,100%)" r="0.7" /><circle cx="332.309368383" cy="321.249744951" fill="rgb(0%,0%,100%)" r="0.7" /><circle cx="332.254275559" cy="324.249208093" fill="rgb(0%,0%,100%)" r="0.7" /><circle cx="332.15365616" cy="327.247494553" fill="rgb(0%,0%,100%)" r="0.7" /><circle cx="332.015391985" cy="330.244292588" fill="rgb(0%,0%,100%)" r="0.7" /><circle cx="331.845177815" cy="333.23944915" fill="rgb(0%,0%,100%)" r="0.7" /><circle cx="331.647252303" cy="336.232902826" fill="rgb(0%,0%,100%)" r="0.7" /><circle cx="331.4248318" cy="339.224641559" fill="rgb(0%,0%,100%)" r="0.7" /><circle cx="331.180378156" cy="342.214660076" fill="rgb(0%,0%,100%)" r="0.7" /><circle cx="330.91575915" cy="345.202967767" fill="rgb(0%,0%,100%)" r="0.7" /><circle cx="330.632337076" cy="348.189546417" fill="rgb(0%,0%,100%)" r="0.7" /><circle cx="330.330976374" cy="351.174364851" fill="rgb(0%,0%,100%)" r="0.7" /><circle cx="330.011926043" cy="354.157359401" fill="rgb(0%,0%,100%)" r="0.7" /><circle cx="329.674316713" cy="357.138290238" fill="rgb(0%,0%,100%)" r="0.7" /><circle cx="329.320064824" cy="360.117247799" fill="rgb(0%,0%,100%)" r="0.7" /><circle cx="328.921760859" cy="363.090585967" fill="rgb(0%,0%,100%)" r="0.7" /><circle cx="328.447531457" cy="366.052805668" fill="rgb(0%,0%,100%)" r="0.7" /><circle cx="327.916772753" cy="369.005441866" fill="rgb(0%,0%,100%)" r="0.7" /><circle cx="327.341791989" cy="371.949808793" fill="rgb(0%,0%,100%)" r="0.7" /><circle cx="326.730963349" cy="374.886949455" fill="rgb(0%,0%,100%)" r="0.7" /><circle cx="326.090273563" cy="377.817725097" fill="rgb(0%,0%,100%)" r="0.7" /><circle cx="325.424172154" cy="380.742836278" fill="rgb(0%,0%,100%)" r="0.7" /><circle cx="324.736068719" cy="383.662851163" fill="rgb(0%,0%,100%)" r="0.7" /><circle cx="324.02863725" cy="386.578245" fill="rgb(0%,0%,100%)" r="0.7" /><circle cx="323.30401658" cy="389.48941479" fill="rgb(0%,0%,100%)" r="0.7" /><circle cx="322.563944105" cy="392.396695887" fill="rgb(0%,0%,100%)" r="0.7" /><circle cx="321.80984934" cy="395.300371056" fill="rgb(0%,0%,100%)" r="0.7" /><circle cx="321.042918609" cy="398.200684164" fill="rgb(0%,0%,100%)" r="0.7" /><circle cx="320.264145503" cy="401.097836117" fill="rgb(0%,0%,100%)" r="0.7" /><circle cx="319.474359064" cy="403.992014172" fill="rgb(0%,0%,100%)" r="0.7" /><circle cx="318.674261788" cy="406.883348446" fill="rgb(0%,0%,100%)" r="0.7" /><circle cx="317.864431647" cy="409.771972239" fill="rgb(0%,0%,100%)" r="0.7" /><circle cx="317.045340281" cy="412.657997932" fill="rgb(0%,0%,100%)" r="0.7" /><circle cx="316.21737234" cy="415.541467885" fill="rgb(0%,0%,100%)" r="0.7" /><circle cx="315.380788138" cy="418.422475336" fill="rgb(0%,0%,100%)" r="0.7" /><circle cx="314.535756036" cy="421.301000184" fill="rgb(0%,0%,100%)" r="0.7" /><circle cx="313.682276541" cy="424.177041553" fill="rgb(0%,0%,100%)" r="0.7" /><circle cx="312.820127112" cy="427.050491951" fill="rgb(0%,0%,100%)" r="0.7" /><circle cx="311.94859906" cy="429.921111009" fill="rgb(0%,0%,100%)" r="0.7" /><circle cx="311.065" cy="432.788" fill="rgb(0%,0%,100%)" r="0.7" /></svg>