<?xml version="1.0" encoding="utf-8" ?>
<svg baseProfile="full" height="100%" version="1.1" width="100%" xmlns="http://www.w3.org/2000/svg" xmlns:ev="http://www.w3.org/2001/xml-events" xmlns:xlink="http://www.w3.org/1999/xlink"><defs /><circle cx="307.219595029" cy="342.213380829" fill="rgb(100%,0%,0%)" r="0.7" /><circle cx="304.331524269" cy="342.893882049" fill="rgb(100%,0%,0%)" r="0.7" /><circle cx="302.083053311" cy="344.845929477" fill="rgb(100%,0%,0%)" r="0.7" /><circle cx="300.592468278" cy="347.440200634" fill="rgb(100%,0%,0%)" r="0.7" /><circle cx="299.637454425" cy="350.281115251" fill="rgb(100%,0%,0%)" r="0.7" /><circle cx="299.04629223" cy="353.220626088" fill="rgb(100%,0%,0%)" r="0.7" /><circle cx="298.660085557" cy="356.195591451" fill="rgb(100%,0%,0%)" r="0.7" /><circle cx="298.328437373" cy="359.177177307" fill="rgb(100%,0%,0%)" r="0.7" /><circle cx="298.037066938" cy="362.162973358" fill="rgb(100%,0%,0%)" r="0.7" /><circle cx="297.779854003" cy="365.151914374" fill="rgb(100%,0%,0%)" r="0.7" /><circle cx="297.55313246" cy="368.143320107" fill="rgb(100%,0%,0%)" r="0.7" /><circle cx="297.35438824" cy="371.136719722" fill="rgb(100%,0%,0%)" r="0.7" /><circle cx="297.181761962" cy="374.131740275" fill="rgb(100%,0%,0%)" r="0.7" /><circle cx="297.033807187" cy="377.128081745" fill="rgb(100%,0%,0%)" r="0.7" /><circle cx="296.909358113" cy="380.125496877" fill="rgb(100%,0%,0%)" r="0.7" /><circle cx="296.833135497" cy="383.124244213" fill="rgb(100%,0%,0%)" r="0.7" /><circle cx="296.733812365" cy="386.122485722" fill="rgb(100%,0%,0%)" r="0.7" /><circle cx="296.558826157" cy="389.117319602" fill="rgb(100%,0%,0%)" r="0.7" /><circle cx="296.319509447" cy="392.107709" fill="rgb(100%,0%,0%)" r="0.7" /><circle cx="296.019995044" cy="395.09266841" fill="rgb(100%,0%,0%)" r="0.7" /><circle cx="295.66193849" cy="398.071178789" fill="rgb(100%,0%,0%)" r="0.7" /><circle cx="295.245733408" cy="401.042115639" fill="rgb(100%,0%,0%)" r="0.7" /><circle cx="294.770984195" cy="404.004263984" fill="rgb(100%,0%,0%)" r="0.7" /><circle cx="294.23673945" cy="406.956260339" fill="rgb(100%,0%,0%)" r="0.7" /><circle cx="293.641613692" cy="409.896581305" fill="rgb(100%,0%,0%)" r="0.7" /><circle cx="292.983856189" cy="412.823528264" fill="rgb(100%,0%,0%)" r="0.7" /><circle cx="292.26139978" cy="415.735174581" fill="rgb(100%,0%,0%)" r="0.7" /><circle cx="291.471887136" cy="418.629347622" fill="rgb(100%,0%,0%)" r="0.7" /><circle cx="290.612689182" cy="421.503600192" fill="rgb(100%,0%,0%)" r="0.7" /><circle cx="289.68092971" cy="424.355146519" fill="rgb(100%,0%,0%)" r="0.7" /><circle cx="288.673498368" cy="427.180837592" fill="rgb(100%,0%,0%)" r="0.7" /><circle cx="287.620739841" cy="429.990037733" fill="rgb(100%,0%,0%)" r="0.7" /><circle cx="286.54288322" cy="432.789706238" fill="rgb(100%,0%,0%)" r="0.7" /><circle cx="285.441647185" cy="435.580268742" fill="rgb(100%,0%,0%)" r="0.7" /><circle cx="284.318961087" cy="438.362270898" fill="rgb(100%,0%,0%)" r="0.7" /><circle cx="283.17527321" cy="441.135707434" fill="rgb(100%,0%,0%)" r="0.7" /><circle cx="282.010357898" cy="443.900291705" fill="rgb(100%,0%,0%)" r="0.7" /><circle cx="280.823546824" cy="446.655545923" fill="rgb(100%,0%,0%)" r="0.7" /><circle cx="279.613813318" cy="449.400814858" fill="rgb(100%,0%,0%)" r="0.7" /><circle cx="281.12468175" cy="447.952902302" fill="rgb(100%,0%,0%)" r="0.7" /><circle cx="283.140784154" cy="445.731341793" fill="rgb(100%,0%,0%)" r="0.7" /><circle cx="285.156886558" cy="443.509781284" fill="rgb(100%,0%,0%)" r="0.7" /><circle cx="287.172988962" cy="441.288220774" fill="rgb(100%,0%,0%)" r="0.7" /><circle cx="289.189091365" cy="439.066660265" fill="rgb(100%,0%,0%)" r="0.7" /><circle cx="290.962422805" cy="438.134004734" fill="rgb(100%,0%,0%)" r="0.7" /><circle cx="292.032165925" cy="440.936797923" fill="rgb(100%,0%,0%)" r="0.7" /><circle cx="293.101909045" cy="443.739591111" fill="rgb(100%,0%,0%)" r="0.7" /><circle cx="294.171652165" cy="446.5423843" fill="rgb(100%,0%,0%)" r="0.7" /><circle cx="295.241395285" cy="449.345177488" fill="rgb(100%,0%,0%)" r="0.7" /><circle cx="296.181" cy="451.807" fill="rgb(100%,0%,0%)" r="0.7" /><circle cx="307.219595029" cy="342.213380829" fill="rgb(0%,0%,100%)" r="0.7" /><circle cx="310.070749756" cy="343.007762244" fill="rgb(0%,0%,100%)" r="0.7" /><circle cx="311.98158009" cy="345.29105905" fill="rgb(0%,0%,100%)" r="0.7" /><circle cx="313.236006591" cy="348.012723062" fill="rgb(0%,0%,100%)" r="0.7" /><circle cx="314.165717289" cy="350.86407574" fill="rgb(0%,0%,100%)" r="0.7" /><circle cx="314.897522821" cy="353.77305308" fill="rgb(0%,0%,100%)" r="0.7" /><circle cx="315.489581521" cy="356.713833922" fill="rgb(0%,0%,100%)" r="0.7" /><circle cx="315.970257103" cy="359.674923403" fill="rgb(0%,0%,100%)" r="0.7" /><circle cx="316.362167457" cy="362.648841882" fill="rgb(0%,0%,100%)" r="0.7" /><circle cx="316.79026015" cy="365.617986969" fill="rgb(0%,0%,100%)" r="0.7" /><circle cx="317.116211194" cy="368.600084698" fill="rgb(0%,0%,100%)" r="0.7" /><circle cx="317.343624518" cy="371.591321828" fill="rgb(0%,0%,100%)" r="0.7" /><circle cx="317.47622673" cy="374.588269701" fill="rgb(0%,0%,100%)" r="0.7" /><circle cx="317.517797636" cy="377.587871721" fill="rgb(0%,0%,100%)" r="0.7" /><circle cx="317.472111965" cy="380.587423322" fill="rgb(0%,0%,100%)" r="0.7" /><circle cx="317.342891931" cy="383.584546869" fill="rgb(0%,0%,100%)" r="0.7" /><circle cx="317.13376979" cy="386.577163421" fill="rgb(0%,0%,100%)" r="0.7" /><circle cx="316.848258766" cy="389.563468072" fill="rgb(0%,0%,100%)" r="0.7" /><circle cx="316.489731967" cy="392.541896901" fill="rgb(0%,0%,100%)" r="0.7" /><circle cx="316.061407867" cy="395.511096844" fill="rgb(0%,0%,100%)" r="0.7" /><circle cx="315.566339881" cy="398.469903779" fill="rgb(0%,0%,100%)" r="0.7" /><circle cx="315.007409437" cy="401.417321128" fill="rgb(0%,0%,100%)" r="0.7" /><circle cx="314.38732466" cy="404.352486323" fill="rgb(0%,0%,100%)" r="0.7" /><circle cx="313.708619002" cy="407.274653245" fill="rgb(0%,0%,100%)" r="0.7" /><circle cx="312.973648834" cy="410.183183217" fill="rgb(0%,0%,100%)" r="0.7" /><circle cx="312.18459572" cy="413.077518347" fill="rgb(0%,0%,100%)" r="0.7" /><circle cx="311.343471753" cy="415.957148847" fill="rgb(0%,0%,100%)" r="0.7" /><circle cx="310.452109805" cy="418.821631082" fill="rgb(0%,0%,100%)" r="0.7" /><circle cx="309.512169023" cy="421.67054456" fill="rgb(0%,0%,100%)" r="0.7" /><circle cx="308.525127163" cy="424.503486419" fill="rgb(0%,0%,100%)" r="0.7" /><circle cx="307.492277965" cy="427.320037067" fill="rgb(0%,0%,100%)" r="0.7" /><circle cx="306.414692886" cy="430.119802345" fill="rgb(0%,0%,100%)" r="0.7" /><circle cx="305.293238998" cy="432.902274227" fill="rgb(0%,0%,100%)" r="0.7" /><circle cx="304.128493202" cy="435.666915375" fill="rgb(0%,0%,100%)" r="0.7" /><circle cx="302.920709563" cy="438.413018433" fill="rgb(0%,0%,100%)" r="0.7" /><circle cx="301.669676113" cy="441.139679756" fill="rgb(0%,0%,100%)" r="0.7" /><circle cx="300.374484638" cy="443.845644309" fill="rgb(0%,0%,100%)" r="0.7" /><circle cx="299.033019573" cy="446.528988686" fill="rgb(0%,0%,100%)" r="0.7" /><circle cx="297.640557089" cy="449.186164367" fill="rgb(0%,0%,100%)" r="0.7" /><circle cx="296.181" cy="451.807" fill="rgb(0%,0%,100%)" r="0.7" /></svg>