<?xml version="1.0" encoding="utf-8" ?>
<svg baseProfile="full" height="100%" version="1.1" width="100%" xmlns="http://www.w3.org/2000/svg" xmlns:ev="http://www.w3.org/2001/xml-events" xmlns:xlink="http://www.w3.org/1999/xlink"><defs /><circle cx="325.07697307" cy="302.607547542" fill="rgb(100%,0%,0%)" r="0.7" /><circle cx="322.090284215" cy="302.642322463" fill="rgb(100%,0%,0%)" r="0.7" /><circle cx="319.558431558" cy="304.120413597" fill="rgb(100%,0%,0%)" r="0.7" /><circle cx="318.680529014" cy="306.941393897" fill="rgb(100%,0%,0%)" r="0.7" /><circle cx="318.974305638" cy="309.919417393" fill="rgb(100%,0%,0%)" r="0.7" /><circle cx="319.746791945" cy="312.817446836" fill="rgb(100%,0%,0%)" r="0.7" /><circle cx="320.574416873" cy="315.701029813" fill="rgb(100%,0%,0%)" r="0.7" /><circle cx="320.94339714" cy="316.874378117" fill="rgb(100%,0%,0%)" r="0.7" /><circle cx="320.141549947" cy="313.983521207" fill="rgb(100%,0%,0%)" r="0.7" /><circle cx="320.021063778" cy="313.108514203" fill="rgb(100%,0%,0%)" r="0.7" /><circle cx="320.745975479" cy="316.016054592" fill="rgb(100%,0%,0%)" r="0.7" /><circle cx="321.049079482" cy="318.998702348" fill="rgb(100%,0%,0%)" r="0.7" /><circle cx="321.003466368" cy="321.996898335" fill="rgb(100%,0%,0%)" r="0.7" /><circle cx="320.655120728" cy="324.975472738" fill="rgb(100%,0%,0%)" r="0.7" /><circle cx="320.042062723" cy="327.91126056" fill="rgb(100%,0%,0%)" r="0.7" /><circle cx="319.197719847" cy="330.789254564" fill="rgb(100%,0%,0%)" r="0.7" /><circle cx="318.151639277" cy="333.600367972" fill="rgb(100%,0%,0%)" r="0.7" /><circle cx="317.03535457" cy="336.384672945" fill="rgb(100%,0%,0%)" r="0.7" /><circle cx="315.829810473" cy="339.131693272" fill="rgb(100%,0%,0%)" r="0.7" /><circle cx="314.557632768" cy="341.848544625" fill="rgb(100%,0%,0%)" r="0.7" /><circle cx="313.228630191" cy="344.538040546" fill="rgb(100%,0%,0%)" r="0.7" /><circle cx="311.848207044" cy="347.201542134" fill="rgb(100%,0%,0%)" r="0.7" /><circle cx="310.419923272" cy="349.839670248" fill="rgb(100%,0%,0%)" r="0.7" /><circle cx="308.94628901" cy="352.45275178" fill="rgb(100%,0%,0%)" r="0.7" /><circle cx="307.429211382" cy="355.040862004" fill="rgb(100%,0%,0%)" r="0.7" /><circle cx="305.870197056" cy="357.603917674" fill="rgb(100%,0%,0%)" r="0.7" /><circle cx="304.270449998" cy="360.141763581" fill="rgb(100%,0%,0%)" r="0.7" /><circle cx="302.630997574" cy="362.654123104" fill="rgb(100%,0%,0%)" r="0.7" /><circle cx="300.952686356" cy="365.140706579" fill="rgb(100%,0%,0%)" r="0.7" /><circle cx="299.236265843" cy="367.601150716" fill="rgb(100%,0%,0%)" r="0.7" /><circle cx="297.482415674" cy="370.03503151" fill="rgb(100%,0%,0%)" r="0.7" /><circle cx="295.691707609" cy="372.441951743" fill="rgb(100%,0%,0%)" r="0.7" /><circle cx="293.864709974" cy="374.821423627" fill="rgb(100%,0%,0%)" r="0.7" /><circle cx="292.001921161" cy="377.172980755" fill="rgb(100%,0%,0%)" r="0.7" /><circle cx="290.103813891" cy="379.496133967" fill="rgb(100%,0%,0%)" r="0.7" /><circle cx="288.170852062" cy="381.790364854" fill="rgb(100%,0%,0%)" r="0.7" /><circle cx="286.203481484" cy="384.055148718" fill="rgb(100%,0%,0%)" r="0.7" /><circle cx="284.202122037" cy="386.289971091" fill="rgb(100%,0%,0%)" r="0.7" /><circle cx="282.167219929" cy="388.494276449" fill="rgb(100%,0%,0%)" r="0.7" /><circle cx="280.099186197" cy="390.667543202" fill="rgb(100%,0%,0%)" r="0.7" /><circle cx="277.998460573" cy="392.809219524" fill="rgb(100%,0%,0%)" r="0.7" /><circle cx="275.865475576" cy="394.918767227" fill="rgb(100%,0%,0%)" r="0.7" /><circle cx="273.701" cy="396.996" fill="rgb(100%,0%,0%)" r="0.7" /><circle cx="274.259659271" cy="396.979503278" fill="rgb(100%,0%,0%)" r="0.7" /><circle cx="277.258352171" cy="396.890954485" fill="rgb(100%,0%,0%)" r="0.7" /><circle cx="280.257045072" cy="396.802405692" fill="rgb(100%,0%,0%)" r="0.7" /><circle cx="282.671058214" cy="397.495390822" fill="rgb(100%,0%,0%)" r="0.7" /><circle cx="283.432683239" cy="400.397101925" fill="rgb(100%,0%,0%)" r="0.7" /><circle cx="284.194308265" cy="403.298813027" fill="rgb(100%,0%,0%)" r="0.7" /><circle cx="285.521122131" cy="404.244771703" fill="rgb(100%,0%,0%)" r="0.7" /><circle cx="325.07697307" cy="302.607547542" fill="rgb(0%,0%,100%)" r="0.7" /><circle cx="328.001994874" cy="303.258624809" fill="rgb(0%,0%,100%)" r="0.7" /><circle cx="330.84250422" cy="304.218491345" fill="rgb(0%,0%,100%)" r="0.7" /><circle cx="333.550824644" cy="305.49451229" fill="rgb(0%,0%,100%)" r="0.7" /><circle cx="335.894534316" cy="307.356060056" fill="rgb(0%,0%,100%)" r="0.7" /><circle cx="337.75622267" cy="309.701006359" fill="rgb(0%,0%,100%)" r="0.7" /><circle cx="339.118319513" cy="312.3694224" fill="rgb(0%,0%,100%)" r="0.7" /><circle cx="340.03586991" cy="315.22298531" fill="rgb(0%,0%,100%)" r="0.7" /><circle cx="340.582262787" cy="318.171145885" fill="rgb(0%,0%,100%)" r="0.7" /><circle cx="340.81874896" cy="321.160664212" fill="rgb(0%,0%,100%)" r="0.7" /><circle cx="340.78098993" cy="324.15942624" fill="rgb(0%,0%,100%)" r="0.7" /><circle cx="340.498415452" cy="327.145542175" fill="rgb(0%,0%,100%)" r="0.7" /><circle cx="339.99054006" cy="330.101203941" fill="rgb(0%,0%,100%)" r="0.7" /><circle cx="339.243924717" cy="333.006124281" fill="rgb(0%,0%,100%)" r="0.7" /><circle cx="338.307067638" cy="335.855620594" fill="rgb(0%,0%,100%)" r="0.7" /><circle cx="337.216504799" cy="338.650052663" fill="rgb(0%,0%,100%)" r="0.7" /><circle cx="335.999813024" cy="341.392023164" fill="rgb(0%,0%,100%)" r="0.7" /><circle cx="334.678033571" cy="344.084968074" fill="rgb(0%,0%,100%)" r="0.7" /><circle cx="333.267438578" cy="346.732506851" fill="rgb(0%,0%,100%)" r="0.7" /><circle cx="331.780786523" cy="349.33814858" fill="rgb(0%,0%,100%)" r="0.7" /><circle cx="330.228259752" cy="351.90509278" fill="rgb(0%,0%,100%)" r="0.7" /><circle cx="328.61805167" cy="354.436281127" fill="rgb(0%,0%,100%)" r="0.7" /><circle cx="326.956873011" cy="356.934321003" fill="rgb(0%,0%,100%)" r="0.7" /><circle cx="325.25025468" cy="359.401558362" fill="rgb(0%,0%,100%)" r="0.7" /><circle cx="323.502824609" cy="361.840060851" fill="rgb(0%,0%,100%)" r="0.7" /><circle cx="321.718468439" cy="364.251682209" fill="rgb(0%,0%,100%)" r="0.7" /><circle cx="319.900487847" cy="366.638063265" fill="rgb(0%,0%,100%)" r="0.7" /><circle cx="318.051703116" cy="369.000663373" fill="rgb(0%,0%,100%)" r="0.7" /><circle cx="316.174536603" cy="371.340781034" fill="rgb(0%,0%,100%)" r="0.7" /><circle cx="314.271078977" cy="373.659570124" fill="rgb(0%,0%,100%)" r="0.7" /><circle cx="312.343145406" cy="375.95804872" fill="rgb(0%,0%,100%)" r="0.7" /><circle cx="310.392306625" cy="378.237122266" fill="rgb(0%,0%,100%)" r="0.7" /><circle cx="308.419929471" cy="380.49758214" fill="rgb(0%,0%,100%)" r="0.7" /><circle cx="306.427202531" cy="382.740111368" fill="rgb(0%,0%,100%)" r="0.7" /><circle cx="304.41512653" cy="384.9653194" fill="rgb(0%,0%,100%)" r="0.7" /><circle cx="302.384583822" cy="387.173678981" fill="rgb(0%,0%,100%)" r="0.7" /><circle cx="300.3362909" cy="389.365582824" fill="rgb(0%,0%,100%)" r="0.7" /><circle cx="298.270814204" cy="391.54131505" fill="rgb(0%,0%,100%)" r="0.7" /><circle cx="296.188591531" cy="393.700999202" fill="rgb(0%,0%,100%)" r="0.7" /><circle cx="294.089843346" cy="395.844628426" fill="rgb(0%,0%,100%)" r="0.7" /><circle cx="291.974546484" cy="397.971965214" fill="rgb(0%,0%,100%)" r="0.7" /><circle cx="289.842347386" cy="400.082362353" fill="rgb(0%,0%,100%)" r="0.7" /><circle cx="287.692210386" cy="402.174437959" fill="rgb(0%,0%,100%)" r="0.7" /><circle cx="285.521122131" cy="404.244771703" fill="rgb(0%,0%,100%)" r="0.7" /></svg>