<?xml version="1.0" encoding="utf-8" ?>
<svg baseProfile="full" height="100%" version="1.1" width="100%" xmlns="http://www.w3.org/2000/svg" xmlns:ev="http://www.w3.org/2001/xml-events" xmlns:xlink="http://www.w3.org/1999/xlink"><defs /><circle cx="344.387332411" cy="241.558105846" fill="rgb(100%,0%,0%)" r="0.7" /><circle cx="341.712586211" cy="242.882510691" fill="rgb(100%,0%,0%)" r="0.7" /><circle cx="339.430888212" cy="244.821832189" fill="rgb(100%,0%,0%)" r="0.7" /><circle cx="337.688122105" cy="247.250542299" fill="rgb(100%,0%,0%)" r="0.7" /><circle cx="336.552845034" cy="250.026390559" fill="rgb(100%,0%,0%)" r="0.7" /><circle cx="335.509178441" cy="252.838983305" fill="rgb(100%,0%,0%)" r="0.7" /><circle cx="334.485330698" cy="255.658864798" fill="rgb(100%,0%,0%)" r="0.7" /><circle cx="333.467535028" cy="258.480938039" fill="rgb(100%,0%,0%)" r="0.7" /><circle cx="332.448371006" cy="261.302518102" fill="rgb(100%,0%,0%)" r="0.7" /><circle cx="331.420831236" cy="264.121056512" fill="rgb(100%,0%,0%)" r="0.7" /><circle cx="330.374065596" cy="266.93250049" fill="rgb(100%,0%,0%)" r="0.7" /><circle cx="329.279081526" cy="269.725416422" fill="rgb(100%,0%,0%)" r="0.7" /><circle cx="328.161926126" cy="272.508412682" fill="rgb(100%,0%,0%)" r="0.7" /><circle cx="327.105267931" cy="275.316167546" fill="rgb(100%,0%,0%)" r="0.7" /><circle cx="326.047217329" cy="278.123394148" fill="rgb(100%,0%,0%)" r="0.7" /><circle cx="324.987738868" cy="280.930087651" fill="rgb(100%,0%,0%)" r="0.7" /><circle cx="323.926675612" cy="283.736178391" fill="rgb(100%,0%,0%)" r="0.7" /><circle cx="322.863751498" cy="286.541567427" fill="rgb(100%,0%,0%)" r="0.7" /><circle cx="321.798536054" cy="289.34608653" fill="rgb(100%,0%,0%)" r="0.7" /><circle cx="320.730329146" cy="292.14946852" fill="rgb(100%,0%,0%)" r="0.7" /><circle cx="319.657894744" cy="294.951235838" fill="rgb(100%,0%,0%)" r="0.7" /><circle cx="318.578659595" cy="297.750389969" fill="rgb(100%,0%,0%)" r="0.7" /><circle cx="317.484987448" cy="300.543913446" fill="rgb(100%,0%,0%)" r="0.7" /><circle cx="316.295602785" cy="303.29705123" fill="rgb(100%,0%,0%)" r="0.7" /><circle cx="315.018282613" cy="306.011548286" fill="rgb(100%,0%,0%)" r="0.7" /><circle cx="313.735459732" cy="308.723442361" fill="rgb(100%,0%,0%)" r="0.7" /><circle cx="312.447082022" cy="311.432705284" fill="rgb(100%,0%,0%)" r="0.7" /><circle cx="311.152502337" cy="314.139004715" fill="rgb(100%,0%,0%)" r="0.7" /><circle cx="309.850560778" cy="316.841772147" fill="rgb(100%,0%,0%)" r="0.7" /><circle cx="308.539379259" cy="319.54006809" fill="rgb(100%,0%,0%)" r="0.7" /><circle cx="307.215784621" cy="322.232293111" fill="rgb(100%,0%,0%)" r="0.7" /><circle cx="305.873784956" cy="324.915388184" fill="rgb(100%,0%,0%)" r="0.7" /><circle cx="304.499248941" cy="327.581933113" fill="rgb(100%,0%,0%)" r="0.7" /><circle cx="303.067589125" cy="330.217851752" fill="rgb(100%,0%,0%)" r="0.7" /><circle cx="301.675773276" cy="332.875447384" fill="rgb(100%,0%,0%)" r="0.7" /><circle cx="300.262849815" cy="335.521883531" fill="rgb(100%,0%,0%)" r="0.7" /><circle cx="298.828752193" cy="338.15689829" fill="rgb(100%,0%,0%)" r="0.7" /><circle cx="297.37055226" cy="340.778651473" fill="rgb(100%,0%,0%)" r="0.7" /><circle cx="295.882881729" cy="343.383786137" fill="rgb(100%,0%,0%)" r="0.7" /><circle cx="294.356521318" cy="345.966418701" fill="rgb(100%,0%,0%)" r="0.7" /><circle cx="292.774383052" cy="348.515204258" fill="rgb(100%,0%,0%)" r="0.7" /><circle cx="291.09836334" cy="351.0029721" fill="rgb(100%,0%,0%)" r="0.7" /><circle cx="291.607794918" cy="351.330857538" fill="rgb(100%,0%,0%)" r="0.7" /><circle cx="294.190204446" cy="349.804043525" fill="rgb(100%,0%,0%)" r="0.7" /><circle cx="296.567502289" cy="348.749389648" fill="rgb(100%,0%,0%)" r="0.7" /><circle cx="297.214037117" cy="351.678893483" fill="rgb(100%,0%,0%)" r="0.7" /><circle cx="297.860571946" cy="354.608397317" fill="rgb(100%,0%,0%)" r="0.7" /><circle cx="298.507106774" cy="357.537901152" fill="rgb(100%,0%,0%)" r="0.7" /><circle cx="298.574" cy="357.841" fill="rgb(100%,0%,0%)" r="0.7" /><circle cx="344.387332411" cy="241.558105846" fill="rgb(0%,0%,100%)" r="0.7" /><circle cx="347.00758687" cy="242.49647626" fill="rgb(0%,0%,100%)" r="0.7" /><circle cx="347.733299531" cy="245.373283642" fill="rgb(0%,0%,100%)" r="0.7" /><circle cx="347.371931623" cy="248.341581852" fill="rgb(0%,0%,100%)" r="0.7" /><circle cx="346.577069676" cy="251.233771441" fill="rgb(0%,0%,100%)" r="0.7" /><circle cx="345.647947305" cy="254.0861334" fill="rgb(0%,0%,100%)" r="0.7" /><circle cx="344.646386303" cy="256.913954588" fill="rgb(0%,0%,100%)" r="0.7" /><circle cx="343.596109804" cy="259.724070915" fill="rgb(0%,0%,100%)" r="0.7" /><circle cx="342.508001099" cy="262.519766146" fill="rgb(0%,0%,100%)" r="0.7" /><circle cx="341.39939964" cy="265.307015111" fill="rgb(0%,0%,100%)" r="0.7" /><circle cx="340.372205536" cy="268.125568726" fill="rgb(0%,0%,100%)" r="0.7" /><circle cx="339.286035279" cy="270.922029382" fill="rgb(0%,0%,100%)" r="0.7" /><circle cx="338.160783983" cy="273.702965604" fill="rgb(0%,0%,100%)" r="0.7" /><circle cx="337.00714707" cy="276.472271941" fill="rgb(0%,0%,100%)" r="0.7" /><circle cx="335.831683084" cy="279.232392348" fill="rgb(0%,0%,100%)" r="0.7" /><circle cx="334.638738722" cy="281.985019" fill="rgb(0%,0%,100%)" r="0.7" /><circle cx="333.431387309" cy="284.731336464" fill="rgb(0%,0%,100%)" r="0.7" /><circle cx="332.211866284" cy="287.47227942" fill="rgb(0%,0%,100%)" r="0.7" /><circle cx="330.981888474" cy="290.208539599" fill="rgb(0%,0%,100%)" r="0.7" /><circle cx="329.742779935" cy="292.940687721" fill="rgb(0%,0%,100%)" r="0.7" /><circle cx="328.49561046" cy="295.66915697" fill="rgb(0%,0%,100%)" r="0.7" /><circle cx="327.241236261" cy="298.394330073" fill="rgb(0%,0%,100%)" r="0.7" /><circle cx="325.98037344" cy="301.116502593" fill="rgb(0%,0%,100%)" r="0.7" /><circle cx="324.713613664" cy="303.835936572" fill="rgb(0%,0%,100%)" r="0.7" /><circle cx="323.441456964" cy="306.552852788" fill="rgb(0%,0%,100%)" r="0.7" /><circle cx="322.164331676" cy="309.267434749" fill="rgb(0%,0%,100%)" r="0.7" /><circle cx="320.882602314" cy="311.979846897" fill="rgb(0%,0%,100%)" r="0.7" /><circle cx="319.596586674" cy="314.690224956" fill="rgb(0%,0%,100%)" r="0.7" /><circle cx="318.306553849" cy="317.398700618" fill="rgb(0%,0%,100%)" r="0.7" /><circle cx="317.012745844" cy="320.105371977" fill="rgb(0%,0%,100%)" r="0.7" /><circle cx="315.715371717" cy="322.810328364" fill="rgb(0%,0%,100%)" r="0.7" /><circle cx="314.414601748" cy="325.513671865" fill="rgb(0%,0%,100%)" r="0.7" /><circle cx="313.110603786" cy="328.215448996" fill="rgb(0%,0%,100%)" r="0.7" /><circle cx="311.803510539" cy="330.915724042" fill="rgb(0%,0%,100%)" r="0.7" /><circle cx="310.493428369" cy="333.6145639" fill="rgb(0%,0%,100%)" r="0.7" /><circle cx="309.180459306" cy="336.311994069" fill="rgb(0%,0%,100%)" r="0.7" /><circle cx="307.864674864" cy="339.008051666" fill="rgb(0%,0%,100%)" r="0.7" /><circle cx="306.54613648" cy="341.702739172" fill="rgb(0%,0%,100%)" r="0.7" /><circle cx="305.224851988" cy="344.396104126" fill="rgb(0%,0%,100%)" r="0.7" /><circle cx="303.900813049" cy="347.088144165" fill="rgb(0%,0%,100%)" r="0.7" /><circle cx="302.573988273" cy="349.778784798" fill="rgb(0%,0%,100%)" r="0.7" /><circle cx="301.244233568" cy="352.467978976" fill="rgb(0%,0%,100%)" r="0.7" /><circle cx="299.9112406" cy="355.155576465" fill="rgb(0%,0%,100%)" r="0.7" /><circle cx="298.574" cy="357.841" fill="rgb(0%,0%,100%)" r="0.7" /></svg>