<?xml version="1.0" encoding="utf-8" ?>
<svg baseProfile="full" height="100%" version="1.1" width="100%" xmlns="http://www.w3.org/2000/svg" xmlns:ev="http://www.w3.org/2001/xml-events" xmlns:xlink="http://www.w3.org/1999/xlink"><defs /><circle cx="281.694934682" cy="303.095908251" fill="rgb(100%,0%,0%)" r="0.7" /><circle cx="278.708047862" cy="303.308757484" fill="rgb(100%,0%,0%)" r="0.7" /><circle cx="275.814482784" cy="304.086682594" fill="rgb(100%,0%,0%)" r="0.7" /><circle cx="273.071695511" cy="305.296441621" fill="rgb(100%,0%,0%)" r="0.7" /><circle cx="270.491268848" cy="306.823895321" fill="rgb(100%,0%,0%)" r="0.7" /><circle cx="268.067366382" cy="308.589619184" fill="rgb(100%,0%,0%)" r="0.7" /><circle cx="266.017212255" cy="310.773546083" fill="rgb(100%,0%,0%)" r="0.7" /><circle cx="264.32777579" cy="313.249981157" fill="rgb(100%,0%,0%)" r="0.7" /><circle cx="262.949097666" cy="315.912677229" fill="rgb(100%,0%,0%)" r="0.7" /><circle cx="261.823295089" cy="318.693037997" fill="rgb(100%,0%,0%)" r="0.7" /><circle cx="260.758837502" cy="321.497804912" fill="rgb(100%,0%,0%)" r="0.7" /><circle cx="259.728776292" cy="324.315416253" fill="rgb(100%,0%,0%)" r="0.7" /><circle cx="258.730137682" cy="327.144305405" fill="rgb(100%,0%,0%)" r="0.7" /><circle cx="257.76201371" cy="329.983785712" fill="rgb(100%,0%,0%)" r="0.7" /><circle cx="256.824437198" cy="332.833507359" fill="rgb(100%,0%,0%)" r="0.7" /><circle cx="255.918027165" cy="335.693283903" fill="rgb(100%,0%,0%)" r="0.7" /><circle cx="255.043830374" cy="338.563073263" fill="rgb(100%,0%,0%)" r="0.7" /><circle cx="254.203281455" cy="341.442890829" fill="rgb(100%,0%,0%)" r="0.7" /><circle cx="253.398178433" cy="344.33282637" fill="rgb(100%,0%,0%)" r="0.7" /><circle cx="252.630713644" cy="347.232971694" fill="rgb(100%,0%,0%)" r="0.7" /><circle cx="251.903492394" cy="350.1434706" fill="rgb(100%,0%,0%)" r="0.7" /><circle cx="251.219604579" cy="353.064450582" fill="rgb(100%,0%,0%)" r="0.7" /><circle cx="250.582697786" cy="355.996028222" fill="rgb(100%,0%,0%)" r="0.7" /><circle cx="249.997086178" cy="358.938274531" fill="rgb(100%,0%,0%)" r="0.7" /><circle cx="249.467890624" cy="361.891181239" fill="rgb(100%,0%,0%)" r="0.7" /><circle cx="249.0012255" cy="364.854599636" fill="rgb(100%,0%,0%)" r="0.7" /><circle cx="248.60444256" cy="367.82816802" fill="rgb(100%,0%,0%)" r="0.7" /><circle cx="248.28646023" cy="370.811168677" fill="rgb(100%,0%,0%)" r="0.7" /><circle cx="248.058199853" cy="373.802343823" fill="rgb(100%,0%,0%)" r="0.7" /><circle cx="247.871641478" cy="376.796275099" fill="rgb(100%,0%,0%)" r="0.7" /><circle cx="247.668064668" cy="379.789363287" fill="rgb(100%,0%,0%)" r="0.7" /><circle cx="247.483108623" cy="382.783656416" fill="rgb(100%,0%,0%)" r="0.7" /><circle cx="247.314197756" cy="385.778887736" fill="rgb(100%,0%,0%)" r="0.7" /><circle cx="247.160339103" cy="388.774950507" fill="rgb(100%,0%,0%)" r="0.7" /><circle cx="247.021135164" cy="391.77170607" fill="rgb(100%,0%,0%)" r="0.7" /><circle cx="246.896501308" cy="394.769115808" fill="rgb(100%,0%,0%)" r="0.7" /><circle cx="246.786562381" cy="397.767102625" fill="rgb(100%,0%,0%)" r="0.7" /><circle cx="246.69159899" cy="400.765592201" fill="rgb(100%,0%,0%)" r="0.7" /><circle cx="246.612021939" cy="403.764533417" fill="rgb(100%,0%,0%)" r="0.7" /><circle cx="246.548362495" cy="406.763855268" fill="rgb(100%,0%,0%)" r="0.7" /><circle cx="246.50126914" cy="409.763483261" fill="rgb(100%,0%,0%)" r="0.7" /><circle cx="246.471511144" cy="412.76333395" fill="rgb(100%,0%,0%)" r="0.7" /><circle cx="246.459987077" cy="415.763307619" fill="rgb(100%,0%,0%)" r="0.7" /><circle cx="246.467737997" cy="418.763292169" fill="rgb(100%,0%,0%)" r="0.7" /><circle cx="246.495965862" cy="421.763154672" fill="rgb(100%,0%,0%)" r="0.7" /><circle cx="246.546057588" cy="424.762729347" fill="rgb(100%,0%,0%)" r="0.7" /><circle cx="246.619616415" cy="427.761819922" fill="rgb(100%,0%,0%)" r="0.7" /><circle cx="246.718502098" cy="430.760181109" fill="rgb(100%,0%,0%)" r="0.7" /><circle cx="246.844882975" cy="433.75750728" fill="rgb(100%,0%,0%)" r="0.7" /><circle cx="247.001303695" cy="436.753412002" fill="rgb(100%,0%,0%)" r="0.7" /><circle cx="247.190774792" cy="439.747406236" fill="rgb(100%,0%,0%)" r="0.7" /><circle cx="247.568998428" cy="442.722749142" fill="rgb(100%,0%,0%)" r="0.7" /><circle cx="247.975903821" cy="445.695042571" fill="rgb(100%,0%,0%)" r="0.7" /><circle cx="248.387200565" cy="448.666721926" fill="rgb(100%,0%,0%)" r="0.7" /><circle cx="248.802428635" cy="451.637840445" fill="rgb(100%,0%,0%)" r="0.7" /><circle cx="249.221391431" cy="454.608441311" fill="rgb(100%,0%,0%)" r="0.7" /><circle cx="249.64400415" cy="457.578529419" fill="rgb(100%,0%,0%)" r="0.7" /><circle cx="250.070247663" cy="460.548096764" fill="rgb(100%,0%,0%)" r="0.7" /><circle cx="250.500148929" cy="463.51713686" fill="rgb(100%,0%,0%)" r="0.7" /><circle cx="250.933769583" cy="466.485639327" fill="rgb(100%,0%,0%)" r="0.7" /><circle cx="251.371198724" cy="469.453577955" fill="rgb(100%,0%,0%)" r="0.7" /><circle cx="251.812554773" cy="472.420940918" fill="rgb(100%,0%,0%)" r="0.7" /><circle cx="252.257978371" cy="475.387687988" fill="rgb(100%,0%,0%)" r="0.7" /><circle cx="252.707641129" cy="478.3538058" fill="rgb(100%,0%,0%)" r="0.7" /><circle cx="253.161736504" cy="481.319236848" fill="rgb(100%,0%,0%)" r="0.7" /><circle cx="253.620494136" cy="484.283957336" fill="rgb(100%,0%,0%)" r="0.7" /><circle cx="254.084172604" cy="487.24790633" fill="rgb(100%,0%,0%)" r="0.7" /><circle cx="254.553071881" cy="490.211036162" fill="rgb(100%,0%,0%)" r="0.7" /><circle cx="255.027534578" cy="493.173281136" fill="rgb(100%,0%,0%)" r="0.7" /><circle cx="255.507954894" cy="496.134565174" fill="rgb(100%,0%,0%)" r="0.7" /><circle cx="255.994788654" cy="499.094802079" fill="rgb(100%,0%,0%)" r="0.7" /><circle cx="256.488565002" cy="502.053888207" fill="rgb(100%,0%,0%)" r="0.7" /><circle cx="256.989902084" cy="505.011696129" fill="rgb(100%,0%,0%)" r="0.7" /><circle cx="257.499532497" cy="507.968093864" fill="rgb(100%,0%,0%)" r="0.7" /><circle cx="258.018324985" cy="510.922897685" fill="rgb(100%,0%,0%)" r="0.7" /><circle cx="258.547328753" cy="513.875894003" fill="rgb(100%,0%,0%)" r="0.7" /><circle cx="259.087823789" cy="516.826802551" fill="rgb(100%,0%,0%)" r="0.7" /><circle cx="259.641404115" cy="519.775285306" fill="rgb(100%,0%,0%)" r="0.7" /><circle cx="260.210089271" cy="522.72089359" fill="rgb(100%,0%,0%)" r="0.7" /><circle cx="260.79650093" cy="525.663016245" fill="rgb(100%,0%,0%)" r="0.7" /><circle cx="261.404151036" cy="528.600812507" fill="rgb(100%,0%,0%)" r="0.7" /><circle cx="262.037938061" cy="531.533109333" fill="rgb(100%,0%,0%)" r="0.7" /><circle cx="262.705008" cy="534.457966436" fill="rgb(100%,0%,0%)" r="0.7" /><circle cx="263.416624148" cy="537.37231358" fill="rgb(100%,0%,0%)" r="0.7" /><circle cx="264.192376443" cy="540.270202945" fill="rgb(100%,0%,0%)" r="0.7" /><circle cx="265.07267589" cy="543.13783396" fill="rgb(100%,0%,0%)" r="0.7" /><circle cx="281.694934682" cy="303.095908251" fill="rgb(0%,0%,100%)" r="0.7" /><circle cx="284.652834836" cy="303.553360852" fill="rgb(0%,0%,100%)" r="0.7" /><circle cx="287.421014227" cy="304.691816938" fill="rgb(0%,0%,100%)" r="0.7" /><circle cx="289.865725098" cy="306.420557377" fill="rgb(0%,0%,100%)" r="0.7" /><circle cx="291.882084974" cy="308.632824278" fill="rgb(0%,0%,100%)" r="0.7" /><circle cx="293.475603453" cy="311.164352073" fill="rgb(0%,0%,100%)" r="0.7" /><circle cx="294.234715023" cy="314.052390307" fill="rgb(0%,0%,100%)" r="0.7" /><circle cx="294.030472387" cy="317.033748217" fill="rgb(0%,0%,100%)" r="0.7" /><circle cx="293.047182201" cy="319.861268204" fill="rgb(0%,0%,100%)" r="0.7" /><circle cx="291.544705348" cy="322.454279959" fill="rgb(0%,0%,100%)" r="0.7" /><circle cx="289.704686892" cy="324.821623159" fill="rgb(0%,0%,100%)" r="0.7" /><circle cx="287.632288941" cy="326.989336963" fill="rgb(0%,0%,100%)" r="0.7" /><circle cx="285.382171586" cy="328.972227385" fill="rgb(0%,0%,100%)" r="0.7" /><circle cx="283.030919353" cy="330.834514837" fill="rgb(0%,0%,100%)" r="0.7" /><circle cx="280.843671923" cy="332.886187011" fill="rgb(0%,0%,100%)" r="0.7" /><circle cx="278.857669416" cy="335.133245834" fill="rgb(0%,0%,100%)" r="0.7" /><circle cx="277.087642626" cy="337.554141989" fill="rgb(0%,0%,100%)" r="0.7" /><circle cx="275.543071758" cy="340.124815905" fill="rgb(0%,0%,100%)" r="0.7" /><circle cx="274.229438371" cy="342.820882075" fill="rgb(0%,0%,100%)" r="0.7" /><circle cx="273.150999754" cy="345.619373037" fill="rgb(0%,0%,100%)" r="0.7" /><circle cx="272.316589811" cy="348.499998183" fill="rgb(0%,0%,100%)" r="0.7" /><circle cx="271.763110548" cy="351.446899537" fill="rgb(0%,0%,100%)" r="0.7" /><circle cx="271.739692737" cy="354.442108264" fill="rgb(0%,0%,100%)" r="0.7" /><circle cx="271.603650205" cy="357.438988868" fill="rgb(0%,0%,100%)" r="0.7" /><circle cx="271.433401412" cy="360.434149137" fill="rgb(0%,0%,100%)" r="0.7" /><circle cx="271.245538549" cy="363.428261281" fill="rgb(0%,0%,100%)" r="0.7" /><circle cx="271.046182339" cy="366.421631531" fill="rgb(0%,0%,100%)" r="0.7" /><circle cx="270.838301343" cy="369.414422404" fill="rgb(0%,0%,100%)" r="0.7" /><circle cx="270.623422609" cy="372.406715284" fill="rgb(0%,0%,100%)" r="0.7" /><circle cx="270.401867333" cy="375.39853248" fill="rgb(0%,0%,100%)" r="0.7" /><circle cx="270.301283251" cy="378.396422567" fill="rgb(0%,0%,100%)" r="0.7" /><circle cx="270.240516806" cy="381.395799004" fill="rgb(0%,0%,100%)" r="0.7" /><circle cx="270.20127917" cy="384.395538419" fill="rgb(0%,0%,100%)" r="0.7" /><circle cx="270.182948324" cy="387.395475794" fill="rgb(0%,0%,100%)" r="0.7" /><circle cx="270.18493212" cy="390.395470804" fill="rgb(0%,0%,100%)" r="0.7" /><circle cx="270.206666797" cy="393.395387117" fill="rgb(0%,0%,100%)" r="0.7" /><circle cx="270.247615358" cy="396.395103208" fill="rgb(0%,0%,100%)" r="0.7" /><circle cx="270.307266136" cy="399.394506193" fill="rgb(0%,0%,100%)" r="0.7" /><circle cx="270.385131408" cy="402.393491471" fill="rgb(0%,0%,100%)" r="0.7" /><circle cx="270.48074619" cy="405.391963911" fill="rgb(0%,0%,100%)" r="0.7" /><circle cx="270.593666983" cy="408.389834307" fill="rgb(0%,0%,100%)" r="0.7" /><circle cx="270.723470799" cy="411.387022169" fill="rgb(0%,0%,100%)" r="0.7" /><circle cx="270.869753867" cy="414.383448787" fill="rgb(0%,0%,100%)" r="0.7" /><circle cx="271.032131394" cy="417.379051086" fill="rgb(0%,0%,100%)" r="0.7" /><circle cx="271.210235098" cy="420.37375138" fill="rgb(0%,0%,100%)" r="0.7" /><circle cx="271.403715315" cy="423.367507924" fill="rgb(0%,0%,100%)" r="0.7" /><circle cx="271.612236456" cy="426.360251065" fill="rgb(0%,0%,100%)" r="0.7" /><circle cx="271.835478888" cy="429.35192672" fill="rgb(0%,0%,100%)" r="0.7" /><circle cx="272.073138312" cy="432.342492713" fill="rgb(0%,0%,100%)" r="0.7" /><circle cx="272.324924662" cy="435.331910291" fill="rgb(0%,0%,100%)" r="0.7" /><circle cx="272.590560006" cy="438.32012672" fill="rgb(0%,0%,100%)" r="0.7" /><circle cx="272.869780315" cy="441.307102707" fill="rgb(0%,0%,100%)" r="0.7" /><circle cx="273.162334044" cy="444.29279999" fill="rgb(0%,0%,100%)" r="0.7" /><circle cx="273.467981592" cy="447.277179965" fill="rgb(0%,0%,100%)" r="0.7" /><circle cx="273.786497785" cy="450.260230096" fill="rgb(0%,0%,100%)" r="0.7" /><circle cx="274.117664752" cy="453.241898868" fill="rgb(0%,0%,100%)" r="0.7" /><circle cx="274.46127598" cy="456.222139745" fill="rgb(0%,0%,100%)" r="0.7" /><circle cx="274.817143469" cy="459.200970989" fill="rgb(0%,0%,100%)" r="0.7" /><circle cx="275.185079437" cy="462.178320697" fill="rgb(0%,0%,100%)" r="0.7" /><circle cx="275.564913046" cy="465.154170905" fill="rgb(0%,0%,100%)" r="0.7" /><circle cx="275.956484446" cy="468.128505232" fill="rgb(0%,0%,100%)" r="0.7" /><circle cx="276.359643329" cy="471.101298019" fill="rgb(0%,0%,100%)" r="0.7" /><circle cx="276.774247897" cy="474.072507765" fill="rgb(0%,0%,100%)" r="0.7" /><circle cx="277.200170189" cy="477.042114721" fill="rgb(0%,0%,100%)" r="0.7" /><circle cx="277.637290756" cy="480.010080588" fill="rgb(0%,0%,100%)" r="0.7" /><circle cx="278.085508014" cy="482.976409565" fill="rgb(0%,0%,100%)" r="0.7" /><circle cx="278.544726326" cy="485.941063996" fill="rgb(0%,0%,100%)" r="0.7" /><circle cx="279.014862404" cy="488.904005103" fill="rgb(0%,0%,100%)" r="0.7" /><circle cx="279.495847162" cy="491.865199265" fill="rgb(0%,0%,100%)" r="0.7" /><circle cx="279.987626436" cy="494.824615305" fill="rgb(0%,0%,100%)" r="0.7" /><circle cx="280.490159123" cy="497.782205377" fill="rgb(0%,0%,100%)" r="0.7" /><circle cx="281.003428165" cy="500.737959369" fill="rgb(0%,0%,100%)" r="0.7" /><circle cx="281.527437553" cy="503.691871651" fill="rgb(0%,0%,100%)" r="0.7" /><circle cx="282.062193198" cy="506.643820191" fill="rgb(0%,0%,100%)" r="0.7" /><circle cx="282.607747395" cy="509.593795796" fill="rgb(0%,0%,100%)" r="0.7" /><circle cx="283.164172164" cy="512.541724365" fill="rgb(0%,0%,100%)" r="0.7" /><circle cx="283.731586993" cy="515.487580187" fill="rgb(0%,0%,100%)" r="0.7" /><circle cx="284.310147187" cy="518.431273729" fill="rgb(0%,0%,100%)" r="0.7" /><circle cx="284.900066064" cy="521.372698491" fill="rgb(0%,0%,100%)" r="0.7" /><circle cx="285.501641775" cy="524.311761285" fill="rgb(0%,0%,100%)" r="0.7" /><circle cx="286.115282865" cy="527.248345316" fill="rgb(0%,0%,100%)" r="0.7" /><circle cx="286.741544898" cy="530.182222638" fill="rgb(0%,0%,100%)" r="0.7" /><circle cx="287.381273343" cy="533.11324" fill="rgb(0%,0%,100%)" r="0.7" /><circle cx="288.035752815" cy="536.040972431" fill="rgb(0%,0%,100%)" r="0.7" /><circle cx="288.707346662" cy="538.964800676" fill="rgb(0%,0%,100%)" r="0.7" /><circle cx="289.403" cy="541.883" fill="rgb(0%,0%,100%)" r="0.7" /><circle cx="288.898616568" cy="541.594441257" fill="rgb(0%,0%,100%)" r="0.7" /><circle cx="286.294642809" cy="540.104702803" fill="rgb(0%,0%,100%)" r="0.7" /><circle cx="283.69066905" cy="538.614964349" fill="rgb(0%,0%,100%)" r="0.7" /><circle cx="281.086695291" cy="537.125225895" fill="rgb(0%,0%,100%)" r="0.7" /><circle cx="278.482721532" cy="535.63548744" fill="rgb(0%,0%,100%)" r="0.7" /><circle cx="275.878747773" cy="534.145748986" fill="rgb(0%,0%,100%)" r="0.7" /><circle cx="273.274774014" cy="532.656010532" fill="rgb(0%,0%,100%)" r="0.7" /><circle cx="270.93552316" cy="531.960322134" fill="rgb(0%,0%,100%)" r="0.7" /><circle cx="269.746434168" cy="534.714603777" fill="rgb(0%,0%,100%)" r="0.7" /><circle cx="268.557345176" cy="537.468885421" fill="rgb(0%,0%,100%)" r="0.7" /><circle cx="267.368256185" cy="540.223167064" fill="rgb(0%,0%,100%)" r="0.7" /><circle cx="266.179167193" cy="542.977448707" fill="rgb(0%,0%,100%)" r="0.7" /><circle cx="265.07267589" cy="543.13783396" fill="rgb(0%,0%,100%)" r="0.7" /></svg>