<?xml version="1.0" encoding="utf-8" ?>
<svg baseProfile="full" height="100%" version="1.1" width="100%" xmlns="http://www.w3.org/2000/svg" xmlns:ev="http://www.w3.org/2001/xml-events" xmlns:xlink="http://www.w3.org/1999/xlink"><defs /><circle cx="261.503488587" cy="262.218241798" fill="rgb(100%,0%,0%)" r="0.7" /><circle cx="260.096728755" cy="264.867785427" fill="rgb(100%,0%,0%)" r="0.7" /><circle cx="258.606101746" cy="267.471123951" fill="rgb(100%,0%,0%)" r="0.7" /><circle cx="257.039008585" cy="270.029164599" fill="rgb(100%,0%,0%)" r="0.7" /><circle cx="255.395341017" cy="272.5386742" fill="rgb(100%,0%,0%)" r="0.7" /><circle cx="253.67191395" cy="274.994067683" fill="rgb(100%,0%,0%)" r="0.7" /><circle cx="251.863454497" cy="277.387488522" fill="rgb(100%,0%,0%)" r="0.7" /><circle cx="249.962885319" cy="279.70838204" fill="rgb(100%,0%,0%)" r="0.7" /><circle cx="248.063621281" cy="282.030260149" fill="rgb(100%,0%,0%)" r="0.7" /><circle cx="246.172786598" cy="284.35936698" fill="rgb(100%,0%,0%)" r="0.7" /><circle cx="244.275197948" cy="286.682979807" fill="rgb(100%,0%,0%)" r="0.7" /><circle cx="242.370734167" cy="289.000956898" fill="rgb(100%,0%,0%)" r="0.7" /><circle cx="240.458776434" cy="291.31275703" fill="rgb(100%,0%,0%)" r="0.7" /><circle cx="238.538292273" cy="293.617479404" fill="rgb(100%,0%,0%)" r="0.7" /><circle cx="236.60773116" cy="295.913763563" fill="rgb(100%,0%,0%)" r="0.7" /><circle cx="234.664755227" cy="298.199551729" fill="rgb(100%,0%,0%)" r="0.7" /><circle cx="232.70568696" cy="300.471559512" fill="rgb(100%,0%,0%)" r="0.7" /><circle cx="230.724224467" cy="302.724044936" fill="rgb(100%,0%,0%)" r="0.7" /><circle cx="228.707819052" cy="304.94526866" fill="rgb(100%,0%,0%)" r="0.7" /><circle cx="226.622861868" cy="307.101939621" fill="rgb(100%,0%,0%)" r="0.7" /><circle cx="224.320439654" cy="309.020703893" fill="rgb(100%,0%,0%)" r="0.7" /><circle cx="221.899281958" cy="310.791887583" fill="rgb(100%,0%,0%)" r="0.7" /><circle cx="219.418719074" cy="312.478876812" fill="rgb(100%,0%,0%)" r="0.7" /><circle cx="216.879194227" cy="314.07567194" fill="rgb(100%,0%,0%)" r="0.7" /><circle cx="214.277108142" cy="315.568229004" fill="rgb(100%,0%,0%)" r="0.7" /><circle cx="211.606495763" cy="316.934148499" fill="rgb(100%,0%,0%)" r="0.7" /><circle cx="208.8597186" cy="318.139088805" fill="rgb(100%,0%,0%)" r="0.7" /><circle cx="206.028923785" cy="319.129416021" fill="rgb(100%,0%,0%)" r="0.7" /><circle cx="203.111066821" cy="319.818398728" fill="rgb(100%,0%,0%)" r="0.7" /><circle cx="204.099241274" cy="321.663525358" fill="rgb(100%,0%,0%)" r="0.7" /><circle cx="206.126193085" cy="323.875191326" fill="rgb(100%,0%,0%)" r="0.7" /><circle cx="208.153144896" cy="326.086857294" fill="rgb(100%,0%,0%)" r="0.7" /><circle cx="207.676563312" cy="328.627036846" fill="rgb(100%,0%,0%)" r="0.7" /><circle cx="206.288837246" cy="331.286776751" fill="rgb(100%,0%,0%)" r="0.7" /><circle cx="204.90111118" cy="333.946516657" fill="rgb(100%,0%,0%)" r="0.7" /><circle cx="203.513385114" cy="336.606256562" fill="rgb(100%,0%,0%)" r="0.7" /><circle cx="202.125659047" cy="339.265996468" fill="rgb(100%,0%,0%)" r="0.7" /><circle cx="204.446211284" cy="339.087716843" fill="rgb(100%,0%,0%)" r="0.7" /><circle cx="207.296729023" cy="338.159545013" fill="rgb(100%,0%,0%)" r="0.7" /><circle cx="210.016772265" cy="337.049293746" fill="rgb(100%,0%,0%)" r="0.7" /><circle cx="212.501860389" cy="338.625984711" fill="rgb(100%,0%,0%)" r="0.7" /><circle cx="214.873892347" cy="340.458972247" fill="rgb(100%,0%,0%)" r="0.7" /><circle cx="215.459" cy="340.77" fill="rgb(100%,0%,0%)" r="0.7" /><circle cx="261.503488587" cy="262.218241798" fill="rgb(0%,0%,100%)" r="0.7" /><circle cx="262.162264302" cy="263.242186139" fill="rgb(0%,0%,100%)" r="0.7" /><circle cx="262.46674426" cy="266.226694802" fill="rgb(0%,0%,100%)" r="0.7" /><circle cx="262.771224218" cy="269.211203464" fill="rgb(0%,0%,100%)" r="0.7" /><circle cx="263.075704177" cy="272.195712126" fill="rgb(0%,0%,100%)" r="0.7" /><circle cx="263.441882386" cy="275.059765598" fill="rgb(0%,0%,100%)" r="0.7" /><circle cx="266.041764407" cy="273.56289771" fill="rgb(0%,0%,100%)" r="0.7" /><circle cx="268.641646429" cy="272.066029822" fill="rgb(0%,0%,100%)" r="0.7" /><circle cx="271.24152845" cy="270.569161934" fill="rgb(0%,0%,100%)" r="0.7" /><circle cx="271.910833845" cy="270.85711401" fill="rgb(0%,0%,100%)" r="0.7" /><circle cx="270.211373419" cy="273.329331671" fill="rgb(0%,0%,100%)" r="0.7" /><circle cx="268.509774605" cy="275.800070708" fill="rgb(0%,0%,100%)" r="0.7" /><circle cx="266.807048013" cy="278.270037338" fill="rgb(0%,0%,100%)" r="0.7" /><circle cx="265.103587776" cy="280.739498585" fill="rgb(0%,0%,100%)" r="0.7" /><circle cx="263.399594116" cy="283.208589478" fill="rgb(0%,0%,100%)" r="0.7" /><circle cx="261.69518153" cy="285.677390009" fill="rgb(0%,0%,100%)" r="0.7" /><circle cx="259.990417641" cy="288.145952347" fill="rgb(0%,0%,100%)" r="0.7" /><circle cx="258.285344679" cy="290.61430184" fill="rgb(0%,0%,100%)" r="0.7" /><circle cx="256.579976416" cy="293.082437914" fill="rgb(0%,0%,100%)" r="0.7" /><circle cx="254.825293458" cy="295.515056511" fill="rgb(0%,0%,100%)" r="0.7" /><circle cx="252.993101786" cy="297.890536712" fill="rgb(0%,0%,100%)" r="0.7" /><circle cx="251.12834171" cy="300.240538713" fill="rgb(0%,0%,100%)" r="0.7" /><circle cx="249.238697867" cy="302.570600234" fill="rgb(0%,0%,100%)" r="0.7" /><circle cx="247.329221622" cy="304.884441748" fill="rgb(0%,0%,100%)" r="0.7" /><circle cx="245.403422985" cy="307.18471947" fill="rgb(0%,0%,100%)" r="0.7" /><circle cx="243.46385483" cy="309.473401437" fill="rgb(0%,0%,100%)" r="0.7" /><circle cx="241.512438279" cy="311.751989536" fill="rgb(0%,0%,100%)" r="0.7" /><circle cx="239.550655011" cy="314.021659506" fill="rgb(0%,0%,100%)" r="0.7" /><circle cx="237.57967251" cy="316.28334646" fill="rgb(0%,0%,100%)" r="0.7" /><circle cx="235.600424657" cy="318.537803867" fill="rgb(0%,0%,100%)" r="0.7" /><circle cx="233.613665538" cy="320.785644481" fill="rgb(0%,0%,100%)" r="0.7" /><circle cx="231.620007085" cy="323.02736771" fill="rgb(0%,0%,100%)" r="0.7" /><circle cx="229.619946359" cy="325.263376388" fill="rgb(0%,0%,100%)" r="0.7" /><circle cx="227.613868952" cy="327.494003112" fill="rgb(0%,0%,100%)" r="0.7" /><circle cx="225.602088945" cy="329.719480496" fill="rgb(0%,0%,100%)" r="0.7" /><circle cx="223.584816969" cy="331.939973837" fill="rgb(0%,0%,100%)" r="0.7" /><circle cx="221.562146524" cy="334.155565036" fill="rgb(0%,0%,100%)" r="0.7" /><circle cx="219.534047073" cy="336.366168361" fill="rgb(0%,0%,100%)" r="0.7" /><circle cx="217.500159196" cy="338.571467607" fill="rgb(0%,0%,100%)" r="0.7" /><circle cx="215.459" cy="340.77" fill="rgb(0%,0%,100%)" r="0.7" /></svg>