<?xml version="1.0" encoding="utf-8" ?>
<svg baseProfile="full" height="100%" version="1.1" width="100%" xmlns="http://www.w3.org/2000/svg" xmlns:ev="http://www.w3.org/2001/xml-events" xmlns:xlink="http://www.w3.org/1999/xlink"><defs /><circle cx="315.706195456" cy="372.813529184" fill="rgb(100%,0%,0%)" r="0.7" /><circle cx="312.807578195" cy="373.556250618" fill="rgb(100%,0%,0%)" r="0.7" /><circle cx="310.107464307" cy="374.856748311" fill="rgb(100%,0%,0%)" r="0.7" /><circle cx="307.555583375" cy="376.416685266" fill="rgb(100%,0%,0%)" r="0.7" /><circle cx="306.185375413" cy="379.033298612" fill="rgb(100%,0%,0%)" r="0.7" /><circle cx="305.903052376" cy="382.012974686" fill="rgb(100%,0%,0%)" r="0.7" /><circle cx="306.135273918" cy="385.002048004" fill="rgb(100%,0%,0%)" r="0.7" /><circle cx="306.56268676" cy="387.97110879" fill="rgb(100%,0%,0%)" r="0.7" /><circle cx="306.838125901" cy="390.95813124" fill="rgb(100%,0%,0%)" r="0.7" /><circle cx="306.969420074" cy="393.954975197" fill="rgb(100%,0%,0%)" r="0.7" /><circle cx="306.955280828" cy="396.954633843" fill="rgb(100%,0%,0%)" r="0.7" /><circle cx="306.785693422" cy="399.949473866" fill="rgb(100%,0%,0%)" r="0.7" /><circle cx="306.445126045" cy="402.929618201" fill="rgb(100%,0%,0%)" r="0.7" /><circle cx="305.913318528" cy="405.881506848" fill="rgb(100%,0%,0%)" r="0.7" /><circle cx="305.165730433" cy="408.786062964" fill="rgb(100%,0%,0%)" r="0.7" /><circle cx="304.174521504" cy="411.616481465" fill="rgb(100%,0%,0%)" r="0.7" /><circle cx="302.910983135" cy="414.335888623" fill="rgb(100%,0%,0%)" r="0.7" /><circle cx="301.350432926" cy="416.895954553" fill="rgb(100%,0%,0%)" r="0.7" /><circle cx="299.479939614" cy="419.238617384" fill="rgb(100%,0%,0%)" r="0.7" /><circle cx="297.317898555" cy="421.315954943" fill="rgb(100%,0%,0%)" r="0.7" /><circle cx="295.07274987" cy="423.305769754" fill="rgb(100%,0%,0%)" r="0.7" /><circle cx="292.818721333" cy="425.285493125" fill="rgb(100%,0%,0%)" r="0.7" /><circle cx="290.556128846" cy="427.255442739" fill="rgb(100%,0%,0%)" r="0.7" /><circle cx="288.284353626" cy="429.214783125" fill="rgb(100%,0%,0%)" r="0.7" /><circle cx="286.002149064" cy="431.161966937" fill="rgb(100%,0%,0%)" r="0.7" /><circle cx="283.707570672" cy="433.094552146" fill="rgb(100%,0%,0%)" r="0.7" /><circle cx="281.3976109" cy="435.008719704" fill="rgb(100%,0%,0%)" r="0.7" /><circle cx="279.067393603" cy="436.898157424" fill="rgb(100%,0%,0%)" r="0.7" /><circle cx="276.708195745" cy="438.751240291" fill="rgb(100%,0%,0%)" r="0.7" /><circle cx="274.301345286" cy="440.541805035" fill="rgb(100%,0%,0%)" r="0.7" /><circle cx="271.786699968" cy="442.174927104" fill="rgb(100%,0%,0%)" r="0.7" /><circle cx="274.524172355" cy="442.663983537" fill="rgb(100%,0%,0%)" r="0.7" /><circle cx="277.490334798" cy="443.113294517" fill="rgb(100%,0%,0%)" r="0.7" /><circle cx="277.819520609" cy="446.06652399" fill="rgb(100%,0%,0%)" r="0.7" /><circle cx="278.114790644" cy="449.051957895" fill="rgb(100%,0%,0%)" r="0.7" /><circle cx="278.410060679" cy="452.037391801" fill="rgb(100%,0%,0%)" r="0.7" /><circle cx="278.412" cy="452.057" fill="rgb(100%,0%,0%)" r="0.7" /><circle cx="315.706195456" cy="372.813529184" fill="rgb(0%,0%,100%)" r="0.7" /><circle cx="318.678657526" cy="373.023503297" fill="rgb(0%,0%,100%)" r="0.7" /><circle cx="321.197771705" cy="374.577705467" fill="rgb(0%,0%,100%)" r="0.7" /><circle cx="321.549713911" cy="377.448155314" fill="rgb(0%,0%,100%)" r="0.7" /><circle cx="319.939753615" cy="379.949669407" fill="rgb(0%,0%,100%)" r="0.7" /><circle cx="317.596763889" cy="381.803149542" fill="rgb(0%,0%,100%)" r="0.7" /><circle cx="316.158500346" cy="384.350279113" fill="rgb(0%,0%,100%)" r="0.7" /><circle cx="315.952881283" cy="387.335514086" fill="rgb(0%,0%,100%)" r="0.7" /><circle cx="316.632376448" cy="390.247675622" fill="rgb(0%,0%,100%)" r="0.7" /><circle cx="317.09599493" cy="393.210773232" fill="rgb(0%,0%,100%)" r="0.7" /><circle cx="317.368266866" cy="396.198079581" fill="rgb(0%,0%,100%)" r="0.7" /><circle cx="317.515287361" cy="399.194321819" fill="rgb(0%,0%,100%)" r="0.7" /><circle cx="317.570113491" cy="402.19372867" fill="rgb(0%,0%,100%)" r="0.7" /><circle cx="317.550506006" cy="405.193602901" fill="rgb(0%,0%,100%)" r="0.7" /><circle cx="317.463511329" cy="408.19228" fill="rgb(0%,0%,100%)" r="0.7" /><circle cx="317.153707536" cy="411.170481991" fill="rgb(0%,0%,100%)" r="0.7" /><circle cx="316.177272912" cy="414.002362307" fill="rgb(0%,0%,100%)" r="0.7" /><circle cx="314.794608357" cy="416.66294217" fill="rgb(0%,0%,100%)" r="0.7" /><circle cx="313.172441281" cy="419.185711605" fill="rgb(0%,0%,100%)" r="0.7" /><circle cx="311.393409803" cy="421.600859472" fill="rgb(0%,0%,100%)" r="0.7" /><circle cx="309.503363219" cy="423.930332389" fill="rgb(0%,0%,100%)" r="0.7" /><circle cx="307.530137189" cy="426.189893793" fill="rgb(0%,0%,100%)" r="0.7" /><circle cx="305.491878322" cy="428.391032191" fill="rgb(0%,0%,100%)" r="0.7" /><circle cx="303.401054699" cy="430.542332324" fill="rgb(0%,0%,100%)" r="0.7" /><circle cx="301.266582722" cy="432.650356047" fill="rgb(0%,0%,100%)" r="0.7" /><circle cx="299.095049636" cy="434.720199436" fill="rgb(0%,0%,100%)" r="0.7" /><circle cx="296.891439294" cy="436.755869575" fill="rgb(0%,0%,100%)" r="0.7" /><circle cx="294.659585001" cy="438.760536101" fill="rgb(0%,0%,100%)" r="0.7" /><circle cx="292.402453782" cy="440.736701923" fill="rgb(0%,0%,100%)" r="0.7" /><circle cx="290.12232295" cy="442.686311089" fill="rgb(0%,0%,100%)" r="0.7" /><circle cx="287.820926819" cy="444.61075852" fill="rgb(0%,0%,100%)" r="0.7" /><circle cx="285.499430765" cy="446.510911638" fill="rgb(0%,0%,100%)" r="0.7" /><circle cx="283.158377093" cy="448.386922222" fill="rgb(0%,0%,100%)" r="0.7" /><circle cx="280.797296738" cy="450.237649981" fill="rgb(0%,0%,100%)" r="0.7" /><circle cx="278.412" cy="452.057" fill="rgb(0%,0%,100%)" r="0.7" /></svg>