<?xml version="1.0" encoding="utf-8" ?>
<svg baseProfile="full" height="100%" version="1.1" width="100%" xmlns="http://www.w3.org/2000/svg" xmlns:ev="http://www.w3.org/2001/xml-events" xmlns:xlink="http://www.w3.org/1999/xlink"><defs /><circle cx="300.450182742" cy="371.128692954" fill="rgb(100%,0%,0%)" r="0.7" /><circle cx="297.917675198" cy="371.983233197" fill="rgb(100%,0%,0%)" r="0.7" /><circle cx="296.61006568" cy="374.673290967" fill="rgb(100%,0%,0%)" r="0.7" /><circle cx="295.747549473" cy="377.545466572" fill="rgb(100%,0%,0%)" r="0.7" /><circle cx="295.08760328" cy="380.47163446" fill="rgb(100%,0%,0%)" r="0.7" /><circle cx="294.549765471" cy="383.422889468" fill="rgb(100%,0%,0%)" r="0.7" /><circle cx="294.096485507" cy="386.388375089" fill="rgb(100%,0%,0%)" r="0.7" /><circle cx="293.706985841" cy="389.362939965" fill="rgb(100%,0%,0%)" r="0.7" /><circle cx="293.368666995" cy="392.343771367" fill="rgb(100%,0%,0%)" r="0.7" /><circle cx="293.073647279" cy="395.329213983" fill="rgb(100%,0%,0%)" r="0.7" /><circle cx="292.817420576" cy="398.31822845" fill="rgb(100%,0%,0%)" r="0.7" /><circle cx="292.599436681" cy="401.310290558" fill="rgb(100%,0%,0%)" r="0.7" /><circle cx="292.451144405" cy="404.306421431" fill="rgb(100%,0%,0%)" r="0.7" /><circle cx="292.388161502" cy="407.305686458" fill="rgb(100%,0%,0%)" r="0.7" /><circle cx="292.396552554" cy="410.305607923" fill="rgb(100%,0%,0%)" r="0.7" /><circle cx="292.472945422" cy="413.304574328" fill="rgb(100%,0%,0%)" r="0.7" /><circle cx="292.614160754" cy="416.301192931" fill="rgb(100%,0%,0%)" r="0.7" /><circle cx="292.81721253" cy="419.294261828" fill="rgb(100%,0%,0%)" r="0.7" /><circle cx="293.079306133" cy="422.28274731" fill="rgb(100%,0%,0%)" r="0.7" /><circle cx="293.397832473" cy="425.265743136" fill="rgb(100%,0%,0%)" r="0.7" /><circle cx="293.770366241" cy="428.242486213" fill="rgb(100%,0%,0%)" r="0.7" /><circle cx="294.194655297" cy="431.212293755" fill="rgb(100%,0%,0%)" r="0.7" /><circle cx="294.668619299" cy="434.174585496" fill="rgb(100%,0%,0%)" r="0.7" /><circle cx="295.190339343" cy="437.128835519" fill="rgb(100%,0%,0%)" r="0.7" /><circle cx="295.758060669" cy="440.074603206" fill="rgb(100%,0%,0%)" r="0.7" /><circle cx="296.37017778" cy="443.011459001" fill="rgb(100%,0%,0%)" r="0.7" /><circle cx="297.02524671" cy="445.939046246" fill="rgb(100%,0%,0%)" r="0.7" /><circle cx="297.721970205" cy="448.856997093" fill="rgb(100%,0%,0%)" r="0.7" /><circle cx="298.459211807" cy="451.764972725" fill="rgb(100%,0%,0%)" r="0.7" /><circle cx="299.235999991" cy="454.662634619" fill="rgb(100%,0%,0%)" r="0.7" /><circle cx="300.05154373" cy="457.549637507" fill="rgb(100%,0%,0%)" r="0.7" /><circle cx="300.905246693" cy="460.425581975" fill="rgb(100%,0%,0%)" r="0.7" /><circle cx="301.796758423" cy="463.290038346" fill="rgb(100%,0%,0%)" r="0.7" /><circle cx="302.726023051" cy="466.142462472" fill="rgb(100%,0%,0%)" r="0.7" /><circle cx="303.693407716" cy="468.982192415" fill="rgb(100%,0%,0%)" r="0.7" /><circle cx="304.69989669" cy="471.808285302" fill="rgb(100%,0%,0%)" r="0.7" /><circle cx="305.747587884" cy="474.619374748" fill="rgb(100%,0%,0%)" r="0.7" /><circle cx="306.840984708" cy="477.412969129" fill="rgb(100%,0%,0%)" r="0.7" /><circle cx="307.995" cy="480.182" fill="rgb(100%,0%,0%)" r="0.7" /><circle cx="300.450182742" cy="371.128692954" fill="rgb(0%,0%,100%)" r="0.7" /><circle cx="302.44004093" cy="373.338568947" fill="rgb(0%,0%,100%)" r="0.7" /><circle cx="303.801757669" cy="376.009610277" fill="rgb(0%,0%,100%)" r="0.7" /><circle cx="304.933890636" cy="378.787321979" fill="rgb(0%,0%,100%)" r="0.7" /><circle cx="305.93488148" cy="381.615210665" fill="rgb(0%,0%,100%)" r="0.7" /><circle cx="306.845847074" cy="384.473472911" fill="rgb(0%,0%,100%)" r="0.7" /><circle cx="307.689237345" cy="387.3524123" fill="rgb(0%,0%,100%)" r="0.7" /><circle cx="308.479107635" cy="390.246526443" fill="rgb(0%,0%,100%)" r="0.7" /><circle cx="309.225002978" cy="393.152293857" fill="rgb(0%,0%,100%)" r="0.7" /><circle cx="309.933807782" cy="396.067362802" fill="rgb(0%,0%,100%)" r="0.7" /><circle cx="310.610675793" cy="398.989978059" fill="rgb(0%,0%,100%)" r="0.7" /><circle cx="311.259629262" cy="401.918929269" fill="rgb(0%,0%,100%)" r="0.7" /><circle cx="311.883866424" cy="404.85327664" fill="rgb(0%,0%,100%)" r="0.7" /><circle cx="312.48597509" cy="407.792223105" fill="rgb(0%,0%,100%)" r="0.7" /><circle cx="313.068106567" cy="410.735176018" fill="rgb(0%,0%,100%)" r="0.7" /><circle cx="313.632073586" cy="413.681688879" fill="rgb(0%,0%,100%)" r="0.7" /><circle cx="314.17940671" cy="416.631341103" fill="rgb(0%,0%,100%)" r="0.7" /><circle cx="314.73779427" cy="419.578905066" fill="rgb(0%,0%,100%)" r="0.7" /><circle cx="315.292736986" cy="422.527149943" fill="rgb(0%,0%,100%)" r="0.7" /><circle cx="315.843352344" cy="425.476172248" fill="rgb(0%,0%,100%)" r="0.7" /><circle cx="316.390048743" cy="428.425940509" fill="rgb(0%,0%,100%)" r="0.7" /><circle cx="316.932978445" cy="431.376403943" fill="rgb(0%,0%,100%)" r="0.7" /><circle cx="317.472186876" cy="434.327556416" fill="rgb(0%,0%,100%)" r="0.7" /><circle cx="318.007648143" cy="437.279379208" fill="rgb(0%,0%,100%)" r="0.7" /><circle cx="318.539294501" cy="440.231895192" fill="rgb(0%,0%,100%)" r="0.7" /><circle cx="319.067016931" cy="443.185122689" fill="rgb(0%,0%,100%)" r="0.7" /><circle cx="319.590667264" cy="446.139065411" fill="rgb(0%,0%,100%)" r="0.7" /><circle cx="320.110067108" cy="449.093758241" fill="rgb(0%,0%,100%)" r="0.7" /><circle cx="320.625001533" cy="452.049239825" fill="rgb(0%,0%,100%)" r="0.7" /><circle cx="321.135212873" cy="455.00553477" fill="rgb(0%,0%,100%)" r="0.7" /><circle cx="321.640402429" cy="457.962691562" fill="rgb(0%,0%,100%)" r="0.7" /><circle cx="322.140220195" cy="460.920763047" fill="rgb(0%,0%,100%)" r="0.7" /><circle cx="322.634255446" cy="463.879804964" fill="rgb(0%,0%,100%)" r="0.7" /><circle cx="323.122026298" cy="466.839886337" fill="rgb(0%,0%,100%)" r="0.7" /><circle cx="323.602962648" cy="469.801084333" fill="rgb(0%,0%,100%)" r="0.7" /><circle cx="324.07638625" cy="472.763495317" fill="rgb(0%,0%,100%)" r="0.7" /><circle cx="324.541479431" cy="475.727224097" fill="rgb(0%,0%,100%)" r="0.7" /><circle cx="324.997246563" cy="478.692398993" fill="rgb(0%,0%,100%)" r="0.7" /><circle cx="322.849262095" cy="478.306543361" fill="rgb(0%,0%,100%)" r="0.7" /><circle cx="320.089212322" cy="477.130905128" fill="rgb(0%,0%,100%)" r="0.7" /><circle cx="317.32916255" cy="475.955266896" fill="rgb(0%,0%,100%)" r="0.7" /><circle cx="314.569112777" cy="474.779628664" fill="rgb(0%,0%,100%)" r="0.7" /><circle cx="312.092684098" cy="474.64741953" fill="rgb(0%,0%,100%)" r="0.7" /><circle cx="310.307565531" cy="477.058508848" fill="rgb(0%,0%,100%)" r="0.7" /><circle cx="308.522446964" cy="479.469598167" fill="rgb(0%,0%,100%)" r="0.7" /><circle cx="307.995" cy="480.182" fill="rgb(0%,0%,100%)" r="0.7" /></svg>