<?xml version="1.0" encoding="utf-8" ?>
<svg baseProfile="full" height="100%" version="1.1" width="100%" xmlns="http://www.w3.org/2000/svg" xmlns:ev="http://www.w3.org/2001/xml-events" xmlns:xlink="http://www.w3.org/1999/xlink"><defs /><circle cx="327.229386577" cy="313.596921137" fill="rgb(100%,0%,0%)" r="0.7" /><circle cx="324.433553581" cy="314.059395656" fill="rgb(100%,0%,0%)" r="0.7" /><circle cx="322.665873422" cy="316.458827362" fill="rgb(100%,0%,0%)" r="0.7" /><circle cx="321.527491026" cy="319.231541679" fill="rgb(100%,0%,0%)" r="0.7" /><circle cx="320.69234467" cy="322.1121578" fill="rgb(100%,0%,0%)" r="0.7" /><circle cx="320.025217419" cy="325.036888172" fill="rgb(100%,0%,0%)" r="0.7" /><circle cx="319.403685018" cy="327.971773905" fill="rgb(100%,0%,0%)" r="0.7" /><circle cx="318.806082241" cy="330.91166187" fill="rgb(100%,0%,0%)" r="0.7" /><circle cx="318.229063574" cy="333.855629403" fill="rgb(100%,0%,0%)" r="0.7" /><circle cx="317.671532528" cy="336.803384127" fill="rgb(100%,0%,0%)" r="0.7" /><circle cx="317.133223099" cy="339.754684547" fill="rgb(100%,0%,0%)" r="0.7" /><circle cx="316.614293294" cy="342.709457884" fill="rgb(100%,0%,0%)" r="0.7" /><circle cx="316.115210727" cy="345.667647487" fill="rgb(100%,0%,0%)" r="0.7" /><circle cx="315.636688569" cy="348.629234818" fill="rgb(100%,0%,0%)" r="0.7" /><circle cx="315.179668538" cy="351.594210157" fill="rgb(100%,0%,0%)" r="0.7" /><circle cx="314.745317539" cy="354.562591614" fill="rgb(100%,0%,0%)" r="0.7" /><circle cx="314.335047037" cy="357.534396646" fill="rgb(100%,0%,0%)" r="0.7" /><circle cx="313.950540479" cy="360.509646166" fill="rgb(100%,0%,0%)" r="0.7" /><circle cx="313.593797378" cy="363.488348325" fill="rgb(100%,0%,0%)" r="0.7" /><circle cx="313.267190886" cy="366.47050366" fill="rgb(100%,0%,0%)" r="0.7" /><circle cx="312.973549707" cy="369.456081776" fill="rgb(100%,0%,0%)" r="0.7" /><circle cx="312.716266462" cy="372.445008499" fill="rgb(100%,0%,0%)" r="0.7" /><circle cx="312.499446392" cy="375.437141223" fill="rgb(100%,0%,0%)" r="0.7" /><circle cx="312.32811447" cy="378.432212256" fill="rgb(100%,0%,0%)" r="0.7" /><circle cx="312.208505037" cy="381.429781563" fill="rgb(100%,0%,0%)" r="0.7" /><circle cx="312.148483796" cy="384.429131186" fill="rgb(100%,0%,0%)" r="0.7" /><circle cx="312.15817607" cy="387.429040787" fill="rgb(100%,0%,0%)" r="0.7" /><circle cx="312.25093062" cy="390.427488229" fill="rgb(100%,0%,0%)" r="0.7" /><circle cx="312.444865937" cy="393.421043926" fill="rgb(100%,0%,0%)" r="0.7" /><circle cx="312.765448411" cy="396.403580453" fill="rgb(100%,0%,0%)" r="0.7" /><circle cx="313.250014096" cy="399.363663945" fill="rgb(100%,0%,0%)" r="0.7" /><circle cx="313.956055173" cy="402.278372149" fill="rgb(100%,0%,0%)" r="0.7" /><circle cx="314.689838261" cy="405.18280313" fill="rgb(100%,0%,0%)" r="0.7" /><circle cx="315.112486336" cy="408.152275725" fill="rgb(100%,0%,0%)" r="0.7" /><circle cx="315.335595626" cy="411.14342295" fill="rgb(100%,0%,0%)" r="0.7" /><circle cx="315.356182231" cy="414.142746243" fill="rgb(100%,0%,0%)" r="0.7" /><circle cx="315.158318673" cy="417.135482084" fill="rgb(100%,0%,0%)" r="0.7" /><circle cx="314.719366291" cy="420.102269796" fill="rgb(100%,0%,0%)" r="0.7" /><circle cx="316.1597122" cy="418.870145583" fill="rgb(100%,0%,0%)" r="0.7" /><circle cx="318.110732259" cy="416.591215849" fill="rgb(100%,0%,0%)" r="0.7" /><circle cx="320.061752317" cy="414.312286116" fill="rgb(100%,0%,0%)" r="0.7" /><circle cx="321.989583473" cy="413.287764647" fill="rgb(100%,0%,0%)" r="0.7" /><circle cx="323.855043062" cy="415.637245552" fill="rgb(100%,0%,0%)" r="0.7" /><circle cx="325.72050265" cy="417.986726457" fill="rgb(100%,0%,0%)" r="0.7" /><circle cx="327.585962239" cy="420.336207363" fill="rgb(100%,0%,0%)" r="0.7" /><circle cx="329.408" cy="422.631" fill="rgb(100%,0%,0%)" r="0.7" /><circle cx="327.229386577" cy="313.596921137" fill="rgb(0%,0%,100%)" r="0.7" /><circle cx="329.455060895" cy="315.55716241" fill="rgb(0%,0%,100%)" r="0.7" /><circle cx="330.575839069" cy="318.311246831" fill="rgb(0%,0%,100%)" r="0.7" /><circle cx="331.149447363" cy="321.255307496" fill="rgb(0%,0%,100%)" r="0.7" /><circle cx="331.589203976" cy="324.222801978" fill="rgb(0%,0%,100%)" r="0.7" /><circle cx="331.960583463" cy="327.199680324" fill="rgb(0%,0%,100%)" r="0.7" /><circle cx="332.288379445" cy="330.181708695" fill="rgb(0%,0%,100%)" r="0.7" /><circle cx="332.585134543" cy="333.16698334" fill="rgb(0%,0%,100%)" r="0.7" /><circle cx="332.858227107" cy="336.154528094" fill="rgb(0%,0%,100%)" r="0.7" /><circle cx="333.112414054" cy="339.143734472" fill="rgb(0%,0%,100%)" r="0.7" /><circle cx="333.350963628" cy="342.134234742" fill="rgb(0%,0%,100%)" r="0.7" /><circle cx="333.576217853" cy="345.125765489" fill="rgb(0%,0%,100%)" r="0.7" /><circle cx="333.789905996" cy="348.118144434" fill="rgb(0%,0%,100%)" r="0.7" /><circle cx="333.993325767" cy="351.11124429" fill="rgb(0%,0%,100%)" r="0.7" /><circle cx="334.187449199" cy="354.10495099" fill="rgb(0%,0%,100%)" r="0.7" /><circle cx="334.372985781" cy="357.099209477" fill="rgb(0%,0%,100%)" r="0.7" /><circle cx="334.550396988" cy="360.093968074" fill="rgb(0%,0%,100%)" r="0.7" /><circle cx="334.719854156" cy="363.089180426" fill="rgb(0%,0%,100%)" r="0.7" /><circle cx="334.881021262" cy="366.084839688" fill="rgb(0%,0%,100%)" r="0.7" /><circle cx="335.039201638" cy="369.080628694" fill="rgb(0%,0%,100%)" r="0.7" /><circle cx="335.167519176" cy="372.077784656" fill="rgb(0%,0%,100%)" r="0.7" /><circle cx="335.217206645" cy="375.077298394" fill="rgb(0%,0%,100%)" r="0.7" /><circle cx="335.196899382" cy="378.077169407" fill="rgb(0%,0%,100%)" r="0.7" /><circle cx="335.113736163" cy="381.075967926" fill="rgb(0%,0%,100%)" r="0.7" /><circle cx="334.973664901" cy="384.072655171" fill="rgb(0%,0%,100%)" r="0.7" /><circle cx="334.781672986" cy="387.066471395" fill="rgb(0%,0%,100%)" r="0.7" /><circle cx="334.541961829" cy="390.056851114" fill="rgb(0%,0%,100%)" r="0.7" /><circle cx="334.258079341" cy="393.043362349" fill="rgb(0%,0%,100%)" r="0.7" /><circle cx="333.933017384" cy="396.025681378" fill="rgb(0%,0%,100%)" r="0.7" /><circle cx="333.569287034" cy="399.003531209" fill="rgb(0%,0%,100%)" r="0.7" /><circle cx="333.168964294" cy="401.976684863" fill="rgb(0%,0%,100%)" r="0.7" /><circle cx="332.733716791" cy="404.944927653" fill="rgb(0%,0%,100%)" r="0.7" /><circle cx="332.264800423" cy="407.908037333" fill="rgb(0%,0%,100%)" r="0.7" /><circle cx="331.763013144" cy="410.865763154" fill="rgb(0%,0%,100%)" r="0.7" /><circle cx="331.228576923" cy="413.817752614" fill="rgb(0%,0%,100%)" r="0.7" /><circle cx="330.660818334" cy="416.763525323" fill="rgb(0%,0%,100%)" r="0.7" /><circle cx="330.05726214" cy="419.702172208" fill="rgb(0%,0%,100%)" r="0.7" /><circle cx="329.408" cy="422.631" fill="rgb(0%,0%,100%)" r="0.7" /></svg>