<?xml version="1.0" encoding="utf-8" ?>
<svg baseProfile="full" height="100%" version="1.1" width="100%" xmlns="http://www.w3.org/2000/svg" xmlns:ev="http://www.w3.org/2001/xml-events" xmlns:xlink="http://www.w3.org/1999/xlink"><defs /><circle cx="291.45088769" cy="317.679503395" fill="rgb(100%,0%,0%)" r="0.7" /><circle cx="288.957256965" cy="319.149576621" fill="rgb(100%,0%,0%)" r="0.7" /><circle cx="286.959425493" cy="321.38758541" fill="rgb(100%,0%,0%)" r="0.7" /><circle cx="284.961459464" cy="323.625474562" fill="rgb(100%,0%,0%)" r="0.7" /><circle cx="282.963454477" cy="325.863328442" fill="rgb(100%,0%,0%)" r="0.7" /><circle cx="280.965423867" cy="328.101162826" fill="rgb(100%,0%,0%)" r="0.7" /><circle cx="279.305462853" cy="330.590310515" fill="rgb(100%,0%,0%)" r="0.7" /><circle cx="277.690691402" cy="333.11860094" fill="rgb(100%,0%,0%)" r="0.7" /><circle cx="276.032191466" cy="335.618436735" fill="rgb(100%,0%,0%)" r="0.7" /><circle cx="274.332981058" cy="338.090777145" fill="rgb(100%,0%,0%)" r="0.7" /><circle cx="272.4063226" cy="340.386412484" fill="rgb(100%,0%,0%)" r="0.7" /><circle cx="270.548546167" cy="342.741251815" fill="rgb(100%,0%,0%)" r="0.7" /><circle cx="268.868146693" cy="345.225558332" fill="rgb(100%,0%,0%)" r="0.7" /><circle cx="267.375828496" cy="347.82738417" fill="rgb(100%,0%,0%)" r="0.7" /><circle cx="266.034483678" cy="350.510523031" fill="rgb(100%,0%,0%)" r="0.7" /><circle cx="264.786267809" cy="353.238434649" fill="rgb(100%,0%,0%)" r="0.7" /><circle cx="263.58314381" cy="355.986601275" fill="rgb(100%,0%,0%)" r="0.7" /><circle cx="262.394842777" cy="358.741221284" fill="rgb(100%,0%,0%)" r="0.7" /><circle cx="261.204648182" cy="361.495021363" fill="rgb(100%,0%,0%)" r="0.7" /><circle cx="260.004004809" cy="364.244283136" fill="rgb(100%,0%,0%)" r="0.7" /><circle cx="258.788876529" cy="366.98716788" fill="rgb(100%,0%,0%)" r="0.7" /><circle cx="257.559581364" cy="369.723747719" fill="rgb(100%,0%,0%)" r="0.7" /><circle cx="256.478620771" cy="372.521057538" fill="rgb(100%,0%,0%)" r="0.7" /><circle cx="255.67543628" cy="375.410210453" fill="rgb(100%,0%,0%)" r="0.7" /><circle cx="255.176307217" cy="378.3669647" fill="rgb(100%,0%,0%)" r="0.7" /><circle cx="254.998713038" cy="381.360211535" fill="rgb(100%,0%,0%)" r="0.7" /><circle cx="255.148353982" cy="384.354993962" fill="rgb(100%,0%,0%)" r="0.7" /><circle cx="255.618694159" cy="387.316473694" fill="rgb(100%,0%,0%)" r="0.7" /><circle cx="256.393181852" cy="390.213449678" fill="rgb(100%,0%,0%)" r="0.7" /><circle cx="257.449306712" cy="393.020173808" fill="rgb(100%,0%,0%)" r="0.7" /><circle cx="258.763326715" cy="395.715920212" fill="rgb(100%,0%,0%)" r="0.7" /><circle cx="260.315512652" cy="398.281983341" fill="rgb(100%,0%,0%)" r="0.7" /><circle cx="262.100321154" cy="400.691751962" fill="rgb(100%,0%,0%)" r="0.7" /><circle cx="264.185567677" cy="402.844818222" fill="rgb(100%,0%,0%)" r="0.7" /><circle cx="266.342169985" cy="404.930259778" fill="rgb(100%,0%,0%)" r="0.7" /><circle cx="268.498772294" cy="407.015701333" fill="rgb(100%,0%,0%)" r="0.7" /><circle cx="270.655374603" cy="409.101142889" fill="rgb(100%,0%,0%)" r="0.7" /><circle cx="272.811976912" cy="411.186584445" fill="rgb(100%,0%,0%)" r="0.7" /><circle cx="274.968579221" cy="413.272026" fill="rgb(100%,0%,0%)" r="0.7" /><circle cx="277.125181529" cy="415.357467556" fill="rgb(100%,0%,0%)" r="0.7" /><circle cx="279.281783838" cy="417.442909111" fill="rgb(100%,0%,0%)" r="0.7" /><circle cx="281.438386147" cy="419.528350667" fill="rgb(100%,0%,0%)" r="0.7" /><circle cx="283.594988456" cy="421.613792222" fill="rgb(100%,0%,0%)" r="0.7" /><circle cx="285.751590765" cy="423.699233778" fill="rgb(100%,0%,0%)" r="0.7" /><circle cx="287.908193074" cy="425.784675333" fill="rgb(100%,0%,0%)" r="0.7" /><circle cx="290.064795382" cy="427.870116889" fill="rgb(100%,0%,0%)" r="0.7" /><circle cx="292.221397691" cy="429.955558444" fill="rgb(100%,0%,0%)" r="0.7" /><circle cx="294.378" cy="432.041" fill="rgb(100%,0%,0%)" r="0.7" /><circle cx="291.45088769" cy="317.679503395" fill="rgb(0%,0%,100%)" r="0.7" /><circle cx="294.225274955" cy="318.670438378" fill="rgb(0%,0%,100%)" r="0.7" /><circle cx="296.398476369" cy="320.727844728" fill="rgb(0%,0%,100%)" r="0.7" /><circle cx="298.191178745" cy="323.13105939" fill="rgb(0%,0%,100%)" r="0.7" /><circle cx="299.979258812" cy="325.505675275" fill="rgb(0%,0%,100%)" r="0.7" /><circle cx="300.76502889" cy="328.350152154" fill="rgb(0%,0%,100%)" r="0.7" /><circle cx="300.263671611" cy="331.297373489" fill="rgb(0%,0%,100%)" r="0.7" /><circle cx="299.15092265" cy="334.08023005" fill="rgb(0%,0%,100%)" r="0.7" /><circle cx="297.710459519" cy="336.71049926" fill="rgb(0%,0%,100%)" r="0.7" /><circle cx="296.067281141" cy="339.21984704" fill="rgb(0%,0%,100%)" r="0.7" /><circle cx="294.305180922" cy="341.647698413" fill="rgb(0%,0%,100%)" r="0.7" /><circle cx="292.574646186" cy="344.098224747" fill="rgb(0%,0%,100%)" r="0.7" /><circle cx="290.881682281" cy="346.574857956" fill="rgb(0%,0%,100%)" r="0.7" /><circle cx="289.229273919" cy="349.078721821" fill="rgb(0%,0%,100%)" r="0.7" /><circle cx="287.623980667" cy="351.613031771" fill="rgb(0%,0%,100%)" r="0.7" /><circle cx="286.07657004" cy="354.183060874" fill="rgb(0%,0%,100%)" r="0.7" /><circle cx="284.604587408" cy="356.796953572" fill="rgb(0%,0%,100%)" r="0.7" /><circle cx="283.238580603" cy="359.467590382" fill="rgb(0%,0%,100%)" r="0.7" /><circle cx="282.039099663" cy="362.21652861" fill="rgb(0%,0%,100%)" r="0.7" /><circle cx="280.87265302" cy="364.973110478" fill="rgb(0%,0%,100%)" r="0.7" /><circle cx="280.06735823" cy="367.857807527" fill="rgb(0%,0%,100%)" r="0.7" /><circle cx="279.804808276" cy="370.842580478" fill="rgb(0%,0%,100%)" r="0.7" /><circle cx="280.029366478" cy="373.831213024" fill="rgb(0%,0%,100%)" r="0.7" /><circle cx="280.681483161" cy="376.757140854" fill="rgb(0%,0%,100%)" r="0.7" /><circle cx="281.695639315" cy="379.578722223" fill="rgb(0%,0%,100%)" r="0.7" /><circle cx="283.008312723" cy="382.274902728" fill="rgb(0%,0%,100%)" r="0.7" /><circle cx="284.563692135" cy="384.839153448" fill="rgb(0%,0%,100%)" r="0.7" /><circle cx="286.288159937" cy="387.293783441" fill="rgb(0%,0%,100%)" r="0.7" /><circle cx="288.061447295" cy="389.713555363" fill="rgb(0%,0%,100%)" r="0.7" /><circle cx="289.866439063" cy="392.109779333" fill="rgb(0%,0%,100%)" r="0.7" /><circle cx="291.700874717" cy="394.48354799" fill="rgb(0%,0%,100%)" r="0.7" /><circle cx="293.564902471" cy="396.834133388" fill="rgb(0%,0%,100%)" r="0.7" /><circle cx="295.459845262" cy="399.159874017" fill="rgb(0%,0%,100%)" r="0.7" /><circle cx="297.387881215" cy="401.458244565" fill="rgb(0%,0%,100%)" r="0.7" /><circle cx="299.352061117" cy="403.725797286" fill="rgb(0%,0%,100%)" r="0.7" /><circle cx="301.356422924" cy="405.957896529" fill="rgb(0%,0%,100%)" r="0.7" /><circle cx="303.406253864" cy="408.148291688" fill="rgb(0%,0%,100%)" r="0.7" /><circle cx="305.508506127" cy="410.288386685" fill="rgb(0%,0%,100%)" r="0.7" /><circle cx="307.67246898" cy="412.366001831" fill="rgb(0%,0%,100%)" r="0.7" /><circle cx="309.910826262" cy="414.363119496" fill="rgb(0%,0%,100%)" r="0.7" /><circle cx="307.033286028" cy="414.870611402" fill="rgb(0%,0%,100%)" r="0.7" /><circle cx="304.072633435" cy="415.3549008" fill="rgb(0%,0%,100%)" r="0.7" /><circle cx="301.111980841" cy="415.839190197" fill="rgb(0%,0%,100%)" r="0.7" /><circle cx="298.151328248" cy="416.323479595" fill="rgb(0%,0%,100%)" r="0.7" /><circle cx="295.190675654" cy="416.807768992" fill="rgb(0%,0%,100%)" r="0.7" /><circle cx="292.230023061" cy="417.29205839" fill="rgb(0%,0%,100%)" r="0.7" /><circle cx="291.302623001" cy="419.130101877" fill="rgb(0%,0%,100%)" r="0.7" /><circle cx="291.997774138" cy="422.048451564" fill="rgb(0%,0%,100%)" r="0.7" /><circle cx="292.692925274" cy="424.966801252" fill="rgb(0%,0%,100%)" r="0.7" /><circle cx="293.388076411" cy="427.885150939" fill="rgb(0%,0%,100%)" r="0.7" /><circle cx="294.083227547" cy="430.803500626" fill="rgb(0%,0%,100%)" r="0.7" /><circle cx="294.378" cy="432.041" fill="rgb(0%,0%,100%)" r="0.7" /></svg>