<?xml version="1.0" encoding="utf-8" ?>
<svg baseProfile="full" height="100%" version="1.1" width="100%" xmlns="http://www.w3.org/2000/svg" xmlns:ev="http://www.w3.org/2001/xml-events" xmlns:xlink="http://www.w3.org/1999/xlink"><defs /><circle cx="318.169659667" cy="258.792513087" fill="rgb(100%,0%,0%)" r="0.7" /><circle cx="315.172632974" cy="258.866969995" fill="rgb(100%,0%,0%)" r="0.7" /><circle cx="312.213877461" cy="259.346864817" fill="rgb(100%,0%,0%)" r="0.7" /><circle cx="309.36032454" cy="260.262927626" fill="rgb(100%,0%,0%)" r="0.7" /><circle cx="306.686199823" cy="261.615759969" fill="rgb(100%,0%,0%)" r="0.7" /><circle cx="304.255144951" cy="263.3686145" fill="rgb(100%,0%,0%)" r="0.7" /><circle cx="302.104139478" cy="265.456401893" fill="rgb(100%,0%,0%)" r="0.7" /><circle cx="300.234116577" cy="267.799807982" fill="rgb(100%,0%,0%)" r="0.7" /><circle cx="298.308213799" cy="270.098756203" fill="rgb(100%,0%,0%)" r="0.7" /><circle cx="296.537106261" cy="272.519702546" fill="rgb(100%,0%,0%)" r="0.7" /><circle cx="294.889401362" cy="275.026380334" fill="rgb(100%,0%,0%)" r="0.7" /><circle cx="293.356044131" cy="277.604644365" fill="rgb(100%,0%,0%)" r="0.7" /><circle cx="291.93311298" cy="280.245475816" fill="rgb(100%,0%,0%)" r="0.7" /><circle cx="290.618798317" cy="282.942032183" fill="rgb(100%,0%,0%)" r="0.7" /><circle cx="289.412335653" cy="285.688527865" fill="rgb(100%,0%,0%)" r="0.7" /><circle cx="288.313448377" cy="288.479827753" fill="rgb(100%,0%,0%)" r="0.7" /><circle cx="287.322097239" cy="291.311108513" fill="rgb(100%,0%,0%)" r="0.7" /><circle cx="286.438277175" cy="294.177772741" fill="rgb(100%,0%,0%)" r="0.7" /><circle cx="285.661895397" cy="297.075394441" fill="rgb(100%,0%,0%)" r="0.7" /><circle cx="284.992703448" cy="299.999643053" fill="rgb(100%,0%,0%)" r="0.7" /><circle cx="284.430239294" cy="302.946267695" fill="rgb(100%,0%,0%)" r="0.7" /><circle cx="283.973776298" cy="305.91118461" fill="rgb(100%,0%,0%)" r="0.7" /><circle cx="283.622326819" cy="308.890366483" fill="rgb(100%,0%,0%)" r="0.7" /><circle cx="283.374616011" cy="311.879983497" fill="rgb(100%,0%,0%)" r="0.7" /><circle cx="283.229099976" cy="314.876300176" fill="rgb(100%,0%,0%)" r="0.7" /><circle cx="283.183967852" cy="317.875822724" fill="rgb(100%,0%,0%)" r="0.7" /><circle cx="283.237169058" cy="320.875228525" fill="rgb(100%,0%,0%)" r="0.7" /><circle cx="283.386433647" cy="323.871375575" fill="rgb(100%,0%,0%)" r="0.7" /><circle cx="283.62930534" cy="326.861410426" fill="rgb(100%,0%,0%)" r="0.7" /><circle cx="283.963167481" cy="329.842659014" fill="rgb(100%,0%,0%)" r="0.7" /><circle cx="284.385280032" cy="332.812715905" fill="rgb(100%,0%,0%)" r="0.7" /><circle cx="284.867025198" cy="335.773739853" fill="rgb(100%,0%,0%)" r="0.7" /><circle cx="285.355290875" cy="338.733726912" fill="rgb(100%,0%,0%)" r="0.7" /><circle cx="285.86382466" cy="341.690299892" fill="rgb(100%,0%,0%)" r="0.7" /><circle cx="286.390014572" cy="344.643804391" fill="rgb(100%,0%,0%)" r="0.7" /><circle cx="286.933058344" cy="347.594229297" fill="rgb(100%,0%,0%)" r="0.7" /><circle cx="287.492846565" cy="350.541548819" fill="rgb(100%,0%,0%)" r="0.7" /><circle cx="288.06963572" cy="353.485575037" fill="rgb(100%,0%,0%)" r="0.7" /><circle cx="288.66396705" cy="356.42610666" fill="rgb(100%,0%,0%)" r="0.7" /><circle cx="289.276616704" cy="359.362876695" fill="rgb(100%,0%,0%)" r="0.7" /><circle cx="289.908588148" cy="362.295550412" fill="rgb(100%,0%,0%)" r="0.7" /><circle cx="290.561124774" cy="365.22371881" fill="rgb(100%,0%,0%)" r="0.7" /><circle cx="291.235736744" cy="368.146877693" fill="rgb(100%,0%,0%)" r="0.7" /><circle cx="291.934248152" cy="371.064417112" fill="rgb(100%,0%,0%)" r="0.7" /><circle cx="292.658859377" cy="373.975582035" fill="rgb(100%,0%,0%)" r="0.7" /><circle cx="293.412237991" cy="376.879432683" fill="rgb(100%,0%,0%)" r="0.7" /><circle cx="294.19764449" cy="379.774780781" fill="rgb(100%,0%,0%)" r="0.7" /><circle cx="295.01911148" cy="382.660099685" fill="rgb(100%,0%,0%)" r="0.7" /><circle cx="295.881702662" cy="385.533386286" fill="rgb(100%,0%,0%)" r="0.7" /><circle cx="296.791896105" cy="388.391937108" fill="rgb(100%,0%,0%)" r="0.7" /><circle cx="297.758178591" cy="391.231994635" fill="rgb(100%,0%,0%)" r="0.7" /><circle cx="298.792006136" cy="394.048145286" fill="rgb(100%,0%,0%)" r="0.7" /><circle cx="299.909405648" cy="396.832132504" fill="rgb(100%,0%,0%)" r="0.7" /><circle cx="301.233434687" cy="399.523512838" fill="rgb(100%,0%,0%)" r="0.7" /><circle cx="302.578043672" cy="402.205334159" fill="rgb(100%,0%,0%)" r="0.7" /><circle cx="303.925539907" cy="404.885651185" fill="rgb(100%,0%,0%)" r="0.7" /><circle cx="305.275664825" cy="407.564677412" fill="rgb(100%,0%,0%)" r="0.7" /><circle cx="306.628289331" cy="410.242465103" fill="rgb(100%,0%,0%)" r="0.7" /><circle cx="307.983336312" cy="412.918982997" fill="rgb(100%,0%,0%)" r="0.7" /><circle cx="309.340835383" cy="415.594302037" fill="rgb(100%,0%,0%)" r="0.7" /><circle cx="310.700775134" cy="418.26833742" fill="rgb(100%,0%,0%)" r="0.7" /><circle cx="312.063231221" cy="420.941117557" fill="rgb(100%,0%,0%)" r="0.7" /><circle cx="313.428258741" cy="423.612580308" fill="rgb(100%,0%,0%)" r="0.7" /><circle cx="314.795948021" cy="426.282686209" fill="rgb(100%,0%,0%)" r="0.7" /><circle cx="316.166395997" cy="428.951362936" fill="rgb(100%,0%,0%)" r="0.7" /><circle cx="317.539736174" cy="431.618562064" fill="rgb(100%,0%,0%)" r="0.7" /><circle cx="318.916111319" cy="434.284202304" fill="rgb(100%,0%,0%)" r="0.7" /><circle cx="320.295680714" cy="436.948178478" fill="rgb(100%,0%,0%)" r="0.7" /><circle cx="321.678644512" cy="439.610401276" fill="rgb(100%,0%,0%)" r="0.7" /><circle cx="323.065220726" cy="442.270743213" fill="rgb(100%,0%,0%)" r="0.7" /><circle cx="324.455664753" cy="444.929063981" fill="rgb(100%,0%,0%)" r="0.7" /><circle cx="325.85027318" cy="447.585201784" fill="rgb(100%,0%,0%)" r="0.7" /><circle cx="327.2493925" cy="450.238969389" fill="rgb(100%,0%,0%)" r="0.7" /><circle cx="328.653426288" cy="452.890140939" fill="rgb(100%,0%,0%)" r="0.7" /><circle cx="330.062848258" cy="455.538441329" fill="rgb(100%,0%,0%)" r="0.7" /><circle cx="331.47823812" cy="458.183565942" fill="rgb(100%,0%,0%)" r="0.7" /><circle cx="332.900280862" cy="460.825113899" fill="rgb(100%,0%,0%)" r="0.7" /><circle cx="334.329833563" cy="463.462621086" fill="rgb(100%,0%,0%)" r="0.7" /><circle cx="335.767937632" cy="466.095450964" fill="rgb(100%,0%,0%)" r="0.7" /><circle cx="337.215958442" cy="468.722854921" fill="rgb(100%,0%,0%)" r="0.7" /><circle cx="338.67565561" cy="471.343795165" fill="rgb(100%,0%,0%)" r="0.7" /><circle cx="340.149403578" cy="473.956849288" fill="rgb(100%,0%,0%)" r="0.7" /><circle cx="341.64055644" cy="476.560005567" fill="rgb(100%,0%,0%)" r="0.7" /><circle cx="343.154099801" cy="479.150206193" fill="rgb(100%,0%,0%)" r="0.7" /><circle cx="344.698024087" cy="481.722370838" fill="rgb(100%,0%,0%)" r="0.7" /><circle cx="346.286828504" cy="484.267077107" fill="rgb(100%,0%,0%)" r="0.7" /><circle cx="347.952429495" cy="486.761941549" fill="rgb(100%,0%,0%)" r="0.7" /><circle cx="318.169659667" cy="258.792513087" fill="rgb(0%,0%,100%)" r="0.7" /><circle cx="321.15437498" cy="259.078704571" fill="rgb(0%,0%,100%)" r="0.7" /><circle cx="324.091864815" cy="259.681566968" fill="rgb(0%,0%,100%)" r="0.7" /><circle cx="326.956162081" cy="260.569735936" fill="rgb(0%,0%,100%)" r="0.7" /><circle cx="329.726246749" cy="261.716475151" fill="rgb(0%,0%,100%)" r="0.7" /><circle cx="332.485606631" cy="262.889556023" fill="rgb(0%,0%,100%)" r="0.7" /><circle cx="335.081837894" cy="264.388603822" fill="rgb(0%,0%,100%)" r="0.7" /><circle cx="337.45354707" cy="266.221759539" fill="rgb(0%,0%,100%)" r="0.7" /><circle cx="339.541939433" cy="268.371913558" fill="rgb(0%,0%,100%)" r="0.7" /><circle cx="341.304434457" cy="270.796562444" fill="rgb(0%,0%,100%)" r="0.7" /><circle cx="342.723620599" cy="273.437244455" fill="rgb(0%,0%,100%)" r="0.7" /><circle cx="343.806523111" cy="276.23315104" fill="rgb(0%,0%,100%)" r="0.7" /><circle cx="344.576490152" cy="279.131288229" fill="rgb(0%,0%,100%)" r="0.7" /><circle cx="345.063715709" cy="282.0904289" fill="rgb(0%,0%,100%)" r="0.7" /><circle cx="345.298097638" cy="285.080458433" fill="rgb(0%,0%,100%)" r="0.7" /><circle cx="345.304762736" cy="288.079797773" fill="rgb(0%,0%,100%)" r="0.7" /><circle cx="345.100340304" cy="291.072220372" fill="rgb(0%,0%,100%)" r="0.7" /><circle cx="344.68292299" cy="294.042312221" fill="rgb(0%,0%,100%)" r="0.7" /><circle cx="343.982965286" cy="296.955129766" fill="rgb(0%,0%,100%)" r="0.7" /><circle cx="342.775930362" cy="299.699128855" fill="rgb(0%,0%,100%)" r="0.7" /><circle cx="341.301105878" cy="302.310803401" fill="rgb(0%,0%,100%)" r="0.7" /><circle cx="339.67430381" cy="304.831085133" fill="rgb(0%,0%,100%)" r="0.7" /><circle cx="337.947115225" cy="307.283830388" fill="rgb(0%,0%,100%)" r="0.7" /><circle cx="336.147130112" cy="309.683734541" fill="rgb(0%,0%,100%)" r="0.7" /><circle cx="334.290801271" cy="312.040363633" fill="rgb(0%,0%,100%)" r="0.7" /><circle cx="332.388574831" cy="314.360130883" fill="rgb(0%,0%,100%)" r="0.7" /><circle cx="330.447204509" cy="316.6472463" fill="rgb(0%,0%,100%)" r="0.7" /><circle cx="328.47067639" cy="318.904045241" fill="rgb(0%,0%,100%)" r="0.7" /><circle cx="326.459730916" cy="321.130241693" fill="rgb(0%,0%,100%)" r="0.7" /><circle cx="324.53652188" cy="323.42559623" fill="rgb(0%,0%,100%)" r="0.7" /><circle cx="323.179505249" cy="326.095884197" fill="rgb(0%,0%,100%)" r="0.7" /><circle cx="322.244255451" cy="328.944497416" fill="rgb(0%,0%,100%)" r="0.7" /><circle cx="321.594164239" cy="331.872369668" fill="rgb(0%,0%,100%)" r="0.7" /><circle cx="321.148883149" cy="334.83869513" fill="rgb(0%,0%,100%)" r="0.7" /><circle cx="320.859508778" cy="337.824438907" fill="rgb(0%,0%,100%)" r="0.7" /><circle cx="320.694979887" cy="340.819746662" fill="rgb(0%,0%,100%)" r="0.7" /><circle cx="320.635265189" cy="343.819021375" fill="rgb(0%,0%,100%)" r="0.7" /><circle cx="320.668329067" cy="346.818727828" fill="rgb(0%,0%,100%)" r="0.7" /><circle cx="320.790901661" cy="349.816104398" fill="rgb(0%,0%,100%)" r="0.7" /><circle cx="321.099280183" cy="352.797846464" fill="rgb(0%,0%,100%)" r="0.7" /><circle cx="321.782412701" cy="355.717678678" fill="rgb(0%,0%,100%)" r="0.7" /><circle cx="322.707615135" cy="358.570842334" fill="rgb(0%,0%,100%)" r="0.7" /><circle cx="323.797196443" cy="361.365651945" fill="rgb(0%,0%,100%)" r="0.7" /><circle cx="325.006410378" cy="364.110965891" fill="rgb(0%,0%,100%)" r="0.7" /><circle cx="326.307217878" cy="366.814158833" fill="rgb(0%,0%,100%)" r="0.7" /><circle cx="327.680889633" cy="369.481101936" fill="rgb(0%,0%,100%)" r="0.7" /><circle cx="329.114288785" cy="372.116451876" fill="rgb(0%,0%,100%)" r="0.7" /><circle cx="330.597835034" cy="374.723911359" fill="rgb(0%,0%,100%)" r="0.7" /><circle cx="332.124339719" cy="377.306471199" fill="rgb(0%,0%,100%)" r="0.7" /><circle cx="333.688270636" cy="379.866547602" fill="rgb(0%,0%,100%)" r="0.7" /><circle cx="335.285297983" cy="382.406111552" fill="rgb(0%,0%,100%)" r="0.7" /><circle cx="336.911997031" cy="384.926781929" fill="rgb(0%,0%,100%)" r="0.7" /><circle cx="338.565632793" cy="387.429865138" fill="rgb(0%,0%,100%)" r="0.7" /><circle cx="340.244035017" cy="389.916409462" fill="rgb(0%,0%,100%)" r="0.7" /><circle cx="341.945509516" cy="392.387216749" fill="rgb(0%,0%,100%)" r="0.7" /><circle cx="343.668816647" cy="394.842861445" fill="rgb(0%,0%,100%)" r="0.7" /><circle cx="345.413161882" cy="397.283607631" fill="rgb(0%,0%,100%)" r="0.7" /><circle cx="347.1783407" cy="399.709314741" fill="rgb(0%,0%,100%)" r="0.7" /><circle cx="348.96521138" cy="402.119109078" fill="rgb(0%,0%,100%)" r="0.7" /><circle cx="350.778143367" cy="404.509300776" fill="rgb(0%,0%,100%)" r="0.7" /><circle cx="352.656092744" cy="406.848725343" fill="rgb(0%,0%,100%)" r="0.7" /><circle cx="354.535840815" cy="409.186801132" fill="rgb(0%,0%,100%)" r="0.7" /><circle cx="356.41466336" cy="411.525608062" fill="rgb(0%,0%,100%)" r="0.7" /><circle cx="358.292826906" cy="413.864947804" fill="rgb(0%,0%,100%)" r="0.7" /><circle cx="360.170493956" cy="416.2047044" fill="rgb(0%,0%,100%)" r="0.7" /><circle cx="362.04774901" cy="418.544774244" fill="rgb(0%,0%,100%)" r="0.7" /><circle cx="363.924670195" cy="420.885108943" fill="rgb(0%,0%,100%)" r="0.7" /><circle cx="365.80130855" cy="423.225665694" fill="rgb(0%,0%,100%)" r="0.7" /><circle cx="367.677707409" cy="425.566418076" fill="rgb(0%,0%,100%)" r="0.7" /><circle cx="369.553898262" cy="427.907342854" fill="rgb(0%,0%,100%)" r="0.7" /><circle cx="371.429899937" cy="430.248413874" fill="rgb(0%,0%,100%)" r="0.7" /><circle cx="373.305736476" cy="432.589621001" fill="rgb(0%,0%,100%)" r="0.7" /><circle cx="375.181421634" cy="434.930948484" fill="rgb(0%,0%,100%)" r="0.7" /><circle cx="377.056969144" cy="437.272386149" fill="rgb(0%,0%,100%)" r="0.7" /><circle cx="378.932389868" cy="439.613924686" fill="rgb(0%,0%,100%)" r="0.7" /><circle cx="380.80769508" cy="441.95555889" fill="rgb(0%,0%,100%)" r="0.7" /><circle cx="382.682888725" cy="444.297277376" fill="rgb(0%,0%,100%)" r="0.7" /><circle cx="384.557983682" cy="446.639082418" fill="rgb(0%,0%,100%)" r="0.7" /><circle cx="386.432978778" cy="448.980960908" fill="rgb(0%,0%,100%)" r="0.7" /><circle cx="388.30788145" cy="451.322912422" fill="rgb(0%,0%,100%)" r="0.7" /><circle cx="390.182692755" cy="453.664930366" fill="rgb(0%,0%,100%)" r="0.7" /><circle cx="392.057432257" cy="456.007033029" fill="rgb(0%,0%,100%)" r="0.7" /><circle cx="393.932073842" cy="458.349183513" fill="rgb(0%,0%,100%)" r="0.7" /><circle cx="395.806642493" cy="460.69141094" fill="rgb(0%,0%,100%)" r="0.7" /><circle cx="397.68113109" cy="463.033707267" fill="rgb(0%,0%,100%)" r="0.7" /><circle cx="399.555511027" cy="465.376042297" fill="rgb(0%,0%,100%)" r="0.7" /><circle cx="401.429837397" cy="467.71850028" fill="rgb(0%,0%,100%)" r="0.7" /><circle cx="403.304" cy="470.061" fill="rgb(0%,0%,100%)" r="0.7" /><circle cx="402.116837497" cy="469.984298905" fill="rgb(0%,0%,100%)" r="0.7" /><circle cx="399.1230794" cy="469.790875912" fill="rgb(0%,0%,100%)" r="0.7" /><circle cx="396.129321302" cy="469.59745292" fill="rgb(0%,0%,100%)" r="0.7" /><circle cx="393.135563205" cy="469.404029927" fill="rgb(0%,0%,100%)" r="0.7" /><circle cx="390.141805107" cy="469.210606934" fill="rgb(0%,0%,100%)" r="0.7" /><circle cx="387.14804701" cy="469.017183942" fill="rgb(0%,0%,100%)" r="0.7" /><circle cx="384.154288912" cy="468.823760949" fill="rgb(0%,0%,100%)" r="0.7" /><circle cx="381.160530815" cy="468.630337956" fill="rgb(0%,0%,100%)" r="0.7" /><circle cx="378.166772718" cy="468.436914964" fill="rgb(0%,0%,100%)" r="0.7" /><circle cx="375.17301462" cy="468.243491971" fill="rgb(0%,0%,100%)" r="0.7" /><circle cx="372.179256523" cy="468.050068978" fill="rgb(0%,0%,100%)" r="0.7" /><circle cx="369.185498425" cy="467.856645986" fill="rgb(0%,0%,100%)" r="0.7" /><circle cx="366.191740328" cy="467.663222993" fill="rgb(0%,0%,100%)" r="0.7" /><circle cx="363.19798223" cy="467.469800001" fill="rgb(0%,0%,100%)" r="0.7" /><circle cx="360.204224133" cy="467.276377008" fill="rgb(0%,0%,100%)" r="0.7" /><circle cx="357.210466036" cy="467.082954015" fill="rgb(0%,0%,100%)" r="0.7" /><circle cx="355.351113188" cy="468.625780233" fill="rgb(0%,0%,100%)" r="0.7" /><circle cx="354.325795668" cy="471.445128382" fill="rgb(0%,0%,100%)" r="0.7" /><circle cx="353.300478148" cy="474.264476531" fill="rgb(0%,0%,100%)" r="0.7" /><circle cx="352.275160628" cy="477.083824679" fill="rgb(0%,0%,100%)" r="0.7" /><circle cx="351.249843108" cy="479.903172828" fill="rgb(0%,0%,100%)" r="0.7" /><circle cx="350.224525588" cy="482.722520976" fill="rgb(0%,0%,100%)" r="0.7" /><circle cx="349.199208068" cy="485.541869125" fill="rgb(0%,0%,100%)" r="0.7" /><circle cx="347.952429495" cy="486.761941549" fill="rgb(0%,0%,100%)" r="0.7" /></svg>