<?xml version="1.0" encoding="utf-8" ?>
<svg baseProfile="full" height="100%" version="1.1" width="100%" xmlns="http://www.w3.org/2000/svg" xmlns:ev="http://www.w3.org/2001/xml-events" xmlns:xlink="http://www.w3.org/1999/xlink"><defs /><circle cx="330.499969426" cy="273.544488083" fill="rgb(100%,0%,0%)" r="0.7" /><circle cx="327.532758838" cy="273.688456102" fill="rgb(100%,0%,0%)" r="0.7" /><circle cx="324.76528949" cy="274.829144811" fill="rgb(100%,0%,0%)" r="0.7" /><circle cx="322.230622607" cy="276.430194929" fill="rgb(100%,0%,0%)" r="0.7" /><circle cx="319.870429104" cy="278.280755685" fill="rgb(100%,0%,0%)" r="0.7" /><circle cx="317.64047845" cy="280.286980759" fill="rgb(100%,0%,0%)" r="0.7" /><circle cx="315.510746932" cy="282.397228986" fill="rgb(100%,0%,0%)" r="0.7" /><circle cx="313.563207303" cy="284.678533106" fill="rgb(100%,0%,0%)" r="0.7" /><circle cx="311.738795018" cy="287.059688027" fill="rgb(100%,0%,0%)" r="0.7" /><circle cx="310.014356004" cy="289.514314015" fill="rgb(100%,0%,0%)" r="0.7" /><circle cx="308.375941227" cy="292.027269287" fill="rgb(100%,0%,0%)" r="0.7" /><circle cx="306.813835701" cy="294.588342264" fill="rgb(100%,0%,0%)" r="0.7" /><circle cx="305.320602081" cy="297.190232783" fill="rgb(100%,0%,0%)" r="0.7" /><circle cx="303.890371384" cy="299.827273065" fill="rgb(100%,0%,0%)" r="0.7" /><circle cx="302.518265156" cy="302.495050979" fill="rgb(100%,0%,0%)" r="0.7" /><circle cx="301.200189445" cy="305.189938027" fill="rgb(100%,0%,0%)" r="0.7" /><circle cx="299.93261709" cy="307.908937038" fill="rgb(100%,0%,0%)" r="0.7" /><circle cx="298.712452066" cy="310.64956584" fill="rgb(100%,0%,0%)" r="0.7" /><circle cx="297.536984777" cy="313.409658934" fill="rgb(100%,0%,0%)" r="0.7" /><circle cx="296.403787544" cy="316.187378358" fill="rgb(100%,0%,0%)" r="0.7" /><circle cx="295.310682248" cy="318.981120834" fill="rgb(100%,0%,0%)" r="0.7" /><circle cx="294.255708688" cy="321.789455691" fill="rgb(100%,0%,0%)" r="0.7" /><circle cx="293.237044236" cy="324.611228054" fill="rgb(100%,0%,0%)" r="0.7" /><circle cx="292.253084461" cy="327.445246834" fill="rgb(100%,0%,0%)" r="0.7" /><circle cx="291.302312971" cy="330.290564332" fill="rgb(100%,0%,0%)" r="0.7" /><circle cx="290.383326488" cy="333.146353749" fill="rgb(100%,0%,0%)" r="0.7" /><circle cx="289.494870642" cy="336.011735598" fill="rgb(100%,0%,0%)" r="0.7" /><circle cx="288.63572536" cy="338.886090322" fill="rgb(100%,0%,0%)" r="0.7" /><circle cx="287.804807125" cy="341.768688113" fill="rgb(100%,0%,0%)" r="0.7" /><circle cx="287.001059146" cy="344.659018238" fill="rgb(100%,0%,0%)" r="0.7" /><circle cx="286.223533321" cy="347.556474062" fill="rgb(100%,0%,0%)" r="0.7" /><circle cx="285.47130524" cy="350.460628664" fill="rgb(100%,0%,0%)" r="0.7" /><circle cx="284.743530527" cy="353.371003001" fill="rgb(100%,0%,0%)" r="0.7" /><circle cx="284.039402151" cy="356.287203632" fill="rgb(100%,0%,0%)" r="0.7" /><circle cx="283.358167362" cy="359.208835499" fill="rgb(100%,0%,0%)" r="0.7" /><circle cx="282.699117334" cy="362.135521979" fill="rgb(100%,0%,0%)" r="0.7" /><circle cx="282.061562825" cy="365.066998373" fill="rgb(100%,0%,0%)" r="0.7" /><circle cx="281.444876011" cy="368.002907533" fill="rgb(100%,0%,0%)" r="0.7" /><circle cx="280.848440242" cy="370.943014738" fill="rgb(100%,0%,0%)" r="0.7" /><circle cx="280.271678242" cy="373.887065154" fill="rgb(100%,0%,0%)" r="0.7" /><circle cx="279.714052347" cy="376.834761374" fill="rgb(100%,0%,0%)" r="0.7" /><circle cx="279.17502437" cy="379.785963549" fill="rgb(100%,0%,0%)" r="0.7" /><circle cx="279.101979963" cy="381.898469404" fill="rgb(100%,0%,0%)" r="0.7" /><circle cx="281.266052828" cy="379.820781112" fill="rgb(100%,0%,0%)" r="0.7" /><circle cx="283.430125692" cy="377.74309282" fill="rgb(100%,0%,0%)" r="0.7" /><circle cx="285.594198556" cy="375.665404528" fill="rgb(100%,0%,0%)" r="0.7" /><circle cx="287.124032794" cy="376.412253193" fill="rgb(100%,0%,0%)" r="0.7" /><circle cx="288.19206643" cy="379.215698244" fill="rgb(100%,0%,0%)" r="0.7" /><circle cx="289.260100067" cy="382.019143295" fill="rgb(100%,0%,0%)" r="0.7" /><circle cx="290.328133703" cy="384.822588345" fill="rgb(100%,0%,0%)" r="0.7" /><circle cx="291.396167339" cy="387.626033396" fill="rgb(100%,0%,0%)" r="0.7" /><circle cx="292.464200976" cy="390.429478446" fill="rgb(100%,0%,0%)" r="0.7" /><circle cx="293.532234612" cy="393.232923497" fill="rgb(100%,0%,0%)" r="0.7" /><circle cx="293.962" cy="394.361" fill="rgb(100%,0%,0%)" r="0.7" /><circle cx="330.499969426" cy="273.544488083" fill="rgb(0%,0%,100%)" r="0.7" /><circle cx="332.946720172" cy="275.162776087" fill="rgb(0%,0%,100%)" r="0.7" /><circle cx="333.5097289" cy="278.027063118" fill="rgb(0%,0%,100%)" r="0.7" /><circle cx="333.086426264" cy="280.99558279" fill="rgb(0%,0%,100%)" r="0.7" /><circle cx="332.461769026" cy="283.929594538" fill="rgb(0%,0%,100%)" r="0.7" /><circle cx="331.740478129" cy="286.841525347" fill="rgb(0%,0%,100%)" r="0.7" /><circle cx="330.959610487" cy="289.738088717" fill="rgb(0%,0%,100%)" r="0.7" /><circle cx="330.137310486" cy="292.623170378" fill="rgb(0%,0%,100%)" r="0.7" /><circle cx="329.284029852" cy="295.499285225" fill="rgb(0%,0%,100%)" r="0.7" /><circle cx="328.406470552" cy="298.368034831" fill="rgb(0%,0%,100%)" r="0.7" /><circle cx="327.509178977" cy="301.230690903" fill="rgb(0%,0%,100%)" r="0.7" /><circle cx="326.595428961" cy="304.088181351" fill="rgb(0%,0%,100%)" r="0.7" /><circle cx="325.667700052" cy="306.941116237" fill="rgb(0%,0%,100%)" r="0.7" /><circle cx="324.727866253" cy="309.790089688" fill="rgb(0%,0%,100%)" r="0.7" /><circle cx="323.777414566" cy="312.635553069" fill="rgb(0%,0%,100%)" r="0.7" /><circle cx="322.817549984" cy="315.477852854" fill="rgb(0%,0%,100%)" r="0.7" /><circle cx="321.8492533" cy="318.317294802" fill="rgb(0%,0%,100%)" r="0.7" /><circle cx="320.873344067" cy="321.154121534" fill="rgb(0%,0%,100%)" r="0.7" /><circle cx="319.890503338" cy="323.988562511" fill="rgb(0%,0%,100%)" r="0.7" /><circle cx="318.901319297" cy="326.820786639" fill="rgb(0%,0%,100%)" r="0.7" /><circle cx="317.906287555" cy="329.6509648" fill="rgb(0%,0%,100%)" r="0.7" /><circle cx="316.90583872" cy="332.479238516" fill="rgb(0%,0%,100%)" r="0.7" /><circle cx="315.900351683" cy="335.305719322" fill="rgb(0%,0%,100%)" r="0.7" /><circle cx="314.890152649" cy="338.130520112" fill="rgb(0%,0%,100%)" r="0.7" /><circle cx="313.875528718" cy="340.953739328" fill="rgb(0%,0%,100%)" r="0.7" /><circle cx="312.856738223" cy="343.775450188" fill="rgb(0%,0%,100%)" r="0.7" /><circle cx="311.834001955" cy="346.595739317" fill="rgb(0%,0%,100%)" r="0.7" /><circle cx="310.807520564" cy="349.414669983" fill="rgb(0%,0%,100%)" r="0.7" /><circle cx="309.777472973" cy="352.232295864" fill="rgb(0%,0%,100%)" r="0.7" /><circle cx="308.744018141" cy="355.048663589" fill="rgb(0%,0%,100%)" r="0.7" /><circle cx="307.707284167" cy="357.863847978" fill="rgb(0%,0%,100%)" r="0.7" /><circle cx="306.667405754" cy="360.677854582" fill="rgb(0%,0%,100%)" r="0.7" /><circle cx="305.624478459" cy="363.490746935" fill="rgb(0%,0%,100%)" r="0.7" /><circle cx="304.578603997" cy="366.302525609" fill="rgb(0%,0%,100%)" r="0.7" /><circle cx="303.529844102" cy="369.113252788" fill="rgb(0%,0%,100%)" r="0.7" /><circle cx="302.478270425" cy="371.92291653" fill="rgb(0%,0%,100%)" r="0.7" /><circle cx="301.423921932" cy="374.731541056" fill="rgb(0%,0%,100%)" r="0.7" /><circle cx="300.366822611" cy="377.539131435" fill="rgb(0%,0%,100%)" r="0.7" /><circle cx="299.306988727" cy="380.345640702" fill="rgb(0%,0%,100%)" r="0.7" /><circle cx="298.244338397" cy="383.151183758" fill="rgb(0%,0%,100%)" r="0.7" /><circle cx="297.178840595" cy="385.955594479" fill="rgb(0%,0%,100%)" r="0.7" /><circle cx="296.110311856" cy="388.758855098" fill="rgb(0%,0%,100%)" r="0.7" /><circle cx="295.038406458" cy="391.560816871" fill="rgb(0%,0%,100%)" r="0.7" /><circle cx="293.962" cy="394.361" fill="rgb(0%,0%,100%)" r="0.7" /></svg>