<?xml version="1.0" encoding="utf-8" ?>
<svg baseProfile="full" height="100%" version="1.1" width="100%" xmlns="http://www.w3.org/2000/svg" xmlns:ev="http://www.w3.org/2001/xml-events" xmlns:xlink="http://www.w3.org/1999/xlink"><defs /><circle cx="328.192837083" cy="275.705979137" fill="rgb(100%,0%,0%)" r="0.7" /><circle cx="325.219041914" cy="276.081938871" fill="rgb(100%,0%,0%)" r="0.7" /><circle cx="322.322514468" cy="276.85523412" fill="rgb(100%,0%,0%)" r="0.7" /><circle cx="319.537758027" cy="277.966947196" fill="rgb(100%,0%,0%)" r="0.7" /><circle cx="316.880612398" cy="279.357247072" fill="rgb(100%,0%,0%)" r="0.7" /><circle cx="314.353910545" cy="280.973093657" fill="rgb(100%,0%,0%)" r="0.7" /><circle cx="311.952910986" cy="282.770813616" fill="rgb(100%,0%,0%)" r="0.7" /><circle cx="309.669307321" cy="284.715689393" fill="rgb(100%,0%,0%)" r="0.7" /><circle cx="307.493469818" cy="286.780610251" fill="rgb(100%,0%,0%)" r="0.7" /><circle cx="305.415805512" cy="288.944400561" fill="rgb(100%,0%,0%)" r="0.7" /><circle cx="303.427326045" cy="291.19045077" fill="rgb(100%,0%,0%)" r="0.7" /><circle cx="301.519790764" cy="293.505729661" fill="rgb(100%,0%,0%)" r="0.7" /><circle cx="299.685888421" cy="295.879803462" fill="rgb(100%,0%,0%)" r="0.7" /><circle cx="297.919152022" cy="298.304252998" fill="rgb(100%,0%,0%)" r="0.7" /><circle cx="296.241557833" cy="300.79102126" fill="rgb(100%,0%,0%)" r="0.7" /><circle cx="294.592285147" cy="303.296994046" fill="rgb(100%,0%,0%)" r="0.7" /><circle cx="292.94301246" cy="305.802966832" fill="rgb(100%,0%,0%)" r="0.7" /><circle cx="291.293739774" cy="308.308939619" fill="rgb(100%,0%,0%)" r="0.7" /><circle cx="289.644467087" cy="310.814912405" fill="rgb(100%,0%,0%)" r="0.7" /><circle cx="287.995194401" cy="313.320885191" fill="rgb(100%,0%,0%)" r="0.7" /><circle cx="286.345921714" cy="315.826857978" fill="rgb(100%,0%,0%)" r="0.7" /><circle cx="284.696649028" cy="318.332830764" fill="rgb(100%,0%,0%)" r="0.7" /><circle cx="283.047376342" cy="320.83880355" fill="rgb(100%,0%,0%)" r="0.7" /><circle cx="281.398103655" cy="323.344776336" fill="rgb(100%,0%,0%)" r="0.7" /><circle cx="279.748830969" cy="325.850749123" fill="rgb(100%,0%,0%)" r="0.7" /><circle cx="278.099558282" cy="328.356721909" fill="rgb(100%,0%,0%)" r="0.7" /><circle cx="276.450285596" cy="330.862694695" fill="rgb(100%,0%,0%)" r="0.7" /><circle cx="274.801012909" cy="333.368667482" fill="rgb(100%,0%,0%)" r="0.7" /><circle cx="273.137845405" cy="335.865395985" fill="rgb(100%,0%,0%)" r="0.7" /><circle cx="271.484716823" cy="338.368834424" fill="rgb(100%,0%,0%)" r="0.7" /><circle cx="269.842826154" cy="340.879648508" fill="rgb(100%,0%,0%)" r="0.7" /><circle cx="268.211392654" cy="343.397268896" fill="rgb(100%,0%,0%)" r="0.7" /><circle cx="266.590296063" cy="345.921556351" fill="rgb(100%,0%,0%)" r="0.7" /><circle cx="264.979732966" cy="348.452582273" fill="rgb(100%,0%,0%)" r="0.7" /><circle cx="263.380123481" cy="350.990548284" fill="rgb(100%,0%,0%)" r="0.7" /><circle cx="261.792080124" cy="353.535761187" fill="rgb(100%,0%,0%)" r="0.7" /><circle cx="260.216397778" cy="356.088642344" fill="rgb(100%,0%,0%)" r="0.7" /><circle cx="258.654077228" cy="358.649725981" fill="rgb(100%,0%,0%)" r="0.7" /><circle cx="257.106369044" cy="361.219660983" fill="rgb(100%,0%,0%)" r="0.7" /><circle cx="255.574815585" cy="363.799257993" fill="rgb(100%,0%,0%)" r="0.7" /><circle cx="254.061346031" cy="366.389504976" fill="rgb(100%,0%,0%)" r="0.7" /><circle cx="252.568392718" cy="368.991628512" fill="rgb(100%,0%,0%)" r="0.7" /><circle cx="251.099075398" cy="371.607167965" fill="rgb(100%,0%,0%)" r="0.7" /><circle cx="249.657486516" cy="374.23808621" fill="rgb(100%,0%,0%)" r="0.7" /><circle cx="248.249151434" cy="376.886941537" fill="rgb(100%,0%,0%)" r="0.7" /><circle cx="246.881805706" cy="379.557180952" fill="rgb(100%,0%,0%)" r="0.7" /><circle cx="245.566854397" cy="382.253574824" fill="rgb(100%,0%,0%)" r="0.7" /><circle cx="244.322265003" cy="384.98309307" fill="rgb(100%,0%,0%)" r="0.7" /><circle cx="243.158195393" cy="387.747896065" fill="rgb(100%,0%,0%)" r="0.7" /><circle cx="241.994933139" cy="390.513189559" fill="rgb(100%,0%,0%)" r="0.7" /><circle cx="240.845199499" cy="393.284132399" fill="rgb(100%,0%,0%)" r="0.7" /><circle cx="239.706676758" cy="396.059689952" fill="rgb(100%,0%,0%)" r="0.7" /><circle cx="238.57853689" cy="398.839494962" fill="rgb(100%,0%,0%)" r="0.7" /><circle cx="237.460446664" cy="401.623356371" fill="rgb(100%,0%,0%)" r="0.7" /><circle cx="236.35231419" cy="404.411190843" fill="rgb(100%,0%,0%)" r="0.7" /><circle cx="235.254190998" cy="407.203003066" fill="rgb(100%,0%,0%)" r="0.7" /><circle cx="234.16626479" cy="409.998781351" fill="rgb(100%,0%,0%)" r="0.7" /><circle cx="233.088793799" cy="412.79860421" fill="rgb(100%,0%,0%)" r="0.7" /><circle cx="232.022124329" cy="415.602567971" fill="rgb(100%,0%,0%)" r="0.7" /><circle cx="230.966689543" cy="418.41077965" fill="rgb(100%,0%,0%)" r="0.7" /><circle cx="229.92300056" cy="421.223383953" fill="rgb(100%,0%,0%)" r="0.7" /><circle cx="228.891663078" cy="424.040533296" fill="rgb(100%,0%,0%)" r="0.7" /><circle cx="227.873373959" cy="426.862421462" fill="rgb(100%,0%,0%)" r="0.7" /><circle cx="226.868936856" cy="429.689276917" fill="rgb(100%,0%,0%)" r="0.7" /><circle cx="225.879288175" cy="432.521337993" fill="rgb(100%,0%,0%)" r="0.7" /><circle cx="224.90550467" cy="435.358894326" fill="rgb(100%,0%,0%)" r="0.7" /><circle cx="223.948839247" cy="438.202267451" fill="rgb(100%,0%,0%)" r="0.7" /><circle cx="223.010753923" cy="441.051823224" fill="rgb(100%,0%,0%)" r="0.7" /><circle cx="222.09296669" cy="443.907976924" fill="rgb(100%,0%,0%)" r="0.7" /><circle cx="221.197508552" cy="446.771215035" fill="rgb(100%,0%,0%)" r="0.7" /><circle cx="220.326815179" cy="449.642075806" fill="rgb(100%,0%,0%)" r="0.7" /><circle cx="219.483832161" cy="452.521183605" fill="rgb(100%,0%,0%)" r="0.7" /><circle cx="218.672167258" cy="455.409281906" fill="rgb(100%,0%,0%)" r="0.7" /><circle cx="217.896327128" cy="458.307211405" fill="rgb(100%,0%,0%)" r="0.7" /><circle cx="217.162049003" cy="461.215926265" fill="rgb(100%,0%,0%)" r="0.7" /><circle cx="216.476791574" cy="464.136577937" fill="rgb(100%,0%,0%)" r="0.7" /><circle cx="218.001019039" cy="463.956603903" fill="rgb(100%,0%,0%)" r="0.7" /><circle cx="220.532412201" cy="462.34662543" fill="rgb(100%,0%,0%)" r="0.7" /><circle cx="223.068099061" cy="460.743405007" fill="rgb(100%,0%,0%)" r="0.7" /><circle cx="225.60884025" cy="459.148215674" fill="rgb(100%,0%,0%)" r="0.7" /><circle cx="228.156287041" cy="457.563755455" fill="rgb(100%,0%,0%)" r="0.7" /><circle cx="230.713851134" cy="455.995688682" fill="rgb(100%,0%,0%)" r="0.7" /><circle cx="233.290620775" cy="454.459455264" fill="rgb(100%,0%,0%)" r="0.7" /><circle cx="235.823985537" cy="453.390913866" fill="rgb(100%,0%,0%)" r="0.7" /><circle cx="237.811872088" cy="455.631437223" fill="rgb(100%,0%,0%)" r="0.7" /><circle cx="239.94274703" cy="457.743076564" fill="rgb(100%,0%,0%)" r="0.7" /><circle cx="242.105428221" cy="459.822190522" fill="rgb(100%,0%,0%)" r="0.7" /><circle cx="244.284858528" cy="461.883759476" fill="rgb(100%,0%,0%)" r="0.7" /><circle cx="246.475206748" cy="463.93372916" fill="rgb(100%,0%,0%)" r="0.7" /><circle cx="248.673526065" cy="465.975149621" fill="rgb(100%,0%,0%)" r="0.7" /><circle cx="250.878129885" cy="468.009783538" fill="rgb(100%,0%,0%)" r="0.7" /><circle cx="253.08801668" cy="470.038675825" fill="rgb(100%,0%,0%)" r="0.7" /><circle cx="255.302696585" cy="472.062339714" fill="rgb(100%,0%,0%)" r="0.7" /><circle cx="257.359" cy="473.932" fill="rgb(100%,0%,0%)" r="0.7" /><circle cx="328.192837083" cy="275.705979137" fill="rgb(0%,0%,100%)" r="0.7" /><circle cx="331.189214586" cy="275.771866954" fill="rgb(0%,0%,100%)" r="0.7" /><circle cx="334.140164472" cy="276.295468792" fill="rgb(0%,0%,100%)" r="0.7" /><circle cx="336.978508126" cy="277.258466909" fill="rgb(0%,0%,100%)" r="0.7" /><circle cx="339.65085639" cy="278.616526214" fill="rgb(0%,0%,100%)" r="0.7" /><circle cx="342.120702592" cy="280.315828265" fill="rgb(0%,0%,100%)" r="0.7" /><circle cx="344.358476396" cy="282.310990079" fill="rgb(0%,0%,100%)" r="0.7" /><circle cx="346.202190242" cy="284.660356416" fill="rgb(0%,0%,100%)" r="0.7" /><circle cx="347.587409419" cy="287.320607683" fill="rgb(0%,0%,100%)" r="0.7" /><circle cx="348.768624073" cy="290.077500279" fill="rgb(0%,0%,100%)" r="0.7" /><circle cx="349.740208218" cy="292.915082699" fill="rgb(0%,0%,100%)" r="0.7" /><circle cx="350.500522168" cy="295.816458686" fill="rgb(0%,0%,100%)" r="0.7" /><circle cx="351.0516088" cy="298.764778625" fill="rgb(0%,0%,100%)" r="0.7" /><circle cx="351.398533876" cy="301.744079386" fill="rgb(0%,0%,100%)" r="0.7" /><circle cx="351.548502337" cy="304.739809278" fill="rgb(0%,0%,100%)" r="0.7" /><circle cx="351.509901879" cy="307.739092248" fill="rgb(0%,0%,100%)" r="0.7" /><circle cx="351.291341771" cy="310.730685575" fill="rgb(0%,0%,100%)" r="0.7" /><circle cx="350.900668938" cy="313.704737587" fill="rgb(0%,0%,100%)" r="0.7" /><circle cx="350.343776489" cy="316.65220302" fill="rgb(0%,0%,100%)" r="0.7" /><circle cx="349.622519278" cy="319.563787918" fill="rgb(0%,0%,100%)" r="0.7" /><circle cx="348.72843714" cy="322.426928682" fill="rgb(0%,0%,100%)" r="0.7" /><circle cx="347.768829387" cy="325.265691735" fill="rgb(0%,0%,100%)" r="0.7" /><circle cx="346.751368203" cy="328.086695919" fill="rgb(0%,0%,100%)" r="0.7" /><circle cx="345.505253253" cy="330.81496183" fill="rgb(0%,0%,100%)" r="0.7" /><circle cx="344.088966848" cy="333.459153418" fill="rgb(0%,0%,100%)" r="0.7" /><circle cx="342.541740977" cy="336.029095415" fill="rgb(0%,0%,100%)" r="0.7" /><circle cx="340.890787289" cy="338.533750999" fill="rgb(0%,0%,100%)" r="0.7" /><circle cx="339.155566991" cy="340.980848969" fill="rgb(0%,0%,100%)" r="0.7" /><circle cx="337.350426229" cy="343.376874618" fill="rgb(0%,0%,100%)" r="0.7" /><circle cx="335.486204271" cy="345.727253505" fill="rgb(0%,0%,100%)" r="0.7" /><circle cx="333.571272023" cy="348.03652773" fill="rgb(0%,0%,100%)" r="0.7" /><circle cx="331.612223822" cy="350.30850455" fill="rgb(0%,0%,100%)" r="0.7" /><circle cx="329.614323523" cy="352.546406509" fill="rgb(0%,0%,100%)" r="0.7" /><circle cx="327.581842584" cy="354.75295532" fill="rgb(0%,0%,100%)" r="0.7" /><circle cx="325.518273482" cy="356.93046927" fill="rgb(0%,0%,100%)" r="0.7" /><circle cx="323.426507267" cy="359.080911513" fill="rgb(0%,0%,100%)" r="0.7" /><circle cx="321.308936555" cy="361.205955303" fill="rgb(0%,0%,100%)" r="0.7" /><circle cx="319.167555721" cy="363.307005473" fill="rgb(0%,0%,100%)" r="0.7" /><circle cx="317.004015054" cy="365.385230552" fill="rgb(0%,0%,100%)" r="0.7" /><circle cx="314.819662643" cy="367.441574595" fill="rgb(0%,0%,100%)" r="0.7" /><circle cx="312.615576519" cy="369.476746445" fill="rgb(0%,0%,100%)" r="0.7" /><circle cx="310.392545019" cy="371.491216251" fill="rgb(0%,0%,100%)" r="0.7" /><circle cx="308.151058902" cy="373.485134331" fill="rgb(0%,0%,100%)" r="0.7" /><circle cx="305.891213879" cy="375.458194883" fill="rgb(0%,0%,100%)" r="0.7" /><circle cx="303.612397312" cy="377.409313855" fill="rgb(0%,0%,100%)" r="0.7" /><circle cx="301.312257701" cy="379.33529978" fill="rgb(0%,0%,100%)" r="0.7" /><circle cx="299.069113981" cy="381.323503364" fill="rgb(0%,0%,100%)" r="0.7" /><circle cx="297.092354945" cy="383.578588808" fill="rgb(0%,0%,100%)" r="0.7" /><circle cx="295.294347713" cy="385.979498839" fill="rgb(0%,0%,100%)" r="0.7" /><circle cx="293.620561098" cy="388.468890524" fill="rgb(0%,0%,100%)" r="0.7" /><circle cx="292.038984099" cy="391.018010012" fill="rgb(0%,0%,100%)" r="0.7" /><circle cx="290.529227032" cy="393.610345857" fill="rgb(0%,0%,100%)" r="0.7" /><circle cx="289.077407705" cy="396.235569531" fill="rgb(0%,0%,100%)" r="0.7" /><circle cx="287.673582804" cy="398.886823352" fill="rgb(0%,0%,100%)" r="0.7" /><circle cx="286.310415451" cy="401.559210616" fill="rgb(0%,0%,100%)" r="0.7" /><circle cx="284.982273295" cy="404.249185318" fill="rgb(0%,0%,100%)" r="0.7" /><circle cx="283.684752346" cy="406.95404636" fill="rgb(0%,0%,100%)" r="0.7" /><circle cx="282.414304411" cy="409.671751421" fill="rgb(0%,0%,100%)" r="0.7" /><circle cx="281.168063206" cy="412.400639792" fill="rgb(0%,0%,100%)" r="0.7" /><circle cx="279.943648481" cy="415.139401863" fill="rgb(0%,0%,100%)" r="0.7" /><circle cx="278.739082734" cy="417.886939584" fill="rgb(0%,0%,100%)" r="0.7" /><circle cx="277.552680848" cy="420.64237659" fill="rgb(0%,0%,100%)" r="0.7" /><circle cx="276.38301523" cy="423.404960677" fill="rgb(0%,0%,100%)" r="0.7" /><circle cx="275.228858947" cy="426.174059603" fill="rgb(0%,0%,100%)" r="0.7" /><circle cx="274.089152187" cy="428.949135864" fill="rgb(0%,0%,100%)" r="0.7" /><circle cx="272.962972932" cy="431.729735624" fill="rgb(0%,0%,100%)" r="0.7" /><circle cx="271.849525311" cy="434.515452476" fill="rgb(0%,0%,100%)" r="0.7" /><circle cx="270.748108188" cy="437.305954461" fill="rgb(0%,0%,100%)" r="0.7" /><circle cx="269.658118318" cy="440.100936464" fill="rgb(0%,0%,100%)" r="0.7" /><circle cx="268.579033534" cy="442.900131517" fill="rgb(0%,0%,100%)" r="0.7" /><circle cx="267.510390319" cy="445.703346702" fill="rgb(0%,0%,100%)" r="0.7" /><circle cx="266.451806637" cy="448.510388982" fill="rgb(0%,0%,100%)" r="0.7" /><circle cx="265.402979474" cy="451.321062826" fill="rgb(0%,0%,100%)" r="0.7" /><circle cx="264.36364405" cy="454.135282168" fill="rgb(0%,0%,100%)" r="0.7" /><circle cx="263.333639267" cy="456.952910719" fill="rgb(0%,0%,100%)" r="0.7" /><circle cx="262.312864202" cy="459.773915887" fill="rgb(0%,0%,100%)" r="0.7" /><circle cx="261.301349362" cy="462.598247803" fill="rgb(0%,0%,100%)" r="0.7" /><circle cx="260.299270627" cy="465.425951064" fill="rgb(0%,0%,100%)" r="0.7" /><circle cx="259.307085712" cy="468.257127119" fill="rgb(0%,0%,100%)" r="0.7" /><circle cx="258.325832474" cy="471.092080789" fill="rgb(0%,0%,100%)" r="0.7" /><circle cx="257.359" cy="473.932" fill="rgb(0%,0%,100%)" r="0.7" /></svg>