<?xml version="1.0" encoding="utf-8" ?>
<svg baseProfile="full" height="100%" version="1.1" width="100%" xmlns="http://www.w3.org/2000/svg" xmlns:ev="http://www.w3.org/2001/xml-events" xmlns:xlink="http://www.w3.org/1999/xlink"><defs /><circle cx="381.493885406" cy="316.604046557" fill="rgb(100%,0%,0%)" r="0.7" /><circle cx="379.733645915" cy="316.929261889" fill="rgb(100%,0%,0%)" r="0.7" /><circle cx="377.000856835" cy="318.166947426" fill="rgb(100%,0%,0%)" r="0.7" /><circle cx="374.262015695" cy="319.39118149" fill="rgb(100%,0%,0%)" r="0.7" /><circle cx="371.516385316" cy="320.600107649" fill="rgb(100%,0%,0%)" r="0.7" /><circle cx="368.762406022" cy="321.789881404" fill="rgb(100%,0%,0%)" r="0.7" /><circle cx="365.997249345" cy="322.953418827" fill="rgb(100%,0%,0%)" r="0.7" /><circle cx="363.215309885" cy="324.076170471" fill="rgb(100%,0%,0%)" r="0.7" /><circle cx="360.402308912" cy="325.118094023" fill="rgb(100%,0%,0%)" r="0.7" /><circle cx="357.486991104" cy="325.745618566" fill="rgb(100%,0%,0%)" r="0.7" /><circle cx="354.547152854" cy="326.298787308" fill="rgb(100%,0%,0%)" r="0.7" /><circle cx="351.85288006" cy="327.597203309" fill="rgb(100%,0%,0%)" r="0.7" /><circle cx="349.63297513" cy="329.598820888" fill="rgb(100%,0%,0%)" r="0.7" /><circle cx="347.859309128" cy="332.016027798" fill="rgb(100%,0%,0%)" r="0.7" /><circle cx="346.394323824" cy="331.833927502" fill="rgb(100%,0%,0%)" r="0.7" /><circle cx="343.644271539" cy="333.032770309" fill="rgb(100%,0%,0%)" r="0.7" /><circle cx="340.894403596" cy="334.232041011" fill="rgb(100%,0%,0%)" r="0.7" /><circle cx="338.144702156" cy="335.431719002" fill="rgb(100%,0%,0%)" r="0.7" /><circle cx="335.395200325" cy="336.631800447" fill="rgb(100%,0%,0%)" r="0.7" /><circle cx="332.645882364" cy="337.832323212" fill="rgb(100%,0%,0%)" r="0.7" /><circle cx="329.896771366" cy="339.033325607" fill="rgb(100%,0%,0%)" r="0.7" /><circle cx="327.147894497" cy="340.234863363" fill="rgb(100%,0%,0%)" r="0.7" /><circle cx="324.39928632" cy="341.437013438" fill="rgb(100%,0%,0%)" r="0.7" /><circle cx="321.650991947" cy="342.639882302" fill="rgb(100%,0%,0%)" r="0.7" /><circle cx="318.903079884" cy="343.843617337" fill="rgb(100%,0%,0%)" r="0.7" /><circle cx="316.155642434" cy="345.048438051" fill="rgb(100%,0%,0%)" r="0.7" /><circle cx="313.408824224" cy="346.254686617" fill="rgb(100%,0%,0%)" r="0.7" /><circle cx="310.66289917" cy="347.462938716" fill="rgb(100%,0%,0%)" r="0.7" /><circle cx="307.918370514" cy="348.674369556" fill="rgb(100%,0%,0%)" r="0.7" /><circle cx="305.176661316" cy="349.892186129" fill="rgb(100%,0%,0%)" r="0.7" /><circle cx="302.374674014" cy="350.918069158" fill="rgb(100%,0%,0%)" r="0.7" /><circle cx="299.463454685" cy="351.641203156" fill="rgb(100%,0%,0%)" r="0.7" /><circle cx="296.590989773" cy="352.50557103" fill="rgb(100%,0%,0%)" r="0.7" /><circle cx="293.768420508" cy="353.520773293" fill="rgb(100%,0%,0%)" r="0.7" /><circle cx="291.017172568" cy="354.715221875" fill="rgb(100%,0%,0%)" r="0.7" /><circle cx="288.376619048" cy="356.136586143" fill="rgb(100%,0%,0%)" r="0.7" /><circle cx="285.868397564" cy="357.779755834" fill="rgb(100%,0%,0%)" r="0.7" /><circle cx="283.289033166" cy="359.311664405" fill="rgb(100%,0%,0%)" r="0.7" /><circle cx="280.689257008" cy="360.808681854" fill="rgb(100%,0%,0%)" r="0.7" /><circle cx="278.07102341" cy="362.273166753" fill="rgb(100%,0%,0%)" r="0.7" /><circle cx="275.43422717" cy="363.703964884" fill="rgb(100%,0%,0%)" r="0.7" /><circle cx="272.7779179" cy="365.098194878" fill="rgb(100%,0%,0%)" r="0.7" /><circle cx="270.100495003" cy="366.451415405" fill="rgb(100%,0%,0%)" r="0.7" /><circle cx="267.399690041" cy="367.75732075" fill="rgb(100%,0%,0%)" r="0.7" /><circle cx="264.672448391" cy="369.00703051" fill="rgb(100%,0%,0%)" r="0.7" /><circle cx="261.914688093" cy="370.187784692" fill="rgb(100%,0%,0%)" r="0.7" /><circle cx="259.120939504" cy="371.280487332" fill="rgb(100%,0%,0%)" r="0.7" /><circle cx="256.400622487" cy="372.518852744" fill="rgb(100%,0%,0%)" r="0.7" /><circle cx="253.761998143" cy="373.946290351" fill="rgb(100%,0%,0%)" r="0.7" /><circle cx="251.100447683" cy="375.330490054" fill="rgb(100%,0%,0%)" r="0.7" /><circle cx="248.420501394" cy="376.678766097" fill="rgb(100%,0%,0%)" r="0.7" /><circle cx="245.724447578" cy="377.994432313" fill="rgb(100%,0%,0%)" r="0.7" /><circle cx="243.013585353" cy="379.2794382" fill="rgb(100%,0%,0%)" r="0.7" /><circle cx="240.288938792" cy="380.534938615" fill="rgb(100%,0%,0%)" r="0.7" /><circle cx="237.551253584" cy="381.761677374" fill="rgb(100%,0%,0%)" r="0.7" /><circle cx="234.80105148" cy="382.960147077" fill="rgb(100%,0%,0%)" r="0.7" /><circle cx="232.038803796" cy="384.130616495" fill="rgb(100%,0%,0%)" r="0.7" /><circle cx="229.264919499" cy="385.273201965" fill="rgb(100%,0%,0%)" r="0.7" /><circle cx="226.479715776" cy="386.387920513" fill="rgb(100%,0%,0%)" r="0.7" /><circle cx="223.683512753" cy="387.474678974" fill="rgb(100%,0%,0%)" r="0.7" /><circle cx="220.876513147" cy="388.53334053" fill="rgb(100%,0%,0%)" r="0.7" /><circle cx="218.059013455" cy="389.563657616" fill="rgb(100%,0%,0%)" r="0.7" /><circle cx="215.23118714" cy="390.565364461" fill="rgb(100%,0%,0%)" r="0.7" /><circle cx="212.39330034" cy="391.538106056" fill="rgb(100%,0%,0%)" r="0.7" /><circle cx="209.54550925" cy="392.481516072" fill="rgb(100%,0%,0%)" r="0.7" /><circle cx="206.688026339" cy="393.395163448" fill="rgb(100%,0%,0%)" r="0.7" /><circle cx="203.821060788" cy="394.278577577" fill="rgb(100%,0%,0%)" r="0.7" /><circle cx="200.94480362" cy="395.13125548" fill="rgb(100%,0%,0%)" r="0.7" /><circle cx="198.059455816" cy="395.952655234" fill="rgb(100%,0%,0%)" r="0.7" /><circle cx="195.165240904" cy="396.742194968" fill="rgb(100%,0%,0%)" r="0.7" /><circle cx="192.262352177" cy="397.499268979" fill="rgb(100%,0%,0%)" r="0.7" /><circle cx="189.351028199" cy="398.223228536" fill="rgb(100%,0%,0%)" r="0.7" /><circle cx="186.431514714" cy="398.913394045" fill="rgb(100%,0%,0%)" r="0.7" /><circle cx="183.504061303" cy="399.569056623" fill="rgb(100%,0%,0%)" r="0.7" /><circle cx="180.568928143" cy="400.189477131" fill="rgb(100%,0%,0%)" r="0.7" /><circle cx="177.626423713" cy="400.773879592" fill="rgb(100%,0%,0%)" r="0.7" /><circle cx="174.67683334" cy="401.321466953" fill="rgb(100%,0%,0%)" r="0.7" /><circle cx="171.720516188" cy="401.831403213" fill="rgb(100%,0%,0%)" r="0.7" /><circle cx="168.757812176" cy="402.302832126" fill="rgb(100%,0%,0%)" r="0.7" /><circle cx="165.789106546" cy="402.73486651" fill="rgb(100%,0%,0%)" r="0.7" /><circle cx="162.814813554" cy="403.126592844" fill="rgb(100%,0%,0%)" r="0.7" /><circle cx="159.835377496" cy="403.477072607" fill="rgb(100%,0%,0%)" r="0.7" /><circle cx="156.851284661" cy="403.785342672" fill="rgb(100%,0%,0%)" r="0.7" /><circle cx="153.863048394" cy="404.050418947" fill="rgb(100%,0%,0%)" r="0.7" /><circle cx="150.871214709" cy="404.271297408" fill="rgb(100%,0%,0%)" r="0.7" /><circle cx="147.876393134" cy="404.446954384" fill="rgb(100%,0%,0%)" r="0.7" /><circle cx="144.879213149" cy="404.576352441" fill="rgb(100%,0%,0%)" r="0.7" /><circle cx="141.880370505" cy="404.658440593" fill="rgb(100%,0%,0%)" r="0.7" /><circle cx="138.88058866" cy="404.692159334" fill="rgb(100%,0%,0%)" r="0.7" /><circle cx="135.880667298" cy="404.676443303" fill="rgb(100%,0%,0%)" r="0.7" /><circle cx="132.881435292" cy="404.610226086" fill="rgb(100%,0%,0%)" r="0.7" /><circle cx="131.961529801" cy="406.698735157" fill="rgb(100%,0%,0%)" r="0.7" /><circle cx="131.907041608" cy="409.698240289" fill="rgb(100%,0%,0%)" r="0.7" /><circle cx="131.852553416" cy="412.697745421" fill="rgb(100%,0%,0%)" r="0.7" /><circle cx="131.798065224" cy="415.697250553" fill="rgb(100%,0%,0%)" r="0.7" /><circle cx="131.743577031" cy="418.696755685" fill="rgb(100%,0%,0%)" r="0.7" /><circle cx="131.689088839" cy="421.696260817" fill="rgb(100%,0%,0%)" r="0.7" /><circle cx="131.634600647" cy="424.695765949" fill="rgb(100%,0%,0%)" r="0.7" /><circle cx="133.255441644" cy="426.032669729" fill="rgb(100%,0%,0%)" r="0.7" /><circle cx="136.255423444" cy="426.03274467" fill="rgb(100%,0%,0%)" r="0.7" /><circle cx="139.255230528" cy="426.064687913" fill="rgb(100%,0%,0%)" r="0.7" /><circle cx="142.254576668" cy="426.126912836" fill="rgb(100%,0%,0%)" r="0.7" /><circle cx="145.253116861" cy="426.220239098" fill="rgb(100%,0%,0%)" r="0.7" /><circle cx="148.25042685" cy="426.346780717" fill="rgb(100%,0%,0%)" r="0.7" /><circle cx="151.245977103" cy="426.509782355" fill="rgb(100%,0%,0%)" r="0.7" /><circle cx="154.239010995" cy="426.713753337" fill="rgb(100%,0%,0%)" r="0.7" /><circle cx="157.228451328" cy="426.964827951" fill="rgb(100%,0%,0%)" r="0.7" /><circle cx="160.212694488" cy="427.271413578" fill="rgb(100%,0%,0%)" r="0.7" /><circle cx="163.18922669" cy="427.645320495" fill="rgb(100%,0%,0%)" r="0.7" /><circle cx="166.15384859" cy="428.103810381" fill="rgb(100%,0%,0%)" r="0.7" /><circle cx="169.099000077" cy="428.673612735" fill="rgb(100%,0%,0%)" r="0.7" /><circle cx="172.009278861" cy="429.39965925" fill="rgb(100%,0%,0%)" r="0.7" /><circle cx="174.847400419" cy="430.367258204" fill="rgb(100%,0%,0%)" r="0.7" /><circle cx="177.491743272" cy="431.770096058" fill="rgb(100%,0%,0%)" r="0.7" /><circle cx="179.562534325" cy="433.922856718" fill="rgb(100%,0%,0%)" r="0.7" /><circle cx="181.152535801" cy="436.463105183" fill="rgb(100%,0%,0%)" r="0.7" /><circle cx="182.409251839" cy="439.185720748" fill="rgb(100%,0%,0%)" r="0.7" /><circle cx="183.416630214" cy="442.01070801" fill="rgb(100%,0%,0%)" r="0.7" /><circle cx="184.221098632" cy="444.900299173" fill="rgb(100%,0%,0%)" r="0.7" /><circle cx="184.854576097" cy="447.832294423" fill="rgb(100%,0%,0%)" r="0.7" /><circle cx="185.340905289" cy="450.792326061" fill="rgb(100%,0%,0%)" r="0.7" /><circle cx="185.698737874" cy="453.770708807" fill="rgb(100%,0%,0%)" r="0.7" /><circle cx="185.943067914" cy="456.760574471" fill="rgb(100%,0%,0%)" r="0.7" /><circle cx="186.086213739" cy="459.757032528" fill="rgb(100%,0%,0%)" r="0.7" /><circle cx="186.138448561" cy="462.75647071" fill="rgb(100%,0%,0%)" r="0.7" /><circle cx="186.108453559" cy="465.756241436" fill="rgb(100%,0%,0%)" r="0.7" /><circle cx="186.003642499" cy="468.754340279" fill="rgb(100%,0%,0%)" r="0.7" /><circle cx="185.830405195" cy="471.749280906" fill="rgb(100%,0%,0%)" r="0.7" /><circle cx="185.594295896" cy="474.739911768" fill="rgb(100%,0%,0%)" r="0.7" /><circle cx="185.300171778" cy="477.725412087" fill="rgb(100%,0%,0%)" r="0.7" /><circle cx="184.952312633" cy="480.705140634" fill="rgb(100%,0%,0%)" r="0.7" /><circle cx="184.554509879" cy="483.678622151" fill="rgb(100%,0%,0%)" r="0.7" /><circle cx="185.175757952" cy="484.445933808" fill="rgb(100%,0%,0%)" r="0.7" /><circle cx="187.219068148" cy="482.249372075" fill="rgb(100%,0%,0%)" r="0.7" /><circle cx="189.262378343" cy="480.052810343" fill="rgb(100%,0%,0%)" r="0.7" /><circle cx="191.305688539" cy="477.856248611" fill="rgb(100%,0%,0%)" r="0.7" /><circle cx="193.348998735" cy="475.659686878" fill="rgb(100%,0%,0%)" r="0.7" /><circle cx="195.392308931" cy="473.463125146" fill="rgb(100%,0%,0%)" r="0.7" /><circle cx="197.435619126" cy="471.266563414" fill="rgb(100%,0%,0%)" r="0.7" /><circle cx="199.478929322" cy="469.070001682" fill="rgb(100%,0%,0%)" r="0.7" /><circle cx="201.787236651" cy="470.031054828" fill="rgb(100%,0%,0%)" r="0.7" /><circle cx="204.168072097" cy="471.856328117" fill="rgb(100%,0%,0%)" r="0.7" /><circle cx="206.548907543" cy="473.681601406" fill="rgb(100%,0%,0%)" r="0.7" /><circle cx="208.929742989" cy="475.506874695" fill="rgb(100%,0%,0%)" r="0.7" /><circle cx="211.310578435" cy="477.332147985" fill="rgb(100%,0%,0%)" r="0.7" /><circle cx="213.691413881" cy="479.157421274" fill="rgb(100%,0%,0%)" r="0.7" /><circle cx="216.072249327" cy="480.982694563" fill="rgb(100%,0%,0%)" r="0.7" /><circle cx="218.453084772" cy="482.807967852" fill="rgb(100%,0%,0%)" r="0.7" /><circle cx="220.833920218" cy="484.633241141" fill="rgb(100%,0%,0%)" r="0.7" /><circle cx="223.214755664" cy="486.45851443" fill="rgb(100%,0%,0%)" r="0.7" /><circle cx="381.493885406" cy="316.604046557" fill="rgb(0%,0%,100%)" r="0.7" /><circle cx="380.124889182" cy="319.273475211" fill="rgb(0%,0%,100%)" r="0.7" /><circle cx="378.755892959" cy="321.942903866" fill="rgb(0%,0%,100%)" r="0.7" /><circle cx="377.386896736" cy="324.61233252" fill="rgb(0%,0%,100%)" r="0.7" /><circle cx="376.017900513" cy="327.281761175" fill="rgb(0%,0%,100%)" r="0.7" /><circle cx="374.64890429" cy="329.951189829" fill="rgb(0%,0%,100%)" r="0.7" /><circle cx="375.598517632" cy="331.38761886" fill="rgb(0%,0%,100%)" r="0.7" /><circle cx="378.57714887" cy="331.745048504" fill="rgb(0%,0%,100%)" r="0.7" /><circle cx="381.555780107" cy="332.102478148" fill="rgb(0%,0%,100%)" r="0.7" /><circle cx="384.534411345" cy="332.459907792" fill="rgb(0%,0%,100%)" r="0.7" /><circle cx="387.513042583" cy="332.817337435" fill="rgb(0%,0%,100%)" r="0.7" /><circle cx="390.49167382" cy="333.174767079" fill="rgb(0%,0%,100%)" r="0.7" /><circle cx="393.470305058" cy="333.532196723" fill="rgb(0%,0%,100%)" r="0.7" /><circle cx="390.856155901" cy="334.774746217" fill="rgb(0%,0%,100%)" r="0.7" /><circle cx="388.149585157" cy="336.068680737" fill="rgb(0%,0%,100%)" r="0.7" /><circle cx="385.455486003" cy="337.38842196" fill="rgb(0%,0%,100%)" r="0.7" /><circle cx="382.77135807" cy="338.728362162" fill="rgb(0%,0%,100%)" r="0.7" /><circle cx="380.095463209" cy="340.08467079" fill="rgb(0%,0%,100%)" r="0.7" /><circle cx="377.42651575" cy="341.454604625" fill="rgb(0%,0%,100%)" r="0.7" /><circle cx="374.763531456" cy="342.83612152" fill="rgb(0%,0%,100%)" r="0.7" /><circle cx="372.1057812" cy="344.227630389" fill="rgb(0%,0%,100%)" r="0.7" /><circle cx="369.452620957" cy="345.627909027" fill="rgb(0%,0%,100%)" r="0.7" /><circle cx="366.80358207" cy="347.035945353" fill="rgb(0%,0%,100%)" r="0.7" /><circle cx="364.158228505" cy="348.450936908" fill="rgb(0%,0%,100%)" r="0.7" /><circle cx="361.516256284" cy="349.872184931" fill="rgb(0%,0%,100%)" r="0.7" /><circle cx="358.877347089" cy="351.299134577" fill="rgb(0%,0%,100%)" r="0.7" /><circle cx="356.241272954" cy="352.731290742" fill="rgb(0%,0%,100%)" r="0.7" /><circle cx="353.607802688" cy="354.168247579" fill="rgb(0%,0%,100%)" r="0.7" /><circle cx="350.976759637" cy="355.60964117" fill="rgb(0%,0%,100%)" r="0.7" /><circle cx="348.347977266" cy="357.055161284" fill="rgb(0%,0%,100%)" r="0.7" /><circle cx="345.721320723" cy="358.504529849" fill="rgb(0%,0%,100%)" r="0.7" /><circle cx="343.096657062" cy="359.957509628" fill="rgb(0%,0%,100%)" r="0.7" /><circle cx="340.473877715" cy="361.413885653" fill="rgb(0%,0%,100%)" r="0.7" /><circle cx="337.8528815" cy="362.873469623" fill="rgb(0%,0%,100%)" r="0.7" /><circle cx="335.233577698" cy="364.336094156" fill="rgb(0%,0%,100%)" r="0.7" /><circle cx="332.615895014" cy="365.80160445" fill="rgb(0%,0%,100%)" r="0.7" /><circle cx="329.999752339" cy="367.269871939" fill="rgb(0%,0%,100%)" r="0.7" /><circle cx="327.385088437" cy="368.740775485" fill="rgb(0%,0%,100%)" r="0.7" /><circle cx="324.771855297" cy="370.214203264" fill="rgb(0%,0%,100%)" r="0.7" /><circle cx="322.159984846" cy="371.690070152" fill="rgb(0%,0%,100%)" r="0.7" /><circle cx="319.549456796" cy="373.168278345" fill="rgb(0%,0%,100%)" r="0.7" /><circle cx="316.940202003" cy="374.648771262" fill="rgb(0%,0%,100%)" r="0.7" /><circle cx="314.332225389" cy="376.131463493" fill="rgb(0%,0%,100%)" r="0.7" /><circle cx="311.725448177" cy="377.616330331" fill="rgb(0%,0%,100%)" r="0.7" /><circle cx="309.11989097" cy="379.10330411" fill="rgb(0%,0%,100%)" r="0.7" /><circle cx="306.515524586" cy="380.592360113" fill="rgb(0%,0%,100%)" r="0.7" /><circle cx="303.912337959" cy="382.08347989" fill="rgb(0%,0%,100%)" r="0.7" /><circle cx="301.310359012" cy="383.576642597" fill="rgb(0%,0%,100%)" r="0.7" /><circle cx="298.709525988" cy="385.071904766" fill="rgb(0%,0%,100%)" r="0.7" /><circle cx="296.109952321" cy="386.56925886" fill="rgb(0%,0%,100%)" r="0.7" /><circle cx="293.511590423" cy="388.068848" fill="rgb(0%,0%,100%)" r="0.7" /><circle cx="290.914654511" cy="389.570772388" fill="rgb(0%,0%,100%)" r="0.7" /><circle cx="288.319253079" cy="391.07546322" fill="rgb(0%,0%,100%)" r="0.7" /><circle cx="285.740552643" cy="392.607920078" fill="rgb(0%,0%,100%)" r="0.7" /><circle cx="283.208513306" cy="394.216829875" fill="rgb(0%,0%,100%)" r="0.7" /><circle cx="280.702122132" cy="395.865430592" fill="rgb(0%,0%,100%)" r="0.7" /><circle cx="278.22274675" cy="397.554322814" fill="rgb(0%,0%,100%)" r="0.7" /><circle cx="275.771709862" cy="399.284158665" fill="rgb(0%,0%,100%)" r="0.7" /><circle cx="273.350514753" cy="401.055483791" fill="rgb(0%,0%,100%)" r="0.7" /><circle cx="270.960667258" cy="402.868855237" fill="rgb(0%,0%,100%)" r="0.7" /><circle cx="268.603715568" cy="404.724812984" fill="rgb(0%,0%,100%)" r="0.7" /><circle cx="266.281334002" cy="406.623808222" fill="rgb(0%,0%,100%)" r="0.7" /><circle cx="263.995186082" cy="408.566306241" fill="rgb(0%,0%,100%)" r="0.7" /><circle cx="261.747051298" cy="410.552677813" fill="rgb(0%,0%,100%)" r="0.7" /><circle cx="259.538770749" cy="412.583233759" fill="rgb(0%,0%,100%)" r="0.7" /><circle cx="257.372209953" cy="414.658252842" fill="rgb(0%,0%,100%)" r="0.7" /><circle cx="255.249316548" cy="416.777921097" fill="rgb(0%,0%,100%)" r="0.7" /><circle cx="253.172084989" cy="418.942354812" fill="rgb(0%,0%,100%)" r="0.7" /><circle cx="251.142565019" cy="421.151582545" fill="rgb(0%,0%,100%)" r="0.7" /><circle cx="249.162868531" cy="423.40552527" fill="rgb(0%,0%,100%)" r="0.7" /><circle cx="247.235091285" cy="425.704076367" fill="rgb(0%,0%,100%)" r="0.7" /><circle cx="245.361437588" cy="428.04694732" fill="rgb(0%,0%,100%)" r="0.7" /><circle cx="243.544128719" cy="430.433758379" fill="rgb(0%,0%,100%)" r="0.7" /><circle cx="241.785374777" cy="432.86407153" fill="rgb(0%,0%,100%)" r="0.7" /><circle cx="240.087475114" cy="435.337244399" fill="rgb(0%,0%,100%)" r="0.7" /><circle cx="238.45268361" cy="437.852608408" fill="rgb(0%,0%,100%)" r="0.7" /><circle cx="236.883333453" cy="440.409280817" fill="rgb(0%,0%,100%)" r="0.7" /><circle cx="235.381719799" cy="443.006341003" fill="rgb(0%,0%,100%)" r="0.7" /><circle cx="233.95020377" cy="445.642663237" fill="rgb(0%,0%,100%)" r="0.7" /><circle cx="232.591134171" cy="448.317056891" fill="rgb(0%,0%,100%)" r="0.7" /><circle cx="231.306911599" cy="451.028169789" fill="rgb(0%,0%,100%)" r="0.7" /><circle cx="230.099965593" cy="453.774565331" fill="rgb(0%,0%,100%)" r="0.7" /><circle cx="228.972813022" cy="456.55465405" fill="rgb(0%,0%,100%)" r="0.7" /><circle cx="227.928077092" cy="459.366732084" fill="rgb(0%,0%,100%)" r="0.7" /><circle cx="226.968533224" cy="462.209018039" fill="rgb(0%,0%,100%)" r="0.7" /><circle cx="226.097219698" cy="465.079589983" fill="rgb(0%,0%,100%)" r="0.7" /><circle cx="225.317572231" cy="467.976361746" fill="rgb(0%,0%,100%)" r="0.7" /><circle cx="224.633600003" cy="470.897220065" fill="rgb(0%,0%,100%)" r="0.7" /><circle cx="224.05030759" cy="473.839814416" fill="rgb(0%,0%,100%)" r="0.7" /><circle cx="223.574357578" cy="476.801627879" fill="rgb(0%,0%,100%)" r="0.7" /><circle cx="223.215583728" cy="479.779871147" fill="rgb(0%,0%,100%)" r="0.7" /><circle cx="222.991215573" cy="482.771182363" fill="rgb(0%,0%,100%)" r="0.7" /><circle cx="222.951" cy="485.77" fill="rgb(0%,0%,100%)" r="0.7" /><circle cx="223.214755664" cy="486.45851443" fill="rgb(0%,0%,100%)" r="0.7" /></svg>