<?xml version="1.0" encoding="utf-8" ?>
<svg baseProfile="full" height="100%" version="1.1" width="100%" xmlns="http://www.w3.org/2000/svg" xmlns:ev="http://www.w3.org/2001/xml-events" xmlns:xlink="http://www.w3.org/1999/xlink"><defs /><circle cx="296.598863243" cy="264.766900855" fill="rgb(100%,0%,0%)" r="0.7" /><circle cx="293.599786015" cy="264.838190407" fill="rgb(100%,0%,0%)" r="0.7" /><circle cx="290.603540442" cy="264.986534851" fill="rgb(100%,0%,0%)" r="0.7" /><circle cx="287.612393927" cy="265.215580118" fill="rgb(100%,0%,0%)" r="0.7" /><circle cx="284.629193636" cy="265.531546515" fill="rgb(100%,0%,0%)" r="0.7" /><circle cx="281.657695235" cy="265.943070411" fill="rgb(100%,0%,0%)" r="0.7" /><circle cx="278.703008954" cy="266.461452904" fill="rgb(100%,0%,0%)" r="0.7" /><circle cx="275.772261744" cy="267.101183838" fill="rgb(100%,0%,0%)" r="0.7" /><circle cx="272.87565688" cy="267.880709301" fill="rgb(100%,0%,0%)" r="0.7" /><circle cx="270.028133137" cy="268.823427002" fill="rgb(100%,0%,0%)" r="0.7" /><circle cx="267.252034597" cy="269.958777688" fill="rgb(100%,0%,0%)" r="0.7" /><circle cx="264.581352242" cy="271.322938351" fill="rgb(100%,0%,0%)" r="0.7" /><circle cx="262.067933423" cy="272.957734271" fill="rgb(100%,0%,0%)" r="0.7" /><circle cx="259.700758843" cy="274.800543275" fill="rgb(100%,0%,0%)" r="0.7" /><circle cx="257.373650339" cy="276.693736971" fill="rgb(100%,0%,0%)" r="0.7" /><circle cx="255.094707871" cy="278.644596668" fill="rgb(100%,0%,0%)" r="0.7" /><circle cx="252.875443277" cy="280.663028444" fill="rgb(100%,0%,0%)" r="0.7" /><circle cx="250.728518081" cy="282.758176368" fill="rgb(100%,0%,0%)" r="0.7" /><circle cx="248.667678715" cy="284.937985615" fill="rgb(100%,0%,0%)" r="0.7" /><circle cx="246.707521393" cy="287.208686193" fill="rgb(100%,0%,0%)" r="0.7" /><circle cx="244.863045505" cy="289.574246486" fill="rgb(100%,0%,0%)" r="0.7" /><circle cx="243.148982765" cy="292.035882306" fill="rgb(100%,0%,0%)" r="0.7" /><circle cx="241.578942111" cy="294.591733338" fill="rgb(100%,0%,0%)" r="0.7" /><circle cx="240.164472095" cy="297.236825566" fill="rgb(100%,0%,0%)" r="0.7" /><circle cx="238.91421311" cy="299.963367472" fill="rgb(100%,0%,0%)" r="0.7" /><circle cx="237.833303102" cy="302.761371848" fill="rgb(100%,0%,0%)" r="0.7" /><circle cx="236.923154946" cy="305.619511937" fill="rgb(100%,0%,0%)" r="0.7" /><circle cx="236.181648807" cy="308.526006546" fill="rgb(100%,0%,0%)" r="0.7" /><circle cx="235.603645993" cy="311.469420549" fill="rgb(100%,0%,0%)" r="0.7" /><circle cx="235.181695782" cy="314.439272513" fill="rgb(100%,0%,0%)" r="0.7" /><circle cx="234.889646662" cy="317.424635618" fill="rgb(100%,0%,0%)" r="0.7" /><circle cx="234.744568926" cy="320.420890483" fill="rgb(100%,0%,0%)" r="0.7" /><circle cx="234.723890662" cy="323.420614313" fill="rgb(100%,0%,0%)" r="0.7" /><circle cx="234.824731325" cy="326.418711" fill="rgb(100%,0%,0%)" r="0.7" /><circle cx="235.050849528" cy="329.409945889" fill="rgb(100%,0%,0%)" r="0.7" /><circle cx="235.409592848" cy="332.388155951" fill="rgb(100%,0%,0%)" r="0.7" /><circle cx="235.910959518" cy="335.345643333" fill="rgb(100%,0%,0%)" r="0.7" /><circle cx="236.567189097" cy="338.272601489" fill="rgb(100%,0%,0%)" r="0.7" /><circle cx="237.392423224" cy="341.156379558" fill="rgb(100%,0%,0%)" r="0.7" /><circle cx="238.402211894" cy="343.980710285" fill="rgb(100%,0%,0%)" r="0.7" /><circle cx="239.612079056" cy="346.725148117" fill="rgb(100%,0%,0%)" r="0.7" /><circle cx="240.983780888" cy="349.392696179" fill="rgb(100%,0%,0%)" r="0.7" /><circle cx="242.474366453" cy="351.995985259" fill="rgb(100%,0%,0%)" r="0.7" /><circle cx="244.055874156" cy="354.545099457" fill="rgb(100%,0%,0%)" r="0.7" /><circle cx="245.719684822" cy="357.041297913" fill="rgb(100%,0%,0%)" r="0.7" /><circle cx="247.461667759" cy="359.483579897" fill="rgb(100%,0%,0%)" r="0.7" /><circle cx="249.279655235" cy="361.869827453" fill="rgb(100%,0%,0%)" r="0.7" /><circle cx="251.172485127" cy="364.197147592" fill="rgb(100%,0%,0%)" r="0.7" /><circle cx="253.139563701" cy="366.462058707" fill="rgb(100%,0%,0%)" r="0.7" /><circle cx="255.180581326" cy="368.660554024" fill="rgb(100%,0%,0%)" r="0.7" /><circle cx="257.295358902" cy="370.788186052" fill="rgb(100%,0%,0%)" r="0.7" /><circle cx="259.483684464" cy="372.840082497" fill="rgb(100%,0%,0%)" r="0.7" /><circle cx="261.745202585" cy="374.810999381" fill="rgb(100%,0%,0%)" r="0.7" /><circle cx="264.08407451" cy="376.689005439" fill="rgb(100%,0%,0%)" r="0.7" /><circle cx="266.466180106" cy="378.512390624" fill="rgb(100%,0%,0%)" r="0.7" /><circle cx="268.79557624" cy="380.402738677" fill="rgb(100%,0%,0%)" r="0.7" /><circle cx="271.080382817" cy="382.346777579" fill="rgb(100%,0%,0%)" r="0.7" /><circle cx="273.321915371" cy="384.340576579" fill="rgb(100%,0%,0%)" r="0.7" /><circle cx="275.519486514" cy="386.382710007" fill="rgb(100%,0%,0%)" r="0.7" /><circle cx="277.671325458" cy="388.472978029" fill="rgb(100%,0%,0%)" r="0.7" /><circle cx="279.77480834" cy="390.611885865" fill="rgb(100%,0%,0%)" r="0.7" /><circle cx="281.826576142" cy="392.800453945" fill="rgb(100%,0%,0%)" r="0.7" /><circle cx="283.8224928" cy="395.040054793" fill="rgb(100%,0%,0%)" r="0.7" /><circle cx="285.757623451" cy="397.332365699" fill="rgb(100%,0%,0%)" r="0.7" /><circle cx="287.6261267" cy="399.679286238" fill="rgb(100%,0%,0%)" r="0.7" /><circle cx="289.421127162" cy="402.082864954" fill="rgb(100%,0%,0%)" r="0.7" /><circle cx="291.13456854" cy="404.545223199" fill="rgb(100%,0%,0%)" r="0.7" /><circle cx="292.757023694" cy="407.068426272" fill="rgb(100%,0%,0%)" r="0.7" /><circle cx="294.277497044" cy="409.654321748" fill="rgb(100%,0%,0%)" r="0.7" /><circle cx="295.730254888" cy="412.278905267" fill="rgb(100%,0%,0%)" r="0.7" /><circle cx="297.16132599" cy="414.915527676" fill="rgb(100%,0%,0%)" r="0.7" /><circle cx="298.54225906" cy="417.578757995" fill="rgb(100%,0%,0%)" r="0.7" /><circle cx="299.874372025" cy="420.266736259" fill="rgb(100%,0%,0%)" r="0.7" /><circle cx="301.154643584" cy="422.979776271" fill="rgb(100%,0%,0%)" r="0.7" /><circle cx="302.377376612" cy="425.71922134" fill="rgb(100%,0%,0%)" r="0.7" /><circle cx="303.534080503" cy="428.487171626" fill="rgb(100%,0%,0%)" r="0.7" /><circle cx="304.612637851" cy="431.286460471" fill="rgb(100%,0%,0%)" r="0.7" /><circle cx="305.595624022" cy="434.120658511" fill="rgb(100%,0%,0%)" r="0.7" /><circle cx="306.457188715" cy="436.993982805" fill="rgb(100%,0%,0%)" r="0.7" /><circle cx="307.157021233" cy="439.910674143" fill="rgb(100%,0%,0%)" r="0.7" /><circle cx="307.627811561" cy="442.872397527" fill="rgb(100%,0%,0%)" r="0.7" /><circle cx="307.826533103" cy="445.865152042" fill="rgb(100%,0%,0%)" r="0.7" /><circle cx="307.94000909" cy="448.862839856" fill="rgb(100%,0%,0%)" r="0.7" /><circle cx="307.955979119" cy="451.862683012" fill="rgb(100%,0%,0%)" r="0.7" /><circle cx="307.880091618" cy="454.861605364" fill="rgb(100%,0%,0%)" r="0.7" /><circle cx="307.709176409" cy="457.856598274" fill="rgb(100%,0%,0%)" r="0.7" /><circle cx="307.435769569" cy="460.843951657" fill="rgb(100%,0%,0%)" r="0.7" /><circle cx="307.048791168" cy="463.818683539" fill="rgb(100%,0%,0%)" r="0.7" /><circle cx="306.533279828" cy="466.773785902" fill="rgb(100%,0%,0%)" r="0.7" /><circle cx="305.869637314" cy="469.699080464" fill="rgb(100%,0%,0%)" r="0.7" /><circle cx="305.032518428" cy="472.579363635" fill="rgb(100%,0%,0%)" r="0.7" /><circle cx="304.053258621" cy="475.414505324" fill="rgb(100%,0%,0%)" r="0.7" /><circle cx="303.01474851" cy="478.228775524" fill="rgb(100%,0%,0%)" r="0.7" /><circle cx="301.875852585" cy="481.004074035" fill="rgb(100%,0%,0%)" r="0.7" /><circle cx="300.65856989" cy="483.745914626" fill="rgb(100%,0%,0%)" r="0.7" /><circle cx="299.373088353" cy="486.456462119" fill="rgb(100%,0%,0%)" r="0.7" /><circle cx="298.025685578" cy="489.136785431" fill="rgb(100%,0%,0%)" r="0.7" /><circle cx="296.620757741" cy="491.787425391" fill="rgb(100%,0%,0%)" r="0.7" /><circle cx="295.161634413" cy="494.408615912" fill="rgb(100%,0%,0%)" r="0.7" /><circle cx="293.650951905" cy="497.000440051" fill="rgb(100%,0%,0%)" r="0.7" /><circle cx="292.090896855" cy="499.562850791" fill="rgb(100%,0%,0%)" r="0.7" /><circle cx="290.483329702" cy="502.095728513" fill="rgb(100%,0%,0%)" r="0.7" /><circle cx="288.829873356" cy="504.598901794" fill="rgb(100%,0%,0%)" r="0.7" /><circle cx="287.131983476" cy="507.072147557" fill="rgb(100%,0%,0%)" r="0.7" /><circle cx="285.390976306" cy="509.515224478" fill="rgb(100%,0%,0%)" r="0.7" /><circle cx="283.60804962" cy="511.927892834" fill="rgb(100%,0%,0%)" r="0.7" /><circle cx="281.784336838" cy="514.309877435" fill="rgb(100%,0%,0%)" r="0.7" /><circle cx="279.92089227" cy="516.660916543" fill="rgb(100%,0%,0%)" r="0.7" /><circle cx="278.018729287" cy="518.98073308" fill="rgb(100%,0%,0%)" r="0.7" /><circle cx="276.078803047" cy="521.269072357" fill="rgb(100%,0%,0%)" r="0.7" /><circle cx="274.102044643" cy="523.525672547" fill="rgb(100%,0%,0%)" r="0.7" /><circle cx="272.089356859" cy="525.75028061" fill="rgb(100%,0%,0%)" r="0.7" /><circle cx="270.041601181" cy="527.942673275" fill="rgb(100%,0%,0%)" r="0.7" /><circle cx="267.959658732" cy="530.102597658" fill="rgb(100%,0%,0%)" r="0.7" /><circle cx="265.84433975" cy="532.229871779" fill="rgb(100%,0%,0%)" r="0.7" /><circle cx="263.696494804" cy="534.324272931" fill="rgb(100%,0%,0%)" r="0.7" /><circle cx="261.516912679" cy="536.385643816" fill="rgb(100%,0%,0%)" r="0.7" /><circle cx="259.306399321" cy="538.41381625" fill="rgb(100%,0%,0%)" r="0.7" /><circle cx="257.065752546" cy="540.408639015" fill="rgb(100%,0%,0%)" r="0.7" /><circle cx="254.795745526" cy="542.369993316" fill="rgb(100%,0%,0%)" r="0.7" /><circle cx="252.497155753" cy="544.297767737" fill="rgb(100%,0%,0%)" r="0.7" /><circle cx="253.987657917" cy="543.841694143" fill="rgb(100%,0%,0%)" r="0.7" /><circle cx="256.724137336" cy="542.612190019" fill="rgb(100%,0%,0%)" r="0.7" /><circle cx="259.460616754" cy="541.382685894" fill="rgb(100%,0%,0%)" r="0.7" /><circle cx="262.197096173" cy="540.15318177" fill="rgb(100%,0%,0%)" r="0.7" /><circle cx="264.933575591" cy="538.923677645" fill="rgb(100%,0%,0%)" r="0.7" /><circle cx="267.67005501" cy="537.694173521" fill="rgb(100%,0%,0%)" r="0.7" /><circle cx="268.133982639" cy="539.195779747" fill="rgb(100%,0%,0%)" r="0.7" /><circle cx="267.422348674" cy="542.110153968" fill="rgb(100%,0%,0%)" r="0.7" /><circle cx="266.710714709" cy="545.024528189" fill="rgb(100%,0%,0%)" r="0.7" /><circle cx="265.999080744" cy="547.93890241" fill="rgb(100%,0%,0%)" r="0.7" /><circle cx="265.287446779" cy="550.853276631" fill="rgb(100%,0%,0%)" r="0.7" /><circle cx="264.879" cy="552.526" fill="rgb(100%,0%,0%)" r="0.7" /><circle cx="296.598863243" cy="264.766900855" fill="rgb(0%,0%,100%)" r="0.7" /><circle cx="299.598768447" cy="264.77276721" fill="rgb(0%,0%,100%)" r="0.7" /><circle cx="302.59714816" cy="264.866738855" fill="rgb(0%,0%,100%)" r="0.7" /><circle cx="300.845523318" cy="266.567958485" fill="rgb(0%,0%,100%)" r="0.7" /><circle cx="298.51444275" cy="268.456360822" fill="rgb(0%,0%,100%)" r="0.7" /><circle cx="296.183362182" cy="270.344763159" fill="rgb(0%,0%,100%)" r="0.7" /><circle cx="293.852281615" cy="272.233165496" fill="rgb(0%,0%,100%)" r="0.7" /><circle cx="295.554471885" cy="273.594832719" fill="rgb(0%,0%,100%)" r="0.7" /><circle cx="298.292339227" cy="274.821243099" fill="rgb(0%,0%,100%)" r="0.7" /><circle cx="301.030206568" cy="276.047653479" fill="rgb(0%,0%,100%)" r="0.7" /><circle cx="298.96320376" cy="276.403618985" fill="rgb(0%,0%,100%)" r="0.7" /><circle cx="295.977123408" cy="276.690316738" fill="rgb(0%,0%,100%)" r="0.7" /><circle cx="293.00432485" cy="277.092030388" fill="rgb(0%,0%,100%)" r="0.7" /><circle cx="290.050905608" cy="277.617292278" fill="rgb(0%,0%,100%)" r="0.7" /><circle cx="287.124176313" cy="278.274997416" fill="rgb(0%,0%,100%)" r="0.7" /><circle cx="284.232921531" cy="279.074223361" fill="rgb(0%,0%,100%)" r="0.7" /><circle cx="281.387618424" cy="280.023958719" fill="rgb(0%,0%,100%)" r="0.7" /><circle cx="278.600516109" cy="281.132764935" fill="rgb(0%,0%,100%)" r="0.7" /><circle cx="275.885730941" cy="282.40832078" fill="rgb(0%,0%,100%)" r="0.7" /><circle cx="273.259259202" cy="283.856861877" fill="rgb(0%,0%,100%)" r="0.7" /><circle cx="270.738729492" cy="285.482641342" fill="rgb(0%,0%,100%)" r="0.7" /><circle cx="268.343151136" cy="287.287365233" fill="rgb(0%,0%,100%)" r="0.7" /><circle cx="266.092512321" cy="289.269802453" fill="rgb(0%,0%,100%)" r="0.7" /><circle cx="264.007480384" cy="291.425641479" fill="rgb(0%,0%,100%)" r="0.7" /><circle cx="262.109500808" cy="293.747746419" fill="rgb(0%,0%,100%)" r="0.7" /><circle cx="260.422090232" cy="296.226968976" fill="rgb(0%,0%,100%)" r="0.7" /><circle cx="258.975884325" cy="298.853964974" fill="rgb(0%,0%,100%)" r="0.7" /><circle cx="257.835553467" cy="301.626320415" fill="rgb(0%,0%,100%)" r="0.7" /><circle cx="256.892622686" cy="304.473151936" fill="rgb(0%,0%,100%)" r="0.7" /><circle cx="256.186109929" cy="307.387899082" fill="rgb(0%,0%,100%)" r="0.7" /><circle cx="255.696767937" cy="310.347167815" fill="rgb(0%,0%,100%)" r="0.7" /><circle cx="255.38428326" cy="313.330490709" fill="rgb(0%,0%,100%)" r="0.7" /><circle cx="255.216051748" cy="316.325534228" fill="rgb(0%,0%,100%)" r="0.7" /><circle cx="255.16537301" cy="319.324951751" fill="rgb(0%,0%,100%)" r="0.7" /><circle cx="255.209542467" cy="322.324527373" fill="rgb(0%,0%,100%)" r="0.7" /><circle cx="255.327865761" cy="325.32213685" fill="rgb(0%,0%,100%)" r="0.7" /><circle cx="255.499113088" cy="328.317222625" fill="rgb(0%,0%,100%)" r="0.7" /><circle cx="255.696886071" cy="331.310695089" fill="rgb(0%,0%,100%)" r="0.7" /><circle cx="256.029437799" cy="334.286752849" fill="rgb(0%,0%,100%)" r="0.7" /><circle cx="257.098781878" cy="337.08334057" fill="rgb(0%,0%,100%)" r="0.7" /><circle cx="258.614534464" cy="339.67006438" fill="rgb(0%,0%,100%)" r="0.7" /><circle cx="260.37984934" cy="342.094706886" fill="rgb(0%,0%,100%)" r="0.7" /><circle cx="262.305239482" cy="344.394796863" fill="rgb(0%,0%,100%)" r="0.7" /><circle cx="264.344371101" cy="346.594901431" fill="rgb(0%,0%,100%)" r="0.7" /><circle cx="266.471424441" cy="348.710228671" fill="rgb(0%,0%,100%)" r="0.7" /><circle cx="268.673024734" cy="350.74787837" fill="rgb(0%,0%,100%)" r="0.7" /><circle cx="270.977210359" cy="352.666337177" fill="rgb(0%,0%,100%)" r="0.7" /><circle cx="273.374838425" cy="354.469438353" fill="rgb(0%,0%,100%)" r="0.7" /><circle cx="275.750030748" cy="356.302049012" fill="rgb(0%,0%,100%)" r="0.7" /><circle cx="278.101862459" cy="358.164514389" fill="rgb(0%,0%,100%)" r="0.7" /><circle cx="280.429421052" cy="360.05721485" fill="rgb(0%,0%,100%)" r="0.7" /><circle cx="282.731749238" cy="361.980523683" fill="rgb(0%,0%,100%)" r="0.7" /><circle cx="285.007836762" cy="363.934800491" fill="rgb(0%,0%,100%)" r="0.7" /><circle cx="287.256662622" cy="365.920428881" fill="rgb(0%,0%,100%)" r="0.7" /><circle cx="289.477100549" cy="367.93773508" fill="rgb(0%,0%,100%)" r="0.7" /><circle cx="291.668010554" cy="369.98706889" fill="rgb(0%,0%,100%)" r="0.7" /><circle cx="293.828175517" cy="372.068748531" fill="rgb(0%,0%,100%)" r="0.7" /><circle cx="295.956382927" cy="374.183142042" fill="rgb(0%,0%,100%)" r="0.7" /><circle cx="298.051263822" cy="376.330512293" fill="rgb(0%,0%,100%)" r="0.7" /><circle cx="300.111478872" cy="378.511205433" fill="rgb(0%,0%,100%)" r="0.7" /><circle cx="302.135531125" cy="380.72546379" fill="rgb(0%,0%,100%)" r="0.7" /><circle cx="304.121921926" cy="382.973595699" fill="rgb(0%,0%,100%)" r="0.7" /><circle cx="306.06899834" cy="385.255816028" fill="rgb(0%,0%,100%)" r="0.7" /><circle cx="307.975085863" cy="387.572406122" fill="rgb(0%,0%,100%)" r="0.7" /><circle cx="309.838364764" cy="389.923584353" fill="rgb(0%,0%,100%)" r="0.7" /><circle cx="311.656877887" cy="392.309525039" fill="rgb(0%,0%,100%)" r="0.7" /><circle cx="313.428577109" cy="394.730441432" fill="rgb(0%,0%,100%)" r="0.7" /><circle cx="315.151221586" cy="397.186482243" fill="rgb(0%,0%,100%)" r="0.7" /><circle cx="316.822411498" cy="399.677816608" fill="rgb(0%,0%,100%)" r="0.7" /><circle cx="318.439525617" cy="402.204605724" fill="rgb(0%,0%,100%)" r="0.7" /><circle cx="319.999640725" cy="404.766958885" fill="rgb(0%,0%,100%)" r="0.7" /><circle cx="321.499507906" cy="407.365013408" fill="rgb(0%,0%,100%)" r="0.7" /><circle cx="322.935449245" cy="409.998954614" fill="rgb(0%,0%,100%)" r="0.7" /><circle cx="324.303151505" cy="412.668944609" fill="rgb(0%,0%,100%)" r="0.7" /><circle cx="325.59747916" cy="415.37526522" fill="rgb(0%,0%,100%)" r="0.7" /><circle cx="326.812010124" cy="418.118296878" fill="rgb(0%,0%,100%)" r="0.7" /><circle cx="327.938276235" cy="420.898705546" fill="rgb(0%,0%,100%)" r="0.7" /><circle cx="328.96402197" cy="423.717704115" fill="rgb(0%,0%,100%)" r="0.7" /><circle cx="329.868251273" cy="426.577875245" fill="rgb(0%,0%,100%)" r="0.7" /><circle cx="330.588721494" cy="429.488951738" fill="rgb(0%,0%,100%)" r="0.7" /><circle cx="331.104777963" cy="432.44408599" fill="rgb(0%,0%,100%)" r="0.7" /><circle cx="331.515146494" cy="435.415721187" fill="rgb(0%,0%,100%)" r="0.7" /><circle cx="331.818687519" cy="438.400164843" fill="rgb(0%,0%,100%)" r="0.7" /><circle cx="332.014764076" cy="441.393577259" fill="rgb(0%,0%,100%)" r="0.7" /><circle cx="332.103261653" cy="444.392110377" fill="rgb(0%,0%,100%)" r="0.7" /><circle cx="332.084580577" cy="447.391893795" fill="rgb(0%,0%,100%)" r="0.7" /><circle cx="331.959623636" cy="450.389136493" fill="rgb(0%,0%,100%)" r="0.7" /><circle cx="331.729766835" cy="453.380171894" fill="rgb(0%,0%,100%)" r="0.7" /><circle cx="331.396821916" cy="456.361492241" fill="rgb(0%,0%,100%)" r="0.7" /><circle cx="330.96298775" cy="459.329808765" fill="rgb(0%,0%,100%)" r="0.7" /><circle cx="330.430793212" cy="462.282095543" fill="rgb(0%,0%,100%)" r="0.7" /><circle cx="329.803052036" cy="465.215547596" fill="rgb(0%,0%,100%)" r="0.7" /><circle cx="329.082790233" cy="468.127679983" fill="rgb(0%,0%,100%)" r="0.7" /><circle cx="328.273205484" cy="471.016257835" fill="rgb(0%,0%,100%)" r="0.7" /><circle cx="327.377605246" cy="473.879338445" fill="rgb(0%,0%,100%)" r="0.7" /><circle cx="326.399358562" cy="476.715257484" fill="rgb(0%,0%,100%)" r="0.7" /><circle cx="325.341860765" cy="479.522593811" fill="rgb(0%,0%,100%)" r="0.7" /><circle cx="324.2084905" cy="482.300172114" fill="rgb(0%,0%,100%)" r="0.7" /><circle cx="323.002579552" cy="485.047039678" fill="rgb(0%,0%,100%)" r="0.7" /><circle cx="321.727387758" cy="487.762444415" fill="rgb(0%,0%,100%)" r="0.7" /><circle cx="320.386082621" cy="490.445813875" fill="rgb(0%,0%,100%)" r="0.7" /><circle cx="318.98172374" cy="493.096734234" fill="rgb(0%,0%,100%)" r="0.7" /><circle cx="317.517251523" cy="495.714929684" fill="rgb(0%,0%,100%)" r="0.7" /><circle cx="315.995479714" cy="498.30024251" fill="rgb(0%,0%,100%)" r="0.7" /><circle cx="314.41908363" cy="500.852626072" fill="rgb(0%,0%,100%)" r="0.7" /><circle cx="312.790609621" cy="503.372107804" fill="rgb(0%,0%,100%)" r="0.7" /><circle cx="311.11247014" cy="505.858782369" fill="rgb(0%,0%,100%)" r="0.7" /><circle cx="309.386935814" cy="508.312810338" fill="rgb(0%,0%,100%)" r="0.7" /><circle cx="307.616142951" cy="510.734396051" fill="rgb(0%,0%,100%)" r="0.7" /><circle cx="305.80210965" cy="513.123758515" fill="rgb(0%,0%,100%)" r="0.7" /><circle cx="303.946722401" cy="515.481144332" fill="rgb(0%,0%,100%)" r="0.7" /><circle cx="302.051722124" cy="517.8068376" fill="rgb(0%,0%,100%)" r="0.7" /><circle cx="300.118779356" cy="520.101062416" fill="rgb(0%,0%,100%)" r="0.7" /><circle cx="298.149395554" cy="522.364098705" fill="rgb(0%,0%,100%)" r="0.7" /><circle cx="296.144975041" cy="524.596187672" fill="rgb(0%,0%,100%)" r="0.7" /><circle cx="294.106850733" cy="526.797500555" fill="rgb(0%,0%,100%)" r="0.7" /><circle cx="292.036168729" cy="528.968255252" fill="rgb(0%,0%,100%)" r="0.7" /><circle cx="289.934027498" cy="531.108553204" fill="rgb(0%,0%,100%)" r="0.7" /><circle cx="287.80140265" cy="533.218446517" fill="rgb(0%,0%,100%)" r="0.7" /><circle cx="285.639102907" cy="535.297956369" fill="rgb(0%,0%,100%)" r="0.7" /><circle cx="283.447854112" cy="537.346958238" fill="rgb(0%,0%,100%)" r="0.7" /><circle cx="281.228249072" cy="539.365187892" fill="rgb(0%,0%,100%)" r="0.7" /><circle cx="278.980685951" cy="541.352228248" fill="rgb(0%,0%,100%)" r="0.7" /><circle cx="276.70536466" cy="543.307401241" fill="rgb(0%,0%,100%)" r="0.7" /><circle cx="274.402182745" cy="545.229672213" fill="rgb(0%,0%,100%)" r="0.7" /><circle cx="272.070600194" cy="547.117415297" fill="rgb(0%,0%,100%)" r="0.7" /><circle cx="269.709353485" cy="548.96790102" fill="rgb(0%,0%,100%)" r="0.7" /><circle cx="267.315479458" cy="550.775996729" fill="rgb(0%,0%,100%)" r="0.7" /><circle cx="264.879" cy="552.526" fill="rgb(0%,0%,100%)" r="0.7" /></svg>