<?xml version="1.0" encoding="utf-8" ?>
<svg baseProfile="full" height="100%" version="1.1" width="100%" xmlns="http://www.w3.org/2000/svg" xmlns:ev="http://www.w3.org/2001/xml-events" xmlns:xlink="http://www.w3.org/1999/xlink"><defs /><circle cx="336.340411168" cy="336.772755707" fill="rgb(100%,0%,0%)" r="0.7" /><circle cx="333.453244299" cy="337.412325348" fill="rgb(100%,0%,0%)" r="0.7" /><circle cx="330.940700192" cy="339.04334233" fill="rgb(100%,0%,0%)" r="0.7" /><circle cx="328.817600614" cy="341.154059993" fill="rgb(100%,0%,0%)" r="0.7" /><circle cx="327.061079702" cy="343.5839392" fill="rgb(100%,0%,0%)" r="0.7" /><circle cx="325.541911025" cy="346.169992671" fill="rgb(100%,0%,0%)" r="0.7" /><circle cx="324.204273175" cy="348.854702411" fill="rgb(100%,0%,0%)" r="0.7" /><circle cx="323.329364856" cy="351.711936251" fill="rgb(100%,0%,0%)" r="0.7" /><circle cx="322.815855402" cy="354.667073444" fill="rgb(100%,0%,0%)" r="0.7" /><circle cx="322.488631679" cy="357.648756856" fill="rgb(100%,0%,0%)" r="0.7" /><circle cx="322.321309067" cy="360.643779898" fill="rgb(100%,0%,0%)" r="0.7" /><circle cx="322.292398131" cy="363.64341011" fill="rgb(100%,0%,0%)" r="0.7" /><circle cx="322.384517544" cy="366.641817336" fill="rgb(100%,0%,0%)" r="0.7" /><circle cx="322.583646606" cy="369.635058442" fill="rgb(100%,0%,0%)" r="0.7" /><circle cx="322.878510091" cy="372.620418978" fill="rgb(100%,0%,0%)" r="0.7" /><circle cx="323.260111571" cy="375.595952565" fill="rgb(100%,0%,0%)" r="0.7" /><circle cx="323.721423933" cy="378.560189389" fill="rgb(100%,0%,0%)" r="0.7" /><circle cx="324.257250503" cy="381.511875158" fill="rgb(100%,0%,0%)" r="0.7" /><circle cx="324.864350731" cy="384.449726772" fill="rgb(100%,0%,0%)" r="0.7" /><circle cx="325.542177205" cy="387.372076034" fill="rgb(100%,0%,0%)" r="0.7" /><circle cx="326.296075121" cy="390.275705753" fill="rgb(100%,0%,0%)" r="0.7" /><circle cx="327.272391916" cy="393.106694761" fill="rgb(100%,0%,0%)" r="0.7" /><circle cx="328.06924246" cy="395.998041844" fill="rgb(100%,0%,0%)" r="0.7" /><circle cx="328.704613738" cy="398.929800677" fill="rgb(100%,0%,0%)" r="0.7" /><circle cx="329.241092234" cy="401.881313146" fill="rgb(100%,0%,0%)" r="0.7" /><circle cx="329.439072495" cy="404.863284929" fill="rgb(100%,0%,0%)" r="0.7" /><circle cx="329.512540992" cy="407.861485047" fill="rgb(100%,0%,0%)" r="0.7" /><circle cx="329.837690035" cy="410.84293681" fill="rgb(100%,0%,0%)" r="0.7" /><circle cx="330.408905832" cy="413.787183976" fill="rgb(100%,0%,0%)" r="0.7" /><circle cx="331.223386873" cy="416.673574275" fill="rgb(100%,0%,0%)" r="0.7" /><circle cx="332.291926088" cy="419.47557986" fill="rgb(100%,0%,0%)" r="0.7" /><circle cx="333.394924363" cy="422.257876259" fill="rgb(100%,0%,0%)" r="0.7" /><circle cx="334.26834737" cy="425.127828889" fill="rgb(100%,0%,0%)" r="0.7" /><circle cx="335.066979484" cy="428.019486536" fill="rgb(100%,0%,0%)" r="0.7" /><circle cx="335.788866245" cy="430.931240827" fill="rgb(100%,0%,0%)" r="0.7" /><circle cx="336.43211531" cy="433.861368249" fill="rgb(100%,0%,0%)" r="0.7" /><circle cx="336.994897149" cy="436.808015169" fill="rgb(100%,0%,0%)" r="0.7" /><circle cx="337.475446278" cy="439.769183604" fill="rgb(100%,0%,0%)" r="0.7" /><circle cx="337.872065625" cy="442.742745282" fill="rgb(100%,0%,0%)" r="0.7" /><circle cx="338.183125921" cy="445.726466459" fill="rgb(100%,0%,0%)" r="0.7" /><circle cx="338.407053799" cy="448.717995822" fill="rgb(100%,0%,0%)" r="0.7" /><circle cx="338.542315005" cy="451.714833847" fill="rgb(100%,0%,0%)" r="0.7" /><circle cx="338.587394116" cy="454.714378924" fill="rgb(100%,0%,0%)" r="0.7" /><circle cx="338.540755149" cy="457.713899109" fill="rgb(100%,0%,0%)" r="0.7" /><circle cx="338.400788042" cy="460.710498763" fill="rgb(100%,0%,0%)" r="0.7" /><circle cx="338.165724151" cy="463.701156653" fill="rgb(100%,0%,0%)" r="0.7" /><circle cx="337.833519162" cy="466.682568025" fill="rgb(100%,0%,0%)" r="0.7" /><circle cx="337.401650817" cy="469.651165909" fill="rgb(100%,0%,0%)" r="0.7" /><circle cx="336.866784848" cy="472.60295068" fill="rgb(100%,0%,0%)" r="0.7" /><circle cx="336.224172964" cy="475.533123329" fill="rgb(100%,0%,0%)" r="0.7" /><circle cx="335.466291426" cy="478.4356021" fill="rgb(100%,0%,0%)" r="0.7" /><circle cx="334.579146197" cy="481.301118544" fill="rgb(100%,0%,0%)" r="0.7" /><circle cx="333.52" cy="484.107" fill="rgb(100%,0%,0%)" r="0.7" /><circle cx="334.385065413" cy="483.648790105" fill="rgb(100%,0%,0%)" r="0.7" /><circle cx="337.036132456" cy="482.244566642" fill="rgb(100%,0%,0%)" r="0.7" /><circle cx="339.687199499" cy="480.840343179" fill="rgb(100%,0%,0%)" r="0.7" /><circle cx="342.338266541" cy="479.436119716" fill="rgb(100%,0%,0%)" r="0.7" /><circle cx="344.278722932" cy="481.357892744" fill="rgb(100%,0%,0%)" r="0.7" /><circle cx="346.124485211" cy="483.722879343" fill="rgb(100%,0%,0%)" r="0.7" /><circle cx="347.970247489" cy="486.087865941" fill="rgb(100%,0%,0%)" r="0.7" /><circle cx="349.6230586" cy="487.08608724" fill="rgb(100%,0%,0%)" r="0.7" /><circle cx="336.340411168" cy="336.772755707" fill="rgb(0%,0%,100%)" r="0.7" /><circle cx="338.736789894" cy="338.422705331" fill="rgb(0%,0%,100%)" r="0.7" /><circle cx="340.260619673" cy="340.987393461" fill="rgb(0%,0%,100%)" r="0.7" /><circle cx="340.692857941" cy="343.93412904" fill="rgb(0%,0%,100%)" r="0.7" /><circle cx="339.923257815" cy="346.815418912" fill="rgb(0%,0%,100%)" r="0.7" /><circle cx="338.149123772" cy="349.178810562" fill="rgb(0%,0%,100%)" r="0.7" /><circle cx="336.257130967" cy="351.488290435" fill="rgb(0%,0%,100%)" r="0.7" /><circle cx="335.285288789" cy="354.308702202" fill="rgb(0%,0%,100%)" r="0.7" /><circle cx="335.350674291" cy="357.294545784" fill="rgb(0%,0%,100%)" r="0.7" /><circle cx="336.111809112" cy="360.194878137" fill="rgb(0%,0%,100%)" r="0.7" /><circle cx="336.884123908" cy="363.093766232" fill="rgb(0%,0%,100%)" r="0.7" /><circle cx="337.652555052" cy="365.993683604" fill="rgb(0%,0%,100%)" r="0.7" /><circle cx="338.417199245" cy="368.894603389" fill="rgb(0%,0%,100%)" r="0.7" /><circle cx="339.177803464" cy="371.796582747" fill="rgb(0%,0%,100%)" r="0.7" /><circle cx="339.933889791" cy="374.699743923" fill="rgb(0%,0%,100%)" r="0.7" /><circle cx="340.684726748" cy="377.604265923" fill="rgb(0%,0%,100%)" r="0.7" /><circle cx="341.429229776" cy="380.510418179" fill="rgb(0%,0%,100%)" r="0.7" /><circle cx="342.165742967" cy="383.418602982" fill="rgb(0%,0%,100%)" r="0.7" /><circle cx="342.891575608" cy="386.329472976" fill="rgb(0%,0%,100%)" r="0.7" /><circle cx="343.601844934" cy="389.244177185" fill="rgb(0%,0%,100%)" r="0.7" /><circle cx="344.207345228" cy="392.181363517" fill="rgb(0%,0%,100%)" r="0.7" /><circle cx="344.719067246" cy="395.13737607" fill="rgb(0%,0%,100%)" r="0.7" /><circle cx="345.145561892" cy="398.106365309" fill="rgb(0%,0%,100%)" r="0.7" /><circle cx="345.625896375" cy="401.067195341" fill="rgb(0%,0%,100%)" r="0.7" /><circle cx="346.143762434" cy="404.022149688" fill="rgb(0%,0%,100%)" r="0.7" /><circle cx="346.694308817" cy="406.971180768" fill="rgb(0%,0%,100%)" r="0.7" /><circle cx="347.295284508" cy="409.910304435" fill="rgb(0%,0%,100%)" r="0.7" /><circle cx="348.006096365" cy="412.824381123" fill="rgb(0%,0%,100%)" r="0.7" /><circle cx="348.899268889" cy="415.681292858" fill="rgb(0%,0%,100%)" r="0.7" /><circle cx="349.455623235" cy="418.629054849" fill="rgb(0%,0%,100%)" r="0.7" /><circle cx="349.93295758" cy="421.590772028" fill="rgb(0%,0%,100%)" r="0.7" /><circle cx="350.364250798" cy="424.559593244" fill="rgb(0%,0%,100%)" r="0.7" /><circle cx="350.759460361" cy="427.533438725" fill="rgb(0%,0%,100%)" r="0.7" /><circle cx="351.122866145" cy="430.511332068" fill="rgb(0%,0%,100%)" r="0.7" /><circle cx="351.45642282" cy="433.492721402" fill="rgb(0%,0%,100%)" r="0.7" /><circle cx="351.760848922" cy="436.477227189" fill="rgb(0%,0%,100%)" r="0.7" /><circle cx="352.03607529" cy="439.46455892" fill="rgb(0%,0%,100%)" r="0.7" /><circle cx="352.28144938" cy="442.454501321" fill="rgb(0%,0%,100%)" r="0.7" /><circle cx="352.495816892" cy="445.446817012" fill="rgb(0%,0%,100%)" r="0.7" /><circle cx="352.677551921" cy="448.441292882" fill="rgb(0%,0%,100%)" r="0.7" /><circle cx="352.82453446" cy="451.437672883" fill="rgb(0%,0%,100%)" r="0.7" /><circle cx="352.934096474" cy="454.435652011" fill="rgb(0%,0%,100%)" r="0.7" /><circle cx="353.002928268" cy="457.434838114" fill="rgb(0%,0%,100%)" r="0.7" /><circle cx="353.026939572" cy="460.43471296" fill="rgb(0%,0%,100%)" r="0.7" /><circle cx="353.001059134" cy="463.434564707" fill="rgb(0%,0%,100%)" r="0.7" /><circle cx="352.918947357" cy="466.433393267" fill="rgb(0%,0%,100%)" r="0.7" /><circle cx="352.772579501" cy="469.429747206" fill="rgb(0%,0%,100%)" r="0.7" /><circle cx="352.551624054" cy="472.421518093" fill="rgb(0%,0%,100%)" r="0.7" /><circle cx="352.242505231" cy="475.40541533" fill="rgb(0%,0%,100%)" r="0.7" /><circle cx="351.826909624" cy="478.376294194" fill="rgb(0%,0%,100%)" r="0.7" /><circle cx="351.279365061" cy="481.325589595" fill="rgb(0%,0%,100%)" r="0.7" /><circle cx="350.563133532" cy="484.238263025" fill="rgb(0%,0%,100%)" r="0.7" /><circle cx="349.6230586" cy="487.08608724" fill="rgb(0%,0%,100%)" r="0.7" /></svg>