<?xml version="1.0" encoding="utf-8" ?>
<svg baseProfile="full" height="100%" version="1.1" width="100%" xmlns="http://www.w3.org/2000/svg" xmlns:ev="http://www.w3.org/2001/xml-events" xmlns:xlink="http://www.w3.org/1999/xlink"><defs /><circle cx="310.653194719" cy="319.634674626" fill="rgb(100%,0%,0%)" r="0.7" /><circle cx="307.868876979" cy="320.681864604" fill="rgb(100%,0%,0%)" r="0.7" /><circle cx="305.875720239" cy="322.888082175" fill="rgb(100%,0%,0%)" r="0.7" /><circle cx="304.838681909" cy="325.691502043" fill="rgb(100%,0%,0%)" r="0.7" /><circle cx="304.468343609" cy="328.66465294" fill="rgb(100%,0%,0%)" r="0.7" /><circle cx="304.457053569" cy="331.663862311" fill="rgb(100%,0%,0%)" r="0.7" /><circle cx="304.071458144" cy="334.63713257" fill="rgb(100%,0%,0%)" r="0.7" /><circle cx="302.972196973" cy="337.395558901" fill="rgb(100%,0%,0%)" r="0.7" /><circle cx="302.110424266" cy="340.265505739" fill="rgb(100%,0%,0%)" r="0.7" /><circle cx="301.615864401" cy="343.223322792" fill="rgb(100%,0%,0%)" r="0.7" /><circle cx="301.351215598" cy="346.211129367" fill="rgb(100%,0%,0%)" r="0.7" /><circle cx="301.248577683" cy="349.209101138" fill="rgb(100%,0%,0%)" r="0.7" /><circle cx="301.2712145" cy="352.208840267" fill="rgb(100%,0%,0%)" r="0.7" /><circle cx="301.400507591" cy="355.205904113" fill="rgb(100%,0%,0%)" r="0.7" /><circle cx="301.428156529" cy="358.179268849" fill="rgb(100%,0%,0%)" r="0.7" /><circle cx="300.920273849" cy="361.134742551" fill="rgb(100%,0%,0%)" r="0.7" /><circle cx="300.594953303" cy="364.116871438" fill="rgb(100%,0%,0%)" r="0.7" /><circle cx="300.357214732" cy="367.107373243" fill="rgb(100%,0%,0%)" r="0.7" /><circle cx="300.173675147" cy="370.101737346" fill="rgb(100%,0%,0%)" r="0.7" /><circle cx="300.027990793" cy="373.0981787" fill="rgb(100%,0%,0%)" r="0.7" /><circle cx="299.91072195" cy="376.095883396" fill="rgb(100%,0%,0%)" r="0.7" /><circle cx="299.815840046" cy="379.094379896" fill="rgb(100%,0%,0%)" r="0.7" /><circle cx="299.739219453" cy="382.093403579" fill="rgb(100%,0%,0%)" r="0.7" /><circle cx="299.677893522" cy="385.092772817" fill="rgb(100%,0%,0%)" r="0.7" /><circle cx="299.629646397" cy="388.092385526" fill="rgb(100%,0%,0%)" r="0.7" /><circle cx="299.592774406" cy="391.092156779" fill="rgb(100%,0%,0%)" r="0.7" /><circle cx="299.565936435" cy="394.092039096" fill="rgb(100%,0%,0%)" r="0.7" /><circle cx="299.548057266" cy="397.091986566" fill="rgb(100%,0%,0%)" r="0.7" /><circle cx="299.538261856" cy="400.091971357" fill="rgb(100%,0%,0%)" r="0.7" /><circle cx="299.535829958" cy="403.091972782" fill="rgb(100%,0%,0%)" r="0.7" /><circle cx="299.540163818" cy="406.091966549" fill="rgb(100%,0%,0%)" r="0.7" /><circle cx="299.550764966" cy="409.091945631" fill="rgb(100%,0%,0%)" r="0.7" /><circle cx="299.567217569" cy="412.091911848" fill="rgb(100%,0%,0%)" r="0.7" /><circle cx="299.589176327" cy="415.091833693" fill="rgb(100%,0%,0%)" r="0.7" /><circle cx="299.61635904" cy="418.091710762" fill="rgb(100%,0%,0%)" r="0.7" /><circle cx="299.64854241" cy="421.091527875" fill="rgb(100%,0%,0%)" r="0.7" /><circle cx="299.68556304" cy="424.091306622" fill="rgb(100%,0%,0%)" r="0.7" /><circle cx="299.727323402" cy="427.091028395" fill="rgb(100%,0%,0%)" r="0.7" /><circle cx="299.773810684" cy="430.090672713" fill="rgb(100%,0%,0%)" r="0.7" /><circle cx="299.825143096" cy="433.090218281" fill="rgb(100%,0%,0%)" r="0.7" /><circle cx="299.881708176" cy="436.089691178" fill="rgb(100%,0%,0%)" r="0.7" /><circle cx="299.945" cy="439.089" fill="rgb(100%,0%,0%)" r="0.7" /><circle cx="300.633885351" cy="437.955837489" fill="rgb(100%,0%,0%)" r="0.7" /><circle cx="302.192296917" cy="435.392372375" fill="rgb(100%,0%,0%)" r="0.7" /><circle cx="303.750708483" cy="432.828907261" fill="rgb(100%,0%,0%)" r="0.7" /><circle cx="305.309120049" cy="430.265442147" fill="rgb(100%,0%,0%)" r="0.7" /><circle cx="306.867531615" cy="427.701977033" fill="rgb(100%,0%,0%)" r="0.7" /><circle cx="308.717947431" cy="428.006565696" fill="rgb(100%,0%,0%)" r="0.7" /><circle cx="310.761013244" cy="430.203354736" fill="rgb(100%,0%,0%)" r="0.7" /><circle cx="312.804079056" cy="432.400143775" fill="rgb(100%,0%,0%)" r="0.7" /><circle cx="314.847144869" cy="434.596932815" fill="rgb(100%,0%,0%)" r="0.7" /><circle cx="316.890210682" cy="436.793721855" fill="rgb(100%,0%,0%)" r="0.7" /><circle cx="318.933276495" cy="438.990510894" fill="rgb(100%,0%,0%)" r="0.7" /><circle cx="320.878434078" cy="440.853747498" fill="rgb(100%,0%,0%)" r="0.7" /><circle cx="310.653194719" cy="319.634674626" fill="rgb(0%,0%,100%)" r="0.7" /><circle cx="313.508758965" cy="320.145911795" fill="rgb(0%,0%,100%)" r="0.7" /><circle cx="315.839509805" cy="322.018943022" fill="rgb(0%,0%,100%)" r="0.7" /><circle cx="317.602199286" cy="324.436998619" fill="rgb(0%,0%,100%)" r="0.7" /><circle cx="318.770597954" cy="327.194177006" fill="rgb(0%,0%,100%)" r="0.7" /><circle cx="319.403454894" cy="330.123092666" fill="rgb(0%,0%,100%)" r="0.7" /><circle cx="319.66458803" cy="333.111651359" fill="rgb(0%,0%,100%)" r="0.7" /><circle cx="319.918561302" cy="336.100882293" fill="rgb(0%,0%,100%)" r="0.7" /><circle cx="320.168297239" cy="339.090476094" fill="rgb(0%,0%,100%)" r="0.7" /><circle cx="320.414015281" cy="342.08040142" fill="rgb(0%,0%,100%)" r="0.7" /><circle cx="320.65571752" cy="345.070642505" fill="rgb(0%,0%,100%)" r="0.7" /><circle cx="320.893292004" cy="348.061221919" fill="rgb(0%,0%,100%)" r="0.7" /><circle cx="321.126538338" cy="351.052143504" fill="rgb(0%,0%,100%)" r="0.7" /><circle cx="321.355177104" cy="354.043418127" fill="rgb(0%,0%,100%)" r="0.7" /><circle cx="321.578846179" cy="357.035069805" fill="rgb(0%,0%,100%)" r="0.7" /><circle cx="321.797087116" cy="360.027123195" fill="rgb(0%,0%,100%)" r="0.7" /><circle cx="322.009323839" cy="363.019606125" fill="rgb(0%,0%,100%)" r="0.7" /><circle cx="322.214830251" cy="366.012559541" fill="rgb(0%,0%,100%)" r="0.7" /><circle cx="322.412679507" cy="369.006028609" fill="rgb(0%,0%,100%)" r="0.7" /><circle cx="322.601667384" cy="372.000069121" fill="rgb(0%,0%,100%)" r="0.7" /><circle cx="322.78018957" cy="374.994749355" fill="rgb(0%,0%,100%)" r="0.7" /><circle cx="322.946036805" cy="377.990164629" fill="rgb(0%,0%,100%)" r="0.7" /><circle cx="323.096025317" cy="380.986410542" fill="rgb(0%,0%,100%)" r="0.7" /><circle cx="323.213483568" cy="383.984039456" fill="rgb(0%,0%,100%)" r="0.7" /><circle cx="323.299336194" cy="386.982809588" fill="rgb(0%,0%,100%)" r="0.7" /><circle cx="323.365756535" cy="389.982071245" fill="rgb(0%,0%,100%)" r="0.7" /><circle cx="323.414516576" cy="392.981675929" fill="rgb(0%,0%,100%)" r="0.7" /><circle cx="323.446066566" cy="395.981504372" fill="rgb(0%,0%,100%)" r="0.7" /><circle cx="323.460277449" cy="398.981473705" fill="rgb(0%,0%,100%)" r="0.7" /><circle cx="323.456653594" cy="401.98146451" fill="rgb(0%,0%,100%)" r="0.7" /><circle cx="323.434408478" cy="404.981378324" fill="rgb(0%,0%,100%)" r="0.7" /><circle cx="323.392484645" cy="407.981081676" fill="rgb(0%,0%,100%)" r="0.7" /><circle cx="323.329543477" cy="410.980417257" fill="rgb(0%,0%,100%)" r="0.7" /><circle cx="323.243932178" cy="413.979187108" fill="rgb(0%,0%,100%)" r="0.7" /><circle cx="323.133627818" cy="416.977150645" fill="rgb(0%,0%,100%)" r="0.7" /><circle cx="322.996155292" cy="419.97398934" fill="rgb(0%,0%,100%)" r="0.7" /><circle cx="322.828468664" cy="422.969286469" fill="rgb(0%,0%,100%)" r="0.7" /><circle cx="322.62678109" cy="425.962480783" fill="rgb(0%,0%,100%)" r="0.7" /><circle cx="322.386315627" cy="428.952805983" fill="rgb(0%,0%,100%)" r="0.7" /><circle cx="322.100933001" cy="431.939170177" fill="rgb(0%,0%,100%)" r="0.7" /><circle cx="321.762551848" cy="434.919977164" fill="rgb(0%,0%,100%)" r="0.7" /><circle cx="321.360206033" cy="437.89280725" fill="rgb(0%,0%,100%)" r="0.7" /><circle cx="320.878434078" cy="440.853747498" fill="rgb(0%,0%,100%)" r="0.7" /></svg>