<?xml version="1.0" encoding="utf-8" ?>
<svg baseProfile="full" height="100%" version="1.1" width="100%" xmlns="http://www.w3.org/2000/svg" xmlns:ev="http://www.w3.org/2001/xml-events" xmlns:xlink="http://www.w3.org/1999/xlink"><defs /><circle cx="341.069730654" cy="371.745000603" fill="rgb(100%,0%,0%)" r="0.7" /><circle cx="338.075839639" cy="371.890163921" fill="rgb(100%,0%,0%)" r="0.7" /><circle cx="335.120364612" cy="372.397473203" fill="rgb(100%,0%,0%)" r="0.7" /><circle cx="332.220195183" cy="373.162176719" fill="rgb(100%,0%,0%)" r="0.7" /><circle cx="329.41982895" cy="374.224412324" fill="rgb(100%,0%,0%)" r="0.7" /><circle cx="326.770756897" cy="375.631112116" fill="rgb(100%,0%,0%)" r="0.7" /><circle cx="324.207755117" cy="377.189690024" fill="rgb(100%,0%,0%)" r="0.7" /><circle cx="321.718156981" cy="378.863183992" fill="rgb(100%,0%,0%)" r="0.7" /><circle cx="319.295652987" cy="380.632497552" fill="rgb(100%,0%,0%)" r="0.7" /><circle cx="316.936147391" cy="382.485046761" fill="rgb(100%,0%,0%)" r="0.7" /><circle cx="314.636613511" cy="384.411558813" fill="rgb(100%,0%,0%)" r="0.7" /><circle cx="312.394613918" cy="386.404753112" fill="rgb(100%,0%,0%)" r="0.7" /><circle cx="310.208084435" cy="388.458661809" fill="rgb(100%,0%,0%)" r="0.7" /><circle cx="308.075205703" cy="390.568252008" fill="rgb(100%,0%,0%)" r="0.7" /><circle cx="305.99434355" cy="392.729175784" fill="rgb(100%,0%,0%)" r="0.7" /><circle cx="303.963986339" cy="394.937630808" fill="rgb(100%,0%,0%)" r="0.7" /><circle cx="301.982723938" cy="397.190244109" fill="rgb(100%,0%,0%)" r="0.7" /><circle cx="300.049227445" cy="399.483994284" fill="rgb(100%,0%,0%)" r="0.7" /><circle cx="298.204609404" cy="401.847415919" fill="rgb(100%,0%,0%)" r="0.7" /><circle cx="296.66389763" cy="404.420724457" fill="rgb(100%,0%,0%)" r="0.7" /><circle cx="295.286764707" cy="407.085556689" fill="rgb(100%,0%,0%)" r="0.7" /><circle cx="294.042367122" cy="409.815013096" fill="rgb(100%,0%,0%)" r="0.7" /><circle cx="292.917689825" cy="412.595985816" fill="rgb(100%,0%,0%)" r="0.7" /><circle cx="291.905009501" cy="415.419702203" fill="rgb(100%,0%,0%)" r="0.7" /><circle cx="290.99898545" cy="418.279443938" fill="rgb(100%,0%,0%)" r="0.7" /><circle cx="290.195529217" cy="421.169695898" fill="rgb(100%,0%,0%)" r="0.7" /><circle cx="289.491275931" cy="424.085711116" fill="rgb(100%,0%,0%)" r="0.7" /><circle cx="288.883286996" cy="427.0233261" fill="rgb(100%,0%,0%)" r="0.7" /><circle cx="288.368896702" cy="429.978771669" fill="rgb(100%,0%,0%)" r="0.7" /><circle cx="287.945598435" cy="432.948647932" fill="rgb(100%,0%,0%)" r="0.7" /><circle cx="287.610990877" cy="435.929815043" fill="rgb(100%,0%,0%)" r="0.7" /><circle cx="287.362729357" cy="438.919424539" fill="rgb(100%,0%,0%)" r="0.7" /><circle cx="287.133123881" cy="441.910467994" fill="rgb(100%,0%,0%)" r="0.7" /><circle cx="286.987309103" cy="444.906843739" fill="rgb(100%,0%,0%)" r="0.7" /><circle cx="286.918786859" cy="447.905973529" fill="rgb(100%,0%,0%)" r="0.7" /><circle cx="286.928153322" cy="450.905871615" fill="rgb(100%,0%,0%)" r="0.7" /><circle cx="287.020614889" cy="453.904344307" fill="rgb(100%,0%,0%)" r="0.7" /><circle cx="287.204767242" cy="456.898557018" fill="rgb(100%,0%,0%)" r="0.7" /><circle cx="287.492751915" cy="459.88452918" fill="rgb(100%,0%,0%)" r="0.7" /><circle cx="287.901078538" cy="462.856369792" fill="rgb(100%,0%,0%)" r="0.7" /><circle cx="288.452084121" cy="465.804979041" fill="rgb(100%,0%,0%)" r="0.7" /><circle cx="289.176200893" cy="468.715718093" fill="rgb(100%,0%,0%)" r="0.7" /><circle cx="290.115233962" cy="471.564028755" fill="rgb(100%,0%,0%)" r="0.7" /><circle cx="291.326376508" cy="474.306978435" fill="rgb(100%,0%,0%)" r="0.7" /><circle cx="292.814041553" cy="476.909065533" fill="rgb(100%,0%,0%)" r="0.7" /><circle cx="294.313914149" cy="479.506281134" fill="rgb(100%,0%,0%)" r="0.7" /><circle cx="295.979473917" cy="482.001011869" fill="rgb(100%,0%,0%)" r="0.7" /><circle cx="297.76852268" cy="484.40885135" fill="rgb(100%,0%,0%)" r="0.7" /><circle cx="299.66230465" cy="486.735271469" fill="rgb(100%,0%,0%)" r="0.7" /><circle cx="301.648892576" cy="488.983006225" fill="rgb(100%,0%,0%)" r="0.7" /><circle cx="303.719488254" cy="491.153632732" fill="rgb(100%,0%,0%)" r="0.7" /><circle cx="305.867032548" cy="493.248178496" fill="rgb(100%,0%,0%)" r="0.7" /><circle cx="308.085556439" cy="495.267411603" fill="rgb(100%,0%,0%)" r="0.7" /><circle cx="310.369817908" cy="497.211979623" fill="rgb(100%,0%,0%)" r="0.7" /><circle cx="312.715111899" cy="499.082507885" fill="rgb(100%,0%,0%)" r="0.7" /><circle cx="315.117123641" cy="500.879632494" fill="rgb(100%,0%,0%)" r="0.7" /><circle cx="317.571861452" cy="502.604041984" fill="rgb(100%,0%,0%)" r="0.7" /><circle cx="320.075615558" cy="504.256501215" fill="rgb(100%,0%,0%)" r="0.7" /><circle cx="322.624885705" cy="505.837835026" fill="rgb(100%,0%,0%)" r="0.7" /><circle cx="325.216404855" cy="507.348962571" fill="rgb(100%,0%,0%)" r="0.7" /><circle cx="327.019957856" cy="507.987319231" fill="rgb(100%,0%,0%)" r="0.7" /><circle cx="341.069730654" cy="371.745000603" fill="rgb(0%,0%,100%)" r="0.7" /><circle cx="344.039871662" cy="372.125275067" fill="rgb(0%,0%,100%)" r="0.7" /><circle cx="346.808833319" cy="373.248769195" fill="rgb(0%,0%,100%)" r="0.7" /><circle cx="349.019162337" cy="375.249590835" fill="rgb(0%,0%,100%)" r="0.7" /><circle cx="350.266528709" cy="377.953013093" fill="rgb(0%,0%,100%)" r="0.7" /><circle cx="350.804404384" cy="380.89170261" fill="rgb(0%,0%,100%)" r="0.7" /><circle cx="350.18965172" cy="383.801721086" fill="rgb(0%,0%,100%)" r="0.7" /><circle cx="348.344250009" cy="386.135736746" fill="rgb(0%,0%,100%)" r="0.7" /><circle cx="345.727990198" cy="387.581214868" fill="rgb(0%,0%,100%)" r="0.7" /><circle cx="343.063578071" cy="388.959119707" fill="rgb(0%,0%,100%)" r="0.7" /><circle cx="340.479724307" cy="390.482712654" fill="rgb(0%,0%,100%)" r="0.7" /><circle cx="337.985333895" cy="392.148732614" fill="rgb(0%,0%,100%)" r="0.7" /><circle cx="335.588437414" cy="393.9522209" fill="rgb(0%,0%,100%)" r="0.7" /><circle cx="333.295939568" cy="395.886679084" fill="rgb(0%,0%,100%)" r="0.7" /><circle cx="331.113363089" cy="397.944380958" fill="rgb(0%,0%,100%)" r="0.7" /><circle cx="329.044781694" cy="400.116672247" fill="rgb(0%,0%,100%)" r="0.7" /><circle cx="327.092797304" cy="402.394334125" fill="rgb(0%,0%,100%)" r="0.7" /><circle cx="325.258617945" cy="404.767927441" fill="rgb(0%,0%,100%)" r="0.7" /><circle cx="323.54222745" cy="407.228064875" fill="rgb(0%,0%,100%)" r="0.7" /><circle cx="321.94255477" cy="409.765683026" fill="rgb(0%,0%,100%)" r="0.7" /><circle cx="320.457717046" cy="412.372177381" fill="rgb(0%,0%,100%)" r="0.7" /><circle cx="319.085207306" cy="415.039563829" fill="rgb(0%,0%,100%)" r="0.7" /><circle cx="317.822130048" cy="417.760487174" fill="rgb(0%,0%,100%)" r="0.7" /><circle cx="316.665356255" cy="420.528304797" fill="rgb(0%,0%,100%)" r="0.7" /><circle cx="315.611719852" cy="423.33701607" fill="rgb(0%,0%,100%)" r="0.7" /><circle cx="314.658150157" cy="426.181274589" fill="rgb(0%,0%,100%)" r="0.7" /><circle cx="313.801824479" cy="429.056328485" fill="rgb(0%,0%,100%)" r="0.7" /><circle cx="313.040328544" cy="431.957940749" fill="rgb(0%,0%,100%)" r="0.7" /><circle cx="312.371830663" cy="434.882381914" fill="rgb(0%,0%,100%)" r="0.7" /><circle cx="311.795367235" cy="437.826348008" fill="rgb(0%,0%,100%)" r="0.7" /><circle cx="311.311329457" cy="440.786914817" fill="rgb(0%,0%,100%)" r="0.7" /><circle cx="310.922521684" cy="443.761492369" fill="rgb(0%,0%,100%)" r="0.7" /><circle cx="310.637271886" cy="446.747726938" fill="rgb(0%,0%,100%)" r="0.7" /><circle cx="310.470763904" cy="449.742737867" fill="rgb(0%,0%,100%)" r="0.7" /><circle cx="310.383595025" cy="452.74078202" fill="rgb(0%,0%,100%)" r="0.7" /><circle cx="310.52219079" cy="455.736849286" fill="rgb(0%,0%,100%)" r="0.7" /><circle cx="310.891335133" cy="458.713286785" fill="rgb(0%,0%,100%)" r="0.7" /><circle cx="311.490929231" cy="461.651982811" fill="rgb(0%,0%,100%)" r="0.7" /><circle cx="312.315927249" cy="464.535549586" fill="rgb(0%,0%,100%)" r="0.7" /><circle cx="313.356850338" cy="467.348430365" fill="rgb(0%,0%,100%)" r="0.7" /><circle cx="314.60075587" cy="470.077688121" fill="rgb(0%,0%,100%)" r="0.7" /><circle cx="316.03243626" cy="472.713370157" fill="rgb(0%,0%,100%)" r="0.7" /><circle cx="317.635614695" cy="475.248467642" fill="rgb(0%,0%,100%)" r="0.7" /><circle cx="319.393973976" cy="477.678575667" fill="rgb(0%,0%,100%)" r="0.7" /><circle cx="321.291929287" cy="480.001359742" fill="rgb(0%,0%,100%)" r="0.7" /><circle cx="323.315158552" cy="482.215951946" fill="rgb(0%,0%,100%)" r="0.7" /><circle cx="325.450902233" cy="484.322287578" fill="rgb(0%,0%,100%)" r="0.7" /><circle cx="327.688204804" cy="486.320473107" fill="rgb(0%,0%,100%)" r="0.7" /><circle cx="330.01807556" cy="488.209939168" fill="rgb(0%,0%,100%)" r="0.7" /><circle cx="332.433905808" cy="489.988172098" fill="rgb(0%,0%,100%)" r="0.7" /><circle cx="334.932762201" cy="491.647621636" fill="rgb(0%,0%,100%)" r="0.7" /><circle cx="337.524" cy="493.158" fill="rgb(0%,0%,100%)" r="0.7" /><circle cx="335.763209033" cy="493.2313742" fill="rgb(0%,0%,100%)" r="0.7" /><circle cx="332.765810374" cy="493.356279277" fill="rgb(0%,0%,100%)" r="0.7" /><circle cx="329.768411715" cy="493.481184353" fill="rgb(0%,0%,100%)" r="0.7" /><circle cx="326.771013056" cy="493.606089429" fill="rgb(0%,0%,100%)" r="0.7" /><circle cx="323.773614397" cy="493.730994505" fill="rgb(0%,0%,100%)" r="0.7" /><circle cx="320.776215737" cy="493.855899581" fill="rgb(0%,0%,100%)" r="0.7" /><circle cx="319.568258231" cy="494.969171409" fill="rgb(0%,0%,100%)" r="0.7" /><circle cx="321.058598156" cy="497.572800974" fill="rgb(0%,0%,100%)" r="0.7" /><circle cx="322.548938081" cy="500.176430538" fill="rgb(0%,0%,100%)" r="0.7" /><circle cx="324.039278006" cy="502.780060102" fill="rgb(0%,0%,100%)" r="0.7" /><circle cx="325.529617931" cy="505.383689667" fill="rgb(0%,0%,100%)" r="0.7" /><circle cx="327.019957856" cy="507.987319231" fill="rgb(0%,0%,100%)" r="0.7" /></svg>