<?xml version="1.0" encoding="utf-8" ?>
<svg baseProfile="full" height="100%" version="1.1" width="100%" xmlns="http://www.w3.org/2000/svg" xmlns:ev="http://www.w3.org/2001/xml-events" xmlns:xlink="http://www.w3.org/1999/xlink"><defs /><circle cx="357.17446587" cy="332.718781214" fill="rgb(100%,0%,0%)" r="0.7" /><circle cx="354.208507588" cy="333.041987452" fill="rgb(100%,0%,0%)" r="0.7" /><circle cx="351.392578019" cy="334.060600874" fill="rgb(100%,0%,0%)" r="0.7" /><circle cx="348.870067627" cy="335.671832697" fill="rgb(100%,0%,0%)" r="0.7" /><circle cx="346.807219393" cy="337.839591969" fill="rgb(100%,0%,0%)" r="0.7" /><circle cx="345.317803605" cy="340.436194915" fill="rgb(100%,0%,0%)" r="0.7" /><circle cx="344.402254911" cy="343.288350368" fill="rgb(100%,0%,0%)" r="0.7" /><circle cx="343.912472438" cy="346.247347236" fill="rgb(100%,0%,0%)" r="0.7" /><circle cx="343.457322984" cy="349.21262129" fill="rgb(100%,0%,0%)" r="0.7" /><circle cx="342.991276828" cy="352.176206393" fill="rgb(100%,0%,0%)" r="0.7" /><circle cx="342.514801486" cy="355.138123935" fill="rgb(100%,0%,0%)" r="0.7" /><circle cx="342.027506282" cy="358.098281741" fill="rgb(100%,0%,0%)" r="0.7" /><circle cx="341.528515126" cy="361.056495004" fill="rgb(100%,0%,0%)" r="0.7" /><circle cx="341.016497579" cy="364.012477322" fill="rgb(100%,0%,0%)" r="0.7" /><circle cx="340.489572903" cy="366.965836847" fill="rgb(100%,0%,0%)" r="0.7" /><circle cx="339.945105755" cy="369.916012705" fill="rgb(100%,0%,0%)" r="0.7" /><circle cx="339.379323244" cy="372.86217188" fill="rgb(100%,0%,0%)" r="0.7" /><circle cx="338.786583418" cy="375.803014635" fill="rgb(100%,0%,0%)" r="0.7" /><circle cx="338.157845674" cy="378.736369893" fill="rgb(100%,0%,0%)" r="0.7" /><circle cx="337.477000171" cy="381.658032442" fill="rgb(100%,0%,0%)" r="0.7" /><circle cx="336.709513114" cy="384.55798629" fill="rgb(100%,0%,0%)" r="0.7" /><circle cx="335.744341078" cy="387.396667744" fill="rgb(100%,0%,0%)" r="0.7" /><circle cx="334.514476459" cy="390.132887944" fill="rgb(100%,0%,0%)" r="0.7" /><circle cx="333.256667517" cy="392.856480433" fill="rgb(100%,0%,0%)" r="0.7" /><circle cx="331.973047351" cy="395.567978253" fill="rgb(100%,0%,0%)" r="0.7" /><circle cx="330.66434036" cy="398.267462164" fill="rgb(100%,0%,0%)" r="0.7" /><circle cx="329.329776813" cy="400.954258321" fill="rgb(100%,0%,0%)" r="0.7" /><circle cx="327.967664909" cy="403.627191815" fill="rgb(100%,0%,0%)" r="0.7" /><circle cx="326.575480079" cy="406.28458368" fill="rgb(100%,0%,0%)" r="0.7" /><circle cx="325.1497698" cy="408.924133566" fill="rgb(100%,0%,0%)" r="0.7" /><circle cx="323.685905458" cy="411.54270673" fill="rgb(100%,0%,0%)" r="0.7" /><circle cx="322.17765168" cy="414.13595269" fill="rgb(100%,0%,0%)" r="0.7" /><circle cx="320.616435644" cy="416.697637361" fill="rgb(100%,0%,0%)" r="0.7" /><circle cx="318.990067037" cy="419.218408366" fill="rgb(100%,0%,0%)" r="0.7" /><circle cx="317.280347997" cy="421.68330864" fill="rgb(100%,0%,0%)" r="0.7" /><circle cx="315.45822216" cy="424.066078777" fill="rgb(100%,0%,0%)" r="0.7" /><circle cx="313.472690358" cy="426.313666966" fill="rgb(100%,0%,0%)" r="0.7" /><circle cx="312.420068825" cy="427.660014544" fill="rgb(100%,0%,0%)" r="0.7" /><circle cx="315.266167875" cy="426.711478726" fill="rgb(100%,0%,0%)" r="0.7" /><circle cx="318.112266925" cy="425.762942908" fill="rgb(100%,0%,0%)" r="0.7" /><circle cx="320.958365975" cy="424.81440709" fill="rgb(100%,0%,0%)" r="0.7" /><circle cx="323.510177839" cy="424.470992072" fill="rgb(100%,0%,0%)" r="0.7" /><circle cx="324.52137074" cy="427.295436959" fill="rgb(100%,0%,0%)" r="0.7" /><circle cx="325.532563641" cy="430.119881845" fill="rgb(100%,0%,0%)" r="0.7" /><circle cx="326.543756542" cy="432.944326732" fill="rgb(100%,0%,0%)" r="0.7" /><circle cx="327.554949443" cy="435.768771618" fill="rgb(100%,0%,0%)" r="0.7" /><circle cx="328.566142344" cy="438.593216505" fill="rgb(100%,0%,0%)" r="0.7" /><circle cx="329.566" cy="441.386" fill="rgb(100%,0%,0%)" r="0.7" /><circle cx="357.17446587" cy="332.718781214" fill="rgb(0%,0%,100%)" r="0.7" /><circle cx="359.811925072" cy="334.003218065" fill="rgb(0%,0%,100%)" r="0.7" /><circle cx="360.981696621" cy="336.720858328" fill="rgb(0%,0%,100%)" r="0.7" /><circle cx="361.021975552" cy="339.712465203" fill="rgb(0%,0%,100%)" r="0.7" /><circle cx="360.470354098" cy="342.657796596" fill="rgb(0%,0%,100%)" r="0.7" /><circle cx="360.101664191" cy="345.631377218" fill="rgb(0%,0%,100%)" r="0.7" /><circle cx="360.224894988" cy="348.624777912" fill="rgb(0%,0%,100%)" r="0.7" /><circle cx="360.956050273" cy="351.527152708" fill="rgb(0%,0%,100%)" r="0.7" /><circle cx="362.051763191" cy="354.296621183" fill="rgb(0%,0%,100%)" r="0.7" /><circle cx="362.665387509" cy="357.232691193" fill="rgb(0%,0%,100%)" r="0.7" /><circle cx="363.097907393" cy="360.200895366" fill="rgb(0%,0%,100%)" r="0.7" /><circle cx="363.356577741" cy="363.189318401" fill="rgb(0%,0%,100%)" r="0.7" /><circle cx="363.450220299" cy="366.187499158" fill="rgb(0%,0%,100%)" r="0.7" /><circle cx="363.388612276" cy="369.186553706" fill="rgb(0%,0%,100%)" r="0.7" /><circle cx="363.181960112" cy="372.179152984" fill="rgb(0%,0%,100%)" r="0.7" /><circle cx="362.840483644" cy="375.159417647" fill="rgb(0%,0%,100%)" r="0.7" /><circle cx="362.374114754" cy="378.122739454" fill="rgb(0%,0%,100%)" r="0.7" /><circle cx="361.792295748" cy="381.065599536" fill="rgb(0%,0%,100%)" r="0.7" /><circle cx="361.103859128" cy="383.985382843" fill="rgb(0%,0%,100%)" r="0.7" /><circle cx="360.316968858" cy="386.880206907" fill="rgb(0%,0%,100%)" r="0.7" /><circle cx="359.439105099" cy="389.748771734" fill="rgb(0%,0%,100%)" r="0.7" /><circle cx="358.477077677" cy="392.590232877" fill="rgb(0%,0%,100%)" r="0.7" /><circle cx="357.437057071" cy="395.404096707" fill="rgb(0%,0%,100%)" r="0.7" /><circle cx="356.324615035" cy="398.190135026" fill="rgb(0%,0%,100%)" r="0.7" /><circle cx="355.144769752" cy="400.948315164" fill="rgb(0%,0%,100%)" r="0.7" /><circle cx="353.902032804" cy="403.678740964" fill="rgb(0%,0%,100%)" r="0.7" /><circle cx="352.600446266" cy="406.381621677" fill="rgb(0%,0%,100%)" r="0.7" /><circle cx="351.24363542" cy="409.057208522" fill="rgb(0%,0%,100%)" r="0.7" /><circle cx="349.834829538" cy="411.705795581" fill="rgb(0%,0%,100%)" r="0.7" /><circle cx="348.376906002" cy="414.327666856" fill="rgb(0%,0%,100%)" r="0.7" /><circle cx="346.872402582" cy="416.923096677" fill="rgb(0%,0%,100%)" r="0.7" /><circle cx="345.323547515" cy="419.492305629" fill="rgb(0%,0%,100%)" r="0.7" /><circle cx="343.732258623" cy="422.035455767" fill="rgb(0%,0%,100%)" r="0.7" /><circle cx="342.100154865" cy="424.552602691" fill="rgb(0%,0%,100%)" r="0.7" /><circle cx="340.428521063" cy="427.043688957" fill="rgb(0%,0%,100%)" r="0.7" /><circle cx="338.718307606" cy="429.508430133" fill="rgb(0%,0%,100%)" r="0.7" /><circle cx="336.969995123" cy="431.946302911" fill="rgb(0%,0%,100%)" r="0.7" /><circle cx="335.183460482" cy="434.356322472" fill="rgb(0%,0%,100%)" r="0.7" /><circle cx="333.357606768" cy="436.736657464" fill="rgb(0%,0%,100%)" r="0.7" /><circle cx="331.489160959" cy="439.083725065" fill="rgb(0%,0%,100%)" r="0.7" /><circle cx="329.566" cy="441.386" fill="rgb(0%,0%,100%)" r="0.7" /></svg>