<?xml version="1.0" encoding="utf-8" ?>
<svg baseProfile="full" height="100%" version="1.1" width="100%" xmlns="http://www.w3.org/2000/svg" xmlns:ev="http://www.w3.org/2001/xml-events" xmlns:xlink="http://www.w3.org/1999/xlink"><defs /><circle cx="306.750772413" cy="266.00191346" fill="rgb(100%,0%,0%)" r="0.7" /><circle cx="303.783283446" cy="266.411442331" fill="rgb(100%,0%,0%)" r="0.7" /><circle cx="300.955727412" cy="267.395940085" fill="rgb(100%,0%,0%)" r="0.7" /><circle cx="298.528998183" cy="269.093600993" fill="rgb(100%,0%,0%)" r="0.7" /><circle cx="297.05609533" cy="271.694283288" fill="rgb(100%,0%,0%)" r="0.7" /><circle cx="296.158360315" cy="274.554007909" fill="rgb(100%,0%,0%)" r="0.7" /><circle cx="295.592679112" cy="277.499174327" fill="rgb(100%,0%,0%)" r="0.7" /><circle cx="295.252190092" cy="280.479254761" fill="rgb(100%,0%,0%)" r="0.7" /><circle cx="295.097640803" cy="283.474767448" fill="rgb(100%,0%,0%)" r="0.7" /><circle cx="295.162235463" cy="286.473869793" fill="rgb(100%,0%,0%)" r="0.7" /><circle cx="295.161162019" cy="289.473776198" fill="rgb(100%,0%,0%)" r="0.7" /><circle cx="295.075608142" cy="292.472447198" fill="rgb(100%,0%,0%)" r="0.7" /><circle cx="294.897283796" cy="295.467014524" fill="rgb(100%,0%,0%)" r="0.7" /><circle cx="294.616126164" cy="298.453645049" fill="rgb(100%,0%,0%)" r="0.7" /><circle cx="294.219522495" cy="301.427091356" fill="rgb(100%,0%,0%)" r="0.7" /><circle cx="293.690883572" cy="304.379859347" fill="rgb(100%,0%,0%)" r="0.7" /><circle cx="293.006613452" cy="307.300339425" fill="rgb(100%,0%,0%)" r="0.7" /><circle cx="292.127556334" cy="310.167859907" fill="rgb(100%,0%,0%)" r="0.7" /><circle cx="290.94919759" cy="312.923520178" fill="rgb(100%,0%,0%)" r="0.7" /><circle cx="289.658703753" cy="315.631441623" fill="rgb(100%,0%,0%)" r="0.7" /><circle cx="288.50175984" cy="318.39905718" fill="rgb(100%,0%,0%)" r="0.7" /><circle cx="287.480210651" cy="321.219464792" fill="rgb(100%,0%,0%)" r="0.7" /><circle cx="286.594772037" cy="324.085526076" fill="rgb(100%,0%,0%)" r="0.7" /><circle cx="285.845076443" cy="326.990060031" fill="rgb(100%,0%,0%)" r="0.7" /><circle cx="285.229767086" cy="329.926018819" fill="rgb(100%,0%,0%)" r="0.7" /><circle cx="284.746632395" cy="332.886611041" fill="rgb(100%,0%,0%)" r="0.7" /><circle cx="284.392753355" cy="335.86543592" fill="rgb(100%,0%,0%)" r="0.7" /><circle cx="284.164670086" cy="338.856537999" fill="rgb(100%,0%,0%)" r="0.7" /><circle cx="284.058542932" cy="341.85446017" fill="rgb(100%,0%,0%)" r="0.7" /><circle cx="284.070309078" cy="344.854252908" fill="rgb(100%,0%,0%)" r="0.7" /><circle cx="284.195827284" cy="347.851452657" fill="rgb(100%,0%,0%)" r="0.7" /><circle cx="284.4310112" cy="350.842058532" fill="rgb(100%,0%,0%)" r="0.7" /><circle cx="284.771953831" cy="353.822471663" fill="rgb(100%,0%,0%)" r="0.7" /><circle cx="285.215049126" cy="356.789424545" fill="rgb(100%,0%,0%)" r="0.7" /><circle cx="285.757124752" cy="359.739899387" fill="rgb(100%,0%,0%)" r="0.7" /><circle cx="286.395613043" cy="362.671039673" fill="rgb(100%,0%,0%)" r="0.7" /><circle cx="287.128780459" cy="365.579926028" fill="rgb(100%,0%,0%)" r="0.7" /><circle cx="287.956183346" cy="368.463445602" fill="rgb(100%,0%,0%)" r="0.7" /><circle cx="288.879537129" cy="371.317654255" fill="rgb(100%,0%,0%)" r="0.7" /><circle cx="289.905305854" cy="374.13665116" fill="rgb(100%,0%,0%)" r="0.7" /><circle cx="291.06" cy="376.905" fill="rgb(100%,0%,0%)" r="0.7" /><circle cx="306.750772413" cy="266.00191346" fill="rgb(0%,0%,100%)" r="0.7" /><circle cx="309.743363345" cy="266.142831399" fill="rgb(0%,0%,100%)" r="0.7" /><circle cx="312.665476331" cy="266.8058265" fill="rgb(0%,0%,100%)" r="0.7" /><circle cx="315.443391715" cy="267.930874696" fill="rgb(0%,0%,100%)" r="0.7" /><circle cx="317.547867833" cy="270.014546175" fill="rgb(0%,0%,100%)" r="0.7" /><circle cx="319.226778974" cy="272.498840919" fill="rgb(0%,0%,100%)" r="0.7" /><circle cx="320.628980465" cy="275.149439156" fill="rgb(0%,0%,100%)" r="0.7" /><circle cx="321.750288052" cy="277.930585212" fill="rgb(0%,0%,100%)" r="0.7" /><circle cx="322.581965866" cy="280.811652565" fill="rgb(0%,0%,100%)" r="0.7" /><circle cx="323.118342805" cy="283.762029934" fill="rgb(0%,0%,100%)" r="0.7" /><circle cx="323.36008849" cy="286.751081232" fill="rgb(0%,0%,100%)" r="0.7" /><circle cx="323.315286247" cy="289.749652332" fill="rgb(0%,0%,100%)" r="0.7" /><circle cx="323.236837515" cy="292.748412765" fill="rgb(0%,0%,100%)" r="0.7" /><circle cx="323.099284703" cy="295.74520159" fill="rgb(0%,0%,100%)" r="0.7" /><circle cx="322.89880725" cy="298.738439766" fill="rgb(0%,0%,100%)" r="0.7" /><circle cx="322.629386603" cy="301.726241193" fill="rgb(0%,0%,100%)" r="0.7" /><circle cx="322.278889116" cy="304.705584701" fill="rgb(0%,0%,100%)" r="0.7" /><circle cx="321.827403238" cy="307.671230287" fill="rgb(0%,0%,100%)" r="0.7" /><circle cx="321.241943252" cy="310.613186203" fill="rgb(0%,0%,100%)" r="0.7" /><circle cx="320.463481698" cy="313.50955922" fill="rgb(0%,0%,100%)" r="0.7" /><circle cx="319.141840764" cy="316.10361594" fill="rgb(0%,0%,100%)" r="0.7" /><circle cx="316.728488649" cy="317.884746822" fill="rgb(0%,0%,100%)" r="0.7" /><circle cx="314.429096359" cy="319.810915078" fill="rgb(0%,0%,100%)" r="0.7" /><circle cx="312.253745882" cy="321.87602024" fill="rgb(0%,0%,100%)" r="0.7" /><circle cx="310.229301308" cy="324.088995714" fill="rgb(0%,0%,100%)" r="0.7" /><circle cx="308.398714063" cy="326.464376938" fill="rgb(0%,0%,100%)" r="0.7" /><circle cx="306.826891506" cy="329.01761723" fill="rgb(0%,0%,100%)" r="0.7" /><circle cx="305.608591643" cy="331.756014995" fill="rgb(0%,0%,100%)" r="0.7" /><circle cx="304.870496224" cy="334.659169514" fill="rgb(0%,0%,100%)" r="0.7" /><circle cx="304.476667882" cy="337.632858287" fill="rgb(0%,0%,100%)" r="0.7" /><circle cx="304.216544445" cy="340.621362167" fill="rgb(0%,0%,100%)" r="0.7" /><circle cx="304.07340209" cy="343.617756239" fill="rgb(0%,0%,100%)" r="0.7" /><circle cx="304.047494506" cy="346.617449704" fill="rgb(0%,0%,100%)" r="0.7" /><circle cx="304.145497725" cy="349.615616954" fill="rgb(0%,0%,100%)" r="0.7" /><circle cx="304.378255467" cy="352.60629639" fill="rgb(0%,0%,100%)" r="0.7" /><circle cx="304.760332135" cy="355.581511526" fill="rgb(0%,0%,100%)" r="0.7" /><circle cx="305.310068241" cy="358.530250691" fill="rgb(0%,0%,100%)" r="0.7" /><circle cx="306.04969792" cy="361.437022298" fill="rgb(0%,0%,100%)" r="0.7" /><circle cx="307.005144173" cy="364.279947678" fill="rgb(0%,0%,100%)" r="0.7" /><circle cx="308.204887493" cy="367.028395926" fill="rgb(0%,0%,100%)" r="0.7" /><circle cx="309.676989953" cy="369.640670646" fill="rgb(0%,0%,100%)" r="0.7" /><circle cx="309.408413033" cy="370.324920055" fill="rgb(0%,0%,100%)" r="0.7" /><circle cx="306.785918888" cy="368.868031432" fill="rgb(0%,0%,100%)" r="0.7" /><circle cx="304.163424743" cy="367.411142809" fill="rgb(0%,0%,100%)" r="0.7" /><circle cx="301.540930598" cy="365.954254186" fill="rgb(0%,0%,100%)" r="0.7" /><circle cx="298.918436453" cy="364.497365563" fill="rgb(0%,0%,100%)" r="0.7" /><circle cx="296.295942308" cy="363.04047694" fill="rgb(0%,0%,100%)" r="0.7" /><circle cx="293.908317744" cy="362.086512046" fill="rgb(0%,0%,100%)" r="0.7" /><circle cx="293.34204234" cy="365.032582677" fill="rgb(0%,0%,100%)" r="0.7" /><circle cx="292.775766936" cy="367.978653309" fill="rgb(0%,0%,100%)" r="0.7" /><circle cx="292.209491532" cy="370.924723941" fill="rgb(0%,0%,100%)" r="0.7" /><circle cx="291.643216127" cy="373.870794572" fill="rgb(0%,0%,100%)" r="0.7" /><circle cx="291.076940723" cy="376.816865204" fill="rgb(0%,0%,100%)" r="0.7" /><circle cx="291.06" cy="376.905" fill="rgb(0%,0%,100%)" r="0.7" /></svg>