<?xml version="1.0" encoding="utf-8" ?>
<svg baseProfile="full" height="100%" version="1.1" width="100%" xmlns="http://www.w3.org/2000/svg" xmlns:ev="http://www.w3.org/2001/xml-events" xmlns:xlink="http://www.w3.org/1999/xlink"><defs /><circle cx="305.274692973" cy="343.806460316" fill="rgb(100%,0%,0%)" r="0.7" /><circle cx="302.277151177" cy="343.819609554" fill="rgb(100%,0%,0%)" r="0.7" /><circle cx="299.317012759" cy="344.285880445" fill="rgb(100%,0%,0%)" r="0.7" /><circle cx="296.483050032" cy="345.257318172" fill="rgb(100%,0%,0%)" r="0.7" /><circle cx="293.877314647" cy="346.735184222" fill="rgb(100%,0%,0%)" r="0.7" /><circle cx="291.579841734" cy="348.658478246" fill="rgb(100%,0%,0%)" r="0.7" /><circle cx="289.622397416" cy="350.928177875" fill="rgb(100%,0%,0%)" r="0.7" /><circle cx="287.990688651" cy="353.443414653" fill="rgb(100%,0%,0%)" r="0.7" /><circle cx="286.365604507" cy="355.965140555" fill="rgb(100%,0%,0%)" r="0.7" /><circle cx="284.740520363" cy="358.486866457" fill="rgb(100%,0%,0%)" r="0.7" /><circle cx="283.115436218" cy="361.008592358" fill="rgb(100%,0%,0%)" r="0.7" /><circle cx="281.525371735" cy="363.552447439" fill="rgb(100%,0%,0%)" r="0.7" /><circle cx="279.976380676" cy="366.121591297" fill="rgb(100%,0%,0%)" r="0.7" /><circle cx="278.46119056" cy="368.710813985" fill="rgb(100%,0%,0%)" r="0.7" /><circle cx="276.982255407" cy="371.320909332" fill="rgb(100%,0%,0%)" r="0.7" /><circle cx="275.545084061" cy="373.954220103" fill="rgb(100%,0%,0%)" r="0.7" /><circle cx="274.158675791" cy="376.614583518" fill="rgb(100%,0%,0%)" r="0.7" /><circle cx="272.837500397" cy="379.30789396" fill="rgb(100%,0%,0%)" r="0.7" /><circle cx="271.606243331" cy="382.043374514" fill="rgb(100%,0%,0%)" r="0.7" /><circle cx="270.683195867" cy="384.889791969" fill="rgb(100%,0%,0%)" r="0.7" /><circle cx="269.482146784" cy="387.638056131" fill="rgb(100%,0%,0%)" r="0.7" /><circle cx="268.12537233" cy="390.313468655" fill="rgb(100%,0%,0%)" r="0.7" /><circle cx="266.675238989" cy="392.939573126" fill="rgb(100%,0%,0%)" r="0.7" /><circle cx="265.159551569" cy="395.528468625" fill="rgb(100%,0%,0%)" r="0.7" /><circle cx="263.594022676" cy="398.08754563" fill="rgb(100%,0%,0%)" r="0.7" /><circle cx="261.988664964" cy="400.621838457" fill="rgb(100%,0%,0%)" r="0.7" /><circle cx="260.350380279" cy="403.134987166" fill="rgb(100%,0%,0%)" r="0.7" /><circle cx="258.684192367" cy="405.629740913" fill="rgb(100%,0%,0%)" r="0.7" /><circle cx="256.993919586" cy="408.108228782" fill="rgb(100%,0%,0%)" r="0.7" /><circle cx="255.282531029" cy="410.572179614" fill="rgb(100%,0%,0%)" r="0.7" /><circle cx="257.75692506" cy="409.268138021" fill="rgb(100%,0%,0%)" r="0.7" /><circle cx="260.386840329" cy="407.824688793" fill="rgb(100%,0%,0%)" r="0.7" /><circle cx="263.016755599" cy="406.381239564" fill="rgb(100%,0%,0%)" r="0.7" /><circle cx="265.646670868" cy="404.937790336" fill="rgb(100%,0%,0%)" r="0.7" /><circle cx="268.276586138" cy="403.494341107" fill="rgb(100%,0%,0%)" r="0.7" /><circle cx="269.964321715" cy="403.98274344" fill="rgb(100%,0%,0%)" r="0.7" /><circle cx="270.446122778" cy="406.94380199" fill="rgb(100%,0%,0%)" r="0.7" /><circle cx="270.927923841" cy="409.90486054" fill="rgb(100%,0%,0%)" r="0.7" /><circle cx="271.409724904" cy="412.865919089" fill="rgb(100%,0%,0%)" r="0.7" /><circle cx="271.891525967" cy="415.826977639" fill="rgb(100%,0%,0%)" r="0.7" /><circle cx="272.37332703" cy="418.788036189" fill="rgb(100%,0%,0%)" r="0.7" /><circle cx="272.855128094" cy="421.749094739" fill="rgb(100%,0%,0%)" r="0.7" /><circle cx="273.336929157" cy="424.710153289" fill="rgb(100%,0%,0%)" r="0.7" /><circle cx="273.81873022" cy="427.671211839" fill="rgb(100%,0%,0%)" r="0.7" /><circle cx="274.300531283" cy="430.632270388" fill="rgb(100%,0%,0%)" r="0.7" /><circle cx="274.54" cy="432.104" fill="rgb(100%,0%,0%)" r="0.7" /><circle cx="305.274692973" cy="343.806460316" fill="rgb(0%,0%,100%)" r="0.7" /><circle cx="308.250386649" cy="344.174171001" fill="rgb(0%,0%,100%)" r="0.7" /><circle cx="311.171260075" cy="344.853565676" fill="rgb(0%,0%,100%)" r="0.7" /><circle cx="314.021084926" cy="345.788208652" fill="rgb(0%,0%,100%)" r="0.7" /><circle cx="316.792110583" cy="346.936103924" fill="rgb(0%,0%,100%)" r="0.7" /><circle cx="319.478882087" cy="348.269535181" fill="rgb(0%,0%,100%)" r="0.7" /><circle cx="322.069793261" cy="349.780597672" fill="rgb(0%,0%,100%)" r="0.7" /><circle cx="324.649263538" cy="351.307179607" fill="rgb(0%,0%,100%)" r="0.7" /><circle cx="327.010170869" cy="353.152177443" fill="rgb(0%,0%,100%)" r="0.7" /><circle cx="329.023751015" cy="355.37127205" fill="rgb(0%,0%,100%)" r="0.7" /><circle cx="330.654004971" cy="357.886093317" fill="rgb(0%,0%,100%)" r="0.7" /><circle cx="331.899706234" cy="360.612605163" fill="rgb(0%,0%,100%)" r="0.7" /><circle cx="332.7774515" cy="363.479275011" fill="rgb(0%,0%,100%)" r="0.7" /><circle cx="333.293749271" cy="366.432488002" fill="rgb(0%,0%,100%)" r="0.7" /><circle cx="333.166136747" cy="369.414884642" fill="rgb(0%,0%,100%)" r="0.7" /><circle cx="332.121331119" cy="372.21149316" fill="rgb(0%,0%,100%)" r="0.7" /><circle cx="330.125611074" cy="374.425618839" fill="rgb(0%,0%,100%)" r="0.7" /><circle cx="327.475931362" cy="375.80672924" fill="rgb(0%,0%,100%)" r="0.7" /><circle cx="324.556486729" cy="376.473653648" fill="rgb(0%,0%,100%)" r="0.7" /><circle cx="321.563171374" cy="376.631113157" fill="rgb(0%,0%,100%)" r="0.7" /><circle cx="318.572694752" cy="376.412891725" fill="rgb(0%,0%,100%)" r="0.7" /><circle cx="315.599754311" cy="376.076588914" fill="rgb(0%,0%,100%)" r="0.7" /><circle cx="312.614766952" cy="376.339833586" fill="rgb(0%,0%,100%)" r="0.7" /><circle cx="309.722058325" cy="377.118773131" fill="rgb(0%,0%,100%)" r="0.7" /><circle cx="307.038657045" cy="378.44749689" fill="rgb(0%,0%,100%)" r="0.7" /><circle cx="304.718164823" cy="380.339529722" fill="rgb(0%,0%,100%)" r="0.7" /><circle cx="302.778370755" cy="382.625631025" fill="rgb(0%,0%,100%)" r="0.7" /><circle cx="301.031518664" cy="385.064119031" fill="rgb(0%,0%,100%)" r="0.7" /><circle cx="299.39145044" cy="387.575958199" fill="rgb(0%,0%,100%)" r="0.7" /><circle cx="297.822544811" cy="390.132935751" fill="rgb(0%,0%,100%)" r="0.7" /><circle cx="296.306351587" cy="392.721550567" fill="rgb(0%,0%,100%)" r="0.7" /><circle cx="294.832246854" cy="395.334379003" fill="rgb(0%,0%,100%)" r="0.7" /><circle cx="293.394107688" cy="397.967180906" fill="rgb(0%,0%,100%)" r="0.7" /><circle cx="291.989651966" cy="400.618101936" fill="rgb(0%,0%,100%)" r="0.7" /><circle cx="290.603252325" cy="403.278458101" fill="rgb(0%,0%,100%)" r="0.7" /><circle cx="289.183708326" cy="405.921344192" fill="rgb(0%,0%,100%)" r="0.7" /><circle cx="287.748764627" cy="408.555907554" fill="rgb(0%,0%,100%)" r="0.7" /><circle cx="286.303218605" cy="411.184672975" fill="rgb(0%,0%,100%)" r="0.7" /><circle cx="284.849737351" cy="413.809056403" fill="rgb(0%,0%,100%)" r="0.7" /><circle cx="283.389967504" cy="416.429948455" fill="rgb(0%,0%,100%)" r="0.7" /><circle cx="281.924998109" cy="419.047938735" fill="rgb(0%,0%,100%)" r="0.7" /><circle cx="280.455573931" cy="421.663430994" fill="rgb(0%,0%,100%)" r="0.7" /><circle cx="278.982201012" cy="424.276701324" fill="rgb(0%,0%,100%)" r="0.7" /><circle cx="277.50519194" cy="426.887917333" fill="rgb(0%,0%,100%)" r="0.7" /><circle cx="276.024634218" cy="429.497125993" fill="rgb(0%,0%,100%)" r="0.7" /><circle cx="274.54" cy="432.104" fill="rgb(0%,0%,100%)" r="0.7" /></svg>