<?xml version="1.0" encoding="utf-8" ?>
<svg baseProfile="full" height="100%" version="1.1" width="100%" xmlns="http://www.w3.org/2000/svg" xmlns:ev="http://www.w3.org/2001/xml-events" xmlns:xlink="http://www.w3.org/1999/xlink"><defs /><circle cx="367.650626204" cy="292.117405958" fill="rgb(100%,0%,0%)" r="0.7" /><circle cx="364.75093253" cy="292.787464528" fill="rgb(100%,0%,0%)" r="0.7" /><circle cx="362.451380442" cy="294.685650814" fill="rgb(100%,0%,0%)" r="0.7" /><circle cx="363.327831937" cy="294.43837396" fill="rgb(100%,0%,0%)" r="0.7" /><circle cx="361.081946853" cy="296.406954701" fill="rgb(100%,0%,0%)" r="0.7" /><circle cx="359.642830717" cy="299.020228358" fill="rgb(100%,0%,0%)" r="0.7" /><circle cx="359.204715083" cy="301.973987153" fill="rgb(100%,0%,0%)" r="0.7" /><circle cx="359.714940959" cy="304.921495427" fill="rgb(100%,0%,0%)" r="0.7" /><circle cx="361.185084539" cy="307.490672172" fill="rgb(100%,0%,0%)" r="0.7" /><circle cx="360.922951871" cy="310.327788853" fill="rgb(100%,0%,0%)" r="0.7" /><circle cx="359.437154639" cy="312.919436397" fill="rgb(100%,0%,0%)" r="0.7" /><circle cx="357.40982348" cy="315.129640749" fill="rgb(100%,0%,0%)" r="0.7" /><circle cx="355.350864731" cy="317.31153904" fill="rgb(100%,0%,0%)" r="0.7" /><circle cx="353.279728257" cy="319.481881422" fill="rgb(100%,0%,0%)" r="0.7" /><circle cx="351.197323465" cy="321.641424296" fill="rgb(100%,0%,0%)" r="0.7" /><circle cx="349.103695207" cy="323.790071864" fill="rgb(100%,0%,0%)" r="0.7" /><circle cx="346.998452838" cy="325.927341904" fill="rgb(100%,0%,0%)" r="0.7" /><circle cx="344.880910751" cy="328.052431446" fill="rgb(100%,0%,0%)" r="0.7" /><circle cx="342.750107358" cy="330.164218099" fill="rgb(100%,0%,0%)" r="0.7" /><circle cx="340.604760134" cy="332.261228337" fill="rgb(100%,0%,0%)" r="0.7" /><circle cx="338.443210295" cy="334.341531027" fill="rgb(100%,0%,0%)" r="0.7" /><circle cx="336.26330462" cy="336.402585983" fill="rgb(100%,0%,0%)" r="0.7" /><circle cx="334.062212236" cy="338.44099183" fill="rgb(100%,0%,0%)" r="0.7" /><circle cx="331.836127143" cy="340.452064848" fill="rgb(100%,0%,0%)" r="0.7" /><circle cx="329.57977077" cy="342.429091138" fill="rgb(100%,0%,0%)" r="0.7" /><circle cx="327.28561605" cy="344.362091924" fill="rgb(100%,0%,0%)" r="0.7" /><circle cx="324.95876707" cy="346.255688984" fill="rgb(100%,0%,0%)" r="0.7" /><circle cx="322.635093049" cy="348.153202329" fill="rgb(100%,0%,0%)" r="0.7" /><circle cx="320.311594779" cy="350.050909872" fill="rgb(100%,0%,0%)" r="0.7" /><circle cx="317.984707713" cy="351.944489728" fill="rgb(100%,0%,0%)" r="0.7" /><circle cx="315.652147686" cy="353.831058596" fill="rgb(100%,0%,0%)" r="0.7" /><circle cx="313.312275887" cy="355.708552311" fill="rgb(100%,0%,0%)" r="0.7" /><circle cx="310.96386588" cy="357.575356667" fill="rgb(100%,0%,0%)" r="0.7" /><circle cx="308.605946144" cy="359.430132447" fill="rgb(100%,0%,0%)" r="0.7" /><circle cx="306.237704867" cy="361.271715278" fill="rgb(100%,0%,0%)" r="0.7" /><circle cx="303.858447756" cy="363.099039995" fill="rgb(100%,0%,0%)" r="0.7" /><circle cx="301.467552781" cy="364.911104899" fill="rgb(100%,0%,0%)" r="0.7" /><circle cx="299.064447867" cy="366.706940241" fill="rgb(100%,0%,0%)" r="0.7" /><circle cx="296.648588325" cy="368.485590389" fill="rgb(100%,0%,0%)" r="0.7" /><circle cx="294.219467999" cy="370.246079819" fill="rgb(100%,0%,0%)" r="0.7" /><circle cx="291.776581339" cy="371.987420878" fill="rgb(100%,0%,0%)" r="0.7" /><circle cx="289.319441275" cy="373.708584262" fill="rgb(100%,0%,0%)" r="0.7" /><circle cx="286.847554757" cy="375.408502439" fill="rgb(100%,0%,0%)" r="0.7" /><circle cx="284.360432673" cy="377.086050029" fill="rgb(100%,0%,0%)" r="0.7" /><circle cx="281.857582489" cy="378.740037417" fill="rgb(100%,0%,0%)" r="0.7" /><circle cx="279.338503905" cy="380.369202452" fill="rgb(100%,0%,0%)" r="0.7" /><circle cx="276.802694856" cy="381.972195549" fill="rgb(100%,0%,0%)" r="0.7" /><circle cx="274.249640483" cy="383.547575644" fill="rgb(100%,0%,0%)" r="0.7" /><circle cx="271.67882214" cy="385.0937929" fill="rgb(100%,0%,0%)" r="0.7" /><circle cx="269.089712214" cy="386.60917988" fill="rgb(100%,0%,0%)" r="0.7" /><circle cx="266.481779308" cy="388.091935625" fill="rgb(100%,0%,0%)" r="0.7" /><circle cx="263.854489646" cy="389.540111295" fill="rgb(100%,0%,0%)" r="0.7" /><circle cx="261.207309034" cy="390.951594485" fill="rgb(100%,0%,0%)" r="0.7" /><circle cx="258.539709393" cy="392.324089992" fill="rgb(100%,0%,0%)" r="0.7" /><circle cx="255.851174346" cy="393.655100165" fill="rgb(100%,0%,0%)" r="0.7" /><circle cx="258.670447603" cy="393.391206833" fill="rgb(100%,0%,0%)" r="0.7" /><circle cx="261.654305407" cy="393.080413327" fill="rgb(100%,0%,0%)" r="0.7" /><circle cx="264.638163212" cy="392.769619821" fill="rgb(100%,0%,0%)" r="0.7" /><circle cx="267.622021016" cy="392.458826315" fill="rgb(100%,0%,0%)" r="0.7" /><circle cx="270.60587882" cy="392.14803281" fill="rgb(100%,0%,0%)" r="0.7" /><circle cx="270.371490005" cy="395.045811998" fill="rgb(100%,0%,0%)" r="0.7" /><circle cx="270.051715066" cy="398.028720644" fill="rgb(100%,0%,0%)" r="0.7" /><circle cx="269.731940126" cy="401.011629289" fill="rgb(100%,0%,0%)" r="0.7" /><circle cx="269.412165187" cy="403.994537935" fill="rgb(100%,0%,0%)" r="0.7" /><circle cx="269.092390247" cy="406.97744658" fill="rgb(100%,0%,0%)" r="0.7" /><circle cx="268.818" cy="409.537" fill="rgb(100%,0%,0%)" r="0.7" /><circle cx="367.650626204" cy="292.117405958" fill="rgb(0%,0%,100%)" r="0.7" /><circle cx="370.630656585" cy="292.40002496" fill="rgb(0%,0%,100%)" r="0.7" /><circle cx="373.509498832" cy="293.232457678" fill="rgb(0%,0%,100%)" r="0.7" /><circle cx="375.975125139" cy="294.902614401" fill="rgb(0%,0%,100%)" r="0.7" /><circle cx="377.812463823" cy="297.265475354" fill="rgb(0%,0%,100%)" r="0.7" /><circle cx="379.181789633" cy="299.931640343" fill="rgb(0%,0%,100%)" r="0.7" /><circle cx="380.193012584" cy="302.75415186" fill="rgb(0%,0%,100%)" r="0.7" /><circle cx="380.770785332" cy="305.687660032" fill="rgb(0%,0%,100%)" r="0.7" /><circle cx="380.552647872" cy="308.673926832" fill="rgb(0%,0%,100%)" r="0.7" /><circle cx="379.836271139" cy="311.584955665" fill="rgb(0%,0%,100%)" r="0.7" /><circle cx="378.813900359" cy="314.404371595" fill="rgb(0%,0%,100%)" r="0.7" /><circle cx="377.586021836" cy="317.141042841" fill="rgb(0%,0%,100%)" r="0.7" /><circle cx="376.209170521" cy="319.806099156" fill="rgb(0%,0%,100%)" r="0.7" /><circle cx="374.717355294" cy="322.408664387" fill="rgb(0%,0%,100%)" r="0.7" /><circle cx="373.131716388" cy="324.95520698" fill="rgb(0%,0%,100%)" r="0.7" /><circle cx="371.464634631" cy="327.449229468" fill="rgb(0%,0%,100%)" r="0.7" /><circle cx="369.718925083" cy="329.888826625" fill="rgb(0%,0%,100%)" r="0.7" /><circle cx="367.947561742" cy="332.309452318" fill="rgb(0%,0%,100%)" r="0.7" /><circle cx="366.064878363" cy="334.644727787" fill="rgb(0%,0%,100%)" r="0.7" /><circle cx="364.077448746" cy="336.891709303" fill="rgb(0%,0%,100%)" r="0.7" /><circle cx="362.015736978" cy="339.070859526" fill="rgb(0%,0%,100%)" r="0.7" /><circle cx="359.898209286" cy="341.195876539" fill="rgb(0%,0%,100%)" r="0.7" /><circle cx="357.736948517" cy="343.276416627" fill="rgb(0%,0%,100%)" r="0.7" /><circle cx="355.540279835" cy="345.319608047" fill="rgb(0%,0%,100%)" r="0.7" /><circle cx="353.314311535" cy="347.330775482" fill="rgb(0%,0%,100%)" r="0.7" /><circle cx="351.063513896" cy="349.314162215" fill="rgb(0%,0%,100%)" r="0.7" /><circle cx="348.791373799" cy="351.273102477" fill="rgb(0%,0%,100%)" r="0.7" /><circle cx="346.500671898" cy="353.210272058" fill="rgb(0%,0%,100%)" r="0.7" /><circle cx="344.193608797" cy="355.12790435" fill="rgb(0%,0%,100%)" r="0.7" /><circle cx="341.87194976" cy="357.027888837" fill="rgb(0%,0%,100%)" r="0.7" /><circle cx="339.537217955" cy="358.911769774" fill="rgb(0%,0%,100%)" r="0.7" /><circle cx="337.190661393" cy="360.780888609" fill="rgb(0%,0%,100%)" r="0.7" /><circle cx="334.83332746" cy="362.636407142" fill="rgb(0%,0%,100%)" r="0.7" /><circle cx="332.466120527" cy="364.479325382" fill="rgb(0%,0%,100%)" r="0.7" /><circle cx="330.089831156" cy="366.310507777" fill="rgb(0%,0%,100%)" r="0.7" /><circle cx="327.705130486" cy="368.130725298" fill="rgb(0%,0%,100%)" r="0.7" /><circle cx="325.312609348" cy="369.940654803" fill="rgb(0%,0%,100%)" r="0.7" /><circle cx="322.912789986" cy="371.740893888" fill="rgb(0%,0%,100%)" r="0.7" /><circle cx="320.506128202" cy="373.531978174" fill="rgb(0%,0%,100%)" r="0.7" /><circle cx="318.093030611" cy="375.314383663" fill="rgb(0%,0%,100%)" r="0.7" /><circle cx="315.673863019" cy="377.088533059" fill="rgb(0%,0%,100%)" r="0.7" /><circle cx="313.248935983" cy="378.854816471" fill="rgb(0%,0%,100%)" r="0.7" /><circle cx="310.81855408" cy="380.613563759" fill="rgb(0%,0%,100%)" r="0.7" /><circle cx="308.382949457" cy="382.365099581" fill="rgb(0%,0%,100%)" r="0.7" /><circle cx="305.942370783" cy="384.10968455" fill="rgb(0%,0%,100%)" r="0.7" /><circle cx="303.497022735" cy="385.8475634" fill="rgb(0%,0%,100%)" r="0.7" /><circle cx="301.047061252" cy="387.578971265" fill="rgb(0%,0%,100%)" r="0.7" /><circle cx="298.592674514" cy="389.3040788" fill="rgb(0%,0%,100%)" r="0.7" /><circle cx="296.134003732" cy="391.023049816" fill="rgb(0%,0%,100%)" r="0.7" /><circle cx="293.671146646" cy="392.736038667" fill="rgb(0%,0%,100%)" r="0.7" /><circle cx="291.204200191" cy="394.443159404" fill="rgb(0%,0%,100%)" r="0.7" /><circle cx="288.7332716" cy="396.144475825" fill="rgb(0%,0%,100%)" r="0.7" /><circle cx="286.258381582" cy="397.840063097" fill="rgb(0%,0%,100%)" r="0.7" /><circle cx="283.779597677" cy="399.529907165" fill="rgb(0%,0%,100%)" r="0.7" /><circle cx="281.296873239" cy="401.213999824" fill="rgb(0%,0%,100%)" r="0.7" /><circle cx="278.810198433" cy="402.892208816" fill="rgb(0%,0%,100%)" r="0.7" /><circle cx="276.319429459" cy="404.564342087" fill="rgb(0%,0%,100%)" r="0.7" /><circle cx="273.824303822" cy="406.230023418" fill="rgb(0%,0%,100%)" r="0.7" /><circle cx="271.324397411" cy="407.888402897" fill="rgb(0%,0%,100%)" r="0.7" /><circle cx="268.818" cy="409.537" fill="rgb(0%,0%,100%)" r="0.7" /></svg>