<?xml version="1.0" encoding="utf-8" ?>
<svg baseProfile="full" height="100%" version="1.1" width="100%" xmlns="http://www.w3.org/2000/svg" xmlns:ev="http://www.w3.org/2001/xml-events" xmlns:xlink="http://www.w3.org/1999/xlink"><defs /><circle cx="349.078633277" cy="328.701616818" fill="rgb(100%,0%,0%)" r="0.7" /><circle cx="346.084858669" cy="328.884019472" fill="rgb(100%,0%,0%)" r="0.7" /><circle cx="343.108439562" cy="329.256368788" fill="rgb(100%,0%,0%)" r="0.7" /><circle cx="340.19962414" cy="329.951036251" fill="rgb(100%,0%,0%)" r="0.7" /><circle cx="337.436599186" cy="331.117081171" fill="rgb(100%,0%,0%)" r="0.7" /><circle cx="334.77691821" cy="332.503407834" fill="rgb(100%,0%,0%)" r="0.7" /><circle cx="332.223835199" cy="334.077592235" fill="rgb(100%,0%,0%)" r="0.7" /><circle cx="329.784636551" cy="335.823126253" fill="rgb(100%,0%,0%)" r="0.7" /><circle cx="327.467624047" cy="337.727904505" fill="rgb(100%,0%,0%)" r="0.7" /><circle cx="325.281008525" cy="339.781070114" fill="rgb(100%,0%,0%)" r="0.7" /><circle cx="323.232230146" cy="341.971819373" fill="rgb(100%,0%,0%)" r="0.7" /><circle cx="321.327492553" cy="344.288934242" fill="rgb(100%,0%,0%)" r="0.7" /><circle cx="319.571438302" cy="346.720681084" fill="rgb(100%,0%,0%)" r="0.7" /><circle cx="317.966906073" cy="349.25499974" fill="rgb(100%,0%,0%)" r="0.7" /><circle cx="316.51490006" cy="351.87971717" fill="rgb(100%,0%,0%)" r="0.7" /><circle cx="315.214644444" cy="354.582856372" fill="rgb(100%,0%,0%)" r="0.7" /><circle cx="314.063748195" cy="357.352935866" fill="rgb(100%,0%,0%)" r="0.7" /><circle cx="313.058470863" cy="360.179149633" fill="rgb(100%,0%,0%)" r="0.7" /><circle cx="312.193978601" cy="363.051582828" fill="rgb(100%,0%,0%)" r="0.7" /><circle cx="311.464633193" cy="365.961308034" fill="rgb(100%,0%,0%)" r="0.7" /><circle cx="310.814262804" cy="368.889362026" fill="rgb(100%,0%,0%)" r="0.7" /><circle cx="310.1432213" cy="371.813256118" fill="rgb(100%,0%,0%)" r="0.7" /><circle cx="309.535560599" cy="374.751028471" fill="rgb(100%,0%,0%)" r="0.7" /><circle cx="308.97667188" cy="377.698473443" fill="rgb(100%,0%,0%)" r="0.7" /><circle cx="308.460104458" cy="380.65365031" fill="rgb(100%,0%,0%)" r="0.7" /><circle cx="307.982006188" cy="383.615284163" fill="rgb(100%,0%,0%)" r="0.7" /><circle cx="307.539753334" cy="386.582490199" fill="rgb(100%,0%,0%)" r="0.7" /><circle cx="307.131430933" cy="389.55456198" fill="rgb(100%,0%,0%)" r="0.7" /><circle cx="306.755572442" cy="392.530907598" fill="rgb(100%,0%,0%)" r="0.7" /><circle cx="306.411013213" cy="395.511036565" fill="rgb(100%,0%,0%)" r="0.7" /><circle cx="306.096805967" cy="398.494524258" fill="rgb(100%,0%,0%)" r="0.7" /><circle cx="305.812166535" cy="401.480981283" fill="rgb(100%,0%,0%)" r="0.7" /><circle cx="305.556434998" cy="404.4700487" fill="rgb(100%,0%,0%)" r="0.7" /><circle cx="305.32904754" cy="407.461407866" fill="rgb(100%,0%,0%)" r="0.7" /><circle cx="305.129518327" cy="410.45476336" fill="rgb(100%,0%,0%)" r="0.7" /><circle cx="304.957426842" cy="413.449804225" fill="rgb(100%,0%,0%)" r="0.7" /><circle cx="304.812401485" cy="416.446286548" fill="rgb(100%,0%,0%)" r="0.7" /><circle cx="304.694116297" cy="419.443944111" fill="rgb(100%,0%,0%)" r="0.7" /><circle cx="304.602281397" cy="422.442529554" fill="rgb(100%,0%,0%)" r="0.7" /><circle cx="304.858402755" cy="423.966082977" fill="rgb(100%,0%,0%)" r="0.7" /><circle cx="306.056161384" cy="421.215560433" fill="rgb(100%,0%,0%)" r="0.7" /><circle cx="307.253920014" cy="418.465037889" fill="rgb(100%,0%,0%)" r="0.7" /><circle cx="308.451678644" cy="415.714515345" fill="rgb(100%,0%,0%)" r="0.7" /><circle cx="309.649437274" cy="412.963992801" fill="rgb(100%,0%,0%)" r="0.7" /><circle cx="310.872448434" cy="410.48057099" fill="rgb(100%,0%,0%)" r="0.7" /><circle cx="312.564462962" cy="412.957885431" fill="rgb(100%,0%,0%)" r="0.7" /><circle cx="314.25647749" cy="415.435199871" fill="rgb(100%,0%,0%)" r="0.7" /><circle cx="315.948492018" cy="417.912514312" fill="rgb(100%,0%,0%)" r="0.7" /><circle cx="317.640506546" cy="420.389828752" fill="rgb(100%,0%,0%)" r="0.7" /><circle cx="319.332521074" cy="422.867143192" fill="rgb(100%,0%,0%)" r="0.7" /><circle cx="321.024535603" cy="425.344457633" fill="rgb(100%,0%,0%)" r="0.7" /><circle cx="321.21" cy="425.616" fill="rgb(100%,0%,0%)" r="0.7" /><circle cx="349.078633277" cy="328.701616818" fill="rgb(0%,0%,100%)" r="0.7" /><circle cx="352.076221341" cy="328.78156556" fill="rgb(0%,0%,100%)" r="0.7" /><circle cx="355.037093079" cy="329.244759308" fill="rgb(0%,0%,100%)" r="0.7" /><circle cx="357.838385423" cy="330.294960069" fill="rgb(0%,0%,100%)" r="0.7" /><circle cx="360.132445834" cy="332.194987012" fill="rgb(0%,0%,100%)" r="0.7" /><circle cx="361.332744115" cy="334.911920346" fill="rgb(0%,0%,100%)" r="0.7" /><circle cx="361.140792518" cy="337.874096075" fill="rgb(0%,0%,100%)" r="0.7" /><circle cx="359.361866287" cy="340.251943154" fill="rgb(0%,0%,100%)" r="0.7" /><circle cx="356.889711151" cy="341.941790668" fill="rgb(0%,0%,100%)" r="0.7" /><circle cx="354.181911952" cy="343.229347387" fill="rgb(0%,0%,100%)" r="0.7" /><circle cx="351.362100962" cy="344.250926174" fill="rgb(0%,0%,100%)" r="0.7" /><circle cx="348.455929373" cy="344.975710183" fill="rgb(0%,0%,100%)" r="0.7" /><circle cx="345.645737659" cy="346.016632844" fill="rgb(0%,0%,100%)" r="0.7" /><circle cx="342.964863776" cy="347.36126161" fill="rgb(0%,0%,100%)" r="0.7" /><circle cx="340.425513307" cy="348.948806841" fill="rgb(0%,0%,100%)" r="0.7" /><circle cx="338.231036911" cy="350.98960811" fill="rgb(0%,0%,100%)" r="0.7" /><circle cx="336.327182623" cy="353.306116685" fill="rgb(0%,0%,100%)" r="0.7" /><circle cx="334.648880541" cy="355.791780955" fill="rgb(0%,0%,100%)" r="0.7" /><circle cx="333.148037703" cy="358.388833233" fill="rgb(0%,0%,100%)" r="0.7" /><circle cx="331.790901016" cy="361.06397956" fill="rgb(0%,0%,100%)" r="0.7" /><circle cx="330.553961484" cy="363.796880366" fill="rgb(0%,0%,100%)" r="0.7" /><circle cx="329.421112571" cy="366.574598315" fill="rgb(0%,0%,100%)" r="0.7" /><circle cx="328.382299406" cy="369.388863637" fill="rgb(0%,0%,100%)" r="0.7" /><circle cx="327.434484292" cy="372.235071743" fill="rgb(0%,0%,100%)" r="0.7" /><circle cx="326.586966681" cy="375.112700239" fill="rgb(0%,0%,100%)" r="0.7" /><circle cx="325.806648216" cy="378.009367531" fill="rgb(0%,0%,100%)" r="0.7" /><circle cx="325.09355464" cy="380.923318278" fill="rgb(0%,0%,100%)" r="0.7" /><circle cx="324.444951613" cy="383.85230831" fill="rgb(0%,0%,100%)" r="0.7" /><circle cx="323.858312117" cy="386.794337345" fill="rgb(0%,0%,100%)" r="0.7" /><circle cx="323.331317748" cy="389.747635453" fill="rgb(0%,0%,100%)" r="0.7" /><circle cx="322.861865038" cy="392.710634255" fill="rgb(0%,0%,100%)" r="0.7" /><circle cx="322.448076559" cy="395.681916344" fill="rgb(0%,0%,100%)" r="0.7" /><circle cx="322.088306154" cy="398.660228467" fill="rgb(0%,0%,100%)" r="0.7" /><circle cx="321.781161399" cy="401.644426044" fill="rgb(0%,0%,100%)" r="0.7" /><circle cx="321.525528672" cy="404.63347875" fill="rgb(0%,0%,100%)" r="0.7" /><circle cx="321.320621898" cy="407.626431054" fill="rgb(0%,0%,100%)" r="0.7" /><circle cx="321.166058815" cy="410.622420248" fill="rgb(0%,0%,100%)" r="0.7" /><circle cx="321.062005209" cy="413.620569999" fill="rgb(0%,0%,100%)" r="0.7" /><circle cx="321.009437991" cy="416.620082781" fill="rgb(0%,0%,100%)" r="0.7" /><circle cx="321.010742959" cy="419.620040642" fill="rgb(0%,0%,100%)" r="0.7" /><circle cx="321.071388203" cy="422.619364393" fill="rgb(0%,0%,100%)" r="0.7" /><circle cx="321.21" cy="425.616" fill="rgb(0%,0%,100%)" r="0.7" /></svg>