<?xml version="1.0" encoding="utf-8" ?>
<svg baseProfile="full" height="100%" version="1.1" width="100%" xmlns="http://www.w3.org/2000/svg" xmlns:ev="http://www.w3.org/2001/xml-events" xmlns:xlink="http://www.w3.org/1999/xlink"><defs /><circle cx="279.247564328" cy="266.773924939" fill="rgb(100%,0%,0%)" r="0.7" /><circle cx="276.280477988" cy="267.116290353" fill="rgb(100%,0%,0%)" r="0.7" /><circle cx="273.47702024" cy="268.164316649" fill="rgb(100%,0%,0%)" r="0.7" /><circle cx="270.784589661" cy="269.48721026" fill="rgb(100%,0%,0%)" r="0.7" /><circle cx="268.133286804" cy="270.890784516" fill="rgb(100%,0%,0%)" r="0.7" /><circle cx="265.521339228" cy="272.366313" fill="rgb(100%,0%,0%)" r="0.7" /><circle cx="262.949948919" cy="273.9114341" fill="rgb(100%,0%,0%)" r="0.7" /><circle cx="260.421741213" cy="275.526234166" fill="rgb(100%,0%,0%)" r="0.7" /><circle cx="257.940417624" cy="277.212178034" fill="rgb(100%,0%,0%)" r="0.7" /><circle cx="255.510709822" cy="278.971674547" fill="rgb(100%,0%,0%)" r="0.7" /><circle cx="253.138454348" cy="280.807857541" fill="rgb(100%,0%,0%)" r="0.7" /><circle cx="250.830715192" cy="282.724468339" fill="rgb(100%,0%,0%)" r="0.7" /><circle cx="248.59601779" cy="284.725716575" fill="rgb(100%,0%,0%)" r="0.7" /><circle cx="246.4445801" cy="286.816162537" fill="rgb(100%,0%,0%)" r="0.7" /><circle cx="244.388621175" cy="289.000513287" fill="rgb(100%,0%,0%)" r="0.7" /><circle cx="242.442673055" cy="291.283336503" fill="rgb(100%,0%,0%)" r="0.7" /><circle cx="240.623885194" cy="293.668615086" fill="rgb(100%,0%,0%)" r="0.7" /><circle cx="238.948942395" cy="296.156887836" fill="rgb(100%,0%,0%)" r="0.7" /><circle cx="237.267065816" cy="298.640935698" fill="rgb(100%,0%,0%)" r="0.7" /><circle cx="235.651106699" cy="301.168445511" fill="rgb(100%,0%,0%)" r="0.7" /><circle cx="234.090148015" cy="303.730298709" fill="rgb(100%,0%,0%)" r="0.7" /><circle cx="232.582812771" cy="306.324064537" fill="rgb(100%,0%,0%)" r="0.7" /><circle cx="231.130401859" cy="308.948976856" fill="rgb(100%,0%,0%)" r="0.7" /><circle cx="229.735800715" cy="311.605048585" fill="rgb(100%,0%,0%)" r="0.7" /><circle cx="228.403192984" cy="314.292749601" fill="rgb(100%,0%,0%)" r="0.7" /><circle cx="227.138048524" cy="317.012842532" fill="rgb(100%,0%,0%)" r="0.7" /><circle cx="225.947252763" cy="319.76627981" fill="rgb(100%,0%,0%)" r="0.7" /><circle cx="224.839361174" cy="322.554080381" fill="rgb(100%,0%,0%)" r="0.7" /><circle cx="223.824955716" cy="325.377208378" fill="rgb(100%,0%,0%)" r="0.7" /><circle cx="222.917149662" cy="328.236351013" fill="rgb(100%,0%,0%)" r="0.7" /><circle cx="222.132248365" cy="331.131582485" fill="rgb(100%,0%,0%)" r="0.7" /><circle cx="221.490598569" cy="334.061804571" fill="rgb(100%,0%,0%)" r="0.7" /><circle cx="221.019776866" cy="337.024045921" fill="rgb(100%,0%,0%)" r="0.7" /><circle cx="220.693524095" cy="340.006191797" fill="rgb(100%,0%,0%)" r="0.7" /><circle cx="220.430155423" cy="342.994560794" fill="rgb(100%,0%,0%)" r="0.7" /><circle cx="220.218810856" cy="345.98707072" fill="rgb(100%,0%,0%)" r="0.7" /><circle cx="220.056196582" cy="348.982633333" fill="rgb(100%,0%,0%)" r="0.7" /><circle cx="219.941307454" cy="351.980412376" fill="rgb(100%,0%,0%)" r="0.7" /><circle cx="219.874297405" cy="354.979630843" fill="rgb(100%,0%,0%)" r="0.7" /><circle cx="219.856068158" cy="357.979537499" fill="rgb(100%,0%,0%)" r="0.7" /><circle cx="219.888092342" cy="360.979336369" fill="rgb(100%,0%,0%)" r="0.7" /><circle cx="219.972331602" cy="363.978109196" fill="rgb(100%,0%,0%)" r="0.7" /><circle cx="220.111206408" cy="366.974853447" fill="rgb(100%,0%,0%)" r="0.7" /><circle cx="220.307592341" cy="369.968368679" fill="rgb(100%,0%,0%)" r="0.7" /><circle cx="220.564840099" cy="372.957266456" fill="rgb(100%,0%,0%)" r="0.7" /><circle cx="220.886806267" cy="375.93987675" fill="rgb(100%,0%,0%)" r="0.7" /><circle cx="221.277900632" cy="378.914204851" fill="rgb(100%,0%,0%)" r="0.7" /><circle cx="221.743140109" cy="381.877825695" fill="rgb(100%,0%,0%)" r="0.7" /><circle cx="222.288215875" cy="384.827793066" fill="rgb(100%,0%,0%)" r="0.7" /><circle cx="222.919562444" cy="387.760488856" fill="rgb(100%,0%,0%)" r="0.7" /><circle cx="223.644431193" cy="390.671456737" fill="rgb(100%,0%,0%)" r="0.7" /><circle cx="224.470954413" cy="393.55517765" fill="rgb(100%,0%,0%)" r="0.7" /><circle cx="225.408189784" cy="396.40479971" fill="rgb(100%,0%,0%)" r="0.7" /><circle cx="226.466120384" cy="399.211805495" fill="rgb(100%,0%,0%)" r="0.7" /><circle cx="227.655565921" cy="401.965599599" fill="rgb(100%,0%,0%)" r="0.7" /><circle cx="228.98795751" cy="404.653057411" fill="rgb(100%,0%,0%)" r="0.7" /><circle cx="230.474906694" cy="407.258081485" fill="rgb(100%,0%,0%)" r="0.7" /><circle cx="232.127447824" cy="409.761199844" fill="rgb(100%,0%,0%)" r="0.7" /><circle cx="233.873647484" cy="411.841800366" fill="rgb(100%,0%,0%)" r="0.7" /><circle cx="279.247564328" cy="266.773924939" fill="rgb(0%,0%,100%)" r="0.7" /><circle cx="280.59129499" cy="268.7369909" fill="rgb(0%,0%,100%)" r="0.7" /><circle cx="280.503214823" cy="271.735697602" fill="rgb(0%,0%,100%)" r="0.7" /><circle cx="280.20079413" cy="274.710496157" fill="rgb(0%,0%,100%)" r="0.7" /><circle cx="280.076707443" cy="277.70667575" fill="rgb(0%,0%,100%)" r="0.7" /><circle cx="279.908793454" cy="280.691735094" fill="rgb(0%,0%,100%)" r="0.7" /><circle cx="278.649794852" cy="283.377532891" fill="rgb(0%,0%,100%)" r="0.7" /><circle cx="276.090736626" cy="284.857124081" fill="rgb(0%,0%,100%)" r="0.7" /><circle cx="273.499198243" cy="286.368391368" fill="rgb(0%,0%,100%)" r="0.7" /><circle cx="271.131767523" cy="288.2006689" fill="rgb(0%,0%,100%)" r="0.7" /><circle cx="268.900938713" cy="290.206135835" fill="rgb(0%,0%,100%)" r="0.7" /><circle cx="266.758493955" cy="292.305814972" fill="rgb(0%,0%,100%)" r="0.7" /><circle cx="264.701022984" cy="294.488869456" fill="rgb(0%,0%,100%)" r="0.7" /><circle cx="262.724972768" cy="296.745924194" fill="rgb(0%,0%,100%)" r="0.7" /><circle cx="260.826830708" cy="299.068907697" fill="rgb(0%,0%,100%)" r="0.7" /><circle cx="259.003253976" cy="301.450896928" fill="rgb(0%,0%,100%)" r="0.7" /><circle cx="257.25116804" cy="303.885969895" fill="rgb(0%,0%,100%)" r="0.7" /><circle cx="255.567843079" cy="306.369081133" fill="rgb(0%,0%,100%)" r="0.7" /><circle cx="253.950957733" cy="308.89597644" fill="rgb(0%,0%,100%)" r="0.7" /><circle cx="252.398711973" cy="311.463085466" fill="rgb(0%,0%,100%)" r="0.7" /><circle cx="250.909934574" cy="314.067532592" fill="rgb(0%,0%,100%)" r="0.7" /><circle cx="249.484366102" cy="316.707098603" fill="rgb(0%,0%,100%)" r="0.7" /><circle cx="248.123146869" cy="319.380418828" fill="rgb(0%,0%,100%)" r="0.7" /><circle cx="246.830217375" cy="322.087417144" fill="rgb(0%,0%,100%)" r="0.7" /><circle cx="245.618301781" cy="324.831552139" fill="rgb(0%,0%,100%)" r="0.7" /><circle cx="244.698906248" cy="327.684246669" fill="rgb(0%,0%,100%)" r="0.7" /><circle cx="243.912125168" cy="330.579158488" fill="rgb(0%,0%,100%)" r="0.7" /><circle cx="243.200984903" cy="333.493554768" fill="rgb(0%,0%,100%)" r="0.7" /><circle cx="242.568166936" cy="336.425965404" fill="rgb(0%,0%,100%)" r="0.7" /><circle cx="242.016333376" cy="339.374668213" fill="rgb(0%,0%,100%)" r="0.7" /><circle cx="241.548078748" cy="342.337802025" fill="rgb(0%,0%,100%)" r="0.7" /><circle cx="241.165928581" cy="345.313240926" fill="rgb(0%,0%,100%)" r="0.7" /><circle cx="240.8722939" cy="348.29872805" fill="rgb(0%,0%,100%)" r="0.7" /><circle cx="240.66946361" cy="351.291750788" fill="rgb(0%,0%,100%)" r="0.7" /><circle cx="240.559570023" cy="354.289616126" fill="rgb(0%,0%,100%)" r="0.7" /><circle cx="240.54456804" cy="357.289446963" fill="rgb(0%,0%,100%)" r="0.7" /><circle cx="240.626215737" cy="360.288203609" fill="rgb(0%,0%,100%)" r="0.7" /><circle cx="240.806057287" cy="363.282660908" fill="rgb(0%,0%,100%)" r="0.7" /><circle cx="241.085414448" cy="366.269484249" fill="rgb(0%,0%,100%)" r="0.7" /><circle cx="241.465379229" cy="369.245184729" fill="rgb(0%,0%,100%)" r="0.7" /><circle cx="241.946817466" cy="372.206159404" fill="rgb(0%,0%,100%)" r="0.7" /><circle cx="242.530381467" cy="375.148702847" fill="rgb(0%,0%,100%)" r="0.7" /><circle cx="243.216536146" cy="378.069022085" fill="rgb(0%,0%,100%)" r="0.7" /><circle cx="244.005594718" cy="380.963220998" fill="rgb(0%,0%,100%)" r="0.7" /><circle cx="244.897785736" cy="383.827320223" fill="rgb(0%,0%,100%)" r="0.7" /><circle cx="245.893312909" cy="386.657146332" fill="rgb(0%,0%,100%)" r="0.7" /><circle cx="246.992492825" cy="389.448328606" fill="rgb(0%,0%,100%)" r="0.7" /><circle cx="248.19594593" cy="392.196183457" fill="rgb(0%,0%,100%)" r="0.7" /><circle cx="249.504844145" cy="394.895373067" fill="rgb(0%,0%,100%)" r="0.7" /><circle cx="250.921495318" cy="397.539577314" fill="rgb(0%,0%,100%)" r="0.7" /><circle cx="252.450438913" cy="400.120424266" fill="rgb(0%,0%,100%)" r="0.7" /><circle cx="254.10160012" cy="402.62474396" fill="rgb(0%,0%,100%)" r="0.7" /><circle cx="255.909" cy="405.018" fill="rgb(0%,0%,100%)" r="0.7" /><circle cx="253.00786664" cy="404.262461963" fill="rgb(0%,0%,100%)" r="0.7" /><circle cx="250.104702371" cy="403.506395019" fill="rgb(0%,0%,100%)" r="0.7" /><circle cx="247.201538101" cy="402.750328075" fill="rgb(0%,0%,100%)" r="0.7" /><circle cx="244.298373832" cy="401.994261131" fill="rgb(0%,0%,100%)" r="0.7" /><circle cx="241.395209562" cy="401.238194187" fill="rgb(0%,0%,100%)" r="0.7" /><circle cx="238.492045292" cy="400.482127243" fill="rgb(0%,0%,100%)" r="0.7" /><circle cx="235.762314448" cy="399.99135999" fill="rgb(0%,0%,100%)" r="0.7" /><circle cx="235.290147707" cy="402.953970084" fill="rgb(0%,0%,100%)" r="0.7" /><circle cx="234.817980966" cy="405.916580178" fill="rgb(0%,0%,100%)" r="0.7" /><circle cx="234.345814225" cy="408.879190272" fill="rgb(0%,0%,100%)" r="0.7" /><circle cx="233.873647484" cy="411.841800366" fill="rgb(0%,0%,100%)" r="0.7" /></svg>