<?xml version="1.0" encoding="utf-8" ?>
<svg baseProfile="full" height="100%" version="1.1" width="100%" xmlns="http://www.w3.org/2000/svg" xmlns:ev="http://www.w3.org/2001/xml-events" xmlns:xlink="http://www.w3.org/1999/xlink"><defs /><circle cx="374.26534802" cy="319.864420162" fill="rgb(100%,0%,0%)" r="0.7" /><circle cx="371.273948362" cy="320.082123015" fill="rgb(100%,0%,0%)" r="0.7" /><circle cx="368.307836767" cy="320.526688492" fill="rgb(100%,0%,0%)" r="0.7" /><circle cx="365.386518098" cy="321.205623216" fill="rgb(100%,0%,0%)" r="0.7" /><circle cx="362.531351548" cy="322.123607563" fill="rgb(100%,0%,0%)" r="0.7" /><circle cx="359.764582393" cy="323.280952133" fill="rgb(100%,0%,0%)" r="0.7" /><circle cx="357.107922855" cy="324.672554971" fill="rgb(100%,0%,0%)" r="0.7" /><circle cx="354.580861718" cy="326.287627372" fill="rgb(100%,0%,0%)" r="0.7" /><circle cx="352.199115113" cy="328.110293029" fill="rgb(100%,0%,0%)" r="0.7" /><circle cx="349.987792716" cy="330.135626573" fill="rgb(100%,0%,0%)" r="0.7" /><circle cx="347.848391917" cy="332.238722008" fill="rgb(100%,0%,0%)" r="0.7" /><circle cx="345.711834203" cy="334.344690364" fill="rgb(100%,0%,0%)" r="0.7" /><circle cx="343.578004097" cy="336.453433062" fill="rgb(100%,0%,0%)" r="0.7" /><circle cx="341.447068486" cy="338.565093375" fill="rgb(100%,0%,0%)" r="0.7" /><circle cx="339.319336698" cy="340.679986814" fill="rgb(100%,0%,0%)" r="0.7" /><circle cx="337.195295629" cy="342.798582194" fill="rgb(100%,0%,0%)" r="0.7" /><circle cx="335.075649474" cy="344.921576424" fill="rgb(100%,0%,0%)" r="0.7" /><circle cx="332.961458358" cy="347.049999043" fill="rgb(100%,0%,0%)" r="0.7" /><circle cx="330.854382013" cy="349.185470547" fill="rgb(100%,0%,0%)" r="0.7" /><circle cx="328.757289947" cy="351.330744257" fill="rgb(100%,0%,0%)" r="0.7" /><circle cx="326.698969478" cy="353.512497535" fill="rgb(100%,0%,0%)" r="0.7" /><circle cx="324.666810315" cy="355.719309161" fill="rgb(100%,0%,0%)" r="0.7" /><circle cx="322.594398952" cy="357.888386322" fill="rgb(100%,0%,0%)" r="0.7" /><circle cx="320.487543511" cy="360.024039737" fill="rgb(100%,0%,0%)" r="0.7" /><circle cx="318.347968077" cy="362.126901583" fill="rgb(100%,0%,0%)" r="0.7" /><circle cx="316.175981913" cy="364.196269749" fill="rgb(100%,0%,0%)" r="0.7" /><circle cx="313.971141605" cy="366.230596263" fill="rgb(100%,0%,0%)" r="0.7" /><circle cx="311.732480496" cy="368.227640954" fill="rgb(100%,0%,0%)" r="0.7" /><circle cx="309.458606973" cy="370.184485715" fill="rgb(100%,0%,0%)" r="0.7" /><circle cx="307.14773099" cy="372.097484782" fill="rgb(100%,0%,0%)" r="0.7" /><circle cx="304.797683747" cy="373.962135656" fill="rgb(100%,0%,0%)" r="0.7" /><circle cx="302.405892694" cy="375.772912321" fill="rgb(100%,0%,0%)" r="0.7" /><circle cx="299.975847143" cy="377.532109851" fill="rgb(100%,0%,0%)" r="0.7" /><circle cx="297.538210782" cy="379.280773522" fill="rgb(100%,0%,0%)" r="0.7" /><circle cx="295.094940653" cy="381.021570376" fill="rgb(100%,0%,0%)" r="0.7" /><circle cx="292.646621827" cy="382.755304489" fill="rgb(100%,0%,0%)" r="0.7" /><circle cx="290.1935841" cy="384.482312865" fill="rgb(100%,0%,0%)" r="0.7" /><circle cx="287.735928489" cy="386.20279948" fill="rgb(100%,0%,0%)" r="0.7" /><circle cx="285.273778657" cy="387.916782903" fill="rgb(100%,0%,0%)" r="0.7" /><circle cx="282.807112232" cy="389.624270585" fill="rgb(100%,0%,0%)" r="0.7" /><circle cx="280.33590307" cy="391.325187997" fill="rgb(100%,0%,0%)" r="0.7" /><circle cx="277.86008766" cy="393.01941784" fill="rgb(100%,0%,0%)" r="0.7" /><circle cx="275.379608545" cy="394.706779005" fill="rgb(100%,0%,0%)" r="0.7" /><circle cx="272.894332617" cy="396.387086632" fill="rgb(100%,0%,0%)" r="0.7" /><circle cx="270.404149295" cy="398.060086741" fill="rgb(100%,0%,0%)" r="0.7" /><circle cx="267.908881283" cy="399.725515968" fill="rgb(100%,0%,0%)" r="0.7" /><circle cx="265.408363992" cy="401.383045783" fill="rgb(100%,0%,0%)" r="0.7" /><circle cx="262.902386264" cy="403.032318303" fill="rgb(100%,0%,0%)" r="0.7" /><circle cx="260.390729218" cy="404.672915054" fill="rgb(100%,0%,0%)" r="0.7" /><circle cx="257.873123968" cy="406.304377651" fill="rgb(100%,0%,0%)" r="0.7" /><circle cx="255.3492844" cy="407.926177299" fill="rgb(100%,0%,0%)" r="0.7" /><circle cx="252.818883815" cy="409.537718845" fill="rgb(100%,0%,0%)" r="0.7" /><circle cx="250.28155403" cy="411.138327366" fill="rgb(100%,0%,0%)" r="0.7" /><circle cx="247.736880684" cy="412.727233895" fill="rgb(100%,0%,0%)" r="0.7" /><circle cx="245.184396308" cy="414.303558309" fill="rgb(100%,0%,0%)" r="0.7" /><circle cx="242.623563856" cy="415.866292528" fill="rgb(100%,0%,0%)" r="0.7" /><circle cx="240.053781419" cy="417.414263506" fill="rgb(100%,0%,0%)" r="0.7" /><circle cx="237.474359502" cy="418.946103598" fill="rgb(100%,0%,0%)" r="0.7" /><circle cx="234.884492577" cy="420.460210863" fill="rgb(100%,0%,0%)" r="0.7" /><circle cx="232.28323545" cy="421.954688059" fill="rgb(100%,0%,0%)" r="0.7" /><circle cx="229.669511605" cy="423.427238351" fill="rgb(100%,0%,0%)" r="0.7" /><circle cx="227.042027494" cy="424.87507851" fill="rgb(100%,0%,0%)" r="0.7" /><circle cx="224.399221646" cy="426.294776118" fill="rgb(100%,0%,0%)" r="0.7" /><circle cx="221.739248485" cy="427.681986098" fill="rgb(100%,0%,0%)" r="0.7" /><circle cx="219.059776587" cy="429.031153843" fill="rgb(100%,0%,0%)" r="0.7" /><circle cx="216.357923048" cy="430.334926098" fill="rgb(100%,0%,0%)" r="0.7" /><circle cx="213.630071436" cy="431.583246915" fill="rgb(100%,0%,0%)" r="0.7" /><circle cx="212.651931501" cy="432.48817464" fill="rgb(100%,0%,0%)" r="0.7" /><circle cx="215.640135901" cy="432.753946095" fill="rgb(100%,0%,0%)" r="0.7" /><circle cx="218.628340301" cy="433.01971755" fill="rgb(100%,0%,0%)" r="0.7" /><circle cx="221.6165447" cy="433.285489005" fill="rgb(100%,0%,0%)" r="0.7" /><circle cx="224.6047491" cy="433.55126046" fill="rgb(100%,0%,0%)" r="0.7" /><circle cx="226.417171953" cy="434.855741869" fill="rgb(100%,0%,0%)" r="0.7" /><circle cx="226.312401516" cy="437.853911836" fill="rgb(100%,0%,0%)" r="0.7" /><circle cx="226.207631079" cy="440.852081804" fill="rgb(100%,0%,0%)" r="0.7" /><circle cx="226.102860641" cy="443.850251772" fill="rgb(100%,0%,0%)" r="0.7" /><circle cx="225.998090204" cy="446.84842174" fill="rgb(100%,0%,0%)" r="0.7" /><circle cx="225.893319767" cy="449.846591707" fill="rgb(100%,0%,0%)" r="0.7" /><circle cx="225.805" cy="452.374" fill="rgb(100%,0%,0%)" r="0.7" /><circle cx="374.26534802" cy="319.864420162" fill="rgb(0%,0%,100%)" r="0.7" /><circle cx="377.264707684" cy="319.865109704" fill="rgb(0%,0%,100%)" r="0.7" /><circle cx="380.256610119" cy="320.077004474" fill="rgb(0%,0%,100%)" r="0.7" /><circle cx="383.226319384" cy="320.497802374" fill="rgb(0%,0%,100%)" r="0.7" /><circle cx="386.155592076" cy="321.141357052" fill="rgb(0%,0%,100%)" r="0.7" /><circle cx="389.013961013" cy="322.050056355" fill="rgb(0%,0%,100%)" r="0.7" /><circle cx="391.822174486" cy="323.104664303" fill="rgb(0%,0%,100%)" r="0.7" /><circle cx="394.571876483" cy="324.303352909" fill="rgb(0%,0%,100%)" r="0.7" /><circle cx="397.246517425" cy="325.661060792" fill="rgb(0%,0%,100%)" r="0.7" /><circle cx="399.824500669" cy="327.194089182" fill="rgb(0%,0%,100%)" r="0.7" /><circle cx="402.277441819" cy="328.919788406" fill="rgb(0%,0%,100%)" r="0.7" /><circle cx="404.567527026" cy="330.855918374" fill="rgb(0%,0%,100%)" r="0.7" /><circle cx="406.643041185" cy="333.019836726" fill="rgb(0%,0%,100%)" r="0.7" /><circle cx="408.427395251" cy="335.428340584" fill="rgb(0%,0%,100%)" r="0.7" /><circle cx="409.756789749" cy="338.10974591" fill="rgb(0%,0%,100%)" r="0.7" /><circle cx="409.482695166" cy="341.092738021" fill="rgb(0%,0%,100%)" r="0.7" /><circle cx="408.68184309" cy="343.978129742" fill="rgb(0%,0%,100%)" r="0.7" /><circle cx="407.192643269" cy="346.570130539" fill="rgb(0%,0%,100%)" r="0.7" /><circle cx="404.961248516" cy="348.553051255" fill="rgb(0%,0%,100%)" r="0.7" /><circle cx="402.195656647" cy="349.680949612" fill="rgb(0%,0%,100%)" r="0.7" /><circle cx="399.232686526" cy="349.756552507" fill="rgb(0%,0%,100%)" r="0.7" /><circle cx="396.338988964" cy="348.966235452" fill="rgb(0%,0%,100%)" r="0.7" /><circle cx="393.486243386" cy="348.038842196" fill="rgb(0%,0%,100%)" r="0.7" /><circle cx="390.691570892" cy="346.949665145" fill="rgb(0%,0%,100%)" r="0.7" /><circle cx="388.00904583" cy="345.610707027" fill="rgb(0%,0%,100%)" r="0.7" /><circle cx="385.66860392" cy="343.75744508" fill="rgb(0%,0%,100%)" r="0.7" /><circle cx="383.797565855" cy="341.460046164" fill="rgb(0%,0%,100%)" r="0.7" /><circle cx="381.062780674" cy="340.257442295" fill="rgb(0%,0%,100%)" r="0.7" /><circle cx="378.123926479" cy="339.668575497" fill="rgb(0%,0%,100%)" r="0.7" /><circle cx="375.133866538" cy="339.444494653" fill="rgb(0%,0%,100%)" r="0.7" /><circle cx="372.201713909" cy="339.94381512" fill="rgb(0%,0%,100%)" r="0.7" /><circle cx="369.508186542" cy="341.256616197" fill="rgb(0%,0%,100%)" r="0.7" /><circle cx="366.993251076" cy="342.890411216" fill="rgb(0%,0%,100%)" r="0.7" /><circle cx="364.598795217" cy="344.69713463" fill="rgb(0%,0%,100%)" r="0.7" /><circle cx="362.292249251" cy="346.615115988" fill="rgb(0%,0%,100%)" r="0.7" /><circle cx="360.054543322" cy="348.613104046" fill="rgb(0%,0%,100%)" r="0.7" /><circle cx="357.87429939" cy="350.673690643" fill="rgb(0%,0%,100%)" r="0.7" /><circle cx="355.745744278" cy="352.787662886" fill="rgb(0%,0%,100%)" r="0.7" /><circle cx="353.677355586" cy="354.960186782" fill="rgb(0%,0%,100%)" r="0.7" /><circle cx="351.677621738" cy="357.19638918" fill="rgb(0%,0%,100%)" r="0.7" /><circle cx="349.647101369" cy="359.404769381" fill="rgb(0%,0%,100%)" r="0.7" /><circle cx="347.60264806" cy="361.600270015" fill="rgb(0%,0%,100%)" r="0.7" /><circle cx="345.549728743" cy="363.787853906" fill="rgb(0%,0%,100%)" r="0.7" /><circle cx="343.490935371" cy="365.969912347" fill="rgb(0%,0%,100%)" r="0.7" /><circle cx="341.427740248" cy="368.147811229" fill="rgb(0%,0%,100%)" r="0.7" /><circle cx="339.361073967" cy="370.322414765" fill="rgb(0%,0%,100%)" r="0.7" /><circle cx="337.291563156" cy="372.494312922" fill="rgb(0%,0%,100%)" r="0.7" /><circle cx="335.219656354" cy="374.663922227" fill="rgb(0%,0%,100%)" r="0.7" /><circle cx="333.145677729" cy="376.831555025" fill="rgb(0%,0%,100%)" r="0.7" /><circle cx="331.069875899" cy="378.997440802" fill="rgb(0%,0%,100%)" r="0.7" /><circle cx="328.992440715" cy="381.161752127" fill="rgb(0%,0%,100%)" r="0.7" /><circle cx="326.913501174" cy="383.324632578" fill="rgb(0%,0%,100%)" r="0.7" /><circle cx="324.833172343" cy="385.48616092" fill="rgb(0%,0%,100%)" r="0.7" /><circle cx="322.751495242" cy="387.646413422" fill="rgb(0%,0%,100%)" r="0.7" /><circle cx="320.668499593" cy="389.805374502" fill="rgb(0%,0%,100%)" r="0.7" /><circle cx="318.584067456" cy="391.962966413" fill="rgb(0%,0%,100%)" r="0.7" /><circle cx="316.478212548" cy="394.099339294" fill="rgb(0%,0%,100%)" r="0.7" /><circle cx="314.284032536" cy="396.144903226" fill="rgb(0%,0%,100%)" r="0.7" /><circle cx="312.022717111" cy="398.116176597" fill="rgb(0%,0%,100%)" r="0.7" /><circle cx="309.711528527" cy="400.028776042" fill="rgb(0%,0%,100%)" r="0.7" /><circle cx="307.3615756" cy="401.893549397" fill="rgb(0%,0%,100%)" r="0.7" /><circle cx="304.980429901" cy="403.718387987" fill="rgb(0%,0%,100%)" r="0.7" /><circle cx="302.573580882" cy="405.509170168" fill="rgb(0%,0%,100%)" r="0.7" /><circle cx="300.145058562" cy="407.270477357" fill="rgb(0%,0%,100%)" r="0.7" /><circle cx="297.697975265" cy="409.005911118" fill="rgb(0%,0%,100%)" r="0.7" /><circle cx="295.234766877" cy="410.718378456" fill="rgb(0%,0%,100%)" r="0.7" /><circle cx="292.757366209" cy="412.410272035" fill="rgb(0%,0%,100%)" r="0.7" /><circle cx="290.267376426" cy="414.083558417" fill="rgb(0%,0%,100%)" r="0.7" /><circle cx="287.766083571" cy="415.739916187" fill="rgb(0%,0%,100%)" r="0.7" /><circle cx="285.254584119" cy="417.380755927" fill="rgb(0%,0%,100%)" r="0.7" /><circle cx="282.733799194" cy="419.007289597" fill="rgb(0%,0%,100%)" r="0.7" /><circle cx="280.204504626" cy="420.620569429" fill="rgb(0%,0%,100%)" r="0.7" /><circle cx="277.667379838" cy="422.22150141" fill="rgb(0%,0%,100%)" r="0.7" /><circle cx="275.123002294" cy="423.810883659" fill="rgb(0%,0%,100%)" r="0.7" /><circle cx="272.571877231" cy="425.389414765" fill="rgb(0%,0%,100%)" r="0.7" /><circle cx="270.014448457" cy="426.957708636" fill="rgb(0%,0%,100%)" r="0.7" /><circle cx="267.451096621" cy="428.516312575" fill="rgb(0%,0%,100%)" r="0.7" /><circle cx="264.882168431" cy="430.065703052" fill="rgb(0%,0%,100%)" r="0.7" /><circle cx="262.307960816" cy="431.60630624" fill="rgb(0%,0%,100%)" r="0.7" /><circle cx="259.728747306" cy="433.138490692" fill="rgb(0%,0%,100%)" r="0.7" /><circle cx="257.144734547" cy="434.662599722" fill="rgb(0%,0%,100%)" r="0.7" /><circle cx="254.556141813" cy="436.178909072" fill="rgb(0%,0%,100%)" r="0.7" /><circle cx="251.96314844" cy="437.687661322" fill="rgb(0%,0%,100%)" r="0.7" /><circle cx="249.365870173" cy="439.189080547" fill="rgb(0%,0%,100%)" r="0.7" /><circle cx="246.764489231" cy="440.683296316" fill="rgb(0%,0%,100%)" r="0.7" /><circle cx="244.159021632" cy="442.170474143" fill="rgb(0%,0%,100%)" r="0.7" /><circle cx="241.549601719" cy="443.650644377" fill="rgb(0%,0%,100%)" r="0.7" /><circle cx="238.936234768" cy="445.123829431" fill="rgb(0%,0%,100%)" r="0.7" /><circle cx="236.318887892" cy="446.58996467" fill="rgb(0%,0%,100%)" r="0.7" /><circle cx="233.697523079" cy="448.048827995" fill="rgb(0%,0%,100%)" r="0.7" /><circle cx="231.071852187" cy="449.500060187" fill="rgb(0%,0%,100%)" r="0.7" /><circle cx="228.44152272" cy="450.942733297" fill="rgb(0%,0%,100%)" r="0.7" /><circle cx="225.805" cy="452.374" fill="rgb(0%,0%,100%)" r="0.7" /></svg>