<?xml version="1.0" encoding="utf-8" ?>
<svg baseProfile="full" height="100%" version="1.1" width="100%" xmlns="http://www.w3.org/2000/svg" xmlns:ev="http://www.w3.org/2001/xml-events" xmlns:xlink="http://www.w3.org/1999/xlink"><defs /><circle cx="381.564741156" cy="245.451138233" fill="rgb(100%,0%,0%)" r="0.7" /><circle cx="378.650084227" cy="246.120054717" fill="rgb(100%,0%,0%)" r="0.7" /><circle cx="375.903697407" cy="247.325237479" fill="rgb(100%,0%,0%)" r="0.7" /><circle cx="373.193732517" cy="248.611981501" fill="rgb(100%,0%,0%)" r="0.7" /><circle cx="370.513872445" cy="249.960286372" fill="rgb(100%,0%,0%)" r="0.7" /><circle cx="367.870028139" cy="251.37784603" fill="rgb(100%,0%,0%)" r="0.7" /><circle cx="365.275083039" cy="252.882882673" fill="rgb(100%,0%,0%)" r="0.7" /><circle cx="362.755387886" cy="254.51031418" fill="rgb(100%,0%,0%)" r="0.7" /><circle cx="360.375800288" cy="256.334747362" fill="rgb(100%,0%,0%)" r="0.7" /><circle cx="358.387620829" cy="258.564495941" fill="rgb(100%,0%,0%)" r="0.7" /><circle cx="357.460880492" cy="261.407749365" fill="rgb(100%,0%,0%)" r="0.7" /><circle cx="357.108425161" cy="264.382371983" fill="rgb(100%,0%,0%)" r="0.7" /><circle cx="357.396827671" cy="267.361135492" fill="rgb(100%,0%,0%)" r="0.7" /><circle cx="358.503820416" cy="270.130559393" fill="rgb(100%,0%,0%)" r="0.7" /><circle cx="360.070658325" cy="272.68785946" fill="rgb(100%,0%,0%)" r="0.7" /><circle cx="361.443114532" cy="275.354818315" fill="rgb(100%,0%,0%)" r="0.7" /><circle cx="362.620460021" cy="278.113391435" fill="rgb(100%,0%,0%)" r="0.7" /><circle cx="363.578229528" cy="280.955487471" fill="rgb(100%,0%,0%)" r="0.7" /><circle cx="364.279050372" cy="283.871303718" fill="rgb(100%,0%,0%)" r="0.7" /><circle cx="364.674591628" cy="286.843537839" fill="rgb(100%,0%,0%)" r="0.7" /><circle cx="364.708915029" cy="289.841226687" fill="rgb(100%,0%,0%)" r="0.7" /><circle cx="364.327315947" cy="292.814104194" fill="rgb(100%,0%,0%)" r="0.7" /><circle cx="363.498178369" cy="295.694282647" fill="rgb(100%,0%,0%)" r="0.7" /><circle cx="362.512403835" cy="298.527710072" fill="rgb(100%,0%,0%)" r="0.7" /><circle cx="361.535734523" cy="301.364274506" fill="rgb(100%,0%,0%)" r="0.7" /><circle cx="360.567109973" cy="304.20360096" fill="rgb(100%,0%,0%)" r="0.7" /><circle cx="359.606524782" cy="307.045658724" fill="rgb(100%,0%,0%)" r="0.7" /><circle cx="358.654369117" cy="309.890547927" fill="rgb(100%,0%,0%)" r="0.7" /><circle cx="357.711317816" cy="312.738473459" fill="rgb(100%,0%,0%)" r="0.7" /><circle cx="356.778343353" cy="315.589711282" fill="rgb(100%,0%,0%)" r="0.7" /><circle cx="355.856766065" cy="318.444651562" fill="rgb(100%,0%,0%)" r="0.7" /><circle cx="354.948377105" cy="321.303816628" fill="rgb(100%,0%,0%)" r="0.7" /><circle cx="354.05564801" cy="324.16790792" fill="rgb(100%,0%,0%)" r="0.7" /><circle cx="353.182097308" cy="327.037902653" fill="rgb(100%,0%,0%)" r="0.7" /><circle cx="352.33298838" cy="329.915213663" fill="rgb(100%,0%,0%)" r="0.7" /><circle cx="351.516783119" cy="332.802026392" fill="rgb(100%,0%,0%)" r="0.7" /><circle cx="350.748711048" cy="335.701981732" fill="rgb(100%,0%,0%)" r="0.7" /><circle cx="350.061948819" cy="338.622151004" fill="rgb(100%,0%,0%)" r="0.7" /><circle cx="349.567694575" cy="341.579562386" fill="rgb(100%,0%,0%)" r="0.7" /><circle cx="349.043188967" cy="344.529404159" fill="rgb(100%,0%,0%)" r="0.7" /><circle cx="348.124813623" cy="347.38355999" fill="rgb(100%,0%,0%)" r="0.7" /><circle cx="346.90887863" cy="350.125085078" fill="rgb(100%,0%,0%)" r="0.7" /><circle cx="345.727898688" cy="352.882768202" fill="rgb(100%,0%,0%)" r="0.7" /><circle cx="344.617827984" cy="355.669734864" fill="rgb(100%,0%,0%)" r="0.7" /><circle cx="343.598501092" cy="358.491055696" fill="rgb(100%,0%,0%)" r="0.7" /><circle cx="342.673217282" cy="361.34468455" fill="rgb(100%,0%,0%)" r="0.7" /><circle cx="341.839977696" cy="364.226462381" fill="rgb(100%,0%,0%)" r="0.7" /><circle cx="341.171131377" cy="367.15000584" fill="rgb(100%,0%,0%)" r="0.7" /><circle cx="340.64381806" cy="370.100391006" fill="rgb(100%,0%,0%)" r="0.7" /><circle cx="339.861810341" cy="372.996172837" fill="rgb(100%,0%,0%)" r="0.7" /><circle cx="338.903118206" cy="375.838356728" fill="rgb(100%,0%,0%)" r="0.7" /><circle cx="337.761009331" cy="378.611804657" fill="rgb(100%,0%,0%)" r="0.7" /><circle cx="336.415654149" cy="381.292317593" fill="rgb(100%,0%,0%)" r="0.7" /><circle cx="334.838869653" cy="383.843137572" fill="rgb(100%,0%,0%)" r="0.7" /><circle cx="333.600429353" cy="386.57303963" fill="rgb(100%,0%,0%)" r="0.7" /><circle cx="332.381664253" cy="389.314340937" fill="rgb(100%,0%,0%)" r="0.7" /><circle cx="331.160877446" cy="392.054723158" fill="rgb(100%,0%,0%)" r="0.7" /><circle cx="329.938170022" cy="394.79423217" fill="rgb(100%,0%,0%)" r="0.7" /><circle cx="328.713522604" cy="397.532897351" fill="rgb(100%,0%,0%)" r="0.7" /><circle cx="327.486885876" cy="400.270660365" fill="rgb(100%,0%,0%)" r="0.7" /><circle cx="326.258147653" cy="403.007486274" fill="rgb(100%,0%,0%)" r="0.7" /><circle cx="325.02716286" cy="405.743303501" fill="rgb(100%,0%,0%)" r="0.7" /><circle cx="323.793741402" cy="408.478022265" fill="rgb(100%,0%,0%)" r="0.7" /><circle cx="322.557640835" cy="411.211529682" fill="rgb(100%,0%,0%)" r="0.7" /><circle cx="321.318552915" cy="413.943684455" fill="rgb(100%,0%,0%)" r="0.7" /><circle cx="320.076084644" cy="416.67430452" fill="rgb(100%,0%,0%)" r="0.7" /><circle cx="318.829729149" cy="419.403147693" fill="rgb(100%,0%,0%)" r="0.7" /><circle cx="317.57880614" cy="422.129910075" fill="rgb(100%,0%,0%)" r="0.7" /><circle cx="316.322402668" cy="424.854137109" fill="rgb(100%,0%,0%)" r="0.7" /><circle cx="315.059194007" cy="427.57522903" fill="rgb(100%,0%,0%)" r="0.7" /><circle cx="313.787205603" cy="430.292221429" fill="rgb(100%,0%,0%)" r="0.7" /><circle cx="312.503189996" cy="433.003548204" fill="rgb(100%,0%,0%)" r="0.7" /><circle cx="311.201107999" cy="435.706246547" fill="rgb(100%,0%,0%)" r="0.7" /><circle cx="309.866847151" cy="438.393170947" fill="rgb(100%,0%,0%)" r="0.7" /><circle cx="310.309923857" cy="439.260820564" fill="rgb(100%,0%,0%)" r="0.7" /><circle cx="312.997894834" cy="437.928599851" fill="rgb(100%,0%,0%)" r="0.7" /><circle cx="315.68586581" cy="436.596379138" fill="rgb(100%,0%,0%)" r="0.7" /><circle cx="318.373836787" cy="435.264158425" fill="rgb(100%,0%,0%)" r="0.7" /><circle cx="321.061807763" cy="433.931937711" fill="rgb(100%,0%,0%)" r="0.7" /><circle cx="322.897786811" cy="436.263476054" fill="rgb(100%,0%,0%)" r="0.7" /><circle cx="324.722137629" cy="438.645018431" fill="rgb(100%,0%,0%)" r="0.7" /><circle cx="326.546488447" cy="441.026560808" fill="rgb(100%,0%,0%)" r="0.7" /><circle cx="328.370839265" cy="443.408103185" fill="rgb(100%,0%,0%)" r="0.7" /><circle cx="330.195190083" cy="445.789645562" fill="rgb(100%,0%,0%)" r="0.7" /><circle cx="332.019540901" cy="448.171187939" fill="rgb(100%,0%,0%)" r="0.7" /><circle cx="333.843891719" cy="450.552730316" fill="rgb(100%,0%,0%)" r="0.7" /><circle cx="334.532" cy="451.451" fill="rgb(100%,0%,0%)" r="0.7" /><circle cx="381.564741156" cy="245.451138233" fill="rgb(0%,0%,100%)" r="0.7" /><circle cx="384.516751525" cy="245.833194821" fill="rgb(0%,0%,100%)" r="0.7" /><circle cx="386.981042456" cy="247.495956696" fill="rgb(0%,0%,100%)" r="0.7" /><circle cx="388.560671543" cy="250.025899509" fill="rgb(0%,0%,100%)" r="0.7" /><circle cx="389.108700395" cy="252.961711032" fill="rgb(0%,0%,100%)" r="0.7" /><circle cx="389.17410691" cy="255.960205259" fill="rgb(0%,0%,100%)" r="0.7" /><circle cx="389.072036766" cy="258.958278138" fill="rgb(0%,0%,100%)" r="0.7" /><circle cx="388.876834187" cy="261.951850275" fill="rgb(0%,0%,100%)" r="0.7" /><circle cx="388.619791712" cy="264.94078051" fill="rgb(0%,0%,100%)" r="0.7" /><circle cx="388.317439658" cy="267.92548593" fill="rgb(0%,0%,100%)" r="0.7" /><circle cx="387.979651471" cy="270.906394545" fill="rgb(0%,0%,100%)" r="0.7" /><circle cx="387.612746981" cy="273.883865297" fill="rgb(0%,0%,100%)" r="0.7" /><circle cx="387.220874544" cy="276.858159361" fill="rgb(0%,0%,100%)" r="0.7" /><circle cx="386.806618008" cy="279.829416548" fill="rgb(0%,0%,100%)" r="0.7" /><circle cx="386.370999474" cy="282.797616801" fill="rgb(0%,0%,100%)" r="0.7" /><circle cx="385.905485766" cy="285.761155056" fill="rgb(0%,0%,100%)" r="0.7" /><circle cx="385.293823715" cy="288.6981031" fill="rgb(0%,0%,100%)" r="0.7" /><circle cx="384.676189282" cy="291.633824044" fill="rgb(0%,0%,100%)" r="0.7" /><circle cx="384.052490425" cy="294.568287317" fill="rgb(0%,0%,100%)" r="0.7" /><circle cx="383.422641594" cy="297.501417969" fill="rgb(0%,0%,100%)" r="0.7" /><circle cx="382.78654301" cy="300.433193226" fill="rgb(0%,0%,100%)" r="0.7" /><circle cx="382.144082394" cy="303.363631202" fill="rgb(0%,0%,100%)" r="0.7" /><circle cx="381.495171007" cy="306.292626094" fill="rgb(0%,0%,100%)" r="0.7" /><circle cx="380.839711209" cy="309.220097858" fill="rgb(0%,0%,100%)" r="0.7" /><circle cx="380.177558614" cy="312.146156374" fill="rgb(0%,0%,100%)" r="0.7" /><circle cx="379.508640802" cy="315.070574164" fill="rgb(0%,0%,100%)" r="0.7" /><circle cx="378.832795925" cy="317.99349745" fill="rgb(0%,0%,100%)" r="0.7" /><circle cx="378.149929513" cy="320.914757939" fill="rgb(0%,0%,100%)" r="0.7" /><circle cx="377.459910807" cy="323.834324685" fill="rgb(0%,0%,100%)" r="0.7" /><circle cx="376.762605473" cy="326.752159343" fill="rgb(0%,0%,100%)" r="0.7" /><circle cx="376.057878839" cy="329.66820183" fill="rgb(0%,0%,100%)" r="0.7" /><circle cx="375.345596293" cy="332.582368452" fill="rgb(0%,0%,100%)" r="0.7" /><circle cx="374.625577552" cy="335.494735592" fill="rgb(0%,0%,100%)" r="0.7" /><circle cx="373.897717416" cy="338.405048818" fill="rgb(0%,0%,100%)" r="0.7" /><circle cx="373.161809429" cy="341.313432808" fill="rgb(0%,0%,100%)" r="0.7" /><circle cx="372.417719173" cy="344.21969472" fill="rgb(0%,0%,100%)" r="0.7" /><circle cx="371.665265478" cy="347.123796159" fill="rgb(0%,0%,100%)" r="0.7" /><circle cx="370.904267333" cy="350.025664123" fill="rgb(0%,0%,100%)" r="0.7" /><circle cx="370.134544724" cy="352.925187344" fill="rgb(0%,0%,100%)" r="0.7" /><circle cx="369.355863137" cy="355.822421124" fill="rgb(0%,0%,100%)" r="0.7" /><circle cx="368.568062108" cy="358.717104648" fill="rgb(0%,0%,100%)" r="0.7" /><circle cx="367.770902747" cy="361.609226982" fill="rgb(0%,0%,100%)" r="0.7" /><circle cx="366.964146688" cy="364.498727013" fill="rgb(0%,0%,100%)" r="0.7" /><circle cx="366.147557639" cy="367.385487064" fill="rgb(0%,0%,100%)" r="0.7" /><circle cx="365.320903229" cy="370.269325735" fill="rgb(0%,0%,100%)" r="0.7" /><circle cx="364.48389071" cy="373.1502172" fill="rgb(0%,0%,100%)" r="0.7" /><circle cx="363.636255356" cy="376.027977392" fill="rgb(0%,0%,100%)" r="0.7" /><circle cx="362.777694987" cy="378.90248633" fill="rgb(0%,0%,100%)" r="0.7" /><circle cx="361.907889606" cy="381.773612729" fill="rgb(0%,0%,100%)" r="0.7" /><circle cx="361.026507644" cy="384.641186998" fill="rgb(0%,0%,100%)" r="0.7" /><circle cx="360.133174509" cy="387.505095503" fill="rgb(0%,0%,100%)" r="0.7" /><circle cx="359.227505045" cy="390.365164962" fill="rgb(0%,0%,100%)" r="0.7" /><circle cx="358.30911687" cy="393.221114436" fill="rgb(0%,0%,100%)" r="0.7" /><circle cx="357.377542001" cy="396.072819341" fill="rgb(0%,0%,100%)" r="0.7" /><circle cx="356.432324896" cy="398.919991569" fill="rgb(0%,0%,100%)" r="0.7" /><circle cx="355.472929295" cy="401.762448881" fill="rgb(0%,0%,100%)" r="0.7" /><circle cx="354.498800598" cy="404.599905794" fill="rgb(0%,0%,100%)" r="0.7" /><circle cx="353.509340565" cy="407.432029734" fill="rgb(0%,0%,100%)" r="0.7" /><circle cx="352.503875419" cy="410.258505295" fill="rgb(0%,0%,100%)" r="0.7" /><circle cx="351.481671926" cy="413.078953872" fill="rgb(0%,0%,100%)" r="0.7" /><circle cx="350.441891945" cy="415.893018408" fill="rgb(0%,0%,100%)" r="0.7" /><circle cx="349.383639872" cy="418.700183163" fill="rgb(0%,0%,100%)" r="0.7" /><circle cx="348.305906201" cy="421.499867067" fill="rgb(0%,0%,100%)" r="0.7" /><circle cx="347.207476345" cy="424.291573351" fill="rgb(0%,0%,100%)" r="0.7" /><circle cx="346.087056474" cy="427.074456563" fill="rgb(0%,0%,100%)" r="0.7" /><circle cx="344.94304462" cy="429.847755651" fill="rgb(0%,0%,100%)" r="0.7" /><circle cx="343.773588371" cy="432.610433423" fill="rgb(0%,0%,100%)" r="0.7" /><circle cx="342.576444019" cy="435.36121616" fill="rgb(0%,0%,100%)" r="0.7" /><circle cx="341.348807479" cy="438.098517632" fill="rgb(0%,0%,100%)" r="0.7" /><circle cx="340.087066408" cy="440.820227197" fill="rgb(0%,0%,100%)" r="0.7" /><circle cx="338.786259658" cy="443.523492329" fill="rgb(0%,0%,100%)" r="0.7" /><circle cx="337.439043273" cy="446.203968245" fill="rgb(0%,0%,100%)" r="0.7" /><circle cx="336.03278585" cy="448.853842095" fill="rgb(0%,0%,100%)" r="0.7" /><circle cx="334.532" cy="451.451" fill="rgb(0%,0%,100%)" r="0.7" /></svg>