<?xml version="1.0" encoding="utf-8" ?>
<svg baseProfile="full" height="100%" version="1.1" width="100%" xmlns="http://www.w3.org/2000/svg" xmlns:ev="http://www.w3.org/2001/xml-events" xmlns:xlink="http://www.w3.org/1999/xlink"><defs /><circle cx="268.375781738" cy="209.70464253" fill="rgb(100%,0%,0%)" r="0.7" /><circle cx="265.38200764" cy="209.886098357" fill="rgb(100%,0%,0%)" r="0.7" /><circle cx="262.410589339" cy="210.294043977" fill="rgb(100%,0%,0%)" r="0.7" /><circle cx="259.477796916" cy="210.922250428" fill="rgb(100%,0%,0%)" r="0.7" /><circle cx="256.599495059" cy="211.765603154" fill="rgb(100%,0%,0%)" r="0.7" /><circle cx="253.79332346" cy="212.824298795" fill="rgb(100%,0%,0%)" r="0.7" /><circle cx="251.089155196" cy="214.120435111" fill="rgb(100%,0%,0%)" r="0.7" /><circle cx="248.62772914" cy="215.802195768" fill="rgb(100%,0%,0%)" r="0.7" /><circle cx="246.767452573" cy="218.149526457" fill="rgb(100%,0%,0%)" r="0.7" /><circle cx="245.256811314" cy="220.739959151" fill="rgb(100%,0%,0%)" r="0.7" /><circle cx="243.956479642" cy="223.442965722" fill="rgb(100%,0%,0%)" r="0.7" /><circle cx="242.798824601" cy="226.210349089" fill="rgb(100%,0%,0%)" r="0.7" /><circle cx="241.746296653" cy="229.019511233" fill="rgb(100%,0%,0%)" r="0.7" /><circle cx="240.775946616" cy="231.858159936" fill="rgb(100%,0%,0%)" r="0.7" /><circle cx="239.872847268" cy="234.718942766" fill="rgb(100%,0%,0%)" r="0.7" /><circle cx="239.026993633" cy="237.597181858" fill="rgb(100%,0%,0%)" r="0.7" /><circle cx="238.231800221" cy="240.48984668" fill="rgb(100%,0%,0%)" r="0.7" /><circle cx="237.483659941" cy="243.395032279" fill="rgb(100%,0%,0%)" r="0.7" /><circle cx="236.783276221" cy="246.312082455" fill="rgb(100%,0%,0%)" r="0.7" /><circle cx="236.191607028" cy="249.252232564" fill="rgb(100%,0%,0%)" r="0.7" /><circle cx="235.864315608" cy="252.23355919" fill="rgb(100%,0%,0%)" r="0.7" /><circle cx="235.717424662" cy="255.229672053" fill="rgb(100%,0%,0%)" r="0.7" /><circle cx="235.692411864" cy="258.229461244" fill="rgb(100%,0%,0%)" r="0.7" /><circle cx="235.756398577" cy="261.228680564" fill="rgb(100%,0%,0%)" r="0.7" /><circle cx="235.888893799" cy="264.225735417" fill="rgb(100%,0%,0%)" r="0.7" /><circle cx="236.076156471" cy="267.219832809" fill="rgb(100%,0%,0%)" r="0.7" /><circle cx="236.308475788" cy="270.210803331" fill="rgb(100%,0%,0%)" r="0.7" /><circle cx="236.578691584" cy="273.198582349" fill="rgb(100%,0%,0%)" r="0.7" /><circle cx="236.881361186" cy="276.183289764" fill="rgb(100%,0%,0%)" r="0.7" /><circle cx="237.212219234" cy="279.164952798" fill="rgb(100%,0%,0%)" r="0.7" /><circle cx="237.567878892" cy="282.143807593" fill="rgb(100%,0%,0%)" r="0.7" /><circle cx="237.945567296" cy="285.119906094" fill="rgb(100%,0%,0%)" r="0.7" /><circle cx="238.343014172" cy="288.09346836" fill="rgb(100%,0%,0%)" r="0.7" /><circle cx="238.75830515" cy="291.064576924" fill="rgb(100%,0%,0%)" r="0.7" /><circle cx="239.189828997" cy="294.03338152" fill="rgb(100%,0%,0%)" r="0.7" /><circle cx="239.636203753" cy="296.999987179" fill="rgb(100%,0%,0%)" r="0.7" /><circle cx="240.096242114" cy="299.96452318" fill="rgb(100%,0%,0%)" r="0.7" /><circle cx="240.568902992" cy="302.927050948" fill="rgb(100%,0%,0%)" r="0.7" /><circle cx="241.053284381" cy="305.887690053" fill="rgb(100%,0%,0%)" r="0.7" /><circle cx="241.548584729" cy="308.846507243" fill="rgb(100%,0%,0%)" r="0.7" /><circle cx="242.054100244" cy="311.803603781" fill="rgb(100%,0%,0%)" r="0.7" /><circle cx="242.569202471" cy="314.759061712" fill="rgb(100%,0%,0%)" r="0.7" /><circle cx="243.093321999" cy="317.712916503" fill="rgb(100%,0%,0%)" r="0.7" /><circle cx="243.62595759" cy="320.665261092" fill="rgb(100%,0%,0%)" r="0.7" /><circle cx="244.166648102" cy="323.61613004" fill="rgb(100%,0%,0%)" r="0.7" /><circle cx="244.714983679" cy="326.56559727" fill="rgb(100%,0%,0%)" r="0.7" /><circle cx="245.270586259" cy="329.513698395" fill="rgb(100%,0%,0%)" r="0.7" /><circle cx="245.833115603" cy="332.460487878" fill="rgb(100%,0%,0%)" r="0.7" /><circle cx="246.402259194" cy="335.406005376" fill="rgb(100%,0%,0%)" r="0.7" /><circle cx="246.977732949" cy="338.350296678" fill="rgb(100%,0%,0%)" r="0.7" /><circle cx="247.559274427" cy="341.293393107" fill="rgb(100%,0%,0%)" r="0.7" /><circle cx="248.146643782" cy="344.235328861" fill="rgb(100%,0%,0%)" r="0.7" /><circle cx="248.739623102" cy="347.176147688" fill="rgb(100%,0%,0%)" r="0.7" /><circle cx="249.338006082" cy="350.11586052" fill="rgb(100%,0%,0%)" r="0.7" /><circle cx="249.941610376" cy="353.054514197" fill="rgb(100%,0%,0%)" r="0.7" /><circle cx="250.550263817" cy="355.992129886" fill="rgb(100%,0%,0%)" r="0.7" /><circle cx="251.163806603" cy="358.928719869" fill="rgb(100%,0%,0%)" r="0.7" /><circle cx="251.782096093" cy="361.864314987" fill="rgb(100%,0%,0%)" r="0.7" /><circle cx="252.405000948" cy="364.798940061" fill="rgb(100%,0%,0%)" r="0.7" /><circle cx="253.032398188" cy="367.732603323" fill="rgb(100%,0%,0%)" r="0.7" /><circle cx="253.664175679" cy="370.665310735" fill="rgb(100%,0%,0%)" r="0.7" /><circle cx="254.300242195" cy="373.597113761" fill="rgb(100%,0%,0%)" r="0.7" /><circle cx="254.940503996" cy="376.528001756" fill="rgb(100%,0%,0%)" r="0.7" /><circle cx="255.58487634" cy="379.457956191" fill="rgb(100%,0%,0%)" r="0.7" /><circle cx="256.233312465" cy="382.387080435" fill="rgb(100%,0%,0%)" r="0.7" /><circle cx="256.885733839" cy="385.315281711" fill="rgb(100%,0%,0%)" r="0.7" /><circle cx="257.542098509" cy="388.242577689" fill="rgb(100%,0%,0%)" r="0.7" /><circle cx="258.202387521" cy="391.169027613" fill="rgb(100%,0%,0%)" r="0.7" /><circle cx="258.866571881" cy="394.094577917" fill="rgb(100%,0%,0%)" r="0.7" /><circle cx="259.534660214" cy="397.019261721" fill="rgb(100%,0%,0%)" r="0.7" /><circle cx="260.206664903" cy="399.943031371" fill="rgb(100%,0%,0%)" r="0.7" /><circle cx="260.882633329" cy="402.865867807" fill="rgb(100%,0%,0%)" r="0.7" /><circle cx="261.56266327" cy="405.787800634" fill="rgb(100%,0%,0%)" r="0.7" /><circle cx="262.246864601" cy="408.70866545" fill="rgb(100%,0%,0%)" r="0.7" /><circle cx="262.935518606" cy="411.628633431" fill="rgb(100%,0%,0%)" r="0.7" /><circle cx="263.628966225" cy="414.547392115" fill="rgb(100%,0%,0%)" r="0.7" /><circle cx="264.328000902" cy="417.464765749" fill="rgb(100%,0%,0%)" r="0.7" /><circle cx="265.056015539" cy="420.374763908" fill="rgb(100%,0%,0%)" r="0.7" /><circle cx="265.818150856" cy="423.276282934" fill="rgb(100%,0%,0%)" r="0.7" /><circle cx="266.510072003" cy="426.195311152" fill="rgb(100%,0%,0%)" r="0.7" /><circle cx="267.116250969" cy="429.133294335" fill="rgb(100%,0%,0%)" r="0.7" /><circle cx="267.612494358" cy="432.091733738" fill="rgb(100%,0%,0%)" r="0.7" /><circle cx="267.954634722" cy="435.071654503" fill="rgb(100%,0%,0%)" r="0.7" /><circle cx="268.011" cy="438.068" fill="rgb(100%,0%,0%)" r="0.7" /><circle cx="268.375781738" cy="209.70464253" fill="rgb(0%,0%,100%)" r="0.7" /><circle cx="271.374601224" cy="209.754848236" fill="rgb(0%,0%,100%)" r="0.7" /><circle cx="274.360306052" cy="210.039346781" fill="rgb(0%,0%,100%)" r="0.7" /><circle cx="277.319889694" cy="210.522882835" fill="rgb(0%,0%,100%)" r="0.7" /><circle cx="280.287870855" cy="210.957059253" fill="rgb(0%,0%,100%)" r="0.7" /><circle cx="283.22965584" cy="211.543756375" fill="rgb(0%,0%,100%)" r="0.7" /><circle cx="286.139505429" cy="212.272393101" fill="rgb(0%,0%,100%)" r="0.7" /><circle cx="289.007644914" cy="213.150776744" fill="rgb(0%,0%,100%)" r="0.7" /><circle cx="291.819674221" cy="214.194608705" fill="rgb(0%,0%,100%)" r="0.7" /><circle cx="294.554545689" cy="215.426050726" fill="rgb(0%,0%,100%)" r="0.7" /><circle cx="297.181226956" cy="216.873361006" fill="rgb(0%,0%,100%)" r="0.7" /><circle cx="299.653847763" cy="218.569662245" fill="rgb(0%,0%,100%)" r="0.7" /><circle cx="301.905836227" cy="220.548417294" fill="rgb(0%,0%,100%)" r="0.7" /><circle cx="303.84648671" cy="222.832036685" fill="rgb(0%,0%,100%)" r="0.7" /><circle cx="305.369158416" cy="225.41206806" fill="rgb(0%,0%,100%)" r="0.7" /><circle cx="306.381438229" cy="228.231220919" fill="rgb(0%,0%,100%)" r="0.7" /><circle cx="307.0683928" cy="231.148818324" fill="rgb(0%,0%,100%)" r="0.7" /><circle cx="307.473992897" cy="234.120690349" fill="rgb(0%,0%,100%)" r="0.7" /><circle cx="307.706970399" cy="237.111318216" fill="rgb(0%,0%,100%)" r="0.7" /><circle cx="307.808215839" cy="240.109409492" fill="rgb(0%,0%,100%)" r="0.7" /><circle cx="307.80157271" cy="243.109266384" fill="rgb(0%,0%,100%)" r="0.7" /><circle cx="307.703174981" cy="246.107549934" fill="rgb(0%,0%,100%)" r="0.7" /><circle cx="307.524845749" cy="249.102178782" fill="rgb(0%,0%,100%)" r="0.7" /><circle cx="307.275701207" cy="252.091748117" fill="rgb(0%,0%,100%)" r="0.7" /><circle cx="306.96301738" cy="255.075349433" fill="rgb(0%,0%,100%)" r="0.7" /><circle cx="306.592753822" cy="258.052377739" fill="rgb(0%,0%,100%)" r="0.7" /><circle cx="306.169896873" cy="261.022389555" fill="rgb(0%,0%,100%)" r="0.7" /><circle cx="305.698678396" cy="263.985117138" fill="rgb(0%,0%,100%)" r="0.7" /><circle cx="305.182740388" cy="266.940389794" fill="rgb(0%,0%,100%)" r="0.7" /><circle cx="304.625251297" cy="269.888110676" fill="rgb(0%,0%,100%)" r="0.7" /><circle cx="304.028990706" cy="272.828249871" fill="rgb(0%,0%,100%)" r="0.7" /><circle cx="303.396428258" cy="275.760771896" fill="rgb(0%,0%,100%)" r="0.7" /><circle cx="302.729752509" cy="278.685736306" fill="rgb(0%,0%,100%)" r="0.7" /><circle cx="302.030930196" cy="281.603200336" fill="rgb(0%,0%,100%)" r="0.7" /><circle cx="301.262689095" cy="284.502170863" fill="rgb(0%,0%,100%)" r="0.7" /><circle cx="300.454512978" cy="287.391110665" fill="rgb(0%,0%,100%)" r="0.7" /><circle cx="299.735453628" cy="290.303568699" fill="rgb(0%,0%,100%)" r="0.7" /><circle cx="299.093624189" cy="293.234019653" fill="rgb(0%,0%,100%)" r="0.7" /><circle cx="298.526158485" cy="296.179779435" fill="rgb(0%,0%,100%)" r="0.7" /><circle cx="298.033237751" cy="299.138928451" fill="rgb(0%,0%,100%)" r="0.7" /><circle cx="297.616715807" cy="302.109788714" fill="rgb(0%,0%,100%)" r="0.7" /><circle cx="297.279620547" cy="305.090696139" fill="rgb(0%,0%,100%)" r="0.7" /><circle cx="297.025946709" cy="308.079853522" fill="rgb(0%,0%,100%)" r="0.7" /><circle cx="296.860573296" cy="311.075172235" fill="rgb(0%,0%,100%)" r="0.7" /><circle cx="296.789233078" cy="314.07419438" fill="rgb(0%,0%,100%)" r="0.7" /><circle cx="296.81851646" cy="317.073901741" fill="rgb(0%,0%,100%)" r="0.7" /><circle cx="296.955877549" cy="320.070580766" fill="rgb(0%,0%,100%)" r="0.7" /><circle cx="297.209632122" cy="323.059625674" fill="rgb(0%,0%,100%)" r="0.7" /><circle cx="297.588923759" cy="326.03531055" fill="rgb(0%,0%,100%)" r="0.7" /><circle cx="298.103634022" cy="328.990539994" fill="rgb(0%,0%,100%)" r="0.7" /><circle cx="298.76420225" cy="331.91656983" fill="rgb(0%,0%,100%)" r="0.7" /><circle cx="299.581317244" cy="334.802737712" fill="rgb(0%,0%,100%)" r="0.7" /><circle cx="300.565439433" cy="337.636241148" fill="rgb(0%,0%,100%)" r="0.7" /><circle cx="301.726122026" cy="340.402033702" fill="rgb(0%,0%,100%)" r="0.7" /><circle cx="302.927659652" cy="343.149412285" fill="rgb(0%,0%,100%)" r="0.7" /><circle cx="303.956277166" cy="345.967393456" fill="rgb(0%,0%,100%)" r="0.7" /><circle cx="304.901643571" cy="348.814459169" fill="rgb(0%,0%,100%)" r="0.7" /><circle cx="305.784202373" cy="351.681650337" fill="rgb(0%,0%,100%)" r="0.7" /><circle cx="306.614542342" cy="354.564429332" fill="rgb(0%,0%,100%)" r="0.7" /><circle cx="307.399472709" cy="357.45988963" fill="rgb(0%,0%,100%)" r="0.7" /><circle cx="308.143878198" cy="360.366032198" fill="rgb(0%,0%,100%)" r="0.7" /><circle cx="308.851489407" cy="363.281389487" fill="rgb(0%,0%,100%)" r="0.7" /><circle cx="309.525254838" cy="366.204731232" fill="rgb(0%,0%,100%)" r="0.7" /><circle cx="310.167612367" cy="369.135136281" fill="rgb(0%,0%,100%)" r="0.7" /><circle cx="310.780603411" cy="372.07181419" fill="rgb(0%,0%,100%)" r="0.7" /><circle cx="311.365983179" cy="375.014139441" fill="rgb(0%,0%,100%)" r="0.7" /><circle cx="311.925270948" cy="377.961555485" fill="rgb(0%,0%,100%)" r="0.7" /><circle cx="312.459791781" cy="380.913521277" fill="rgb(0%,0%,100%)" r="0.7" /><circle cx="312.97074808" cy="383.869703659" fill="rgb(0%,0%,100%)" r="0.7" /><circle cx="313.459187887" cy="386.829645587" fill="rgb(0%,0%,100%)" r="0.7" /><circle cx="313.926081659" cy="389.793083449" fill="rgb(0%,0%,100%)" r="0.7" /><circle cx="314.372297999" cy="392.759706449" fill="rgb(0%,0%,100%)" r="0.7" /><circle cx="314.798635314" cy="395.729266614" fill="rgb(0%,0%,100%)" r="0.7" /><circle cx="315.205819202" cy="398.701487363" fill="rgb(0%,0%,100%)" r="0.7" /><circle cx="315.594530531" cy="401.676201421" fill="rgb(0%,0%,100%)" r="0.7" /><circle cx="315.965388753" cy="404.65317607" fill="rgb(0%,0%,100%)" r="0.7" /><circle cx="316.318977782" cy="407.632262316" fill="rgb(0%,0%,100%)" r="0.7" /><circle cx="316.655837563" cy="410.613289701" fill="rgb(0%,0%,100%)" r="0.7" /><circle cx="316.9764727" cy="413.596097357" fill="rgb(0%,0%,100%)" r="0.7" /><circle cx="317.281359133" cy="416.58056302" fill="rgb(0%,0%,100%)" r="0.7" /><circle cx="317.570942402" cy="419.566558247" fill="rgb(0%,0%,100%)" r="0.7" /><circle cx="317.845641708" cy="422.553958021" fill="rgb(0%,0%,100%)" r="0.7" /><circle cx="317.031581212" cy="423.660131588" fill="rgb(0%,0%,100%)" r="0.7" /><circle cx="314.58834272" cy="421.919273849" fill="rgb(0%,0%,100%)" r="0.7" /><circle cx="312.145104227" cy="420.178416109" fill="rgb(0%,0%,100%)" r="0.7" /><circle cx="309.701865735" cy="418.43755837" fill="rgb(0%,0%,100%)" r="0.7" /><circle cx="307.258627243" cy="416.69670063" fill="rgb(0%,0%,100%)" r="0.7" /><circle cx="304.81538875" cy="414.95584289" fill="rgb(0%,0%,100%)" r="0.7" /><circle cx="302.372150258" cy="413.214985151" fill="rgb(0%,0%,100%)" r="0.7" /><circle cx="299.928911766" cy="411.474127411" fill="rgb(0%,0%,100%)" r="0.7" /><circle cx="297.485673273" cy="409.733269672" fill="rgb(0%,0%,100%)" r="0.7" /><circle cx="295.042434781" cy="407.992411932" fill="rgb(0%,0%,100%)" r="0.7" /><circle cx="292.599196288" cy="406.251554192" fill="rgb(0%,0%,100%)" r="0.7" /><circle cx="290.155957796" cy="404.510696453" fill="rgb(0%,0%,100%)" r="0.7" /><circle cx="287.712719304" cy="402.769838713" fill="rgb(0%,0%,100%)" r="0.7" /><circle cx="285.269480811" cy="401.028980974" fill="rgb(0%,0%,100%)" r="0.7" /><circle cx="282.826242319" cy="399.288123234" fill="rgb(0%,0%,100%)" r="0.7" /><circle cx="280.383003827" cy="397.547265494" fill="rgb(0%,0%,100%)" r="0.7" /><circle cx="277.939765334" cy="395.806407755" fill="rgb(0%,0%,100%)" r="0.7" /><circle cx="276.428413277" cy="396.42512429" fill="rgb(0%,0%,100%)" r="0.7" /><circle cx="275.834034253" cy="399.365653762" fill="rgb(0%,0%,100%)" r="0.7" /><circle cx="275.239655229" cy="402.306183234" fill="rgb(0%,0%,100%)" r="0.7" /><circle cx="274.645276205" cy="405.246712706" fill="rgb(0%,0%,100%)" r="0.7" /><circle cx="274.050897181" cy="408.187242178" fill="rgb(0%,0%,100%)" r="0.7" /><circle cx="273.456518157" cy="411.12777165" fill="rgb(0%,0%,100%)" r="0.7" /><circle cx="272.862139133" cy="414.068301122" fill="rgb(0%,0%,100%)" r="0.7" /><circle cx="272.267760109" cy="417.008830594" fill="rgb(0%,0%,100%)" r="0.7" /><circle cx="271.673381085" cy="419.949360066" fill="rgb(0%,0%,100%)" r="0.7" /><circle cx="271.079002061" cy="422.889889538" fill="rgb(0%,0%,100%)" r="0.7" /><circle cx="270.484623037" cy="425.83041901" fill="rgb(0%,0%,100%)" r="0.7" /><circle cx="269.890244014" cy="428.770948482" fill="rgb(0%,0%,100%)" r="0.7" /><circle cx="269.29586499" cy="431.711477954" fill="rgb(0%,0%,100%)" r="0.7" /><circle cx="268.701485966" cy="434.652007426" fill="rgb(0%,0%,100%)" r="0.7" /><circle cx="268.107106942" cy="437.592536898" fill="rgb(0%,0%,100%)" r="0.7" /><circle cx="268.011" cy="438.068" fill="rgb(0%,0%,100%)" r="0.7" /></svg>