<?xml version="1.0" encoding="utf-8" ?>
<svg baseProfile="full" height="100%" version="1.1" width="100%" xmlns="http://www.w3.org/2000/svg" xmlns:ev="http://www.w3.org/2001/xml-events" xmlns:xlink="http://www.w3.org/1999/xlink"><defs /><circle cx="260.903616482" cy="305.962180791" fill="rgb(100%,0%,0%)" r="0.7" /><circle cx="257.977544403" cy="306.423153534" fill="rgb(100%,0%,0%)" r="0.7" /><circle cx="256.045906918" cy="308.60382564" fill="rgb(100%,0%,0%)" r="0.7" /><circle cx="255.582687198" cy="311.565382834" fill="rgb(100%,0%,0%)" r="0.7" /><circle cx="255.267694809" cy="314.54876472" fill="rgb(100%,0%,0%)" r="0.7" /><circle cx="254.990392922" cy="317.535909335" fill="rgb(100%,0%,0%)" r="0.7" /><circle cx="254.733178147" cy="320.524861247" fill="rgb(100%,0%,0%)" r="0.7" /><circle cx="254.489028246" cy="323.514909525" fill="rgb(100%,0%,0%)" r="0.7" /><circle cx="254.254294998" cy="326.505720065" fill="rgb(100%,0%,0%)" r="0.7" /><circle cx="254.026800443" cy="329.497082152" fill="rgb(100%,0%,0%)" r="0.7" /><circle cx="253.805122709" cy="332.488881409" fill="rgb(100%,0%,0%)" r="0.7" /><circle cx="253.588278277" cy="335.481034633" fill="rgb(100%,0%,0%)" r="0.7" /><circle cx="253.375557557" cy="338.473486072" fill="rgb(100%,0%,0%)" r="0.7" /><circle cx="253.166434831" cy="341.466187833" fill="rgb(100%,0%,0%)" r="0.7" /><circle cx="252.960513564" cy="344.459114718" fill="rgb(100%,0%,0%)" r="0.7" /><circle cx="252.757496273" cy="347.452237511" fill="rgb(100%,0%,0%)" r="0.7" /><circle cx="252.557165025" cy="350.445549618" fill="rgb(100%,0%,0%)" r="0.7" /><circle cx="252.359379248" cy="353.439022888" fill="rgb(100%,0%,0%)" r="0.7" /><circle cx="252.164085828" cy="356.432653069" fill="rgb(100%,0%,0%)" r="0.7" /><circle cx="251.971384907" cy="359.426462896" fill="rgb(100%,0%,0%)" r="0.7" /><circle cx="251.773684718" cy="362.419894446" fill="rgb(100%,0%,0%)" r="0.7" /><circle cx="251.516878286" cy="365.408859944" fill="rgb(100%,0%,0%)" r="0.7" /><circle cx="251.219503264" cy="368.394060965" fill="rgb(100%,0%,0%)" r="0.7" /><circle cx="250.879800065" cy="371.374734709" fill="rgb(100%,0%,0%)" r="0.7" /><circle cx="250.495836251" cy="374.350037127" fill="rgb(100%,0%,0%)" r="0.7" /><circle cx="250.065481013" cy="377.318971925" fill="rgb(100%,0%,0%)" r="0.7" /><circle cx="249.586355935" cy="380.280425771" fill="rgb(100%,0%,0%)" r="0.7" /><circle cx="249.055785654" cy="383.233089122" fill="rgb(100%,0%,0%)" r="0.7" /><circle cx="248.470714636" cy="386.175451008" fill="rgb(100%,0%,0%)" r="0.7" /><circle cx="247.827615967" cy="389.105648732" fill="rgb(100%,0%,0%)" r="0.7" /><circle cx="247.12230464" cy="392.021501456" fill="rgb(100%,0%,0%)" r="0.7" /><circle cx="246.349715611" cy="394.920227982" fill="rgb(100%,0%,0%)" r="0.7" /><circle cx="245.503458469" cy="397.798302924" fill="rgb(100%,0%,0%)" r="0.7" /><circle cx="244.57506227" cy="400.650911367" fill="rgb(100%,0%,0%)" r="0.7" /><circle cx="243.552295843" cy="403.471021901" fill="rgb(100%,0%,0%)" r="0.7" /><circle cx="242.414590065" cy="406.246615925" fill="rgb(100%,0%,0%)" r="0.7" /><circle cx="241.106" cy="408.945" fill="rgb(100%,0%,0%)" r="0.7" /><circle cx="242.880529855" cy="407.28587134" fill="rgb(100%,0%,0%)" r="0.7" /><circle cx="245.071907974" cy="405.237002886" fill="rgb(100%,0%,0%)" r="0.7" /><circle cx="247.263286092" cy="403.188134432" fill="rgb(100%,0%,0%)" r="0.7" /><circle cx="249.45466421" cy="401.139265978" fill="rgb(100%,0%,0%)" r="0.7" /><circle cx="250.966590603" cy="401.688635824" fill="rgb(100%,0%,0%)" r="0.7" /><circle cx="251.874450346" cy="404.547969783" fill="rgb(100%,0%,0%)" r="0.7" /><circle cx="252.78231009" cy="407.407303741" fill="rgb(100%,0%,0%)" r="0.7" /><circle cx="253.690169833" cy="410.2666377" fill="rgb(100%,0%,0%)" r="0.7" /><circle cx="254.598029577" cy="413.125971658" fill="rgb(100%,0%,0%)" r="0.7" /><circle cx="260.903616482" cy="305.962180791" fill="rgb(0%,0%,100%)" r="0.7" /><circle cx="263.604017241" cy="307.136431646" fill="rgb(0%,0%,100%)" r="0.7" /><circle cx="264.578135511" cy="309.907270005" fill="rgb(0%,0%,100%)" r="0.7" /><circle cx="264.851459116" cy="312.894415196" fill="rgb(0%,0%,100%)" r="0.7" /><circle cx="265.02485376" cy="315.889352526" fill="rgb(0%,0%,100%)" r="0.7" /><circle cx="265.154860669" cy="318.886520402" fill="rgb(0%,0%,100%)" r="0.7" /><circle cx="265.260713365" cy="321.884651053" fill="rgb(0%,0%,100%)" r="0.7" /><circle cx="265.351689154" cy="324.883268368" fill="rgb(0%,0%,100%)" r="0.7" /><circle cx="265.433101909" cy="327.882164339" fill="rgb(0%,0%,100%)" r="0.7" /><circle cx="265.508336024" cy="330.881215987" fill="rgb(0%,0%,100%)" r="0.7" /><circle cx="265.579713168" cy="333.880367567" fill="rgb(0%,0%,100%)" r="0.7" /><circle cx="265.648916166" cy="336.879569094" fill="rgb(0%,0%,100%)" r="0.7" /><circle cx="265.717220092" cy="339.878791085" fill="rgb(0%,0%,100%)" r="0.7" /><circle cx="265.785626777" cy="342.878012661" fill="rgb(0%,0%,100%)" r="0.7" /><circle cx="265.854948065" cy="345.877210313" fill="rgb(0%,0%,100%)" r="0.7" /><circle cx="265.921920505" cy="348.876397002" fill="rgb(0%,0%,100%)" r="0.7" /><circle cx="265.840346727" cy="351.875207785" fill="rgb(0%,0%,100%)" r="0.7" /><circle cx="265.700594203" cy="354.871919555" fill="rgb(0%,0%,100%)" r="0.7" /><circle cx="265.516512536" cy="357.866243203" fill="rgb(0%,0%,100%)" r="0.7" /><circle cx="265.292640559" cy="360.857858168" fill="rgb(0%,0%,100%)" r="0.7" /><circle cx="265.031181463" cy="363.846427892" fill="rgb(0%,0%,100%)" r="0.7" /><circle cx="264.733274564" cy="366.831577108" fill="rgb(0%,0%,100%)" r="0.7" /><circle cx="264.399448821" cy="369.812930144" fill="rgb(0%,0%,100%)" r="0.7" /><circle cx="264.029838388" cy="372.7900561" fill="rgb(0%,0%,100%)" r="0.7" /><circle cx="263.624290437" cy="375.762498025" fill="rgb(0%,0%,100%)" r="0.7" /><circle cx="263.182428869" cy="378.729765358" fill="rgb(0%,0%,100%)" r="0.7" /><circle cx="262.703697018" cy="381.691302317" fill="rgb(0%,0%,100%)" r="0.7" /><circle cx="262.187377332" cy="384.646513558" fill="rgb(0%,0%,100%)" r="0.7" /><circle cx="261.632607357" cy="387.594749208" fill="rgb(0%,0%,100%)" r="0.7" /><circle cx="261.038390635" cy="390.535288297" fill="rgb(0%,0%,100%)" r="0.7" /><circle cx="260.43705633" cy="393.474096131" fill="rgb(0%,0%,100%)" r="0.7" /><circle cx="259.863663484" cy="396.418768661" fill="rgb(0%,0%,100%)" r="0.7" /><circle cx="259.247389797" cy="399.354760839" fill="rgb(0%,0%,100%)" r="0.7" /><circle cx="258.582644016" cy="402.280143819" fill="rgb(0%,0%,100%)" r="0.7" /><circle cx="257.854833645" cy="405.190438356" fill="rgb(0%,0%,100%)" r="0.7" /><circle cx="257.033694663" cy="408.075658293" fill="rgb(0%,0%,100%)" r="0.7" /><circle cx="256.042987761" cy="410.906371241" fill="rgb(0%,0%,100%)" r="0.7" /><circle cx="254.598029577" cy="413.125971658" fill="rgb(0%,0%,100%)" r="0.7" /></svg>