<?xml version="1.0" encoding="utf-8" ?>
<svg baseProfile="full" height="100%" version="1.1" width="100%" xmlns="http://www.w3.org/2000/svg" xmlns:ev="http://www.w3.org/2001/xml-events" xmlns:xlink="http://www.w3.org/1999/xlink"><defs /><circle cx="344.223084203" cy="265.749223465" fill="rgb(100%,0%,0%)" r="0.7" /><circle cx="341.261434269" cy="266.177981922" fill="rgb(100%,0%,0%)" r="0.7" /><circle cx="338.484527793" cy="267.288551525" fill="rgb(100%,0%,0%)" r="0.7" /><circle cx="335.806141025" cy="268.639417832" fill="rgb(100%,0%,0%)" r="0.7" /><circle cx="333.079316098" cy="269.88988086" fill="rgb(100%,0%,0%)" r="0.7" /><circle cx="330.317754802" cy="271.061756107" fill="rgb(100%,0%,0%)" r="0.7" /><circle cx="327.528584073" cy="272.166352428" fill="rgb(100%,0%,0%)" r="0.7" /><circle cx="324.70698939" cy="273.16402402" fill="rgb(100%,0%,0%)" r="0.7" /><circle cx="321.792343589" cy="273.800550158" fill="rgb(100%,0%,0%)" r="0.7" /><circle cx="319.088461142" cy="275.094349374" fill="rgb(100%,0%,0%)" r="0.7" /><circle cx="316.53321389" cy="276.664803847" fill="rgb(100%,0%,0%)" r="0.7" /><circle cx="314.07905704" cy="278.389719266" fill="rgb(100%,0%,0%)" r="0.7" /><circle cx="311.698462519" cy="280.215048265" fill="rgb(100%,0%,0%)" r="0.7" /><circle cx="309.374411171" cy="282.11196557" fill="rgb(100%,0%,0%)" r="0.7" /><circle cx="307.095690316" cy="284.063146073" fill="rgb(100%,0%,0%)" r="0.7" /><circle cx="304.854484304" cy="286.057331835" fill="rgb(100%,0%,0%)" r="0.7" /><circle cx="302.645134897" cy="288.086772427" fill="rgb(100%,0%,0%)" r="0.7" /><circle cx="300.463424762" cy="290.145906782" fill="rgb(100%,0%,0%)" r="0.7" /><circle cx="298.306146231" cy="292.230627122" fill="rgb(100%,0%,0%)" r="0.7" /><circle cx="296.170833814" cy="294.33784462" fill="rgb(100%,0%,0%)" r="0.7" /><circle cx="294.055596533" cy="296.465228081" fill="rgb(100%,0%,0%)" r="0.7" /><circle cx="291.959047777" cy="298.611025048" fill="rgb(100%,0%,0%)" r="0.7" /><circle cx="289.880257051" cy="300.774011716" fill="rgb(100%,0%,0%)" r="0.7" /><circle cx="287.818789184" cy="302.953554538" fill="rgb(100%,0%,0%)" r="0.7" /><circle cx="285.775115672" cy="305.149763806" fill="rgb(100%,0%,0%)" r="0.7" /><circle cx="283.752234906" cy="307.365130274" fill="rgb(100%,0%,0%)" r="0.7" /><circle cx="281.765515617" cy="309.612943655" fill="rgb(100%,0%,0%)" r="0.7" /><circle cx="279.814104427" cy="311.891524164" fill="rgb(100%,0%,0%)" r="0.7" /><circle cx="277.898703151" cy="314.200418323" fill="rgb(100%,0%,0%)" r="0.7" /><circle cx="276.020449001" cy="316.539647646" fill="rgb(100%,0%,0%)" r="0.7" /><circle cx="274.180546327" cy="318.909155415" fill="rgb(100%,0%,0%)" r="0.7" /><circle cx="272.380215077" cy="321.30886697" fill="rgb(100%,0%,0%)" r="0.7" /><circle cx="270.620711466" cy="323.738662435" fill="rgb(100%,0%,0%)" r="0.7" /><circle cx="268.90331004" cy="326.198400223" fill="rgb(100%,0%,0%)" r="0.7" /><circle cx="267.229325175" cy="328.687887101" fill="rgb(100%,0%,0%)" r="0.7" /><circle cx="265.600105178" cy="331.206885143" fill="rgb(100%,0%,0%)" r="0.7" /><circle cx="264.01701703" cy="333.755137033" fill="rgb(100%,0%,0%)" r="0.7" /><circle cx="262.481476589" cy="336.332321505" fill="rgb(100%,0%,0%)" r="0.7" /><circle cx="260.994937863" cy="338.938071794" fill="rgb(100%,0%,0%)" r="0.7" /><circle cx="259.558898346" cy="341.5719716" fill="rgb(100%,0%,0%)" r="0.7" /><circle cx="258.174881846" cy="344.233597199" fill="rgb(100%,0%,0%)" r="0.7" /><circle cx="256.84449839" cy="346.922416964" fill="rgb(100%,0%,0%)" r="0.7" /><circle cx="255.569398169" cy="349.63789488" fill="rgb(100%,0%,0%)" r="0.7" /><circle cx="254.351318311" cy="352.379422818" fill="rgb(100%,0%,0%)" r="0.7" /><circle cx="253.19208838" cy="355.146339639" fill="rgb(100%,0%,0%)" r="0.7" /><circle cx="252.093648518" cy="357.937940082" fill="rgb(100%,0%,0%)" r="0.7" /><circle cx="251.05808008" cy="360.753475262" fill="rgb(100%,0%,0%)" r="0.7" /><circle cx="250.087659658" cy="363.592118212" fill="rgb(100%,0%,0%)" r="0.7" /><circle cx="249.184909651" cy="366.452980996" fill="rgb(100%,0%,0%)" r="0.7" /><circle cx="248.352669783" cy="369.335164515" fill="rgb(100%,0%,0%)" r="0.7" /><circle cx="247.594267102" cy="372.237623967" fill="rgb(100%,0%,0%)" r="0.7" /><circle cx="246.913681698" cy="375.15930638" fill="rgb(100%,0%,0%)" r="0.7" /><circle cx="246.315929495" cy="378.099040958" fill="rgb(100%,0%,0%)" r="0.7" /><circle cx="245.807715923" cy="381.055562227" fill="rgb(100%,0%,0%)" r="0.7" /><circle cx="245.398886598" cy="384.027422544" fill="rgb(100%,0%,0%)" r="0.7" /><circle cx="245.106467831" cy="387.012900384" fill="rgb(100%,0%,0%)" r="0.7" /><circle cx="244.980556893" cy="390.009387155" fill="rgb(100%,0%,0%)" r="0.7" /><circle cx="245.298347241" cy="392.990345577" fill="rgb(100%,0%,0%)" r="0.7" /><circle cx="245.970139097" cy="395.912645283" fill="rgb(100%,0%,0%)" r="0.7" /><circle cx="246.926219608" cy="398.755181011" fill="rgb(100%,0%,0%)" r="0.7" /><circle cx="248.108895848" cy="401.511485383" fill="rgb(100%,0%,0%)" r="0.7" /><circle cx="249.473137732" cy="404.182825825" fill="rgb(100%,0%,0%)" r="0.7" /><circle cx="250.984512299" cy="406.773923923" fill="rgb(100%,0%,0%)" r="0.7" /><circle cx="252.616756799" cy="409.290745378" fill="rgb(100%,0%,0%)" r="0.7" /><circle cx="254.349691451" cy="411.73938816" fill="rgb(100%,0%,0%)" r="0.7" /><circle cx="256.167665836" cy="414.125634709" fill="rgb(100%,0%,0%)" r="0.7" /><circle cx="258.05836903" cy="416.454717134" fill="rgb(100%,0%,0%)" r="0.7" /><circle cx="260.012008075" cy="418.731294985" fill="rgb(100%,0%,0%)" r="0.7" /><circle cx="262.020700064" cy="420.959470118" fill="rgb(100%,0%,0%)" r="0.7" /><circle cx="264.078031704" cy="423.142830907" fill="rgb(100%,0%,0%)" r="0.7" /><circle cx="266.178738114" cy="425.284505252" fill="rgb(100%,0%,0%)" r="0.7" /><circle cx="268.318461657" cy="427.387207291" fill="rgb(100%,0%,0%)" r="0.7" /><circle cx="270.49357843" cy="429.453284659" fill="rgb(100%,0%,0%)" r="0.7" /><circle cx="272.701061326" cy="431.484748991" fill="rgb(100%,0%,0%)" r="0.7" /><circle cx="274.938385077" cy="433.483304359" fill="rgb(100%,0%,0%)" r="0.7" /><circle cx="277.203462794" cy="435.450367286" fill="rgb(100%,0%,0%)" r="0.7" /><circle cx="279.494567105" cy="437.387038441" fill="rgb(100%,0%,0%)" r="0.7" /><circle cx="281.81036097" cy="439.294126729" fill="rgb(100%,0%,0%)" r="0.7" /><circle cx="284.149855773" cy="441.172048361" fill="rgb(100%,0%,0%)" r="0.7" /><circle cx="286.512529548" cy="443.020743861" fill="rgb(100%,0%,0%)" r="0.7" /><circle cx="288.898451971" cy="444.839329061" fill="rgb(100%,0%,0%)" r="0.7" /><circle cx="291.308929278" cy="446.625272688" fill="rgb(100%,0%,0%)" r="0.7" /><circle cx="293.75" cy="448.369" fill="rgb(100%,0%,0%)" r="0.7" /><circle cx="344.223084203" cy="265.749223465" fill="rgb(0%,0%,100%)" r="0.7" /><circle cx="347.175178116" cy="266.191746214" fill="rgb(0%,0%,100%)" r="0.7" /><circle cx="349.738598403" cy="267.709498291" fill="rgb(0%,0%,100%)" r="0.7" /><circle cx="351.564621644" cy="270.072455076" fill="rgb(0%,0%,100%)" r="0.7" /><circle cx="352.833903587" cy="272.772047883" fill="rgb(0%,0%,100%)" r="0.7" /><circle cx="352.778707365" cy="275.748778354" fill="rgb(0%,0%,100%)" r="0.7" /><circle cx="351.815889505" cy="278.583793631" fill="rgb(0%,0%,100%)" r="0.7" /><circle cx="350.38790424" cy="281.219745797" fill="rgb(0%,0%,100%)" r="0.7" /><circle cx="348.68756111" cy="283.690200732" fill="rgb(0%,0%,100%)" r="0.7" /><circle cx="346.736848692" cy="285.968194282" fill="rgb(0%,0%,100%)" r="0.7" /><circle cx="344.7571536" cy="288.222267467" fill="rgb(0%,0%,100%)" r="0.7" /><circle cx="342.772782454" cy="290.472213447" fill="rgb(0%,0%,100%)" r="0.7" /><circle cx="340.783944876" cy="292.718217969" fill="rgb(0%,0%,100%)" r="0.7" /><circle cx="338.790594241" cy="294.96021704" fill="rgb(0%,0%,100%)" r="0.7" /><circle cx="336.792530429" cy="297.198021039" fill="rgb(0%,0%,100%)" r="0.7" /><circle cx="334.789444046" cy="299.43132229" fill="rgb(0%,0%,100%)" r="0.7" /><circle cx="332.780895327" cy="301.659715855" fill="rgb(0%,0%,100%)" r="0.7" /><circle cx="330.766315904" cy="303.882659013" fill="rgb(0%,0%,100%)" r="0.7" /><circle cx="328.744966183" cy="306.099445305" fill="rgb(0%,0%,100%)" r="0.7" /><circle cx="326.715876894" cy="308.309148866" fill="rgb(0%,0%,100%)" r="0.7" /><circle cx="324.677758674" cy="310.510529482" fill="rgb(0%,0%,100%)" r="0.7" /><circle cx="322.628853974" cy="312.70187073" fill="rgb(0%,0%,100%)" r="0.7" /><circle cx="320.566664664" cy="314.880705078" fill="rgb(0%,0%,100%)" r="0.7" /><circle cx="318.487428243" cy="317.04328676" fill="rgb(0%,0%,100%)" r="0.7" /><circle cx="316.385070422" cy="319.183371931" fill="rgb(0%,0%,100%)" r="0.7" /><circle cx="314.342504363" cy="321.380196014" fill="rgb(0%,0%,100%)" r="0.7" /><circle cx="312.329816738" cy="323.604815735" fill="rgb(0%,0%,100%)" r="0.7" /><circle cx="310.332554745" cy="325.843328631" fill="rgb(0%,0%,100%)" r="0.7" /><circle cx="308.34952137" cy="328.094462073" fill="rgb(0%,0%,100%)" r="0.7" /><circle cx="306.380382984" cy="330.357747721" fill="rgb(0%,0%,100%)" r="0.7" /><circle cx="304.425187102" cy="332.633112817" fill="rgb(0%,0%,100%)" r="0.7" /><circle cx="302.484289602" cy="334.920650618" fill="rgb(0%,0%,100%)" r="0.7" /><circle cx="300.558188889" cy="337.220687836" fill="rgb(0%,0%,100%)" r="0.7" /><circle cx="298.647620966" cy="339.533622998" fill="rgb(0%,0%,100%)" r="0.7" /><circle cx="296.753467689" cy="341.860025479" fill="rgb(0%,0%,100%)" r="0.7" /><circle cx="294.876818391" cy="344.20057856" fill="rgb(0%,0%,100%)" r="0.7" /><circle cx="293.018992284" cy="346.556089651" fill="rgb(0%,0%,100%)" r="0.7" /><circle cx="291.181551701" cy="348.92753521" fill="rgb(0%,0%,100%)" r="0.7" /><circle cx="289.366370189" cy="351.316062769" fill="rgb(0%,0%,100%)" r="0.7" /><circle cx="287.575704281" cy="353.72301993" fill="rgb(0%,0%,100%)" r="0.7" /><circle cx="285.812283946" cy="356.15000407" fill="rgb(0%,0%,100%)" r="0.7" /><circle cx="284.07945139" cy="358.598911474" fill="rgb(0%,0%,100%)" r="0.7" /><circle cx="282.381341894" cy="361.072023677" fill="rgb(0%,0%,100%)" r="0.7" /><circle cx="280.723176182" cy="363.572080417" fill="rgb(0%,0%,100%)" r="0.7" /><circle cx="279.111656412" cy="366.10242963" fill="rgb(0%,0%,100%)" r="0.7" /><circle cx="277.555579604" cy="368.667233683" fill="rgb(0%,0%,100%)" r="0.7" /><circle cx="276.066868732" cy="371.271678652" fill="rgb(0%,0%,100%)" r="0.7" /><circle cx="274.662233044" cy="373.922358287" fill="rgb(0%,0%,100%)" r="0.7" /><circle cx="273.366190975" cy="376.627671304" fill="rgb(0%,0%,100%)" r="0.7" /><circle cx="272.216803192" cy="379.398236883" fill="rgb(0%,0%,100%)" r="0.7" /><circle cx="271.277674787" cy="382.246400585" fill="rgb(0%,0%,100%)" r="0.7" /><circle cx="270.665302876" cy="385.180700422" fill="rgb(0%,0%,100%)" r="0.7" /><circle cx="270.613031651" cy="388.172611033" fill="rgb(0%,0%,100%)" r="0.7" /><circle cx="271.551703639" cy="390.996464796" fill="rgb(0%,0%,100%)" r="0.7" /><circle cx="273.064324711" cy="393.585828972" fill="rgb(0%,0%,100%)" r="0.7" /><circle cx="274.744591138" cy="396.070459913" fill="rgb(0%,0%,100%)" r="0.7" /><circle cx="276.586917196" cy="398.437397125" fill="rgb(0%,0%,100%)" r="0.7" /><circle cx="278.591883465" cy="400.668088607" fill="rgb(0%,0%,100%)" r="0.7" /><circle cx="280.766166716" cy="402.733811114" fill="rgb(0%,0%,100%)" r="0.7" /><circle cx="283.117224334" cy="404.595403277" fill="rgb(0%,0%,100%)" r="0.7" /><circle cx="285.648545294" cy="406.202592301" fill="rgb(0%,0%,100%)" r="0.7" /><circle cx="288.353392868" cy="407.495471325" fill="rgb(0%,0%,100%)" r="0.7" /><circle cx="291.088991377" cy="408.70905699" fill="rgb(0%,0%,100%)" r="0.7" /><circle cx="293.652927059" cy="410.265127884" fill="rgb(0%,0%,100%)" r="0.7" /><circle cx="296.060186698" cy="412.052837326" fill="rgb(0%,0%,100%)" r="0.7" /><circle cx="298.176857765" cy="414.17202901" fill="rgb(0%,0%,100%)" r="0.7" /><circle cx="300.233980817" cy="416.281305096" fill="rgb(0%,0%,100%)" r="0.7" /><circle cx="302.767795034" cy="417.886796231" fill="rgb(0%,0%,100%)" r="0.7" /><circle cx="305.389594469" cy="419.343913359" fill="rgb(0%,0%,100%)" r="0.7" /><circle cx="308.111899038" cy="420.602175018" fill="rgb(0%,0%,100%)" r="0.7" /><circle cx="309.53893401" cy="421.71423479" fill="rgb(0%,0%,100%)" r="0.7" /><circle cx="306.90855808" cy="423.156844393" fill="rgb(0%,0%,100%)" r="0.7" /><circle cx="304.27818215" cy="424.599453995" fill="rgb(0%,0%,100%)" r="0.7" /><circle cx="301.64780622" cy="426.042063598" fill="rgb(0%,0%,100%)" r="0.7" /><circle cx="299.01743029" cy="427.484673201" fill="rgb(0%,0%,100%)" r="0.7" /><circle cx="296.387054359" cy="428.927282804" fill="rgb(0%,0%,100%)" r="0.7" /><circle cx="293.756678429" cy="430.369892407" fill="rgb(0%,0%,100%)" r="0.7" /><circle cx="291.126302499" cy="431.812502009" fill="rgb(0%,0%,100%)" r="0.7" /><circle cx="291.423437024" cy="434.670902819" fill="rgb(0%,0%,100%)" r="0.7" /><circle cx="291.925779969" cy="437.628545726" fill="rgb(0%,0%,100%)" r="0.7" /><circle cx="292.428122914" cy="440.586188633" fill="rgb(0%,0%,100%)" r="0.7" /><circle cx="292.93046586" cy="443.54383154" fill="rgb(0%,0%,100%)" r="0.7" /><circle cx="293.432808805" cy="446.501474447" fill="rgb(0%,0%,100%)" r="0.7" /><circle cx="293.75" cy="448.369" fill="rgb(0%,0%,100%)" r="0.7" /></svg>