<?xml version="1.0" encoding="utf-8" ?>
<svg baseProfile="full" height="100%" version="1.1" width="100%" xmlns="http://www.w3.org/2000/svg" xmlns:ev="http://www.w3.org/2001/xml-events" xmlns:xlink="http://www.w3.org/1999/xlink"><defs /><circle cx="266.157102168" cy="246.653486945" fill="rgb(100%,0%,0%)" r="0.7" /><circle cx="263.430685449" cy="247.761986414" fill="rgb(100%,0%,0%)" r="0.7" /><circle cx="262.575282939" cy="250.524149037" fill="rgb(100%,0%,0%)" r="0.7" /><circle cx="263.491308869" cy="253.365583299" fill="rgb(100%,0%,0%)" r="0.7" /><circle cx="263.496986905" cy="256.342155078" fill="rgb(100%,0%,0%)" r="0.7" /><circle cx="262.812859083" cy="259.259620145" fill="rgb(100%,0%,0%)" r="0.7" /><circle cx="261.802297707" cy="262.079857853" fill="rgb(100%,0%,0%)" r="0.7" /><circle cx="261.764937256" cy="265.062301388" fill="rgb(100%,0%,0%)" r="0.7" /><circle cx="262.917054267" cy="267.805000662" fill="rgb(100%,0%,0%)" r="0.7" /><circle cx="265.126124926" cy="269.805032765" fill="rgb(100%,0%,0%)" r="0.7" /><circle cx="267.263293324" cy="271.907330289" fill="rgb(100%,0%,0%)" r="0.7" /><circle cx="269.299344242" cy="274.110415819" fill="rgb(100%,0%,0%)" r="0.7" /><circle cx="271.261832126" cy="276.379309749" fill="rgb(100%,0%,0%)" r="0.7" /><circle cx="273.155736412" cy="278.705799697" fill="rgb(100%,0%,0%)" r="0.7" /><circle cx="274.982560493" cy="281.085319203" fill="rgb(100%,0%,0%)" r="0.7" /><circle cx="276.742275078" cy="283.514902477" fill="rgb(100%,0%,0%)" r="0.7" /><circle cx="278.433926492" cy="285.992353417" fill="rgb(100%,0%,0%)" r="0.7" /><circle cx="280.055974505" cy="288.515929899" fill="rgb(100%,0%,0%)" r="0.7" /><circle cx="281.606420779" cy="291.084086223" fill="rgb(100%,0%,0%)" r="0.7" /><circle cx="283.082974675" cy="293.695450147" fill="rgb(100%,0%,0%)" r="0.7" /><circle cx="284.483040038" cy="296.348594726" fill="rgb(100%,0%,0%)" r="0.7" /><circle cx="285.803831087" cy="299.042071805" fill="rgb(100%,0%,0%)" r="0.7" /><circle cx="287.042402572" cy="301.774330255" fill="rgb(100%,0%,0%)" r="0.7" /><circle cx="288.19569479" cy="304.543670296" fill="rgb(100%,0%,0%)" r="0.7" /><circle cx="289.260569607" cy="307.348177103" fill="rgb(100%,0%,0%)" r="0.7" /><circle cx="290.233884656" cy="310.185750622" fill="rgb(100%,0%,0%)" r="0.7" /><circle cx="291.112530974" cy="313.054048919" fill="rgb(100%,0%,0%)" r="0.7" /><circle cx="291.893488291" cy="315.950465468" fill="rgb(100%,0%,0%)" r="0.7" /><circle cx="292.573892405" cy="318.872149393" fill="rgb(100%,0%,0%)" r="0.7" /><circle cx="293.15107939" cy="321.815928007" fill="rgb(100%,0%,0%)" r="0.7" /><circle cx="293.622679312" cy="324.778464879" fill="rgb(100%,0%,0%)" r="0.7" /><circle cx="293.986646747" cy="327.75615103" fill="rgb(100%,0%,0%)" r="0.7" /><circle cx="294.241324274" cy="330.745134163" fill="rgb(100%,0%,0%)" r="0.7" /><circle cx="294.385503517" cy="333.741495039" fill="rgb(100%,0%,0%)" r="0.7" /><circle cx="294.418448614" cy="336.741141237" fill="rgb(100%,0%,0%)" r="0.7" /><circle cx="294.339931099" cy="339.739961705" fill="rgb(100%,0%,0%)" r="0.7" /><circle cx="294.150247118" cy="342.733767352" fill="rgb(100%,0%,0%)" r="0.7" /><circle cx="293.85020859" cy="345.718554112" fill="rgb(100%,0%,0%)" r="0.7" /><circle cx="293.441134863" cy="348.690381187" fill="rgb(100%,0%,0%)" r="0.7" /><circle cx="292.924834406" cy="351.645435836" fill="rgb(100%,0%,0%)" r="0.7" /><circle cx="292.303538338" cy="354.580240319" fill="rgb(100%,0%,0%)" r="0.7" /><circle cx="291.57988509" cy="357.491492184" fill="rgb(100%,0%,0%)" r="0.7" /><circle cx="290.756834713" cy="360.376250104" fill="rgb(100%,0%,0%)" r="0.7" /><circle cx="289.837650579" cy="363.231799561" fill="rgb(100%,0%,0%)" r="0.7" /><circle cx="288.825780361" cy="366.055863295" fill="rgb(100%,0%,0%)" r="0.7" /><circle cx="287.724841499" cy="368.846446955" fill="rgb(100%,0%,0%)" r="0.7" /><circle cx="286.538591351" cy="371.601793916" fill="rgb(100%,0%,0%)" r="0.7" /><circle cx="285.270773143" cy="374.320616765" fill="rgb(100%,0%,0%)" r="0.7" /><circle cx="283.925184965" cy="377.001804921" fill="rgb(100%,0%,0%)" r="0.7" /><circle cx="282.505552067" cy="379.644599941" fill="rgb(100%,0%,0%)" r="0.7" /><circle cx="281.015629105" cy="382.248318735" fill="rgb(100%,0%,0%)" r="0.7" /><circle cx="279.458948603" cy="384.812736973" fill="rgb(100%,0%,0%)" r="0.7" /><circle cx="277.838995225" cy="387.337705761" fill="rgb(100%,0%,0%)" r="0.7" /><circle cx="276.15917237" cy="389.823183434" fill="rgb(100%,0%,0%)" r="0.7" /><circle cx="274.422623866" cy="392.269457752" fill="rgb(100%,0%,0%)" r="0.7" /><circle cx="272.632476225" cy="394.676756306" fill="rgb(100%,0%,0%)" r="0.7" /><circle cx="270.791664037" cy="397.045481604" fill="rgb(100%,0%,0%)" r="0.7" /><circle cx="268.902918453" cy="399.376191896" fill="rgb(100%,0%,0%)" r="0.7" /><circle cx="266.968845387" cy="401.669482611" fill="rgb(100%,0%,0%)" r="0.7" /><circle cx="265.424840138" cy="403.579411019" fill="rgb(100%,0%,0%)" r="0.7" /><circle cx="268.047261578" cy="402.122391531" fill="rgb(100%,0%,0%)" r="0.7" /><circle cx="270.669683018" cy="400.665372042" fill="rgb(100%,0%,0%)" r="0.7" /><circle cx="273.292104458" cy="399.208352553" fill="rgb(100%,0%,0%)" r="0.7" /><circle cx="275.914525899" cy="397.751333065" fill="rgb(100%,0%,0%)" r="0.7" /><circle cx="278.536947339" cy="396.294313576" fill="rgb(100%,0%,0%)" r="0.7" /><circle cx="280.206463088" cy="396.931126191" fill="rgb(100%,0%,0%)" r="0.7" /><circle cx="280.830337896" cy="399.865539288" fill="rgb(100%,0%,0%)" r="0.7" /><circle cx="281.454212703" cy="402.799952386" fill="rgb(100%,0%,0%)" r="0.7" /><circle cx="282.07808751" cy="405.734365483" fill="rgb(100%,0%,0%)" r="0.7" /><circle cx="282.701962317" cy="408.66877858" fill="rgb(100%,0%,0%)" r="0.7" /><circle cx="283.325837125" cy="411.603191677" fill="rgb(100%,0%,0%)" r="0.7" /><circle cx="283.508" cy="412.46" fill="rgb(100%,0%,0%)" r="0.7" /><circle cx="266.157102168" cy="246.653486945" fill="rgb(0%,0%,100%)" r="0.7" /><circle cx="269.105165501" cy="246.979434236" fill="rgb(0%,0%,100%)" r="0.7" /><circle cx="271.758672026" cy="248.362687552" fill="rgb(0%,0%,100%)" r="0.7" /><circle cx="274.124944456" cy="250.203358342" fill="rgb(0%,0%,100%)" r="0.7" /><circle cx="276.291835475" cy="252.276953304" fill="rgb(0%,0%,100%)" r="0.7" /><circle cx="278.316716763" cy="254.490012358" fill="rgb(0%,0%,100%)" r="0.7" /><circle cx="280.235164312" cy="256.796160506" fill="rgb(0%,0%,100%)" r="0.7" /><circle cx="282.070322545" cy="259.169246044" fill="rgb(0%,0%,100%)" r="0.7" /><circle cx="283.837990225" cy="261.593053713" fill="rgb(0%,0%,100%)" r="0.7" /><circle cx="285.549472798" cy="264.056891911" fill="rgb(0%,0%,100%)" r="0.7" /><circle cx="287.213110194" cy="266.553307507" fill="rgb(0%,0%,100%)" r="0.7" /><circle cx="288.835230744" cy="269.076908268" fill="rgb(0%,0%,100%)" r="0.7" /><circle cx="290.420739158" cy="271.623679349" fill="rgb(0%,0%,100%)" r="0.7" /><circle cx="291.973489477" cy="274.190559165" fill="rgb(0%,0%,100%)" r="0.7" /><circle cx="293.496532281" cy="276.775172914" fill="rgb(0%,0%,100%)" r="0.7" /><circle cx="294.992293697" cy="279.375687908" fill="rgb(0%,0%,100%)" r="0.7" /><circle cx="296.462645802" cy="281.990647898" fill="rgb(0%,0%,100%)" r="0.7" /><circle cx="297.908990088" cy="284.618964338" fill="rgb(0%,0%,100%)" r="0.7" /><circle cx="299.33222391" cy="287.259850012" fill="rgb(0%,0%,100%)" r="0.7" /><circle cx="300.732667705" cy="289.912927582" fill="rgb(0%,0%,100%)" r="0.7" /><circle cx="302.109597391" cy="292.578254405" fill="rgb(0%,0%,100%)" r="0.7" /><circle cx="303.459552181" cy="295.257350596" fill="rgb(0%,0%,100%)" r="0.7" /><circle cx="304.830665508" cy="297.925442337" fill="rgb(0%,0%,100%)" r="0.7" /><circle cx="306.13436908" cy="300.627174809" fill="rgb(0%,0%,100%)" r="0.7" /><circle cx="307.338525974" cy="303.374717046" fill="rgb(0%,0%,100%)" r="0.7" /><circle cx="308.440198391" cy="306.1649131" fill="rgb(0%,0%,100%)" r="0.7" /><circle cx="309.436914894" cy="308.99432565" fill="rgb(0%,0%,100%)" r="0.7" /><circle cx="310.326674214" cy="311.859156049" fill="rgb(0%,0%,100%)" r="0.7" /><circle cx="311.108032468" cy="314.755432522" fill="rgb(0%,0%,100%)" r="0.7" /><circle cx="311.780100869" cy="317.679002824" fill="rgb(0%,0%,100%)" r="0.7" /><circle cx="312.342559945" cy="320.625619859" fill="rgb(0%,0%,100%)" r="0.7" /><circle cx="312.795655391" cy="323.591042541" fill="rgb(0%,0%,100%)" r="0.7" /><circle cx="313.140161681" cy="326.571031632" fill="rgb(0%,0%,100%)" r="0.7" /><circle cx="313.377356552" cy="329.561480122" fill="rgb(0%,0%,100%)" r="0.7" /><circle cx="313.508967078" cy="332.558439824" fill="rgb(0%,0%,100%)" r="0.7" /><circle cx="313.537113612" cy="335.558161776" fill="rgb(0%,0%,100%)" r="0.7" /><circle cx="313.464249548" cy="338.557131527" fill="rgb(0%,0%,100%)" r="0.7" /><circle cx="313.293096909" cy="341.552122561" fill="rgb(0%,0%,100%)" r="0.7" /><circle cx="313.026588315" cy="344.540132656" fill="rgb(0%,0%,100%)" r="0.7" /><circle cx="312.667802806" cy="347.518486023" fill="rgb(0%,0%,100%)" r="0.7" /><circle cx="312.219916426" cy="350.484756435" fill="rgb(0%,0%,100%)" r="0.7" /><circle cx="311.686151839" cy="353.43678678" fill="rgb(0%,0%,100%)" r="0.7" /><circle cx="311.069735601" cy="356.372673178" fill="rgb(0%,0%,100%)" r="0.7" /><circle cx="310.37385654" cy="359.290766823" fill="rgb(0%,0%,100%)" r="0.7" /><circle cx="309.601650912" cy="362.189587535" fill="rgb(0%,0%,100%)" r="0.7" /><circle cx="308.756152305" cy="365.067904103" fill="rgb(0%,0%,100%)" r="0.7" /><circle cx="307.840297451" cy="367.924611234" fill="rgb(0%,0%,100%)" r="0.7" /><circle cx="306.856893008" cy="370.758771359" fill="rgb(0%,0%,100%)" r="0.7" /><circle cx="305.808597074" cy="373.569600614" fill="rgb(0%,0%,100%)" r="0.7" /><circle cx="304.697937003" cy="376.356370311" fill="rgb(0%,0%,100%)" r="0.7" /><circle cx="303.527274481" cy="379.118460158" fill="rgb(0%,0%,100%)" r="0.7" /><circle cx="302.298788781" cy="381.855349078" fill="rgb(0%,0%,100%)" r="0.7" /><circle cx="301.014513389" cy="384.566491642" fill="rgb(0%,0%,100%)" r="0.7" /><circle cx="299.676272589" cy="387.25141569" fill="rgb(0%,0%,100%)" r="0.7" /><circle cx="298.285701289" cy="389.90962257" fill="rgb(0%,0%,100%)" r="0.7" /><circle cx="296.84421708" cy="392.540577788" fill="rgb(0%,0%,100%)" r="0.7" /><circle cx="295.353005653" cy="395.143649692" fill="rgb(0%,0%,100%)" r="0.7" /><circle cx="293.81293383" cy="397.718132694" fill="rgb(0%,0%,100%)" r="0.7" /><circle cx="292.224534392" cy="400.263070514" fill="rgb(0%,0%,100%)" r="0.7" /><circle cx="290.587826239" cy="402.77722183" fill="rgb(0%,0%,100%)" r="0.7" /><circle cx="288.902112866" cy="405.258767829" fill="rgb(0%,0%,100%)" r="0.7" /><circle cx="287.165405273" cy="407.704896869" fill="rgb(0%,0%,100%)" r="0.7" /><circle cx="285.372935074" cy="410.110432174" fill="rgb(0%,0%,100%)" r="0.7" /><circle cx="283.508" cy="412.46" fill="rgb(0%,0%,100%)" r="0.7" /></svg>