<?xml version="1.0" encoding="utf-8" ?>
<svg baseProfile="full" height="100%" version="1.1" width="100%" xmlns="http://www.w3.org/2000/svg" xmlns:ev="http://www.w3.org/2001/xml-events" xmlns:xlink="http://www.w3.org/1999/xlink"><defs /><circle cx="337.955978814" cy="344.370416139" fill="rgb(100%,0%,0%)" r="0.7" /><circle cx="335.840593011" cy="346.476494376" fill="rgb(100%,0%,0%)" r="0.7" /><circle cx="334.139692216" cy="348.946233167" fill="rgb(100%,0%,0%)" r="0.7" /><circle cx="332.620944998" cy="351.532992487" fill="rgb(100%,0%,0%)" r="0.7" /><circle cx="331.213676819" cy="354.182274844" fill="rgb(100%,0%,0%)" r="0.7" /><circle cx="329.884533149" cy="356.871683263" fill="rgb(100%,0%,0%)" r="0.7" /><circle cx="328.551530927" cy="359.559248938" fill="rgb(100%,0%,0%)" r="0.7" /><circle cx="327.209639641" cy="362.242415152" fill="rgb(100%,0%,0%)" r="0.7" /><circle cx="325.860923979" cy="364.922139267" fill="rgb(100%,0%,0%)" r="0.7" /><circle cx="324.505698979" cy="367.598596746" fill="rgb(100%,0%,0%)" r="0.7" /><circle cx="323.14395599" cy="370.271735418" fill="rgb(100%,0%,0%)" r="0.7" /><circle cx="321.775482732" cy="372.941429292" fill="rgb(100%,0%,0%)" r="0.7" /><circle cx="320.399920426" cy="375.607476786" fill="rgb(100%,0%,0%)" r="0.7" /><circle cx="319.016772596" cy="378.269602686" fill="rgb(100%,0%,0%)" r="0.7" /><circle cx="317.625400983" cy="380.927437577" fill="rgb(100%,0%,0%)" r="0.7" /><circle cx="316.22498994" cy="383.580519347" fill="rgb(100%,0%,0%)" r="0.7" /><circle cx="314.814505965" cy="386.228260147" fill="rgb(100%,0%,0%)" r="0.7" /><circle cx="313.39263201" cy="388.869901542" fill="rgb(100%,0%,0%)" r="0.7" /><circle cx="311.957663796" cy="391.504449418" fill="rgb(100%,0%,0%)" r="0.7" /><circle cx="310.50734093" cy="394.130578133" fill="rgb(100%,0%,0%)" r="0.7" /><circle cx="309.03858429" cy="396.746438588" fill="rgb(100%,0%,0%)" r="0.7" /><circle cx="307.547013655" cy="399.349352406" fill="rgb(100%,0%,0%)" r="0.7" /><circle cx="306.026043577" cy="401.935181645" fill="rgb(100%,0%,0%)" r="0.7" /><circle cx="304.464935822" cy="404.496952804" fill="rgb(100%,0%,0%)" r="0.7" /><circle cx="302.843879865" cy="407.021142189" fill="rgb(100%,0%,0%)" r="0.7" /><circle cx="301.194237661" cy="409.526842226" fill="rgb(100%,0%,0%)" r="0.7" /><circle cx="299.542418378" cy="412.031150252" fill="rgb(100%,0%,0%)" r="0.7" /><circle cx="297.888599434" cy="414.534124504" fill="rgb(100%,0%,0%)" r="0.7" /><circle cx="296.23283558" cy="417.035804656" fill="rgb(100%,0%,0%)" r="0.7" /><circle cx="294.575067391" cy="419.536172773" fill="rgb(100%,0%,0%)" r="0.7" /><circle cx="292.915190628" cy="422.035137323" fill="rgb(100%,0%,0%)" r="0.7" /><circle cx="291.253034606" cy="424.532583123" fill="rgb(100%,0%,0%)" r="0.7" /><circle cx="289.588366528" cy="427.028354756" fill="rgb(100%,0%,0%)" r="0.7" /><circle cx="287.920878875" cy="429.522245927" fill="rgb(100%,0%,0%)" r="0.7" /><circle cx="286.250168338" cy="432.013978605" fill="rgb(100%,0%,0%)" r="0.7" /><circle cx="284.575692143" cy="434.503181368" fill="rgb(100%,0%,0%)" r="0.7" /><circle cx="282.896699907" cy="436.989344167" fill="rgb(100%,0%,0%)" r="0.7" /><circle cx="281.212125096" cy="439.471718561" fill="rgb(100%,0%,0%)" r="0.7" /><circle cx="279.520334958" cy="441.949183861" fill="rgb(100%,0%,0%)" r="0.7" /><circle cx="277.818647195" cy="444.419864597" fill="rgb(100%,0%,0%)" r="0.7" /><circle cx="276.102031941" cy="446.880188017" fill="rgb(100%,0%,0%)" r="0.7" /><circle cx="277.547393371" cy="445.778866129" fill="rgb(100%,0%,0%)" r="0.7" /><circle cx="279.789686352" cy="443.785847768" fill="rgb(100%,0%,0%)" r="0.7" /><circle cx="282.031979333" cy="441.792829408" fill="rgb(100%,0%,0%)" r="0.7" /><circle cx="283.268516643" cy="441.82069802" fill="rgb(100%,0%,0%)" r="0.7" /><circle cx="283.030585771" cy="444.811247953" fill="rgb(100%,0%,0%)" r="0.7" /><circle cx="282.792654899" cy="447.801797885" fill="rgb(100%,0%,0%)" r="0.7" /><circle cx="282.554724027" cy="450.792347818" fill="rgb(100%,0%,0%)" r="0.7" /><circle cx="282.546" cy="450.902" fill="rgb(100%,0%,0%)" r="0.7" /><circle cx="337.955978814" cy="344.370416139" fill="rgb(0%,0%,100%)" r="0.7" /><circle cx="339.08144791" cy="346.339626116" fill="rgb(0%,0%,100%)" r="0.7" /><circle cx="339.041465956" cy="349.335764474" fill="rgb(0%,0%,100%)" r="0.7" /><circle cx="338.610577662" cy="352.303394691" fill="rgb(0%,0%,100%)" r="0.7" /><circle cx="337.937715837" cy="355.226386887" fill="rgb(0%,0%,100%)" r="0.7" /><circle cx="337.098019729" cy="358.106161294" fill="rgb(0%,0%,100%)" r="0.7" /><circle cx="336.133688433" cy="360.946752891" fill="rgb(0%,0%,100%)" r="0.7" /><circle cx="335.06996196" cy="363.751696765" fill="rgb(0%,0%,100%)" r="0.7" /><circle cx="333.921682406" cy="366.523127169" fill="rgb(0%,0%,100%)" r="0.7" /><circle cx="332.694297909" cy="369.260448478" fill="rgb(0%,0%,100%)" r="0.7" /><circle cx="331.422434857" cy="371.977328323" fill="rgb(0%,0%,100%)" r="0.7" /><circle cx="330.148736354" cy="374.693503352" fill="rgb(0%,0%,100%)" r="0.7" /><circle cx="328.845132765" cy="377.395452223" fill="rgb(0%,0%,100%)" r="0.7" /><circle cx="327.513375575" cy="380.083639728" fill="rgb(0%,0%,100%)" r="0.7" /><circle cx="326.155049683" cy="382.758501287" fill="rgb(0%,0%,100%)" r="0.7" /><circle cx="324.771589072" cy="385.420451424" fill="rgb(0%,0%,100%)" r="0.7" /><circle cx="323.364295687" cy="388.069880045" fill="rgb(0%,0%,100%)" r="0.7" /><circle cx="321.934353971" cy="390.707152883" fill="rgb(0%,0%,100%)" r="0.7" /><circle cx="320.482839184" cy="393.332619496" fill="rgb(0%,0%,100%)" r="0.7" /><circle cx="319.010739142" cy="395.946593794" fill="rgb(0%,0%,100%)" r="0.7" /><circle cx="317.518945702" cy="398.549386389" fill="rgb(0%,0%,100%)" r="0.7" /><circle cx="316.00828159" cy="401.141271351" fill="rgb(0%,0%,100%)" r="0.7" /><circle cx="314.479495545" cy="403.722507324" fill="rgb(0%,0%,100%)" r="0.7" /><circle cx="312.933272873" cy="406.293329488" fill="rgb(0%,0%,100%)" r="0.7" /><circle cx="311.37022525" cy="408.8539744" fill="rgb(0%,0%,100%)" r="0.7" /><circle cx="309.790929754" cy="411.40462226" fill="rgb(0%,0%,100%)" r="0.7" /><circle cx="308.195898065" cy="413.945452939" fill="rgb(0%,0%,100%)" r="0.7" /><circle cx="306.585583146" cy="416.476637384" fill="rgb(0%,0%,100%)" r="0.7" /><circle cx="304.960408442" cy="418.998293354" fill="rgb(0%,0%,100%)" r="0.7" /><circle cx="303.320724976" cy="421.510552329" fill="rgb(0%,0%,100%)" r="0.7" /><circle cx="301.666854588" cy="424.013489564" fill="rgb(0%,0%,100%)" r="0.7" /><circle cx="299.999056453" cy="426.50717023" fill="rgb(0%,0%,100%)" r="0.7" /><circle cx="298.317548822" cy="428.991607107" fill="rgb(0%,0%,100%)" r="0.7" /><circle cx="296.622451729" cy="431.466830215" fill="rgb(0%,0%,100%)" r="0.7" /><circle cx="294.913869332" cy="433.932742621" fill="rgb(0%,0%,100%)" r="0.7" /><circle cx="293.191791318" cy="436.389229025" fill="rgb(0%,0%,100%)" r="0.7" /><circle cx="291.456075127" cy="438.836120147" fill="rgb(0%,0%,100%)" r="0.7" /><circle cx="289.706448441" cy="441.273087828" fill="rgb(0%,0%,100%)" r="0.7" /><circle cx="287.942387595" cy="443.69962631" fill="rgb(0%,0%,100%)" r="0.7" /><circle cx="286.162930525" cy="446.114899217" fill="rgb(0%,0%,100%)" r="0.7" /><circle cx="284.366152028" cy="448.517311234" fill="rgb(0%,0%,100%)" r="0.7" /><circle cx="282.546" cy="450.902" fill="rgb(0%,0%,100%)" r="0.7" /></svg>