<?xml version="1.0" encoding="utf-8" ?>
<svg baseProfile="full" height="100%" version="1.1" width="100%" xmlns="http://www.w3.org/2000/svg" xmlns:ev="http://www.w3.org/2001/xml-events" xmlns:xlink="http://www.w3.org/1999/xlink"><defs /><circle cx="362.467762575" cy="262.899020312" fill="rgb(100%,0%,0%)" r="0.7" /><circle cx="360.9494795" cy="265.486303232" fill="rgb(100%,0%,0%)" r="0.7" /><circle cx="359.469740419" cy="268.095974809" fill="rgb(100%,0%,0%)" r="0.7" /><circle cx="358.002852372" cy="270.712884599" fill="rgb(100%,0%,0%)" r="0.7" /><circle cx="356.54323539" cy="273.333863658" fill="rgb(100%,0%,0%)" r="0.7" /><circle cx="355.08857299" cy="275.957596154" fill="rgb(100%,0%,0%)" r="0.7" /><circle cx="353.637677965" cy="278.583413518" fill="rgb(100%,0%,0%)" r="0.7" /><circle cx="352.1899226" cy="281.210962249" fill="rgb(100%,0%,0%)" r="0.7" /><circle cx="350.745165552" cy="283.840157261" fill="rgb(100%,0%,0%)" r="0.7" /><circle cx="349.352666498" cy="286.49723029" fill="rgb(100%,0%,0%)" r="0.7" /><circle cx="347.963186766" cy="289.156060219" fill="rgb(100%,0%,0%)" r="0.7" /><circle cx="346.569909192" cy="291.812896394" fill="rgb(100%,0%,0%)" r="0.7" /><circle cx="345.174566251" cy="294.468648101" fill="rgb(100%,0%,0%)" r="0.7" /><circle cx="343.77786318" cy="297.123686908" fill="rgb(100%,0%,0%)" r="0.7" /><circle cx="342.380170488" cy="299.778204868" fill="rgb(100%,0%,0%)" r="0.7" /><circle cx="340.981709381" cy="302.432317514" fill="rgb(100%,0%,0%)" r="0.7" /><circle cx="339.582622025" cy="305.086101971" fill="rgb(100%,0%,0%)" r="0.7" /><circle cx="338.183007007" cy="307.739606955" fill="rgb(100%,0%,0%)" r="0.7" /><circle cx="336.782931435" cy="310.392868266" fill="rgb(100%,0%,0%)" r="0.7" /><circle cx="335.382442986" cy="313.045904819" fill="rgb(100%,0%,0%)" r="0.7" /><circle cx="333.981559529" cy="315.698742901" fill="rgb(100%,0%,0%)" r="0.7" /><circle cx="332.580276719" cy="318.351380765" fill="rgb(100%,0%,0%)" r="0.7" /><circle cx="331.11026322" cy="320.964104564" fill="rgb(100%,0%,0%)" r="0.7" /><circle cx="329.507383717" cy="323.499990349" fill="rgb(100%,0%,0%)" r="0.7" /><circle cx="327.907702964" cy="326.037908925" fill="rgb(100%,0%,0%)" r="0.7" /><circle cx="326.309587351" cy="328.57681512" fill="rgb(100%,0%,0%)" r="0.7" /><circle cx="324.712454554" cy="331.116341674" fill="rgb(100%,0%,0%)" r="0.7" /><circle cx="323.116020854" cy="333.656302761" fill="rgb(100%,0%,0%)" r="0.7" /><circle cx="321.520117383" cy="336.196598762" fill="rgb(100%,0%,0%)" r="0.7" /><circle cx="319.924639377" cy="338.737162327" fill="rgb(100%,0%,0%)" r="0.7" /><circle cx="318.329515927" cy="341.27794844" fill="rgb(100%,0%,0%)" r="0.7" /><circle cx="316.734698764" cy="343.818923863" fill="rgb(100%,0%,0%)" r="0.7" /><circle cx="315.140149043" cy="346.360073419" fill="rgb(100%,0%,0%)" r="0.7" /><circle cx="313.545850314" cy="348.901372361" fill="rgb(100%,0%,0%)" r="0.7" /><circle cx="311.951788536" cy="351.442818294" fill="rgb(100%,0%,0%)" r="0.7" /><circle cx="310.357963647" cy="353.984430102" fill="rgb(100%,0%,0%)" r="0.7" /><circle cx="308.720305101" cy="356.497380615" fill="rgb(100%,0%,0%)" r="0.7" /><circle cx="307.054886961" cy="358.992641394" fill="rgb(100%,0%,0%)" r="0.7" /><circle cx="305.404455106" cy="361.497850139" fill="rgb(100%,0%,0%)" r="0.7" /><circle cx="303.762989966" cy="364.008944827" fill="rgb(100%,0%,0%)" r="0.7" /><circle cx="302.127867602" cy="366.524174347" fill="rgb(100%,0%,0%)" r="0.7" /><circle cx="300.497790286" cy="369.042672495" fill="rgb(100%,0%,0%)" r="0.7" /><circle cx="298.872377819" cy="371.564195798" fill="rgb(100%,0%,0%)" r="0.7" /><circle cx="297.007825767" cy="373.909872287" fill="rgb(100%,0%,0%)" r="0.7" /><circle cx="294.979813665" cy="376.120349948" fill="rgb(100%,0%,0%)" r="0.7" /><circle cx="292.844873909" cy="378.219281383" fill="rgb(100%,0%,0%)" r="0.7" /><circle cx="290.571677524" cy="380.171573541" fill="rgb(100%,0%,0%)" r="0.7" /><circle cx="288.605254191" cy="382.434542523" fill="rgb(100%,0%,0%)" r="0.7" /><circle cx="286.923299855" cy="384.916564958" fill="rgb(100%,0%,0%)" r="0.7" /><circle cx="285.722913349" cy="387.662346076" fill="rgb(100%,0%,0%)" r="0.7" /><circle cx="284.037795667" cy="390.028569679" fill="rgb(100%,0%,0%)" r="0.7" /><circle cx="282.083184453" cy="392.293478349" fill="rgb(100%,0%,0%)" r="0.7" /><circle cx="280.399859873" cy="394.776665308" fill="rgb(100%,0%,0%)" r="0.7" /><circle cx="278.701777364" cy="397.249076123" fill="rgb(100%,0%,0%)" r="0.7" /><circle cx="276.934634623" cy="399.669917264" fill="rgb(100%,0%,0%)" r="0.7" /><circle cx="274.797760167" cy="401.769551603" fill="rgb(100%,0%,0%)" r="0.7" /><circle cx="272.536662537" cy="403.731505161" fill="rgb(100%,0%,0%)" r="0.7" /><circle cx="270.178272008" cy="405.581948739" fill="rgb(100%,0%,0%)" r="0.7" /><circle cx="267.497584789" cy="406.899440504" fill="rgb(100%,0%,0%)" r="0.7" /><circle cx="264.524008437" cy="407.261276515" fill="rgb(100%,0%,0%)" r="0.7" /><circle cx="261.526861861" cy="407.386759128" fill="rgb(100%,0%,0%)" r="0.7" /><circle cx="258.527152272" cy="407.425036015" fill="rgb(100%,0%,0%)" r="0.7" /><circle cx="255.527181827" cy="407.416509939" fill="rgb(100%,0%,0%)" r="0.7" /><circle cx="252.527458985" cy="407.376316537" fill="rgb(100%,0%,0%)" r="0.7" /><circle cx="249.528174421" cy="407.311026781" fill="rgb(100%,0%,0%)" r="0.7" /><circle cx="246.532766825" cy="407.165363145" fill="rgb(100%,0%,0%)" r="0.7" /><circle cx="243.564727422" cy="406.73461382" fill="rgb(100%,0%,0%)" r="0.7" /><circle cx="240.635391193" cy="406.089643485" fill="rgb(100%,0%,0%)" r="0.7" /><circle cx="237.747135757" cy="405.279678281" fill="rgb(100%,0%,0%)" r="0.7" /><circle cx="234.899962577" cy="404.335123684" fill="rgb(100%,0%,0%)" r="0.7" /><circle cx="232.09455563" cy="403.272825028" fill="rgb(100%,0%,0%)" r="0.7" /><circle cx="229.338269277" cy="402.089241441" fill="rgb(100%,0%,0%)" r="0.7" /><circle cx="226.522337631" cy="401.062486037" fill="rgb(100%,0%,0%)" r="0.7" /><circle cx="223.57972336" cy="400.498442411" fill="rgb(100%,0%,0%)" r="0.7" /><circle cx="220.589" cy="400.551" fill="rgb(100%,0%,0%)" r="0.7" /><circle cx="220.654" cy="401.910297603" fill="rgb(100%,0%,0%)" r="0.7" /><circle cx="220.654" cy="404.910297603" fill="rgb(100%,0%,0%)" r="0.7" /><circle cx="220.654" cy="407.910297603" fill="rgb(100%,0%,0%)" r="0.7" /><circle cx="220.654" cy="410.910297603" fill="rgb(100%,0%,0%)" r="0.7" /><circle cx="220.654" cy="413.910297603" fill="rgb(100%,0%,0%)" r="0.7" /><circle cx="220.654" cy="416.910297603" fill="rgb(100%,0%,0%)" r="0.7" /><circle cx="220.654" cy="419.910297603" fill="rgb(100%,0%,0%)" r="0.7" /><circle cx="220.654" cy="422.910297603" fill="rgb(100%,0%,0%)" r="0.7" /><circle cx="220.654" cy="425.910297603" fill="rgb(100%,0%,0%)" r="0.7" /><circle cx="223.496297603" cy="426.068" fill="rgb(100%,0%,0%)" r="0.7" /><circle cx="226.496297603" cy="426.068" fill="rgb(100%,0%,0%)" r="0.7" /><circle cx="229.496297603" cy="426.068" fill="rgb(100%,0%,0%)" r="0.7" /><circle cx="232.496297603" cy="426.068" fill="rgb(100%,0%,0%)" r="0.7" /><circle cx="235.496297603" cy="426.068" fill="rgb(100%,0%,0%)" r="0.7" /><circle cx="238.496297603" cy="426.068" fill="rgb(100%,0%,0%)" r="0.7" /><circle cx="241.496297603" cy="426.068" fill="rgb(100%,0%,0%)" r="0.7" /><circle cx="244.496297603" cy="426.068" fill="rgb(100%,0%,0%)" r="0.7" /><circle cx="247.496297603" cy="426.068" fill="rgb(100%,0%,0%)" r="0.7" /><circle cx="250.496297603" cy="426.068" fill="rgb(100%,0%,0%)" r="0.7" /><circle cx="253.496297603" cy="426.068" fill="rgb(100%,0%,0%)" r="0.7" /><circle cx="256.496297603" cy="426.068" fill="rgb(100%,0%,0%)" r="0.7" /><circle cx="259.496297603" cy="426.068" fill="rgb(100%,0%,0%)" r="0.7" /><circle cx="262.496297603" cy="426.068" fill="rgb(100%,0%,0%)" r="0.7" /><circle cx="265.496297603" cy="426.068" fill="rgb(100%,0%,0%)" r="0.7" /><circle cx="268.496297603" cy="426.068" fill="rgb(100%,0%,0%)" r="0.7" /><circle cx="271.496297603" cy="426.068" fill="rgb(100%,0%,0%)" r="0.7" /><circle cx="274.496297603" cy="426.068" fill="rgb(100%,0%,0%)" r="0.7" /><circle cx="277.496297603" cy="426.068" fill="rgb(100%,0%,0%)" r="0.7" /><circle cx="280.496297603" cy="426.068" fill="rgb(100%,0%,0%)" r="0.7" /><circle cx="283.496297603" cy="426.068" fill="rgb(100%,0%,0%)" r="0.7" /><circle cx="286.496297603" cy="426.068" fill="rgb(100%,0%,0%)" r="0.7" /><circle cx="362.467762575" cy="262.899020312" fill="rgb(0%,0%,100%)" r="0.7" /><circle cx="362.578511124" cy="264.758839858" fill="rgb(0%,0%,100%)" r="0.7" /><circle cx="362.285852265" cy="267.744530866" fill="rgb(0%,0%,100%)" r="0.7" /><circle cx="363.111792266" cy="269.618194574" fill="rgb(0%,0%,100%)" r="0.7" /><circle cx="366.099155813" cy="269.343132699" fill="rgb(0%,0%,100%)" r="0.7" /><circle cx="369.086519361" cy="269.068070824" fill="rgb(0%,0%,100%)" r="0.7" /><circle cx="372.073882908" cy="268.793008949" fill="rgb(0%,0%,100%)" r="0.7" /><circle cx="372.129405727" cy="270.572357461" fill="rgb(0%,0%,100%)" r="0.7" /><circle cx="370.84917984" cy="273.285482014" fill="rgb(0%,0%,100%)" r="0.7" /><circle cx="369.56708461" cy="275.997729686" fill="rgb(0%,0%,100%)" r="0.7" /><circle cx="368.283127631" cy="278.709088933" fill="rgb(0%,0%,100%)" r="0.7" /><circle cx="366.997171999" cy="281.419495167" fill="rgb(0%,0%,100%)" r="0.7" /><circle cx="365.708973827" cy="284.128842264" fill="rgb(0%,0%,100%)" r="0.7" /><circle cx="364.418177454" cy="286.836952063" fill="rgb(0%,0%,100%)" r="0.7" /><circle cx="363.124257909" cy="289.543568984" fill="rgb(0%,0%,100%)" r="0.7" /><circle cx="361.826420872" cy="292.248310572" fill="rgb(0%,0%,100%)" r="0.7" /><circle cx="360.523394169" cy="294.950557003" fill="rgb(0%,0%,100%)" r="0.7" /><circle cx="359.212918552" cy="297.649197829" fill="rgb(0%,0%,100%)" r="0.7" /><circle cx="357.890192256" cy="300.341848191" fill="rgb(0%,0%,100%)" r="0.7" /><circle cx="356.540027271" cy="303.020802969" fill="rgb(0%,0%,100%)" r="0.7" /><circle cx="355.149034519" cy="305.678585518" fill="rgb(0%,0%,100%)" r="0.7" /><circle cx="353.778895408" cy="308.347441642" fill="rgb(0%,0%,100%)" r="0.7" /><circle cx="352.408986456" cy="311.016396646" fill="rgb(0%,0%,100%)" r="0.7" /><circle cx="351.039280509" cy="313.685465039" fill="rgb(0%,0%,100%)" r="0.7" /><circle cx="349.669780147" cy="316.354643791" fill="rgb(0%,0%,100%)" r="0.7" /><circle cx="348.300501245" cy="319.023923359" fill="rgb(0%,0%,100%)" r="0.7" /><circle cx="346.931448722" cy="321.693330263" fill="rgb(0%,0%,100%)" r="0.7" /><circle cx="345.562650689" cy="324.362860284" fill="rgb(0%,0%,100%)" r="0.7" /><circle cx="344.194131284" cy="327.032533552" fill="rgb(0%,0%,100%)" r="0.7" /><circle cx="342.825925601" cy="329.702369808" fill="rgb(0%,0%,100%)" r="0.7" /><circle cx="341.458081783" cy="332.372391615" fill="rgb(0%,0%,100%)" r="0.7" /><circle cx="340.090665207" cy="335.042628207" fill="rgb(0%,0%,100%)" r="0.7" /><circle cx="338.723760544" cy="337.7131319" fill="rgb(0%,0%,100%)" r="0.7" /><circle cx="337.357497415" cy="340.383964877" fill="rgb(0%,0%,100%)" r="0.7" /><circle cx="335.992073461" cy="343.05522689" fill="rgb(0%,0%,100%)" r="0.7" /><circle cx="334.627825234" cy="345.727079952" fill="rgb(0%,0%,100%)" r="0.7" /><circle cx="333.265393844" cy="348.399870959" fill="rgb(0%,0%,100%)" r="0.7" /><circle cx="331.904379607" cy="351.073344101" fill="rgb(0%,0%,100%)" r="0.7" /><circle cx="330.502286413" cy="353.725538414" fill="rgb(0%,0%,100%)" r="0.7" /><circle cx="329.100193219" cy="356.377732727" fill="rgb(0%,0%,100%)" r="0.7" /><circle cx="327.698100026" cy="359.029927041" fill="rgb(0%,0%,100%)" r="0.7" /><circle cx="326.296006832" cy="361.682121354" fill="rgb(0%,0%,100%)" r="0.7" /><circle cx="324.893913638" cy="364.334315668" fill="rgb(0%,0%,100%)" r="0.7" /><circle cx="323.491820444" cy="366.986509981" fill="rgb(0%,0%,100%)" r="0.7" /><circle cx="322.08972725" cy="369.638704294" fill="rgb(0%,0%,100%)" r="0.7" /><circle cx="320.687634057" cy="372.290898608" fill="rgb(0%,0%,100%)" r="0.7" /><circle cx="319.285540863" cy="374.943092921" fill="rgb(0%,0%,100%)" r="0.7" /><circle cx="317.883447669" cy="377.595287234" fill="rgb(0%,0%,100%)" r="0.7" /><circle cx="316.481354475" cy="380.247481548" fill="rgb(0%,0%,100%)" r="0.7" /><circle cx="315.079261281" cy="382.899675861" fill="rgb(0%,0%,100%)" r="0.7" /><circle cx="313.677168088" cy="385.551870175" fill="rgb(0%,0%,100%)" r="0.7" /><circle cx="312.275074894" cy="388.204064488" fill="rgb(0%,0%,100%)" r="0.7" /><circle cx="310.8729817" cy="390.856258801" fill="rgb(0%,0%,100%)" r="0.7" /><circle cx="309.470888506" cy="393.508453115" fill="rgb(0%,0%,100%)" r="0.7" /><circle cx="308.068795312" cy="396.160647428" fill="rgb(0%,0%,100%)" r="0.7" /><circle cx="306.666702119" cy="398.812841741" fill="rgb(0%,0%,100%)" r="0.7" /><circle cx="305.264608925" cy="401.465036055" fill="rgb(0%,0%,100%)" r="0.7" /><circle cx="303.862515731" cy="404.117230368" fill="rgb(0%,0%,100%)" r="0.7" /><circle cx="302.460422537" cy="406.769424682" fill="rgb(0%,0%,100%)" r="0.7" /><circle cx="301.058329343" cy="409.421618995" fill="rgb(0%,0%,100%)" r="0.7" /><circle cx="299.656236149" cy="412.073813308" fill="rgb(0%,0%,100%)" r="0.7" /><circle cx="298.254142956" cy="414.726007622" fill="rgb(0%,0%,100%)" r="0.7" /><circle cx="296.852049762" cy="417.378201935" fill="rgb(0%,0%,100%)" r="0.7" /><circle cx="295.449956568" cy="420.030396248" fill="rgb(0%,0%,100%)" r="0.7" /><circle cx="294.047863374" cy="422.682590562" fill="rgb(0%,0%,100%)" r="0.7" /><circle cx="292.293934264" cy="425.069773301" fill="rgb(0%,0%,100%)" r="0.7" /><circle cx="289.49556157" cy="426.04628769" fill="rgb(0%,0%,100%)" r="0.7" /><circle cx="286.496297603" cy="426.068" fill="rgb(0%,0%,100%)" r="0.7" /></svg>