<?xml version="1.0" encoding="utf-8" ?>
<svg baseProfile="full" height="100%" version="1.1" width="100%" xmlns="http://www.w3.org/2000/svg" xmlns:ev="http://www.w3.org/2001/xml-events" xmlns:xlink="http://www.w3.org/1999/xlink"><defs /><circle cx="329.024362142" cy="369.000971908" fill="rgb(100%,0%,0%)" r="0.7" /><circle cx="326.487763262" cy="370.449316255" fill="rgb(100%,0%,0%)" r="0.7" /><circle cx="325.252768824" cy="373.154081306" fill="rgb(100%,0%,0%)" r="0.7" /><circle cx="324.838567086" cy="376.12131846" fill="rgb(100%,0%,0%)" r="0.7" /><circle cx="324.823621044" cy="379.120036667" fill="rgb(100%,0%,0%)" r="0.7" /><circle cx="325.050493516" cy="382.110916367" fill="rgb(100%,0%,0%)" r="0.7" /><circle cx="325.442944469" cy="385.084855924" fill="rgb(100%,0%,0%)" r="0.7" /><circle cx="326.139995365" cy="387.997513802" fill="rgb(100%,0%,0%)" r="0.7" /><circle cx="326.763136417" cy="390.931540232" fill="rgb(100%,0%,0%)" r="0.7" /><circle cx="327.216446415" cy="393.896759075" fill="rgb(100%,0%,0%)" r="0.7" /><circle cx="327.524311185" cy="396.88065355" fill="rgb(100%,0%,0%)" r="0.7" /><circle cx="327.699249509" cy="399.875310793" fill="rgb(100%,0%,0%)" r="0.7" /><circle cx="327.749383258" cy="402.874686342" fill="rgb(100%,0%,0%)" r="0.7" /><circle cx="327.680716902" cy="405.87371651" fill="rgb(100%,0%,0%)" r="0.7" /><circle cx="327.498110451" cy="408.867983177" fill="rgb(100%,0%,0%)" r="0.7" /><circle cx="327.205767382" cy="411.853534379" fill="rgb(100%,0%,0%)" r="0.7" /><circle cx="326.807498883" cy="414.826831955" fill="rgb(100%,0%,0%)" r="0.7" /><circle cx="326.306890321" cy="417.784616712" fill="rgb(100%,0%,0%)" r="0.7" /><circle cx="325.707383695" cy="420.723966775" fill="rgb(100%,0%,0%)" r="0.7" /><circle cx="325.012342977" cy="423.642211439" fill="rgb(100%,0%,0%)" r="0.7" /><circle cx="324.225080477" cy="426.536949746" fill="rgb(100%,0%,0%)" r="0.7" /><circle cx="323.348877749" cy="429.406019644" fill="rgb(100%,0%,0%)" r="0.7" /><circle cx="322.38698461" cy="432.247512222" fill="rgb(100%,0%,0%)" r="0.7" /><circle cx="321.34262124" cy="435.05974853" fill="rgb(100%,0%,0%)" r="0.7" /><circle cx="320.218974895" cy="437.841265191" fill="rgb(100%,0%,0%)" r="0.7" /><circle cx="319.026362634" cy="440.593941211" fill="rgb(100%,0%,0%)" r="0.7" /><circle cx="317.755116422" cy="443.310951159" fill="rgb(100%,0%,0%)" r="0.7" /><circle cx="316.378302941" cy="445.976203956" fill="rgb(100%,0%,0%)" r="0.7" /><circle cx="314.919964174" cy="448.597773255" fill="rgb(100%,0%,0%)" r="0.7" /><circle cx="313.389164269" cy="451.177710105" fill="rgb(100%,0%,0%)" r="0.7" /><circle cx="311.790878521" cy="453.716406983" fill="rgb(100%,0%,0%)" r="0.7" /><circle cx="310.128256335" cy="456.213447044" fill="rgb(100%,0%,0%)" r="0.7" /><circle cx="308.403447153" cy="458.667952341" fill="rgb(100%,0%,0%)" r="0.7" /><circle cx="306.618016557" cy="461.078714152" fill="rgb(100%,0%,0%)" r="0.7" /><circle cx="304.773148958" cy="463.444303382" fill="rgb(100%,0%,0%)" r="0.7" /><circle cx="302.869804371" cy="465.763094018" fill="rgb(100%,0%,0%)" r="0.7" /><circle cx="300.908787507" cy="468.033325712" fill="rgb(100%,0%,0%)" r="0.7" /><circle cx="298.890840383" cy="470.253096645" fill="rgb(100%,0%,0%)" r="0.7" /><circle cx="296.816662555" cy="472.420418695" fill="rgb(100%,0%,0%)" r="0.7" /><circle cx="294.68696783" cy="474.533215684" fill="rgb(100%,0%,0%)" r="0.7" /><circle cx="292.50251929" cy="476.589340044" fill="rgb(100%,0%,0%)" r="0.7" /><circle cx="290.264132397" cy="478.58661366" fill="rgb(100%,0%,0%)" r="0.7" /><circle cx="287.845365337" cy="480.352085241" fill="rgb(100%,0%,0%)" r="0.7" /><circle cx="285.332853048" cy="481.991391856" fill="rgb(100%,0%,0%)" r="0.7" /><circle cx="282.809508842" cy="483.61393224" fill="rgb(100%,0%,0%)" r="0.7" /><circle cx="280.276035752" cy="485.220637896" fill="rgb(100%,0%,0%)" r="0.7" /><circle cx="277.732434982" cy="486.811259459" fill="rgb(100%,0%,0%)" r="0.7" /><circle cx="275.178328729" cy="488.384956184" fill="rgb(100%,0%,0%)" r="0.7" /><circle cx="272.613066112" cy="489.940401299" fill="rgb(100%,0%,0%)" r="0.7" /><circle cx="270.035739013" cy="491.475761537" fill="rgb(100%,0%,0%)" r="0.7" /><circle cx="267.445133818" cy="492.988610029" fill="rgb(100%,0%,0%)" r="0.7" /><circle cx="264.839681115" cy="494.475735094" fill="rgb(100%,0%,0%)" r="0.7" /><circle cx="262.217331406" cy="495.932846653" fill="rgb(100%,0%,0%)" r="0.7" /><circle cx="259.575371859" cy="497.354077117" fill="rgb(100%,0%,0%)" r="0.7" /><circle cx="256.910131806" cy="498.731112399" fill="rgb(100%,0%,0%)" r="0.7" /><circle cx="254.21644874" cy="500.051593795" fill="rgb(100%,0%,0%)" r="0.7" /><circle cx="251.486778357" cy="501.295807469" fill="rgb(100%,0%,0%)" r="0.7" /><circle cx="248.709352768" cy="502.428983234" fill="rgb(100%,0%,0%)" r="0.7" /><circle cx="247.733722393" cy="503.092482412" fill="rgb(100%,0%,0%)" r="0.7" /><circle cx="250.733504113" cy="503.056293619" fill="rgb(100%,0%,0%)" r="0.7" /><circle cx="253.733285834" cy="503.020104827" fill="rgb(100%,0%,0%)" r="0.7" /><circle cx="256.733067554" cy="502.983916034" fill="rgb(100%,0%,0%)" r="0.7" /><circle cx="255.870045227" cy="505.752206147" fill="rgb(100%,0%,0%)" r="0.7" /><circle cx="254.906705773" cy="508.593328654" fill="rgb(100%,0%,0%)" r="0.7" /><circle cx="253.94336632" cy="511.43445116" fill="rgb(100%,0%,0%)" r="0.7" /><circle cx="253.637" cy="512.338" fill="rgb(100%,0%,0%)" r="0.7" /><circle cx="329.024362142" cy="369.000971908" fill="rgb(0%,0%,100%)" r="0.7" /><circle cx="331.437389803" cy="370.614295752" fill="rgb(0%,0%,100%)" r="0.7" /><circle cx="332.957801436" cy="373.194491091" fill="rgb(0%,0%,100%)" r="0.7" /><circle cx="334.116439883" cy="375.960628473" fill="rgb(0%,0%,100%)" r="0.7" /><circle cx="335.081000781" cy="378.800963164" fill="rgb(0%,0%,100%)" r="0.7" /><circle cx="335.918416515" cy="381.681536671" fill="rgb(0%,0%,100%)" r="0.7" /><circle cx="336.66156291" cy="384.587935062" fill="rgb(0%,0%,100%)" r="0.7" /><circle cx="337.326990193" cy="387.513126161" fill="rgb(0%,0%,100%)" r="0.7" /><circle cx="337.90528338" cy="390.45636432" fill="rgb(0%,0%,100%)" r="0.7" /><circle cx="338.195945834" cy="393.441730979" fill="rgb(0%,0%,100%)" r="0.7" /><circle cx="338.325555048" cy="396.438679989" fill="rgb(0%,0%,100%)" r="0.7" /><circle cx="338.339672614" cy="399.43850565" fill="rgb(0%,0%,100%)" r="0.7" /><circle cx="338.265904454" cy="402.43751664" fill="rgb(0%,0%,100%)" r="0.7" /><circle cx="338.122330188" cy="405.434025046" fill="rgb(0%,0%,100%)" r="0.7" /><circle cx="337.921480813" cy="408.427257944" fill="rgb(0%,0%,100%)" r="0.7" /><circle cx="337.672418139" cy="411.416875475" fill="rgb(0%,0%,100%)" r="0.7" /><circle cx="337.38190934" cy="414.402756854" fill="rgb(0%,0%,100%)" r="0.7" /><circle cx="337.055131634" cy="417.384889822" fill="rgb(0%,0%,100%)" r="0.7" /><circle cx="336.696113731" cy="420.36331757" fill="rgb(0%,0%,100%)" r="0.7" /><circle cx="336.308021783" cy="423.338102428" fill="rgb(0%,0%,100%)" r="0.7" /><circle cx="335.893346672" cy="426.309296626" fill="rgb(0%,0%,100%)" r="0.7" /><circle cx="335.454017402" cy="429.276947466" fill="rgb(0%,0%,100%)" r="0.7" /><circle cx="334.991460613" cy="432.241069855" fill="rgb(0%,0%,100%)" r="0.7" /><circle cx="334.506593579" cy="435.201621513" fill="rgb(0%,0%,100%)" r="0.7" /><circle cx="333.999699652" cy="438.158478213" fill="rgb(0%,0%,100%)" r="0.7" /><circle cx="333.469981031" cy="441.111339983" fill="rgb(0%,0%,100%)" r="0.7" /><circle cx="332.913129279" cy="444.059191306" fill="rgb(0%,0%,100%)" r="0.7" /><circle cx="332.182610056" cy="446.96791675" fill="rgb(0%,0%,100%)" r="0.7" /><circle cx="331.242133814" cy="449.816069695" fill="rgb(0%,0%,100%)" r="0.7" /><circle cx="330.115940936" cy="452.596117471" fill="rgb(0%,0%,100%)" r="0.7" /><circle cx="328.822609866" cy="455.302546971" fill="rgb(0%,0%,100%)" r="0.7" /><circle cx="327.380054526" cy="457.932540304" fill="rgb(0%,0%,100%)" r="0.7" /><circle cx="325.80490552" cy="460.485410044" fill="rgb(0%,0%,100%)" r="0.7" /><circle cx="324.11223857" cy="462.961976728" fill="rgb(0%,0%,100%)" r="0.7" /><circle cx="322.315461893" cy="465.364127349" fill="rgb(0%,0%,100%)" r="0.7" /><circle cx="320.426361262" cy="467.694428143" fill="rgb(0%,0%,100%)" r="0.7" /><circle cx="318.455248358" cy="469.955803828" fill="rgb(0%,0%,100%)" r="0.7" /><circle cx="316.411068095" cy="472.151388173" fill="rgb(0%,0%,100%)" r="0.7" /><circle cx="314.301590854" cy="474.284343071" fill="rgb(0%,0%,100%)" r="0.7" /><circle cx="312.1335625" cy="476.357771272" fill="rgb(0%,0%,100%)" r="0.7" /><circle cx="309.912829204" cy="478.374671532" fill="rgb(0%,0%,100%)" r="0.7" /><circle cx="307.644480254" cy="480.337884685" fill="rgb(0%,0%,100%)" r="0.7" /><circle cx="305.332951003" cy="482.250079854" fill="rgb(0%,0%,100%)" r="0.7" /><circle cx="302.982113164" cy="484.113747992" fill="rgb(0%,0%,100%)" r="0.7" /><circle cx="300.595354105" cy="485.931199849" fill="rgb(0%,0%,100%)" r="0.7" /><circle cx="298.175654049" cy="487.704561154" fill="rgb(0%,0%,100%)" r="0.7" /><circle cx="295.725627917" cy="489.435789095" fill="rgb(0%,0%,100%)" r="0.7" /><circle cx="293.247579439" cy="491.126673314" fill="rgb(0%,0%,100%)" r="0.7" /><circle cx="290.743543319" cy="492.778840805" fill="rgb(0%,0%,100%)" r="0.7" /><circle cx="288.215322043" cy="494.393759671" fill="rgb(0%,0%,100%)" r="0.7" /><circle cx="285.664505039" cy="495.972749231" fill="rgb(0%,0%,100%)" r="0.7" /><circle cx="283.092506704" cy="497.516973057" fill="rgb(0%,0%,100%)" r="0.7" /><circle cx="280.50054194" cy="499.027464246" fill="rgb(0%,0%,100%)" r="0.7" /><circle cx="277.88968064" cy="500.505096161" fill="rgb(0%,0%,100%)" r="0.7" /><circle cx="275.260894936" cy="501.950553507" fill="rgb(0%,0%,100%)" r="0.7" /><circle cx="272.61495124" cy="503.364377837" fill="rgb(0%,0%,100%)" r="0.7" /><circle cx="269.952507558" cy="504.746881532" fill="rgb(0%,0%,100%)" r="0.7" /><circle cx="267.27405644" cy="506.098120921" fill="rgb(0%,0%,100%)" r="0.7" /><circle cx="264.579918732" cy="507.417791754" fill="rgb(0%,0%,100%)" r="0.7" /><circle cx="261.870166264" cy="508.705057681" fill="rgb(0%,0%,100%)" r="0.7" /><circle cx="259.144430856" cy="509.958175149" fill="rgb(0%,0%,100%)" r="0.7" /><circle cx="256.401585001" cy="511.173327351" fill="rgb(0%,0%,100%)" r="0.7" /><circle cx="253.637" cy="512.338" fill="rgb(0%,0%,100%)" r="0.7" /></svg>