<?xml version="1.0" encoding="utf-8" ?>
<svg baseProfile="full" height="100%" version="1.1" width="100%" xmlns="http://www.w3.org/2000/svg" xmlns:ev="http://www.w3.org/2001/xml-events" xmlns:xlink="http://www.w3.org/1999/xlink"><defs /><circle cx="321.940455743" cy="318.352191363" fill="rgb(100%,0%,0%)" r="0.7" /><circle cx="318.954329335" cy="318.626352741" fill="rgb(100%,0%,0%)" r="0.7" /><circle cx="316.003207145" cy="319.161552634" fill="rgb(100%,0%,0%)" r="0.7" /><circle cx="313.09703168" cy="319.90388138" fill="rgb(100%,0%,0%)" r="0.7" /><circle cx="310.241707699" cy="320.822863091" fill="rgb(100%,0%,0%)" r="0.7" /><circle cx="307.44092207" cy="321.896922203" fill="rgb(100%,0%,0%)" r="0.7" /><circle cx="304.697046195" cy="323.109129744" fill="rgb(100%,0%,0%)" r="0.7" /><circle cx="302.011409315" cy="324.445500307" fill="rgb(100%,0%,0%)" r="0.7" /><circle cx="299.384560119" cy="325.894123449" fill="rgb(100%,0%,0%)" r="0.7" /><circle cx="296.81653036" cy="327.444619222" fill="rgb(100%,0%,0%)" r="0.7" /><circle cx="294.30682006" cy="329.0879114" fill="rgb(100%,0%,0%)" r="0.7" /><circle cx="291.854632642" cy="330.815941459" fill="rgb(100%,0%,0%)" r="0.7" /><circle cx="289.458961131" cy="332.621500054" fill="rgb(100%,0%,0%)" r="0.7" /><circle cx="287.118566872" cy="334.498169063" fill="rgb(100%,0%,0%)" r="0.7" /><circle cx="284.832097106" cy="336.440179841" fill="rgb(100%,0%,0%)" r="0.7" /><circle cx="282.598097497" cy="338.442356429" fill="rgb(100%,0%,0%)" r="0.7" /><circle cx="280.415078364" cy="340.50001928" fill="rgb(100%,0%,0%)" r="0.7" /><circle cx="278.281524059" cy="342.608939867" fill="rgb(100%,0%,0%)" r="0.7" /><circle cx="276.195893673" cy="344.765310854" fill="rgb(100%,0%,0%)" r="0.7" /><circle cx="274.156724393" cy="346.965609798" fill="rgb(100%,0%,0%)" r="0.7" /><circle cx="272.162472295" cy="349.206741362" fill="rgb(100%,0%,0%)" r="0.7" /><circle cx="270.211682243" cy="351.485834603" fill="rgb(100%,0%,0%)" r="0.7" /><circle cx="268.302948664" cy="353.800256459" fill="rgb(100%,0%,0%)" r="0.7" /><circle cx="266.434905775" cy="356.147600873" fill="rgb(100%,0%,0%)" r="0.7" /><circle cx="264.606169576" cy="358.525746515" fill="rgb(100%,0%,0%)" r="0.7" /><circle cx="262.815484565" cy="360.932651859" fill="rgb(100%,0%,0%)" r="0.7" /><circle cx="261.061587932" cy="363.366511556" fill="rgb(100%,0%,0%)" r="0.7" /><circle cx="259.343279871" cy="365.825650092" fill="rgb(100%,0%,0%)" r="0.7" /><circle cx="257.659438627" cy="368.308480834" fill="rgb(100%,0%,0%)" r="0.7" /><circle cx="256.008927447" cy="370.813628428" fill="rgb(100%,0%,0%)" r="0.7" /><circle cx="254.390719309" cy="373.339731434" fill="rgb(100%,0%,0%)" r="0.7" /><circle cx="252.803771072" cy="375.88562058" fill="rgb(100%,0%,0%)" r="0.7" /><circle cx="251.189729795" cy="378.413811069" fill="rgb(100%,0%,0%)" r="0.7" /><circle cx="249.699104338" cy="381.017024446" fill="rgb(100%,0%,0%)" r="0.7" /><circle cx="248.307632083" cy="383.674629942" fill="rgb(100%,0%,0%)" r="0.7" /><circle cx="247.004117231" cy="386.37650262" fill="rgb(100%,0%,0%)" r="0.7" /><circle cx="245.782837269" cy="389.116545763" fill="rgb(100%,0%,0%)" r="0.7" /><circle cx="244.640370771" cy="391.89038915" fill="rgb(100%,0%,0%)" r="0.7" /><circle cx="243.574511073" cy="394.694560022" fill="rgb(100%,0%,0%)" r="0.7" /><circle cx="242.583752265" cy="397.526153266" fill="rgb(100%,0%,0%)" r="0.7" /><circle cx="241.667047207" cy="400.382570595" fill="rgb(100%,0%,0%)" r="0.7" /><circle cx="240.823622208" cy="403.261486905" fill="rgb(100%,0%,0%)" r="0.7" /><circle cx="240.052899049" cy="406.160712727" fill="rgb(100%,0%,0%)" r="0.7" /><circle cx="239.354413992" cy="409.07818999" fill="rgb(100%,0%,0%)" r="0.7" /><circle cx="238.727775007" cy="412.011944609" fill="rgb(100%,0%,0%)" r="0.7" /><circle cx="238.172628996" cy="414.960050015" fill="rgb(100%,0%,0%)" r="0.7" /><circle cx="237.688622653" cy="417.920681765" fill="rgb(100%,0%,0%)" r="0.7" /><circle cx="237.275399883" cy="420.892017036" fill="rgb(100%,0%,0%)" r="0.7" /><circle cx="236.932574352" cy="423.872293418" fill="rgb(100%,0%,0%)" r="0.7" /><circle cx="236.659721063" cy="426.859792903" fill="rgb(100%,0%,0%)" r="0.7" /><circle cx="236.456369312" cy="429.85281915" fill="rgb(100%,0%,0%)" r="0.7" /><circle cx="236.321992774" cy="432.849741796" fill="rgb(100%,0%,0%)" r="0.7" /><circle cx="236.908018625" cy="433.887094923" fill="rgb(100%,0%,0%)" r="0.7" /><circle cx="321.940455743" cy="318.352191363" fill="rgb(0%,0%,100%)" r="0.7" /><circle cx="324.924717452" cy="318.567030868" fill="rgb(0%,0%,100%)" r="0.7" /><circle cx="327.808116672" cy="319.377524688" fill="rgb(0%,0%,100%)" r="0.7" /><circle cx="330.418295182" cy="320.836923055" fill="rgb(0%,0%,100%)" r="0.7" /><circle cx="332.457380737" cy="323.018279517" fill="rgb(0%,0%,100%)" r="0.7" /><circle cx="333.676215642" cy="325.745739695" fill="rgb(0%,0%,100%)" r="0.7" /><circle cx="334.064392284" cy="328.711699766" fill="rgb(0%,0%,100%)" r="0.7" /><circle cx="333.76432655" cy="331.69369987" fill="rgb(0%,0%,100%)" r="0.7" /><circle cx="333.688706431" cy="334.689364106" fill="rgb(0%,0%,100%)" r="0.7" /><circle cx="334.260337672" cy="337.627113674" fill="rgb(0%,0%,100%)" r="0.7" /><circle cx="333.969293558" cy="340.57673346" fill="rgb(0%,0%,100%)" r="0.7" /><circle cx="332.12230794" cy="342.889925784" fill="rgb(0%,0%,100%)" r="0.7" /><circle cx="329.64478325" cy="344.575056234" fill="rgb(0%,0%,100%)" r="0.7" /><circle cx="326.95898055" cy="345.895634526" fill="rgb(0%,0%,100%)" r="0.7" /><circle cx="324.006714501" cy="346.187681347" fill="rgb(0%,0%,100%)" r="0.7" /><circle cx="321.362446528" cy="344.838450765" fill="rgb(0%,0%,100%)" r="0.7" /><circle cx="318.409688923" cy="344.391567536" fill="rgb(0%,0%,100%)" r="0.7" /><circle cx="315.811409245" cy="345.469072709" fill="rgb(0%,0%,100%)" r="0.7" /><circle cx="313.673729838" cy="347.573771219" fill="rgb(0%,0%,100%)" r="0.7" /><circle cx="311.592998579" cy="349.734804199" fill="rgb(0%,0%,100%)" r="0.7" /><circle cx="309.567021474" cy="351.94726275" fill="rgb(0%,0%,100%)" r="0.7" /><circle cx="307.593763939" cy="354.206877695" fill="rgb(0%,0%,100%)" r="0.7" /><circle cx="305.671383281" cy="356.509939949" fill="rgb(0%,0%,100%)" r="0.7" /><circle cx="303.798250723" cy="358.853242827" fill="rgb(0%,0%,100%)" r="0.7" /><circle cx="301.972987626" cy="361.234023637" fill="rgb(0%,0%,100%)" r="0.7" /><circle cx="300.194490884" cy="363.649945191" fill="rgb(0%,0%,100%)" r="0.7" /><circle cx="298.461999054" cy="366.099068234" fill="rgb(0%,0%,100%)" r="0.7" /><circle cx="296.775177482" cy="368.57987465" fill="rgb(0%,0%,100%)" r="0.7" /><circle cx="295.134303144" cy="371.091304219" fill="rgb(0%,0%,100%)" r="0.7" /><circle cx="293.540603202" cy="373.632925539" fill="rgb(0%,0%,100%)" r="0.7" /><circle cx="291.997125168" cy="376.205354968" fill="rgb(0%,0%,100%)" r="0.7" /><circle cx="290.511921768" cy="378.811829772" fill="rgb(0%,0%,100%)" r="0.7" /><circle cx="289.296030551" cy="381.546130988" fill="rgb(0%,0%,100%)" r="0.7" /><circle cx="288.291813773" cy="384.373023188" fill="rgb(0%,0%,100%)" r="0.7" /><circle cx="287.332375904" cy="387.215429551" fill="rgb(0%,0%,100%)" r="0.7" /><circle cx="286.421007701" cy="390.073619156" fill="rgb(0%,0%,100%)" r="0.7" /><circle cx="285.56142672" cy="392.947785555" fill="rgb(0%,0%,100%)" r="0.7" /><circle cx="284.757832112" cy="395.8381058" fill="rgb(0%,0%,100%)" r="0.7" /><circle cx="284.015030845" cy="398.744628299" fill="rgb(0%,0%,100%)" r="0.7" /><circle cx="283.338553244" cy="401.667278589" fill="rgb(0%,0%,100%)" r="0.7" /><circle cx="282.734822396" cy="404.605813309" fill="rgb(0%,0%,100%)" r="0.7" /><circle cx="282.211391181" cy="407.559708611" fill="rgb(0%,0%,100%)" r="0.7" /><circle cx="281.77726565" cy="410.527989329" fill="rgb(0%,0%,100%)" r="0.7" /><circle cx="281.44333864" cy="413.5091947" fill="rgb(0%,0%,100%)" r="0.7" /><circle cx="281.223109999" cy="416.500889438" fill="rgb(0%,0%,100%)" r="0.7" /><circle cx="281.133786999" cy="419.499283887" fill="rgb(0%,0%,100%)" r="0.7" /><circle cx="281.198279825" cy="422.498202422" fill="rgb(0%,0%,100%)" r="0.7" /><circle cx="281.449282781" cy="425.48707974" fill="rgb(0%,0%,100%)" r="0.7" /><circle cx="281.940127388" cy="428.445523975" fill="rgb(0%,0%,100%)" r="0.7" /><circle cx="282.806" cy="431.313" fill="rgb(0%,0%,100%)" r="0.7" /><circle cx="280.623059113" cy="429.923645083" fill="rgb(0%,0%,100%)" r="0.7" /><circle cx="278.092185311" cy="428.312844724" fill="rgb(0%,0%,100%)" r="0.7" /><circle cx="275.561311508" cy="426.702044365" fill="rgb(0%,0%,100%)" r="0.7" /><circle cx="273.030437706" cy="425.091244007" fill="rgb(0%,0%,100%)" r="0.7" /><circle cx="270.499563903" cy="423.480443648" fill="rgb(0%,0%,100%)" r="0.7" /><circle cx="267.9686901" cy="421.869643289" fill="rgb(0%,0%,100%)" r="0.7" /><circle cx="265.437816298" cy="420.258842931" fill="rgb(0%,0%,100%)" r="0.7" /><circle cx="262.906942495" cy="418.648042572" fill="rgb(0%,0%,100%)" r="0.7" /><circle cx="260.376068693" cy="417.037242214" fill="rgb(0%,0%,100%)" r="0.7" /><circle cx="257.84519489" cy="415.426441855" fill="rgb(0%,0%,100%)" r="0.7" /><circle cx="255.314321087" cy="413.815641496" fill="rgb(0%,0%,100%)" r="0.7" /><circle cx="252.783447285" cy="412.204841138" fill="rgb(0%,0%,100%)" r="0.7" /><circle cx="250.988527305" cy="414.4515791" fill="rgb(0%,0%,100%)" r="0.7" /><circle cx="249.22846372" cy="416.881018578" fill="rgb(0%,0%,100%)" r="0.7" /><circle cx="247.468400135" cy="419.310458056" fill="rgb(0%,0%,100%)" r="0.7" /><circle cx="245.70833655" cy="421.739897534" fill="rgb(0%,0%,100%)" r="0.7" /><circle cx="243.948272965" cy="424.169337012" fill="rgb(0%,0%,100%)" r="0.7" /><circle cx="242.18820938" cy="426.59877649" fill="rgb(0%,0%,100%)" r="0.7" /><circle cx="240.428145795" cy="429.028215968" fill="rgb(0%,0%,100%)" r="0.7" /><circle cx="238.66808221" cy="431.457655446" fill="rgb(0%,0%,100%)" r="0.7" /><circle cx="236.908018625" cy="433.887094923" fill="rgb(0%,0%,100%)" r="0.7" /></svg>