<?xml version="1.0" encoding="utf-8" ?>
<svg baseProfile="full" height="100%" version="1.1" width="100%" xmlns="http://www.w3.org/2000/svg" xmlns:ev="http://www.w3.org/2001/xml-events" xmlns:xlink="http://www.w3.org/1999/xlink"><defs /><circle cx="157.236538885" cy="280.340073607" fill="rgb(100%,0%,0%)" r="0.7" /><circle cx="156.282349354" cy="282.589713962" fill="rgb(100%,0%,0%)" r="0.7" /><circle cx="155.646470277" cy="285.521549189" fill="rgb(100%,0%,0%)" r="0.7" /><circle cx="155.0105912" cy="288.453384416" fill="rgb(100%,0%,0%)" r="0.7" /><circle cx="154.374712123" cy="291.385219644" fill="rgb(100%,0%,0%)" r="0.7" /><circle cx="153.738833046" cy="294.317054871" fill="rgb(100%,0%,0%)" r="0.7" /><circle cx="153.102953969" cy="297.248890098" fill="rgb(100%,0%,0%)" r="0.7" /><circle cx="152.467074892" cy="300.180725325" fill="rgb(100%,0%,0%)" r="0.7" /><circle cx="150.651499063" cy="302.077598081" fill="rgb(100%,0%,0%)" r="0.7" /><circle cx="147.82736058" cy="303.089646415" fill="rgb(100%,0%,0%)" r="0.7" /><circle cx="145.003222098" cy="304.101694749" fill="rgb(100%,0%,0%)" r="0.7" /><circle cx="142.179083615" cy="305.113743083" fill="rgb(100%,0%,0%)" r="0.7" /><circle cx="139.354945132" cy="306.125791418" fill="rgb(100%,0%,0%)" r="0.7" /><circle cx="136.53080665" cy="307.137839752" fill="rgb(100%,0%,0%)" r="0.7" /><circle cx="133.706668167" cy="308.149888086" fill="rgb(100%,0%,0%)" r="0.7" /><circle cx="130.882529684" cy="309.16193642" fill="rgb(100%,0%,0%)" r="0.7" /><circle cx="128.058391201" cy="310.173984754" fill="rgb(100%,0%,0%)" r="0.7" /><circle cx="125.234252719" cy="311.186033088" fill="rgb(100%,0%,0%)" r="0.7" /><circle cx="122.410114236" cy="312.198081422" fill="rgb(100%,0%,0%)" r="0.7" /><circle cx="121.216" cy="312.626" fill="rgb(100%,0%,0%)" r="0.7" /><circle cx="123.139860659" cy="314.927723332" fill="rgb(100%,0%,0%)" r="0.7" /><circle cx="125.110360378" cy="317.189795462" fill="rgb(100%,0%,0%)" r="0.7" /><circle cx="127.113976877" cy="319.422623287" fill="rgb(100%,0%,0%)" r="0.7" /><circle cx="129.146037358" cy="321.629543076" fill="rgb(100%,0%,0%)" r="0.7" /><circle cx="131.204019904" cy="323.812354817" fill="rgb(100%,0%,0%)" r="0.7" /><circle cx="133.28623161" cy="325.972041276" fill="rgb(100%,0%,0%)" r="0.7" /><circle cx="135.391549749" cy="328.109255701" fill="rgb(100%,0%,0%)" r="0.7" /><circle cx="137.519090854" cy="330.224325879" fill="rgb(100%,0%,0%)" r="0.7" /><circle cx="139.668204479" cy="332.317433819" fill="rgb(100%,0%,0%)" r="0.7" /><circle cx="141.83843822" cy="334.38868403" fill="rgb(100%,0%,0%)" r="0.7" /><circle cx="144.02936717" cy="336.438005776" fill="rgb(100%,0%,0%)" r="0.7" /><circle cx="146.240698299" cy="338.465298271" fill="rgb(100%,0%,0%)" r="0.7" /><circle cx="148.472191599" cy="340.470385333" fill="rgb(100%,0%,0%)" r="0.7" /><circle cx="150.723659324" cy="342.45303662" fill="rgb(100%,0%,0%)" r="0.7" /><circle cx="152.994931456" cy="344.412953236" fill="rgb(100%,0%,0%)" r="0.7" /><circle cx="155.285879135" cy="346.349800711" fill="rgb(100%,0%,0%)" r="0.7" /><circle cx="157.5964393" cy="348.263237121" fill="rgb(100%,0%,0%)" r="0.7" /><circle cx="159.926531883" cy="350.152850014" fill="rgb(100%,0%,0%)" r="0.7" /><circle cx="162.276085817" cy="352.018185459" fill="rgb(100%,0%,0%)" r="0.7" /><circle cx="164.645077786" cy="353.858782796" fill="rgb(100%,0%,0%)" r="0.7" /><circle cx="167.033478217" cy="355.674134625" fill="rgb(100%,0%,0%)" r="0.7" /><circle cx="169.441250847" cy="357.463690808" fill="rgb(100%,0%,0%)" r="0.7" /><circle cx="171.868399294" cy="359.226895555" fill="rgb(100%,0%,0%)" r="0.7" /><circle cx="174.314899409" cy="360.963139176" fill="rgb(100%,0%,0%)" r="0.7" /><circle cx="176.780743498" cy="362.671792778" fill="rgb(100%,0%,0%)" r="0.7" /><circle cx="179.265932555" cy="364.352203418" fill="rgb(100%,0%,0%)" r="0.7" /><circle cx="181.770434092" cy="366.003667341" fill="rgb(100%,0%,0%)" r="0.7" /><circle cx="184.294250711" cy="367.625477453" fill="rgb(100%,0%,0%)" r="0.7" /><circle cx="186.837349895" cy="369.21687798" fill="rgb(100%,0%,0%)" r="0.7" /><circle cx="189.399697392" cy="370.777088254" fill="rgb(100%,0%,0%)" r="0.7" /><circle cx="191.981253043" cy="372.305301054" fill="rgb(100%,0%,0%)" r="0.7" /><circle cx="194.581967112" cy="373.80068154" fill="rgb(100%,0%,0%)" r="0.7" /><circle cx="197.201776203" cy="375.262366226" fill="rgb(100%,0%,0%)" r="0.7" /><circle cx="199.840574441" cy="376.68944912" fill="rgb(100%,0%,0%)" r="0.7" /><circle cx="202.49828364" cy="378.081021759" fill="rgb(100%,0%,0%)" r="0.7" /><circle cx="205.174763039" cy="379.436126092" fill="rgb(100%,0%,0%)" r="0.7" /><circle cx="207.869870056" cy="380.753789227" fill="rgb(100%,0%,0%)" r="0.7" /><circle cx="210.583435202" cy="382.033012104" fill="rgb(100%,0%,0%)" r="0.7" /><circle cx="213.315256099" cy="383.272769291" fill="rgb(100%,0%,0%)" r="0.7" /><circle cx="216.065101173" cy="384.472013549" fill="rgb(100%,0%,0%)" r="0.7" /><circle cx="218.870142686" cy="385.505477259" fill="rgb(100%,0%,0%)" r="0.7" /><circle cx="221.824978314" cy="386.023480234" fill="rgb(100%,0%,0%)" r="0.7" /><circle cx="224.792672823" cy="386.461993977" fill="rgb(100%,0%,0%)" r="0.7" /><circle cx="227.770786775" cy="386.822989924" fill="rgb(100%,0%,0%)" r="0.7" /><circle cx="230.757931227" cy="387.099200849" fill="rgb(100%,0%,0%)" r="0.7" /><circle cx="233.752478523" cy="387.27733274" fill="rgb(100%,0%,0%)" r="0.7" /><circle cx="236.751647863" cy="387.336800763" fill="rgb(100%,0%,0%)" r="0.7" /><circle cx="157.236538885" cy="280.340073607" fill="rgb(0%,0%,100%)" r="0.7" /><circle cx="159.865151407" cy="281.785601655" fill="rgb(0%,0%,100%)" r="0.7" /><circle cx="162.438598933" cy="283.327066263" fill="rgb(0%,0%,100%)" r="0.7" /><circle cx="164.938980534" cy="284.984203586" fill="rgb(0%,0%,100%)" r="0.7" /><circle cx="167.335826811" cy="286.787397534" fill="rgb(0%,0%,100%)" r="0.7" /><circle cx="169.564791577" cy="288.792968362" fill="rgb(0%,0%,100%)" r="0.7" /><circle cx="171.216635453" cy="291.256550135" fill="rgb(0%,0%,100%)" r="0.7" /><circle cx="172.624188015" cy="293.903853672" fill="rgb(0%,0%,100%)" r="0.7" /><circle cx="174.361182877" cy="296.346737173" fill="rgb(0%,0%,100%)" r="0.7" /><circle cx="176.536036508" cy="298.386055296" fill="rgb(0%,0%,100%)" r="0.7" /><circle cx="178.995525062" cy="300.099651748" fill="rgb(0%,0%,100%)" r="0.7" /><circle cx="181.273571673" cy="302.050700499" fill="rgb(0%,0%,100%)" r="0.7" /><circle cx="183.42656253" cy="304.139293206" fill="rgb(0%,0%,100%)" r="0.7" /><circle cx="184.86155362" cy="306.758440523" fill="rgb(0%,0%,100%)" r="0.7" /><circle cx="186.483676209" cy="309.280528749" fill="rgb(0%,0%,100%)" r="0.7" /><circle cx="188.354551203" cy="311.623865131" fill="rgb(0%,0%,100%)" r="0.7" /><circle cx="190.91823628" cy="313.10261315" fill="rgb(0%,0%,100%)" r="0.7" /><circle cx="193.320911284" cy="314.889403594" fill="rgb(0%,0%,100%)" r="0.7" /><circle cx="195.31788755" cy="317.122153947" fill="rgb(0%,0%,100%)" r="0.7" /><circle cx="196.846908611" cy="319.695796632" fill="rgb(0%,0%,100%)" r="0.7" /><circle cx="198.176872935" cy="322.381262986" fill="rgb(0%,0%,100%)" r="0.7" /><circle cx="199.928918115" cy="324.812182097" fill="rgb(0%,0%,100%)" r="0.7" /><circle cx="202.063405853" cy="326.915158535" fill="rgb(0%,0%,100%)" r="0.7" /><circle cx="204.528645606" cy="328.617430478" fill="rgb(0%,0%,100%)" r="0.7" /><circle cx="207.328715637" cy="329.664482633" fill="rgb(0%,0%,100%)" r="0.7" /><circle cx="210.113242288" cy="330.773362305" fill="rgb(0%,0%,100%)" r="0.7" /><circle cx="212.176389771" cy="332.825651036" fill="rgb(0%,0%,100%)" r="0.7" /><circle cx="213.966826564" cy="335.232209621" fill="rgb(0%,0%,100%)" r="0.7" /><circle cx="215.912440313" cy="337.514913511" fill="rgb(0%,0%,100%)" r="0.7" /><circle cx="218.033858555" cy="339.634712429" fill="rgb(0%,0%,100%)" r="0.7" /><circle cx="220.373829083" cy="341.508132891" fill="rgb(0%,0%,100%)" r="0.7" /><circle cx="223.234198034" cy="342.281818768" fill="rgb(0%,0%,100%)" r="0.7" /><circle cx="225.804418232" cy="343.800797255" fill="rgb(0%,0%,100%)" r="0.7" /><circle cx="227.788039573" cy="346.03728184" fill="rgb(0%,0%,100%)" r="0.7" /><circle cx="229.555121429" cy="348.455036891" fill="rgb(0%,0%,100%)" r="0.7" /><circle cx="231.74993947" cy="350.494416939" fill="rgb(0%,0%,100%)" r="0.7" /><circle cx="234.263017293" cy="352.125773349" fill="rgb(0%,0%,100%)" r="0.7" /><circle cx="237.062887206" cy="353.195108282" fill="rgb(0%,0%,100%)" r="0.7" /><circle cx="239.839567574" cy="354.330178003" fill="rgb(0%,0%,100%)" r="0.7" /><circle cx="242.558695854" cy="355.596882294" fill="rgb(0%,0%,100%)" r="0.7" /><circle cx="245.21164514" cy="356.996867612" fill="rgb(0%,0%,100%)" r="0.7" /><circle cx="247.78875646" cy="358.531928011" fill="rgb(0%,0%,100%)" r="0.7" /><circle cx="250.278707865" cy="360.204590537" fill="rgb(0%,0%,100%)" r="0.7" /><circle cx="252.666962325" cy="362.019376734" fill="rgb(0%,0%,100%)" r="0.7" /><circle cx="254.931235797" cy="363.986420522" fill="rgb(0%,0%,100%)" r="0.7" /><circle cx="256.98913222" cy="366.160861945" fill="rgb(0%,0%,100%)" r="0.7" /><circle cx="258.222627363" cy="368.890702263" fill="rgb(0%,0%,100%)" r="0.7" /><circle cx="258.825342233" cy="371.821170343" fill="rgb(0%,0%,100%)" r="0.7" /><circle cx="258.58610214" cy="374.800093587" fill="rgb(0%,0%,100%)" r="0.7" /><circle cx="257.481645457" cy="377.578566421" fill="rgb(0%,0%,100%)" r="0.7" /><circle cx="255.714588827" cy="379.995411287" fill="rgb(0%,0%,100%)" r="0.7" /><circle cx="253.521781917" cy="382.037984424" fill="rgb(0%,0%,100%)" r="0.7" /><circle cx="251.06428086" cy="383.755441965" fill="rgb(0%,0%,100%)" r="0.7" /><circle cx="248.433814036" cy="385.195334554" fill="rgb(0%,0%,100%)" r="0.7" /><circle cx="245.67446162" cy="386.369013277" fill="rgb(0%,0%,100%)" r="0.7" /><circle cx="242.734919052" cy="386.954732366" fill="rgb(0%,0%,100%)" r="0.7" /><circle cx="239.749868039" cy="387.246018034" fill="rgb(0%,0%,100%)" r="0.7" /><circle cx="236.751647863" cy="387.336800763" fill="rgb(0%,0%,100%)" r="0.7" /></svg>