<?xml version="1.0" encoding="utf-8" ?>
<svg baseProfile="full" height="100%" version="1.1" width="100%" xmlns="http://www.w3.org/2000/svg" xmlns:ev="http://www.w3.org/2001/xml-events" xmlns:xlink="http://www.w3.org/1999/xlink"><defs /><circle cx="308.077658583" cy="395.175001244" fill="rgb(100%,0%,0%)" r="0.7" /><circle cx="306.556777886" cy="397.760852453" fill="rgb(100%,0%,0%)" r="0.7" /><circle cx="305.064358612" cy="400.363293013" fill="rgb(100%,0%,0%)" r="0.7" /><circle cx="303.582257795" cy="402.971628902" fill="rgb(100%,0%,0%)" r="0.7" /><circle cx="302.106023978" cy="405.583291565" fill="rgb(100%,0%,0%)" r="0.7" /><circle cx="300.633724751" cy="408.197165999" fill="rgb(100%,0%,0%)" r="0.7" /><circle cx="299.164307779" cy="410.812658272" fill="rgb(100%,0%,0%)" r="0.7" /><circle cx="297.697124906" cy="413.429408873" fill="rgb(100%,0%,0%)" r="0.7" /><circle cx="296.23174925" cy="416.047171659" fill="rgb(100%,0%,0%)" r="0.7" /><circle cx="294.767878693" cy="418.665776962" fill="rgb(100%,0%,0%)" r="0.7" /><circle cx="293.305291487" cy="421.285101215" fill="rgb(100%,0%,0%)" r="0.7" /><circle cx="291.843822055" cy="423.905047735" fill="rgb(100%,0%,0%)" r="0.7" /><circle cx="290.383342106" cy="426.525542704" fill="rgb(100%,0%,0%)" r="0.7" /><circle cx="288.923747533" cy="429.14653475" fill="rgb(100%,0%,0%)" r="0.7" /><circle cx="287.464963349" cy="431.767970585" fill="rgb(100%,0%,0%)" r="0.7" /><circle cx="286.006921239" cy="434.389825321" fill="rgb(100%,0%,0%)" r="0.7" /><circle cx="284.549571351" cy="437.012075369" fill="rgb(100%,0%,0%)" r="0.7" /><circle cx="283.092894303" cy="439.634674536" fill="rgb(100%,0%,0%)" r="0.7" /><circle cx="281.636855378" cy="442.257639035" fill="rgb(100%,0%,0%)" r="0.7" /><circle cx="280.181445783" cy="444.880985367" fill="rgb(100%,0%,0%)" r="0.7" /><circle cx="278.726734375" cy="447.504680181" fill="rgb(100%,0%,0%)" r="0.7" /><circle cx="277.280901229" cy="450.133161407" fill="rgb(100%,0%,0%)" r="0.7" /><circle cx="275.858685415" cy="452.774551376" fill="rgb(100%,0%,0%)" r="0.7" /><circle cx="274.38129669" cy="455.385490886" fill="rgb(100%,0%,0%)" r="0.7" /><circle cx="272.848301968" cy="457.964170192" fill="rgb(100%,0%,0%)" r="0.7" /><circle cx="271.259164095" cy="460.508630032" fill="rgb(100%,0%,0%)" r="0.7" /><circle cx="269.613203112" cy="463.016699809" fill="rgb(100%,0%,0%)" r="0.7" /><circle cx="267.909528694" cy="465.485924684" fill="rgb(100%,0%,0%)" r="0.7" /><circle cx="266.146940807" cy="467.913444104" fill="rgb(100%,0%,0%)" r="0.7" /><circle cx="264.323771197" cy="470.295785597" fill="rgb(100%,0%,0%)" r="0.7" /><circle cx="262.437573635" cy="472.628527318" fill="rgb(100%,0%,0%)" r="0.7" /><circle cx="260.484526325" cy="474.905563341" fill="rgb(100%,0%,0%)" r="0.7" /><circle cx="258.457897869" cy="477.117310176" fill="rgb(100%,0%,0%)" r="0.7" /><circle cx="256.342062731" cy="479.243675927" fill="rgb(100%,0%,0%)" r="0.7" /><circle cx="253.899083411" cy="480.949843499" fill="rgb(100%,0%,0%)" r="0.7" /><circle cx="251.049085387" cy="481.87226706" fill="rgb(100%,0%,0%)" r="0.7" /><circle cx="248.096897548" cy="482.398960652" fill="rgb(100%,0%,0%)" r="0.7" /><circle cx="245.111953978" cy="482.694311141" fill="rgb(100%,0%,0%)" r="0.7" /><circle cx="242.115396937" cy="482.832778545" fill="rgb(100%,0%,0%)" r="0.7" /><circle cx="239.115617499" cy="482.853100234" fill="rgb(100%,0%,0%)" r="0.7" /><circle cx="236.116742665" cy="482.775497373" fill="rgb(100%,0%,0%)" r="0.7" /><circle cx="233.122" cy="482.601" fill="rgb(100%,0%,0%)" r="0.7" /><circle cx="232.836" cy="485.016582463" fill="rgb(100%,0%,0%)" r="0.7" /><circle cx="232.836" cy="488.016582463" fill="rgb(100%,0%,0%)" r="0.7" /><circle cx="232.836" cy="491.016582463" fill="rgb(100%,0%,0%)" r="0.7" /><circle cx="232.836" cy="494.016582463" fill="rgb(100%,0%,0%)" r="0.7" /><circle cx="232.836" cy="497.016582463" fill="rgb(100%,0%,0%)" r="0.7" /><circle cx="232.836" cy="500.016582463" fill="rgb(100%,0%,0%)" r="0.7" /><circle cx="232.836" cy="503.016582463" fill="rgb(100%,0%,0%)" r="0.7" /><circle cx="233.029561704" cy="505.825834895" fill="rgb(100%,0%,0%)" r="0.7" /><circle cx="236.02924" cy="505.869768034" fill="rgb(100%,0%,0%)" r="0.7" /><circle cx="239.028918296" cy="505.913701172" fill="rgb(100%,0%,0%)" r="0.7" /><circle cx="242.028596592" cy="505.957634311" fill="rgb(100%,0%,0%)" r="0.7" /><circle cx="245.028274888" cy="506.001567449" fill="rgb(100%,0%,0%)" r="0.7" /><circle cx="248.027953184" cy="506.045500588" fill="rgb(100%,0%,0%)" r="0.7" /><circle cx="251.011555247" cy="505.796150347" fill="rgb(100%,0%,0%)" r="0.7" /><circle cx="253.977195364" cy="506.164308167" fill="rgb(100%,0%,0%)" r="0.7" /><circle cx="256.192999239" cy="508.137971395" fill="rgb(100%,0%,0%)" r="0.7" /><circle cx="258.491746054" cy="510.065253924" fill="rgb(100%,0%,0%)" r="0.7" /><circle cx="260.847456372" cy="511.922751055" fill="rgb(100%,0%,0%)" r="0.7" /><circle cx="263.235630609" cy="513.738369549" fill="rgb(100%,0%,0%)" r="0.7" /><circle cx="265.707435558" cy="515.4325152" fill="rgb(100%,0%,0%)" r="0.7" /><circle cx="268.388641585" cy="516.775102966" fill="rgb(100%,0%,0%)" r="0.7" /><circle cx="271.188904879" cy="517.848635385" fill="rgb(100%,0%,0%)" r="0.7" /><circle cx="274.068981137" cy="518.685707693" fill="rgb(100%,0%,0%)" r="0.7" /><circle cx="277.002493403" cy="519.31094546" fill="rgb(100%,0%,0%)" r="0.7" /><circle cx="279.971641705" cy="519.736080761" fill="rgb(100%,0%,0%)" r="0.7" /><circle cx="282.961327311" cy="519.977215194" fill="rgb(100%,0%,0%)" r="0.7" /><circle cx="285.957436912" cy="520.108693504" fill="rgb(100%,0%,0%)" r="0.7" /><circle cx="308.077658583" cy="395.175001244" fill="rgb(0%,0%,100%)" r="0.7" /><circle cx="309.263494823" cy="396.600253226" fill="rgb(0%,0%,100%)" r="0.7" /><circle cx="310.30058767" cy="399.415291134" fill="rgb(0%,0%,100%)" r="0.7" /><circle cx="312.753804524" cy="399.680275966" fill="rgb(0%,0%,100%)" r="0.7" /><circle cx="315.691620949" cy="399.072629148" fill="rgb(0%,0%,100%)" r="0.7" /><circle cx="318.629437374" cy="398.46498233" fill="rgb(0%,0%,100%)" r="0.7" /><circle cx="317.915599967" cy="400.520279529" fill="rgb(0%,0%,100%)" r="0.7" /><circle cx="316.441354231" cy="403.133062714" fill="rgb(0%,0%,100%)" r="0.7" /><circle cx="314.968995711" cy="405.74690378" fill="rgb(0%,0%,100%)" r="0.7" /><circle cx="313.498349054" cy="408.361715029" fill="rgb(0%,0%,100%)" r="0.7" /><circle cx="312.029359612" cy="410.97745701" fill="rgb(0%,0%,100%)" r="0.7" /><circle cx="310.562019578" cy="413.59412586" fill="rgb(0%,0%,100%)" r="0.7" /><circle cx="309.096357743" cy="416.211725391" fill="rgb(0%,0%,100%)" r="0.7" /><circle cx="307.632415843" cy="418.830290665" fill="rgb(0%,0%,100%)" r="0.7" /><circle cx="306.170265666" cy="421.449849798" fill="rgb(0%,0%,100%)" r="0.7" /><circle cx="304.70998628" cy="424.070462658" fill="rgb(0%,0%,100%)" r="0.7" /><circle cx="303.251690625" cy="426.692174716" fill="rgb(0%,0%,100%)" r="0.7" /><circle cx="301.795502754" cy="429.315062204" fill="rgb(0%,0%,100%)" r="0.7" /><circle cx="300.341578118" cy="431.939202759" fill="rgb(0%,0%,100%)" r="0.7" /><circle cx="298.89009741" cy="434.56469672" fill="rgb(0%,0%,100%)" r="0.7" /><circle cx="297.441278923" cy="437.19165899" fill="rgb(0%,0%,100%)" r="0.7" /><circle cx="295.995382109" cy="439.820232027" fill="rgb(0%,0%,100%)" r="0.7" /><circle cx="294.552725957" cy="442.450579378" fill="rgb(0%,0%,100%)" r="0.7" /><circle cx="293.113692051" cy="445.082917866" fill="rgb(0%,0%,100%)" r="0.7" /><circle cx="291.678769718" cy="447.717489338" fill="rgb(0%,0%,100%)" r="0.7" /><circle cx="290.248558314" cy="450.354636568" fill="rgb(0%,0%,100%)" r="0.7" /><circle cx="288.823857407" cy="452.994760146" fill="rgb(0%,0%,100%)" r="0.7" /><circle cx="287.405727604" cy="455.638402062" fill="rgb(0%,0%,100%)" r="0.7" /><circle cx="285.995616761" cy="458.286344412" fill="rgb(0%,0%,100%)" r="0.7" /><circle cx="284.595649679" cy="460.939673669" fill="rgb(0%,0%,100%)" r="0.7" /><circle cx="283.209142415" cy="463.600023911" fill="rgb(0%,0%,100%)" r="0.7" /><circle cx="281.841712452" cy="466.27025374" fill="rgb(0%,0%,100%)" r="0.7" /><circle cx="280.504674191" cy="468.955821433" fill="rgb(0%,0%,100%)" r="0.7" /><circle cx="279.229318505" cy="471.671034447" fill="rgb(0%,0%,100%)" r="0.7" /><circle cx="278.131552689" cy="474.461956271" fill="rgb(0%,0%,100%)" r="0.7" /><circle cx="277.282977816" cy="477.338415691" fill="rgb(0%,0%,100%)" r="0.7" /><circle cx="276.693711323" cy="480.278955511" fill="rgb(0%,0%,100%)" r="0.7" /><circle cx="276.37017838" cy="483.260442382" fill="rgb(0%,0%,100%)" r="0.7" /><circle cx="276.316397493" cy="486.258934235" fill="rgb(0%,0%,100%)" r="0.7" /><circle cx="276.536514625" cy="489.249777606" fill="rgb(0%,0%,100%)" r="0.7" /><circle cx="277.039409622" cy="492.206103683" fill="rgb(0%,0%,100%)" r="0.7" /><circle cx="277.848702592" cy="495.093212399" fill="rgb(0%,0%,100%)" r="0.7" /><circle cx="279.034688429" cy="497.845232218" fill="rgb(0%,0%,100%)" r="0.7" /><circle cx="280.797412728" cy="500.2592867" fill="rgb(0%,0%,100%)" r="0.7" /><circle cx="282.913995562" cy="502.377855207" fill="rgb(0%,0%,100%)" r="0.7" /><circle cx="285.400906802" cy="504.047631446" fill="rgb(0%,0%,100%)" r="0.7" /><circle cx="288.159740908" cy="505.21437625" fill="rgb(0%,0%,100%)" r="0.7" /><circle cx="291.089108864" cy="505.841361542" fill="rgb(0%,0%,100%)" r="0.7" /><circle cx="293.988721173" cy="506.486560447" fill="rgb(0%,0%,100%)" r="0.7" /><circle cx="296.570977458" cy="507.995763185" fill="rgb(0%,0%,100%)" r="0.7" /><circle cx="298.297489641" cy="510.39058441" fill="rgb(0%,0%,100%)" r="0.7" /><circle cx="298.059996207" cy="513.337383024" fill="rgb(0%,0%,100%)" r="0.7" /><circle cx="296.800053067" cy="516.035156418" fill="rgb(0%,0%,100%)" r="0.7" /><circle cx="294.598782724" cy="518.049637192" fill="rgb(0%,0%,100%)" r="0.7" /><circle cx="291.879253094" cy="519.295639066" fill="rgb(0%,0%,100%)" r="0.7" /><circle cx="288.949798705" cy="519.923629199" fill="rgb(0%,0%,100%)" r="0.7" /><circle cx="285.957436912" cy="520.108693504" fill="rgb(0%,0%,100%)" r="0.7" /></svg>