<?xml version="1.0" encoding="utf-8" ?>
<svg baseProfile="full" height="100%" version="1.1" width="100%" xmlns="http://www.w3.org/2000/svg" xmlns:ev="http://www.w3.org/2001/xml-events" xmlns:xlink="http://www.w3.org/1999/xlink"><defs /><circle cx="265.200700149" cy="339.650859075" fill="rgb(100%,0%,0%)" r="0.7" /><circle cx="262.757870425" cy="340.864332548" fill="rgb(100%,0%,0%)" r="0.7" /><circle cx="261.756400205" cy="343.686920115" fill="rgb(100%,0%,0%)" r="0.7" /><circle cx="260.764700046" cy="346.5181431" fill="rgb(100%,0%,0%)" r="0.7" /><circle cx="259.683409929" cy="349.316346734" fill="rgb(100%,0%,0%)" r="0.7" /><circle cx="258.492786824" cy="352.069680256" fill="rgb(100%,0%,0%)" r="0.7" /><circle cx="257.146300078" cy="354.749807049" fill="rgb(100%,0%,0%)" r="0.7" /><circle cx="255.603475962" cy="357.322332274" fill="rgb(100%,0%,0%)" r="0.7" /><circle cx="254.017232743" cy="359.868659988" fill="rgb(100%,0%,0%)" r="0.7" /><circle cx="252.413238189" cy="362.40383343" fill="rgb(100%,0%,0%)" r="0.7" /><circle cx="250.793419924" cy="364.928955182" fill="rgb(100%,0%,0%)" r="0.7" /><circle cx="249.158454373" cy="367.444273262" fill="rgb(100%,0%,0%)" r="0.7" /><circle cx="247.508448895" cy="369.949759483" fill="rgb(100%,0%,0%)" r="0.7" /><circle cx="245.843218551" cy="372.445151455" fill="rgb(100%,0%,0%)" r="0.7" /><circle cx="244.162346793" cy="374.930038359" fill="rgb(100%,0%,0%)" r="0.7" /><circle cx="242.465235727" cy="377.403853427" fill="rgb(100%,0%,0%)" r="0.7" /><circle cx="240.751095436" cy="379.865903479" fill="rgb(100%,0%,0%)" r="0.7" /><circle cx="239.018960326" cy="382.315325255" fill="rgb(100%,0%,0%)" r="0.7" /><circle cx="237.267659876" cy="384.751081316" fill="rgb(100%,0%,0%)" r="0.7" /><circle cx="235.495797148" cy="387.171917735" fill="rgb(100%,0%,0%)" r="0.7" /><circle cx="233.701704492" cy="389.576322961" fill="rgb(100%,0%,0%)" r="0.7" /><circle cx="231.883389532" cy="391.962460484" fill="rgb(100%,0%,0%)" r="0.7" /><circle cx="230.038460551" cy="394.328076305" fill="rgb(100%,0%,0%)" r="0.7" /><circle cx="228.164022736" cy="396.670369951" fill="rgb(100%,0%,0%)" r="0.7" /><circle cx="226.256527317" cy="398.985815935" fill="rgb(100%,0%,0%)" r="0.7" /><circle cx="228.625948188" cy="397.377228221" fill="rgb(100%,0%,0%)" r="0.7" /><circle cx="231.097030542" cy="395.67612505" fill="rgb(100%,0%,0%)" r="0.7" /><circle cx="233.568112896" cy="393.975021879" fill="rgb(100%,0%,0%)" r="0.7" /><circle cx="236.03919525" cy="392.273918707" fill="rgb(100%,0%,0%)" r="0.7" /><circle cx="238.510277604" cy="390.572815536" fill="rgb(100%,0%,0%)" r="0.7" /><circle cx="238.597477189" cy="392.888036234" fill="rgb(100%,0%,0%)" r="0.7" /><circle cx="238.287742891" cy="395.872004174" fill="rgb(100%,0%,0%)" r="0.7" /><circle cx="237.978008594" cy="398.855972114" fill="rgb(100%,0%,0%)" r="0.7" /><circle cx="237.668274296" cy="401.839940053" fill="rgb(100%,0%,0%)" r="0.7" /><circle cx="237.358539999" cy="404.823907993" fill="rgb(100%,0%,0%)" r="0.7" /><circle cx="237.048805701" cy="407.807875933" fill="rgb(100%,0%,0%)" r="0.7" /><circle cx="236.896" cy="409.28" fill="rgb(100%,0%,0%)" r="0.7" /><circle cx="265.200700149" cy="339.650859075" fill="rgb(0%,0%,100%)" r="0.7" /><circle cx="267.52619735" cy="341.494796887" fill="rgb(0%,0%,100%)" r="0.7" /><circle cx="269.09004206" cy="344.033238486" fill="rgb(0%,0%,100%)" r="0.7" /><circle cx="269.615640351" cy="346.976530246" fill="rgb(0%,0%,100%)" r="0.7" /><circle cx="269.563522604" cy="349.974051421" fill="rgb(0%,0%,100%)" r="0.7" /><circle cx="269.222198955" cy="352.953900843" fill="rgb(0%,0%,100%)" r="0.7" /><circle cx="268.703123492" cy="355.90834915" fill="rgb(0%,0%,100%)" r="0.7" /><circle cx="268.059609322" cy="358.838347325" fill="rgb(0%,0%,100%)" r="0.7" /><circle cx="267.320548794" cy="361.74577778" fill="rgb(0%,0%,100%)" r="0.7" /><circle cx="266.501625431" cy="364.631750984" fill="rgb(0%,0%,100%)" r="0.7" /><circle cx="265.606147886" cy="367.494885625" fill="rgb(0%,0%,100%)" r="0.7" /><circle cx="264.594230095" cy="370.318322795" fill="rgb(0%,0%,100%)" r="0.7" /><circle cx="263.381483982" cy="373.061725659" fill="rgb(0%,0%,100%)" r="0.7" /><circle cx="262.020700966" cy="375.73504072" fill="rgb(0%,0%,100%)" r="0.7" /><circle cx="260.549843085" cy="378.349536726" fill="rgb(0%,0%,100%)" r="0.7" /><circle cx="258.993395893" cy="380.914065969" fill="rgb(0%,0%,100%)" r="0.7" /><circle cx="257.368036569" cy="383.435524713" fill="rgb(0%,0%,100%)" r="0.7" /><circle cx="255.685623241" cy="385.919304813" fill="rgb(0%,0%,100%)" r="0.7" /><circle cx="253.954868825" cy="388.369661302" fill="rgb(0%,0%,100%)" r="0.7" /><circle cx="252.182334979" cy="390.78997812" fill="rgb(0%,0%,100%)" r="0.7" /><circle cx="250.373048847" cy="393.182953294" fill="rgb(0%,0%,100%)" r="0.7" /><circle cx="248.530894324" cy="395.550725764" fill="rgb(0%,0%,100%)" r="0.7" /><circle cx="246.658862187" cy="397.894950416" fill="rgb(0%,0%,100%)" r="0.7" /><circle cx="244.759190827" cy="400.216832474" fill="rgb(0%,0%,100%)" r="0.7" /><circle cx="242.833401457" cy="402.517108085" fill="rgb(0%,0%,100%)" r="0.7" /><circle cx="240.882209576" cy="404.795876931" fill="rgb(0%,0%,100%)" r="0.7" /><circle cx="238.905010745" cy="407.052109121" fill="rgb(0%,0%,100%)" r="0.7" /><circle cx="236.896" cy="409.28" fill="rgb(0%,0%,100%)" r="0.7" /></svg>