<?xml version="1.0" encoding="utf-8" ?>
<svg baseProfile="full" height="100%" version="1.1" width="100%" xmlns="http://www.w3.org/2000/svg" xmlns:ev="http://www.w3.org/2001/xml-events" xmlns:xlink="http://www.w3.org/1999/xlink"><defs /><circle cx="313.449438142" cy="294.745974646" fill="rgb(100%,0%,0%)" r="0.7" /><circle cx="310.523508177" cy="295.377427221" fill="rgb(100%,0%,0%)" r="0.7" /><circle cx="307.757240742" cy="296.520013918" fill="rgb(100%,0%,0%)" r="0.7" /><circle cx="305.778869928" cy="298.751068958" fill="rgb(100%,0%,0%)" r="0.7" /><circle cx="304.379010269" cy="301.401213487" fill="rgb(100%,0%,0%)" r="0.7" /><circle cx="303.292982113" cy="304.196693079" fill="rgb(100%,0%,0%)" r="0.7" /><circle cx="302.412194287" cy="307.064023392" fill="rgb(100%,0%,0%)" r="0.7" /><circle cx="301.679547419" cy="309.972922797" fill="rgb(100%,0%,0%)" r="0.7" /><circle cx="301.06058701" cy="312.908231366" fill="rgb(100%,0%,0%)" r="0.7" /><circle cx="300.532626066" cy="315.861306178" fill="rgb(100%,0%,0%)" r="0.7" /><circle cx="300.079756151" cy="318.826863108" fill="rgb(100%,0%,0%)" r="0.7" /><circle cx="299.690308461" cy="321.801431381" fill="rgb(100%,0%,0%)" r="0.7" /><circle cx="299.355412588" cy="324.782637699" fill="rgb(100%,0%,0%)" r="0.7" /><circle cx="299.068131986" cy="327.768814314" fill="rgb(100%,0%,0%)" r="0.7" /><circle cx="298.822918153" cy="330.7587505" fill="rgb(100%,0%,0%)" r="0.7" /><circle cx="298.61524787" cy="333.751547355" fill="rgb(100%,0%,0%)" r="0.7" /><circle cx="298.441375484" cy="336.746501988" fill="rgb(100%,0%,0%)" r="0.7" /><circle cx="298.298154683" cy="339.743071925" fill="rgb(100%,0%,0%)" r="0.7" /><circle cx="298.182910494" cy="342.740853416" fill="rgb(100%,0%,0%)" r="0.7" /><circle cx="298.093347322" cy="345.73949046" fill="rgb(100%,0%,0%)" r="0.7" /><circle cx="298.027474364" cy="348.738740255" fill="rgb(100%,0%,0%)" r="0.7" /><circle cx="297.983552833" cy="351.738428997" fill="rgb(100%,0%,0%)" r="0.7" /><circle cx="297.954642285" cy="354.738244619" fill="rgb(100%,0%,0%)" r="0.7" /><circle cx="297.837082965" cy="357.73591694" fill="rgb(100%,0%,0%)" r="0.7" /><circle cx="297.696169529" cy="360.732601962" fill="rgb(100%,0%,0%)" r="0.7" /><circle cx="297.536549507" cy="363.728338863" fill="rgb(100%,0%,0%)" r="0.7" /><circle cx="297.359511731" cy="366.723111914" fill="rgb(100%,0%,0%)" r="0.7" /><circle cx="297.165438221" cy="369.716830405" fill="rgb(100%,0%,0%)" r="0.7" /><circle cx="296.954256808" cy="372.709381546" fill="rgb(100%,0%,0%)" r="0.7" /><circle cx="296.725594993" cy="375.700662933" fill="rgb(100%,0%,0%)" r="0.7" /><circle cx="296.478849203" cy="378.690496551" fill="rgb(100%,0%,0%)" r="0.7" /><circle cx="296.213202362" cy="381.678701313" fill="rgb(100%,0%,0%)" r="0.7" /><circle cx="295.927625594" cy="384.665073627" fill="rgb(100%,0%,0%)" r="0.7" /><circle cx="295.620867615" cy="387.649343482" fill="rgb(100%,0%,0%)" r="0.7" /><circle cx="295.291424847" cy="390.63119532" fill="rgb(100%,0%,0%)" r="0.7" /><circle cx="294.937502192" cy="393.610236932" fill="rgb(100%,0%,0%)" r="0.7" /><circle cx="294.556953991" cy="396.5859941" fill="rgb(100%,0%,0%)" r="0.7" /><circle cx="294.147207064" cy="399.557866777" fill="rgb(100%,0%,0%)" r="0.7" /><circle cx="293.705150129" cy="402.52510682" fill="rgb(100%,0%,0%)" r="0.7" /><circle cx="293.226987981" cy="405.486730184" fill="rgb(100%,0%,0%)" r="0.7" /><circle cx="292.708022057" cy="408.441477125" fill="rgb(100%,0%,0%)" r="0.7" /><circle cx="292.142350849" cy="411.387631714" fill="rgb(100%,0%,0%)" r="0.7" /><circle cx="291.522410091" cy="414.322828414" fill="rgb(100%,0%,0%)" r="0.7" /><circle cx="290.838264578" cy="417.24370926" fill="rgb(100%,0%,0%)" r="0.7" /><circle cx="290.076479335" cy="420.145269078" fill="rgb(100%,0%,0%)" r="0.7" /><circle cx="289.218200332" cy="423.01967354" fill="rgb(100%,0%,0%)" r="0.7" /><circle cx="288.235676846" cy="425.853896298" fill="rgb(100%,0%,0%)" r="0.7" /><circle cx="287.085629997" cy="428.624013677" fill="rgb(100%,0%,0%)" r="0.7" /><circle cx="285.695306623" cy="431.280702499" fill="rgb(100%,0%,0%)" r="0.7" /><circle cx="284.378975741" cy="433.222436585" fill="rgb(100%,0%,0%)" r="0.7" /><circle cx="286.47457265" cy="431.075701018" fill="rgb(100%,0%,0%)" r="0.7" /><circle cx="288.57016956" cy="428.928965451" fill="rgb(100%,0%,0%)" r="0.7" /><circle cx="290.665766469" cy="426.782229884" fill="rgb(100%,0%,0%)" r="0.7" /><circle cx="292.761363378" cy="424.635494317" fill="rgb(100%,0%,0%)" r="0.7" /><circle cx="294.856960287" cy="422.48875875" fill="rgb(100%,0%,0%)" r="0.7" /><circle cx="296.418500233" cy="423.255128984" fill="rgb(100%,0%,0%)" r="0.7" /><circle cx="297.616289865" cy="426.005638027" fill="rgb(100%,0%,0%)" r="0.7" /><circle cx="298.814079497" cy="428.756147071" fill="rgb(100%,0%,0%)" r="0.7" /><circle cx="300.011869129" cy="431.506656114" fill="rgb(100%,0%,0%)" r="0.7" /><circle cx="301.209658761" cy="434.257165157" fill="rgb(100%,0%,0%)" r="0.7" /><circle cx="302.407448393" cy="437.0076742" fill="rgb(100%,0%,0%)" r="0.7" /><circle cx="303.316" cy="439.094" fill="rgb(100%,0%,0%)" r="0.7" /><circle cx="313.449438142" cy="294.745974646" fill="rgb(0%,0%,100%)" r="0.7" /><circle cx="316.381700732" cy="295.1845957" fill="rgb(0%,0%,100%)" r="0.7" /><circle cx="318.356697551" cy="297.350557451" fill="rgb(0%,0%,100%)" r="0.7" /><circle cx="318.84349762" cy="300.289149155" fill="rgb(0%,0%,100%)" r="0.7" /><circle cx="318.825356501" cy="303.288198566" fill="rgb(0%,0%,100%)" r="0.7" /><circle cx="318.844434117" cy="306.288125499" fill="rgb(0%,0%,100%)" r="0.7" /><circle cx="318.867764984" cy="309.288040333" fill="rgb(0%,0%,100%)" r="0.7" /><circle cx="318.893545542" cy="312.287937773" fill="rgb(0%,0%,100%)" r="0.7" /><circle cx="318.920978234" cy="315.287812467" fill="rgb(0%,0%,100%)" r="0.7" /><circle cx="318.949627128" cy="318.287670172" fill="rgb(0%,0%,100%)" r="0.7" /><circle cx="318.979223566" cy="321.287530307" fill="rgb(0%,0%,100%)" r="0.7" /><circle cx="319.009588107" cy="324.287375203" fill="rgb(0%,0%,100%)" r="0.7" /><circle cx="319.040594662" cy="327.28721739" fill="rgb(0%,0%,100%)" r="0.7" /><circle cx="319.072150779" cy="330.287052787" fill="rgb(0%,0%,100%)" r="0.7" /><circle cx="319.104186921" cy="333.286884314" fill="rgb(0%,0%,100%)" r="0.7" /><circle cx="319.13664968" cy="336.286706849" fill="rgb(0%,0%,100%)" r="0.7" /><circle cx="319.169497954" cy="339.286534087" fill="rgb(0%,0%,100%)" r="0.7" /><circle cx="319.202699886" cy="342.286352867" fill="rgb(0%,0%,100%)" r="0.7" /><circle cx="319.236231808" cy="345.286157581" fill="rgb(0%,0%,100%)" r="0.7" /><circle cx="319.270078118" cy="348.28597139" fill="rgb(0%,0%,100%)" r="0.7" /><circle cx="319.304231833" cy="351.285788936" fill="rgb(0%,0%,100%)" r="0.7" /><circle cx="319.338699881" cy="354.285594618" fill="rgb(0%,0%,100%)" r="0.7" /><circle cx="319.373528744" cy="357.285375403" fill="rgb(0%,0%,100%)" r="0.7" /><circle cx="319.532791648" cy="360.280372189" fill="rgb(0%,0%,100%)" r="0.7" /><circle cx="319.638585704" cy="363.278380061" fill="rgb(0%,0%,100%)" r="0.7" /><circle cx="319.654871858" cy="366.278237665" fill="rgb(0%,0%,100%)" r="0.7" /><circle cx="319.589145404" cy="369.277433206" fill="rgb(0%,0%,100%)" r="0.7" /><circle cx="319.448043306" cy="372.27403927" fill="rgb(0%,0%,100%)" r="0.7" /><circle cx="319.237442038" cy="375.266575227" fill="rgb(0%,0%,100%)" r="0.7" /><circle cx="318.962548824" cy="378.253901722" fill="rgb(0%,0%,100%)" r="0.7" /><circle cx="318.627983712" cy="381.235141626" fill="rgb(0%,0%,100%)" r="0.7" /><circle cx="318.237850916" cy="384.209626236" fill="rgb(0%,0%,100%)" r="0.7" /><circle cx="317.795801985" cy="387.176842795" fill="rgb(0%,0%,100%)" r="0.7" /><circle cx="317.305088362" cy="390.136407069" fill="rgb(0%,0%,100%)" r="0.7" /><circle cx="316.768609422" cy="393.088021803" fill="rgb(0%,0%,100%)" r="0.7" /><circle cx="316.188950586" cy="396.031461547" fill="rgb(0%,0%,100%)" r="0.7" /><circle cx="315.56841442" cy="398.966562291" fill="rgb(0%,0%,100%)" r="0.7" /><circle cx="314.909052876" cy="401.893182573" fill="rgb(0%,0%,100%)" r="0.7" /><circle cx="314.212681605" cy="404.811226935" fill="rgb(0%,0%,100%)" r="0.7" /><circle cx="313.480906983" cy="407.720591443" fill="rgb(0%,0%,100%)" r="0.7" /><circle cx="312.715131103" cy="410.621185499" fill="rgb(0%,0%,100%)" r="0.7" /><circle cx="311.916552897" cy="413.512939664" fill="rgb(0%,0%,100%)" r="0.7" /><circle cx="311.086192317" cy="416.395708168" fill="rgb(0%,0%,100%)" r="0.7" /><circle cx="310.224845167" cy="419.26938844" fill="rgb(0%,0%,100%)" r="0.7" /><circle cx="309.333097443" cy="422.133780298" fill="rgb(0%,0%,100%)" r="0.7" /><circle cx="308.411268924" cy="424.988617003" fill="rgb(0%,0%,100%)" r="0.7" /><circle cx="307.459320304" cy="427.833567545" fill="rgb(0%,0%,100%)" r="0.7" /><circle cx="306.476726463" cy="430.668073987" fill="rgb(0%,0%,100%)" r="0.7" /><circle cx="305.462100108" cy="433.491279613" fill="rgb(0%,0%,100%)" r="0.7" /><circle cx="304.41222038" cy="436.301536559" fill="rgb(0%,0%,100%)" r="0.7" /><circle cx="303.316" cy="439.094" fill="rgb(0%,0%,100%)" r="0.7" /></svg>