<?xml version="1.0" encoding="utf-8" ?>
<svg baseProfile="full" height="100%" version="1.1" width="100%" xmlns="http://www.w3.org/2000/svg" xmlns:ev="http://www.w3.org/2001/xml-events" xmlns:xlink="http://www.w3.org/1999/xlink"><defs /><circle cx="345.799470085" cy="283.901083115" fill="rgb(100%,0%,0%)" r="0.7" /><circle cx="342.802208128" cy="283.997942809" fill="rgb(100%,0%,0%)" r="0.7" /><circle cx="339.835025958" cy="284.426623561" fill="rgb(100%,0%,0%)" r="0.7" /><circle cx="336.963314626" cy="285.282362823" fill="rgb(100%,0%,0%)" r="0.7" /><circle cx="334.309686477" cy="286.66908445" fill="rgb(100%,0%,0%)" r="0.7" /><circle cx="332.060814489" cy="288.642209101" fill="rgb(100%,0%,0%)" r="0.7" /><circle cx="330.39580164" cy="291.127782877" fill="rgb(100%,0%,0%)" r="0.7" /><circle cx="329.263305125" cy="293.90431653" fill="rgb(100%,0%,0%)" r="0.7" /><circle cx="328.298923961" cy="296.744792069" fill="rgb(100%,0%,0%)" r="0.7" /><circle cx="327.447853526" cy="299.621380659" fill="rgb(100%,0%,0%)" r="0.7" /><circle cx="326.68882057" cy="302.523680887" fill="rgb(100%,0%,0%)" r="0.7" /><circle cx="326.006760252" cy="305.445038802" fill="rgb(100%,0%,0%)" r="0.7" /><circle cx="325.390601876" cy="308.381020613" fill="rgb(100%,0%,0%)" r="0.7" /><circle cx="324.83198539" cy="311.328512629" fill="rgb(100%,0%,0%)" r="0.7" /><circle cx="324.324455082" cy="314.285236359" fill="rgb(100%,0%,0%)" r="0.7" /><circle cx="323.862929042" cy="317.249513456" fill="rgb(100%,0%,0%)" r="0.7" /><circle cx="323.443363027" cy="320.220005543" fill="rgb(100%,0%,0%)" r="0.7" /><circle cx="323.062493049" cy="323.195703575" fill="rgb(100%,0%,0%)" r="0.7" /><circle cx="322.71767323" cy="326.175806113" fill="rgb(100%,0%,0%)" r="0.7" /><circle cx="322.406756376" cy="329.159633707" fill="rgb(100%,0%,0%)" r="0.7" /><circle cx="322.127997949" cy="332.146643736" fill="rgb(100%,0%,0%)" r="0.7" /><circle cx="321.879993601" cy="335.136369828" fill="rgb(100%,0%,0%)" r="0.7" /><circle cx="321.661629941" cy="338.128394722" fill="rgb(100%,0%,0%)" r="0.7" /><circle cx="321.472044198" cy="341.122390973" fill="rgb(100%,0%,0%)" r="0.7" /><circle cx="321.310603619" cy="344.118032803" fill="rgb(100%,0%,0%)" r="0.7" /><circle cx="321.176883378" cy="347.115042643" fill="rgb(100%,0%,0%)" r="0.7" /><circle cx="321.070657184" cy="350.113152605" fill="rgb(100%,0%,0%)" r="0.7" /><circle cx="320.991891417" cy="353.112108645" fill="rgb(100%,0%,0%)" r="0.7" /><circle cx="320.940745865" cy="356.111664279" fill="rgb(100%,0%,0%)" r="0.7" /><circle cx="320.917580446" cy="359.11156231" fill="rgb(100%,0%,0%)" r="0.7" /><circle cx="320.922967942" cy="362.111551875" fill="rgb(100%,0%,0%)" r="0.7" /><circle cx="320.95771451" cy="365.111340676" fill="rgb(100%,0%,0%)" r="0.7" /><circle cx="321.022888875" cy="368.110620833" fill="rgb(100%,0%,0%)" r="0.7" /><circle cx="321.119862768" cy="371.109028447" fill="rgb(100%,0%,0%)" r="0.7" /><circle cx="321.250368915" cy="374.106185447" fill="rgb(100%,0%,0%)" r="0.7" /><circle cx="321.416573012" cy="377.101560301" fill="rgb(100%,0%,0%)" r="0.7" /><circle cx="321.621182696" cy="380.094542538" fill="rgb(100%,0%,0%)" r="0.7" /><circle cx="321.867595405" cy="383.084378068" fill="rgb(100%,0%,0%)" r="0.7" /><circle cx="322.160106042" cy="386.07006541" fill="rgb(100%,0%,0%)" r="0.7" /><circle cx="322.504206721" cy="389.050201845" fill="rgb(100%,0%,0%)" r="0.7" /><circle cx="322.907069267" cy="392.022992847" fill="rgb(100%,0%,0%)" r="0.7" /><circle cx="323.378236776" cy="394.985694317" fill="rgb(100%,0%,0%)" r="0.7" /><circle cx="323.93082184" cy="397.934235235" fill="rgb(100%,0%,0%)" r="0.7" /><circle cx="324.583562204" cy="400.862190012" fill="rgb(100%,0%,0%)" r="0.7" /><circle cx="325.364594541" cy="403.758400606" fill="rgb(100%,0%,0%)" r="0.7" /><circle cx="326.319205356" cy="406.601773113" fill="rgb(100%,0%,0%)" r="0.7" /><circle cx="327.527226527" cy="409.346043026" fill="rgb(100%,0%,0%)" r="0.7" /><circle cx="329.145489685" cy="411.865449257" fill="rgb(100%,0%,0%)" r="0.7" /><circle cx="331.46944368" cy="413.716831446" fill="rgb(100%,0%,0%)" r="0.7" /><circle cx="334.420846543" cy="413.971709084" fill="rgb(100%,0%,0%)" r="0.7" /><circle cx="345.799470085" cy="283.901083115" fill="rgb(0%,0%,100%)" r="0.7" /><circle cx="348.794291242" cy="284.06367722" fill="rgb(0%,0%,100%)" r="0.7" /><circle cx="351.770924753" cy="284.433499369" fill="rgb(0%,0%,100%)" r="0.7" /><circle cx="354.721685234" cy="284.97300024" fill="rgb(0%,0%,100%)" r="0.7" /><circle cx="357.642905295" cy="285.654838492" fill="rgb(0%,0%,100%)" r="0.7" /><circle cx="360.532985025" cy="286.458795963" fill="rgb(0%,0%,100%)" r="0.7" /><circle cx="363.391209401" cy="287.369657917" fill="rgb(0%,0%,100%)" r="0.7" /><circle cx="366.217292419" cy="288.375835306" fill="rgb(0%,0%,100%)" r="0.7" /><circle cx="369.011142117" cy="289.468448456" fill="rgb(0%,0%,100%)" r="0.7" /><circle cx="371.77255671" cy="290.640631802" fill="rgb(0%,0%,100%)" r="0.7" /><circle cx="374.501241491" cy="291.887129474" fill="rgb(0%,0%,100%)" r="0.7" /><circle cx="377.196700898" cy="293.203969162" fill="rgb(0%,0%,100%)" r="0.7" /><circle cx="379.858156623" cy="294.588228791" fill="rgb(0%,0%,100%)" r="0.7" /><circle cx="382.484555774" cy="296.03791582" fill="rgb(0%,0%,100%)" r="0.7" /><circle cx="385.074457972" cy="297.551840151" fill="rgb(0%,0%,100%)" r="0.7" /><circle cx="387.625991218" cy="299.12956885" fill="rgb(0%,0%,100%)" r="0.7" /><circle cx="390.136752154" cy="300.771397213" fill="rgb(0%,0%,100%)" r="0.7" /><circle cx="392.603679175" cy="302.47835176" fill="rgb(0%,0%,100%)" r="0.7" /><circle cx="395.02291492" cy="304.252247846" fill="rgb(0%,0%,100%)" r="0.7" /><circle cx="397.389546464" cy="306.095740285" fill="rgb(0%,0%,100%)" r="0.7" /><circle cx="399.697258342" cy="308.012407195" fill="rgb(0%,0%,100%)" r="0.7" /><circle cx="401.937961381" cy="310.00697131" fill="rgb(0%,0%,100%)" r="0.7" /><circle cx="404.101032181" cy="312.08542667" fill="rgb(0%,0%,100%)" r="0.7" /><circle cx="406.172309124" cy="314.255272332" fill="rgb(0%,0%,100%)" r="0.7" /><circle cx="408.132573996" cy="316.52578893" fill="rgb(0%,0%,100%)" r="0.7" /><circle cx="409.955039335" cy="318.908093279" fill="rgb(0%,0%,100%)" r="0.7" /><circle cx="411.601553318" cy="321.41495422" fill="rgb(0%,0%,100%)" r="0.7" /><circle cx="413.016333873" cy="324.058951408" fill="rgb(0%,0%,100%)" r="0.7" /><circle cx="414.117209064" cy="326.847350931" fill="rgb(0%,0%,100%)" r="0.7" /><circle cx="414.78635436" cy="329.767974192" fill="rgb(0%,0%,100%)" r="0.7" /><circle cx="414.875158194" cy="332.760652363" fill="rgb(0%,0%,100%)" r="0.7" /><circle cx="414.256817627" cy="335.688075759" fill="rgb(0%,0%,100%)" r="0.7" /><circle cx="412.925199235" cy="338.367794972" fill="rgb(0%,0%,100%)" r="0.7" /><circle cx="411.019193503" cy="340.677540695" fill="rgb(0%,0%,100%)" r="0.7" /><circle cx="408.722840054" cy="342.603090224" fill="rgb(0%,0%,100%)" r="0.7" /><circle cx="406.180634729" cy="344.192527211" fill="rgb(0%,0%,100%)" r="0.7" /><circle cx="403.5" cy="345.5" fill="rgb(0%,0%,100%)" r="0.7" /><circle cx="400.769461968" cy="346.742311053" fill="rgb(0%,0%,100%)" r="0.7" /><circle cx="398.082427439" cy="348.076119887" fill="rgb(0%,0%,100%)" r="0.7" /><circle cx="395.441982598" cy="349.499905864" fill="rgb(0%,0%,100%)" r="0.7" /><circle cx="392.850913056" cy="351.011698784" fill="rgb(0%,0%,100%)" r="0.7" /><circle cx="390.311706449" cy="352.609078894" fill="rgb(0%,0%,100%)" r="0.7" /><circle cx="387.826492638" cy="354.289221292" fill="rgb(0%,0%,100%)" r="0.7" /><circle cx="385.396981584" cy="356.048961154" fill="rgb(0%,0%,100%)" r="0.7" /><circle cx="383.024458879" cy="357.884834274" fill="rgb(0%,0%,100%)" r="0.7" /><circle cx="380.709778802" cy="359.793124723" fill="rgb(0%,0%,100%)" r="0.7" /><circle cx="378.453332336" cy="361.769940452" fill="rgb(0%,0%,100%)" r="0.7" /><circle cx="376.255058311" cy="363.811260273" fill="rgb(0%,0%,100%)" r="0.7" /><circle cx="374.11445052" cy="365.912982649" fill="rgb(0%,0%,100%)" r="0.7" /><circle cx="372.030565086" cy="368.070970947" fill="rgb(0%,0%,100%)" r="0.7" /><circle cx="370.002035052" cy="370.28108412" fill="rgb(0%,0%,100%)" r="0.7" /><circle cx="368.027071316" cy="372.539210393" fill="rgb(0%,0%,100%)" r="0.7" /><circle cx="366.103487405" cy="374.841257654" fill="rgb(0%,0%,100%)" r="0.7" /><circle cx="364.228656281" cy="377.183201577" fill="rgb(0%,0%,100%)" r="0.7" /><circle cx="362.399528341" cy="379.561035175" fill="rgb(0%,0%,100%)" r="0.7" /><circle cx="360.612598328" cy="381.970738758" fill="rgb(0%,0%,100%)" r="0.7" /><circle cx="358.86381746" cy="384.408274837" fill="rgb(0%,0%,100%)" r="0.7" /><circle cx="357.148519197" cy="386.869497716" fill="rgb(0%,0%,100%)" r="0.7" /><circle cx="355.461275312" cy="389.350056948" fill="rgb(0%,0%,100%)" r="0.7" /><circle cx="353.795702661" cy="391.845219699" fill="rgb(0%,0%,100%)" r="0.7" /><circle cx="352.144130068" cy="394.349663688" fill="rgb(0%,0%,100%)" r="0.7" /><circle cx="350.497107348" cy="396.857127931" fill="rgb(0%,0%,100%)" r="0.7" /><circle cx="348.842720345" cy="399.359713227" fill="rgb(0%,0%,100%)" r="0.7" /><circle cx="347.165326219" cy="401.846929801" fill="rgb(0%,0%,100%)" r="0.7" /><circle cx="345.443638752" cy="404.303620979" fill="rgb(0%,0%,100%)" r="0.7" /><circle cx="343.647243497" cy="406.706081272" fill="rgb(0%,0%,100%)" r="0.7" /><circle cx="341.73053489" cy="409.013266989" fill="rgb(0%,0%,100%)" r="0.7" /><circle cx="339.622342245" cy="411.145405015" fill="rgb(0%,0%,100%)" r="0.7" /><circle cx="337.215623736" cy="412.927692774" fill="rgb(0%,0%,100%)" r="0.7" /><circle cx="334.420846543" cy="413.971709084" fill="rgb(0%,0%,100%)" r="0.7" /></svg>