<?xml version="1.0" encoding="utf-8" ?>
<svg baseProfile="full" height="100%" version="1.1" width="100%" xmlns="http://www.w3.org/2000/svg" xmlns:ev="http://www.w3.org/2001/xml-events" xmlns:xlink="http://www.w3.org/1999/xlink"><defs /><circle cx="297.762" cy="357.517" fill="rgb(100%,0%,0%)" r="1.2" /><circle cx="302.751912738" cy="357.69863997" fill="rgb(100%,0%,0%)" r="1.2" /><circle cx="307.286038876" cy="355.864046228" fill="rgb(100%,0%,0%)" r="1.2" /><circle cx="312.066657569" cy="354.452039692" fill="rgb(100%,0%,0%)" r="1.2" /><circle cx="316.668648924" cy="352.701063396" fill="rgb(100%,0%,0%)" r="1.2" /><circle cx="320.815070165" cy="349.913049579" fill="rgb(100%,0%,0%)" r="1.2" /><circle cx="324.593571805" cy="346.642648654" fill="rgb(100%,0%,0%)" r="1.2" /><circle cx="327.998430164" cy="342.984012205" fill="rgb(100%,0%,0%)" r="1.2" /><circle cx="331.040999204" cy="339.018385955" fill="rgb(100%,0%,0%)" r="1.2" /><circle cx="333.738888476" cy="334.810285242" fill="rgb(100%,0%,0%)" r="1.2" /><circle cx="336.106731265" cy="330.407796209" fill="rgb(100%,0%,0%)" r="1.2" /><circle cx="338.143675075" cy="325.842803364" fill="rgb(100%,0%,0%)" r="1.2" /><circle cx="339.952330857" cy="323.92647014" fill="rgb(100%,0%,0%)" r="1.2" /><circle cx="342.707782271" cy="326.363279594" fill="rgb(100%,0%,0%)" r="1.2" /><circle cx="343.715189157" cy="327.931707989" fill="rgb(100%,0%,0%)" r="1.2" /><circle cx="342.299771613" cy="332.726276988" fill="rgb(100%,0%,0%)" r="1.2" /><circle cx="340.578809337" cy="337.419860895" fill="rgb(100%,0%,0%)" r="1.2" /><circle cx="338.56224868" cy="341.994257345" fill="rgb(100%,0%,0%)" r="1.2" /><circle cx="336.261114156" cy="346.43233662" fill="rgb(100%,0%,0%)" r="1.2" /><circle cx="333.686074862" cy="350.71730555" fill="rgb(100%,0%,0%)" r="1.2" /><circle cx="330.845332569" cy="354.830900286" fill="rgb(100%,0%,0%)" r="1.2" /><circle cx="327.740319233" cy="358.748701064" fill="rgb(100%,0%,0%)" r="1.2" /><circle cx="324.348960561" cy="362.42061182" fill="rgb(100%,0%,0%)" r="1.2" /><circle cx="321.185290759" cy="366.190814786" fill="rgb(100%,0%,0%)" r="1.2" /><circle cx="319.509447118" cy="370.213806579" fill="rgb(100%,0%,0%)" r="1.2" /><circle cx="314.559411746" cy="369.934976677" fill="rgb(100%,0%,0%)" r="1.2" /><circle cx="309.785091394" cy="368.462554124" fill="rgb(100%,0%,0%)" r="1.2" /><circle cx="306.253630188" cy="370.679808734" fill="rgb(100%,0%,0%)" r="1.2" /><circle cx="301.346745726" cy="371.273969523" fill="rgb(100%,0%,0%)" r="1.2" /><circle cx="302.160159414" cy="368.995355641" fill="rgb(100%,0%,0%)" r="1.2" /><circle cx="302.74248243" cy="365.279144977" fill="rgb(100%,0%,0%)" r="1.2" /><circle cx="300.19138521" cy="360.978923707" fill="rgb(100%,0%,0%)" r="1.2" /></svg>