<?xml version="1.0" encoding="utf-8" ?>
<svg baseProfile="full" height="100%" version="1.1" width="100%" xmlns="http://www.w3.org/2000/svg" xmlns:ev="http://www.w3.org/2001/xml-events" xmlns:xlink="http://www.w3.org/1999/xlink"><defs /><circle cx="313.638" cy="354.28" fill="rgb(100%,0%,0%)" r="1.2" /><circle cx="318.018509707" cy="351.877348821" fill="rgb(100%,0%,0%)" r="1.2" /><circle cx="322.050695968" cy="348.926172645" fill="rgb(100%,0%,0%)" r="1.2" /><circle cx="325.710591228" cy="345.523260653" fill="rgb(100%,0%,0%)" r="1.2" /><circle cx="328.999139009" cy="341.759513932" fill="rgb(100%,0%,0%)" r="1.2" /><circle cx="331.930748278" cy="337.711022656" fill="rgb(100%,0%,0%)" r="1.2" /><circle cx="334.523061765" cy="333.436986927" fill="rgb(100%,0%,0%)" r="1.2" /><circle cx="336.787679093" cy="328.980493381" fill="rgb(100%,0%,0%)" r="1.2" /><circle cx="338.712400914" cy="324.367206541" fill="rgb(100%,0%,0%)" r="1.2" /><circle cx="307.238193231" cy="355.886044736" fill="rgb(100%,0%,0%)" r="1.2" /><circle cx="312.014647381" cy="354.460290752" fill="rgb(100%,0%,0%)" r="1.2" /><circle cx="301.965538375" cy="357.73343172" fill="rgb(100%,0%,0%)" r="1.2" /><circle cx="303.293089571" cy="366.207268185" fill="rgb(100%,0%,0%)" r="1.2" /><circle cx="300.74199235" cy="361.907046915" fill="rgb(100%,0%,0%)" r="1.2" /><circle cx="298.19089513" cy="357.606825645" fill="rgb(100%,0%,0%)" r="1.2" /><circle cx="303.026721146" cy="368.313288954" fill="rgb(100%,0%,0%)" r="1.2" /><circle cx="306.243418182" cy="370.684614769" fill="rgb(100%,0%,0%)" r="1.2" /><circle cx="301.335513649" cy="371.272863408" fill="rgb(100%,0%,0%)" r="1.2" /><circle cx="339.335" cy="322.556" fill="rgb(0%,0%,100%)" r="1.2" /><circle cx="341.524478166" cy="327.04710189" fill="rgb(0%,0%,100%)" r="1.2" /><circle cx="344.079722597" cy="326.473506714" fill="rgb(0%,0%,100%)" r="1.2" /><circle cx="342.757798779" cy="331.294687821" fill="rgb(0%,0%,100%)" r="1.2" /><circle cx="341.127724285" cy="336.020600327" fill="rgb(0%,0%,100%)" r="1.2" /><circle cx="339.198892259" cy="340.632668515" fill="rgb(0%,0%,100%)" r="1.2" /><circle cx="336.982136209" cy="345.113485787" fill="rgb(0%,0%,100%)" r="1.2" /><circle cx="334.488410535" cy="349.446283387" fill="rgb(0%,0%,100%)" r="1.2" /><circle cx="331.726956421" cy="353.613536277" fill="rgb(0%,0%,100%)" r="1.2" /><circle cx="328.701988995" cy="357.593533503" fill="rgb(0%,0%,100%)" r="1.2" /><circle cx="325.402749365" cy="361.3488632" fill="rgb(0%,0%,100%)" r="1.2" /><circle cx="321.856872147" cy="364.868213407" fill="rgb(0%,0%,100%)" r="1.2" /><circle cx="320.816169445" cy="369.509899328" fill="rgb(0%,0%,100%)" r="1.2" /><circle cx="316.034996519" cy="370.21962756" fill="rgb(0%,0%,100%)" r="1.2" /><circle cx="311.199922756" cy="368.969837971" fill="rgb(0%,0%,100%)" r="1.2" /><circle cx="307.487175141" cy="369.833513415" fill="rgb(0%,0%,100%)" r="1.2" /><circle cx="302.847510121" cy="371.344049093" fill="rgb(0%,0%,100%)" r="1.2" /></svg>