<?xml version="1.0" encoding="utf-8" ?>
<svg baseProfile="full" height="100%" version="1.1" width="100%" xmlns="http://www.w3.org/2000/svg" xmlns:ev="http://www.w3.org/2001/xml-events" xmlns:xlink="http://www.w3.org/1999/xlink"><defs /><circle cx="282.417" cy="449.438" fill="rgb(100%,0%,0%)" r="0.7" /><circle cx="286.255597434" cy="446.234723779" fill="rgb(100%,0%,0%)" r="0.7" /><circle cx="289.985988751" cy="442.905662296" fill="rgb(100%,0%,0%)" r="0.7" /><circle cx="293.631824419" cy="439.484151448" fill="rgb(100%,0%,0%)" r="0.7" /><circle cx="297.199443418" cy="435.981138846" fill="rgb(100%,0%,0%)" r="0.7" /><circle cx="300.691121469" cy="432.402416045" fill="rgb(100%,0%,0%)" r="0.7" /><circle cx="304.107264791" cy="428.751516354" fill="rgb(100%,0%,0%)" r="0.7" /><circle cx="307.447183263" cy="425.03075593" fill="rgb(100%,0%,0%)" r="0.7" /><circle cx="310.709439677" cy="421.241720975" fill="rgb(100%,0%,0%)" r="0.7" /><circle cx="313.892032695" cy="417.385532823" fill="rgb(100%,0%,0%)" r="0.7" /><circle cx="316.992499177" cy="413.463012556" fill="rgb(100%,0%,0%)" r="0.7" /><circle cx="320.00797708" cy="409.474790897" fill="rgb(100%,0%,0%)" r="0.7" /><circle cx="322.935245843" cy="405.421388457" fill="rgb(100%,0%,0%)" r="0.7" /><circle cx="325.770753411" cy="401.303279696" fill="rgb(100%,0%,0%)" r="0.7" /><circle cx="328.51063623" cy="397.120947" fill="rgb(100%,0%,0%)" r="0.7" /><circle cx="331.150736203" cy="392.874928622" fill="rgb(100%,0%,0%)" r="0.7" /><circle cx="333.686616588" cy="388.56586406" fill="rgb(100%,0%,0%)" r="0.7" /><circle cx="336.113579634" cy="384.194537241" fill="rgb(100%,0%,0%)" r="0.7" /><circle cx="338.426686934" cy="379.761919633" fill="rgb(100%,0%,0%)" r="0.7" /><circle cx="340.620784269" cy="375.269213375" fill="rgb(100%,0%,0%)" r="0.7" /><circle cx="342.690532951" cy="370.717893105" fill="rgb(100%,0%,0%)" r="0.7" /><circle cx="344.630448012" cy="366.109747653" fill="rgb(100%,0%,0%)" r="0.7" /><circle cx="346.434944706" cy="361.44692009" fill="rgb(100%,0%,0%)" r="0.7" /><circle cx="348.098394312" cy="356.731944339" fill="rgb(100%,0%,0%)" r="0.7" /><circle cx="349.615189256" cy="351.96777776" fill="rgb(100%,0%,0%)" r="0.7" /><circle cx="350.795827883" cy="347.112109638" fill="rgb(100%,0%,0%)" r="0.7" /><circle cx="351.752807688" cy="342.204668824" fill="rgb(100%,0%,0%)" r="0.7" /><circle cx="352.594256379" cy="337.276096127" fill="rgb(100%,0%,0%)" r="0.7" /><circle cx="353.316832032" cy="332.328714992" fill="rgb(100%,0%,0%)" r="0.7" /><circle cx="353.907835763" cy="327.363934141" fill="rgb(100%,0%,0%)" r="0.7" /><circle cx="354.346445128" cy="322.383440827" fill="rgb(100%,0%,0%)" r="0.7" /><circle cx="354.601434028" cy="317.390293769" fill="rgb(100%,0%,0%)" r="0.7" /><circle cx="354.625847811" cy="312.390921762" fill="rgb(100%,0%,0%)" r="0.7" /><circle cx="354.346424515" cy="307.399779454" fill="rgb(100%,0%,0%)" r="0.7" /><circle cx="353.642010261" cy="302.451881232" fill="rgb(100%,0%,0%)" r="0.7" /><circle cx="352.470475165" cy="297.602256465" fill="rgb(100%,0%,0%)" r="0.7" /><circle cx="352.171480566" cy="292.612255898" fill="rgb(100%,0%,0%)" r="0.7" /><circle cx="352.322930659" cy="287.617643378" fill="rgb(100%,0%,0%)" r="0.7" /><circle cx="353.719842335" cy="282.877841841" fill="rgb(100%,0%,0%)" r="0.7" /><circle cx="356.991442622" cy="279.142223415" fill="rgb(100%,0%,0%)" r="0.7" /><circle cx="358.187703351" cy="274.347797749" fill="rgb(100%,0%,0%)" r="0.7" /><circle cx="356.952395598" cy="269.542148988" fill="rgb(100%,0%,0%)" r="0.7" /><circle cx="353.429568965" cy="266.388618047" fill="rgb(100%,0%,0%)" r="0.7" /><circle cx="348.52456861" cy="265.543190985" fill="rgb(100%,0%,0%)" r="0.7" /><circle cx="348.52456861" cy="265.543190985" fill="rgb(0%,0%,100%)" r="0.7" /><circle cx="343.811998857" cy="266.961998885" fill="rgb(0%,0%,100%)" r="0.7" /><circle cx="340.883802469" cy="270.928343706" fill="rgb(0%,0%,100%)" r="0.7" /><circle cx="339.831275625" cy="275.795404329" fill="rgb(0%,0%,100%)" r="0.7" /><circle cx="340.158841235" cy="280.784662469" fill="rgb(0%,0%,100%)" r="0.7" /><circle cx="340.480310958" cy="285.774317247" fill="rgb(0%,0%,100%)" r="0.7" /><circle cx="340.794969814" cy="290.764405913" fill="rgb(0%,0%,100%)" r="0.7" /><circle cx="341.100269933" cy="295.755075315" fill="rgb(0%,0%,100%)" r="0.7" /><circle cx="341.390021437" cy="300.746668882" fill="rgb(0%,0%,100%)" r="0.7" /><circle cx="341.640520646" cy="305.740346015" fill="rgb(0%,0%,100%)" r="0.7" /><circle cx="341.705274702" cy="310.738815012" fill="rgb(0%,0%,100%)" r="0.7" /><circle cx="341.427485595" cy="315.730394873" fill="rgb(0%,0%,100%)" r="0.7" /><circle cx="340.895653055" cy="320.701590994" fill="rgb(0%,0%,100%)" r="0.7" /><circle cx="340.151776861" cy="325.64560559" fill="rgb(0%,0%,100%)" r="0.7" /><circle cx="339.218479511" cy="330.557441072" fill="rgb(0%,0%,100%)" r="0.7" /><circle cx="338.110850867" cy="335.432959604" fill="rgb(0%,0%,100%)" r="0.7" /><circle cx="336.8401586" cy="340.268568313" fill="rgb(0%,0%,100%)" r="0.7" /><circle cx="335.415449298" cy="345.061079212" fill="rgb(0%,0%,100%)" r="0.7" /><circle cx="333.844364619" cy="349.807636534" fill="rgb(0%,0%,100%)" r="0.7" /><circle cx="332.133603648" cy="354.505672162" fill="rgb(0%,0%,100%)" r="0.7" /><circle cx="330.289202819" cy="359.152879116" fill="rgb(0%,0%,100%)" r="0.7" /><circle cx="328.316713404" cy="363.747194411" fill="rgb(0%,0%,100%)" r="0.7" /><circle cx="326.221319597" cy="368.286782644" fill="rgb(0%,0%,100%)" r="0.7" /><circle cx="324.007917198" cy="372.770025065" fill="rgb(0%,0%,100%)" r="0.7" /><circle cx="321.681166963" cy="377.19551029" fill="rgb(0%,0%,100%)" r="0.7" /><circle cx="319.245532013" cy="381.562023815" fill="rgb(0%,0%,100%)" r="0.7" /><circle cx="316.705303927" cy="385.868537688" fill="rgb(0%,0%,100%)" r="0.7" /><circle cx="314.064619723" cy="390.114202266" fill="rgb(0%,0%,100%)" r="0.7" /><circle cx="311.327474652" cy="394.298335471" fill="rgb(0%,0%,100%)" r="0.7" /><circle cx="308.497729566" cy="398.420414507" fill="rgb(0%,0%,100%)" r="0.7" /><circle cx="305.579118346" cy="402.480063406" fill="rgb(0%,0%,100%)" r="0.7" /><circle cx="302.575250034" cy="406.477045772" fill="rgb(0%,0%,100%)" r="0.7" /><circle cx="299.489613268" cy="410.411252583" fill="rgb(0%,0%,100%)" r="0.7" /><circle cx="296.325577434" cy="414.282693707" fill="rgb(0%,0%,100%)" r="0.7" /><circle cx="293.086394347" cy="418.091488232" fill="rgb(0%,0%,100%)" r="0.7" /><circle cx="289.775200371" cy="421.83785437" fill="rgb(0%,0%,100%)" r="0.7" /><circle cx="286.39501819" cy="425.522100143" fill="rgb(0%,0%,100%)" r="0.7" /><circle cx="282.94875708" cy="429.14461613" fill="rgb(0%,0%,100%)" r="0.7" /><circle cx="279.439216284" cy="432.70586532" fill="rgb(0%,0%,100%)" r="0.7" /><circle cx="275.869086463" cy="436.206375791" fill="rgb(0%,0%,100%)" r="0.7" /><circle cx="276.506739597" cy="437.837644372" fill="rgb(0%,0%,100%)" r="0.7" /><circle cx="280.7034841" cy="438.5795943" fill="rgb(0%,0%,100%)" r="0.7" /><circle cx="281.482866848" cy="443.518477021" fill="rgb(0%,0%,100%)" r="0.7" /><circle cx="282.262249595" cy="448.457359742" fill="rgb(0%,0%,100%)" r="0.7" /><circle cx="282.417" cy="449.438" fill="rgb(0%,0%,100%)" r="0.7" /></svg>